<?xml version="1.0" encoding="utf-8"?>
<!-- Generator: Adobe Illustrator 21.0.0, SVG Export Plug-In . SVG Version: 6.00 Build 0)  -->
<svg version="1.1" id="Layer_1" xmlns="http://www.w3.org/2000/svg" xmlns:xlink="http://www.w3.org/1999/xlink" x="0px" y="0px"
	 viewBox="0 0 200 200" style="enable-background:new 0 0 200 200;" xml:space="preserve">
<title>APPL</title>
<path d="M154.6,106.2c0.3,30.3,26.5,40.3,26.8,40.4c-3.2,10.1-7.9,19.7-13.8,28.4c-8.3,12.2-17,24.3-30.6,24.6
	c-13.4,0.2-17.7-7.9-33-7.9s-20.1,7.7-32.7,8.2C58,200.5,48,186.8,39.6,174.6C22.4,149.8,9.4,104.5,27,73.9
	c8.7-15.2,24.4-24.8,41.4-25.1c12.9-0.2,25.1,8.7,33,8.7s22.7-10.7,38.3-9.2c6.5,0.3,24.8,2.6,36.6,19.8
	C175.2,68.8,154.3,80.9,154.6,106.2 M129.4,32c7-8.5,11.7-20.2,10.4-31.9c-10.1,0.4-22.2,6.7-29.5,15.2
	c-6.5,7.5-12.2,19.5-10.6,30.9C111,47,122.4,40.4,129.4,32"/>
</svg>
