<svg id="Layer_1" data-name="Layer 1" xmlns="http://www.w3.org/2000/svg" viewBox="0 0 200 200"><defs><style>.cls-1{fill:#113872;}.cls-2{fill:#fff;}</style></defs><title>ABBV</title><rect class="cls-1" width="200" height="200"/><path class="cls-2" d="M75.93,150.08c4.54.45,37.21-.23,37.21-.23,30.4.9,42-21.78,42-21.78,2.27,15.88,4.09,17.24,7,19.74s12.25,1.81,12.25,1.81L163.93,95c-9.52-45-42.87-43.83-50.35-44.74S76.37,50,76.37,50C24.87,54.34,26,99.49,26,99.49,27.14,148.94,71.38,149.62,75.93,150.08ZM40.3,99.9S39.84,65,76.37,63.6c4.08-.91,29.27-.45,37.21,0s34.94,6.13,35.16,36.07-21.33,36.75-35.39,37.44-32,.45-37.21,0S42.11,134.39,40.3,99.9Z" transform="translate(0)"/></svg>