<svg id="Layer_1" data-name="Layer 1" xmlns="http://www.w3.org/2000/svg" viewBox="0 0 200 200"><defs><style>.cls-1{fill:#0096d7;}</style></defs><title>ABT</title><g id="layer1"><g id="g2404"><path id="path2384" class="cls-1" d="M173.4,19.9H0V46.6H164.8a8.6,8.6,0,0,1,8.6,8.6v89.9a8.66,8.66,0,0,1-8.6,8.6H35.3a8.6,8.6,0,0,1-8.6-8.6V108.9a8.6,8.6,0,0,1,8.6-8.6H146.7v-27H26.6A26.59,26.59,0,0,0,0,99.9H0v53.6a26.57,26.57,0,0,0,26.5,26.6H173.4A26.59,26.59,0,0,0,200,153.5V46.5a26.59,26.59,0,0,0-26.6-26.6h0"/></g></g></svg>