<?xml version="1.0" encoding="utf-8"?>
<!-- Generator: Adobe Illustrator 21.0.0, SVG Export Plug-In . SVG Version: 6.00 Build 0)  -->
<svg version="1.1" id="Layer_1" xmlns="http://www.w3.org/2000/svg" xmlns:xlink="http://www.w3.org/1999/xlink" x="0px" y="0px"
	 viewBox="0 0 200 200" style="enable-background:new 0 0 200 200;" xml:space="preserve">
<style type="text/css">
	.st0{fill:#008FFF;}
	.st1{fill:#FFFFFF;}
</style>
<title>ACN</title>
<rect class="st0" width="200" height="200"/>
<path class="st1" d="M50.2,46.7c0.8,0.3,1.4,0.8,2.2,1.1c32,12.9,64.3,26,96.3,38.8c2.2,0.8,1.9,0.5,1.9,3v23.2
	c-33.6,13.7-67.3,27.1-100.9,40.8v-31.4c19.4-7.1,38.8-14.5,58.3-21.6v-0.5C88.5,92.4,69,85,49.6,77.4V46.7H50.2z"/>
<rect x="-0.5" y="0.5" class="st0" width="200" height="200"/>
<path class="st1" d="M56.7,54.7c0.7,0.3,1.2,0.7,1.9,0.9C86.1,66.8,113.9,78,141.4,89c1.9,0.7,1.6,0.4,1.6,2.6v19.9
	c-28.9,11.8-57.8,23.3-86.7,35.1v-27c16.7-6.1,33.3-12.5,50.1-18.6v-0.4c-16.8-6.6-33.5-13-50.2-19.5V54.7H56.7z"/>
</svg>
