<?xml version="1.0" encoding="UTF-8"?>
<svg width="34px" height="20px" viewBox="0 0 34 20" version="1.1" xmlns="http://www.w3.org/2000/svg" xmlns:xlink="http://www.w3.org/1999/xlink">
    <!-- Generator: Sketch 49 (51002) - http://www.bohemiancoding.com/sketch -->
    <title>ALL</title>
    <desc>Created with Sketch.</desc>
    <defs></defs>
    <g id="Page-1" stroke="none" stroke-width="1" fill="none" fill-rule="evenodd">
        <g id="ALL" fill-rule="nonzero">
            <rect id="Rectangle-path" fill="#BC0030" x="0" y="0" width="33.56" height="19.58"></rect>
            <path d="M22.18,12.44 C22.1258456,12.4068532 22.0634916,12.3895327 22,12.39 C21.9338544,12.4017873 21.8661456,12.4017873 21.8,12.39 C21.6904713,12.3353524 21.5584245,12.3553595 21.47,12.44 C21.4,12.49 21.36,12.5 21.1,12.53 C20.84,12.56 20.62,12.53 20.62,12.53 C20.6836295,12.4716336 20.754152,12.4212604 20.83,12.38 C20.99,12.28 21.05,12.25 21.1,12.26 C21.2324752,12.2729121 21.3629746,12.2207124 21.45,12.12 C21.55,12.02 21.57,12.01 21.8,12.02 L21.89,12.02 C21.8332674,11.8601915 21.664647,11.7693959 21.5,11.81 C21.4345293,11.8278586 21.3654707,11.8278586 21.3,11.81 C21.1359807,11.774101 20.9703151,11.8633056 20.91,12.02 C20.91,12.1 20.74,12.22 20.48,12.37 L20.29,12.49 L19.93,12.35 C19.6730425,12.2647029 19.4251658,12.1541632 19.19,12.02 C19.2207849,11.9659418 19.2576949,11.91561 19.3,11.87 C19.3428218,11.8285159 19.3798251,11.7814209 19.41,11.73 L19.25,11.64 C18.7450089,11.4182885 18.3417115,11.0149911 18.12,10.51 C18,10.2 18.06,10.12 18.21,10.4 C18.2865301,10.5747363 18.4114427,10.7239375 18.57,10.83 C18.74,10.94 18.84,10.96 18.9,10.9 C18.96,10.84 18.96,10.75 18.85,10.62 C18.6,10.34 18.53,9.91 18.73,9.91 C18.93,9.91 18.82,9.91 18.97,10.29 C19.0868447,10.6538187 19.3054688,10.9765495 19.6,11.22 C19.75,11.3 19.99,11.22 20.03,11.11 C20.07,11 20.03,10.94 19.85,10.84 C19.5702955,10.6478842 19.3850031,10.3463299 19.34,10.01 C19.34,9.89 19.34,9.86 19.34,9.81 C19.34,9.76 19.45,9.75 19.62,10.01 C19.936055,10.492804 20.3277261,10.9216164 20.78,11.28 C21.1071655,11.5317837 21.5628345,11.5317837 21.89,11.28 C21.9878703,11.224079 22.0336361,11.1075842 22,11 C22,10.88 21.91,10.83 21.71,10.84 C21.26,10.84 21.22,10.84 21.05,10.78 C20.6400301,10.5343585 20.3207375,10.1624353 20.14,9.72 C19.9,9.22 19.96,9.2 20.37,9.61 C20.78,10.02 21.37,10.38 21.76,10.25 C21.96,10.2 22.14,10.02 22.14,9.88 C22.14,9.74 22.07,9.7 21.85,9.71 L21.45,9.71 C21.3147403,9.7269318 21.1776706,9.69881494 21.06,9.63 C20.9374732,9.56389044 20.8233235,9.48331424 20.72,9.39 C20.42774,9.10205614 20.190516,8.7631647 20.02,8.39 C20.02,8.27 20.12,8.32 20.39,8.56 C20.6350456,8.76539488 20.8996455,8.94626065 21.18,9.1 C21.2943885,9.14478233 21.417737,9.16191405 21.54,9.15 C21.66333,9.16925981 21.7895829,9.14821766 21.9,9.09 C22.0385326,9.03943947 22.1305113,8.90746992 22.13,8.76 C22.13,8.51 22.03,8.45 21.67,8.55 C21.31,8.65 20.91,8.55 20.45,8.11 C20.23,7.88 20.15,7.76 20.18,7.69 C20.21,7.62 20.3,7.69 20.73,7.87 C20.9727005,8.03782885 21.25575,8.13793175 21.55,8.16 C21.7021329,8.19864128 21.8633062,8.17715151 22,8.1 C22.18,7.94 22.23,7.77 22.11,7.65 C21.99,7.53 21.84,7.56 21.64,7.65 C21.5489855,7.69585537 21.4509843,7.72626953 21.35,7.74 C20.9817723,7.74814905 20.6242431,7.61586326 20.35,7.37 C20.19,7.21 20.12,7.07 20.16,7.01 C20.2,6.95 20.27,7.01 20.45,7.01 C20.6855445,7.12922873 20.9460002,7.1909156 21.21,7.19 C21.4591476,7.20044113 21.7059195,7.13787925 21.92,7.01 C22.11,6.9 22.24,6.77 22.24,6.68 C22.2353525,6.62676555 22.2182226,6.57537608 22.19,6.53 C22.12,6.41 21.98,6.42 21.74,6.53 C21.4056953,6.78093178 20.9615572,6.83070588 20.58,6.66 C20.399212,6.55280512 20.2452976,6.40573138 20.13,6.23 C20.13,6.16 20.13,6.14 20.13,6.11 C20.13,6.08 20.21,6.11 20.58,6.21 C20.9510887,6.3470225 21.3589113,6.3470225 21.73,6.21 C21.985471,6.09685487 22.1739036,5.87147476 22.24,5.6 C22.2408072,5.51046271 22.200208,5.42557349 22.13,5.37 C22.02,5.37 21.96,5.37 21.79,5.53 C21.5479691,5.78800111 21.2029545,5.92380475 20.85,5.9 C20.41,5.9 20.22,5.83 20.22,5.67 C20.22,5.51 20.31,5.49 20.49,5.46 C21.0415501,5.37294801 21.5614957,5.14568702 22,4.8 C22.2,4.61 22.28,4.48 22.28,4.32 C22.2769827,4.15940486 22.1587734,4.02430855 22,4 C21.88,4 21.79,4 21.66,4.22 C21.4589368,4.54534601 21.1619802,4.80037932 20.81,4.95 C20.5898058,5.06414528 20.3539094,5.14502405 20.11,5.19 C20.0691879,5.16606357 20.0401974,5.12620169 20.03,5.08 C20,4.89 20,4.89 19.75,5 L19.18,5.22 C18.8,5.35 18.67,5.43 18.59,5.61 C18.51,5.79 18.53,5.75 18.53,6.02 C18.53,6.29 18.53,6.34 18.47,6.41 C18.4090778,6.51476871 18.2894297,6.57060446 18.17,6.55 C17.94,6.55 17.81,6.41 17.8,6.15 C17.7838891,5.93520198 17.8289628,5.7202347 17.93,5.53 C18.0237879,5.30935839 18.1847506,5.12390138 18.39,5 C18.6118685,4.85757854 18.8667751,4.77490612 19.13,4.76 C19.3653667,4.76083673 19.5902874,4.66288738 19.75,4.49 C19.5705937,4.54656835 19.3759696,4.5285476 19.21,4.44 C19.21,4.44 19.74,4.44 19.8,4.44 C19.9516598,4.43003537 20.0957863,4.37027561 20.21,4.27 C20.34,4.18 20.43,4.09 20.4,4.02 C20.37,3.95 20.27,3.97 20.2,4.02 L20.06,4.18 C19.98,4.27 19.96,4.28 19.72,4.31 C19.6152339,4.33847666 19.5047661,4.33847666 19.4,4.31 C19.4,4.31 19.34,4.26 19.34,4.24 C19.34,4.22 19.44,4.15 19.53,4.13 C19.6465475,4.13333372 19.7616141,4.15702391 19.87,4.2 C19.8513774,4.14472733 19.8279547,4.09118988 19.8,4.04 C19.74,3.92 19.63,3.88 19.37,3.87 C19.11,3.86 19.12,3.87 19.08,3.82 L19,3.78 C18.9571231,3.7711052 18.9128769,3.7711052 18.87,3.78 C18.6308726,3.7894381 18.3961425,3.84727015 18.18,3.95 C18.0722722,4.00664084 17.9516376,4.03421446 17.83,4.03 C17.7369519,4.04032016 17.6430481,4.04032016 17.55,4.03 C17.35,3.98 17.31,3.98 17.31,4.03 C17.31,4.08 17.48,4.23 17.61,4.3 C17.74,4.37 17.7,4.36 17.69,4.39 C17.601734,4.49161647 17.4877483,4.56760694 17.36,4.61 C17.24,4.61 17.24,4.7 17.36,4.76 C17.4038934,4.77496716 17.4422371,4.80285347 17.47,4.84 C17.47,4.91 17.22,5.07 17.11,5.07 C17,5.07 17.03,5.18 17.18,5.21 C17.33,5.24 17.26,5.21 17.18,5.32 C17.1291649,5.40132677 17.0347927,5.44458072 16.94,5.43 C16.85,5.43 16.83,5.43 16.88,5.54 C16.93,5.65 16.88,5.62 16.88,5.65 L16.81,5.65 L16.73,5.65 L16.65,5.65 C16.65,5.65 16.65,5.65 16.65,5.54 C16.65,5.43 16.65,5.4 16.59,5.43 C16.4952073,5.44458072 16.4008351,5.40132677 16.35,5.32 C16.28,5.24 16.28,5.23 16.35,5.21 C16.42,5.19 16.55,5.07 16.41,5.07 C16.27,5.07 16.05,4.91 16.05,4.84 C16.05,4.77 16.05,4.79 16.16,4.76 C16.27,4.73 16.29,4.65 16.16,4.61 C16.0322517,4.56760694 15.918266,4.49161647 15.83,4.39 C15.83,4.39 15.83,4.34 15.91,4.3 C15.99,4.26 16.2,4.08 16.2,4.03 C16.2,3.98 16.2,4.03 15.97,4.03 C15.8769431,4.0401592 15.7830569,4.0401592 15.69,4.03 C15.5683624,4.03421446 15.4477278,4.00664084 15.34,3.95 C15.1240471,3.84673946 14.889206,3.78888005 14.65,3.78 C14.6071537,3.77081186 14.5628463,3.77081186 14.52,3.78 L14.42,3.86 C14.42,3.86 14.32,3.86 14.13,3.91 C13.94,3.96 13.76,3.96 13.7,4.08 C13.6705156,4.13042543 13.647023,4.18412271 13.63,4.24 C13.7477876,4.19344627 13.8733466,4.16969185 14,4.17 C14.09,4.17 14.19,4.24 14.19,4.28 C14.19,4.32 14.19,4.28 14.13,4.35 C14.0252339,4.37847666 13.9147661,4.37847666 13.81,4.35 C13.57,4.35 13.55,4.35 13.47,4.22 L13.35,4 C13.28,3.92 13.18,3.91 13.15,4 C13.12,4.09 13.2,4.15 13.34,4.25 C13.4542137,4.35027561 13.5983402,4.41003537 13.75,4.42 C13.81,4.42 14.32,4.42 14.34,4.42 C14.1740304,4.5085476 13.9794063,4.52656835 13.8,4.47 C13.86,4.61 14.15,4.71 14.42,4.74 C14.6833945,4.75399549 14.9385285,4.83674165 15.16,4.98 C15.3629594,5.09763149 15.5238602,5.2760215 15.62,5.49 C15.7200179,5.68060239 15.7650299,5.89527469 15.75,6.11 C15.75,6.38 15.61,6.51 15.38,6.51 C15.2605703,6.53060446 15.1409222,6.47476871 15.08,6.37 C15,6.34 15,6.3 15,6 C15,5.7 15,5.67 14.95,5.59 C14.9,5.51 14.73,5.33 14.35,5.2 L13.8,5 C13.55,4.89 13.54,4.9 13.48,5.07 C13.4687462,5.11571842 13.4400269,5.15520743 13.4,5.18 C13.1560152,5.13531211 12.920077,5.05441901 12.7,4.94 C12.3480198,4.79037932 12.0510632,4.53534601 11.85,4.21 C11.73,4.01 11.63,3.95 11.51,3.99 C11.3651594,4.03661589 11.2731735,4.17877598 11.29,4.33 C11.29,4.49 11.36,4.62 11.57,4.81 C12.0110371,5.16959337 12.5385192,5.40747744 13.1,5.5 C13.28,5.5 13.37,5.6 13.37,5.71 C13.37,5.82 13.19,5.94 12.74,5.94 C12.3870455,5.96380475 12.0420309,5.82800111 11.8,5.57 C11.63,5.39 11.57,5.36 11.46,5.41 C11.3860268,5.46350418 11.341567,5.54871866 11.34,5.64 C11.4074779,5.91077485 11.5954625,6.13561921 11.85,6.25 C12.0566339,6.34362487 12.2841707,6.38154766 12.51,6.36 C12.6776081,6.36187019 12.8439963,6.3313091 13,6.27 C13.37,6.13 13.41,6.13 13.45,6.17 C13.49,6.21 13.45,6.17 13.45,6.29 C13.3352565,6.46619204 13.181223,6.61337962 13,6.72 C12.6212024,6.88676474 12.182011,6.83711702 11.85,6.59 C11.61,6.45 11.47,6.45 11.4,6.59 C11.3727199,6.63581319 11.3556638,6.68698136 11.35,6.74 C11.35,6.83 11.48,6.97 11.67,7.07 C11.8838529,7.19842672 12.1307916,7.26103091 12.38,7.25 C12.6439998,7.2509156 12.9044555,7.18922873 13.14,7.07 C13.31,7 13.38,6.99 13.43,7.07 C13.48,7.15 13.43,7.27 13.24,7.43 C12.9672838,7.67949289 12.6095829,7.81541923 12.24,7.81 C12.13555,7.79756411 12.0340468,7.76711317 11.94,7.72 C11.74,7.62 11.57,7.61 11.48,7.72 C11.39,7.83 11.41,8.01 11.59,8.17 C11.7126565,8.27251749 11.8706548,8.32278966 12.03,8.31 C12.3193368,8.27901773 12.5953342,8.17206877 12.83,8 C13.26,7.79 13.36,7.75 13.38,7.82 C13.4,7.89 13.33,8.02 13.11,8.24 C12.65,8.71 12.39,8.8 11.89,8.68 C11.39,8.56 11.41,8.68 11.43,8.89 C11.4323315,9.03656728 11.5232982,9.16708477 11.66,9.22 C11.7704171,9.27821766 11.89667,9.29925981 12.02,9.28 C12.142263,9.29191405 12.2656115,9.27478233 12.38,9.23 C12.6609109,9.07716868 12.9255984,8.89624304 13.17,8.69 C13.44,8.45 13.55,8.4 13.55,8.52 C13.37968,8.89327681 13.1424325,9.23220194 12.85,9.52 C12.7467985,9.61346678 12.6326297,9.69405656 12.51,9.76 C12.3923294,9.82881494 12.2552597,9.8569318 12.12,9.84 L11.72,9.84 C11.51,9.84 11.43,9.84 11.43,10.01 C11.43,10.18 11.62,10.32 11.81,10.38 C12.22,10.5 12.66,10.29 13.2,9.74 C13.74,9.19 13.67,9.35 13.43,9.85 C13.2498885,10.2928176 12.9304426,10.6649194 12.52,10.91 C12.35,10.99 12.31,10.99 11.86,10.97 C11.66,10.97 11.57,10.97 11.57,11.13 C11.5707658,11.2006374 11.6039495,11.2670049 11.66,11.31 C11.9851741,11.5566897 12.4348259,11.5566897 12.76,11.31 C13.2195056,10.9407713 13.614832,10.4981409 13.93,10 C14.1,9.74 14.15,9.71 14.21,9.8 C14.27,9.89 14.21,9.89 14.21,10 C14.1637995,10.3359024 13.9787821,10.6370092 13.7,10.83 C13.53,10.94 13.49,11 13.52,11.1 C13.55,11.2 13.8,11.29 13.95,11.21 C14.2408505,10.9652222 14.4559169,10.6426227 14.57,10.28 C14.73,9.92 14.74,9.91 14.81,9.91 C14.88,9.91 14.94,10.34 14.7,10.62 C14.59,10.75 14.57,10.83 14.65,10.9 C14.73,10.97 14.81,10.9 14.98,10.83 C15.1385573,10.7239375 15.2634699,10.5747363 15.34,10.4 C15.49,10.12 15.55,10.19 15.43,10.51 C15.2115277,11.0137537 14.8117918,11.4170586 14.31,11.64 L14.15,11.73 C14.1805582,11.7811585 14.2175238,11.8282057 14.26,11.87 C14.3023051,11.91561 14.3392151,11.9659418 14.37,12.02 C14.1351388,12.1547635 13.8872004,12.2653306 13.63,12.35 L13.27,12.49 L13.09,12.37 C12.9200481,12.2904971 12.7723467,12.170275 12.66,12.02 C12.5996849,11.8633056 12.4340193,11.774101 12.27,11.81 C12.2045293,11.8278586 12.1354707,11.8278586 12.07,11.81 C11.905353,11.7693959 11.7367326,11.8601915 11.68,12.02 L11.77,12.02 C11.99,12.02 12.02,12.02 12.11,12.12 C12.1970254,12.2207124 12.3275248,12.2729121 12.46,12.26 C12.51,12.26 12.58,12.26 12.73,12.38 C12.8054986,12.4218164 12.8759579,12.4721445 12.94,12.53 C12.94,12.53 12.82,12.53 12.46,12.53 C12.1,12.53 12.16,12.53 12.09,12.44 C12.0015755,12.3553595 11.8695287,12.3353524 11.76,12.39 C11.6938936,12.4022231 11.6261064,12.4022231 11.56,12.39 C11.4965084,12.3895327 11.4341544,12.4068532 11.38,12.44 C11.3032808,12.4816652 11.2485172,12.5546833 11.23,12.64 C11.2930772,12.6480547 11.3569228,12.6480547 11.42,12.64 C11.59,12.64 11.61,12.64 11.66,12.64 L11.77,12.72 C11.876543,12.7590008 11.993457,12.7590008 12.1,12.72 C12.2455672,12.6946027 12.3944328,12.6946027 12.54,12.72 L12.94,12.72 C12.8857866,12.7680648 12.8252188,12.8084433 12.76,12.84 C12.659782,12.9315532 12.5248753,12.9753068 12.39,12.96 C12.17,12.96 12.05,13.03 12.01,13.16 L12.01,13.36 C12.01,13.49 12.01,13.51 12.01,13.74 C12.12,13.49 12.08,13.56 12.11,13.52 C12.14,13.48 12.18,13.43 12.31,13.42 C12.4488085,13.4300106 12.5781721,13.3491584 12.63,13.22 C12.63,13.12 12.72,13.09 12.95,12.94 C13.18,12.79 13.24,12.74 13.6,12.94 C13.78,13.02 13.84,13.07 13.87,13.12 C13.9236839,13.2261344 14.0494323,13.2738321 14.16,13.23 C14.29,13.23 14.33,13.23 14.41,13.33 C14.49,13.43 14.41,13.33 14.5,13.42 C14.5067267,13.3702262 14.5067267,13.3197738 14.5,13.27 C14.5,13.16 14.5,13.15 14.36,13.01 C14.22,12.87 14.11,12.81 14,12.85 C13.89,12.89 13.9,12.85 13.77,12.85 C13.64,12.85 13.56,12.73 13.64,12.73 L14.17,12.53 L14.67,12.33 L14.74,12.39 C14.8710512,12.4949739 15.0253666,12.5669878 15.19,12.6 C15.28,12.6 15.29,12.6 15.31,12.5 C15.4482129,12.1741992 15.6120605,11.8598794 15.8,11.56 C16.06,11.15 16.21,11.05 16.33,11.18 C16.45,11.31 16.33,11.27 16.33,11.43 C16.2971574,11.950822 16.0810691,12.4432199 15.72,12.82 C15.5539156,12.989897 15.3355683,13.0990707 15.1,13.13 C14.92,13.13 14.79,13.2 14.79,13.25 C14.8305206,13.3459788 14.9005777,13.4265444 14.99,13.48 C15.0812592,13.5078272 15.1787408,13.5078272 15.27,13.48 C15.4038328,13.4864033 15.5354005,13.4437327 15.64,13.36 C15.8,13.26 15.83,13.25 15.86,13.29 C15.89,13.33 15.86,13.34 15.86,13.44 C15.86,13.54 15.67,13.72 15.35,13.76 C15.03,13.8 14.9,13.9 15.02,14.06 C15.1101647,14.169171 15.2492671,14.2255638 15.39,14.21 C15.6146588,14.1959805 15.8239891,14.0913154 15.97,13.92 C16.07,13.83 16.15,13.77 16.17,13.78 C16.19,13.79 16.17,14 16.17,14.12 C16.1150912,14.2631812 16.0127276,14.3831936 15.88,14.46 L15.67,14.53 C15.4,14.6 15.36,14.71 15.55,14.84 C15.7035287,14.9200355 15.8864713,14.9200355 16.04,14.84 C16.20578,14.7371281 16.3514813,14.6049804 16.47,14.45 C16.47,14.37 16.56,14.45 16.55,14.55 C16.5159013,14.7022637 16.4436361,14.843353 16.34,14.96 C16.23,15.11 16.27,15.31 16.46,15.59 C16.5350609,15.7231099 16.6372721,15.8389493 16.76,15.93 C16.8779686,15.8367195 16.9764952,15.7212056 17.05,15.59 C17.24,15.32 17.27,15.11 17.16,14.97 C17.0588456,14.8530298 16.9899147,14.7117213 16.96,14.56 C16.96,14.44 16.96,14.38 17.04,14.46 C17.1580162,14.6154417 17.3038098,14.7476732 17.47,14.85 C17.6208308,14.9266049 17.7991692,14.9266049 17.95,14.85 C18.14,14.72 18.1,14.62 17.83,14.54 L17.62,14.47 C17.4877905,14.3925734 17.385603,14.2727674 17.33,14.13 C17.33,14.01 17.33,13.81 17.33,13.79 C17.33,13.77 17.43,13.84 17.53,13.93 C17.6752754,14.1022521 17.8850331,14.207131 18.11,14.22 C18.2715113,14.2278572 18.4231899,14.142295 18.5,14 C18.61,13.85 18.5,13.75 18.17,13.7 C17.84,13.65 17.71,13.58 17.65,13.38 C17.59,13.18 17.65,13.27 17.65,13.23 C17.65,13.19 17.71,13.23 17.87,13.3 C17.9754478,13.3821463 18.1064114,13.424621 18.24,13.42 C18.3279738,13.4470077 18.4220262,13.4470077 18.51,13.42 C18.5994223,13.3665444 18.6694794,13.2859788 18.71,13.19 C18.71,13.14 18.59,13.1 18.4,13.07 C18.1646602,13.0383267 17.9465425,12.9292679 17.78,12.76 C17.4203756,12.3822567 17.2045295,11.8904108 17.17,11.37 C17.17,11.22 17.17,11.17 17.17,11.12 C17.17,11.07 17.43,11.12 17.69,11.5 C17.8785763,11.7995143 18.0424511,12.1138863 18.18,12.44 C18.18,12.53 18.18,12.54 18.31,12.54 C18.4752711,12.50895 18.6300431,12.4367231 18.76,12.33 L18.83,12.27 L19.33,12.47 L19.87,12.67 C19.95,12.67 19.87,12.72 19.74,12.8 C19.61,12.88 19.56,12.87 19.51,12.8 C19.46,12.73 19.3,12.8 19.14,12.96 C18.98,13.12 19,13.11 19,13.22 C18.9932733,13.2697738 18.9932733,13.3202262 19,13.37 C19.034502,13.3448679 19.0648679,13.314502 19.09,13.28 C19.17,13.17 19.22,13.15 19.34,13.18 C19.4505677,13.2238321 19.5763161,13.1761344 19.63,13.07 C19.63,13.02 19.73,12.97 19.9,12.89 C20.25,12.73 20.23,12.73 20.55,12.89 C20.87,13.05 20.83,13.07 20.87,13.17 C20.9218279,13.2991584 21.0511915,13.3800106 21.19,13.37 C21.32,13.37 21.33,13.37 21.39,13.47 C21.45,13.57 21.39,13.47 21.5,13.69 C21.6,13.46 21.58,13.44 21.5,13.31 C21.42,13.18 21.5,13.16 21.5,13.11 C21.5,13.06 21.34,12.9 21.12,12.91 C20.985259,12.9240032 20.8508743,12.880419 20.75,12.79 C20.64,12.73 20.55,12.67 20.57,12.67 L21,12.67 C21.1455315,12.6441933 21.2944685,12.6441933 21.44,12.67 C21.546543,12.7090008 21.663457,12.7090008 21.77,12.67 L21.88,12.59 C21.93,12.59 21.95,12.54 22.12,12.59 C22.1830905,12.5978438 22.2469095,12.5978438 22.31,12.59 C22.2914828,12.5046833 22.2367192,12.4316652 22.16,12.39 M18.59,4.25 C18.64,4.25 18.59,4.11 18.65,4.12 L18.76,4.12 C18.84,4.12 18.88,4.23 18.83,4.27 C18.7084901,4.32111521 18.5715099,4.32111521 18.45,4.27 C18.36,4.02 18.52,4.27 18.58,4.2 M15.09,4.27 C14.9684901,4.32111521 14.8315099,4.32111521 14.71,4.27 C14.66,4.27 14.71,4.13 14.78,4.12 L14.89,4.12 C15,4.12 14.89,4.22 14.95,4.25 C15.01,4.28 15.18,4.07 15.08,4.32" id="Shape" fill="#000000"></path>
        </g>
    </g>
</svg>