<svg id="Layer_1" data-name="Layer 1" xmlns="http://www.w3.org/2000/svg" viewBox="0 0 200 200"><defs><style>.cls-1{fill:#333;}.cls-2{fill:#ff9201;}</style></defs><title>AMZN</title><path id="path3673" class="cls-1" d="M153.55,121.58c-4.18-5.71-8.64-10.35-8.64-21V65.34c0-15,1.09-28.67-10-38.94C126.08,18,111.54,15.12,100.4,15.12c-21.77,0-46.07,8-51.17,34.67-.54,2.82,1.53,4.32,3.41,4.72l22.18,2.38c2.08-.1,3.57-2.12,4-4.16,1.9-9.18,9.67-13.58,18.4-13.58,4.7,0,10,1.69,12.83,5.87,3.21,4.64,2.78,11,2.78,16.4v2.95c-13.26,1.47-30.61,2.44-43,7.83-14.33,6.13-24.4,18.62-24.4,37,0,23.53,15,35.29,34.24,35.29,16.26,0,25.16-3.79,37.71-16.44,4.16,6,5.53,8.84,13.12,15.09a4.77,4.77,0,0,0,5.41-.54h0l.06.06c4.56-4,12.87-11.16,17.53-15C155.34,126.1,155,123.64,153.55,121.58Zm-45-10.17c-3.63,6.38-9.42,10.29-15.84,10.29-8.76,0-13.9-6.62-13.9-16.42,0-19.29,17.49-22.78,34-22.78v4.88h0C112.81,96.21,113,103.56,108.53,111.41Z"/><g id="g3717"><path id="path3719" class="cls-2" d="M180.9,160.1c-21.89,16.19-53.7,24.78-81,24.78a146.38,146.38,0,0,1-99-37.75c-2.07-1.82-.25-4.38,2.23-3,28.17,16.36,63,26.27,99,26.27A196.91,196.91,0,0,0,177.68,155c3.72-1.57,6.86,2.4,3.22,5.12Z"/><path id="path3721" class="cls-2" d="M190,149.69c-2.81-3.55-18.5-1.73-25.61-.83-2.15.25-2.48-1.65-.58-3,12.56-8.84,33.13-6.28,35.44-3.3s-.66,23.54-12.39,33.37c-1.82,1.49-3.55.74-2.73-1.32C186.85,168,192.8,153.24,190,149.69Z"/></g></svg>