<svg xmlns="http://www.w3.org/2000/svg" xmlns:xlink="http://www.w3.org/1999/xlink" viewBox="0 0 33.56 19.58"><defs><style>.cls-1{fill:none;}.cls-2{clip-path:url(#clip-path);}.cls-3{fill:#d90037;}.cls-4{fill:#eee528;}.cls-5{fill:#221e88;}.cls-6{fill:#272425;}.cls-7{fill:#dbc190;}.cls-8{fill:#4b2508;}.cls-9{fill:#fff;}.cls-10{fill:#f9eb2e;}.cls-11{fill:#3227fc;}</style><clipPath id="clip-path"><rect class="cls-1" width="33.56" height="19.58"/></clipPath></defs><title>AND</title><g id="Layer_2" data-name="Layer 2"><g id="_4" data-name="4"><g id="ANDORRA"><g class="cls-2"><rect class="cls-3" x="23.07" width="10.5" height="19.58"/><rect class="cls-4" x="10.5" width="12.57" height="19.58"/><rect class="cls-5" width="10.5" height="19.58"/><g class="cls-2"><path class="cls-6" d="M17.19,5.79a.1.1,0,0,1,0-.15.12.12,0,0,1,.15,0l.07,0h0l-.07,0a.11.11,0,0,0-.14,0,.1.1,0,0,0,0,.14Z"/><path class="cls-7" d="M13.16,11.11l.05-.09,0-.07,0-.09,0,0h0l0,0,0,0h0l0,.05,0,.07-.06.09Z"/><path class="cls-7" d="M15.74,4.26c.41,0,.58.35,1,.35a1.18,1.18,0,0,0,.63-.21.78.78,0,0,1,.43-.13.4.4,0,0,1,.39.21.64.64,0,0,1,.07.36,2,2,0,0,1-.15.44.57.57,0,0,0-.07.23c0,.22.3.29.5.3a.93.93,0,0,0,.64-.23.26.26,0,0,1-.26-.22.29.29,0,0,1,.23-.28s.07,0,.09,0,0-.05,0-.08a.28.28,0,0,1,.2-.09.19.19,0,0,1,.13,0s0,0,.06,0,.09,0,.15,0A.26.26,0,0,1,20,5s0,.09.08.09a1.25,1.25,0,0,1,.19,0,.3.3,0,0,1,.26.13s0,.07.05.07a.32.32,0,0,1,.2.09l.06.07s0,.08.06.09a.25.25,0,0,1,.09,0,.32.32,0,0,1,.15.26.84.84,0,0,1,0,.12c-.1.35-.34.46-.58.76a.62.62,0,0,0-.19.4.38.38,0,0,0,.07.15c0-.08,0-.18.1-.18a.21.21,0,0,1,.21.19.28.28,0,0,1,0,.1.49.49,0,0,1,.21-.07H21a.89.89,0,0,1,.5.21,1.12,1.12,0,0,1,.39.9,1,1,0,0,1-.74,1,.32.32,0,0,1,.23.28.25.25,0,0,1-.24.25.24.24,0,0,1-.19-.07.65.65,0,0,0-.18.52.68.68,0,0,0,.08.32.74.74,0,0,0,.2.28c.06-.08.11-.14.21-.14a.21.21,0,0,1,.21.12s0,.05,0,.07,0,0,.06.07,0,.09,0,.14,0,0,.06.07a.33.33,0,0,1,0,.14.29.29,0,0,1-.31.28c-.05,0-.08,0-.12,0a1.3,1.3,0,0,1,.23.24.9.9,0,0,1,.15.46.74.74,0,0,1,0,.09,1.21,1.21,0,0,1-.14.61,1.1,1.1,0,0,1-.38.45,1.93,1.93,0,0,1-.86.34,3.67,3.67,0,0,1-.59.07l-.76,0a1.27,1.27,0,0,0-.93.36.42.42,0,0,1,.22.35.34.34,0,0,1-.26.33s-.06,0-.1,0,0,.07-.08.09a.36.36,0,0,1-.2.05A.45.45,0,0,1,17.2,15c-.12.1-.16.19-.29.26s-.06.06-.12.06-.12-.05-.18-.1a1.19,1.19,0,0,1-.24-.22.59.59,0,0,1-.34.13.34.34,0,0,1-.21-.06s0-.06-.08-.08-.07,0-.12,0a.38.38,0,0,1-.27-.37.35.35,0,0,1,.24-.32,1.23,1.23,0,0,0-.91-.34l-.75,0a4.41,4.41,0,0,1-.59-.07,1.5,1.5,0,0,1-.43-.11,1.47,1.47,0,0,1-1-1.21,1,1,0,0,1,0-.13,1,1,0,0,1,.34-.72c-.05,0-.1,0-.15,0a.31.31,0,0,1-.24-.29.24.24,0,0,1,0-.14s.05,0,.06-.08S12,11,12,11s0,0,.06-.07.11-.18.22-.18a.23.23,0,0,1,.21.13c.09,0,.12-.11.17-.2a.73.73,0,0,0,.13-.41.78.78,0,0,0,0-.3.41.41,0,0,0-.09-.2.24.24,0,0,1-.19.07.28.28,0,0,1-.27-.29.26.26,0,0,1,.16-.25,1.69,1.69,0,0,0-.25-.13.89.89,0,0,1-.28-.32.81.81,0,0,1-.11-.25,1.05,1.05,0,0,1-.06-.33.4.4,0,0,1,0-.09,1.09,1.09,0,0,1,.25-.64.88.88,0,0,1,.64-.36h.1a.37.37,0,0,1,.16,0s.06,0,.06,0,0,0,0-.07A.2.2,0,0,1,13,7c.08,0,.11.07.15.14a.22.22,0,0,0,0-.12c0-.18-.1-.28-.21-.43-.25-.3-.56-.45-.56-.86a.28.28,0,0,1,.16-.26s.07,0,.1,0,0-.05,0-.07a.42.42,0,0,1,.08-.09c.06-.05.11,0,.17-.08s0-.05.06-.08A.28.28,0,0,1,13.31,5l.14,0,.05,0A.21.21,0,0,1,13.58,5a.24.24,0,0,1,.12,0c.06,0,.1,0,.16,0s0,0,0,0A.22.22,0,0,1,14,4.91a.24.24,0,0,1,.15.05s.06.07.11.1,0,0,.08,0a.31.31,0,0,1,.25.29.22.22,0,0,1-.08.19s-.09,0-.15.05A.85.85,0,0,0,15,5.8c.22,0,.5-.09.5-.32s-.06-.16-.1-.25a1,1,0,0,1-.12-.46.53.53,0,0,1,.1-.36.38.38,0,0,1,.35-.15Z"/><path class="cls-6" d="M12.76,7.8l-.06,0h0a.11.11,0,0,0,.1,0,.13.13,0,0,0,0-.12.15.15,0,0,0-.13-.11.14.14,0,0,1,.14.11.13.13,0,0,1,0,.13.07.07,0,0,1-.06,0Z"/><path class="cls-7" d="M17.06,14.75c-.21,0-.3-.15-.3-.26s0-.06,0-.09A.69.69,0,0,1,17,14l0,0,.13-.1a2.06,2.06,0,0,1,.55-.24l.13,0,.24,0h.08l.3,0h1.05l.3,0a1.6,1.6,0,0,0,.77-.21.83.83,0,0,0,.35-.94.61.61,0,0,0-.06-.13l-.06-.09a.37.37,0,0,0-.13-.11.29.29,0,0,0-.32,0,.19.19,0,0,0,0,.17.13.13,0,0,0,0,.07h0a.18.18,0,0,1,0-.07.19.19,0,0,1,.05-.18.29.29,0,0,1,.33-.05.48.48,0,0,1,.14.12l.06.09a.93.93,0,0,1,.06.13.85.85,0,0,1-.35,1,1.64,1.64,0,0,1-.77.22l-.3,0H18.48l-.3,0H18.1l-.21,0-.16,0a2.18,2.18,0,0,0-.52.23l-.13.09L17,14a.69.69,0,0,0-.23.36.61.61,0,0,0,0,.09c0,.1.09.22.28.26Z"/><path class="cls-8" d="M17.81,14.75a.2.2,0,0,1-.18-.12.27.27,0,0,0,.2.09.12.12,0,0,0,.08,0,.1.1,0,0,0,0-.08v-.05h0l0,0,0,0a.14.14,0,0,1,0,.06l0,.05a.13.13,0,0,1,0,.11.14.14,0,0,1-.1.05Z"/><path class="cls-8" d="M12.84,13.2a.75.75,0,0,1-.25-.83.44.44,0,0,1,.06-.14l.06-.08a.38.38,0,0,1,.14-.12.28.28,0,0,1,.34.05.2.2,0,0,1,0,.23.08.08,0,0,1-.1,0,.08.08,0,0,1-.05,0v0l0,0c.06,0,.08,0,.11,0a.17.17,0,0,0,0-.19.25.25,0,0,0-.29,0,.4.4,0,0,0-.13.11l-.06.09a.5.5,0,0,0-.06.13.8.8,0,0,0,.22.82Z"/><path class="cls-8" d="M17.79,14.74a.18.18,0,0,1-.17-.12s.09.1.19.08a.1.1,0,0,0,.07,0,.1.1,0,0,0,0-.08v0h0l0,0a0,0,0,0,1,0,0h0l0,0,0,.05a.13.13,0,0,1-.12.16Z"/><path class="cls-8" d="M16.36,5.81a.18.18,0,0,0,0-.15.11.11,0,0,0-.13,0l-.12.07h0a0,0,0,0,1,0,0l.13-.07a.14.14,0,0,1,.18,0,.13.13,0,0,1,0,.18Z"/><path class="cls-6" d="M14.24,5.45a.2.2,0,0,0,.13.13.21.21,0,0,0,.21-.08.23.23,0,0,0,0-.21.26.26,0,0,0-.09-.12l-.27.28Z"/><path class="cls-8" d="M14.41,5.61h0a.21.21,0,0,1-.14-.14l.28-.29a.22.22,0,0,1,.12.13.26.26,0,0,1,0,.23.23.23,0,0,1-.18.08Zm.09-.42-.25.28a.23.23,0,0,0,.13.11h0a.19.19,0,0,0,.15-.07.21.21,0,0,0,0-.2.22.22,0,0,0-.09-.11Z"/><polygon class="cls-7" points="14.47 5.15 14.51 5.18 14.55 5.22 14.58 5.27 14.59 5.32 14.59 5.38 14.59 5.41 14.58 5.46 14.55 5.49 14.52 5.53 14.47 5.55 14.42 5.56 14.36 5.57 14.31 5.55 14.26 5.51 14.23 5.47 14.21 5.42 14.21 5.39 14.47 5.15"/><path class="cls-8" d="M15.44,6V6a2.26,2.26,0,0,0,.71-.29,1.68,1.68,0,0,1-.71.33Z"/><path class="cls-8" d="M15.42,6V6a2.43,2.43,0,0,0,.71-.29,1.71,1.71,0,0,1-.7.32Z"/><path class="cls-8" d="M16.77,15.3a1,1,0,0,1-.43-.34,1.39,1.39,0,0,0,.43.3,1,1,0,0,0,.39-.32l0,0a1,1,0,0,1-.42.34Z"/><path class="cls-8" d="M19.93,5.77a.72.72,0,0,0,.16-.32A.51.51,0,0,0,20,5.07c-.07-.11-.18-.12-.31,0h0a0,0,0,0,1,0,0,.25.25,0,0,1,.36.05.55.55,0,0,1,.09.4.49.49,0,0,1-.19.32Z"/><path class="cls-8" d="M20.26,6a.72.72,0,0,0,.29-.51.47.47,0,0,0-.08-.32A.29.29,0,0,0,20,5.09h0a0,0,0,0,1,0,0,.32.32,0,0,1,.46.08.52.52,0,0,1,.09.34.61.61,0,0,1-.32.51Z"/><path class="cls-8" d="M20.39,7.48l-.1,0c-.16-.07-.24-.21-.24-.46a1.23,1.23,0,0,1,.43-.75l.14-.16,0,0a.63.63,0,0,0,.18-.45.38.38,0,0,0-.32-.36v0a.41.41,0,0,1,.35.39.66.66,0,0,1-.18.47l0,0-.15.16a1.21,1.21,0,0,0-.42.72c0,.23.07.36.22.43a.27.27,0,0,0,.27-.05.22.22,0,0,0,.07-.22A.15.15,0,0,0,20.52,7a.1.1,0,0,0-.11,0,.12.12,0,0,0,0,.12.08.08,0,0,0,.08,0,.07.07,0,0,1-.11,0A.14.14,0,0,1,20.53,7a.2.2,0,0,1,.15.14.25.25,0,0,1-.08.25.3.3,0,0,1-.21.08Z"/><path class="cls-8" d="M20.43,7.23c-.08,0-.17-.11-.17-.21s.22-.45.4-.63l.15-.16A.66.66,0,0,0,21,5.74a.26.26,0,0,0-.23-.26v0a.29.29,0,0,1,.26.29.7.7,0,0,1-.22.51l-.16.16c-.18.18-.4.39-.39.61a.23.23,0,0,0,.17.21Z"/><path class="cls-8" d="M21,9.33h0a.41.41,0,0,1-.3-.14.35.35,0,0,1-.07-.28.27.27,0,0,1,.15-.22.22.22,0,0,1,.24,0,.19.19,0,0,1,.1.2A.16.16,0,0,1,20.9,9,.14.14,0,0,1,20.76,9a.1.1,0,0,1,0-.11.26.26,0,0,0,0,.1.1.1,0,0,0,.11.05A.14.14,0,0,0,21,8.9a.16.16,0,0,0-.08-.17.22.22,0,0,0-.21,0,.25.25,0,0,0-.13.2.32.32,0,0,0,.07.25.39.39,0,0,0,.28.13.88.88,0,0,0,.55-.16A1.06,1.06,0,0,0,21.83,8a1.09,1.09,0,0,0-.37-.62.65.65,0,0,0-.86,0,.4.4,0,0,0-.08.43.28.28,0,0,0,.25.17A.24.24,0,0,0,21,7.83a.21.21,0,0,0-.07-.23.16.16,0,0,0-.13,0,.17.17,0,0,0-.09.08.09.09,0,0,0,0,.11.07.07,0,0,0,.09,0h0s0,0,0,0a.1.1,0,0,1-.13,0,.12.12,0,0,1,0-.14.17.17,0,0,1,.11-.1.18.18,0,0,1,.16,0,.25.25,0,0,1,.08.27.27.27,0,0,1-.26.19.3.3,0,0,1-.28-.19.42.42,0,0,1,.09-.46.67.67,0,0,1,.9,0,1.11,1.11,0,0,1,.38.64,1.08,1.08,0,0,1-.35,1.14.9.9,0,0,1-.53.16Z"/><path class="cls-8" d="M21,9.11A.33.33,0,0,1,20.8,9a.14.14,0,0,1,0-.1.57.57,0,0,1,.07.08.37.37,0,0,0,.21.07c.37,0,.58-.31.57-.81s-.24-.81-.58-.81c-.14,0-.28,0-.32.19h0c0-.2.22-.22.35-.21.37,0,.61.44.62.84s-.22.83-.61.84Z"/><path class="cls-8" d="M20.88,9.05a.67.67,0,0,0,.51-.76.68.68,0,0,0-.49-.72h0v0h0a.7.7,0,0,1,.52.75.67.67,0,0,1-.55.76Z"/><path class="cls-8" d="M21.32,11.63H21.2L21,11.52a1.21,1.21,0,0,1-.31-.23,1.16,1.16,0,0,1-.32-.61,1.61,1.61,0,0,1,0-.65c.09-.35.34-.73.66-.73a.34.34,0,0,1,.19,0,.22.22,0,0,1,.07.07.2.2,0,0,1,.05.09.29.29,0,0,1,0,.21.22.22,0,0,1-.15.11.25.25,0,0,1-.22,0,.21.21,0,0,1-.07-.2A.14.14,0,0,1,21,9.48a.14.14,0,0,1,.15.1,0,0,0,0,1,0,0h0A.12.12,0,0,0,21,9.51a.1.1,0,0,0-.09.08.18.18,0,0,0,.05.17.23.23,0,0,0,.2,0,.18.18,0,0,0,.12-.09.25.25,0,0,0,0-.19.27.27,0,0,0,0-.09.22.22,0,0,0-.06-.06.28.28,0,0,0-.17,0c-.3,0-.55.37-.63.71a1.63,1.63,0,0,0,0,.64,1.16,1.16,0,0,0,.31.6,1.4,1.4,0,0,0,.3.21l.22.09a.36.36,0,0,0,.2,0,.22.22,0,0,0,.17-.12.26.26,0,0,0-.22-.35.16.16,0,0,0-.15.09.18.18,0,0,0,0,.07.14.14,0,0,0,0,.11.12.12,0,0,0,.13,0,.09.09,0,0,0,0-.09.08.08,0,0,1,0,.13.17.17,0,0,1-.16,0,.18.18,0,0,1-.06-.14.19.19,0,0,1,0-.09.2.2,0,0,1,.18-.11.27.27,0,0,1,.23.15.26.26,0,0,1,0,.25.27.27,0,0,1-.2.15Z"/><path class="cls-8" d="M21.3,11.45l-.1,0-.08,0a1.1,1.1,0,0,1-.48-.5.88.88,0,0,1-.09-.24.91.91,0,0,1,0-.18,1.39,1.39,0,0,1,0-.34,1.08,1.08,0,0,1,.22-.49A.27.27,0,0,1,21,9.48a.38.38,0,0,0-.22.16,1.08,1.08,0,0,0-.22.48,1.59,1.59,0,0,0,0,.33,1,1,0,0,0,0,.17,1,1,0,0,0,.09.24,1.06,1.06,0,0,0,.44.48l.1.05a.15.15,0,0,0,.14,0v0l-.06,0Z"/><path class="cls-8" d="M21.2,11.26a.14.14,0,0,1-.11-.15.23.23,0,1,1,.45,0l0,0v0a.19.19,0,1,0-.38,0,.18.18,0,0,0,.07.15Z"/><path class="cls-8" d="M21.12,11.1A.12.12,0,0,1,21,11a.22.22,0,0,1,.21-.22.21.21,0,0,1,.21.18h0a.18.18,0,0,0-.18-.16.19.19,0,0,0-.18.19.19.19,0,0,0,.05.13Z"/><path class="cls-8" d="M21,10.94a.86.86,0,0,1-.34-.68.79.79,0,0,1,.2-.55,1,1,0,0,0-.17.55.81.81,0,0,0,.33.65l0,0Z"/><path class="cls-8" d="M21.12,11.13a.65.65,0,0,1-.36-.3,0,0,0,0,1,0,0h0a.89.89,0,0,0,.33.31Z"/><path class="cls-8" d="M17.92,14.31c.28-.39.8-.41,1.36-.44a4.42,4.42,0,0,0,1.37-.21,1.34,1.34,0,0,0,.79-.71,1.36,1.36,0,0,0,.12-.53.85.85,0,0,0,0-.3,1,1,0,0,0-.52-.6.66.66,0,0,0-.43-.1.57.57,0,0,0-.34.19l0,0a.65.65,0,0,1,.37-.2.75.75,0,0,1,.45.11,1,1,0,0,1,.54.62.9.9,0,0,1,0,.32,1.36,1.36,0,0,1-.94,1.26,4.25,4.25,0,0,1-1.38.21c-.55,0-1.06,0-1.36.41Z"/><path class="cls-8" d="M20.38,12.5h0a.4.4,0,0,1-.28-.14.54.54,0,0,1-.1-.53.42.42,0,0,1,.24-.25.87.87,0,0,1,.82.12,0,0,0,0,1,0,0h0a.82.82,0,0,0-.79-.12.39.39,0,0,0-.22.22.51.51,0,0,0,.09.5.37.37,0,0,0,.26.14h0a.21.21,0,0,0,.23-.16c0-.15-.07-.2-.1-.2a.15.15,0,0,0-.11,0,.09.09,0,0,0,0,0,.12.12,0,0,0,0,.09.08.08,0,0,1,0-.1.14.14,0,0,1,.06-.07.21.21,0,0,1,.13,0,.19.19,0,0,1,.12.24.24.24,0,0,1-.26.18Z"/><path class="cls-8" d="M17.06,14.74c-.21,0-.31-.14-.31-.25s0-.06,0-.09A.67.67,0,0,1,17,14l0,0a.61.61,0,0,1,.14-.11,2.38,2.38,0,0,1,.55-.25l.13,0,.24,0,.08,0,.3,0h1.11l.25,0a1.93,1.93,0,0,0,.76-.21.81.81,0,0,0,.34-.93.52.52,0,0,0-.06-.13.51.51,0,0,0-.06-.09A.43.43,0,0,0,20.7,12a.23.23,0,0,0-.29,0,.19.19,0,0,0,0,.16h0a.21.21,0,0,1,.05-.19.25.25,0,0,1,.33-.05.39.39,0,0,1,.14.11l.07.09a.77.77,0,0,1,.06.13.85.85,0,0,1-.36,1,1.93,1.93,0,0,1-.78.22l-.25,0H18.48l-.3,0h-.08l-.21,0-.16,0a2,2,0,0,0-.52.22l-.13.09-.07.06a.7.7,0,0,0-.23.35s0,.05,0,.09.09.21.28.25Z"/><path class="cls-8" d="M17.77,15a.37.37,0,0,1-.27-.11.45.45,0,0,1-.14-.32c0-.5.83-.7.87-.71a4.49,4.49,0,0,1,1-.12h.2l.34,0a3.23,3.23,0,0,0,.48-.07,1.44,1.44,0,0,0,.67-.34,1,1,0,0,0,.31-.43.9.9,0,0,0-.06-.73.74.74,0,0,0-.54-.35.42.42,0,0,0-.46.25.39.39,0,0,0,0,.31.3.3,0,0,0,.24.15h0a.21.21,0,0,0,.23-.16c0-.15-.07-.2-.1-.2a.15.15,0,0,0-.11,0,.09.09,0,0,0,0,0,.12.12,0,0,0,0,.09.08.08,0,0,1,0-.1.14.14,0,0,1,.06-.07.21.21,0,0,1,.13,0,.19.19,0,0,1,.12.24.24.24,0,0,1-.26.18h0a.33.33,0,0,1-.27-.17.42.42,0,0,1,0-.35.46.46,0,0,1,.5-.26.77.77,0,0,1,.56.36.93.93,0,0,1,.07.76,1,1,0,0,1-.32.45,1.45,1.45,0,0,1-.68.34,2.93,2.93,0,0,1-.47.07l-.36,0h-.2a4.26,4.26,0,0,0-1,.12c-.29.07-.84.3-.84.68a.43.43,0,0,0,.13.3.33.33,0,0,0,.25.1.39.39,0,0,0,.28-.12.31.31,0,0,0,.07-.21.34.34,0,0,0,0-.12.29.29,0,0,0-.25-.18.2.2,0,0,0-.16.07.22.22,0,0,0-.06.17.16.16,0,0,0,.06.11.13.13,0,0,0,.11,0,.11.11,0,0,0,.08,0,.13.13,0,0,0,0-.11,0,0,0,0,1,0,0h0a.14.14,0,0,1,0,.14.13.13,0,0,1-.11.07.19.19,0,0,1-.13,0,.21.21,0,0,1-.07-.14.27.27,0,0,1,.06-.2.24.24,0,0,1,.19-.08.33.33,0,0,1,.31.33.33.33,0,0,1-.08.23.42.42,0,0,1-.3.14Z"/><path class="cls-8" d="M17.51,15.12A.45.45,0,0,1,17.2,15a.58.58,0,0,1-.12-.69,1.18,1.18,0,0,1,.62-.46h0a0,0,0,0,1,0,0,1.16,1.16,0,0,0-.61.45.55.55,0,0,0,.11.65.43.43,0,0,0,.35.11.26.26,0,0,0,.2-.13c0,.07-.09.15-.2.16Z"/><path class="cls-8" d="M20.7,8.27l-.15,0a.64.64,0,0,1-.49-.55.4.4,0,0,1,.15-.32l0,0a.37.37,0,0,0-.13.3.6.6,0,0,0,.47.52.43.43,0,0,0,.32,0,.23.23,0,0,1-.18.07Z"/><path class="cls-8" d="M20.29,9.73a.37.37,0,0,1-.24-.39.45.45,0,0,1,.22-.42V9a.41.41,0,0,0-.2.39.44.44,0,0,0,.21.39Z"/><path class="cls-8" d="M20.35,11.07a.9.9,0,0,1-.3-.72,1.13,1.13,0,0,1,.35-.77h0a0,0,0,0,1,0,0,1.11,1.11,0,0,0-.34.75,1,1,0,0,0,.27.72Z"/><path class="cls-8" d="M19.56,5.76a.64.64,0,0,0,.19-.31A.45.45,0,0,0,19.62,5a.22.22,0,0,0-.17,0,.27.27,0,0,0-.18.12h0v0a.3.3,0,0,1,.2-.14.23.23,0,0,1,.2,0,.5.5,0,0,1-.08.8Z"/><path class="cls-8" d="M15.08,6a1.29,1.29,0,0,1-.75-.2c-.21-.14-.43-.33-.32-.57a.28.28,0,0,1,.19-.17.34.34,0,0,1,.29.06.22.22,0,0,1,.1.13.24.24,0,0,1,0,.23.22.22,0,0,1-.22.08.2.2,0,0,1-.14-.14.15.15,0,0,1,0-.14.1.1,0,0,1,.1,0,.12.12,0,0,1,.09.09,0,0,0,0,1,0,0l0,0a.1.1,0,0,0-.06-.07.08.08,0,0,0-.07,0,.13.13,0,0,0,0,.12.17.17,0,0,0,.12.11.19.19,0,0,0,.19-.07.23.23,0,0,0,0-.2.19.19,0,0,0-.09-.11.31.31,0,0,0-.26-.05.25.25,0,0,0-.17.15c-.09.22.11.4.31.54a1.32,1.32,0,0,0,.75.2,2.14,2.14,0,0,0,1-.34l.07,0a.13.13,0,0,1,.16,0,.13.13,0,0,1,0,.17.16.16,0,0,0,0-.15.1.1,0,0,0-.12,0l-.07,0a2.1,2.1,0,0,1-1,.34Z"/><path class="cls-8" d="M13.63,5.75a.36.36,0,0,1-.21-.29.5.5,0,0,1,.09-.4A.27.27,0,0,1,13.86,5a0,0,0,0,1,0,0h0a.24.24,0,0,0-.32,0,.49.49,0,0,0,.1.67Z"/><path class="cls-8" d="M13.29,6A.52.52,0,0,1,13,5.49.49.49,0,0,1,13,5.15a.32.32,0,0,1,.47-.08l0,0a.29.29,0,0,0-.42.08.47.47,0,0,0-.08.32.57.57,0,0,0,.3.48Z"/><path class="cls-8" d="M13.14,7.48a.29.29,0,0,1-.21-.08.24.24,0,0,1-.08-.25A.19.19,0,0,1,13,7a.14.14,0,0,1,.14.06.14.14,0,0,1,0,.15.11.11,0,0,1-.12.05s.07,0,.09-.07a.13.13,0,0,0,0-.12A.1.1,0,0,0,13,7a.15.15,0,0,0-.12.12.22.22,0,0,0,.07.22.26.26,0,0,0,.27.05A.42.42,0,0,0,13.45,7,1.19,1.19,0,0,0,13,6.27l-.14-.16a.73.73,0,0,1-.19-.53A.37.37,0,0,1,13,5.21v0a.35.35,0,0,0-.31.34.7.7,0,0,0,.19.5s.08.1.14.16a1.2,1.2,0,0,1,.43.74c0,.25-.07.39-.24.46l-.1,0Z"/><path class="cls-8" d="M13.09,7.26h0l.05,0a.28.28,0,0,0,.09-.2c0-.22-.22-.45-.38-.61l-.14-.15c-.17-.21-.25-.31-.25-.52a.31.31,0,0,1,.28-.29v0a.27.27,0,0,0-.25.25.69.69,0,0,0,.22.48l.16.17c.17.17.4.41.39.64a.33.33,0,0,1-.1.23l-.06,0Z"/><path class="cls-8" d="M12.56,9.33A.84.84,0,0,1,12,9.13L12,9.06l0,0-.07-.09a1.15,1.15,0,0,1-.17-.41,1.3,1.3,0,0,1,0-.22,1.23,1.23,0,0,1,.42-.91.65.65,0,0,1,.89,0,.44.44,0,0,1,.08.46.29.29,0,0,1-.27.18.27.27,0,0,1-.27-.19.25.25,0,0,1,.08-.27.21.21,0,0,1,.18,0,.16.16,0,0,1,.1.09.13.13,0,0,1,0,.16.09.09,0,0,1-.12,0,0,0,0,0,1,0,0s0,0,0,0a.08.08,0,0,0,.09,0,.1.1,0,0,0,0-.12.13.13,0,0,0-.08-.08.18.18,0,0,0-.15,0,.21.21,0,0,0-.06.23.24.24,0,0,0,.23.16A.28.28,0,0,0,13,7.82a.4.4,0,0,0-.07-.43.63.63,0,0,0-.84,0,1.15,1.15,0,0,0-.37.61,1.24,1.24,0,0,0,0,.27.92.92,0,0,0,0,.21,1.12,1.12,0,0,0,.16.4l.07.09,0,0L12,9.1a.79.79,0,0,0,.55.2.39.39,0,0,0,.28-.12.33.33,0,0,0,.07-.25.27.27,0,0,0-.15-.21.2.2,0,0,0-.19,0,.19.19,0,0,0-.06.18.13.13,0,0,0,.1.11.08.08,0,0,0,.1,0,.07.07,0,0,0,0-.09c.05,0,.06.06,0,.11a.12.12,0,0,1-.13.05.16.16,0,0,1-.12-.13.21.21,0,0,1,.08-.2.23.23,0,0,1,.22,0,.3.3,0,0,1,.17.23.37.37,0,0,1-.08.28.43.43,0,0,1-.31.13Z"/><path class="cls-8" d="M12.21,11.63h-.1a.31.31,0,0,1-.19-.15.29.29,0,0,1,0-.24.24.24,0,0,1,.22-.15.2.2,0,0,1,.2.11.21.21,0,0,1,0,.09.19.19,0,0,1-.06.14.17.17,0,0,1-.16,0,.13.13,0,0,1-.06-.13c0,.05,0,.08.07.1a.12.12,0,0,0,.13,0,.15.15,0,0,0,0-.11.17.17,0,0,0,0-.07.17.17,0,0,0-.17-.09.23.23,0,0,0-.19.13.24.24,0,0,0,.16.35.36.36,0,0,0,.2,0l.22-.09a1.3,1.3,0,0,0,.3-.21,1.18,1.18,0,0,0,.31-.6,1.53,1.53,0,0,0,0-.64c-.08-.34-.33-.71-.63-.71a.29.29,0,0,0-.17,0l-.06.06a.34.34,0,0,0,0,.09.23.23,0,0,0,0,.19.17.17,0,0,0,.12.09.22.22,0,0,0,.2,0,.18.18,0,0,0,.05-.16.1.1,0,0,0-.09-.08.12.12,0,0,0-.12.08h0a0,0,0,0,1,0,0,.14.14,0,0,1,.15-.1.14.14,0,0,1,.12.11.21.21,0,0,1-.07.2.26.26,0,0,1-.23,0,.22.22,0,0,1-.14-.11.28.28,0,0,1,0-.21.27.27,0,0,1,0-.09.22.22,0,0,1,.07-.07.35.35,0,0,1,.19,0c.32,0,.58.38.66.73a1.64,1.64,0,0,1,0,.65,1.21,1.21,0,0,1-.32.61,1.51,1.51,0,0,1-.31.23l-.23.09-.12,0Z"/><path class="cls-8" d="M12.23,11.45l-.07,0v0a.15.15,0,0,0,.14,0l.06,0,0,0a1.08,1.08,0,0,0,.45-.48,1,1,0,0,0,.09-.24.66.66,0,0,0,0-.17,1.28,1.28,0,0,0,0-.33,1.05,1.05,0,0,0-.21-.48.25.25,0,0,0-.22-.13.21.21,0,0,1,.24.11,1.1,1.1,0,0,1,.22.49,1.51,1.51,0,0,1,0,.34.93.93,0,0,1,0,.18,1.11,1.11,0,0,1-.09.24,1.13,1.13,0,0,1-.46.5l-.1.05-.1,0Z"/><path class="cls-8" d="M12.36,11.29a.52.52,0,0,0,.05-.18.19.19,0,0,0-.38,0l0,0v0a.23.23,0,0,1,.45,0,.24.24,0,0,1-.08.18Z"/><path class="cls-8" d="M12.44,11.12a.85.85,0,0,0,0-.15.18.18,0,0,0-.36,0h0a.22.22,0,0,1,.21-.18.21.21,0,0,1,.21.22.21.21,0,0,1-.06.15Z"/><path class="cls-8" d="M12.48,10.94l0,0a.81.81,0,0,0,.32-.65.73.73,0,0,0-.19-.52.61.61,0,0,1,.22.52.85.85,0,0,1-.34.68Z"/><path class="cls-8" d="M12.43,11.16a1.4,1.4,0,0,0,.31-.34h0a0,0,0,0,1,0,0,.86.86,0,0,1-.34.32Z"/><path class="cls-8" d="M15.65,14.29a1.93,1.93,0,0,0-1.38-.38,4.39,4.39,0,0,1-1.38-.21,1.38,1.38,0,0,1-.82-.73,1.4,1.4,0,0,1-.12-.54,1,1,0,0,1,.59-.93.77.77,0,0,1,.45-.11.36.36,0,0,1,.32.2l0,0c0-.11-.13-.16-.29-.18a.71.71,0,0,0-.43.1,1,1,0,0,0-.52.6.82.82,0,0,0,0,.3,1.26,1.26,0,0,0,.1.5,1.34,1.34,0,0,0,.81.74,4.44,4.44,0,0,0,1.37.21,1.77,1.77,0,0,1,1.38.42Z"/><path class="cls-8" d="M13.16,12.5a.25.25,0,0,1-.27-.18.2.2,0,0,1,.12-.24.18.18,0,0,1,.13,0,.13.13,0,0,1,.06.07.17.17,0,0,1,0,.12s0-.09,0-.11a.08.08,0,0,0,0,0,.16.16,0,0,0-.11,0,.17.17,0,0,0-.1.2s0,.15.24.16a.38.38,0,0,0,.25-.14.51.51,0,0,0,.09-.5.39.39,0,0,0-.22-.22.83.83,0,0,0-.8.12h0s0,0,0,0a.86.86,0,0,1,.83-.12.45.45,0,0,1,.24.25.56.56,0,0,1-.1.53.4.4,0,0,1-.28.14Z"/><path class="cls-8" d="M16.48,14.77c.18-.07.27-.19.27-.29a.61.61,0,0,0,0-.09.69.69,0,0,0-.23-.35l0,0,0,0-.1-.07,0,0a2,2,0,0,0-.52-.22l-.06,0v0l-.08,0-.23,0h-.08l-.29,0H14l-.3,0a1.69,1.69,0,0,1-.78-.22.86.86,0,0,1-.36-1,.65.65,0,0,1,.06-.13l.06-.09a.4.4,0,0,1,.14-.11.28.28,0,0,1,.33.05.19.19,0,0,1,.05.19h0a.18.18,0,0,0,0-.16.26.26,0,0,0-.29,0,.41.41,0,0,0-.13.11l-.06.09a.52.52,0,0,0-.05.13.83.83,0,0,0,.34.93,1.64,1.64,0,0,0,.76.21l.3,0h1.06l.3,0h.08l.21,0,.1,0,.06,0a2.4,2.4,0,0,1,.53.23l0,0,.1.07,0,0,0,0a.68.68,0,0,1,.24.36.45.45,0,0,1,0,.09c0,.11-.09.24-.3.29Z"/><path class="cls-8" d="M15.77,15h0a.42.42,0,0,1-.3-.14.34.34,0,0,1-.08-.23.35.35,0,0,1,0-.13.31.31,0,0,1,.28-.2.23.23,0,0,1,.19.08.25.25,0,0,1,.06.19.23.23,0,0,1-.07.14.19.19,0,0,1-.13,0,.13.13,0,0,1-.11-.06.15.15,0,0,1,0-.14l0,0a.13.13,0,0,0,0,.11.11.11,0,0,0,.08,0,.13.13,0,0,0,.11,0,.18.18,0,0,0,.06-.11.21.21,0,0,0-.06-.16.26.26,0,0,0-.16-.07.28.28,0,0,0-.25.18.33.33,0,0,0,0,.12.32.32,0,0,0,.07.21.39.39,0,0,0,.28.13.34.34,0,0,0,.25-.1.43.43,0,0,0,.13-.3c0-.38-.55-.61-.84-.68a4.28,4.28,0,0,0-1-.12h-.2l-.35,0a2.86,2.86,0,0,1-.48-.07,1.41,1.41,0,0,1-.68-.34,1,1,0,0,1-.32-.45.92.92,0,0,1,.07-.76.76.76,0,0,1,.56-.36.44.44,0,0,1,.49.61.33.33,0,0,1-.27.17.23.23,0,0,1-.27-.18.2.2,0,0,1,.12-.24.18.18,0,0,1,.13,0,.13.13,0,0,1,.06.07.17.17,0,0,1,0,.12s0-.09,0-.11a.08.08,0,0,0,0,0,.16.16,0,0,0-.11,0,.17.17,0,0,0-.1.2s0,.15.24.16a.3.3,0,0,0,.24-.15.4.4,0,0,0,0-.31.42.42,0,0,0-.46-.25.74.74,0,0,0-.54.35.89.89,0,0,0-.06.73,1,1,0,0,0,.31.43,1.44,1.44,0,0,0,.66.34,3.38,3.38,0,0,0,.46.07l.36,0h.2a4.53,4.53,0,0,1,1,.13s.87.21.87.71a.47.47,0,0,1-.14.32.38.38,0,0,1-.27.11Z"/><path class="cls-8" d="M16,15.12H16a.27.27,0,0,1-.23-.15.46.46,0,0,0,.23.12.42.42,0,0,0,.34-.11.52.52,0,0,0,.17-.39.51.51,0,0,0-.06-.25,1.15,1.15,0,0,0-.61-.45l0,0a1.17,1.17,0,0,1,.62.46.53.53,0,0,1,.07.27.55.55,0,0,1-.19.42.43.43,0,0,1-.31.12Z"/><path class="cls-8" d="M12.87,8.26a.47.47,0,0,1-.23-.06.7.7,0,0,0,.34,0,.6.6,0,0,0,.47-.52.37.37,0,0,0-.14-.3l0,0a.4.4,0,0,1,.15.32.64.64,0,0,1-.49.55Z"/><path class="cls-8" d="M12.89,8.55a.56.56,0,0,1-.33-.1.5.5,0,0,1-.21-.3.94.94,0,0,0,.23.27.63.63,0,0,0,.31.09.64.64,0,0,0,.46-.21.31.31,0,0,0,.1-.19A.17.17,0,0,0,13.37,8l0,0a.2.2,0,0,1,.09.18.35.35,0,0,1-.11.21.67.67,0,0,1-.48.22Z"/><path class="cls-8" d="M13.17,9a.25.25,0,0,1,.09-.1.46.46,0,0,0,.19-.37.29.29,0,0,0-.09-.23l0,0a.32.32,0,0,1,.1.25.5.5,0,0,1-.2.39L13.17,9Z"/><path class="cls-8" d="M13.26,9.75a.56.56,0,0,0,.19-.41.45.45,0,0,0-.2-.39l0,0a.47.47,0,0,1,.21.42.45.45,0,0,1-.22.41Z"/><path class="cls-8" d="M13.21,11.1a1.24,1.24,0,0,0,.24-.74,1.09,1.09,0,0,0-.34-.75s0,0,0,0h0a1.14,1.14,0,0,1,.35.77,1,1,0,0,1-.28.74Z"/><path class="cls-8" d="M14,5.73a.37.37,0,0,1-.24-.27.46.46,0,0,1,.15-.5.23.23,0,0,1,.19,0,.3.3,0,0,1,.2.13v0h0a.28.28,0,0,0-.19-.14.22.22,0,0,0-.17,0,.45.45,0,0,0-.13.46.46.46,0,0,0,.21.28Z"/><path class="cls-8" d="M15,5.82h0a1,1,0,0,1-.77-.32,1.1,1.1,0,0,0,.77.29.86.86,0,0,0,.39-.11.22.22,0,0,0,.1-.27l-.05-.12a1.38,1.38,0,0,1-.15-.46c0-.36.15-.5.29-.55a.89.89,0,0,1,.71.18,1.33,1.33,0,0,0,.22.11.87.87,0,0,0,.54,0,1.25,1.25,0,0,0,.22-.11.89.89,0,0,1,.7-.18c.14.05.31.19.3.55a1.38,1.38,0,0,1-.15.46l-.05.13a.21.21,0,0,0,.09.27.83.83,0,0,0,.39.11.93.93,0,0,0,.74-.31l0,0a1,1,0,0,1-.77.32.77.77,0,0,1-.41-.11A.25.25,0,0,1,18,5.4l.05-.13a1.4,1.4,0,0,0,.15-.45c0-.27-.08-.45-.27-.51a.87.87,0,0,0-.67.17,1.43,1.43,0,0,1-.23.11.94.94,0,0,1-.56,0,1.2,1.2,0,0,1-.22-.11.88.88,0,0,0-.68-.17.46.46,0,0,0-.27.51,1.41,1.41,0,0,0,.15.46l.05.13a.26.26,0,0,1-.11.31.81.81,0,0,1-.4.11Z"/><path class="cls-8" d="M17.2,6a.3.3,0,0,1-.25-.44c.17-.29.5-.14.79,0v0a.33.33,0,0,1,0-.13.6.6,0,0,1,.13-.33A.87.87,0,0,0,18,4.88c0-.12,0-.22,0-.3a.22.22,0,0,0-.26,0l-.18.1a1.42,1.42,0,0,1-.71.23,1.37,1.37,0,0,1-.71-.23l-.18-.09a.23.23,0,0,0-.26,0c-.08.08-.07.17,0,.3a.93.93,0,0,0,.11.21.59.59,0,0,1,.13.33.29.29,0,0,1,0,.13l0,.06c.31-.17.64-.33.8,0a.3.3,0,0,1,0,.3.24.24,0,0,1-.45,0,.25.25,0,0,1,0-.23.4.4,0,0,0,0,.21.21.21,0,0,0,.39,0,.27.27,0,0,0,0-.27c-.14-.27-.45-.13-.74,0l0,0,0,0s0,0,0-.07a.28.28,0,0,0,0-.11.55.55,0,0,0-.12-.31,1.09,1.09,0,0,1-.12-.22.31.31,0,0,1,0-.34.25.25,0,0,1,.29,0l.18.09a1.39,1.39,0,0,0,.7.22,1.37,1.37,0,0,0,.7-.22l.19-.09a.25.25,0,0,1,.29,0c.09.09.08.2,0,.34a.93.93,0,0,1-.12.22.59.59,0,0,0-.12.31.33.33,0,0,0,0,.11.21.21,0,0,1,0,.07v0l0,0c-.3-.14-.6-.28-.76,0a.25.25,0,0,0,0,.25.21.21,0,0,0,.4,0c0-.07,0-.12,0-.2l0,0a.26.26,0,0,1,0,.22A.2.2,0,0,1,17.2,6Z"/><path class="cls-7" d="M16.77,5.23a.76.76,0,0,1-.42-.12L16.22,5A.23.23,0,0,0,16.06,5,.11.11,0,0,0,16,5a.14.14,0,0,0,0,.1A.11.11,0,0,1,16,5a.12.12,0,0,1,.08,0,.26.26,0,0,1,.17.07l.12.08a.78.78,0,0,0,.42.12.77.77,0,0,0,.41-.12L17.3,5a.25.25,0,0,1,.17-.07.14.14,0,0,1,.08,0,.16.16,0,0,1,0,.11h0a.12.12,0,0,0,0-.1.11.11,0,0,0-.07,0,.26.26,0,0,0-.17.07l-.12.08a.77.77,0,0,1-.42.12Z"/><path class="cls-8" d="M15.8,5.59h0a.34.34,0,0,0,0-.13.61.61,0,0,0-.12-.31.88.88,0,0,1-.11-.22.32.32,0,0,1,0-.35.28.28,0,0,1,.3,0l.19.1a1.41,1.41,0,0,0,.7.23,1.17,1.17,0,0,1-.71-.2l-.19-.09a.21.21,0,0,0-.25,0c-.08.08-.07.18,0,.3a.86.86,0,0,0,.11.21.6.6,0,0,1,.13.32.35.35,0,0,1,0,.13Z"/><path class="cls-8" d="M16.8,4.9a1.5,1.5,0,0,0,.39-.1,1.24,1.24,0,0,1-.39.09v0a1.78,1.78,0,0,0,.73-.25.7.7,0,0,1,.18-.08.24.24,0,0,1,.26.06.34.34,0,0,0-.27,0l-.18.09a1.37,1.37,0,0,1-.71.23Z"/><path class="cls-8" d="M17.32,6l0,0a.24.24,0,0,0,.06-.3c.08.05.08.12.07.2a.19.19,0,0,1-.09.13l0,0,0,0Z"/><path class="cls-7" d="M16.17,5.74a.1.1,0,0,1,.1-.11.1.1,0,1,1,0,.21.1.1,0,0,1-.1-.1Z"/><path class="cls-8" d="M20.09,11.71a.11.11,0,0,1,0-.1,1.13,1.13,0,0,0,0-.13v-.86h0v.86a.77.77,0,0,1,0,.14.47.47,0,0,1,0,.09Z"/><path class="cls-8" d="M20.06,11.75a.27.27,0,0,1,0-.15c0-.05,0-.13,0-.13v-.93h0v.93a.71.71,0,0,1,0,.13c0,.05,0,.1,0,.14Z"/><polygon class="cls-8" points="20.1 10.22 20.06 9.45 20.1 9.45 20.1 10.22 20.1 10.22"/><polygon class="cls-8" points="20.11 10.14 20.07 9.51 20.11 9.51 20.11 10.14 20.11 10.14"/><polygon class="cls-8" points="20.11 9.18 20.07 8.7 20.11 8.7 20.11 9.18 20.11 9.18"/><polygon class="cls-8" points="20.1 9.23 20.06 8.65 20.1 8.65 20.1 9.23 20.1 9.23"/><path class="cls-1" d="M20.09,8.21v0Z"/><path class="cls-1" d="M20.08,8.18v0Z"/><path class="cls-1" d="M20.09,7.82v0Z"/><path class="cls-1" d="M20.08,7.78v0Z"/><path class="cls-1" d="M20.09,7.2v0Z"/><polygon class="cls-8" points="20.1 7.6 20.06 7.13 20.1 7.13 20.1 7.6 20.1 7.6"/><path class="cls-8" d="M16.81,12.92a1.91,1.91,0,0,0-.36-.2,1.14,1.14,0,0,0-.27-.08,1.71,1.71,0,0,0-.32,0h-.29l-.17,0-.19,0h-.34a1.69,1.69,0,0,1-.37,0,1.35,1.35,0,0,1-.36-.12,1.2,1.2,0,0,1-.32-.22l0,0h.06a1,1,0,0,0,.3.21,1.24,1.24,0,0,0,.35.12,1.94,1.94,0,0,0,.37,0h.3l.23,0,.17,0h.3a1.64,1.64,0,0,1,.31,0,1.24,1.24,0,0,1,.28.08,1.2,1.2,0,0,1,.35.21c0-.05.18-.16.32-.21a1.28,1.28,0,0,1,.28-.08,1.56,1.56,0,0,1,.33,0H18l.17,0,.19,0a2,2,0,0,0,.34,0,1.92,1.92,0,0,0,.37,0,1.2,1.2,0,0,0,.35-.12,1.1,1.1,0,0,0,.31-.21A1,1,0,0,0,20,12l0,0a1,1,0,0,1-.22.31,1.14,1.14,0,0,1-.32.22,1.37,1.37,0,0,1-.35.12,1.73,1.73,0,0,1-.37,0h-.3l-.23,0-.17,0h-.3a1.58,1.58,0,0,0-.31,0,1.17,1.17,0,0,0-.27.08,1.19,1.19,0,0,0-.34.2Z"/><path class="cls-8" d="M16.79,12.9a2.07,2.07,0,0,0-.36-.2,1,1,0,0,0-.27-.07,1.33,1.33,0,0,0-.3,0h-.3l-.16,0-.2,0a1.66,1.66,0,0,1-.34,0,2,2,0,0,1-.37,0,1.19,1.19,0,0,1-.35-.12,1.09,1.09,0,0,1-.32-.22l-.13-.15a.68.68,0,0,1,.16.13,1,1,0,0,0,.31.21,1.3,1.3,0,0,0,.35.12,1.63,1.63,0,0,0,.37,0h.33l.2,0,.17,0h.3a1.66,1.66,0,0,1,.31,0,1.06,1.06,0,0,1,.28.08,1.15,1.15,0,0,1,.35.21s.17-.15.32-.21a1.07,1.07,0,0,1,.28-.08,1.63,1.63,0,0,1,.31,0H18l.17,0,.19,0a2,2,0,0,0,.34,0,1.65,1.65,0,0,0,.37,0,1.4,1.4,0,0,0,.35-.12,1,1,0,0,0,.31-.21,1,1,0,0,0,.22-.3l.05,0,0,0a1,1,0,0,1-.23.32,1.06,1.06,0,0,1-.31.22,1.3,1.3,0,0,1-.35.12,2,2,0,0,1-.37,0,1.93,1.93,0,0,1-.34,0l-.2,0-.16,0h-.3a1.31,1.31,0,0,0-.3,0,1,1,0,0,0-.28.07,1.17,1.17,0,0,0-.33.2Z"/><path class="cls-7" d="M12.93,12.23a.13.13,0,1,1,.13.13.13.13,0,0,1-.13-.13Z"/><path class="cls-7" d="M13.07,12.38a.14.14,0,0,1-.14-.14.14.14,0,0,1,.28,0,.14.14,0,0,1-.14.14Zm0-.27a.13.13,0,0,0-.13.13.13.13,0,0,0,.26,0,.13.13,0,0,0-.13-.13Z"/><polygon class="cls-8" points="12.57 12.55 12.54 12.47 12.59 12.29 12.7 12.11 12.82 12.02 12.93 11.98 12.95 12.01 12.83 12.05 12.73 12.13 12.62 12.3 12.57 12.55 12.57 12.55"/><path class="cls-8" d="M13.19,12.53a.28.28,0,0,1-.28-.19.36.36,0,0,0,.28.15h0a.4.4,0,0,0,.26-.14.53.53,0,0,0,.12-.4h0a.57.57,0,0,1-.12.43.4.4,0,0,1-.28.14Z"/><polygon class="cls-8" points="13.2 12.51 13.41 12.37 13.48 12.27 13.54 12.1 13.55 12 13.58 12.01 13.56 12.17 13.51 12.29 13.44 12.39 13.29 12.49 13.2 12.51 13.2 12.51"/><path class="cls-8" d="M13.42,12.36h0a.39.39,0,0,0,0-.34.75.75,0,0,0-.1-.14l0,0a.59.59,0,0,1,.1.14.43.43,0,0,1,0,.34l0,0Z"/><path class="cls-8" d="M15.64,14.28a2,2,0,0,0-1.35-.35,4.54,4.54,0,0,1-1.38-.21,1.66,1.66,0,0,1-.59-.38l0,0a1.68,1.68,0,0,0,.57.38,4.38,4.38,0,0,0,1.37.21,1.83,1.83,0,0,1,1.35.38Z"/><path class="cls-8" d="M16.79,14.37a1.71,1.71,0,0,0-.25-.29l0,0a.78.78,0,0,1,.22.31Z"/><path class="cls-8" d="M16.5,14.8l0,0c.25-.05.3-.18.31-.22h0a.35.35,0,0,1-.3.24Z"/><path class="cls-8" d="M16.38,15a2.41,2.41,0,0,0,.09-.23h0s0,0,0,0a.51.51,0,0,1-.12.23Z"/><path class="cls-8" d="M16.53,14.75a.27.27,0,0,1,0-.13.53.53,0,0,0-.06-.25,1.16,1.16,0,0,0-.6-.46l-.25-.1s0,0,0,0,0,0,0,0v0h0l.26.11a1.16,1.16,0,0,1,.61.48.53.53,0,0,1,.07.27.51.51,0,0,1,0,.13Z"/><path class="cls-8" d="M16.05,15.15H16a.36.36,0,0,1-.24-.14.62.62,0,0,0,.25.11.4.4,0,0,0,.35-.1l0,0,0,0,0,0a.46.46,0,0,1-.31.12Z"/><path class="cls-1" d="M16.51,14.64l0,.12Z"/><polygon class="cls-8" points="16.12 15.13 16.35 14.96 16.37 14.99 16.32 15.04 16.23 15.1 16.12 15.13 16.12 15.13"/><path class="cls-8" d="M16.79,15.32a.91.91,0,0,1-.43-.34,1.39,1.39,0,0,0,.43.3.93.93,0,0,0,.39-.32l0,0a.94.94,0,0,1-.41.34Z"/><path class="cls-6" d="M16.8,15.32a1,1,0,0,1-.42-.33,1.12,1.12,0,0,0,.42.32.93.93,0,0,0,.4-.33h0a1,1,0,0,1-.41.33Z"/><path class="cls-1" d="M16.06,15.12h0Z"/><path class="cls-8" d="M15.71,15a.31.31,0,0,1-.23-.11v0h0a.39.39,0,0,0,.26.13Z"/><path class="cls-8" d="M15.78,15h0a.47.47,0,0,1-.18,0l0,0a.42.42,0,0,0,.17,0,.37.37,0,0,0,.25-.11.42.42,0,0,0,.13-.3A.48.48,0,0,0,16,14.2a.42.42,0,0,1,.22.36.46.46,0,0,1-.14.32.39.39,0,0,1-.27.11Z"/><path class="cls-8" d="M15.77,14.74h0a.16.16,0,0,1-.12-.07.15.15,0,0,1,0-.14h0a0,0,0,0,1,0,0,.13.13,0,0,0,0,.12.11.11,0,0,0,.09.05.13.13,0,0,0,.11,0,.19.19,0,0,0,.06-.12.23.23,0,0,0-.1-.21.19.19,0,0,1,.13.21.2.2,0,0,1-.07.14.16.16,0,0,1-.11,0Z"/><path class="cls-7" d="M15.63,14.57a.12.12,0,0,1,.12-.12.12.12,0,1,1,0,.25.12.12,0,0,1-.12-.12Z"/><path class="cls-8" d="M16.8,15.33a.93.93,0,0,1-.43-.34v0h0a1,1,0,0,0,.42.35,1,1,0,0,0,.39-.32l0,0a1,1,0,0,1-.42.34Z"/><path class="cls-7" d="M17.52,13.93l.06,0,.11,0,.12,0,.07,0h0l-.07,0-.12,0-.12,0-.06,0Z"/><path class="cls-7" d="M17.28,14.19v0l0,0,.1-.07.13-.08.11-.05.11,0,.09,0-.08.05-.11,0-.11.05-.13.08-.09.07,0,0,0,0Z"/><path class="cls-7" d="M16.13,14.13h0l0,0,0,0L16,14l-.11-.06,0,0-.11-.05-.23-.09.13,0,.11,0,.11.05,0,0L16,14l.1.07,0,.05v0Z"/><path class="cls-8" d="M17.54,15.15a.46.46,0,0,1-.3-.12l0,0,0,0h0l0,0a.4.4,0,0,0,.35.11.27.27,0,0,0,.2-.12l.05,0a.08.08,0,0,1,0,0,.29.29,0,0,1-.23.14Z"/><polygon class="cls-8" points="17.53 15.14 17.7 15.06 17.76 15.02 17.8 14.95 17.82 14.97 17.78 15.04 17.72 15.09 17.63 15.13 17.53 15.14 17.53 15.14"/><path class="cls-8" d="M17.81,15l0,0a.39.39,0,0,0,.3-.13.32.32,0,0,0,.07-.21.34.34,0,0,0,0-.12.36.36,0,0,0-.12-.15l0,0a.42.42,0,0,1,.13.16.42.42,0,0,1,0,.13.32.32,0,0,1-.08.23.42.42,0,0,1-.3.14Z"/><path class="cls-8" d="M17.78,15a.37.37,0,0,1-.28-.12.59.59,0,0,0,.29.09v0Z"/><polygon class="cls-8" points="17.78 15 17.78 14.96 17.88 14.95 18.02 14.88 18.13 14.75 18.14 14.62 18.17 14.66 18.14 14.8 18.05 14.9 17.88 14.99 17.78 15 17.78 15"/><path class="cls-7" d="M17.66,14.58a.13.13,0,0,1,.13-.13.13.13,0,0,1,0,.26.13.13,0,0,1-.13-.13Z"/><path class="cls-8" d="M18,14.32c.28-.38.79-.4,1.34-.42a4.38,4.38,0,0,0,1.37-.21,1.34,1.34,0,0,0,.8-.71,1.39,1.39,0,0,0,.12-.53.85.85,0,0,0,0-.3,1,1,0,0,0-.25-.41l0,0a1,1,0,0,1,.26.42.84.84,0,0,1,0,.32,1.27,1.27,0,0,1-.11.51,1.37,1.37,0,0,1-.83.75,4.57,4.57,0,0,1-1.38.21,1.76,1.76,0,0,0-1.34.39Z"/><polygon class="cls-8" points="17.93 14.3 17.91 14.29 18.08 14.14 18.32 14.01 18.77 13.92 18.22 14.09 18.03 14.22 17.93 14.3 17.93 14.3"/><path class="cls-8" d="M20.85,12.13,20.7,12a.25.25,0,0,0-.29.05l0,0a.28.28,0,0,1,.33-.06.29.29,0,0,1,.13.12Z"/><path class="cls-8" d="M13.81,12.68s.05,0,.06,0,0,0,0,0h0l0,0s0,0,0,0,.05,0,0,.08a.22.22,0,0,1,0,.06l-.14.15h0v-.23a.31.31,0,0,1,0-.09s0,0,0,0,0,0,0,0l-.06,0-.05,0s0,0,0,0,0,0,0,0,0,0,0,.05V13s0,0,0,0h0Z"/><path class="cls-8" d="M14,12.75c0-.06.05,0,.06,0l0,0-.07,0-.06,0h0s.06,0,0,.08l-.09.29c0,.06-.05,0-.06.05h0l.06,0,.08,0s0,0,0,0-.06,0,0-.08Z"/><path class="cls-8" d="M14.18,12.8s0,0,.05,0,.07.07.05.13,0,.07-.11,0,0,0,0,0Zm-.15.26c0,.08-.06,0-.07.07h0l.08,0,0,0h0s-.06,0,0-.08l0-.11s0,0,0,0a0,0,0,0,1,0,0l0,.11s0,.08.05.1.06,0,.07,0h0l0,0,0-.19,0,0a.11.11,0,0,0,.05-.07s0-.12-.1-.15l-.11,0-.06,0h0s.06,0,0,.09Z"/><path class="cls-8" d="M14.48,13.2c0,.07-.07,0-.08.05s0,0,0,0l.08,0,.08,0s0,0,0,0-.07,0-.05-.09l.07-.28s0,0,0,0l0,0c.07,0,0,.07.05.08s0,0,0,0v-.06s0,0,0,0l-.17,0-.17,0h0l0,.08s0,0,0,0,0-.08.09-.07h0s0,0,0,0Z"/><path class="cls-8" d="M15.16,13s0,0,0,0,0,0,0,0h-.1s0,0,0,0,.06,0,0,.07a.17.17,0,0,1,0,.07l-.11.18h0v0l0-.22a.39.39,0,0,1,0-.09s0,0,0,0,0,0,0,0h-.06l-.06,0s0,0,0,0h0a.05.05,0,0,1,0,0l.07.39s0,0,0,0l0,0Z"/><path class="cls-8" d="M15.19,13.39s0,0,0,0l.09,0a.13.13,0,0,0,.15-.12c0-.08,0-.11-.07-.15s-.1-.07-.09-.11a.06.06,0,0,1,.07-.06c.1,0,.09.13.1.14s0,0,0,0v-.09s0,0,0,0h0s0,0-.08,0a.13.13,0,0,0-.07.24c.08.06.12.07.11.13a.08.08,0,0,1-.09.07.14.14,0,0,1-.1-.14s0,0,0,0,0,0,0,0Z"/><path class="cls-8" d="M16,13.15s0,0,0-.05h-.14s.06,0,.06.06a.47.47,0,0,1,0,.08l-.09.18h0l-.06-.21a.31.31,0,0,1,0-.09s0,0,0,0,0,0,0,0h-.12s0,0,0,0h0s0,0,0,0l.12.38s0,0,0,0l0,0Z"/><path class="cls-8" d="M16.13,13.46c0,.07-.05.05-.05.08h.16s-.07,0-.07-.11v-.21s0,0,0,0h0l.27.34h0s0,0,0,0v-.36c0-.07.05,0,.05-.07h-.15s.07,0,.07.07v.21s0,0,0,0l0,0-.23-.28s0,0,0,0h-.1s.06,0,.06.12Z"/><path class="cls-8" d="M16.68,13.17c0-.06,0,0,0-.06h-.16s0,0,0,0,.06,0,.06.06v.3c0,.06,0,0,0,.07h.18s-.07,0-.06-.07Z"/><path class="cls-8" d="M16.92,13.46c0,.08-.06,0-.06.07s0,0,0,0H17s0,0,0,0-.08,0-.08-.08v-.29s0,0,0,0h0c.06,0,0,.07.07.07s0,0,0,0v-.06s0,0,0,0h-.35s0,0,0,0v.08s0,0,0,0,0-.08.07-.08h0s0,0,0,0Z"/><path class="cls-8" d="M17.26,13.34h0a0,0,0,0,1,0,0l0-.12h0l.06.11v0h-.1Zm.1,0s0,0,0,.05a.18.18,0,0,1,0,0s0,0,0,.05,0,0,0,0h.14s0,0,0,0,0,0-.05,0l-.19-.38,0,0s0,0,0,0l-.13.4s0,0,0,.05h.12s0,0,0,0-.07,0-.07,0a.27.27,0,0,1,0-.05s0,0,0,0Z"/><path class="cls-8" d="M17.8,13.11s0,0,.06-.05.08.07.1.06,0,0,0,0V13h0l-.13,0-.15,0s0,0,0,0,.07,0,.07.05l0,.3c0,.07,0,0,0,.08h.15s0,0,0,0-.06,0-.07-.07V13.3s0,0,0,0h0c.06,0,.05.06.07.06s0,0,0,0l0-.11s0,0,0,0,0,.06-.05.07h0s0,0,0,0Z"/><path class="cls-8" d="M18,13.25a.2.2,0,0,0,.23.18.22.22,0,0,0,.17-.28.19.19,0,0,0-.23-.18.22.22,0,0,0-.17.28Zm.07-.05c0-.09,0-.18.09-.2s.15,0,.18.19,0,.19-.09.21-.16-.1-.18-.2Z"/><path class="cls-8" d="M18.52,13s0,0,0-.05a.1.1,0,0,1,.12.09s0,.07-.07.09,0,0,0,0Zm0,.3c0,.08,0,.07,0,.09a0,0,0,0,0,0,0l.09,0h.06s-.05,0-.07-.05l0-.11s0,0,0,0,0,0,.06,0l.07.09s.05.07.1.06.05,0,.05,0h0l-.13-.15,0,0a.09.09,0,0,0,0-.08s0-.11-.16-.09l-.11,0h-.07a0,0,0,0,0,0,0s.06,0,.08.05Z"/><path class="cls-8" d="M19,13.18c0,.07-.05.06,0,.08s0,0,0,0l.08,0,.08,0s0,0,0,0-.07,0-.09-.06L19,12.88s0,0,0,0h0c.06,0,.06.05.08.05s0,0,0,0l0-.05s0,0,0,0l-.17,0-.17,0s0,0,0,0V13s0,0,0,0,0-.09.05-.1h0s0,0,0,0Z"/><path class="cls-8" d="M19.28,12.79c0-.06,0,0,0-.07h0l-.07,0-.06,0s0,0,0,0,.06,0,.08,0l.08.29c0,.06,0,.05,0,.08h0l.06,0,.08,0h0s-.06,0-.08-.05Z"/><path class="cls-8" d="M19.4,12.93a.2.2,0,0,0,.25.14.22.22,0,0,0,.13-.3.19.19,0,0,0-.26-.14.22.22,0,0,0-.12.3Zm.06-.06c0-.09,0-.18.06-.21s.16,0,.21.16,0,.19-.06.22-.17-.08-.2-.17Z"/><path class="cls-8" d="M19.86,12.59s0,0,0-.05.1,0,.13.07,0,.07-.06.1,0,0,0,0Zm0,.3c0,.07,0,.07,0,.09h0l.08,0h0v0s0,0-.08,0l0-.1s0,0,0,0a.05.05,0,0,1,.06,0l.08.08s.06.06.1,0,.05,0,0-.05H20.2L20,12.68l0,0a.11.11,0,0,0,0-.09.12.12,0,0,0-.17-.06l-.11,0-.06,0s0,0,0,0,.06,0,.09,0Z"/><path class="cls-8" d="M20.91,11.24a1.34,1.34,0,0,1-.26-.35,1,1,0,0,1-.09-.25.79.79,0,0,1,0-.18,1.36,1.36,0,0,1,0-.34,1.1,1.1,0,0,1,.22-.49.52.52,0,0,1,.12-.12.65.65,0,0,1-.09.14,1.09,1.09,0,0,0-.22.48,1.37,1.37,0,0,0,0,.33,1.08,1.08,0,0,0,0,.17,1.11,1.11,0,0,0,.09.24,1.27,1.27,0,0,0,.25.34l0,0Z"/><path class="cls-8" d="M21.06,10.93h0l-.05,0a.86.86,0,0,1-.24-.58.78.78,0,0,1,.2-.55,1,1,0,0,0-.16.55.83.83,0,0,0,.22.56l0,0v0Z"/><polygon class="cls-8" points="20.76 10.24 20.73 10.24 20.76 10.02 20.85 9.82 20.91 9.75 20.76 10.16 20.76 10.24 20.76 10.24"/><path class="cls-8" d="M21.36,11.66l-.12,0-.08,0v0l.07,0a.4.4,0,0,0,.2,0,.24.24,0,0,0,.16-.35.23.23,0,0,0-.09-.11.15.15,0,0,1,.12.09.29.29,0,0,1,0,.24.3.3,0,0,1-.19.15l-.1,0Z"/><path class="cls-8" d="M21.57,11.18h0v0a.21.21,0,0,0-.06-.14l0-.07,0,0a.24.24,0,0,1,.09.18v0Z"/><path class="cls-8" d="M21.45,11a.19.19,0,0,0-.17-.17.17.17,0,0,1,.2.17Z"/><path class="cls-8" d="M21.13,9.86a.23.23,0,0,1-.19-.08l0,0a.21.21,0,0,0,.22.06.2.2,0,0,0,.12-.1.25.25,0,0,0,0-.19.23.23,0,0,0,0-.08.23.23,0,0,0-.07-.07v0a.39.39,0,0,1,.1.09.26.26,0,0,1,0,.09.28.28,0,0,1,0,.21.24.24,0,0,1-.15.11Z"/><polygon class="cls-8" points="21.11 9.85 21.06 9.84 21.26 9.76 21.32 9.65 21.32 9.57 21.35 9.57 21.32 9.72 21.24 9.81 21.11 9.85 21.11 9.85"/><path class="cls-1" d="M21.11,9.49l0,0a.06.06,0,0,1,0,0,.1.1,0,0,1,0,0s0,0,0,0Z"/><path class="cls-8" d="M21.31,11.45l-.07,0s0,0,0,0h0s0,0,0,0a.14.14,0,0,0,.16,0,.07.07,0,0,0,0-.09.07.07,0,0,1,0,.12.16.16,0,0,1-.1,0Z"/><path class="cls-7" d="M21.21,11.31a.11.11,0,0,1,.11-.1.11.11,0,0,1,.11.1.11.11,0,0,1-.11.11.1.1,0,0,1-.11-.11Z"/><path class="cls-7" d="M20.78,8.93a.08.08,0,1,1,.08.08.08.08,0,0,1-.08-.08Z"/><path class="cls-7" d="M20.72,7.73s0,0,.06,0,.06,0,.06,0,0,0-.06,0-.06,0-.06,0Z"/><path class="cls-8" d="M20.38,7.19A.15.15,0,0,1,20.29,7c0-.23.22-.45.41-.63l.15-.16c.16-.2.23-.29.23-.49a.29.29,0,0,0-.24-.29v0a.33.33,0,0,1,.28.32.72.72,0,0,1-.23.5l-.16.17c-.17.17-.4.4-.39.61a.25.25,0,0,0,.05.14Z"/><path class="cls-7" d="M20.39,7.14a.09.09,0,0,1,.08-.1.09.09,0,0,1,.09.1.1.1,0,0,1-.09.1.09.09,0,0,1-.08-.1Z"/><path class="cls-7" d="M20.48,7.25a.1.1,0,0,1-.09-.11.09.09,0,0,1,.18,0,.1.1,0,0,1-.09.11Zm0-.2a.09.09,0,0,0-.08.1.08.08,0,0,0,.17,0,.09.09,0,0,0-.08-.1Z"/><polygon class="cls-8" points="20.31 7 20.28 6.99 20.3 6.9 20.39 6.73 21.03 5.95 21.05 5.83 21.06 5.69 21.04 5.66 21.09 5.69 21.06 5.96 20.94 6.16 20.37 6.83 20.33 6.91 20.31 7 20.31 7"/><path class="cls-8" d="M20.69,7.3h0a.24.24,0,0,0,0-.21A.11.11,0,0,0,20.52,7a.09.09,0,0,1,.13,0,.29.29,0,0,1,0,.25Z"/><path class="cls-8" d="M20.39,7.49l-.08,0a.34.34,0,0,1-.11-.07l0,0,.11.07a.24.24,0,0,0,.21,0,.2.2,0,0,1-.14.07Z"/><path class="cls-8" d="M20.43,6.35V6.29l.21-.21a.7.7,0,0,0,.2-.46.36.36,0,0,0-.3-.37v0a.39.39,0,0,1,.33.41.71.71,0,0,1-.2.47l-.22.23,0,0Z"/><path class="cls-8" d="M20.27,6a.74.74,0,0,0,.29-.49.47.47,0,0,0-.08-.32.34.34,0,0,0-.14-.12,0,0,0,0,1,0,0h0a.35.35,0,0,1,.15.14.49.49,0,0,1,.09.34.65.65,0,0,1-.33.49Z"/><path class="cls-7" d="M20.2,6h0l0,0,0,0,.06,0h0l.05-.06,0,0a.06.06,0,0,1,0,.05l-.05.06,0,0L20.22,6Z"/><path class="cls-8" d="M19.93,5.78a.63.63,0,0,0,.18-.31A.45.45,0,0,0,20,5.09l0,0s0,0,0,0h0l0,0a.49.49,0,0,1,.09.4.47.47,0,0,1-.21.3Z"/><path class="cls-7" d="M19.84,5.78h0l0,0,0,0L20,5.63l0,0a.06.06,0,0,1,0,.05l-.05.08,0,0,0,0Z"/><path class="cls-8" d="M19.57,5.77a.64.64,0,0,0,.2-.3A.43.43,0,0,0,19.64,5a0,0,0,0,1,0,0h0a.46.46,0,0,1,.14.5.47.47,0,0,1-.23.29Z"/><path class="cls-7" d="M19.52,5.75h0l0,0,0,0,0,0,0,0,0,0h0l0-.06h0v0h0v0l0,.05,0,.06,0,0,0,0,0,0,0,0Z"/><path class="cls-8" d="M18.77,6a2,2,0,0,0,.43-.21c.22-.14.41-.32.31-.54a.29.29,0,0,0-.11-.13l0,0a.36.36,0,0,1,.12.14c.1.25-.11.43-.32.58a1.17,1.17,0,0,1-.45.18Z"/><path class="cls-8" d="M19.18,5.61A.24.24,0,0,1,19,5.52a.14.14,0,0,1,0-.06s0,0,.07,0a.21.21,0,0,0,.16.07v0Z"/><path class="cls-8" d="M18.17,5.73l-.08-.05a.24.24,0,0,1,0-.25l.05-.13a1.44,1.44,0,0,0,.15-.45c0-.27-.09-.46-.28-.53.21,0,.32.24.31.53a1.49,1.49,0,0,1-.15.46l-.05.13a.21.21,0,0,0,0,.22l.07,0v0Z"/><path class="cls-8" d="M18.05,5.54l0,0,0-.13L18.2,5l0-.22,0,0v.13l-.13.38L18,5.5v0Z"/><path class="cls-8" d="M20.67,8.27l-.11,0a.74.74,0,0,1-.34-.2A.22.22,0,0,1,20.14,8s0,0,0,0h0a.15.15,0,0,0,.05.07.76.76,0,0,0,.35.21.41.41,0,0,0,.32,0,.3.3,0,0,1-.22.09Z"/><path class="cls-7" d="M20.71,8.13H20.6l0,0,0,0,0,0,0,0h.28l0,0h0L21,8h0l-.1.05,0,0h-.12Z"/><path class="cls-7" d="M20.92,8.44h0l0,0,0,0,.06,0,0,0,0,0,0-.08,0-.05v0l0,.06,0,.06,0,.06,0,0L21,8.42l0,0Z"/><path class="cls-1" d="M20.27,9h0l0,0,.06,0Z"/><polygon class="cls-7" points="20.28 9.71 20.28 9.71 20.27 9.7 20.43 9.54 20.41 9.58 20.29 9.71 20.28 9.71 20.28 9.71"/><polygon class="cls-7" points="20.32 9.79 20.31 9.79 20.31 9.77 20.49 9.53 20.32 9.78 20.32 9.79 20.32 9.79"/><path class="cls-7" d="M20.4,11.14l0,0-.06,0L20.24,11l0-.06h0l0,.06,0,0,.06.05,0,0Z"/><path class="cls-7" d="M20.34,12.29a.12.12,0,1,1,.22-.05.12.12,0,1,1-.22.05Z"/><path class="cls-7" d="M20.46,12.41a.14.14,0,0,1-.12-.11.13.13,0,0,1,.08-.16.15.15,0,0,1,.15.11.14.14,0,0,1-.08.17Zm0-.27a.12.12,0,0,0-.1.16.12.12,0,0,0,.12.1h0a.12.12,0,0,0,.08-.15.13.13,0,0,0-.12-.1Z"/><path class="cls-7" d="M20.91,11a.09.09,0,0,1-.06,0l0,0,0-.05h0l0-.07h0l.07.12,0,0,.06.06Z"/><path class="cls-7" d="M21,11.69l-.05,0-.06,0-.05,0-.05,0,0,0,0,0h0l.05,0,.05,0,0,0,.07,0,0,0Z"/><path class="cls-8" d="M20.4,12.53h0a.42.42,0,0,1-.3-.17h0l0,0s0,0,0,0h0l0,0a.4.4,0,0,0,.28.16c.22,0,.24-.16.24-.16s0-.18-.1-.22a.16.16,0,0,0-.09,0,.09.09,0,0,1,.11,0,.2.2,0,0,1,.12.26.25.25,0,0,1-.27.19Z"/><polygon class="cls-8" points="20.4 12.53 20.4 12.5 20.55 12.45 20.6 12.38 20.62 12.27 20.65 12.32 20.61 12.43 20.57 12.47 20.5 12.51 20.4 12.53 20.4 12.53"/><path class="cls-8" d="M12.24,11.66l-.1,0a.33.33,0,0,1-.21-.17.27.27,0,0,1,0-.22.49.49,0,0,0,0,.21.31.31,0,0,0,.19.15.38.38,0,0,0,.19,0v0l-.11,0Z"/><polygon class="cls-8" points="12.23 11.64 12.16 11.64 12.16 11.6 12.23 11.61 12.31 11.6 12.38 11.57 12.31 11.63 12.23 11.64 12.23 11.64"/><path class="cls-8" d="M12.23,11.45l-.08,0a.12.12,0,0,1-.06-.12s0,.08.08.1a.15.15,0,0,0,.14,0,.14.14,0,0,0,0-.11.17.17,0,0,0,0-.07.2.2,0,0,0-.16-.11h0a0,0,0,0,1,0,0h0a.23.23,0,0,1,.19.13.2.2,0,0,1,0,.09.17.17,0,0,1-.06.13.15.15,0,0,1-.09,0Z"/><path class="cls-7" d="M12.11,11.29a.11.11,0,0,1,.1-.12.11.11,0,0,1,.09.12.11.11,0,0,1-.09.12.11.11,0,0,1-.1-.12Z"/><path class="cls-7" d="M12.21,11.41c-.06,0-.1-.05-.1-.12s0-.12.1-.12.1.05.1.13a.11.11,0,0,1-.1.12Zm0-.24c-.05,0-.09.05-.09.12a.1.1,0,0,0,.09.11.1.1,0,0,0,.09-.11.11.11,0,0,0-.09-.12Z"/><path class="cls-8" d="M12.72,11.44l0-.07.11-.1a1.16,1.16,0,0,0,.31-.59,1.52,1.52,0,0,0,0-.64.92.92,0,0,0-.59-.7v0a1,1,0,0,1,.61.73,1.62,1.62,0,0,1,0,.65,1.26,1.26,0,0,1-.32.61l-.11.1-.06,0Z"/><path class="cls-8" d="M12.47,9.86H12.4a.34.34,0,0,1-.17-.13.27.27,0,0,1,0-.13.71.71,0,0,1,.07.12.27.27,0,0,0,.15.11.21.21,0,0,0,.2,0,.2.2,0,0,0,.05-.17.11.11,0,0,0,0,0l0,0a.1.1,0,0,1,0,.07.2.2,0,0,1-.06.2.24.24,0,0,1-.16.05Z"/><polygon class="cls-8" points="12.48 9.84 12.45 9.81 12.59 9.76 12.62 9.73 12.64 9.63 12.68 9.63 12.64 9.75 12.58 9.81 12.48 9.84 12.48 9.84"/><path class="cls-1" d="M12.47,9.46l0,0a.09.09,0,0,0,0,0,.25.25,0,0,0,0,.06Z"/><path class="cls-8" d="M12.45,11.14a1.11,1.11,0,0,0,0-.15.2.2,0,0,0-.19-.2v0a.23.23,0,0,1,.22.23.21.21,0,0,1-.06.15Z"/><path class="cls-8" d="M12.37,11.3a.47.47,0,0,0,.05-.18.21.21,0,0,0-.21-.2v0a.25.25,0,0,1,.24.24.22.22,0,0,1-.09.18Z"/><path class="cls-7" d="M12.63,11h0l0,0,0,0,0,0,0,0h0l0,0h0l0,0h0l0,.06h0l0,0h0l0,0,0,.05h0Z"/><path class="cls-7" d="M12.47,11.71l0,0,.07,0,.06,0,.05,0h0l0,0-.05,0-.06,0-.07,0,0,0Z"/><path class="cls-7" d="M13.24,9.7h0l-.09-.09,0,0,0,0h0l.05,0,0,0,0,0h0Z"/><path class="cls-8" d="M13.47,10.17a1.84,1.84,0,0,0-.23-.4,0,0,0,0,1,0,0h0a1,1,0,0,1,.21.42Z"/><path class="cls-8" d="M13.2,11.11c.05-.09.13-.19.17-.27a1,1,0,0,0,.08-.21s0,0,0,0a0,0,0,0,1,0,0,1,1,0,0,1-.08.22,1,1,0,0,1-.2.25Z"/><path class="cls-8" d="M13.27,9.77a.73.73,0,0,0,.17-.27h0a.43.43,0,0,1-.2.26Z"/><path class="cls-8" d="M13.47,9.2A1,1,0,0,0,13.26,9l0,0a.51.51,0,0,1,.19.27Z"/><path class="cls-1" d="M13.39,8.32a.35.35,0,0,1,.07.09Z"/><path class="cls-1" d="M13.27,8.93a.37.37,0,0,1-.11.07Z"/><path class="cls-1" d="M13.27,9,13.2,9l-.08,0Z"/><path class="cls-8" d="M13.29,8.95a1.07,1.07,0,0,0,.16-.26,0,0,0,0,1,0,0,0,0,0,0,1,0,0,.55.55,0,0,1-.18.25Z"/><path class="cls-1" d="M13.39,8a.19.19,0,0,1,.06.07Z"/><path class="cls-8" d="M12.9,8.57a.55.55,0,0,1-.33-.1.5.5,0,0,1-.22-.31.83.83,0,0,0,.24.29.58.58,0,0,0,.32.09.65.65,0,0,0,.46-.21.44.44,0,0,0,.08-.12h0s0,0,0,0a.37.37,0,0,1-.09.14.7.7,0,0,1-.48.22Z"/><path class="cls-7" d="M12.62,8.44l0,0-.08-.06-.07-.08a.43.43,0,0,1-.05-.09l0,0v0h0v.08a.39.39,0,0,0,0,.09l.07.09.07.06,0,0Z"/><path class="cls-8" d="M13.47,7.57c-.05-.05-.1-.11-.15-.16l0,0a.41.41,0,0,1,.13.18Z"/><path class="cls-8" d="M12.9,8.27a.48.48,0,0,1-.26-.07.86.86,0,0,0,.36,0,.61.61,0,0,0,.45-.41l0,0a0,0,0,0,1,0,0,.64.64,0,0,1-.47.43Z"/><path class="cls-7" d="M12.85,8.22h-.11l-.07,0,0,0h0l0,0,.06,0h.19l-.08,0Z"/><path class="cls-8" d="M12.8,8.05h0a.28.28,0,0,1-.3-.26h0A.25.25,0,0,0,12.8,8,.26.26,0,0,0,13,7.86.41.41,0,0,0,13,7.43a.37.37,0,0,1,.1.45.29.29,0,0,1-.27.18Z"/><path class="cls-8" d="M12.79,8h0a0,0,0,0,1,0,0l.11,0L13,7.92l0-.06,0-.17,0,.08L13,7.95,12.92,8,12.8,8Z"/><path class="cls-7" d="M12.65,7.66a.1.1,0,0,1,.12-.07.1.1,0,0,1,.06.12.09.09,0,0,1-.12.07.1.1,0,0,1-.06-.12Z"/><path class="cls-7" d="M12.74,7.79h0a.1.1,0,0,1-.07-.12.1.1,0,0,1,.09-.07c.05,0,.08,0,.08.05a.08.08,0,0,1,0,.07.1.1,0,0,1-.09.07Zm0-.19a.09.09,0,0,0-.1.06.09.09,0,0,0,.06.11h0a.09.09,0,0,0,.09-.07.08.08,0,0,0,0-.07.08.08,0,0,0-.05,0Z"/><polygon class="cls-7" points="12.13 8.26 12.12 8.2 12.2 7.91 12.29 7.77 12.43 7.67 12.53 7.64 12.53 7.65 12.44 7.68 12.3 7.78 12.21 7.91 12.13 8.26 12.13 8.26"/><path class="cls-7" d="M12.2,8.95a.37.37,0,0,1-.1-.12A1,1,0,0,1,12,8.5a.54.54,0,0,1,0-.11A1.06,1.06,0,0,1,12,8,.78.78,0,0,1,12,7.87a.6.6,0,0,1,.07-.13l.08-.09.08-.06a.49.49,0,0,1,.47-.06v0a.47.47,0,0,0-.46.06l-.08.06-.07.08-.07.13A.71.71,0,0,0,12,8a1,1,0,0,0,0,.33c0,.07,0,.11,0,.14a.94.94,0,0,0,.12.33.55.55,0,0,0,.09.13Z"/><path class="cls-7" d="M12.58,8.91a.09.09,0,0,1,.09-.1.1.1,0,0,1,0,.2.09.09,0,0,1-.09-.1Z"/><path class="cls-8" d="M12.39,9.3a.52.52,0,0,1-.33-.15L11.93,9a0,0,0,0,1,0,0h0l.12.12a.87.87,0,0,0,.31.18Z"/><path class="cls-8" d="M12.67,9.36h0a0,0,0,0,1,0,0,.39.39,0,0,0,.25-.13A.32.32,0,0,0,13,9a.3.3,0,0,0-.23-.26c.11,0,.25.1.27.25a.35.35,0,0,1-.07.26.39.39,0,0,1-.27.14Z"/><polygon class="cls-8" points="12.64 9.35 12.88 9.21 12.94 9.1 12.96 8.99 12.99 8.99 12.95 9.16 12.9 9.23 12.77 9.31 12.64 9.35 12.64 9.35"/><path class="cls-8" d="M13.17,7.5A.34.34,0,0,1,13,7.44a.45.45,0,0,0,.28,0,.34.34,0,0,0,.19-.21h0a.36.36,0,0,1-.2.23l-.1,0Z"/><polygon class="cls-8" points="13.19 7.49 13.15 7.49 13.19 7.46 13.3 7.41 13.42 7.26 13.44 7.2 13.47 7.21 13.42 7.33 13.32 7.44 13.19 7.49 13.19 7.49"/><path class="cls-8" d="M13.2,7.17s-.05-.08-.08-.11A.14.14,0,0,0,13,7V7a.14.14,0,0,1,.11,0,.19.19,0,0,1,.06.13Z"/><path class="cls-8" d="M13.06,7.27h0a.22.22,0,0,0,.15-.17h0s0,0,0,0,0,.16-.17.16Z"/><path class="cls-7" d="M12.94,7.14A.11.11,0,0,1,13,7a.11.11,0,0,1,0,.22.11.11,0,0,1-.1-.11Z"/><path class="cls-7" d="M13,7.25a.11.11,0,0,1-.1-.11.1.1,0,0,1,.21,0,.11.11,0,0,1-.1.11ZM13,7a.1.1,0,0,0-.1.11.1.1,0,0,0,.19,0A.1.1,0,0,0,13,7Z"/><path class="cls-1" d="M13.17,7.14v0Z"/><path class="cls-8" d="M13.29,6A.46.46,0,0,1,13,5.68a0,0,0,0,1,0,0h0a.6.6,0,0,0,.26.3Z"/><path class="cls-7" d="M13.32,6h0l0,0-.07,0-.1-.08L13,5.82l0,0a.07.07,0,0,1,0,0l.06.07.1.08.07,0,0,0h0Z"/><path class="cls-7" d="M13.67,5.8l-.07,0-.09-.08a.41.41,0,0,1-.08-.11l0-.06s0,0,0,0h0v0l0,.06a.38.38,0,0,0,.07.11.34.34,0,0,0,.09.07l.06,0Z"/><path class="cls-7" d="M14,5.75a.1.1,0,0,1-.07,0l-.08-.07,0-.07a.19.19,0,0,1,0-.05v0l0,.05,0,.06.07.07.06,0h0Z"/><path class="cls-7" d="M14.22,5.4a.08.08,0,1,1,.17,0,.1.1,0,0,1-.07.11.09.09,0,0,1-.09-.09Z"/><path class="cls-8" d="M20.78,8a.29.29,0,0,1-.25-.14.4.4,0,0,0,.25.11A.24.24,0,0,0,21,7.88a.23.23,0,0,0,0-.23,0,0,0,0,1,0,0h0a.27.27,0,0,1,0,.26.28.28,0,0,1-.25.14Z"/><path class="cls-8" d="M12.53,9.11h0a.54.54,0,0,1-.42-.3,1,1,0,0,1-.12-.33s0-.07,0-.1v0A1.07,1.07,0,0,1,12,8,.74.74,0,0,1,12,7.85l.08-.13.08-.09.09-.07a.46.46,0,0,1,.56,0l0,0a.44.44,0,0,0-.52,0l-.08.06-.07.08a.72.72,0,0,0-.08.13A.59.59,0,0,0,12,8a1.08,1.08,0,0,0,0,.33v0s0,.07,0,.1a1,1,0,0,0,.12.33.52.52,0,0,0,.4.28A.29.29,0,0,0,12.71,9a.13.13,0,0,0,0-.09s0,.08,0,.11a.32.32,0,0,1-.2.06Z"/><path class="cls-8" d="M18.46,6h0a2.12,2.12,0,0,1-1-.34l-.07,0a.1.1,0,0,0-.12,0,.09.09,0,0,0,0,.13.09.09,0,0,1,0-.15.12.12,0,0,1,.16,0l.07,0a2.16,2.16,0,0,0,1,.33,1.34,1.34,0,0,0,.74-.2c.21-.14.41-.31.31-.54a.24.24,0,0,0-.17-.15.31.31,0,0,0-.26.05.2.2,0,0,0-.09.11.23.23,0,0,0,0,.2.19.19,0,0,0,.19.07.16.16,0,0,0,.11-.11.12.12,0,0,0,0-.12.06.06,0,0,0-.07,0,.08.08,0,0,0-.06.07l0,0s0,0,0,0a.12.12,0,0,1,.09-.09.1.1,0,0,1,.1,0,.17.17,0,0,1,0,.15.2.2,0,0,1-.14.13A.22.22,0,0,1,19,5.49a.26.26,0,0,1,0-.23.25.25,0,0,1,.1-.12.35.35,0,0,1,.3-.06.27.27,0,0,1,.19.17c.1.24-.11.43-.32.57a1.29,1.29,0,0,1-.74.2Z"/><path class="cls-8" d="M19.21,5.58a.37.37,0,0,0,.11-.14.11.11,0,0,0,0-.11.07.07,0,0,0-.07,0s0,0,0,0,0,0,0,0a.1.1,0,0,1,.09,0,.15.15,0,0,1,0,.15.21.21,0,0,1-.14.13Z"/><path class="cls-7" d="M17.17,5.73a.1.1,0,0,1,.1-.1.11.11,0,0,1,.1.1.1.1,0,0,1-.1.11.1.1,0,0,1-.1-.11Z"/><path class="cls-7" d="M19.13,5.37a.09.09,0,0,1,.09-.08.09.09,0,0,1,0,.18.09.09,0,0,1-.06-.11Z"/><path class="cls-8" d="M16.49,6a.36.36,0,0,0,.13-.26.27.27,0,0,0-.12-.25,0,0,0,0,1,0,0h0a.3.3,0,0,1,.14.29.27.27,0,0,1-.16.25Z"/><polygon class="cls-8" points="20.11 6.84 20.07 5.99 20.11 5.99 20.11 6.84 20.11 6.84"/><path class="cls-8" d="M16.49,6a.26.26,0,0,0,.1-.18s0,0,0,0a0,0,0,0,1,0,0,.18.18,0,0,1-.13.18Z"/><path class="cls-8" d="M17.5,5.06c0-.09-.09-.1-.12-.1s-.12.07-.25.13a.66.66,0,0,1-.72,0C16.29,5,16.26,5,16.17,5a.13.13,0,0,0-.12.13.27.27,0,0,0,0,0h0a.1.1,0,0,1,0-.09.11.11,0,0,1,.08,0c.1,0,.14.06.26.13a.67.67,0,0,0,.72,0c.13-.06.16-.13.26-.13a.07.07,0,0,1,.07.06.22.22,0,0,1,0,0h0a.13.13,0,0,0,0-.06Z"/><path class="cls-8" d="M16.79,5.26h0a.63.63,0,0,1-.37-.11l-.11-.07A.24.24,0,0,0,16.17,5a.1.1,0,0,0-.07,0,.1.1,0,0,0,0,.08h0a.11.11,0,0,1,0-.05.14.14,0,0,1,0-.11.16.16,0,0,1,.1,0,.25.25,0,0,1,.15.06l.1.07a.66.66,0,0,0,.35.1.68.68,0,0,0,.35-.1l.1-.07a.24.24,0,0,1,.15-.06.13.13,0,0,1,.14.12.11.11,0,0,1,0,.05h0v0a.05.05,0,0,0-.05,0,.23.23,0,0,0-.13.06l-.11.07a.66.66,0,0,1-.37.11Zm-.45-.2.1.06a.6.6,0,0,0,.35.1.63.63,0,0,0,.35-.1l.11-.07A.25.25,0,0,1,17.41,5a.1.1,0,0,1,.07,0s-.07,0-.11,0a.2.2,0,0,0-.13.05l-.11.07a.66.66,0,0,1-.37.1.65.65,0,0,1-.37-.1l-.06,0ZM16.17,5a.1.1,0,0,0-.08,0,.09.09,0,0,0,0,.05v0a.13.13,0,0,1,.1-.05.23.23,0,0,1,.14.05l0,0A.19.19,0,0,0,16.17,5Z"/><path class="cls-8" d="M14.44,5.59c.09-.05.14-.11.14-.19a0,0,0,0,1,0,0,.19.19,0,0,1-.17.19Z"/><path class="cls-8" d="M12.36,8.92l0,0-.05-.07a.83.83,0,0,1-.13-.31,1.1,1.1,0,0,1,0-.36.86.86,0,0,1,.13-.33.5.5,0,0,1,.26-.19v0a.49.49,0,0,0-.25.18.92.92,0,0,0-.12.32,1.08,1.08,0,0,0,0,.35.81.81,0,0,0,.12.29l.05.07,0,0Z"/><path class="cls-8" d="M12.45,9a.24.24,0,0,1-.16-.09l-.05-.07a.88.88,0,0,1-.13-.3,1,1,0,0,1,0-.36.83.83,0,0,1,.13-.33.54.54,0,0,1,.33-.21v0a.49.49,0,0,0-.31.2.78.78,0,0,0-.12.32,1,1,0,0,0,0,.35.87.87,0,0,0,.12.3l.05.07a.24.24,0,0,0,.23.09l-.09,0Z"/><path class="cls-8" d="M12.16,8.14a.37.37,0,0,1,.09-.35.49.49,0,0,1,.17-.12l.09-.05h0s0,0,0,0l-.09.05a.46.46,0,0,0-.16.12.48.48,0,0,0-.12.33Z"/><path class="cls-8" d="M20.35,9a.16.16,0,0,1-.07,0,.54.54,0,0,1-.21-.35.34.34,0,0,1,.08-.3h0a0,0,0,0,1,0,0,.33.33,0,0,0-.07.28.52.52,0,0,0,.2.33l.06,0,0,0-.05,0Z"/><path class="cls-8" d="M20.66,8.55h0a.78.78,0,0,1-.51-.21.29.29,0,0,1-.08-.23.2.2,0,0,1,.09-.18l0,0a.18.18,0,0,0-.08.16.26.26,0,0,0,.07.2.73.73,0,0,0,.48.2A.56.56,0,0,0,21,8.42a.46.46,0,0,0,.2-.28.33.33,0,0,1-.18.3.6.6,0,0,1-.33.1Z"/><path class="cls-7" d="M20.06,11.46a1.13,1.13,0,0,1,0,.13,1,1,0,0,1-.11.37,1,1,0,0,1-.22.3,1.05,1.05,0,0,1-.31.22,1.41,1.41,0,0,1-.35.12,1.66,1.66,0,0,1-.37,0h-.34l-.36,0-.3,0-.31,0a1.36,1.36,0,0,0-.28.08,1.12,1.12,0,0,0-.34.21,1.1,1.1,0,0,0-.34-.21,1.28,1.28,0,0,0-.28-.08l-.31,0-.3,0-.36,0h-.34a1.67,1.67,0,0,1-.37,0,1.37,1.37,0,0,1-.35-.12,1,1,0,0,1-.31-.22,1,1,0,0,1-.22-.3,1,1,0,0,1-.11-.37,1.13,1.13,0,0,1,0-.13h0V6h6.6v5.45Z"/><path class="cls-8" d="M16.77,12.91v0a1.17,1.17,0,0,0-.33-.2,1.22,1.22,0,0,0-.27-.07,1.34,1.34,0,0,0-.3,0h-.3l-.17,0-.19,0h-.34a1.94,1.94,0,0,1-.37,0,1.21,1.21,0,0,1-.35-.12,1.21,1.21,0,0,1-.54-.53,1,1,0,0,1-.11-.37,1.2,1.2,0,0,1,0-.14V6l6.61,0,0,5.47a.9.9,0,0,1,0,.14A1.09,1.09,0,0,1,20,12a1,1,0,0,1-.23.31,1.06,1.06,0,0,1-.31.22,1.23,1.23,0,0,1-.36.12,2,2,0,0,1-.37,0h-.33l-.2,0-.17,0h-.29a1.33,1.33,0,0,0-.3,0,1.23,1.23,0,0,0-.61.27v0Zm-.93-.35a1.37,1.37,0,0,1,.31,0,1,1,0,0,1,.28.08,1.29,1.29,0,0,1,.34.19,1.25,1.25,0,0,1,.34-.19.92.92,0,0,1,.28-.08,1.37,1.37,0,0,1,.31,0H18l.17,0,.19,0h.34a2.25,2.25,0,0,0,.36,0,1.4,1.4,0,0,0,.35-.12,1.09,1.09,0,0,0,.31-.22.93.93,0,0,0,.22-.3,1,1,0,0,0,.11-.37c0-.05,0-.13,0-.13V6L13.46,6l0,5.43a1.08,1.08,0,0,0,0,.13,1,1,0,0,0,.11.37,1,1,0,0,0,.22.3,1.09,1.09,0,0,0,.31.22,1.33,1.33,0,0,0,.35.12,2.2,2.2,0,0,0,.36,0h.33l.19,0,.17,0h.3Z"/><rect class="cls-3" x="13.8" y="6.34" width="2.82" height="2.81"/><path class="cls-8" d="M16.63,9.16H13.8l0-2.83,2.83,0,0,2.84Zm0-2.83-2.8,0,0,2.8,2.79,0V6.34Z"/><path class="cls-9" d="M15.51,8.5l-.09,0H15.3v.08a.6.6,0,0,0,0,.18.41.41,0,0,0,.06.14.45.45,0,0,0,.13.13.28.28,0,0,0,.2.05c.19,0,.28-.21.32-.38s.17-.27.26-.21a.11.11,0,0,1,0,.16.31.31,0,0,1-.14.09l.1.13a.32.32,0,0,0,.26-.26.24.24,0,0,0-.17-.29.29.29,0,0,0-.34.18c-.08.15-.12.43-.34.39s-.17-.19-.17-.27Z"/><path class="cls-9" d="M15.12,8.55a.6.6,0,0,1,0,.18.4.4,0,0,1-.06.14A.47.47,0,0,1,14.9,9a.29.29,0,0,1-.2.05c-.19,0-.28-.21-.32-.38s-.17-.27-.26-.21a.11.11,0,0,0,0,.16.3.3,0,0,0,.14.09l-.1.13a.32.32,0,0,1-.26-.26.27.27,0,0,1,.17-.29.29.29,0,0,1,.35.18c.08.15.11.43.32.38s.17-.19.17-.27L15,8.51l.13,0Z"/><path class="cls-10" d="M15.46,7.36l.37-.4a.17.17,0,0,0,.06-.12h-.08l0,0v0l.1,0a.47.47,0,0,1,0,0,.14.14,0,0,1,0,0h-.11a.29.29,0,0,1,0,0l0,0h.13a.32.32,0,0,1,.5,0,.29.29,0,0,1-.07.45.22.22,0,0,1-.23,0l.07-.13a.1.1,0,0,0,.17-.09.15.15,0,0,0-.15-.16.17.17,0,0,0-.16.11.29.29,0,0,0,0,.12.62.62,0,0,1,0,.13.29.29,0,0,1-.08.12l-.38.41L14.09,9.06,14,9Z"/><path class="cls-9" d="M14.38,7.5a5.67,5.67,0,0,0,.41,1.14,1.07,1.07,0,0,1,.42-.1,1,1,0,0,1,.42.1A6,6,0,0,0,16,7.5l-.83-1.07Z"/><path class="cls-10" d="M15.29,6.79l.57.74a5.55,5.55,0,0,1-.31.9l-.26,0Z"/><path class="cls-10" d="M15.12,6.79l-.57.74a5.32,5.32,0,0,0,.31.9l.26,0Z"/><rect class="cls-10" x="16.91" y="6.34" width="2.82" height="2.81"/><path class="cls-8" d="M19.74,9.16H16.91l0-2.83,2.83,0V9.16Zm0-2.83-2.8,0,0,2.8,2.78,0V6.34Z"/><path class="cls-10" d="M19.72,11.59a.69.69,0,0,1-.07.23.92.92,0,0,1-.15.21.84.84,0,0,1-.21.15,1.11,1.11,0,0,1-.23.09,1.73,1.73,0,0,1-.57.05l-.35,0-.38,0h-.21l-.25,0a2.72,2.72,0,0,0-.38.11V9.45h2.82v2s0,.1,0,.13Z"/><path class="cls-8" d="M16.89,12.41v-3l2.83,0,0,2s0,.1,0,.13a.77.77,0,0,1-.07.23l0,.05a.72.72,0,0,1-.12.16.85.85,0,0,1-.22.15.9.9,0,0,1-.24.09,1.75,1.75,0,0,1-.57.05,2.1,2.1,0,0,1-.33,0l-.41,0h-.21l-.25,0a3.44,3.44,0,0,0-.38.11Zm2.82-3-2.8,0,0,2.89a3,3,0,0,1,.36-.1l.25,0h.21l.38,0,.35,0a1.79,1.79,0,0,0,.56-.05.93.93,0,0,0,.23-.09.78.78,0,0,0,.21-.15.59.59,0,0,0,.11-.15l0-.05a.67.67,0,0,0,.07-.22s0-.13,0-.13v-2Z"/><path class="cls-11" d="M17.65,10.27l-.07,0,0,0s0,0,0,0,0,0,0,0h0s0,0,0,0,0,0,0,.05a.13.13,0,0,0,0,.05v0l-.07,0Z"/><path class="cls-11" d="M17.62,10.31a0,0,0,0,1,0,0,0,0,0,0,1,0,0s0,0,0,0l0,0Z"/><path class="cls-11" d="M17.55,9.74h0s0,0,0,0a.1.1,0,0,1,0,0s0,0,0,0V9.56h0a.08.08,0,0,1,0,0v.07l0,0h0l0,0,0,0Z"/><path class="cls-3" d="M19.12,10.11v.1s0,.06,0,.09a.09.09,0,0,0,0,.05s.06.05,0,.13,0,0,0,.06v.07a1.37,1.37,0,0,0,0,.15v0h0s0,0,0,.06h0l-.05,0h0v0l0,0a.13.13,0,0,0,0-.05.23.23,0,0,0,0-.07.22.22,0,0,0,0-.08s0,0,0-.06,0,0,0-.06,0,0,0-.05v.06s0,0,0,0l-.06,0a.42.42,0,0,0-.1.13s0,0,0,.05h0l0,0a0,0,0,0,0,0,0h-.06l-.05,0v0s0,0,.07,0l0,0,0,0,0,0,0-.06,0,0v0a.11.11,0,0,0,0,0l0,0v0s0,0,0,0h0l0,0s0,0,0,0v0h-.06v0s0,0,0,0h0s0,0,0,0v0a.23.23,0,0,1-.09-.06h0a.84.84,0,0,1-.32,0,.36.36,0,0,1,0,.09.66.66,0,0,0,0,.07.26.26,0,0,0,0,.05.38.38,0,0,0,0,.09s0,0,0,.06,0,0,0,0h0v0h-.07l0,0v0l0,0a.06.06,0,0,0,0,0,.3.3,0,0,0,0-.06v-.06a0,0,0,0,0,0,0v0a.73.73,0,0,1,0-.12.09.09,0,0,0,0,0h-.13l-.07.06s0,0,0,0,0,0,.06.07,0,0,0,0l0,0a0,0,0,0,0,0,0v0l0,0,0,0,0,0a.34.34,0,0,0,0-.07.17.17,0,0,0,0-.07.45.45,0,0,0-.05-.08c0-.05,0-.05,0-.1a.38.38,0,0,1,.07-.07s0,0,0-.05a.32.32,0,0,1,0-.11.17.17,0,0,1,0,0h0l-.07,0,0,0h-.08l0,0-.05,0-.07,0h0s0,0,0,0l0,0v0l0,0h0l0,0,0,0,0,0s0,0,0,0h0l0,0,0,0h0l.1,0,.08,0,0,0,0,0h.06l0,0s0,0,0,0a.08.08,0,0,1-.05,0l.07,0h.13a2.07,2.07,0,0,0,.21,0h.37l.18,0H19l.14,0s.07,0,.09.05l0,0a.1.1,0,0,1,0,0v0a.11.11,0,0,1,0,.05.15.15,0,0,1-.08.09Z"/><path class="cls-10" d="M18.6,10.18l0,0a.19.19,0,0,1-.12,0l0,0h0l0,0,.06,0,.05,0a.16.16,0,0,1,.08,0,1,1,0,0,1,.26,0,.3.3,0,0,0,.19,0,.07.07,0,0,0,0-.06s0,0,0-.05h0l0,0a.07.07,0,0,1,0,.07.08.08,0,0,1,0,.07.31.31,0,0,1-.19,0,.94.94,0,0,0-.26,0l-.08,0-.06,0h-.06l.08,0,0,0h.13l0,.05.05,0,.05,0,.06,0,.13,0H19l.09,0h0l-.08,0a.34.34,0,0,1-.13,0,.29.29,0,0,0-.12,0l-.06,0-.06,0H18.6Z"/><path class="cls-10" d="M17.64,9.81h0l0,0h0l0,0a.05.05,0,0,0,0,0Z"/><path class="cls-1" d="M17.64,9.81h0l0,0h0l0,0a.05.05,0,0,0,0,0Z"/><path class="cls-10" d="M18.06,10.46h0v0h0a.43.43,0,0,0,0-.07l0-.05v0h0l0,0,0,.05a.16.16,0,0,1,0,0v.07h0Z"/><path class="cls-1" d="M18.3,10.22v0s0,.07,0,.12v0Z"/><path class="cls-11" d="M17.68,10.11l.07,0a.28.28,0,0,0,.12-.13.59.59,0,0,0,0-.15l-.06,0h0a.58.58,0,0,1-.06.14.39.39,0,0,1-.09.1Z"/><polygon class="cls-3" points="17.68 10.11 17.68 10.09 17.7 10.09 17.72 10.1 17.68 10.11"/><path class="cls-11" d="M17.85,10.73l0,0,0,0h0a.32.32,0,0,1,0,.05v0a.06.06,0,0,1,0,0v0s0,0,0-.07Z"/><path class="cls-11" d="M19,10.79l.05,0,0,0a0,0,0,0,1,0,0h-.15s0-.05,0-.06Z"/><path class="cls-11" d="M18.65,10.72l.05,0,0,0s0,0,0,0H18.6s0-.05.05-.06Z"/><path class="cls-11" d="M18.05,10.79l0,0,.05,0v0H18s0-.05.05-.06Z"/><path class="cls-11" d="M17.75,9.77s0,0,0-.05h0a.09.09,0,0,0,0,0s0,0,0,0a.11.11,0,0,1,0,0s0,0,0-.05l0,0V9.6l0,0a.16.16,0,0,1,0,0,.09.09,0,0,1,0,0l0,0,0,0Z"/><path class="cls-3" d="M17.63,10.05h0l.07-.06-.07.06h0l0,0Z"/><path class="cls-1" d="M17.82,10.35l.05,0Z"/><path class="cls-1" d="M17.88,10.27s0,.12.06.14Z"/><path class="cls-1" d="M18.85,10.47h0L19,10.4Z"/><path class="cls-10" d="M18.59,10.41h0l.16-.06.1,0-.09.05-.16.06Z"/><path class="cls-10" d="M19,10.44h0l0,0h0a.3.3,0,0,1-.09-.06l-.06-.05s-.06,0-.09,0h0a.1.1,0,0,1,.09,0l.09.07a.26.26,0,0,0,.08.06l0,0v0Z"/><path class="cls-3" d="M18.67,10.26l.05.05h.08l0,0h-.1Z"/><path class="cls-3" d="M19.09,9.93H19V10l.06,0a0,0,0,0,0,0,0Z"/><path class="cls-3" d="M18.92,10.18l0,0h-.18l0,0,0,0h-.11l.08,0Z"/><path class="cls-3" d="M18.58,10.2l0-.05h-.16v.06l.06,0Z"/><path class="cls-3" d="M18.49,10.08l.05,0,0,0h.5l0,0-.19,0h-.2l-.14,0h0Z"/><path class="cls-10" d="M17.4,9.95h.09s0,0,0,0h0s0,0,0,0h0l0,0Z"/><path class="cls-1" d="M17.4,9.95h.09s0,0,0,0h0s0,0,0,0h0Z"/><path class="cls-11" d="M17.65,11.53l-.07,0,0,0s0,0,0,0,0,0,0,0h0a0,0,0,0,1,0,0s0,0,0,.05a.15.15,0,0,0,0,.05s0,0,0,0l-.07,0Z"/><path class="cls-11" d="M17.62,11.56a0,0,0,0,1,0,0,0,0,0,0,1,0,0s0,0,0,0a0,0,0,0,1,0,0Z"/><path class="cls-11" d="M17.55,11h0a.07.07,0,0,1,0,0,.07.07,0,0,1,0,0,.13.13,0,0,1,0,0V10.8h0l0,0s0,0,0,0v.07l0,0h0l0,0,0,0Z"/><path class="cls-3" d="M19.12,11.36v.1s0,.07,0,.09,0,0,0,.05.06.05,0,.13,0,0,0,.06a.43.43,0,0,1,0,.06,1.47,1.47,0,0,0,0,.16s0,0,0,0h0s0,0,0,.06h0l-.05,0h0v0l0,0A.13.13,0,0,0,19,12a.23.23,0,0,0,0-.07.23.23,0,0,0,0-.08.49.49,0,0,1,0-.06s0,0,0-.05,0,0,0-.05v.06s0,0,0,0l-.06,0a.43.43,0,0,0-.1.14s0,0,0,0h0l0,0a0,0,0,0,0,0,0h-.06l-.05,0v0s0,0,.07,0l0,0,0,0,0,0,0-.05,0-.05v0a.09.09,0,0,0,0,0h0v0s0,0,0,0h0l0,0s0,0,0,0v0h-.06v0a0,0,0,0,1,0,0h0s0,0,0,0v0a.23.23,0,0,1-.09-.06h0a.84.84,0,0,1-.32,0,.29.29,0,0,1,0,.08s0,0,0,.08a.22.22,0,0,0,0,.05.42.42,0,0,0,0,.1.39.39,0,0,1,0,.05s0,0,0,0h0v0a0,0,0,0,0,0,0h-.07l0,0v0l0,0a.06.06,0,0,0,0,0,.3.3,0,0,0,0-.06v-.06a0,0,0,0,0,0,0v0a.73.73,0,0,1,0-.12.15.15,0,0,0,0,0h-.13l-.07.06s0,0,0,0,0,0,.06.07,0,0,0,0,0,0,0,0a0,0,0,0,0,0,0v0l0,0,0,0h0a.34.34,0,0,0,0-.07.14.14,0,0,0,0-.07.45.45,0,0,0-.05-.08c0-.05,0-.05,0-.1a.58.58,0,0,1,.07-.07s0,0,0-.05a.28.28,0,0,1,0-.11.17.17,0,0,1,0,0h0l-.07,0h-.05l0,0-.05,0-.07,0h0a0,0,0,0,1,0,0l0-.05v0l0,0h0l0,0,0,0,0,0s0,0,0,0l0,0,0,0,0,0h0l.1,0,.08,0,0,0h.07l0,0,0,0s0,0,0,0l-.05,0,.07,0h.13c.13,0,.13,0,.21,0h.2l.17,0,.18,0H19a.4.4,0,0,1,.14,0,.21.21,0,0,1,.09,0l0,0a.1.1,0,0,1,0,0,.28.28,0,0,1,0,0,.1.1,0,0,1,0,0,.15.15,0,0,1-.08.09Z"/><path class="cls-10" d="M18.6,11.44l0,0a.22.22,0,0,1-.12,0l0,0h0l0,0,.06,0,.06,0,.08,0a1,1,0,0,1,.26,0,.33.33,0,0,0,.19,0,.06.06,0,0,0,0-.06.07.07,0,0,0,0-.05h0l0,0a.08.08,0,0,1,0,.06s0,.06,0,.07a.31.31,0,0,1-.19,0,.94.94,0,0,0-.26,0l-.07,0-.06,0h0l.07,0,0,0h.13l0,.05.05,0,.05,0,.07,0,.12,0a.29.29,0,0,0,.12,0h.09l-.08,0a.33.33,0,0,1-.13,0h-.12l-.06,0-.06,0H18.6Z"/><path class="cls-10" d="M17.64,11.07h0l0,0h0l0,0a.05.05,0,0,0,0,0Z"/><path class="cls-1" d="M17.64,11.07h0l0,0h0l0,0a.05.05,0,0,0,0,0Z"/><path class="cls-10" d="M18.06,11.66h0v-.05a.51.51,0,0,0,0-.07l0-.05v0h0l0,0,0,.05a.18.18,0,0,1,0,0v.07h0Z"/><path class="cls-1" d="M18.3,11.48v.05s0,.07,0,.12v0Z"/><path class="cls-11" d="M17.68,11.36l.07,0a.31.31,0,0,0,.12-.13.56.56,0,0,0,0-.14l-.06,0h0a.56.56,0,0,1-.06.14.35.35,0,0,1-.09.11Z"/><polygon class="cls-3" points="17.68 11.36 17.68 11.35 17.7 11.35 17.72 11.36 17.68 11.36"/><path class="cls-11" d="M17.85,12l0,0,0,0h0a.24.24,0,0,1,0,.05v0a.09.09,0,0,1,0,0v0s0,0,0-.07Z"/><path class="cls-11" d="M19,12l.05,0,0,0a0,0,0,0,1,0,0h-.15s0-.05,0-.06Z"/><path class="cls-11" d="M18.65,12l.05,0,0,0s0,0,0,0H18.6s0-.05.05-.06Z"/><path class="cls-11" d="M18.05,12l0,0,.05,0v0H18s0-.05.05-.06Z"/><path class="cls-11" d="M17.75,11s0,0,0-.05h0a.09.09,0,0,0,0,0s0,0,0,0a.12.12,0,0,1,0,0s0,0,0-.05l0,0a.18.18,0,0,1,0,0v0l0,0a.21.21,0,0,1,0,0,.09.09,0,0,1,0,0l0,0,0,0Z"/><path class="cls-1" d="M17.84,11.61l.06,0Z"/><path class="cls-1" d="M17.88,11.53s0,.12.06.14Z"/><path class="cls-1" d="M18.85,11.72h0l.09-.06Z"/><path class="cls-10" d="M18.59,11.67h0l.16-.06.1,0-.09,0-.16.06Z"/><path class="cls-10" d="M19,11.69h0l0,0-.08-.07-.06-.05s-.06,0-.09,0h0a.09.09,0,0,1,.08,0l.09.07a.26.26,0,0,0,.08.06l0,0Z"/><path class="cls-3" d="M18.67,11.52l.05.05h.08l0,0h-.1Z"/><path class="cls-3" d="M19.09,11.18H19v.06l.06,0a0,0,0,0,0,0,0Z"/><path class="cls-3" d="M18.92,11.44l0,0h-.18l0,0,0,0,0,0h-.07l.08,0Z"/><path class="cls-3" d="M18.58,11.46l0-.05h-.16v.06l.06,0Z"/><path class="cls-10" d="M17.4,11.2h.08s0,0,0,0,0,0,0,0h0l0,0Z"/><path class="cls-1" d="M17.4,11.2h.08s0,0,0,0,0,0,0,0h0Z"/><path class="cls-10" d="M13.81,11.59a.76.76,0,0,0,.08.23A.8.8,0,0,0,14,12a.88.88,0,0,0,.21.15.92.92,0,0,0,.24.09,1.73,1.73,0,0,0,.57.05,3.07,3.07,0,0,0,.35,0l.38,0H16l.25,0a2.77,2.77,0,0,1,.38.11V9.45H13.79v2s0,.1,0,.13Z"/><path class="cls-8" d="M16.63,12.41h0a2.09,2.09,0,0,0-.37-.11l-.25,0h-.21l-.38,0h-.05l-.3,0a1.76,1.76,0,0,1-.57-.05.85.85,0,0,1-.24-.09A.78.78,0,0,1,14,12a.8.8,0,0,1-.12-.16l0-.05a.71.71,0,0,1-.08-.23s0-.13,0-.13v-2l2.83,0,0,3Zm-.74-.19H16l.25,0a2.46,2.46,0,0,1,.36.11V9.45l-2.8,0,0,2h0s0,.09,0,.13a.65.65,0,0,0,.07.22l0,.05A.66.66,0,0,0,14,12a.76.76,0,0,0,.21.15.83.83,0,0,0,.23.09,1.81,1.81,0,0,0,.56.05l.3,0h.05l.38,0Z"/><path class="cls-3" d="M14.13,12.07l.13.07.18.07V9.46h-.31v2.61Z"/><path class="cls-3" d="M14.45,12.23l-.07,0-.12-.05-.13-.07V9.46h.32v2.77Zm0-2.76h-.31v2.61l.13.07.12,0,.06,0V9.46Z"/><path class="cls-3" d="M15.7,12.23V9.46h-.31v2.79l.31,0Z"/><path class="cls-3" d="M15.38,12.26V9.46h.32v2.77l-.32,0Zm.31-2.79h-.31v2.78l.31,0V9.46Z"/><path class="cls-3" d="M16.32,9.46H16v2.75a1.5,1.5,0,0,1,.31.05Z"/><path class="cls-3" d="M16.33,12.28h0a1.51,1.51,0,0,0-.31-.05V9.46h.31v2.82Zm0-2.81H16v2.75a1.45,1.45,0,0,1,.3,0V9.46Z"/><path class="cls-8" d="M21.18,9.35a1,1,0,0,0,.72-1.07,1,1,0,0,0-1-1v0a1.09,1.09,0,0,1,.71.3,1.06,1.06,0,0,1,.3.78,1,1,0,0,1-.75,1.07Z"/><path class="cls-8" d="M21.25,9.31a1,1,0,0,0,.62-1,1.22,1.22,0,0,0-.32-.88A.75.75,0,0,0,21,7.24v0a.78.78,0,0,1,.59.22,1.22,1.22,0,0,1,.34.9,1,1,0,0,1-.65,1Z"/><rect class="cls-3" x="17.32" y="6.34" width="0.4" height="2.77"/><path class="cls-3" d="M17.72,9.11h-.41V6.34h.41V9.11Zm0-2.77h-.4V9.11h.39V6.34Z"/><rect class="cls-3" x="18.12" y="6.34" width="0.4" height="2.77"/><path class="cls-3" d="M18.53,9.11h-.4V6.34h.4V9.11Zm0-2.77h-.4V9.11h.39V6.34Z"/><rect class="cls-3" x="18.93" y="6.34" width="0.4" height="2.77"/><path class="cls-3" d="M19.33,9.11h-.41V6.34h.41V9.11Zm0-2.77h-.4V9.11h.39V6.34Z"/><path class="cls-3" d="M15.07,9.46v2.82a3,3,0,0,1-.31,0V9.46Z"/><path class="cls-3" d="M15,12.3h-.21V9.46h.32v2.83Zm.11-2.83h-.31v2.82h.31V9.46Z"/></g></g></g></g></g></svg>