<?xml version="1.0" encoding="UTF-8"?>
<svg width="34px" height="20px" viewBox="0 0 34 20" version="1.1" xmlns="http://www.w3.org/2000/svg" xmlns:xlink="http://www.w3.org/1999/xlink">
    <!-- Generator: Sketch 49 (51002) - http://www.bohemiancoding.com/sketch -->
    <title>AOA</title>
    <desc>Created with Sketch.</desc>
    <defs></defs>
    <g id="Page-1" stroke="none" stroke-width="1" fill="none" fill-rule="evenodd">
        <g id="AOA" fill-rule="nonzero">
            <rect id="Rectangle-path" fill="#BC0030" x="0" y="0" width="33.56" height="19.58"></rect>
            <rect id="Rectangle-path" fill="#000000" x="0" y="9.79" width="33.56" height="9.79"></rect>
            <polygon id="Shape" fill="#F1D62F" points="15.29 9.45 16.32 8.7 17.36 9.45 16.96 8.24 18 7.48 16.72 7.48 16.32 6.27 15.92 7.48 14.64 7.48 15.68 8.24"></polygon>
            <g id="Group" transform="translate(13.000000, 4.000000)" fill="#F1D62F">
                <path d="M8.84,11.46 C8.68158428,11.2174481 8.48583718,11.0014513 8.26,10.82 C8.01,10.61 7.68,10.37 7.43,10.12 L6.95,10.67 C6.95,10.67 6.95,10.75 6.95,10.76 C7.3005632,10.8025663 7.62560901,10.9650892 7.87,11.22 C8.16,11.51 8.27,11.86 8.46,11.99 C8.81,12.23 9.06,11.83 8.83,11.46 M7.58,10.57 C7.54528841,10.5649917 7.51964055,10.5350692 7.52,10.5 C7.51964055,10.4649308 7.54528841,10.4350083 7.58,10.43 C7.61865993,10.43 7.65,10.4613401 7.65,10.5 C7.65,10.5386599 7.61865993,10.57 7.58,10.57 M8.07,10.99 C8.05219253,10.9902494 8.03519449,10.9825751 8.02360441,10.9690534 C8.01201432,10.9555316 8.00703005,10.9375598 8.01,10.92 C8.01,10.8868629 8.03686292,10.86 8.07,10.86 C8.08755983,10.8570301 8.1055316,10.8620143 8.11905337,10.8736044 C8.13257513,10.8851945 8.14024939,10.9021925 8.14,10.92 C8.14,10.9586599 8.10865993,10.99 8.07,10.99 M8.5,11.42 C8.48244017,11.4229699 8.4644684,11.4179857 8.45094663,11.4063956 C8.43742487,11.3948055 8.42975061,11.3778075 8.43,11.36 C8.42636456,11.3405446 8.43255758,11.3205479 8.44655275,11.3065528 C8.46054792,11.2925576 8.48054459,11.2863646 8.5,11.29 C8.51780747,11.2897506 8.53480551,11.2974249 8.54639559,11.3109466 C8.55798568,11.3244684 8.56296995,11.3424402 8.56,11.36 C8.56,11.3931371 8.53313708,11.42 8.5,11.42" id="Shape"></path>
                <path d="M4.56,9.4 C4.1610164,9.53767065 3.74206542,9.60862203 3.32,9.61 C2.43848993,9.60744482 1.58574558,9.29606929 0.91,8.73 L0.35,9.41 C0.586412205,9.606854 0.840873546,9.78095913 1.11,9.93 L0.92,10.29 C1.21300235,10.4475047 1.5212526,10.5748254 1.84,10.67 L1.96,10.29 C2.25324903,10.3798538 2.55474942,10.4401539 2.86,10.47 L2.86,10.86 C3.19259397,10.8913978 3.52740603,10.8913978 3.86,10.86 L3.86,10.47 C4.1653002,10.4404886 4.46683391,10.3801819 4.76,10.29 L4.88,10.66 L5.35,10.5 L5.14,9.7 L4.56,9.4 Z" id="Shape"></path>
                <path d="M7.14,5.79 C7.1388203,6.91110517 6.64521578,7.97509714 5.79,8.7 L6.86,9.45 C7.00100647,9.31400095 7.13453577,9.17045695 7.26,9.02 L6.96,8.77 C7.15642298,8.53184748 7.3273559,8.27377229 7.47,8 L7.81,8.19 C7.96636198,7.89645756 8.09363468,7.58832367 8.19,7.27 L7.82,7.15 C7.9101157,6.85681716 7.97042109,6.5552902 8,6.25 L8.39,6.25 C8.42151682,5.91741165 8.42151682,5.58258835 8.39,5.25 L8,5.25 C7.96913061,4.94490227 7.90885046,4.64350152 7.82,4.35 L8.2,4.24 C8.10487737,3.91802848 7.97756823,3.60645612 7.82,3.31 L7.47,3.5 C7.32462211,3.22784877 7.15386379,2.97003719 6.96,2.73 L7.27,2.47 C7.05769864,2.21317961 6.81980577,1.97863735 6.56,1.77 L6.3,2.09 C6.06024978,1.89574474 5.80239971,1.72496093 5.53,1.58 L5.72,1.21 C5.42544932,1.05578641 5.11752192,0.928599009 4.8,0.83 L4.68,1.23 C4.39617896,1.14533604 4.1048146,1.08840277 3.81,1.06 L3.72,2 C5.65914887,2.19953695 7.13488956,3.83061876 7.14,5.78" id="Shape"></path>
                <path d="M5.65,9.22 C4.62339488,8.53008691 3.64450543,7.77169816 2.72,6.95 C3.63786238,7.77544274 4.6136947,8.53405211 5.64,9.22 C6.14,9.57 6.64,9.93 7.14,10.3 L7.29,10.12 C5.61,8.92 1.64,6.12 1.59,5.12 C1.30809022,5.60074745 1.23955662,6.17731855 1.40091635,6.71075484 C1.56227608,7.24419113 1.93889326,7.68610808 2.44,7.93 C4.07,8.85 5.15,9.47 6.85,10.6 L7.11,10.3 C6.62,9.93 6.11,9.57 5.61,9.22" id="Shape"></path>
            </g>
        </g>
    </g>
</svg>