<?xml version="1.0" encoding="UTF-8"?>
<svg width="34px" height="20px" viewBox="0 0 34 20" version="1.1" xmlns="http://www.w3.org/2000/svg" xmlns:xlink="http://www.w3.org/1999/xlink">
    <!-- Generator: Sketch 49 (51002) - http://www.bohemiancoding.com/sketch -->
    <title>ARS</title>
    <desc>Created with Sketch.</desc>
    <defs></defs>
    <g id="Page-1" stroke="none" stroke-width="1" fill="none" fill-rule="evenodd">
        <g id="ARS" fill-rule="nonzero">
            <rect id="Rectangle-path" fill="#FFFFFF" x="0" y="6.53" width="33.56" height="6.53"></rect>
            <rect id="Rectangle-path" fill="#80A7D8" x="0" y="0" width="33.56" height="6.53"></rect>
            <rect id="Rectangle-path" fill="#80A7D8" x="0" y="13.05" width="33.56" height="6.52"></rect>
            <g id="Group" transform="translate(14.000000, 7.000000)">
                <path d="M2.65,2.79 L2.75,5.46 C2.75,5.46 2.75,5.46 2.75,5.46 C2.75,5.46 2.75,5.46 2.75,5.46 L2.85,2.79 L2.65,2.79 Z" id="Shape" fill="#F1BD51"></path>
                <path d="M2.78,5.51 C2.78,5.51 2.78,5.51 2.78,5.45 L2.68,2.78 L2.78,5.45 C2.78,5.45 2.78,5.45 2.78,5.45 C2.78,5.45 2.78,5.45 2.78,5.45 L2.88,2.78 L2.8,5.45 C2.8,5.45 2.8,5.51 2.8,5.51 L2.78,5.51 Z" id="Shape" fill="#7A361D"></path>
                <polygon id="Shape" fill="#7A361D" points="2.71 2.79 2.78 4.62 2.85 2.79"></polygon>
                <path d="M2.53,3.65 C2.38,3.99 2.53,4.26 2.36,4.55 C2.26909129,4.76102242 2.24467262,4.99474396 2.29,5.22 C2.29,5.35 2.17,5.39 2.2,5.42 C2.23,5.45 2.34,5.42 2.39,5.21 C2.44,5 2.33,4.93 2.51,4.57 C2.69,4.21 2.51,4.05 2.74,3.73 L2.53,3.65 Z" id="Shape" fill="#F1BD51"></path>
                <path d="M2.22,5.44 C2.22,5.44 2.22,5.44 2.22,5.38 C2.26114057,5.34042015 2.28609114,5.28695465 2.29,5.23 C2.29463067,5.18679038 2.29463067,5.14320962 2.29,5.1 C2.25656865,4.91610004 2.28468598,4.72630805 2.37,4.56 C2.42806945,4.4243258 2.4553895,4.27748052 2.45,4.13 C2.44514577,3.96862704 2.47587278,3.80816375 2.54,3.66 C2.47649021,3.80835328 2.44578954,3.96867901 2.45,4.13 C2.45374878,4.2815934 2.42297271,4.43205418 2.36,4.57 C2.27539656,4.73653531 2.2473146,4.92608856 2.28,5.11 C2.28,5.16 2.28,5.2 2.28,5.24 C2.27228904,5.30087438 2.24407293,5.3573066 2.2,5.4 C2.2,5.4 2.2,5.4 2.2,5.4 C2.2,5.4 2.34,5.33 2.38,5.19 C2.38914725,5.13370248 2.38914725,5.07629752 2.38,5.02 C2.36528539,4.85241405 2.40377618,4.68445423 2.49,4.54 C2.55841436,4.40671623 2.59600689,4.25976362 2.6,4.11 C2.6009597,3.96616962 2.63883581,3.82499503 2.71,3.7 C2.64787989,3.82799682 2.61378748,3.96777571 2.61,4.11 C2.60751593,4.26315565 2.56988142,4.41369369 2.5,4.55 C2.41868489,4.6927449 2.38047737,4.8559952 2.39,5.02 C2.39834967,5.07635909 2.39834967,5.13364091 2.39,5.19 C2.37650277,5.28535039 2.31655312,5.36778116 2.23,5.41 L2.22,5.44 Z" id="Shape" fill="#7A361D"></path>
                <path d="M2.57,3.73 C2.45,4.06 2.57,4.29 2.41,4.57 C2.59,4.37 2.47,4.1 2.62,3.76 L2.57,3.73 Z" id="Shape" fill="#7A361D"></path>
                <path d="M2.91,2.79 L2.81,0.12 C2.81,0.12 2.81,0.12 2.81,0.12 C2.81,0.12 2.81,0.12 2.81,0.12 L2.71,2.79 L2.91,2.79 Z" id="Shape" fill="#F1BD51"></path>
                <path d="M2.91,2.79 L2.81,0.12 C2.81,0.12 2.81,0.12 2.81,0.12 C2.81,0.12 2.81,0.12 2.81,0.12 L2.71,2.79 L2.79,0.12 C2.79,0.12 2.79,0.06 2.79,0.06 C2.79,0.06 2.79,0.06 2.79,0.12 L2.89,2.79 L2.91,2.79 Z" id="Shape" fill="#7A361D"></path>
                <polygon id="Shape" fill="#7A361D" points="2.85 2.79 2.78 0.96 2.71 2.79"></polygon>
                <path d="M3,1.92 C3.15,1.59 3,1.31 3.17,1.02 C3.26153608,0.809141882 3.28597516,0.575224963 3.24,0.35 C3.24,0.22 3.36,0.18 3.33,0.15 C3.3,0.12 3.19,0.15 3.14,0.36 C3.09,0.57 3.2,0.64 3.02,1 C2.84,1.36 3.02,1.52 2.8,1.84 L3,1.92 Z" id="Shape" fill="#F1BD51"></path>
                <path d="M3,1.93 C3.05969574,1.78399849 3.09026926,1.62773379 3.09,1.47 C3.08773773,1.30670148 3.1255046,1.14533396 3.2,1 C3.27972875,0.835460073 3.30427667,0.649597248 3.27,0.47 C3.27,0.42 3.27,0.37 3.27,0.34 C3.27334038,0.279985852 3.29819111,0.223184177 3.34,0.18 C3.34,0.18 3.34,0.18 3.34,0.18 C3.34,0.18 3.2,0.25 3.17,0.39 C3.15919908,0.446151991 3.15919908,0.503848009 3.17,0.56 C3.1833772,0.727491081 3.14497856,0.895048782 3.06,1.04 C2.99158564,1.17328377 2.95399311,1.32023638 2.95,1.47 C2.9490403,1.61383038 2.91116419,1.75500497 2.84,1.88 C2.8986689,1.7512398 2.92934462,1.61149487 2.93,1.47 C2.93082019,1.3058591 2.97203262,1.14444375 3.05,1 C3.13609411,0.859172728 3.17465627,0.694407148 3.16,0.53 C3.15244047,0.47358545 3.15244047,0.41641455 3.16,0.36 C3.16,0.22 3.28,0.15 3.32,0.14 C3.32,0.14 3.32,0.14 3.32,0.2 C3.27961674,0.24011671 3.25480677,0.293280927 3.25,0.35 C3.24544444,0.393213604 3.24544444,0.436786396 3.25,0.48 C3.28124909,0.663929403 3.25323403,0.853031059 3.17,1.02 C3.10849722,1.15489013 3.07775546,1.30176741 3.08,1.45 C3.0835903,1.6112697 3.05291456,1.77146527 2.99,1.92 L3,1.93 Z" id="Shape" fill="#7A361D"></path>
                <path d="M3,1.84 C3.12,1.51 3,1.28 3.16,1 C2.98,1.2 3.1,1.46 2.94,1.81 L3,1.84 Z" id="Shape" fill="#7A361D"></path>
                <path d="M2.78,2.65 L0.11,2.75 C0.11,2.75 0.06,2.75 0.06,2.75 C0.06,2.75 0.11,2.75 0.11,2.75 L2.78,2.85 L2.78,2.65 Z" id="Shape" fill="#F1BD51"></path>
                <path d="M2.78,2.91 L0.11,2.82 C0.11,2.82 0.05,2.82 0.05,2.82 C0.05,2.82 0.05,2.82 0.11,2.82 L2.78,2.72 L0.11,2.82 C0.11,2.82 0.11,2.82 0.11,2.82 C0.11,2.82 0.11,2.82 0.11,2.82 L2.78,2.92 L2.78,2.91 Z" id="Shape" fill="#7A361D"></path>
                <polygon id="Shape" fill="#7A361D" points="2.78 2.72 0.95 2.79 2.78 2.85"></polygon>
                <path d="M1.92,2.54 C1.59,2.39 1.31,2.54 1.02,2.36 C0.808070642,2.27262088 0.575413831,2.24831345 0.35,2.29 C0.22,2.29 0.18,2.17 0.15,2.2 C0.12,2.23 0.15,2.34 0.36,2.39 C0.57,2.44 0.64,2.33 1,2.51 C1.36,2.69 1.52,2.51 1.85,2.73 L1.92,2.54 Z" id="Shape" fill="#F1BD51"></path>
                <path d="M1.84,2.72 C1.71074803,2.66144025 1.57169924,2.62752591 1.43,2.62 C1.28100673,2.61911703 1.13409368,2.5849512 1,2.52 C0.85839594,2.4358161 0.694255547,2.39740027 0.53,2.41 C0.473748775,2.41970396 0.416251225,2.41970396 0.36,2.41 C0.23,2.41 0.15,2.3 0.14,2.25 C0.14,2.25 0.14,2.25 0.2,2.25 C0.238980593,2.29197102 0.2927938,2.31708385 0.35,2.32 L0.48,2.32 C0.667182096,2.28797316 0.859698102,2.31597548 1.03,2.4 C1.16396234,2.46428416 1.31150189,2.49516453 1.46,2.49 C1.62129526,2.48610248 1.78155502,2.51679052 1.93,2.58 C1.78438834,2.51901107 1.62786006,2.48838598 1.47,2.49 C1.30553287,2.49180814 1.14347005,2.4504304 1,2.37 C0.835460073,2.29027125 0.649597248,2.26572333 0.47,2.3 L0.34,2.3 C0.278350073,2.29494859 0.221031084,2.2662891 0.18,2.22 C0.18,2.22 0.18,2.22 0.18,2.22 C0.18,2.22 0.25,2.36 0.39,2.39 C0.446369538,2.39820665 0.503630462,2.39820665 0.56,2.39 C0.714149058,2.38401942 0.866800514,2.42218229 1,2.5 C1.13328377,2.56841436 1.28023638,2.60600689 1.43,2.61 C1.57365285,2.61225082 1.71451239,2.6500424 1.84,2.72 Z" id="Shape" fill="#7A361D"></path>
                <path d="M1.83,2.58 C1.5,2.46 1.28,2.58 0.99,2.43 C1.19,2.61 1.46,2.49 1.8,2.65 L1.83,2.58 Z" id="Shape" fill="#7A361D"></path>
                <path d="M2.78,2.92 L5.45,2.82 C5.45,2.82 5.45,2.82 5.45,2.82 C5.45,2.82 5.45,2.82 5.45,2.82 L2.78,2.72 L2.78,2.92 Z" id="Shape" fill="#F1BD51"></path>
                <path d="M2.78,2.93 L5.45,2.83 C5.45,2.83 5.45,2.83 5.45,2.83 C5.45,2.83 5.45,2.83 5.45,2.83 L2.78,2.73 L5.45,2.81 C5.45,2.81 5.5,2.81 5.5,2.81 C5.5,2.81 5.5,2.81 5.45,2.81 L2.78,2.91 L2.78,2.93 Z" id="Shape" fill="#7A361D"></path>
                <polygon id="Shape" fill="#7A361D" points="2.78 2.85 4.61 2.79 2.78 2.72"></polygon>
                <path d="M3.64,3 C3.98,3.15 4.25,3 4.55,3.18 C4.76178696,3.26794099 4.99460935,3.29226572 5.22,3.25 C5.35,3.25 5.39,3.37 5.42,3.34 C5.45,3.31 5.42,3.2 5.21,3.15 C5,3.1 4.93,3.21 4.57,3.03 C4.21,2.85 4.04,3.03 3.73,2.81 L3.64,3 Z" id="Shape" fill="#F1BD51"></path>
                <path d="M5.41,3.39 C5.37042015,3.34885943 5.31695465,3.32390886 5.26,3.32 L5.13,3.32 C4.94607878,3.35195822 4.75675551,3.32391033 4.59,3.24 C4.45205418,3.17702729 4.3015934,3.14625122 4.15,3.15 C3.98867901,3.15421046 3.82835328,3.12350979 3.68,3.06 C3.82544412,3.12153865 3.98208795,3.15218636 4.14,3.15 C4.2915934,3.14625122 4.44205418,3.17702729 4.58,3.24 C4.74319003,3.32382902 4.9293374,3.35192674 5.11,3.32 L5.24,3.32 C5.30001415,3.32334038 5.35681582,3.34819111 5.4,3.39 C5.4,3.33 5.33,3.25 5.2,3.22 C5.14368876,3.2110243 5.08631124,3.2110243 5.03,3.22 C4.86236673,3.23541117 4.6941935,3.19687147 4.55,3.11 C4.41671623,3.04158564 4.26976362,3.00399311 4.12,3 C3.97628879,2.99816889 3.83532805,2.96035015 3.71,2.89 C3.8384905,2.95073758 3.97797401,2.98475795 4.12,2.99 C4.27315565,2.99248407 4.42369369,3.03011858 4.56,3.1 C4.70109477,3.1854401 4.86564337,3.22395147 5.03,3.21 C5.08631124,3.2010243 5.14368876,3.2010243 5.2,3.21 C5.29535039,3.22349723 5.37778116,3.28344688 5.42,3.37 L5.41,3.39 Z" id="Shape" fill="#7A361D"></path>
                <path d="M3.73,3 C4.07,3.12 4.29,3 4.57,3.15 C4.37,2.97 4.1,3.09 3.76,2.94 L3.73,3 Z" id="Shape" fill="#7A361D"></path>
                <path d="M2.69,2.69 L0.87,4.69 C0.87,4.69 0.87,4.69 0.87,4.75 C0.87,4.81 0.93,4.75 0.93,4.75 L2.93,2.93 L2.69,2.69 Z" id="Shape" fill="#F1BD51"></path>
                <path d="M0.88,4.73 C0.867409708,4.72055728 0.86,4.70573787 0.86,4.69 C0.86,4.67426213 0.867409708,4.65944272 0.88,4.65 L2.7,2.65 L0.88,4.65 C0.88,4.65 0.88,4.65 0.88,4.65 C0.88,4.65 0.93,4.65 0.93,4.65 L2.93,2.84 L0.92,4.7 L0.88,4.73 Z" id="Shape" fill="#7A361D"></path>
                <polygon id="Shape" fill="#7A361D" points="2.73 2.74 1.49 4.08 2.83 2.83"></polygon>
                <path d="M2,3.22 C1.65,3.35 1.55,3.64 1.24,3.73 C1.02788732,3.81863998 0.846895302,3.96830645 0.72,4.16 C0.62,4.25 0.51,4.16 0.51,4.24 C0.51,4.32 0.63,4.32 0.79,4.24 C0.95,4.16 0.94,4 1.33,3.87 C1.72,3.74 1.73,3.53 2.09,3.43 L2,3.22 Z" id="Shape" fill="#F1BD51"></path>
                <path d="M0.59,4.29 L0.51,4.29 C0.51,4.29 0.51,4.29 0.56,4.29 C0.618570093,4.28859795 0.674949954,4.26745551 0.72,4.23 C0.751400777,4.20074649 0.778352843,4.16705641 0.8,4.13 C0.908146918,3.97630392 1.06217062,3.86078614 1.24,3.8 C1.38114646,3.75154834 1.50821116,3.66912799 1.61,3.56 C1.72253733,3.44248584 1.85892632,3.35042327 2.01,3.29 C1.86292835,3.35242721 1.73020109,3.44431532 1.62,3.56 C1.51906889,3.67245427 1.39199255,3.75831666 1.25,3.81 C1.07484264,3.87077402 0.924015064,3.98652541 0.82,4.14 L0.73,4.24 C0.681881047,4.27888606 0.621867235,4.30006741 0.56,4.3 C0.56,4.3 0.56,4.3 0.56,4.3 C0.6414669,4.35542487 0.7485331,4.35542487 0.83,4.3 C0.878597046,4.27004988 0.922419333,4.23296948 0.96,4.19 C1.06951465,4.06171781 1.21634416,3.97082335 1.38,3.93 C1.52230734,3.88279021 1.65217743,3.80418463 1.76,3.7 C1.8660752,3.59790917 1.99711916,3.52549014 2.14,3.49 C2.0064708,3.53847009 1.88404625,3.61328509 1.78,3.71 C1.66929414,3.81547542 1.53587469,3.89415869 1.39,3.94 C1.23095698,3.97938151 1.08784108,4.0666473 0.98,4.19 C0.942757387,4.23331166 0.898878557,4.27043991 0.85,4.3 C0.790243963,4.3382833 0.720961441,4.35906805 0.65,4.36 L0.59,4.29 Z" id="Shape" fill="#7A361D"></path>
                <path d="M2,3.31 C1.68,3.46 1.61,3.71 1.3,3.8 C1.57,3.8 1.67,3.51 2.02,3.38 L2,3.31 Z" id="Shape" fill="#7A361D"></path>
                <path d="M2.88,2.88 L4.7,0.88 C4.7,0.88 4.7,0.88 4.7,0.82 C4.7,0.76 4.64,0.82 4.64,0.82 L2.64,2.64 L2.88,2.88 Z" id="Shape" fill="#F1BD51"></path>
                <path d="M2.88,2.89 L4.7,0.89 C4.7,0.89 4.7,0.89 4.7,0.89 C4.7,0.89 4.7,0.89 4.7,0.89 L2.7,2.71 L4.7,0.88 C4.7,0.88 4.7,0.88 4.77,0.88 C4.84,0.88 4.77,0.94 4.77,0.95 L2.95,2.95 L2.88,2.89 Z" id="Shape" fill="#7A361D"></path>
                <polygon id="Shape" fill="#7A361D" points="2.83 2.83 4.08 1.49 2.73 2.74"></polygon>
                <path d="M3.57,2.36 C3.91,2.23 4.02,1.94 4.33,1.85 C4.54149306,1.76033722 4.72221644,1.61089288 4.85,1.42 C4.95,1.33 5.06,1.42 5.06,1.34 C5.06,1.26 4.94,1.26 4.78,1.34 C4.62,1.42 4.62,1.58 4.24,1.71 C3.86,1.84 3.84,2.05 3.49,2.15 L3.57,2.36 Z" id="Shape" fill="#F1BD51"></path>
                <path d="M3.57,2.36 C3.73243808,2.29993625 3.87936571,2.20426243 4,2.08 C4.10374457,1.96617368 4.23440463,1.88021311 4.38,1.83 C4.55443252,1.77315296 4.70545775,1.66076209 4.81,1.51 L4.9,1.41 C4.92836011,1.38268599 4.96255347,1.36216997 5,1.35 C4.9185331,1.29457513 4.8114669,1.29457513 4.73,1.35 C4.68457403,1.38026828 4.64409669,1.41737251 4.61,1.46 C4.49882445,1.58633208 4.35265093,1.67682045 4.19,1.72 C4.04859881,1.76427525 3.91880361,1.83941984 3.81,1.94 C3.70673047,2.04059047 3.57931034,2.11291 3.44,2.15 C3.57516629,2.10015959 3.69796808,2.02170289 3.8,1.92 C3.91070586,1.81452458 4.04412531,1.73584131 4.19,1.69 C4.34542903,1.64876225 4.48482301,1.56164101 4.59,1.44 C4.62855274,1.39803073 4.67222847,1.36107434 4.72,1.33 C4.80491427,1.28721142 4.90508573,1.28721142 4.99,1.33 C4.99,1.33 4.99,1.33 4.93,1.33 C4.87553152,1.32750248 4.82207627,1.3453209 4.78,1.38 L4.69,1.48 C4.58395801,1.6357225 4.42918536,1.75180199 4.25,1.81 C4.10939949,1.86437929 3.98291297,1.94984315 3.88,2.06 C3.7703691,2.17634944 3.63749315,2.26834048 3.49,2.33 L3.57,2.36 Z" id="Shape" fill="#7A361D"></path>
                <path d="M3.6,2.26 C3.92,2.11 3.99,1.86 4.3,1.78 C4.03,1.78 3.93,2.07 3.58,2.2 L3.6,2.26 Z" id="Shape" fill="#7A361D"></path>
                <path d="M2.88,2.69 L0.88,0.87 C0.88,0.87 0.88,0.87 0.82,0.87 C0.76,0.87 0.82,0.93 0.82,0.93 L2.64,2.93 L2.88,2.69 Z" id="Shape" fill="#F1BD51"></path>
                <path d="M2.69,2.88 L0.86,0.88 C0.86,0.88 0.86,0.88 0.86,0.81 C0.86,0.74 0.91,0.81 0.93,0.81 L2.93,2.63 L0.93,0.81 C0.93,0.81 0.93,0.81 0.88,0.81 C0.83,0.81 0.88,0.81 0.88,0.81 L2.7,2.81 L2.69,2.88 Z" id="Shape" fill="#7A361D"></path>
                <polygon id="Shape" fill="#7A361D" points="2.83 2.74 1.49 1.49 2.73 2.83"></polygon>
                <path d="M2.35,2 C2.23,1.65 1.94,1.55 1.84,1.24 C1.75457361,1.02890535 1.60839763,0.847925566 1.42,0.72 C1.33,0.62 1.42,0.51 1.34,0.51 C1.26,0.51 1.26,0.63 1.34,0.79 C1.42,0.95 1.59,0.94 1.71,1.33 C1.83,1.72 2.05,1.73 2.15,2.08 L2.35,2 Z" id="Shape" fill="#F1BD51"></path>
                <path d="M2.16,2.08 C2.11081202,1.94681738 2.036079,1.824527 1.94,1.72 C1.83452458,1.60929414 1.75584131,1.47587469 1.71,1.33 C1.66944778,1.1714479 1.58238017,1.02865701 1.46,0.92 C1.41244362,0.884306564 1.37178097,0.840255355 1.34,0.79 C1.29554834,0.70548875 1.29554834,0.60451125 1.34,0.52 C1.34,0.52 1.34,0.52 1.34,0.58 C1.33926913,0.637287379 1.35678003,0.693322258 1.39,0.74 L1.49,0.83 C1.64519805,0.936589864 1.76112918,1.09116471 1.82,1.27 C1.87437929,1.41060051 1.95984315,1.53708703 2.07,1.64 C2.18425782,1.7514144 2.27593487,1.88383681 2.34,2.03 C2.27943385,1.88191121 2.18729182,1.74881717 2.07,1.64 C1.95984315,1.53708703 1.87437929,1.41060051 1.82,1.27 C1.76124542,1.09656129 1.64926237,0.946084071 1.5,0.84 L1.4,0.75 C1.36180569,0.701497437 1.34071188,0.641731655 1.34,0.58 C1.34,0.58 1.34,0.58 1.34,0.58 C1.28722167,0.662262356 1.28722167,0.767737644 1.34,0.85 C1.37104493,0.894811441 1.40805213,0.935182922 1.45,0.97 C1.57587336,1.08156258 1.66626948,1.22758709 1.71,1.39 C1.75427525,1.53140119 1.82941984,1.66119639 1.93,1.77 C2.0302326,1.87353791 2.1024961,2.00085931 2.14,2.14 L2.16,2.08 Z" id="Shape" fill="#7A361D"></path>
                <path d="M2.26,2 C2.1,1.68 1.86,1.61 1.77,1.3 C1.77,1.57 2.06,1.67 2.19,2.03 L2.26,2 Z" id="Shape" fill="#7A361D"></path>
                <path d="M2.69,2.88 L4.69,4.7 C4.69,4.7 4.69,4.7 4.75,4.7 C4.81,4.7 4.75,4.64 4.75,4.64 L2.93,2.64 L2.69,2.88 Z" id="Shape" fill="#F1BD51"></path>
                <path d="M4.68,4.72 L2.68,2.91 L4.68,4.72 C4.68,4.72 4.68,4.72 4.68,4.72 C4.68,4.72 4.68,4.72 4.68,4.72 L2.86,2.72 L4.69,4.67 C4.69,4.67 4.69,4.67 4.69,4.74 L4.68,4.72 Z" id="Shape" fill="#7A361D"></path>
                <polygon id="Shape" fill="#7A361D" points="2.73 2.83 4.08 4.08 2.83 2.74"></polygon>
                <path d="M3.21,3.58 C3.34,3.92 3.63,4.02 3.73,4.34 C3.81542639,4.55109465 3.96160237,4.73207443 4.15,4.86 C4.24,4.96 4.15,5.07 4.23,5.07 C4.31,5.07 4.31,4.95 4.23,4.79 C4.15,4.63 3.99,4.63 3.86,4.25 C3.73,3.87 3.51,3.85 3.42,3.5 L3.21,3.58 Z" id="Shape" fill="#F1BD51"></path>
                <path d="M4.23,5.08 C4.23,5.08 4.23,5.08 4.23,5.02 C4.23073087,4.96271262 4.21321997,4.90667774 4.18,4.86 L4.08,4.77 C3.9242775,4.66395801 3.80819801,4.50918536 3.75,4.33 C3.69795217,4.18819367 3.6121455,4.0611998 3.5,3.96 C3.38535109,3.84891673 3.29361752,3.71641269 3.23,3.57 C3.29192017,3.71735035 3.38387598,3.8501754 3.5,3.96 C3.61350252,4.06402071 3.69940513,4.19459268 3.75,4.34 C3.80994553,4.51281107 3.92168082,4.66295537 4.07,4.77 C4.10739315,4.79515668 4.14105706,4.8254542 4.17,4.86 C4.20980521,4.90364904 4.23128949,4.96094044 4.23,5.02 C4.23,5.02 4.23,5.02 4.23,5.02 C4.28838367,4.93946848 4.28838367,4.83053152 4.23,4.75 C4.19959214,4.70173653 4.16256474,4.65797688 4.12,4.62 C3.99345156,4.51313153 3.90270785,4.37003567 3.86,4.21 C3.81279021,4.06769266 3.73418463,3.93782257 3.63,3.83 C3.52940953,3.72673047 3.45709,3.59931034 3.42,3.46 C3.46689673,3.59428017 3.54189908,3.71701128 3.64,3.82 C3.74547542,3.93070586 3.82415869,4.06412531 3.87,4.21 C3.90997493,4.36879484 3.99713968,4.51174503 4.12,4.62 C4.16307954,4.65747225 4.20017502,4.70131236 4.23,4.75 C4.27445166,4.83451125 4.27445166,4.93548875 4.23,5.02 L4.23,5.08 Z" id="Shape" fill="#7A361D"></path>
                <path d="M3.3,3.61 C3.45,3.93 3.7,4 3.79,4.31 C3.79,4.04 3.5,3.94 3.37,3.59 L3.3,3.61 Z" id="Shape" fill="#7A361D"></path>
                <path d="M2.66,2.74 L1.73,5.25 C1.73,5.25 1.73,5.25 1.73,5.31 C1.73,5.37 1.78,5.31 1.78,5.31 L2.9,2.84 L2.66,2.74 Z" id="Shape" fill="#F1BD51"></path>
                <path d="M1.76,5.31 C1.71,5.31 1.76,5.26 1.76,5.24 L2.69,2.74 L1.76,5.24 C1.76,5.24 1.76,5.24 1.76,5.24 L2.9,2.84 L1.8,5.28 L1.76,5.31 Z" id="Shape" fill="#7A361D"></path>
                <polygon id="Shape" fill="#7A361D" points="2.72 2.76 2.08 4.48 2.84 2.81"></polygon>
                <path d="M2.22,3.49 C1.95,3.74 1.97,4.04 1.71,4.26 C1.54938457,4.42222503 1.43837505,4.62689884 1.39,4.85 C1.33,4.97 1.21,4.96 1.23,5 C1.25,5.04 1.37,5 1.48,4.88 C1.59,4.76 1.53,4.59 1.84,4.33 C2.15,4.07 2.07,3.86 2.37,3.64 L2.22,3.49 Z" id="Shape" fill="#F1BD51"></path>
                <path d="M1.27,5 C1.27,5 1.27,5 1.27,5 C1.32074337,4.97712361 1.36280579,4.93856638 1.39,4.89 C1.39409122,4.84676323 1.39409122,4.80323677 1.39,4.76 C1.4296855,4.5770318 1.52799517,4.41201201 1.67,4.29 C1.78015685,4.18708703 1.86562071,4.06060051 1.92,3.92 C1.97721232,3.76968271 2.06585423,3.63331055 2.18,3.52 C2.0681261,3.63130595 1.97971553,3.76392181 1.92,3.91 C1.86795217,4.05180633 1.7821455,4.1788002 1.67,4.28 C1.53508891,4.40212434 1.44085595,4.56266938 1.4,4.74 C1.40366455,4.78325586 1.40366455,4.82674414 1.4,4.87 C1.37352883,4.92509507 1.32703336,4.96801397 1.27,4.99 C1.27,4.99 1.27,4.99 1.27,4.99 C1.27,4.99 1.42,4.99 1.51,4.87 C1.54150523,4.82423645 1.56516268,4.77354191 1.58,4.72 C1.6349295,4.56089413 1.73586066,4.42167874 1.87,4.32 C1.96713344,4.22964526 2.04531801,4.12086672 2.1,4 C2.15662826,3.86656627 2.24606481,3.74961078 2.36,3.66 C2.2547202,3.75543128 2.16970219,3.87105577 2.11,4 C2.04851949,4.13895453 1.95618181,4.26207144 1.84,4.36 C1.71028513,4.45957821 1.6128759,4.59525535 1.56,4.75 C1.54383141,4.80304102 1.52026621,4.85353787 1.49,4.9 C1.43986934,4.97578499 1.35988409,5.0266847 1.27,5.04 L1.27,5 Z" id="Shape" fill="#7A361D"></path>
                <path d="M2.23,3.58 C1.99,3.84 2.02,4.09 1.77,4.3 C2.01,4.18 2,3.89 2.28,3.64 L2.23,3.58 Z" id="Shape" fill="#7A361D"></path>
                <path d="M2.9,2.84 L3.83,0.34 C3.83,0.34 3.83,0.34 3.83,0.28 C3.83,0.22 3.83,0.28 3.83,0.28 L2.66,2.74 L2.9,2.84 Z" id="Shape" fill="#F1BD51"></path>
                <path d="M2.91,2.84 L3.84,0.34 C3.84,0.34 3.84,0.34 3.84,0.34 L2.66,2.74 L3.76,0.31 L2.83,2.81 L2.91,2.84 Z" id="Shape" fill="#7A361D"></path>
                <polygon id="Shape" fill="#7A361D" points="2.84 2.81 3.48 1.1 2.72 2.76"></polygon>
                <path d="M3.35,2.09 C3.62,1.84 3.6,1.53 3.86,1.32 C4.01979883,1.15860481 4.12774639,0.953156233 4.17,0.73 C4.24,0.61 4.35,0.62 4.34,0.58 C4.33,0.54 4.2,0.58 4.09,0.7 C3.98,0.82 4.04,0.99 3.73,1.25 C3.42,1.51 3.49,1.72 3.2,1.94 L3.35,2.09 Z" id="Shape" fill="#F1BD51"></path>
                <path d="M3.35,2.09 C3.46463407,1.97708732 3.55334952,1.84060202 3.61,1.69 C3.66131014,1.54781743 3.74723019,1.42065576 3.86,1.32 C4.00072236,1.20106632 4.09898932,1.03962775 4.14,0.86 C4.1363826,0.816742161 4.1363826,0.773257839 4.14,0.73 C4.16797353,0.67603336 4.21397147,0.633573726 4.27,0.61 C4.27,0.61 4.27,0.61 4.27,0.61 C4.17253817,0.594355139 4.07596121,0.64264362 4.03,0.73 C3.996232,0.775875876 3.96928568,0.82640022 3.95,0.88 C3.89795784,1.04059113 3.79644876,1.18060366 3.66,1.28 C3.54501827,1.37506509 3.45276463,1.49465314 3.39,1.63 C3.33454847,1.76411496 3.24490094,1.88134635 3.13,1.97 C3.2339449,1.87337149 3.31875703,1.75802699 3.38,1.63 C3.44148051,1.49104547 3.53381819,1.36792856 3.65,1.27 C3.81127678,1.17415965 3.9348135,1.02591559 4,0.85 C4.01981445,0.793507175 4.04669441,0.739747253 4.08,0.69 C4.16,0.58 4.25,0.54 4.31,0.55 C4.31,0.55 4.31,0.55 4.31,0.55 C4.25740667,0.569974637 4.21446397,0.609338785 4.19,0.66 C4.18527772,0.699860625 4.18527772,0.740139375 4.19,0.78 C4.1503145,0.962968204 4.05200483,1.12798799 3.91,1.25 C3.79984315,1.35291297 3.71437929,1.47939949 3.66,1.62 C3.60306592,1.77045847 3.51438775,1.90688642 3.4,2.02 L3.35,2.09 Z" id="Shape" fill="#7A361D"></path>
                <path d="M3.34,2 C3.58,1.74 3.55,1.48 3.8,1.28 C3.56,1.4 3.56,1.69 3.29,1.95 L3.34,2 Z" id="Shape" fill="#7A361D"></path>
                <path d="M2.83,2.66 L0.33,1.73 C0.33,1.73 0.33,1.73 0.27,1.73 C0.21,1.73 0.27,1.78 0.27,1.78 L2.7,2.89 L2.83,2.66 Z" id="Shape" fill="#F1BD51"></path>
                <path d="M2.73,2.9 L0.3,1.8 C0.3,1.8 0.25,1.8 0.3,1.74 C0.319442176,1.72094286 0.350557824,1.72094286 0.37,1.74 L2.87,2.67 L0.37,1.74 C0.37,1.74 0.37,1.74 0.32,1.74 C0.27,1.74 0.32,1.74 0.32,1.74 L2.73,2.9 Z" id="Shape" fill="#7A361D"></path>
                <polygon id="Shape" fill="#7A361D" points="2.8 2.73 1.09 2.08 2.75 2.85"></polygon>
                <path d="M2.08,2.22 C1.83,1.95 1.53,1.97 1.31,1.71 C1.1495291,1.54703774 0.944111541,1.43562482 0.72,1.39 C0.6,1.33 0.61,1.21 0.57,1.23 C0.53,1.25 0.57,1.37 0.69,1.48 C0.81,1.59 0.97,1.53 1.23,1.84 C1.49,2.15 1.7,2.08 1.93,2.37 L2.08,2.22 Z" id="Shape" fill="#F1BD51"></path>
                <path d="M1.94,2.37 C1.84284808,2.26226603 1.72341925,2.17695972 1.59,2.12 C1.45104547,2.05851949 1.32792856,1.96618181 1.23,1.85 C1.13128305,1.71939914 0.995308753,1.62177656 0.84,1.57 C0.782788543,1.55192061 0.728790387,1.52492153 0.68,1.49 C0.599616731,1.43975747 0.547708358,1.35447943 0.54,1.26 C0.54,1.26 0.54,1.26 0.54,1.26 C0.561567022,1.31159346 0.600473091,1.35403644 0.65,1.38 L0.77,1.38 C0.952968204,1.4196855 1.11798799,1.51799517 1.24,1.66 C1.34291297,1.77015685 1.46939949,1.85562071 1.61,1.91 C1.76045847,1.96693408 1.89688642,2.05561225 2.01,2.17 C1.90974772,2.09613298 1.79834588,2.03874415 1.68,2 C1.53581083,1.94696352 1.40578068,1.86141737 1.3,1.75 C1.1800717,1.61241526 1.0185944,1.5176351 0.84,1.48 L0.72,1.48 C0.666535142,1.4513734 0.624264788,1.40558051 0.6,1.35 C0.6,1.35 0.6,1.35 0.6,1.35 C0.6,1.35 0.6,1.51 0.73,1.59 C0.77664644,1.61993302 0.827095954,1.64347613 0.88,1.66 C1.04028041,1.71265182 1.18012083,1.81403613 1.28,1.95 C1.37792856,2.06618181 1.50104547,2.15851949 1.64,2.22 C1.77388277,2.27585403 1.89101874,2.3654286 1.98,2.48 L1.94,2.37 Z" id="Shape" fill="#7A361D"></path>
                <path d="M2,2.23 C1.74,1.99 1.48,2.02 1.28,1.77 C1.4,2.01 1.69,2 1.95,2.28 L2,2.23 Z" id="Shape" fill="#7A361D"></path>
                <path d="M2.73,2.91 L5.23,3.84 C5.23,3.84 5.23,3.84 5.29,3.84 C5.35,3.84 5.29,3.84 5.29,3.84 L2.83,2.66 L2.73,2.91 Z" id="Shape" fill="#F1BD51"></path>
                <path d="M5.26,3.85 L2.76,2.92 L5.27,3.85 C5.27,3.85 5.27,3.85 5.27,3.85 C5.27,3.85 5.27,3.85 5.27,3.85 L2.83,2.67 L5.27,3.77 C5.27,3.77 5.32,3.77 5.27,3.83 L5.26,3.85 Z" id="Shape" fill="#7A361D"></path>
                <polygon id="Shape" fill="#7A361D" points="2.75 2.85 4.47 3.49 2.8 2.73"></polygon>
                <path d="M3.48,3.35 C3.73,3.62 4.04,3.6 4.25,3.86 C4.4104709,4.02296226 4.61588846,4.13437518 4.84,4.18 C4.96,4.24 4.95,4.36 5,4.34 C5.05,4.32 5,4.2 4.88,4.09 C4.76,3.98 4.6,4.09 4.34,3.73 C4.08,3.37 3.87,3.49 3.64,3.2 L3.48,3.35 Z" id="Shape" fill="#F1BD51"></path>
                <path d="M5,4.35 C5,4.35 5,4.35 5,4.35 C4.97774795,4.29884808 4.93902758,4.25660768 4.89,4.23 L4.76,4.23 C4.57647768,4.1917287 4.4110322,4.09316543 4.29,3.95 C4.18708703,3.83984315 4.06060051,3.75437929 3.92,3.7 C3.76995817,3.64224668 3.63369312,3.5536744 3.52,3.44 C3.63350369,3.55390803 3.76982157,3.64251465 3.92,3.7 C4.06060051,3.75437929 4.18708703,3.83984315 4.29,3.95 C4.41039219,4.08702421 4.57166886,4.1816866 4.75,4.22 L4.88,4.22 C4.93396664,4.24797353 4.97642627,4.29397147 5,4.35 C5,4.35 5,4.35 5,4.35 C5,4.35 5,4.19 4.88,4.11 C4.83389465,4.07909639 4.78330037,4.05548573 4.73,4.04 C4.57061029,3.98561709 4.43124749,3.88457907 4.33,3.75 C4.23363018,3.63218037 4.11009039,3.53952553 3.97,3.48 C3.83975303,3.42268421 3.72620164,3.33321948 3.64,3.22 C3.73425856,3.32657119 3.85017276,3.41180222 3.98,3.47 C4.11895453,3.53148051 4.24207144,3.62381819 4.34,3.74 C4.43871695,3.87060086 4.57469125,3.96822344 4.73,4.02 C4.78453608,4.03711569 4.83540459,4.06424556 4.88,4.1 C4.96288595,4.14772402 5.01567828,4.23445428 5.02,4.33 L5,4.35 Z" id="Shape" fill="#7A361D"></path>
                <path d="M3.58,3.34 C3.84,3.58 4.09,3.55 4.29,3.8 C4.17,3.56 3.88,3.56 3.63,3.29 L3.58,3.34 Z" id="Shape" fill="#7A361D"></path>
                <path d="M2.73,2.66 L0.3,3.78 C0.3,3.78 0.3,3.78 0.3,3.78 C0.3,3.78 0.36,3.78 0.36,3.78 L2.86,2.85 L2.73,2.66 Z" id="Shape" fill="#F1BD51"></path>
                <path d="M0.3,3.85 C0.3,3.85 0.3,3.8 0.3,3.79 L2.73,2.68 L0.3,3.79 C0.3,3.79 0.3,3.79 0.3,3.79 C0.3,3.79 0.3,3.79 0.35,3.79 L2.85,2.86 L0.35,3.8 L0.3,3.85 Z" id="Shape" fill="#7A361D"></path>
                <polygon id="Shape" fill="#7A361D" points="2.75 2.73 1.09 3.49 2.8 2.85"></polygon>
                <path d="M1.89,2.88 C1.52,2.88 1.32,3.09 0.99,3.06 C0.762657249,3.05924937 0.540105374,3.12531946 0.35,3.25 C0.22,3.25 0.14,3.25 0.13,3.25 C0.12,3.25 0.21,3.37 0.39,3.34 C0.57,3.31 0.63,3.17 1.03,3.21 C1.43,3.25 1.53,3.05 1.9,3.09 L1.89,2.88 Z" id="Shape" fill="#F1BD51"></path>
                <path d="M0.31,3.36 C0.23625255,3.36747045 0.162992491,3.34182943 0.11,3.29 C0.11,3.29 0.11,3.29 0.17,3.29 C0.221763347,3.30830111 0.278236653,3.30830111 0.33,3.29 L0.45,3.23 C0.607254912,3.12809461 0.79293355,3.07904742 0.98,3.09 C1.1318495,3.09680897 1.28302026,3.06588768 1.42,3 C1.56778229,2.93365202 1.72800782,2.89956148 1.89,2.9 C1.73224138,2.8994711 1.57592666,2.93005442 1.43,2.99 C1.29205418,3.05297271 1.1415934,3.08374878 0.99,3.08 C0.805999571,3.06833523 0.623272128,3.11753108 0.47,3.22 L0.35,3.28 C0.294934206,3.299049 0.235065794,3.299049 0.18,3.28 C0.18,3.34 0.3,3.38 0.44,3.36 C0.495574819,3.35160652 0.549534733,3.33474405 0.6,3.31 C0.748219348,3.23537876 0.915591024,3.20748348 1.08,3.23 C1.22930986,3.24322963 1.37968383,3.22272409 1.52,3.17 C1.65355066,3.11821068 1.79802342,3.10101154 1.94,3.12 C1.79659819,3.11291162 1.65335143,3.13678608 1.52,3.19 C1.37658349,3.24423446 1.22261623,3.26476343 1.07,3.25 C0.908855328,3.22891236 0.745093452,3.25678672 0.6,3.33 C0.549746031,3.3574081 0.495884346,3.37760624 0.44,3.39 L0.31,3.36 Z" id="Shape" fill="#7A361D"></path>
                <path d="M1.83,3 C1.47,3 1.32,3.22 0.99,3.18 C1.25,3.27 1.44,3.06 1.82,3.07 L1.83,3 Z" id="Shape" fill="#7A361D"></path>
                <path d="M2.83,2.91 L5.26,1.8 C5.26,1.8 5.26,1.8 5.26,1.75 C5.26,1.7 5.2,1.75 5.2,1.75 L2.7,2.68 L2.83,2.91 Z" id="Shape" fill="#F1BD51"></path>
                <path d="M2.83,2.92 L5.26,1.81 C5.26,1.81 5.26,1.81 5.26,1.81 C5.26,1.81 5.26,1.81 5.26,1.81 L2.75,2.74 L5.25,1.8 C5.25,1.8 5.31,1.8 5.32,1.8 C5.33,1.8 5.32,1.85 5.32,1.86 L2.83,2.92 Z" id="Shape" fill="#7A361D"></path>
                <polygon id="Shape" fill="#7A361D" points="2.8 2.85 4.47 2.08 2.75 2.73"></polygon>
                <path d="M3.68,2.69 C4.05,2.69 4.25,2.48 4.58,2.51 C4.80742777,2.51134538 5.03014791,2.44522534 5.22,2.32 C5.35,2.32 5.43,2.32 5.45,2.32 C5.47,2.32 5.37,2.2 5.18,2.23 C4.99,2.26 4.95,2.4 4.54,2.36 C4.13,2.32 4.04,2.52 3.68,2.48 L3.68,2.69 Z" id="Shape" fill="#F1BD51"></path>
                <path d="M3.71,2.7 C3.86858836,2.69874193 4.02520237,2.66469541 4.17,2.6 C4.30794582,2.53702729 4.4584066,2.50625122 4.61,2.51 C4.79392563,2.52092551 4.9764214,2.47179204 5.13,2.37 L5.25,2.31 C5.3079188,2.28765077 5.3720812,2.28765077 5.43,2.31 C5.43,2.25 5.31,2.21 5.18,2.23 C5.12419057,2.23735246 5.07006538,2.25426659 5.02,2.28 C4.87178065,2.35462124 4.70440898,2.38251652 4.54,2.36 C4.39069014,2.34677037 4.24031617,2.36727591 4.1,2.42 C3.96614689,2.47056416 3.82198295,2.48772653 3.68,2.47 C3.82340181,2.47708838 3.96664857,2.45321392 4.1,2.4 C4.24390665,2.34773636 4.39742712,2.32726697 4.55,2.34 C4.7026527,2.36330366 4.85878591,2.3424859 5,2.28 C5.04949529,2.25096705 5.10361887,2.23067071 5.16,2.22 C5.25604431,2.19365532 5.35885367,2.2203096 5.43,2.29 C5.43,2.29 5.43,2.29 5.37,2.29 C5.31823665,2.27169889 5.26176335,2.27169889 5.21,2.29 L5.09,2.35 C4.93333424,2.45322989 4.74720825,2.50239525 4.56,2.49 C4.41153603,2.48522947 4.26408908,2.51609046 4.13,2.58 C3.99097616,2.64085611 3.84167051,2.67478922 3.69,2.68 L3.71,2.7 Z" id="Shape" fill="#7A361D"></path>
                <path d="M3.74,2.62 C4.09,2.62 4.25,2.4 4.57,2.44 C4.32,2.35 4.12,2.56 3.74,2.55 L3.74,2.62 Z" id="Shape" fill="#7A361D"></path>
                <path d="M2.9,2.74 L1.79,0.31 C1.79,0.31 1.79,0.31 1.74,0.31 C1.69,0.31 1.74,0.37 1.74,0.37 L2.67,2.87 L2.9,2.74 Z" id="Shape" fill="#F1BD51"></path>
                <polygon id="Shape" fill="#7A361D" points="2.66 2.84 1.72 0.34 1.72 0.34 2.83 2.77 2.83 2.77 1.76 0.28 1.76 0.28 1.76 0.28 2.69 2.78"></polygon>
                <polygon id="Shape" fill="#7A361D" points="2.84 2.76 2.08 1.1 2.72 2.81"></polygon>
                <path d="M2.69,1.89 C2.69,1.52 2.48,1.32 2.5,0.99 C2.49778845,0.761630083 2.42821466,0.538993947 2.3,0.35 C2.3,0.22 2.3,0.15 2.3,0.13 C2.3,0.11 2.18,0.21 2.21,0.39 C2.24,0.57 2.38,0.63 2.34,1.03 C2.3,1.43 2.5,1.53 2.46,1.89 L2.69,1.89 Z" id="Shape" fill="#F1BD51"></path>
                <path d="M2.69,1.89 C2.68762984,1.73153757 2.6536314,1.57514477 2.59,1.43 C2.5250488,1.29590632 2.49088297,1.14899327 2.49,1 C2.50461524,0.817121117 2.45895645,0.63448596 2.36,0.48 L2.3,0.36 C2.28018863,0.301635377 2.28018863,0.238364623 2.3,0.18 C2.3,0.18 2.3,0.18 2.3,0.18 C2.3,0.18 2.2,0.3 2.22,0.43 C2.23055263,0.485055003 2.24732689,0.538732647 2.27,0.59 C2.34462124,0.738219348 2.37251652,0.905591024 2.35,1.07 C2.33677037,1.21930986 2.35727591,1.36968383 2.41,1.51 C2.46178932,1.64355066 2.47898846,1.78802342 2.46,1.93 C2.46503922,1.78672424 2.44123464,1.64389679 2.39,1.51 C2.33267358,1.34634355 2.3188892,1.17059271 2.35,1 C2.37172079,0.838843757 2.3438146,0.6748949 2.27,0.53 C2.24479,0.479721707 2.22790398,0.425686424 2.22,0.37 C2.19302874,0.275645269 2.21560521,0.174051164 2.28,0.1 C2.28,0.1 2.28,0.1 2.28,0.16 C2.26085145,0.211614582 2.26085145,0.268385418 2.28,0.32 C2.29729114,0.361298052 2.31733624,0.401388255 2.34,0.44 C2.44190539,0.597254912 2.49095258,0.78293355 2.48,0.97 C2.47522947,1.11846397 2.50609046,1.26591092 2.57,1.4 C2.63549242,1.54806054 2.66954379,1.70810197 2.67,1.87 L2.69,1.89 Z" id="Shape" fill="#7A361D"></path>
                <path d="M2.61,1.83 C2.61,1.47 2.39,1.32 2.43,0.99 C2.34,1.24 2.55,1.44 2.54,1.82 L2.61,1.83 Z" id="Shape" fill="#7A361D"></path>
                <path d="M2.66,2.84 L3.78,5.27 C3.78,5.27 3.78,5.27 3.78,5.27 C3.78,5.27 3.78,5.21 3.78,5.21 L2.9,2.74 L2.66,2.84 Z" id="Shape" fill="#F1BD51"></path>
                <path d="M3.82,5.31 C3.80058875,5.31686292 3.77941125,5.31686292 3.76,5.31 L2.65,2.84 L3.77,5.27 C3.77,5.27 3.77,5.27 3.77,5.27 C3.77,5.27 3.77,5.27 3.77,5.27 L2.84,2.77 L3.79,5.27 C3.79,5.27 3.79,5.33 3.79,5.34 L3.82,5.31 Z" id="Shape" fill="#7A361D"></path>
                <polygon id="Shape" fill="#7A361D" points="2.72 2.81 3.48 4.48 2.84 2.76"></polygon>
                <path d="M2.88,3.68 C2.88,4.05 3.09,4.25 3.06,4.58 C3.06126577,4.81017665 3.12709433,5.03537963 3.25,5.23 C3.25,5.36 3.25,5.43 3.25,5.45 C3.25,5.47 3.37,5.37 3.34,5.18 C3.31,4.99 3.17,4.94 3.21,4.54 C3.25,4.14 3.05,4.04 3.09,3.68 L2.88,3.68 Z" id="Shape" fill="#F1BD51"></path>
                <path d="M3.24,5.46 C3.24,5.46 3.24,5.46 3.24,5.4 C3.26074166,5.34523135 3.26074166,5.28476865 3.24,5.23 C3.22343889,5.18837101 3.20336652,5.14822628 3.18,5.11 C3.07996626,4.95192286 3.03108097,4.76685711 3.04,4.58 C3.04751437,4.43237023 3.02010582,4.28504926 2.96,4.15 C2.89394228,4.00212302 2.85986515,3.84196051 2.86,3.68 C2.86125807,3.83858836 2.89530459,3.99520237 2.96,4.14 C3.02511096,4.27724034 3.05599231,4.42821582 3.05,4.58 C3.0375278,4.76269518 3.08302092,4.94466764 3.18,5.1 C3.20540739,5.13705981 3.22559659,5.17743821 3.24,5.22 C3.26234923,5.2779188 3.26234923,5.3420812 3.24,5.4 C3.24,5.4 3.24,5.4 3.24,5.4 C3.31795057,5.33827271 3.34976649,5.234871 3.32,5.14 C3.31284725,5.08414674 3.29592255,5.02998769 3.27,4.98 C3.19712485,4.83121547 3.16931849,4.66437731 3.19,4.5 C3.20005173,4.34993549 3.17612461,4.19953646 3.12,4.06 C3.06903721,3.92624468 3.05186302,3.78198148 3.07,3.64 C3.06468529,3.78329356 3.08849898,3.92617573 3.14,4.06 C3.19423446,4.20341651 3.21476343,4.35738377 3.2,4.51 C3.1781111,4.67439927 3.2059756,4.84158627 3.28,4.99 C3.30778995,5.04007845 3.32800934,5.09399682 3.34,5.15 C3.36348314,5.24442878 3.34126633,5.34440444 3.28,5.42 L3.24,5.46 Z" id="Shape" fill="#7A361D"></path>
                <path d="M2.95,3.74 C2.95,4.09 3.17,4.25 3.13,4.57 C3.22,4.31 3.01,4.12 3.02,3.74 L2.95,3.74 Z" id="Shape" fill="#7A361D"></path>
                <path d="M2.78,1.7 C3.22176986,1.70001859 3.61984143,1.96668358 3.78794998,2.3752177 C3.95605853,2.78375182 3.86095521,3.25335437 3.54714055,3.56429 C3.23332588,3.87522562 2.76286677,3.96599687 2.35589936,3.79413025 C1.94893195,3.62226363 1.68594707,3.22175127 1.69,2.78 C1.68998765,2.49182513 1.80514472,2.2155965 2.00985199,2.01276728 C2.21455925,1.80993807 2.49183748,1.69733171 2.78,1.7 Z" id="Shape" fill="#F1BD51"></path>
                <path d="M2.78,3.88 C2.17248678,3.88 1.68,3.38751322 1.68,2.78 C1.68,2.17248678 2.17248678,1.68 2.78,1.68 C3.38751322,1.68 3.88,2.17248678 3.88,2.78 C3.88,3.07173814 3.76410748,3.35152744 3.55781746,3.55781746 C3.35152744,3.76410748 3.07173814,3.88 2.78,3.88 Z M2.78,1.71 C2.34318078,1.71 1.94937359,1.97313355 1.7822101,2.37670189 C1.61504662,2.78027023 1.70744684,3.24479749 2.01632468,3.55367532 C2.32520251,3.86255316 2.78972977,3.95495338 3.19329811,3.7877899 C3.59686645,3.62062641 3.86,3.22681922 3.86,2.79 C3.86,2.19353247 3.37646753,1.71 2.78,1.71 Z" id="Shape" fill="#7A361D"></path>
                <path d="M3.47,2.55 C3.3208669,2.39202499 3.07875785,2.36653983 2.9,2.49 C2.7962842,2.61833093 2.7962842,2.80166907 2.9,2.93 C2.83367916,2.78035214 2.83367916,2.60964786 2.9,2.46 C2.98900404,2.37895339 3.10912781,2.34111486 3.22851362,2.35651948 C3.34789942,2.3719241 3.45448388,2.4390153 3.52,2.54 L3.47,2.55 Z" id="Shape" fill="#7A361D"></path>
                <path d="M3.17,2.5 C3.09905425,2.49106936 3.02819395,2.51717578 2.98,2.57 C2.93,2.57 2.9,2.57 2.89,2.57 C2.88,2.57 2.89,2.57 2.89,2.57 L2.99,2.5 C3.03829502,2.48153394 3.09170498,2.48153394 3.14,2.5 C3.29,2.5 3.37,2.63 3.39,2.62 C3.41,2.61 3.3,2.48 3.14,2.48 L3.17,2.5 Z" id="Shape" fill="#7A361D"></path>
                <path d="M3.36,2.65 C3.31255081,2.59085718 3.24082413,2.55644488 3.165,2.55644488 C3.08917587,2.55644488 3.01744919,2.59085718 2.97,2.65 C3.05,2.52 3.26,2.57 3.27,2.65 L3.36,2.65 Z" id="Shape" fill="#7A361D"></path>
                <path d="M3.15,2.56 C3.19418278,2.56 3.23,2.59581722 3.23,2.64 C3.23,2.68418278 3.19418278,2.72 3.15,2.72 C3.10581722,2.72 3.07,2.68418278 3.07,2.64 C3.07,2.59581722 3.10581722,2.56 3.15,2.56 Z" id="Shape" fill="#7A361D"></path>
                <path d="M3,2.65 C3.11707885,2.73196948 3.27292115,2.73196948 3.39,2.65 L3.3,2.65 C3.21550534,2.72875364 3.08449466,2.72875364 3,2.65 Z" id="Shape" fill="#7A361D"></path>
                <path d="M3.37,2.69 C3.2688567,2.78154107 3.12181262,2.80141189 3,2.74 C2.92,2.69 2.92,2.67 2.93,2.67 L3.03,2.67 C3.13539276,2.71502427 3.25460724,2.71502427 3.36,2.67 L3.37,2.69 Z" id="Shape" fill="#7A361D"></path>
                <path d="M3,2.94 C2.97853087,2.9813633 2.9365631,3.00807007 2.89,3.01 C2.92257948,3.02002564 2.95742052,3.02002564 2.99,3.01 C3.02085042,3.039207 3.06914958,3.039207 3.1,3.01 C3.07318113,2.98353273 3.03152885,2.97936751 3,3 L3,2.94 Z" id="Shape" fill="#7A361D"></path>
                <path d="M3.05,3.29 C2.98,3.29 2.94,3.17 2.86,3.17 L2.78,3.17 C2.78,3.17 2.86,3.17 2.92,3.17 L3.05,3.25 L3.05,3.29 Z" id="Shape" fill="#7A361D"></path>
                <path d="M3,3.29 C2.91833936,3.26638722 2.83166064,3.26638722 2.75,3.29 C2.81,3.29 2.85,3.24 3,3.29 Z" id="Shape" fill="#7A361D"></path>
                <path d="M3.05,3.29 C2.87,3.29 2.93,3.38 2.78,3.38 C2.96,3.38 2.88,3.28 3.05,3.26 L3.05,3.29 Z" id="Shape" fill="#7A361D"></path>
                <path d="M2.93,3.56 C2.93,3.47715729 2.86284271,3.41 2.78,3.41 C2.69715729,3.41 2.63,3.47715729 2.63,3.56 C2.63928982,3.51941414 2.66503067,3.48451535 2.70106311,3.46365447 C2.73709555,3.44279358 2.78017749,3.43784759 2.82,3.45 C2.87814788,3.45988485 2.92510565,3.50292948 2.94,3.56 L2.93,3.56 Z" id="Shape" fill="#7A361D"></path>
                <path d="M2.09,2.55 C2.2370312,2.38783089 2.48242469,2.362 2.66,2.49 C2.7637158,2.61833093 2.7637158,2.80166907 2.66,2.93 C2.72759678,2.78062481 2.72759678,2.60937519 2.66,2.46 C2.57255795,2.37544353 2.45139138,2.33527006 2.33075307,2.35083629 C2.21011476,2.36640252 2.10311436,2.4360169 2.04,2.54 L2.09,2.55 Z" id="Shape" fill="#7A361D"></path>
                <path d="M2.4,2.5 C2.4673646,2.49579157 2.53317764,2.52138553 2.58,2.57 C2.58,2.57 2.65,2.57 2.66,2.57 C2.67,2.57 2.66,2.57 2.66,2.57 L2.56,2.5 C2.51170498,2.48153394 2.45829502,2.48153394 2.41,2.5 C2.26,2.5 2.18,2.63 2.16,2.62 C2.14,2.61 2.24,2.48 2.41,2.48 L2.4,2.5 Z" id="Shape" fill="#7A361D"></path>
                <path d="M2.2,2.65 C2.24744919,2.59085718 2.31917587,2.55644488 2.395,2.55644488 C2.47082413,2.55644488 2.54255081,2.59085718 2.59,2.65 C2.51,2.52 2.31,2.57 2.29,2.65 L2.2,2.65 Z" id="Shape" fill="#7A361D"></path>
                <path d="M2.41,2.56 C2.36581722,2.56 2.33,2.59581722 2.33,2.64 C2.33,2.68418278 2.36581722,2.72 2.41,2.72 C2.43043515,2.72020976 2.44994152,2.71147884 2.46339887,2.69609901 C2.47685622,2.68071918 2.48292054,2.66022646 2.48,2.64 C2.48031794,2.599445 2.45023831,2.56506829 2.41,2.56 Z" id="Shape" fill="#7A361D"></path>
                <path d="M2.6,2.65 C2.48292115,2.73196948 2.32707885,2.73196948 2.21,2.65 L2.27,2.65 C2.35449466,2.72875364 2.48550534,2.72875364 2.57,2.65 L2.6,2.65 Z" id="Shape" fill="#7A361D"></path>
                <path d="M2.19,2.69 C2.2911433,2.78154107 2.43818738,2.80141189 2.56,2.74 C2.64,2.69 2.64,2.67 2.63,2.67 L2.53,2.67 C2.42147928,2.71670886 2.29852072,2.71670886 2.19,2.67 L2.19,2.69 Z" id="Shape" fill="#7A361D"></path>
                <path d="M2.61,2.94 C2.63146913,2.9813633 2.6734369,3.00807007 2.72,3.01 C2.68733574,3.01944511 2.65266426,3.01944511 2.62,3.01 C2.60683377,3.02343772 2.58881281,3.03101021 2.57,3.03101021 C2.55118719,3.03101021 2.53316623,3.02343772 2.52,3.01 C2.490793,2.97914958 2.490793,2.93085042 2.52,2.9 L2.57,2.9 L2.61,2.94 Z" id="Shape" fill="#7A361D"></path>
                <path d="M2.5,3.29 C2.58,3.29 2.61,3.17 2.69,3.17 L2.77,3.17 C2.77,3.17 2.69,3.17 2.63,3.17 L2.5,3.25 L2.5,3.29 Z" id="Shape" fill="#7A361D"></path>
                <path d="M2.53,3.29 C2.61166064,3.26638722 2.69833936,3.26638722 2.78,3.29 C2.71,3.29 2.68,3.24 2.53,3.29 Z" id="Shape" fill="#7A361D"></path>
                <path d="M2.5,3.29 C2.69,3.29 2.63,3.38 2.78,3.38 C2.6,3.38 2.68,3.28 2.5,3.26 L2.5,3.29 Z" id="Shape" fill="#7A361D"></path>
                <path d="M2.63,3.56 C2.63,3.47715729 2.69715729,3.41 2.78,3.41 C2.86284271,3.41 2.93,3.47715729 2.93,3.56 C2.92071018,3.51941414 2.89496933,3.48451535 2.85893689,3.46365447 C2.82290445,3.44279358 2.77982251,3.43784759 2.74,3.45 C2.68185212,3.45988485 2.63489435,3.50292948 2.62,3.56 L2.63,3.56 Z" id="Shape" fill="#7A361D"></path>
            </g>
        </g>
    </g>
</svg>