<?xml version="1.0" encoding="UTF-8"?>
<svg width="34px" height="20px" viewBox="0 0 34 20" version="1.1" xmlns="http://www.w3.org/2000/svg" xmlns:xlink="http://www.w3.org/1999/xlink">
    <!-- Generator: Sketch 49 (51002) - http://www.bohemiancoding.com/sketch -->
    <title>AUD</title>
    <desc>Created with Sketch.</desc>
    <defs></defs>
    <g id="Page-1" stroke="none" stroke-width="1" fill="none" fill-rule="evenodd">
        <g id="AUD" fill-rule="nonzero">
            <rect id="Rectangle-path" fill="#180087" x="0" y="0" width="33.56" height="19.58"></rect>
            <polygon id="Shape" fill="#FFFFFF" points="8.83 11.99 9.34 13.59 10.9 12.99 9.98 14.38 11.41 15.23 9.75 15.38 9.98 17.03 8.83 15.82 7.68 17.03 7.91 15.38 6.25 15.23 7.68 14.38 6.76 12.99 8.32 13.59"></polygon>
            <polygon id="Shape" fill="#FFFFFF" points="26.48 14.86 26.73 15.61 27.48 15.33 27.04 15.99 27.72 16.4 26.92 16.47 27.04 17.25 26.48 16.68 25.94 17.25 26.05 16.47 25.26 16.4 25.94 15.99 25.5 15.33 26.25 15.61"></polygon>
            <polygon id="Shape" fill="#FFFFFF" points="22.07 7.87 22.32 8.62 23.06 8.34 22.62 9 23.3 9.41 22.51 9.47 22.62 10.26 22.07 9.69 21.52 10.26 21.64 9.47 20.84 9.41 21.52 9 21.09 8.34 21.83 8.62"></polygon>
            <polygon id="Shape" fill="#FFFFFF" points="26.48 3.08 26.73 3.84 27.48 3.56 27.04 4.22 27.72 4.63 26.92 4.69 27.04 5.48 26.48 4.91 25.94 5.48 26.05 4.69 25.26 4.63 25.94 4.22 25.5 3.56 26.25 3.84"></polygon>
            <polygon id="Shape" fill="#FFFFFF" points="30.41 6.69 30.65 7.44 31.4 7.16 30.96 7.83 31.64 8.23 30.85 8.3 30.96 9.09 30.41 8.51 29.87 9.09 29.98 8.3 29.18 8.23 29.87 7.83 29.43 7.16 30.17 7.44"></polygon>
            <polygon id="Shape" fill="#FFFFFF" points="28.25 10.23 28.45 10.7 28.95 10.74 28.57 11.07 28.68 11.56 28.25 11.29 27.82 11.56 27.94 11.07 27.55 10.74 28.06 10.7"></polygon>
            <polygon id="Shape" fill="#FFFFFF" points="7.36 0 7.36 2.94 0 2.94 0 5.89 7.36 5.89 7.36 8.83 10.3 8.83 10.3 5.89 17.66 5.89 17.66 2.94 10.3 2.94 10.3 0"></polygon>
            <polygon id="Shape" fill="#FFFFFF" points="0 0 0 0.99 15.69 8.83 17.66 8.83 17.66 7.84 1.98 0"></polygon>
            <polygon id="Shape" fill="#FFFFFF" points="15.69 0 0 7.84 0 8.83 1.98 8.83 17.66 0.99 17.66 0"></polygon>
            <polygon id="Shape" fill="#EA0020" points="7.95 0 7.95 3.53 0 3.53 0 5.3 7.95 5.3 7.95 8.83 9.71 8.83 9.71 5.3 17.66 5.3 17.66 3.53 9.71 3.53 9.71 0"></polygon>
            <path d="M0,0 L0,0.66 L4.57,2.94 L5.89,2.94 L0,0 Z M16.34,0 L10.46,2.94 L11.78,2.94 L17.66,0 L16.34,0 Z" id="Shape" fill="#EA0020"></path>
            <path d="M5.89,5.89 L0,8.83 L1.32,8.83 L7.2,5.89 L5.89,5.89 Z M11.78,5.89 L17.67,8.83 L17.67,8.17 L13.09,5.89 L11.78,5.89 Z" id="Shape" fill="#EA0020"></path>
        </g>
    </g>
</svg>