<svg id="Layer_1" data-name="Layer 1" xmlns="http://www.w3.org/2000/svg" viewBox="0 0 200 200"><defs><style>.cls-1{fill:#cc2229;}.cls-2{fill:#fff;}</style></defs><title>AVGO</title><circle class="cls-1" cx="100" cy="100" r="100"/><path class="cls-2" d="M192,132.64H179.67c-5.18,0-11.66-6.89-20.26-6.81-12.58.14-18.94,12-31,11.83-8.21-.08-10-3.48-18.91-38.09a.21.21,0,0,0-.2-.16H103.8c8.22,33.1,10.87,44,24.51,44.18s17.74-11.71,31-11.71c7.68,0,13.51,6.54,20.51,6.54H192v-5.78Zm-184,0h9.53c5.15,0,11.66-6.89,20.26-6.81,12.58.14,18.94,12,31,11.83,8.21-.08,9.57-5.15,18.59-38.26h6c-8.22,33.1-10.79,44-24.43,44.18S51.2,131.88,38,131.88c-7.68,0-13.51,6.54-20.54,6.54H8v-5.78ZM109.48,99.41h-5.79L99.91,67.24c-.19-1.63-1.05-1.51-1.05-1.51s-.86-.12-1.07,1.51c0,0-4.31,32.16-4.42,32.16H87.42c-.13,0,4.11-34.94,4.11-34.94,1.24-8.4,7.3-8.05,7.3-8.05s6.06-.39,7.28,8.05l3.37,34.94Z"/><polygon class="cls-1" points="99.87 100.06 99.87 100.06 99.87 100.06 99.87 100.06 99.87 100.06 99.87 100.06 99.87 100.06 100.13 99.94 99.87 100.06"/></svg>