<?xml version="1.0" encoding="utf-8"?>
<!-- Generator: Adobe Illustrator 21.0.0, SVG Export Plug-In . SVG Version: 6.00 Build 0)  -->
<svg version="1.1" id="Layer_1" xmlns="http://www.w3.org/2000/svg" xmlns:xlink="http://www.w3.org/1999/xlink" x="0px" y="0px"
	 viewBox="0 0 200 200" style="enable-background:new 0 0 200 200;" xml:space="preserve">
<style type="text/css">
	.st0{fill:#1D439C;}
	.st1{fill:#FFFFFF;}
</style>
<rect class="st0" width="200" height="200"/>
<g id="g49099">
	<g id="g49105" transform="translate(717.83569,765.202)">
		<path id="path49107" class="st1" d="M-644-634.1c-8.3,0-16.1-2.9-22.2-7.7c7.1-16.1,21.6-37.6,41.3-58.6
			c10,6.4,16.7,17.5,16.7,30.3c0,5.5-1.2,10.7-3.4,15.3c-6.3-2.9-12.1-6.5-17.1-11.1l10.9,20.2C-624.4-638.3-633.7-634.1-644-634.1
			 M-679.9-670c0-19.8,16.1-35.8,35.8-35.8c5.3,0,10.4,1.1,14.9,3.3c-19.4,17.2-34.5,37.2-43.5,54.5
			C-677.1-654.2-679.9-661.7-679.9-670 M-607.1-652.7c2.5-5.3,3.8-11,3.8-17.2c0-14.1-7.3-26.6-18.2-34c6.5-6.7,13.6-13.4,21.1-19.8
			c-8.8,5.2-17.2,11.2-24.8,17.5c-5.6-2.9-12.1-4.7-18.9-4.7c-22.5,0-40.8,18.3-40.8,40.8c0,10.1,3.7,19.4,10,26.6
			c-7.7,16.8-9.1,30.4-2.4,35c7.4,4.8,23.4-4,33-18.4c0,0-14.9,13.4-23.1,10.4c-5.1-1.9-5.1-9.5-0.9-20.7c6.7,4.9,15,7.9,24.1,7.9
			c11.2,0,21.3-4.5,28.6-11.8l1.6,2.8c17.7-1.6,71-2.9,71-2.9C-543.1-643.6-578.2-641.3-607.1-652.7"/>
	</g>
</g>
</svg>
