<?xml version="1.0" encoding="utf-8"?>
<!-- Generator: Adobe Illustrator 21.0.0, SVG Export Plug-In . SVG Version: 6.00 Build 0)  -->
<svg version="1.1" id="Layer_1" xmlns="http://www.w3.org/2000/svg" xmlns:xlink="http://www.w3.org/1999/xlink" x="0px" y="0px"
	 viewBox="0 0 200 200" style="enable-background:new 0 0 200 200;" xml:space="preserve">
<style type="text/css">
	.st0{fill:#FF6600;}
	.st1{fill:#FFFFFF;}
</style>
<title>BABA</title>
<rect class="st0" width="200" height="200"/>
<path id="Fill-13" d="M47.6,138c-1.1-0.3-2.1-0.8-3-1.5c-8.6-8.4,2.4-18,15.1-23.6V97c3,1.9,4.6,2,4.6,2.2l9.7-9.6l-3.2-8.3
	c28.5-9.8,39.9-13.6,63-17.5l-4.1-3.9l6.8-3.9c15.6,5.1,30.3,6.5,27.7,19.5c0.6-8.8-10.4-12.2-27.1-16.9l-3.2,2l6.2,5.1
	C112.4,70.6,95.4,76,75.2,83l2.8,7.2l-10.2,10c1.7,0.5,19.4,6.4,37.9-6.5c0,0,0.4-0.3,0.4-0.4c-0.5-0.9-1.8-1.9-3.3-3.2
	c4.9,0.3,8.6,4.5,8.3,9.4c0,0.2,0,0.4-0.1,0.6h-2.5c0.1-1.5-0.1-3.1-0.7-4.5c-14.3,10.4-30.9,12-45,7v12.4c-6.8,2.4-19.1,10-19,17.3
	C43.9,134.8,45.4,137,47.6,138"/>
<path id="Fill-14" class="st1" d="M105.5,134.9c-15.3,7.7-30,13.9-52.6,14.9c-29.4-0.6-34-20.2-20.1-40.6
	c13.1-20.6,34-39.3,67.3-50.9c9.6-3.4,23.8-7.3,37.5-7.5c19.6-0.2,38.7,5.9,37.5,24.8c-0.7,14.4-21.5,34.8-32.5,49.3
	c-4.7,6.4-5.5,10.5,2.5,10.2c29.1-1.9-22.2,31.2-22.6,2.3c0.1-3.7,1.8-7.6,4.6-11.7c2.8-4.1,6.5-8.5,10.4-12.9
	c5.9-6.7,20.3-22.6,25.2-32.1c8.2-18.1-10.2-19-26-24.6l-6.7,3.9l4.1,3.9c-23.2,3.9-34.6,7.6-63,17.4l3.2,8.3l-9.7,9.7
	c-0.3-0.3-1.7-0.4-4.7-2.2v15.9c-12.7,5.6-23.7,15.2-15.1,23.6c0.9,0.7,1.9,1.3,3,1.5C63.2,146.8,105.6,134.9,105.5,134.9"/>
</svg>
