<?xml version="1.0" encoding="utf-8"?>
<!-- Generator: Adobe Illustrator 21.0.0, SVG Export Plug-In . SVG Version: 6.00 Build 0)  -->
<svg version="1.1" id="Layer_1" xmlns="http://www.w3.org/2000/svg" xmlns:xlink="http://www.w3.org/1999/xlink" x="0px" y="0px"
	 viewBox="0 0 200 200" style="enable-background:new 0 0 200 200;" xml:space="preserve">
<style type="text/css">
	.st0{fill:#0067B1;}
	.st1{fill:#FFFFFF;}
</style>
<title>BAC</title>
<rect class="st0" width="200" height="200"/>
<path class="st1" d="M95,58.6c-0.1,0.1-0.3,0.1-0.5,0.1c-0.3,0-0.6,0.1-0.9,0.2L93,59.1c-0.5,0.1-0.7,0.1-1.9,0.4
	c-1.6,0.4-1.6,0.4-1.9,0.4c-0.1,0-0.3,0.1-0.4,0.1l-0.4,0.1l-0.7,0.2c-0.2,0.1-0.5,0.1-0.7,0.1c-0.1,0-0.2,0-0.3,0.1
	c-0.1,0.1-0.2,0.1-0.3,0.1c-0.1,0-0.3,0-0.4,0.1c-0.4,0.1-0.8,0.2-1.1,0.3c-0.1,0-0.2,0.1-0.3,0.1c-0.1,0-0.2,0.1-0.3,0.1
	c-0.3,0.1-0.7,0.1-1,0.2c-0.2,0.1-0.4,0.1-0.4,0s-0.1,0-0.1,0.1c0,0.1,0.2,0.2,0.6,0.3c0.2,0.1,1.2,0.4,1.7,0.5l1.2,0.4l0.9,0.3
	l0.3,0.1c0.1,0,0.9,0.3,1.7,0.6s1.7,0.6,1.8,0.6c0.2,0,0.4,0.1,0.5,0.2l0.4,0.1l1.1,0.4l1,0.4c0.1,0,0.3,0.1,0.4,0.1
	c0.1,0.1,0.9,0.3,1.5,0.5c0.8,0.2,1.6,0.5,2.4,0.9c0.1,0.1,0.2,0.1,0.3,0.1c0.1,0,0.3,0,0.4,0.1c0.1,0.1,0.7,0.3,1.4,0.5L102,68
	c0.5,0.2,0.7,0.3,1.3,0.5c0.3,0.1,0.5,0.2,0.7,0.3c0.1,0.1,0.2,0.1,0.3,0.1c0.1,0,0.2,0,0.3,0.1c0.2,0.1,0.4,0.2,0.7,0.3
	c1.8,0.7,2.1,0.8,2.4,0.9c0.3,0.1,0.9,0.4,1.6,0.7c0.8,0.3,1.5,0.6,1.8,0.8L112,72l0.8,0.3c2.6,1.1,3.4,1.5,3.6,1.5l0.7,0.3l1.2,0.5
	l1.5,0.7c1.7,0.8,1.6,0.8,2.2,0.6l2.5-0.7l1.1-0.3c0.1,0,0.1,0,0.2-0.1c0,0,0.1,0,0.2-0.1l0.7-0.2c1.2-0.4,4.6-1.3,5.3-1.5l1.1-0.3
	c0.5-0.1,1.1-0.3,1.2-0.3s0.3-0.1,0.3-0.1c-0.1-0.1-0.3-0.2-0.5-0.3c-0.3-0.1-0.7-0.3-1-0.4c-0.9-0.4-3.7-1.6-5.5-2.3l-1.9-0.8
	c-0.1-0.1-0.7-0.3-1.4-0.5l-1.4-0.5c-0.4-0.2-2.4-0.9-2.5-0.9c-0.2-0.1-0.3-0.1-0.4-0.2c-0.2-0.1-0.4-0.1-0.6-0.2
	c-0.1,0-0.3-0.1-0.4-0.1c-0.1-0.1-0.4-0.2-0.7-0.3c-0.4-0.1-1.2-0.4-1.6-0.6c-0.3-0.2-0.7-0.3-1.1-0.4c0,0-0.1,0-0.1,0
	c-0.2-0.1-0.4-0.2-0.6-0.2c-0.2-0.1-0.5-0.2-0.6-0.2s-2.9-1-3.1-1.1l-2.8-0.9c-1.5-0.5-2.7-0.9-2.7-0.9s-0.3-0.1-0.6-0.2
	c-0.2-0.1-0.4-0.2-0.7-0.2c-0.1,0-0.3-0.1-0.4-0.1c-0.1-0.1-0.3-0.1-0.4-0.1l-1-0.3l-1-0.3l-0.2-0.1c-0.1-0.1-0.3-0.1-0.4-0.1
	l-0.4-0.2l-0.3-0.1c-0.1,0-0.4-0.1-0.7-0.2c-0.2-0.1-0.3-0.1-0.5-0.1c0,0-0.1,0-0.2,0c-0.6-0.2-1.1-0.4-1.7-0.5
	c-0.1,0-0.5-0.1-0.9-0.2C95.3,58.6,95.1,58.6,95,58.6z"/>
<path class="st1" d="M75,63.6c-0.3,0.1-0.6,0.2-0.7,0.2c-0.2,0.1-0.4,0.1-0.6,0.2c-0.2,0-0.5,0.1-0.7,0.2c-0.1,0-0.2,0.1-0.3,0.1
	c-0.4,0.1-6.1,1.9-7.8,2.5c-0.3,0.1-0.6,0.2-0.9,0.2c0,0-0.1,0-0.2,0.1c-0.3,0.2-0.7,0.3-1.1,0.4l-0.9,0.2l0.4,0.1
	c0.2,0.1,0.3,0.1,0.5,0.2c0.1,0,0.4,0.1,0.7,0.2c0.3,0.1,0.6,0.2,0.7,0.2c0.2,0,0.4,0.1,0.6,0.2c0.1,0.1,0.3,0.1,0.4,0.1l0.2,0.1
	l0.5,0.2c0.8,0.2,5.1,1.6,5.3,1.7c0.2,0.1,0.4,0.2,0.6,0.2c0.2,0.1,0.4,0.1,0.6,0.2c0.1,0.1,0.4,0.2,0.7,0.2
	c1.4,0.4,4.7,1.6,5.2,1.8c0.1,0.1,0.5,0.2,0.9,0.4c0.4,0.1,0.9,0.3,1,0.4l0.4,0.2c0.2,0.1,2.9,1.1,3,1.2c0,0,0.1,0.1,0.2,0.1
	c0.1,0,1.7,0.6,2,0.8l1.2,0.5l1.3,0.5c0.7,0.3,1.4,0.6,2.1,0.8c0,0,0.1,0,0.1,0.1c0,0.1,0.1,0.1,0.1,0.1c0,0,0,0,0,0
	c0.4,0.1,0.9,0.3,1.2,0.5c0.1,0.1,0.2,0.1,0.3,0.1c0.4,0.1,0.8,0.3,1.2,0.5c0.6,0.3,1.1,0.5,1.2,0.5c0,0,0.4,0.2,0.9,0.4
	c0.5,0.2,0.8,0.4,0.9,0.4c0.1,0,0.6,0.3,1.4,0.6s1.3,0.6,1.4,0.6c0,0,0.6,0.3,1.3,0.6c1.2,0.6,1.2,0.6,1.7,0.4
	c0.2,0,0.4-0.1,0.6-0.2c0.2-0.1,0.4-0.2,0.7-0.3c0.2-0.1,0.5-0.2,0.7-0.2c0.1,0,0.1-0.1,0.2-0.1c0.1,0,0.8-0.3,1.7-0.6
	c0.9-0.3,2.3-0.9,3.2-1.2s1.7-0.6,1.8-0.6l0.3-0.1l0.9-0.3l1.3-0.4c0.3-0.1,0.6-0.2,0.8-0.3l0.3-0.1l-0.6-0.2
	c-0.2-0.1-0.4-0.2-0.6-0.3c0-0.1,0-0.1-0.1-0.1c-0.9-0.3-1.8-0.7-2.6-1.2c-0.7-0.3-1.5-0.7-1.8-0.9c-0.3-0.2-1-0.4-1.5-0.7
	s-0.9-0.4-1-0.4s-0.3-0.1-0.7-0.3c-0.3-0.2-0.7-0.3-1-0.4c-0.2,0-0.3-0.1-0.5-0.2c-0.1,0-0.6-0.3-1.3-0.6l-1.7-0.7
	c-0.2-0.1-0.4-0.2-0.6-0.3c-0.1,0-1.9-0.8-2.5-1C97.4,71,97.2,71,97,70.9c-0.1,0-0.5-0.2-0.8-0.3c-0.7-0.3-2.2-0.9-2.3-0.9
	c-0.1,0-0.3-0.1-0.4-0.1c-0.5-0.2-3.1-1.2-3.1-1.2c-0.1,0-0.2-0.1-0.4-0.1c-0.2-0.1-0.5-0.2-0.7-0.2c-0.1,0-0.3-0.1-0.4-0.2
	c-0.1-0.1-0.3-0.2-0.5-0.2l-1.2-0.4l-1.5-0.5l-0.9-0.3l-0.3-0.1c-0.1,0-0.3-0.1-0.4-0.1c-0.2-0.1-0.4-0.2-0.6-0.2
	c-0.2-0.1-0.4-0.1-0.6-0.2c-0.3-0.1-3.4-1.2-3.6-1.2s-0.9-0.2-1.7-0.5C75.9,63.4,75.7,63.4,75,63.6z"/>
<path class="st1" d="M60.4,73.6l-2.6,0.9c-0.2,0.1-6.2,2.2-6.8,2.4L50,77.3l-1.2,0.5c-0.2,0.1-1,0.4-1.8,0.7L45,79.3
	c-0.2,0.1-0.3,0.2-0.5,0.2c-0.1,0-0.3,0.1-0.6,0.3c-0.2,0.1-0.4,0.2-0.6,0.2l-0.4,0.2c-0.2,0.1-0.3,0.1-0.5,0.2
	c-0.1,0-0.2,0.1-0.4,0.2c-0.1,0.1-0.2,0.1-0.3,0.1c-0.1,0-2.9,1.2-3.2,1.3c-0.1,0.1-0.2,0.1-0.3,0.1c-0.1,0-0.2,0.1-2.7,1.2
	c-1,0.5-1.9,0.9-2,0.9s-0.1,0-0.1,0.1c0,0.1-0.2,0.2-0.9,0.5c-0.2,0.1-0.3,0.1-0.4,0.2C32.1,85,32.1,85,32,85
	c-0.1,0-0.7,0.3-1.5,0.7c-0.8,0.4-1.4,0.7-1.4,0.7l-0.9,0.4c-2.3,1.2-4.1,2.1-4.1,2c0-0.1-0.1,0-0.2,0.1c-0.2,0.2-0.5,0.3-0.7,0.4
	c-0.2,0.1-0.4,0.2-0.6,0.3c0,0-0.4,0.2-0.9,0.5c-0.4,0.2-0.9,0.4-0.9,0.5c-0.2,0.1-0.3,0.2-0.5,0.3c-0.2,0.1-0.3,0.1-0.5,0.2
	c-0.3,0.2-0.6,0.4-1,0.5l-0.9,0.5l0.3,0.1c0.1,0.1,0.3,0.1,0.4,0.2c0.1,0,0.4,0.2,0.7,0.3c0.1,0.1,0.8,0.3,1.4,0.5s1.4,0.5,1.6,0.6
	c0.6,0.2,1,0.4,1.1,0.4l0.1,0.1l0.1,0.1c0.1,0,0.5,0.2,0.7,0.3c0.7,0.3,1.3,0.5,2,0.7c0.1,0,0.1,0,0.1,0.1c0,0.1,0.2,0.1,0.4,0.2
	c0.2,0.1,1.3,0.5,2.5,1l2,0.9l0.9-0.5c0.3-0.2,0.6-0.3,0.9-0.5c0,0,0.1,0,0.1-0.1c0,0,0.1-0.1,0.3-0.2s0.5-0.2,0.7-0.4
	c1-0.6,1.3-0.7,1.6-0.9l0.5-0.3c0.1-0.1,0.7-0.4,1.4-0.8c0.6-0.3,1.2-0.6,1.7-0.9c0.2-0.1,0.3-0.2,0.5-0.3c0.3-0.1,0.8-0.4,1.2-0.6
	c1-0.6,2.9-1.5,3-1.5c0.1,0,0.1,0,0.2-0.1c1.4-0.8,2.8-1.5,4.3-2.2c0,0,0,0,0.1,0c0.4-0.2,0.7-0.4,1.1-0.6l2.2-1
	c1-0.5,2.3-1.1,2.5-1.2c0.1,0,0.6-0.3,1.3-0.6c0.9-0.4,1.9-0.9,2-0.9c0.1,0,0.1-0.1,0.2-0.1c0.1-0.1,0.2-0.1,0.4-0.1
	c0.1,0,0.2-0.1,0.3-0.1c0-0.1,0.1-0.1,0.1-0.1c0.1,0,1.5-0.6,3.2-1.3l3.5-1.5l0.6-0.2c0.9-0.4,4-1.6,4.3-1.7
	c0.2-0.1,0.4-0.1,0.5-0.2c0.3-0.1,1-0.4,1.8-0.7c0.4-0.2,0.9-0.3,1-0.4c0.4-0.2,0.9-0.4,1-0.4c0.1,0,0.3-0.1,0.4-0.1l0.4-0.1
	l-1.3-0.5c-0.7-0.3-1.9-0.7-2.6-0.9L70.3,75l-0.3-0.1l-1.5-0.5c-0.8-0.3-1.5-0.5-1.6-0.5c-0.1,0-1.5-0.5-1.8-0.6
	c-0.6-0.2-1.2-0.4-1.8-0.5C63.1,72.7,61.8,73.1,60.4,73.6z"/>
<path class="st1" d="M144.8,73c-0.1,0.1-0.2,0.1-0.3,0.1c-0.4,0.1-0.8,0.2-1.2,0.3c-0.3,0.1-0.7,0.2-0.8,0.2c-0.1,0-0.5,0.1-0.9,0.2
	l-1.1,0.3c-0.2,0.1-1.1,0.3-1.8,0.5l-2.7,0.8c-0.7,0.2-2,0.6-2.8,0.9l-2.1,0.6c-0.3,0.1-0.6,0.2-0.7,0.2c-0.1,0.1-3.2,1.1-3.4,1.1
	c-0.3,0.1-0.5,0.2-0.8,0.3c-0.3,0.1-3.9,1.4-4.1,1.4c-0.1,0-0.3,0.1-0.4,0.1c-0.1,0.1-0.2,0.1-0.3,0.1l-0.3,0.1
	c-0.1,0-0.2,0.1-0.3,0.1c-0.1,0-0.3,0.1-0.4,0.2c-0.2,0.1-0.3,0.1-0.5,0.2c-0.2,0-0.3,0.1-0.4,0.1c-0.3,0.1-2.3,0.9-2.5,0.9
	c-0.1,0-0.3,0.1-0.4,0.1l-1,0.4c-0.3,0.1-0.5,0.2-0.8,0.3c-0.2,0.1-0.3,0.1-0.5,0.2c-0.2,0.1-0.5,0.2-0.7,0.2l-0.3,0.1l-0.4,0.1
	l-0.9,0.3l-1,0.4l-3.4,1.4c-1.6,0.7-3,1.2-3.1,1.2s-0.1,0-0.1,0.1s-0.1,0.1-0.2,0.1c-0.1,0-0.2,0-0.3,0.1c0,0-0.1,0.1-0.1,0.1
	c-0.6,0.2-1.3,0.5-1.9,0.8l-0.6,0.2c-0.2,0.1-0.9,0.4-2.1,0.9c-0.5,0.2-0.9,0.4-0.9,0.4c-0.2,0.1-0.4,0.2-0.7,0.3
	C97.3,89.9,97,90,97,90l-0.6,0.2l-1.3,0.6l-1.4,0.6c-0.2,0.1-0.4,0.2-0.6,0.3l-1,0.4c-0.3,0.2-0.7,0.3-1,0.4c-0.1,0-0.1,0-0.1,0.1
	c0,0,0,0,0,0c0,0.1,0,0.1-0.1,0.1c-0.5,0.2-0.9,0.4-1.3,0.6c-1.5,0.7-5.6,2.8-6.1,3c-0.1,0.1-0.3,0.1-0.4,0.2c-0.1,0-0.1,0-0.2,0.1
	c-0.6,0.4-1.1,0.7-1.7,0.9c-2.3,1.2-2.6,1.3-2.7,1.4c-0.1,0.1-0.3,0.2-0.6,0.4c-1.7,0.9-3.9,2.1-4,2.2c-0.1,0.1-0.1,0.1-0.2,0.1
	c-0.1,0-0.2,0-0.2,0.1c0,0.1-1.7,1-4.4,2.5c-0.3,0.1-0.6,0.3-0.7,0.4L68,105c-0.1,0-0.2,0.1-0.4,0.2l-1.5,0.9l-1.5,0.9l-0.4,0.2
	c-0.1,0-1.3,0.8-2.7,1.6c-1.4,0.9-2.6,1.6-2.7,1.7c-0.4,0.2-2.3,1.4-2.4,1.5c-0.1,0.1-0.2,0.1-0.3,0.2c-0.2,0.1-0.3,0.2-0.5,0.3
	c-0.1,0.1-0.2,0.2-0.2,0.1c-0.3,0.2-0.6,0.3-0.9,0.5c-1.4,0.9-1.6,1.1-1.5,1.1s1.1,0.6,2.4,1.2c3.2,1.6,4.2,2.1,4.3,2.2
	c0.1,0.1,0.2,0.1,0.3,0.1c0.1,0,0.2,0,0.2,0.1c0.3,0.2,0.7,0.4,1,0.6c0.5,0.3,1.3,0.7,1.8,0.9l1.7,0.9c0.5,0.3,1.1,0.6,1.3,0.7
	l0.8,0.5c0.9,0.5,1.4,0.8,3.1,1.7c0.5,0.3,1.1,0.6,1.7,0.9c0.6-0.3,1.3-0.7,1.8-1.2c0-0.1,0.1-0.1,0.1-0.1c0.2-0.1,0.3-0.1,0.4-0.2
	c0.4-0.3,4.6-3.1,4.6-3.1c0.1,0,1.4-0.9,1.6-1c0.1-0.1,0.3-0.2,0.4-0.2c0.1-0.1,0.3-0.2,0.3-0.2c0-0.1,0.1-0.1,0.1-0.1
	c0.2-0.1,0.4-0.2,0.6-0.4c0.3-0.2,0.6-0.4,0.7-0.4s0.5-0.3,0.9-0.6c0.3-0.2,0.6-0.4,0.9-0.5c0.1,0,0.1,0,0.1-0.1
	c0-0.1,0-0.1,0.1-0.1c0,0,0,0,0,0c0.3-0.1,0.5-0.3,0.7-0.4c0.2-0.2,0.5-0.3,0.7-0.4c0.1,0,0.2-0.1,0.3-0.2c0.3-0.2,0.6-0.4,1-0.6
	c0.2-0.1,0.3-0.2,0.5-0.3c0.1-0.1,0.1-0.2,0.2-0.2c0,0,0.9-0.5,1.8-1.1c1-0.6,1.9-1.2,2.1-1.3c0.2-0.1,0.5-0.3,0.7-0.4l0.6-0.3
	c0.1-0.1,0.5-0.3,0.8-0.4l0.7-0.4c0.1-0.1,0.2-0.2,0.3-0.2c0.1-0.1,0.2-0.1,0.2-0.1c0.1,0,0.1,0,0.1,0s0.1-0.1,0.2-0.2
	c0.1,0,0.2-0.1,0.3-0.2c0.3-0.2,1.8-1.1,1.8-1.1c0.1,0,0.2-0.1,0.4-0.2c0.2-0.1,0.8-0.4,1.2-0.7c1-0.5,1.5-0.8,3.1-1.7
	c0.4-0.2,0.8-0.4,1.3-0.6c0.1,0,0.2-0.1,0.2-0.2c0.1-0.1,0.2-0.1,0.2-0.1c0,0,0.1,0,0.1,0c0,0,0,0,0,0c0.7-0.5,1.5-0.9,2.3-1.3
	c0.4-0.2,0.8-0.4,1.2-0.7c0.1-0.1,0.1-0.1,0.2-0.1c0.1,0,0.2,0,0.3-0.1c0.1-0.1,1.5-0.8,4.5-2.3c1-0.5,1.9-1,1.9-1
	c0-0.1,0.1-0.1,0.2-0.1c0.2-0.1,0.5-0.2,0.7-0.3c0.3-0.2,0.6-0.3,0.6-0.2c0,0,0.1,0,0.1-0.1s0-0.1,0.1-0.1c0.8-0.3,1.7-0.7,2.5-1.1
	l1.5-0.7c1.9-0.9,2.4-1.1,2.4-1.1s0.3-0.1,0.7-0.3l2-0.9c0,0,0.2-0.1,0.4-0.2c1.6-0.7,8.8-3.7,9-3.8c0.1,0,0.2-0.1,0.4-0.1
	c0.1-0.1,1-0.4,1.9-0.8s1.7-0.7,1.8-0.7c0.2-0.1,0.3-0.1,0.5-0.2c0.1,0,0.3-0.1,0.4-0.2c0.1-0.1,0.1-0.1,0.2-0.1
	c0.2,0,0.3-0.1,0.5-0.1l0.9-0.4l1.3-0.6c0.8-0.3,2.7-1,2.8-1l0.3-0.1c0.1-0.1,2.1-0.8,2.4-0.9l0.3-0.1c0.8-0.3,1.5-0.6,1.6-0.6h0.1
	l0.2-0.1c0.1,0,0.1,0,0.2-0.1l0.1-0.1c0.1,0,0.2,0,0.2-0.1c0.1-0.1,2.8-0.9,2.9-1l0.2-0.1l1.4-0.5c0.1,0,1-0.3,2.1-0.7l2.9-0.9
	c0.4-0.1,0.7-0.2,1.1-0.4c0.1-0.1,0.2-0.1,0.4-0.1c0.1,0,0.2,0,0.3-0.1c-1.3-0.8-2.6-1.4-4-2c-0.1,0-0.1,0-0.1-0.1
	c0-0.1,0-0.1-0.1-0.1c0,0,0,0,0,0c-0.4-0.2-0.9-0.4-1.3-0.6c-1.7-0.8-2.8-1.3-3.5-1.6l-1.2-0.5l-0.5-0.2c0,0-0.3-0.1-0.7-0.3
	c-0.3-0.2-1-0.5-1.5-0.7l-1.3-0.6l-1-0.4c-0.3-0.1-0.7-0.3-0.9-0.4c-0.2-0.1-0.3-0.1-0.5-0.2C145.1,73,144.9,72.9,144.8,73z"/>
<path class="st1" d="M79.7,79.7l-1.7,0.7l-1.9,0.8c-1.5,0.6-2.1,0.9-2.8,1.2L72,82.9l-1.4,0.6c-0.2,0.1-0.3,0.1-0.5,0.2
	c-0.1,0-0.4,0.2-0.7,0.3l-0.7,0.3c-0.1,0-0.2,0.1-0.3,0.1c-0.2,0.1-0.5,0.2-0.7,0.3c-0.3,0.1-0.9,0.4-1.2,0.5l-0.8,0.4
	c-0.2,0.1-1,0.4-2.9,1.3c-0.5,0.3-0.9,0.5-1.4,0.6c-0.1,0-0.2,0.1-0.2,0.2c-0.1,0.1-0.2,0.2-0.4,0.2c-0.1,0-0.2,0.1-0.3,0.2
	c-0.1,0.1-0.2,0.1-0.3,0.2c-0.1,0-2.3,1-6.2,3c-3.1,1.6-3.8,1.9-3.8,2c-0.1,0.1-0.1,0.1-0.2,0.1c-0.1,0-0.2,0.1-0.3,0.1
	c-0.2,0.1-0.5,0.3-0.7,0.4c-0.3,0.1-0.5,0.2-0.7,0.4c-0.2,0.1-0.3,0.2-0.5,0.3c-0.2,0.1-0.3,0.2-0.3,0.2c0,0-0.1,0.1-0.2,0.1
	s-0.2,0-0.2,0.1s-0.1,0.1-0.2,0.2c-0.4,0.2-1.8,0.9-1.9,1c-0.2,0.1-0.5,0.3-0.7,0.4c-0.5,0.2-0.9,0.5-1.4,0.8
	c-0.1,0.1-0.3,0.2-0.4,0.2c-0.2,0.1-0.6,0.3-0.8,0.4c-0.2,0.1-0.5,0.3-0.6,0.3s-0.5,0.3-0.9,0.5c-0.4,0.2-0.8,0.4-0.8,0.4
	s-0.4,0.2-0.8,0.4l-0.8,0.4l0.7,0.3c0.3,0.1,0.6,0.3,0.9,0.4c0.1,0,0.1,0,0.1,0.1c0,0.1,0,0.1,0.1,0.1c0,0,0,0,0,0
	c0.3,0.1,0.5,0.2,0.8,0.3l1.3,0.6l2.9,1.4c1.3,0.6,2.4,1.1,2.4,1.1c0.1,0.1,0.2,0.1,0.3,0.2c0.1,0.1,0.2,0.1,0.3,0.2
	c0.1,0,2.2,1.1,2.4,1.2c0.1,0.1,0.1,0.1,0.1,0s0.1,0,0.1,0c0.3,0.2,0.7,0.4,1,0.5c0.7,0.3,0.9,0.4,1,0.3l0.8-0.4
	c0.3-0.1,0.5-0.3,0.8-0.5c0.1-0.1,0.1-0.1,0.2-0.1c0,0,0.7-0.4,1.5-0.9c0.5-0.3,1-0.6,1.5-0.9c0.1,0,0.1,0,0.1-0.1
	c0-0.1,0-0.1,0.1-0.1c0,0,0,0,0,0c0.1,0,1-0.5,2.1-1.1l2.6-1.4l0.9-0.5l1.3-0.7c0.5-0.3,1-0.5,1-0.6s0.5-0.3,2.7-1.4
	c0.3-0.1,0.6-0.3,0.8-0.5c0,0,0.1-0.1,0.2-0.1c0.1,0,0.2,0,0.2-0.1c0-0.1,1.9-1,4.2-2.2c2.3-1.1,4.4-2.2,4.7-2.3
	c0.2-0.1,0.4-0.2,0.7-0.2c0.1,0,0.1,0,0.2-0.1c0.3-0.2,0.6-0.3,0.9-0.5l1.6-0.7c2.9-1.3,3.1-1.4,5.6-2.5c1.2-0.5,2.4-1.1,2.7-1.2
	c0.2-0.1,0.4-0.2,0.6-0.2c0.2-0.1,0.3-0.1,0.5-0.2c0.4-0.2,2.5-1,3.2-1.3c0.1,0,0.2-0.1,0.3-0.1c0,0,0.1,0,0.1-0.1s0.1-0.1,0.3-0.2
	l0.3-0.1c0.3-0.1,0.7-0.3,0.9-0.5c-0.2-0.1-0.4-0.2-0.6-0.3c-0.3-0.1-1-0.5-1.6-0.7l-1-0.5c-0.1,0-0.7-0.3-1.2-0.5
	c-0.3-0.1-1-0.4-1.6-0.7c-0.4-0.2-0.8-0.3-1.2-0.5c-0.1-0.1-0.1-0.1-0.1,0s-0.1,0-0.2-0.1l-0.3-0.1c-0.1,0-0.8-0.3-1.2-0.5
	c-0.1-0.1-0.3-0.1-0.4-0.1c0,0-0.4-0.1-0.7-0.3c-0.2-0.1-0.5-0.2-0.7-0.3c-0.1,0-0.3-0.1-0.4-0.1c-0.7-0.3-3-1.2-3.1-1.2
	C81.2,79,80.5,79.4,79.7,79.7z"/>
<path class="st1" d="M166.6,83.4c-0.1,0.1-0.2,0.1-0.3,0.1c-0.2,0-0.3,0.1-0.5,0.2c-0.1,0.1-0.2,0.1-0.2,0s0,0-0.1,0
	c-0.5,0.3-1,0.5-1.6,0.6c-0.1,0-0.6,0.2-1.1,0.4c-0.5,0.2-1,0.3-1,0.4l-0.3,0.1c-0.2,0.1-2.2,0.8-2.4,0.9c-0.1,0-0.2,0.1-0.4,0.1
	c-0.1,0.1-0.9,0.3-1.6,0.6c-1.3,0.5-4.4,1.6-4.8,1.8l-0.9,0.4c-0.9,0.3-3.2,1.2-3.7,1.5c-0.5,0.2-1,0.4-1.1,0.4
	c-0.1,0-0.3,0.1-0.6,0.2c-0.2,0.1-0.4,0.2-0.6,0.3c-0.1,0-0.3,0.1-0.5,0.2c-0.2,0.1-0.3,0.1-0.5,0.2c-0.1,0-0.1,0-0.1,0.1
	c0,0.1,0,0.1-0.1,0.1c-0.5,0.1-0.9,0.2-1.3,0.4c-0.2,0.1-0.4,0.2-0.7,0.3c0,0-0.3,0.1-0.6,0.2l-1.2,0.5c-0.4,0.1-0.9,0.4-1.2,0.5
	c-0.2,0.1-0.4,0.2-0.6,0.3c0,0-0.4,0.2-0.8,0.4c-1.5,0.7-2,0.9-2.9,1.3l-1.6,0.7l-1.4,0.6l-2,1l-2.2,1.1c-1.6,0.7-7.6,3.8-7.7,3.9
	s-0.1,0.1-0.1,0s-0.1,0-0.2,0.1c-0.1,0.1-0.2,0.2-0.4,0.2c-0.1,0-0.2,0-0.2,0.1c-0.1,0.1-0.3,0.2-0.4,0.3c-0.9,0.4-4,2-4.1,2.1
	c-0.1,0.1-0.5,0.3-0.9,0.5l-1.7,0.9l-1,0.6c-0.1,0-0.5,0.2-0.9,0.5l-1.5,0.9c-0.3,0.2-0.7,0.4-1,0.6c-0.1,0.1-0.2,0.1-0.2,0.1
	s-0.1,0-0.2,0.1c-0.2,0.1-0.4,0.3-0.7,0.4c-0.2,0.1-0.4,0.2-0.5,0.3c-0.1,0.1-0.2,0.2-0.4,0.2c-0.2,0.1-0.6,0.3-1,0.5
	c-0.2,0.2-0.5,0.3-0.8,0.4c0,0-0.1,0-0.1,0.1c0,0-0.1,0.1-0.3,0.2c-0.5,0.3-1,0.5-1.5,0.9c-0.7,0.4-1.4,0.9-1.7,1l-0.6,0.4
	c-0.1,0.1-0.9,0.6-1.8,1.1c-0.9,0.5-1.7,1-1.7,1.1c-0.1,0.1-0.3,0.2-0.4,0.3c-0.2,0.1-0.5,0.3-0.8,0.4l-0.7,0.4
	c-0.7,0.4-2.1,1.3-2.1,1.4c-0.3,0.2-0.5,0.4-0.8,0.5c-0.2,0.1-0.3,0.2-0.3,0.3c0,0.1,0,0.1-0.1,0.1c0,0,0,0,0,0
	c-1.1,0.6-2.1,1.3-3.2,2c-0.1,0.1-0.1,0.1-0.2,0.2c-0.1,0-1.4,0.9-1.6,1c-0.1,0.1-0.2,0.2-0.4,0.2c-0.1,0.1-0.2,0.1-0.3,0.2
	c-0.3,0.2-0.6,0.4-0.9,0.6c-0.3,0.2-0.6,0.4-0.9,0.6c0,0.1-0.1,0.1-0.1,0c0-0.1-0.1,0-0.2,0.1c-0.1,0.1-0.2,0.2-0.3,0.2
	c-0.1,0-0.2,0.1-0.2,0.1c-0.1,0.1-0.4,0.3-0.8,0.6c-0.3,0.2-0.5,0.3-0.7,0.5c0,0-0.1,0.1-0.1,0.1c-0.5,0.3-0.9,0.6-1.4,0.9
	c-1,0.7-1.2,0.9-1.1,1c0.8,0.5,1.6,1,2.4,1.5c0.1,0,0.1,0,0.1,0.1c0,0,0.8,0.6,1.7,1.2c0.6,0.4,1.2,0.8,1.7,1.2
	c0,0.1,0.1,0.1,0.1,0.1c0.4,0.2,0.7,0.4,1,0.6c0.3,0.2,0.7,0.4,1,0.6c0.1,0,0.1,0,0.1,0.1c0,0,0.7,0.5,1.4,1c0.5,0.3,1,0.7,1.4,1
	c0,0.1,0.1,0.1,0.2,0.1c0.1,0,0.1,0,0.1,0.1c0,0.1,0.1,0.1,0.1,0.1c0.1,0,0.1,0,0.2,0.1c0.5,0.4,1,0.7,1.5,1.1
	c0.8,0.5,1.9,1.3,2.4,1.6c0.5,0.3,1,0.7,1.1,0.8c0.1,0.1,0.3,0.2,0.4,0.2c0.5,0.5,1.1,0.9,1.7,1.2c0.1,0,0.1,0,0.1,0.1
	s0.1,0.1,0.2,0.2c0.1,0.1,0.2,0.1,1.7-1.1l1.4-1.1c0.6-0.4,1.1-0.9,1.2-0.9c0.1-0.1,0.2-0.2,0.4-0.3c0.2-0.1,0.7-0.5,1.3-1l0.7-0.5
	c0.2-0.1,0.5-0.3,0.6-0.4c0.2-0.1,0.3-0.3,0.5-0.4c0.2-0.1,0.3-0.2,0.3-0.2s0.1-0.1,0.2-0.1c0.1,0,0.2,0,0.2-0.1
	c0.2-0.2,0.3-0.3,0.5-0.4c0.2-0.1,0.4-0.3,0.5-0.4c0-0.1,0.1-0.1,0.1-0.1c0.1,0,0.2,0,0.2-0.1c0.4-0.4,0.8-0.7,1.3-0.9
	c0.1,0,0.1,0,0.1-0.1c0.2-0.2,0.5-0.4,0.7-0.6c0.4-0.3,0.7-0.5,0.8-0.6l1.5-1l1.5-1.1c0.1-0.1,0.2-0.2,0.3-0.2
	c0.3-0.2,1.4-1,2.1-1.5c1-0.7,2-1.4,4.2-2.9c1-0.7,1.8-1.3,1.9-1.3c0.1-0.1,0.2-0.1,0.3-0.1c0.1,0,0.1,0,0.2-0.1
	c0.3-0.3,0.7-0.6,1.1-0.8c0.1,0,0.1,0,0.1-0.1c0-0.1,4.7-3.2,5.6-3.6c0.2-0.1,0.4-0.2,0.6-0.4c0.1-0.1,0.2-0.1,0.3-0.2
	c0.2-0.1,0.3-0.2,0.3-0.2c0-0.1,0.1-0.1,0.1-0.1c0.8-0.3,1.6-0.8,2.4-1.2l0.8-0.5c0.2-0.1,0.4-0.2,0.6-0.4c0.1-0.1,0.1-0.1,0.2-0.1
	c0.1,0,2.3-1.3,2.8-1.7c0.1-0.1,0.2-0.1,0.3-0.2c0.1,0,0.2-0.1,0.2-0.2c0-0.1,0-0.1,0.1-0.1l0,0c0.3-0.1,0.6-0.3,0.9-0.5
	c0.9-0.5,1-0.6,2.9-1.7c0.4-0.2,0.8-0.4,1.1-0.7c0-0.1,0.1-0.1,0.1-0.1c0.1,0,0.3-0.1,0.4-0.2c0.2-0.1,0.3-0.2,0.3-0.1
	s0.1,0,0.2-0.1c0.3-0.2,0.5-0.4,0.8-0.5l1-0.6c0.9-0.5,3.3-1.8,4-2.2l1.7-0.9c0.5-0.3,1.3-0.7,1.7-0.9s1.2-0.6,1.7-0.9
	c0.5-0.2,1-0.5,1-0.6c0,0,1.8-0.9,3.9-2c2.1-1.1,3.9-2,3.9-2c0-0.1,0.1-0.1,0.1-0.1c0.4-0.1,0.8-0.3,1.2-0.5
	c0.4-0.2,0.8-0.4,1.2-0.5c0.1,0,0.1,0,0.1-0.1c0-0.1,0.1-0.1,0.1-0.1c0.2-0.1,0.5-0.2,0.7-0.3l1.5-0.7l1.8-0.9
	c0.3-0.2,0.6-0.3,0.9-0.4c0.1,0,0.2-0.1,0.3-0.1c0.1-0.1,0.2-0.1,0.3-0.1c0,0,0.1,0,0.2-0.1s1.3-0.6,2.7-1.2l2.8-1.2l0.3-0.1
	c0.1,0,0.5-0.2,1.2-0.5c0.3-0.1,0.6-0.2,0.6-0.2s0,0,0.1-0.1c0.1-0.1,0.1-0.1,0.2-0.2c0.1,0,0.2-0.1,0.4-0.1
	c0.1-0.1,0.5-0.2,0.8-0.4c0.2-0.1,0.4-0.2,0.6-0.3c-0.3-0.2-0.6-0.4-1-0.6l-1.4-0.9c-0.1-0.1-0.3-0.2-0.5-0.3
	c-0.1,0-0.2-0.1-0.3-0.2c-0.3-0.2-1.4-0.9-2.1-1.2c-0.3-0.1-0.7-0.4-1.1-0.6c-0.2-0.1-0.5-0.3-0.7-0.4c-0.1,0-0.1,0-0.1-0.1
	c0,0,0,0,0,0c0-0.1-0.1-0.1-0.2-0.1c-0.2-0.1-0.4-0.2-0.6-0.3l-1.3-0.7l-1.1-0.6l-1.1-0.6c-0.5-0.2-1-0.6-1.3-0.7
	c-0.2-0.1-0.4-0.2-0.5-0.3c0,0-0.4-0.2-0.8-0.4c-0.3-0.1-0.5-0.3-0.8-0.4C167,83.4,166.8,83.4,166.6,83.4z"/>
</svg>
