<?xml version="1.0" encoding="UTF-8"?>
<svg width="34px" height="20px" viewBox="0 0 34 20" version="1.1" xmlns="http://www.w3.org/2000/svg" xmlns:xlink="http://www.w3.org/1999/xlink">
    <!-- Generator: Sketch 49 (51002) - http://www.bohemiancoding.com/sketch -->
    <title>BBD</title>
    <desc>Created with Sketch.</desc>
    <defs></defs>
    <g id="Page-1" stroke="none" stroke-width="1" fill="none" fill-rule="evenodd">
        <g id="BBD" fill-rule="nonzero">
            <rect id="Rectangle-path" fill="#1B257D" x="0" y="0" width="33.56" height="19.58"></rect>
            <rect id="Rectangle-path" fill="#F4C638" x="11.19" y="0" width="11.19" height="19.58"></rect>
            <path d="M16.78,4.37 C16.4834501,5.40802959 15.9609707,6.36761591 15.25,7.18 C15.5739261,7.08013947 15.9110309,7.02957374 16.25,7.03 L16.25,11.2 L15,11.38 C15,11.38 14.94,11.31 14.94,11.22 C14.8159506,10.0247979 14.5576553,8.84737399 14.17,7.71 C14.17,7.56 13.7,6.97 14.04,7.07 C14.04,7.07 14.54,7.27 14.47,7.17 C13.8107434,6.5093399 12.960838,6.07214578 12.04,5.92 C11.96,5.92 11.92,5.92 11.99,6.03 C13.3379169,7.93489783 14.0897027,10.1972163 14.15,12.53 C14.61,12.53 15.72,12.26 16.15,12.26 L16.15,15.2 L17.3,15.2 L17.3,12.27 C17.76,12.27 18.87,12.54 19.3,12.54 C19.3764243,10.1851521 20.1566365,7.90721119 21.54,6 C21.61,5.91 21.54,5.87 21.48,5.89 C20.5593756,6.04279139 19.7096576,6.47988916 19.05,7.14 C18.98,7.23 19.44,7.04 19.48,7.04 C19.82,6.94 19.38,7.53 19.35,7.68 C18.9623447,8.81737399 18.7040494,9.99479793 18.58,11.19 C18.58,11.28 18.58,11.35 18.52,11.35 L17.34,11.18 L17.34,7 C17.6790029,6.99911437 18.0161764,7.04969039 18.34,7.15 C17.6284826,6.33799715 17.105933,5.37828193 16.81,4.34" id="Shape" fill="#000000"></path>
        </g>
    </g>
</svg>