<svg xmlns="http://www.w3.org/2000/svg" xmlns:xlink="http://www.w3.org/1999/xlink" viewBox="0 0 33.56 19.58"><defs><style>.cls-1{fill:none;}.cls-2{clip-path:url(#clip-path);}.cls-3{fill:#bc0030;}.cls-4{fill:#50b63f;}.cls-5{fill:#fff;}</style><clipPath id="clip-path"><rect class="cls-1" width="33.56" height="19.58"/></clipPath></defs><title>BDI</title><g id="Layer_2" data-name="Layer 2"><g id="_4" data-name="4"><g id="BURUNDI"><g class="cls-2"><polygon class="cls-3" points="30.95 0 2.61 0 16.78 8.27 30.95 0"/><polygon class="cls-3" points="2.61 19.58 30.95 19.58 16.78 11.31 2.61 19.58"/><polygon class="cls-4" points="33.56 18.06 33.56 1.52 19.39 9.79 33.56 18.06"/><polygon class="cls-4" points="0 18.06 14.17 9.79 0 1.52 0 18.06"/><g class="cls-2"><path class="cls-5" d="M33.56,0H31L20.84,5.9a5.81,5.81,0,0,0-8.13,0L2.61,0H0V1.52L11.33,8.13a5.45,5.45,0,0,0,0,3.31L0,18.06v1.52H2.61l10.11-5.89a5.82,5.82,0,0,0,8.13,0L31,19.58h2.61V18.06L22.23,11.45a5.43,5.43,0,0,0,0-3.31L33.56,1.52Z"/><polygon class="cls-4" points="17.16 6.27 16.78 5.61 16.4 6.27 15.65 6.27 16.03 6.92 15.65 7.57 16.4 7.57 16.78 8.22 17.16 7.57 17.91 7.57 17.53 6.92 17.91 6.27 17.16 6.27"/><polygon class="cls-4" points="20.02 11.23 20.4 10.57 19.64 10.57 19.27 9.92 18.89 10.57 18.14 10.57 18.51 11.23 18.14 11.88 18.89 11.88 19.27 12.53 19.64 11.88 20.4 11.88 20.02 11.23"/><polygon class="cls-4" points="14.67 10.57 14.29 9.92 13.91 10.57 13.16 10.57 13.54 11.23 13.16 11.88 13.91 11.88 14.29 12.53 14.67 11.88 15.42 11.88 15.05 11.23 15.42 10.57 14.67 10.57"/><polygon class="cls-3" points="17.09 6.38 16.78 5.85 16.47 6.38 15.85 6.38 16.16 6.92 15.85 7.45 16.47 7.45 16.78 7.99 17.09 7.45 17.71 7.45 17.4 6.92 17.71 6.38 17.09 6.38"/><polygon class="cls-3" points="19.88 11.23 20.19 10.69 19.57 10.69 19.27 10.16 18.96 10.69 18.34 10.69 18.65 11.23 18.34 11.76 18.96 11.76 19.27 12.3 19.57 11.76 20.19 11.76 19.88 11.23"/><polygon class="cls-3" points="14.6 10.69 14.29 10.16 13.98 10.69 13.37 10.69 13.68 11.23 13.37 11.76 13.98 11.76 14.29 12.3 14.6 11.76 15.22 11.76 14.91 11.23 15.22 10.69 14.6 10.69"/></g></g></g></g></g></svg>