<?xml version="1.0" encoding="utf-8"?>
<!-- Generator: Adobe Illustrator 21.0.0, SVG Export Plug-In . SVG Version: 6.00 Build 0)  -->
<svg version="1.1" id="Layer_1" xmlns="http://www.w3.org/2000/svg" xmlns:xlink="http://www.w3.org/1999/xlink" x="0px" y="0px"
	 viewBox="0 0 200 200" style="enable-background:new 0 0 200 200;" xml:space="preserve">
<style type="text/css">
	.st0{fill:#E65400;}
	.st1{fill:#FFFFFF;}
</style>
<title>BHP</title>
<rect class="st0" width="200" height="200"/>
<g>
	<path class="st1" d="M106.1,60.6c-7.9,0-16.6,6.9-16.6,16.7c0,7.7,4.3,10.2,2.8,19.3c-2,11.7-21.7,12.2-21.7,32.1
		c0,12.9,10.3,22.2,22.2,22.2c11.2,0,22.1-9.1,22.1-22.2c0-10.3-8.2-19-5-28.3c3.3-9.6,13.2-10.4,13.2-23
		C123.1,67.2,114.5,60.6,106.1,60.6z M146.4,58.5c3-7,10.5-10.6,18-8.5s12.1,8.7,10.9,17.4c-2.5,19-11.3,58.7-13.7,67
		c-2.4,8.5-11.9,19.4-25.9,15.8c-11.2-2.8-17.2-16.4-13.8-27.3C127,106.9,139.7,73.6,146.4,58.5L146.4,58.5z M64.9,129.5
		c0,11.2-9,20.3-20.2,20.3s-20.2-9.1-20.2-20.3s9-20.3,20.2-20.3S64.9,118.3,64.9,129.5z M72.8,90.3c0,7.8-6.3,14.1-14,14.1
		s-14-6.3-14-14.1s6.3-14.1,14-14.1S72.8,82.5,72.8,90.3L72.8,90.3z"/>
</g>
</svg>
