<?xml version="1.0" encoding="utf-8"?>
<!-- Generator: Adobe Illustrator 21.0.0, SVG Export Plug-In . SVG Version: 6.00 Build 0)  -->
<svg version="1.1" id="Layer_1" xmlns="http://www.w3.org/2000/svg" xmlns:xlink="http://www.w3.org/1999/xlink" x="0px" y="0px"
	 viewBox="0 0 200 200" style="enable-background:new 0 0 200 200;" xml:space="preserve">
<style type="text/css">
	.st0{fill:#226CB4;}
</style>
<title>BIDU</title>
<path class="st0" d="M36,105.4c21.7-4.6,18.8-30.6,18.2-36.3c-1.1-8.8-11.3-24-25.3-22.8c-17.6,1.5-20.2,27-20.2,27
	C6.3,85,14.4,110,36,105.4L36,105.4z M59.1,150.5c-0.6,1.8-2,6.5-0.8,10.6c2.4,9.1,10.4,9.5,10.4,9.5H80v-27.8H67.8
	C64,144,60.7,146.8,59.1,150.5z M76.4,61.8c12,0,21.7-13.8,21.7-30.9S88.4,0.1,76.4,0.1S54.7,13.9,54.7,30.9S64.4,61.8,76.4,61.8z
	 M128.1,63.9c16.1,2.1,26.4-15,28.4-28.1s-8.3-28.1-19.6-30.6S111.2,20.9,110,32.7C108.4,47.3,112,61.8,128.1,63.9z M167.3,140.1
	c0,0-24.8-19.2-39.3-40c-19.7-30.6-47.6-18.2-56.8-2.6s-23.8,25.4-25.8,28.1c-2,2.6-30,17.7-23.8,45.1s28,27,28,27
	c11.6,0.8,23.2-0.1,34.6-2.5s23.3-2,34.6,1.1c0,0,43.4,14.5,55.3-13.4C185.9,154.7,167.3,140.1,167.3,140.1z M93,181.8H64.8
	c-12.2-2.4-17.1-10.8-17.7-12.2c-0.6-1.4-4-8.2-2.2-19.5c5.3-17.1,20.3-18.3,20.3-18.3h15v-18.5l12.8,0.2V181.8L93,181.8z
	 M145.6,181.6h-32.5c-12.6-3.2-13.2-12.2-13.2-12.2v-35.9l13.2-0.2v32.3c0.8,3.4,5,4,5,4h13.4v-36.1h14V181.6L145.6,181.6z
	 M191.7,85.7c0-6.2-5.1-24.9-24.2-24.9s-21.7,17.7-21.7,30.1c0,11.9,1,28.5,24.8,28S191.7,91.9,191.7,85.7z"/>
</svg>
