<?xml version="1.0" encoding="utf-8"?>
<!-- Generator: Adobe Illustrator 21.0.0, SVG Export Plug-In . SVG Version: 6.00 Build 0)  -->
<svg version="1.1" id="Layer_1" xmlns="http://www.w3.org/2000/svg" xmlns:xlink="http://www.w3.org/1999/xlink" x="0px" y="0px"
	 viewBox="0 0 200 200" style="enable-background:new 0 0 200 200;" xml:space="preserve">
<style type="text/css">
	.st0{fill:#FCFCFC;}
</style>
<title>BKNG</title>
<rect width="200" height="200"/>
<circle class="st0" cx="66.4" cy="85.4" r="2.7"/>
<circle class="st0" cx="66.4" cy="72.9" r="2.7"/>
<circle class="st0" cx="66.4" cy="60.5" r="2.7"/>
<circle class="st0" cx="66.4" cy="48" r="2.7"/>
<circle class="st0" cx="76.1" cy="85.4" r="2.7"/>
<circle class="st0" cx="76.1" cy="72.9" r="2.7"/>
<circle class="st0" cx="76.1" cy="60.5" r="2.7"/>
<circle class="st0" cx="76.1" cy="48" r="2.7"/>
<circle class="st0" cx="85.8" cy="85.4" r="2.7"/>
<circle class="st0" cx="85.8" cy="72.9" r="2.7"/>
<circle class="st0" cx="85.8" cy="60.5" r="2.7"/>
<circle class="st0" cx="85.8" cy="48" r="2.7"/>
<circle class="st0" cx="95.5" cy="85.4" r="2.7"/>
<circle class="st0" cx="105.2" cy="85.4" r="2.7"/>
<circle class="st0" cx="105.2" cy="72.9" r="2.7"/>
<circle class="st0" cx="105.2" cy="60.5" r="2.7"/>
<circle class="st0" cx="105.2" cy="48" r="2.7"/>
<circle class="st0" cx="114.9" cy="85.4" r="2.7"/>
<circle class="st0" cx="114.9" cy="72.9" r="2.7"/>
<circle class="st0" cx="114.9" cy="60.5" r="2.7"/>
<circle class="st0" cx="114.9" cy="48" r="2.7"/>
<circle class="st0" cx="124.6" cy="85.4" r="2.7"/>
<circle class="st0" cx="124.6" cy="72.9" r="2.7"/>
<circle class="st0" cx="124.6" cy="60.5" r="2.7"/>
<circle class="st0" cx="124.6" cy="48" r="2.7"/>
<circle class="st0" cx="134.3" cy="85.4" r="2.7"/>
<circle class="st0" cx="134.3" cy="72.9" r="2.7"/>
<circle class="st0" cx="134.3" cy="60.5" r="2.7"/>
<circle class="st0" cx="95.5" cy="72.9" r="2.7"/>
<circle class="st0" cx="95.5" cy="60.5" r="2.7"/>
<circle class="st0" cx="95.5" cy="48" r="2.7"/>
<circle class="st0" cx="66.4" cy="97.9" r="2.7"/>
<circle class="st0" cx="66.4" cy="110.4" r="2.7"/>
<circle class="st0" cx="66.4" cy="122.9" r="2.7"/>
<circle class="st0" cx="66.4" cy="135.3" r="2.7"/>
<circle class="st0" cx="66.4" cy="147.8" r="2.7"/>
<circle class="st0" cx="76.1" cy="97.9" r="2.7"/>
<circle class="st0" cx="76.1" cy="110.4" r="2.7"/>
<circle class="st0" cx="76.1" cy="122.9" r="2.7"/>
<circle class="st0" cx="76.1" cy="135.3" r="2.7"/>
<circle class="st0" cx="76.1" cy="147.8" r="2.7"/>
<circle class="st0" cx="85.8" cy="97.9" r="2.7"/>
<circle class="st0" cx="85.8" cy="110.4" r="2.7"/>
<circle class="st0" cx="85.8" cy="122.9" r="2.7"/>
<circle class="st0" cx="85.8" cy="135.3" r="2.7"/>
<circle class="st0" cx="85.8" cy="147.8" r="2.7"/>
<circle class="st0" cx="95.5" cy="97.9" r="2.7"/>
<circle class="st0" cx="95.5" cy="110.4" r="2.7"/>
<circle class="st0" cx="105.2" cy="110.4" r="2.7"/>
<circle class="st0" cx="105.2" cy="122.9" r="2.7"/>
<circle class="st0" cx="105.2" cy="135.3" r="2.7"/>
<circle class="st0" cx="105.2" cy="147.8" r="2.7"/>
<circle class="st0" cx="114.9" cy="110.4" r="2.7"/>
<circle class="st0" cx="114.9" cy="122.9" r="2.7"/>
<circle class="st0" cx="114.9" cy="135.3" r="2.7"/>
<circle class="st0" cx="114.9" cy="147.8" r="2.7"/>
<circle class="st0" cx="124.6" cy="110.4" r="2.7"/>
<circle class="st0" cx="124.6" cy="122.9" r="2.7"/>
<circle class="st0" cx="124.6" cy="135.3" r="2.7"/>
<circle class="st0" cx="124.6" cy="147.8" r="2.7"/>
<circle class="st0" cx="134.3" cy="110.4" r="2.7"/>
<circle class="st0" cx="134.3" cy="122.9" r="2.7"/>
<circle class="st0" cx="105.2" cy="97.9" r="2.7"/>
<circle class="st0" cx="114.9" cy="97.9" r="2.7"/>
<circle class="st0" cx="124.6" cy="97.9" r="2.7"/>
<circle class="st0" cx="134.3" cy="135.3" r="2.7"/>
<circle class="st0" cx="95.5" cy="122.9" r="2.7"/>
<circle class="st0" cx="95.5" cy="135.3" r="2.7"/>
<circle class="st0" cx="95.5" cy="147.8" r="2.7"/>
</svg>
