<?xml version="1.0" encoding="utf-8"?>
<!-- Generator: Adobe Illustrator 21.0.0, SVG Export Plug-In . SVG Version: 6.00 Build 0)  -->
<svg version="1.1" id="Layer_1" xmlns="http://www.w3.org/2000/svg" xmlns:xlink="http://www.w3.org/1999/xlink" x="0px" y="0px"
	 viewBox="0 0 200 200" style="enable-background:new 0 0 200 200;" xml:space="preserve">
<style type="text/css">
	.st0{fill:#003D6A;}
	.st1{fill:#FFFFFF;}
</style>
<title>BLK</title>
<rect x="-0.3" class="st0" width="200.5" height="200"/>
<g id="layer1">
	<path id="path14" class="st1" d="M38.8,91.9v17.5h9.7l-1.3,3.4H34.5V91.9H38.8"/>
	<path id="path16" class="st1" d="M121.1,101.4c2.7-1,5.9-3.4,5.9-7.3c0-4.9-4.2-7.3-10.1-7.3h-7.8v25.9h4.6v-10.6h2.7l7.2,10.6h5.2
		L121.1,101.4L121.1,101.4z M115.9,98.8h-2.3v-8.9h2.8c3.8,0,5.8,1.2,5.8,4.4C122.3,97.8,119.8,98.8,115.9,98.8"/>
	<path id="path18" class="st1" d="M56.7,91.9l0.7,1.6l-8.1,19.3h4l1.8-4.3h9.2l1.9,4.3h4.7l-9.4-20.9H56.7z M56.3,105.4l3.2-7.7
		l3.2,7.7H56.3"/>
	<path id="path28" class="st1" d="M26.4,98.9c2.3-0.8,4.5-2.5,4.5-5.7c0-6.3-7.6-6.3-10.1-6.3h-8.2v26h7.9c4.6,0,11.9-1.1,11.9-7.5
		C32.3,101.8,30.2,99.5,26.4,98.9z M20.2,90c3.5,0,5.8,0.4,5.8,3.5c0,4.2-4.3,4-6.3,4h-2.3V90H20.2L20.2,90z M20.3,109.4l-2.9-0.1
		v-8.5h2.7c4.1,0,7.4,0.6,7.4,4.3S24.8,109.4,20.3,109.4"/>
	<path id="path30" class="st1" d="M89.3,91.9h4.3v20.9h-4.3V91.9z M102.7,91.9l-8.8,10l8.9,10.9h4.9l-9-11.1l8.3-9.8H102.7"/>
	<path id="path40" class="st1" d="M69.8,101.7c0,6.8,4.3,11.5,10.1,11.5c2.5,0.1,5-0.7,7-2.1l-1-2.1c-1.5,0.8-3.2,1.2-4.9,1.2
		c-3.8,0-6.5-2.7-6.5-8.4c0-4.6,1.7-7.3,4.9-7.3c1.8,0,3.2,0.6,3.8,2.3l3.8-0.9c-0.4-1.5-2.3-4.3-7.8-4.3
		C74.1,91.6,69.7,95,69.8,101.7"/>
	<path id="path50" class="st1" d="M168.9,91.9h4.3v20.9h-4.3V91.9z M182.3,91.9l-8.9,10l8.9,10.9h5.1l-9-11.1l8.3-9.8H182.3"/>
	<path id="path52" class="st1" d="M149.3,101.7c0,6.8,4.2,11.5,9.9,11.5c2.5,0.1,5-0.6,7-2.1l-1-2.1c-1.5,0.8-3.2,1.2-4.9,1.2
		c-3.8,0-6.4-2.7-6.4-8.4c0-4.6,1.7-7.3,5-7.3c1.7,0,3.2,0.6,3.8,2.3l3.7-0.9c-0.4-1.5-2.3-4.3-7.7-4.3
		C153.6,91.6,149.2,95,149.3,101.7"/>
	<path id="path54" class="st1" d="M137.8,91.6c-5.7,0-9.8,3.4-9.8,10.7c0,7.3,3.9,10.8,9.8,10.8c5.9,0,9.8-3.5,9.8-10.8
		S143.4,91.6,137.8,91.6z M137.8,110.2c-4.3,0-5.3-3.5-5.3-7.9c0-4.3,1-7.9,5.3-7.9s5.3,3.7,5.3,7.9S142.1,110.2,137.8,110.2"/>
</g>
</svg>
