<svg xmlns="http://www.w3.org/2000/svg" xmlns:xlink="http://www.w3.org/1999/xlink" viewBox="0 0 33.56 19.58"><defs><style>.cls-1{fill:none;}.cls-2{clip-path:url(#clip-path);}.cls-3{fill:#ba0019;}.cls-4{fill:#3e9a13;}.cls-5{fill:#fff;}</style><clipPath id="clip-path"><rect class="cls-1" width="33.56" height="19.58"/></clipPath></defs><title>BLR</title><g id="Layer_2" data-name="Layer 2"><g id="_4" data-name="4"><g id="BELARUS"><g class="cls-2"><rect class="cls-3" width="33.56" height="13.05"/><rect class="cls-4" y="13.05" width="33.56" height="6.53"/><rect class="cls-5" width="4.31" height="19.58"/><path class="cls-3" d="M.52,19.22H.71v-.54H.52Zm1.54,0h.19v-.54H2.06Zm1.54,0h.19v-.54H3.59Zm-2.3-1.45h.19v-.45H1.29Zm1.54,0H3v-.45H2.83ZM.52,16.6H.71v-.54H.52Zm1.54,0h.19v-.54H2.06Zm1.54,0h.19v-.54H3.59Zm-2.69.72H1.1v-.45h.19v-.45h.19v.45h.19v.45h.19v.45H1.67v.45H1.48v.45H1.29v-.45H1.1v-.45H.91Zm1.54,0h.19v-.45h.19v-.45H3v.45h.19v.45H3.4v.45H3.21v.45H3v.45H2.83v-.45H2.64v-.45H2.44Zm.38-1.8V16H2.63v.45H2.44v.45H2.25v.45H2.06v-.45H1.87v-.45H1.67V16H1.48v-.45H1.29V16H1.1v.45H.91v.45H.71v.45H.52v.45H.71v.45H.91v.45H1.1v.45h.19v.45h.19v-.45h.19v-.45h.19v-.45h.19v-.45h.19v.45h.19v.45h.19v.45h.19v.45H3v-.45h.19v-.45H3.4v-.45h.19v-.45h.19v-.45H3.59v-.45H3.4v-.45H3.21V16H3v-.45Zm.48-.45h.1v-.18h.1v.18h.1v.18H3.5v.18H3.4v-.18H3.3Zm0-.63v.27H3.21V15h-.1v.36h.1v.27H3.3v.27h.29v-.27h.1v-.27h.09V15H3.69v-.27h-.1v-.27Zm-2.59.63h.1v-.18h.1v.18H1v.18H.91v.18H.81v-.18H.71Zm0-.63v.27H.62V15H.52v.36h.1v.27h.1v.27H1v-.27h.1v-.27h.09V15H1.1v-.27H1v-.27Zm1.06.63h.09v-.18H2v.18h.09v.18H2v.18h-.1v-.18H1.77Zm.48,0h.1v-.18h.1v.18h.09v.18H2.44v.18h-.1v-.18h-.1Zm0-.63v.27H2.06v-.27H1.77v.27h-.1V15h-.1v.36h.1v.27h.1v.27h.29v-.27h.19v.27h.29v-.27h.1v-.27h.09V15H2.64v-.27h-.1v-.27ZM.52,14.25H.71v-.54H.52Zm1.54,0h.19v-.54H2.06Zm1.54,0h.19v-.54H3.59ZM.52,12H.71v-.36H.52Zm3.07,0h.19v-.36H3.59ZM2.06,10.74h.19v-.45H2.06ZM.52,9.52v.27h0v.27H.71V9.79h0V9.52Zm1.06,0v.27h0v.27h.19V9.79h0V9.52Zm1,0v.27h0v.27h.19V9.79h0V9.52Zm1.06,0v.27h0v.27h.19V9.79h0V9.52ZM2.35,9.2v.18h-.1v.14H2.06V9.38H2V9.2H1.77v.27h.09v.14H2v.18H2V10h-.1v.14H1.77v.27H2V10.2h.09v-.13h.19v.13h.1v.18h.19v-.27H2.44V10h-.1V9.79h0V9.61h.1V9.47h.09V9.2Zm-.29.09h.19V8.84H2.06ZM.52,7.94H.71V7.58H.52Zm3.07,0h.19V7.58H3.59ZM.52,5.87H.71V5.32H.52Zm1.54,0h.19V5.32H2.06Zm1.54,0h.19V5.32H3.59ZM1.29,9.8h0V9.61h.19V9.3h.19V8.93H2V8.51h.09V8.3h.19v.2h.1v.43h.29V9.3h.19v.31H3V10H2.83v.32H2.64v.36H2.35v.43h-.1v.2H2.06v-.2H2v-.43H1.67v-.36H1.48V10H1.29Zm1.54-5v.45H2.63v.45H2.44v.45H2.25v.45H2.06V6.14H1.87V5.68H1.67V5.23H1.48V4.78H1.29v.45H1.1v.45H.91v.45H.71v.45H.52V7H.71v.45H.91v.45H1.1v.45h.19V7.94h.19V7.49h.19V7H1.48V6.5h.19v.36h.19v.72H2V8H1.67v.36H1.48v.27H1.29v.45H1.1V8.66H.91V8.39H.71V8.12H.52v.81H.71V9.3H.91v.31H1.1v.18h0V10H.91v.32H.71v.36H.52v.81H.71v-.27H.91v-.27H1.1v-.45h.19v.45h.19v.27h.19v.36H2V12h-.1v.72H1.67v.36H1.48v-.55h.19v-.45H1.48v-.45H1.29v-.45H1.1v.45H.91v.45H.71v.45H.52V13H.71v.45H.91v.45H1.1v.45h.19v.45h.19v-.45h.19v-.45h.19v-.45h.19V13h.19v.45h.19v.45h.19v.45h.19v.45H3v-.45h.19v-.45H3.4v-.45h.19V13h.19v-.45H3.59v-.45H3.4v-.45H3.21v-.45H3v.45H2.83v.45H2.63v.45h.19v.55H2.63v-.36H2.44V12h-.1v-.45h.29v-.36h.19v-.27H3v-.45h.19v.45H3.4v.27h.19v.27h.19v-.81H3.59v-.36H3.4V10H3.21V9.79h0V9.61H3.4V9.3h.19V8.93h.19V8.12H3.59v.27H3.4v.27H3.21v.45H3V8.66H2.83V8.39H2.64V8H2.35V7.58h.1V6.86h.19V6.5h.19V7H2.63v.45h.19v.45H3v.45h.19V7.94H3.4V7.49h.19V7h.19V6.59H3.59V6.14H3.4V5.68H3.21V5.23H3V4.78ZM.71,4.33H.81V4.15h.1v.18H1v.18H.91V4.7H.81V4.51H.71ZM.71,4H.62v.27H.52V4.6h.1v.27h.1v.27H1V4.88h.1V4.6h.09V4.24H1.1V4H1V3.7H.71Zm1.06.36h.09V4.15H2v.18h.09v.18H2V4.7h-.1V4.51H1.77Zm.48,0h.1V4.15h.1v.18h.09v.18H2.44V4.7h-.1V4.51h-.1ZM1.77,4h-.1v.27h-.1V4.6h.1v.27h.1v.27h.29V4.88h.19v.27h.29V4.88h.1V4.6h.09V4.24H2.64V4h-.1V3.7H2.25V4H2.06V3.7H1.77Zm1.53.36h.1V4.15h.1v.18h.1v.18H3.5v.18H3.4V4.51H3.3Zm0-.63V4H3.21v.27h-.1V4.6h.1v.27H3.3v.27h.29V4.87h.1V4.6h.09V4.24H3.69V4h-.1V3.7ZM.52,3.52H.71V3H.52Zm1.54,0h.19V3H2.06Zm1.54,0h.19V3H3.59ZM1.29,2.26h.19V1.8H1.29Zm1.54,0H3V1.8H2.83ZM.52.9H.71V.36H.52ZM2.06.9h.19V.36H2.06ZM3.59.9h.19V.36H3.59ZM.91,1.8H1.1V1.36h.19V.9h.19v.45h.19V1.8h.19v.45H1.67v.45H1.48v.45H1.29V2.71H1.1V2.26H.91Zm1.54,0h.19V1.36h.19V.9H3v.45h.19V1.8H3.4v.45H3.21v.45H3v.45H2.83V2.71H2.64V2.26H2.44ZM2.83,0V.45H2.64V.9H2.44v.45H2.25V1.8H2.06V1.36H1.87V.9H1.67V.45H1.48V0H1.29V.45H1.1V.9H.91v.45H.71V1.8H.52v.45H.71v.45H.91v.45H1.1v.45h.19v.45h.19V3.61h.19V3.16h.19V2.71h.19V2.26h.19v.45h.19v.45h.19v.45h.19v.45H3V3.61h.19V3.16H3.4V2.71h.19V2.26h.19V1.8H3.59V1.36H3.4V.9H3.21V.45H3V0Z"/></g></g></g></g></svg>