<svg xmlns="http://www.w3.org/2000/svg" xmlns:xlink="http://www.w3.org/1999/xlink" viewBox="0 0 33.56 19.58"><defs><style>.cls-1{fill:none;}.cls-2{clip-path:url(#clip-path);}.cls-3{fill:#bc0030;}.cls-4{fill:#223e84;}.cls-5{fill:#fff;}.cls-6{fill:#502709;}.cls-7{fill:#348010;}.cls-8{fill:#245a08;}.cls-9{fill:#479513;}.cls-10{fill:#2a680b;}.cls-11{fill:#a7d5fd;}.cls-12{fill:#69000e;}.cls-13{fill:#ea002a;}.cls-14{fill:#3667c4;}.cls-15{fill:#f6d848;}.cls-16{fill:#a54918;}.cls-17{fill:#78497d;}.cls-18{fill:#88ff69;}.cls-19{fill:#163703;}.cls-20{fill:#1f4e06;}.cls-21{fill:#50b016;}.cls-22{fill:#7493fc;}.cls-23{clip-path:url(#clip-path-3);}.cls-24{fill:url(#radial-gradient);}.cls-25{clip-path:url(#clip-path-5);}.cls-26{fill:url(#radial-gradient-2);}.cls-27{fill:#f3b06a;}.cls-28{fill:#905f16;}.cls-29{fill:#f1a252;}.cls-30{clip-path:url(#clip-path-7);}.cls-31{fill:url(#radial-gradient-3);}.cls-32{clip-path:url(#clip-path-9);}.cls-33{fill:url(#radial-gradient-4);}.cls-34{fill:#71ca1b;}.cls-35{fill:#f6d828;}</style><clipPath id="clip-path"><rect class="cls-1" width="33.56" height="19.58"/></clipPath><clipPath id="clip-path-3"><path class="cls-1" d="M14.22,6a1.58,1.58,0,0,1-.58.05s0,0-.05,0v0h0a1.27,1.27,0,0,0,0,.36.85.85,0,0,0,.08.26.35.35,0,0,0,.11.15c.14.09.27,0,.35,0a.26.26,0,0,0,.11-.1,1.29,1.29,0,0,0,0-.17l0,0a.51.51,0,0,0,0-.12.06.06,0,0,0-.07-.08.4.4,0,0,0,0-.23s0-.07,0-.07h0"/></clipPath><radialGradient id="radial-gradient" cx="-300.78" cy="553.19" r="0.03" gradientTransform="translate(3469.07 -7268.33) scale(11.49 13.15)" gradientUnits="userSpaceOnUse"><stop offset="0" stop-color="#faf064"/><stop offset="1" stop-color="#d8521f"/></radialGradient><clipPath id="clip-path-5"><path class="cls-1" d="M14.25,6.52s0,0,0,0h0a1.7,1.7,0,0,1,0,.17.32.32,0,0,1-.12.1c-.08,0-.17.12-.33,0l0,0a.21.21,0,0,1-.11.24L13,7.39a.36.36,0,0,0,0,.25s0,0,0,.06a.52.52,0,0,0-.14.24s-.12,0-.12-.12,0-.12.06-.17a.7.7,0,0,0,0-.22s-.09-.06-.11-.07-.06,0-.05,0,0,0,.06,0a.34.34,0,0,0,0,.13l-.36.18.06.09a2.47,2.47,0,0,0,.16.57c.11.17.14.13.17.15l.08.08s.15,0,.17,0A.37.37,0,0,1,13,8.45c.08-.06.23-.21.23-.28a1.57,1.57,0,0,1,.08.48,4.29,4.29,0,0,0,.63.07,1.23,1.23,0,0,0,.45-.06,1.6,1.6,0,0,0,0-.3,1.08,1.08,0,0,0,.08.22c0,.07.08.21.17.22a.21.21,0,0,0,.16-.12V8.42h.34l.08,0,.13,0s.08,0,0-.06h0a.31.31,0,0,1,.1,0h.17s0,0,0,0-.1-.08-.16-.11l-.18-.06a.76.76,0,0,0-.24,0,.84.84,0,0,0-.23,0s0,0,0,0a.92.92,0,0,0-.05-.41.28.28,0,0,1,0-.2,3.41,3.41,0,0,0,0-.35.29.29,0,0,0-.26-.17.33.33,0,0,1-.29-.24,1.76,1.76,0,0,1,0-.36Z"/></clipPath><radialGradient id="radial-gradient-2" cx="-292.73" cy="559.72" r="0.03" gradientTransform="translate(15266.87 -19418.8) scale(52.11 34.71)" xlink:href="#radial-gradient"/><clipPath id="clip-path-7"><path class="cls-1" d="M19.33,6.09a.36.36,0,0,0,0,.23s-.1,0-.08.08,0,.06.06.12,0,0,0,0a1.14,1.14,0,0,0,0,.16.14.14,0,0,0,.08.08c.09,0,.24.14.38.05s.07-.1.11-.15a.43.43,0,0,0,.1-.31s0-.06,0-.11a.78.78,0,0,0,0-.21v0s0,0,0,0A1.59,1.59,0,0,1,19.35,6h0s0,.05,0,.07"/></clipPath><radialGradient id="radial-gradient-3" cx="-314.52" cy="553.12" r="0.03" gradientTransform="translate(3769.55 -7224.17) scale(11.92 13.07)" gradientUnits="userSpaceOnUse"><stop offset="0" stop-color="#882c24"/><stop offset="1" stop-color="#4d0a07"/></radialGradient><clipPath id="clip-path-9"><path class="cls-1" d="M19.32,6.52ZM19.1,8.37h0m.21-1.85a3,3,0,0,1,0,.36c0,.1-.1.15-.27.21a.38.38,0,0,0-.32.36c0,.07,0,.22,0,.29a.35.35,0,0,1,0,.2.49.49,0,0,0,0,.32c0,.05,0,0,0,0a.8.8,0,0,0-.23,0,.76.76,0,0,0-.24,0L18,8.28c-.07,0-.16.07-.17.11v0H18a.3.3,0,0,1,.1,0h0s0,.06,0,.06l.12,0,.08,0h.34v.26a.21.21,0,0,0,.17.12c.09,0,.13-.15.17-.22a1.3,1.3,0,0,0,.08-.22,1.54,1.54,0,0,0,0,.3,1.25,1.25,0,0,0,.45.06,4.12,4.12,0,0,0,.63-.07,1.51,1.51,0,0,1,.08-.48c0,.07.15.22.23.28a.35.35,0,0,1,.13.16c0,.07.15.05.17,0l.09-.08s.05,0,.16-.15a2.36,2.36,0,0,0,.16-.57l.06-.09-.37-.18a.24.24,0,0,0,0-.13s.06,0,.06,0,0-.07,0,0-.1,0-.11.07a.7.7,0,0,0,0,.22c0,.06.06.1.06.17s-.11.13-.11.13a.54.54,0,0,0-.15-.24s0,0,0-.06a.37.37,0,0,0,0-.25L20,7.07a.21.21,0,0,1-.11-.24l0,0c-.13.08-.32,0-.38-.06a.16.16,0,0,1-.07-.08.67.67,0,0,1,0-.16s0,0,0,0h0"/></clipPath><radialGradient id="radial-gradient-4" cx="-295.89" cy="559.71" r="0.03" gradientTransform="translate(15447.19 -19437.88) scale(52.14 34.74)" xlink:href="#radial-gradient-3"/></defs><title>BLZ</title><g id="Layer_2" data-name="Layer 2"><g id="_4" data-name="4"><g id="BELIZE"><g class="cls-2"><rect class="cls-3" width="33.56" height="19.58"/><rect class="cls-4" y="1.4" width="33.56" height="16.78"/><g class="cls-2"><path class="cls-5" d="M24.47,9.79A7.69,7.69,0,1,1,16.78,2.1a7.69,7.69,0,0,1,7.69,7.69Z"/><path class="cls-6" d="M16.77,16.25a6.5,6.5,0,1,1,6.5-6.5,6.51,6.51,0,0,1-6.5,6.5Zm0-12.76A6.26,6.26,0,1,0,23,9.75a6.26,6.26,0,0,0-6.25-6.26Z"/><path class="cls-7" d="M16.07,3c.58-.62,1.1.1,1.08.43S16.56,4.54,16,4c.55.14.71-.47,1-.48-.27,0-.39-.6-.95-.43Z"/><path class="cls-8" d="M16,4c.55.14.68-.46,1-.47-.16.19-.58.68-1,.47Z"/><path class="cls-8" d="M16.07,3c.58-.62,1.1.1,1.08.43-.47-.82-.61-.69-1.08-.43Z"/><path class="cls-7" d="M10.07,7.89c-.3-.78.57-.93.87-.77s.71,1-.06,1.21c.37-.43-.11-.84,0-1.09-.12.25-.71.08-.81.65Z"/><path class="cls-8" d="M10.87,8.33c.37-.43-.11-.81,0-1.06.1.23.36.82,0,1.06Z"/><path class="cls-8" d="M10.07,7.89c-.3-.78.57-.93.87-.77-.95.05-.89.24-.87.77Z"/><path class="cls-7" d="M23,7.11c.79.31.31,1.05,0,1.16s-1.22-.16-.86-.86c.07.55.7.49.81.74-.11-.25.42-.58.06-1Z"/><path class="cls-8" d="M22.14,7.41c.07.55.68.46.79.72-.24-.08-.85-.29-.79-.72Z"/><path class="cls-8" d="M23,7.11c.79.31.31,1.05,0,1.16.6-.73.43-.82,0-1.16Z"/><path class="cls-7" d="M12.76,15.37c-.84-.08-.58-.93-.31-1.12s1.22-.18,1.06.6c-.22-.51-.8-.27-1-.49.17.22-.25.67.22,1Z"/><path class="cls-8" d="M13.51,14.85c-.22-.51-.79-.26-1-.47.25,0,.9,0,1,.47Z"/><path class="cls-8" d="M12.76,15.37c-.84-.08-.58-.93-.31-1.12-.37.86-.18.9.31,1.12Z"/><path class="cls-7" d="M21.22,14.84c0,.84-.86.68-1.08.43s-.32-1.18.48-1.11c-.49.27-.19.82-.38,1,.2-.19.7.17,1-.33Z"/><path class="cls-8" d="M20.61,14.15c-.49.27-.17.8-.37,1,0-.25-.05-.89.37-1Z"/><path class="cls-8" d="M21.22,14.84c0,.84-.86.68-1.08.43.9.27.92.08,1.08-.43Z"/><path class="cls-7" d="M10.68,6.29c-.08-.84.81-.75,1-.51s.41,1.16-.39,1.15c.47-.31.12-.83.3-1-.18.21-.71-.11-1,.41Z"/><path class="cls-8" d="M11.34,6.92c.47-.31.11-.81.29-1,0,.25.12.88-.29,1Z"/><path class="cls-8" d="M10.68,6.29c-.08-.84.81-.75,1-.51-.92-.2-.93,0-1,.51Z"/><path class="cls-7" d="M11.59,14.16c-.84-.14-.52-1-.23-1.13s1.23-.1,1,.67c-.18-.53-.78-.33-.94-.56.16.22-.29.65.15,1Z"/><path class="cls-8" d="M12.38,13.69c-.18-.53-.76-.31-.92-.54.25,0,.9.11.92.54Z"/><path class="cls-8" d="M11.59,14.16c-.84-.14-.52-1-.23-1.13-.44.83-.25.88.23,1.13Z"/><path class="cls-7" d="M18.17,3.15c.76-.37,1,.48.86.79s-.94.79-1.22.05c.46.32.83-.19,1.09-.1-.26-.09-.15-.7-.73-.74Z"/><path class="cls-8" d="M17.81,4c.46.32.8-.19,1.06-.1-.22.12-.79.43-1.06.1Z"/><path class="cls-8" d="M18.17,3.15c.76-.37,1,.48.86.79-.15-.93-.33-.86-.86-.79Z"/><path class="cls-7" d="M19.83,15.89c-.38.76-1.08.22-1.16-.11s.26-1.2.94-.78c-.56,0-.55.65-.81.73.26-.08.54.46,1,.15Z"/><path class="cls-8" d="M19.6,15c-.56,0-.52.64-.79.72.1-.23.36-.82.79-.72Z"/><path class="cls-8" d="M19.83,15.89c-.38.76-1.08.22-1.16-.11.68.65.79.49,1.16.11Z"/><path class="cls-7" d="M23.52,8.6c.64.56-.07,1.09-.4,1.09s-1.1-.56-.51-1.1c-.12.54.49.69.51,1,0-.27.59-.4.41-1Z"/><path class="cls-8" d="M22.6,8.59c-.12.54.49.67.5.94-.2-.15-.7-.56-.5-.94Z"/><path class="cls-8" d="M23.52,8.6c.64.56-.07,1.09-.4,1.09.81-.48.68-.63.4-1.09Z"/><path class="cls-7" d="M12.79,4.17c.19-.83,1-.46,1.16-.17s0,1.23-.73,1c.54-.15.38-.76.62-.9-.24.14-.64-.33-1,.09Z"/><path class="cls-8" d="M13.21,5c.54-.15.36-.74.6-.88,0,.25-.16.88-.6.88Z"/><path class="cls-8" d="M12.79,4.17c.19-.83,1-.46,1.16-.17-.82-.47-.88-.29-1.16.17Z"/><path class="cls-7" d="M10.28,11.2c-.74-.41-.17-1.08.16-1.14s1.19.31.74,1c0-.56-.63-.57-.7-.83.07.26-.49.52-.2,1Z"/><path class="cls-8" d="M11.18,11c0-.56-.62-.54-.69-.81.23.11.81.4.69.81Z"/><path class="cls-8" d="M10.28,11.2c-.74-.41-.17-1.08.16-1.14-.68.65-.52.76-.16,1.14Z"/><path class="cls-7" d="M21,4.69c.84-.12.79.76.57,1s-1.14.46-1.18-.33c.34.44.85.07,1.07.24-.22-.17.08-.71-.46-.93Z"/><path class="cls-8" d="M20.42,5.38c.34.44.82.06,1,.23-.25,0-.88.17-1-.23Z"/><path class="cls-8" d="M21,4.69c.84-.12.79.76.57,1,.16-.93,0-.92-.57-1Z"/><path class="cls-7" d="M16.25,16.7c-.77.34-1-.52-.82-.82s1-.75,1.22,0c-.45-.34-.84.16-1.09.06.25.1.12.7.7.77Z"/><path class="cls-8" d="M16.64,15.88c-.45-.34-.81.16-1.07.06.22-.11.81-.4,1.07-.06Z"/><path class="cls-8" d="M16.25,16.7c-.77.34-1-.52-.82-.82.11.93.29.87.82.82Z"/><path class="cls-7" d="M23.21,12c.35.77-.52,1-.82.82s-.76-1,0-1.21c-.34.45.16.83.06,1.08.1-.25.71-.12.77-.7Z"/><path class="cls-8" d="M22.37,11.61c-.34.45.16.8.06,1.06-.12-.22-.41-.8-.06-1.06Z"/><path class="cls-8" d="M23.21,12c.35.77-.52,1-.82.82.94-.11.88-.29.82-.82Z"/><path class="cls-7" d="M9.94,9.53c-.49-.69.32-1,.65-1s.93.81.24,1.19c.25-.5-.31-.79-.26-1.06-.05.27-.67.25-.63.83Z"/><path class="cls-8" d="M10.83,9.76c.25-.5-.31-.76-.26-1,.16.2.55.71.26,1Z"/><path class="cls-8" d="M9.94,9.53c-.49-.69.32-1,.65-1-.9.28-.81.45-.65,1Z"/><path class="cls-7" d="M14.55,16.12c-.79.29-.93-.58-.77-.87s1-.69,1.22.08c-.42-.37-.85.1-1.1,0,.25.12.07.71.65.81Z"/><path class="cls-8" d="M15,15.33c-.42-.37-.82.1-1.07,0,.23-.1.83-.35,1.07,0Z"/><path class="cls-8" d="M14.55,16.12c-.79.29-.93-.58-.77-.87,0,.94.23.89.77.87Z"/><path class="cls-7" d="M14.29,3.38c.47-.7,1.1-.08,1.14.26s-.42,1.15-1,.65c.56.05.62-.57.89-.62-.27,0-.48-.53-1-.28Z"/><path class="cls-8" d="M14.4,4.28c.56.05.6-.56.87-.61-.13.21-.47.76-.87.61Z"/><path class="cls-8" d="M14.29,3.38c.47-.7,1.1-.08,1.14.26-.59-.73-.72-.58-1.14-.26Z"/><path class="cls-7" d="M22.46,13.67c0,.84-.83.72-1.06.48S21,13,21.82,13c-.48.29-.15.83-.33,1,.19-.2.7.13,1-.38Z"/><path class="cls-8" d="M21.82,13c-.48.29-.13.81-.32,1,0-.25-.09-.89.32-1Z"/><path class="cls-8" d="M22.46,13.67c0,.84-.83.72-1.06.48.92.23.93,0,1.06-.48Z"/><path class="cls-7" d="M22.18,5.76c.83.17.49,1,.19,1.15s-1.23.05-1-.7c.16.54.77.36.92.59-.15-.23.31-.64-.12-1Z"/><path class="cls-8" d="M21.37,6.2c.16.54.75.34.9.57-.25,0-.89-.14-.9-.57Z"/><path class="cls-8" d="M22.18,5.76c.83.17.49,1,.19,1.15.46-.82.28-.88-.19-1.15Z"/><path class="cls-7" d="M11.7,5.14c0-.84.88-.66,1.09-.4s.29,1.19-.51,1.1c.5-.26.21-.82.41-1-.2.19-.7-.18-1,.31Z"/><path class="cls-8" d="M12.29,5.84c.5-.26.19-.8.39-1,0,.25,0,.9-.39,1Z"/><path class="cls-8" d="M11.7,5.14c0-.84.88-.66,1.09-.4-.9-.29-.92-.1-1.09.4Z"/><path class="cls-7" d="M10.7,12.72c-.76-.38-.21-1.07.12-1.15s1.2.27.77.94c0-.56-.65-.55-.73-.81.08.26-.47.54-.16,1Z"/><path class="cls-8" d="M11.59,12.51c0-.56-.64-.52-.72-.78.23.1.82.37.72.78Z"/><path class="cls-8" d="M10.7,12.72c-.76-.38-.21-1.07.12-1.15-.66.67-.5.77-.12,1.15Z"/><path class="cls-7" d="M19.74,3.77c.79-.3.94.57.78.87s-1,.7-1.22-.07c.42.37.85-.11,1.09,0-.25-.12-.08-.71-.65-.81Z"/><path class="cls-8" d="M19.3,4.56c.42.37.82-.11,1.07,0-.23.1-.83.35-1.07,0Z"/><path class="cls-8" d="M19.74,3.77c.79-.3.94.57.78.87-.05-.94-.24-.89-.78-.87Z"/><path class="cls-7" d="M17.89,16.51c-.68.5-1.06-.3-1-.62s.79-.95,1.19-.26c-.51-.23-.78.33-1.05.29.27,0,.27.66.85.6Z"/><path class="cls-8" d="M18.09,15.63c-.51-.23-.76.33-1,.29.19-.16.7-.56,1-.29Z"/><path class="cls-8" d="M17.89,16.51c-.68.5-1.06-.3-1-.62.31.89.47.79,1,.62Z"/><path class="cls-7" d="M23.47,10.16c.58.62-.17,1.08-.51,1s-1-.67-.4-1.14c-.18.53.42.74.41,1,0-.27.63-.34.5-.91Z"/><path class="cls-8" d="M22.56,10.06c-.18.53.41.71.4,1-.18-.17-.64-.63-.4-1Z"/><path class="cls-8" d="M23.47,10.16c.58.62-.17,1.08-.51,1,.85-.4.74-.56.51-1Z"/><path class="cls-9" d="M12.61,12.43c.06,0,0-.2,0-.28s.19.21.28.26.62-.21.62-.21l.13-.24.07.2s.15-.17.19-.24,0,.13,0,.19.13.08.11.21.17-.09.17-.09l.5,0a1.69,1.69,0,0,1,.21-.47l0,.19.2-.21a2.68,2.68,0,0,0,1.69,1.6,2.71,2.71,0,0,0,1.64-1.49l.27.28a2.33,2.33,0,0,0,.25-.09,2.76,2.76,0,0,1,.51.16.62.62,0,0,1,.13.06s0-.14,0-.14.23,0,.21.17.05-.12.1-.14.15.11.17.15.52.1.6.15a.26.26,0,0,1,.05.11h.19a.12.12,0,0,0-.06.1.16.16,0,0,1-.09.15c-.06,0,0,.05.08.06s0,.12-.17.18c0,0,0,.1,0,.13s-.15,0-.17,0a.5.5,0,0,0-.05.15l-.2-.08s-.06.06,0,.1-.29,0-.35-.14-.1,0-.08.07a1.06,1.06,0,0,0-.27-.14l0,.07a.72.72,0,0,0-.18-.08s0,.06,0,.06l-.2-.12-.08.12-.2-.11s-.05.06-.09.08a.18.18,0,0,0-.15-.08.42.42,0,0,0,0,.14l-.29-.06s0,.05,0,.1a1.22,1.22,0,0,1-.22-.08v.08s-.15,0-.18,0l-.09.13h-.14l0,.12s-.27-.08-.29,0a.17.17,0,0,0,0,.11s-.21,0-.23,0l0,.1s-.27-.08-.34,0a.55.55,0,0,1-.14.11s0,0,0,0l-.08-.12s-.1.05-.15,0-.22.08-.28.05,0-.08,0-.1a.13.13,0,0,0-.15,0l-.08-.13c-.05-.09-.13,0-.13,0v-.11h-.15a.13.13,0,0,1-.11-.09,1.84,1.84,0,0,1-.26,0l.05-.05a1.59,1.59,0,0,1-.37,0c-.07,0,.07-.11.07-.11L14.59,13s-.36.05-.41.05-.06-.08-.06-.08a.53.53,0,0,1-.14.09s0-.13,0-.14-.2.05-.22.11,0-.09,0-.12a1,1,0,0,1-.14.18s0-.08,0-.08-.12.15-.16.16v-.11s-.34.19-.44.16,0-.07,0-.1h-.21l-.17,0c-.05,0,.08-.06.17,0s-.24-.09-.31,0,0-.09.1-.12-.16-.16-.26-.15a.29.29,0,0,1,.19,0s-.1-.27-.16-.3a.81.81,0,0,1,.29,0Z"/><path class="cls-10" d="M16.6,13.69h0s0,0,0,0l-.08-.1a.2.2,0,0,1-.12,0h0l-.11,0-.12,0,0,0s0-.07,0-.08a.09.09,0,0,0-.13,0h0s-.05,0-.1-.13-.1,0-.11,0l0-.1h-.14a.12.12,0,0,1-.11-.09,1.21,1.21,0,0,1-.25,0l0-.06a.94.94,0,0,1-.37,0c0-.06,0-.11.07-.12a3.08,3.08,0,0,1-.33-.07,1.09,1.09,0,0,0-.27,0l-.14,0s-.06-.06-.07-.07a.33.33,0,0,1-.13.08s-.05-.11,0-.15-.18.07-.19.11a.17.17,0,0,1-.06-.11.65.65,0,0,1-.12.18s0,0,0-.07a.44.44,0,0,1-.15.16v-.12a1,1,0,0,1-.41.17s0-.08,0-.11a.64.64,0,0,1-.2,0l-.1,0-.07,0s0-.06.1-.06a.55.55,0,0,0-.24,0s0,0,0-.08a.18.18,0,0,1,.1-.06s-.16-.13-.25-.13h0c.1,0,.25.13.26.13s-.07,0-.09.07a.07.07,0,0,0,0,.05s0,0,0,0a.85.85,0,0,1,.25.06h-.05a.21.21,0,0,0-.12,0l.08,0,.09,0a1.48,1.48,0,0,0,.21,0,.25.25,0,0,0,0,.1,1.76,1.76,0,0,0,.42-.17v.11l.15-.17a.68.68,0,0,1,0,.08,1.21,1.21,0,0,0,.14-.19.64.64,0,0,0,.06.12c0-.05.17-.1.2-.11a.41.41,0,0,0,0,.15.76.76,0,0,0,.12-.08s0,.07.07.07l.13,0,.25,0,.36.08s-.08.08-.08.1h.05a2.6,2.6,0,0,0,.33,0l0,.07.25,0a.16.16,0,0,0,.11.09h.15l0,.1a.08.08,0,0,1,.13,0l.09.13s.09-.06.14,0,0,.1,0,.1l.14,0,.11,0h0a.3.3,0,0,0,.12,0l.1.12,0,0h0a.6.6,0,0,0,.14-.11c.07,0,.33,0,.34,0v-.09l.24,0a.1.1,0,0,1,0-.1s.3,0,.3,0l0-.11h.15l.09-.13a.62.62,0,0,0,.19,0v-.08l.24.08s0-.08,0-.09l.33.05s0-.12,0-.13a.19.19,0,0,1,.17.07l0,0s0,0,0,0l.22.11.06-.12.19.1a0,0,0,0,1,0,0c.07,0,.2.06.21.07l0-.07a1,1,0,0,1,.27.13,2,2,0,0,0-.26-.11l0,.06a1.4,1.4,0,0,0-.19-.08s0,0,0,0h0l-.19-.1-.06.12s-.17-.07-.22-.11a0,0,0,0,0,0,0,.1.1,0,0,1,0,0s-.06-.08-.14-.08a.24.24,0,0,0,0,.13,1.6,1.6,0,0,1-.3,0s0,0,0,.08a.59.59,0,0,1-.24-.07v.07a.36.36,0,0,1-.2,0l-.08.13h-.15l0,.11a2.56,2.56,0,0,0-.25,0,.09.09,0,0,0,0,.11c-.06,0-.23,0-.25,0v.09s-.19,0-.29,0h-.05a.49.49,0,0,1-.14.11Zm.19-.29a2.71,2.71,0,0,1-1.7-1.61L14.9,12l-.06-.2a2.47,2.47,0,0,0-.2.47l-.5,0s-.11.13-.16.13a0,0,0,0,1,0,0,.14.14,0,0,0-.07-.13s-.06-.05,0-.09a.62.62,0,0,0,.06-.17.26.26,0,0,1,0,.19s0,0,0,.06a.16.16,0,0,1,.07.15s.11,0,.15-.09l.5,0a1.37,1.37,0,0,1,.21-.47l.06.2.19-.21a2.74,2.74,0,0,0,1.7,1.6,2.71,2.71,0,0,0,1.63-1.49l.29.28.24-.09h0a3.16,3.16,0,0,1,.51.16l.13.07a.26.26,0,0,0,0-.13s.22,0,.24.14a.23.23,0,0,1,.08-.12c.07,0,.16.12.19.16a1.42,1.42,0,0,0,.29.07,1.54,1.54,0,0,1,.3.07.27.27,0,0,1,.06.11l.18,0s-.05,0-.05.11a.16.16,0,0,1-.1.15s0,0,.08,0,0,0,0,0-.09.13-.21.17h0s0,.09,0,.11l0,0c-.07,0-.11,0-.13,0s0,.1,0,.14a.69.69,0,0,1-.22-.07s0,0,0,.06h0a.07.07,0,0,1,0-.08l.21.07s0-.14,0-.15a.27.27,0,0,0,.14,0h0c-.07,0-.06-.08,0-.12s.21-.12.2-.15-.14,0-.14-.06h0l0,0a.15.15,0,0,0,.09-.13.13.13,0,0,1,.07-.11l-.19,0a.42.42,0,0,0-.06-.11,1.6,1.6,0,0,0-.29-.06c-.21,0-.3-.06-.31-.08s-.11-.15-.15-.15-.08.1-.1.14h0c0-.11-.22-.15-.22-.15a.19.19,0,0,1,0,.14l-.15-.06a3.46,3.46,0,0,0-.5-.16l-.26.08-.29-.29a2.66,2.66,0,0,1-1.63,1.5Zm3.42,0c-.09,0-.26,0-.3-.12s-.06,0-.06,0h0s.07-.06.08-.06.24.12.32.14Zm-7.92-.58s.11-.07.19,0-.12-.26-.17-.29a.51.51,0,0,1,.3,0s0-.08,0-.12a.48.48,0,0,1,0-.15c.05,0,.09,0,.16.1a.53.53,0,0,0,.13.14h0a2.41,2.41,0,0,0,.61-.21l.12-.23.09.19s.13-.17.17-.23h0a2.54,2.54,0,0,1-.18.24l-.09-.2-.11.24a2.32,2.32,0,0,1-.6.22.43.43,0,0,1-.17-.15c0-.05-.1-.12-.12-.12a.34.34,0,0,0,0,.15c0,.08,0,.13,0,.14h-.11l-.2,0c.07,0,.16.26.17.29h-.06a.35.35,0,0,0-.13,0Z"/><path class="cls-11" d="M15.3,12.21a2.92,2.92,0,0,1-.24-.53l1.73-1.52,1.72,1.52a2.51,2.51,0,0,1-.25.54h0l-.13,0a.28.28,0,0,1-.1.06.14.14,0,0,1-.11-.05.24.24,0,0,1-.15.05.15.15,0,0,1-.11-.06s-.08.06-.13,0a.23.23,0,0,1-.09,0,.12.12,0,0,1-.11,0,.43.43,0,0,1-.12,0,.65.65,0,0,1-.16.05c-.06,0-.12-.06-.12-.06a.36.36,0,0,1-.11.06.76.76,0,0,1-.15-.06,1,1,0,0,1-.17,0,.8.8,0,0,1-.16,0l-.17,0a.45.45,0,0,1-.14,0,.35.35,0,0,1-.15,0l-.1,0a.44.44,0,0,1-.17,0,.51.51,0,0,1-.14-.06s0,0-.14.06Z"/><path d="M17.17,11.92a.51.51,0,0,0,.13-.36.31.31,0,0,0-.15-.21v0a.32.32,0,0,1,.15.22.45.45,0,0,1-.15.36Z"/><path class="cls-12" d="M15.6,11.85a3.42,3.42,0,0,0,.35.14,2.48,2.48,0,0,0,.85.11c.75,0,.74-.12.74-.12l-.27.27A7.91,7.91,0,0,1,16,12.18a2.55,2.55,0,0,1-.41-.33Z"/><path d="M17.17,12.26A6,6,0,0,1,16,12.19a2.3,2.3,0,0,1-.41-.33A2.14,2.14,0,0,1,16,12a2.58,2.58,0,0,0,.84.11,1.61,1.61,0,0,0,.69-.08l0,0s0,0,0,.06h0l-.21.24Zm-1.58-.4a3.75,3.75,0,0,0,.42.31,6.37,6.37,0,0,0,1.17.07h.1l.21-.22c-.06.05-.24.1-.69.1a2.5,2.5,0,0,1-.85-.11,2.58,2.58,0,0,1-.36-.15Z"/><polygon points="16.07 12.03 16.11 11.4 15.63 11.88 15.62 11.86 16.11 11.39 16.07 12.03 16.07 12.03"/><polygon points="16.33 12.09 16.31 12.09 16.31 11.03 16.33 12.09 16.33 12.09"/><polygon points="17.18 12.09 17.16 12.09 17.16 10.97 17.18 12.09 17.18 12.09"/><polygon points="16.75 12.11 16.73 12.11 16.73 10.91 16.75 12.11 16.75 12.11"/><polygon class="cls-13" points="16.32 11.09 16.1 11.16 16.32 11.19 16.32 11.09"/><path d="M16.33,11.19l-.23,0,.22-.09v.11Zm0-.1-.21.08h.21v-.09Z"/><polygon class="cls-13" points="16.74 10.93 16.51 11.02 16.74 11.02 16.74 10.93 16.74 10.93"/><path d="M16.75,11h-.24l.23-.11V11Zm0-.11-.22.1h.22v-.09Z"/><polygon class="cls-13" points="17.17 10.99 16.93 11.08 17.17 11.09 17.17 10.99"/><path d="M17.18,11.1h-.25l.23-.11v.12Zm0-.11-.22.1h.22V11Z"/><path class="cls-5" d="M15.7,11.81l.42-.41,0,.24s-.22.14-.22.24l-.18-.08Z"/><path d="M15.89,11.9l-.2-.09.41-.42v.25s-.21.15-.21.24v0Zm.21-.5-.4.42.17.05c0-.1.21-.23.22-.24V11.4Z"/><path class="cls-5" d="M15.93,11.89a.37.37,0,0,1,.16-.19V12l-.15-.06Z"/><path d="M16.08,12l-.16-.07a.33.33,0,0,1,.16-.21V12Z"/><path class="cls-5" d="M16.53,11.19a1.1,1.1,0,0,1,.3,0,.8.8,0,0,0,0,.2s-.23-.05-.33,0,0-.16,0-.24Z"/><path d="M16.49,11.44v0s0-.17,0-.24a.86.86,0,0,1,.31,0,1.54,1.54,0,0,0,0,.21s-.08,0-.16,0a.27.27,0,0,0-.17,0Zm.2-.26h-.16a.34.34,0,0,0,0,.21c.08-.06.32,0,.33,0s0-.18,0-.2Z"/><path class="cls-5" d="M16.17,11.23a1,1,0,0,1,.3,0,.72.72,0,0,0,0,.22s-.19-.11-.29,0-.06-.13,0-.2Z"/><path d="M16.48,11.48l0,0s-.2-.09-.28,0-.08-.14,0-.22a.86.86,0,0,1,.31,0,1.33,1.33,0,0,0,0,.23l0,0Zm-.21-.09a.46.46,0,0,1,.17,0,.83.83,0,0,1,0-.21h-.29c-.05.06,0,.19,0,.19s0,0,.09,0Z"/><path class="cls-5" d="M16.15,11.45a1.44,1.44,0,0,1,.3,0,.63.63,0,0,0,0,.2s-.22,0-.32,0,0-.16,0-.23Z"/><path d="M16.13,11.7h0a.31.31,0,0,1,0-.25,1.19,1.19,0,0,1,.31,0,1.62,1.62,0,0,0,0,.21s-.08,0-.15,0a.27.27,0,0,0-.17,0Zm.19-.25h-.16c0,.06,0,.17,0,.21a.64.64,0,0,1,.32,0s0-.18,0-.2Z"/><path class="cls-5" d="M16.49,11.42a1.74,1.74,0,0,1,.37,0,.3.3,0,0,0,0,.24s-.27-.07-.37,0-.09-.16,0-.23Z"/><path d="M16.51,11.67h0s-.09-.17,0-.25a1.46,1.46,0,0,1,.38,0s0,.15,0,.24a1.39,1.39,0,0,1-.22,0,.23.23,0,0,0-.15,0Zm.25-.26-.27,0c0,.06,0,.18,0,.21s.36,0,.36,0,0-.22,0-.23Z"/><path class="cls-5" d="M16.13,11.69a2.15,2.15,0,0,1,.33,0,1.11,1.11,0,0,0,0,.27s-.27-.06-.32,0-.09-.22,0-.32Z"/><path d="M16.13,12v0s-.09-.23,0-.33a2,2,0,0,1,.34,0,2,2,0,0,0,0,.28s-.1,0-.19,0-.11,0-.13,0v0Zm0-.34c-.06.08,0,.24,0,.29s.31,0,.32,0,0-.22,0-.26Z"/><path class="cls-5" d="M16.51,11.69a3.13,3.13,0,0,1,.42,0,.45.45,0,0,0,0,.34s-.37-.11-.42,0-.09-.22,0-.32Z"/><path d="M17,12h0s-.38-.09-.42,0-.11-.23,0-.33a2.26,2.26,0,0,1,.42,0,.55.55,0,0,0,0,.35v0ZM16.62,12a1.38,1.38,0,0,1,.3,0,.49.49,0,0,1,0-.33h-.41c-.08.09,0,.31,0,.31s0,0,.1,0Z"/><path class="cls-5" d="M16.94,11.19a1.11,1.11,0,0,1,.3,0,.71.71,0,0,0,0,.2s-.24-.05-.33,0,0-.16,0-.24Z"/><path d="M16.91,11.44v0a.33.33,0,0,1,0-.24.89.89,0,0,1,.31,0,1.18,1.18,0,0,0,0,.21s-.08,0-.16,0a.27.27,0,0,0-.17,0Zm.2-.26h-.16a.34.34,0,0,0,0,.21c.08-.06.32,0,.33,0s0-.18,0-.2Z"/><path class="cls-5" d="M16.94,11.42a1.31,1.31,0,0,1,.3,0,.72.72,0,0,0,0,.2s-.24-.05-.33,0,0-.16,0-.23Z"/><path d="M16.91,11.67v0a.33.33,0,0,1,0-.24,1,1,0,0,1,.31,0,1.19,1.19,0,0,0,0,.21s-.08,0-.16,0a.26.26,0,0,0-.17,0Zm.2-.25h-.16a.34.34,0,0,0,0,.21.67.67,0,0,1,.33,0s0-.18,0-.2Z"/><path class="cls-5" d="M17,11.67a1.08,1.08,0,0,1,.3,0,1.39,1.39,0,0,0,0,.3s-.2-.09-.29,0-.06-.21,0-.29Z"/><path d="M17.27,12h0S17,11.9,17,12s-.08-.22,0-.3a.85.85,0,0,1,.31,0,2.07,2.07,0,0,0,0,.3l0,0Zm-.14-.32H17c-.05.06,0,.27,0,.27s.21,0,.26,0a1.87,1.87,0,0,1,0-.29Z"/><path class="cls-13" d="M17.31,11.49s.14,0,.14,0a.5.5,0,0,1,0,.26l-.12,0a.61.61,0,0,0,0-.19Z"/><path d="M17.45,11.72l-.14,0a1.22,1.22,0,0,0,0-.2s.1-.05.14-.05a.35.35,0,0,1,0,.27Zm0-.27a.23.23,0,0,0-.12,0,.74.74,0,0,1,0,.2h.11a.51.51,0,0,0,0-.25Z"/><path class="cls-5" d="M17.32,11.69s.05.2.13.23l-.1.11a.33.33,0,0,1-.12-.18.49.49,0,0,0,.1-.16Z"/><path d="M17.35,12h0a.32.32,0,0,1-.13-.19.65.65,0,0,0,.1-.16c0,.05.09.2.14.22l-.1.14Zm0-.35a.32.32,0,0,1-.08.17.31.31,0,0,0,.12.16l.09-.11c-.07,0-.13-.21-.13-.22Z"/><path class="cls-14" d="M18.25,12.24a2.68,2.68,0,0,1-1.47,1.16,2.75,2.75,0,0,1-1.48-1.17h0c.13,0,.14-.06.14-.06a.69.69,0,0,0,.14.06.44.44,0,0,0,.17,0l.1,0a.36.36,0,0,0,.15,0,.45.45,0,0,0,.14,0l.16,0a.84.84,0,0,0,.16,0,.91.91,0,0,0,.17,0,.81.81,0,0,0,.15.06.36.36,0,0,0,.11-.06s.06.07.12.06a.65.65,0,0,0,.16-.05.43.43,0,0,0,.12,0,.12.12,0,0,0,.11,0,.23.23,0,0,0,.09,0c.06,0,.13,0,.13,0a.15.15,0,0,0,.11.06.24.24,0,0,0,.15-.05.14.14,0,0,0,.11.05.28.28,0,0,0,.1-.06l.13,0Z"/><path d="M18,12.37h0a.2.2,0,0,1-.12-.07.15.15,0,0,1-.23,0,.12.12,0,0,1-.12,0,.36.36,0,0,1-.13,0l-.17.06c-.07,0-.13-.06-.13-.07a.83.83,0,0,1-.18.05.89.89,0,0,1-.15,0,.27.27,0,0,1-.11,0,1,1,0,0,1-.18-.05.84.84,0,0,1-.17,0,.58.58,0,0,1-.14,0,.35.35,0,0,1-.16,0l-.1,0a.38.38,0,0,1-.18,0,.47.47,0,0,1-.15-.06s0,0-.14.06c.12,0,.13-.07.13-.07l.16,0a.42.42,0,0,0,.17,0l.1,0a.31.31,0,0,0,.15,0,.79.79,0,0,0,.14,0l.17,0a.76.76,0,0,0,.18.06.3.3,0,0,0,.11,0l.15,0,.19,0s.06.07.13.06l.18-.05a.46.46,0,0,0,.13,0,.13.13,0,0,0,.11,0h0s.05,0,.1,0,.11,0,.13-.05a.29.29,0,0,0,.13.06.22.22,0,0,0,.15,0s0,0,.07,0v0s-.07,0-.08,0a.18.18,0,0,1-.13.06Z"/><path class="cls-5" d="M16.79,8.42v1.74l-1.73,1.53a3.42,3.42,0,0,1-.18-1.11V8.42Z"/><path d="M15.05,11.71v0a3.45,3.45,0,0,1-.18-1.11V8.42h1.92v1.76l-1.75,1.55Zm1.72-3.3H14.88v2.15a3.4,3.4,0,0,0,.17,1.08l1.71-1.51V8.42Z"/><path class="cls-15" d="M16.79,8.42v1.74l1.72,1.53a3.42,3.42,0,0,0,.18-1.11V8.42Z"/><path d="M18.51,11.71l-1.74-1.54V8.42h1.91v2.18a3.42,3.42,0,0,1-.18,1.11v0Zm.16-3.3H16.79v1.73l1.7,1.5a3.49,3.49,0,0,0,.17-1.08V8.42Z"/><path class="cls-16" d="M15,8.9l1.08,1.18a.37.37,0,0,1,.1.26s.11.1.13.1.06-.07.06-.08a.22.22,0,0,0,0-.06s0,0,.09.06.08,0,.05-.09a.14.14,0,0,0-.08-.1s-.12,0-.14-.07a1.76,1.76,0,0,0-.16-.21l-.82-1.22a.22.22,0,0,0-.26,0,.24.24,0,0,0,0,.27Z"/><path d="M16.34,10.45h0c-.09,0-.14-.08-.14-.11a.37.37,0,0,0-.1-.25L15,8.9a.22.22,0,0,1,0-.16A.18.18,0,0,1,15,8.62a.23.23,0,0,1,.27,0l.82,1.22a1.44,1.44,0,0,1,.16.21.39.39,0,0,0,.14.06.15.15,0,0,1,.09.1.09.09,0,0,1,0,.08l0,0a.18.18,0,0,1-.08,0v0a.14.14,0,0,1,0,.08l0,0ZM15.13,8.6a.14.14,0,0,0-.09,0,.15.15,0,0,0,0,.11.19.19,0,0,0,0,.15l1.08,1.18a.39.39,0,0,1,.1.27s0,.05.12.1h0l0,0a.09.09,0,0,0,0-.06.22.22,0,0,0,0-.06h0l.06,0s0-.06,0-.08,0-.07-.08-.09-.13,0-.15-.07a1.55,1.55,0,0,0-.16-.21l-.82-1.22a.23.23,0,0,0-.16-.07Z"/><polygon points="16.15 10.03 15.06 8.71 15.08 8.69 16.15 10.03 16.15 10.03"/><path class="cls-12" d="M15.07,10.38l1.06-1.26a.48.48,0,0,0,.14.13l-1,1.26a.19.19,0,0,1-.16-.12Z"/><path d="M15.23,10.51a.2.2,0,0,1-.17-.12l1.06-1.27s.07.08.15.13l-1,1.27Zm.9-1.39-1,1.27a.19.19,0,0,0,.15.1h0l1-1.25a.39.39,0,0,1-.14-.12Z"/><path class="cls-5" d="M16,9a.25.25,0,0,1,.2-.24.7.7,0,0,1,.4.34s-.08.24-.24.23A.62.62,0,0,1,16,9Z"/><path d="M16.39,9.31h0A.65.65,0,0,1,16,9a.25.25,0,0,1,.21-.25.69.69,0,0,1,.41.35s-.09.24-.24.24Zm-.17-.57A.23.23,0,0,0,16,9a.61.61,0,0,0,.36.32h0c.14,0,.22-.22.22-.22a.69.69,0,0,0-.39-.33Z"/><path class="cls-17" d="M16.38,9.27l-.05,0A.73.73,0,0,1,16.06,9l.05,0a.58.58,0,0,0,.2.23.14.14,0,0,1,0-.09.2.2,0,0,1,.19,0V9.1c-.07,0-.12,0-.14,0a.12.12,0,0,0,0,.09v.06Z"/><path class="cls-12" d="M18.59,10.41a.32.32,0,0,1-.11,0c-.07-.08-.16-.2-.26-.3l-1-1.28.11-.1.93,1.1a4.37,4.37,0,0,1,.39.44.1.1,0,0,1,0,.11Z"/><path d="M18.48,10.47l-.08-.09-.18-.22-1-1.28.11-.12.95,1.1a5.31,5.31,0,0,1,.38.44.1.1,0,0,1,0,.12.36.36,0,0,1-.11,0ZM17.29,8.78l-.09.11,1,1.26.19.22.06.08.1,0a.09.09,0,0,0,0-.1,4.48,4.48,0,0,0-.38-.44l-.93-1.1Z"/><path class="cls-5" d="M17.55,9l-.17-.2s-.13,0-.15.08a.43.43,0,0,1-.33.17.74.74,0,0,0,.35.43s.1-.29.2-.34.1-.08.1-.15Z"/><path d="M17.25,9.54h0a.75.75,0,0,1-.36-.44.46.46,0,0,0,.34-.17c0-.07.15-.09.16-.09l.17.2c0,.08-.1.16-.1.16s-.2.34-.2.34Zm-.36-.44a.87.87,0,0,0,.35.41c0-.06.11-.29.2-.34h0s.1-.07.09-.13l-.16-.19s-.11,0-.13.08a.43.43,0,0,1-.34.17Z"/><path class="cls-17" d="M17.42,9.15S17.28,9,17.24,9l0,0,.17.2Z"/><path class="cls-1" d="M17.31,9a.33.33,0,0,1-.06.13Z"/><path class="cls-1" d="M17.32,9.06a.19.19,0,0,1-.06.12Z"/><path class="cls-1" d="M17.35,9.09a.13.13,0,0,1,0,.07Z"/><path class="cls-1" d="M17.36,9.11s0,0,0,0Z"/><path class="cls-17" d="M17,9.16A1.52,1.52,0,0,1,17.2,9l0,0a.83.83,0,0,1-.2.12Z"/><path class="cls-17" d="M17.06,9.18a.55.55,0,0,1,.11-.12l0,0a.71.71,0,0,1-.13.09Z"/><path class="cls-1" d="M17.17,9.13a.37.37,0,0,1-.1.07Z"/><path class="cls-1" d="M17.15,9.17l-.06,0Z"/><path class="cls-5" d="M17.1,9.95l1.18-1.17.29.31s-.06,0-.08,0,0,.08,0,.08-.05,0-.08,0,0,.08,0,.08,0,0-.07,0,0,.09,0,.09-.06,0-.08,0,0,.09,0,.09-.06,0-.1,0,0,.08,0,.08-.08,0-.11,0a.08.08,0,0,0,0,.09s-.06,0-.08,0,0,.09,0,.09-.06,0-.09,0a.06.06,0,0,0,0,.08s0,0-.08,0,0,.09,0,.09,0,0-.08,0a.06.06,0,0,0,0,.08.07.07,0,0,0-.09,0,.07.07,0,0,0,0,.09s-.06,0-.09,0,0,.07,0,.07,0,0-.08,0,0,.09,0,.09,0,0-.07,0,0,.1,0,.1,0-.05-.07,0,0,.08,0,.08-.08,0-.06,0l-.24-.27Z"/><path d="M17.44,10.28h0c-.07,0-.07,0-.07,0L17.1,10l1.18-1.18.3.31s0,0-.07,0,0,0,0,.06,0,0-.06,0,0,.06,0,.08-.05,0-.07,0,0,0,0,.09,0,0-.07,0,0,0,0,.08,0,0-.06,0h0v0a.07.07,0,0,0,0,0s0,0-.06,0l0,0a.07.07,0,0,0,0,.08s-.05,0-.07,0,0,0,0,.08,0,0-.06,0l0,0a0,0,0,0,0,0,.07s0,0-.07,0,0,.05,0,.08,0,0-.06,0,0,.08,0,.08,0,0-.05,0,0,.09,0,.09,0,0-.06,0a.05.05,0,0,0,0,.08s0,0-.06,0,0,.06,0,.08l-.06,0s0,.08,0,.09l-.06,0s0,.06,0,.08l0,0Zm-.08-.06h0a.06.06,0,0,1,0-.07h.06a.08.08,0,0,1,0-.08h.06s0-.06,0-.07h.07a0,0,0,0,1,0-.07l0,0h0s0,0,0-.08a.08.08,0,0,1,.08,0,.05.05,0,0,1,0-.06.08.08,0,0,1,.09,0s0-.07,0-.09h.06s0,0,0-.06.09,0,.1,0a.09.09,0,0,1,0-.09h.07a.06.06,0,0,1,0-.08.09.09,0,0,1,.09,0,.09.09,0,0,1,0,0c.06-.1.1,0,.12,0a.07.07,0,0,1,0-.08.21.21,0,0,1,.09,0s0-.07,0-.08a.1.1,0,0,1,.07,0s0-.06,0-.08h.08s0-.06,0-.08a.19.19,0,0,1,.09,0l-.3-.3L17.11,10c.25.26.25.26.25.27Z"/><path class="cls-17" d="M18.22,8.87,18.12,9l0,.31s0-.09,0,0,0-.08,0-.06a1.82,1.82,0,0,1,0-.32Z"/><path class="cls-17" d="M18,9,18,9.1l0,.32s0-.12,0,0,0-.08,0-.11V9Z"/><path class="cls-17" d="M17.33,9.75l-.06.07V10s0-.12,0,0,0-.08,0-.11,0-.12,0-.12Z"/><path class="cls-12" d="M17.13,9.92a.11.11,0,0,0-.09,0s-.07,0-.06,0,0,0,0-.06a.25.25,0,0,1,.2,0l-.09.09Z"/><path d="M17,10h0v0s0,0,0-.05a.27.27,0,0,1,.22,0l-.09.11a.13.13,0,0,0-.09,0Zm.14-.13a.23.23,0,0,0-.12,0s0,0,0,0l0,0,0,0,.07,0,.11-.08Z"/><path class="cls-12" d="M18.26,8.79a.1.1,0,0,1,0-.09s0-.09,0-.06-.09.11,0,.22l.06-.07Z"/><path d="M18.2,8.88h0a.23.23,0,0,1,0-.17.11.11,0,0,1,.06-.06h.07a.06.06,0,0,1,0,.06.08.08,0,0,0,0,.08l-.08.09Zm0-.24h0a.1.1,0,0,0-.05.05.2.2,0,0,0,0,.14l.05-.06a.08.08,0,0,1,0-.09.05.05,0,0,0,0,0Z"/><path class="cls-12" d="M21.38,7.63s.08-.08,0-.12,0-.08-.08-.08a.15.15,0,0,0-.13-.06s-.08-.06-.12-.05a.24.24,0,0,0-.12.11.13.13,0,0,0,0,.1s0,0,0,0a.08.08,0,0,0,0,.08s0,0,0,0,0,.06,0,.08,0,0,.07,0,0,0,0,.05a.06.06,0,0,0,.08,0s0-.07.1,0Z"/><path d="M21.23,7.68h0a.06.06,0,0,1,0,0l0,0,0,0s0-.06.11,0a.11.11,0,0,0,0,0,.05.05,0,0,0,0-.06s0-.07-.08-.07-.05-.06-.11-.06a.6.6,0,0,0-.13-.05.24.24,0,0,0-.11.1.12.12,0,0,0,0,.09l0,0s0,.06,0,.08h.05s0,.06,0,.07h0l0,0a.08.08,0,0,1-.06-.05s0,0,0,0A.12.12,0,0,1,21,7.52a0,0,0,0,1,0,0,.13.13,0,0,1,0-.12.27.27,0,0,1,.13-.12h0a.33.33,0,0,1,.12.06.13.13,0,0,1,.13.07h0c.06,0,.09.08.09.08a.06.06,0,0,1,0,.08s0,.05,0,.05l-.05,0,0,0h0l0,0Z"/><path d="M21,7.49h0a.17.17,0,0,1,.17-.12.19.19,0,0,0-.15.13Z"/><path d="M21.09,7.53h0a.19.19,0,0,1,.17-.1h0c-.09,0-.15,0-.17.06l0,0Z"/><path d="M21.2,7.61h0l.05-.06a.2.2,0,0,1,.13,0l-.12,0-.05.06Z"/><path class="cls-12" d="M18,5s0-.05.07,0,.05.17.05.17l-.06,0s0-.05-.06-.18Z"/><path d="M18,5.17l0,0s0,0-.06-.17,0,0,0,0,.09.18.09.19l-.1.06Zm0-.22s0,0,0,0a.21.21,0,0,1,.06.15l0,0s0-.13-.06-.15Z"/><path class="cls-12" d="M17.63,6.21s0,0,0-.14l.06,0a.26.26,0,0,1,0,.16Z"/><path d="M17.68,6.22h0s0-.06,0-.15l.07,0a.18.18,0,0,1,0,.17Z"/><path class="cls-18" d="M18.11,4.91a.2.2,0,0,1-.09,0l.09,0Z"/><path class="cls-1" d="M18.11,4.91a.2.2,0,0,1-.09,0Z"/><polygon class="cls-12" points="18.73 5.99 18.58 6.09 18.66 6.12 18.84 6.01 18.73 5.99 18.73 5.99"/><path d="M18.66,6.13l-.08,0L18.73,6l.12,0-.18.13ZM18.73,6l-.14.09.07,0L18.84,6Z"/><path class="cls-12" d="M16.71,6.59s0,.09-.07.12-.08.08-.08.12a.28.28,0,0,0,0,.15,1.21,1.21,0,0,1,.09.56.6.6,0,0,0,0,.34s.06.12.09.12,0,0,.06-.06a4.9,4.9,0,0,0,0-1.13,1.23,1.23,0,0,0-.11-.35l0-.1a1.16,1.16,0,0,1-.13-.56s-.2,0-.36-.33c-.08-.19-.21-.17-.36-.24l.07,0a.6.6,0,0,0,.19.06c.06,0,0-.13,0-.13L16.12,5v.28c0,.13.17.3.28.36s.15-.1.13-.23a1.44,1.44,0,0,1,0-.3l.09.05a.16.16,0,0,0,0,.09s.06,0,.09-.06h0l-.1.16a1.12,1.12,0,0,0,0,.33c0,.08,0,.25,0,.31a1.16,1.16,0,0,0,.14.3l.07.14a1.33,1.33,0,0,1,.08.19A1,1,0,0,1,17,7s0,.19,0,.29.09,0,.19,0a.34.34,0,0,0,.1-.24s.07-.06.06,0,0,.08,0,.08,0,.12,0,.11A1.23,1.23,0,0,0,17.68,7h.13a.28.28,0,0,0-.06.08l.14,0-.27.16a3,3,0,0,1-.35.16c-.09,0-.27.13-.28.22s0,.34,0,.42l0,.43h-.43s.08-.31,0-.39a3.58,3.58,0,0,0-.41-.43c-.13-.08.09,0,.09,0V7.49l.19.24a.49.49,0,0,0,0-.71c-.11-.13-.21-.32-.29-.34a.36.36,0,0,0-.28,0,.64.64,0,0,1-.67-.2l.13,0,.11,0s0,.15.26.15.34,0,.32-.28l.08,0,.06.06a.5.5,0,0,0,0,.21c0,.06.12.11.21.17a.14.14,0,0,0,.08,0s0,0,.09,0a.72.72,0,0,1,.13-.14l0-.06,0,.11Z"/><path d="M17,8.43h-.43s.07-.32,0-.4l-.1-.11a2.13,2.13,0,0,0-.31-.32s0,0,0,0a.28.28,0,0,1,.14,0V7.49l.21.23a.49.49,0,0,0,0-.69l-.1-.13c-.07-.1-.13-.19-.19-.2a.36.36,0,0,0-.27,0l-.19,0a.57.57,0,0,1-.49-.22l.24-.07s0,0,0,.08.08.07.23.07.25,0,.29,0,0-.11,0-.22l.09-.05.07.06a.73.73,0,0,0,0,.22s.07.07.13.11l.09.06a.11.11,0,0,0,.08,0s0,0,.09,0l.05-.06.07-.08,0-.06,0-.07,0-.1a1,1,0,0,1-.11-.43,1.4,1.4,0,0,0,.13.42l0,.1,0,.05,0,.07a1.1,1.1,0,0,1,.08.28,5.09,5.09,0,0,1,0,1.13c0,.06,0,.07-.07.07h0s-.09-.11-.1-.12,0-.11,0-.34A1.21,1.21,0,0,0,16.55,7a.29.29,0,0,1,0-.15.18.18,0,0,1,.06-.09l0,0a.12.12,0,0,0,0,0,.2.2,0,0,1,0-.07l0-.05h0l0,0s0,.06,0,.06l-.08.08-.05.06s-.06,0-.1.05a.12.12,0,0,1-.1,0l-.08-.06c-.06,0-.12-.07-.13-.12a.53.53,0,0,1,0-.22L16,6.25,16,6.3c0,.11,0,.19,0,.23s-.14.05-.3.05a.3.3,0,0,1-.25-.08.12.12,0,0,1,0-.09l-.09.06-.13,0a.59.59,0,0,0,.48.2l.18,0a.43.43,0,0,1,.26,0c.08,0,.15.12.22.22l.1.14a.5.5,0,0,1,0,.72L16.2,7.5v.08s-.09,0-.12,0l0,0a2.28,2.28,0,0,1,.31.32l.1.11c.09.09,0,.39,0,.4h.41c0-.06,0-.36,0-.43a2.38,2.38,0,0,0,0-.25c0-.07,0-.13,0-.17s.16-.17.29-.23a3.07,3.07,0,0,0,.35-.17L17.89,7l-.13,0s0-.06,0-.08h-.11a1.44,1.44,0,0,1-.27.16h0s0-.06,0-.13a.08.08,0,0,1,0-.08l0,0h0a.31.31,0,0,1-.1.24l0,0c-.09.07-.15.1-.17,0s0-.1,0-.16A1.33,1.33,0,0,0,17,7a1,1,0,0,0-.06-.28l0-.07a.55.55,0,0,0-.06-.12l-.07-.15A1.22,1.22,0,0,1,16.61,6s0-.07,0-.13a1.21,1.21,0,0,1,0-.17.92.92,0,0,1,0-.34l.09-.16s0,0,0,0-.05.08-.07.08a.12.12,0,0,1,0-.11l-.08,0s0,.17,0,.29a.26.26,0,0,1-.05.2.09.09,0,0,1-.06,0c-.12-.06-.31-.23-.31-.37V5l0,.07a.15.15,0,0,1,0,.11.43.43,0,0,1-.23,0l-.06,0,.11,0a.34.34,0,0,1,.26.2c.13.3.27.33.33.33h0c-.07,0-.23,0-.35-.33a.33.33,0,0,0-.25-.19l-.11,0,.07-.06a.87.87,0,0,0,.2.06.13.13,0,0,0,0-.12L16.11,5l0,.28a.54.54,0,0,0,.27.35.08.08,0,0,0,.07,0,.25.25,0,0,0,0-.19,1.45,1.45,0,0,1,0-.3l.1,0s0,.07,0,.09h0l0,0,.05,0,0,0-.1.16a1.2,1.2,0,0,0,0,.33,1.69,1.69,0,0,0,0,.17,1.27,1.27,0,0,1,0,.13,1.19,1.19,0,0,0,.13.3l.07.14a.62.62,0,0,1,.06.13l0,.07A1,1,0,0,1,17,7s0,.08,0,.13,0,.11,0,.16,0,0,0,0,.06,0,.11-.06l0,0A.34.34,0,0,0,17.26,7l.07,0a.14.14,0,0,0,0,.09c0,.07,0,.1,0,.11h.05A1.16,1.16,0,0,0,17.67,7h.15L17.77,7l.13,0a1.21,1.21,0,0,1-.24.17l-.37.18c-.17.07-.27.15-.27.21s0,.1,0,.17A2.15,2.15,0,0,1,17,8l0,.43ZM16.7,6.6l0,.06a.25.25,0,0,1,0,0l0,0s0,.06,0,.09a.23.23,0,0,0,0,.14,1.19,1.19,0,0,1,.08.57c0,.24,0,.31,0,.33s.06.11.08.11,0,0,0,0a4.48,4.48,0,0,0,0-1.15.84.84,0,0,0,0-.2Z"/><path class="cls-12" d="M16.77,6.38l.08-.13c0-.08.1-.13.16-.23a.44.44,0,0,0,.06-.32l.06,0v.15l.11-.08,0,0a3.43,3.43,0,0,0-.46.65l0-.09Z"/><path d="M16.81,6.49l0-.11.07-.12.09-.12L17,6a.43.43,0,0,0,.06-.31l.07,0v.15a.26.26,0,0,1,.09-.08h0l0,0a5.39,5.39,0,0,0-.46.66v0Zm.26-.78A.37.37,0,0,1,17,6l-.09.12a.74.74,0,0,0-.08.1.74.74,0,0,1-.08.13l0,.06a3.75,3.75,0,0,1,.45-.63.37.37,0,0,0-.12.08l0-.16,0,0Z"/><path class="cls-12" d="M14.68,5.54a.7.7,0,0,0,.16.25l.06,0s-.15-.17-.15-.25l-.07,0Z"/><path d="M14.83,5.81h0a.58.58,0,0,1-.14-.2l0,0,.08,0a.86.86,0,0,0,.16.25l-.07,0Zm-.15-.25s0,0,0,0a.55.55,0,0,0,.13.19l.06,0h0a.52.52,0,0,1-.15-.24l-.06,0Z"/><path class="cls-12" d="M15,5.45a.58.58,0,0,1,0,.28l.06,0a.71.71,0,0,0,0-.21l-.06,0Z"/><path d="M15,5.74h0a.63.63,0,0,0,0-.27l.08,0a.54.54,0,0,1,0,.22l-.07,0Zm0-.28a.42.42,0,0,1,0,.25l0,0a.67.67,0,0,0,0-.21l-.06,0Z"/><path class="cls-12" d="M17.15,4.81a1.7,1.7,0,0,0,0,.46l.07,0a.07.07,0,0,1,0-.08A1.06,1.06,0,0,0,17.61,5l0-.06a1.19,1.19,0,0,1-.17.12s-.08,0-.13,0-.09-.08-.06-.25l-.08-.05Z"/><path d="M17.19,5.28h0a1.59,1.59,0,0,1,0-.46l.09,0c0,.18,0,.24.06.25a.13.13,0,0,0,.09,0,1,1,0,0,0,.2-.13l0,.07a.85.85,0,0,1-.3.16c-.05,0,0,.06,0,.06l-.09,0Zm0-.46a2.82,2.82,0,0,0,.05.44l.06,0s0-.05.05-.08A1,1,0,0,0,17.6,5l0,0a.49.49,0,0,1-.16.12l-.11,0c-.07,0-.13-.08-.1-.26l-.07,0Z"/><path class="cls-12" d="M18,6.15a2.06,2.06,0,0,0,0,.29h.07s0-.24,0-.26l-.09,0Z"/><path d="M18.06,6.47l-.08,0a1.35,1.35,0,0,1,0-.3l.1,0a.69.69,0,0,0,0,.27ZM18,6.16s0,.2,0,.28h0c0-.07,0-.24,0-.26l-.08,0Z"/><path class="cls-12" d="M18.29,6.3s-.07.13-.16.14l.14,0a.3.3,0,0,0,.1-.08l-.08,0Z"/><path d="M18.14,6.45v0h0c.08,0,.15-.13.15-.14l.08,0a.43.43,0,0,1-.1.1l-.13,0Z"/><path class="cls-9" d="M17.08,5.7l.05,0h.05l.13.11c.05,0,.05,0,.05,0l0,.13h0s0,.08,0,.13L17.5,6l.09.07s.07-.05.1-.05a.06.06,0,0,0,0,0h0c-.21-.1-.3-.2-.24-.31s.27-.06.33,0l.77.41s.05,0,0-.06a.16.16,0,0,1,0-.14s.1.1.15.11l.14,0V6s.13.09.13.13.09,0,.06-.07.14.07.15.12l0,0a.49.49,0,0,1,.06-.19.2.2,0,0,1,.09-.08s0-.07.08-.07a.18.18,0,0,1-.06-.06.15.15,0,0,0-.07,0l.08-.06,0,0a.44.44,0,0,0-.15-.09s0-.1-.09-.11h0s-.06-.11-.11-.12a.14.14,0,0,1,.07,0A.15.15,0,0,0,19,5.16l.06,0s0,0-.18,0a.11.11,0,0,0-.05-.1s0,0,0,0a.17.17,0,0,0-.11,0c-.06,0,0,.06,0,.06s-.08,0-.13,0a.17.17,0,0,0,0-.14.21.21,0,0,0-.08.07v0s-.08.1-.1.07a.46.46,0,0,1,0-.08L18.29,5V4.9a.3.3,0,0,0-.1.14.17.17,0,0,0-.05.1s0-.05-.09,0,0,0,0,0a.09.09,0,0,1-.05,0v0a.16.16,0,0,0-.09,0l0,0s-.1,0-.11-.08-.09,0-.1,0-.07,0-.06,0a.09.09,0,0,0-.06,0s0,.05,0,.05a.12.12,0,0,0-.06-.08s0,0,0,0-.06-.05,0-.09-.06.06,0,.11l0,0s0,0,0,0-.06,0-.06,0,0-.1,0-.1a.09.09,0,0,0-.09.09h0l-.1,0s0,0,0,0a.2.2,0,0,0-.12,0l0,0s0,0-.09,0,0,0,0,0a.27.27,0,0,0-.11,0s0,0,0,0-.13,0-.15,0,0,.08,0,.08-.08,0-.1.08l.08,0a.11.11,0,0,0-.05,0s.05,0,.05,0-.09.06-.09.11a.11.11,0,0,0,.11,0s0,0,0,0v0s.09,0,.09-.06,0,0,0,0l.09,0,.06,0Z"/><path class="cls-19" d="M19.19,6.17v0A.43.43,0,0,0,19,6a.22.22,0,0,1,.15.1l0,0a.39.39,0,0,1,.06-.18.18.18,0,0,1,.09-.08.11.11,0,0,1,.06-.06.11.11,0,0,1,0,0,.13.13,0,0,0-.06,0s.06-.06.07-.08l0,0s-.1-.06-.15-.07,0-.11-.08-.11l0,0s-.08-.09-.11-.1,0-.05.06-.06a.2.2,0,0,0-.11,0h0l0,0a.3.3,0,0,0-.16,0s0-.06-.05-.1,0,0,0,0-.06,0-.12,0,0,0,0,0-.07,0-.11,0h.07a0,0,0,0,1,0,0,.17.17,0,0,1,.15,0s0,0,0,0a.12.12,0,0,1,.06.11.08.08,0,0,1,.06,0c.08,0,.11,0,.11,0h0a.16.16,0,0,1,.12.06l-.07.06c.06,0,.11.1.12.1h0s.06.07.06.1.15.08.15.08l0,0-.07.06a.1.1,0,0,1,.06,0,.16.16,0,0,0,.05.06.28.28,0,0,0-.08.08.2.2,0,0,0-.09.07.46.46,0,0,0-.05.18l0,.06ZM19,6.12A.5.5,0,0,0,18.85,6l0,0a.36.36,0,0,1-.15,0,.27.27,0,0,1-.09-.07l0,0a.17.17,0,0,0,0,.13.15.15,0,0,1,0,0h0a.18.18,0,0,1-.05-.16s.05,0,.09,0,.05.06.07.06l.14,0V6s.15.08.15.13,0,0,0-.06h0s0,.07-.05.08Zm-1.39,0L17.5,6l-.06.06a.49.49,0,0,1,0-.14h0l0-.13s0,0,0,0l-.12-.11h-.05L17,5.67l-.08,0v0l.08,0,.12.08h.05l.13.11h.05l0,.13h0a.63.63,0,0,1,0,.14L17.5,6l.1.08s.06-.06.09-.06a0,0,0,0,0,0,0c-.14-.06-.23-.13-.25-.2a.14.14,0,0,1,0-.11c.08-.13.24-.1.32-.05l.79.43,0,0a0,0,0,0,1,0,0l-.78-.41c-.12-.06-.25-.09-.32,0a.1.1,0,0,0,0,.09c0,.07.1.13.25.2a.05.05,0,0,1-.05,0,.23.23,0,0,0-.09.05Zm-.84-.33h0s.06-.09.08-.11h0s-.08.07-.08.1a.14.14,0,0,0,.09,0l0,0v0h0v0a.13.13,0,0,1-.08,0Zm0-.12a.12.12,0,0,1,.05-.07h-.07c0-.08.09-.1.1-.1h0s-.06,0-.05-.06a.33.33,0,0,1,.15,0h0a.11.11,0,0,1,.11,0l0,0h0v0h0l-.13,0s0,0,0,.06-.08,0-.09.09l.06,0s0,0,0,.06h0ZM17,5.37a.05.05,0,0,1,.07,0h0a.1.1,0,0,1,.08,0l0,0a.33.33,0,0,1,.12,0,.1.1,0,0,1,.09-.09.16.16,0,0,0,0,.11c0-.06.05-.06.06-.06v0l0,0s0-.1,0-.11h0s0,0,0,0a.08.08,0,0,0,0,0h0c.06,0,.08,0,.09.05v0a.1.1,0,0,0-.05-.07v0h0v0a.19.19,0,0,1,0-.06.07.07,0,0,0,0,.07l-.07.06V5.21s0,0-.05.06a.14.14,0,0,1,0-.1.09.09,0,0,0,0,.08v0h0s0,0-.08,0,0,0,0,0,0,0-.06,0H17Zm.9-.1a.08.08,0,0,1-.09-.07h-.14a.06.06,0,0,1,.05,0s.1,0,.1,0a.09.09,0,0,0,.1.08l0,0a.16.16,0,0,1,.09,0s0,0-.06,0v0ZM18,5.21l0,0s0,0,0,0,.1,0,.1,0,0-.1,0-.1a.29.29,0,0,1,.1-.14V5l0-.08a.32.32,0,0,1,0,.08l.08-.07,0,0s.06-.08.06-.08a.17.17,0,0,1,0,.15s0-.09,0-.13,0,0-.06.07l0,0s-.05.08-.08.08a.22.22,0,0,1,0-.1l0,.07V4.9a.6.6,0,0,0-.08.13s-.05,0-.05.09H18.1l0,.05s0,0,0,0Z"/><path class="cls-9" d="M17,4.46l0-.09a.92.92,0,0,1,.2,0l0-.08.13.08a.7.7,0,0,1,.24,0l0,.08.23,0s0,.06,0,.06a1,1,0,0,1,.28.07c.09.05.09.1,0,.11l.11.17S18,4.91,18,5s-.06,0-.06,0l0,.12-.15-.1s0,.06,0,.1a.22.22,0,0,1-.2-.13s-.08,0-.08.06l-.12-.14-.11,0a.15.15,0,0,0-.07-.06s0,.06,0,.06l-.06-.08L17,4.71s-.05.07-.1.07,0,0,0-.08-.13,0-.14,0a.16.16,0,0,1,.11-.2l.15,0Z"/><path class="cls-19" d="M17.91,5h0a1,1,0,0,1-.15-.1s0,.06,0,.08-.15,0-.21-.11-.06,0-.06.06-.11-.1-.14-.14l-.1,0s0,0-.07-.06,0,0,0,0h0s0,0,0,0L17,4.72s0,.08-.09.08a.1.1,0,0,1,0-.1s-.11,0-.12,0a.15.15,0,0,1,.1-.22l.15,0,0-.07a.43.43,0,0,1,.21,0l0-.08a.31.31,0,0,1,.14.07.78.78,0,0,1,.2,0h0l0,.1a.68.68,0,0,1,.22,0s0,.07,0,.08a.56.56,0,0,1,.27.06c.05,0,.08.06.08.09h0l0,0,.11.16c-.05,0-.18,0-.2.08a.07.07,0,0,1-.08,0l0,.13Zm-.38-.15a.25.25,0,0,0,.21.13s0-.08,0-.09L17.9,5l0-.11L18,5c0-.05.2-.08.22-.08l-.12-.16,0,0s0,0-.07-.07a.93.93,0,0,0-.28-.07l0-.06a1,1,0,0,0-.24,0l0-.1a1.59,1.59,0,0,0-.23,0,.67.67,0,0,0-.14-.07l0,.08-.21,0,0,.07-.16,0a.16.16,0,0,0-.1.19s0,0,.06,0a.1.1,0,0,1,.07,0s0,.07,0,.09.09,0,.11-.06l.11.11h0a.14.14,0,0,1,.11,0l.1,0,.13.14s0-.07.06-.07Z"/><path class="cls-19" d="M16.86,5.33l-.08-.05h0l-.06,0h0v0l0,0s-.1,0-.1-.08a.48.48,0,0,1,0-.06l-.08.07a.11.11,0,0,1,0-.06l0,0a.21.21,0,0,1-.06-.1V5.1a.14.14,0,0,1-.13-.1l0,.07-.05,0L16,5.14l0,0,0,.07-.08,0,0,.05h-.07a.21.21,0,0,1-.08.06.05.05,0,0,1,0,0,.09.09,0,0,1-.07.05v0a.09.09,0,0,1-.06.06s0,0,0-.05l-.06.07v0l.06,0,0,0s.05-.05.05-.06h0s.06,0,.08-.07a.62.62,0,0,1,0,.07l.08-.06h.06l0,0,.08,0,0-.06,0,0L16.11,5l.05,0L16.22,5c0,.06.12.09.12.09V5h0a.35.35,0,0,1,.06.1c0-.06,0-.06,0-.06a.43.43,0,0,0,0,.08l.08-.07s0,.05,0,.07,0,0,.08.06l.06,0v.06s.06,0,.06,0h0l.07,0,0-.08a.23.23,0,0,1,.13.06,1.27,1.27,0,0,0,0-.18A.27.27,0,0,1,17.06,5l-.21-.08a1.46,1.46,0,0,1,0-.15l-.14,0a.35.35,0,0,1,0-.13h0l-.19-.06a.87.87,0,0,1,0-.14h-.13l-.1-.11-.12.07-.16,0,0,.08h-.21v.08l-.13.09s.05,0,0,.07a.47.47,0,0,0-.13.07v.11a.25.25,0,0,0-.09.12.16.16,0,0,1,.08-.13V4.79a.22.22,0,0,1,.12-.06s0-.06,0-.08l.13-.09V4.47H16l0-.08.17,0,.12-.07.11.11h.14a.54.54,0,0,1,0,.14.78.78,0,0,1,.18.06s0,.11,0,.13a.33.33,0,0,1,.13,0s0,.12,0,.15.2.06.22.1,0,0-.07.07a.81.81,0,0,1,0,.16l0,0a.26.26,0,0,0-.1-.06l0,.09Zm-1.39-.11a.08.08,0,0,1,0-.1s0,0,0,0l0,0h-.05a.11.11,0,0,1,.07,0l0,0s0,0,0,0a.22.22,0,0,0,0,.1Z"/><path class="cls-19" d="M14.24,5.69l.06-.1-.08.09a.69.69,0,0,1,0-.25H14.2l0-.06c-.07,0-.07,0-.08,0l.13,0-.1,0h.06l0,.06h.07s0,.17-.05.24a.35.35,0,0,1,.1-.12l0,.11.12-.05,0,0h0s0,0,0,0v0s0-.08,0-.1a.11.11,0,0,1,.08,0s0,0-.06,0a.48.48,0,0,1-.06.1v0s-.11.05-.15.07Zm.53-.1V5.52l-.06,0a.28.28,0,0,1-.12,0v0l.09,0,.1,0v.05l0-.05h0V5.39H15s.17.09.17.13,0-.09,0-.11l.08,0s0-.07,0-.09.16-.07.19,0a.12.12,0,0,0,0-.06s0-.07-.11-.1h0v0a.09.09,0,0,1,.07,0s0,0,0,0l.1,0A.6.6,0,0,0,15.29,5s-.06,0-.06,0,0-.1,0-.12h-.09s-.1,0-.12,0a.09.09,0,0,1-.07-.1s0,0-.07.06a.21.21,0,0,1-.14.07l-.08,0,0,.11h-.08l0,0h-.15a.13.13,0,0,1,0,.11l-.11,0h0a.31.31,0,0,0-.12.06l0,0,0,.08h0l0-.08,0,0a.25.25,0,0,1,.11-.07h0a.25.25,0,0,1,.12-.05.2.2,0,0,0,0-.1c0-.06.16,0,.16,0l0,0h.09l0-.1.08,0a.19.19,0,0,0,.12-.06A.1.1,0,0,1,15,4.73a.1.1,0,0,0,.06.09s.14,0,.14,0l.08,0s0,.08,0,.1,0,0,0,0a.42.42,0,0,1,.17.07l-.12,0h0s0,0,0,0h0l0,0a.26.26,0,0,1,.11.13.1.1,0,0,1,0,.09.11.11,0,0,0-.18,0s0,.1,0,.11l-.08,0s0,.1,0,.12A.85.85,0,0,0,15,5.4h-.06l0,.12-.1.07Z"/><path class="cls-19" d="M15.18,6.49h0a.58.58,0,0,1-.09-.19l.08-.05-.08-.19L15,6.12l-.39.15-.33.18s0-.06,0-.09,0-.07,0-.21a.27.27,0,0,1,.14-.07L14.4,6l.2-.06a.14.14,0,0,1,0-.08.29.29,0,0,1,.17,0s.09-.08.09-.09.07,0,.09,0a.12.12,0,0,0,.13-.06.14.14,0,0,1,.15.06h0l0,0a1.83,1.83,0,0,0,.12-.15.36.36,0,0,1,.11.11.6.6,0,0,1-.11-.1.84.84,0,0,1-.11.16s0,0,0,0a.31.31,0,0,0-.14-.09.16.16,0,0,1-.11.09c-.08,0-.11,0-.11,0s-.09.09-.1.1a.5.5,0,0,0-.16,0,.63.63,0,0,0,0,.07l-.2.06.07.12a.61.61,0,0,0-.13.08.31.31,0,0,1,0,.2.16.16,0,0,1,0,.09l.7-.37.12,0,.09.21-.08.05a.71.71,0,0,0,.08.17l.2-.06v0l.11,0s0,.05,0,.05.08-.06.11-.1l.09,0s0,0,0-.07.09,0,.11,0l.08.05L16,6.24s0,.06.07.06l.09,0,0,0a.47.47,0,0,1,0-.1l.18.06-.09-.15s.06-.07.06-.08h-.06l0-.09h-.07l0,0-.1,0,0-.12L16,5.74l.06-.08h0s0,0-.06,0H16c-.14,0-.14,0-.15,0l-.07-.08-.09.08h-.06l-.08,0h0l.09-.05h.06l.09-.07a.25.25,0,0,1,.09.08H16a.11.11,0,0,1,.09.05l-.06.07a.87.87,0,0,1,.3.07l-.05.12.11,0,0,0h.06l0,.09h0l0,0s0,.06-.07.08h0a.49.49,0,0,1,.08.16l-.18-.06s0,.09,0,.1,0,0-.06,0l-.09,0A.13.13,0,0,1,16,6.25L16,6.33l-.08,0s-.09,0-.09,0a.25.25,0,0,1,0,.09l-.1,0s-.06.1-.11.1h0a.06.06,0,0,1-.06-.06l-.1.06h0v0l-.09,0-.11,0Z"/><path class="cls-19" d="M15.31,8V7.87l-.12,0-.08-.11-.15,0L15,7.65l-.11-.06.15-.16L15,7.4h.15s0,0,0,0a1.2,1.2,0,0,1,.2-.12l0,0,.12-.06V7.09l.12,0,0,0,.18,0V7h.13l0,0,.19,0,0,0,.18,0a0,0,0,0,1,0,0,.26.26,0,0,1,.13.06s0,0,0,0a.15.15,0,0,1,.11.07.06.06,0,0,1,.05,0,.48.48,0,0,1,.17.11.11.11,0,0,1,.08,0l.14.13-.07,0s0,.12,0,.15v.08l-.07,0-.1.1,0-.12,0,.08-.09-.07,0,.06L16.2,7.5l0,.07h-.14l-.08.2-.13-.16-.07.12-.07,0,0,.1h-.08a.27.27,0,0,1,0,.13c-.05,0-.15-.06-.16-.08l-.2.16Zm0-.15V8l.18-.14a.74.74,0,0,0,.15.09,1,1,0,0,0,0-.14h.08v-.1l.07,0,.08-.13.13.16.07-.2h.14V7.49l.11.05,0-.06.09.07,0-.07,0,.12.09-.1.07,0V7.44c0-.06.06-.13,0-.14l.06,0a1.61,1.61,0,0,1-.14-.11.12.12,0,0,0-.07,0A1.29,1.29,0,0,0,16.39,7a.1.1,0,0,0-.07,0s0-.06-.1-.07a0,0,0,0,0,0,0s-.06,0-.11,0V7l0,0-.19-.06,0,0-.19,0,0,.05h-.13V7l-.18,0,0,0-.12,0v.07l-.12.05,0,0s-.16.09-.19.12,0,0,.06,0H15l.07,0-.15.16.11.06L15,7.76l.16,0,.07.11.12,0Z"/><path class="cls-19" d="M18.65,7.37l0,0c-.05-.07-.15-.18-.18-.19s0,.07,0,.09l-.17-.12v.08l-.14-.1-.06,0L17.88,7l-.12,0,0-.08-.15,0,0-.15v.11l-.11-.06L17.39,7s0,0-.05-.08,0,0-.05.08l-.06-.1,0,.1s-.06-.08-.1-.1h0S17,7,17,7.09h0a0,0,0,0,1,0,0l0-.16,0,.06V6.79h-.08l0-.18-.06,0V6.49L17,6.33h.27l0-.08a.43.43,0,0,1,.21,0s.1,0,.12-.07h0l0,.09h.06a.25.25,0,0,1,.13,0l-.07.12H18l.1,0,.1,0h.13l0,.06h.11l0,.06.15.06,0,0,.14,0h0s0,.08,0,.12.05.09.13.11.1,0,.11,0A.11.11,0,0,1,19,7a.12.12,0,0,1-.11.06v.1l-.1.11-.08,0s0,.06,0,.1v0Zm-.23-.22c.08,0,.18.12.22.17a.3.3,0,0,1,.05-.09l.08,0s.08-.1.09-.11v-.1a.12.12,0,0,0,.1-.06.08.08,0,0,0,0-.06s0,0-.1,0a.22.22,0,0,1-.15-.14s0-.11,0-.11a.49.49,0,0,1-.17,0l0,0-.15-.05,0-.06-.11,0,0-.06h-.12l-.1,0-.24,0,.07-.12h-.2l-.05-.09s-.1.09-.14.09a.51.51,0,0,0-.21,0l0,.08H17l-.17.16v.08l.06,0,0,.18h.08l0,.18,0-.06,0,.16c0-.05,0-.17.08-.17a.3.3,0,0,1,.11.11l0-.1.06.1s0-.1,0-.1l.06.1.11-.13.11.06V6.82l.05.14h.15l0,.08.12,0,.14.14.06-.05.14.11V7.12l.16.11a.1.1,0,0,1,0-.09Z"/><path class="cls-19" d="M18,8.12h0c0-.05-.1-.12-.12-.12s0,.07,0,.12a1.86,1.86,0,0,1-.2-.21s0,0,0,.06a.36.36,0,0,1-.1-.18s0-.07-.07-.08a.64.64,0,0,1-.22.19s0-.1,0-.13-.09,0-.11.06a.3.3,0,0,1,0-.31V7.44l.52-.21.05.08,0-.11.1.11,0-.06.09.06h.06l0,.09H18c.09,0,.1,0,.1,0s0,0,.05.11h.14l0,.18s.08.16.05.23-.08,0-.1-.06a.31.31,0,0,1,0,.13.62.62,0,0,1-.21,0L18,8.12Zm-.38-.26.21.23s0-.13,0-.13.1.08.13.12L18,7.93l.19,0a.54.54,0,0,0,0-.15s.07.09.08.09a.36.36,0,0,0,0-.22l0-.18h-.14c0-.05,0-.11,0-.11s0,0-.11,0h-.06l0-.09h-.05l-.08-.06,0,.06-.1-.11,0,.11-.06-.08-.08.05L17,7.45v.06a.4.4,0,0,0,0,.29.15.15,0,0,1,.1-.08.18.18,0,0,1,0,.15,1.44,1.44,0,0,0,.21-.2s.09,0,.09.09a.61.61,0,0,0,.08.16s0-.08,0-.08Z"/><path class="cls-20" d="M18.23,5.88h0l.14,0a.29.29,0,0,0,0-.11h.1s0,0,0-.06l.13-.07a1.06,1.06,0,0,0-.2-.09l.1-.1a.24.24,0,0,0-.11,0V5.3a.36.36,0,0,0-.13,0,1,1,0,0,1,0-.1l-.11,0,0-.09h0l0,.08a.21.21,0,0,1,.11,0,.19.19,0,0,1,0,.1.15.15,0,0,1,.13,0v.06a.12.12,0,0,1,.11,0l-.1.1a.35.35,0,0,1,.2.1.32.32,0,0,1-.13.08l0,.05h-.1s0,.08,0,.1-.07,0-.12,0Z"/><path class="cls-20" d="M18.78,5.65h0s0-.16,0-.19.12.07.18.08,0-.08,0-.12.11,0,.16,0a.19.19,0,0,0,0-.09h0l0,0a.11.11,0,0,1,.08,0h-.08s0,.09,0,.11a.59.59,0,0,1-.16-.05s0,.08,0,.11a.35.35,0,0,1-.2-.06s0,.16,0,.18Z"/><path class="cls-20" d="M17.4,4.79s-.06,0-.11-.09a.09.09,0,0,1,0,0h0a.09.09,0,0,0,0-.05s0,0,0-.05,0,0,.06,0a.53.53,0,0,0,.11.1Z"/><path class="cls-20" d="M17.69,4.84a.18.18,0,0,1-.1,0v0a.23.23,0,0,0,.09,0,.28.28,0,0,0,0-.13s0,0,.05,0l.12,0a.08.08,0,0,0,0-.07.45.45,0,0,1,.19,0l-.18,0s0,.05,0,.07a.43.43,0,0,1-.15,0l0,0a.16.16,0,0,1,0,.13Z"/><path class="cls-1" d="M17,4.69s0-.08,0-.12Z"/><path class="cls-20" d="M16,5.1V5S16,5,16,5s0,0,.06,0a.32.32,0,0,0,0-.08h0l0,0s0,0,.05,0,0,0,.07,0l0-.06s0,0,.07,0,0,0,0,0,.08,0,.09,0,0,0,0-.06,0,.07,0,.07l-.08,0s-.06.06-.07.06l-.06,0s0,.06,0,.07l-.07,0s-.05.08-.06.08h0a.09.09,0,0,1,0,.09l-.06,0s0,0,0,.07l0,0Z"/><path class="cls-1" d="M15.73,5.16a.16.16,0,0,0,0-.14Z"/><path class="cls-20" d="M14.76,5.43v0s0-.12,0-.12a.2.2,0,0,1,.1,0,.1.1,0,0,1-.07,0,.35.35,0,0,1,0,.13l0,0Z"/><path class="cls-1" d="M15.23,5.28a.17.17,0,0,0-.15-.07Z"/><path class="cls-1" d="M14.43,5.54a.26.26,0,0,0,0-.13Z"/><polygon class="cls-20" points="15.59 7.57 15.51 7.42 15.47 7.52 15.46 7.52 15.51 7.41 15.59 7.56 15.62 7.45 15.65 7.5 15.73 7.39 15.85 7.55 15.73 7.4 15.64 7.52 15.62 7.47 15.59 7.57 15.59 7.57"/><path class="cls-20" d="M17.51,6.88h0l.07-.13.11,0,0-.13.11.06,0-.12.12,0V6.53a.23.23,0,0,1,.11.07.72.72,0,0,1,0-.1l.1,0s0,0,0,0,0,0,0,0,.06,0,.06,0,0,.06,0,.06l-.1,0c0,.11,0,.11,0,.11A.49.49,0,0,0,18,6.54v.08l-.12,0,0,.12-.11-.05,0,.13-.11,0-.05.13Z"/><polygon class="cls-20" points="18.45 6.99 18.3 6.89 18.25 6.94 18.1 6.86 18.02 6.92 17.93 6.76 17.87 6.85 17.76 6.71 17.78 6.7 17.87 6.84 17.94 6.75 18.02 6.91 18.1 6.85 18.25 6.92 18.29 6.88 18.45 6.98 18.5 6.86 18.63 6.89 18.7 6.75 18.64 6.91 18.5 6.87 18.45 6.99 18.45 6.99"/><path class="cls-9" d="M14.41,6l.06.13a.32.32,0,0,0-.13.06c0,.22,0,.21,0,.21a.11.11,0,0,1,0,.09l.33-.16v0L15,6.09v0l.11-.06.08.2-.08,0a.63.63,0,0,0,.08.18l.1,0,.11,0s0,.06,0,0,.11-.05.11-.05,0,.05.05,0,.11-.1.11-.1l.09,0a.22.22,0,0,0,0-.08s.11,0,.11,0l.07,0,.09-.07s0,.06.06.06.14.08.14.06a.62.62,0,0,1,0-.1l.17.07a.85.85,0,0,0-.08-.17s.08-.06.06-.08-.06,0-.06,0l0-.1h-.06l0,0-.1,0,.06-.11a1.58,1.58,0,0,0-.3-.08l.06-.06s0,0-.06,0a.91.91,0,0,1-.21,0s-.07-.08-.07-.08l-.1.08-.05,0-.09,0s0,.05,0,0a.64.64,0,0,0-.1-.12l-.12.16s0,.07-.05,0-.12-.1-.13-.06-.09.08-.1.07-.1,0-.11,0-.1.1-.1.1a.33.33,0,0,0-.16,0,.31.31,0,0,0,0,.08L14.41,6Z"/><path class="cls-9" d="M17,7.51V7.44l.23-.09.19-.07.1,0,0,.08.06-.11.09.11,0-.06.08.06h.06V7.4s.16,0,.17,0,0,.11,0,.11l.15,0,0,.17s.08.16,0,.22-.09-.08-.09-.08a1.23,1.23,0,0,1,0,.15s-.2,0-.2,0L18,8.1S17.88,8,17.83,8s0,.13,0,.13l-.18-.22c0-.06-.06.06-.06.06a.77.77,0,0,1-.08-.18s-.08-.09-.08-.09a.82.82,0,0,1-.23.19s0-.1,0-.13-.13.06-.13.06a.39.39,0,0,1,0-.3Z"/><path class="cls-9" d="M16.23,5l-.06.06,0,0L16,5.13l0,0,0,.07-.07,0,0,.05h-.06l-.09.06s0-.08,0-.08,0,.08-.09.08,0,0,0,0,0,.05-.06.06,0,0,0,0l-.06,0v0h0s0-.07,0-.09,0-.06,0-.06l0,0s-.08,0-.08,0,0-.11.1-.13V4.79a.25.25,0,0,1,.11,0c.06,0,0-.09,0-.09l.13-.08,0-.09H16l0-.08.15,0,.13-.07.1.11h.14s0,.1,0,.13a1.34,1.34,0,0,1,.19.07,1.08,1.08,0,0,0,0,.12.47.47,0,0,1,.15,0l0,.14s.2.06.21.1L17,5.1a1.48,1.48,0,0,1,0,.17l0,0a.33.33,0,0,0-.11-.06l0,.09-.07,0h0s0,0-.06,0v0l-.06,0s-.09,0-.09-.07a.48.48,0,0,1,0-.06l-.09.06a.2.2,0,0,1,0-.07s0,0,0,0a.39.39,0,0,1,0-.1V5.1s-.1,0-.11-.1Z"/><path class="cls-9" d="M15,5.39s.17.09.17.13,0-.09,0-.12l.06,0s0-.08,0-.11.14-.08.18,0,.1-.1-.09-.19c0,0,0-.06.1,0a.1.1,0,0,0,0-.05h.11A.38.38,0,0,0,15.3,5c-.1,0,0,0,0,0a.35.35,0,0,1,0-.09.15.15,0,0,0-.1,0v0s-.1,0-.14,0a.09.09,0,0,1,0-.09.1.1,0,0,0-.09.06.21.21,0,0,1-.13.06l-.07,0,0,.11h-.07l0,0s-.11,0-.15,0a.19.19,0,0,1,0,.11l-.11,0s0,0,0,0-.11,0-.13.06l0,0-.05.06h0l-.11,0s.06,0,.06,0l0,0h.08a1.19,1.19,0,0,0-.06.24s.09-.11.12-.12l-.07.12s.14,0,.15-.06l0,0v.07a.56.56,0,0,0,.06-.1s.09,0,.09,0v0l.1,0s0,0,0,0h.07v.06s0,0,.06-.06,0,0,0,0l0-.13Z"/><path class="cls-9" d="M16.21,7.57V7.49l.09.06.06-.06.07.07,0-.07V7.6l.11-.1.06,0V7.44s.07-.12,0-.15l.06,0a1.49,1.49,0,0,0-.14-.12.14.14,0,0,0-.07,0A.68.68,0,0,0,16.4,7a.07.07,0,0,0-.08,0A.17.17,0,0,0,16.23,7s0,0,0,0a.26.26,0,0,0-.09-.06s0,0,0,0l-.19-.05,0,.05-.17,0,0,.06-.12,0V7l-.17,0,0,.05-.11,0v.08l-.12,0,0,0-.19.1s.06.06.06.06l-.17,0,.06.05-.15.14.11.08L15,7.75l.16,0,.06.11.13,0V8l.19-.15s.14.12.15.09a1.23,1.23,0,0,0,0-.14h.07V7.68l.05,0,.09-.13.11.16.09-.2.13,0Z"/><path class="cls-9" d="M17,7.09l0-.18L16.91,7l0-.17h-.08l0-.17-.06,0V6.5l.06,0L17,6.34h.27l0-.09s.16,0,.19,0,.13-.07.13-.07h0l0,.09a.35.35,0,0,1,.2,0l-.07.1H18l.1,0,.1,0h.13l0,.05h.12l0,0,.15.07,0,0a.52.52,0,0,0,.15,0h0s0,.08,0,.11,0,.11.13.13.1,0,.11,0a.1.1,0,0,1-.11.13v.11a.52.52,0,0,0-.09.11l-.06,0s-.06.06-.06.11-.14-.18-.19-.19,0,.1,0,.1l-.15-.13,0,.09L18.1,7.1,18,7.15,17.89,7h-.13L17.81,7h-.16l0-.14,0,.12-.1-.06L17.38,7a.32.32,0,0,1,0-.08c0-.06-.08.08-.08.08l0-.1,0,.1a.3.3,0,0,0-.09-.1S17,7,17,7.09Z"/><path class="cls-9" d="M15.27,6.38s.06-.09,0-.14.12.07.12.07,0-.09,0-.13.16.12.16.12,0-.15,0-.18.17,0,.17,0,.08,0,.05-.07.14.06.14.06,0-.11,0-.15.12.05.12.05L16,6h.14V5.84Z"/><path class="cls-20" d="M15.29,6.4l0,0s0-.1,0-.12,0-.06.13,0a.17.17,0,0,0,0-.09s0-.05.16.07a.24.24,0,0,0,0-.11c0-.06,0-.07.2,0l0,0v0s0,0,.17.07c0,0,0-.09,0-.11l0,0V6S16,6,16,6l0-.08h.19l0-.1h0V6l-.12,0,.09.16-.08,0-.08,0a.27.27,0,0,1,0,.12.88.88,0,0,1-.16-.06.06.06,0,0,1,0,.08l-.18,0h0s0,.12,0,.17v0l0,0-.11-.1a.38.38,0,0,1,0,.1v0l0,0-.1-.08c.05,0,0,.12,0,.14Z"/><polygon class="cls-21" points="17.39 7.68 17.48 7.63 17.56 7.71 17.64 7.57 17.75 7.68 17.77 7.57 17.89 7.62 17.91 7.56 18.04 7.63 18.05 7.53 18.11 7.55 18.12 7.49 17.39 7.68"/><polygon class="cls-20" points="17.77 7.73 17.63 7.59 17.58 7.73 17.46 7.65 17.4 7.7 17.38 7.66 17.47 7.61 17.58 7.7 17.63 7.56 17.73 7.64 17.74 7.57 17.89 7.6 17.89 7.55 18.02 7.59 18.02 7.53 18.12 7.53 18.1 7.48 18.15 7.49 18.14 7.56 18.04 7.56 18.06 7.63 18.06 7.67 17.89 7.58 17.91 7.63 17.76 7.6 17.78 7.68 17.77 7.73 17.77 7.73"/><path class="cls-5" d="M16.79,14.81a2.84,2.84,0,0,0,1.72-.51c.68-.46.82-.47.94-.47s.31.06.32.17-.27.25-.42.25a4,4,0,0,1-.59-.11l-.11.07c.08,0,.95.32,1.12,0a5.45,5.45,0,0,0,.34-.73.73.73,0,0,0-.62-.34,2.07,2.07,0,0,0-1.13.47,2.24,2.24,0,0,1-1.56.48,2.24,2.24,0,0,1-1.57-.48,2.08,2.08,0,0,0-1.12-.47.73.73,0,0,0-.62.34,5.32,5.32,0,0,0,.34.73c.16.27,1,0,1.11,0l-.11-.07a4,4,0,0,1-.59.11c-.16,0-.44-.08-.43-.25s.2-.16.33-.17.25,0,.93.47a2.93,2.93,0,0,0,1.72.51Z"/><path d="M16.82,14.83h0a3,3,0,0,1-1.73-.51l-.14-.09a2.14,2.14,0,0,1-.78.18.37.37,0,0,1-.33-.13,5.48,5.48,0,0,1-.34-.73.73.73,0,0,1,.63-.36,2.1,2.1,0,0,1,1.13.47,2.22,2.22,0,0,0,1.56.48,2.19,2.19,0,0,0,1.53-.46,2.13,2.13,0,0,1,1.16-.5.76.76,0,0,1,.63.35,5,5,0,0,1-.35.74c0,.08-.16.13-.33.13a2.65,2.65,0,0,1-.79-.17l-.12.08a2.85,2.85,0,0,1-1.69.51Zm-1.95-.67h0l.21.14a2.93,2.93,0,0,0,1.71.51h0a2.83,2.83,0,0,0,1.68-.51l.24-.16c.45-.29.59-.31.67-.31s.36,0,.37.18a.18.18,0,0,1,0,.13.6.6,0,0,1-.39.13,3.55,3.55,0,0,1-.59-.11l-.06,0,0,0a4.25,4.25,0,0,0,.79.14c.16,0,.27,0,.31-.11a5.32,5.32,0,0,0,.34-.73h0a.74.74,0,0,0-.6-.32,2.06,2.06,0,0,0-1.12.47,2.29,2.29,0,0,1-1.57.49,2.28,2.28,0,0,1-1.55-.47,2.09,2.09,0,0,0-1.14-.49.72.72,0,0,0-.61.33h0a6.26,6.26,0,0,0,.34.71c0,.07.15.11.31.11a2.6,2.6,0,0,0,.77-.16l-.05,0,0,0a3.39,3.39,0,0,1-.58.11.6.6,0,0,1-.4-.13.17.17,0,0,1,0-.13c0-.14.26-.17.33-.18s.25,0,.7.31l0,0Zm3.91,0a4.23,4.23,0,0,0,.56.1.59.59,0,0,0,.37-.13.14.14,0,0,0,0-.11c0-.09-.16-.14-.31-.16h0c-.11,0-.24,0-.66.29Zm-4.62-.29c-.17,0-.33.06-.34.16a.13.13,0,0,0,0,.11.6.6,0,0,0,.38.13,3.51,3.51,0,0,0,.55-.1c-.4-.25-.54-.29-.63-.29Z"/><path class="cls-22" d="M14.82,14.14a4,4,0,0,1-.58.11c-.16,0-.44-.08-.43-.25s.2-.16.33-.17.22,0,.69.31Z"/><path d="M14.24,14.26a.6.6,0,0,1-.4-.13.17.17,0,0,1,0-.13c0-.14.26-.17.33-.18s.28,0,.7.31a2,2,0,0,1-.59.13Zm-.08-.42c-.18,0-.34.06-.34.16a.13.13,0,0,0,0,.11.6.6,0,0,0,.38.13,4.14,4.14,0,0,0,.58-.11c-.42-.25-.57-.28-.66-.28Z"/><path class="cls-22" d="M18.74,14.14a4,4,0,0,0,.59.11c.16,0,.44-.08.42-.25s-.19-.16-.32-.17-.22,0-.7.31Z"/><path d="M19.34,14.26a3.47,3.47,0,0,1-.6-.11c.42-.29.57-.33.67-.33s.36,0,.37.18a.18.18,0,0,1,0,.13.6.6,0,0,1-.39.13Zm-.57-.11c.07,0,.42.09.57.09a.59.59,0,0,0,.37-.13.14.14,0,0,0,0-.11c0-.09-.16-.14-.31-.16s-.26,0-.68.3Z"/><path class="cls-22" d="M15.34,13.76l-.12-.1L15,13.54s.09-.11.13-.12.15,0,.17.16,0,.19,0,.19Z"/><path d="M15.36,13.79h0l-.13-.1-.14-.1,0,0a.31.31,0,0,1,.14-.15h0s.12,0,.14.18,0,.19,0,.19v0Zm-.15-.37a.37.37,0,0,0-.16.12h0l.14.1.1.08s0-.09,0-.16-.05-.15-.11-.15Z"/><path class="cls-5" d="M15.34,13.76s0-.08,0-.19-.1-.18-.17-.16a.58.58,0,0,0-.13.12h0l-.12-.07a.76.76,0,0,1,.26-.15,3.2,3.2,0,0,1,.77.37.66.66,0,0,1,0,.37,1.85,1.85,0,0,1-.64-.3Z"/><path d="M16,14.06a1.78,1.78,0,0,1-.66-.29A2.85,2.85,0,0,0,16,14a.81.81,0,0,0-.06-.34,3.26,3.26,0,0,0-.76-.37.84.84,0,0,0-.25.14.29.29,0,0,1,.12.06s.07-.11.12-.13a.11.11,0,0,1,.11,0,.19.19,0,0,1,.08.15c0,.11,0,.19,0,.19h0a1.57,1.57,0,0,0,0-.19.19.19,0,0,0-.06-.14.1.1,0,0,0-.08,0s-.1.09-.12.12l-.14-.07a.57.57,0,0,1,.26-.17,3.05,3.05,0,0,1,.77.37.64.64,0,0,1,.06.38Z"/><path class="cls-5" d="M15.08,14.32a.5.5,0,0,0-.12.34c0,.26.19.27.31.27s.27-.09.26-.36a3,3,0,0,1-.45-.24Z"/><path d="M15.23,14.94a.32.32,0,0,1-.22-.07.29.29,0,0,1-.07-.21.51.51,0,0,1,.13-.35,3.85,3.85,0,0,0,.46.24c0,.26-.08.38-.27.39Zm-.16-.61a.66.66,0,0,0-.1.33.26.26,0,0,0,.06.19.28.28,0,0,0,.2.06h0c.17,0,.25-.12.25-.35a2.73,2.73,0,0,1-.44-.23Z"/><path class="cls-5" d="M15.18,14.38a.45.45,0,0,0-.11.26.17.17,0,0,0,.18.19c.15,0,.21-.22.14-.33l-.21-.12Z"/><path d="M15.23,14.85a.18.18,0,0,1-.13-.05.19.19,0,0,1,0-.15.46.46,0,0,1,.12-.27l.23.12a.26.26,0,0,1,0,.25.18.18,0,0,1-.15.11Zm-.06-.46a.68.68,0,0,0-.09.25.16.16,0,0,0,0,.13.14.14,0,0,0,.11,0h0a.16.16,0,0,0,.13-.09.23.23,0,0,0,0-.22l-.2-.12Z"/><path class="cls-22" d="M15.05,14.88a.34.34,0,0,0,.21,0c.15,0,.27-.09.26-.36a2.72,2.72,0,0,0,.48.16.35.35,0,0,1,.06.18c0,.1-.06.21-.14.2L15.26,15a.34.34,0,0,1-.2-.1Z"/><path d="M15.94,15.12h0L15.25,15a.36.36,0,0,1-.21-.1h.22c.17,0,.25-.12.25-.35,0,0,.21.08.5.15a.3.3,0,0,1,.06.19.22.22,0,0,1,0,.17.11.11,0,0,1-.09,0Zm-.8-.19.12,0,.67.12h0a.11.11,0,0,0,.07,0,.22.22,0,0,0,0-.15.32.32,0,0,0-.05-.17,2.57,2.57,0,0,1-.48-.16c0,.23-.07.36-.26.37Z"/><path class="cls-5" d="M16,15a.25.25,0,0,0,.06-.13.12.12,0,0,0,0-.08v0a.13.13,0,0,1,.06.1A.17.17,0,0,1,16,15Z"/><polygon class="cls-5" points="15.99 14.89 15.58 14.74 15.59 14.72 15.99 14.89 15.99 14.89"/><path class="cls-1" d="M15.65,14.82l.3.13Z"/><path class="cls-1" d="M15.76,14.75l.22.1Z"/><path class="cls-22" d="M18.22,13.76l.13-.1.18-.12s-.09-.11-.13-.12-.15,0-.16.16,0,.19,0,.19Z"/><path d="M18.21,13.79v0s0-.08,0-.19.06-.18.14-.18h0s.13.11.14.13h0l0,0-.15.11-.15.11Zm.17-.36c-.08,0-.12.05-.13.14s0,.13,0,.16l.11-.08.15-.11a.24.24,0,0,0-.1-.12Z"/><path class="cls-5" d="M18.22,13.76s0-.08,0-.19.1-.18.16-.16.13.12.13.12h0l.13-.07a.81.81,0,0,0-.26-.15,3,3,0,0,0-.77.37.67.67,0,0,0-.05.37,1.79,1.79,0,0,0,.64-.3Z"/><path d="M17.59,14.07a.6.6,0,0,1,0-.39,3,3,0,0,1,.78-.38.87.87,0,0,1,.27.15l-.13.1a1.07,1.07,0,0,0-.14-.13.12.12,0,0,0-.08,0,.19.19,0,0,0-.06.14c0,.11,0,.19,0,.19h0a1.4,1.4,0,0,1-.62.31Zm.82-.74a3.08,3.08,0,0,0-.76.37.75.75,0,0,0,0,.35,2.05,2.05,0,0,0,.61-.3s0-.08,0-.19a.19.19,0,0,1,.07-.15.12.12,0,0,1,.11,0,.54.54,0,0,1,.14.13.4.4,0,0,1,.11-.08,2.66,2.66,0,0,0-.25-.12Z"/><path class="cls-5" d="M18.49,14.32a.51.51,0,0,1,.12.34c0,.26-.18.27-.31.27s-.26-.09-.26-.36a3,3,0,0,0,.45-.24Z"/><path d="M18.33,14.94h0c-.18,0-.27-.13-.27-.38a5,5,0,0,0,.45-.26.43.43,0,0,1,.15.35.27.27,0,0,1-.06.21.32.32,0,0,1-.22.08Zm.14-.61a2.12,2.12,0,0,1-.43.25c0,.22.09.33.26.34h0a.29.29,0,0,0,.21-.06.26.26,0,0,0,.05-.19.53.53,0,0,0-.12-.33Z"/><path class="cls-5" d="M18.39,14.38a.44.44,0,0,1,.11.26.16.16,0,0,1-.18.19c-.15,0-.21-.22-.14-.33l.21-.12Z"/><path d="M18.33,14.85h0a.18.18,0,0,1-.15-.1.27.27,0,0,1,0-.25l.22-.13a.39.39,0,0,1,.13.27.2.2,0,0,1,0,.15.19.19,0,0,1-.14.06Zm0-.46-.2.13a.25.25,0,0,0,0,.22.15.15,0,0,0,.13.09h0a.16.16,0,0,0,.12,0,.16.16,0,0,0,0-.13.45.45,0,0,0-.11-.26Z"/><path class="cls-22" d="M18.51,14.88a.34.34,0,0,1-.21,0c-.15,0-.26-.09-.26-.36a2.89,2.89,0,0,1-.48.16.31.31,0,0,0-.06.18c0,.1.06.21.14.2l.67-.12a.32.32,0,0,0,.2-.1Z"/><path d="M17.63,15.12a.11.11,0,0,1-.09,0,.23.23,0,0,1-.06-.17.32.32,0,0,1,.06-.19,2.29,2.29,0,0,0,.48-.17c0,.24.1.36.27.36h.05a.27.27,0,0,0,.15,0s0,.09-.19.12l-.68.12Zm-.06-.38a.33.33,0,0,0,0,.16.2.2,0,0,0,0,.15.09.09,0,0,0,.06,0h0l.67-.12.11,0H18.3c-.18,0-.27-.13-.27-.37a1.53,1.53,0,0,1-.46.17Z"/><path class="cls-5" d="M17.63,15c-.08,0-.1-.06-.1-.11a.14.14,0,0,1,.06-.1l0,0a.11.11,0,0,0,0,.19Z"/><polygon class="cls-5" points="17.59 14.92 17.98 14.72 17.99 14.74 17.59 14.92 17.59 14.92"/><path class="cls-1" d="M17.92,14.82l-.29.13Z"/><path class="cls-1" d="M17.81,14.75l-.22.1Z"/><path d="M14,13.76a.49.49,0,0,0,0-.08s0-.07,0-.09h0s0,0,0,0a.1.1,0,0,0,.08,0,.07.07,0,0,0,.08-.07s0-.06-.08-.08-.09-.05-.09-.11,0-.09.09-.1h.08a.18.18,0,0,0,0,0h0a.87.87,0,0,0,0,.14h0s0,0,0,0a.08.08,0,0,0-.08,0s-.06,0-.06.06,0,0,.08.07a.16.16,0,0,1,.1.12c0,.07,0,.11-.12.12H14v.05Z"/><path d="M14.37,13.5l0-.11,0,0h0l.08,0,.07,0h0l0,0a1.2,1.2,0,0,0-.06.11l0,.06c-.05.1,0,.15,0,.17a.09.09,0,0,0,.08,0s.06-.05.09-.11l0,0,.05-.12,0,0h0l.07,0,.06,0h0l0,.08v0l0,.06c0,.05-.06.09-.11.11a.13.13,0,0,1-.11,0,.14.14,0,0,1-.08-.21l0-.07Z"/><path d="M15.25,14l.05-.1,0,0h0l.07,0,.07,0h0l0,0-.06.1,0,.06c-.05.1,0,.15,0,.18a.11.11,0,0,0,.08,0s.07,0,.1-.1l0,0,.06-.11,0,0h0l.07,0,.05,0h0l0,.07v0l0,.06a.17.17,0,0,1-.12.1.16.16,0,0,1-.16-.24l0-.07Z"/><path d="M15.87,14.55h.05s0-.26,0-.29l-.22.25s0-.31,0-.33h0a2,2,0,0,0-.12.26l0,0h0l-.07,0-.06,0h0l.17-.29,0,0h0l.07,0,.08,0h0s0,.23,0,.27l.18-.21h0l.06,0,.07,0H16c0,.06,0,.3,0,.33l0,0h0l-.07,0-.09,0Z"/><path d="M17.52,14.4l0-.14h-.06l.09,0,.16,0a.17.17,0,0,0,0,0h0a.87.87,0,0,0,0,.12h0v0a.32.32,0,0,0-.13,0s0,.1,0,.13h0l.1,0v0h0a.77.77,0,0,0,0,.11h0a.12.12,0,0,0,0,0l-.1,0h0l0,.14h.06l-.09,0-.08,0h0l.05,0,0-.15v0Z"/><path d="M17.84,14.27l-.05-.11,0,0h0l.08,0,.09,0h0l-.05,0,0,.12v0l.07.16a.19.19,0,0,0,.1-.07s0,0,0-.06h0l0,.17h0l0-.06-.14.06-.08,0h0l0,0s0-.11-.07-.16v0Z"/><path d="M18.9,13.67l-.07-.12h-.06l.08,0,.14-.07v0h0l0,.1h0v0s-.09,0-.11,0l.06.13h0l.09-.05v0h0a.57.57,0,0,0,0,.09h0l0,0-.1,0h0l.08.14.1-.07a.16.16,0,0,0,0,0h0l0,.11h0l0,0-.14.07-.07,0h0l0,0-.07-.14v0Z"/><path d="M14.78,13.75l.07-.12,0,0h0l.13.07c.08.05.07.1.06.12l0,0a.14.14,0,0,1-.08,0s.06.1,0,.14a.1.1,0,0,1-.16,0l-.08-.05-.06,0h0l.05,0,.08-.13,0,0Z"/><path class="cls-5" d="M14.8,13.83l0,.09,0,0a0,0,0,0,0,.08,0,.09.09,0,0,0,0-.09l0,0v0Z"/><path class="cls-5" d="M14.83,13.78h0a.07.07,0,0,0,0,0,0,0,0,0,0,0-.08h0l0,.08v0Z"/><path d="M16.19,14.43s0-.12,0-.14h-.05l.15,0c.1,0,.11.05.11.08a.19.19,0,0,1,0,0,.18.18,0,0,1-.07,0h0a.1.1,0,0,1,.09.11.1.1,0,0,1-.13.08h-.11s0-.11,0-.15v0Z"/><path class="cls-5" d="M16.24,14.5s0,.09,0,.1h0a0,0,0,0,0,.06,0,.08.08,0,0,0,0-.08l0,0v0Z"/><path class="cls-5" d="M16.25,14.43h.05a.07.07,0,0,0,0,0s0-.06,0-.06h0a.68.68,0,0,0,0,.09v0Z"/><path d="M16.55,14.46s0-.12,0-.13h.06a.43.43,0,0,1,.14,0,.06.06,0,0,1,0,.06s0,.07-.08.1a1.82,1.82,0,0,0,.14.21h0a1.78,1.78,0,0,1-.17-.19h0a1,1,0,0,0,0,.14h-.06s0-.12,0-.17v0Z"/><path class="cls-5" d="M16.62,14.47h0a.07.07,0,0,0,0-.06s0-.06-.09-.06a1.06,1.06,0,0,0,0,.12Z"/><path d="M18.55,13.86l-.07-.11-.05,0h0l.1-.06a.42.42,0,0,1,.13-.06.07.07,0,0,1,.07,0,.14.14,0,0,1,0,.12l.23.1h0a1.5,1.5,0,0,1-.25-.06l0,0h0l.07.11,0,0h0l-.08,0-.08,0h0l0,0-.08-.15v0Z"/><path class="cls-5" d="M18.61,13.85l0,0a.08.08,0,0,0,0-.08s-.05,0-.11,0l.06.1Z"/><path d="M17.1,14.66h0l-.06-.14-.12,0a.72.72,0,0,0,0,.14h0s.1-.32.1-.33h.07l.07.15a.87.87,0,0,0,.08.17H17.1Z"/><path class="cls-5" d="M17,14.36h0s0,.11,0,.12h.08l0-.11Z"/><path d="M18.22,14.29a.17.17,0,0,1-.11-.08.2.2,0,0,1,.08-.28.23.23,0,0,1,.14,0,.19.19,0,0,1,.12.08.21.21,0,0,1-.08.3.22.22,0,0,1-.16,0Z"/><path class="cls-5" d="M18.39,14a.14.14,0,0,0-.19-.05.12.12,0,0,0,0,.16.15.15,0,0,0,.19,0,.11.11,0,0,0,0-.15Z"/><path d="M19.27,13.67a.16.16,0,0,1-.09-.1.2.2,0,0,1,.16-.25.22.22,0,0,1,.15,0,.14.14,0,0,1,.1.1.2.2,0,0,1-.15.26.22.22,0,0,1-.17,0Z"/><path class="cls-5" d="M19.51,13.47a.13.13,0,0,0-.16-.1.1.1,0,0,0-.07.14.14.14,0,0,0,.17.1.11.11,0,0,0,.06-.14Z"/><path class="cls-12" d="M12.27,7.75l2.9-1.5-.08-.2-2.5,1.2a2.1,2.1,0,0,0-.75.49c-.13.16-.06.26-.06.26a.21.21,0,0,1,.09,0s0,.09,0,.13,0,.06,0,.07.07,0,.12-.1a2.5,2.5,0,0,1,.27-.33Z"/><path d="M11.89,8.19h0a.06.06,0,0,1-.05,0h0v0s0-.12,0-.12l-.08,0s-.08-.11.05-.27a2.16,2.16,0,0,1,.75-.5L15.1,6l.09.2-2.9,1.51a2.12,2.12,0,0,0-.27.32c0,.08-.07.11-.12.11Zm0-.22a.13.13,0,0,1,0,.14.05.05,0,0,0,0,.06h0s.06,0,.1-.1a2,2,0,0,1,.28-.33l2.9-1.5-.08-.19L12.6,7.26a2.11,2.11,0,0,0-.74.49c-.11.14-.08.22-.06.24l.08,0Z"/><path class="cls-5" d="M14.61,6.27,15,6.09s.13.09.11.2a.61.61,0,0,0,.34.42,1.05,1.05,0,0,1-.71.35s0-.44-.06-.56-.1-.15,0-.23Z"/><path d="M14.71,7.07h0s0-.44-.06-.56-.1-.15-.05-.24L15,6.08s.14.1.13.21a.61.61,0,0,0,.33.41,1,1,0,0,1-.72.37Zm.27-1-.36.18c0,.07.05.21.06.21a1.18,1.18,0,0,1,.06.56,1.06,1.06,0,0,0,.7-.35.59.59,0,0,1-.33-.41c0-.1-.11-.2-.11-.2Z"/><path class="cls-17" d="M14.72,6.5s.25-.16.33-.2v0l-.34.17Z"/><path class="cls-17" d="M14.94,6.6a.18.18,0,0,1,0-.17l0,0v0a.3.3,0,0,0,0,.17Z"/><path class="cls-17" d="M14.91,6.59a.17.17,0,0,1,0-.16l0,0v0a.31.31,0,0,0,0,.16Z"/><path class="cls-1" d="M14.85,6.43a.17.17,0,0,0,0,.11Z"/><path class="cls-1" d="M14.82,6.45a.12.12,0,0,0,0,.05Z"/><path class="cls-17" d="M15.25,6.7A.72.72,0,0,1,15,6.45h0a1.33,1.33,0,0,0,.18.26Z"/><path class="cls-17" d="M15.2,6.7c-.07,0-.13-.15-.14-.17h0a.8.8,0,0,0,.11.19Z"/><path class="cls-17" d="M15.15,6.73c-.06,0-.09-.09-.11-.14h0a.69.69,0,0,0,.08.15Z"/><path class="cls-1" d="M15.06,6.67a.26.26,0,0,0,0,.1Z"/></g><g class="cls-23"><rect class="cls-24" x="13.54" y="6.02" width="0.77" height="0.92"/></g><g class="cls-2"><path d="M13.86,6.89h0a.21.21,0,0,1-.12,0,.31.31,0,0,1-.11-.15.88.88,0,0,1-.08-.27,1.22,1.22,0,0,1,0-.36h0a1.42,1.42,0,0,0,0,.37,1,1,0,0,0,.08.26.34.34,0,0,0,.11.15.23.23,0,0,0,.12,0h0A.41.41,0,0,0,14,6.82l0,0a.23.23,0,0,0,.1-.09.33.33,0,0,0,0-.08.39.39,0,0,1,0-.1.18.18,0,0,0,.06-.09v0c0-.05,0-.06-.05-.06h0a.05.05,0,0,1,.06,0,0,0,0,0,1,0,.06v0a.42.42,0,0,1,0,.08l0,0a.53.53,0,0,1,0,.08.35.35,0,0,1,0,.08.28.28,0,0,1-.12.1l0,0a.41.41,0,0,1-.18.06Zm.38-.58a.55.55,0,0,0,0-.22V6a1.19,1.19,0,0,1-.41.06h-.18l0,0h.22a1.06,1.06,0,0,0,.4-.06s0,0,0,0a.47.47,0,0,1,0,.26Z"/><path d="M13.56,6.14s0-.05,0-.13,0-.08,0-.12,0-.06.06-.08l.14,0,.11,0a.46.46,0,0,1,.24,0c.06,0,.1.11.13.14s.06.14.06.31,0,.13,0,.13,0-.08-.09,0a1,1,0,0,1,0-.11.61.61,0,0,1,0-.2,1.48,1.48,0,0,1-.34.07.71.71,0,0,1-.29-.06l0,.09Z"/><path d="M14.31,6.38h0s0,0,0,0l0,0h0a.64.64,0,0,1,0-.11s0,0,0-.05a.27.27,0,0,1,0-.14.86.86,0,0,1-.32.08s-.3,0-.31-.07v.09s0-.06,0-.13l0-.06a.07.07,0,0,1,0-.06l0,0,0,0h.14l.12,0a.45.45,0,0,1,.24,0,.31.31,0,0,1,.09.09l0,0s.07.15.06.32,0,.15,0,.15Zm-.06-.06s.05,0,.06,0,0,0,0-.12,0-.28,0-.3l0-.05a.31.31,0,0,0-.09-.08.43.43,0,0,0-.23,0l-.11,0h-.14l-.06.08a.07.07,0,0,0,0,0,.21.21,0,0,1,0,.07c0,.06,0,.1,0,.12V6a1.23,1.23,0,0,0,.3.06h0A1.45,1.45,0,0,0,14.22,6a.83.83,0,0,0,0,.14.19.19,0,0,1,0,.06s0,.07,0,.09a0,0,0,0,1,0,0Z"/><path class="cls-5" d="M13.67,6s-.07-.11,0-.14,0,.11.08.14,0,.06-.05,0Z"/><path class="cls-5" d="M13.7,6h0l0,0s-.07-.12,0-.15,0,0,0,.05,0,.07,0,.08l0,0Zm0-.17s0,.08,0,.11l0,0V6s0,0,0-.08,0,0,0,0Z"/></g><g class="cls-25"><rect class="cls-26" x="12.27" y="6.52" width="3.43" height="2.29"/></g><g class="cls-2"><path d="M14.72,8.81h0c-.08,0-.12-.1-.15-.17l0,0a1.25,1.25,0,0,1-.08-.19,1.1,1.1,0,0,1,0,.26,1,1,0,0,1-.44.07,4.46,4.46,0,0,1-.66-.07,1.76,1.76,0,0,0-.09-.49c0,.07-.14.22-.21.28a.35.35,0,0,0-.12.16c0,.06-.15.07-.19,0l-.08-.08s-.09,0-.17-.15a1.66,1.66,0,0,1-.14-.49.56.56,0,0,0,0-.09l-.06-.09.37-.2a.24.24,0,0,1,0-.12s0,.09,0,.13l-.37.19.06.08a.86.86,0,0,1,0,.09,1.78,1.78,0,0,0,.14.48c.08.13.12.13.14.14l.11.09h.07s.08,0,.09,0A.33.33,0,0,1,13,8.44c.08-.06.23-.21.23-.27h0a1,1,0,0,1,.1.48s.33.06.62.06h0a1.39,1.39,0,0,0,.45-.06,2.18,2.18,0,0,0,0-.29s.07.16.1.21l0,.05c0,.07.08.15.14.16h0a.18.18,0,0,0,.15-.11V8.42h.35l.19,0s0,0,.05,0l0,0h0v0a.26.26,0,0,1,.1,0h.1l-.1,0-.08,0s0,0,0,0a.06.06,0,0,1-.06,0l-.17,0h-.37v.25a.2.2,0,0,1-.17.13Zm1-.41a.44.44,0,0,0-.16-.1.83.83,0,0,0-.18-.06.72.72,0,0,0-.24,0,.83.83,0,0,0-.22,0s0,0,0,0a.87.87,0,0,0-.05-.41.28.28,0,0,1,0-.21,3.35,3.35,0,0,0,0-.34c0-.05-.08-.14-.25-.16a.34.34,0,0,1-.3-.25,1.43,1.43,0,0,1,0-.35h0a1.5,1.5,0,0,0,0,.36.32.32,0,0,0,.28.23.29.29,0,0,1,.27.18c0,.06,0,.29,0,.35a.29.29,0,0,0,0,.2.94.94,0,0,1,.05.42l.23,0a.81.81,0,0,1,.26,0l.18.05c.08,0,.16.07.17.12Zm-2.88-.45s-.14,0-.14-.13a.25.25,0,0,1,0-.11.23.23,0,0,0,0-.06.59.59,0,0,0,0-.22s-.05,0-.08-.06l0,0,0,0s0,0,0,0h0s-.06,0-.06,0a.06.06,0,0,1,0,0h.05c.06,0,.11,0,.12.08a.6.6,0,0,1,0,.21.27.27,0,0,1,0,.08.23.23,0,0,0,0,.11c0,.06.11.12.11.12a.42.42,0,0,1,.13-.24s0,0,0,0a.38.38,0,0,1,0-.27l.62-.33a.21.21,0,0,0,.11-.23c.19.08.23,0,.3,0l.06,0a.29.29,0,0,0,.12-.1.39.39,0,0,0,0-.09V6.53h0l0,.09a.3.3,0,0,1,0,.1.32.32,0,0,1-.13.11l-.05,0a.3.3,0,0,1-.28,0h0a.22.22,0,0,1-.13.23L13,7.4a.41.41,0,0,0,0,.25s0,0,0,.07a.49.49,0,0,0-.14.23Z"/><path d="M15.66,8.43a.14.14,0,0,0-.07,0l-.06,0-.07,0,0,0a.05.05,0,0,1,.05,0l0,0,.08,0,.07.05Z"/><path class="cls-1" d="M15.44,8.4l0,0h0a.13.13,0,0,1-.1,0Z"/><path d="M13,8.26s0-.05-.05-.11A.26.26,0,0,0,12.81,8h0a.29.29,0,0,1,.13.21.39.39,0,0,0,0,.11Z"/><path d="M12.71,8.48A.79.79,0,0,1,12.46,8V8h0V8a.88.88,0,0,0,.22.47Z"/><path class="cls-1" d="M12.5,7.65s0,.08,0,.12Z"/><path d="M13.08,8.18h0a.23.23,0,0,1,.1-.1s.08,0,.08-.08,0,.08-.06.1a.21.21,0,0,0-.1.09Z"/><path d="M13.27,8.17V8.09a.85.85,0,0,1,0-.26.4.4,0,0,0,0-.08.2.2,0,0,1-.14.14.26.26,0,0,0,.14-.26.56.56,0,0,0,0-.11h0s0,.06,0,.13a.91.91,0,0,1,0,.19.86.86,0,0,0,0,.26v.07Z"/><path d="M14.47,8.37h0a.79.79,0,0,1,0-.25.53.53,0,0,0,0-.26.3.3,0,0,1,0-.07.18.18,0,0,1-.14.05c-.17,0-.24,0-.27-.07a.06.06,0,0,1,0,0l0,0s.09.06.25.06a.17.17,0,0,0,.14-.06c.09-.11,0-.34,0-.34h0s0,0,0,.08a.31.31,0,0,1,0,.27s0,0,0,.08a.6.6,0,0,1,0,.27.74.74,0,0,0,0,.24Z"/><path d="M13.62,7.85c-.37,0-.37-.26-.37-.34h0c0,.09,0,.32.35.32a.5.5,0,0,0,.28-.12.39.39,0,0,1-.28.15Z"/><path d="M14,7.61a1.72,1.72,0,0,1,0-.28c0,.1,0,.2,0,.27Z"/><path d="M13.47,7.21h0a2.27,2.27,0,0,1,.32,0l-.32,0Z"/><path d="M14,7.17c-.13,0-.14-.1-.15-.17a.5.5,0,0,0,0-.06h0a.3.3,0,0,1,0,.06c0,.08,0,.16.14.17Z"/><path class="cls-1" d="M14.13,6.9a.73.73,0,0,0,0,.17Z"/><path d="M14.1,7.18v0h.08a.71.71,0,0,1,.28,0l-.28,0Z"/><path d="M14.66,8.29a.3.3,0,0,1-.13-.18l0-.05h0l0,.06a.43.43,0,0,0,.11.18Z"/><path d="M13.36,8.66a.55.55,0,0,0,0-.44.48.48,0,0,1,0-.29.53.53,0,0,0,0-.08h0a.27.27,0,0,1,0,.09.5.5,0,0,0,0,.27.49.49,0,0,1,0,.45Z"/><path d="M13.52,8.09a.14.14,0,0,1,0-.12l0-.07h0l0,.08a.35.35,0,0,0-.06.11Z"/><path d="M13.72,8.71a.25.25,0,0,0-.13-.25A1.76,1.76,0,0,0,13.76,8h0a1.39,1.39,0,0,1-.19.43.22.22,0,0,1,.12.26Z"/><path class="cls-1" d="M14,7.88c0,.05,0,.06,0,.1Z"/><path d="M14.32,8.35c0-.1-.13-.28-.19-.35V8h0c.06.08.21.25.17.36Z"/><path d="M14,8.44a1.72,1.72,0,0,0,0-.35h0a.94.94,0,0,1,0,.36Z"/><path d="M13.8,8.54a.1.1,0,0,1,.11-.12v0a.11.11,0,0,0-.11.1Z"/><path d="M14.28,8.7c0-.18-.08-.24-.1-.26l0,0a.06.06,0,0,1,.06,0,.34.34,0,0,1,.08.27Z"/><path d="M14.71,8.41s0,0,.07-.07l.1,0v0l-.1,0-.08.05Z"/><path class="cls-1" d="M13.8,6.33c0,.07,0,.08,0,.12Z"/><path class="cls-1" d="M14.18,6.51s0,0,0,0Z"/><path class="cls-1" d="M14.24,6.37s0,0,0,0Z"/><path d="M13.47,7.81s0,0,0,0,0,0,0,0a0,0,0,1,0,0,.07Z"/><ellipse class="cls-1" cx="13.47" cy="7.77" rx="0.04" ry="0.03"/><path d="M14.38,7.82a0,0,0,0,0,0,0s0,0,0,0,0,0,0,0,0,0,0,0Z"/><ellipse class="cls-1" cx="14.37" cy="7.78" rx="0.04" ry="0.03"/><path d="M13.7,6.57a0,0,0,0,1,0,0s0-.05,0-.08l0,0c0-.06,0-.12,0-.14l-.11,0v0l.11,0c.06,0,0,.1,0,.16l0,0s0,.05,0,.06h.07s0,0,0,0l.06,0h0s0,0,0-.05a0,0,0,0,1,0,.07h-.07l-.06,0Z"/><path d="M13.86,6.3h0s0,0,.07,0a.24.24,0,0,1,.22,0,.33.33,0,0,0-.21,0,.07.07,0,0,0-.05,0Z"/><path class="cls-5" d="M13.57,6.33a.11.11,0,0,1,.12,0s-.07.06-.05,0-.07,0-.07,0,0,0,0,0Z"/><path d="M13.62,6.39a.05.05,0,0,1-.06,0h0s0,0,0,0h0s.06,0,.06,0a.11.11,0,0,0-.07,0h0c.06,0,.07,0,.11,0s0,0-.05.06Z"/><path d="M13.63,6.37a0,0,0,0,0,0,0,0,0,0,0,0,0,0s0,0,0,0a0,0,0,0,0,0,0Z"/><circle class="cls-1" cx="13.63" cy="6.34" r="0.03"/><path d="M13.79,6.74a.19.19,0,0,1-.1,0,.34.34,0,0,0,.2,0v0Z"/><path d="M13.72,6.68h0v0a.07.07,0,0,1,.07,0h0a.14.14,0,0,1,.09,0h-.13a.07.07,0,0,0-.07,0Z"/><path d="M13.69,6.7h0a.54.54,0,0,1,.21,0Z"/><path class="cls-5" d="M13.9,6.35c0-.05.07,0,.11,0l.06,0s0,0-.06,0-.07,0-.09,0,0,0,0,0Z"/><path d="M13.95,6.4h0l0,0a.12.12,0,0,1,.13,0l.06,0,0,0-.09,0Z"/><path d="M14,6.38s0,0,0,0a0,0,0,0,0,0,0,0,0,0,0,0,0,0,0,0,0,0,0,0,0Z"/><circle class="cls-1" cx="13.96" cy="6.34" r="0.03" transform="translate(-0.34 0.82) rotate(-3.31)"/><path class="cls-27" d="M12.14,7.49s0-.08,0-.12,0-.07.08-.08a.16.16,0,0,1,.13-.06s.09-.06.12-.05a.26.26,0,0,1,.12.11.12.12,0,0,1,0,.1s0,0,0,0a.07.07,0,0,1,0,.08c-.05,0,0,0-.05,0s0,.06,0,.07,0,0-.08,0,0,0,0,.06a.07.07,0,0,1-.08,0s0-.07-.13,0Z"/><path d="M12.31,7.53l0,0s-.06-.05-.12,0h0c.06-.09.11,0,.13,0l0,0h0l0,0,0,0v0l.06,0s0-.05,0-.07l0,0,0,0a.05.05,0,0,0,0-.06l0,0a.09.09,0,0,0,0-.09.24.24,0,0,0-.11-.11h0a.24.24,0,0,0-.11.05.17.17,0,0,0-.12.06.11.11,0,0,0-.08.08.08.08,0,0,0,0,.07v0h0l0,0a.1.1,0,0,1,0-.11h0a.1.1,0,0,1,.08-.08.15.15,0,0,1,.12-.06.51.51,0,0,1,.12-.05.24.24,0,0,1,.13.12.12.12,0,0,1,0,.11h0a.05.05,0,0,1,0,.05s0,0-.05,0,0,0,0,.05h-.06v0Z"/><path d="M12.52,7.34a.15.15,0,0,0-.15-.1.14.14,0,0,1,.17.1Z"/><path d="M12.45,7.41v0a.17.17,0,0,0-.14-.08h0a.16.16,0,0,1,.14.06v.06Z"/><path class="cls-1" d="M12.35,7.46s0-.05-.06-.06a.27.27,0,0,0-.13,0Z"/><path class="cls-5" d="M13.11,9.44a2.41,2.41,0,0,1,.2-.59,3.4,3.4,0,0,0,.42.05,2,2,0,0,0,.45,0l.27,0a.55.55,0,0,1,.05.19c0,.2.09,1.08.1,1.32a2.44,2.44,0,0,1,0,.48c0,.38.1,1.14.1,1.54l-.1,0s-.57,0-.57,0a13.14,13.14,0,0,1,.05-1.65s0-.11-.05-.22-.17-.39-.17-.46-.22.63-.23.74,0,1.5-.06,1.62l-.37.28a.82.82,0,0,1-.36-.17,8.07,8.07,0,0,1,.18-1.3,1.09,1.09,0,0,0,0-.41c0-.08,0-1.08.05-1.39Z"/><path d="M13.21,12.72a.84.84,0,0,1-.36-.18,8.81,8.81,0,0,1,.18-1.3,1,1,0,0,0,0-.35s0,0,0-.05,0-1.06.05-1.39a2.18,2.18,0,0,1,.18-.55l0,0s.16,0,.42,0a2,2,0,0,0,.41,0h0l.27,0a.38.38,0,0,1,.06.2c0,.08,0,.24,0,.42s.06.75.06.9a2.54,2.54,0,0,1,0,.48c0,.19,0,.46,0,.74s.05.59.05.8l-.11,0a3.32,3.32,0,0,1-.5,0s-.08,0-.08,0v-.06a10.72,10.72,0,0,1,.05-1.59h0a1.62,1.62,0,0,0,0-.21L14,10.38a1.56,1.56,0,0,1-.11-.29c0,.08-.2.63-.22.73s0,.31,0,.62,0,.93,0,1l-.37.28Zm.1-3.86s0,0,0,0a1.9,1.9,0,0,0-.18.55c0,.28-.05,1.16-.05,1.38,0,0,0,0,0,.05a1,1,0,0,1,0,.36,8.26,8.26,0,0,0-.18,1.29.86.86,0,0,0,.34.17h0l.36-.27c0-.06,0-.57,0-1s0-.58,0-.62a7.45,7.45,0,0,1,.24-.74l.13.29.06.16c0,.1.05.22.05.22a10.76,10.76,0,0,0-.05,1.59v.06s0,0,.07,0a3.46,3.46,0,0,0,.49,0l.1,0c0-.2,0-.5-.06-.79s0-.56,0-.75a2.69,2.69,0,0,0,0-.48c0-.15,0-.57-.07-.9s0-.34,0-.42a.48.48,0,0,0,0-.19l-.26,0h0a1.94,1.94,0,0,1-.41,0l-.41-.05Z"/><path d="M13.13,9.38a.94.94,0,0,0,.26-.43h0a.81.81,0,0,1-.28.43Z"/><path d="M13.44,10.77A7.71,7.71,0,0,1,13.67,9h0a8.12,8.12,0,0,0-.25,1.78Z"/><path d="M13.51,11.05a.61.61,0,0,0,.13-.24h0a.41.41,0,0,1-.14.24Z"/><path d="M13.37,11.86a3.35,3.35,0,0,1,0-.5c0-.15,0-.28,0-.32h0s0,.17,0,.32,0,.43,0,.49Z"/><path d="M13.23,12.71a2.18,2.18,0,0,1,.09-.74h0a2.81,2.81,0,0,0-.11.73Z"/><path d="M14.63,12.39a2.58,2.58,0,0,1-.16-1.09h0a2.8,2.8,0,0,0,.14,1.09Z"/><path d="M13.89,10.08c0-.22.06-.24.06-.25s-.1-.06-.1-.11,0-.61,0-.7h0c0,.09,0,.65,0,.7a.17.17,0,0,0,.09.11.39.39,0,0,0-.07.25Z"/><path d="M13.61,10c0-.11.09-.38.1-.45h0a3.34,3.34,0,0,1-.12.45Z"/><path d="M14.48,10.82c-.11-.62-.17-1.73-.17-1.79s-.15,0-.2,0V9c.1,0,.18,0,.19,0s.08,1.17.17,1.8Z"/><path d="M14,9.81s0-.57,0-.65h0c0,.08,0,.65,0,.65Z"/><path d="M14.17,10.06a.53.53,0,0,0-.07-.16h0s.08.11.06.17Z"/><path class="cls-1" d="M13.46,9l.12,0Z"/><path d="M13.77,9.23s0-.15,0-.18h0a1.58,1.58,0,0,0,0,.17Z"/><path d="M14.15,10.93a.23.23,0,0,0,0-.17h0a.19.19,0,0,1,0,.18Z"/><path class="cls-28" d="M13.28,8.84a.41.41,0,0,1,0-.19l.33,0a2.44,2.44,0,0,0,.49,0l.29,0a.67.67,0,0,1,0,.21,2.32,2.32,0,0,1-.33,0,3.59,3.59,0,0,1-.57,0l-.29,0Z"/><path d="M14,8.93a4.25,4.25,0,0,1-.47,0l-.28,0a.25.25,0,0,1,0-.21l.34,0a2.42,2.42,0,0,0,.49,0,2.32,2.32,0,0,0,.29,0s.05.2,0,.23a1.68,1.68,0,0,1-.33,0Zm-.71-.27a.49.49,0,0,0,0,.18l.27,0a4.34,4.34,0,0,0,.56,0,2.3,2.3,0,0,0,.33,0,1.28,1.28,0,0,0,0-.2,1.49,1.49,0,0,1-.28.06,2.5,2.5,0,0,1-.5,0l-.33,0Z"/><polygon class="cls-5" points="13.4 8.86 13.43 8.67 13.47 8.67 13.46 8.87 13.4 8.86"/><polygon points="13.47 8.88 13.4 8.87 13.42 8.67 13.47 8.66 13.47 8.87 13.47 8.88 13.47 8.88"/><polygon class="cls-5" points="14.27 8.7 14.27 8.91 14.32 8.9 14.31 8.69 14.27 8.7"/><polygon points="14.26 8.93 14.26 8.7 14.31 8.68 14.33 8.9 14.26 8.93 14.26 8.93"/><polygon class="cls-5" points="13.65 8.7 13.64 8.9 13.67 8.9 13.69 8.7 13.65 8.7"/><polygon points="13.68 8.91 13.64 8.91 13.64 8.69 13.69 8.69 13.68 8.91 13.68 8.91"/><path class="cls-29" d="M13,12.62a1.78,1.78,0,0,0,0,.21s0,.13,0,.13.06-.11.06-.11S13,13,13,13s.08-.14.08-.14-.06.15,0,.17.09-.15.09-.15-.06.16,0,.17.07-.16.07-.16,0,.19.06.18.06-.08.07-.12a.33.33,0,0,0,0-.26c0-.09,0-.12,0-.12l-.2.14s-.26-.09-.26-.09Z"/><path d="M13.34,13.07l0,0a.08.08,0,0,1,0,0s0,0-.05,0a.13.13,0,0,1,0-.05.06.06,0,0,1-.05,0,0,0,0,0,1,0,0l0,0a.05.05,0,0,1,0,0l0,0a.13.13,0,0,1-.05-.13.93.93,0,0,1,0-.2l0,0a1,1,0,0,0,.23.09l.21-.14s0,0,0,.12a.37.37,0,0,1,0,.24l0,0h0s0,.1-.08.11Zm-.06-.19s0,0,0,.07a.12.12,0,0,0,0,.09l0,0h0s.05-.05.06-.1v0a.32.32,0,0,0,0-.23.36.36,0,0,1,0-.11.75.75,0,0,1-.18.14.74.74,0,0,1-.26-.09c0,.08,0,.14,0,.21a.2.2,0,0,0,0,.11s0,0,.05,0a.41.41,0,0,1,0-.06s0,0,0,.07S13,13,13,13a.06.06,0,0,0,0,0,.27.27,0,0,1,0-.07h0v0s0,0,0,.08,0,0,0,0,0,0,.06-.06a.46.46,0,0,1,0-.09s0,.05,0,.1a.1.1,0,0,0,0,.06c.05,0,.06,0,.07-.07a.32.32,0,0,1,0-.07Z"/><path class="cls-29" d="M14.13,12.45s0,.07,0,.11,0,.13.14.12a1.35,1.35,0,0,1,.35,0,1.37,1.37,0,0,0,.27,0l.15,0s.09,0,.11,0a.08.08,0,0,0,.07-.07c0-.05,0-.05-.12-.05l-.19,0a1.29,1.29,0,0,0-.22-.08h-.23a2.72,2.72,0,0,1-.3,0Z"/><path d="M14.86,12.69a1.24,1.24,0,0,1-.27,0,.68.68,0,0,0-.24,0h-.11a.2.2,0,0,1-.12,0,.12.12,0,0,1,0-.09s0,0,0,0,0-.07,0-.07h.53a.8.8,0,0,1,.19.06l0,0a.87.87,0,0,0,.19,0c.07,0,.13,0,.13.06s0,0,0,0a.09.09,0,0,1-.1,0H15l-.16,0Zm-.34-.05h.07a1.13,1.13,0,0,0,.27,0l.14,0h.08s.07,0,.08,0,0-.08-.09-.08a1,1,0,0,1-.21,0l0,0a1,1,0,0,0-.18-.06h-.53a.34.34,0,0,1,0,.05.24.24,0,0,1,0,0,.12.12,0,0,0,0,.08.13.13,0,0,0,.09,0h.29Z"/><path class="cls-16" d="M17.77,6l3.52,1.72c.2,0,.13.16.27.33s.08.1.12.1.1-.16.08-.18a.82.82,0,0,0-.11-.1s.06.09.17.09.11-.05,0-.15a.25.25,0,0,0-.23-.11,1.58,1.58,0,0,1-.27-.13A2,2,0,0,0,21,7.38L17.82,5.67s-.22-.14-.33,0,0,.22.28.32Z"/><path d="M21.69,8.19h0s-.06,0-.1-.07l0,0a.53.53,0,0,1-.1-.17.18.18,0,0,0-.16-.15L17.77,6c-.17-.07-.27-.15-.3-.23a.13.13,0,0,1,0-.11.23.23,0,0,1,.32-.06L21,7.37a2.59,2.59,0,0,1,.36.23,1.46,1.46,0,0,0,.27.13.28.28,0,0,1,.23.11c0,.06.07.1.06.13s-.09,0-.14,0h0a.16.16,0,0,1,0,.13.09.09,0,0,1-.08.06Zm-4-2.57a.17.17,0,0,0-.15.1.11.11,0,0,0,0,.09c0,.07.12.15.29.22L21.3,7.75a.21.21,0,0,1,.18.16.63.63,0,0,0,.1.17l0,0s.05.06.09.07h0a.07.07,0,0,0,.07,0,.15.15,0,0,0,0-.11.75.75,0,0,0-.11-.1h.05a.19.19,0,0,0,.13.07s.06,0,.07,0,0,0-.06-.11a.23.23,0,0,0-.21-.1,1.28,1.28,0,0,1-.29-.13A2.19,2.19,0,0,0,21,7.39L17.82,5.68a.41.41,0,0,0-.17-.06Z"/><polygon points="19.35 6.65 17.7 5.81 17.71 5.78 19.35 6.65 19.35 6.65"/></g><g class="cls-30"><rect class="cls-31" x="19.24" y="6.02" width="0.82" height="0.91"/></g><g class="cls-2"><path d="M19.71,6.89a.54.54,0,0,1-.22-.07l0,0a.16.16,0,0,1-.09-.09.93.93,0,0,1,0-.11v0a.31.31,0,0,1-.07-.12c0-.05,0-.07,0-.08a.09.09,0,0,1,.08,0,.34.34,0,0,1,0-.22s0-.06,0-.07a1.43,1.43,0,0,0,.42.05h.18l0,0a.67.67,0,0,1,.07.24.14.14,0,0,1,0,0,.08.08,0,0,0,0,.06.44.44,0,0,1-.1.32l0,0a.25.25,0,0,1-.09.11.23.23,0,0,1-.12,0ZM19.34,6V6.1a.35.35,0,0,0,0,.22.12.12,0,0,0-.08,0v.07a.19.19,0,0,0,0,.08l0,0V6.6a.67.67,0,0,0,0,.1.15.15,0,0,0,.07.08l0,0a.37.37,0,0,0,.33,0,.3.3,0,0,0,.08-.11l0,0a.42.42,0,0,0,.1-.3.1.1,0,0,1,0-.07.58.58,0,0,0,0-.24h-.24a1.11,1.11,0,0,1-.4-.06Z"/><path d="M20,6.14S20,6,20,6s0-.06-.08-.1a.2.2,0,0,0-.09-.06l-.11,0a.33.33,0,0,0-.15,0,.49.49,0,0,0-.18,0,.24.24,0,0,0-.13.13.51.51,0,0,0,0,.27c0,.17,0,.13,0,.13s0-.06.07,0,0-.09,0-.14a.48.48,0,0,1,0-.18,1.22,1.22,0,0,0,.36.07c.12,0,.27,0,.27,0l0,.09Z"/><path d="M19.26,6.38s0,0,0-.15a.61.61,0,0,1,0-.26.25.25,0,0,1,.14-.14.37.37,0,0,1,.13,0h.05a.43.43,0,0,1,.15,0h.11a.22.22,0,0,1,.09.06l0,0A.14.14,0,0,1,20,6c0,.11,0,.17,0,.18l0-.09s-.2,0-.27,0A1.22,1.22,0,0,1,19.34,6a1.45,1.45,0,0,0,0,.17v.14a.08.08,0,0,0-.07,0Zm.4-.58h-.14a.24.24,0,0,0-.12,0,.22.22,0,0,0-.12.12.52.52,0,0,0,0,.26c0,.1,0,.13,0,.13s0,0,.06,0,0-.06,0-.12a.46.46,0,0,1,0-.18,2.4,2.4,0,0,0,.37.06A.67.67,0,0,0,20,6l0,.08A1,1,0,0,0,20,6s0,0,0-.07l0,0a.2.2,0,0,0-.07,0h-.18Z"/></g><g class="cls-32"><rect class="cls-33" x="17.87" y="6.51" width="3.43" height="2.29"/></g><g class="cls-2"><path d="M18.85,8.81a.2.2,0,0,1-.17-.13V8.42h-.33a.85.85,0,0,1-.19,0s-.07,0-.07,0h0l0,0-.08,0h-.17c0-.08.09-.13.17-.15a.8.8,0,0,1,.18-.06.61.61,0,0,1,.24,0,.7.7,0,0,1,.23,0,.71.71,0,0,1,0-.36.31.31,0,0,0,0-.2l0-.1a1.58,1.58,0,0,1,0-.19c0-.18.11-.3.33-.37s.27-.1.26-.2,0-.1,0-.16a.87.87,0,0,0,0-.2l0,0a.31.31,0,0,1,0,.07.63.63,0,0,0,0,.09s0,.06.07.08.26.13.37.06h0a.16.16,0,0,1-.12.05.59.59,0,0,1-.27-.09.16.16,0,0,1-.08-.08.44.44,0,0,1,0-.1s0,0,0-.05,0,.09,0,.15a.81.81,0,0,0,0,.16c0,.1-.11.16-.28.22a.37.37,0,0,0-.32.35,1.07,1.07,0,0,0,0,.18l0,.1a.35.35,0,0,1,0,.21.47.47,0,0,0,0,.32h0v0h0a.81.81,0,0,0-.21,0,.85.85,0,0,0-.26,0l-.16,0c-.06,0-.16.07-.18.11H18a.23.23,0,0,1,.1,0l0,.05s0,0,0,0a.57.57,0,0,0,.16,0h.37v.27a.19.19,0,0,0,.15.11h0c.06,0,.1-.08.13-.15l0-.06a1.92,1.92,0,0,0,.08-.22h0s0,0,0,0,0,.22,0,.28a1.33,1.33,0,0,0,.42,0,4,4,0,0,0,.66-.07,1.33,1.33,0,0,1,.07-.48,1,1,0,0,0,.25.28.36.36,0,0,1,.13.17s.07,0,.09,0h.06l.09-.08s.09,0,.16-.15a1.58,1.58,0,0,0,.14-.47.33.33,0,0,1,0-.11l.06-.09-.36-.17a.35.35,0,0,0,0-.14s.06,0,.06,0v0h-.06s-.07,0-.08.06a.58.58,0,0,0,0,.17v0a.23.23,0,0,0,0,.06.2.2,0,0,1,0,.11c0,.08-.12.13-.12.13a.64.64,0,0,0-.15-.24s0,0,0-.06a.39.39,0,0,0,0-.25h0L20,7.08a.22.22,0,0,1-.12-.25h0a.19.19,0,0,0,.11.23l.61.32a.39.39,0,0,1,0,.27s0,0,0,0a.53.53,0,0,1,.15.24s.1-.06.1-.12a.19.19,0,0,0,0-.11.18.18,0,0,1,0-.06v0a.48.48,0,0,1,0-.19s.06-.06.09-.07l0,0s0,.05,0,.07,0,0,0,0a.57.57,0,0,1,0,.13l.36.18s0,.08-.06.11a.48.48,0,0,0,0,.1,1.66,1.66,0,0,1-.14.47c-.08.13-.12.14-.15.15l-.1.08-.08,0s-.09,0-.11-.06a.36.36,0,0,0-.12-.16.84.84,0,0,1-.24-.27,2.42,2.42,0,0,0-.06.47,3,3,0,0,1-.64.08h0a1.26,1.26,0,0,1-.46-.06,2,2,0,0,1,0-.25.63.63,0,0,1-.06.16l0,.06c0,.07-.08.15-.15.16Z"/><path d="M17.91,8.43h0A.19.19,0,0,1,18,8.36l.06,0,.06,0,0,0a0,0,0,0,1,0,0l0,0-.08,0a.14.14,0,0,0-.07,0Z"/><path class="cls-1" d="M18.13,8.4l0,0h0a.12.12,0,0,0,.1,0Z"/><path d="M20.6,8.27s0-.07,0-.12a.27.27,0,0,1,.14-.21h0a.28.28,0,0,0-.13.2.29.29,0,0,1,0,.13Z"/><path d="M20.87,8.49A1,1,0,0,0,21.08,8V8h0V8a.88.88,0,0,1-.23.48Z"/><path class="cls-1" d="M21.06,7.65s0,.08,0,.12Z"/><path d="M20.48,8.18a.19.19,0,0,0-.09-.09s-.08,0-.08-.1a.18.18,0,0,0,.09.08.21.21,0,0,1,.1.1Z"/><path d="M20.3,8.17h0V8.08a.64.64,0,0,0,0-.25s0-.12,0-.21a.84.84,0,0,1,0-.12h0s0,.3.16.36a.2.2,0,0,1-.15-.13s0,.07,0,.09a.75.75,0,0,1,0,.26.52.52,0,0,1,0,.08Z"/><path d="M19.12,8.37h0a.77.77,0,0,0,0-.24.62.62,0,0,1,0-.27s0-.06,0-.08a.4.4,0,0,1,0-.35s0,.23,0,.34a.17.17,0,0,0,.14.06c.16,0,.23,0,.25-.06l0,0a.08.08,0,0,1,0,0s-.1.07-.27.07a.19.19,0,0,1-.14-.05.18.18,0,0,1,0,.07.58.58,0,0,0,0,.26.82.82,0,0,1,0,.25Z"/><path d="M20,7.85a.51.51,0,0,1-.3-.13.71.71,0,0,0,.3.11c.34,0,.34-.23.34-.32h0c0,.08,0,.34-.36.34Z"/><path d="M19.59,7.61h0a2.09,2.09,0,0,0,0-.27.71.71,0,0,1,0,.28Z"/><path d="M20.13,7.21h0a2.06,2.06,0,0,0-.32,0,1.49,1.49,0,0,1,.32,0l0,0Z"/><path d="M19.61,7.18c.12,0,.13-.11.13-.2a.23.23,0,0,1,0-.06h0a.37.37,0,0,0,0,.06c0,.08,0,.18-.15.19Z"/><path class="cls-1" d="M19.44,6.9a1.18,1.18,0,0,1,0,.17Z"/><path d="M19.13,7.2a.73.73,0,0,1,.29,0l0,0h0a1.49,1.49,0,0,0-.29,0Z"/><path d="M18.92,8.3a.83.83,0,0,0,.1-.2l0-.06h0l0,.05a.45.45,0,0,1-.12.19Z"/><path d="M20.22,8.65a.44.44,0,0,1-.06-.43.53.53,0,0,0,0-.27.42.42,0,0,1,0-.09h0a.59.59,0,0,0,0,.09.52.52,0,0,1,0,.28.49.49,0,0,0,0,.43Z"/><path d="M20.06,8.09,20,8l0-.07h0L20,8a.39.39,0,0,1,.05.12Z"/><path d="M19.87,8.71A.22.22,0,0,1,20,8.44,1.1,1.1,0,0,1,19.78,8h0a1.32,1.32,0,0,0,.18.42.27.27,0,0,0-.12.27Z"/><path class="cls-1" d="M19.57,7.88c0,.05,0,.06,0,.1Z"/><path d="M19.27,8.34c0-.1.1-.29.16-.36h0c-.05.06-.2.25-.17.35Z"/><path d="M19.58,8.44a.84.84,0,0,1,0-.35h0a1,1,0,0,0,0,.35Z"/><path d="M19.78,8.54a.15.15,0,0,0-.13-.09v0a.13.13,0,0,1,.13.11Z"/><path d="M19.31,8.7a.29.29,0,0,1,.07-.27.05.05,0,0,1,.05,0v0h0s-.08.07-.08.26Z"/><path d="M18.86,8.4a.18.18,0,0,1-.09,0h0l-.09,0v0a.21.21,0,0,1,.11.06l.07,0Z"/><path class="cls-1" d="M19.76,6.33c0,.07,0,0,0,.09Z"/><path class="cls-1" d="M19.38,6.5s0,0,0,0Z"/><path d="M20.1,7.81a0,0,0,1,1,0-.07s0,0,0,0a0,0,0,0,1,0,0Z"/><ellipse class="cls-1" cx="20.1" cy="7.77" rx="0.04" ry="0.03"/><path d="M19.19,7.82s0,0,0,0,0,0,0,0,0,0,0,0a0,0,0,0,1,0,0Z"/><ellipse class="cls-1" cx="19.19" cy="7.78" rx="0.04" ry="0.03"/><path d="M19.76,6.55c-.06,0-.06-.06-.05-.08s0,.05,0,.06h.15s0,0,0-.06l0,0s0-.11,0-.14.12,0,.15,0h0s0,0-.13,0,0,.05,0,.11v0h0s0,.05,0,.08a0,0,0,0,1,0,0h-.09Z"/><path d="M19.46,6.32a.14.14,0,0,1,.15-.06s.12,0,.12,0h0a.25.25,0,0,0-.25,0Z"/><path class="cls-5" d="M20,6.33s0,0-.12,0,.07.06.05,0,.06,0,.07,0,0,0,0,0Z"/><path d="M19.95,6.39h0c-.07,0-.07,0-.07,0s.07,0,.09,0l.05,0h0s0,.08-.05.08Z"/><path d="M19.95,6.37a0,0,0,0,1,0,0s0,0,0,0,0,0,0,0,0,0,0,0Z"/><ellipse class="cls-1" cx="19.94" cy="6.34" rx="0.03" ry="0.03"/><path d="M19.89,6.67s0,0-.07,0l-.06,0-.07,0a.08.08,0,0,1,.07,0c.07,0,.07,0,.07,0a0,0,0,0,1,.08,0Z"/><path d="M19.88,6.7a.24.24,0,0,0-.13,0h-.08l.08,0a.28.28,0,0,1,.14,0v0Z"/><path d="M19.78,6.74l-.1,0v0a.24.24,0,0,0,.19,0,.15.15,0,0,1-.1,0Z"/><path class="cls-5" d="M19.67,6.35s-.07,0-.11,0l-.06,0s0,0,.06,0,0,0,.09,0a.05.05,0,0,0,0,0Z"/><path d="M19.61,6.4h0l-.07,0h0l.1,0s.07,0,.08,0l-.08,0-.08,0h0l.07,0h0l0,0h0l0,0Z"/><path d="M19.6,6.38s0,0,0,0a0,0,0,0,1,0,0s0,0,0,0,0,0,0,0Z"/><ellipse class="cls-1" cx="19.6" cy="6.34" rx="0.03" ry="0.03" transform="translate(12.42 25.66) rotate(-87.54)"/><path class="cls-5" d="M20.46,9.44a2.19,2.19,0,0,0-.2-.59,3.31,3.31,0,0,1-.41.05,2,2,0,0,1-.45,0l-.27,0a.54.54,0,0,0,0,.19c0,.2-.08,1.08-.1,1.32a2.51,2.51,0,0,0,0,.48c0,.38-.1,1.14-.1,1.54l.1,0s.57,0,.57,0a12.92,12.92,0,0,0,0-1.65,1.74,1.74,0,0,1,0-.22,4.18,4.18,0,0,0,.17-.46s.22.63.24.74,0,1.5.07,1.62l.36.28a.79.79,0,0,0,.36-.17,8.56,8.56,0,0,0-.18-1.3,1.07,1.07,0,0,1,0-.41c0-.08,0-1.08,0-1.39Z"/><path d="M20.36,12.72h0L20,12.45c0-.08,0-.62-.05-1.07,0-.28,0-.52,0-.56s-.21-.66-.23-.73a.78.78,0,0,1-.09.29l-.06.16a2,2,0,0,0-.05.21,10.65,10.65,0,0,1,.05,1.59v.06s0,.05-.26.05h-.32l-.1,0a8.06,8.06,0,0,1,0-.81c0-.29.05-.56.05-.74a2.17,2.17,0,0,1,0-.48c0-.13,0-.46.05-.77s0-.46,0-.55a.47.47,0,0,1,.05-.19l.28,0a2,2,0,0,0,.45,0,3.77,3.77,0,0,0,.41-.06h0l0,0a2.06,2.06,0,0,1,.19.57c0,.32.05,1.38.05,1.39s0,0,0,.05a1,1,0,0,0,0,.35,8.71,8.71,0,0,1,.18,1.3.81.81,0,0,1-.36.18ZM20,12.43l.36.26h0a.91.91,0,0,0,.34-.16,7.5,7.5,0,0,0-.18-1.3,1.12,1.12,0,0,1,0-.36.27.27,0,0,0,0-.05s0-1.06,0-1.38a2.05,2.05,0,0,0-.19-.56s-.15,0-.41,0a1.94,1.94,0,0,1-.41,0l-.31,0a1.22,1.22,0,0,0,0,.18l0,.56c0,.3,0,.63-.05.76a2.58,2.58,0,0,0,0,.48c0,.19,0,.46,0,.75s-.05.59-.05.8h.41c.23,0,.24,0,.24,0v-.06a11.08,11.08,0,0,0-.05-1.59,1.67,1.67,0,0,1,.05-.22l.07-.16a1.6,1.6,0,0,0,.1-.29,4.62,4.62,0,0,1,.26.74s0,.28,0,.56c0,.44,0,1,0,1.06Z"/><path d="M20.45,9.36a.69.69,0,0,1-.29-.42h0a.8.8,0,0,0,.27.42Z"/><path d="M20.15,10.77A9.16,9.16,0,0,0,19.88,9h0a8.63,8.63,0,0,1,.25,1.78Z"/><path d="M20.07,11a.31.31,0,0,1-.16-.21h0a.4.4,0,0,0,.14.22Z"/><path d="M20.22,11.86a1.57,1.57,0,0,1,0-.37c0-.2,0-.4,0-.44h0s0,.25,0,.44,0,.32,0,.37Z"/><path d="M20.36,12.71a3.25,3.25,0,0,0-.13-.73h0a2.68,2.68,0,0,1,.11.74Z"/><path d="M19,12.4a3.11,3.11,0,0,0,.12-1.1h0A2.83,2.83,0,0,1,19,12.4Z"/><path d="M19.7,10.08c0-.2-.09-.22-.09-.22s.09-.09.09-.13,0-.61,0-.7h0c0,.09,0,.66,0,.7a.18.18,0,0,1-.1.13s.07.05.08.23Z"/><path d="M20,10a1.58,1.58,0,0,1-.14-.44h0A2.73,2.73,0,0,0,20,10Z"/><path d="M19.1,10.82c.07-.63.13-1.79.13-1.8a.45.45,0,0,0,.21,0V9s-.2,0-.21,0a17.82,17.82,0,0,1-.14,1.79Z"/><path d="M19.57,9.81a5.32,5.32,0,0,1,0-.65h0c0,.08,0,.65,0,.65Z"/><path d="M19.41,10.05s0-.15,0-.16h0s-.07.11-.06.15Z"/><path class="cls-1" d="M20.1,9,20,9Z"/><path class="cls-1" d="M19.79,9.05s0,.18,0,.18Z"/><path d="M19.44,10.92a.16.16,0,0,1,0-.18h0a.16.16,0,0,0,0,.16Z"/><path class="cls-28" d="M20.29,8.84a.38.38,0,0,0,0-.19l-.32,0a2.49,2.49,0,0,1-.5,0l-.29,0s0,.19,0,.21a2.4,2.4,0,0,0,.33,0,3.62,3.62,0,0,0,.57,0l.29,0Z"/><path d="M19.53,8.93h-.09a3.08,3.08,0,0,1-.33,0s0-.2,0-.23l.3,0a2.37,2.37,0,0,0,.49,0l.33,0a.37.37,0,0,1,.06.2L20,8.9a4,4,0,0,1-.48,0Zm-.41-.06s.16,0,.32,0a4.11,4.11,0,0,0,.57,0l.27-.05a.38.38,0,0,0,0-.17,1.53,1.53,0,0,1-.32,0,2.49,2.49,0,0,1-.5,0l-.29-.05a.9.9,0,0,0,0,.2Z"/><polygon class="cls-5" points="20.16 8.86 20.14 8.67 20.1 8.67 20.11 8.87 20.16 8.86"/><polygon points="20.1 8.88 20.09 8.67 20.14 8.66 20.17 8.86 20.1 8.88 20.1 8.88"/><polygon class="cls-5" points="19.3 8.7 19.3 8.91 19.25 8.9 19.25 8.69 19.3 8.7"/><path d="M19.3,8.93h-.06V8.69h.06v.24Zm-.05-.23V8.9h0V8.7Z"/><polygon class="cls-5" points="19.91 8.7 19.93 8.9 19.9 8.9 19.88 8.7 19.91 8.7 19.91 8.7"/><polygon points="19.94 8.91 19.9 8.91 19.86 8.69 19.91 8.69 19.94 8.91 19.94 8.91"/><path class="cls-12" d="M20.61,12.62a1.52,1.52,0,0,1,0,.21s0,.13,0,.13-.06-.11-.06-.11,0,.13,0,.15-.08-.14-.08-.14.06.15,0,.17-.09-.15-.09-.15.06.16,0,.17-.07-.16-.07-.16,0,.19-.06.18-.06-.08-.08-.12a.36.36,0,0,1,0-.26c0-.09,0-.12,0-.12l.2.14s.26-.09.26-.09Z"/><path d="M20.23,13.07h0c-.05,0-.06-.06-.08-.1v-.06h0a.34.34,0,0,1,0-.23c0-.08,0-.11,0-.11s.13.07.21.13h0a1,1,0,0,0,.25-.09l0,.06a1.22,1.22,0,0,1,0,.16.19.19,0,0,1,0,.13.06.06,0,0,1-.06,0s0,0,0,.05h-.05a.05.05,0,0,1,0,0,.08.08,0,0,1-.06,0,.08.08,0,0,1,0,0s-.07,0-.09,0a.08.08,0,0,1,0,0l0,0Zm-.07-.48a.21.21,0,0,1,0,.1.34.34,0,0,0,0,.22l0,.05s0,.08.06.09h0l0,0a.12.12,0,0,0,0-.08.58.58,0,0,1,0-.08s0,0,0,.08,0,.07.05.07,0,0,0-.06a.58.58,0,0,1,0-.09s0,0,0,.08,0,.05.05.05,0,0,0-.05a.26.26,0,0,1,0-.1v0h0a.2.2,0,0,1,0,.08,0,0,0,0,0,0,0s0,0,0-.08v-.05s0,0,0,.05,0,0,0,0a.13.13,0,0,0,0-.11.83.83,0,0,0,0-.17v0a.59.59,0,0,1-.23.1h0l-.21-.13Z"/><path class="cls-12" d="M19.44,12.45s0,.07,0,.11,0,.13-.14.12a1.37,1.37,0,0,0-.35,0,1.35,1.35,0,0,1-.28,0,.38.38,0,0,1-.14,0s-.09,0-.12,0-.07,0-.07-.07.05-.05.12-.05l.2,0a1.1,1.1,0,0,1,.22-.08h.23a2.73,2.73,0,0,0,.3,0Z"/><path d="M18.7,12.69l-.14,0h-.07a.09.09,0,0,1-.1,0s0,0,0,0,.06-.06.12-.06l.2,0,0,0a.78.78,0,0,1,.19-.06h.52s0,0,0,.09a.16.16,0,0,1,0,.12.15.15,0,0,1-.11,0h-.13a.75.75,0,0,0-.23,0,1.25,1.25,0,0,1-.28,0Zm-.16,0,.16,0a1.11,1.11,0,0,0,.27,0,.78.78,0,0,1,.24,0h.12c.07,0,.09,0,.11,0a.12.12,0,0,0,0-.08.33.33,0,0,0,0-.1h-.53l-.18.06,0,0a.81.81,0,0,1-.2,0c-.08,0-.1,0-.11.05s.06.06.1,0Z"/><path class="cls-34" d="M13.48,12.73v-.18l.08.06,0-.14s.08.06.08.06v-.14l.11.12a.35.35,0,0,1,0-.17.27.27,0,0,1,.09.16c0,.08.08-.11.08-.11s.06.2.06.2l.05-.07,0,.16.1-.14.08.17h.17l0,.09.08-.08.1.06.13,0s.1.06.1.06a.26.26,0,0,1,.06-.08s.08,0,.09.06l.06-.11a.93.93,0,0,1,.1.11.42.42,0,0,1,0-.12s.05,0,.08.05l.05-.17a.17.17,0,0,1,.09.08c0,.06,0-.1,0-.1a1,1,0,0,1,.12.21,3,3,0,0,1-1.12.16c-.55-.07-1-.17-1-.17Z"/><path class="cls-10" d="M14.89,12.81s-.06-.05-.1-.05l-.12,0-.11-.07-.06.08,0-.1-.16,0-.08-.17-.08.14-.06-.16,0,.08-.08-.21c0,.14-.06.13-.06.13a.3.3,0,0,0-.1-.18.4.4,0,0,0,0,.16l-.14-.12,0,.13-.09,0v.13l-.09-.06,0,.18h0v-.18l.09.06v-.13s.09,0,.1,0l0-.13.12.11a.23.23,0,0,1,0-.16.21.21,0,0,1,.1.17h0a.37.37,0,0,0,.06-.11l.08.2,0-.08.06.16.08-.14.09.16.16,0,0,.1.06-.09.11.06.12,0s.08,0,.1.05,0-.05.05-.07a.12.12,0,0,1,.1.07l0-.12a.41.41,0,0,1,.1.1.23.23,0,0,1,0-.11s.06,0,.09.05l0-.17s.07,0,.11.07,0,0,0-.09h0a.46.46,0,0,1,.14.21,2,2,0,0,0-.14-.2s0,.1,0,.11a.26.26,0,0,0-.12-.09l0,.16-.07-.05a.41.41,0,0,0,0,.13l-.11-.11,0,.11a.25.25,0,0,0-.07-.06.19.19,0,0,0-.08.08Z"/><path class="cls-34" d="M18,12.71a.46.46,0,0,1,.07-.13s.08.1.08.13l.07,0,.06.06.08-.05.07.06.13-.05.05.05.2,0,.07,0,.07-.09.07.07.11-.11a.24.24,0,0,1,.06.08.35.35,0,0,0,.11-.08s.09,0,.1,0a.13.13,0,0,0,0-.08s.06,0,.08,0,0-.09.08-.1a.19.19,0,0,1,0,.15.63.63,0,0,1,.14-.09.45.45,0,0,1,0,.2s.1-.16.12-.11a.47.47,0,0,1,0,.22l.09-.06,0,.11.1,0a5,5,0,0,1-1.1,0,4.65,4.65,0,0,1-1-.23Z"/><path class="cls-10" d="M20,12.94l0-.12-.08.06a.76.76,0,0,0,0-.22s-.07.05-.1.11a.84.84,0,0,0,0-.21l-.12.09a.28.28,0,0,0,0-.15s-.07.09-.07.09a.17.17,0,0,0-.08-.06.15.15,0,0,1-.05.1.11.11,0,0,0-.1,0s-.1.07-.11.08l-.07-.08-.1.11L19,12.66l-.06.09-.09,0-.2,0-.06-.06-.12.06-.09-.06-.06,0-.08-.06-.05,0-.1-.14a.76.76,0,0,0-.06.13h0a.38.38,0,0,1,.08-.13.37.37,0,0,1,.1.13l.05,0,.07.06.06-.05.08.06.12-.06.06.06.19,0,.08,0,.06-.09.08.07.09-.11s.07,0,.08.08.07-.05.09-.08a.15.15,0,0,1,.09,0s.06,0,.05-.05.08,0,.09,0a.09.09,0,0,1,.08-.09.16.16,0,0,1,0,.15.32.32,0,0,1,.13-.09.3.3,0,0,1,0,.18.24.24,0,0,1,.09-.1.34.34,0,0,1,0,.24l.07-.07,0,.11.09,0-.09,0Z"/><path class="cls-34" d="M17.46,13a1.35,1.35,0,0,0,.54-.5c-.12.08-.08.07-.14.06a.24.24,0,0,1-.09-.05.16.16,0,0,1-.12.05.48.48,0,0,1-.13-.05.32.32,0,0,1-.17.06.2.2,0,0,1-.12-.06l-.19.05a.66.66,0,0,1-.15-.05.34.34,0,0,1-.12,0,.79.79,0,0,1-.17-.05l-.17,0a.54.54,0,0,1-.14,0,.33.33,0,0,1-.16,0l-.1,0a.41.41,0,0,1-.18,0,.51.51,0,0,1-.15-.05s0,0-.14.05.06,0,0,0A1.89,1.89,0,0,0,16,13c.13,0,.16-.07.16-.07a.77.77,0,0,0,.18.07.25.25,0,0,0,.16,0l.14,0a.17.17,0,0,0,.12,0,.73.73,0,0,0,.16,0,.74.74,0,0,0,.16,0,.53.53,0,0,0,.15.05.26.26,0,0,0,.1,0,.13.13,0,0,0,.11,0Z"/><path class="cls-35" d="M16.79,13.39a4,4,0,0,0,.69-.35s-.16,0-.12,0a.17.17,0,0,1-.1,0A.79.79,0,0,1,17.1,13a1,1,0,0,1-.17,0,.49.49,0,0,1-.14,0,.39.39,0,0,1-.16,0l-.1,0a.48.48,0,0,1-.18,0,.56.56,0,0,1-.15-.05A.67.67,0,0,1,16,13a2.21,2.21,0,0,0,.75.38Z"/><path d="M16.79,13.4h0A2.08,2.08,0,0,1,16,13l.16-.08a.8.8,0,0,0,.16.06.71.71,0,0,0,.17,0l.11,0a.33.33,0,0,0,.15,0,.69.69,0,0,0,.14,0l.17,0a.77.77,0,0,0,.18.05.13.13,0,0,0,.07,0h0v0l.12,0a2.44,2.44,0,0,1-.69.37ZM16.2,13A.42.42,0,0,1,16,13a2.83,2.83,0,0,0,.75.35,3.75,3.75,0,0,0,.68-.34s-.12,0-.12,0,0,0-.07,0A.65.65,0,0,1,17.1,13a.64.64,0,0,1-.17,0,.43.43,0,0,1-.14,0,.29.29,0,0,1-.14,0l-.12,0a.37.37,0,0,1-.15,0A.84.84,0,0,1,16.2,13Z"/><path d="M17.37,12.61h0a.22.22,0,0,1-.13-.06l-.18.05a.57.57,0,0,1-.15-.05.21.21,0,0,1-.11,0,.75.75,0,0,1-.18-.06.68.68,0,0,1-.17,0,.46.46,0,0,1-.14,0,.27.27,0,0,1-.16,0l-.1,0a.32.32,0,0,1-.17,0,.59.59,0,0,1-.15-.05s0,0-.14.05c.11,0,.13-.07.13-.07s.1,0,.16,0a.39.39,0,0,0,.17,0l.11,0a.32.32,0,0,0,.15,0,.85.85,0,0,0,.14,0l.17,0a.9.9,0,0,0,.18.05.3.3,0,0,0,.11,0l.16,0,.18-.05s.06.06.13.06a.35.35,0,0,0,.17-.05,1.1,1.1,0,0,0,.14,0,.12.12,0,0,0,.11,0h0s.05,0,.11,0a.29.29,0,0,0,.14-.05v0a.34.34,0,0,1-.15.05.2.2,0,0,1-.1-.05.11.11,0,0,1-.12.05.35.35,0,0,1-.13-.05.24.24,0,0,1-.16.06Z"/><path class="cls-34" d="M17.61,13.1a.77.77,0,0,1-.67.44,2.59,2.59,0,0,1-1.28-.31.8.8,0,0,1,.11-.15.46.46,0,0,1,.13.17.42.42,0,0,1,0-.12s.12.06.14.13a.43.43,0,0,1,.08-.1s.06.08.06.15.08-.08.12-.08a.24.24,0,0,1,.11.18s.08-.08.11-.06.1.06.08.15.09-.06.22-.09l.12.09.14-.19s.09,0,.09.08,0-.15.07-.17.07,0,.07.09,0-.11.08-.14.06,0,.06.09a.61.61,0,0,1,.12-.17Z"/><path d="M16.79,13.42h0a2.88,2.88,0,0,1-1.92-2.83V8.42l3.82,0,0,2.18a2.87,2.87,0,0,1-1.91,2.83Zm1.88-5-3.78,0,0,2.14a2.84,2.84,0,0,0,1.89,2.79,2.84,2.84,0,0,0,1.88-2.79V8.42Z"/><path class="cls-10" d="M16.64,13.53h0a.17.17,0,0,0-.07-.16s-.06,0-.1.06a.28.28,0,0,0-.12-.18.32.32,0,0,0-.11.08c0-.06,0-.14-.06-.15a.27.27,0,0,0-.08.1.38.38,0,0,0-.15-.13.81.81,0,0,0,0,.11h0a.8.8,0,0,0-.13-.15,1.54,1.54,0,0,0-.1.15h0a.57.57,0,0,1,.12-.15.35.35,0,0,1,.13.15.26.26,0,0,1,0-.1h0a.23.23,0,0,1,.15.13.22.22,0,0,1,.06-.09c.06,0,.08.1.08.15a.19.19,0,0,1,.11-.09.25.25,0,0,1,.12.19s.07-.08.1-.07.1.07.08.16h0l0,0a.69.69,0,0,1,.17-.08l.13.09a1.93,1.93,0,0,1,.12-.19s.09,0,.1.07a.28.28,0,0,1,.06-.16.12.12,0,0,1,.08.06.14.14,0,0,1,.07-.11.17.17,0,0,1,.08.08.33.33,0,0,1,.11-.16,1.29,1.29,0,0,0-.11.18.27.27,0,0,0-.08-.08s-.06.13-.06.13h0a.24.24,0,0,0-.06-.08s-.07.1-.09.16a.2.2,0,0,0-.1-.08s-.13.19-.13.19l-.13-.08-.16.07-.06,0Z"/></g></g></g></g></g></svg>