<?xml version="1.0" encoding="utf-8"?>
<!-- Generator: Adobe Illustrator 21.0.0, SVG Export Plug-In . SVG Version: 6.00 Build 0)  -->
<svg version="1.1" id="Layer_1" xmlns="http://www.w3.org/2000/svg" xmlns:xlink="http://www.w3.org/1999/xlink" x="0px" y="0px"
	 viewBox="0 0 200 200" style="enable-background:new 0 0 200 200;" xml:space="preserve">
<style type="text/css">
	.st0{fill:#0063A2;}
</style>
<title>BMY</title>
<path id="path9582" class="st0" d="M100.2,94.4L146.8,13H53.3L100.2,94.4z M131.8,23.2c2.7-1.2,5.3-2.7,7.8-4.3l0.5,0.5
	c-1.4,2-3.4,3.4-4.9,6.8L105.7,77c-1.6,2.4-2.9,5-3.8,7.8l-0.5-0.5c0-2.9,0.5-5.8,0.5-9.2v-34C101.8,41.1,131.8,23.2,131.8,23.2z
	 M98.3,41.1v33.9c0,3.4,0.5,6.3,0.5,9.2l-0.5,0.5c-1-2.7-2.3-5.3-3.8-7.8L65.4,26.1c-2-3.4-3.8-4.9-5.3-6.8l0.5-0.5
	c2.5,1.6,5.1,3.1,7.8,4.3C68.3,23.2,98.3,41.1,98.3,41.1z M121.5,86.2c-3.4,2-5.3,3.4-7.8,4.9l-0.5-0.5c1.4-2,3.4-3.8,4.9-7.2
	l29.6-50.4c1.5-2.5,2.8-5.1,3.8-7.8h0.5c0,2.9-0.5,6.3-0.5,9.2v34.4L121.5,86.2z M48.9,68.7V34.4c0-2.9-0.5-6.3-0.5-9.2h0.5
	c0.7,2.8,1.9,5.4,3.4,7.8l29.6,50.3c1.5,2.5,3.1,4.9,4.9,7.2L86.2,91c-2.5-1.8-5.1-3.4-7.8-4.9L48.9,68.7z M155,68.7V34.4
	c0-2.9-0.5-6.3-0.5-9.2h0.5c1.1,2.7,2.4,5.3,3.8,7.8l29.1,50.4c1.5,2.6,3.3,5,5.3,7.2l-0.5,0.5c-2.4-1.4-4.3-2.9-7.8-4.9L155,68.7z
	 M15,86.2c-3.4,2-5.3,3.4-7.8,4.9v-0.5c0.9-2,2.9-3.8,4.9-7.2l29.6-50.4c1.4-2.9,2.5-5.8,3.4-7.8h0.5c0,2.9-0.5,6.3-0.5,9.2v34.4
	L15,86.2z M101.7,158.8v-34.4c0-2.9-0.5-6.3-0.5-9.2h0.5c1.1,2.7,2.4,5.3,3.8,7.8l29.6,50.8c1.4,2.9,3.4,4.9,4.9,6.8l-0.5,0.5
	c-2.4-1.4-4.3-2.9-7.8-4.9L101.7,158.8L101.7,158.8z M68.3,176.3c-3.4,2-5.3,3.4-7.8,4.9l-0.5-0.5c1.4-2,3.4-3.8,5.3-6.8L94.4,123
	c1.5-2.5,2.8-5.1,3.8-7.8h0.5c0,2.9-0.5,6.3-0.5,9.2v34.4L68.3,176.3z M47,184.6l46.5-81.5H0L47,184.6z M78.5,113.9
	c2.7-1.5,5.3-3.1,7.8-4.9l0.5,0.5c-1.4,2-2.9,3.8-4.9,6.8l-29.6,50.8c-1.6,2.4-2.7,5-3.4,7.8l-0.5-0.5c0-2.4,0.5-5.8,0.5-8.7v-34.4
	L78.5,113.9z M45,131.3v34.4c0,2.9,0.5,6.3,0.5,8.7l-0.5,0.5c-0.9-2-2-4.9-3.4-7.8L12,116.3c-2-2.9-3.8-4.9-4.9-6.8v-0.5
	c2.4,1.4,4.3,2.9,7.8,4.9L45,131.3z M153,184.5l47-81.4h-93.5L153,184.5z M151.6,131.3v34.4c0,2.9,0.5,6.3,0.5,8.7l-0.5,0.5
	c-1.1-2.7-2.4-5.3-3.8-7.8l-29.5-50.8c-1.4-2.9-3.4-4.9-4.9-6.8l0.5-0.5c2.4,1.4,4.3,2.9,7.8,4.9L151.6,131.3z M185,113.8
	c3.4-2,5.3-3.4,7.8-4.9l0.5,0.5c-1.4,2-3.4,3.8-5.3,6.8l-29.1,50.8c-1.5,2.5-2.8,5.1-3.8,7.8l-0.5-0.5c0-2.4,0.5-5.8,0.5-8.7v-34.4
	L185,113.8L185,113.8z M127.8,17c3.3-0.1,6.5-0.4,9.7-0.9v0.5c-2.7,1.1-5.3,2.3-7.8,3.8l-29.6,17.5l-30-17.6
	c-2.5-1.5-5.1-2.8-7.8-3.8v-0.5c3.2,0.6,6.5,0.9,9.7,0.9C72.2,16.9,127.8,17,127.8,17z M75.1,107c3.4,0,6.3-0.5,9.2-0.5l0,0
	c-2.6,1.1-5.2,2.4-7.7,3.8L47,127.8l-30-17.5c-2.4-2-5.8-2.9-7.8-3.8l0,0c2.9,0,5.8,0.5,9.7,0.5H75.1z M181.2,107
	c3.8,0,6.8-0.5,9.7-0.5l0,0c-2.7,1.1-5.3,2.4-7.8,3.8l-30,17.4l-29.6-17.4c-2.5-1.5-5.1-2.8-7.8-3.8l0,0c2.9,0,5.8,0.5,9.7,0.5
	H181.2z M18.8,93c-3.3-0.1-6.5,0.1-9.7,0.5V93c2-0.9,5.3-2,7.8-3.4l30-17.4l29.6,17.4c2.9,1.4,5.8,2.4,7.8,3.4v0.5
	c-3.1-0.4-6.1-0.6-9.2-0.5L18.8,93z M0,96.9h93.5L47,15.4L0,96.9z M125.5,93c-3.3-0.1-6.5,0.1-9.7,0.5V93c2-0.9,4.9-2,7.8-3.4
	l29.6-17.4l30,17.4c2.9,1.4,5.8,2.4,7.8,3.4v0.5c-3.2-0.4-6.5-0.6-9.7-0.5H125.5z M106.5,96.9H200l-47-81.4L106.5,96.9z M53.3,187
	h93.5l-46.5-81.4L53.3,187z M72.2,183c-3.3-0.1-6.5,0.1-9.7,0.5V183c2.8-0.7,5.4-1.9,7.8-3.4l30-17.4l29.6,17.4
	c2.4,1.6,5,2.7,7.8,3.4v0.5c-3.2-0.4-6.5-0.6-9.7-0.5H72.2z"/>
</svg>
