<?xml version="1.0" encoding="UTF-8"?>
<svg width="144px" height="72px" viewBox="0 0 144 72" version="1.1" xmlns="http://www.w3.org/2000/svg" xmlns:xlink="http://www.w3.org/1999/xlink">
    <!-- Generator: Sketch 49 (51002) - http://www.bohemiancoding.com/sketch -->
    <title>BND</title>
    <desc>Created with Sketch.</desc>
    <defs></defs>
    <g id="Page-1" stroke="none" stroke-width="1" fill="none" fill-rule="evenodd">
        <g id="BND" fill-rule="nonzero">
            <rect id="Rectangle-path" fill="#F7E017" x="0" y="0" width="144" height="72"></rect>
            <polygon id="Shape" fill="#FFFFFF" points="0 5 0 37 144 52 144 35"></polygon>
            <polygon id="Shape" fill="#000000" points="0 22 0 37 144 67 144 52"></polygon>
            <g id="Group" transform="translate(48.000000, 15.000000)" fill="#CF1126">
                <path d="M21.5840664,41.8726066 C19.6560996,41.6168246 17.8884647,41.0037441 16.6605809,40.1637441 C16.4225726,40.0005213 16.1985062,39.8671564 16.1636515,39.8671564 C16.1278008,39.8671564 16.0989212,40.0482938 16.0989212,40.2722275 C16.0989212,40.9062085 15.8439834,41.2256872 15.2026556,41.3918957 C14.5892116,41.5511374 13.653112,41.2296682 12.8942739,40.6006635 C12.1085477,39.9487678 11.2013278,39.4511374 10.433527,39.2520853 C9.80116183,39.086872 8.96165975,39.1137441 8.35518672,39.3167773 C8.073361,39.411327 7.7526971,39.5446919 7.64116183,39.6133649 C7.53062241,39.6820379 7.40614108,39.7377725 7.36630705,39.7377725 C7.25875519,39.7377725 7.27369295,39.056019 7.38622407,38.8380569 C7.53460581,38.5524171 7.90008299,38.2707583 8.32630705,38.1154976 C8.54141079,38.036872 8.71767635,37.9363507 8.71767635,37.891564 C8.71767635,37.8467773 8.64497925,37.6825592 8.55634855,37.5282938 C8.26755187,37.0227014 8.38605809,36.5330332 8.88995851,36.1478673 C9.40580913,35.7537441 10.2791701,35.6860664 11.0509544,35.9796682 C11.2451452,36.0533175 11.42639,36.1140284 11.453278,36.1140284 C11.5548548,36.1140284 11.493112,35.9717062 11.213278,35.5646445 C10.8906224,35.092891 10.826888,34.86 10.866722,34.298673 C10.9185062,33.5880569 11.4980913,33.0068246 12.2081328,32.9550711 C12.7877178,32.9132701 13.1482158,33.1083412 14.0036515,33.9224645 C16.5580083,36.356872 19.3354357,37.6984834 22.5749378,38.0617536 C23.3925311,38.1533175 25.0376763,38.1045498 26.0026556,37.9592417 C28.9175104,37.5203318 31.8542739,36.0553081 34.1477178,33.8965877 C34.7830705,33.298436 35.0887967,33.1401896 35.6096266,33.1381991 C36.0627386,33.1362085 36.3804149,33.2825118 36.7050622,33.6408057 C37.0008299,33.9692417 37.1014108,34.2807583 37.0695436,34.7793839 C37.0486307,35.0988626 36.9968465,35.2561137 36.806639,35.5656398 C36.5258091,36.0224645 36.57361,36.0642654 37.1292946,35.8492891 C37.880166,35.5566825 38.8053112,35.6920379 39.3042324,36.165782 C39.7434025,36.5827962 39.7852282,36.9998104 39.4436515,37.5651185 C39.3191701,37.7721327 39.2175934,37.9662085 39.2175934,37.9970616 C39.2175934,38.0537915 39.3121992,38.0806635 39.7682988,38.1543128 C40.3648133,38.2498578 40.70639,38.6927488 40.70639,39.3695261 C40.70639,39.5725592 40.6814938,39.7377725 40.6506224,39.7377725 C40.6207469,39.7377725 40.3946888,39.6551659 40.1487137,39.5536493 C39.45361,39.2670142 39.0582573,39.1933649 38.2456432,39.1983412 C37.6272199,39.2023223 37.4141079,39.2311848 36.9829046,39.3715166 C36.3226556,39.5874882 35.6165975,40.0035071 35.0409959,40.5160664 C34.406639,41.0813744 34.0073029,41.2595261 33.3898755,41.2545498 C32.8162656,41.2485782 32.4239004,41.0823697 32.2167635,40.7549289 C32.1062241,40.579763 32.0902905,40.4732701 32.1171784,40.0771564 C32.1351037,39.8193839 32.1311203,39.6083886 32.1102075,39.6083886 C32.0882988,39.6083886 31.8652282,39.7497156 31.613278,39.9238863 C30.9520332,40.3777251 30.5307884,40.602654 29.7739419,40.9022275 C27.4655602,41.8148815 24.1344398,42.21 21.5840664,41.8726066 Z" id="Shape"></path>
                <path d="M22.639668,37.4387204 C18.7976763,37.0701455 15.1215934,35.0701991 12.8864066,31.8993981 C10.4595187,28.5916493 9.69470539,24.2242464 10.4355187,20.2309621 C10.8292282,18.4129194 11.6234689,16.5936825 12.9793195,15.2990474 C11.8988216,17.5884455 11.5337427,20.2125498 12.1099519,22.6928389 C13.005122,27.6445592 17.1923751,31.8362986 22.2019021,32.5614455 C24.1836448,33.1348152 26.2338025,32.5292428 28.1268149,31.9151829 C32.3029145,30.4442872 35.4840598,26.4827517 35.8722423,22.0542398 C36.204488,19.6578512 35.8363688,17.1661166 34.7561925,14.9962493 C35.3718772,15.3216199 36.1490888,16.5973251 36.6073793,17.4552398 C38.201039,20.5408464 38.2738357,24.2384389 37.335605,27.5312588 C36.0629079,31.7210076 32.8577627,35.3916284 28.6208166,36.7256758 C26.6980282,37.3534962 24.6531485,37.5449246 22.6399369,37.4390687 L22.639668,37.4387204 Z" id="Shape"></path>
                <g id="hand" transform="translate(0.000000, 15.227488)">
                    <path d="M3.28829876,16.7104265 C3.03650788,16.6710371 2.75889461,16.9186351 2.85382905,17.1779104 C3.03537261,17.4399626 3.34817925,17.5680626 3.63039336,17.6934057 C4.30672531,17.9643555 5.04240996,18.0698431 5.76858423,18.0522469 C5.5182971,18.0516498 5.85448432,18.0548346 5.94798672,18.0521792 C6.52299087,18.0538811 7.0948083,17.9503243 7.63535602,17.7555916 C7.93590373,17.6499546 8.31891784,17.554111 8.44208465,17.2218432 C8.56227386,17.0054337 8.34448332,16.789283 8.1248166,16.8326167 C7.81895104,16.8993768 7.5329527,17.0380385 7.22958672,17.1170224 C6.5750639,17.301484 5.88578589,17.3728442 5.2077112,17.317229 C4.71185726,17.2567351 4.23138921,17.0982219 3.77269046,16.9048627 C3.6136332,16.8347396 3.46435519,16.7324636 3.28822905,16.7104285 L3.28829876,16.7104265 Z" id="Shape"></path>
                    <path d="M3.56813278,15.677346 C3.31361328,15.6394693 3.09433693,15.9322024 3.20049461,16.1657801 C3.39617925,16.4492701 3.72501909,16.6002213 4.03262739,16.7329991 C4.56745892,16.9468408 5.14837842,17.0362649 5.72308382,17.0191564 C5.50482324,17.0185592 5.79802954,17.0217441 5.8789444,17.0190887 C6.36759834,17.0196859 6.8537029,16.9230978 7.30550041,16.7373205 C7.58166971,16.6299617 7.91987054,16.5258674 8.03487137,16.222074 C8.1241205,16.0551887 8.05607602,15.812375 7.84568963,15.7993271 C7.65360996,15.7898423 7.48790041,15.9120105 7.31010124,15.9668394 C6.66430207,16.2337186 5.95355353,16.3468598 5.25725477,16.2867759 C4.82339253,16.2309707 4.40888963,16.0709935 4.01542905,15.8855664 C3.8675751,15.8142073 3.73454938,15.7028764 3.56820249,15.6773579 L3.56813278,15.677346 Z" id="Shape"></path>
                    <path d="M3.91170124,14.6870616 C3.69353029,14.6608912 3.5434556,14.9068948 3.58020249,15.1032398 C3.61275386,15.2757583 3.76766141,15.3917062 3.89577759,15.4974327 C4.42648631,15.8853156 5.0990639,16.0505289 5.75064896,16.028882 C5.49755353,16.0279863 6.09016432,16.0330422 5.90945726,16.0281853 C6.32215768,16.0265033 6.72981909,15.9255839 7.10109212,15.7470242 C7.34894938,15.6392972 7.63999668,15.5145711 7.72351867,15.2317678 C7.76347419,15.1000351 7.788481,14.9105972 7.63976664,14.8366493 C7.48403552,14.7496516 7.32936996,14.8834574 7.18776996,14.937728 C6.71084714,15.1803128 6.1794712,15.3152502 5.6435044,15.3127621 C5.18036415,15.3283927 4.7439127,15.1337147 4.3421268,14.9238938 C4.19633427,14.8496693 4.07615502,14.7206417 3.91177992,14.6870417 L3.91170124,14.6870616 Z" id="Shape"></path>
                    <path d="M0.251950207,0.0696682464 C-0.0724481328,0.394182938 0.175259751,0.992394313 0.157716846,1.41754976 C0.325806473,2.72711374 0.534646307,4.0533981 1.02380813,5.28612796 C1.62281228,6.49059242 2.89511104,7.13462559 3.66609859,8.19905687 C3.94170025,8.71211374 3.84384797,9.32917536 3.90192598,9.89040284 C3.9475439,11.4197204 3.93338788,12.9501327 3.90660647,14.4796493 C4.59759734,14.8261692 5.34800066,15.1749682 6.14288863,15.0416829 C6.61398573,14.9292185 7.48848199,14.8592915 7.58647369,14.3904242 C7.54839734,11.7529834 7.52369527,9.11454739 7.48859253,6.47750474 C7.22067884,5.66950237 6.39803651,5.2513436 5.7828,4.73440521 C5.27499585,4.23419716 4.80248465,3.69585071 4.36988714,3.13213507 C4.10879502,2.69247867 3.08842656,2.53406303 3.45756846,3.29898057 C3.6740166,3.96120711 4.22640498,4.4544782 4.36469876,5.15036445 C4.39491485,5.53170853 4.85043485,6.23310853 4.46160896,6.45554929 C4.21426954,6.03539005 3.85590274,5.67775308 3.39784133,5.46452844 C2.9564405,5.1356545 2.22682058,4.99874645 2.06748448,4.4178128 C1.95052183,3.59374692 1.52821145,2.84709242 0.983301909,2.2296327 C1.12373676,1.48947725 0.983799834,0.563864929 0.34362722,0.0908175355 L0.251908382,0.0696642654 L0.251895436,0.0696622749 L0.251950207,0.0696682464 Z" id="Shape"></path>
                    <path d="M1.23883817,0.217962085 C0.943777593,0.265582322 0.953815768,0.641326066 1.09035685,0.838905213 C1.23558174,1.26568294 1.27512697,1.72915592 1.19650456,2.17345024 C1.72106888,2.78717773 2.12729627,3.52133175 2.24971618,4.32719431 C2.25269378,4.6301218 2.57164481,4.73039431 2.77841328,4.88007156 C3.26351203,5.18876161 3.8089195,5.41265545 4.2409195,5.79895592 C4.33182672,5.89609536 4.4004249,6.00070521 4.33618257,5.80243934 C4.26876846,5.54901611 4.23409793,5.26921848 4.03536598,5.0774019 C3.76305062,4.78489479 3.42291784,4.52375829 3.02627054,4.43453318 C2.99320929,4.02508294 2.79809129,3.64896398 2.61780249,3.28679858 C2.4179751,2.94052749 2.20924481,2.56956398 1.86686141,2.34502322 C1.88063801,1.73811327 1.87069544,1.10144502 1.60936432,0.541411848 C1.53272365,0.397546919 1.41983402,0.2266109 1.23893776,0.217962085 L1.23883817,0.217962085 Z" id="Shape"></path>
                    <path d="M2.06439834,0.459810427 C1.85883485,0.520794028 1.89814108,0.774183412 1.96323983,0.929225118 C2.06171054,1.35873981 2.07712531,1.8023872 2.06909876,2.24137678 C2.44663568,2.53998483 2.68278174,2.97290332 2.89780581,3.39448578 C3.03258423,3.67618436 3.16037178,3.96693981 3.21205643,4.27679431 C3.51835021,4.37819147 3.7863834,4.5699981 4.02576598,4.78211801 C3.93090523,4.49524408 3.71938257,4.27325118 3.57721494,4.0113782 C3.42269876,3.73895545 3.27511369,3.4548981 3.20970622,3.14626777 C2.91512365,2.83200427 2.75288963,2.38683412 2.81726141,1.95673223 C2.83047336,1.48137583 2.67691618,0.990194787 2.35858257,0.631940758 C2.27842656,0.553040474 2.18273527,0.465811848 2.0644083,0.459800474 L2.06439834,0.459810427 Z" id="Shape"></path>
                    <path d="M3.00348548,0.594170616 C2.8917112,0.613916588 2.82369461,0.720190521 2.76384398,0.806887678 C2.74071535,0.893789858 2.84727237,0.987169194 2.86423568,1.08153981 C2.994961,1.40916967 3.04432531,1.76856825 3.00526805,2.11919858 C2.9966639,2.36819289 3.08581344,2.6114346 3.21279336,2.82234028 C3.24943369,2.66680095 3.39367967,2.55497346 3.55003817,2.53962654 C3.60691519,2.52963114 3.69052282,2.55837227 3.65738091,2.471699 C3.61766539,1.99543692 3.54504896,1.51646773 3.37847303,1.06649047 C3.31390905,0.905755877 3.24060747,0.736591422 3.10127801,0.626555403 C3.07302871,0.606465071 3.03923253,0.589282891 3.0034805,0.594197488 L3.00348548,0.594170616 Z" id="Shape"></path>
                </g>
                <g id="hand-link" transform="translate(43.500000, 24.727488) scale(-1, 1) translate(-43.500000, -24.727488) translate(39.000000, 15.227488)">
                    <g id="hand">
                        <path d="M3.28829876,16.7104265 C3.03650788,16.6710371 2.75889461,16.9186351 2.85382905,17.1779104 C3.03537261,17.4399626 3.34817925,17.5680626 3.63039336,17.6934057 C4.30672531,17.9643555 5.04240996,18.0698431 5.76858423,18.0522469 C5.5182971,18.0516498 5.85448432,18.0548346 5.94798672,18.0521792 C6.52299087,18.0538811 7.0948083,17.9503243 7.63535602,17.7555916 C7.93590373,17.6499546 8.31891784,17.554111 8.44208465,17.2218432 C8.56227386,17.0054337 8.34448332,16.789283 8.1248166,16.8326167 C7.81895104,16.8993768 7.5329527,17.0380385 7.22958672,17.1170224 C6.5750639,17.301484 5.88578589,17.3728442 5.2077112,17.317229 C4.71185726,17.2567351 4.23138921,17.0982219 3.77269046,16.9048627 C3.6136332,16.8347396 3.46435519,16.7324636 3.28822905,16.7104285 L3.28829876,16.7104265 Z" id="Shape"></path>
                        <path d="M3.56813278,15.677346 C3.31361328,15.6394693 3.09433693,15.9322024 3.20049461,16.1657801 C3.39617925,16.4492701 3.72501909,16.6002213 4.03262739,16.7329991 C4.56745892,16.9468408 5.14837842,17.0362649 5.72308382,17.0191564 C5.50482324,17.0185592 5.79802954,17.0217441 5.8789444,17.0190887 C6.36759834,17.0196859 6.8537029,16.9230978 7.30550041,16.7373205 C7.58166971,16.6299617 7.91987054,16.5258674 8.03487137,16.222074 C8.1241205,16.0551887 8.05607602,15.812375 7.84568963,15.7993271 C7.65360996,15.7898423 7.48790041,15.9120105 7.31010124,15.9668394 C6.66430207,16.2337186 5.95355353,16.3468598 5.25725477,16.2867759 C4.82339253,16.2309707 4.40888963,16.0709935 4.01542905,15.8855664 C3.8675751,15.8142073 3.73454938,15.7028764 3.56820249,15.6773579 L3.56813278,15.677346 Z" id="Shape"></path>
                        <path d="M3.91170124,14.6870616 C3.69353029,14.6608912 3.5434556,14.9068948 3.58020249,15.1032398 C3.61275386,15.2757583 3.76766141,15.3917062 3.89577759,15.4974327 C4.42648631,15.8853156 5.0990639,16.0505289 5.75064896,16.028882 C5.49755353,16.0279863 6.09016432,16.0330422 5.90945726,16.0281853 C6.32215768,16.0265033 6.72981909,15.9255839 7.10109212,15.7470242 C7.34894938,15.6392972 7.63999668,15.5145711 7.72351867,15.2317678 C7.76347419,15.1000351 7.788481,14.9105972 7.63976664,14.8366493 C7.48403552,14.7496516 7.32936996,14.8834574 7.18776996,14.937728 C6.71084714,15.1803128 6.1794712,15.3152502 5.6435044,15.3127621 C5.18036415,15.3283927 4.7439127,15.1337147 4.3421268,14.9238938 C4.19633427,14.8496693 4.07615502,14.7206417 3.91177992,14.6870417 L3.91170124,14.6870616 Z" id="Shape"></path>
                        <path d="M0.251950207,0.0696682464 C-0.0724481328,0.394182938 0.175259751,0.992394313 0.157716846,1.41754976 C0.325806473,2.72711374 0.534646307,4.0533981 1.02380813,5.28612796 C1.62281228,6.49059242 2.89511104,7.13462559 3.66609859,8.19905687 C3.94170025,8.71211374 3.84384797,9.32917536 3.90192598,9.89040284 C3.9475439,11.4197204 3.93338788,12.9501327 3.90660647,14.4796493 C4.59759734,14.8261692 5.34800066,15.1749682 6.14288863,15.0416829 C6.61398573,14.9292185 7.48848199,14.8592915 7.58647369,14.3904242 C7.54839734,11.7529834 7.52369527,9.11454739 7.48859253,6.47750474 C7.22067884,5.66950237 6.39803651,5.2513436 5.7828,4.73440521 C5.27499585,4.23419716 4.80248465,3.69585071 4.36988714,3.13213507 C4.10879502,2.69247867 3.08842656,2.53406303 3.45756846,3.29898057 C3.6740166,3.96120711 4.22640498,4.4544782 4.36469876,5.15036445 C4.39491485,5.53170853 4.85043485,6.23310853 4.46160896,6.45554929 C4.21426954,6.03539005 3.85590274,5.67775308 3.39784133,5.46452844 C2.9564405,5.1356545 2.22682058,4.99874645 2.06748448,4.4178128 C1.95052183,3.59374692 1.52821145,2.84709242 0.983301909,2.2296327 C1.12373676,1.48947725 0.983799834,0.563864929 0.34362722,0.0908175355 L0.251908382,0.0696642654 L0.251895436,0.0696622749 L0.251950207,0.0696682464 Z" id="Shape"></path>
                        <path d="M1.23883817,0.217962085 C0.943777593,0.265582322 0.953815768,0.641326066 1.09035685,0.838905213 C1.23558174,1.26568294 1.27512697,1.72915592 1.19650456,2.17345024 C1.72106888,2.78717773 2.12729627,3.52133175 2.24971618,4.32719431 C2.25269378,4.6301218 2.57164481,4.73039431 2.77841328,4.88007156 C3.26351203,5.18876161 3.8089195,5.41265545 4.2409195,5.79895592 C4.33182672,5.89609536 4.4004249,6.00070521 4.33618257,5.80243934 C4.26876846,5.54901611 4.23409793,5.26921848 4.03536598,5.0774019 C3.76305062,4.78489479 3.42291784,4.52375829 3.02627054,4.43453318 C2.99320929,4.02508294 2.79809129,3.64896398 2.61780249,3.28679858 C2.4179751,2.94052749 2.20924481,2.56956398 1.86686141,2.34502322 C1.88063801,1.73811327 1.87069544,1.10144502 1.60936432,0.541411848 C1.53272365,0.397546919 1.41983402,0.2266109 1.23893776,0.217962085 L1.23883817,0.217962085 Z" id="Shape"></path>
                        <path d="M2.06439834,0.459810427 C1.85883485,0.520794028 1.89814108,0.774183412 1.96323983,0.929225118 C2.06171054,1.35873981 2.07712531,1.8023872 2.06909876,2.24137678 C2.44663568,2.53998483 2.68278174,2.97290332 2.89780581,3.39448578 C3.03258423,3.67618436 3.16037178,3.96693981 3.21205643,4.27679431 C3.51835021,4.37819147 3.7863834,4.5699981 4.02576598,4.78211801 C3.93090523,4.49524408 3.71938257,4.27325118 3.57721494,4.0113782 C3.42269876,3.73895545 3.27511369,3.4548981 3.20970622,3.14626777 C2.91512365,2.83200427 2.75288963,2.38683412 2.81726141,1.95673223 C2.83047336,1.48137583 2.67691618,0.990194787 2.35858257,0.631940758 C2.27842656,0.553040474 2.18273527,0.465811848 2.0644083,0.459800474 L2.06439834,0.459810427 Z" id="Shape"></path>
                        <path d="M3.00348548,0.594170616 C2.8917112,0.613916588 2.82369461,0.720190521 2.76384398,0.806887678 C2.74071535,0.893789858 2.84727237,0.987169194 2.86423568,1.08153981 C2.994961,1.40916967 3.04432531,1.76856825 3.00526805,2.11919858 C2.9966639,2.36819289 3.08581344,2.6114346 3.21279336,2.82234028 C3.24943369,2.66680095 3.39367967,2.55497346 3.55003817,2.53962654 C3.60691519,2.52963114 3.69052282,2.55837227 3.65738091,2.471699 C3.61766539,1.99543692 3.54504896,1.51646773 3.37847303,1.06649047 C3.31390905,0.905755877 3.24060747,0.736591422 3.10127801,0.626555403 C3.07302871,0.606465071 3.03923253,0.589282891 3.0034805,0.594197488 L3.00348548,0.594170616 Z" id="Shape"></path>
                    </g>
                </g>
                <path d="M23.5687967,32.5430332 C22.2250954,32.415182 21.0127469,31.4363033 20.5982739,30.1544076 C20.6206038,29.9335891 20.8957046,30.2779493 21.0256631,30.301119 C21.2696763,30.4365341 21.533527,30.5479635 21.8144863,30.5652512 C22.1687203,30.7174265 22.3877477,31.0663251 22.725849,31.2482886 C22.8828349,31.3704867 23.4383203,31.610663 23.3351303,31.2219928 C23.2049726,31.0189597 23.1154755,30.7617644 23.2275187,30.529162 C23.4159137,30.116099 23.7057062,29.7564616 23.997371,29.4118824 C24.2117477,29.3402276 24.3552697,29.7628312 24.5086207,29.9052132 C24.7208166,30.2315194 24.9767104,30.6296933 24.8518905,31.0350331 C24.7304166,31.1851881 24.6505693,31.6368872 24.9754656,31.48508 C25.375927,31.3089985 25.70401,31.0131473 26.0361461,30.7368928 C26.3267651,30.5340189 26.6987751,30.5196872 27.003366,30.3417843 C27.1445477,30.3060336 27.4386124,30.0238383 27.4999071,30.1803033 C27.3330124,30.6269364 27.0535469,31.0269516 26.7547917,31.3956161 C26.2709278,31.9480156 25.6163353,32.3634772 24.8839867,32.4806492 C24.4512,32.5598342 24.0070407,32.5765446 23.5687668,32.5430989 L23.5687967,32.5430332 Z" id="Shape"></path>
                <path d="M25.1482158,30.9745024 C25.1778115,30.7049957 25.1163834,30.4297464 24.9786224,30.184773 C24.7672033,29.7542431 24.4686174,29.3720133 24.1774008,28.9943417 C23.9028149,28.8336071 23.7504697,29.358428 23.5678905,29.5090308 C23.2834158,29.9346938 22.9262241,30.3705483 22.9089361,30.9059787 C22.7488929,31.1549133 22.4504066,30.702836 22.3217627,30.5540844 C22.0760564,30.2066289 21.8900017,29.795636 21.9204647,29.3610654 C21.891359,28.6608398 22.0257361,27.9636199 22.2810025,27.3127194 C22.4736797,26.7571052 22.7864465,26.2173355 22.7546689,25.6103261 C22.7769919,25.1534517 22.6842174,24.6490834 22.3138855,24.3418664 C21.9615535,24.0656019 22.5420946,24.0067223 22.7264863,24.1499801 C23.0420315,24.1711364 23.2127104,24.6922081 23.5009693,24.5632123 C23.6158108,24.2910483 23.6386357,23.9663744 23.8753593,23.7541152 C24.107771,23.4360398 24.3506788,23.8890924 24.4301975,24.1012621 C24.5941842,24.2876047 24.4209261,24.7488384 24.6872963,24.7609408 C25.0065859,24.5372758 25.2342473,24.1615251 25.6424963,24.0797147 C25.8080365,23.9853291 26.0909676,24.0671107 25.8726772,24.2573488 C25.5705461,24.5404308 25.3123917,24.8943355 25.2573809,25.3154104 C25.1649779,25.8436351 25.2971273,26.3793441 25.5274954,26.8550787 C25.9703303,27.7896384 26.3127635,28.8452019 26.0887668,29.8850502 C25.9848797,30.3472493 25.6706888,30.7454929 25.2889693,31.0137754 C25.2407004,31.0429106 25.1644979,31.0408385 25.1482158,30.9744894 L25.1482158,30.9745024 Z" id="Shape"></path>
                <path d="M24.6702075,23.9489573 C24.5251917,23.6878109 24.3491651,23.4303967 24.1052614,23.2528223 C23.8681295,23.2523246 23.7217793,23.5512512 23.5607303,23.7078654 C23.4478008,23.9178654 23.3105925,24.2690531 23.0324017,23.9944607 C22.5898257,23.7364095 22.511512,23.1709024 22.5143602,22.7048019 C22.4865251,21.9493194 22.7909079,21.2443564 23.0613112,20.5563327 C23.2333444,20.1256137 23.190961,19.6407825 23.0860143,19.1993943 C22.9539047,18.6926275 22.5468906,18.3411711 22.2335562,17.9458635 C22.2548674,17.7929417 22.6552989,17.8765078 22.806001,17.9055773 C23.1404873,17.9903099 23.3404143,18.2862546 23.5897653,18.4953589 C23.767206,18.4416775 23.6947778,18.0833707 23.7773736,17.9148233 C23.7834782,17.6777423 24.0993321,17.3651608 24.2295595,17.7046143 C24.4246267,17.9203271 24.2233255,18.3479807 24.4753952,18.4823508 C24.7155246,18.3934909 24.833991,18.131193 25.0596209,18.0125878 C25.2816458,17.8612683 25.5951495,17.8443887 25.8342035,17.9631761 C25.9183369,18.1833874 25.571279,18.3667344 25.4707578,18.5580533 C25.0672392,19.056241 24.9254699,19.7434088 25.0982998,20.3606694 C25.2353188,20.8448538 25.4780475,21.2967917 25.5618284,21.7972287 C25.6626682,22.3597998 25.6593251,22.9506363 25.5136262,23.5049964 C25.4265341,23.8415538 25.1349939,24.0663434 24.8338785,24.2061377 C24.7595861,24.1370387 24.7204013,24.0355301 24.6702005,23.9490618 L24.6702075,23.9489573 Z" id="Shape"></path>
                <path d="M23.1644813,17.7046919 C22.8298755,17.4598578 22.7193361,17.2259716 22.7193361,16.7631754 C22.7193361,16.5263033 22.7631535,16.3979147 22.9195021,16.1829384 C23.1495436,15.864455 23.1077178,15.7639336 22.7820747,15.8574882 C22.2582573,16.0077725 22.0082988,15.8704265 21.9903734,15.4245498 C21.9824066,15.2065877 22.0282158,15.1140284 22.3219917,14.7617062 C22.5570124,14.4790521 22.6426556,14.3307583 22.5958506,14.283981 C22.5500415,14.2381991 22.2721992,14.4790521 21.7015768,15.0592891 C21.246473,15.5220853 20.7346058,15.9948341 20.5643154,16.1102844 C19.5843983,16.7711374 18.6482988,16.8736493 18.2210788,16.3650711 C18.0019917,16.1053081 18.0139419,15.9590047 18.266888,15.8017536 C18.3834025,15.7300948 18.5795851,15.5648815 18.7040664,15.4345024 C18.9978423,15.1289573 19.873195,14.4979621 20.3073859,14.2790047 C20.659917,14.1008531 20.7435685,13.9804265 20.5145228,13.9804265 C20.2177593,13.9804265 19.2657261,14.5994787 18.5437344,15.2623223 C18.3316183,15.4583886 18.0258921,15.6763507 17.8655602,15.7470142 C17.5050622,15.9062559 16.7970124,15.9649763 16.4823237,15.8614692 C16.260249,15.7878199 15.8549378,15.4056398 15.8549378,15.2692891 C15.8549378,15.2334597 15.9475519,15.1538389 16.060083,15.093128 C16.1726141,15.0334123 16.3747718,14.887109 16.5082158,14.7706635 C17.0858091,14.2640758 18.180249,13.7425592 19.0486307,13.5604265 C19.3244813,13.5027014 19.2229046,13.3633649 18.9151867,13.3772986 C18.3186722,13.4031754 17.1346058,13.9575355 16.4275519,14.5407583 C15.5990041,15.2235071 14.3492116,15.1588152 13.946888,14.4123697 C13.8771784,14.283981 13.8363485,14.1635545 13.8562656,14.1446445 C13.8751867,14.1257346 14.1211618,14.0520853 14.4029876,13.9804265 C14.7077178,13.9037915 15.3112033,13.653981 15.8878008,13.3663507 C16.7950207,12.9145024 17.0639004,12.8179621 17.6882988,12.7174408 C17.9691286,12.672654 17.9840664,12.5353081 17.7112033,12.5034597 C17.359668,12.4616588 16.8209129,12.6378199 15.8688797,13.1055924 C14.6459751,13.7067299 14.3034025,13.810237 13.6590871,13.7724171 C13.0715353,13.7365877 12.739917,13.5863033 12.2629046,13.1354502 C11.9512033,12.8398578 11.5090456,12.0894313 11.5956846,12.0028436 C11.6165975,11.9819431 11.76,12.0028436 11.9143568,12.0476303 C12.0856432,12.0983886 12.5765975,12.1322275 13.1681328,12.1332227 C13.9956846,12.1352133 14.2157676,12.1133175 14.6569295,11.9859242 C15.3948548,11.7729384 16.3757676,11.2743128 17.046971,10.7736967 C18.3306224,9.8142654 19.3772614,9.42909953 20.7117012,9.42312796 C21.9435685,9.41815166 22.7273029,9.70279621 23.4214108,10.4064455 C23.6564315,10.6443128 23.8565975,10.7985782 23.8894606,10.7657346 C23.920332,10.7348815 23.9541909,10.3188626 23.9641494,9.84113744 C23.9641494,9.84113744 24.326639,9.80630332 24.4033195,9.90781991 C24.4033195,10.683128 24.4122822,10.7438389 24.5248133,10.7438389 C24.5985062,10.7438389 24.6771784,10.6681991 24.7259751,10.5507583 C24.8315353,10.2969668 25.2219087,9.94962085 25.6391701,9.73862559 C26.5404149,9.28180095 28.099917,9.2678673 29.3526971,9.70478673 C29.8804979,9.88990521 30.4660581,10.2203318 31.0237344,10.6502844 C31.5834025,11.080237 32.7276349,11.6554976 33.4038174,11.8475829 C34.0879668,12.0416588 35.2939419,12.0904265 35.9123651,11.9500948 C36.1673029,11.8923697 36.4063071,11.8445972 36.4441494,11.8445972 C36.6721992,11.8445972 36.2838174,12.603981 35.8277178,13.0488626 C34.9941909,13.8629858 33.9097095,13.8590047 32.3840664,13.0369194 C31.433029,12.5253555 30.2957676,12.2456872 30.2957676,12.5243602 C30.2957676,12.5820853 30.3555187,12.6209005 30.4441494,12.6209005 C30.7747718,12.6209005 31.413112,12.8428436 32.3034025,13.2648341 C33.26639,13.722654 33.8071369,13.9157346 34.1278008,13.9157346 C34.3608299,13.9157346 34.3678008,14.0600474 34.1507054,14.3785308 C33.9206639,14.7179147 33.5302905,14.8861137 32.9785892,14.8851185 C32.4517842,14.883128 32.1590041,14.7676777 31.6879668,14.3765403 C30.900249,13.7216588 28.9374274,12.9911374 29.013112,13.3812796 C29.0280498,13.45891 29.1226556,13.5066825 29.3248133,13.5375355 C30.0079668,13.6420379 30.8096266,14.024218 31.6302075,14.6382938 C31.8831535,14.8283886 32.1460581,15.0154976 32.2127801,15.0553081 C32.3253112,15.1209953 32.3273029,15.1409005 32.2386722,15.307109 C32.0912863,15.5818009 31.719834,15.7947867 31.3175104,15.8365877 C30.7966805,15.8903318 30.3435685,15.7350711 29.8745228,15.3429384 C28.8846473,14.5148815 27.9515353,13.9157346 27.6527801,13.9157346 C27.4087967,13.9157346 27.5183402,14.0500948 27.9485477,14.2780095 C28.5141909,14.5775829 29.0957676,14.982654 29.5239834,15.375782 C29.7261411,15.562891 29.9541909,15.7480095 30.0298755,15.7888152 C30.2091286,15.8843602 30.2021577,16.0246919 30.0049793,16.2824645 C29.8038174,16.5452133 29.4712033,16.6606635 29.04,16.6148815 C28.1795851,16.5243128 27.5083817,16.1092891 26.4537759,15.0154976 C26.0414938,14.5885308 25.6740249,14.2391943 25.6361826,14.2391943 C25.4957676,14.2391943 25.5784232,14.4292891 25.8502905,14.7338389 C26.186888,15.1100474 26.2516183,15.3220379 26.1241494,15.6275829 C26.0116183,15.8982938 25.8243983,15.9609953 25.44,15.8574882 C25.046639,15.7509953 24.9848963,15.8475355 25.2428216,16.1680095 C25.6272199,16.6467299 25.5704564,17.2329384 25.0994191,17.636019 C24.953029,17.7604265 24.799668,17.8629384 24.7578423,17.8629384 C24.7170124,17.8629384 24.613444,17.7564455 24.526805,17.6260664 C24.2240664,17.1662559 23.9581743,17.1692417 23.6634025,17.6340284 C23.5608299,17.7962559 23.4741909,17.9276303 23.4712033,17.9266351 C23.4672199,17.9256398 23.3287967,17.8261137 23.1644813,17.7046919 Z" id="Shape"></path>
                <polygon id="Shape" points="24.6642324 8.36317536 24.153361 8.76725118 23.6952697 8.42189573 23.6952697 11.1827488 24.6642324 11.1946919"></polygon>
                <path d="M21.4994191,5.49881517 C21.3978423,6.8036019 21.0662241,7.7142654 20.6051452,8.71848341 L21.7105394,7.69436019 L22.4793361,8.60701422 L23.3118672,7.67843602 L24.1613278,8.46270142 L24.9779253,7.64658768 L25.82639,8.63886256 L26.5633195,7.82274882 L27.8121162,8.71848341 C27.3590041,7.7142654 26.7455602,6.86331754 26.8222407,5.45004739 C25.6122822,6.34876777 22.7372614,6.51099526 21.4994191,5.49881517 Z" id="Shape"></path>
                <path d="M23.6962656,4.83298578 C23.2521162,4.84094787 22.7840664,4.84691943 22.3628216,4.92952607 C22.0710373,4.98725118 21.8061411,5.08180095 21.5850622,5.23805687 C21.6209129,6.08701422 25.6680498,6.44132701 26.753527,5.25398104 C26.5254772,5.08777251 26.246639,4.98924171 25.939917,4.92952607 C25.5346058,4.85090047 25.086473,4.84293839 24.6612448,4.83597156 C24.6612448,5.06886256 24.6632365,5.30274882 24.6632365,5.53663507 L23.6962656,5.53364929 L23.6962656,4.83298578 Z" id="Shape"></path>
                <polygon id="Shape" points="24.4879668 0.49464455 23.8595851 0.499620853 23.8595851 5.41421801 24.5009129 5.41720379"></polygon>
                <polygon id="Shape" points="24.486971 0.621042654 24.246971 2.97383886 26.6688797 4.15620853 25.4429876 2.51800948 27.1170124 1.97559242"></polygon>
                <path d="M24.2170954,0.00796208531 C23.8496266,0.00796208531 23.5777593,0.145308057 23.5777593,0.308530806 C23.5777593,0.471753555 23.8496266,0.610094787 24.2170954,0.610094787 C24.5845643,0.610094787 24.8544398,0.471753555 24.8544398,0.308530806 C24.8544398,0.145308057 24.5845643,0.00796208531 24.2170954,0.00796208531 Z" id="Shape"></path>
            </g>
            <g id="Group" transform="translate(59.000000, 40.000000)" fill="#F7E017">
                <path d="M11.9428016,15.8834568 C12.3464591,15.7530864 12.5761089,15.5140741 12.7410117,15.0538272 C12.8229572,14.8246914 12.8785992,14.5866667 12.8644358,14.5244444 C12.8300389,14.377284 12.6560311,14.3851852 12.4638132,14.5412346 C12.3322957,14.6488889 12.3161089,14.7032099 12.3535409,14.9224691 C12.4496498,15.4755556 12.2483268,15.6128395 11.1759533,15.7254321 C11.0697276,15.7362963 10.762179,15.7185185 10.4910506,15.6859259 C9.98116732,15.6237037 9.79906615,15.6730864 9.98420233,15.8232099 C10.0398444,15.868642 10.1814786,15.9298765 10.2988327,15.9585185 C10.5851362,16.0306173 11.6362646,15.9822222 11.9428016,15.8834568 Z" id="Shape"></path>
                <path d="M14.1654475,15.7916049 C14.2261479,15.737284 14.4345525,15.6434568 14.6287938,15.5822222 C14.8877821,15.5012346 15.021323,15.414321 15.1305837,15.2553086 C15.445214,14.7980247 15.386537,14.4039506 14.9242023,13.8725926 C14.6733074,13.5841975 14.5620233,13.5920988 14.3617121,13.9120988 C14.188716,14.188642 14.1927626,14.2064198 14.4416342,14.2696296 C14.5721401,14.3022222 14.6975875,14.3960494 14.7663813,14.5116049 C15.0375097,14.9698765 14.9575875,15.2533333 14.5559533,15.2562963 C14.191751,15.2592593 14.0915953,15.3096296 13.993463,15.5397531 C13.9418677,15.6592593 13.9003891,15.7866667 13.9003891,15.8232099 C13.9003891,15.92 14.0379767,15.9032099 14.1654475,15.7916049 Z" id="Shape"></path>
                <path d="M13.4360311,15.2740741 C13.5048249,15.0923457 13.5291051,14.7654321 13.5210117,14.0987654 C13.5159533,13.5911111 13.4957198,13.1604938 13.4754864,13.1407407 C13.414786,13.0814815 13.1153307,13.2701235 13.0758755,13.3916049 C13.055642,13.4548148 13.0890272,13.6009877 13.1497276,13.7155556 C13.2428016,13.8923457 13.2549416,14.057284 13.2266148,14.7496296 C13.1901946,15.6246914 13.2488716,15.7718519 13.4360311,15.2740741 Z" id="Shape"></path>
                <path d="M11.7242802,14.857284 C11.7607004,14.694321 11.8072374,14.3604938 11.8284825,14.1165432 C11.8497276,13.8725926 11.901323,13.5644444 11.9417899,13.4311111 C12.0449805,13.0893827 11.9407782,12.9995062 11.6645914,13.1911111 L11.4592218,13.334321 L11.5017121,13.8251852 C11.5411673,14.2676543 11.4693385,15.0923457 11.3651362,15.4123457 C11.3368093,15.497284 11.3772763,15.4755556 11.4915953,15.3451852 C11.5836576,15.2404938 11.6888716,15.0202469 11.7242802,14.857284 Z" id="Shape"></path>
                <path d="M10.2057588,15.0953086 C10.5751611,14.7936198 10.5327113,14.278479 10.6144747,13.8587654 C10.6060272,13.5797728 10.7969603,13.2452741 10.6737466,13.0012049 C10.3285739,13.0628425 10.1158392,13.3819852 10.2925077,13.6999309 C10.3072235,14.0691358 10.2938128,14.4710519 10.0993894,14.7975111 C9.94057696,15.0110222 9.43756296,14.9578469 9.46071004,14.6552296 C9.5869365,14.2002667 9.0285435,14.4216691 8.8105684,14.5409481 C8.64205401,14.6554864 8.28626879,14.663921 8.40993572,14.3773037 C8.32833113,13.995437 7.82520887,14.2343012 7.55187502,14.2326025 C7.29369603,14.228 7.53053276,13.7219062 7.15999331,13.8107753 C6.47146879,13.757763 5.71137852,13.816721 5.11540187,13.4106272 C4.76651626,13.2469037 4.81827346,12.8372741 4.99991938,12.5722272 C5.21684233,12.210242 5.27868591,11.7575111 5.62298864,11.4766222 C5.96382132,11.1575111 5.30152949,11.2922667 5.15238864,11.3997946 C4.82036763,11.577197 5.12881463,12.0341254 4.85706101,12.2875575 C4.69827891,12.5503822 4.48919642,12.9133452 4.12159486,12.8633205 C3.59149837,12.7654637 3.28590226,12.2840514 2.90586724,11.9614242 C2.58031082,11.8979951 2.76335284,12.4771575 2.93144638,12.5988859 C3.26406428,12.8420267 3.65267829,13.0192119 4.05359424,13.1241896 C4.45258802,13.0618963 4.4655172,13.5719526 4.8067242,13.6519625 C5.43267673,13.9367032 6.13029619,14.0220069 6.81317556,14.0567625 C7.08138023,14.0785965 6.93052965,14.5449106 7.28317868,14.4527723 C7.48025261,14.502642 7.92536856,14.3811802 7.94766584,14.6046835 C7.64894911,14.9509452 8.23438412,14.9432119 8.45104405,14.8812168 C8.72844482,14.8398291 9.08294521,14.7363477 9.15626117,15.1076267 C9.38783315,15.3459477 9.81304949,15.3107872 10.0950534,15.1744109 C10.1346725,15.152 10.1719122,15.1255388 10.2057001,15.095356 L10.2057588,15.0953086 Z" id="Shape"></path>
                <path d="M4.16,12.105679 C4.27229572,11.9664198 4.44023346,11.6849383 4.53330739,11.4795062 C4.62536965,11.2730864 4.76396887,11.0390123 4.83984436,10.9590123 C5.01789883,10.771358 4.91875486,10.6558025 4.63143969,10.7180247 C4.47968872,10.7506173 4.41797665,10.8049383 4.39268482,10.9333333 C4.30669261,11.3520988 4.15089494,11.7807407 4.01229572,11.9802469 C3.76140078,12.3417284 3.75533074,12.3565432 3.8585214,12.3565432 C3.91214008,12.3565432 4.04770428,12.2439506 4.16,12.105679 Z" id="Shape"></path>
                <path d="M0.370272374,9.78666667 C0.0870038911,9.78666667 0.0748638132,9.96148148 0.351050584,10.0553086 C0.48459144,10.1007407 0.597898833,10.2103704 0.688949416,10.3891358 C0.958054475,10.9116049 1.11587549,11.0044444 1.83011673,11.0646914 L2.28840467,11.1051852 L2.31066148,11.3767901 C2.32178988,11.5269136 2.35821012,11.651358 2.39361868,11.651358 C2.42902724,11.651358 2.60607004,11.5762963 2.78513619,11.4874074 C3.12101167,11.3214815 3.43968872,10.934321 3.43968872,10.694321 C3.43968872,10.537284 3.17159533,10.3674074 2.9277821,10.3674074 C2.81953307,10.3674074 2.61315175,10.4523457 2.45027237,10.5679012 C1.94038911,10.9283951 1.39509728,10.8553086 1.0966537,10.3861728 C0.851828794,9.99901235 0.595875486,9.78666667 0.370272374,9.78666667 Z M2.8448249,10.7496296 C2.98038911,10.7496296 3.01377432,10.8474074 2.93992218,11.0340741 C2.88933852,11.1624691 2.7244358,11.1664198 2.67486381,11.04 C2.61618677,10.8908642 2.6981323,10.7496296 2.8448249,10.7496296 Z" id="Shape"></path>
                <path d="M22.0382879,10.1422222 C21.8531518,10.1491358 21.7985214,10.188642 21.6811673,10.3585185 C21.4889494,10.637037 21.4697276,11.2404938 21.6467704,11.4538272 C21.7570428,11.5861728 21.7732296,11.5891358 22.0069261,11.494321 C22.3326848,11.3609877 22.3873152,11.3659259 22.3863035,11.5367901 C22.3842802,11.9733333 21.7428794,12.8148148 21.0711284,13.2622222 C20.8900389,13.382716 20.7281712,13.517037 20.7109728,13.5614815 C20.6624125,13.6859259 20.911284,13.6582716 21.2168093,13.5061728 C21.6336187,13.2987654 22.1809339,12.7535802 22.4055253,12.3239506 C22.5835798,11.9812346 22.6088716,11.8646914 22.6301167,11.2651852 C22.6493385,10.7130864 22.6341634,10.5511111 22.5380545,10.3674074 C22.4308171,10.1609877 22.3964202,10.1422222 22.1273152,10.1422222 C22.0949416,10.1422222 22.0656031,10.1412346 22.0382879,10.1422222 Z M22.0605447,10.5274074 C22.2001556,10.5274074 22.2244358,10.5580247 22.2406226,10.7535802 C22.254786,10.9155556 22.2254475,11.014321 22.1333852,11.0953086 C22.0079377,11.2059259 21.997821,11.2049383 21.886537,11.04 C21.7307393,10.8069136 21.8268482,10.5274074 22.0605447,10.5274074 Z" id="Shape"></path>
                <path d="M18.9891051,14.742716 C19.5809339,14.4582716 19.9299611,14.1382716 20.1545525,13.6750617 C20.2607782,13.4548148 20.3477821,13.2474074 20.3477821,13.2118519 C20.3477821,13.1318519 20.0564202,12.9995062 19.8814008,12.9995062 C19.707393,12.9995062 19.6719844,12.8819753 19.7468482,12.557037 C19.8196887,12.24 19.7316732,11.842963 19.5890272,11.842963 C19.5374319,11.842963 19.4463813,11.917037 19.3856809,12.0069136 C19.292607,12.1461728 19.2875486,12.2054321 19.3563424,12.4079012 C19.4575097,12.7081481 19.3775875,12.9323457 19.1024125,13.1239506 C18.9719066,13.2148148 18.9000778,13.3195062 18.9000778,13.4212346 C18.9000778,13.5071605 18.9112062,13.577284 18.924358,13.577284 C18.9385214,13.577284 19.082179,13.5041975 19.2440467,13.4162963 L19.5394553,13.2553086 L19.713463,13.388642 C19.8085603,13.4617284 19.8874708,13.5812346 19.8874708,13.654321 C19.8874708,14.0059259 18.8606226,14.5965432 18.1554864,14.6518519 C17.7801556,14.6814815 17.7164202,14.668642 17.5859144,14.5422222 C17.4796887,14.4385185 17.4493385,14.3516049 17.475642,14.2291358 C17.4958755,14.1353086 17.5322957,13.9644444 17.5565759,13.8498765 C17.621323,13.5437037 17.4867704,13.5851852 17.2540856,13.942716 C17.0628794,14.2380247 17.0062257,14.5530864 17.113463,14.7190123 C17.2014786,14.854321 17.7862257,14.9837037 18.2,14.9590123 C18.46,14.9441975 18.716965,14.8730864 18.9891051,14.742716 Z" id="Shape"></path>
                <path d="M22.938677,12.5916049 C23.3109728,12.2291358 23.4687938,11.7876543 23.4708171,11.1051852 L23.4718288,10.5925926 L23.7793774,10.4503704 C24.1789883,10.2646914 24.5573541,9.89530864 24.5573541,9.68987654 C24.5573541,9.47851852 24.4612451,9.48938272 24.2872374,9.71950617 C24.1607782,9.88641975 23.9918288,9.98716049 23.3736965,10.2646914 C23.2178988,10.3348148 23.2077821,10.3723457 23.1723735,11.0103704 C23.1308949,11.7461728 23.028716,12.0217284 22.6078599,12.5244444 C22.3498833,12.8306173 22.3407782,12.8711111 22.5198444,12.8711111 C22.5936965,12.8711111 22.7818677,12.745679 22.938677,12.5916049 Z" id="Shape"></path>
                <path d="M18.8838911,12.2113079 C18.9192996,12.0811955 18.71393,11.9887791 18.6249027,12.0945715 C18.5874708,12.1395637 18.5773541,12.217388 18.6026459,12.2672442 C18.661323,12.3803326 18.8474708,12.3426364 18.8838911,12.2113079 Z" id="Shape"></path>
                <path d="M24.4754086,10.7973307 C24.5118288,10.6677329 24.3054475,10.5756822 24.2174319,10.6810561 C24.1789883,10.7270814 24.1688716,10.8045979 24.1941634,10.8542569 C24.2528405,10.9668979 24.4389883,10.9293509 24.4754086,10.7973307 Z" id="Shape"></path>
                <path d="M17.7457588,6.94123457 C17.60113,7.00846519 17.5260942,7.1609284 17.4255642,7.27731358 C17.3532134,7.32533531 17.4111954,7.37020247 17.4528551,7.41546667 C17.7080496,7.68382222 17.8160255,8.04624198 17.9372746,8.38423704 C18.0563485,8.78326914 18.2062784,9.21173333 18.0817718,9.6274963 C18.0327836,9.7867358 17.9044761,9.95157531 17.7128551,9.89870617 C17.4062777,9.8800237 17.104617,9.80058173 16.7971695,9.80374123 C16.5235119,9.81766222 16.3120115,10.0607684 16.032203,10.0342696 C15.8534403,10.045764 15.8609773,9.6769363 15.694901,9.77556346 C15.6126722,9.96787951 15.6531654,10.1824375 15.6433745,10.3858054 C15.67436,10.4149491 15.7612344,10.3895289 15.8133254,10.3980721 L16.3641916,10.3980721 C16.4031329,10.5837709 16.3982617,10.7966696 16.5349114,10.9443635 C16.7261075,11.0107477 16.9411893,10.9534202 17.1228554,10.8808484 C17.3176632,10.7923852 17.3437441,10.5636928 17.3987791,10.3855101 C17.4573125,10.1940632 17.7141177,10.2442558 17.8656562,10.1690854 C18.2364142,10.063436 18.4793978,9.68721877 18.4576873,9.3170558 C18.4337248,8.75192 18.2128826,8.22026568 18.0453395,7.6853521 C17.9610205,7.44969778 17.9026531,7.20387062 17.8048647,6.97379654 C17.7934015,6.95400988 17.7698882,6.93735802 17.7457507,6.94129975 L17.7457588,6.94123457 Z M16.8281712,10.1728395 C17.0341883,10.1597274 17.1237012,10.406884 17.0800677,10.5707951 C17.002963,10.7935605 16.7224514,10.650724 16.6657066,10.4902005 C16.5614942,10.3468227 16.6258942,10.1539635 16.8281611,10.1728375 L16.8281712,10.1728395 Z" id="Shape"></path>
                <path d="M9.20015564,8.31802469 C9.10809339,8.31604938 9.00490272,8.34962963 8.90272374,8.41975309 C8.36552529,8.78716049 8.22793774,9.2217284 8.59315175,9.39160494 C8.86124514,9.51703704 8.79346304,9.66419753 8.37159533,9.87061728 C7.76762646,10.1649383 7.23447471,10.1283951 6.22178988,9.71950617 C5.97291829,9.61876543 5.90817121,9.65728395 5.96583658,9.87950617 C6.0214786,10.0977778 6.22583658,10.217284 6.7336965,10.3298765 C7.28,10.4523457 7.94062257,10.4128395 8.36552529,10.2340741 C8.57291829,10.1471605 8.81875486,9.96444444 9.02614786,9.74419753 L9.35494163,9.39160494 L9.73735409,9.43802469 C10.2087938,9.49432099 10.2178988,9.49925926 10.2178988,9.71950617 C10.2178988,9.89432099 10.2280156,9.8982716 10.6610117,9.93777778 C10.9048249,9.96049383 11.2255253,9.98123457 11.3752529,9.98123457 C11.5664591,9.98222222 11.6747082,10.0148148 11.7384436,10.1017284 C11.8234241,10.217284 11.8740078,10.2232099 12.5862257,10.1609877 C13.2519066,10.1017284 13.3824125,10.1066667 13.6828794,10.2064198 C13.8963424,10.2775309 14.1310506,10.3061728 14.3091051,10.2874074 C14.8189883,10.2311111 15.5221012,9.82419753 15.6242802,9.52493827 C15.6364202,9.48839506 15.8215564,9.42419753 16.0350195,9.38271605 C16.5499611,9.28197531 16.5722179,9.17234568 16.0916732,9.11407407 C15.8832685,9.08839506 15.5706615,9.01432099 15.3966537,8.94716049 C15.2216342,8.88 14.9828794,8.8237037 14.8655253,8.8237037 C14.606537,8.8237037 14.3627237,8.9817284 14.3627237,9.14469136 C14.3627237,9.25135802 14.4011673,9.26222222 14.7077043,9.23160494 C14.9960311,9.20296296 15.08,9.21876543 15.231751,9.3362963 C15.3319066,9.41333333 15.398677,9.50419753 15.3774319,9.53679012 C15.3096498,9.64444444 14.7077043,9.91209877 14.4416342,9.95358025 C14.2635798,9.98123457 14.1199222,9.96246914 13.9803113,9.89234568 C13.7466148,9.77382716 13.4026459,9.75604938 13.3378988,9.85777778 C13.3105837,9.90222222 13.2367315,9.87358025 13.1355642,9.78074074 L12.9777432,9.63555556 L12.6206226,9.78074074 C12.2574319,9.92790123 12.1238911,9.92197531 12.1238911,9.75308642 C12.1238911,9.67604938 12.0176654,9.66716049 11.4824903,9.70074074 C10.8926848,9.7382716 10.8309728,9.72839506 10.7207004,9.60790123 C10.6185214,9.49728395 10.6164981,9.45876543 10.6893385,9.34518519 C10.7561089,9.24049383 10.7561089,9.19506173 10.6923735,9.13283951 C10.6286381,9.07061728 10.5456809,9.07160494 10.3129961,9.13283951 C9.72622568,9.28592593 9.56031128,9.2 9.56031128,8.75259259 C9.56031128,8.48395062 9.40249027,8.32098765 9.20015564,8.31802469 Z M9.05447471,8.72888889 C9.08583658,8.72888889 9.11214008,8.74765432 9.152607,8.78716049 C9.20420233,8.83753086 9.23151751,8.9254321 9.2092607,8.9817284 C9.1566537,9.11506173 8.9077821,9.11012346 8.8551751,8.97580247 C8.82988327,8.91061728 8.86225681,8.83753086 8.93712062,8.78419753 C8.98972763,8.74666667 9.02311284,8.72790123 9.05447471,8.72888889 Z" id="Shape"></path>
                <path d="M8.00233463,9.14567901 C8.35945525,8.92444444 8.35136187,8.94123457 8.4029572,8.32691358 C8.43836576,7.89333333 8.43229572,7.86074074 8.31190661,7.86074074 C8.13688716,7.86074074 8.04583658,8.04839506 8.04583658,8.40592593 C8.04583658,8.63506173 8.00941634,8.73777778 7.88396887,8.85925926 C7.58653696,9.14962963 6.84801556,9.01728395 6.75494163,8.65679012 C6.72357977,8.53333333 6.76404669,8.4217284 6.91883268,8.20740741 C7.24155642,7.76 7.16871595,7.65037037 6.77315175,7.99012346 C6.50101167,8.22222222 6.45245136,8.2291358 6.50404669,8.02864198 C6.55159533,7.84395062 6.45245136,7.7708642 6.23089494,7.82518519 C6.11758755,7.85283951 6.05587549,7.92197531 6.02856031,8.0562963 C6.00225681,8.18765432 5.94054475,8.26074074 5.83330739,8.28641975 C5.65424125,8.3308642 5.34871595,8.16493827 5.34871595,8.0237037 C5.34871595,7.91901235 5.80599222,7.37382716 6.39276265,6.77925926 C6.61431907,6.55407407 6.79540856,6.34469136 6.79540856,6.31308642 C6.79540856,6.28148148 6.6770428,6.25580247 6.53237354,6.25580247 C6.32093385,6.25580247 6.26933852,6.27851852 6.26933852,6.37432099 C6.26933852,6.43950617 5.97392996,6.81777778 5.61175097,7.21580247 C4.8570428,8.0454321 4.79431907,8.2182716 5.16762646,8.43950617 C5.46809339,8.61925926 5.85354086,8.6054321 6.15603113,8.40493827 L6.40085603,8.24197531 L6.40085603,8.53728395 C6.40085603,8.9145679 6.47774319,9.04987654 6.78124514,9.20691358 C7.16264591,9.40345679 7.62396887,9.37975309 8.00233463,9.14567901 Z" id="Shape"></path>
                <path d="M23.8410895,4.01876543 C23.5611798,4.18191605 23.7802191,4.5248 23.8226224,4.75247407 C23.7083135,5.06319012 23.2994053,5.14688395 23.0013158,5.20456296 C22.5790839,5.27284444 22.2799119,5.61766914 22.1192784,5.98402963 C22.0322371,6.22194568 21.8221905,6.59089383 21.5932792,6.22864198 C21.3943135,6.03177284 21.0285734,5.87573333 20.7932683,6.10556049 C20.6145259,6.27172346 20.569203,6.51610864 20.502564,6.73790617 C20.3970769,6.56741728 20.3497609,6.31355062 20.1262115,6.25964444 C19.7693337,6.30865975 19.8983119,6.74793086 20.0661181,6.92906667 C20.218638,7.14020741 20.3651485,7.41872593 20.2156333,7.66950123 C20.0838123,7.97089383 19.6279018,8.17419259 19.3601119,7.91636543 C19.1100061,7.78747654 19.2772599,7.32723951 19.0309135,7.30194568 C18.909108,7.38784889 18.8990722,7.8694321 18.7041127,7.60835556 C18.5634294,7.38528395 18.6380322,7.07973333 18.465894,6.87904198 C18.262487,6.90369975 18.0989399,7.24560988 18.1666107,7.42925432 C18.4379921,7.78654815 18.5495189,8.23476543 18.6553905,8.66056296 C18.7213475,8.8310716 18.6457695,9.17678025 18.8091547,9.24432593 C18.9224216,8.96988642 18.817157,8.65858765 18.9063198,8.38153086 C19.1711961,8.34903605 19.4658054,8.46705284 19.7435907,8.40432296 C20.1410366,8.35397136 20.4481805,8.02654519 20.5875689,7.67785383 C20.629699,7.41571062 20.5795767,7.1496958 20.5721166,6.88607111 C20.8860792,6.93356148 21.2123135,6.93259062 21.5143384,7.03212543 C21.6641065,7.25641185 21.466816,7.57024889 21.4253991,7.81528593 C21.2677198,8.3142884 20.8673299,8.67646123 20.4778661,9.01005136 C20.3149766,9.10417383 20.2930941,9.35357728 20.533672,9.21923654 C21.0570611,9.00074765 21.4471623,8.53800198 21.6716019,8.03711309 C21.8353918,7.65174025 21.7037165,7.22255506 21.8106463,6.82842173 C21.9686393,6.53253037 22.3490082,6.59488099 22.6304556,6.59579951 C22.9217163,6.5849758 23.1703148,6.25367605 23.0730323,5.97734025 C22.980356,5.65666864 23.3278728,5.50218963 23.5653226,5.38757235 C23.8801451,5.23249086 24.1215506,4.91753778 24.0971693,4.56206123 C24.084233,4.38031309 24.093416,4.0354637 23.8410946,4.01885136 L23.8410895,4.01876543 Z M22.7251128,5.87061728 C23.0623642,5.95809185 22.6640665,6.5869037 22.4848405,6.18852346 C22.429676,6.03652346 22.560717,5.86515556 22.7251128,5.87061728 Z M21.1600545,6.32098765 C21.5989689,6.29596247 21.4413603,6.9216 21.0705426,6.63751111 C20.878264,6.5432484 20.9418781,6.30932346 21.1600545,6.32098765 Z" id="Shape"></path>
                <path d="M5.32020162,8.75749307 C5.33487735,8.68434639 5.29574208,8.63209877 5.22603236,8.63209877 C5.07805208,8.63209877 4.98877472,8.75517095 5.05848444,8.86198832 C5.13064011,8.97228887 5.28962719,8.90959172 5.32020162,8.75749307 Z" id="Shape"></path>
                <path d="M10.4492825,8.19512201 C10.4492825,8.08940652 10.4089738,8.04962112 10.3191429,8.066672 C10.1233576,8.10304723 10.1014757,8.34857999 10.293806,8.34857999 C10.4009121,8.34857999 10.4492825,8.30083751 10.4492825,8.19512201 Z" id="Shape"></path>
                <path d="M4.04972763,5.16345679 C3.84445914,5.1223042 3.7153393,5.29189136 3.64505837,5.45358025 C3.49154708,5.70546173 3.30407393,5.96308148 3.0286358,6.09645432 C2.83057043,6.15020444 2.61448716,6.0766558 2.4436965,5.9769284 C2.23987471,5.87787654 2.28620934,5.6385679 2.19885136,5.47317531 C2.05145058,5.36015802 1.79006459,5.52177778 1.79586148,5.69751111 C1.77955837,5.93318519 2.00540934,6.06927407 2.19286226,6.16041481 C2.35217043,6.25566914 2.58313541,6.30865185 2.64681012,6.50144198 C2.64238911,6.6652642 2.70988794,6.85276049 2.91424591,6.78950123 C3.1428537,6.78582716 3.20205681,7.05769877 3.10976187,7.22081975 C3.01574506,7.40465185 2.95230506,7.61999012 2.99727393,7.82480988 C3.10653463,7.91462123 3.21809183,7.67368889 3.29725525,7.60487901 C3.35101354,7.53490272 3.40477588,7.4649284 3.45852607,7.39495309 C3.86303346,7.41636444 4.2671463,7.46672889 4.67263502,7.45269136 C4.96101245,7.44759506 5.20657588,7.27378765 5.38997198,7.06997531 C5.64929416,6.8052642 5.86235253,6.4942321 6.15854008,6.26582716 C6.36936265,6.21559605 6.25610482,5.82794074 6.03588482,5.93989136 C5.83751595,6.01253333 5.77507549,6.23137778 5.63760934,6.37082469 C5.40344747,6.64764444 5.16453074,6.92856296 4.86933463,7.14548148 C4.65440467,7.23251358 4.40694942,7.19453136 4.18613152,7.14545975 C4.09400654,7.06682469 4.36911284,7.0027437 4.4074856,6.9153363 C4.53414708,6.79181037 4.6845323,6.67454617 4.75791907,6.51223506 C4.68771097,6.36262519 4.47296109,6.35052642 4.3216249,6.34751407 C3.94876265,6.39121679 3.66396654,6.69677827 3.28739144,6.72555852 C3.00156342,6.7353363 3.15030973,6.4331437 3.27916654,6.33004247 C3.53123502,6.03780543 3.80365837,5.76255605 4.06683502,5.47992889 C4.14151268,5.39218074 4.41167393,5.30886716 4.23888016,5.1856079 C4.17846,5.16437037 4.11311907,5.16439506 4.04975798,5.16346074 L4.04972763,5.16345679 Z M4.23309339,6.64187654 C4.42112296,6.74512593 4.11312918,6.91414321 3.98340233,6.89105185 C3.81320856,6.94084543 3.81015331,6.77138765 3.96131751,6.73763951 C4.04630817,6.69446815 4.13607393,6.64942617 4.23309339,6.64187556 L4.23309339,6.64187654 Z M3.65453774,7.02767407 C3.76156265,7.02567901 3.98584047,7.12606716 3.77524047,7.19033086 C3.62860856,7.30128395 3.46296732,7.07740247 3.65453774,7.02767407 Z" id="Shape"></path>
                <path d="M8.20972763,7.31264869 C8.20972763,7.12982501 7.95377432,7.15575744 7.92544747,7.34117437 C7.90723735,7.46046358 7.93657588,7.48898926 8.05595331,7.46694669 C8.14093385,7.45138722 8.20972763,7.38266627 8.20972763,7.31264869 Z" id="Shape"></path>
                <path d="M19.5455253,6.30320988 C19.5718288,6.16987654 19.3816342,6.08098765 19.2814786,6.17876543 C19.181323,6.27654321 19.2733852,6.46222222 19.4089494,6.43654321 C19.4716732,6.42469136 19.5333852,6.36444444 19.5455253,6.30320988 Z" id="Shape"></path>
                <path d="M1.90396887,4.94716049 C2.08202335,4.79802469 2.08404669,4.78814815 2.00715953,4.46024691 C1.89789883,4.00098765 1.90498054,3.95160494 2.08404669,3.90814815 C2.31066148,3.85185185 2.8863035,4.15308642 3.01377432,4.39407407 C3.11291829,4.58074074 3.10988327,4.59358025 2.94194553,4.74567901 C2.76085603,4.90864198 2.7618677,5.09925926 2.9429572,5.09925926 C3.09268482,5.09925926 3.50645914,4.71703704 3.50645914,4.57975309 C3.50645914,4.3891358 3.04715953,3.93876543 2.68396887,3.77382716 C2.45937743,3.67111111 2.23478599,3.6237037 1.97478599,3.62271605 C1.50941634,3.62271605 1.44669261,3.72049383 1.57214008,4.24888889 C1.71984436,4.86814815 1.51953307,4.95209877 1.00863813,4.48493827 C0.6292607,4.1382716 0.479533074,3.77777778 0.48155642,3.20987654 C0.482568093,2.60049383 0.721322957,2.29925926 1.25953307,2.22814815 C1.6166537,2.1817284 1.60754864,2.09975309 1.24031128,2.04641975 C0.704124514,1.96740741 0.250894942,2.31703704 0.0789105058,2.94123457 C-0.11229572,3.63358025 0.325758755,4.47703704 1.10070039,4.91160494 C1.50638132,5.13876543 1.66824903,5.14567901 1.90396887,4.94716049 Z" id="Shape"></path>
                <path d="M23.031751,4.18765432 C23.0752529,4.14518519 23.1106615,4.04938272 23.1106615,3.97530864 C23.1106615,3.90123457 23.1845136,3.74222222 23.2745525,3.62271605 C23.3656031,3.50320988 23.4394553,3.38074074 23.4394553,3.35111111 C23.4394553,3.22962963 23.2340856,3.23358025 23.0722179,3.35901235 C22.9063035,3.4854321 22.7818677,3.48839506 22.7818677,3.36493827 C22.7818677,3.33432099 22.8607782,3.27111111 22.9578988,3.22469136 C23.198677,3.11012346 23.2189105,2.99654321 23.0155642,2.90567901 C22.7545525,2.79012346 22.4925292,3.00148148 22.465214,3.35012346 C22.4480156,3.58320988 22.4672374,3.6237037 22.6513619,3.72938272 C22.8192996,3.82617284 22.8506615,3.87753086 22.8223346,4.01580247 C22.7737743,4.25580247 22.8759533,4.33975309 23.031751,4.18765432 Z" id="Shape"></path>
                <path d="M25.0176654,3.96839506 C25.1633463,3.84098765 25.2817121,3.69580247 25.2817121,3.64740741 C25.2817121,3.59901235 25.4071595,3.47061728 25.5609339,3.36296296 C25.996965,3.05679012 26.0930739,2.74765432 25.897821,2.27259259 C25.8219455,2.08592593 25.5831907,1.82814815 25.0642023,1.37185185 C24.6656031,1.02024691 24.2983658,0.732839506 24.2508171,0.732839506 C24.1091829,0.732839506 24.1344747,1.24148148 24.2781323,1.28592593 C24.5371206,1.36691358 24.69393,1.47061728 25.1016342,1.8291358 C25.5750973,2.24691358 25.7936187,2.63703704 25.6742412,2.85432099 C25.5599222,3.06469136 25.4081712,2.99950617 24.9903502,2.56197531 C24.7708171,2.33185185 24.5533074,2.14419753 24.5087938,2.14419753 C24.4602335,2.14518519 24.4258366,2.22814815 24.4258366,2.34469136 C24.4258366,2.4908642 24.5057588,2.63012346 24.7222568,2.86518519 C25.0753307,3.24839506 25.1097276,3.47851852 24.8446693,3.68197531 C24.749572,3.75506173 24.6514397,3.81530864 24.6271595,3.81530864 C24.6038911,3.81530864 24.5259922,3.70074074 24.4551751,3.56148148 C24.3074708,3.2691358 23.4040467,2.33777778 23.2684825,2.33777778 C23.2067704,2.33777778 23.1764202,2.41283951 23.1764202,2.56098765 C23.1764202,2.73975309 23.2128405,2.80296296 23.3585214,2.87604938 C23.5375875,2.96691358 23.9807004,3.40246914 24.4258366,3.92790123 C24.5533074,4.07802469 24.6787549,4.19950617 24.70607,4.20049383 C24.7323735,4.20049383 24.8729961,4.09580247 25.0176654,3.96839506 Z" id="Shape"></path>
                <path d="M25.9038911,1.49234568 C25.845214,1.30765432 24.6332296,0.0898765432 24.5087938,0.0898765432 C24.4440467,0.0898765432 24.4238132,0.164938272 24.4389883,0.358518519 C24.4561868,0.593580247 24.4824903,0.634074074 24.6484047,0.67654321 C24.7515953,0.703209877 25.071284,0.948148148 25.3575875,1.21975309 C25.6428794,1.49135802 25.8937743,1.69777778 25.9140078,1.67703704 C25.9342412,1.65728395 25.9301946,1.57432099 25.9038911,1.49234568 Z" id="Shape"></path>
                <path d="M18.6653696,15.1990123 C18.6653696,15.2880434 18.5847189,15.3602173 18.4852311,15.3602173 C18.3857434,15.3602173 18.3050926,15.2880434 18.3050926,15.1990123 C18.3050926,15.1099813 18.3857434,15.0378074 18.4852311,15.0378074 C18.5847189,15.0378074 18.6653696,15.1099813 18.6653696,15.1990123 Z" id="Shape"></path>
                <path d="M19.3017121,14.9916049 C19.3017121,15.080636 19.2210613,15.1528099 19.1215735,15.1528099 C19.0220858,15.1528099 18.941435,15.080636 18.941435,14.9916049 C18.941435,14.9025739 19.0220858,14.8304 19.1215735,14.8304 C19.2210613,14.8304 19.3017121,14.9025739 19.3017121,14.9916049 Z" id="Shape"></path>
            </g>
        </g>
    </g>
</svg>