<?xml version="1.0" encoding="utf-8"?>
<!-- Generator: Adobe Illustrator 21.0.0, SVG Export Plug-In . SVG Version: 6.00 Build 0)  -->
<svg version="1.1" id="Layer_1" xmlns="http://www.w3.org/2000/svg" xmlns:xlink="http://www.w3.org/1999/xlink" x="0px" y="0px"
	 viewBox="0 0 200 200" style="enable-background:new 0 0 200 200;" xml:space="preserve">
<style type="text/css">
	.st0{fill:#33A457;}
	.st1{fill:#B1CD49;}
	.st2{fill:#F8D930;}
	.st3{fill:#FFFFFF;}
</style>
<title>BP</title>
<path class="st0" d="M60.6,32.8c0.5-9.1,2.1-18,4.7-26.7c7.7,5,14.8,10.9,21,17.5C89.9,15.2,94.5,7.3,100,0
	c5.5,7.3,10.1,15.2,13.7,23.5C120,16.9,127,11,134.7,6c2.6,8.7,4.2,17.7,4.7,26.7c8.2-4.1,16.9-7.3,25.9-9.3
	c-0.5,9.1-2.2,18-4.8,26.7C169.6,49,178.8,49,188,50c-3.6,8.3-8.3,16.2-13.8,23.5c9,2,17.6,5.1,25.9,9.2
	c-6.3,6.6-13.4,12.4-21.1,17.3c7.7,4.9,14.8,10.7,21.1,17.3c-8.2,4.1-16.9,7.1-25.9,9.2c5.5,7.2,10.2,15.1,13.8,23.5
	c-9.1,1.1-18.4,1-27.5-0.1c2.7,8.7,4.3,17.6,4.9,26.7c-9-2.1-17.6-5.2-25.9-9.3c-0.5,9.1-2.1,18-4.7,26.7c-7.7-5-14.8-10.8-21-17.5
	c-3.6,8.4-8.2,16.2-13.7,23.5c-5.5-7.3-10.1-15.2-13.7-23.5C80,183.1,73,189,65.3,194c-2.6-8.6-4.2-17.6-4.7-26.6
	c-8.2,4.1-16.9,7.3-25.9,9.3c0.5-9.1,2.2-18,4.9-26.7c-9.1,1.1-18.4,1.1-27.5,0.1c3.6-8.3,8.3-16.2,13.8-23.5
	c-9-2-17.6-5.1-25.9-9.2c6.3-6.6,13.4-12.4,21.1-17.3C13.4,95.2,6.3,89.4,0,82.8c8.2-4.1,16.9-7.1,25.9-9.2
	C20.3,66.4,15.7,58.5,12,50.2c9.1-1.1,18.4-1,27.5,0.1c-2.7-8.7-4.3-17.7-4.8-26.8C43.7,25.5,52.4,28.7,60.6,32.8L60.6,32.8z"/>
<path class="st1" d="M41.9,110.1c-7.3-2.5-14.3-5.9-20.8-10.1c6.5-4.2,13.5-7.6,20.8-10.1c-6-4.8-11.4-10.4-16-16.5
	c7.6-1.8,15.3-2.6,23.1-2.5c-4-6.6-7.1-13.6-9.4-20.9c7.7,0.9,15.3,2.7,22.5,5.5c-1.5-7.5-2-15.2-1.6-22.8
	c6.9,3.4,13.4,7.7,19.3,12.7c1.2-7.6,3.4-14.9,6.5-22c5.3,5.6,9.9,11.8,13.7,18.5c3.8-6.7,8.4-12.9,13.7-18.5c3.1,7,5.2,14.4,6.5,22
	c5.9-5,12.3-9.3,19.3-12.7c0.5,7.6-0.1,15.3-1.6,22.8c7.2-2.7,14.8-4.6,22.5-5.5c-2.2,7.3-5.4,14.4-9.4,20.9
	c7.8-0.1,15.5,0.7,23.1,2.5c-4.6,6.1-10,11.7-16.1,16.5c7.3,2.5,14.3,5.9,20.8,10.1c-6.5,4.2-13.5,7.6-20.8,10.1
	c6,4.8,11.4,10.4,16.1,16.5c-7.6,1.8-15.3,2.6-23.1,2.5c4,6.6,7.1,13.6,9.4,20.9c-7.7-0.9-15.3-2.7-22.5-5.5
	c1.5,7.5,2,15.2,1.6,22.8c-6.9-3.4-13.4-7.7-19.3-12.7c-1.2,7.6-3.4,14.9-6.5,22c-5.3-5.6-9.9-11.8-13.7-18.5
	c-3.8,6.7-8.4,12.9-13.7,18.5c-3.1-7-5.2-14.4-6.5-22c-5.9,5-12.4,9.3-19.3,12.8c-0.5-7.6,0.1-15.3,1.6-22.8
	c-7.2,2.7-14.8,4.6-22.5,5.5c2.2-7.3,5.4-14.4,9.4-20.9c-7.8,0.1-15.5-0.7-23.1-2.5C30.5,120.5,35.9,114.9,41.9,110.1z"/>
<path class="st2" d="M93,60.8c1.3-6.6,3.7-13,7-18.9c3.3,5.9,5.7,12.3,7,18.9c3.5-5.8,8-11,13.1-15.4c1.1,6.7,1.1,13.5,0,20.1
	c5.3-4.2,11.3-7.6,17.7-10.1c-1.3,6.6-3.7,13-7,18.9c6.5-2.2,13.3-3.4,20.1-3.5c-3.5,5.8-8,11-13.1,15.4c6.9,0.1,13.6,1.3,20.1,3.5
	c-5.3,4.2-11.3,7.7-17.7,10.1c6.4,2.4,12.4,5.8,17.7,10.1c-6.5,2.2-13.3,3.4-20.1,3.5c5.2,4.4,9.6,9.7,13.1,15.4
	c-6.9-0.1-13.7-1.3-20.1-3.5c3.3,5.9,5.7,12.3,7,18.9c-6.4-2.4-12.4-5.8-17.7-10.1c1.1,6.7,1.1,13.5,0,20.1
	c-5.2-4.4-9.6-9.6-13.1-15.4c-1.3,6.6-3.7,13-7,18.9c-3.3-5.9-5.7-12.3-7-18.9c-3.5,5.8-8,11-13.2,15.4c-1.1-6.7-1.1-13.5,0-20.1
	c-5.3,4.2-11.3,7.6-17.7,10.1c1.3-6.6,3.7-13,7-18.9c-6.5,2.2-13.3,3.4-20.1,3.5c3.5-5.8,8-11,13.1-15.5c-6.9-0.1-13.7-1.3-20.2-3.5
	c5.3-4.3,11.3-7.7,17.7-10.1c-6.4-2.4-12.4-5.8-17.7-10.1c6.5-2.2,13.3-3.4,20.1-3.5C56.9,82,52.5,76.7,49,70.9
	c6.9,0.1,13.6,1.3,20.1,3.5c-3.3-5.9-5.7-12.3-7-18.9c6.4,2.4,12.4,5.8,17.7,10.1c-1.1-6.7-1.1-13.5,0-20.1C85,49.8,89.5,55,93,60.8
	z"/>
<path class="st3" d="M92.9,80.8c-1.2-6.6-1.2-13.4,0.1-20c3.5,5.8,5.9,12.1,7,18.7c1.1-6.6,3.5-13,7-18.7c1.3,6.6,1.3,13.4,0.1,20
	c3.4-5.8,7.8-11,13.1-15.2c-1.1,6.6-3.4,13-6.9,18.8c5.2-4.3,11.2-7.7,17.6-9.9c-3.3,5.8-7.7,11-12.9,15.3c6.4-2.3,13.2-3.5,20-3.4
	c-5.2,4.4-11.1,7.8-17.5,10.1c6.8,0,13.6,1.2,19.9,3.5c-6.4,2.4-13.1,3.6-19.9,3.5c6.4,2.3,12.3,5.7,17.5,10.1
	c-6.8,0.1-13.6-1.1-20-3.4c5.2,4.3,9.6,9.5,12.9,15.3c-6.4-2.2-12.4-5.6-17.6-9.9c3.4,5.8,5.8,12.2,6.8,18.8
	c-5.3-4.2-9.7-9.3-13.1-15.1c1.2,6.6,1.2,13.4-0.1,20c-3.5-5.8-5.9-12.1-7-18.7c-1.1,6.6-3.5,13-7,18.7c-1.3-6.6-1.3-13.4-0.1-20
	c-3.4,5.8-7.8,11-13.1,15.2c1.1-6.6,3.4-13,6.8-18.8c-5.2,4.3-11.2,7.7-17.6,9.9c3.3-5.8,7.7-11,12.9-15.3c-6.4,2.3-13.2,3.5-20,3.4
	c5.2-4.4,11.1-7.8,17.5-10.1c-6.8,0-13.6-1.2-19.9-3.5c6.4-2.4,13.1-3.6,19.9-3.5c-6.4-2.3-12.3-5.7-17.5-10.1
	c6.8-0.1,13.6,1.1,20,3.4c-5.2-4.3-9.6-9.5-12.9-15.3c6.4,2.2,12.4,5.6,17.6,9.9c-3.4-5.8-5.8-12.2-6.8-18.8
	C85.1,69.8,89.6,75,92.9,80.8L92.9,80.8z"/>
</svg>
