<?xml version="1.0" encoding="utf-8"?>
<!-- Generator: Adobe Illustrator 21.0.0, SVG Export Plug-In . SVG Version: 6.00 Build 0)  -->
<svg version="1.1" id="Layer_1" xmlns="http://www.w3.org/2000/svg" xmlns:xlink="http://www.w3.org/1999/xlink" x="0px" y="0px"
	 viewBox="0 0 200 200" style="enable-background:new 0 0 200 200;" xml:space="preserve">
<style type="text/css">
	.st0{fill:#2E3192;}
	.st1{fill:#FFFFFF;}
</style>
<title>BRK.B</title>
<rect class="st0" width="200" height="200"/>
<g id="Page_1">
	<g id="Í_ã_1">
		<path class="st1" d="M86.6,91.7c2.6-2,3.3-5.3,3.3-7.9c0.1-3.1-0.8-6.1-2.6-8.5c-1.2-2.6-3.9-4.6-7.2-5.9c-3.3-1.3-8.5-2-15.7-2
			H33.5v1.3c2,0,4,0.4,5.9,1.3c1.3,0.6,1.9,1.3,1.9,1.9c0.6,0.7,1.3,3.3,1.3,6.6v42c0,3.9-0.7,5.9-1.3,7.2c0,0.6-0.7,1.3-1.9,1.9
			c-1.2,0.6-3.3,0.7-5.9,0.7v1.9h32.8c9.2,0,16.4-1.9,20.9-5.9c3.8-3,6-7.6,5.9-12.5c0-4.6-1.9-7.9-5.3-11.1c-2.6-2-7.1-3.3-13-5.3
			C80.7,96.3,84.7,94.4,86.6,91.7L86.6,91.7z M57.1,70.8c4.6,0,8.5,0.7,10.5,2c1.9,0.6,3.9,1.9,4.6,3.9c1.4,2.1,2.1,4.7,1.9,7.2
			c0,2.6-0.7,5.3-1.9,6.6c-1.2,1.8-2.8,3.4-4.6,4.6c-2.6,1.3-5.9,1.3-10.5,1.3V70.8L57.1,70.8z M68.2,101.6c2.6,1.3,4.6,2.6,5.9,5.3
			c1.3,2.4,1.9,5.1,1.9,7.9c0.1,2.5-0.6,5-1.9,7.2c-1.3,1.9-2.6,3.9-4.6,5.3c-2.6,0.6-4.6,1.3-7.2,1.3c-1.3,0-2.6,0-3.9-1.3
			c-0.9-1.1-1.4-2.5-1.3-3.9v-23C60.8,100.2,64.6,100.6,68.2,101.6L68.2,101.6z"/>
		<path class="st1" d="M141.1,100.9v20.4c0,3.3,0,5.3-0.7,5.9c0,1.3-1.3,1.9-1.9,2.6s-2.6,0.7-4.6,0.7H132v1.9h34.1v-1.9h-2.6
			c-1.3,0-3.3,0-3.9-0.7c-1.2-0.5-2.1-1.4-2.6-2.6V72.7c0.5-1,1.1-1.9,1.9-2.6c1.4-0.8,3-1.3,4.6-1.3h2.6v-1.3h-34.1v1.3h1.9
			c1.6,0,3.2,0.5,4.6,1.3c1.3,0.6,1.9,1.3,1.9,1.9c0.7,1.3,0.7,3.3,0.7,6.6v18.4h-23V78.6c0-3.3,0-5.3,0.6-5.9
			c0.5-1,1.1-1.9,1.9-2.6c1.4-0.8,3-1.3,4.6-1.3h1.9v-1.3H93v1.3h2.6c1.4,0,2.8,0.5,3.9,1.3c1,0.5,1.9,1.1,2.6,1.9v55.1
			c-0.5,1-1.1,1.9-1.9,2.6c-1.3,0.7-2.6,0.7-4.6,0.7h-2.6v1.9h34.1v-1.9h-1.9c-1.9,0-3.3,0-4.6-0.7c-0.7-0.6-1.9-1.3-1.9-2.6
			c-0.6-0.7-0.6-2.6-0.6-5.9v-20.4H141.1z"/>
	</g>
</g>
</svg>
