<svg xmlns="http://www.w3.org/2000/svg" xmlns:xlink="http://www.w3.org/1999/xlink" viewBox="0 0 33.56 19.57"><defs><style>.cls-1{fill:none;}.cls-2{clip-path:url(#clip-path);}.cls-3{fill:#f0e030;}.cls-4{fill:#fff;}.cls-5{fill:#bd0030;}.cls-6{clip-path:url(#clip-path-4);}.cls-7{clip-path:url(#clip-path-5);}.cls-8{fill:#f4d02e;}.cls-9{fill:#bb4b4b;}</style><clipPath id="clip-path"><rect class="cls-1" width="33.56" height="19.57"/></clipPath><clipPath id="clip-path-4"><rect class="cls-1" x="12.17" y="13.26" width="9.2" height="2.34"/></clipPath><clipPath id="clip-path-5"><rect class="cls-1" x="13.24" y="14.2" width="7.03" height="1.73"/></clipPath></defs><title>BRN</title><g id="Layer_2" data-name="Layer 2"><g id="_4" data-name="4"><g id="BRUNEI"><g class="cls-2"><g class="cls-2"><rect class="cls-3" width="33.56" height="19.57"/><polygon class="cls-4" points="0 5.98 33.56 14.14 33.56 9.52 0 1.36 0 5.98"/><polygon points="0 10.06 33.56 18.21 33.56 14.14 0 5.98 0 10.06"/><rect class="cls-5" x="16.59" y="8.15" width="0.35" height="0.94"/><path d="M17,9.12h-.41v-1H17v1Zm-.35-.06h.29V8.18h-.29v.88Z"/><g class="cls-2"><path class="cls-5" d="M17.29,10.64a9.56,9.56,0,0,1,.06-1.45.55.55,0,0,1,.19-.3A.59.59,0,0,0,17,9.3a1.13,1.13,0,0,0-.28-.56,1.07,1.07,0,0,0-.28.57c-.1-.21-.28-.43-.49-.41a.6.6,0,0,1,.19.29,8.06,8.06,0,0,1,.05,1.44Z"/><path d="M17.23,10.64a9.7,9.7,0,0,1,.07-1.46A.54.54,0,0,1,17.37,9a.66.66,0,0,0-.27.33L17,9.52l0-.2a1.17,1.17,0,0,0-.22-.49,1.09,1.09,0,0,0-.22.49l0,.18-.08-.17A1,1,0,0,0,16.17,9a.62.62,0,0,1,.07.17,8.29,8.29,0,0,1,.05,1.45h-.12a8.23,8.23,0,0,0,0-1.42A.4.4,0,0,0,16,9l-.05-.06-.08-.09.11,0a.54.54,0,0,1,.47.3,1,1,0,0,1,.26-.44l0,0,0,0a1,1,0,0,1,.26.43.57.57,0,0,1,.49-.3l.12,0L17.55,9a.41.41,0,0,0-.13.23,9.29,9.29,0,0,0-.06,1.43Z"/><path class="cls-5" d="M17.32,12.25a12.14,12.14,0,0,1,.07-1.65.52.52,0,0,1,.21-.34c-.21,0-.41,0-.53.4a1.09,1.09,0,0,0-.31-.61,1.09,1.09,0,0,0-.31.61c-.13-.36-.31-.43-.54-.41a.59.59,0,0,1,.22.35,11,11,0,0,1,0,1.63Z"/><path d="M17.27,12.25a12.27,12.27,0,0,1,.07-1.66.52.52,0,0,1,.13-.28c-.13,0-.26.1-.34.36l-.07.2,0-.21a1.05,1.05,0,0,0-.25-.54,1,1,0,0,0-.25.54l0,.2-.07-.19c-.1-.28-.23-.36-.36-.37a.53.53,0,0,1,.14.28,12.37,12.37,0,0,1,0,1.65h-.11a10.8,10.8,0,0,0,0-1.62.45.45,0,0,0-.15-.27l-.13-.13h.11a.48.48,0,0,1,.53.29,1.07,1.07,0,0,1,.28-.48l0,0,0,0a1.08,1.08,0,0,1,.28.48.49.49,0,0,1,.52-.28l.12,0-.12.11a.39.39,0,0,0-.16.28,12.71,12.71,0,0,0-.07,1.64Z"/><path class="cls-5" d="M17.54,12.68a1.55,1.55,0,0,1,.06-.52,1.14,1.14,0,0,1,.16-.24.5.5,0,0,0-.63.34,1.1,1.1,0,0,0-.36-.62,1.09,1.09,0,0,0-.35.62.5.5,0,0,0-.64-.34,1.08,1.08,0,0,1,.16.24,1.37,1.37,0,0,1,.06.52Z"/><path d="M16,12.68h-.1a1.49,1.49,0,0,0-.06-.49,1.17,1.17,0,0,0-.12-.18l-.09-.11h.08a.55.55,0,0,1,.64.25,1.08,1.08,0,0,1,.33-.52l0,0,0,0a1.09,1.09,0,0,1,.34.52.55.55,0,0,1,.63-.25h.08l-.08.11a.93.93,0,0,0-.12.19,1.54,1.54,0,0,0-.06.5h-.1a1.56,1.56,0,0,1,.06-.54,1.1,1.1,0,0,1,.11-.19.44.44,0,0,0-.5.33l-.05.14,0-.15a1.05,1.05,0,0,0-.31-.57,1.07,1.07,0,0,0-.3.57l0,.15-.06-.14a.44.44,0,0,0-.5-.33.83.83,0,0,1,.11.19,1.46,1.46,0,0,1,.07.54Z"/><rect class="cls-5" x="16.63" y="6.32" width="0.26" height="0.74"/><path d="M16.94,7.12h-.36V6.27h.36v.84ZM16.68,7h.17V6.37h-.17V7Z"/><g class="cls-6"><path class="cls-5" d="M18.45,15.5a1.4,1.4,0,0,0,.79,0c.82-.14.81-.95,2.09-.57a.84.84,0,0,0-.76-.48.75.75,0,0,0,0-.56.88.88,0,0,1-.35.39.61.61,0,0,1-.25-.41c0-.47-.26-.55-.28-.54a4.29,4.29,0,0,1-2.94,1.41,4.06,4.06,0,0,1-2.92-1.41s-.25.07-.28.54a.6.6,0,0,1-.25.41.86.86,0,0,1-.35-.38.77.77,0,0,0,0,.56.85.85,0,0,0-.76.48c1.28-.37,1.28.43,2.1.57a1.33,1.33,0,0,0,.78,0Z"/><path d="M14.77,15.6a2.92,2.92,0,0,1-.49-.05,1.57,1.57,0,0,1-.71-.35A1.27,1.27,0,0,0,12.2,15l-.06-.07a.89.89,0,0,1,.74-.51.74.74,0,0,1,0-.54H13a.75.75,0,0,0,.3.34.55.55,0,0,0,.21-.35c0-.39.18-.53.25-.57a.12.12,0,0,1,.1,0s0,0,.16.14a3.71,3.71,0,0,0,2.72,1.27h0a3.75,3.75,0,0,0,2.69-1.22c.13-.14.19-.19.24-.19h0l.08,0c.07,0,.23.18.25.57a.56.56,0,0,0,.2.36.77.77,0,0,0,.31-.34h.09a.74.74,0,0,1,0,.54.88.88,0,0,1,.74.51l-.06.07A1.26,1.26,0,0,0,20,15.2a1.56,1.56,0,0,1-.7.35,1.38,1.38,0,0,1-.83,0l.05-.08a1.56,1.56,0,0,0,.76,0,1.44,1.44,0,0,0,.66-.34,1.31,1.31,0,0,1,1.33-.27.78.78,0,0,0-.66-.36l0-.07a.86.86,0,0,0,0-.43,1,1,0,0,1-.32.31h0a.65.65,0,0,1-.27-.45c0-.39-.19-.49-.23-.5a1.32,1.32,0,0,0-.18.16,3.82,3.82,0,0,1-2.76,1.25h0a3.81,3.81,0,0,1-2.79-1.3l-.12-.12s-.19.11-.22.5a.64.64,0,0,1-.27.45h-.05A.89.89,0,0,1,13,14a.86.86,0,0,0,0,.43l0,.07a.78.78,0,0,0-.66.36,1.32,1.32,0,0,1,1.34.27,1.64,1.64,0,0,0,1.41.34l.05.08a.6.6,0,0,1-.32.06Z"/></g><g class="cls-7"><path class="cls-5" d="M14.49,15.09c-.45,0-1.31-.7-1.19-.83s.23,0,.56.23a3.53,3.53,0,0,0,2.88,1.39,3.58,3.58,0,0,0,2.91-1.39c.33-.23.54-.27.56-.22s-.75.8-1.2.82Z"/><path d="M16.72,15.93a3.09,3.09,0,0,1-2.26-.79,2.14,2.14,0,0,1-1.21-.78.12.12,0,0,1,0-.13c.08-.07.32,0,.62.23a2.31,2.31,0,0,1,.35.32,3,3,0,0,0,2.48,1.05h0a3,3,0,0,0,2.53-1.05,2.47,2.47,0,0,1,.35-.32,1,1,0,0,1,.58-.24l.06,0a.12.12,0,0,1,0,.12,2.13,2.13,0,0,1-1.22.78,3.2,3.2,0,0,1-2.3.79Zm3.45-1.63a1.17,1.17,0,0,0-.49.23,2.45,2.45,0,0,0-.33.31l-.17.18a2.39,2.39,0,0,0,.95-.63c.05-.06,0-.09,0-.09Zm-6.83,0a.58.58,0,0,0,0,.07,2.36,2.36,0,0,0,1,.65l-.16-.18a2.57,2.57,0,0,0-.34-.31c-.32-.22-.47-.24-.5-.23Z"/></g><path class="cls-5" d="M13.88,8.26a3.76,3.76,0,1,0,5.75,0Zm.36.06a2.9,2.9,0,1,0,5.05,0Z"/><path d="M16.78,14.48h-.05a3.61,3.61,0,0,1-3.42-2.26,3.8,3.8,0,0,1,.55-4l.07.07a3.7,3.7,0,0,0-.53,3.88,3.51,3.51,0,0,0,3.33,2.2,3.53,3.53,0,0,0,3.4-2.14,3.71,3.71,0,0,0-.52-3.95l.07-.06a3.79,3.79,0,0,1,.54,4,3.59,3.59,0,0,1-3.44,2.21Zm0-1.77a2.82,2.82,0,0,1-2.51-1.44,3,3,0,0,1-.06-3l.09.05a2.94,2.94,0,0,0,.07,2.86,2.72,2.72,0,0,0,2.43,1.39,2.67,2.67,0,0,0,2.41-1.37,3,3,0,0,0,.06-2.89l.08-.05a3.07,3.07,0,0,1-.06,3,2.76,2.76,0,0,1-2.5,1.42Z"/><path class="cls-8" d="M17.42,15a.24.24,0,0,1,.2.29.31.31,0,0,1-.32.19c-.08,0,0-.12.21-.14s0-.16-.1-.21,0-.14,0-.13Z"/><path class="cls-5" d="M17.32,15.46h0s0,0,0-.05.1-.08.25-.09.06,0,.07-.06-.09-.11-.17-.14a.08.08,0,0,1,0-.09s0-.05,0-.05a.26.26,0,0,1,.19.13.2.2,0,0,1,0,.16.31.31,0,0,1-.29.2Zm.09-.49a0,0,0,0,0,0,0,.07.07,0,0,0,0,.08c.08,0,.18.1.18.15s0,.05-.07.07-.23,0-.24.09,0,0,0,0h0a.3.3,0,0,0,.28-.19.2.2,0,0,0,0-.16.27.27,0,0,0-.18-.13Z"/><path class="cls-8" d="M17,14.93c.06-.07.11.14.12.29s0,.31,0,.32,0-.16,0-.31-.07-.26,0-.3Z"/><path class="cls-5" d="M17.1,15.54s0,0,0-.1a1.24,1.24,0,0,0,0-.21c0-.18-.07-.26,0-.3h0s0,.13,0,.3a1.14,1.14,0,0,1,0,.21s0,.09,0,.09h0c.05,0,.05-.16,0-.31a.94.94,0,0,0-.05-.24.63.63,0,0,1,.06.24c0,.05,0,.31,0,.32Z"/><path class="cls-8" d="M16.88,15.18c.15.14-.1.56-.66.38,0-.06.22,0,.4,0,.34-.05.19-.41.26-.35Z"/><path class="cls-9" d="M16.49,15.62a.92.92,0,0,1-.26,0s0,0,0,0a.71.71,0,0,0,.26.05.44.44,0,0,0,.42-.23.17.17,0,0,0,0-.19s0,0,0,0a.27.27,0,0,1-.24.31h-.39s0,0,.06,0h.08a1.09,1.09,0,0,0,.25,0,.26.26,0,0,0,.23-.3s0-.05,0-.05a.17.17,0,0,1,0,.2.44.44,0,0,1-.42.24Z"/><path class="cls-8" d="M16.61,14.9c.06-.07,0,.14,0,.29s0,.3-.07.28,0-.17,0-.31,0-.21,0-.26Z"/><path class="cls-5" d="M16.59,15.47h0s0,0,0-.1a.62.62,0,0,0,0-.21c0-.18,0-.21,0-.26h0c-.06.05-.09.09,0,.25a.69.69,0,0,1,0,.22s0,.08,0,.09h0a.47.47,0,0,0,0-.27,1.44,1.44,0,0,1,0-.16.87.87,0,0,0,0-.11.24.24,0,0,1,0,.11,1.09,1.09,0,0,0,0,.16.48.48,0,0,1,0,.27Z"/><path class="cls-8" d="M16.23,14.84c.11,0,.08,0,.07.31s-.27.35-.34.27,0-.09-.27-.07c-.05,0-.05-.09-.23-.07s0-.07-.12-.12-.19.07-.46-.09a.22.22,0,0,1-.11-.22c0-.17-.14,0-.31-.05a.85.85,0,0,1-.23-.14c-.13-.11,0-.13.18,0s.26-.09.26-.24-.07-.21.06-.2.05.29-.07.41-.05.14,0,.13.33-.35.38-.32-.21.27-.15.47.2.18.34.19.16-.19.23-.15-.17.17.1.26c.06,0,.1-.14.13-.14s-.06.19.1.21.08-.16.15-.15,0,.28.22.25-.05-.51.06-.51Z"/><path class="cls-5" d="M16.06,15.46a.14.14,0,0,1-.1,0c-.06-.09-.06-.09-.27-.07l0,0s-.06-.05-.19,0,0,0-.05,0a.23.23,0,0,0-.07-.09.2.2,0,0,0-.15,0c-.06,0-.12,0-.31-.07a.22.22,0,0,1-.11-.22s0,0,0-.06a.13.13,0,0,0-.08,0,.33.33,0,0,1-.22,0,.88.88,0,0,1-.22-.14s-.06-.07-.05-.08.08,0,.23.05.26-.09.26-.23a.48.48,0,0,0,0-.13s0,0,0-.06l.06,0a0,0,0,0,1,0,0,.46.46,0,0,1-.1.39.41.41,0,0,0-.08.11s0-.06.08-.12a.44.44,0,0,0,.09-.37l0,0h-.06s0,0,0,.05a.39.39,0,0,1,0,.13c0,.16-.17.31-.27.24a.39.39,0,0,0-.19-.07s0,0,0,.08a.74.74,0,0,0,.22.13.32.32,0,0,0,.22,0l.06,0a.06.06,0,0,1,0,.07.21.21,0,0,0,.1.21c.18.11.25.08.3.07a.28.28,0,0,1,.16,0,.25.25,0,0,1,.08.09s0,0,0,0h.06a.16.16,0,0,1,.14.05l0,0c.21,0,.22,0,.26,0a.13.13,0,0,0,.11.06c.11,0,.23-.09.24-.3V15c0-.09,0-.14,0-.15l-.06,0c-.05,0,0,.16,0,.27s0,.24,0,.25a.18.18,0,0,1-.18-.17s0-.09,0-.08,0,0-.05.06,0,.09-.08.09-.1-.08-.09-.13,0-.07,0-.08h0s0,0,0,.05,0,.08-.08.08-.13-.05-.14-.08a.11.11,0,0,1,0-.09s0-.06,0-.08,0,0-.06,0a.17.17,0,0,1-.14.11c-.16,0-.34-.1-.37-.2a.42.42,0,0,1,.1-.33c0-.07.07-.11,0-.13h0s-.12.09-.2.17a.77.77,0,0,1-.17.15h-.06l0,0h.06s.11-.08.18-.14.17-.18.21-.18,0,.07,0,.14a.42.42,0,0,0-.1.33c0,.09.2.17.33.19a.15.15,0,0,0,.16-.1s0-.05.05-.05,0,.07,0,.1a.1.1,0,0,0,0,.09s.05.05.12.07.06,0,.08-.07,0-.06,0-.06,0,0,0,.09,0,.11.07.13h0c.06,0,.07,0,.09-.08s0-.07,0-.07,0,0,.06.09,0,.16.14.16.06-.12,0-.24,0-.23,0-.26.08,0,.09,0,0,.07,0,.16v.14c0,.21-.13.31-.25.31Z"/><path class="cls-8" d="M14.27,14.47c.06,0,.17-.07.17-.16s-.13-.14-.3-.11a.51.51,0,0,1-.33-.12c-.09-.11-.09-.24-.2-.18s.11.24.21.29.25,0,.26.12,0,.18.2.17Z"/><path class="cls-5" d="M14.25,14.47c-.17,0-.17-.08-.17-.14s-.07-.09-.13-.11l-.12,0c-.08,0-.23-.2-.23-.26l0,0c0,.09.13.24.21.28l.12,0c.07,0,.13,0,.14.08s0,.18.17.18h0c.05,0,.17-.07.17-.16a.09.09,0,0,0,0-.07.33.33,0,0,0-.28,0,.46.46,0,0,1-.34-.12.64.64,0,0,1-.07-.11c0-.06-.06-.11-.12-.07l0,0s.06,0,.09.09a.44.44,0,0,0,.06.11.52.52,0,0,0,.3.12h.13a.28.28,0,0,1,.18.05.11.11,0,0,1,0,.07.22.22,0,0,1-.18.17Z"/><path class="cls-8" d="M18.08,15s-.06.32.13.33a.56.56,0,0,0,.43-.16c.1-.08.29-.23.2-.36s-.07.09-.12.17a.59.59,0,0,1-.47.24c-.22,0-.13-.23-.18-.22Z"/><path class="cls-5" d="M18.24,15.29h0a.16.16,0,0,1-.15-.15.26.26,0,0,1,0-.2s0,0,0,.05,0,.16.16.17a.6.6,0,0,0,.47-.24l0-.09c0-.05,0-.09.06-.09v0s0,0-.06.07l0,.09a.6.6,0,0,1-.44.24c-.18,0-.19-.12-.2-.18s0,0,0,0a.27.27,0,0,0,0,.18c0,.07,0,.14.15.14h0a.56.56,0,0,0,.38-.14c.17-.12.25-.23.24-.32,0,.1-.06.2-.22.3a.6.6,0,0,1-.41.16Z"/><path class="cls-8" d="M18.58,14.81s.11-.1.13-.16-.07-.11,0-.18.06.16.12.16.05.14,0,.12-.18.08-.21.06Z"/><path class="cls-5" d="M18.6,14.81h0v0l0,0,.06,0a.29.29,0,0,1,.11,0h0a.09.09,0,0,0,.09-.06s0,0-.09-.05-.05-.06-.07-.11a.21.21,0,0,0,0-.06s0,0,0,.06,0,.1.06.11.1,0,.1.06a.1.1,0,0,1-.09.07h0a.28.28,0,0,0-.11,0l-.07,0Zm0,0s0,0,.05-.06.07-.05.07-.08a.09.09,0,0,0,0-.07.09.09,0,0,1,0-.11h0a.09.09,0,0,0,0,.11.11.11,0,0,1,0,.08.2.2,0,0,1-.08.08l-.06.06Z"/><path class="cls-8" d="M18.45,14.43c0,.09,0,.11.05.06s0-.12-.05-.06Z"/><path class="cls-1" d="M18.45,14.43c0,.09,0,.11.05.06S18.47,14.37,18.45,14.43Z"/><path class="cls-8" d="M18.58,14.36s0,.1,0,.11,0,.07.06.07,0-.11,0-.11,0-.06-.06-.06Z"/><path class="cls-5" d="M18.64,14.54h0l0,0s0,0,0,0,0,0,0-.06,0-.05,0-.05,0,.05.06.06,0,0,0,.06,0,.06,0,.07Zm-.06-.16s0,0,0,0,0,0,0,0,0,0,0,0l0,0h0s0,0,0-.05,0-.05,0-.05,0,0,0,0Z"/><path class="cls-8" d="M18.9,14.33s-.1-.17.12-.2.2.18.19.34a.81.81,0,0,1,0,.27c0,.07-.13.28-.18.26s0-.11.09-.23a.7.7,0,0,0,.06-.43s-.07.12-.14.16-.12-.06-.13-.1,0-.08.07,0,.1,0,.1-.11-.07,0-.14.06Z"/><path class="cls-5" d="M19,15h0v0h0s.13-.18.17-.26a.73.73,0,0,0,0-.24c0-.19-.08-.36-.18-.37s-.15.09-.15.15,0,0,0,0,.11-.12.14-.12a.05.05,0,0,1,0,.05.13.13,0,0,1,0,.1l0,0-.06,0a0,0,0,0,0,0,0s.05.11.1.11a.22.22,0,0,0,.1-.12s0-.06.05-.06v0h0s0,0-.05.05a.3.3,0,0,1-.08.11.14.14,0,0,1-.13-.11.06.06,0,0,1,0,0,.05.05,0,0,1,.07,0h0a.14.14,0,0,0,0-.1s0,0,0,0-.07,0-.11.09l0,0s0,0,0-.05,0-.14.16-.16.2.18.19.35a.82.82,0,0,1,0,.27S19.06,15,19,15ZM19,15a.53.53,0,0,1,.09-.17.77.77,0,0,0,.08-.42.72.72,0,0,1-.06.41A.91.91,0,0,0,19,15Z"/><path class="cls-8" d="M19.38,13.86a2.13,2.13,0,0,0-.14.16.2.2,0,0,0,0,.16.48.48,0,0,1,.08.25c0,.09-.07.28,0,.26a.48.48,0,0,0,.1-.33c0-.14-.08-.21-.07-.27s.09-.14.11-.19a.41.41,0,0,0,0-.23s-.1,0-.07.07.08,0,.06.11Z"/><path class="cls-5" d="M19.28,14.7h0a.33.33,0,0,1,0-.14l0-.12a.42.42,0,0,0-.07-.21.23.23,0,0,1,0-.2l.08-.09.06-.07c0-.05,0-.06,0-.07a.08.08,0,0,1,0,0,0,0,0,0,1,0,0,.07.07,0,0,1,.06,0s.06.18,0,.24a.42.42,0,0,1-.06.1.39.39,0,0,0,0,.09.14.14,0,0,0,0,.08.73.73,0,0,1,0,.18.47.47,0,0,1-.1.34Zm.09-1a.07.07,0,0,0-.06,0c0,.05,0,.06,0,.07s0,0,0,.08l-.06.07-.08.09a.19.19,0,0,0,0,.16.47.47,0,0,1,.08.25l0,.13a.49.49,0,0,0,0,.13h0a.49.49,0,0,0,.1-.33.78.78,0,0,0-.05-.18s0-.07,0-.09l0-.09.06-.1a.43.43,0,0,0,0-.23Z"/><path class="cls-8" d="M19.5,13.93s0,.2,0,.14,0-.17,0-.14Z"/><path class="cls-1" d="M19.5,13.93s0,.2,0,.14S19.53,13.91,19.5,13.93Z"/><path class="cls-8" d="M18.6,15.21c0,.07.06.1.08.05s0-.12-.08-.05Z"/><path class="cls-1" d="M18.6,15.21c0,.07.06.1.08.05S18.63,15.14,18.6,15.21Z"/><path class="cls-8" d="M18.71,15.14c0,.07.08.07.11,0s-.07-.09-.11,0Z"/><path class="cls-5" d="M18.76,15.2l-.06,0v0c0,.07.08,0,.1,0s-.07-.06-.09,0a.06.06,0,0,1,.11,0,0,0,0,0,1,0,0,.09.09,0,0,1-.07,0Z"/><path class="cls-5" d="M14.26,14.26c-.06,0-.05.09,0,.11s.18,0,0-.11Z"/><path class="cls-5" d="M14.25,14.39h0a.11.11,0,0,1,0-.11l0,0c.07,0,.07.06.07.08a.08.08,0,0,1-.08.05Zm0-.12a.08.08,0,0,0,0,.11h0s.06,0,.07,0,0-.05-.06-.07Z"/><path class="cls-5" d="M16.79,7.93c-.58.12-1,.45-.79.57s.65-.13.76-.31a1,1,0,0,0,.89.36Z"/><path d="M17.54,8.62a1.14,1.14,0,0,1-.78-.36,1.26,1.26,0,0,1-.57.28.27.27,0,0,1-.22,0,.13.13,0,0,1-.07-.14c0-.19.43-.43.87-.52a.05.05,0,0,1,.06,0,.05.05,0,0,1,0,.06c-.45.09-.77.32-.79.44s0,0,0,0a.24.24,0,0,0,.14,0,1.1,1.1,0,0,0,.55-.29l0-.07,0,.06a1,1,0,0,0,.83.34,0,0,0,0,1,.07,0,0,0,0,0,1,0,.07.28.28,0,0,1-.14,0Z"/><path class="cls-5" d="M13.8,7.75a1.73,1.73,0,0,0,.95.53,7.33,7.33,0,0,0,1.32.12c.16-.07.6-.37.71-.32a3.79,3.79,0,0,0,1,.41,10.13,10.13,0,0,0,1.87-.54c.05-.09-.31-.32-.55-.32l-5.32.12Z"/><path class="cls-5" d="M15.18,8.46c0,.09.07.16.24.16a1.46,1.46,0,0,0,1-.44Z"/><path d="M15.43,8.67h0c-.25,0-.28-.14-.28-.21a0,0,0,0,1,0,0s0,0,.05,0,.06.11.18.11a1.45,1.45,0,0,0,1-.42,0,0,0,0,1,.07,0,.06.06,0,0,1,0,.07,1.52,1.52,0,0,1-1,.45Z"/><path class="cls-5" d="M14.36,8.33c0,.08.11.17.35.18a2.5,2.5,0,0,0,1.35-.38Z"/><path d="M14.72,8.55h0a.49.49,0,0,1-.37-.13.13.13,0,0,1,0-.11.05.05,0,0,1,.06,0,.05.05,0,0,1,0,.06,0,0,0,0,0,0,0,.4.4,0,0,0,.29.09A2.54,2.54,0,0,0,16,8.09a0,0,0,1,1,.07.07,2.57,2.57,0,0,1-1.38.4Z"/><path class="cls-5" d="M13.79,8.1c-.13.17.28.23.53.22a2.41,2.41,0,0,0,1.17-.21Z"/><path d="M14.32,8.37c-.09,0-.51,0-.59-.16a.13.13,0,0,1,0-.14,0,0,0,0,1,.07,0,0,0,0,0,1,0,.07s0,0,0,0,.27.1.5.1a2.4,2.4,0,0,0,1.14-.2,0,0,0,0,1,.07,0,.05.05,0,0,1,0,.07,2.33,2.33,0,0,1-1.18.22Z"/><path class="cls-5" d="M13.34,7.82c-.12.17.29.31.8.3a3.64,3.64,0,0,0,.93-.17Z"/><path d="M14.08,8.17c-.35,0-.72-.08-.8-.23a.14.14,0,0,1,0-.15.05.05,0,0,1,.07,0,.05.05,0,0,1,0,.07,0,0,0,0,0,0,0,1.11,1.11,0,0,0,.76.17,3.77,3.77,0,0,0,.92-.17,0,0,0,0,1,.06,0,.05.05,0,0,1,0,.06,3.56,3.56,0,0,1-.95.18Z"/><path class="cls-5" d="M18.33,8.46c0,.09-.07.16-.23.16a1.46,1.46,0,0,1-1-.44Z"/><path d="M18.08,8.67a1.51,1.51,0,0,1-1-.45.06.06,0,0,1,0-.07,0,0,0,0,1,.07,0,1.46,1.46,0,0,0,1,.42c.12,0,.18,0,.18-.11s0,0,.05,0a0,0,0,0,1,0,0c0,.06,0,.2-.28.21Z"/><path class="cls-5" d="M19.15,8.33c0,.08-.11.17-.35.18a2.5,2.5,0,0,1-1.35-.38Z"/><path d="M18.8,8.55a2.57,2.57,0,0,1-1.38-.4.05.05,0,0,1,0-.07.05.05,0,0,1,.07,0,2.46,2.46,0,0,0,1.31.36.39.39,0,0,0,.29-.09.07.07,0,0,1,0-.07s.06,0,.06,0a.13.13,0,0,1,0,.11.49.49,0,0,1-.36.13Z"/><path class="cls-5" d="M19.72,8.11c.13.16-.28.22-.52.21A2.41,2.41,0,0,1,18,8.11Z"/><path d="M19.21,8.37h0A2.36,2.36,0,0,1,18,8.15a.06.06,0,0,1,0-.07.05.05,0,0,1,.07,0,2.37,2.37,0,0,0,1.13.2c.24,0,.48,0,.51-.1a.07.07,0,0,1,0-.09s0,0,.06,0a.13.13,0,0,1,0,.14c-.08.15-.48.15-.57.15Z"/><path class="cls-5" d="M20.17,7.82c.12.16-.29.31-.8.3a3.68,3.68,0,0,1-.94-.17Z"/><path d="M19.43,8.17h-.05a3.58,3.58,0,0,1-1-.18.05.05,0,0,1,0-.06,0,0,0,0,1,.06,0,3.77,3.77,0,0,0,.92.17c.39,0,.71-.08.76-.18a0,0,0,0,0,0,0,0,0,0,1,1,.08-.06.13.13,0,0,1,0,.15c-.08.15-.45.23-.8.23Z"/><path class="cls-5" d="M14.33,7.81a2,2,0,0,1-1.06,0c-.16-.07-.43-.28,0-.29s.4,0,.71,0a15.63,15.63,0,0,0,2.24-.62c.32,0,.4.14.58.14s.25-.15.56-.14a15.55,15.55,0,0,0,2.24.63c.3,0,.44,0,.71,0s.13.22,0,.29a2,2,0,0,1-1.06,0Z"/><path d="M19.8,7.91a4.83,4.83,0,0,1-.62-.05.05.05,0,0,1,0-.06,0,0,0,0,1,.06,0,2.06,2.06,0,0,0,1,0c.12-.05.22-.14.21-.17h0s0,0-.16,0h-.71A5,5,0,0,1,18,7.15a3,3,0,0,0-.7-.21A.77.77,0,0,0,17,7a.38.38,0,0,1-.22.07A.45.45,0,0,1,16.54,7a.75.75,0,0,0-.36-.08,3,3,0,0,0-.69.21,5,5,0,0,1-1.54.41h-.71c-.14,0-.16,0-.16,0s.09.12.21.17a2.08,2.08,0,0,0,1,0,0,0,0,0,1,.06,0,.05.05,0,0,1,0,.06,2,2,0,0,1-1.09,0c-.08,0-.29-.15-.26-.27s.15-.11.25-.11h.71a4.91,4.91,0,0,0,1.51-.4,2.81,2.81,0,0,1,.73-.22,1.08,1.08,0,0,1,.4.09.39.39,0,0,0,.18.05.68.68,0,0,0,.18-.05,1,1,0,0,1,.38-.09,2.81,2.81,0,0,1,.73.22,4.92,4.92,0,0,0,1.51.4h.71c.1,0,.24,0,.26.11s-.18.23-.27.27a1.06,1.06,0,0,1-.46.07Z"/><path class="cls-5" d="M16.75,5.51c-.3,0-.72,0-.85.3s-.15.82-.05.83.18-.43.25-.43.07.39.22.39.17-.39.21-.39.1.38.24.38.2-.37.24-.37.1.39.21.39.14-.39.22-.39.1.45.26.43.14-.44-.07-.83-.56-.29-.86-.3Z"/><path d="M15.86,6.69h0s-.05,0-.08-.06a1.07,1.07,0,0,1,.1-.84c.12-.32.47-.32.75-.32h.28c.28,0,.63,0,.76.33a1.08,1.08,0,0,1,.1.83s-.05.06-.08.06h0c-.14,0-.2-.18-.24-.32l0-.1a.32.32,0,0,1,0,.1c0,.12-.07.28-.19.28S17,6.48,17,6.33h0c0,.13-.11.31-.24.31s-.19-.18-.24-.31v0c0,.14-.1.31-.2.31s-.16-.16-.2-.28l0-.09a.29.29,0,0,1,0,.09c0,.14-.08.32-.22.32Zm.89-1.13h-.14c-.28,0-.56,0-.67.26a.93.93,0,0,0-.09.77h0c.06,0,.1-.16.12-.25s.05-.19.12-.19.09.08.12.18.05.2.1.2.09-.18.11-.24,0-.15.1-.15.06,0,.09.13.09.25.14.25.12-.18.15-.25,0-.12.09-.12.07,0,.1.15.07.23.11.24.08-.13.1-.21,0-.18.11-.18.09.07.12.18.07.25.13.25a1,1,0,0,0-.1-.75c-.1-.26-.41-.27-.67-.27Z"/><path class="cls-5" d="M16,5.65c.08.14.71.13.75.13s.59,0,.71-.13Z"/><path d="M16.8,5.83h0c-.27,0-.71,0-.79-.16l.08-.05a1.29,1.29,0,0,0,.7.11h0a1.24,1.24,0,0,0,.67-.11l.07.07c-.12.13-.5.14-.73.14Z"/><path class="cls-5" d="M16.64,4.23V5.57s0,.07.12.08.13-.06.13-.07V4.23Z"/><path d="M16.76,5.7h0a.15.15,0,0,1-.17-.12V4.23h.1V5.57h0s0,0,.07,0,.08,0,.08,0V4.23h.1V5.58a.1.1,0,0,1,0,.07.18.18,0,0,1-.14,0Z"/><path class="cls-5" d="M16.77,4.39c.5,0,.65.27.8.34a.68.68,0,0,0,.4.07c.19,0-.34.33-.34.34l.19.34a1.25,1.25,0,0,1-.66-.23.81.81,0,0,0-.39-.05Z"/><path d="M17.79,5.54a1.53,1.53,0,0,1-.65-.24.47.47,0,0,0-.28,0h-.09l0,0V4.34h.11a.91.91,0,0,1,.65.26l.11.09a.6.6,0,0,0,.38.07h0c.07,0,.09,0,.09,0s0,.13-.32.33l0,0,.21.38-.12,0Zm-.85-.39a.51.51,0,0,1,.25.06,1.56,1.56,0,0,0,.55.23l-.15-.28c0-.05,0-.05.09-.12s.18-.13.25-.19a.61.61,0,0,1-.38-.08.56.56,0,0,1-.13-.1.79.79,0,0,0-.58-.23h0v.72h.11Z"/><path class="cls-5" d="M17,4a.29.29,0,0,1-.58,0A.29.29,0,0,1,17,4Z"/><path d="M16.76,4.29A.31.31,0,1,1,17.08,4a.32.32,0,0,1-.32.31Zm0-.55A.24.24,0,1,0,17,4a.25.25,0,0,0-.26-.25Z"/><path class="cls-8" d="M13.64,10.64c0,.05-.07-.09-.2,0s-.1.16-.1.37.1.29.16.28,0-.22.14-.26a.29.29,0,0,1,.37.16.2.2,0,0,1-.17.25c-.06,0,0-.11,0-.15s0-.17-.07-.2-.08.09-.08.13-.07.14-.14.13a.38.38,0,0,1-.3-.12.48.48,0,0,1-.07-.45c.07-.22.18-.24.24-.24s.22,0,.2.1Z"/><path class="cls-5" d="M13.84,11.45h0a.09.09,0,0,1,0-.11l0,0s0-.16-.07-.2-.07,0-.07.1-.07.16-.15.16a.4.4,0,0,1-.31-.12.48.48,0,0,1-.07-.46c.06-.21.17-.24.24-.24a.26.26,0,0,1,.2.06h0v0h-.06a.12.12,0,0,0-.15,0c-.07.06-.1.16-.1.36s.09.27.14.27.06-.06.07-.12,0-.12.08-.14a.3.3,0,0,1,.38.17.21.21,0,0,1,0,.19.15.15,0,0,1-.12.07Zm-.08-.37a.19.19,0,0,1,.11.22l0,0s0,.05,0,.08h0a.15.15,0,0,0,.11-.06.22.22,0,0,0,0-.18.29.29,0,0,0-.36-.16s-.06.07-.07.14,0,.12-.07.13h0c-.07,0-.17-.12-.17-.29s0-.31.11-.37a.14.14,0,0,1,.16,0c0-.06-.1-.09-.15-.09s-.17,0-.24.23a.46.46,0,0,0,.07.44.37.37,0,0,0,.29.13h0c.08,0,.14-.1.14-.13s0-.14.06-.14Z"/><path class="cls-8" d="M13.48,11.53c-.06,0,0-.16-.14-.11s.1.21.17.22.06-.06,0-.11Z"/><path class="cls-5" d="M13.51,11.64h0a.34.34,0,0,1-.19-.2s.06,0,.08,0,.06,0,.06.07,0,0,0,.05.09.06.08.09,0,0-.06,0Zm-.11-.23h-.06c0,.07.11.2.17.2l0,0s0,0-.08-.07a.07.07,0,0,1,0-.07s0-.06,0-.06Z"/><path class="cls-8" d="M13.66,11.63c0,.16.07.14.07.22s-.17.06-.19.1-.05.17.06.18.27,0,.3,0a.25.25,0,0,0,.36.15c.1,0,.33-.25.38-.27s-.07-.09-.16,0-.21.22-.31.23S14,12.1,14,12s.18,0,.2-.1,0-.14,0-.15-.31,0-.32,0,0-.16,0-.19-.18,0-.19,0Z"/><path class="cls-5" d="M14.14,12.36a.25.25,0,0,1-.24-.18s-.09,0-.19,0h-.08c-.07,0-.09,0-.11,0a.16.16,0,0,1,0-.14s0,0,.08,0,.11,0,.11-.07a.22.22,0,0,0,0-.07.65.65,0,0,1-.05-.14s0-.07.1-.07l.09,0s0,0,0,.06a.14.14,0,0,0,0,.13s0,0,.08,0h.22s0,0,0,0a.19.19,0,0,1,0,.14c0,.06-.08.06-.14.07S14,12,14,12a.35.35,0,0,0,.09.18.12.12,0,0,0,.07,0,.68.68,0,0,0,.31-.22c.11-.09.19-.05.2,0l-.17.13a1.58,1.58,0,0,1-.23.16.41.41,0,0,1-.13,0Zm-.36-.24s.11,0,.13.05a.24.24,0,0,0,.35.15,1.35,1.35,0,0,0,.23-.16l.15-.11s-.05-.09-.15,0-.23.22-.32.23h0a.15.15,0,0,1-.09-.05A.34.34,0,0,1,14,12s0,0,.08,0,.11,0,.12-.07a.18.18,0,0,0,0-.13h-.12c-.11,0-.22,0-.23,0a.17.17,0,0,1,0-.14s0,0,0,0-.17,0-.17,0a.6.6,0,0,0,0,.14.17.17,0,0,1,0,.08c0,.07-.07.08-.12.09l-.07,0a.16.16,0,0,0,0,.13.07.07,0,0,0,.06,0h.18Z"/><path class="cls-8" d="M14.51,12.24c-.08.09-.3.22-.3.32a.22.22,0,0,0,.11.16.28.28,0,0,0,.27,0c.1-.07.14-.16.1-.17s-.15.16-.22.17-.17-.1,0-.24.32-.27.31-.31-.19.06-.24.12Z"/><path class="cls-5" d="M14.42,12.75l-.09,0a.23.23,0,0,1-.11-.17c0-.07.11-.16.2-.23l.1-.09a.56.56,0,0,1,.24-.13v0h0a.5.5,0,0,0-.23.12l-.1.09c-.09.07-.19.16-.19.22a.21.21,0,0,0,.1.15.28.28,0,0,0,.26,0c.08-.07.12-.12.11-.15l0,0c-.06,0-.09.05-.11.1s0,.07-.07.07h0a.11.11,0,0,1-.1-.07.17.17,0,0,1,.06-.18l.16-.15a.77.77,0,0,0,.15-.14s-.05.08-.14.16l-.16.15c-.08.08-.07.14-.06.17a.09.09,0,0,0,.08.05s0,0,.06-.06.06-.11.13-.11h0c0,.05,0,.12-.1.18a.32.32,0,0,1-.19.06Z"/><path class="cls-8" d="M14.16,12.81c0,.05.14.05.16,0s-.16-.06-.16,0Z"/><path class="cls-5" d="M14.24,12.86h0a.11.11,0,0,1-.07,0c0-.1.14-.08.17,0a.1.1,0,0,1-.1.05Zm0-.07s-.06,0-.06,0a.07.07,0,0,0,.07,0h0s.07,0,.08,0a.12.12,0,0,0-.09,0Z"/><path class="cls-8" d="M14.65,12.84c-.08.09,0,.18.07.26a.45.45,0,0,0,.16.11.34.34,0,0,0,.31-.05c.1-.08.11-.21,0-.21s0,.2-.12.21a.41.41,0,0,1-.35-.23c-.05-.11.1-.14.08-.19s-.14.05-.2.11Z"/><path class="cls-5" d="M15,13.23l-.1,0a.38.38,0,0,1-.17-.11c-.08-.09-.15-.19-.07-.27s.13-.13.18-.13,0,.06,0,.09-.07.06,0,.12a.4.4,0,0,0,.33.23s0,0,0-.07a.18.18,0,0,1,0-.12s.09,0,.11,0a.21.21,0,0,1-.08.2.35.35,0,0,1-.21.07Zm-.16-.5s-.1,0-.17.11,0,.16.06.23a.49.49,0,0,0,.18.13.41.41,0,0,0,.3,0,.2.2,0,0,0,.08-.19c-.05,0-.07,0-.09,0a.16.16,0,0,0,0,.11s0,.09,0,.09h0a.4.4,0,0,1-.36-.24.1.1,0,0,1,0-.14s0,0,0,0Z"/><path class="cls-8" d="M15,12.84s.14,0,.13-.1-.16.06-.13.1Z"/><path class="cls-5" d="M15.07,12.86h0l0,0v0a.18.18,0,0,1,.12-.09.08.08,0,0,1,0,.09.15.15,0,0,1-.09.05Z"/><path class="cls-8" d="M15.26,13.25c0,.06,0,.14-.06.15S15,13.3,15,13.3s-.11.06-.1.09.14.07.35.05.17.12.32.11.18-.06.16-.09-.14,0-.19,0a.24.24,0,0,1-.14-.15c0-.07,0-.18,0-.18s.06.09.06.13,0,.06.08,0a.17.17,0,0,0,0-.23c-.06,0-.26.07-.27.23Z"/><path class="cls-5" d="M15.52,13.56a.16.16,0,0,1-.11-.05.21.21,0,0,0-.16-.06h-.12c-.15,0-.26,0-.27-.07a.06.06,0,0,1,0-.05.1.1,0,0,1,.09,0h0a.24.24,0,0,1,.12.05.26.26,0,0,0,.11,0s.05,0,.05-.11A.29.29,0,0,1,15.5,13a.15.15,0,0,1,.1.12.16.16,0,0,1,0,.13.07.07,0,0,1-.05,0h0a0,0,0,0,1,0,0c0-.06,0-.09,0-.11l0,0a.18.18,0,0,0,0,.17.24.24,0,0,0,.14.15h.11s.07,0,.08,0a0,0,0,0,1,0,0s-.08.05-.16.06Zm-.3-.12a.24.24,0,0,1,.19.06.15.15,0,0,0,.11,0h0c.1,0,.14,0,.15-.05s0,0-.06,0h-.12a.25.25,0,0,1-.15-.16.28.28,0,0,1,0-.17h0s0,0,.06,0a.11.11,0,0,1,0,.09c0,.08,0,.07.07,0a.16.16,0,0,0,0-.12.17.17,0,0,0-.06-.1.27.27,0,0,0-.26.22c0,.09,0,.15-.07.16h0a.29.29,0,0,1-.12-.05.25.25,0,0,0-.11,0,.1.1,0,0,0-.08,0,.05.05,0,0,0,0,0s.12.07.35.05Z"/><path class="cls-8" d="M15.8,13.26c0,.11-.09.12-.08.16a.67.67,0,0,1,.06.18c0,.06.08.08.17.07s.12-.1.17-.1,0,.16.17.15.16-.11.2-.11,0,.13.14.13.15-.12.2-.12.05.13.21.12a.63.63,0,0,0,.31-.06s.05-.13.1-.14.13.1.2.1.22-.18.26-.18.08.11.18.11.18-.21.25-.22.14-.07.15-.08a.84.84,0,0,0,0-.31s-.18-.42-.26-.43-.06.1,0,.16.28.37.25.46-.2,0-.32,0-.29.36-.42.38-.12-.05-.1-.09.08-.19-.06-.17-.29.09-.26.16.11.15,0,.18a.65.65,0,0,1-.33,0c-.08,0,0-.2-.08-.2s-.06.21-.13.21a.15.15,0,0,1-.16-.09c0-.06,0-.13,0-.14s-.1.24-.18.23-.08,0-.12-.07,0-.21,0-.22-.15.24-.2.24-.13,0-.15-.05a1.64,1.64,0,0,1,0-.25s-.07,0-.07,0Z"/><path class="cls-5" d="M16.64,13.75a.12.12,0,0,1-.11-.08s0,0,0,0l0,0a.21.21,0,0,1-.16.07.12.12,0,0,1-.13-.1s0-.05,0-.05,0,0-.06,0a.18.18,0,0,1-.11.06c-.1,0-.17,0-.18-.09a.44.44,0,0,0,0-.13l0,0s0,0,0,0a.19.19,0,0,0,.06-.11s0,0,0,0l0,0a1.3,1.3,0,0,0,0,.25s.09,0,.14,0h0s0,0,.08-.09.08-.14.13-.14,0,.07,0,.13,0,.09,0,.1.06.07.12.07h0s.07-.07.1-.12,0-.1.08-.1,0,0,0,.07a.14.14,0,0,0,0,.07.13.13,0,0,0,.13.08c.05,0,.07-.07.09-.12s0-.1.06-.1,0,0,0,.09,0,.1,0,.11a.63.63,0,0,0,.33,0,0,0,0,0,0,0,0s0,0,0-.08l0-.07a.07.07,0,0,1,0-.06.42.42,0,0,1,.26-.11c.06,0,.08,0,.1,0s0,.11,0,.15.05.08.08.08.11-.08.17-.16.15-.21.26-.21a.41.41,0,0,1,.16,0c.08,0,.14,0,.15,0s-.15-.32-.22-.41l0,0a.18.18,0,0,1,0-.15,0,0,0,0,1,0,0c.09,0,.26.39.27.44a.78.78,0,0,1,0,.31s0,.07-.15.09,0,0-.07.07a.22.22,0,0,1-.18.14A.18.18,0,0,1,18,13.5l0,0a.29.29,0,0,0-.1.07c-.06.05-.12.11-.16.11a.22.22,0,0,1-.12-.05.17.17,0,0,0-.08,0s0,0-.06.07a.22.22,0,0,1,0,.07.68.68,0,0,1-.31.06h0a.17.17,0,0,1-.17-.08l0,0-.05,0a.19.19,0,0,1-.14.08Zm-.15-.14s0,0,0,.05a.1.1,0,0,0,.1.07.2.2,0,0,0,.13-.07s0,0,.06,0,0,0,.05,0a.15.15,0,0,0,.14.07.67.67,0,0,0,.32-.06.13.13,0,0,0,0-.05s0-.08.07-.09l.09,0a.21.21,0,0,0,.11.05s.1-.06.16-.11a.39.39,0,0,1,.11-.07h0s0,0,.06,0a.19.19,0,0,0,.12.07c.09,0,.13-.07.17-.14s0-.08.08-.08.13-.05.14-.07a.8.8,0,0,0,0-.31c0-.05-.18-.42-.25-.43a.11.11,0,0,0,0,.15l0,0c.13.17.25.36.22.43s-.09,0-.17,0a.39.39,0,0,0-.16,0c-.1,0-.17.11-.25.21s-.11.16-.17.17a.11.11,0,0,1-.1,0,.05.05,0,0,1,0-.05s0-.11,0-.14a.06.06,0,0,0-.06,0,.45.45,0,0,0-.27.11.05.05,0,0,0,0,0,.23.23,0,0,0,0,.07s0,.06,0,.09a.05.05,0,0,1,0,0,.67.67,0,0,1-.34,0s-.05-.08-.06-.13,0-.06-.06,0,0,.13-.09.13h0c-.09,0-.15,0-.17-.09a.17.17,0,0,1,0-.07s0-.06,0-.06h0s0,.05-.06.1-.06.14-.11.14a.14.14,0,0,1-.11-.05.16.16,0,0,1,0-.14c0-.06,0-.1,0-.11h0s-.08.07-.12.14-.06.11-.09.11-.13,0-.16-.06a1.54,1.54,0,0,1,0-.25h0a.19.19,0,0,1-.06.13s0,0,0,0l0,0a.38.38,0,0,1,0,.14s.06.07.14.07a.17.17,0,0,0,.12-.05s0,0,.07,0,0,0,.05.06a.1.1,0,0,0,.12.09.2.2,0,0,0,.15-.07l.05,0Z"/><path class="cls-8" d="M18.37,12.56c.14.21.26.5.34.51s-.16-.38-.23-.46-.23-.23-.11,0Z"/><path class="cls-5" d="M18.71,13.08h0c-.05,0-.12-.13-.21-.28s-.09-.16-.14-.23,0-.09,0-.1.13.08.16.13a1.61,1.61,0,0,1,.24.47Zm-.38-.6s0,0,0,.08l.14.23c.08.13.15.27.2.27a1.84,1.84,0,0,0-.24-.45.41.41,0,0,0-.14-.13Z"/><path class="cls-8" d="M15.79,13.07c0,.05,0,.1,0,.09s.08-.09.07-.11a.06.06,0,0,0-.09,0Z"/><path class="cls-5" d="M15.8,13.18l0,0a.1.1,0,0,1,0-.09c0-.07.09,0,.11,0s0,.11-.08.12Z"/><path class="cls-8" d="M18.78,12.66a.22.22,0,0,0,.23.23.39.39,0,0,0,.33-.34c0-.17-.2-.3-.25-.26s0,.16.15.17,0,.12-.07.21-.29.1-.33,0-.06-.09-.06,0Z"/><path class="cls-5" d="M19,12.9a.22.22,0,0,1-.15-.06.26.26,0,0,1-.07-.18v0s.05,0,.07.07.22.05.32,0,.11-.14.1-.18a.24.24,0,0,1-.2-.14.05.05,0,0,1,0-.06.21.21,0,0,1,.19.08.25.25,0,0,1,.07.18.41.41,0,0,1-.34.35Zm-.2-.27a.24.24,0,0,0,.06.2.2.2,0,0,0,.14.05h0a.39.39,0,0,0,.32-.34.23.23,0,0,0-.07-.18.25.25,0,0,0-.15-.09s0,0,0,.05a.18.18,0,0,0,.16.11h0l0,0a.22.22,0,0,1-.1.19c-.11.09-.3.09-.34,0s0-.07,0-.07Z"/><path class="cls-8" d="M18.87,12.31s0,.15.07.14-.06-.18-.07-.14Z"/><path class="cls-5" d="M18.87,12.31a.1.1,0,0,0,0,.09s0,0,0,0h0a.19.19,0,0,0-.07-.13Z"/><path class="cls-8" d="M19.31,12.23c0,.07.06.17.13.17s.11,0,.11.07-.16.23-.17.29.06.09.1,0a2.78,2.78,0,0,0,.15-.39,1,1,0,0,0,.08-.26c0-.13.11,0,.16,0S20,12,20,12s-.05-.07-.05-.13a1.92,1.92,0,0,0,.07-.21c0-.07-.12-.24-.18-.24s0,.07,0,.1.09.09.07.14-.25.13-.26.24,0,.33-.06.33-.12-.16-.21-.16-.09.16-.07.21Z"/><path class="cls-5" d="M19.42,12.84h0a.1.1,0,0,1,0-.07.4.4,0,0,1,.09-.15.41.41,0,0,0,.08-.14s0-.06-.1-.06-.09-.08-.12-.15a.23.23,0,0,1,0-.2c0-.08.16,0,.21.05s.05.07.08.07,0-.14,0-.23a.8.8,0,0,1,0-.09c0-.06.07-.1.13-.14a.26.26,0,0,0,.13-.11s0-.09-.06-.12-.06-.08-.05-.11a.11.11,0,0,1,.11,0,.37.37,0,0,1,.1.19.46.46,0,0,1,0,.14.29.29,0,0,0,0,.07.11.11,0,0,0,0,.06A.09.09,0,0,1,20,12c0,.07-.06.17-.12.17l-.06,0-.07,0a0,0,0,0,0,0,.05.63.63,0,0,1-.06.2l0,.07a2.73,2.73,0,0,1-.15.39.08.08,0,0,1-.06,0Zm0-.81a.07.07,0,0,0-.06,0,.21.21,0,0,0,0,.17c0,.09.07.17.12.17s.12,0,.12.07a.37.37,0,0,1-.08.15.43.43,0,0,0-.08.14.08.08,0,0,0,0,.06h0a.08.08,0,0,0,.05,0,2.7,2.7,0,0,0,.15-.39.34.34,0,0,1,0-.08.62.62,0,0,0,.05-.18.07.07,0,0,1,0-.06.12.12,0,0,1,.1,0l.05,0h0S20,12,20,12a.09.09,0,0,0,0-.07.11.11,0,0,1,0-.07.2.2,0,0,1,0-.08.57.57,0,0,0,0-.14.34.34,0,0,0-.1-.18.13.13,0,0,0-.07-.05s0,.06,0,.09.09.09.07.15a.31.31,0,0,1-.13.11c-.06,0-.12.07-.13.13s0,.05,0,.09,0,.24-.06.24-.06,0-.09-.07-.08-.09-.13-.09Z"/><path class="cls-8" d="M19.47,11.29s.09.23.15.23,0-.09,0-.12.12-.08.07-.1-.2-.07-.2,0Z"/><path class="cls-5" d="M19.62,11.53c-.06,0-.16-.2-.16-.24l0,0,.12,0h0s0,0,0,.06l0,0s0,0,0,0,0,.05,0,.07Zm-.12-.26c0,.06.07.25.12.25h0s0,0,0-.05,0,0,0-.06,0,0,0-.05l0,0h0l-.12,0Z"/><path class="cls-8" d="M19.47,11c0,.06.27.15.38.18s.24.16.29.12-.34-.2-.39-.22-.29-.15-.28-.09Z"/><path class="cls-5" d="M20.11,11.36A.27.27,0,0,1,20,11.3l-.14-.07c-.07,0-.37-.12-.39-.19h0c0,.06.25.15.36.18l.14.07a.43.43,0,0,0,.13.05h0s-.26-.15-.39-.2l-.06,0L19.51,11a.5.5,0,0,1,.18.05l.07,0s.39.15.4.21l0,0Z"/><path class="cls-8" d="M20.23,11.44c.1,0,0-.19,0-.23s-.06.09-.05.12,0,.11,0,.11Z"/><path class="cls-5" d="M20.23,11.45h0s0-.05,0-.1a.29.29,0,0,1,0-.15l0,0a.19.19,0,0,0,0,.12c0,.05,0,.1,0,.1h0a0,0,0,0,0,0,0,.29.29,0,0,0,0-.18.22.22,0,0,1,0,.19.05.05,0,0,1,0,0Z"/><path class="cls-8" d="M19.68,10.5s.26,0,.39,0,.23.11.27.09-.24-.16-.41-.16-.24,0-.24,0Z"/><path class="cls-5" d="M20.31,10.65a.52.52,0,0,1-.17-.06l-.08,0a.9.9,0,0,0-.22,0c-.11,0-.17,0-.17,0s.13,0,.2,0h.05a.67.67,0,0,1,.41.14l0,0Zm-.54-.16c-.08,0-.09,0-.09,0s.1,0,.16,0l.22,0,.08,0a.59.59,0,0,0,.17.06h0a.62.62,0,0,0-.4-.15h-.15Z"/><path class="cls-8" d="M19.61,10.63c0,.05.16.11.34.11s.3.12.29.2-.25,0-.23.12.12,0,.13.09.07.08.07,0,.14-.16.14-.19a.35.35,0,0,0-.31-.28c-.22,0-.36-.13-.42-.06Z"/><path class="cls-5" d="M20.18,11.21s0,0,0-.06,0,0-.06,0-.06,0-.07-.05,0,0,.08,0,.14,0,.15-.08a.11.11,0,0,0,0-.08.35.35,0,0,0-.25-.11c-.15,0-.33-.05-.35-.1s.11-.05.2,0l.23,0a.36.36,0,0,1,.32.29s0,0-.05.07-.08.08-.08.11,0,0,0,.05Zm-.51-.6a.06.06,0,0,0,0,0c0,.05.18.09.34.1a.37.37,0,0,1,.26.11.12.12,0,0,1,0,.09c0,.09-.1.09-.16.09H20s0,0,.06.05a.09.09,0,0,1,.07.06s0,0,0,0h0a.06.06,0,0,0,0,0s0-.08.09-.12,0-.05,0-.06a.36.36,0,0,0-.3-.27,1,1,0,0,1-.24-.05l-.13,0Z"/><path class="cls-5" d="M13.77,12s-.13.08-.1.1.14-.07.1-.1Z"/><path class="cls-5" d="M13.7,12.07h0l0,0a.09.09,0,0,0,.07-.07,0,0,0,0,0,0,0,.09.09,0,0,0-.07,0,.08.08,0,0,1,.06,0,0,0,0,0,1,0,0,.09.09,0,0,1-.08.07Z"/><path class="cls-5" d="M14,11.85c-.05,0-.07.1,0,.11s.13-.1,0-.11Z"/><path class="cls-5" d="M14,12h0s0,0,0,0,0-.07.05-.07.07,0,.07.05S14,12,14,12Z"/><path class="cls-5" d="M19.46,12.15s-.1,0-.07.09a.09.09,0,0,0,.13,0s0-.11-.06-.11Z"/><path class="cls-5" d="M19.46,12.28a.08.08,0,0,1-.08,0,0,0,0,0,1,0,0,.1.1,0,0,1,.07,0,.07.07,0,0,1,.08,0,.06.06,0,0,1,0,.07l-.06,0Zm0-.13a.14.14,0,0,0-.07,0,.06.06,0,0,0,0,0,.09.09,0,0,0,.13,0,.06.06,0,0,0,0-.06.07.07,0,0,0-.07,0Z"/><path class="cls-5" d="M19.76,11.93c0,.05,0,0,.08,0a0,0,0,0,0,0-.08s-.1,0-.09.05Z"/><path class="cls-5" d="M19.8,12s0,0,0,0v0c0,.09,0,.07.07.05a0,0,0,0,0,0,0,0,0,0,0,0,0,0,0,0,0,0,1,0,0,.05.05,0,0,1,0,0Z"/><path class="cls-5" d="M18,13.27c0,.11,0,.23.08.2s.16-.18.1-.23a.11.11,0,0,0-.18,0Z"/><path class="cls-5" d="M18.09,13.48a.08.08,0,0,1-.06,0,.19.19,0,0,1,0-.17.11.11,0,0,1,.18,0,.07.07,0,0,1,0,.07c0,.06-.07.14-.12.15Zm0-.27a.09.09,0,0,0-.09.06.19.19,0,0,0,0,.17.07.07,0,0,0,.06,0h0a.2.2,0,0,0,.12-.15.07.07,0,0,0,0-.07.14.14,0,0,0-.09,0Z"/><path class="cls-5" d="M11.15,8.57c-.19,0-.62-.1-.64,0a4.27,4.27,0,0,0,.36,1.23,2.11,2.11,0,0,0,.8.38,2,2,0,0,0-.19-.78,3.05,3.05,0,0,1-.26-.54,2,2,0,0,0-.07-.27Z"/><path class="cls-5" d="M10.77,8.54c0-.25.33.05.3.37a.37.37,0,0,0,.11.28Z"/><path d="M11.14,9.23A.44.44,0,0,1,11,8.9a.41.41,0,0,0-.18-.4s0,0,0,0l-.1,0c0-.13.11-.13.14-.12s.28.27.26.5a.33.33,0,0,0,.09.25l-.07.07Z"/><path class="cls-5" d="M11,8.55v0c.14-.24.28.11.3.5Z"/><path d="M11.25,9.07c0-.31-.1-.52-.15-.53s0,0,0,0h0v0L11,8.54c.06-.1.12-.11.16-.1s.22.41.23.62Z"/><path class="cls-5" d="M10.52,8.52c0-.2.31-.25.29.46a1.05,1.05,0,0,1,.31.56.56.56,0,0,1,.32.26Z"/><path d="M11.41,9.81a.54.54,0,0,0-.29-.23h0v0A1.06,1.06,0,0,0,10.79,9l0,0V9c0-.43-.1-.52-.12-.53h0a.08.08,0,0,0,0,.07h-.1a.18.18,0,0,1,.08-.16.12.12,0,0,1,.14,0c.07,0,.18.16.17.59a1.17,1.17,0,0,1,.31.54.62.62,0,0,1,.32.28l-.09,0Z"/><path class="cls-5" d="M11.31,12.46a13.69,13.69,0,0,0,0-1.82c-.1-.24-.6-.51-.75-.87a3.75,3.75,0,0,1-.22-1.38c.08-.15.35.19.28.57a1.58,1.58,0,0,1,.32.67c.2.16.51.27.57.4s0-.35-.12-.48-.25-.4-.14-.46.3.1.32.15a3.65,3.65,0,0,0,.35.4c.13.1.46.32.45.5s0,2.32,0,2.32Z"/><path d="M11.36,12.46h-.1a13.69,13.69,0,0,0,0-1.81,1.28,1.28,0,0,0-.29-.32,1.73,1.73,0,0,1-.47-.55,3.7,3.7,0,0,1-.22-1.42.11.11,0,0,1,.14-.06.62.62,0,0,1,.24.63,1.14,1.14,0,0,1,.28.57.47.47,0,0,0,0,.07,2.33,2.33,0,0,0,.25.16,1.35,1.35,0,0,1,.24.15,1.35,1.35,0,0,0-.12-.32s-.21-.29-.18-.45A.12.12,0,0,1,11.19,9a.17.17,0,0,1,.14,0,.5.5,0,0,1,.25.19,3.21,3.21,0,0,0,.34.38l0,0c.16.12.44.32.43.51s0,2.32,0,2.32h-.1s0-2,0-2.32c0-.15-.26-.34-.39-.43l0,0a3.64,3.64,0,0,1-.37-.41.4.4,0,0,0-.19-.14.07.07,0,0,0-.06,0,.63.63,0,0,0,.15.39,1.36,1.36,0,0,1,.16.58l0,0h0s-.05,0-.08-.09-.16-.14-.29-.22a1.82,1.82,0,0,1-.27-.16.2.2,0,0,1-.05-.12A1.1,1.1,0,0,0,10.54,9l0,0v0a.55.55,0,0,0-.17-.54,3.47,3.47,0,0,0,.21,1.35,1.6,1.6,0,0,0,.44.52,1.19,1.19,0,0,1,.32.36,13.47,13.47,0,0,1,0,1.85Z"/><path class="cls-5" d="M11.25,13.18v.22c.1.11.49.13.58.13s.46,0,.54-.13,0-.18,0-.23Z"/><path d="M11.84,13.57c-.11,0-.52,0-.63-.14v-.25h.1v.22a1.49,1.49,0,0,0,.53.08c.3,0,.46,0,.5-.12s0-.16,0-.21h.1a2,2,0,0,1,0,.25c-.09.14-.34.16-.56.16Z"/><path class="cls-5" d="M11.23,12.86a.15.15,0,0,0-.06.25,1,1,0,0,0,.62.18c.3,0,.69-.09.71-.26s-.15-.16-.13-.15Z"/><path d="M11.82,13.34h0a1,1,0,0,1-.66-.2.24.24,0,0,1,0-.22.16.16,0,0,1,.13-.11l0,.09a.08.08,0,0,0-.06.05.13.13,0,0,0,0,.12,1,1,0,0,0,.58.16c.31,0,.65-.11.66-.22a.1.1,0,0,0,0-.07s0,0,0,0v0l0-.06.06,0h0a.18.18,0,0,1,.15.2c0,.21-.43.31-.74.31Z"/><path class="cls-5" d="M11.23,12.55c-.11,0-.13.16-.05.26a1,1,0,0,0,.62.2c.3,0,.68-.12.69-.28s-.11-.15-.12-.14Z"/><path d="M11.82,13.06h0a1,1,0,0,1-.66-.22.23.23,0,0,1,0-.22.18.18,0,0,1,.13-.11l0,.1a.07.07,0,0,0-.05,0,.14.14,0,0,0,0,.13.94.94,0,0,0,.59.18c.31,0,.63-.12.64-.23a.11.11,0,0,0,0-.09l-.07-.1a.14.14,0,0,1,.12,0,.17.17,0,0,1,.07.17c0,.21-.43.33-.72.33Z"/><path class="cls-5" d="M11.85,12.72c.39,0,.65-.19.65-.29s-.13-.11-.21-.07a1,1,0,0,1-.45.11c-.26,0-.49-.18-.57-.18a.14.14,0,0,0-.11.18.81.81,0,0,0,.7.25Z"/><path d="M11.81,12.77a.82.82,0,0,1-.71-.29.2.2,0,0,1,0-.17.18.18,0,0,1,.13-.07.75.75,0,0,1,.17.06.91.91,0,0,0,.39.11.94.94,0,0,0,.41-.08l0,0c.12-.05.27,0,.27.12s-.27.34-.68.34Zm-.54-.44a.08.08,0,0,0-.06,0,.1.1,0,0,0,0,.09.78.78,0,0,0,.61.22v.05l0-.05h0c.4,0,.61-.18.61-.25s0,0-.07,0l-.07,0h0a.88.88,0,0,1-.43.09h0a1,1,0,0,1-.45-.12l-.12,0Z"/><path class="cls-5" d="M22.41,8.57c.19,0,.62-.1.64,0a4.12,4.12,0,0,1-.36,1.23,2.07,2.07,0,0,1-.8.38,2.05,2.05,0,0,1,.19-.78,2.93,2.93,0,0,0,.26-.54s.08-.27.07-.27Z"/><path class="cls-5" d="M22.79,8.54c0-.25-.33.05-.3.37a.37.37,0,0,1-.1.28Z"/><path d="M22.42,9.23l-.07-.07a.32.32,0,0,0,.09-.25c0-.25.13-.49.26-.51s.11,0,.14.13l-.1,0s0,0,0,0a.41.41,0,0,0-.18.4.44.44,0,0,1-.12.33Z"/><path class="cls-5" d="M22.55,8.55v0c-.14-.24-.28.11-.3.5Z"/><path d="M22.31,9.07h-.1c0-.21.07-.59.23-.62s.1,0,.16.1l-.08.05h0s0-.06-.06-.05-.14.22-.15.53Z"/><path class="cls-5" d="M23,8.52c0-.2-.31-.25-.29.46a1.07,1.07,0,0,0-.31.56.57.57,0,0,0-.32.26Z"/><path d="M22.16,9.81l-.09,0a.62.62,0,0,1,.32-.28,1.14,1.14,0,0,1,.31-.54c0-.43.1-.55.17-.59a.12.12,0,0,1,.14,0,.18.18,0,0,1,.07.16H23a.09.09,0,0,0,0-.07h0s-.14.1-.12.53V9l0,0a1,1,0,0,0-.29.52v0h0a.55.55,0,0,0-.29.23Z"/><path class="cls-5" d="M22.25,12.46a13.21,13.21,0,0,1,0-1.82c.1-.24.6-.51.75-.87a3.84,3.84,0,0,0,.22-1.38c-.08-.15-.35.19-.28.57a1.59,1.59,0,0,0-.32.67c-.2.16-.51.27-.57.4s0-.35.11-.48.25-.4.14-.46-.3.1-.32.15a4,4,0,0,1-.36.4c-.13.1-.46.32-.46.5s0,2.32,0,2.32Z"/><path d="M22.2,12.46a13.63,13.63,0,0,1,0-1.85,1.18,1.18,0,0,1,.31-.36A1.57,1.57,0,0,0,23,9.74a3.94,3.94,0,0,0,.22-1.34c-.1,0-.24.26-.19.53V9a1.09,1.09,0,0,0-.27.55.21.21,0,0,1-.05.13,1.73,1.73,0,0,1-.27.16c-.12.07-.26.15-.29.22s0,.09-.08.09h0l0,0a1.36,1.36,0,0,1,.16-.58.73.73,0,0,0,.16-.37.07.07,0,0,0-.07,0,.42.42,0,0,0-.19.14,3.44,3.44,0,0,1-.36.41l-.05,0c-.12.09-.39.29-.39.43,0,.3,0,2.32,0,2.32h-.1s0-2,0-2.32.26-.39.43-.51l0,0A3.48,3.48,0,0,0,22,9.21.51.51,0,0,1,22.24,9a.17.17,0,0,1,.14,0,.12.12,0,0,1,.05.08c0,.16-.16.42-.18.45a1.46,1.46,0,0,0-.11.32,1.33,1.33,0,0,1,.25-.15,2.54,2.54,0,0,0,.25-.16V9.51a1.17,1.17,0,0,1,.28-.57.62.62,0,0,1,.24-.63.11.11,0,0,1,.14.06,3.65,3.65,0,0,1-.22,1.42,1.77,1.77,0,0,1-.46.55,1.16,1.16,0,0,0-.29.31,13.68,13.68,0,0,0,0,1.81Z"/><path class="cls-5" d="M22.31,13.18v.22c-.09.11-.49.13-.58.13s-.46,0-.54-.13,0-.18,0-.23Z"/><path d="M21.74,13.57h0c-.25,0-.5,0-.59-.16a1.68,1.68,0,0,1,0-.26h.1s0,.21,0,.23.2.09.47.09.51,0,.57-.11v-.19h.1v.22c-.13.17-.56.18-.62.18Z"/><path class="cls-5" d="M22.33,12.86a.15.15,0,0,1,.06.25,1,1,0,0,1-.62.18c-.3,0-.69-.09-.71-.26s.15-.16.13-.15Z"/><path d="M21.75,13.34c-.3,0-.71-.1-.74-.3a.18.18,0,0,1,.15-.2h0l0,.09,0,0,0,0v0a.06.06,0,0,0-.05,0,.1.1,0,0,0,0,.08c0,.11.35.21.66.21a1,1,0,0,0,.58-.16.13.13,0,0,0,0-.12.08.08,0,0,0-.06-.05l0-.09a.16.16,0,0,1,.13.11.23.23,0,0,1,0,.22,1,1,0,0,1-.66.2Z"/><path class="cls-5" d="M22.33,12.55c.11,0,.13.16.05.26a1,1,0,0,1-.62.2c-.3,0-.67-.12-.69-.28s.11-.15.11-.14Z"/><path d="M21.74,13.06c-.3,0-.7-.12-.72-.33a.18.18,0,0,1,.07-.18.14.14,0,0,1,.12,0l0,.09a.11.11,0,0,0,0,.1c0,.12.34.23.65.23a1,1,0,0,0,.59-.18.14.14,0,0,0,0-.13.06.06,0,0,0-.06,0l0-.1a.17.17,0,0,1,.13.11.23.23,0,0,1,0,.22,1,1,0,0,1-.66.22Z"/><path class="cls-5" d="M21.71,12.72c-.4,0-.65-.19-.65-.29s.13-.11.21-.07a1,1,0,0,0,.46.11c.26,0,.49-.18.57-.18a.14.14,0,0,1,.12.18.81.81,0,0,1-.7.25Z"/><path d="M21.75,12.77h0a1,1,0,0,1-.5-.11c-.12-.07-.2-.15-.2-.23s.15-.17.27-.12l0,0a.93.93,0,0,0,.39.08h0a.92.92,0,0,0,.41-.11.34.34,0,0,1,.16-.06.18.18,0,0,1,.14.07.19.19,0,0,1,0,.17.81.81,0,0,1-.71.29Zm-.57-.39c-.07,0-.07,0-.07,0s0,.08.15.14a1,1,0,0,0,.44.1h.06a.77.77,0,0,0,.62-.22.1.1,0,0,0,0-.08.08.08,0,0,0-.06,0l-.12,0a1,1,0,0,1-.44.13.9.9,0,0,1-.45-.09h0l-.07,0Z"/></g></g></g></g></g></g></svg>