<?xml version="1.0" encoding="utf-8"?>
<!-- Generator: Adobe Illustrator 21.0.0, SVG Export Plug-In . SVG Version: 6.00 Build 0)  -->
<svg version="1.1" id="Layer_1" xmlns="http://www.w3.org/2000/svg" xmlns:xlink="http://www.w3.org/1999/xlink" x="0px" y="0px"
	 viewBox="0 0 200 200" style="enable-background:new 0 0 200 200;" xml:space="preserve">
<style type="text/css">
	.st0{fill:#FAB41D;}
	.st1{fill:#FFFFFF;}
</style>
<title>BTI</title>
<rect class="st0" width="200" height="200"/>
<g id="layer1">
	<path id="path2121" class="st1" d="M100,73.6l-2.8,66.1l-12.5-32.5l6.5,32.8l-20.4-27.3l14.4,28.1l-50.5-35.7l44.4,37l-28.3-10.6
		l22.8,13.2c-21.2,0-46.6-16.7-54.4-51.6c0,0,45.4,0.5,60.4,20.7c-2.7-28.3,16.8-55,20.5-58.7c3.7,3.7,23.2,30.4,20.4,58.8
		c15.1-20.1,60.4-20.7,60.4-20.7c-7.8,34.7-33.2,51.6-54.4,51.6l22.9-13.2L121,142.2l44.4-37L115,140.8l14.4-28.1l-20.4,27.3
		l6.6-32.8L103,139.7L100,73.6"/>
</g>
</svg>
