<?xml version="1.0" encoding="utf-8"?>
<!-- Generator: Adobe Illustrator 21.0.0, SVG Export Plug-In . SVG Version: 6.00 Build 0)  -->
<svg version="1.1" id="Layer_1" xmlns="http://www.w3.org/2000/svg" xmlns:xlink="http://www.w3.org/1999/xlink" x="0px" y="0px"
	 viewBox="0 0 200 200" style="enable-background:new 0 0 200 200;" xml:space="preserve">
<style type="text/css">
	.st0{fill:#FFFFFF;stroke:#FFFFFF;stroke-width:0.66;stroke-miterlimit:2.61;}
	.st1{fill:#FFFFFF;}
</style>
<title>BUD</title>
<path d="M31.2,51.2c7.3,5.3,14.8,8.5,20.3,16.1c0.9,1.4,0,1.3-0.3,1C44.3,62,37.5,56,29,52.2c-2.9-1-5.8-1.8-8.8-2.3
	c-3.4-0.5-6.9-0.5-10.3,0c-3.8,0.5-7.8,2-9.5,5.8c-0.5,1-0.5,2.3,0.8,2C15.4,53.2,30.7,56,42,66c9.2,8.5,16.3,17.8,24.6,27.1
	c0.3,0.3,0.1,0.7-0.3,0.5c-2.8-1.3-4.8-3.5-7.3-4.5c-1.6-0.8-3.5-1.2-5.3-1c-1.3,0.3-2.5,1.3-3.5,0.8c-3.3-1.5-7.3-2.8-10.3,0
	c-1.8,2-1.7,5.1,0.3,6.9c0.1,0.1,0.1,0.1,0.2,0.2c1,1.2,0.6,0.2,0.8,0c0.5-1.2,1.3-1.5,1.8-1.3c1.6,1.5,3,3.2,4.2,5
	c-1.3,0.5-1.5,0.3-3.8,0.1c-0.2,0.8,0.3,1.7,0.8,2.7c2,2.6,4.8,4,7.5,5.3c1.8,1,4,1.3,5.8,2.3c1,0.5,2.5,1.5,2.3,2.5
	c-3,9.2-6.7,18.2-11,26.8c-0.3,0.3-0.4,1.2-1,0.5c-4.5-4.8-12.1-5.5-16.6-1c-3.5,3.5-4.5,9.9-1.8,14.2c-2.3,2.6-6.1,7.3-6.1,7.3
	h25.1c0,0,1.5-3.8,5-3.9s5.1,3.8,5.1,3.8h16.2c1.5,1.5,2.7,3.2,3.5,5.2c6.8,4.2,14.9,9.9,19.6,16.6c9.7-3.2,21.2-14.8,28.7-21.9
	h10.1c0.5-2.5,2.6-3.6,4.8-3.8c2.4-0.1,4.6,1.5,5.3,3.9h25.1c0,0-4.3-4.8-6.6-7.2c3.4-4.7,2.4-11.2-2.3-14.6
	c-0.5-0.3-0.9-0.6-1.4-0.9c-2.5-1.3-5-1.3-7.8-1c-2.3,0.5-4.4,1.7-6,3.5c-0.5,0.3-0.8-0.3-1-0.5c-3-7-5.8-14.1-8.5-21.1
	c0,0,0.4-0.7,0.8-0.1c2.8,4.2,4.1,8.2,6,13.6c3.6,0.2,4.8,0.3,10.9,0.2c0.3,0,0.2-0.4-0.1-0.9c-5-9.2-13.7-19-15.4-22.3
	c0.9-0.3,5.2-0.3,4.9-0.7c-0.3-1.9-7.3-9.4-9.8-11.9c-0.3-0.3,0-0.5,0.3-0.5c0.8,0.1,1.5,0.4,2,1c4.2,4.5,8.3,11.6,15.3,10.3
	c0.8,0,0.7-1.4,0.3-2c-3-5-7.3-8.5-11.8-12.1c-0.1-0.6,1.3,0,1.9,0.2c4.2,2.8,7.1,6.1,10.2,10.1c1.4,1.9,5.8,4,7.5,4.2
	c1,0.3,3,0.5,2.8-0.3c-1.8-6.3-7.5-10-11.3-15.6c-0.2-0.5,0.5-0.5,1.3,0.3c5.9,6.1,10.8,12.3,16.9,18.1c1.3,1.1,2.7,1.9,4.2,2.5
	c2.1,0.8,6.9,1.3,5.3-1.4c-5.3-6.9-11.1-13.3-17.4-19.3c0-0.3,0.2-0.9,2.9,1.1c4.8,3.5,8.3,7.5,12,12.1c4.5,5.5,7.5,11.8,13.1,16.3
	c2.4,2,6.5,1.6,9,1.3c0.5,0,0.3-0.8,0-1.3c-3.5-6.3-8-11.3-12.5-16.9c-6.4-7.4-13.2-14.5-20.4-21.2c-5-4.7-10.3-9-15.8-13.1
	c-2.6-1.7-5.4-3.1-8.3-4.2c-3.3-1.3-6.3-2.3-9.8-1.8c-5.1,0.7-9.9,2.7-14.1,5.8l-4.2-11.2c0,0,7-0.9,7.7-7.3c0.1-4-0.8-5.1-2.3-6.6
	c-0.5-1,0.9-1.8,0.8-2.8c0-0.3-0.1-0.5-0.2-0.8h-15.1l-2.4-8l7.9-6.1h-9.9l-3.2-9.5l-3.3,9.5h-9.9l7.9,6.1l-2.4,8H75.1
	c-0.3,0.5-0.3,1.1,0.1,1.5c0.5,0.5,1,1.5,0.5,2c-1.6,1.6-2,4.3-1.8,6.6c0.4,4.7,6.8,7.1,7.9,7.3c-1.3,3.1-2.4,6.3-3.8,9.4
	c-3.5-1.8-6.4-5.2-10.2-6.4c-0.3,0-0.8-0.3-1,0.3c-0.3,0.8,0,1.3,0.8,2c2.8,2.8,5.1,6,7,9.5c0.1,0.3,0.3,1-0.3,1
	c-0.4,0-0.8-0.2-1-0.5C69,68,65.4,62.4,59.1,58c-2.3-1.5-4.5-3-7.3-2.3c-1,0.4,0,1,0,1c4.2,4,8.8,7.8,11,13.3c0.1,0.4,0.3,1-0.3,1.3
	c-0.4,0-0.8-0.2-1-0.5c-5.1-8.7-12.8-15.5-22.1-19.3c-2.6-1.1-5.5-1.4-8.3-1C30.4,50.6,31.2,51.2,31.2,51.2z"/>
<path class="st0" d="M119.1,46.2c-3.2-3.2-8-2-12.3-2.3c-1.9,3-5,5.3-8.5,5.1c-3.5,0.2-6.6-2.1-8.5-5.1c-4.2,0.3-8.9-1-12.3,2.3
	c-2.1,2.7-1.6,6.7,1.2,8.8c0.1,0.1,0.2,0.2,0.4,0.3c0.7,0.5,4.5,1.8,7,0.8c-4.5,13.1-9.7,25.5-15.1,38.2c-0.5,1.2,2.4,0.5,2.8-0.3
	c5.7-13,10.7-25.4,15.5-38.5c0.5-1.4,0.3-2.7-0.9-3.4c-1-0.3-2,0-2.7,0.8c-1.6,1.5-4,1.5-5.6,0c-1.1-0.9-1.5-2.4-1-3.8
	c1.5-3.5,7.7-2.8,9.4-2.3c3.9,5.5,11.6,6.8,17.1,2.9c1.1-0.8,2.1-1.8,2.9-2.9c1.7-0.5,7.8-1.3,9.4,2.3c0.5,1.3,0.1,2.8-1,3.8
	c-1.6,1.5-4,1.5-5.6,0c-0.7-0.8-1.7-1.1-2.7-0.8c-1.3,0.8-1.4,2-0.9,3.4c2.4,6.7,5.3,14.2,7.9,20.7c0,0,2.2-1.5,1.8-2.6
	c-2.3-6-4.4-11.4-6.6-17.6c2.4,0.5,4.8,0.2,7-0.8c2.9-2,3.6-5.9,1.7-8.8C119.2,46.4,119.2,46.3,119.1,46.2z"/>
<path class="st0" d="M74.9,100.2c-1.5,0.4-3.5,1.5-4.2,0c-0.3-0.5,1.2-1.4,0.2-1.6c-5-1.5-9.8-4.9-14-7.1c-1-0.5-4-0.5-2.8,0.8
	c2,2.7,4.7,4.1,7.7,5.7c0.5,0.3,0.8,0.8,0.5,1c-0.8,0.3-1.8-0.5-2.5-0.8c-1.5,0-2.8,1-4.2,1c-1.1,0.1-2.3-0.4-3-1.3
	c-0.5-1,0.3-2.5-0.3-3.5c-1.3-2.3-3.7-3.6-6-4.5c-1.2-0.6-2.6-0.5-3.8,0.1c-0.8,0.5-1.4,2.8-0.2,2.1c1.1-0.5,2.3-0.3,3.2,0.5
	c2.3,2.8,5,5,7,8c0.8,1.3-3.2,1.4-4.1,1.8c0.9,1.5,6.5,3.6,9.9,4c5.8,5.3,11.8,11,19.6,12.8c0.5,0-0.3-1.5-0.5-2.5c0-0.3,0-1,0.3-1
	c9,5,18.8,6.8,29.1,6.3c0.7,0,2.3,1,2.5,0.3c0.8-2,0-5-2-5.3c-1.3-0.3-1.1,2.2-1.8,2.8c-3.3,2.4-16.5-0.3-19.8-4.5
	c3.5,0.9,8.3,2.8,12.3,0.8c-5.8-3.8-6.1-5.5-5.9-5.4c5.4,0.4,5.7,0.5,9.4-1.1c-4.4-2.1-4.5-2.5-6.3-4.2c-3.7,1.1-7.8,2.8-12.1,2.3
	c-0.3,0-0.5-0.3-0.3-0.5c2-1.5,3.8-2.5,5-4.5c0,0,0.3-0.7-0.5-0.5c-2.1,0.3-4.2,0.3-6.3,0c-0.3,0-0.5-0.3-0.3-0.5
	c5.1-3.7,5.3-5,5.3-5L98,68.8l7.7,18.6c0,0-6,9.4-9.5,11.5c-0.7,0.4-0.5,2.8-0.3,2.8c3-0.8,13.1-14.3,13.1-14.3L98,61.5L83.7,95.2
	C83.7,95.2,82.3,98,74.9,100.2L74.9,100.2z"/>
<path class="st0" d="M101.8,87.1l-4-10.3l-2.5,6.5C95.2,83.3,98.3,87.8,101.8,87.1z M72.1,124.9l-8.6,20.5c0.7,0.4,1.4,1,1.9,1.6
	c0.3,0.3,8.2-19.3,8.2-19.3h48.9c0,0,4.7,11.1,6.2,17.2c1.3,4.5-3,8-6.1,10.9c-9.9,9.4-23.8,17.7-23.9,18c-0.1,0.3,0.1,5.8,0,5.8
	c10-4.2,20.9-15,27.9-22c0.1-0.1,6.7,0,6.7,0s3.2-4.7,8.1-4.6c6.1,0.1,8,4.6,8,4.6h15.1l-3.6-4.6c0,0,4.4-4,2.5-8.4
	c-0.6-1.9-1.9-3.5-3.6-4.5c-2.1-0.8-4.3-0.9-6.5-0.3c-1.9,0.8-2.4,1.6-4.5,4.5c-1.4,2-4.2-0.4-5.5-3.3c-3.2-7.2-5.6-14-8.8-21.6
	c-0.1-0.3-1.8,1.1-1.5,1.8c3.3,8.4,5.4,13.8,9.8,23.8c1.3,3,6,4,8.8,1.8c-0.3-2.3,1.8-4.1,3.8-4.6c2.5-0.3,4.8,1.2,5.5,3.6
	c0.8,3.3-2,5.3-4.8,6.3c1,1.3,2.5,3.2,2.5,3.2h-7.5c-2.2-3.3-5.8-5.3-9.7-5.4c-3.8,0.1-7.3,2.1-9.4,5.3h-4.8c0,0,2.8-3.6,3.8-5.1
	c1.6-2.3-0.1-7.7-0.8-9.4c-1.8-5-3.8-10-5.8-15.1c-1.4-0.1-2.7-0.4-3.9-1c-1.1-0.4-2.5,1.9-3.6,1.7c-2.2-0.3-2.2-1.8-3.9-1.8
	c-1.3,0-1.6,2.1-3.1,1.9c-1.5-0.4-2.9-1-4.2-1.8L72.1,124.9z M52.9,144.5L52.9,144.5z"/>
<path class="st0" d="M70.2,155.2h-6.5c0,0-3.8-5.2-10.1-5.3c-4,0-7.8,2-10,5.4h-7c0,0,1.5-1.9,2.5-3.2c-2.8-1-5.5-3-4.8-6.3
	c0.8-2.3,3.1-3.7,5.5-3.3c2.2,0.1,3.9,2.1,3.8,4.3c0,0,6.7,1.9,9.3-2.4l12.2-28c0,0-2.2-1.2-2.9-1.7c-0.1,0-6.9,17.7-10.5,26
	c-1.1,2.4-2.6,4.1-5,3.3c-0.5-0.2-0.8-0.5-1.4-1.8c-0.9-2-2.8-3.3-5-3.5c-4-0.6-7.8,1.7-9.1,5.5c-1.6,5.3,3.2,8.8,3.2,8.8l-3.8,4.5
	h15c0,0,3-4.7,8-4.6c3.2,0.1,6.2,1.8,7.9,4.6c4-0.1,10.7,0.3,10.9,0C71.7,156.7,71,155.9,70.2,155.2z M108.6,147.8
	c1.8-0.3,5.5-1,4.2-3.3c-2.3-4.2-2.8-8.8-4.5-13.1c-0.3-0.5-0.9-0.8-1.5-0.8c-0.4,0.1-0.7,0.4-0.8,0.8c0,1.5,1,3,0.8,4.8
	c0,0.5-0.3,0.5-0.8,0.5c-1.3,0.1-2.8-0.3-3.3,1c-0.3,0.8,0.5,1.5,0,2c-0.5,0.3-1.3,0.5-1.8,0.8c-0.8,0.5-0.5,2,0.3,2
	c1.5,0.5,3.3-0.3,4.8,0c0.8,0.3,1,1.8,0.5,2c-0.5,0.8-1.8,0.8-2.5,1.5C105.3,147.1,107,148.1,108.6,147.8L108.6,147.8z M75.5,130.8
	l-4.6,11l16.9-11H75.5z M121.6,137.8c-0.7,0.2-1.5,0-1.8,0.8c0,1,0.5,2,0.3,3c0,0.8-1.5,0.8-2,1.5c0,0.3-0.3,0.8,0.3,1
	c1.5,0.3,5.3-0.5,4,1.5c-0.3,0.5-2.5,0.8-2.5,1.5c0.3,1.5,3.3,0.8,5,0.5c0.8,0,1-1,1-1.5c-0.2-2.9-1.2-5.7-3-8
	C122.4,137.9,122,137.8,121.6,137.8L121.6,137.8z M121.6,150.1h-2.3c-0.3,0-0.5,0.3-0.3,0.5c1.3,0.5,2.5,1.5,3.8,0.8
	c0.3-0.3,0.4-0.6,0.5-1C122.9,149.6,122.3,150.1,121.6,150.1z M82.2,161.1c-0.8,1.2-1.5,2.4-2.2,3.7c12.8,7.1,17.5,14.4,17.5,14.4
	v-5.6C93.1,168.7,87.9,164.4,82.2,161.1z"/>
<path class="st0" d="M69,145c-0.8,1-1.5,2.1-2,3.4c5.1,3.8,12.1,15.7,12.1,15.7l2.1-4.3C81.2,159.8,75,148.2,69,145z"/>
<path d="M74.2,107.4c-1-0.2-1.9-0.7-2.5-1.5c-0.3-0.3-0.6-0.8,0.3-0.8c1,0,1.8-0.8,2.5-1c1.3-0.3,2.8,0,3.3,1
	C78.7,106.7,75.7,107.7,74.2,107.4z M69.1,112c-1.8,0-3.5-2.7-3-3.3c1.5,0,2.5,1.3,3.8,2c0,0,0.8,0.5,0.5,1
	C70,111.9,69.6,112,69.1,112L69.1,112z M88.5,112.7c-1.8-0.3-2.1-0.2-2.8-1c-0.3-0.4,1.3-0.8,2.3-1.1s1.7-0.2,2.2,0.5
	C90.7,112.5,89.7,112.9,88.5,112.7L88.5,112.7z"/>
<path class="st0" d="M135.1,85.6c2.9,1.8,7.1,2.7,6.8,1.3c-4-2.5-6.5-6.8-10.5-8.8c-2.8-1.5-6.3-1.8-8.8,0.3
	c-0.4,0.7,2.9,0.4,4.7,1.3C130.5,81.2,132.2,83.7,135.1,85.6L135.1,85.6z M140.7,81.8c2,1.8,3.8,4.2,6.5,4.2c0.3,0,0.7-0.3,0.3-0.8
	c-3.2-3.5-5.5-7.5-9.3-10.3c-3.5-2.6-8.5-3-9.8-1.8c-0.8,0.8,0,0.8,0.3,0.8C133.6,74.3,137.2,78.6,140.7,81.8z M152.7,83.9
	c-1.4-2.7-3-5.3-4.8-7.8c-2.5-3-5.8-5.3-9.8-5.3c-0.3,0-0.5,0.3-0.3,0.5c2.4,1.1,4.5,2.7,6.3,4.5c2.8,2.8,4.5,6,8,8.3
	C152.3,84.1,153.1,84.5,152.7,83.9L152.7,83.9z M126.4,87.1c2.4,1.9,5,3.3,8,3c0.3,0,0.5-0.3,0.3-0.5c-4.8-3.3-9.5-10-15.6-6
	c-0.8,0.6,2.6,0.5,3.6,1.1C124.1,85.3,125.3,86.1,126.4,87.1L126.4,87.1z M121.9,92.1c2,1.1,4.3,1.7,6.5,1.5c0.3,0,0.5-0.3,0.3-0.5
	c-4-2.5-9.5-7.8-13.8-3.5c-0.3,0.5,0.3,0.5,0.5,0.5C117.2,90.1,120.4,91.4,121.9,92.1z M118.6,94.6c-0.8-0.4-1.6-0.7-2.5-0.8
	c-1.2-0.2-2.5-0.4-3.3,0.8c0,0.2-0.4,0.6,3.2,1.4c1.5,0.2,8.2,3.2,7.9,1.6C122.3,96.2,121.9,96.8,118.6,94.6z M114.3,102
	c3,2.2,5.1,1.9,6.6,0.2c-0.4-0.8-1.4,0.1-7.5-3c-1-0.5-2.1-0.8-3.3-0.8c-0.5,0-0.8,0.5-1,0.8C108.8,99.7,111,99.6,114.3,102
	L114.3,102z M111.8,103.9c-1.2-0.9-3.3-2.3-4.5-1c-0.3,0.4,1.2,1.1,1.9,1.3c2,1,2.1,1.4,3.9,2.4c0.9,0.5,1.5,0.3,1.2-0.4
	C114,105.3,112.8,104.7,111.8,103.9L111.8,103.9z M105.6,107.2c1.1,0.4,3.9,1.5,3.2,0.5c-1.8-1.5-4.7-3.7-6.3-1.5
	C102.1,106.7,104.6,106.9,105.6,107.2L105.6,107.2z M112.4,115.7c-0.4-0.2-0.5,0.6-0.7,1.1c-0.3,2,0.8,3.6,2.9,4.9
	c0.2,0.1,0.8,0.3,0.8-0.3C115.6,120.5,114.5,116.7,112.4,115.7L112.4,115.7z M117.3,118c0.5,1.5,1.7,2.6,3.3,3
	c0.3,0,0.5-0.2,0.5-0.5c-0.3-2.5-1-6-3.8-6C116.3,114.5,116.8,116.7,117.3,118z M124.9,112.5c-0.9-1.3-3.5-3.9-3.8-2.3
	c-0.6,3.2,1.7,5.6,4,7.5c0.3,0.3,0.7,0.4,1,0.1c0.1-0.1,0.2-0.2,0.2-0.3C126.5,115.7,126,113.9,124.9,112.5z M128.8,109.7
	c0.9,1.8,1.4,3.8,1.6,5.8c1.1,0.9,1.2-4.9,0.5-7.2c-0.7-1.8-3.3-3.8-5.5-3C124.9,106,127.9,108,128.8,109.7L128.8,109.7z
	 M132.9,105.4c0.6,2.2,0.8,6.3,1.5,6.3c1.3-0.6,2.1-5.5,1.6-7.3c-0.6-1.5-1.6-2.8-2.9-3.8c-0.8-0.5-2.9-1.3-3-0.8
	C129.9,100.9,132.1,102.5,132.9,105.4L132.9,105.4z"/>
<path class="st1" d="M97.9,24.7l1.5,4.5h4.7l-3.8,2.9l1.4,4.5l-3.9-2.7L94,36.6l1.4-4.5l-3.8-2.9h4.7L97.9,24.7z M92,41.4l5.9-4.1
	l6,4.2c0,0-1.1,5.1-5.7,5.1C98.2,46.6,93.8,47.3,92,41.4L92,41.4z"/>
<path class="st0" d="M88.1,150.6c-0.4,0.9-1.3,2.3-0.2,2.8c1.7,0.7,2.7-1.7,4.4-2c0.2,0,0.2,0.5,0.2,0.7c-1,1.3-1.4,3-1,4.6
	c0.2,0.2,1.2,0.5,1.5,0.2c2-2.4,3.7-4.9,6.3-6.6c1-1,2.7-0.7,4.2,0c-1,0.7-2.7,1.5-2.2,2.9c0.5,1,1.7,0.5,2.4,0c0.2,0,0.7,0,0.7,0.2
	c-1.2,2-3.9,4.4-1.7,6.3c1.7-0.7,2.9-2.2,4.4-3.2c0.2,0,0.7,0,0.7,0.2c-0.2,1.7-1.5,3.4,0,4.9c0.5,0.2,1.5,0.2,1.5,0
	c1.4-2.5,2.6-5.1,3.7-7.8c0.3-0.6,0.8-1.1,1.5-1.4c1.7-0.5,4.1,1.2,5.9,1.4c0.8,0.1,0.2,0.5,0.2,0.7c-6.1,6.3-12.3,11-22.7,17.2
	c-5.6-6.1-8.2-7.8-15.3-12.4c-0.2-0.1-5-10.5-12.2-15c6.3-4.6,12.8-8.9,19.6-12.7c0.5,0,1.2-0.2,1.5,0.2c0.7,2,2.2,4.2,2.7,6.4
	c0,0.5,0.2,1.5,0.7,1.7c0.6,0,1.2,0.4,1.5,1c0.5,1.5-1,2.2-2.2,2.4c-1.6,0.5-3.1,1.3-4.5,0.6l-2.1-2l-5.6-2.2l1,2.6l-2.4,1.7
	l4.6,1.7l2.3-0.2l2.5,1.2l-4.6,0.1l-2-0.7l-3.7,0.5l1.4,1.6l-1.2,2.1l4.2-0.5l1.2-1.2l2.1-0.1C87.5,148.8,89.2,148.3,88.1,150.6
	L88.1,150.6z"/>
</svg>
