<?xml version="1.0" encoding="UTF-8"?>
<svg width="100px" height="51px" viewBox="0 0 100 51" version="1.1" xmlns="http://www.w3.org/2000/svg" xmlns:xlink="http://www.w3.org/1999/xlink">
    <!-- Generator: Sketch 49 (51002) - http://www.bohemiancoding.com/sketch -->
    <title>BYR</title>
    <desc>Created with Sketch.</desc>
    <defs></defs>
    <g id="Page-1" stroke="none" stroke-width="1" fill="none" fill-rule="evenodd">
        <g id="BYR">
            <rect id="Rectangle-path" fill="#C8313E" fill-rule="nonzero" x="0.0111098767" y="0.0111098767" width="99.9888901" height="49.9944451"></rect>
            <rect id="Rectangle-path" fill="#4AA657" fill-rule="nonzero" x="0.0111098767" y="33.3407399" width="99.9888901" height="16.664815"></rect>
            <rect id="Rectangle-path" fill="#FFFFFF" fill-rule="nonzero" x="0.0111098767" y="0.0111098767" width="11.1098767" height="49.9944451"></rect>
            <g id="a" fill="#C8313E">
                <path d="M1.94311743,0.0111098767 L3.39184535,0.0111098767 L3.39184535,0.830685479 L3.87490279,0.830685479 L3.87490279,1.65026108 L4.35796023,1.65026108 L4.35796023,2.46983668 L4.84101766,2.46983668 L4.84101766,3.28941229 L5.3240751,3.28941229 L5.3240751,4.10898789 L4.84101766,4.10898789 L4.84101766,4.92856349 L4.35796023,4.92856349 L4.35796023,5.7481391 L3.87490279,5.7481391 L3.87490279,6.5677147 L3.39184535,6.5677147 L3.39184535,7.3872903 L2.90878791,7.3872903 L2.90878791,8.2068659 L2.42573047,8.2068659 L2.42573047,7.3872903 L1.94267304,7.3872903 L1.94267304,6.5677147 L1.4596156,6.5677147 L1.4596156,5.7481391 L0.97655816,5.7481391 L0.97655816,4.92856349 L0.493500722,4.92856349 L0.493500722,4.10898789 L0.0104432841,4.10898789 L0.0104432841,3.28941229 L0.493500722,3.28941229 L0.493500722,2.46983668 L0.97655816,2.46983668 L0.97655816,1.65026108 L1.4596156,1.65026108 L1.4596156,0.830685479 L1.94267304,0.830685479 L1.94311743,0.0111098767 Z M2.42617487,1.64981669 L2.90923231,1.64981669 L2.90923231,2.46939229 L3.39228975,2.46939229 L3.39228975,3.28896789 L3.87534718,3.28896789 L3.87534718,4.1085435 L3.39228975,4.1085435 L3.39228975,4.9281191 L2.90923231,4.9281191 L2.90923231,5.7476947 L2.42617487,5.7476947 L2.42617487,4.9281191 L1.94311743,4.9281191 L1.94311743,4.1085435 L1.46005999,4.1085435 L1.46005999,3.28896789 L1.94311743,3.28896789 L1.94311743,2.46939229 L2.42617487,2.46939229 L2.42617487,1.64981669 Z M2.42617487,3.2885235 L2.90923231,3.2885235 L2.90923231,4.1080991 L2.42617487,4.1080991 L2.42617487,3.2885235 Z M0.0108876791,0.829907788 L0.493945117,0.829907788 L0.493945117,1.64948339 L0.0108876791,1.64948339 L0.0108876791,0.829907788 Z M0.0108876791,5.74713921 L0.493945117,5.74713921 L0.493945117,6.56671481 L0.0108876791,6.56671481 L0.0108876791,5.74713921 Z M5.32363071,0.00999888901 L5.61348739,0.00999888901 L5.61348739,1.6487057 L5.32363071,1.6487057 L5.32363071,0.00999888901 Z M5.32363071,5.74713921 L5.61348739,5.74713921 L5.61348739,7.38584602 L5.32363071,7.38584602 L5.32363071,5.74713921 Z M0.976335963,7.38584602 L1.4593934,7.38584602 L1.4593934,8.20542162 L1.94245084,8.20542162 L1.94245084,9.02499722 L2.42550828,9.02499722 L2.42550828,9.84457283 L1.94245084,9.84457283 L1.94245084,10.6641484 L1.4593934,10.6641484 L1.4593934,11.483724 L0.976335963,11.483724 L0.976335963,10.6641484 L0.493278525,10.6641484 L0.493278525,9.84457283 L0.0102210865,9.84457283 L0.0102210865,9.02499722 L0.493278525,9.02499722 L0.493278525,8.20542162 L0.976335963,8.20542162 L0.976335963,7.38584602 Z M0.976335963,9.02455283 L1.4593934,9.02455283 L1.4593934,9.84412843 L0.976335963,9.84412843 L0.976335963,9.02455283 Z M3.87490279,7.38584602 L4.35796023,7.38584602 L4.35796023,8.20542162 L4.84101766,8.20542162 L4.84101766,9.02499722 L5.3240751,9.02499722 L5.3240751,9.84457283 L4.84101766,9.84457283 L4.84101766,10.6641484 L4.35796023,10.6641484 L4.35796023,11.483724 L3.87490279,11.483724 L3.87490279,10.6641484 L3.39184535,10.6641484 L3.39184535,9.84457283 L2.90878791,9.84457283 L2.90878791,9.02499722 L3.39184535,9.02499722 L3.39184535,8.20542162 L3.87490279,8.20542162 L3.87490279,7.38584602 Z M3.87490279,9.02455283 L4.35796023,9.02455283 L4.35796023,9.84412843 L3.87490279,9.84412843 L3.87490279,9.02455283 Z M0.0108876791,12.3030774 L0.493945117,12.3030774 L0.493945117,13.122653 L0.0108876791,13.122653 L0.0108876791,12.3030774 Z M5.32363071,11.4835018 L5.61348739,11.4835018 L5.61348739,13.1222086 L5.32363071,13.1222086 L5.32363071,11.4835018 Z M0.0108876791,14.7620264 L0.493945117,14.7620264 L0.493945117,13.9424508 L0.977002555,13.9424508 L0.977002555,13.1228752 L1.46005999,13.1228752 L1.46005999,12.3032996 L1.94311743,12.3032996 L1.94311743,11.483724 L2.42617487,11.483724 L2.42617487,10.6641484 L2.90923231,10.6641484 L2.90923231,11.483724 L3.39228975,11.483724 L3.39228975,12.3032996 L3.87534718,12.3032996 L3.87534718,13.1228752 L4.35840462,13.1228752 L4.35840462,13.9424508 L4.84146206,13.9424508 L4.84146206,14.7620264 L5.3245195,14.7620264 L5.3245195,15.581602 L5.61437618,15.581602 L5.61437618,18.8601267 L5.3245195,18.8601267 L5.3245195,19.6797023 L4.84146206,19.6797023 L4.84146206,20.4992779 L4.35840462,20.4992779 L4.35840462,21.3188535 L3.87534718,21.3188535 L3.87534718,22.1384291 L3.39228975,22.1384291 L3.39228975,22.9580047 L2.90923231,22.9580047 L2.90923231,25.088879 L1.94322853,25.088879 L1.94322853,24.5971559 L1.46017109,24.5971559 L1.46017109,23.7775803 L0.977113654,23.7775803 L0.977113654,22.9580047 L0.494056216,22.9580047 L0.494056216,22.1384291 L0.0109987779,22.1384291 L0.0109987779,19.6798134 L0.494056216,19.6798134 L0.494056216,20.499389 L0.977113654,20.499389 L0.977113654,21.3189646 L1.46017109,21.3189646 L1.46017109,22.1385402 L1.94322853,22.1385402 L1.94322853,21.3189646 L2.42628597,21.3189646 L2.42628597,20.499389 L2.90934341,20.499389 L2.90934341,19.6798134 L3.39240084,19.6798134 L3.39240084,18.8602378 L3.87545828,18.8602378 L3.87545828,18.0406621 L4.35851572,18.0406621 L4.35851572,17.2210865 L3.87545828,17.2210865 L3.87545828,16.4015109 L3.39240084,16.4015109 L3.39240084,15.5819353 L1.94367293,15.5819353 L1.94367293,16.4015109 L2.9096767,16.4015109 L2.9096767,17.2210865 L2.42661926,17.2210865 L2.42661926,18.0406621 L1.94356183,18.0406621 L1.94356183,18.8602378 L1.46050439,18.8602378 L1.46050439,18.0406621 L0.97744695,18.0406621 L0.97744695,17.2210865 L0.494389512,17.2210865 L0.494389512,16.4015109 L0.0113320742,16.4015109 L0.0108876791,14.7620264 Z M0.0108876791,18.040551 L0.493945117,18.040551 L0.493945117,18.8601267 L0.0108876791,18.8601267 L0.0108876791,18.040551 Z M5.32363071,20.4991668 L5.61348739,20.4991668 L5.61348739,21.3187424 L5.32363071,21.3187424 L5.32363071,20.4991668 Z M4.35762693,22.1378736 L4.84068437,22.1378736 L4.84068437,22.9574492 L5.32374181,22.9574492 L5.32374181,23.7770248 L5.61359849,23.7770248 L5.61359849,25.0879902 L5.32374181,25.0879902 L5.32374181,24.5962671 L4.84068437,24.5962671 L4.84068437,23.7766915 L4.35762693,23.7766915 L4.35762693,22.1378736 Z M3.39162315,24.5964893 L3.87468059,24.5964893 L3.87468059,25.0882124 L3.39162315,25.0882124 L3.39162315,24.5964893 Z" id="b"></path>
                <g id="b-link" transform="translate(8.321298, 12.548606) scale(-1, 1) translate(-8.321298, -12.548606) translate(5.510499, 0.000000)">
                    <path d="M1.94311743,0.0111098767 L3.39184535,0.0111098767 L3.39184535,0.830685479 L3.87490279,0.830685479 L3.87490279,1.65026108 L4.35796023,1.65026108 L4.35796023,2.46983668 L4.84101766,2.46983668 L4.84101766,3.28941229 L5.3240751,3.28941229 L5.3240751,4.10898789 L4.84101766,4.10898789 L4.84101766,4.92856349 L4.35796023,4.92856349 L4.35796023,5.7481391 L3.87490279,5.7481391 L3.87490279,6.5677147 L3.39184535,6.5677147 L3.39184535,7.3872903 L2.90878791,7.3872903 L2.90878791,8.2068659 L2.42573047,8.2068659 L2.42573047,7.3872903 L1.94267304,7.3872903 L1.94267304,6.5677147 L1.4596156,6.5677147 L1.4596156,5.7481391 L0.97655816,5.7481391 L0.97655816,4.92856349 L0.493500722,4.92856349 L0.493500722,4.10898789 L0.0104432841,4.10898789 L0.0104432841,3.28941229 L0.493500722,3.28941229 L0.493500722,2.46983668 L0.97655816,2.46983668 L0.97655816,1.65026108 L1.4596156,1.65026108 L1.4596156,0.830685479 L1.94267304,0.830685479 L1.94311743,0.0111098767 Z M2.42617487,1.64981669 L2.90923231,1.64981669 L2.90923231,2.46939229 L3.39228975,2.46939229 L3.39228975,3.28896789 L3.87534718,3.28896789 L3.87534718,4.1085435 L3.39228975,4.1085435 L3.39228975,4.9281191 L2.90923231,4.9281191 L2.90923231,5.7476947 L2.42617487,5.7476947 L2.42617487,4.9281191 L1.94311743,4.9281191 L1.94311743,4.1085435 L1.46005999,4.1085435 L1.46005999,3.28896789 L1.94311743,3.28896789 L1.94311743,2.46939229 L2.42617487,2.46939229 L2.42617487,1.64981669 Z M2.42617487,3.2885235 L2.90923231,3.2885235 L2.90923231,4.1080991 L2.42617487,4.1080991 L2.42617487,3.2885235 Z M0.0108876791,0.829907788 L0.493945117,0.829907788 L0.493945117,1.64948339 L0.0108876791,1.64948339 L0.0108876791,0.829907788 Z M0.0108876791,5.74713921 L0.493945117,5.74713921 L0.493945117,6.56671481 L0.0108876791,6.56671481 L0.0108876791,5.74713921 Z M5.32363071,0.00999888901 L5.61348739,0.00999888901 L5.61348739,1.6487057 L5.32363071,1.6487057 L5.32363071,0.00999888901 Z M5.32363071,5.74713921 L5.61348739,5.74713921 L5.61348739,7.38584602 L5.32363071,7.38584602 L5.32363071,5.74713921 Z M0.976335963,7.38584602 L1.4593934,7.38584602 L1.4593934,8.20542162 L1.94245084,8.20542162 L1.94245084,9.02499722 L2.42550828,9.02499722 L2.42550828,9.84457283 L1.94245084,9.84457283 L1.94245084,10.6641484 L1.4593934,10.6641484 L1.4593934,11.483724 L0.976335963,11.483724 L0.976335963,10.6641484 L0.493278525,10.6641484 L0.493278525,9.84457283 L0.0102210865,9.84457283 L0.0102210865,9.02499722 L0.493278525,9.02499722 L0.493278525,8.20542162 L0.976335963,8.20542162 L0.976335963,7.38584602 Z M0.976335963,9.02455283 L1.4593934,9.02455283 L1.4593934,9.84412843 L0.976335963,9.84412843 L0.976335963,9.02455283 Z M3.87490279,7.38584602 L4.35796023,7.38584602 L4.35796023,8.20542162 L4.84101766,8.20542162 L4.84101766,9.02499722 L5.3240751,9.02499722 L5.3240751,9.84457283 L4.84101766,9.84457283 L4.84101766,10.6641484 L4.35796023,10.6641484 L4.35796023,11.483724 L3.87490279,11.483724 L3.87490279,10.6641484 L3.39184535,10.6641484 L3.39184535,9.84457283 L2.90878791,9.84457283 L2.90878791,9.02499722 L3.39184535,9.02499722 L3.39184535,8.20542162 L3.87490279,8.20542162 L3.87490279,7.38584602 Z M3.87490279,9.02455283 L4.35796023,9.02455283 L4.35796023,9.84412843 L3.87490279,9.84412843 L3.87490279,9.02455283 Z M0.0108876791,12.3030774 L0.493945117,12.3030774 L0.493945117,13.122653 L0.0108876791,13.122653 L0.0108876791,12.3030774 Z M5.32363071,11.4835018 L5.61348739,11.4835018 L5.61348739,13.1222086 L5.32363071,13.1222086 L5.32363071,11.4835018 Z M0.0108876791,14.7620264 L0.493945117,14.7620264 L0.493945117,13.9424508 L0.977002555,13.9424508 L0.977002555,13.1228752 L1.46005999,13.1228752 L1.46005999,12.3032996 L1.94311743,12.3032996 L1.94311743,11.483724 L2.42617487,11.483724 L2.42617487,10.6641484 L2.90923231,10.6641484 L2.90923231,11.483724 L3.39228975,11.483724 L3.39228975,12.3032996 L3.87534718,12.3032996 L3.87534718,13.1228752 L4.35840462,13.1228752 L4.35840462,13.9424508 L4.84146206,13.9424508 L4.84146206,14.7620264 L5.3245195,14.7620264 L5.3245195,15.581602 L5.61437618,15.581602 L5.61437618,18.8601267 L5.3245195,18.8601267 L5.3245195,19.6797023 L4.84146206,19.6797023 L4.84146206,20.4992779 L4.35840462,20.4992779 L4.35840462,21.3188535 L3.87534718,21.3188535 L3.87534718,22.1384291 L3.39228975,22.1384291 L3.39228975,22.9580047 L2.90923231,22.9580047 L2.90923231,25.088879 L1.94322853,25.088879 L1.94322853,24.5971559 L1.46017109,24.5971559 L1.46017109,23.7775803 L0.977113654,23.7775803 L0.977113654,22.9580047 L0.494056216,22.9580047 L0.494056216,22.1384291 L0.0109987779,22.1384291 L0.0109987779,19.6798134 L0.494056216,19.6798134 L0.494056216,20.499389 L0.977113654,20.499389 L0.977113654,21.3189646 L1.46017109,21.3189646 L1.46017109,22.1385402 L1.94322853,22.1385402 L1.94322853,21.3189646 L2.42628597,21.3189646 L2.42628597,20.499389 L2.90934341,20.499389 L2.90934341,19.6798134 L3.39240084,19.6798134 L3.39240084,18.8602378 L3.87545828,18.8602378 L3.87545828,18.0406621 L4.35851572,18.0406621 L4.35851572,17.2210865 L3.87545828,17.2210865 L3.87545828,16.4015109 L3.39240084,16.4015109 L3.39240084,15.5819353 L1.94367293,15.5819353 L1.94367293,16.4015109 L2.9096767,16.4015109 L2.9096767,17.2210865 L2.42661926,17.2210865 L2.42661926,18.0406621 L1.94356183,18.0406621 L1.94356183,18.8602378 L1.46050439,18.8602378 L1.46050439,18.0406621 L0.97744695,18.0406621 L0.97744695,17.2210865 L0.494389512,17.2210865 L0.494389512,16.4015109 L0.0113320742,16.4015109 L0.0108876791,14.7620264 Z M0.0108876791,18.040551 L0.493945117,18.040551 L0.493945117,18.8601267 L0.0108876791,18.8601267 L0.0108876791,18.040551 Z M5.32363071,20.4991668 L5.61348739,20.4991668 L5.61348739,21.3187424 L5.32363071,21.3187424 L5.32363071,20.4991668 Z M4.35762693,22.1378736 L4.84068437,22.1378736 L4.84068437,22.9574492 L5.32374181,22.9574492 L5.32374181,23.7770248 L5.61359849,23.7770248 L5.61359849,25.0879902 L5.32374181,25.0879902 L5.32374181,24.5962671 L4.84068437,24.5962671 L4.84068437,23.7766915 L4.35762693,23.7766915 L4.35762693,22.1378736 Z M3.39162315,24.5964893 L3.87468059,24.5964893 L3.87468059,25.0882124 L3.39162315,25.0882124 L3.39162315,24.5964893 Z" id="b"></path>
                </g>
            </g>
            <g id="a-link" transform="translate(5.566048, 37.468059) scale(-1, 1) rotate(-180.000000) translate(-5.566048, -37.468059) translate(0.000000, 24.919453)" fill="#C8313E">
                <g id="a">
                    <path d="M1.94311743,0.0111098767 L3.39184535,0.0111098767 L3.39184535,0.830685479 L3.87490279,0.830685479 L3.87490279,1.65026108 L4.35796023,1.65026108 L4.35796023,2.46983668 L4.84101766,2.46983668 L4.84101766,3.28941229 L5.3240751,3.28941229 L5.3240751,4.10898789 L4.84101766,4.10898789 L4.84101766,4.92856349 L4.35796023,4.92856349 L4.35796023,5.7481391 L3.87490279,5.7481391 L3.87490279,6.5677147 L3.39184535,6.5677147 L3.39184535,7.3872903 L2.90878791,7.3872903 L2.90878791,8.2068659 L2.42573047,8.2068659 L2.42573047,7.3872903 L1.94267304,7.3872903 L1.94267304,6.5677147 L1.4596156,6.5677147 L1.4596156,5.7481391 L0.97655816,5.7481391 L0.97655816,4.92856349 L0.493500722,4.92856349 L0.493500722,4.10898789 L0.0104432841,4.10898789 L0.0104432841,3.28941229 L0.493500722,3.28941229 L0.493500722,2.46983668 L0.97655816,2.46983668 L0.97655816,1.65026108 L1.4596156,1.65026108 L1.4596156,0.830685479 L1.94267304,0.830685479 L1.94311743,0.0111098767 Z M2.42617487,1.64981669 L2.90923231,1.64981669 L2.90923231,2.46939229 L3.39228975,2.46939229 L3.39228975,3.28896789 L3.87534718,3.28896789 L3.87534718,4.1085435 L3.39228975,4.1085435 L3.39228975,4.9281191 L2.90923231,4.9281191 L2.90923231,5.7476947 L2.42617487,5.7476947 L2.42617487,4.9281191 L1.94311743,4.9281191 L1.94311743,4.1085435 L1.46005999,4.1085435 L1.46005999,3.28896789 L1.94311743,3.28896789 L1.94311743,2.46939229 L2.42617487,2.46939229 L2.42617487,1.64981669 Z M2.42617487,3.2885235 L2.90923231,3.2885235 L2.90923231,4.1080991 L2.42617487,4.1080991 L2.42617487,3.2885235 Z M0.0108876791,0.829907788 L0.493945117,0.829907788 L0.493945117,1.64948339 L0.0108876791,1.64948339 L0.0108876791,0.829907788 Z M0.0108876791,5.74713921 L0.493945117,5.74713921 L0.493945117,6.56671481 L0.0108876791,6.56671481 L0.0108876791,5.74713921 Z M5.32363071,0.00999888901 L5.61348739,0.00999888901 L5.61348739,1.6487057 L5.32363071,1.6487057 L5.32363071,0.00999888901 Z M5.32363071,5.74713921 L5.61348739,5.74713921 L5.61348739,7.38584602 L5.32363071,7.38584602 L5.32363071,5.74713921 Z M0.976335963,7.38584602 L1.4593934,7.38584602 L1.4593934,8.20542162 L1.94245084,8.20542162 L1.94245084,9.02499722 L2.42550828,9.02499722 L2.42550828,9.84457283 L1.94245084,9.84457283 L1.94245084,10.6641484 L1.4593934,10.6641484 L1.4593934,11.483724 L0.976335963,11.483724 L0.976335963,10.6641484 L0.493278525,10.6641484 L0.493278525,9.84457283 L0.0102210865,9.84457283 L0.0102210865,9.02499722 L0.493278525,9.02499722 L0.493278525,8.20542162 L0.976335963,8.20542162 L0.976335963,7.38584602 Z M0.976335963,9.02455283 L1.4593934,9.02455283 L1.4593934,9.84412843 L0.976335963,9.84412843 L0.976335963,9.02455283 Z M3.87490279,7.38584602 L4.35796023,7.38584602 L4.35796023,8.20542162 L4.84101766,8.20542162 L4.84101766,9.02499722 L5.3240751,9.02499722 L5.3240751,9.84457283 L4.84101766,9.84457283 L4.84101766,10.6641484 L4.35796023,10.6641484 L4.35796023,11.483724 L3.87490279,11.483724 L3.87490279,10.6641484 L3.39184535,10.6641484 L3.39184535,9.84457283 L2.90878791,9.84457283 L2.90878791,9.02499722 L3.39184535,9.02499722 L3.39184535,8.20542162 L3.87490279,8.20542162 L3.87490279,7.38584602 Z M3.87490279,9.02455283 L4.35796023,9.02455283 L4.35796023,9.84412843 L3.87490279,9.84412843 L3.87490279,9.02455283 Z M0.0108876791,12.3030774 L0.493945117,12.3030774 L0.493945117,13.122653 L0.0108876791,13.122653 L0.0108876791,12.3030774 Z M5.32363071,11.4835018 L5.61348739,11.4835018 L5.61348739,13.1222086 L5.32363071,13.1222086 L5.32363071,11.4835018 Z M0.0108876791,14.7620264 L0.493945117,14.7620264 L0.493945117,13.9424508 L0.977002555,13.9424508 L0.977002555,13.1228752 L1.46005999,13.1228752 L1.46005999,12.3032996 L1.94311743,12.3032996 L1.94311743,11.483724 L2.42617487,11.483724 L2.42617487,10.6641484 L2.90923231,10.6641484 L2.90923231,11.483724 L3.39228975,11.483724 L3.39228975,12.3032996 L3.87534718,12.3032996 L3.87534718,13.1228752 L4.35840462,13.1228752 L4.35840462,13.9424508 L4.84146206,13.9424508 L4.84146206,14.7620264 L5.3245195,14.7620264 L5.3245195,15.581602 L5.61437618,15.581602 L5.61437618,18.8601267 L5.3245195,18.8601267 L5.3245195,19.6797023 L4.84146206,19.6797023 L4.84146206,20.4992779 L4.35840462,20.4992779 L4.35840462,21.3188535 L3.87534718,21.3188535 L3.87534718,22.1384291 L3.39228975,22.1384291 L3.39228975,22.9580047 L2.90923231,22.9580047 L2.90923231,25.088879 L1.94322853,25.088879 L1.94322853,24.5971559 L1.46017109,24.5971559 L1.46017109,23.7775803 L0.977113654,23.7775803 L0.977113654,22.9580047 L0.494056216,22.9580047 L0.494056216,22.1384291 L0.0109987779,22.1384291 L0.0109987779,19.6798134 L0.494056216,19.6798134 L0.494056216,20.499389 L0.977113654,20.499389 L0.977113654,21.3189646 L1.46017109,21.3189646 L1.46017109,22.1385402 L1.94322853,22.1385402 L1.94322853,21.3189646 L2.42628597,21.3189646 L2.42628597,20.499389 L2.90934341,20.499389 L2.90934341,19.6798134 L3.39240084,19.6798134 L3.39240084,18.8602378 L3.87545828,18.8602378 L3.87545828,18.0406621 L4.35851572,18.0406621 L4.35851572,17.2210865 L3.87545828,17.2210865 L3.87545828,16.4015109 L3.39240084,16.4015109 L3.39240084,15.5819353 L1.94367293,15.5819353 L1.94367293,16.4015109 L2.9096767,16.4015109 L2.9096767,17.2210865 L2.42661926,17.2210865 L2.42661926,18.0406621 L1.94356183,18.0406621 L1.94356183,18.8602378 L1.46050439,18.8602378 L1.46050439,18.0406621 L0.97744695,18.0406621 L0.97744695,17.2210865 L0.494389512,17.2210865 L0.494389512,16.4015109 L0.0113320742,16.4015109 L0.0108876791,14.7620264 Z M0.0108876791,18.040551 L0.493945117,18.040551 L0.493945117,18.8601267 L0.0108876791,18.8601267 L0.0108876791,18.040551 Z M5.32363071,20.4991668 L5.61348739,20.4991668 L5.61348739,21.3187424 L5.32363071,21.3187424 L5.32363071,20.4991668 Z M4.35762693,22.1378736 L4.84068437,22.1378736 L4.84068437,22.9574492 L5.32374181,22.9574492 L5.32374181,23.7770248 L5.61359849,23.7770248 L5.61359849,25.0879902 L5.32374181,25.0879902 L5.32374181,24.5962671 L4.84068437,24.5962671 L4.84068437,23.7766915 L4.35762693,23.7766915 L4.35762693,22.1378736 Z M3.39162315,24.5964893 L3.87468059,24.5964893 L3.87468059,25.0882124 L3.39162315,25.0882124 L3.39162315,24.5964893 Z" id="b"></path>
                    <g id="b-link" transform="translate(8.321298, 12.548606) scale(-1, 1) translate(-8.321298, -12.548606) translate(5.510499, 0.000000)">
                        <path d="M1.94311743,0.0111098767 L3.39184535,0.0111098767 L3.39184535,0.830685479 L3.87490279,0.830685479 L3.87490279,1.65026108 L4.35796023,1.65026108 L4.35796023,2.46983668 L4.84101766,2.46983668 L4.84101766,3.28941229 L5.3240751,3.28941229 L5.3240751,4.10898789 L4.84101766,4.10898789 L4.84101766,4.92856349 L4.35796023,4.92856349 L4.35796023,5.7481391 L3.87490279,5.7481391 L3.87490279,6.5677147 L3.39184535,6.5677147 L3.39184535,7.3872903 L2.90878791,7.3872903 L2.90878791,8.2068659 L2.42573047,8.2068659 L2.42573047,7.3872903 L1.94267304,7.3872903 L1.94267304,6.5677147 L1.4596156,6.5677147 L1.4596156,5.7481391 L0.97655816,5.7481391 L0.97655816,4.92856349 L0.493500722,4.92856349 L0.493500722,4.10898789 L0.0104432841,4.10898789 L0.0104432841,3.28941229 L0.493500722,3.28941229 L0.493500722,2.46983668 L0.97655816,2.46983668 L0.97655816,1.65026108 L1.4596156,1.65026108 L1.4596156,0.830685479 L1.94267304,0.830685479 L1.94311743,0.0111098767 Z M2.42617487,1.64981669 L2.90923231,1.64981669 L2.90923231,2.46939229 L3.39228975,2.46939229 L3.39228975,3.28896789 L3.87534718,3.28896789 L3.87534718,4.1085435 L3.39228975,4.1085435 L3.39228975,4.9281191 L2.90923231,4.9281191 L2.90923231,5.7476947 L2.42617487,5.7476947 L2.42617487,4.9281191 L1.94311743,4.9281191 L1.94311743,4.1085435 L1.46005999,4.1085435 L1.46005999,3.28896789 L1.94311743,3.28896789 L1.94311743,2.46939229 L2.42617487,2.46939229 L2.42617487,1.64981669 Z M2.42617487,3.2885235 L2.90923231,3.2885235 L2.90923231,4.1080991 L2.42617487,4.1080991 L2.42617487,3.2885235 Z M0.0108876791,0.829907788 L0.493945117,0.829907788 L0.493945117,1.64948339 L0.0108876791,1.64948339 L0.0108876791,0.829907788 Z M0.0108876791,5.74713921 L0.493945117,5.74713921 L0.493945117,6.56671481 L0.0108876791,6.56671481 L0.0108876791,5.74713921 Z M5.32363071,0.00999888901 L5.61348739,0.00999888901 L5.61348739,1.6487057 L5.32363071,1.6487057 L5.32363071,0.00999888901 Z M5.32363071,5.74713921 L5.61348739,5.74713921 L5.61348739,7.38584602 L5.32363071,7.38584602 L5.32363071,5.74713921 Z M0.976335963,7.38584602 L1.4593934,7.38584602 L1.4593934,8.20542162 L1.94245084,8.20542162 L1.94245084,9.02499722 L2.42550828,9.02499722 L2.42550828,9.84457283 L1.94245084,9.84457283 L1.94245084,10.6641484 L1.4593934,10.6641484 L1.4593934,11.483724 L0.976335963,11.483724 L0.976335963,10.6641484 L0.493278525,10.6641484 L0.493278525,9.84457283 L0.0102210865,9.84457283 L0.0102210865,9.02499722 L0.493278525,9.02499722 L0.493278525,8.20542162 L0.976335963,8.20542162 L0.976335963,7.38584602 Z M0.976335963,9.02455283 L1.4593934,9.02455283 L1.4593934,9.84412843 L0.976335963,9.84412843 L0.976335963,9.02455283 Z M3.87490279,7.38584602 L4.35796023,7.38584602 L4.35796023,8.20542162 L4.84101766,8.20542162 L4.84101766,9.02499722 L5.3240751,9.02499722 L5.3240751,9.84457283 L4.84101766,9.84457283 L4.84101766,10.6641484 L4.35796023,10.6641484 L4.35796023,11.483724 L3.87490279,11.483724 L3.87490279,10.6641484 L3.39184535,10.6641484 L3.39184535,9.84457283 L2.90878791,9.84457283 L2.90878791,9.02499722 L3.39184535,9.02499722 L3.39184535,8.20542162 L3.87490279,8.20542162 L3.87490279,7.38584602 Z M3.87490279,9.02455283 L4.35796023,9.02455283 L4.35796023,9.84412843 L3.87490279,9.84412843 L3.87490279,9.02455283 Z M0.0108876791,12.3030774 L0.493945117,12.3030774 L0.493945117,13.122653 L0.0108876791,13.122653 L0.0108876791,12.3030774 Z M5.32363071,11.4835018 L5.61348739,11.4835018 L5.61348739,13.1222086 L5.32363071,13.1222086 L5.32363071,11.4835018 Z M0.0108876791,14.7620264 L0.493945117,14.7620264 L0.493945117,13.9424508 L0.977002555,13.9424508 L0.977002555,13.1228752 L1.46005999,13.1228752 L1.46005999,12.3032996 L1.94311743,12.3032996 L1.94311743,11.483724 L2.42617487,11.483724 L2.42617487,10.6641484 L2.90923231,10.6641484 L2.90923231,11.483724 L3.39228975,11.483724 L3.39228975,12.3032996 L3.87534718,12.3032996 L3.87534718,13.1228752 L4.35840462,13.1228752 L4.35840462,13.9424508 L4.84146206,13.9424508 L4.84146206,14.7620264 L5.3245195,14.7620264 L5.3245195,15.581602 L5.61437618,15.581602 L5.61437618,18.8601267 L5.3245195,18.8601267 L5.3245195,19.6797023 L4.84146206,19.6797023 L4.84146206,20.4992779 L4.35840462,20.4992779 L4.35840462,21.3188535 L3.87534718,21.3188535 L3.87534718,22.1384291 L3.39228975,22.1384291 L3.39228975,22.9580047 L2.90923231,22.9580047 L2.90923231,25.088879 L1.94322853,25.088879 L1.94322853,24.5971559 L1.46017109,24.5971559 L1.46017109,23.7775803 L0.977113654,23.7775803 L0.977113654,22.9580047 L0.494056216,22.9580047 L0.494056216,22.1384291 L0.0109987779,22.1384291 L0.0109987779,19.6798134 L0.494056216,19.6798134 L0.494056216,20.499389 L0.977113654,20.499389 L0.977113654,21.3189646 L1.46017109,21.3189646 L1.46017109,22.1385402 L1.94322853,22.1385402 L1.94322853,21.3189646 L2.42628597,21.3189646 L2.42628597,20.499389 L2.90934341,20.499389 L2.90934341,19.6798134 L3.39240084,19.6798134 L3.39240084,18.8602378 L3.87545828,18.8602378 L3.87545828,18.0406621 L4.35851572,18.0406621 L4.35851572,17.2210865 L3.87545828,17.2210865 L3.87545828,16.4015109 L3.39240084,16.4015109 L3.39240084,15.5819353 L1.94367293,15.5819353 L1.94367293,16.4015109 L2.9096767,16.4015109 L2.9096767,17.2210865 L2.42661926,17.2210865 L2.42661926,18.0406621 L1.94356183,18.0406621 L1.94356183,18.8602378 L1.46050439,18.8602378 L1.46050439,18.0406621 L0.97744695,18.0406621 L0.97744695,17.2210865 L0.494389512,17.2210865 L0.494389512,16.4015109 L0.0113320742,16.4015109 L0.0108876791,14.7620264 Z M0.0108876791,18.040551 L0.493945117,18.040551 L0.493945117,18.8601267 L0.0108876791,18.8601267 L0.0108876791,18.040551 Z M5.32363071,20.4991668 L5.61348739,20.4991668 L5.61348739,21.3187424 L5.32363071,21.3187424 L5.32363071,20.4991668 Z M4.35762693,22.1378736 L4.84068437,22.1378736 L4.84068437,22.9574492 L5.32374181,22.9574492 L5.32374181,23.7770248 L5.61359849,23.7770248 L5.61359849,25.0879902 L5.32374181,25.0879902 L5.32374181,24.5962671 L4.84068437,24.5962671 L4.84068437,23.7766915 L4.35762693,23.7766915 L4.35762693,22.1378736 Z M3.39162315,24.5964893 L3.87468059,24.5964893 L3.87468059,25.0882124 L3.39162315,25.0882124 L3.39162315,24.5964893 Z" id="b"></path>
                    </g>
                </g>
            </g>
        </g>
    </g>
</svg>