<?xml version="1.0" encoding="utf-8"?>
<!-- Generator: Adobe Illustrator 21.0.0, SVG Export Plug-In . SVG Version: 6.00 Build 0)  -->
<svg version="1.1" id="Layer_1" xmlns="http://www.w3.org/2000/svg" xmlns:xlink="http://www.w3.org/1999/xlink" x="0px" y="0px"
	 viewBox="0 0 200 200" style="enable-background:new 0 0 200 200;" xml:space="preserve">
<style type="text/css">
	.st0{fill:#003B70;}
	.st1{fill:#D9261C;}
</style>
<title>C</title>
<path class="st0" d="M61,139.5l-0.3,0.3c-5.8,5.8-12.4,9-19.3,9c-14.3,0-24.8-10.8-24.8-25.6S27,97.6,41.3,97.6
	c6.8,0,13.5,3.1,19.3,9L61,107l9.3-11.1L70,95.5C62.3,86.5,53.1,82,41.7,82S20,85.9,12.5,92.8c-8.2,7.5-12.4,18-12.4,30.5
	s4.3,23,12.4,30.5c7.5,6.9,17.8,10.8,29.3,10.8s20.5-4.4,28.2-13.5l0.3-0.3L61,139.5z"/>
<path class="st0" d="M79.5,162.9h16.3V83.3H79.5V162.9z"/>
<path class="st0" d="M159.8,145.7c-4.3,2.7-8.4,4-12,4c-5.2,0-7.7-2.8-7.7-9V98.4h16.6v-15h-16.6V58.6l-16,8.6v16.3h-13.8v15h13.8
	v45c0,12.3,7.3,20.6,18.1,20.8c5.1,0.2,10.1-1,14.5-3.7l0.2-0.1l3.9-15.3L159.8,145.7L159.8,145.7z"/>
<path class="st0" d="M173.3,162.9h16.3V83.3h-16.3V162.9z"/>
<path class="st1" d="M199.4,69.2c-25.2-35.9-74.7-44.6-110.6-19.4c-7.5,5.3-14.1,11.8-19.4,19.4l-0.8,1h18.8l0.2-0.3
	c12.2-12.8,29-20.1,46.7-20.2c17.2,0,33.9,7,46.7,20.2l0.2,0.3H200L199.4,69.2L199.4,69.2z"/>
</svg>
