<?xml version="1.0" encoding="utf-8"?>
<!-- Generator: Adobe Illustrator 21.0.0, SVG Export Plug-In . SVG Version: 6.00 Build 0)  -->
<svg version="1.1" id="Layer_1" xmlns="http://www.w3.org/2000/svg" xmlns:xlink="http://www.w3.org/1999/xlink" x="0px" y="0px"
	 viewBox="0 0 200 200" style="enable-background:new 0 0 200 200;" xml:space="preserve">
<style type="text/css">
	.st0{stroke:#000000;stroke-width:0.22;stroke-miterlimit:2.61;}
	.st1{fill:#FFFFFF;}
	.st2{fill:#FEC40E;stroke:#FADF3C;stroke-width:0.22;stroke-miterlimit:2.61;}
</style>
<title>CAT</title>
<path class="st0" d="M0,200h200V0H0V200z"/>
<path class="st1" d="M154.7,142.9l0.1-71.1h13.5V57h-44.2v14.8h13.5l0.8,59.2l8.4,7.1l5.3,4.8L154.7,142.9z M48.8,141.5
	c-0.9,0.7-2,1.1-3.2,1.1H44c-1.9,0-3.8-0.4-5.6-1.1c-1.8-0.7-3.4-1.8-4.8-3.2c-1.2-1.4-2.2-3-2.8-4.8c-0.7-1.8-1.1-3.7-1.1-5.6
	l0.2-56c0-1.9,0.4-3.8,1.1-5.6c0.7-1.8,1.8-3.4,3.2-4.7s3-2.4,4.8-3.2c1.8-0.7,3.7-1.1,5.6-1.1h12.1c1.9,0,3.8,0.4,5.6,1.1
	c1.7,0.8,3.2,1.8,4.4,3.2c1.4,1.4,2.5,3,3.2,4.7c0.8,1.8,1.2,3.7,1.3,5.6v19.4h-17V75.6c0-1-0.4-1.9-1.1-2.6c-0.6-0.7-1.5-1-2.4-1.1
	c-1,0-1.9,0.4-2.6,1.1c-0.7,0.7-1.1,1.6-1.1,2.6l-0.1,48.8c0,2,1.7,3.6,3.7,3.6c0.9,0,1.8-0.4,2.4-1.1c0.7-0.7,1.1-1.6,1.1-2.6
	l0.2-20.8h17l-0.2,12.8c-0.1,2.2-0.6,4.3-1.6,6.2c-0.9,1.8-2.1,3.5-3.5,5l-16.8,14H48.8z"/>
<path class="st2" d="M144,142.9H55.7l44.2-36.8L144,142.9L144,142.9z"/>
<path class="st1" d="M125.2,120.3l-13.6-63.2H88l-13.6,63.2l25.4-20.9l0,0L125.2,120.3z M94.9,94.5l4.9-22.9v0.1l4.9,22.8L94.9,94.5
	z"/>
</svg>
