<?xml version="1.0" encoding="utf-8"?>
<!-- Generator: Adobe Illustrator 21.0.0, SVG Export Plug-In . SVG Version: 6.00 Build 0)  -->
<svg version="1.1" id="Layer_1" xmlns="http://www.w3.org/2000/svg" xmlns:xlink="http://www.w3.org/1999/xlink" x="0px" y="0px"
	 viewBox="0 0 200 200" style="enable-background:new 0 0 200 200;" xml:space="preserve">
<style type="text/css">
	.st0{fill:#00589C;}
	.st1{fill:#FFFFFF;}
</style>
<title>CHL</title>
<rect class="st0" width="200" height="200"/>
<path class="st1" d="M130.2,78.8c-3.6-2.9-7.1-4.4-10.6-4.3c-3.7,0.1-7.2,1.6-9.9,4.2l-2.5,2.3c-7.3,6.2-30,27.3-30.5,27.8
	c-1.7,1.7-4,2.6-6.4,2.6c-2.2-0.1-4.6-1.1-7-3.4c-6.6-5.5-12.8-11.6-18.5-18C39.2,83.6,34.6,78,34.6,78s-1,2.1-1.6,3.6
	c-0.4,0.8-0.3,1.6,0.2,2.3c3,4.4,16.8,21.1,35.9,37.6c3.5,3,7.1,4.4,10.6,4.3c3.7-0.1,7.2-1.6,9.9-4.2l2.5-2.3
	c0.9-0.7,1.9-1.6,2.9-2.5c7.6-6.7,18.9-17.2,24.6-22.6c1.4-1.3,2.4-2.2,2.9-2.7c1.7-1.7,4-2.7,6.4-2.6c2.2,0.1,4.5,1.2,7,3.4
	c4.1,3.5,10.7,9.7,18.5,18c5.7,6.1,10.1,11.8,10.2,11.9c0,0.1,1.1-2.2,1.6-3.7c0.4-0.7,0.3-1.6-0.2-2.3
	C153.8,99.9,135.3,83,130.2,78.8z M122,54.6c-8.8-4.9-19-6.4-29.2,1.1C86.4,60.4,60.1,85,55,90.9c2.9,3.1,6,6.1,9.2,8.8
	c1.5,1.2,3.2,1,4.7-0.5C79,88.9,99.7,70.5,102.4,68.3c7.8-6.7,16.8-7.3,25.1-1c20.1,15.2,38,39.2,41,43.7c0,0,0.5-2.2,0.7-4.2
	c0.2-1.2,0-2.4-0.6-3.4C149.8,75.9,129.7,58.9,122,54.6L122,54.6z M45.7,81.1c1,0.8,2,0.6,2.8-0.3c12.8-12.5,26.7-25.3,34.8-31.6
	c13.6-10.6,29.5-11.7,45.1,0.9c6.5,5.3,12.7,11,18.4,17.1c9.6,10.6,15.8,19.4,22.7,29.4c-0.1-2.1-0.3-4.2-0.8-6.2
	c-0.2-0.8-0.4-1.7-0.8-2.4c-1.4-2.8-7.5-13.3-16.2-23.6c-17.4-20.6-28.4-26.8-35.5-30.6c-9.3-5-27.6-6.4-44.7,7.6
	c-13,10.6-29.7,26.2-33.9,30.8C40.2,75.3,42.9,78.3,45.7,81.1z M77.3,145.8c8.8,4.9,19,6.4,29.2-1.1c6.4-4.7,32.6-29.3,37.8-35.2
	c-2.9-3.1-6-6.1-9.2-8.8c-1.5-1.2-3.2-1-4.7,0.5c-10.1,10.3-30.7,28.6-33.5,30.9c-7.8,6.7-16.8,7.3-25.1,1
	c-20.1-15.3-38-39.2-41-43.7c0,0-0.4,2.2-0.7,4.2c-0.2,1.2,0,2.4,0.6,3.4C49.5,124.5,69.6,141.5,77.3,145.8z M153.5,119.3
	c-1-0.8-2-0.6-2.8,0.3c-12.8,12.5-26.7,25.3-34.7,31.6c-13.6,10.6-29.5,11.7-45.1-0.9c-6.5-5.3-12.7-11-18.4-17.1
	c-9.6-10.6-15.9-19.4-22.7-29.4c0,2.1,0.3,4.2,0.8,6.2c0.2,0.8,0.4,1.7,0.8,2.5c4.6,8.4,10,16.3,16.2,23.7
	c17.4,20.6,28.4,26.8,35.5,30.5c9.3,5,27.6,6.4,44.8-7.6c13-10.6,29.7-26.2,33.9-30.8C159,125.1,156.3,122.1,153.5,119.3
	L153.5,119.3z"/>
</svg>
