<?xml version="1.0" encoding="UTF-8"?>
<svg width="34px" height="20px" viewBox="0 0 34 20" version="1.1" xmlns="http://www.w3.org/2000/svg" xmlns:xlink="http://www.w3.org/1999/xlink">
    <!-- Generator: Sketch 49 (51002) - http://www.bohemiancoding.com/sketch -->
    <title>CLF</title>
    <desc>Created with Sketch.</desc>
    <defs></defs>
    <g id="Page-1" stroke="none" stroke-width="1" fill="none" fill-rule="evenodd">
        <g id="CLF" fill-rule="nonzero">
            <rect id="Rectangle-path" fill="#FFFFFF" x="0" y="0" width="33.56" height="19.58"></rect>
            <rect id="Rectangle-path" fill="#2530A9" x="0" y="0" width="9.79" height="19.58"></rect>
            <rect id="Rectangle-path" fill="#C22623" x="0" y="9.79" width="33.56" height="9.79"></rect>
            <polygon id="Shape" fill="#FFFFFF" points="4.9 2.44 4.14 4.77 5.3 5.15"></polygon>
            <polygon id="Shape" fill="#FFFFFF" points="4.9 2.44 5.65 4.77 4.49 5.15"></polygon>
            <polygon id="Shape" fill="#FFFFFF" points="7.22 4.14 4.78 4.14 4.78 5.36"></polygon>
            <polygon id="Shape" fill="#FFFFFF" points="7.22 4.14 5.24 5.58 4.53 4.58"></polygon>
            <polygon id="Shape" fill="#FFFFFF" points="2.57 4.14 4.55 5.58 5.27 4.58"></polygon>
            <polygon id="Shape" fill="#FFFFFF" points="2.57 4.14 5.02 4.14 5.02 5.36"></polygon>
            <polygon id="Shape" fill="#FFFFFF" points="6.33 6.87 5.58 4.55 4.42 4.92"></polygon>
            <polygon id="Shape" fill="#FFFFFF" points="6.33 6.87 4.35 5.43 5.08 4.45"></polygon>
            <polygon id="Shape" fill="#FFFFFF" points="3.46 6.87 5.44 5.43 4.72 4.45"></polygon>
            <polygon id="Shape" fill="#FFFFFF" points="3.46 6.87 4.21 4.55 5.38 4.92"></polygon>
        </g>
    </g>
</svg>