<?xml version="1.0" encoding="utf-8"?>
<!-- Generator: Adobe Illustrator 21.0.0, SVG Export Plug-In . SVG Version: 6.00 Build 0)  -->
<svg version="1.1" id="Layer_1" xmlns="http://www.w3.org/2000/svg" xmlns:xlink="http://www.w3.org/1999/xlink" x="0px" y="0px"
	 viewBox="0 0 200 200" style="enable-background:new 0 0 200 200;" xml:space="preserve">
<style type="text/css">
	.st0{fill:#FDFEFF;}
	.st1{fill:#645FAA;}
	.st2{fill:#C9234A;}
	.st3{fill:#0089CF;}
	.st4{fill:#F36F21;}
	.st5{fill:#0DB14B;}
	.st6{fill:#FDB913;}
</style>
<title>CMCSA</title>
<path class="st0" d="M99.9,52.5c2.8-4.5,7.3-9.2,12.2-11.2c8.5-3.9,19.9-2.2,26.8,3.9c6.7,6.1,10.1,14.4,8.5,23.6
	c1.6-0.3,3.3-1.3,5-1.9c10.4-3,21.4,0.2,28,9.2c5,6.3,6.3,16.2,3.3,23.9c-1.6,4-4.1,7.5-7.3,10.3l0.3,0.3
	c9.7,0.5,19.2,7.9,22.1,17.1c3.1,9.2,0.5,19.3-6.4,26c-5.5,5.5-12.6,7.3-20.6,7.2H27.8C16,161.2,7,155.9,2,145.4
	c-3.9-9.1-1.9-20.6,5.2-27.4c4.6-4.8,10.2-6.7,16.4-7.6c-6.9-6.4-10.3-15.3-8.4-24.8c1.4-7.6,7.9-15.4,15.4-18.1
	c6.6-2.6,15.6-2.1,21.6,1.4l0.2-0.3c-1.6-10.3,3-19.8,11.6-25.5c7.7-5.2,20.1-5.1,27.6,0.5C95,45.6,97.7,49.2,99.9,52.5"/>
<path class="st1" d="M140.5,56.3c3.1,6.2,1.3,14.5-1.9,20l-25,56.1l-0.2,0.3l-9-57c-0.7-5.5,5.1-7.8,8.6-10.4
	c-0.2-0.8-1-0.8-1.6-1.1l-8.5-0.1l-0.3-0.3c0-7.1,4-13.7,10.3-17C119.7,43,129.1,44,135,49C137.5,50.9,139.3,53.5,140.5,56.3"/>
<path class="st2" d="M94.6,54.4c2.2,3.9,3.2,8.4,2.5,12.8l-10.2,65.2c0,0.1,0,0.2-0.1,0.2l-2.6-5.3l-25.5-57
	c-2.2-7.2-0.3-15.1,5.2-20.3c5.4-5.5,14.3-6.9,21.3-4C89.1,47.9,92.3,50.7,94.6,54.4"/>
<path class="st3" d="M177.5,81.9c3.5,5.8,2.6,14.7-1.1,20.2c-2.3,3.8-6.2,5.7-9.6,8.3l-52.9,36.3h-0.1l0.6-1.7l28-63.3
	c5.3-9.7,17.3-13.1,27-7.9C172.8,75.5,175.7,78.4,177.5,81.9"/>
<path class="st4" d="M57.4,81.5l29.1,65H86l-58.8-40.5c-6-4.9-8.5-12.8-6.4-20.2c1.7-6,6.1-10.8,11.9-13.1
	C42.1,69.2,52.5,72.9,57.4,81.5"/>
<path class="st5" d="M192.8,127.8c3,6.2,1.7,14.7-2.4,20c-3.9,5-9.9,7.7-16.2,7.5h-62.7l52.5-36.5c9.6-5.7,22-2.6,27.7,6.9
	C192.2,126.3,192.5,127.1,192.8,127.8"/>
<path class="st6" d="M7.3,127.8c-3,6.1-1.8,14.7,2.4,19.9c3.9,5,9.9,7.8,16.2,7.6h62.7L36,118.8c-9.6-5.7-22-2.6-27.7,6.9
	C7.9,126.4,7.6,127.1,7.3,127.8"/>
</svg>
