<?xml version="1.0" encoding="UTF-8"?>
<svg width="34px" height="20px" viewBox="0 0 34 20" version="1.1" xmlns="http://www.w3.org/2000/svg" xmlns:xlink="http://www.w3.org/1999/xlink">
    <!-- Generator: Sketch 49 (51002) - http://www.bohemiancoding.com/sketch -->
    <title>CNY</title>
    <desc>Created with Sketch.</desc>
    <defs></defs>
    <g id="Page-1" stroke="none" stroke-width="1" fill="none" fill-rule="evenodd">
        <g id="CNY" fill-rule="nonzero">
            <rect id="Rectangle-path" fill="#CB1D23" x="0" y="0" width="33.56" height="19.57"></rect>
            <polygon id="Shape" fill="#F7DE29" points="3.23 7.09 3.86 5.13 2.2 3.92 4.25 3.91 4.89 1.97 5.53 3.91 7.58 3.92 5.93 5.13 6.55 7.09 4.89 5.88"></polygon>
            <polygon id="Shape" fill="#F7DE29" points="8.95 8.14 9.64 8.42 10.13 7.85 10.07 8.59 10.77 8.88 10.04 9.06 9.99 9.8 9.59 9.17 8.87 9.34 9.35 8.77"></polygon>
            <polygon id="Shape" fill="#F7DE29" points="12.7 4.39 11.97 4.26 11.61 4.92 11.51 4.18 10.77 4.04 11.44 3.72 11.34 2.98 11.86 3.51 12.53 3.19 12.18 3.85"></polygon>
            <polygon id="Shape" fill="#F7DE29" points="11.14 7.73 11.37 7.02 10.77 6.58 11.51 6.58 11.74 5.87 11.98 6.58 12.72 6.58 12.12 7.02 12.35 7.73 11.74 7.29"></polygon>
            <polygon id="Shape" fill="#F7DE29" points="8.99 1.24 9.66 1.56 10.18 1.01 10.09 1.75 10.76 2.07 10.03 2.21 9.94 2.96 9.57 2.31 8.84 2.44 9.35 1.9"></polygon>
        </g>
    </g>
</svg>