<svg xmlns="http://www.w3.org/2000/svg" xmlns:xlink="http://www.w3.org/1999/xlink" viewBox="0 0 33.56 19.57"><defs><style>.cls-1{fill:none;}.cls-2{clip-path:url(#clip-path);}.cls-3{fill:#f4c533;}.cls-4{fill:#fff;}.cls-5{fill:#bc0030;}.cls-6{fill:#4d72c0;}.cls-7{fill:#508e38;}</style><clipPath id="clip-path"><rect class="cls-1" width="33.56" height="19.57"/></clipPath></defs><title>COM</title><g id="Layer_2" data-name="Layer 2"><g id="_4" data-name="4"><g id="COMOROS"><g class="cls-2"><rect class="cls-3" width="33.56" height="19.57"/><rect class="cls-4" y="4.89" width="33.56" height="14.68"/><rect class="cls-5" y="9.79" width="33.56" height="9.79"/><rect class="cls-6" y="14.68" width="33.56" height="4.89"/><polygon class="cls-7" points="0 0 0 19.57 16.32 9.79 0 0"/><g class="cls-2"><path class="cls-4" d="M10,9.79a4.4,4.4,0,1,1-8.81,0h0a4.4,4.4,0,0,1,8.81,0Z"/><path class="cls-7" d="M11.91,9.79a4.4,4.4,0,1,1-8.81,0h0a4.4,4.4,0,0,1,8.81,0Z"/><polygon class="cls-4" points="5.75 12.69 6.34 12.69 6.53 12.13 6.71 12.69 7.3 12.69 6.82 13.04 7.01 13.61 6.53 13.25 6.05 13.61 6.23 13.04 5.75 12.69"/><polygon class="cls-4" points="5.75 6.38 6.34 6.38 6.53 5.82 6.71 6.38 7.3 6.38 6.82 6.73 7.01 7.29 6.53 6.95 6.05 7.29 6.23 6.73 5.75 6.38"/><polygon class="cls-4" points="5.75 8.48 6.34 8.48 6.53 7.92 6.71 8.48 7.3 8.48 6.82 8.83 7.01 9.4 6.53 9.05 6.05 9.4 6.23 8.83 5.75 8.48"/><polygon class="cls-4" points="5.75 10.59 6.34 10.59 6.53 10.02 6.71 10.59 7.3 10.59 6.82 10.94 7.01 11.5 6.53 11.15 6.05 11.5 6.23 10.94 5.75 10.59"/></g></g></g></g></g></svg>