<?xml version="1.0" encoding="utf-8"?>
<!-- Generator: Adobe Illustrator 21.0.0, SVG Export Plug-In . SVG Version: 6.00 Build 0)  -->
<svg version="1.1" id="Layer_1" xmlns="http://www.w3.org/2000/svg" xmlns:xlink="http://www.w3.org/1999/xlink" x="0px" y="0px"
	 viewBox="0 0 200 200" style="enable-background:new 0 0 200 200;" xml:space="preserve">
<style type="text/css">
	.st0{fill:#00A1E0;}
	.st1{fill:#FFFFFF;}
</style>
<title>CRM</title>
<path class="st0" d="M83.5,42.3c13.4-14,35.6-14.5,49.6-1.1c2.6,2.5,4.9,5.4,6.6,8.6c5.5-2.4,11.4-3.7,17.4-3.7
	c24.1,0.4,43.2,20.2,42.8,44.1c-0.4,23.5-19.4,42.4-43,42.7c-2.8,0-5.6-0.3-8.4-0.8c-8.2,14.6-26.3,20.3-41.4,12.9
	c-7.8,18.2-29,26.7-47.3,18.9c-9.1-3.9-16.2-11.3-19.6-20.6c-18.1,3.8-35.8-7.7-39.6-25.7c-0.5-2.4-0.7-4.8-0.7-7.2
	c0-12,6.3-23,16.7-29c-8.4-19.8,0.8-42.6,20.6-51C53.7,23.4,72.6,28.3,83.5,42.3"/>
<path class="st1" d="M40.1,99.2c-0.1,0.3,0,0.3,0.1,0.4c0.3,0.2,0.7,0.4,1,0.6c1.6,0.8,3.3,1.2,5.1,1.2c3.5,0,5.7-1.9,5.7-4.9v-0.1
	c0-2.8-2.5-3.8-4.8-4.5l-0.3-0.1c-1.8-0.6-3.2-1.1-3.2-2.2v-0.1c0-1,0.9-1.7,2.2-1.7c1.5,0,3,0.4,4.4,1.1c0.2,0.1,0.4,0.1,0.5-0.1
	c0,0,0,0,0,0l0,0l0.7-1.9c0.1-0.2,0-0.3-0.2-0.4c-1.5-0.9-3.2-1.3-5-1.3H46c-3.2,0-5.5,1.9-5.5,4.7V90c0,2.9,2.5,3.9,4.8,4.5
	l0.4,0.1c1.7,0.5,3.2,1,3.2,2.2v0.1c0,1.1-0.9,1.9-2.5,1.9c-1.6,0-3.2-0.4-4.5-1.3c-0.2-0.1-0.4-0.3-0.6-0.4c-0.1-0.1-0.3-0.1-0.4,0
	l-0.1,0.1L40.1,99.2L40.1,99.2z M91.6,99.2c-0.1,0.3,0,0.3,0.1,0.4c0.3,0.2,0.7,0.4,1,0.6c1.6,0.8,3.3,1.2,5.1,1.2
	c3.5,0,5.7-1.9,5.7-4.9v-0.1c0-2.8-2.5-3.8-4.8-4.5l-0.3-0.1c-1.8-0.6-3.2-1.1-3.2-2.2v-0.1c0-1,0.9-1.7,2.2-1.7
	c1.5,0,3,0.4,4.4,1.1c0.2,0.1,0.4,0.1,0.5-0.1c0,0,0,0,0,0l0,0L103,87c0.1-0.2,0-0.3-0.2-0.4c-1.5-0.9-3.2-1.3-5-1.3h-0.4
	c-3.2,0-5.5,1.9-5.5,4.7l0,0c0,2.9,2.5,3.9,4.8,4.5l0.4,0.1c1.7,0.5,3.2,1,3.2,2.2v0.1c0,1.1-0.9,1.9-2.5,1.9
	c-1.6,0-3.2-0.4-4.5-1.3c-0.2-0.1-0.4-0.3-0.6-0.4c-0.1-0.1-0.3-0.1-0.4,0c0,0,0,0,0,0.1v0.1L91.6,99.2L91.6,99.2z M126.7,93.3
	c0.1,1.4-0.3,2.8-0.9,4c-1.2,1.6-3.4,1.9-5,0.7c0,0,0,0,0,0l-0.1-0.1l-0.6-0.6c-0.7-1.2-1-2.6-0.9-4c-0.1-1.4,0.2-2.8,0.9-4
	c1.2-1.6,3.4-1.9,5-0.7c0,0,0,0,0,0l0.1,0.1l0.6,0.6C126.4,90.5,126.8,91.9,126.7,93.3 M129.6,90.2c-0.3-0.9-0.7-1.8-1.3-2.5
	c-0.6-0.7-1.4-1.3-2.2-1.7c-2-0.8-4.3-0.8-6.3,0c-0.9,0.4-1.6,1-2.3,1.7c-0.6,0.7-1.1,1.6-1.3,2.5c-0.3,1-0.4,2.1-0.4,3.2
	c0,1.1,0.1,2.2,0.4,3.2c0.3,0.9,0.7,1.8,1.3,2.5c0.6,0.7,1.4,1.3,2.2,1.7c1,0.4,2.1,0.6,3.2,0.6c1.1,0,2.1-0.2,3.1-0.6
	c0.9-0.4,1.6-1,2.2-1.7c0.6-0.7,1.1-1.6,1.3-2.5c0.3-1,0.5-2.1,0.4-3.2C130.1,92.3,130,91.2,129.6,90.2 M153.7,98.2
	c0-0.1-0.2-0.2-0.3-0.2h-0.1c-0.4,0.2-0.9,0.3-1.4,0.4c-0.5,0.1-1.1,0.1-1.6,0.1c-1.3,0.1-2.5-0.4-3.4-1.3c-0.9-1.1-1.4-2.6-1.3-4
	c-0.1-1.4,0.3-2.8,1.1-3.9c0.8-1,2-1.5,3.3-1.4c1,0,2.1,0.1,3.1,0.4c0,0,0.2,0.1,0.3-0.2c0.3-0.7,0.4-1.2,0.7-2
	c0.1-0.1,0.1-0.2,0-0.3c0,0,0,0,0,0H154h-0.1c-0.7-0.2-1.3-0.4-2-0.5c-0.7-0.1-1.5-0.2-2.2-0.2c-1.1,0-2.2,0.2-3.3,0.6
	c-0.9,0.4-1.7,1-2.4,1.7c-0.6,0.7-1.1,1.6-1.4,2.5c-0.3,1-0.5,2.1-0.5,3.2c-0.1,2.1,0.6,4.2,2,5.8c1.3,1.5,3.2,2.2,5.8,2.2
	c1.4,0,2.8-0.2,4.1-0.7c0.1-0.1,0.2-0.2,0.1-0.4L153.7,98.2L153.7,98.2z M158.8,91.7c0.1-0.8,0.4-1.6,0.8-2.3c0.6-1,1.7-1.5,2.8-1.4
	c1.1-0.1,2.2,0.5,2.8,1.4c0.4,0.7,0.6,1.5,0.7,2.3H158.8z M168.7,89.6c-0.2-0.9-0.7-1.7-1.3-2.3c-0.5-0.6-1.2-1.1-1.9-1.4
	c-0.9-0.4-1.8-0.6-2.8-0.6c-1.1,0-2.2,0.2-3.3,0.6c-0.9,0.4-1.7,1-2.3,1.8c-0.6,0.8-1.1,1.6-1.3,2.6c-0.6,2.1-0.6,4.2,0,6.3
	c0.3,0.9,0.8,1.8,1.4,2.5c0.7,0.7,1.6,1.3,2.5,1.7c1.2,0.4,2.4,0.6,3.6,0.6c1.7,0.1,3.4-0.3,5-1c0.1-0.1,0.2-0.3,0.1-0.5l-0.7-1.8
	c-0.1-0.1-0.2-0.2-0.4-0.2l0,0c-1.3,0.5-2.7,0.8-4.1,0.7c-1.3,0.1-2.5-0.3-3.4-1.2c-0.8-0.9-1.2-2.1-1.1-3.3h9.9
	c0.2,0,0.3-0.1,0.3-0.3C169.2,92.4,169.1,91,168.7,89.6 M79.3,91.7c0.1-0.8,0.4-1.6,0.8-2.3c0.6-1,1.7-1.6,2.9-1.5
	c1.1-0.1,2.2,0.5,2.8,1.4c0.4,0.7,0.6,1.5,0.7,2.3L79.3,91.7z M89.2,89.6c-0.2-0.9-0.7-1.7-1.3-2.3c-0.5-0.6-1.2-1.1-1.9-1.4
	c-0.9-0.4-1.8-0.6-2.8-0.6c-1.1,0-2.2,0.2-3.3,0.6c-0.9,0.4-1.7,1-2.3,1.8c-0.6,0.8-1.1,1.6-1.3,2.6c-0.6,2.1-0.6,4.2,0,6.3
	c0.3,0.9,0.8,1.8,1.4,2.5c0.7,0.7,1.6,1.3,2.5,1.7c1.2,0.4,2.4,0.6,3.6,0.6c1.7,0.1,3.4-0.3,5-1c0.1-0.1,0.2-0.3,0.1-0.5l-0.7-1.8
	c-0.1-0.1-0.2-0.2-0.4-0.2l0,0c-1.3,0.5-2.7,0.8-4.1,0.7c-1.3,0.1-2.5-0.3-3.4-1.2c-0.8-0.9-1.2-2.1-1.1-3.3h10
	c0.2,0,0.3-0.1,0.3-0.3C89.7,92.4,89.6,91,89.2,89.6 M57.8,98.2l-0.6-0.6c-0.2-0.4-0.3-0.8-0.3-1.3c-0.1-0.7,0.3-1.5,0.9-1.9
	c0.9-0.6,1.9-0.8,2.9-0.7c0.9,0,1.8,0.1,2.7,0.2v4.5l0,0c-0.9,0.2-1.8,0.3-2.7,0.4C59.7,98.9,58.7,98.7,57.8,98.2 M61.8,91.2h-1.6
	c-0.8,0-1.6,0.1-2.4,0.3c-0.8,0.2-1.5,0.5-2.1,1c-0.6,0.4-1.1,1-1.4,1.6c-0.7,1.5-0.7,3.1,0,4.6c0.3,0.6,0.7,1.2,1.3,1.5
	c0.6,0.4,1.3,0.7,2,0.9c0.9,0.2,1.8,0.3,2.7,0.3c1,0,2-0.1,3-0.3c1-0.2,2.2-0.4,2.5-0.5l0.7-0.2c0.1,0,0.2-0.2,0.2-0.3V91
	c0-2-0.5-3.5-1.6-4.4c-1.3-1-2.9-1.5-4.6-1.4c-0.9,0-1.8,0.1-2.7,0.3c-1.1,0.2-2.1,0.6-3.1,1.1c-0.1,0.1-0.2,0.3-0.1,0.4l0.7,1.8
	c0,0.1,0.2,0.2,0.3,0.2l0,0c0.1,0,0.1,0,0.2-0.1c1.3-0.6,2.8-1,4.3-1c0.9-0.1,1.8,0.2,2.5,0.7c0.6,0.6,0.9,1.5,0.8,2.4v0.4
	C62.9,91.4,62.3,91.3,61.8,91.2 M141.9,86.1c0.1-0.1,0.1-0.2,0-0.3c0,0,0,0,0,0h-0.1l0,0c-0.6-0.2-1.1-0.3-1.7-0.3
	c-0.9-0.1-1.8,0-2.6,0.4c-0.6,0.3-1.2,0.7-1.7,1.2v-1.2c0-0.1-0.1-0.3-0.2-0.3c0,0,0,0,0,0H133c-0.1,0-0.3,0.1-0.3,0.2
	c0,0,0,0,0,0.1l0,0v14.8c0,0.1,0.1,0.3,0.2,0.3c0,0,0,0,0,0h2.7c0.1,0,0.3-0.1,0.3-0.2c0,0,0,0,0-0.1l0,0v-7.4
	c0-0.9,0.1-1.7,0.3-2.6c0.2-0.6,0.5-1.1,0.9-1.5c0.3-0.3,0.7-0.6,1.2-0.7c0.4-0.1,0.9-0.2,1.3-0.2c0.4,0,0.7,0,1.1,0.1
	c0.2,0,0.3-0.1,0.4-0.3C141.4,87.5,141.7,86.8,141.9,86.1"/>
<path class="st1" d="M117.4,79.2c-0.3-0.1-0.7-0.2-1-0.2c-0.4-0.1-0.9-0.1-1.3-0.1c-1.5-0.1-3.1,0.5-4.2,1.5c-1.1,1.3-1.8,2.8-2,4.5
	l-0.1,0.7h-2.2c-0.1,0-0.3,0.1-0.3,0.2c0,0,0,0,0,0.1l-0.4,2.1c0,0.1,0.1,0.3,0.2,0.3c0,0,0,0,0,0h2.3l-2.2,12.4
	c-0.1,0.8-0.3,1.6-0.6,2.4c-0.1,0.5-0.4,1-0.7,1.4c-0.2,0.3-0.5,0.6-0.9,0.7c-0.4,0.1-0.8,0.2-1.2,0.2c-0.3,0-0.5,0-0.8-0.1
	c-0.2,0-0.4-0.1-0.5-0.2c-0.1-0.1-0.2,0-0.3,0c0,0,0,0,0,0.1l0,0c-0.3,0.7-0.5,1.3-0.7,2c-0.1,0.2,0,0.3,0.2,0.4l0,0
	c0.3,0.1,0.6,0.2,0.9,0.3c0.5,0.1,1,0.1,1.5,0.1c0.8,0,1.6-0.1,2.4-0.4c0.7-0.3,1.3-0.7,1.8-1.3c0.6-0.6,1-1.4,1.3-2.2
	c0.4-1.1,0.7-2.2,0.9-3.3l2.2-12.7h3.3c0.1,0,0.3-0.1,0.3-0.2c0,0,0,0,0-0.1l0.4-2.1c0-0.1-0.1-0.3-0.2-0.3c0,0,0,0,0,0h-3.3
	c0.1-0.7,0.3-1.5,0.5-2.2c0.1-0.4,0.4-0.8,0.7-1.1c0.3-0.2,0.6-0.4,0.9-0.5c0.4-0.1,0.7-0.2,1.1-0.2c0.3,0,0.5,0,0.8,0.1
	c0.2,0.1,0.3,0.1,0.5,0.1c0.3,0.1,0.4,0,0.4-0.2l0.8-2.1C117.7,79.3,117.6,79.3,117.4,79.2 M73,100.7c0,0.1-0.1,0.3-0.2,0.3
	c0,0,0,0,0,0H70c-0.1,0-0.3-0.1-0.3-0.2c0,0,0,0,0-0.1l0,0V79.5c0-0.1,0.1-0.3,0.2-0.3c0,0,0,0,0,0h2.8c0.1,0,0.3,0.1,0.3,0.2
	c0,0,0,0,0,0.1l0,0V100.7z"/>
</svg>
