<?xml version="1.0" encoding="utf-8"?>
<!-- Generator: Adobe Illustrator 21.0.0, SVG Export Plug-In . SVG Version: 6.00 Build 0)  -->
<svg version="1.1" id="Layer_1" xmlns="http://www.w3.org/2000/svg" xmlns:xlink="http://www.w3.org/1999/xlink" x="0px" y="0px"
	 viewBox="0 0 200 200" style="enable-background:new 0 0 200 200;" xml:space="preserve">
<style type="text/css">
	.st0{clip-path:url(#SVGID_2_);}
	.st1{fill:#049FD9;}
</style>
<title>CSCO</title>
<g id="layer1">
	<g id="g270">
		<g>
			<g>
				<defs>
					<rect id="SVGID_1_" x="3" y="46.5" width="200" height="113.9"/>
				</defs>
				<clipPath id="SVGID_2_">
					<use xlink:href="#SVGID_1_"  style="overflow:visible;"/>
				</clipPath>
				<g class="st0">
					<g id="g272">
						<path id="path268" class="st1" d="M68,148.2h-8.2v-32.4H68V148.2z"/>
						<g id="g278">
							<path id="path280" class="st1" d="M134,125.1c-2.1-1.1-4.5-1.7-6.9-1.7c-5.4,0-9,3.6-9,8.6c0,4.7,3.4,8.6,9,8.6
								c2.4,0,4.8-0.6,6.9-1.7v8.6c-2.4,0.9-5,1.3-7.5,1.3c-9.2,0-17.2-6.4-17.2-16.8c0-9.7,7.3-16.8,17.2-16.8
								c2.5,0,5.1,0.4,7.5,1.1V125.1z"/>
						</g>
						<g id="g282">
							<path id="path284" class="st1" d="M48.6,125.1c-2.1-1.1-4.5-1.7-6.9-1.7c-5.4,0-9,3.6-9,8.6c0,4.7,3.4,8.6,9,8.6
								c2.4,0,4.8-0.6,6.9-1.7v8.6c-2.4,0.9-5,1.3-7.5,1.3c-9.2,0-17.2-6.5-17.2-16.8c0-9.7,7.3-16.8,17.2-16.8
								c2.5,0,5.1,0.4,7.5,1.1V125.1z"/>
						</g>
						<g id="g286">
							<path id="path288" class="st1" d="M159.7,123.5c-4.6,0-8.3,3.6-8.4,8.2c0,0.1,0,0.2,0,0.4c-0.1,4.7,3.6,8.5,8.3,8.6h0.1
								c4.7,0,8.6-3.9,8.6-8.6C168.2,127.4,164.4,123.5,159.7,123.5 M176.8,132.1c0,9.2-7.1,16.8-17.2,16.8
								c-10.1,0-17.2-7.5-17.2-16.8s7.1-16.8,17.2-16.8C169.8,115.4,176.8,122.7,176.8,132.1"/>
						</g>
						<g id="g290">
							<path id="path292" class="st1" d="M99.1,123.3c-2.1-0.6-4.3-1-6.4-1.1c-3.2,0-4.9,1.1-4.9,2.6c0,1.9,2.4,2.6,3.6,3l2.4,0.9
								c5.4,1.7,7.7,5.4,7.7,9.2c0,8.2-7.1,11-13.3,11c-2.9-0.1-5.9-0.4-8.8-0.9v-7.5c2.5,0.8,5.1,1.2,7.7,1.3c4.1,0,6-1.3,6-3
								s-1.7-2.6-3.6-3.2c-0.4-0.2-1.3-0.4-1.7-0.6c-4.5-1.5-8.4-4.1-8.4-9.5c0-6,4.5-10.1,12-10.1c2.7,0,5.4,0.3,7.9,1.1
								L99.1,123.3z"/>
						</g>
						<g id="g294">
							<path id="path296" class="st1" d="M15.1,81c0-2.3-1.8-4.1-4.1-4.1c-2.2,0-4,1.8-4,4.1v8.6c0.1,2.2,1.9,4,4.1,4.1
								c2.3,0,4.1-1.8,4.1-4.1L15.1,81z"/>
						</g>
						<g id="g298">
							<path id="path300" class="st1" d="M37.5,69.8c0-2.3-1.8-4.1-4.1-4.1c-2.3,0-4.1,1.8-4.1,4.1v19.8c0,2.3,1.8,4.1,4.1,4.1
								c2.3,0,4.1-1.8,4.1-4.1V69.8z"/>
						</g>
						<g id="g302">
							<path id="path304" class="st1" d="M59.9,54.5c0-2.3-1.8-4.1-4.1-4.1s-4.1,1.8-4.1,4.1v43c0,2.3,1.8,4.1,4.1,4.1
								s4.1-1.8,4.1-4.1V54.5z"/>
						</g>
						<g id="g306">
							<path id="path308" class="st1" d="M82,69.8c0-2.3-1.8-4.1-4.1-4.1c-2.3,0-4.1,1.8-4.1,4.1v19.8c0,2.3,1.8,4.1,4.1,4.1
								c2.3,0,4.1-1.8,4.1-4.1V69.8z"/>
						</g>
						<g id="g310">
							<path id="path312" class="st1" d="M104.4,81c0-2.3-1.8-4.1-4.1-4.1c-2.3,0-4.1,1.8-4.1,4.1v8.6c0,2.3,1.8,4.1,4.1,4.1
								c2.3,0,4.1-1.8,4.1-4.1V81z"/>
						</g>
						<g id="g314">
							<path id="path316" class="st1" d="M126.7,69.8c0-2.3-1.8-4.1-4.1-4.1c-2.3,0-4.1,1.8-4.1,4.1v19.8c0,2.3,1.8,4.1,4.1,4.1
								c2.3,0,4.1-1.8,4.1-4.1V69.8z"/>
						</g>
						<g id="g318">
							<path id="path320" class="st1" d="M149.2,54.5c0-2.3-1.8-4.1-4.1-4.1s-4.1,1.8-4.1,4.1v43c0,2.3,1.8,4.1,4.1,4.1
								s4.1-1.8,4.1-4.1V54.5z"/>
						</g>
						<g id="g322">
							<path id="path324" class="st1" d="M171.3,69.8c0-2.3-1.8-4.1-4.1-4.1s-4.1,1.8-4.1,4.1v19.8c0,2.3,1.8,4.1,4.1,4.1l0,0
								c2.2,0.1,4-1.6,4.1-3.8c0-0.1,0-0.2,0-0.3V69.8z"/>
						</g>
						<g id="g326">
							<path id="path328" class="st1" d="M193.6,81c0-2.3-1.8-4.1-4.1-4.1s-4.1,1.8-4.1,4.1v8.6c0,2.3,1.8,4.1,4.1,4.1
								s4.1-1.8,4.1-4.1V81z"/>
						</g>
					</g>
				</g>
			</g>
		</g>
	</g>
</g>
</svg>
