<?xml version="1.0" encoding="UTF-8"?>
<svg width="34px" height="20px" viewBox="0 0 34 20" version="1.1" xmlns="http://www.w3.org/2000/svg" xmlns:xlink="http://www.w3.org/1999/xlink">
    <!-- Generator: Sketch 49 (51002) - http://www.bohemiancoding.com/sketch -->
    <title>CUC</title>
    <desc>Created with Sketch.</desc>
    <defs></defs>
    <g id="Page-1" stroke="none" stroke-width="1" fill="none" fill-rule="evenodd">
        <g id="CUC" fill-rule="nonzero">
            <rect id="Rectangle-path" fill="#2F3C85" x="0" y="0" width="33.56" height="19.58"></rect>
            <path d="M0,15.67 L33.56,15.67 L33.56,11.76 L0,11.76 L0,15.67 Z M0,7.82 L33.56,7.82 L33.56,3.91 L0,3.91 L0,7.82 Z" id="Shape" fill="#FFFFFF"></path>
            <polygon id="Shape" fill="#D80031" points="0 0 0 19.58 16.93 9.81"></polygon>
            <polygon id="Shape" fill="#FFFFFF" points="5.65 6.53 4.64 9.62 6.19 10.12"></polygon>
            <polygon id="Shape" fill="#FFFFFF" points="5.65 6.53 6.63 9.62 5.08 10.12"></polygon>
            <polygon id="Shape" fill="#FFFFFF" points="8.75 8.8 5.49 8.8 5.49 10.4"></polygon>
            <polygon id="Shape" fill="#FFFFFF" points="8.75 8.8 6.1 10.69 5.15 9.39"></polygon>
            <polygon id="Shape" fill="#FFFFFF" points="2.53 8.8 5.18 10.69 6.13 9.39"></polygon>
            <polygon id="Shape" fill="#FFFFFF" points="2.53 8.8 5.81 8.8 5.81 10.4"></polygon>
            <polygon id="Shape" fill="#FFFFFF" points="7.55 12.42 6.54 9.33 4.99 9.84"></polygon>
            <polygon id="Shape" fill="#FFFFFF" points="7.55 12.42 4.93 10.5 5.87 9.21"></polygon>
            <polygon id="Shape" fill="#FFFFFF" points="3.73 12.42 6.35 10.5 5.4 9.21"></polygon>
            <polygon id="Shape" fill="#FFFFFF" points="3.73 12.42 4.74 9.33 6.29 9.84"></polygon>
        </g>
    </g>
</svg>