<?xml version="1.0" encoding="UTF-8"?>
<svg width="34px" height="20px" viewBox="0 0 34 20" version="1.1" xmlns="http://www.w3.org/2000/svg" xmlns:xlink="http://www.w3.org/1999/xlink">
    <!-- Generator: Sketch 49 (51002) - http://www.bohemiancoding.com/sketch -->
    <title>CVE</title>
    <desc>Created with Sketch.</desc>
    <defs></defs>
    <g id="Page-1" stroke="none" stroke-width="1" fill="none" fill-rule="evenodd">
        <g id="CVE" fill-rule="nonzero">
            <rect id="Rectangle-path" fill="#22368F" x="0" y="0" width="33.56" height="19.58"></rect>
            <rect id="Rectangle-path" fill="#FFFFFF" x="0" y="9.79" width="33.56" height="4.9"></rect>
            <rect id="Rectangle-path" fill="#BC0030" x="0" y="11.42" width="33.56" height="1.63"></rect>
            <polygon id="Shape" fill="#F3D02F" points="12.48 6.36 12.26 7.04 11.55 7.04 12.13 7.46 11.91 8.13 12.48 7.71 13.06 8.13 12.84 7.46 13.41 7.04 12.7 7.04"></polygon>
            <polygon id="Shape" fill="#F3D02F" points="9.6 7.3 9.38 7.98 8.67 7.98 9.25 8.39 9.03 9.07 9.6 8.65 10.18 9.07 9.96 8.39 10.53 7.98 9.82 7.98"></polygon>
            <polygon id="Shape" fill="#F3D02F" points="7.83 9.75 7.61 10.43 6.89 10.43 7.47 10.84 7.25 11.52 7.83 11.1 8.4 11.52 8.18 10.84 8.76 10.43 8.04 10.43"></polygon>
            <polygon id="Shape" fill="#F3D02F" points="7.83 12.77 7.61 13.45 6.89 13.45 7.47 13.86 7.25 14.54 7.83 14.13 8.4 14.54 8.18 13.86 8.76 13.45 8.04 13.45"></polygon>
            <polygon id="Shape" fill="#F3D02F" points="9.6 15.22 9.38 15.89 8.67 15.89 9.25 16.32 9.03 16.99 9.6 16.57 10.18 16.99 9.96 16.32 10.53 15.89 9.82 15.89"></polygon>
            <polygon id="Shape" fill="#F3D02F" points="12.48 16.15 12.26 16.83 11.55 16.83 12.13 17.25 11.91 17.92 12.48 17.5 13.06 17.92 12.84 17.25 13.41 16.83 12.7 16.83"></polygon>
            <polygon id="Shape" fill="#F3D02F" points="15.36 15.22 15.14 15.89 14.43 15.89 15 16.32 14.78 16.99 15.36 16.57 15.93 16.99 15.71 16.32 16.29 15.89 15.58 15.89"></polygon>
            <polygon id="Shape" fill="#F3D02F" points="17.14 9.75 16.91 10.43 16.2 10.43 16.78 10.84 16.56 11.52 17.14 11.1 17.71 11.52 17.49 10.84 18.07 10.43 17.35 10.43"></polygon>
            <polygon id="Shape" fill="#F3D02F" points="17.14 12.77 16.91 13.45 16.2 13.45 16.78 13.86 16.56 14.54 17.14 14.13 17.71 14.54 17.49 13.86 18.07 13.45 17.35 13.45"></polygon>
            <polygon id="Shape" fill="#F3D02F" points="15.36 7.3 15.14 7.98 14.43 7.98 15 8.39 14.78 9.07 15.36 8.65 15.93 9.07 15.71 8.39 16.29 7.98 15.58 7.98"></polygon>
        </g>
    </g>
</svg>