<svg xmlns="http://www.w3.org/2000/svg" xmlns:xlink="http://www.w3.org/1999/xlink" viewBox="0 0 33.56 19.58"><defs><style>.cls-1{fill:none;}.cls-2{clip-path:url(#clip-path);}.cls-3{fill:#fff;}.cls-4{fill:#dd7d21;}.cls-5{fill:#2c6752;}</style><clipPath id="clip-path"><rect class="cls-1" width="33.56" height="19.58"/></clipPath></defs><title>CYP</title><g id="Layer_2" data-name="Layer 2"><g id="_4" data-name="4"><g id="CYPRUSS"><g class="cls-2"><rect class="cls-3" width="33.56" height="19.58"/><g class="cls-2"><path class="cls-4" d="M14.35,5.95a.75.75,0,0,0,0,.34,3.41,3.41,0,0,1-.09,1.18.89.89,0,0,1-.5.4c-.11,0-.44-.21-.74-.3a.88.88,0,0,0-.42-.08,1.12,1.12,0,0,0-.5.18c-.05,0-.07,0-.1,0a1,1,0,0,0-.19.24c0,.08-.11.39-.21.42s-.36.29-.53.3a.84.84,0,0,1-.24,0c-.12,0-.13-.13-.24-.19a.39.39,0,0,1-.14-.12s0-.13-.08-.13-.09.22-.09.29a.87.87,0,0,0,.19.36c.06,0,.06.34,0,.42s.06.16.08.24-.1.14,0,.16a.24.24,0,0,1,.11.21c0,.1.24.13.29.22a1.44,1.44,0,0,1,.08.36c0,.1.07,0,.08.29l.29.16c.1,0,.08.16.21.21s.13,0,.19,0,0,0,.08.06.16,0,.25,0,.15.16.21.2l.36.13a.87.87,0,0,0,.22.08.48.48,0,0,0,.13-.06.44.44,0,0,0,.21,0c.1,0,.16-.13.23-.13s.08,0,.14,0a.66.66,0,0,0,.16,0,.41.41,0,0,1,.26,0,1,1,0,0,1,.37.5.81.81,0,0,1,0,.19.43.43,0,0,1,.18,0c.05,0,0,0,.4,0,0-.09-.37-.34,0-.69s.34-.21.42-.28a.88.88,0,0,1,.87-.08c.49-.08.13-.15.4-.16a.47.47,0,0,1,.24,0,.19.19,0,0,1,.21-.1.39.39,0,0,1,.29-.15c0-.11.37-.24.56-.26s.17-.4.62-.24c0-.1.09-.27.21-.31,0-.22-.06-.66.16-.8s.42-.15.79-.14.37.24.45.26a.22.22,0,0,0,.2-.05c.1-.06,0-.19.07-.19a.52.52,0,0,0,.18,0c.13,0,.11-.06.19-.08s.28,0,.34.06.07,0,.21.06a.23.23,0,0,0,.18.08s-.1,0-.06-.08a.27.27,0,0,0-.06-.25,1,1,0,0,1-.15-.15c0-.06,0-.06-.06-.14s-.26-.16-.3-.26,0-.16-.12-.24-.4-.36-.42-.64,0-.57.21-.66c0-.17,0-.2.21-.29s.2,0,.31,0a.38.38,0,0,0,.29-.06c.11-.08,0-.26.3-.51s.41-.39.5-.4.45-.26.59-.24a2.36,2.36,0,0,1,.34-.37c.13-.1.27-.1.34-.18s.05-.22.24-.35.36-.21.44-.28.26,0,.32-.08.06-.31.13-.36-.21.11-.36.18a1.16,1.16,0,0,1-.53.16c-.18,0-.08.1-.18.13s-.26,0-.32.08a2.64,2.64,0,0,1-.27.29c-.1.06-.15,0-.24.1l-.26.13a1.17,1.17,0,0,1-.32,0s-.21.27-.31.37-.21.08-.3.13A5.3,5.3,0,0,1,20,5.8c-.56.08-.31,0-.49,0s-.43.39-.64.4a1.47,1.47,0,0,1-.32,0c-.05,0-.31.16-.47.13a1.18,1.18,0,0,1-.48,0c-.07,0-.19.08-.37,0s-.14.05-.4,0-.45,0-.58,0-.11-.12-.21-.12-.09.07-.21.07-.13-.07-.22-.07a1.83,1.83,0,0,1-.36.05c-.14,0-.19-.08-.29-.08a4.58,4.58,0,0,1-.63-.22Z"/><path class="cls-5" d="M16,15.79a2,2,0,0,1,.91-.34c.38-.07.78-.18,1-.23a8.65,8.65,0,0,1-1,.33c-.23.07-1,.24-1,.24Z"/><path class="cls-5" d="M17.53,15.19A1.09,1.09,0,0,1,18.08,14a1.36,1.36,0,0,1-.55,1.18Z"/><path class="cls-5" d="M18.27,14.95c-.23-.4.16-.91.45-1.16a1.2,1.2,0,0,1-.45,1.16Z"/><path class="cls-5" d="M19,14.64c-.25-.34,0-.94.36-1.18A1.12,1.12,0,0,1,19,14.64Z"/><path class="cls-5" d="M19.64,14.21a1,1,0,0,1,.26-1.15c.23.27,0,.85-.26,1.15Z"/><path class="cls-5" d="M20.19,13.78a1.18,1.18,0,0,1,.35-1.23,1.17,1.17,0,0,1-.35,1.23Z"/><path class="cls-5" d="M20.62,13.66c-.05-.44.71-.92,1-.9,0,.36-.36.75-1,.9Z"/><path class="cls-5" d="M20.2,14.15a1.51,1.51,0,0,1,1.3-.29c-.06.21-.88.68-1.3.29Z"/><path class="cls-5" d="M19.7,14.52c.5-.13.83-.24,1.13.07-.21.27-1,.19-1.13-.07Z"/><path class="cls-5" d="M19,14.85a.94.94,0,0,1,1.15.34A1.14,1.14,0,0,1,19,14.85Z"/><path class="cls-5" d="M18.32,15.22a1.09,1.09,0,0,1,1.14.3.86.86,0,0,1-1.14-.3Z"/><path class="cls-5" d="M17.72,15.41a1.23,1.23,0,0,1,1.09.54c-.64.06-.89-.13-1.09-.54Z"/><path class="cls-5" d="M17.56,15.79a1.93,1.93,0,0,0-.91-.34c-.38-.07-.78-.18-1-.23a9.23,9.23,0,0,0,1,.33l.95.24Z"/><path class="cls-5" d="M16,15.19A1.08,1.08,0,0,0,15.48,14,1.38,1.38,0,0,0,16,15.19Z"/><path class="cls-5" d="M15.29,14.95c.24-.4-.16-.91-.45-1.16a1.2,1.2,0,0,0,.45,1.16Z"/><path class="cls-5" d="M14.61,14.64c.25-.34,0-.94-.36-1.18a1.12,1.12,0,0,0,.36,1.18Z"/><path class="cls-5" d="M13.92,14.21a1,1,0,0,0-.26-1.15c-.23.27,0,.85.26,1.15Z"/><path class="cls-5" d="M13.38,13.78A1.18,1.18,0,0,0,13,12.54a1.16,1.16,0,0,0,.35,1.23Z"/><path class="cls-5" d="M12.94,13.66c.06-.44-.7-.92-1-.9,0,.36.35.75,1,.9Z"/><path class="cls-5" d="M13.37,14.15a1.51,1.51,0,0,0-1.3-.29c.07.21.88.68,1.3.29Z"/><path class="cls-5" d="M13.86,14.52c-.5-.13-.83-.24-1.13.07.21.27,1,.19,1.13-.07Z"/><path class="cls-5" d="M14.57,14.85a.93.93,0,0,0-1.15.34,1.13,1.13,0,0,0,1.15-.34Z"/><path class="cls-5" d="M15.23,15.22a1.08,1.08,0,0,0-1.14.3.86.86,0,0,0,1.14-.3Z"/><path class="cls-5" d="M15.84,15.41a1.23,1.23,0,0,0-1.09.54c.64.06.89-.13,1.09-.54Z"/></g></g></g></g></g></svg>