<?xml version="1.0" encoding="utf-8"?>
<!-- Generator: Adobe Illustrator 21.0.0, SVG Export Plug-In . SVG Version: 6.00 Build 0)  -->
<svg version="1.1" id="Layer_1" xmlns="http://www.w3.org/2000/svg" xmlns:xlink="http://www.w3.org/1999/xlink" x="0px" y="0px"
	 viewBox="0 0 200 200" style="enable-background:new 0 0 200 200;" xml:space="preserve">
<style type="text/css">
	.st0{fill:#CC0033;}
	.st1{fill:#FFFFFF;}
</style>
<title>DCM</title>
<rect class="st0" width="200" height="200"/>
<path id="path8065" class="st1" d="M71.9,105.1c0,6.6,4.6,11.7,11.9,11.7h6.7v-6.2h-6.1c-3.9,0-6.1-2.4-6.1-5.5
	c0-3.1,2.2-5.5,6.1-5.5h6.1v-6.2h-6.7C76.5,93.4,71.9,98.6,71.9,105.1"/>
<path id="path8069" class="st1" d="M145.4,93.2c-2.8,0-5.5,0.9-7.7,2.6c-2.2-1.7-4.9-2.6-7.7-2.6c-5.5,0-9.3,3.9-9.3,9.5v14.3h6.4
	v-14c0-2.4,1.4-3.6,3.7-3.6c2.5,0,3.7,1.3,3.7,3.3v14.3h6.4v-14.3c0-2,1.2-3.3,3.7-3.3c2.3,0,3.7,1.2,3.7,3.6v14h6.3v-14.3
	C154.7,97,150.9,93.2,145.4,93.2"/>
<path id="path8073" class="st1" d="M170.1,111c-3.6,0-5.5-2.9-5.5-5.8s1.9-5.8,5.5-5.8s5.5,2.9,5.5,5.8S173.7,111,170.1,111
	 M170.1,93.1c-7.6,0-12,6.1-12,12s4.3,12,12,12s11.9-6.1,11.9-12S177.8,93.2,170.1,93.1"/>
<path id="path8077" class="st1" d="M24.1,105.1c0-2.9,1.9-5.8,5.5-5.8s5.4,2.8,5.5,5.7v0.3c-0.1,2.9-1.9,5.7-5.5,5.7
	S24.1,108.1,24.1,105.1 M35,82.8v11.8c-1.7-1-3.6-1.5-5.6-1.5c-7.7,0-11.8,6.2-11.8,12c0,5.8,4.1,12,11.8,12c5.8,0,7.9-2.9,12-4.8
	V82.8H35z"/>
<path id="path8081" class="st1" d="M60.4,82.8v1.6h-2.3v5.8h-1.6v-5.8h-2.3v-1.6H60.4z"/>
<path id="path8085" class="st1" d="M67.8,82.8v1.6h-2.3v5.8h-1.7v-5.8h-2.3v-1.6H67.8z"/>
<path id="path8089" class="st1" d="M48,82.8l3.3,4.8v-4.8h1.6v7.4h-1.7l-3.3-4.8v4.8h-1.6v-7.4L48,82.8z"/>
<path id="path8093" class="st1" d="M57,111c-3.6,0-5.5-2.9-5.5-5.8s1.9-5.8,5.5-5.8s5.5,2.9,5.5,5.8S60.5,111,57,111 M57,93.1
	c-7.6,0-11.9,6.1-11.9,12s4.3,12,12,12s11.9-6.1,11.9-12C68.9,99.2,64.6,93.2,57,93.1"/>
<path id="path8097" class="st1" d="M105.3,111c-3.6,0-5.5-2.9-5.5-5.8s1.9-5.8,5.5-5.8c3.6,0,5.5,2.9,5.5,5.8S108.9,111,105.3,111
	 M105.3,93.1c-7.6,0-12,6.1-12,12s4.3,12,12,12s11.9-6.1,11.9-12.1C117.2,99.2,112.9,93.2,105.3,93.1"/>
</svg>
