<?xml version="1.0" encoding="utf-8"?>
<!-- Generator: Adobe Illustrator 21.0.0, SVG Export Plug-In . SVG Version: 6.00 Build 0)  -->
<svg version="1.1" id="Layer_1" xmlns="http://www.w3.org/2000/svg" xmlns:xlink="http://www.w3.org/1999/xlink" x="0px" y="0px"
	 viewBox="0 0 200 200" style="enable-background:new 0 0 200 200;" xml:space="preserve">
<style type="text/css">
	.st0{fill:#FFFFFF;}
</style>
<title>DIS</title>
<rect width="200" height="200"/>
<g id="layer1">
	<g id="flowRoot4151">
		<path id="path4167" class="st0" d="M51.5,66.2c-0.7,0-1.7,0.2-3,0.2c-1.2,0-2.4-0.1-3.6-0.3c-1.2-0.3-1.8-0.7-1.8-1.7
			c0-10.5,18.6-10.9,26.5-10.9c5.8,0.1,11.7,0.7,17.3,2.1c6,1.4,12,3.1,17.9,5.2c8.5,2.8,21.9,10.2,32.6,19.1
			c10.9,8.7,19.5,20.1,19.5,31.7c0.1,5-1.2,9.9-3.9,14.1c-2.5,4-6,7.3-10,9.6c-3.9,2.7-8.8,4.5-14,5.8c-5.2,1.2-10.5,1.8-15.8,1.8
			c-5.6-0.1-11.2-0.7-16.7-1.7c-0.5,1.2-0.8,2.3-1.5,4.8c-1.3,0.4-2.7,0.7-4.1,0.6l-2.7-0.2c-1.7-2.1-2.2-5.4-3.1-9.1
			c-10.8-6.1-17.3-11.3-20.5-15c-1.4-1.5-2.7-3.1-3.9-4.7c-1.2-1.5-1.9-3.4-2-5.3c0-1.7,1.4-3.6,3.9-5.2c2.8-2.1,6.1-3.6,9.7-5
			c4.6-1.4,9.4-2.5,14.1-3.3l0.2-4.7c0-0.5,0.5-4.1,1.1-7.6c0.6-3.2,1.7-7,3-8.2c4.3,3.3,4.8,7.1,5.1,12.3c0.1,2.4,0.3,4.8,0.7,7.4
			H98c7.9,0,32.8,2,32.8,13.7c0,2.8-3.9,8-7.9,8c-1.5,0-4.1-0.5-5.3-1.4c1.1-0.9,2-2,3-2.9c1.1-0.8,2-1.7,2.1-2.6
			c-2.3-2.6-14.9-5.8-23.8-5.8c-1.1-0.1-2.2,0.1-3.1,0.5l0.1,24.9c1.7,1.2,3.8,2,5.9,2.3c1.7,0.2,3.4,0.3,5.1,0.3
			c6.5,0,16.5-0.6,24.4-3.8c8.2-3.1,14.9-8.8,14.9-19.1c0-20.4-26.1-35.9-45.5-43.6c-6.6-2.6-13.4-4.6-20.5-6
			c-6.7-1.4-13.8-1.8-21.6-1.8c-3.1,0-6.3,0.2-9.4,0.9c-1.8,0.3-2.8,0.9-2.8,1.5c0,0.7,4.1,1.2,4.5,1.5c0.4,0.2,0.7,0.5,0.6,0.9
			C51.8,65.6,51.7,66,51.5,66.2L51.5,66.2z M84.9,107.3c-9.9,0.9-22.9,2-23.1,6c0,2.9,5.4,6.8,8.7,9.4c4.3,3.4,9.3,5.8,14.6,7.1
			l1-22.5L84.9,107.3z"/>
	</g>
</g>
</svg>
