<svg xmlns="http://www.w3.org/2000/svg" xmlns:xlink="http://www.w3.org/1999/xlink" viewBox="0 0 33.56 19.58"><defs><style>.cls-1{fill:none;}.cls-2{clip-path:url(#clip-path);}.cls-3{fill:#2d6c41;}.cls-4{fill:#fff;}.cls-5{fill:#f3d02f;}.cls-6{fill:#c20038;}.cls-7{fill:#3d9546;}.cls-8{fill:#904a15;}.cls-9{fill:#8d5bc5;}</style><clipPath id="clip-path"><rect class="cls-1" width="33.56" height="19.58"/></clipPath></defs><title>DMA</title><g id="Layer_2" data-name="Layer 2"><g id="_4" data-name="4"><g id="DOMINICA"><g class="cls-2"><rect class="cls-3" width="33.56" height="19.58"/><rect class="cls-4" y="10.61" width="33.56" height="1.63"/><rect y="8.97" width="33.56" height="1.63"/><rect class="cls-5" y="7.34" width="33.56" height="1.63"/><rect class="cls-5" x="14.33" width="1.63" height="19.58"/><rect x="15.97" width="1.63" height="19.58"/><rect class="cls-4" x="17.6" width="1.63" height="19.58"/><g class="cls-2"><path class="cls-6" d="M21.68,9.79A4.9,4.9,0,1,1,16.79,4.9a4.9,4.9,0,0,1,4.89,4.89Z"/><path class="cls-3" d="M16.63,5.93l.16-.45.14.44h.48L17,6.21l.17.49s-.41-.3-.41-.3l-.41.29s.16-.48.16-.48l-.37-.28Z"/><path d="M17.19,6.74v0l-.41-.3c-.09.08-.37.27-.38.29a2.58,2.58,0,0,1,.13-.49l-.37-.26.47,0a4.51,4.51,0,0,1,.15-.44l.17.44h.45a0,0,0,0,1,0,0c-.07.07-.26.22-.34.29.13.33.16.43.17.47h0l0,0ZM16.77,5.5a4.44,4.44,0,0,1-.13.43l-.48,0,.38.25a4.58,4.58,0,0,1-.14.48,3,3,0,0,1,.38-.3l.39.27L17,6.22s.25-.2.34-.28h-.42l-.15-.44Z"/><path class="cls-3" d="M16.94,13.66l-.16.45-.15-.44h-.48l.38-.29-.17-.49.42.3.41-.29s-.16.48-.16.48l.37.28Z"/><path d="M16.78,14.16l-.16-.49h-.45a0,0,0,0,1,0,0,4,4,0,0,1,.34-.29l-.17-.47h0v0s.29.19.44.3l.38-.28h0a3.3,3.3,0,0,1-.13.48l.36.26-.46,0s0,.1-.15.44l0,0Zm-.56-.52h.42l.15.41.14-.4.48,0L17,13.39c0-.06.12-.41.15-.48a3.13,3.13,0,0,1-.38.29l-.43-.3a4.11,4.11,0,0,1,.19.47s-.24.2-.34.28Z"/><path class="cls-3" d="M19.06,7l-.16.45L18.76,7h-.48l.38-.29-.17-.49.41.3.41-.29s-.16.47-.16.47l.37.28Z"/><path d="M18.9,7.53,18.74,7h-.45a0,0,0,0,1,0,0c.06-.07.23-.19.34-.29l-.17-.47h0s0,0,0,0,.29.19.43.3l.38-.29h0a3.31,3.31,0,0,1-.13.48l.37.26-.47,0a4,4,0,0,1-.15.44v0ZM18.34,7h.42l.14.41L19,7l.48,0-.38-.25c0-.06.12-.41.15-.49a3.17,3.17,0,0,1-.38.3l-.42-.3a4.61,4.61,0,0,1,.19.47s-.24.2-.34.28Z"/><path class="cls-3" d="M20.43,11l-.16.45-.14-.44h-.48l.38-.29-.17-.49.42.3.41-.29s-.16.48-.16.48l.37.28Z"/><path d="M20.27,11.54l-.15-.49h-.46s0,0,0,0,.23-.2.34-.29l-.17-.47h0a0,0,0,0,1,0,0s.29.19.44.3l.38-.29h0a3.55,3.55,0,0,1-.13.48l.37.26-.47,0s0,.1-.15.44l0,0ZM19.71,11h.43l.14.41.14-.4.48,0-.38-.25a4.57,4.57,0,0,1,.14-.48,2.92,2.92,0,0,1-.38.3l-.42-.3a4.26,4.26,0,0,1,.19.47,4.1,4.1,0,0,1-.34.28Z"/><path class="cls-3" d="M13.45,11.16l-.16.45-.14-.44h-.48l.38-.29-.17-.49.41.3.41-.29s-.16.48-.16.48l.37.28Z"/><path d="M13.29,11.66l-.16-.49h-.45s0,0,0,0a4.21,4.21,0,0,1,.34-.29c-.12-.33-.16-.43-.17-.47h0v0s.29.19.44.3l.38-.28h0a3.39,3.39,0,0,1-.13.48l.36.26-.46,0s0,.1-.15.44l0,0Zm-.57-.52h.42l.14.41.14-.4.48,0-.38-.25c0-.06.12-.41.15-.48a3.28,3.28,0,0,1-.38.3l-.43-.3a4.34,4.34,0,0,1,.19.47l-.34.28Z"/><path class="cls-3" d="M14.71,7.08l-.16.45-.14-.44h-.48l.38-.29-.17-.49s.41.3.41.3L15,6.31s-.16.48-.16.48l.37.28Z"/><path d="M14.56,7.58l-.15-.49h-.46a0,0,0,0,1,0,0c.06-.07.23-.19.34-.28-.12-.33-.16-.43-.17-.47h0s0,0,0,0,.29.19.44.3L15,6.3h0a3.33,3.33,0,0,1-.13.48l.37.26-.46,0s0,.1-.15.44l0,0ZM14,7.06h.42l.14.41.14-.4.48,0L14.8,6.8c0-.06.12-.41.15-.48a3.51,3.51,0,0,1-.38.3l-.43-.3a4.35,4.35,0,0,1,.19.47,3.92,3.92,0,0,1-.34.28Z"/><path class="cls-3" d="M13.11,8.55l.16-.45.14.44h.48l-.38.29.17.49L13.26,9l-.41.29s.16-.48.16-.48l-.37-.28Z"/><path d="M13.68,9.36v0L13.25,9l-.38.29A2.42,2.42,0,0,1,13,8.83l-.37-.26.46,0s0-.1.15-.44l.18.44h.46v0h0a0,0,0,0,1,0,0c-.06.07-.23.19-.34.28.13.33.16.43.17.47h0s0,0,0,0v0Zm-.43-1.24a4,4,0,0,1-.13.43l-.48,0,.38.25a4.32,4.32,0,0,1-.14.48,3.26,3.26,0,0,1,.38-.3l.39.27-.16-.44s.24-.2.34-.28h-.42l-.16-.44Z"/><path class="cls-3" d="M14.47,12.55l.15-.45.15.44h.48l-.38.29.17.49-.41-.3-.41.29s.16-.48.16-.48L14,12.56Z"/><path d="M15,13.36v0l-.41-.3-.39.29a2.44,2.44,0,0,1,.13-.49L14,12.57l.46,0s0-.1.15-.44l.17.44h.45s0,0,0,0a3.42,3.42,0,0,1-.34.28l.18.47h0s0,0,0,0l0,0Zm-.42-1.24a3.09,3.09,0,0,1-.13.43l-.48,0,.38.25a4.8,4.8,0,0,1-.15.48,3.12,3.12,0,0,1,.38-.3l.39.27c0-.12-.15-.44-.15-.44s.24-.2.34-.28h-.42l-.16-.44Z"/><path class="cls-3" d="M20.09,8.44,20.25,8l.14.44h.48l-.38.29.17.49-.41-.3-.4.29s.15-.48.15-.48l-.37-.28Z"/><path d="M20.66,9.25v0l-.41-.3-.38.29A2.44,2.44,0,0,1,20,8.72l-.37-.26.47,0A4.35,4.35,0,0,1,20.24,8l.17.44a4.05,4.05,0,0,1,.41,0h0l0,0c-.07.07-.26.22-.34.29l.17.47h0s0,0,0,0l0,0ZM20.24,8a3.76,3.76,0,0,1-.13.43l-.48,0,.38.25a4.77,4.77,0,0,1-.15.48,3.27,3.27,0,0,1,.38-.3l.39.27-.16-.44.34-.27h-.42L20.24,8Z"/><path class="cls-3" d="M18.82,12.52l.16-.45.14.44h.48l-.38.29.17.49L19,13l-.41.29s.16-.48.16-.48l-.37-.28Z"/><path d="M19.39,13.33v0L19,13l-.38.29a2.25,2.25,0,0,1,.13-.49l-.37-.27.47,0a4,4,0,0,1,.15-.44l.18.44h.46v0h0c-.06.07-.23.2-.34.29.12.33.16.43.17.47h0s0,0,0,0l0,0ZM19,12.08c0,.07-.13.42-.13.44l-.48,0,.38.25c0,.06-.12.41-.14.48A3,3,0,0,1,19,13l.39.27-.15-.44.34-.28h-.42L19,12.08Z"/><path class="cls-7" d="M13.49,8.72h0Z"/><path class="cls-7" d="M17.7,11.69h0Z"/><path class="cls-7" d="M16.47,16.4h0Z"/><path class="cls-7" d="M10.59,16.4h0Z"/><path class="cls-7" d="M9.51,11.57h0Z"/><path class="cls-7" d="M22.42,2.81h0Z"/><path class="cls-7" d="M24.11,7.41h0Z"/><path class="cls-7" d="M19.91,10.78h0Z"/><path class="cls-7" d="M16,7.41h0Z"/><path class="cls-7" d="M17.42,2.88h0Z"/><path class="cls-3" d="M17.35,9.64c.16,0,.34.62.4,1.41s0,1.45-.19,1.47-.34-.61-.39-1.41,0-1.45.18-1.47Z"/><path d="M17.55,12.54c-.2,0-.36-.73-.4-1.42s0-1.47.2-1.49h0c.2,0,.36.73.41,1.42s0,1.47-.2,1.49Zm-.19-2.88c-.14,0-.24.6-.18,1.45s.24,1.39.37,1.39v0c.13,0,.24-.6.18-1.45s-.24-1.39-.37-1.39Z"/><path class="cls-3" d="M17.64,9.64c.17,0,.36.61.41,1.41s0,1.45-.21,1.47-.35-.61-.41-1.41,0-1.45.2-1.47Z"/><path d="M17.84,12.54c-.21,0-.37-.73-.42-1.42s0-1.47.22-1.49h0c.21,0,.38.73.43,1.42s0,1.47-.22,1.49Zm-.2-2.88c-.15,0-.25.6-.2,1.45s.25,1.39.39,1.39v0c.14,0,.25-.6.19-1.45s-.25-1.39-.39-1.39Z"/><path class="cls-3" d="M17.5,9.57c.13,0,.29.69.35,1.56s0,1.6-.13,1.62-.3-.69-.36-1.56,0-1.6.13-1.62Z"/><path d="M17.71,12.76c-.17,0-.32-.81-.37-1.58s0-1.62.15-1.63h0c.17,0,.32.81.37,1.58s0,1.62-.15,1.63ZM17.5,9.58c-.11,0-.19.67-.12,1.6s.23,1.55.34,1.55v0c.11,0,.18-.67.12-1.6s-.22-1.55-.34-1.55Z"/><path class="cls-8" d="M15.34,11.83c.25,0,.14-.14.27-.21a.29.29,0,0,1,.36.07c.05.09,0,.17.08.18a18.89,18.89,0,0,1,2,0,.21.21,0,0,1,0,.28,18.5,18.5,0,0,1-2.54,0,1,1,0,0,1-.2-.33Z"/><path d="M16.44,12.21a5.56,5.56,0,0,1-.91,0,1,1,0,0,1-.21-.34c.16,0,.17-.07.19-.12a.19.19,0,0,1,.08-.11.32.32,0,0,1,.38.07.2.2,0,0,1,0,.11s0,.05,0,.05h.18l1.34,0c.48,0,.5,0,.51,0a.25.25,0,0,1,.06.18.15.15,0,0,1-.05.12,14,14,0,0,1-1.65.06Zm-.7-.61a.26.26,0,0,0-.13,0,.14.14,0,0,0-.07.09c0,.06,0,.12-.21.13,0,0,.13.24.21.3a5.6,5.6,0,0,0,.89,0,14.78,14.78,0,0,0,1.63-.05.13.13,0,0,0,0-.09.22.22,0,0,0,0-.16,2,2,0,0,0-.49,0l-1.33,0H16c-.05,0-.06,0-.06-.08a.2.2,0,0,0-.24-.19Z"/><path class="cls-5" d="M16.67,12c0,.19.28.13.28.29s-.47,0-.47-.29.47-.46.47-.28-.28.1-.28.29Z"/><path d="M16.86,12.39a.43.43,0,0,1-.39-.38c0-.33.5-.46.51-.28s-.07.11-.13.14-.15.06-.15.15.07.12.13.15.14.06.14.14,0,.09-.11.09Zm0-.72a.4.4,0,0,0-.36.34.39.39,0,0,0,.36.35s.08,0,.08-.05-.06-.09-.12-.11-.16-.07-.16-.18.09-.15.17-.18.12,0,.11-.1,0-.06-.08-.06Z"/><path class="cls-5" d="M16.84,12c0,.19.27.14.28.29s-.47,0-.47-.3.47-.45.48-.28-.28.1-.28.28Z"/><path d="M17,12.39a.43.43,0,0,1-.39-.38c0-.33.5-.46.5-.28s-.06.11-.13.14-.14.06-.14.15.07.12.13.15.14.06.14.15,0,.08-.11.08Zm0-.72a.41.41,0,0,0-.37.34.4.4,0,0,0,.37.34s.07,0,.08-.05-.06-.08-.12-.11-.15-.07-.15-.18.09-.15.17-.18.12-.05.11-.11,0-.06-.08-.06Z"/><path class="cls-5" d="M17,12c0,.19.28.13.28.29s-.47,0-.47-.29.47-.46.47-.28S17,11.82,17,12Z"/><path d="M17.2,12.39A.43.43,0,0,1,16.8,12c0-.33.5-.46.51-.28s-.07.11-.13.14S17,11.92,17,12s.06.12.14.15.14.06.14.14,0,.08-.11.08Zm0-.72a.4.4,0,0,0-.36.34.4.4,0,0,0,.36.35s.08,0,.08-.05-.06-.09-.12-.11S17,12.12,17,12s.09-.15.17-.18.11,0,.11-.1,0-.06-.08-.06Z"/><path class="cls-5" d="M17.18,12c0,.19.27.13.28.29s-.47,0-.47-.3.47-.46.47-.28-.28.09-.28.28Z"/><path d="M17.37,12.39A.43.43,0,0,1,17,12c0-.33.5-.46.51-.28s-.07.11-.14.13-.14.06-.15.15.07.12.14.15.14.06.14.14,0,.08-.11.08Zm0-.72A.41.41,0,0,0,17,12a.41.41,0,0,0,.37.35s.07,0,.08-.05-.06-.09-.12-.11-.16-.07-.16-.18.09-.15.17-.18.12,0,.11-.1,0-.06-.08-.06Z"/><path class="cls-8" d="M18,11.83a.16.16,0,0,1,0,.32.16.16,0,0,1-.15-.16.16.16,0,0,1,.16-.16Z"/><path d="M18,12.17h0a.16.16,0,0,1-.12-.05.18.18,0,0,1-.05-.13.18.18,0,0,1,.3-.12.18.18,0,0,1-.13.3Zm0-.32a.14.14,0,0,0-.14.14.17.17,0,0,0,0,.1.15.15,0,0,0,.1,0v0A.14.14,0,0,0,18.1,12a.14.14,0,0,0,0-.1.14.14,0,0,0-.1,0Z"/><path class="cls-3" d="M17,11.14c.08,0,.15.12.17.29s0,.32-.11.34-.16-.12-.17-.29,0-.32.11-.33Z"/><path d="M17,11.78c-.08,0-.16-.13-.18-.31s0-.34.12-.35h0c.1,0,.18.13.2.31s0,.34-.12.35Zm0-.62c-.07,0-.12.14-.1.32s.09.28.15.28v0c.06,0,.11-.14.09-.32s-.09-.28-.15-.28Z"/><path class="cls-3" d="M16.74,11.12c.08,0,.15.12.17.29s0,.32-.11.33-.16-.12-.17-.29,0-.32.11-.33Z"/><path d="M16.79,11.76c-.08,0-.16-.13-.18-.31s0-.34.12-.35h0c.09,0,.17.13.19.3s0,.34-.12.35Zm0-.62c-.07,0-.12.14-.1.32s.09.28.15.28v0c.06,0,.11-.14.09-.32s-.09-.28-.15-.28Z"/><path class="cls-3" d="M16.56,10.81c.08,0,.16.12.18.29s0,.32-.11.33-.16-.12-.17-.29,0-.32.11-.33Z"/><path d="M16.62,11.45c-.08,0-.16-.13-.18-.31s0-.34.12-.35h0c.1,0,.18.13.19.3s0,.34-.12.35Zm0-.62c-.06,0-.12.14-.1.31s.09.28.15.28v0c.06,0,.12-.14.1-.32s-.09-.28-.15-.28Z"/><path class="cls-3" d="M16.8,10.76c.07,0,.15.13.17.32s0,.35-.1.36-.15-.13-.17-.32,0-.35.1-.37Z"/><path d="M16.87,11.47c-.08,0-.16-.15-.18-.34s0-.37.11-.38h0c.09,0,.17.14.19.33s0,.37-.11.38Zm-.05-.69c-.06,0-.11.15-.09.35s.09.31.14.31v0c.06,0,.1-.15.09-.35s-.09-.31-.15-.31Z"/><path class="cls-7" d="M17.14,10.79c.07,0,.15.12.17.3s0,.33-.1.34-.15-.12-.17-.3,0-.33.1-.34Z"/><path d="M17.2,11.45c-.08,0-.15-.13-.17-.32s0-.35.11-.36h0c.09,0,.17.13.19.32s0,.35-.11.36Zm-.05-.65c-.06,0-.11.14-.09.33s.09.29.14.29v0c.06,0,.11-.14.09-.32s-.09-.29-.15-.29Z"/><path class="cls-7" d="M17,10.68c.07,0,.15.13.17.3s0,.33-.1.34-.15-.12-.17-.3,0-.33.11-.34Z"/><path d="M17,11.34c-.08,0-.16-.13-.18-.32s0-.35.12-.36h0c.09,0,.17.13.19.32s0,.34-.12.36ZM17,10.69c-.07,0-.11.14-.1.33s.09.29.15.29v0c.05,0,.11-.14.08-.33s-.09-.29-.14-.29Z"/><path class="cls-7" d="M16.72,10.52c.07,0,.15.12.17.3s0,.33-.1.34-.15-.12-.17-.3,0-.33.1-.34Z"/><path d="M16.78,11.18c-.08,0-.16-.14-.18-.32s0-.35.12-.36h0c.09,0,.17.14.19.32s0,.35-.11.36Zm0-.65c-.06,0-.12.14-.1.33s.09.29.14.29h0c.06,0,.1-.14.09-.33s-.09-.29-.14-.29Z"/><path class="cls-3" d="M16.51,10.42c.07,0,.15.12.17.3s0,.33-.1.34-.15-.12-.17-.3,0-.33.1-.34Z"/><path d="M16.57,11.08c-.08,0-.16-.14-.18-.32s0-.35.12-.36h0c.09,0,.17.14.19.32s0,.35-.12.36Zm-.05-.65c-.07,0-.11.14-.1.33s.09.28.15.28v0c.06,0,.11-.14.09-.32s-.09-.29-.14-.29Z"/><path class="cls-9" d="M16.3,8.07a1.92,1.92,0,0,0-.42,1.54,2.13,2.13,0,0,0,1.05,1.66A2,2,0,0,0,17.16,10a3.52,3.52,0,0,0-.54-1.91Z"/><path d="M16.94,11.29h0a2.15,2.15,0,0,1-1.06-1.67,2,2,0,0,1,.43-1.55l.33.05A3.45,3.45,0,0,1,17.18,10a2,2,0,0,1-.23,1.24Zm-.64-3.2a2,2,0,0,0-.41,1.52,2.14,2.14,0,0,0,1,1.64A2.14,2.14,0,0,0,17.14,10a3.48,3.48,0,0,0-.54-1.9l-.3-.05Z"/><path class="cls-3" d="M17.4,11.17c.08,0,.13.14.12.32s-.09.31-.16.31-.13-.15-.12-.32.08-.31.17-.31Z"/><path d="M17.36,11.81h0a.09.09,0,0,1-.07,0,.43.43,0,0,1-.07-.3c0-.18.09-.32.18-.32a.09.09,0,0,1,.07,0,.43.43,0,0,1,.07.3c0,.18-.09.32-.18.32Zm0-.62c-.06,0-.13.12-.14.29a.4.4,0,0,0,.05.28l0,0v0c.06,0,.14-.12.15-.29a.4.4,0,0,0-.06-.27l0,0Z"/><path class="cls-3" d="M17.17,11.11c.08,0,.13.14.12.31s-.09.31-.17.31-.13-.14-.12-.31.08-.31.16-.31Z"/><path d="M17.13,11.75h0a.1.1,0,0,1-.07,0,.4.4,0,0,1-.07-.3c0-.18.09-.32.18-.32a.11.11,0,0,1,.07,0,.39.39,0,0,1,.06.3c0,.18-.09.33-.18.33Zm0-.62c-.06,0-.13.12-.15.29a.39.39,0,0,0,.06.27l0,0v0c.06,0,.13-.12.15-.29a.4.4,0,0,0-.06-.28l0,0Z"/><path class="cls-3" d="M17.06,10.78c.08,0,.13.14.12.32s-.09.31-.17.31-.13-.14-.12-.32.09-.31.17-.31Z"/><path d="M17,11.42h0a.11.11,0,0,1-.07,0,.43.43,0,0,1-.07-.3c0-.18.09-.32.18-.32a.11.11,0,0,1,.07,0,.45.45,0,0,1,.07.3c0,.18-.09.33-.18.33Zm0-.63c-.06,0-.14.12-.15.29a.39.39,0,0,0,.06.27l0,0v0c.06,0,.14-.12.15-.29a.39.39,0,0,0-.06-.28l0,0Z"/><path class="cls-3" d="M17.3,10.78c.08,0,.13.16.11.35s-.09.34-.16.34-.12-.16-.11-.35.09-.34.16-.34Z"/><path d="M17.25,11.48h0a.09.09,0,0,1-.06,0,.52.52,0,0,1-.07-.33c0-.26.16-.41.24-.33a.51.51,0,0,1,.07.34c0,.2-.09.36-.18.36Zm.05-.69c-.06,0-.13.13-.14.33a.47.47,0,0,0,.06.31l0,0v0c.06,0,.13-.13.15-.33a.47.47,0,0,0-.06-.31l0,0Z"/><path class="cls-3" d="M17.63,10.86c.07,0,.13.15.12.33s-.09.32-.16.32-.13-.15-.12-.33.09-.32.16-.32Z"/><path d="M17.58,11.52h0a.09.09,0,0,1-.06,0,.45.45,0,0,1-.07-.31c0-.19.09-.34.18-.34a.08.08,0,0,1,.06,0,.43.43,0,0,1,.06.31c0,.19-.09.34-.17.34Zm0-.65c-.06,0-.13.12-.15.3a.47.47,0,0,0,.06.29l0,0v0c.05,0,.13-.12.14-.3a.46.46,0,0,0-.05-.29l0,0Z"/><path class="cls-3" d="M17.47,10.72c.08,0,.13.15.11.33s-.08.32-.16.32-.12-.15-.11-.33.09-.32.16-.32Z"/><path d="M17.42,11.38h0a.1.1,0,0,1-.06,0,.44.44,0,0,1-.06-.31c0-.19.09-.33.17-.33a.08.08,0,0,1,.06,0,.46.46,0,0,1,.07.31c0,.19-.09.33-.18.33Zm0-.65c-.06,0-.13.12-.14.31a.42.42,0,0,0,.06.29l0,0v0c.06,0,.13-.12.14-.3a.44.44,0,0,0-.06-.29l0,0Z"/><path class="cls-3" d="M17.27,10.52c.07,0,.13.15.11.33s-.09.32-.16.32-.13-.15-.11-.33.09-.32.16-.32Z"/><path d="M17.22,11.18h0a.09.09,0,0,1-.06,0,.45.45,0,0,1-.06-.31c0-.19.09-.33.17-.33a.08.08,0,0,1,.06,0,.46.46,0,0,1,.07.31c0,.19-.09.34-.18.34Zm0-.65c-.06,0-.13.12-.14.3a.42.42,0,0,0,.06.29l0,0v0c.06,0,.13-.12.14-.3a.42.42,0,0,0-.06-.29l0,0Z"/><path class="cls-3" d="M17.07,10.38c.07,0,.13.15.11.33S17.1,11,17,11s-.13-.15-.11-.33.08-.32.16-.32Z"/><path d="M17,11h0A.07.07,0,0,1,17,11a.45.45,0,0,1-.07-.31c0-.19.09-.33.18-.33a.09.09,0,0,1,.06,0,.47.47,0,0,1,.06.31c0,.19-.09.33-.17.33Zm0-.65c-.06,0-.13.12-.15.3A.43.43,0,0,0,17,11l0,0v0c.06,0,.13-.12.15-.3a.43.43,0,0,0-.06-.29l0,0Z"/><path class="cls-6" d="M16.83,8.86c.21-.08.6.36.87,1s.32,1.2.11,1.28-.6-.36-.87-1-.32-1.21-.11-1.28Z"/><path d="M17.75,11.17c-.23,0-.57-.43-.83-1a1.89,1.89,0,0,1-.2-1.2.17.17,0,0,1,.1-.11c.21-.08.61.36.88,1a1.91,1.91,0,0,1,.2,1.19.19.19,0,0,1-.1.11Zm-.87-2.3h0a.18.18,0,0,0-.09.09A1.89,1.89,0,0,0,17,10.14c.26.61.64,1.06.84,1a.17.17,0,0,0,.08-.09,1.89,1.89,0,0,0-.21-1.17c-.24-.57-.58-1-.8-1Z"/><path class="cls-7" d="M17,8.68a.17.17,0,0,1,.17.16A.17.17,0,0,1,17,9a.16.16,0,1,1,0-.31Z"/><path d="M17,9h0a.18.18,0,0,1-.19-.18A.18.18,0,0,1,17,8.66a.18.18,0,0,1,.19.18A.18.18,0,0,1,17,9Zm0-.31a.16.16,0,0,0-.16.14A.15.15,0,0,0,17,9V9a.14.14,0,1,0,0-.28Z"/><path class="cls-7" d="M17.14,8.46a.16.16,0,0,1,.15.16.15.15,0,0,1-.16.15.15.15,0,1,1,0-.31Z"/><path d="M17.14,8.79h0A.17.17,0,0,1,17,8.74a.15.15,0,0,1,0-.12.17.17,0,0,1,.17-.17.18.18,0,0,1,.13.05.16.16,0,0,1,0,.12.17.17,0,0,1-.17.17Zm0-.31a.14.14,0,0,0-.14.14.11.11,0,0,0,0,.1.13.13,0,0,0,.1,0v0a.14.14,0,0,0,.1-.24.15.15,0,0,0-.1,0Z"/><path class="cls-7" d="M16.93,8.46a.16.16,0,0,1,.15.16.15.15,0,0,1-.16.15.15.15,0,1,1,0-.31Z"/><path d="M16.93,8.78h0a.17.17,0,1,1,.13-.29.18.18,0,0,1,0,.12.17.17,0,0,1-.17.17Zm0-.31a.14.14,0,0,0-.14.14.14.14,0,0,0,.14.14v0a.14.14,0,0,0,.14-.14.13.13,0,0,0,0-.1.14.14,0,0,0-.1,0Z"/><path class="cls-3" d="M17,8.31a.15.15,0,1,1,0,.29.15.15,0,1,1,0-.29Z"/><path d="M17,8.61h0a.2.2,0,0,1-.13-.06.15.15,0,0,1,0-.11A.17.17,0,0,1,17,8.29a.21.21,0,0,1,.14.06.15.15,0,0,1,0,.11.17.17,0,0,1-.18.16Zm0-.29a.14.14,0,0,0-.15.13.13.13,0,0,0,0,.08.16.16,0,0,0,.11,0v0a.14.14,0,0,0,.15-.13.11.11,0,0,0,0-.08.15.15,0,0,0-.11,0Z"/><path class="cls-3" d="M17,8.12a.15.15,0,1,1,0,.29.16.16,0,0,1-.16-.15A.16.16,0,0,1,17,8.12Z"/><path d="M17,8.43h0a.18.18,0,0,1-.18-.17A.17.17,0,0,1,17,8.1a.18.18,0,0,1,.18.17.17.17,0,0,1-.18.16Zm0-.29a.13.13,0,1,0,0,.26v0a.14.14,0,0,0,.15-.13A.14.14,0,0,0,17,8.14Z"/><path class="cls-3" d="M16.73,8.33a.16.16,0,1,1,0,.31.16.16,0,0,1-.16-.16.16.16,0,0,1,.16-.15Z"/><path d="M16.72,8.66h0a.19.19,0,0,1-.12-.05.17.17,0,0,1,0-.12.17.17,0,0,1,.17-.17.18.18,0,0,1,.13.05.19.19,0,0,1,0,.12.18.18,0,0,1-.17.17Zm0-.31a.14.14,0,0,0-.14.14.14.14,0,0,0,0,.1.14.14,0,0,0,.1,0v0a.14.14,0,0,0,.14-.14.13.13,0,0,0,0-.1.14.14,0,0,0-.1,0Z"/><path class="cls-3" d="M16.77,8.14a.15.15,0,0,1,.15.15.15.15,0,0,1-.16.15.15.15,0,0,1-.15-.15.15.15,0,0,1,.16-.15Z"/><path d="M16.77,8.46h0a.17.17,0,0,1-.17-.17.17.17,0,0,1,.35,0,.17.17,0,0,1-.17.17Zm0-.3a.14.14,0,0,0-.14.13.14.14,0,0,0,.14.14v0a.14.14,0,1,0,0-.27Z"/><path class="cls-3" d="M16.51,8.14a.16.16,0,1,1,0,.31.16.16,0,1,1,0-.31Z"/><path d="M16.51,8.47h0a.2.2,0,0,1-.14-.06.16.16,0,0,1,0-.12.19.19,0,0,1,.38,0,.18.18,0,0,1-.19.17Zm0-.31a.15.15,0,0,0-.16.14.14.14,0,0,0,0,.09.17.17,0,0,0,.12,0v0a.15.15,0,0,0,.16-.13.15.15,0,0,0-.16-.14Z"/><path class="cls-3" d="M16.84,7.89A.16.16,0,0,1,17,8a.16.16,0,0,1-.17.14.15.15,0,1,1,0-.29Z"/><path d="M16.84,8.2h0a.19.19,0,0,1-.13-.06.15.15,0,0,1,0-.11.18.18,0,0,1,.18-.16A.17.17,0,0,1,17,8a.17.17,0,0,1-.18.16Zm0-.29a.14.14,0,0,0-.15.13.13.13,0,0,0,0,.09.16.16,0,0,0,.11,0v0A.14.14,0,0,0,17,8a.13.13,0,0,0-.14-.13Z"/><path class="cls-3" d="M16.62,7.91a.15.15,0,1,1,0,.3.15.15,0,1,1,0-.3Z"/><path d="M16.62,8.23h0a.18.18,0,0,1-.12-.05.17.17,0,0,1,0-.12.17.17,0,0,1,.18-.17.17.17,0,1,1,0,.34Zm0-.3a.13.13,0,0,0-.11.23.13.13,0,0,0,.1,0v0a.14.14,0,0,0,.14-.13.14.14,0,0,0-.14-.14Z"/><path class="cls-3" d="M16.29,8.15a.16.16,0,0,1,.15.16.16.16,0,0,1-.32,0,.16.16,0,0,1,.16-.15Z"/><path d="M16.28,8.47h0a.17.17,0,0,1-.12-.05.17.17,0,0,1-.05-.12.18.18,0,0,1,.18-.17.17.17,0,0,1,.12.05.15.15,0,0,1,0,.12.17.17,0,0,1-.17.17Zm0-.31a.14.14,0,0,0-.15.14.14.14,0,0,0,.14.14v0a.14.14,0,0,0,.14-.13.14.14,0,0,0,0-.1.16.16,0,0,0-.1,0Z"/><path class="cls-3" d="M16.34,8a.15.15,0,0,1,.15.16.15.15,0,0,1-.16.15.15.15,0,1,1,0-.3Z"/><path d="M16.33,8.36h0a.19.19,0,0,1-.12-.05.16.16,0,0,1,0-.12A.17.17,0,0,1,16.33,8a.18.18,0,0,1,.13.05.17.17,0,0,1,.05.12.18.18,0,0,1-.18.17Zm0-.3a.14.14,0,0,0-.14.13.14.14,0,0,0,0,.1.15.15,0,0,0,.1,0v0a.13.13,0,0,0,.14-.13.13.13,0,0,0,0-.1.14.14,0,0,0-.1,0Z"/><path class="cls-3" d="M16.4,7.91a.15.15,0,0,1,.15.16.15.15,0,0,1-.16.15.16.16,0,0,1-.16-.16.16.16,0,0,1,.16-.15Z"/><path d="M16.4,8.23h0a.16.16,0,0,1-.12-.05.16.16,0,0,1-.05-.12.17.17,0,0,1,.17-.17.18.18,0,0,1,.13.05.17.17,0,0,1-.13.29Zm0-.31a.14.14,0,1,0,0,.27v0a.14.14,0,0,0,.14-.13.13.13,0,0,0,0-.09.14.14,0,0,0-.1,0Z"/><path class="cls-3" d="M16.85,8.45c.27-.1.74.44,1.07,1.18s.36,1.43.1,1.53S17.28,10.73,17,10s-.37-1.43-.1-1.53Z"/><path d="M18,11.19c-.28,0-.72-.52-1-1.21a2.15,2.15,0,0,1-.22-1.41.23.23,0,0,1,.13-.14c.27-.1.77.45,1.09,1.19A2.17,2.17,0,0,1,18.16,11a.25.25,0,0,1-.13.14Zm-1-2.73h-.06a.2.2,0,0,0-.12.12A2.15,2.15,0,0,0,17,10c.31.73.79,1.26,1,1.18a.2.2,0,0,0,.12-.12,2.14,2.14,0,0,0-.23-1.38c-.29-.68-.71-1.19-1-1.19Z"/><path class="cls-3" d="M17.73,9.76s.14.08.21.24.09.3,0,.32-.15-.08-.22-.24-.08-.3,0-.32Z"/><path d="M18,10.35c-.07,0-.16-.13-.22-.25s-.09-.32,0-.35.18.13.24.25.1.31,0,.34Zm-.22-.57s0,.14,0,.3.15.23.19.23v0s0-.14,0-.3-.15-.23-.19-.23Z"/><path class="cls-3" d="M17.81,10a1.19,1.19,0,0,1,.32,1.11,3.21,3.21,0,0,0-.62-1,1,1,0,0,1-.19-1.05,2.24,2.24,0,0,0,.48,1Z"/><path d="M18.14,11.21l0-.1a3.17,3.17,0,0,0-.6-1,.93.93,0,0,1-.21-1s0-.08,0-.11a.2.2,0,0,1,.07.12,1.94,1.94,0,0,0,.44.84,1.2,1.2,0,0,1,.33,1.12v.06Zm-.81-2.08a.17.17,0,0,1,0,.06.9.9,0,0,0,.21.93,3.18,3.18,0,0,1,.6,1,1.14,1.14,0,0,0-.33-1,2,2,0,0,1-.45-.85l0-.07Z"/><path class="cls-3" d="M17.85,10.45a1.18,1.18,0,0,1,.32,1.11,3.19,3.19,0,0,0-.62-1,1,1,0,0,1-.18-1.06,2.11,2.11,0,0,0,.48,1Z"/><path d="M18.18,11.62l0-.1a3.08,3.08,0,0,0-.6-1,1,1,0,0,1-.21-1s0-.07,0-.1a.19.19,0,0,1,.07.12,1.91,1.91,0,0,0,.44.84,1.18,1.18,0,0,1,.33,1.12v.06Zm-.81-2.08a.14.14,0,0,1,0,.05.91.91,0,0,0,.2.93,3.24,3.24,0,0,1,.6,1,1.16,1.16,0,0,0-.33-1,2,2,0,0,1-.45-.86l0-.07Z"/><path class="cls-3" d="M17.86,10.79a1.17,1.17,0,0,1,.34,1.1,3.09,3.09,0,0,0-.64-1,1,1,0,0,1-.2-1.05,2.15,2.15,0,0,0,.5,1Z"/><path d="M18.21,11.94l0-.1a3.23,3.23,0,0,0-.62-1,1,1,0,0,1-.23-1l0-.11a.2.2,0,0,1,.07.12,1.94,1.94,0,0,0,.46.83,1.2,1.2,0,0,1,.35,1.11v.06Zm-.85-2.06a.37.37,0,0,1,0,.05.9.9,0,0,0,.22.93,3.13,3.13,0,0,1,.62,1,1.15,1.15,0,0,0-.35-1,2,2,0,0,1-.46-.85l0-.07Z"/><path class="cls-3" d="M17.34,9.06c.1,0,.28.18.4.46s.14.52,0,.55-.28-.18-.4-.46-.14-.52,0-.55Z"/><path d="M17.77,10.09c-.11,0-.28-.2-.39-.47a.79.79,0,0,1-.09-.52.08.08,0,0,1,.05,0h0c.13,0,.3.2.42.47a.78.78,0,0,1,.09.52.08.08,0,0,1-.05,0Zm-.41-1a.06.06,0,0,0,0,0,.79.79,0,0,0,.09.5c.13.28.28.45.37.45v0l0,0a.82.82,0,0,0-.09-.49c-.12-.28-.29-.45-.37-.45Z"/><path class="cls-3" d="M17.23,9.43c.08,0,.24.16.33.39s.1.43,0,.44-.24-.16-.33-.39-.1-.43,0-.44Z"/><path d="M17.56,10.28c-.1,0-.24-.17-.34-.4a.59.59,0,0,1-.06-.42.08.08,0,0,1,.05,0h0c.11,0,.25.17.35.4a.59.59,0,0,1,.05.42.07.07,0,0,1-.05,0Zm-.32-.83a.05.05,0,0,0,0,0,.63.63,0,0,0,.06.4c.1.23.24.38.31.38v0l0,0a.61.61,0,0,0-.06-.4c-.1-.24-.24-.38-.3-.38Z"/><path class="cls-3" d="M17,9.62c.09,0,.23.16.33.39s.09.43,0,.45-.24-.16-.33-.4-.09-.43,0-.44Z"/><path d="M17.35,10.48c-.1,0-.24-.18-.33-.41a.59.59,0,0,1,0-.43.07.07,0,0,1,.05,0h0c.11,0,.25.17.34.4a.6.6,0,0,1,0,.43.08.08,0,0,1-.05,0ZM17,9.63a0,0,0,0,0,0,0,.56.56,0,0,0,.05.4c.09.24.22.39.3.39v0a0,0,0,0,0,0,0,.61.61,0,0,0-.05-.4c-.1-.24-.23-.38-.3-.38Z"/><path class="cls-3" d="M17.21,9c.08,0,.2.12.28.29s.09.32,0,.33-.2-.12-.28-.29-.09-.32,0-.34Z"/><path d="M17.5,9.67c-.08,0-.2-.13-.28-.3a.41.41,0,0,1-.05-.32.07.07,0,0,1,0,0h0c.09,0,.21.13.29.3a.41.41,0,0,1,.05.32.06.06,0,0,1,0,0ZM17.23,9c-.05.06,0,.17,0,.31s.2.28.25.28v0c0-.06,0-.17,0-.31S17.28,9,17.23,9Z"/><path class="cls-3" d="M17.07,9.15c.07,0,.19.13.26.3s.07.33,0,.34-.19-.13-.26-.3-.07-.32,0-.33Z"/><path d="M17.32,9.81c-.08,0-.2-.13-.27-.31a.43.43,0,0,1,0-.32.07.07,0,0,1,.05,0h0c.09,0,.2.13.28.31a.45.45,0,0,1,0,.32.07.07,0,0,1-.05,0Zm-.24-.64c-.05.06-.05.17,0,.31s.18.29.24.29v0a.33.33,0,0,0,0-.31c-.07-.18-.18-.29-.24-.29Z"/><path class="cls-3" d="M17.06,9.28c.12.3.17.57.12.61s-.22-.19-.34-.49Z"/><path d="M17.18,9.9h0a1.07,1.07,0,0,1-.32-.5,1.35,1.35,0,0,0,.33.46c.05,0,0-.25-.11-.58h0c.12.28.19.58.11.63Z"/><path class="cls-3" d="M17,8.8c.07,0,.19.13.26.3s.07.33,0,.34-.19-.13-.26-.3S17,8.81,17,8.8Z"/><path d="M17.3,9.45c-.08,0-.2-.13-.27-.31a.47.47,0,0,1,0-.32.07.07,0,0,1,.05,0h0c.09,0,.2.13.28.31a.44.44,0,0,1,0,.32.07.07,0,0,1-.05,0Zm-.24-.64c-.06.07,0,.19,0,.31s.18.29.23.29v0c.05-.06.05-.17,0-.31s-.18-.29-.24-.29Z"/><path class="cls-3" d="M16.85,8.9c.07,0,.19.13.25.31s.07.33,0,.34-.19-.13-.25-.31-.07-.32,0-.33Z"/><path d="M17.08,9.55c-.08,0-.19-.14-.26-.32a.45.45,0,0,1,0-.32l.05,0h0c.09,0,.2.14.27.32a.43.43,0,0,1,0,.32.06.06,0,0,1-.05,0Zm-.23-.64c-.06.07,0,.19,0,.31s.17.29.23.29v0a.33.33,0,0,0,0-.31c-.06-.18-.17-.29-.23-.29Z"/><path class="cls-3" d="M16.85,8.86c.12.2.19.39.14.43s-.17-.11-.29-.31Z"/><path d="M17,9.3c-.1,0-.22-.17-.31-.32.14.17.24.29.29.29s0-.17-.14-.4l0,0c.09.16.2.4.14.45Z"/><path class="cls-3" d="M16.93,8.73c.12.2.19.39.14.42s-.17-.11-.29-.31Z"/><path d="M17.09,9.17c-.11,0-.22-.17-.31-.32a1.09,1.09,0,0,0,.29.29s0-.17-.14-.4l0,0c.09.15.2.4.14.45Z"/><path class="cls-3" d="M17.31,8.76c.17.28.26.54.2.58s-.23-.15-.41-.43Z"/><path d="M17.48,9.36c-.08,0-.24-.2-.39-.44.19.25.33.4.39.41s0-.26-.19-.56l0,0c.15.26.27.55.2.6Z"/><path class="cls-3" d="M17.06,8.61c.12.22.18.44.14.47S17,9,16.91,8.73Z"/><path d="M17.21,9.09c-.1,0-.22-.18-.32-.35a1.17,1.17,0,0,0,.29.33s0-.19-.14-.45l0,0c.09.17.2.44.14.49Z"/><path class="cls-9" d="M17,8.29c-.08.08,0,.23.07.29s.55.56.87.15c-.26,0-.75-.62-.94-.44Z"/><path d="M17.69,8.91h0a1,1,0,0,1-.56-.3A.36.36,0,0,1,17,8.39a.14.14,0,0,1,0-.11c.11-.1.32,0,.54.2a1,1,0,0,0,.42.23.34.34,0,0,1-.31.2Zm-.55-.64a.1.1,0,0,0-.08,0,.1.1,0,0,0,0,.09.28.28,0,0,0,.1.18.94.94,0,0,0,.55.31h0a.37.37,0,0,0,.3-.16c-.11,0-.26-.09-.43-.21a1,1,0,0,0-.42-.23Z"/><path class="cls-9" d="M17,8c-.08.08,0,.23.07.29s.55.56.87.15c-.26,0-.75-.62-.95-.44Z"/><path d="M17.63,8.66h0a.93.93,0,0,1-.55-.3.32.32,0,0,1-.13-.22A.16.16,0,0,1,17,8c.11-.11.32,0,.54.2a1,1,0,0,0,.42.23.34.34,0,0,1-.31.2ZM17.08,8a.11.11,0,0,0-.08,0,.1.1,0,0,0,0,.09.26.26,0,0,0,.1.18,1,1,0,0,0,.55.31.37.37,0,0,0,.29-.16c-.11,0-.26-.09-.43-.21A1,1,0,0,0,17.08,8Z"/><path class="cls-9" d="M16.92,7.81c-.08.08,0,.23.07.29s.55.56.87.15c-.26,0-.75-.62-.94-.44Z"/><path d="M17.56,8.43h0a.93.93,0,0,1-.56-.3.33.33,0,0,1-.13-.22.13.13,0,0,1,0-.11c.11-.11.32,0,.54.2a1,1,0,0,0,.41.23.33.33,0,0,1-.3.2ZM17,7.8a.11.11,0,0,0-.08,0,.1.1,0,0,0,0,.09.31.31,0,0,0,.1.17,1,1,0,0,0,.56.31h0a.36.36,0,0,0,.29-.16c-.11,0-.26-.09-.42-.21A1,1,0,0,0,17,7.8Z"/><path class="cls-9" d="M16.76,7.55c-.08.08,0,.23.07.29s.55.56.87.15c-.26,0-.75-.62-.95-.44Z"/><path d="M17.4,8.17h0a.94.94,0,0,1-.56-.3.35.35,0,0,1-.13-.22.15.15,0,0,1,0-.11c.11-.11.33,0,.54.2a1,1,0,0,0,.42.23.34.34,0,0,1-.31.2Zm-.55-.64a.1.1,0,0,0-.07,0,.11.11,0,0,0,0,.09.26.26,0,0,0,.1.18,1,1,0,0,0,.56.31A.37.37,0,0,0,17.69,8c-.11,0-.26-.09-.42-.21a1,1,0,0,0-.42-.23Z"/><path class="cls-9" d="M16.19,7.3a.72.72,0,0,1,.71,0c.2.1.53.49.78.59a.59.59,0,0,1-.39,0,.9.9,0,0,1-.52.21.65.65,0,0,1-.66-.2.43.43,0,0,1,.09-.51Z"/><path d="M16.59,8a.55.55,0,0,1-.51-.22.44.44,0,0,1,.09-.54.76.76,0,0,1,.73,0,2,2,0,0,1,.32.25,1.78,1.78,0,0,0,.45.33.21.21,0,0,1-.14,0,.55.55,0,0,1-.26-.06.83.83,0,0,1-.52.22Zm0-.84a.63.63,0,0,0-.37.11.4.4,0,0,0-.09.49.63.63,0,0,0,.64.19.88.88,0,0,0,.52-.21.61.61,0,0,0,.4,0,1.16,1.16,0,0,1-.46-.31,1.83,1.83,0,0,0-.31-.25.68.68,0,0,0-.32-.07Z"/><path class="cls-6" d="M16.54,7.46c.08,0,.14,0,.14.09s-.06.08-.14.08-.14,0-.14-.08.07-.08.14-.08Z"/><path d="M16.54,7.64h0c-.09,0-.16,0-.16-.1s.07-.1.16-.1.16,0,.16.1-.07.1-.16.1Zm0-.17c-.07,0-.13,0-.13.06s.06.07.13.07v0c.07,0,.13,0,.13-.06s-.05-.07-.13-.07Z"/><path class="cls-5" d="M16.06,7.76c.1,0,.2,0,.23,0s0,.14-.14.18-.21,0-.23,0,0-.14.15-.18Z"/><path d="M16,8A.14.14,0,0,1,15.9,8c0-.07,0-.16.16-.2s.22,0,.25.05,0,.16-.16.2L16,8Zm.12-.27-.1,0c-.09,0-.15.11-.13.16s.12.07.21,0,.16-.11.14-.16a.12.12,0,0,0-.12-.05Z"/><path d="M16.53,7.49s.05,0,.05,0a.05.05,0,0,1-.1,0,0,0,0,0,1,.05,0Z"/><path class="cls-5" d="M16.22,7.65a.17.17,0,0,1-.13.18.41.41,0,0,0-.23.3c-.16-.37-.06-.52.11-.56s.23,0,.25.07Z"/><path d="M15.87,8.18l0,0a.55.55,0,0,1-.05-.46A.23.23,0,0,1,16,7.56c.18-.06.25,0,.27.09a.19.19,0,0,1-.15.2.41.41,0,0,0-.22.29v0Zm.24-.62-.13,0a.2.2,0,0,0-.15.11.45.45,0,0,0,0,.38.4.4,0,0,1,.22-.27.16.16,0,0,0,.13-.16.1.1,0,0,0-.11-.09Z"/><path d="M16.07,7.64a0,0,0,0,1,0,0,0,0,0,0,1,0,0,0,0,0,1,1,0-.07Z"/></g></g></g></g></g></svg>