<?xml version="1.0" encoding="utf-8"?>
<!-- Generator: Adobe Illustrator 21.0.0, SVG Export Plug-In . SVG Version: 6.00 Build 0)  -->
<svg version="1.1" id="Layer_1" xmlns="http://www.w3.org/2000/svg" xmlns:xlink="http://www.w3.org/1999/xlink" x="0px" y="0px"
	 viewBox="0 0 200 200" style="enable-background:new 0 0 200 200;" xml:space="preserve">
<style type="text/css">
	.st0{fill:#CF4044;}
	.st1{fill:#FFFFFF;}
</style>
<title>DWDP</title>
<g>
	<path class="st0" d="M0,99.3l99.3-33.8l100.7,34L99.3,134.4L0,99.3L0,99.3z"/>
	<path class="st1" d="M146.7,91v1.7h0.4c1.4,0,1.5,0.4,1.5,0.9l-4.3,11.2l-4.8-13.1l-3.6,0H132l-4.5,12.6l-3.6-10.8h0.1
		c0-0.8,0.5-0.9,1.4-0.9V91h-10.7v1.6c1.7,0,1.6,0.4,1.9,0.9c0,0,0,0,0,0l6.5,16.9c0.1,0.2,0.1,0.3,0.1,0.5c0,0.9-0.8,1.1-1.8,1.1
		v1.6l11.7,0v-1.6h0c-1.2,0-1.7-0.2-1.7-1.1c0-0.1,0-0.3,0.1-0.4l4.4-9.6c0,0,3.8,9.7,3.8,10c0,0.8-0.3,1.1-1.3,1.1v1.6l10.8-0.1
		v-1.5c-1.7,0-1.7-0.4-1.6-1.1c0,0,7.8-17.5,7.9-17.5c0.2-0.3,0.6-0.6,1.3-0.7c0.2,0,1.1,0,1.1,0V91L146.7,91L146.7,91z
		 M114.1,101.9c0,7.6-5.7,12.4-14.5,12.4S85,109.5,85,101.9c0-6.8,5.7-12.4,14.5-12.4C108.3,89.5,114.1,95.1,114.1,101.9
		L114.1,101.9z M99.6,95.3c-5,0-8.2,3.1-8.2,6.9c0,3.8,3.2,6.9,8.2,6.9c5,0,8.2-3.1,8.2-6.9C107.7,98.4,104.5,95.3,99.6,95.3
		L99.6,95.3z M80.6,99.7c0,8.1-6.9,13.5-11.3,13.5H48.8v-1.5c1.6,0,2.9-0.4,2.9-1h0.1V88.1c0,0,0,0,0-0.1c0,0,0,0,0-0.1v0h0
		c-0.1-0.5-1.4-0.9-2.9-0.9l0,0v-1.3h20.6C74.6,85.7,80.6,92.2,80.6,99.7L80.6,99.7z M58,107.2h10.8c2.7,0,6-2.6,6-7.6
		c0-5.2-3.9-8.1-6-8.1H58L58,107.2L58,107.2z"/>
</g>
</svg>
