<?xml version="1.0" encoding="UTF-8"?>
<svg width="34px" height="20px" viewBox="0 0 34 20" version="1.1" xmlns="http://www.w3.org/2000/svg" xmlns:xlink="http://www.w3.org/1999/xlink">
    <!-- Generator: Sketch 49 (51002) - http://www.bohemiancoding.com/sketch -->
    <title>DZD</title>
    <desc>Created with Sketch.</desc>
    <defs></defs>
    <g id="Page-1" stroke="none" stroke-width="1" fill="none" fill-rule="evenodd">
        <g id="DZD" fill-rule="nonzero">
            <rect id="Rectangle-path" fill="#FFFFFF" x="0.05" y="0.05" width="33.56" height="19.57"></rect>
            <path d="M33.66,19.68 L0,19.68 L0,0 L33.66,0 L33.66,19.68 Z M0.1,19.58 L33.56,19.58 L33.56,0.1 L0.1,0.1 L0.1,19.58 Z" id="Shape" fill="#000000"></path>
            <rect id="Rectangle-path" fill="#2F742E" x="0.05" y="0.05" width="16.78" height="19.57"></rect>
            <g id="Group" transform="translate(11.000000, 4.000000)" fill="#C0003B">
                <path d="M9.46,8.9 C8.22233769,9.89095861 6.50960308,10.0387872 5.12044757,9.27455295 C3.73129206,8.51031873 2.93928857,6.98452596 3.11374982,5.4086547 C3.28821106,3.83278344 4.39477958,2.5171774 5.91746037,2.07530619 C7.44014116,1.63343497 9.07906556,2.15231834 10.07,3.39 C9.63675464,2.64966807 9.02033193,2.03324536 8.28,1.6 C6.56414837,0.607103505 4.41908014,0.745917514 2.84551071,1.95168264 C1.27194128,3.15744776 0.579940195,5.19256974 1.0923392,7.10762524 C1.6047382,9.02268073 3.22056983,10.4403109 5.18601769,10.699164 C7.15146556,10.9580172 9.07924105,10.0070868 10.07,8.29 C9.88824902,8.51382731 9.68382731,8.71824902 9.46,8.9 Z" id="Shape"></path>
                <polygon id="Shape" points="7.52 6.73 8.57 8.17 8.57 6.39 10.26 5.84 8.57 5.29 8.57 3.51 7.52 4.95 5.83 4.4 6.88 5.84 5.83 7.28"></polygon>
            </g>
        </g>
    </g>
</svg>