<?xml version="1.0" encoding="UTF-8"?>
<svg width="34px" height="20px" viewBox="0 0 34 20" version="1.1" xmlns="http://www.w3.org/2000/svg" xmlns:xlink="http://www.w3.org/1999/xlink">
    <!-- Generator: Sketch 49 (51002) - http://www.bohemiancoding.com/sketch -->
    <title>EGP</title>
    <desc>Created with Sketch.</desc>
    <defs></defs>
    <g id="Page-1" stroke="none" stroke-width="1" fill="none" fill-rule="evenodd">
        <g id="EGP">
            <rect id="Rectangle-path" fill="#000000" fill-rule="nonzero" x="0.03" y="13.08" width="33.56" height="6.53"></rect>
            <path d="M33.63,19.64 L0,19.64 L0,13.05 L33.63,13.05 L33.63,19.64 Z M0.07,19.58 L33.57,19.58 L33.57,13.12 L0.07,13.12 L0.07,19.58 Z" id="Shape" fill="#000000" fill-rule="nonzero"></path>
            <rect id="Rectangle-path" fill="#FFFFFF" fill-rule="nonzero" x="0.03" y="6.56" width="33.56" height="6.52"></rect>
            <path d="M33.63,13.12 L0,13.12 L0,6.52 L33.63,6.52 L33.63,13.11 L33.63,13.12 Z M0.07,13.05 L33.57,13.05 L33.57,6.59 L0.07,6.59 L0.07,13.05 Z" id="Shape" fill="#FFFFFF" fill-rule="nonzero"></path>
            <rect id="Rectangle-path" fill="#BC0030" fill-rule="nonzero" x="0.03" y="0.03" width="33.56" height="6.53"></rect>
            <g id="Group">
                <path d="M33.63,6.59 L0,6.59 L0,0 L33.63,0 L33.63,6.59 Z M0.07,6.52 L33.57,6.52 L33.57,0.07 L0.07,0.07 L0.07,6.52 Z" id="Shape" fill="#BC0030" fill-rule="nonzero"></path>
                <path d="M16.63,12.91 C17.1707288,12.9244034 17.7112384,12.8740453 18.24,12.76 C18.39,12.76 18.39,12.65 18.39,12.55 C18.54,12.5 18.46,12.32 18.57,12.32 C18.46,12.32 18.44,12.14 18.31,12.17 C18.31,11.99 18.13,11.96 17.98,12.01 C17.5345291,12.1140123 17.0771086,12.1577363 16.62,12.14 C16.1663098,12.1413156 15.7137657,12.0943851 15.27,12 C15.12,11.95 14.94,12 14.94,12.16 C14.81,12.16 14.79,12.34 14.68,12.31 C14.79,12.31 14.68,12.49 14.86,12.54 C15.04,12.59 14.86,12.72 15.02,12.75 C15.548628,12.8649108 16.0892425,12.9152786 16.63,12.9 L16.63,12.91 Z" id="Shape" fill="#FFFFFF" fill-rule="nonzero"></path>
                <path d="M16.63,13 C16.0818846,13.0073508 15.5348029,12.9502932 15,12.83 C14.9424154,12.8275225 14.8883804,12.8014855 14.8505596,12.7579916 C14.8127389,12.7144978 14.7944574,12.6573707 14.8,12.6 C14.7375165,12.560194 14.6969192,12.493762 14.69,12.42 C14.6774957,12.3983419 14.6774957,12.3716581 14.69,12.35 C14.6991317,12.3192709 14.7279703,12.2986719 14.76,12.3 L14.81,12.3 C14.8415863,12.2473952 14.8914156,12.2082436 14.95,12.19 C14.95,12.04 15.16,11.98 15.36,12.04 C15.7109228,12.1196994 16.0702017,12.1566346 16.43,12.15 L16.7,12.15 C17.1382317,12.1613963 17.5758793,12.1108985 18,12 C18.2,11.94 18.38,12 18.41,12.16 C18.4629874,12.1784347 18.5085905,12.213514 18.54,12.26 C18.5683033,12.2629232 18.5920209,12.2826879 18.6,12.31 C18.6125043,12.3316581 18.6125043,12.3583419 18.6,12.38 C18.6,12.38 18.6,12.38 18.6,12.38 C18.5916822,12.4532893 18.5514248,12.519165 18.49,12.56 C18.4955426,12.6173707 18.4772611,12.6744978 18.4394404,12.7179916 C18.4016196,12.7614855 18.3475846,12.7875225 18.29,12.79 C17.7544025,12.9035734 17.2073298,12.9539175 16.66,12.94 L16.63,13 Z M14.8,12.37 C14.8,12.42 14.8,12.45 14.86,12.47 C14.870718,12.4885641 14.870718,12.5114359 14.86,12.53 C14.86,12.63 14.86,12.66 14.97,12.68 C15.4952015,12.7951841 16.0325412,12.8455597 16.57,12.83 C17.1074685,12.8458631 17.6448453,12.7954841 18.17,12.68 C18.28,12.68 18.28,12.68 18.28,12.53 C18.269282,12.5114359 18.269282,12.4885641 18.28,12.47 C18.28,12.47 18.33,12.47 18.35,12.37 L18.35,12.32 C18.35,12.32 18.35,12.26 18.28,12.26 C18.2610138,12.2690059 18.2389862,12.2690059 18.22,12.26 C18.22,12.26 18.22,12.26 18.22,12.26 C18.22,12.26 18.22,12.14 18.09,12.14 L17.97,12.14 C17.5182666,12.2471935 17.0538046,12.2909471 16.59,12.27 L16.31,12.27 C15.9399334,12.2725382 15.5708147,12.2322707 15.21,12.15 L15.09,12.15 C14.96,12.15 14.96,12.24 14.96,12.27 C14.9445299,12.2789316 14.9254701,12.2789316 14.91,12.27 C14.91,12.27 14.86,12.27 14.83,12.33 L14.83,12.38 L14.8,12.37 Z" id="Shape" fill="#F0C727" fill-rule="nonzero"></path>
                <path d="" id="Shape" fill="#F4D134" fill-rule="nonzero"></path>
                <path d="M15.17,12.34 C15.1,12.34 15.1,12.34 15.1,12.29 C15.1,12.24 15.1,12.24 15.17,12.24 C15.1944784,12.2464052 15.2135948,12.2655216 15.22,12.29 C15.22,12.29 15.22,12.34 15.17,12.34 Z" id="Shape" fill="#F0C727" fill-rule="nonzero"></path>
                <path d="M15.17,12.18 C15.17,12.18 15.17,12.18 15.17,12.18 C15.17,12.18 15.22,12.18 15.17,12.18 Z" id="Shape" fill="#F4D134" fill-rule="nonzero"></path>
                <path d="M15.17,12.25 C15.17,12.25 15.12,12.25 15.12,12.2 C15.12,12.15 15.12,12.1399963 15.17,12.14 C15.2050692,12.1396406 15.2349917,12.1652884 15.24,12.2 C15.24,12.2 15.24,12.25 15.17,12.25 Z" id="Shape" fill="#F0C727" fill-rule="nonzero"></path>
                <path d="M15.17,12.55 C15.17,12.55 15.17,12.6 15.17,12.6 C15.17,12.6 15.17,12.55 15.17,12.55 Z" id="Shape" fill="#F4D134" fill-rule="nonzero"></path>
                <path d="M15.17,12.64 C15.17,12.64 15.12,12.64 15.12,12.58 C15.12,12.52 15.12,12.52 15.17,12.52 C15.22,12.52 15.22,12.52 15.22,12.58 C15.22,12.64 15.22,12.64 15.17,12.64 Z" id="Shape" fill="#F0C727" fill-rule="nonzero"></path>
                <path d="M15.27,12.58 C15.27,12.58 15.27,12.63 15.27,12.63 C15.27,12.63 15.27,12.58 15.27,12.58 Z" id="Shape" fill="#F4D134" fill-rule="nonzero"></path>
                <path d="M15.27,12.67 C15.2524402,12.6729699 15.2344684,12.6679857 15.2209466,12.6563956 C15.2074249,12.6448055 15.1997506,12.6278075 15.2,12.61 C15.2,12.61 15.1999941,12.55 15.27,12.55 C15.34,12.55 15.33,12.55 15.33,12.61 C15.33,12.625913 15.3236786,12.6411742 15.3124264,12.6524264 C15.3011742,12.6636786 15.285913,12.67 15.27,12.67 Z" id="Shape" fill="#F0C727" fill-rule="nonzero"></path>
                <path d="M15.37,12.61 C15.37,12.61 15.37,12.66 15.37,12.66 C15.37,12.66 15.42,12.61 15.37,12.61 Z" id="Shape" fill="#F4D134" fill-rule="nonzero"></path>
                <path d="M15.37,12.69 C15.37,12.69 15.37,12.69 15.37,12.63 C15.37,12.57 15.37,12.58 15.37,12.58 C15.37,12.58 15.45,12.58 15.45,12.63 C15.4475297,12.6486499 15.4376564,12.6655205 15.4226061,12.6768082 C15.4075559,12.6880959 15.3885956,12.6928504 15.37,12.69 Z" id="Shape" fill="#F0C727" fill-rule="nonzero"></path>
                <path d="M17,12.44 C17,12.44 16.95,12.44 16.95,12.38 C16.95,12.32 16.95,12.32 17,12.32 C17.05,12.32 17.05,12.32 17.05,12.38 C17.05,12.44 17.05,12.44 17,12.44 Z" id="Shape" fill="#F0C727" fill-rule="nonzero"></path>
                <path d="M17,12.45 C16.95,12.45 16.95,12.45 17,12.45 C17.05,12.45 17,12.45 17,12.45 Z" id="Shape" fill="#F4D134" fill-rule="nonzero"></path>
                <path d="M17,12.45 C16.95,12.45 16.95,12.45 17,12.45 C17.05,12.45 17,12.45 17,12.45 Z" id="Shape"></path>
                <path d="M17.06,12.71 C17.06,12.71 17.06,12.76 17.06,12.76 C17.06,12.76 17.06,12.71 17.06,12.71 Z" id="Shape" fill="#F4D134" fill-rule="nonzero"></path>
                <path d="M17.06,12.8 C17.06,12.8 17.01,12.8 17.01,12.73 C17.01,12.66 17.01,12.67 17.06,12.67 C17.11,12.67 17.11,12.67 17.11,12.73 C17.11,12.79 17.11,12.8 17.06,12.8 Z" id="Shape" fill="#F0C727" fill-rule="nonzero"></path>
                <path d="M17.17,12.71 C17.12,12.71 17.12,12.76 17.17,12.76 C17.22,12.76 17.17,12.71 17.17,12.71 Z" id="Shape" fill="#F4D134" fill-rule="nonzero"></path>
                <path d="M17.17,12.8 C17.140781,12.8116789 17.1073601,12.8024259 17.0883082,12.7773825 C17.0692563,12.7523391 17.0692563,12.7176609 17.0883082,12.6926175 C17.1073601,12.6675741 17.140781,12.6583211 17.17,12.67 C17.17,12.67 17.22,12.67 17.22,12.73 C17.22,12.79 17.22,12.8 17.17,12.8 Z" id="Shape" fill="#F0C727" fill-rule="nonzero"></path>
                <path d="M18.22,12.5 C18.17,12.5 18.17,12.5 18.22,12.5 C18.27,12.5 18.22,12.5 18.22,12.5 Z" id="Shape" fill="#F4D134" fill-rule="nonzero"></path>
                <path d="M18.22,12.57 C18.15,12.57 18.15,12.57 18.15,12.57 C18.15,12.57 18.15,12.52 18.22,12.52 C18.29,12.52 18.27,12.52 18.27,12.57 C18.27,12.62 18.27,12.57 18.22,12.57 Z" id="Shape" fill="#F0C727" fill-rule="nonzero"></path>
                <path d="M15.45,12.6 L15.39,12.6 L15.31,12.6 L15.23,12.6 C15.23,12.6 15.16,12.6 15.16,12.48 C15.1864726,12.4154489 15.2065683,12.3484634 15.22,12.28 L15.22,12.22 L15.22,12.29 C15.2070341,12.3585778 15.1869245,12.4256098 15.16,12.49 L15.21,12.49 L15.21,12.44 C15.21,12.44 15.21,12.37 15.21,12.36 C15.21194,12.379953 15.21194,12.400047 15.21,12.42 L15.26,12.42 C15.26,12.42 15.26,12.42 15.26,12.33 L15.31,12.33 C15.3155599,12.3496136 15.3155599,12.3703864 15.31,12.39 C15.3092401,12.4449004 15.2834643,12.4964518 15.24,12.53 L15.45,12.6 Z" id="Shape" fill="#F0C727" fill-rule="nonzero"></path>
                <path d="M15.24,12.54 C15.16,12.54 15.11,12.47 15.11,12.43 C15.11,12.39 15.11,12.36 15.22,12.35 C15.22,12.35 15.17,12.35 15.17,12.35 C15.1960037,12.3584091 15.2239963,12.3584091 15.25,12.35 L15.24,12.54 Z" id="Shape" fill="#F0C727" fill-rule="nonzero"></path>
                <path d="M16,12.75 C16,12.75 15.94,12.75 15.94,12.65 L15.88,12.65 C15.8189346,12.6739697 15.7510654,12.6739697 15.69,12.65 C15.6761916,12.6753579 15.6553579,12.6961916 15.63,12.71 C15.6257661,12.6936022 15.6257661,12.6763978 15.63,12.66 C15.61925,12.6379048 15.61925,12.6120952 15.63,12.59 C15.6500391,12.5839118 15.6717515,12.5871162 15.6891776,12.5987336 C15.7066037,12.610351 15.7179125,12.6291607 15.72,12.65 C15.7526643,12.6594451 15.7873357,12.6594451 15.82,12.65 C15.798022,12.6166268 15.798022,12.5733732 15.82,12.54 C15.8422327,12.4960602 15.8931452,12.4748467 15.94,12.49 C15.981812,12.5041152 16.0072216,12.5464646 16,12.59 C16.0142629,12.6183048 16.0142629,12.6516952 16,12.68 C16,12.75 16,12.75 16,12.75 C16,12.75 16,12.75 16,12.66 L16,12.43 C16,12.43 16.07,12.43 16.07,12.43 L16.07,12.66 C16.07,12.7229515 16.0403612,12.7822291 15.99,12.82 L16,12.75 Z" id="Shape" fill="#F0C727" fill-rule="nonzero"></path>
                <path d="M16.12,12.67 C16.1154172,12.620105 16.1154172,12.569895 16.12,12.52 C16.1233582,12.4767317 16.1233582,12.4332683 16.12,12.39 C16.12,12.39 16.19,12.39 16.19,12.39 C16.1930851,12.4366157 16.1930851,12.4833843 16.19,12.53 C16.19,12.58 16.19,12.64 16.19,12.67 L16.12,12.67 Z" id="Shape" fill="#F0C727" fill-rule="nonzero"></path>
                <path d="M16.19,12.82 C16.2274352,12.7969286 16.2557088,12.7615866 16.27,12.72 C16.2557094,12.6952479 16.2557094,12.6647521 16.27,12.64 L16.32,12.64 C16.32,12.64 16.37,12.64 16.39,12.71 C16.39,12.71 16.39,12.71 16.39,12.71 C16.39,12.71 16.39,12.65 16.39,12.65 C16.39,12.65 16.39,12.65 16.39,12.65 C16.4479188,12.6723492 16.5120812,12.6723492 16.57,12.65 C16.63,12.65 16.65,12.65 16.65,12.75 L16.65,12.8 C16.65,12.8 16.65,12.88 16.59,12.89 C16.5647989,12.9025032 16.5352011,12.9025032 16.51,12.89 C16.51,12.89 16.51,12.89 16.46,12.89 L16.25,12.89 C16.2283167,12.9440647 16.18973,12.9896671 16.14,13.02 L16.19,12.82 Z M16.42,12.62 L16.53,12.62 C16.62,12.62 16.64,12.67 16.64,12.71 L16.64,12.66 C16.6430003,12.6434684 16.6430003,12.6265316 16.64,12.61 C16.5714691,12.6302818 16.4985309,12.6302818 16.43,12.61 L16.42,12.62 Z" id="Shape" fill="#F0C727" fill-rule="nonzero"></path>
                <path d="M16.81,12.69 L16.74,12.69 C16.74,12.69 16.69,12.69 16.69,12.69 C16.69,12.69 16.69,12.69 16.69,12.69 C16.6805542,12.6676226 16.6805542,12.6423774 16.69,12.62 C16.7140398,12.6032608 16.7459602,12.6032608 16.77,12.62 C16.8004274,12.6350952 16.8197646,12.6660348 16.82,12.7 C16.82,12.75 16.74,12.79 16.71,12.79 L16.81,12.69 Z" id="Shape" fill="#F0C727" fill-rule="nonzero"></path>
                <path d="M17,12.68 C17.0203863,12.6464065 17.052422,12.6214899 17.09,12.61 C17.1024534,12.5439149 17.1024534,12.4760851 17.09,12.41 C17.1043449,12.4859957 17.1043449,12.5640043 17.09,12.64 L17.14,12.64 C17.14,12.64 17.14,12.64 17.14,12.58 C17.14,12.52 17.14,12.53 17.14,12.51 C17.1558727,12.5027247 17.1741273,12.5027247 17.19,12.51 C17.19,12.51 17.19,12.51 17.19,12.56 C17.19,12.66 17.19,12.69 17.08,12.69 C17.0552479,12.7042906 17.0247521,12.7042906 17,12.69 C16.9774287,12.6984334 16.9525713,12.6984334 16.93,12.69 L17,12.68 Z" id="Shape" fill="#F0C727" fill-rule="nonzero"></path>
                <path d="M17.32,12.77 C17.3424992,12.7436328 17.3594991,12.713033 17.37,12.68 C17.31,12.68 17.3,12.61 17.3,12.59 C17.3,12.57 17.3,12.53 17.3,12.51 C17.3,12.49 17.37,12.51 17.4,12.56 C17.4276422,12.6498509 17.4002815,12.7475678 17.33,12.81 L17.32,12.77 Z" id="Shape" fill="#F0C727" fill-rule="nonzero"></path>
                <path d="M17.5,12.72 C17.5,12.72 17.5,12.72 17.5,12.72 C17.45,12.72 17.42,12.72 17.42,12.72 C17.4147357,12.6795929 17.4345157,12.6400328 17.47,12.62 L17.53,12.62 C17.53,12.62 17.53,12.62 17.53,12.71 C17.6350222,12.6942316 17.7365212,12.6603986 17.83,12.61 C17.83,12.61 17.83,12.61 17.83,12.61 C17.7267062,12.6724838 17.6103187,12.7101386 17.49,12.72 C17.4790316,12.7665082 17.4450999,12.8042101 17.4,12.82 L17.5,12.72 Z" id="Shape" fill="#F0C727" fill-rule="nonzero"></path>
                <path d="M17.81,12.62 C17.8035294,12.5869807 17.8035294,12.5530193 17.81,12.52 C17.8075671,12.4744805 17.8259654,12.4303247 17.86,12.4 C17.86,12.4 17.86,12.4 17.86,12.4 L17.86,12.3 C17.86,12.3 17.86,12.3 17.86,12.3 L17.86,12.4 L17.92,12.4 C17.9543874,12.4174154 17.9771502,12.4515596 17.98,12.49 C17.996077,12.5178461 17.996077,12.5521539 17.98,12.58 L17.91,12.58 L17.81,12.62 Z" id="Shape" fill="#F0C727" fill-rule="nonzero"></path>
                <path d="M18,12.55 C17.95464,12.5520766 17.9135747,12.5233309 17.9,12.48 C17.8959592,12.4602041 17.8959592,12.4397959 17.9,12.42 C17.9583265,12.3628286 18.0516735,12.3628286 18.11,12.42 C18.1278633,12.4509401 18.1278633,12.4890599 18.11,12.52 C18.0812779,12.5504034 18.0417924,12.5683513 18,12.57 L18,12.55 Z" id="Shape" fill="#F0C727" fill-rule="nonzero"></path>
                <path d="M18.09,12.45 L18.17,12.4 L18.09,12.45 Z" id="Shape"></path>
                <path d="M18.21,12.46 C18.15,12.46 18.12,12.35 18.12,12.23 C18.12,12.11 18.12,12.23 18.12,12.23 C18.0990843,12.2149786 18.0709157,12.2149786 18.05,12.23 C18.0957818,12.2009545 18.1542182,12.2009545 18.2,12.23 C18.2409696,12.2505797 18.2648783,12.2944124 18.26,12.34 C18.26,12.45 18.26,12.5 18.31,12.52 C18.31,12.52 18.31,12.47 18.37,12.52 C18.43,12.57 18.37,12.52 18.37,12.58 C18.3407219,12.6166146 18.2968585,12.6385462 18.25,12.64 L18.21,12.46 Z" id="Shape" fill="#F0C727" fill-rule="nonzero"></path>
                <path d="M16.65,10 L18.85,12 L18.7,8.31 C18.7,7.75 18.19,7.87 17.83,8.08 C17.4665987,8.29955285 17.0193295,8.3293708 16.63,8.16 C16.2375598,8.3311389 15.7864927,8.30131628 15.42,8.08 C15.07,7.88 14.58,7.75 14.55,8.31 L14.4,12 L16.65,10 Z" id="Shape" fill="#FFFFFF" fill-rule="nonzero"></path>
                <path d="M14.4,12.05 L14.56,8.34 C14.56,7.98 14.77,7.9 14.94,7.9 C15.1312285,7.91870965 15.3157914,7.98023064 15.48,8.08 C15.8351351,8.29105407 16.2694423,8.32075029 16.65,8.16 C17.0406049,8.28891209 17.4688781,8.22983992 17.81,8 C17.9742086,7.90023064 18.1587715,7.83870965 18.35,7.82 C18.52,7.82 18.72,7.9 18.73,8.26 L18.89,12 L16.71,10 L14.48,12 L14.4,12.05 Z M14.9,7.94 C14.7,7.94 14.6,8.06 14.59,8.31 L14.44,11.94 L16.63,9.94 L18.77,11.94 L18.61,8.31 C18.61,7.89 18.27,7.84 17.79,8.11 C17.4163127,8.33159715 16.9592432,8.36132525 16.56,8.19 C16.1672678,8.35945379 15.7170041,8.3296843 15.35,8.11 C15.1961509,8.01313166 15.0212003,7.9548148 14.84,7.94 L14.9,7.94 Z" id="Shape" fill="#F0C727" fill-rule="nonzero"></path>
                <path d="M17,8.28 C17.1000021,8.3378859 17.2145916,8.36566516 17.33,8.36 C17.0955278,8.13387823 16.9744758,7.8147411 17,7.49 C17.05,7.08 16.95,6.85 16.7,6.8 C16.6400604,6.79619336 16.5799396,6.79619336 16.52,6.8 C16.44,6.8 16.38,6.85 16.35,6.9 C16.32,6.95 16.21,6.9 16.13,6.83 C16.05,6.76 15.92,6.83 15.92,7.01 L16,7 L16.12,7.05 C16.222202,7.10518856 16.2925568,7.2051664 16.31,7.32 C16.3933511,7.71856778 16.2558216,8.13115647 15.95,8.4 C16.0655176,8.40685097 16.1804438,8.37899007 16.28,8.32 C16.2473224,8.37845142 16.2069636,8.43226308 16.16,8.48 C16.3066467,8.47149514 16.4404132,8.39346472 16.52,8.27 C16.52,8.32 16.62,8.4 16.65,8.45 C16.68,8.5 16.75,8.32 16.78,8.27 C16.8595868,8.39346472 16.9933533,8.47149514 17.14,8.48 C17.0846559,8.41984857 17.0375749,8.35258988 17,8.28 Z" id="Shape" fill="#FFFFFF" fill-rule="nonzero"></path>
                <path d="M16,8.48 L16.07,8.41 L16.12,8.36 C16.0404551,8.37206827 15.9595449,8.37206827 15.88,8.36 L15.8,8.36 L15.86,8.3 C16.1397178,8.04860283 16.2685123,7.66979541 16.2,7.3 C16.1924135,7.20808518 16.1400509,7.12580113 16.06,7.08 L16,7 L15.92,7 C15.92,6.79 16.07,6.75 16.17,6.79 C16.2029636,6.79702148 16.2370364,6.79702148 16.27,6.79 L16.37,6.79 C16.398037,6.73623732 16.4500503,6.69908491 16.51,6.69 L16.67,6.69 L16.72,6.69 C17,6.75 17.11,6.99 17.05,7.42 C17.0232278,7.72730202 17.1329371,8.03083113 17.35,8.25 L17.44,8.31 L17.33,8.31 C17.2537438,8.3212201 17.1762562,8.3212201 17.1,8.31 L17.1,8.36 L17.17,8.42 L17.07,8.42 C16.9345544,8.40714756 16.8092386,8.34269946 16.72,8.24 L16.72,8.29 L16.66,8.37 L16.66,8.42 L16.66,8.37 L16.6,8.29 L16.6,8.24 C16.5101312,8.34189308 16.3851563,8.4061659 16.25,8.42 L16.15,8.42 L16,8.48 Z M16.71,8.17 C16.7627287,8.2514211 16.8453237,8.30887849 16.94,8.33 L17,8.3 C17.0696641,8.3420712 17.1487099,8.36612863 17.23,8.37 C17.0388187,8.11918745 16.9559913,7.80228266 17,7.49 C17,7.09 17,6.88 16.72,6.83 C16.72,6.83 16.72,6.83 16.66,6.83 L16.54,6.83 C16.4853236,6.83097616 16.435511,6.86163011 16.41,6.91 C16.3774205,6.89997436 16.3425795,6.89997436 16.31,6.91 C16.2705064,6.91900142 16.2294936,6.91900142 16.19,6.91 C16.1565529,6.89693326 16.1188335,6.90101459 16.0889555,6.92093324 C16.0590775,6.94085189 16.0408027,6.97410011 16.04,7.01 C16.0827332,6.99980117 16.1272668,6.99980117 16.17,7.01 L16.22,7.01 C16.316779,7.06743516 16.3800366,7.16790315 16.39,7.28 C16.4498884,7.6435505 16.3350264,8.01407307 16.08,8.28 C16.1648524,8.27876131 16.2477865,8.25457221 16.32,8.21 L16.26,8.29 C16.3583507,8.2713299 16.4449389,8.21360441 16.5,8.13 L16.56,8.21 L16.56,8.26 L16.56,8.21 L16.62,8.13 L16.71,8.17 Z" id="Shape" fill="#F0C727" fill-rule="nonzero"></path>
                <path d="M17,8.34 C16.9062641,8.1787422 16.8546758,7.99646348 16.85,7.81 C16.85,7.81 16.92,7.81 16.92,7.81 C16.9218287,7.98608621 16.9701234,8.15856719 17.06,8.31 L17,8.34 Z" id="Shape" fill="#F0C727" fill-rule="nonzero"></path>
                <path d="M16.76,8.27 C16.6933318,8.12637403 16.6657365,7.96770106 16.68,7.81 C16.68,7.81 16.75,7.81 16.75,7.81 C16.738601,7.95361934 16.7626379,8.09784085 16.82,8.23 L16.76,8.27 Z" id="Shape" fill="#F0C727" fill-rule="nonzero"></path>
                <path d="M16.25,8.34 C16.3398766,8.18856719 16.3881713,8.01608621 16.39,7.84 C16.39,7.84 16.46,7.84 16.46,7.84 C16.4571084,8.02672957 16.4053949,8.20945061 16.31,8.37 L16.25,8.34 Z" id="Shape" fill="#F0C727" fill-rule="nonzero"></path>
                <path d="M16.5,8.27 C16.5611877,8.13883405 16.5886847,7.99447498 16.58,7.85 C16.58,7.85 16.65,7.85 16.65,7.85 C16.6600044,8.00749783 16.6325906,8.16512739 16.57,8.31 L16.5,8.27 Z" id="Shape" fill="#F0C727" fill-rule="nonzero"></path>
                <path d="M16,7 C16.0532746,7.01057065 16.1041317,7.03091349 16.15,7.06 C16.2482545,7.10986585 16.3182623,7.20198141 16.34,7.31 C16.34,7.23 16.34,7.15 16.42,7.18 C16.3438828,7.02428058 16.1652569,6.94772663 16,7 Z" id="Shape" fill="#F0C727" fill-rule="nonzero"></path>
                <path d="M16.29,7.27 C16.2757598,7.15390639 16.2044694,7.05259902 16.1,7 C16.0672044,6.99153222 16.0327956,6.99153222 16,7 C16,7 16.06,6.95 16.1,6.95 C16.244641,6.94751444 16.3774646,7.02955255 16.44,7.16 C16.44,7.16 16.39,7.22 16.44,7.25 L16.29,7.27 Z M16,7 L16.07,7 C16.1424481,7.03359048 16.2020844,7.08971872 16.24,7.16 C16.2558727,7.15272475 16.2741273,7.15272475 16.29,7.16 C16.2250633,7.06272502 16.1169181,7.00305872 16,7 Z" id="Shape" fill="#F0C727" fill-rule="nonzero"></path>
                <polygon id="Shape" fill="#F0C727" fill-rule="nonzero" points="16.73 10.39 17.04 11.79 16.93 11.89 16.83 11.81 16.66 10.56 16.73 11.81 16.63 11.95 16.53 11.81 16.6 10.56 16.43 11.81 16.32 11.89 16.22 11.79 16.53 10.39"></polygon>
                <path d="M16.63,12 L16.51,11.84 L16.51,11.24 L16.43,11.83 L16.31,11.93 L16.17,11.82 L16.47,10.39 L16.7,10.39 L17.04,11.82 L16.93,11.95 L16.78,11.87 L16.69,11.25 L16.69,11.84 L16.56,12.02 L16.63,12 Z M16.63,10.59 L16.56,11.82 L16.63,11.91 L16.71,11.81 L16.63,10.6 L16.63,10.59 Z M16.7,10.4 L16.53,10.4 L16.25,11.78 L16.34,11.85 L16.41,11.77 L16.58,10.54 L16.69,10.54 L16.87,11.79 L16.96,11.85 L17.02,11.75 L16.7,10.38 L16.7,10.4 Z" id="Shape" fill="#F0C727" fill-rule="nonzero"></path>
                <path d="M14.81,8.18 L14.66,11.79 L14.4,12 L14.56,8.29 C14.6333425,8.22968666 14.718504,8.1854027 14.81,8.16 L14.81,8.18 Z" id="Shape" fill="#F0C727" fill-rule="nonzero"></path>
                <polygon id="Shape" fill="#F0C727" fill-rule="nonzero" points="15.12 8.44 14.99 11.44 14.73 11.71 14.89 8.22 15.12 8.43"></polygon>
                <polygon id="Shape" fill="#F0C727" fill-rule="nonzero" points="15.4 8.67 15.3 11.19 15.09 11.39 15.22 8.52"></polygon>
                <path d="M15.71,8.8 L15.61,10.94 L15.41,11.1 L15.51,8.71 C15.5733809,8.74424233 15.6404881,8.7710852 15.71,8.79 L15.71,8.8 Z" id="Shape" fill="#F0C727" fill-rule="nonzero"></path>
                <path d="M16,8.8 L15.93,10.59 L15.72,10.79 L15.8,8.79 C15.8660386,8.80294129 15.9339614,8.80294129 16,8.79 L16,8.8 Z" id="Shape" fill="#F0C727" fill-rule="nonzero"></path>
                <path d="M18.45,8.18 L18.6,11.79 L18.86,12.02 L18.7,8.31 C18.6233848,8.24895079 18.5348085,8.20466266 18.44,8.18 L18.45,8.18 Z" id="Shape" fill="#F0C727" fill-rule="nonzero"></path>
                <polygon id="Shape" fill="#F0C727" fill-rule="nonzero" points="18.14 8.44 18.27 11.44 18.53 11.67 18.37 8.21 18.14 8.42"></polygon>
                <polygon id="Shape" fill="#F0C727" fill-rule="nonzero" points="17.86 8.67 18 11.19 18.2 11.35 18 8.52 17.82 8.67"></polygon>
                <path d="M17.55,8.8 L17.65,10.91 L17.85,11.08 L17.75,8.73 C17.6869047,8.7648487 17.6197233,8.79172129 17.55,8.81 L17.55,8.8 Z" id="Shape" fill="#F0C727" fill-rule="nonzero"></path>
                <path d="M17.27,8.8 L17.35,10.59 L17.56,10.79 L17.48,8.79 C17.4139614,8.80294129 17.3460386,8.80294129 17.28,8.79 L17.27,8.8 Z" id="Shape" fill="#F0C727" fill-rule="nonzero"></path>
                <polygon id="Shape" fill="#FFFFFF" fill-rule="nonzero" points="15.94 9.77 15.32 11.95 16.17 12.07 16.53 10.43"></polygon>
                <path d="M16.17,12.1 L15.32,12 L15.94,9.82 C15.94,9.82 15.94,9.82 15.94,9.82 L16.53,10.49 L16.18,12.15 L16.17,12.1 Z M15.37,11.91 L16.15,12.03 L16.51,10.42 L16,9.83 L15.41,11.92 L15.37,11.91 Z" id="Shape" fill="#F0C727" fill-rule="nonzero"></path>
                <polygon id="Shape" fill="#FFFFFF" fill-rule="nonzero" points="17.32 9.77 17.93 11.95 17.09 12.07 16.73 10.43"></polygon>
                <path d="M17.09,12.1 L16.73,10.46 L17.33,9.76 C17.33,9.76 17.33,9.76 17.33,9.76 L18,11.94 L17.16,12.07 L17.09,12.1 Z M17.31,9.83 L16.76,10.45 L17.12,12 L17.9,11.88 L17.31,9.8 L17.31,9.83 Z" id="Shape" fill="#F0C727" fill-rule="nonzero"></path>
                <polygon id="Shape" fill="#F0C727" fill-rule="nonzero" points="15.81 10.72 15.81 10.72 15.74 10.54 15.79 10.67 15.99 10.46 15.76 10.72"></polygon>
                <path d="M16.09,10.87 C16.09,10.87 16.09,10.87 16.09,10.87 L16,10.13 C16,10.13 16,10.13 16,10.13 L16.07,10.76 L16.27,10.5 L16.02,10.84 L16.09,10.87 Z" id="Shape" fill="#F0C727" fill-rule="nonzero"></path>
                <polygon id="Shape" fill="#F0C727" fill-rule="nonzero" points="16.4 11.05 16.4 11.05 16.25 10.66 16.4 11.04"></polygon>
                <path d="M16.17,11.36 L16,11 L15.91,11.16 C15.91,11.16 15.91,11.16 15.91,11.16 L15.82,10.95 L15.63,11.12 C15.63,11.12 15.63,11.12 15.63,11.12 L15.85,10.91 L15.93,11.1 L16,10.9 C16,10.9 16,10.9 16,10.9 L16.11,11.26 L16.28,11.09 L16.07,11.3 L16.17,11.36 Z" id="Shape" fill="#F0C727" fill-rule="nonzero"></path>
                <polygon id="Shape" fill="#F0C727" fill-rule="nonzero" points="16.25 11.82 16.19 11.51 16.03 11.71 16.03 11.71 16.03 11.71 15.95 11.46 15.81 11.64 15.81 11.64 15.81 11.64 15.65 11.26 15.79 11.59 15.93 11.4 15.93 11.4 15.93 11.4 16.01 11.65 16.17 11.44 16.17 11.44 16.17 11.44 16.25 11.83"></polygon>
                <path d="M16,12.11 L15.92,11.87 L15.81,12.07 L15.7,11.79 L15.58,11.95 L15.73,11.74 C15.73,11.74 15.73,11.74 15.73,11.74 L15.84,12.01 L15.96,11.81 L16.05,12.07 L16.17,11.97 L16.01,12.1 L16,12.11 Z" id="Shape" fill="#F0C727" fill-rule="nonzero"></path>
                <polygon id="Shape" fill="#F0C727" fill-rule="nonzero" points="17.45 10.72 17.45 10.72 17.22 10.46 17.42 10.67 17.47 10.54 17.39 10.72"></polygon>
                <polygon id="Shape" fill="#F0C727" fill-rule="nonzero" points="17.17 10.87 17.17 10.87 16.91 10.53 17.12 10.79 17.19 10.16 17.12 10.87 17.12 10.87"></polygon>
                <path d="M16.86,11.05 L17.01,10.67 C17.01,10.67 17.01,10.67 17.01,10.67 L16.86,11.06 L16.86,11.05 Z" id="Shape" fill="#F0C727" fill-rule="nonzero"></path>
                <path d="M17.09,11.36 L16.89,11.15 L17.05,11.32 L17.14,10.96 L17.26,11.14 L17.34,10.94 L17.57,11.15 C17.57,11.15 17.57,11.15 17.57,11.15 L17.37,10.98 L17.28,11.19 L17.21,11 L17.13,11.34 L17.09,11.36 Z" id="Shape" fill="#F0C727" fill-rule="nonzero"></path>
                <path d="M17,11.82 L17.08,11.43 L17.24,11.64 L17.32,11.39 L17.46,11.58 L17.59,11.25 L17.43,11.63 L17.29,11.45 L17.21,11.7 C17.21,11.7 17.21,11.7 17.21,11.7 L17.05,11.5 L17,11.8 L17,11.82 Z" id="Shape" fill="#F0C727" fill-rule="nonzero"></path>
                <path d="M17.22,12.11 L17,12 C17,12 17,12 17,12 L17.12,12.1 L17.2,11.84 L17.32,12.04 L17.42,11.77 L17.57,11.98 L17.45,11.82 L17.34,12.1 C17.34,12.1 17.34,12.1 17.34,12.1 L17.23,11.91 L17.15,12.14 L17.22,12.11 Z" id="Shape" fill="#F0C727" fill-rule="nonzero"></path>
                <path d="M16.63,8.52 C16.915112,8.73807974 17.2730973,8.83831563 17.63,8.8 C17.6877706,9.59943062 17.3042068,10.3665581 16.63,10.8 C15.9541074,10.3680735 15.5700056,9.59987001 15.63,8.8 C15.9869027,8.83831563 16.344888,8.73807974 16.63,8.52 Z" id="Shape" fill="#FFFFFF" fill-rule="nonzero"></path>
                <path d="M16.63,10.79 C15.9623608,10.3506937 15.5808615,9.58769513 15.63,8.79 C15.6725751,8.77853621 15.7174249,8.77853621 15.76,8.79 C16.0682568,8.79398751 16.3684611,8.69156489 16.61,8.5 C16.8993628,8.70942119 17.2539608,8.80870863 17.61,8.78 C17.6722454,9.58031159 17.2875965,10.3496094 16.61,10.78 L16.63,10.79 Z M15.63,8.79 C15.6114185,9.55928006 15.9890063,10.2842487 16.63,10.71 C17.2704973,10.2794793 17.6326409,9.539944 17.58,8.77 C17.58,8.77 17.58,8.77 17.5,8.77 C17.1823738,8.77522416 16.87229,8.67303746 16.62,8.48 C16.3828571,8.67948189 16.0796164,8.78294047 15.77,8.77 L15.66,8.77 L15.63,8.79 Z" id="Shape" fill="#F0C727" fill-rule="nonzero"></path>
                <path d="M16.63,10.66 C17.2008582,10.2461698 17.5272882,9.57454941 17.5,8.87 C17.1898709,8.88927326 16.882587,8.80097329 16.63,8.62 C16.3664415,8.80172637 16.0495265,8.88975832 15.73,8.87 C15.7234833,9.57696087 16.0586566,10.2435833 16.63,10.66 Z" id="Shape" fill="#F0C727" fill-rule="nonzero"></path>
                <path d="M16.63,10.7 C16.0539997,10.272986 15.716011,9.59700868 15.72,8.88 C16.02986,8.89685458 16.336357,8.80878071 16.59,8.63 C16.8380686,8.80376098 17.1376858,8.88835877 17.44,8.87 C17.463884,9.58680066 17.1304221,10.2687117 16.55,10.69 L16.63,10.7 Z M15.77,8.9 C15.7760787,9.5780652 16.0931068,10.2158079 16.63,10.63 C17.1744426,10.224057 17.4877019,9.5788918 17.47,8.9 C17.1717367,8.91025859 16.8778228,8.82628321 16.63,8.66 C16.3751499,8.8272297 16.0746164,8.91109952 15.77,8.9 Z" id="Shape" fill="#F0C727" fill-rule="nonzero"></path>
                <path d="M15.76,11.95 C15.9660202,11.9731177 16.1739798,11.9731177 16.38,11.95 C16.48,11.95 16.55,12.13 16.38,12.16 C16.1741741,12.1863637 15.9658259,12.1863637 15.76,12.16 C15.63,12.16 15.35,12.09 15.17,12.04 C14.99,11.99 15.12,11.81 15.22,11.83 C15.4031263,11.8873747 15.5903258,11.9308317 15.78,11.96 L15.76,11.95 Z" id="Shape" fill="#FFFFFF" fill-rule="nonzero"></path>
                <path d="M16.17,12.21 C16.0235813,12.2220602 15.8764187,12.2220602 15.73,12.21 C15.61,12.21 15.32,12.13 15.14,12.08 C14.96,12.03 15.02,11.96 15.03,11.92 C15.0477547,11.8510962 15.1088794,11.8021965 15.18,11.8 C15.3729992,11.858563 15.5702606,11.9020273 15.77,11.93 C15.9727266,11.9522149 16.1772734,11.9522149 16.38,11.93 C16.4535772,11.9298121 16.5147447,11.9866105 16.52,12.06 C16.52,12.12 16.52,12.19 16.36,12.2 L16.17,12.21 Z M15.17,11.84 C15.1299872,11.8377306 15.0932947,11.8621922 15.08,11.9 C15.08,11.9 15.08,11.97 15.15,11.98 C15.22,11.99 15.61,12.08 15.73,12.1 C15.9291268,12.1264307 16.1308732,12.1264307 16.33,12.1 C16.4,12.1 16.43,12.1 16.43,12.03 C16.4303594,11.9949308 16.4047116,11.9650083 16.37,11.96 C16.1642403,11.9873821 15.9557597,11.9873821 15.75,11.96 C15.5567289,11.9375225 15.3659287,11.897354 15.18,11.84 L15.17,11.84 Z" id="Shape" fill="#F0C727" fill-rule="nonzero"></path>
                <path d="M17.5,11.95 C17.2939752,11.9730343 17.0860248,11.9730343 16.88,11.95 C16.78,11.95 16.7,12.13 16.88,12.16 C17.0858189,12.186473 17.2941811,12.186473 17.5,12.16 C17.63,12.16 17.91,12.09 18.09,12.04 C18.27,11.99 18.14,11.81 18.04,11.83 C17.8569662,11.8877138 17.6697406,11.9311769 17.48,11.96 L17.5,11.95 Z" id="Shape" fill="#FFFFFF" fill-rule="nonzero"></path>
                <path d="M17.09,12.21 L16.91,12.21 C16.79,12.21 16.75,12.13 16.75,12.07 C16.7600166,12.0005768 16.8198616,11.9492811 16.89,11.95 C17.0927087,11.9725388 17.2972913,11.9725388 17.5,11.95 C17.6896238,11.925321 17.8769137,11.8851875 18.06,11.83 C18.1400038,11.8111585 18.2202707,11.8602104 18.24,11.94 C18.24,11.94 18.24,12.05 18.13,12.1 C18.02,12.15 17.66,12.21 17.53,12.23 C17.38025,12.2422486 17.22975,12.2422486 17.08,12.23 L17.09,12.21 Z M16.89,12 C16.854777,12.0072526 16.8272526,12.034777 16.82,12.07 C16.82,12.07 16.82,12.14 16.92,12.14 C17.1224471,12.1668478 17.3275529,12.1668478 17.53,12.14 C17.65,12.14 17.94,12.07 18.12,12.02 C18.12,12.02 18.19,12.02 18.18,11.94 C18.1679205,11.9056623 18.1363465,11.8819818 18.1,11.88 C17.9105109,11.9389865 17.7165381,11.9824631 17.52,12.01 C17.3142326,12.037265 17.1057674,12.037265 16.9,12.01 L16.89,12 Z" id="Shape" fill="#F0C727" fill-rule="nonzero"></path>
                <path d="M15.12,11.84 C14.97,11.84 14.89,11.99 14.94,12.09 C14.94,12.04 15.07,12.04 15.09,11.98 C15.11,11.92 15.09,11.9 15.09,11.83 L15.12,11.84 Z" id="Shape" fill="#FFFFFF" fill-rule="nonzero"></path>
                <path d="M14.94,12.13 C14.9044349,12.0645174 14.9044349,11.9854826 14.94,11.92 C14.9732709,11.8620231 15.0333066,11.8245008 15.1,11.82 C15.1,11.82 15.1,11.82 15.1,11.82 C15.1,11.82 15.1,11.82 15.1,11.82 C15.1,11.82 15.1,11.82 15.1,11.87 C15.1099057,11.8991823 15.1099057,11.9308177 15.1,11.96 C15.1,11.96 15.04,12.02 15.01,12.03 L14.95,12.03 C14.95,12.03 14.95,12.03 14.95,12.03 L14.94,12.13 Z M15.06,11.88 C15.0252582,11.8860223 14.9955091,11.9083342 14.98,11.94 C14.9828549,11.961075 14.9896389,11.9814271 15,12 C15,12 15.05,12 15.05,12 C15.0480999,11.9833875 15.0480999,11.9666125 15.05,11.95 L15.06,11.88 Z" id="Shape" fill="#F0C727" fill-rule="nonzero"></path>
                <path d="M15.73,12.31 C15.73,12.2 15.83,12.22 15.83,12.12 C15.83,12.02 15.83,11.99 15.75,11.99 C15.6931846,11.995186 15.6497638,12.0429489 15.65,12.1 C15.65,12.2 15.73,12.21 15.73,12.31 Z" id="Shape" fill="#FFFFFF" fill-rule="nonzero"></path>
                <path d="M15.73,12.35 C15.7384091,12.3239963 15.7384091,12.2960037 15.73,12.27 C15.7084999,12.2258097 15.7084999,12.1741903 15.73,12.13 C15.7352553,12.0566105 15.7964228,11.9998121 15.87,12 C15.95,12 15.98,12.1 15.98,12.16 C15.98,12.2072136 15.9577709,12.2516718 15.92,12.28 C15.90925,12.3020952 15.90925,12.3279048 15.92,12.35 L15.73,12.35 Z M15.73,12.03 C15.6913401,12.03 15.66,12.0613401 15.66,12.1 C15.6457371,12.1283048 15.6457371,12.1616952 15.66,12.19 C15.67075,12.1679048 15.67075,12.1420952 15.66,12.12 C15.66,12.12 15.66,12.03 15.66,12.03 L15.73,12.03 Z" id="Shape" fill="#F0C727" fill-rule="nonzero"></path>
                <path d="M16.46,12 C16.61,12 16.59,12.2 16.52,12.3 C16.52,12.23 16.39,12.2 16.39,12.15 C16.39,12.1 16.51,12.07 16.46,11.99 L16.46,12 Z" id="Shape" fill="#FFFFFF" fill-rule="nonzero"></path>
                <path d="M16.53,12.36 C16.53,12.36 16.53,12.36 16.53,12.36 C16.53,12.36 16.53,12.36 16.47,12.3 C16.41,12.24 16.4,12.25 16.4,12.21 C16.4013693,12.1685361 16.4240586,12.1307207 16.46,12.11 C16.46,12.11 16.46,12.11 16.46,12.06 C16.46,12.01 16.46,12.06 16.46,12.06 C16.5153385,12.0586207 16.5662933,12.0899776 16.59,12.14 C16.636316,12.2311188 16.636316,12.3388812 16.59,12.43 L16.53,12.36 Z M16.53,12.06 C16.5376223,12.0827108 16.5376223,12.1072892 16.53,12.13 C16.53,12.13 16.53,12.13 16.53,12.13 L16.59,12.13 C16.6091486,12.0783854 16.6091486,12.0216146 16.59,11.97 L16.53,12.06 Z" id="Shape" fill="#F0C727" fill-rule="nonzero"></path>
                <path d="M18.14,11.84 C18.2028043,11.8349546 18.2636751,11.8631151 18.3004901,11.9142471 C18.3373052,11.9653791 18.3447049,12.0320388 18.32,12.09 C18.32,12.04 18.19,12.04 18.17,11.98 C18.15,11.92 18.17,11.9 18.17,11.83 L18.14,11.84 Z" id="Shape" fill="#FFFFFF" fill-rule="nonzero"></path>
                <path d="M18.32,12.13 L18.26,12.13 C18.26,12.13 18.18,12.13 18.17,12.06 C18.1627922,12.0304329 18.1627922,11.9995671 18.17,11.97 C18.17,11.97 18.17,11.97 18.17,11.92 C18.2486383,11.9075136 18.3271923,11.9428629 18.37,12.01 C18.4055651,12.0754826 18.4055651,12.1545174 18.37,12.22 L18.32,12.13 Z M18.2,11.88 C18.2016063,11.896628 18.2016063,11.913372 18.2,11.93 C18.1946579,11.9462386 18.1946579,11.9637614 18.2,11.98 L18.26,11.98 C18.2699057,11.9508177 18.2699057,11.9191823 18.26,11.89 C18.2433339,11.8593123 18.2141267,11.8374069 18.18,11.83 L18.2,11.88 Z" id="Shape" fill="#F0C727" fill-rule="nonzero"></path>
                <path d="M17.52,12.31 C17.52,12.2 17.42,12.22 17.42,12.12 C17.42,12.02 17.42,11.99 17.5,11.99 C17.5568154,11.995186 17.6002362,12.0429489 17.6,12.1 C17.6,12.2 17.52,12.21 17.52,12.31 Z" id="Shape" fill="#FFFFFF" fill-rule="nonzero"></path>
                <path d="M17.52,12.35 C17.5294458,12.3276226 17.5294458,12.3023774 17.52,12.28 C17.4822291,12.2516718 17.46,12.2072136 17.46,12.16 C17.46,12.09 17.46,12 17.57,12 C17.6452116,12.0048673 17.7051327,12.0647884 17.71,12.14 C17.7283974,12.1813806 17.7283974,12.2286194 17.71,12.27 C17.7015909,12.2960037 17.7015909,12.3239963 17.71,12.35 L17.52,12.35 Z M17.52,12.03 C17.52,12.03 17.52,12.08 17.52,12.12 C17.50925,12.1420952 17.50925,12.1679048 17.52,12.19 C17.538475,12.1628444 17.538475,12.1271556 17.52,12.1 C17.5381965,12.0661865 17.5298019,12.0242138 17.5,12 L17.52,12.03 Z" id="Shape" fill="#F0C727" fill-rule="nonzero"></path>
                <path d="M16.79,12 C16.64,12 16.65,12.2 16.73,12.3 C16.73,12.23 16.86,12.2 16.86,12.15 C16.86,12.1 16.74,12.07 16.79,11.99 L16.79,12 Z" id="Shape" fill="#FFFFFF" fill-rule="nonzero"></path>
                <path d="M16.73,12.36 C16.6819976,12.2692926 16.6819976,12.1607074 16.73,12.07 C16.7537067,12.0199776 16.8046615,11.9886207 16.86,11.99 C16.86,12.04 16.93,12.07 16.93,12.13 C16.93,12.19 16.93,12.19 16.86,12.22 C16.79,12.25 16.8,12.22 16.8,12.28 L16.73,12.36 Z M16.73,12.06 C16.7077374,12.1110101 16.7077374,12.1689899 16.73,12.22 L16.78,12.22 C16.78,12.22 16.78,12.22 16.78,12.22 C16.7723777,12.1972892 16.7723777,12.1727108 16.78,12.15 L16.73,12.06 Z" id="Shape" fill="#F0C727" fill-rule="nonzero"></path>
                <path d="M15.17,11.89 C15.2243377,11.8884166 15.2774799,11.9061307 15.32,11.94 L15.17,11.89 Z" id="Shape" fill="#FFFFFF" fill-rule="nonzero"></path>
                <path d="M15.32,11.9999998 L15.17,11.9999997 C15.2318672,11.9999324 15.291881,12.0211138 15.34,12.0599998 L15.32,11.9999998 Z" id="Shape" fill="#F0C727" fill-rule="nonzero"></path>
                <path d="M15.42,12 C15.4824122,12.0062802 15.5432902,12.0231908 15.6,12.05 L15.42,12 Z" id="Shape" fill="#FFFFFF" fill-rule="nonzero"></path>
                <path d="M15.6,12 L15.42,12 C15.42,12 15.56,12 15.64,12 L15.6,12 Z" id="Shape" fill="#F0C727" fill-rule="nonzero"></path>
                <path d="M16.35,12.07 C16.3,12.07 16.19,12.07 16.17,12.07 L16.35,12.07 Z" id="Shape" fill="#FFFFFF" fill-rule="nonzero"></path>
                <path d="M16.17,12.12 C16.17,12.12 16.17,12.12 16.17,12.12 C16.17,12.12 16.27,12.12 16.37,12.12 C16.47,12.12 16.37,12.12 16.37,12.12 L16.19,12.12 L16.17,12.12 Z" id="Shape" fill="#F0C727" fill-rule="nonzero"></path>
                <path d="M16.07,12.07 C16.0130415,12.0429822 15.9469585,12.0429822 15.89,12.07 L16.07,12.07 Z" id="Shape" fill="#FFFFFF" fill-rule="nonzero"></path>
                <path d="M16.07,12.1 L15.89,12.1 C15.89,12.1 16.04,12.04 16.1,12.1 L16.07,12.1 Z" id="Shape" fill="#F0C727" fill-rule="nonzero"></path>
                <path d="M18.09,11.89 C18.0357877,11.8892452 17.982917,11.9068688 17.94,11.94 L18.09,11.89 Z" id="Shape" fill="#FFFFFF" fill-rule="nonzero"></path>
                <path d="M17.93,12 C17.93,12 17.93,12 17.93,12 C17.9788533,11.9624473 18.0383981,11.9414315 18.1,11.94 L17.95,11.94 L17.93,12 Z" id="Shape" fill="#F0C727" fill-rule="nonzero"></path>
                <path d="M17.83,12 C17.7676236,12.0064705 17.7067772,12.0233723 17.65,12.05 L17.83,12 Z" id="Shape" fill="#FFFFFF" fill-rule="nonzero"></path>
                <path d="M17.65,12 C17.65,12 17.65,12 17.65,12 C17.65,12 17.65,12 17.65,12 C17.65,12 17.86,11.93 17.86,12 L17.68,12.05 L17.65,12 Z" id="Shape" fill="#F0C727" fill-rule="nonzero"></path>
                <path d="M16.91,12.07 C16.96,12.07 17.07,12.07 17.09,12.07 L16.91,12.07 Z" id="Shape" fill="#FFFFFF" fill-rule="nonzero"></path>
                <path d="M17.09,12.12 L16.91,12.12 C16.91,12.12 16.91,12.12 16.91,12.12 C16.91,12.12 17.08,12.12 17.11,12.12 L17.09,12.12 Z" id="Shape" fill="#F0C727" fill-rule="nonzero"></path>
                <path d="M17.19,12.07 C17.2469585,12.0429822 17.3130415,12.0429822 17.37,12.07 L17.19,12.07 Z" id="Shape" fill="#FFFFFF" fill-rule="nonzero"></path>
                <path d="M17.37,12.1 L17.19,12.1 C17.25,12.04 17.35,12.1 17.4,12.1 L17.37,12.1 Z" id="Shape" fill="#F0C727" fill-rule="nonzero"></path>
                <path d="M17,7 C16.9586897,6.87391838 16.8575502,6.77652482 16.73,6.74 L16.53,6.74 C16.45,6.74 16.39,6.8 16.36,6.85 C16.33,6.9 16.45,6.96 16.49,6.98 C16.53,7 16.61,6.98 16.69,6.91 C16.7388503,6.86606851 16.8069298,6.85049115 16.8700233,6.86880863 C16.9331168,6.8871261 16.9822702,6.93673881 17,7 Z" id="Shape" fill="#F0C727" fill-rule="nonzero"></path>
                <path d="M16.54,7 L16.48,7 C16.48,7 16.48,7 16.43,6.95 L16.35,6.87 C16.35,6.87 16.42,6.73 16.5,6.73 L16.57,6.73 C16.6262338,6.72009498 16.6837662,6.72009498 16.74,6.73 C16.8670707,6.76972227 16.9650994,6.87152134 17,7 C16.9,6.93 16.77,6.89 16.71,7 C16.65,7.11 16.61,7.09 16.56,7.09 L16.54,7 Z M16.54,6.75 C16.4734608,6.7559887 16.415712,6.79833785 16.39,6.86 C16.4223923,6.87093895 16.4504288,6.89196632 16.47,6.92 C16.54,6.92 16.56,6.92 16.65,6.85 C16.7221194,6.79978251 16.8178806,6.79978251 16.89,6.85 C16.8406392,6.79126926 16.7742426,6.74933456 16.7,6.73 L16.58,6.73 L16.49,6.73 L16.54,6.75 Z" id="Shape" fill="#F0C727" fill-rule="nonzero"></path>
                <path d="M16.5,6.94 C16.4613401,6.94 16.43,6.90865993 16.43,6.87 C16.43,6.79 16.58,6.79 16.58,6.87 C16.5802098,6.89043515 16.5714788,6.90994152 16.556099,6.92339887 C16.5407192,6.93685622 16.5202265,6.94292054 16.5,6.94 Z" id="Shape" fill="#FFFFFF" fill-rule="nonzero"></path>
                <path d="M16.94,8.79 L16.94,10.4 C16.8490561,10.5004491 16.7447483,10.5879331 16.63,10.66 C16.5153257,10.5878314 16.4110311,10.5003585 16.32,10.4 L16.32,8.78 C16.4297735,8.74019585 16.5339638,8.68642022 16.63,8.62 C16.7224163,8.69462881 16.82739,8.75219501 16.94,8.79 Z" id="Shape" fill="#FFFFFF" fill-rule="nonzero"></path>
            </g>
        </g>
    </g>
</svg>