<?xml version="1.0" encoding="utf-8"?>
<!-- Generator: Adobe Illustrator 21.0.0, SVG Export Plug-In . SVG Version: 6.00 Build 0)  -->
<svg version="1.1" id="Layer_1" xmlns="http://www.w3.org/2000/svg" xmlns:xlink="http://www.w3.org/1999/xlink" x="0px" y="0px"
	 viewBox="0 0 200 200" style="enable-background:new 0 0 200 200;" xml:space="preserve">
<style type="text/css">
	.st0{fill:#3C5A99;}
	.st1{fill:#FFFFFF;}
</style>
<title>FB</title>
<path id="Blue" class="st0" d="M189,199.9c6.1,0,11-5,11-11.1l0,0V11.1c0-6.1-4.9-11.1-11-11.1l0,0H11C4.9,0.1,0,5,0,11.1V189
	c0,6.1,4.9,11.1,11,11.1l0,0H189V199.9z"/>
<path id="f" class="st1" d="M137,199.9v-71.4H161l3.6-27.9H137V82.8c0-8.1,2.3-13.6,13.9-13.6h14.8V44.4c-7.2-0.7-14.4-1.1-21.6-1.1
	c-21.4,0-36,13-36,36.8v20.5H83.9v28H108v71.4H137L137,199.9z"/>
</svg>
