<?xml version="1.0" encoding="UTF-8"?>
<svg width="34px" height="20px" viewBox="0 0 34 20" version="1.1" xmlns="http://www.w3.org/2000/svg" xmlns:xlink="http://www.w3.org/1999/xlink">
    <!-- Generator: Sketch 49 (51002) - http://www.bohemiancoding.com/sketch -->
    <title>FJD</title>
    <desc>Created with Sketch.</desc>
    <defs></defs>
    <g id="Page-1" stroke="none" stroke-width="1" fill="none" fill-rule="evenodd">
        <g id="FJD">
            <rect id="Rectangle-path" fill="#6CB2DD" fill-rule="nonzero" x="0" y="0" width="33.56" height="19.58"></rect>
            <g id="Group">
                <path d="M22.08,6.22 L22.08,10.39 C22.17,12.96 23.46,13.88 25.26,14.64 C27.33,13.73 28.37,12.64 28.37,10.39 L28.37,6.22 L22.08,6.22 Z" id="Shape" fill="#FFFFFF" fill-rule="nonzero"></path>
                <path d="M25.26,14.68 C23.35,13.88 22.14,12.88 22.06,10.4 L22.06,6.19 L28.4,6.19 L28.4,10.39 C28.4,12.47 27.52,13.67 25.27,14.67 L25.26,14.68 Z M22.12,6.26 L22.12,10.39 C22.2,12.84 23.33,13.79 25.26,14.6 C27.47,13.6 28.34,12.44 28.34,10.39 L28.34,6.26 L22.12,6.26 Z" id="Shape" fill="#000000" fill-rule="nonzero"></path>
                <path d="M22.08,10.32 C22.0951624,10.7268923 22.145348,11.1317221 22.23,11.53 L28.23,11.53 C28.3127561,11.131406 28.3629218,10.7267358 28.38,10.32 L22.08,10.32 Z" id="Shape" fill="#C0003B" fill-rule="nonzero"></path>
                <path d="M24.62,8.23 L24.62,14.32 L25.3,14.64 C25.3,14.64 25.55,14.48 25.83,14.34 L25.83,8.23 L24.62,8.23 Z" id="Shape" fill="#C0003B" fill-rule="nonzero"></path>
                <rect id="Rectangle-path" fill="#192967" fill-rule="nonzero" x="0" y="0" width="16.82" height="8.41"></rect>
                <polygon id="Shape" fill="#FFFFFF" fill-rule="nonzero" points="0 0 0 0.94 14.94 8.41 16.82 8.41 16.82 7.47 1.88 0"></polygon>
                <polygon id="Shape" fill="#FFFFFF" fill-rule="nonzero" points="16.82 0 16.82 0.94 1.88 8.41 0 8.41 0 7.47 14.94 0"></polygon>
                <rect id="Rectangle-path" fill="#FFFFFF" fill-rule="nonzero" x="7.01" y="0" width="2.8" height="8.41"></rect>
                <rect id="Rectangle-path" fill="#FFFFFF" fill-rule="nonzero" x="0" y="2.8" width="16.82" height="2.8"></rect>
                <rect id="Rectangle-path" fill="#BC0030" fill-rule="nonzero" x="0" y="3.36" width="16.82" height="1.68"></rect>
                <rect id="Rectangle-path" fill="#BC0030" fill-rule="nonzero" x="7.57" y="0" width="1.68" height="8.41"></rect>
                <polygon id="Shape" fill="#C0003B" fill-rule="nonzero" points="0 8.41 5.61 5.61 6.86 5.61 1.25 8.41"></polygon>
                <polygon id="Shape" fill="#C0003B" fill-rule="nonzero" points="0 0 5.61 2.8 4.35 2.8 0 0.63"></polygon>
                <polygon id="Shape" fill="#C0003B" fill-rule="nonzero" points="9.96 2.8 15.57 0 16.82 0 11.21 2.8"></polygon>
                <polygon id="Shape" fill="#C0003B" fill-rule="nonzero" points="16.82 8.41 11.21 5.61 12.47 5.61 16.82 7.78"></polygon>
                <rect id="Rectangle-path" fill="#C0003B" fill-rule="nonzero" x="22.07" y="6.21" width="6.3" height="2.25"></rect>
                <path d="M22.42,7.26 C22.5447324,7.28047657 22.6322031,7.39418843 22.62,7.52 C22.6322031,7.64581157 22.5447324,7.75952343 22.42,7.78 C22.3587743,7.77254318 22.3031091,7.7408081 22.2655033,7.69192057 C22.2278975,7.64303303 22.2115026,7.58108994 22.22,7.52 C22.2077969,7.39418843 22.2952676,7.28047657 22.42,7.26 Z" id="Shape" fill="#F3EDEB" fill-rule="nonzero"></path>
                <path d="M22.42,7.79 C22.2952676,7.76952343 22.2077969,7.65581157 22.22,7.53 C22.22,7.38 22.31,7.26 22.42,7.26 C22.548758,7.27567942 22.6417603,7.39082502 22.63,7.52 C22.63,7.67 22.54,7.79 22.43,7.79 L22.42,7.79 Z M22.42,7.27 C22.2967564,7.28564335 22.2082083,7.39632846 22.22,7.52 C22.22,7.67 22.31,7.78 22.42,7.78 C22.5365947,7.74735299 22.6171989,7.64107912 22.6171989,7.52 C22.6171989,7.39892088 22.5365947,7.29264701 22.42,7.26 L22.42,7.27 Z" id="Shape" fill="#000000" fill-rule="nonzero"></path>
                <path d="M27,7.12 C27.1807307,7.12500174 27.3597372,7.08369257 27.52,7 C27.65,6.88 27.43,6.65 27.52,6.63 C27.590558,6.62416668 27.6600916,6.64978434 27.71,6.7 C27.71,6.7 27.71,6.63 27.65,6.6 C27.5950731,6.58014181 27.5349269,6.58014181 27.48,6.6 C27.43,6.6 27.42,6.6 27.34,6.51 C27.3062158,6.44761348 27.3062158,6.37238652 27.34,6.31 C27.2775157,6.34126095 27.2476446,6.41380506 27.27,6.48 C27.2744204,6.5299023 27.2744204,6.5800977 27.27,6.63 C27.2080732,6.534022 27.11125,6.46588713 27,6.44 C26.74,6.44 26.09,6.59 25.79,6.59 C25.5473614,6.57969002 25.3062644,6.54620432 25.07,6.49 C25.07,6.49 25.18,6.42 25.07,6.38 C24.96,6.34 24.65,6.49 24.57,6.38 C24.49,6.27 24.57,6.32 24.57,6.29 C24.57,6.26 24.57,6.35 24.57,6.41 C24.57,6.47 24.62,6.41 24.57,6.41 C24.52,6.41 24.46,6.41 24.46,6.41 C24.46,6.41 24.46,6.41 24.46,6.55 C24.46,6.46 24.41,6.45 24.56,6.44 C24.6889373,6.44864077 24.8164471,6.47212942 24.94,6.51 C25.07,6.51 25.07,6.51 25.07,6.51 C25.3158205,6.56629745 25.5680072,6.58983488 25.82,6.58 C26.2115352,6.5298383 26.6053863,6.49979881 27,6.49 C27.26,6.49 27.44,6.69 27.44,6.84 C27.44,6.99 27.32,6.98 27.23,7 L26.87,7 L27,7.12 Z" id="Shape" fill="#F5D028" fill-rule="nonzero"></path>
                <path d="M27,7.13 L26.89,7 L27.25,7 C27.25,7 27.45,7 27.46,6.85 C27.47,6.7 27.29,6.54 27.02,6.5 C26.7979084,6.49493202 26.5760876,6.51845847 26.36,6.57 C26.1848908,6.6061237 26.00797,6.63282872 25.83,6.65 C25.5780295,6.65903336 25.3259469,6.63550565 25.08,6.58 C25.3267539,6.63024585 25.5782098,6.65371507 25.83,6.65 C26.0081136,6.634007 26.1851013,6.60729188 26.36,6.57 C26.5693705,6.51785688 26.7842365,6.49099863 27,6.49 C27.28,6.49 27.44,6.7 27.44,6.84 C27.44,6.98 27.3,7 27.25,7 L26.89,7 L27.03,7.08 C27.1974614,7.09494852 27.3659888,7.06743385 27.52,7 C27.59,6.94 27.52,6.85 27.52,6.77 C27.52,6.69 27.52,6.68 27.52,6.65 C27.5937474,6.64252955 27.6670075,6.66817057 27.72,6.72 C27.7235715,6.69680334 27.7235715,6.67319666 27.72,6.65 C27.6791768,6.6057921 27.6198254,6.58353533 27.56,6.59 L27.51,6.59 C27.51,6.59 27.46,6.59 27.41,6.52 C27.3583264,6.45204036 27.3583264,6.35795964 27.41,6.29 C27.3543802,6.32698701 27.3299186,6.39629489 27.35,6.46 L27.35,6.55 C27.3531778,6.56987377 27.3531778,6.59012623 27.35,6.61 C27.2617972,6.50745513 27.1351296,6.44593083 27,6.44 C26.83,6.44 26.6,6.44 26.38,6.52 C26.1856326,6.56150956 25.9884029,6.58825256 25.79,6.6 C25.5473778,6.58950874 25.306298,6.55602542 25.07,6.5 C25.07,6.5 25.07,6.5 25.07,6.43 C25.07,6.36 25.07,6.43 25.01,6.43 C24.9339828,6.41588673 24.8560172,6.41588673 24.78,6.43 C24.66,6.43 24.55,6.43 24.51,6.43 C24.47,6.43 24.51,6.37 24.51,6.35 C24.51,6.33 24.51,6.35 24.51,6.45 C24.45,6.45 24.42,6.45 24.41,6.45 C24.4,6.45 24.41,6.5 24.41,6.58 C24.4126199,6.5600858 24.4126199,6.5399142 24.41,6.52 C24.41,6.52 24.41,6.57 24.41,6.6 C24.41,6.63 24.41,6.49 24.41,6.46 C24.41,6.43 24.48,6.46 24.52,6.46 C24.56,6.46 24.52,6.46 24.52,6.46 C24.52,6.46 24.52,6.35 24.52,6.34 C24.5255266,6.3749594 24.5432372,6.40683845 24.57,6.43 C24.57,6.43 24.72,6.43 24.84,6.43 C24.9194951,6.4172887 25.0005049,6.4172887 25.08,6.43 C25.08,6.43 25.14,6.43 25.15,6.43 C25.16,6.43 25.15,6.49 25.15,6.5 C25.3870373,6.55198974 25.6277663,6.58542433 25.87,6.6 C26.0682412,6.58662476 26.265355,6.55989747 26.46,6.52 C26.6378568,6.4783162 26.818238,6.44825266 27,6.43 C27.25,6.43 27.32,6.51 27.35,6.54 C27.38,6.57 27.35,6.54 27.35,6.54 L27.35,6.45 C27.3276446,6.38380506 27.3575157,6.31126095 27.42,6.28 C27.3842734,6.34188022 27.3842734,6.41811978 27.42,6.48 C27.49,6.55 27.51,6.57 27.54,6.57 L27.59,6.57 C27.6352929,6.55398653 27.6847071,6.55398653 27.73,6.57 C27.73,6.62 27.78,6.64 27.79,6.67 C27.7406829,6.62527165 27.6765784,6.60034214 27.61,6.6 L27.56,6.6 C27.56,6.6 27.56,6.67 27.56,6.72 C27.56,6.77 27.56,6.89 27.56,6.96 C27.4124677,7.05171134 27.2435894,7.10340878 27.07,7.11 L27,7.13 Z M25,6.62 L24.87,6.62 C24.7969838,6.6103553 24.7230162,6.6103553 24.65,6.62 L24.54,6.62 L24.62,6.62 C24.7026172,6.60454973 24.7873828,6.60454973 24.87,6.62 L25,6.62 C25.1,6.62 25.12,6.62 25.13,6.62 C25.13,6.62 25.13,6.62 25.04,6.62 L25,6.62 Z" id="Shape" fill="#000000" fill-rule="nonzero"></path>
                <path d="M26.63,7.21 C26.63,7.21 26.39,7.21 26.32,7.34 C26.2755487,7.41844411 26.2419105,7.50253957 26.22,7.59 L26.38,7.48 C26.3151681,7.60279228 26.2973887,7.74502733 26.33,7.88 C26.39,8.07 26.17,8.06 26.04,8.07 C25.9505979,7.99638981 25.8490892,7.93886818 25.74,7.9 C25.74,7.9 25.62,7.9 25.54,8 C25.46,8.1 25.61,7.93 25.73,7.94 C25.7369568,7.96281479 25.7369568,7.98718521 25.73,8.01 C25.67,8.01 25.6,7.91 25.52,8.1 C25.6,8.03 25.61,8.03 25.65,8.03 C25.69,8.03 25.65,8.03 25.65,8.03 C25.65,8.03 25.65,8.03 25.59,8.03 C25.53,8.03 25.53,8.12 25.54,8.12 L25.62,8.06 C25.62,8.06 25.62,8.06 25.75,8.06 C26.18,8.19 26.41,8.06 26.43,8.06 C26.3605613,7.8919847 26.3710457,7.70154666 26.4585088,7.54216948 C26.5459719,7.38279231 26.7009801,7.27166606 26.88,7.24 L26.59,7.13 L26.63,7.21 Z" id="Shape" fill="#F5D028" fill-rule="nonzero"></path>
                <path d="M26.18,8.22 C26.0472185,8.21642214 25.9157375,8.192823 25.79,8.15 C25.71,8.15 25.69,8.15 25.66,8.15 L25.61,8.15 L25.67,8.15 C25.67,8.15 25.72,8.15 25.8,8.15 C26.0170414,8.24341772 26.2629586,8.24341772 26.48,8.15 C26.37,7.69 26.48,7.42 26.93,7.33 L26.82,7.33 L26.64,7.26 C26.64,7.26 26.4,7.26 26.33,7.39 C26.28793,7.46848113 26.2576068,7.55271213 26.24,7.64 L26.39,7.53 C26.3472632,7.65990876 26.3472632,7.80009124 26.39,7.93 C26.4095658,7.96760736 26.4095658,8.01239264 26.39,8.05 C26.39,8.11 26.23,8.12 26.14,8.12 C26.26,8.12 26.35,8.12 26.39,8.05 C26.4077951,8.01549243 26.4077951,7.97450757 26.39,7.94 C26.3583054,7.80497711 26.3760443,7.66306661 26.44,7.54 L26.28,7.65 C26.2996735,7.56183162 26.3334406,7.47741401 26.38,7.4 C26.45,7.27 26.69,7.27 26.69,7.27 L26.87,7.34 L26.98,7.34 C26.805567,7.3640217 26.6520275,7.4673116 26.5640367,7.61982889 C26.476046,7.77234619 26.4634824,7.95696838 26.53,8.12 C26.53,8.12 26.42,8.2 26.24,8.2 L26.18,8.22 Z M25.53,8.12 C25.53,7.99 25.64,7.99 25.7,8.01 C25.7019912,7.99339281 25.7019912,7.97660719 25.7,7.96 C25.7043361,7.97976498 25.7043361,8.00023502 25.7,8.02 C25.7,8.02 25.61,7.94 25.53,8.13 C25.61,8.06 25.62,8.06 25.66,8.06 C25.7,8.06 25.71,8.06 25.71,8.06 C25.66,8.06 25.65,8.06 25.57,8.13 L25.53,8.12 Z M25.53,8.02 L25.53,8 C25.5759412,7.9730004 25.6270473,7.95596502 25.68,7.95 C25.6177062,7.9562024 25.5585997,7.98054036 25.51,8.02 L25.53,8.02 Z M25.92,8.02 L25.72,7.93 C25.6804196,7.90449494 25.6295804,7.90449494 25.59,7.93 C25.6286981,7.90165493 25.6813019,7.90165493 25.72,7.93 L25.92,8.02 Z" id="Shape" fill="#000000" fill-rule="nonzero"></path>
                <path d="M23.66,7.91 C23.94,8.16 25.86,7.64 26.1,7.45 C26.34,7.26 26.48,7.27 26.48,7.63 C26.5082486,7.53182809 26.5283172,7.43148506 26.54,7.33 C26.6313724,7.44687073 26.6931275,7.58410429 26.72,7.73 C26.72,7.46 26.72,7.31 26.72,7.33 C26.72,7.35 26.72,7.46 26.91,7.68 C26.91,7.51 26.91,7.43 26.91,7.43 C27.0465467,7.58108812 27.2091298,7.70641257 27.39,7.8 C27.57,7.8 27.82,7.71 27.9,7.8 C27.98,7.89 28.11,8.02 28.11,8.13 C28.11,8.24 27.82,8.13 27.79,8.23 C27.76,8.33 27.79,8.32 27.79,8.32 L27.79,8.44 C27.79,8.44 27.79,8.32 27.79,8.31 C27.79,8.3 27.79,8.39 27.84,8.43 C27.89,8.47 27.84,8.3 27.84,8.3 C27.84,8.3 27.84,8.37 27.92,8.42 L27.92,8.28 C28.04,8.28 28.14,8.28 28.16,8.15 C28.18,8.02 27.98,7.88 27.93,7.75 C27.88,7.62 27.93,7.58 27.88,7.51 C27.83,7.44 27.46,7.62 27.3,7.51 C27.14,7.4 27.21,6.96 26.63,6.86 C25.7956533,6.95644746 24.9762358,7.15458531 24.19,7.45 C23.9789164,7.45546053 23.7686628,7.42154866 23.57,7.35 L23.66,7.91 Z" id="Shape" fill="#F5D028" fill-rule="nonzero"></path>
                <path d="M27.8,8.44 L27.8,8.38 C27.8,8.38 27.8,8.3 27.8,8.3 C27.8,8.3 27.8,8.3 27.8,8.39 C27.8,8.48 27.8,8.29 27.8,8.29 C27.8,8.29 27.8,8.29 27.85,8.36 L27.85,8.42 L27.85,8.28 L27.93,8.28 C28.01,8.28 28.07,8.28 28.09,8.18 C28.11,8.08 28.04,8.05 27.98,7.97 C27.9799849,7.89952381 27.9866818,7.82920635 28,7.76 C27.9901622,7.71722503 27.9901622,7.67277497 28,7.63 C28.021978,7.59662675 28.021978,7.55337325 28,7.52 C28,7.52 27.86,7.52 27.75,7.52 C27.6418315,7.54838801 27.5281685,7.54838801 27.42,7.52 C27.37,7.52 27.34,7.43 27.31,7.35 C27.2338557,7.09387002 27.0147623,6.9060757 26.75,6.87 C26.1109272,6.89786215 25.4815604,7.03659354 24.89,7.28 C24.7006116,7.34934779 24.5068583,7.40613754 24.31,7.45 C24.0989007,7.45569589 23.8886037,7.42177703 23.69,7.35 L23.69,7.86 C23.775145,7.93945878 23.8840915,7.98866043 24,8 C24.7320803,7.94777123 25.4494685,7.76842419 26.12,7.47 C26.1834201,7.41992454 26.2596669,7.38873268 26.34,7.38 C26.42,7.38 26.51,7.38 26.51,7.65 C26.5376304,7.55167863 26.5576891,7.45138527 26.57,7.35 C26.6671966,7.46058563 26.7328269,7.59530034 26.76,7.74 C26.7690598,7.62684773 26.7690598,7.51315227 26.76,7.4 C26.76,7.4 26.76,7.34 26.76,7.33 C26.76,7.32 26.76,7.33 26.76,7.33 C26.794758,7.44190983 26.8489152,7.5468395 26.92,7.64 C26.92,7.47 26.87,7.39 26.87,7.39 C27.0126,7.53592812 27.1781208,7.65753527 27.36,7.75 C27.452408,7.76858621 27.547592,7.76858621 27.64,7.75 C27.75,7.75 27.84,7.75 27.87,7.75 C27.9,7.75 28.08,7.97 28.08,8.08 C28.08,8.19 27.99,8.14 27.91,8.14 C27.83,8.14 27.77,8.14 27.76,8.14 C27.7549193,8.15967734 27.7549193,8.18032266 27.76,8.2 C27.7531371,8.18058875 27.7531371,8.15941125 27.76,8.14 C27.76,8.14 27.85,8.14 27.92,8.14 C27.99,8.14 28.08,8.14 28.08,8.08 C28.08,8.02 27.94,7.82 27.88,7.75 C27.82,7.68 27.75,7.75 27.65,7.75 C27.557541,7.76806723 27.462459,7.76806723 27.37,7.75 C27.188403,7.65755799 27.0256241,7.53208258 26.89,7.38 L26.89,7.63 C26.8131724,7.53907516 26.7553653,7.43366224 26.72,7.32 C26.72,7.32 26.72,7.32 26.72,7.38 C26.7320758,7.49301166 26.7320758,7.60698834 26.72,7.72 C26.6889577,7.5784965 26.627541,7.44542718 26.54,7.33 C26.5333327,7.43221042 26.5131572,7.53308756 26.48,7.63 C26.48,7.36 26.3,7.3 26.1,7.45 C25.4368261,7.75270189 24.7264145,7.93876206 24,8 C23.8884993,8.01326027 23.7757806,7.98860307 23.68,7.93 L23.68,7.39 C23.880135,7.4546522 24.0897427,7.48507912 24.3,7.48 C24.5005946,7.4379797 24.6978009,7.38115756 24.89,7.31 C25.4813764,7.06600707 26.1108475,6.9272527 26.75,6.9 C27.0174916,6.9348267 27.24016,7.12233697 27.32,7.38 C27.32,7.46 27.38,7.53 27.43,7.55 C27.5382253,7.57794366 27.6517747,7.57794366 27.76,7.55 C27.87,7.55 27.97,7.55 28.01,7.55 C28.031978,7.58337325 28.031978,7.62662675 28.01,7.66 C27.9980404,7.70250815 27.9980404,7.74749185 28.01,7.79 C28.0392299,7.85423966 28.076168,7.91468387 28.12,7.97 C28.18,8.06 28.24,8.14 28.23,8.19 C28.22,8.24 28.15,8.28 28.07,8.3 L27.99,8.3 L27.99,8.4 C27.9866432,8.38014085 27.9866432,8.35985915 27.99,8.34 C27.99,8.26 27.91,8.34 27.91,8.34 C27.9135107,8.35648179 27.9135107,8.37351821 27.91,8.39 C27.91,8.32 27.91,8.28 27.86,8.27 C27.81,8.26 27.86,8.27 27.86,8.34 C27.861817,8.35661715 27.861817,8.37338285 27.86,8.39 L27.8,8.44 Z" id="Shape" fill="#000000" fill-rule="nonzero"></path>
                <path d="M23.29,7.72 C23.29,7.72 22.99,8.1 22.79,8.09 C22.59,8.08 22.42,7.83 22.38,7.84 C22.34,7.85 22.32,7.84 22.31,7.75 C22.3,7.66 22.31,7.65 22.31,7.65 C22.31,7.65 22.31,7.76 22.31,7.77 C22.31,7.78 22.31,7.63 22.31,7.63 C22.31,7.63 22.31,7.74 22.31,7.78 C22.31,7.82 22.31,7.62 22.31,7.62 C22.31,7.62 22.31,7.77 22.39,7.82 C22.4594846,7.90028831 22.5551218,7.95342007 22.66,7.97 C22.79,7.97 23.09,7.61 23.11,7.62 L23.29,7.72 Z" id="Shape" fill="#F5D028" fill-rule="nonzero"></path>
                <path d="M22.8,8.1 C22.6773793,8.07428611 22.5656505,8.01143863 22.48,7.92 L22.41,7.86 C22.4409188,7.87359389 22.4682926,7.8941242 22.49,7.92 C22.5752377,8.01196341 22.6871452,8.07491142 22.81,8.1 C23.01,8.1 23.3,7.74 23.31,7.73 L23.25,7.66 L23.13,7.76 C23.0386434,7.86544053 22.9262347,7.95059859 22.8,8.01 C22.6915359,7.99569879 22.5919965,7.94237408 22.52,7.86 C22.5132864,7.8202817 22.5132864,7.7797183 22.52,7.74 C22.52,7.74 22.52,7.66 22.52,7.66 C22.52,7.66 22.52,7.73 22.52,7.77 C22.5143247,7.74026841 22.5143247,7.70973159 22.52,7.68 C22.521192,7.66335465 22.521192,7.64664535 22.52,7.63 C22.5227973,7.64654929 22.5227973,7.66345071 22.52,7.68 C22.5155243,7.70647886 22.5155243,7.73352114 22.52,7.76 C22.5102262,7.72398465 22.5102262,7.68601535 22.52,7.65 C22.52,7.65 22.52,7.65 22.52,7.73 C22.5121842,7.7696182 22.5121842,7.8103818 22.52,7.85 C22.5894846,7.93028831 22.6851218,7.98342007 22.79,8 C22.9162347,7.94059859 23.0286434,7.85544053 23.12,7.75 C23.19,7.69 23.23,7.65 23.24,7.65 L23.31,7.72 C23.31,7.72 23.01,8.1 22.81,8.1 L22.8,8.1 Z" id="Shape" fill="#000000" fill-rule="nonzero"></path>
                <path d="M23.3,7.51 C23.3,7.51 23.05,7.11 22.85,7.07 C22.65,7.03 22.46,7.22 22.41,7.2 C22.36,7.18 22.35,7.2 22.33,7.26 C22.31,7.32 22.33,7.35 22.33,7.35 C22.33,7.35 22.33,7.26 22.33,7.25 C22.33,7.24 22.28,7.36 22.33,7.38 C22.38,7.4 22.33,7.29 22.38,7.26 C22.43,7.23 22.38,7.39 22.38,7.4 C22.38,7.41 22.44,7.27 22.48,7.24 C22.564265,7.18008924 22.6669365,7.15176608 22.77,7.16 C22.9,7.16 23.15,7.57 23.17,7.56 L23.3,7.51 Z" id="Shape" fill="#F5D028" fill-rule="nonzero"></path>
                <path d="M23.23,7.57 C23.23,7.57 23.23,7.57 23.12,7.46 C23.0401002,7.34790668 22.9420933,7.24989982 22.83,7.17 C22.7281312,7.15885053 22.6255656,7.18360775 22.54,7.24 C22.5120825,7.26789333 22.4914741,7.30224061 22.48,7.34 C22.48,7.34 22.48,7.4 22.48,7.4 C22.48,7.4 22.48,7.34 22.48,7.3 C22.48,7.26 22.48,7.39 22.48,7.39 C22.48,7.39 22.48,7.39 22.48,7.39 L22.48,7.32 C22.4757861,7.36323089 22.4757861,7.40676911 22.48,7.45 C22.48,7.45 22.48,7.45 22.48,7.39 C22.4924765,7.35269387 22.5129541,7.31856454 22.54,7.29 C22.6238811,7.22928571 22.7268541,7.20087936 22.83,7.21 C22.9462991,7.28824379 23.0478599,7.3864193 23.13,7.5 L23.23,7.61 L23.3,7.56 C23.3,7.56 23.05,7.17 22.85,7.13 C22.7333803,7.1255092 22.6181925,7.15692406 22.52,7.22 L22.43,7.22 C22.37,7.22 22.36,7.22 22.34,7.28 C22.323923,7.3078461 22.323923,7.3421539 22.34,7.37 L22.34,7.32 C22.34,7.32 22.34,7.32 22.34,7.32 L22.34,7.4 C22.3359592,7.3802041 22.3359592,7.3597959 22.34,7.34 C22.34,7.41 22.34,7.43 22.34,7.43 C22.3181587,7.40397535 22.3181587,7.36602465 22.34,7.34 C22.34,7.34 22.34,7.26 22.4,7.26 C22.441622,7.27722296 22.488378,7.27722296 22.53,7.26 C22.6301143,7.19289859 22.7497988,7.1612174 22.87,7.17 C23.07,7.17 23.32,7.6 23.32,7.61 L23.24,7.66 L23.23,7.57 Z" id="Shape" fill="#000000" fill-rule="nonzero"></path>
                <path d="M23.18,7.39 L22.91,7.53 L23.11,7.59 L23,7.77 L23.21,7.7 L23.21,7.94 L23.33,7.78 L23.41,8 L23.49,7.84 L23.59,8.02 L23.59,7.85 L23.71,8.02 L23.71,7.79 L23.86,7.94 L23.86,7.69 L24.03,7.75 L23.92,7.56 L24.1,7.56 C24.0182708,7.49380445 23.9273105,7.43990211 23.83,7.4 L23.18,7.39 Z" id="Shape" fill="#F5D028" fill-rule="nonzero"></path>
                <path d="M23.69,8 L23.57,7.82 L23.57,7.99 L23.47,7.81 L23.36,8 L23.28,7.78 L23.17,7.94 L23.17,7.7 L23,7.77 L23.14,7.59 L22.94,7.54 L23.21,7.39 L23.87,7.39 C23.9535011,7.41993958 24.0312833,7.46390343 24.1,7.52 C24.0213739,7.45720348 23.93372,7.40663392 23.84,7.37 L23.18,7.37 L22.91,7.51 L23.11,7.56 L23,7.77 L23.2,7.69 L23.2,7.93 L23.31,7.77 L23.39,7.99 L23.46,7.83 L23.56,8.01 L23.56,7.84 L23.68,8.01 L23.68,7.78 L23.83,7.92 L23.83,7.68 L24.01,7.74 L23.9,7.56 L24.08,7.56 L23.9,7.56 L24.01,7.75 L23.83,7.69 L23.83,7.93 L23.68,7.79 L23.68,8.03 L23.69,8 Z" id="Shape" fill="#000000" fill-rule="nonzero"></path>
                <path d="M23.33,7.33 L23.18,7.41 L23.29,7.41 L23.21,7.51 L23.32,7.51 L23.32,7.65 L23.39,7.56 L23.39,7.68 L23.39,7.59 L23.44,7.69 L23.44,7.59 L23.51,7.69 L23.51,7.56 L23.59,7.64 L23.59,7.49 L23.69,7.49 L23.63,7.38 L23.73,7.38 C23.6879881,7.34331183 23.6408187,7.31298867 23.59,7.29 L23.33,7.33 Z" id="Shape" fill="#F5D028" fill-rule="nonzero"></path>
                <path d="M23.61,7.68 L23.54,7.58 L23.54,7.68 L23.49,7.58 L23.49,7.67 L23.49,7.55 L23.43,7.64 L23.43,7.5 L23.32,7.5 L23.4,7.4 L23.29,7.4 L23.44,7.31 L23.8,7.31 C23.8469669,7.32584431 23.8909189,7.34951077 23.93,7.38 C23.8900133,7.3482427 23.8463696,7.32138506 23.8,7.3 L23.44,7.3 L23.29,7.38 L23.4,7.38 L23.32,7.48 L23.43,7.48 L23.43,7.62 L23.49,7.53 L23.49,7.65 L23.49,7.56 L23.54,7.66 L23.54,7.56 L23.61,7.65 L23.61,7.52 L23.69,7.6 L23.69,7.46 L23.79,7.46 L23.73,7.36 L23.79,7.46 L23.69,7.46 L23.69,7.6 L23.61,7.52 L23.61,7.66 L23.61,7.68 Z" id="Shape" fill="#000000" fill-rule="nonzero"></path>
                <path d="M23.4,6.93 C23.4,6.93 23.32,6.86 23.29,6.93 C23.26,7 23.36,6.93 23.36,6.93 C23.3223146,6.98338176 23.2982807,7.04518309 23.29,7.11 C23.2998418,7.19784086 23.3165597,7.28477424 23.34,7.37 C23.3467367,7.41859739 23.3823783,7.45819918 23.43,7.47 C23.5,7.47 23.53,7.4 23.55,7.39 C23.57,7.38 23.66,7.39 23.7,7.31 C23.7107909,7.22032345 23.7107909,7.12967655 23.7,7.04 C23.7,7.04 23.77,7.09 23.77,7.04 C23.77,6.99 23.7,7.04 23.7,7.04 C23.7,7.04 23.7,6.93 23.55,6.88 C23.4,6.83 23.37,6.88 23.37,6.88 L23.4,6.93 Z" id="Shape" fill="#F5D028" fill-rule="nonzero"></path>
                <path d="M23.46,7.53 C23.4108378,7.51442965 23.3755269,7.47127195 23.37,7.42 L23.37,7.36 C23.3633166,7.29350084 23.3633166,7.22649916 23.37,7.16 C23.3621548,7.12375297 23.3621548,7.08624703 23.37,7.05 C23.3642021,7.08643747 23.3642021,7.12356253 23.37,7.16 C23.3633166,7.22649916 23.3633166,7.29350084 23.37,7.36 C23.3730171,7.37988622 23.3730171,7.40011378 23.37,7.42 C23.3790781,7.467472 23.4137432,7.50598877 23.46,7.52 C23.46,7.52 23.52,7.52 23.54,7.45 C23.5908131,7.45454692 23.6389463,7.42646918 23.66,7.38 C23.6722059,7.29041384 23.6722059,7.19958616 23.66,7.11 C23.72,7.11 23.72,7.11 23.72,7.11 C23.72,7.11 23.72,7.11 23.72,7.11 C23.72,7.11 23.72,7.11 23.72,7.11 C23.72,7.11 23.72,7 23.57,6.96 C23.5198193,6.9216573 23.4501807,6.9216573 23.4,6.96 C23.4,6.96 23.47,6.89 23.58,6.96 C23.69,7.03 23.73,7.1 23.73,7.12 C23.73,7.14 23.8,7.05 23.8,7.12 C23.8,7.19 23.8,7.18 23.8,7.18 C23.8,7.18 23.8,7.34 23.74,7.43 C23.7154072,7.47806505 23.663665,7.50592621 23.61,7.5 C23.61,7.5 23.61,7.57 23.53,7.57 L23.46,7.53 Z" id="Shape" fill="#000000" fill-rule="nonzero"></path>
                <path d="M23.38,6.92 C23.38,6.86 23.3,6.61 23.3,6.61 L23.43,6.7 L23.35,6.7 C23.3723182,6.73879828 23.3923523,6.77886645 23.41,6.82 C23.4659395,6.80716191 23.5240605,6.80716191 23.58,6.82 L23.58,6.72 L23.7,6.63 L23.7,6.75 L23.7,6.84 C23.7542216,6.85047214 23.80345,6.87860264 23.84,6.92 C23.8841964,6.90562187 23.9227041,6.87761633 23.95,6.84 L23.9,6.84 L24,6.84 C23.920107,6.92704003 23.8331432,7.00731435 23.74,7.08 C23.6236278,7.04108461 23.5100331,6.99431031 23.4,6.94 L23.38,6.92 Z" id="Shape" fill="#F5D028" fill-rule="nonzero"></path>
                <path d="M23.72,7.06 L23.57,7 C23.5020727,6.98085387 23.4378453,6.95043035 23.38,6.91 C23.38,6.85 23.3,6.6 23.3,6.6 L23.44,6.69 L23.37,6.69 L23.37,6.77 L23.32,6.69 L23.4,6.69 L23.27,6.61 C23.27,6.61 23.33,6.85 23.36,6.91 C23.4199389,6.94410268 23.4837199,6.97095784 23.55,6.99 L23.69,7.05 C23.7991065,6.98143727 23.9027487,6.90454145 24,6.82 L23.83,6.82 L23.88,6.82 C23.855589,6.86245587 23.816449,6.89447952 23.77,6.91 C23.7329905,6.86917079 23.6839654,6.84115646 23.63,6.83 L23.74,6.61 L23.74,6.74 L23.67,6.83 C23.7244963,6.83972291 23.773956,6.8679856 23.81,6.91 C23.8502348,6.8933381 23.8849125,6.86559594 23.91,6.83 L23.85,6.83 L24,6.83 C23.9241539,6.92390108 23.8368021,7.00789314 23.74,7.08 L23.72,7.06 Z M23.59,6.83 L23.48,6.83 C23.5192272,6.81888014 23.5607728,6.81888014 23.6,6.83 L23.6,6.74 C23.6046835,6.7698172 23.6046835,6.8001828 23.6,6.83 L23.59,6.83 Z" id="Shape" fill="#000000" fill-rule="nonzero"></path>
                <path d="M23.46,7.09 C23.46,7.09 23.46,7.09 23.46,7.09 L23.38,7.09 C23.38,7.09 23.38,7.09 23.38,7.09 L23.46,7.09 Z" id="Shape" fill="#000000" fill-rule="nonzero"></path>
                <path d="M23.62,7.16 L23.54,7.16 C23.54,7.16 23.54,7.16 23.54,7.16 L23.62,7.16 Z" id="Shape" fill="#000000" fill-rule="nonzero"></path>
                <path d="M23.52,7.35 C23.58,7.35 23.6,7.35 23.57,7.35 L23.42,7.35 C23.36,7.35 23.34,7.35 23.37,7.35 L23.53,7.35 L23.52,7.35 Z" id="Shape" fill="#000000" fill-rule="nonzero"></path>
                <path d="M23.51,7.26 C23.51,7.26 23.51,7.26 23.51,7.26 L23.44,7.26 L23.51,7.26 Z" id="Shape" fill="#000000" fill-rule="nonzero"></path>
                <path d="M23.47,7.28 C23.47,7.28 23.47,7.28 23.47,7.28 C23.4743361,7.29976498 23.4743361,7.32023502 23.47,7.34 C23.47,7.34 23.47,7.34 23.47,7.34 C23.4656639,7.32023502 23.4656639,7.29976498 23.47,7.28 Z" id="Shape" fill="#000000" fill-rule="nonzero"></path>
                <polygon id="Shape" fill="#30770E" fill-rule="nonzero" points="22.55 11.86 22.43 11.64 22.6 11.85 22.61 11.94"></polygon>
                <path d="M22.62,11.95 L22.56,11.86 L22.43,11.64 L22.61,11.85 L22.61,11.95 L22.62,11.95 Z M22.43,11.64 L22.62,11.93 L22.62,11.85 L22.44,11.64 L22.43,11.64 Z" id="Shape" fill="#000000" fill-rule="nonzero"></path>
                <polygon id="Shape" fill="#30770E" fill-rule="nonzero" points="22.59 11.88 22.61 11.72 22.66 11.91 22.61 11.94"></polygon>
                <polygon id="Shape" fill="#000000" fill-rule="nonzero" points="22.61 11.95 22.58 11.88 22.6 11.72 22.66 11.91 22.61 11.95"></polygon>
                <polygon id="Shape" fill="#30770E" fill-rule="nonzero" points="22.54 11.93 22.33 11.82 22.51 11.88 22.62 11.94"></polygon>
                <path d="M22.62,11.94 L22.54,11.94 L22.33,11.83 L22.51,11.83 L22.62,11.89 L22.62,11.94 Z M22.33,11.82 L22.54,11.93 L22.61,11.93 L22.51,11.87 L22.34,11.82 L22.33,11.82 Z" id="Shape" fill="#000000" fill-rule="nonzero"></path>
                <polygon id="Shape" fill="#30770E" fill-rule="nonzero" points="22.6 12 22.29 11.91 22.53 11.92 22.62 11.93"></polygon>
                <path d="M22.61,12 L22.29,11.91 L22.62,11.91 L22.62,12 L22.61,12 Z M22.29,11.91 L22.61,12 L22.61,11.93 L22.28,11.93 L22.29,11.91 Z" id="Shape" fill="#000000" fill-rule="nonzero"></path>
                <polygon id="Shape" fill="#30770E" fill-rule="nonzero" points="22.62 11.89 22.82 11.87 22.75 11.99 22.6 11.94"></polygon>
                <polygon id="Shape" fill="#000000" fill-rule="nonzero" points="22.75 11.99 22.6 11.94 22.62 11.89 22.81 11.86 22.75 11.99"></polygon>
                <polygon id="Shape" fill="#30770E" fill-rule="nonzero" points="22.73 11.96 22.98 12.06 22.77 12.03 22.6 11.93"></polygon>
                <path d="M23,12.06 L22.8,12.06 L22.63,11.96 L22.76,11.96 L23.01,12.06 L23,12.06 Z M22.62,11.93 L22.8,12.03 L22.98,12.03 L22.73,12 L22.6,12 L22.62,11.93 Z" id="Shape" fill="#000000" fill-rule="nonzero"></path>
                <polygon id="Shape" fill="#30770E" fill-rule="nonzero" points="22.77 12.02 23.03 12.16 22.79 12.08 22.6 11.93"></polygon>
                <path d="M23,12.17 L22.77,12.08 L22.57,11.93 L23,12.16 L23,12.17 Z M22.57,11.93 L22.77,12.08 L22.98,12.16 L22.57,11.94 L22.57,11.93 Z" id="Shape" fill="#000000" fill-rule="nonzero"></path>
                <polygon id="Shape" fill="#30770E" fill-rule="nonzero" points="22.77 12.07 22.92 12.29 22.68 12.04 22.61 11.93"></polygon>
                <path d="M22.92,12.29 L22.61,11.93 L22.77,12.06 L22.92,12.29 Z M22.61,11.93 L22.69,12.03 L22.91,12.27 L22.77,12.07 L22.61,11.94 L22.61,11.93 Z" id="Shape" fill="#000000" fill-rule="nonzero"></path>
                <polygon id="Shape" fill="#30770E" fill-rule="nonzero" points="22.73 12.07 22.73 12.22 22.61 12 22.61 11.93"></polygon>
                <path d="M22.73,12.22 L22.62,12 L22.62,11.92 L22.75,12.06 L22.75,12.21 L22.73,12.22 Z M22.6,11.94 L22.6,12.01 L22.71,12.21 L22.71,12.08 L22.59,11.94 L22.6,11.94 Z" id="Shape" fill="#000000" fill-rule="nonzero"></path>
                <polygon id="Shape" fill="#30770E" fill-rule="nonzero" points="22.67 12.03 22.55 12.11 22.56 11.96 22.61 11.94"></polygon>
                <polygon id="Shape" fill="#000000" fill-rule="nonzero" points="22.55 12.12 22.56 11.96 22.61 11.94 22.67 12.03 22.55 12.12"></polygon>
                <polygon id="Shape" fill="#30770E" fill-rule="nonzero" points="22.52 11.85 22.44 11.73 22.55 11.85 22.61 11.94"></polygon>
                <polygon id="Shape" fill="#000000" fill-rule="nonzero" points="22.61 11.94 22.52 11.86 22.44 11.73 22.55 11.85 22.61 11.94 22.61 11.94"></polygon>
                <polygon id="Shape" fill="#30770E" fill-rule="nonzero" points="22.58 11.9 22.5 11.75 22.62 11.92 22.64 11.96"></polygon>
                <polygon id="Shape" fill="#000000" fill-rule="nonzero" points="22.64 11.97 22.58 11.9 22.5 11.75 22.64 11.96 22.64 11.97"></polygon>
                <polygon id="Shape" fill="#30770E" fill-rule="nonzero" points="22.59 11.95 22.37 11.86 22.55 11.91 22.64 11.95"></polygon>
                <polygon id="Shape" fill="#000000" fill-rule="nonzero" points="22.64 11.96 22.59 11.95 22.37 11.86 22.64 11.95 22.64 11.96"></polygon>
                <polygon id="Shape" fill="#30770E" fill-rule="nonzero" points="22.65 11.94 22.85 12 22.7 11.98 22.62 11.95"></polygon>
                <polygon id="Shape" fill="#000000" fill-rule="nonzero" points="22.85 12 22.61 11.95 22.83 11.99 22.81 11.99 22.85 12 22.85 12"></polygon>
                <polygon id="Shape" fill="#30770E" fill-rule="nonzero" points="22.65 11.99 22.6 12.03 22.63 11.97 22.62 11.94"></polygon>
                <polygon id="Shape" points="22.65 11.99 22.6 12.03 22.63 11.97 22.62 11.94"></polygon>
                <polygon id="Shape" fill="#30770E" fill-rule="nonzero" points="22.74 12.03 22.87 12.19 22.76 12.07 22.63 11.95"></polygon>
                <path d="M22.87,12.19 L22.63,12 L22.75,12.08 L22.88,12.24 L22.87,12.19 Z M22.63,12 L22.84,12.2 L22.74,12.08 L22.63,12 Z" id="Shape" fill="#000000" fill-rule="nonzero"></path>
                <polygon id="Shape" fill="#30770E" fill-rule="nonzero" points="22.71 11.97 22.74 11.93 22.76 12.01 22.63 11.96"></polygon>
                <polygon id="Shape" points="22.71 11.97 22.74 11.93 22.76 12.01 22.63 11.96"></polygon>
                <polygon id="Shape" fill="#30770E" fill-rule="nonzero" points="22.57 11.88 22.51 11.72 22.6 11.89 22.61 11.94"></polygon>
                <polygon id="Shape" fill="#000000" fill-rule="nonzero" points="22.61 11.94 22.57 11.88 22.51 11.72 22.61 11.94 22.61 11.94"></polygon>
                <path d="M23.18,12.25 C23.18,12.25 23.43,11.73 24.48,11.8 C24.0878895,12.0109759 23.7304104,12.2807714 23.42,12.6 C23.36,12.6 23.21,12.33 23.18,12.25 Z" id="Shape" fill="#FFFFFF" fill-rule="nonzero"></path>
                <path d="M23.42,12.61 C23.34,12.61 23.18,12.26 23.17,12.25 C23.4856331,11.8628251 23.9915976,11.6851582 24.48,11.79 C24.1441058,11.9558105 23.8422357,12.183061 23.59,12.46 C23.5449828,12.5153937 23.4908793,12.5627344 23.43,12.6 L23.42,12.61 Z M24.28,11.8 C23.8709529,11.7552591 23.4663541,11.9163493 23.2,12.23 C23.2,12.36 23.36,12.6 23.42,12.6 C23.4787356,12.559894 23.5324521,12.512892 23.58,12.46 C23.8323007,12.1814235 24.1384696,11.9568996 24.48,11.8 L24.28,11.8 Z" id="Shape" fill="#000000" fill-rule="nonzero"></path>
                <path d="M24.59,12 C24.4851897,12.0530414 24.3743995,12.0933288 24.26,12.12 C24.26,12.12 24.39,12.12 24.5,12.12 C24.4,12.12 24.23,12.22 24.15,12.22 C24.07,12.22 24.38,12.22 24.42,12.22 C24.46,12.22 24.17,12.33 24.07,12.33 C23.97,12.33 24.29,12.33 24.4,12.39 C24.28,12.39 24.07,12.47 23.95,12.45 C24.04,12.52 24.2,12.45 24.33,12.52 C24.177073,12.5357858 24.022927,12.5357858 23.87,12.52 C23.94,12.52 24.14,12.52 24.18,12.59 C24.22,12.66 23.88,12.59 23.81,12.59 C23.74,12.59 24.08,12.59 24.12,12.66 C23.99,12.72 23.78,12.66 23.69,12.66 L23.86,12.78 C24.0044111,12.916669 24.1657219,13.0342915 24.34,13.13 L24.01,13.13 L24.25,13.48 C24.15,13.41 23.97,13.27 23.85,13.19 C23.73,13.11 23.4,13.05 23.21,12.9 C23.0149551,12.6562154 22.8750763,12.3730461 22.8,12.07 C22.8,11.96 22.8,11.78 22.54,11.87 C22.77,11.87 22.6,11.59 22.84,11.59 C23.08,11.59 22.96,11.73 23.02,11.82 C23.1117638,11.9411742 23.2233326,12.0459812 23.35,12.13 C23.6914577,11.8224633 24.1921843,11.7699678 24.59,12 Z" id="Shape" fill="#FFFFFF" fill-rule="nonzero"></path>
                <path d="M24.27,13.56 L24.18,13.49 L23.87,13.27 C23.7615348,13.2026945 23.6435421,13.1521262 23.52,13.12 C23.4154636,13.0917861 23.3171125,13.0443062 23.23,12.98 C23.0379964,12.730569 22.8985237,12.44482 22.82,12.14 C22.82,12.03 22.82,11.89 22.63,11.93 C22.6613345,11.8928558 22.6820634,11.8479432 22.69,11.8 C22.69,11.73 22.69,11.66 22.85,11.66 C23.01,11.66 22.98,11.73 23,11.81 C22.995622,11.8398403 22.995622,11.8701597 23,11.9 C23.0921827,12.0207968 23.2036831,12.1255396 23.33,12.21 C23.6460198,11.8406204 24.1818956,11.752011 24.6,12 C24.4975289,12.0604341 24.3861573,12.1043078 24.27,12.13 L24.35,12.13 C24.4029876,12.1214113 24.4570124,12.1214113 24.51,12.13 L24.32,12.2 L24.18,12.2 L24.4,12.2 L24.28,12.25 C24.2236299,12.2795798 24.162844,12.2998418 24.1,12.31 C24.1656189,12.303709 24.2297843,12.2868234 24.29,12.26 L24.39,12.26 C24.3278782,12.2775193 24.2621218,12.2775193 24.2,12.26 L24.35,12.2 C24.4131213,12.1696707 24.4806074,12.1494249 24.55,12.14 L24.39,12.14 L24.3,12.14 L24.63,12.01 C24.2195146,11.8299548 23.7408384,11.9169868 23.42,12.23 C23.2575177,12.1520929 23.1141374,12.0394369 23,11.9 C22.9947682,11.8702281 22.9947682,11.8397719 23,11.81 C23,11.74 23,11.67 22.86,11.67 C22.72,11.67 22.73,11.73 22.71,11.8 C22.7029821,11.8452715 22.6820064,11.8872228 22.65,11.92 C22.78,11.92 22.81,12.05 22.82,12.13 C22.8943253,12.4363505 23.0342069,12.7229373 23.23,12.97 C23.3131562,13.032536 23.4085653,13.076833 23.51,13.1 C23.6374313,13.1347356 23.7588248,13.1886883 23.87,13.26 L24.18,13.48 L24.24,13.48 L24,13.21 L24.05,13.21 L24.34,13.21 C24.1597866,13.1231682 23.9944165,13.0084215 23.85,12.87 L23.78,12.87 L23.68,12.8 C23.68,12.8 23.77,12.8 23.82,12.8 C23.9155752,12.8205434 24.0144248,12.8205434 24.11,12.8 L24,12.8 C23.9347524,12.8194531 23.8652476,12.8194531 23.8,12.8 L23.85,12.8 L24,12.8 L24.14,12.8 L24.02,12.8 C23.963848,12.8108009 23.906152,12.8108009 23.85,12.8 L24,12.8 C24.1232159,12.8076128 24.2467841,12.8076128 24.37,12.8 C24.3136519,12.7915022 24.2563481,12.7915022 24.2,12.8 L24.13,12.8 C24.0844671,12.814548 24.0355329,12.814548 23.99,12.8 L24.2,12.8 L24.38,12.8 C24.3240227,12.7874993 24.2659773,12.7874993 24.21,12.8 L24.08,12.8 L24.22,12.8 C24.2818728,12.7807643 24.3481272,12.7807643 24.41,12.8 L24.21,12.8 C24.1273418,12.8150015 24.0426582,12.8150015 23.96,12.8 L24.1,12.8 L24.17,12.8 C24.229032,12.784758 24.290968,12.784758 24.35,12.8 C24.1977626,12.8259261 24.0422374,12.8259261 23.89,12.8 L24.06,12.8 C24.1096314,12.7914145 24.1603686,12.7914145 24.21,12.8 L24.03,12.8 C23.9639149,12.8124534 23.8960851,12.8124534 23.83,12.8 C23.8927959,12.8116687 23.9572041,12.8116687 24.02,12.8 C24.08,12.8 24.13,12.8 24.15,12.8 C24.0518611,12.8272842 23.9481389,12.8272842 23.85,12.8 L23.72,12.8 C23.7596783,12.8090337 23.797104,12.8260453 23.83,12.85 L23.9,12.85 C24.0437517,12.9874596 24.2051708,13.105161 24.38,13.2 L24.09,13.2 L24.34,13.53 L24.27,13.56 Z" id="Shape" fill="#000000" fill-rule="nonzero"></path>
                <path d="M26,13.85 C25.9839737,13.8012842 25.9839737,13.7487158 26,13.7 C26.0312261,13.6435714 26.0718022,13.5928513 26.12,13.55 C26.19,13.55 26.21,13.55 26.31,13.45 C26.41,13.35 26.38,13.34 26.41,13.27 C26.44,13.2 26.49,13.12 26.54,13.04 L26.69,12.83 C26.724408,12.7610005 26.7681521,12.6970669 26.82,12.64 C26.845814,12.5634566 26.890528,12.4946658 26.95,12.44 C26.95,12.35 27.08,12.24 27.12,12.16 L27.28,11.95 C27.343872,11.8919334 27.4143569,11.841587 27.49,11.8 C27.59,11.8 27.64,11.71 27.7,11.8 C27.76,11.89 27.82,11.93 27.77,11.98 C27.7530237,11.9977264 27.7295442,12.0077505 27.705,12.0077505 C27.6804558,12.0077505 27.6569763,11.9977264 27.64,11.98 C27.58,11.98 27.56,11.83 27.48,11.91 C27.4353833,11.9774036 27.3852085,12.0409584 27.33,12.1 C27.294109,12.1603713 27.2639763,12.2239848 27.24,12.29 C27.188102,12.356188 27.1475508,12.4305317 27.12,12.51 C27.0687604,12.565495 27.0280925,12.6298858 27,12.7 C26.9538362,12.7573378 26.9167384,12.8214159 26.89,12.89 C26.82,12.97 26.79,13.04 26.74,13.09 C26.7055107,13.1651029 26.6618444,13.2356408 26.61,13.3 L26.51,13.49 L26.36,13.68 C26.317616,13.7607034 26.2637184,13.8348126 26.2,13.9 C26.1251113,13.9383138 26.0333435,13.9120944 25.99,13.84 L26,13.85 Z" id="Shape" fill="#28620A" fill-rule="nonzero"></path>
                <path d="M26.13,13.93 C26.0769453,13.9239369 26.0293214,13.8946299 26,13.85 C25.9824725,13.7981067 25.9824725,13.7418933 26,13.69 C26.0219157,13.6474025 26.0525857,13.6099169 26.09,13.58 L26.14,13.58 C26.195453,13.5730258 26.2458384,13.5442341 26.28,13.5 L26.28,13.42 C26.2994651,13.3881409 26.3161917,13.3546875 26.33,13.32 L26.4,13.2 L26.46,13.09 C26.5138908,13.0228625 26.5639696,12.9527521 26.61,12.88 C26.6430949,12.8072113 26.6869153,12.7397954 26.74,12.68 C26.7678829,12.6044762 26.8122998,12.5361426 26.87,12.48 C26.8961482,12.4277875 26.9262352,12.3776425 26.96,12.33 C26.9906157,12.2927783 27.0174168,12.2525767 27.04,12.21 L27.2,12 L27.25,12 C27.2977093,11.9557589 27.3516084,11.9187032 27.41,11.89 C27.48,11.89 27.53,11.84 27.58,11.89 C27.63,11.94 27.7,12.02 27.64,12.08 C27.6025776,12.1120088 27.5474224,12.1120088 27.51,12.08 C27.51,12.08 27.45,12.01 27.4,12.08 L27.4,12.14 C27.3673422,12.1865723 27.3305244,12.2300841 27.29,12.27 C27.2534073,12.3299951 27.2232406,12.3936803 27.2,12.46 C27.1486012,12.5228404 27.1080447,12.5938144 27.08,12.67 C27.0294327,12.7260078 26.9888445,12.7902725 26.96,12.86 C26.915274,12.9183118 26.878299,12.9821778 26.85,13.05 L26.77,13.16 L26.7,13.25 C26.6634149,13.327117 26.6199029,13.4007526 26.57,13.47 C26.57,13.53 26.5,13.59 26.47,13.66 L26.4,13.74 L26.31,13.85 L26.31,13.92 C26.2781731,13.9760239 26.2376711,14.0266515 26.19,14.07 L26.12,14.07 L26.13,13.93 Z M27.64,11.74 C27.6072647,11.7310707 27.5727353,11.7310707 27.54,11.74 C27.4808646,11.7674156 27.4267734,11.8046033 27.38,11.85 L27.33,11.85 L27.18,12.06 C27.1575378,12.1057842 27.1307493,12.1493156 27.1,12.19 L27.01,12.34 C26.9530152,12.392825 26.9085933,12.4577493 26.88,12.53 C26.8279475,12.586905 26.784183,12.6508685 26.75,12.72 L26.6,12.94 L26.54,13.05 L26.47,13.17 C26.4569056,13.2050029 26.4401457,13.2385227 26.42,13.27 L26.42,13.35 C26.3869194,13.3971756 26.3366517,13.4294906 26.28,13.44 C26.2389606,13.4688413 26.2048111,13.5064057 26.18,13.55 C26.1666667,13.5957143 26.1666667,13.6442857 26.18,13.69 C26.2250823,13.7534098 26.307458,13.7781225 26.38,13.75 C26.4272082,13.7062191 26.4676498,13.6556672 26.5,13.6 L26.5,13.53 L26.59,13.42 L26.66,13.34 C26.6861871,13.2749298 26.7162407,13.2114833 26.75,13.15 C26.8036903,13.0833018 26.8474749,13.0092049 26.88,12.93 L26.95,12.84 L27.03,12.73 C27.0604932,12.6611391 27.1009237,12.5971242 27.15,12.54 C27.1767384,12.4714159 27.2138362,12.4073378 27.26,12.35 C27.2877183,12.2706059 27.328255,12.1962886 27.38,12.13 C27.4057188,12.0629424 27.4392857,11.9991652 27.48,11.94 C27.5202964,11.8998732 27.5570964,11.8563822 27.59,11.81 L27.59,11.75 C27.64,11.69 27.67,11.75 27.71,11.75 C27.7455556,11.7766667 27.7944444,11.7766667 27.83,11.75 C27.83,11.75 27.83,11.63 27.77,11.58 C27.71,11.53 27.72,11.58 27.7,11.58 L27.64,11.74 Z" id="Shape" fill="#000000" fill-rule="nonzero"></path>
                <path d="M26.92,13 C26.92,13 26.92,13.15 26.76,13.26 C26.65,13.38 26.53,13.45 26.5,13.42 C26.5,13.42 26.5,13.27 26.65,13.16 C26.77,13.04 26.88,12.97 26.91,13 L26.92,13 Z" id="Shape" fill="#F5D028" fill-rule="nonzero"></path>
                <path d="M26.52,13.45 C26.6103482,13.4196759 26.6901483,13.3641628 26.75,13.29 C26.8177913,13.2322986 26.8723617,13.1606751 26.91,13.08 C26.8334221,13.2542493 26.6942493,13.3934221 26.52,13.47 L26.52,13.45 Z M26.52,13.45 C26.5489266,13.3614873 26.600663,13.2821581 26.67,13.22 C26.7237748,13.1259648 26.8036688,13.0495445 26.9,13 C26.8006502,13.0227675 26.7122861,13.0793205 26.65,13.16 C26.5803338,13.2239083 26.5256912,13.3024569 26.49,13.39 L26.52,13.45 Z" id="Shape" fill="#000000" fill-rule="nonzero"></path>
                <path d="M26.29,12.59 C26.29,12.59 26.29,12.74 26.29,12.89 C26.23,13.04 26.15,13.15 26.11,13.14 C26.11,13.14 26.11,12.99 26.11,12.84 C26.17,12.69 26.25,12.58 26.29,12.6 L26.29,12.59 Z" id="Shape" fill="#F5D028" fill-rule="nonzero"></path>
                <path d="M26.07,13.15 C26.07,13.15 26.07,12.98 26.07,12.84 C26.07,12.7 26.2,12.59 26.24,12.59 C26.28,12.59 26.24,12.76 26.24,12.9 C26.24,13.04 26.11,13.15 26.06,13.15 L26.07,13.15 Z M26.28,12.6 C26.28,12.6 26.17,12.69 26.11,12.84 C26.05,12.99 26.03,13.13 26.11,13.14 C26.11,13.14 26.22,13.05 26.28,12.89 C26.34,12.73 26.36,12.6 26.28,12.59 L26.28,12.6 Z" id="Shape" fill="#000000" fill-rule="nonzero"></path>
                <path d="M26.39,12.66 C26.39,12.66 26.39,12.81 26.34,12.96 C26.28,13.11 26.19,13.22 26.15,13.2 C26.15,13.2 26.15,13.05 26.2,12.9 C26.27,12.75 26.35,12.64 26.39,12.66 Z" id="Shape" fill="#F5D028" fill-rule="nonzero"></path>
                <path d="M26.16,13.21 C26.16,13.21 26.16,13.04 26.21,12.9 C26.26,12.76 26.35,12.65 26.39,12.65 C26.43,12.65 26.39,12.71 26.39,12.76 C26.3765683,12.8284634 26.3564726,12.8954489 26.33,12.96 C26.26,13.1 26.18,13.21 26.14,13.21 L26.16,13.21 Z M26.39,12.67 C26.39,12.67 26.27,12.76 26.21,12.91 C26.15,13.06 26.12,13.19 26.15,13.21 C26.15,13.21 26.26,13.12 26.33,12.97 C26.3616821,12.9065554 26.3852025,12.8393542 26.4,12.77 C26.4,12.72 26.4,12.68 26.4,12.67 L26.39,12.67 Z" id="Shape" fill="#000000" fill-rule="nonzero"></path>
                <path d="M26.62,12.83 C26.62,12.83 26.62,12.98 26.5,13.11 C26.41,13.24 26.3,13.33 26.27,13.31 C26.27,13.31 26.27,13.16 26.38,13.03 C26.47,12.9 26.58,12.81 26.61,12.83 L26.62,12.83 Z" id="Shape" fill="#F5D028" fill-rule="nonzero"></path>
                <path d="M26.29,13.32 C26.29,13.32 26.42,13.23 26.5,13.12 C26.5636519,13.0450755 26.6082515,12.9558763 26.63,12.86 C26.6173855,12.9568574 26.5755221,13.0475614 26.51,13.12 C26.42,13.24 26.33,13.33 26.29,13.33 L26.29,13.32 Z M26.29,13.32 C26.3056287,13.2270193 26.3472288,13.1403523 26.41,13.07 C26.5,12.95 26.59,12.86 26.63,12.86 C26.58,12.86 26.48,12.94 26.41,13.05 C26.3483472,13.1224494 26.3039023,13.2079204 26.28,13.3 L26.29,13.32 Z" id="Shape" fill="#000000" fill-rule="nonzero"></path>
                <path d="M27.1,13.13 C27.1,13.13 27.05,13.27 26.92,13.38 C26.8,13.49 26.67,13.55 26.65,13.52 C26.65,13.52 26.7,13.38 26.82,13.27 C26.94,13.16 27.07,13.1 27.1,13.14 L27.1,13.13 Z" id="Shape" fill="#F5D028" fill-rule="nonzero"></path>
                <path d="M26.67,13.53 C26.67,13.53 26.73,13.37 26.84,13.28 C26.9114019,13.2072717 27.0012981,13.1554084 27.1,13.13 C27.0005432,13.1475218 26.9093751,13.1966123 26.84,13.27 C26.7,13.39 26.64,13.49 26.66,13.52 C26.7544198,13.496697 26.8407939,13.4483275 26.91,13.38 C26.9768308,13.3265532 27.0342849,13.2623398 27.08,13.19 C27.0400294,13.2634779 26.985604,13.3281081 26.92,13.38 C26.8492508,13.4535667 26.7591009,13.5055763 26.66,13.53 L26.67,13.53 Z" id="Shape" fill="#000000" fill-rule="nonzero"></path>
                <path d="M27,13.08 C27,13.08 27,13.22 26.84,13.34 C26.72,13.46 26.6,13.52 26.58,13.49 C26.58,13.49 26.58,13.35 26.74,13.23 C26.86,13.12 26.97,13.05 27,13.08 Z" id="Shape" fill="#F5D028" fill-rule="nonzero"></path>
                <path d="M26.61,13.51 C26.7028096,13.4789677 26.7856588,13.4237349 26.85,13.35 C26.9232615,13.2830381 26.9753919,13.196154 27,13.1 C26.93,13.1 26.83,13.1 26.74,13.24 C26.6669599,13.3030942 26.6088876,13.3816626 26.57,13.47 C26.6021688,13.3805916 26.6573599,13.3012545 26.73,13.24 C26.7950612,13.1602634 26.8819293,13.1011932 26.98,13.07 C26.9503657,13.1634873 26.8948982,13.2466886 26.82,13.31 C26.7541828,13.3889071 26.6675773,13.4477989 26.57,13.48 L26.61,13.51 Z" id="Shape" fill="#000000" fill-rule="nonzero"></path>
                <path d="M26.77,13 C26.77,13 26.77,13.15 26.66,13.28 C26.57,13.41 26.46,13.5 26.43,13.48 C26.43,13.48 26.43,13.33 26.54,13.2 C26.64,13.07 26.74,12.98 26.78,13 L26.77,13 Z" id="Shape" fill="#F5D028" fill-rule="nonzero"></path>
                <path d="M26.44,13.45 C26.44,13.45 26.44,13.28 26.55,13.16 C26.66,13.04 26.73,12.95 26.77,12.95 C26.71,12.95 26.62,13.03 26.55,13.13 C26.48,13.23 26.41,13.39 26.43,13.41 C26.43,13.41 26.56,13.32 26.65,13.21 C26.6937585,13.147487 26.7306389,13.0804316 26.76,13.01 C26.7381053,13.0817976 26.7043013,13.1494056 26.66,13.21 C26.57,13.33 26.48,13.42 26.43,13.42 L26.44,13.45 Z" id="Shape" fill="#000000" fill-rule="nonzero"></path>
                <path d="M26.7,12.88 C26.7,12.88 26.7,13.03 26.59,13.16 C26.49,13.29 26.39,13.38 26.36,13.36 C26.36,13.36 26.36,13.21 26.47,13.08 C26.57,12.95 26.67,12.86 26.7,12.88 Z" id="Shape" fill="#F5D028" fill-rule="nonzero"></path>
                <path d="M26.37,13.37 C26.37,13.37 26.5,13.28 26.59,13.17 C26.6360377,13.1089337 26.6730813,13.0415817 26.7,12.97 C26.6815644,13.0431295 26.6474423,13.1113738 26.6,13.17 C26.51,13.29 26.42,13.38 26.38,13.38 L26.37,13.37 Z M26.37,13.37 C26.3866327,13.2773407 26.4281076,13.1909347 26.49,13.12 C26.58,13 26.67,12.92 26.71,12.92 C26.64,12.92 26.56,13 26.49,13.1 C26.4313374,13.1730156 26.3902765,13.2585591 26.37,13.35 L26.37,13.37 Z" id="Shape" fill="#000000" fill-rule="nonzero"></path>
                <path d="M26.84,11.85 C26.84,11.85 26.84,12 26.73,12.13 C26.64,12.26 26.53,12.35 26.5,12.33 C26.5,12.33 26.5,12.18 26.61,12.05 C26.71,11.92 26.81,11.83 26.84,11.85 Z" id="Shape" fill="#F5D028" fill-rule="nonzero"></path>
                <path d="M26.5,12.34 C26.5,12.34 26.63,12.26 26.71,12.14 C26.7750756,12.0660251 26.8198655,11.9764454 26.84,11.88 C26.8287338,11.9802033 26.7868281,12.0744909 26.72,12.15 C26.63,12.27 26.54,12.35 26.49,12.35 L26.5,12.34 Z M26.5,12.34 C26.4949061,12.2187374 26.5300655,12.0991954 26.6,12 C26.69,11.88 26.78,11.8 26.82,11.8 C26.77,11.8 26.68,11.88 26.6,11.99 C26.5386319,12.0626406 26.4942223,12.1480436 26.47,12.24 L26.5,12.34 Z" id="Shape" fill="#000000" fill-rule="nonzero"></path>
                <path d="M26.93,11.91 C26.93,11.91 26.93,12.06 26.82,12.19 C26.72,12.32 26.62,12.41 26.59,12.39 C26.59,12.39 26.59,12.24 26.7,12.11 C26.8,11.98 26.9,11.89 26.93,11.91 Z" id="Shape" fill="#F5D028" fill-rule="nonzero"></path>
                <path d="M26.6,12.4 C26.6,12.4 26.6,12.23 26.71,12.11 C26.82,11.99 26.9,11.9 26.94,11.9 C26.87,11.9 26.79,11.98 26.72,12.08 C26.65,12.18 26.58,12.34 26.6,12.36 C26.6,12.36 26.73,12.28 26.82,12.16 C26.8637585,12.097487 26.9006389,12.0304316 26.93,11.96 C26.9077625,12.0316603 26.8739857,12.0992138 26.83,12.16 C26.74,12.28 26.65,12.37 26.6,12.37 L26.6,12.4 Z" id="Shape" fill="#000000" fill-rule="nonzero"></path>
                <path d="M27,12 C27,12 27,12.15 26.89,12.28 C26.8,12.41 26.69,12.5 26.66,12.48 C26.66,12.48 26.66,12.33 26.77,12.2 C26.86,12.07 26.97,11.98 27,12 Z" id="Shape" fill="#F5D028" fill-rule="nonzero"></path>
                <path d="M26.69,12.47 C26.69,12.47 26.69,12.3 26.8,12.18 C26.91,12.06 27,12 27,12 C26.95,12 26.86,12.07 26.78,12.18 C26.7,12.29 26.64,12.44 26.66,12.46 C26.66,12.46 26.79,12.37 26.87,12.26 C26.9152909,12.1984535 26.9522758,12.1312082 26.98,12.06 C26.9604509,12.1327114 26.9264397,12.2007339 26.88,12.26 C26.79,12.38 26.7,12.47 26.66,12.47 L26.69,12.47 Z" id="Shape" fill="#000000" fill-rule="nonzero"></path>
                <path d="M27.13,12 C27.13,12 27.13,12.15 27.02,12.28 C26.93,12.41 26.82,12.5 26.79,12.48 C26.79,12.48 26.79,12.33 26.9,12.2 C26.99,12.07 27.1,11.98 27.13,12.01 L27.13,12 Z" id="Shape" fill="#F5D028" fill-rule="nonzero"></path>
                <path d="M26.79,12.54 C26.79,12.54 26.79,12.37 26.9,12.25 C27.01,12.13 27.08,12.04 27.12,12.04 C27.05,12.04 26.97,12.12 26.9,12.22 C26.83,12.32 26.76,12.48 26.78,12.5 C26.78,12.5 26.91,12.42 26.99,12.3 C27.035099,12.238331 27.0720696,12.1711117 27.1,12.1 C27.0792747,12.1722588 27.0453719,12.2400645 27,12.3 C26.91,12.42 26.82,12.51 26.78,12.51 L26.79,12.54 Z" id="Shape" fill="#000000" fill-rule="nonzero"></path>
                <path d="M27.2,12.11 C27.2,12.11 27.2,12.26 27.09,12.39 C26.99,12.52 26.89,12.61 26.86,12.59 C26.86,12.59 26.86,12.44 26.97,12.31 C27.07,12.18 27.17,12.09 27.21,12.11 L27.2,12.11 Z" id="Shape" fill="#F5D028" fill-rule="nonzero"></path>
                <path d="M26.87,12.6 C26.87,12.6 26.87,12.43 26.98,12.31 C27.09,12.19 27.16,12.11 27.2,12.11 C27.15,12.11 27.06,12.19 26.98,12.3 C26.9,12.41 26.84,12.56 26.86,12.58 C26.86,12.58 26.99,12.5 27.07,12.38 C27.1354638,12.3062872 27.180308,12.2165988 27.2,12.12 C27.1880181,12.2170389 27.1460706,12.3079252 27.08,12.38 C26.99,12.5 26.9,12.59 26.86,12.59 L26.87,12.6 Z" id="Shape" fill="#000000" fill-rule="nonzero"></path>
                <path d="M27.7,12.39 C27.7,12.39 27.7,12.54 27.59,12.67 C27.49,12.8 27.39,12.89 27.36,12.87 C27.36,12.87 27.36,12.72 27.48,12.59 C27.57,12.46 27.68,12.37 27.71,12.39 L27.7,12.39 Z" id="Shape" fill="#F5D028" fill-rule="nonzero"></path>
                <path d="M27.36,12.88 C27.36,12.88 27.36,12.71 27.47,12.59 C27.58,12.47 27.65,12.38 27.7,12.38 C27.65,12.38 27.56,12.46 27.48,12.58 C27.4,12.7 27.34,12.84 27.36,12.86 C27.36,12.86 27.5,12.78 27.58,12.66 C27.644701,12.5857735 27.6894394,12.4962967 27.71,12.4 C27.6956511,12.4963483 27.6540094,12.5865719 27.59,12.66 C27.5,12.78 27.41,12.87 27.36,12.87 L27.36,12.88 Z" id="Shape" fill="#000000" fill-rule="nonzero"></path>
                <path d="M27.63,12.37 C27.63,12.37 27.63,12.52 27.52,12.65 C27.43,12.78 27.32,12.87 27.29,12.85 C27.29,12.85 27.29,12.7 27.4,12.57 C27.5,12.44 27.6,12.35 27.64,12.38 L27.63,12.37 Z" id="Shape" fill="#F5D028" fill-rule="nonzero"></path>
                <path d="M27.29,12.86 C27.29,12.86 27.29,12.69 27.4,12.57 C27.51,12.45 27.58,12.36 27.63,12.36 C27.57,12.36 27.48,12.44 27.41,12.54 C27.34,12.64 27.27,12.8 27.29,12.82 C27.29,12.82 27.42,12.73 27.51,12.62 C27.5558114,12.5587875 27.5928366,12.4914689 27.62,12.42 C27.6004509,12.4927114 27.5664397,12.5607339 27.52,12.62 C27.43,12.74 27.34,12.83 27.29,12.83 L27.29,12.86 Z" id="Shape" fill="#000000" fill-rule="nonzero"></path>
                <path d="M27.56,12.33 C27.56,12.33 27.56,12.48 27.45,12.61 C27.35,12.74 27.25,12.83 27.22,12.81 C27.22,12.81 27.22,12.66 27.33,12.53 C27.42,12.4 27.53,12.31 27.56,12.33 Z" id="Shape" fill="#F5D028" fill-rule="nonzero"></path>
                <path d="M27.22,12.82 C27.22,12.82 27.22,12.65 27.33,12.53 C27.44,12.41 27.51,12.33 27.55,12.33 C27.49,12.33 27.41,12.41 27.33,12.51 C27.25,12.61 27.18,12.77 27.21,12.79 C27.21,12.79 27.34,12.71 27.42,12.59 C27.4641799,12.5277502 27.5010869,12.4606465 27.53,12.39 C27.5071931,12.4634014 27.4697764,12.5314318 27.42,12.59 C27.33,12.71 27.24,12.8 27.2,12.8 L27.22,12.82 Z" id="Shape" fill="#000000" fill-rule="nonzero"></path>
                <path d="M27.46,12.27 C27.46,12.27 27.46,12.42 27.35,12.55 C27.26,12.68 27.15,12.77 27.12,12.75 C27.12,12.75 27.12,12.6 27.23,12.47 C27.32,12.34 27.43,12.25 27.46,12.28 L27.46,12.27 Z" id="Shape" fill="#F5D028" fill-rule="nonzero"></path>
                <path d="M27.13,12.76 C27.13,12.76 27.13,12.59 27.24,12.47 C27.35,12.35 27.42,12.26 27.46,12.26 C27.41,12.26 27.32,12.34 27.24,12.45 C27.16,12.56 27.1,12.71 27.13,12.73 C27.13,12.73 27.26,12.65 27.35,12.53 C27.4130986,12.4559856 27.454614,12.3660356 27.47,12.27 C27.4580181,12.3670389 27.4160706,12.4579252 27.35,12.53 C27.26,12.65 27.17,12.74 27.13,12.74 L27.13,12.76 Z" id="Shape" fill="#000000" fill-rule="nonzero"></path>
                <path d="M27.36,12.22 C27.36,12.22 27.36,12.37 27.25,12.5 C27.16,12.63 27.05,12.72 27.02,12.7 C27.02,12.7 27.02,12.55 27.13,12.42 C27.22,12.29 27.33,12.2 27.36,12.22 Z" id="Shape" fill="#F5D028" fill-rule="nonzero"></path>
                <path d="M27,12.71 C27,12.71 27,12.54 27.11,12.42 C27.22,12.3 27.29,12.21 27.33,12.21 C27.28,12.21 27.19,12.29 27.11,12.41 C27.03,12.53 26.97,12.67 26.99,12.69 C26.99,12.69 27.12,12.6 27.2,12.49 C27.2654638,12.4162872 27.310308,12.3265988 27.33,12.23 C27.3167813,12.326682 27.2749966,12.4172155 27.21,12.49 C27.12,12.61 27.03,12.7 26.99,12.7 L27,12.71 Z" id="Shape" fill="#000000" fill-rule="nonzero"></path>
                <path d="M27.28,12.16 C27.28,12.16 27.28,12.31 27.16,12.44 C27.07,12.57 26.96,12.66 26.93,12.64 C26.93,12.64 26.93,12.49 27.04,12.36 C27.13,12.23 27.24,12.14 27.27,12.16 L27.28,12.16 Z" id="Shape" fill="#F5D028" fill-rule="nonzero"></path>
                <path d="M26.95,12.65 C26.95,12.65 26.95,12.48 27.06,12.36 C27.17,12.24 27.24,12.15 27.28,12.15 C27.22,12.15 27.13,12.23 27.06,12.33 C26.99,12.43 26.91,12.59 26.94,12.61 C26.94,12.61 27.07,12.52 27.15,12.41 C27.1954918,12.3485821 27.232492,12.281309 27.26,12.21 C27.2392747,12.2822588 27.2053719,12.3500645 27.16,12.41 C27.07,12.53 26.98,12.62 26.94,12.62 L26.95,12.65 Z" id="Shape" fill="#000000" fill-rule="nonzero"></path>
                <path d="M26.49,12.75 C26.49,12.75 26.49,12.9 26.41,13.04 C26.33,13.18 26.24,13.28 26.2,13.26 C26.2,13.26 26.2,13.11 26.27,12.97 C26.35,12.83 26.44,12.73 26.47,12.75 L26.49,12.75 Z" id="Shape" fill="#F5D028" fill-rule="nonzero"></path>
                <path d="M26.22,13.27 C26.22,13.27 26.34,13.17 26.41,13.04 C26.445952,12.9738991 26.4728594,12.9032672 26.49,12.83 C26.4780704,12.9047598 26.4508354,12.9762519 26.41,13.04 C26.34,13.18 26.25,13.27 26.21,13.27 L26.22,13.27 Z M26.22,13.27 C26.2236653,13.1747256 26.2511714,13.0818927 26.3,13 C26.38,12.86 26.46,12.77 26.5,12.77 C26.45,12.77 26.37,12.86 26.3,12.98 C26.2480415,13.0611285 26.2171103,13.1539221 26.21,13.25 L26.22,13.27 Z" id="Shape" fill="#000000" fill-rule="nonzero"></path>
                <path d="M26.54,12.22 C26.54,12.22 26.54,12.37 26.43,12.5 C26.34,12.63 26.23,12.72 26.2,12.7 C26.2,12.7 26.2,12.55 26.31,12.42 C26.41,12.29 26.51,12.2 26.54,12.22 Z" id="Shape" fill="#F5D028" fill-rule="nonzero"></path>
                <path d="M26.2,12.71 C26.2,12.71 26.2,12.54 26.31,12.42 C26.42,12.3 26.49,12.21 26.53,12.21 C26.48,12.21 26.39,12.29 26.31,12.4 C26.23,12.51 26.17,12.66 26.19,12.68 C26.19,12.68 26.32,12.6 26.4,12.48 C26.4633251,12.4048599 26.507883,12.3157441 26.53,12.22 C26.514614,12.3160356 26.4730986,12.4059856 26.41,12.48 C26.32,12.6 26.23,12.69 26.18,12.69 L26.2,12.71 Z" id="Shape" fill="#000000" fill-rule="nonzero"></path>
                <path d="M26.63,12.28 C26.63,12.28 26.63,12.43 26.51,12.56 C26.41,12.69 26.31,12.78 26.27,12.75 C26.27,12.75 26.27,12.6 26.38,12.47 C26.47,12.34 26.58,12.25 26.61,12.27 L26.63,12.28 Z" id="Shape" fill="#F5D028" fill-rule="nonzero"></path>
                <path d="M26.29,12.77 C26.29,12.77 26.42,12.69 26.51,12.57 C26.5714728,12.4949566 26.6127762,12.405466 26.63,12.31 C26.6180181,12.4070389 26.5760706,12.4979252 26.51,12.57 C26.42,12.69 26.33,12.78 26.29,12.78 L26.29,12.77 Z M26.29,12.77 C26.3037352,12.6783538 26.341712,12.592043 26.4,12.52 C26.49,12.4 26.58,12.32 26.63,12.32 C26.58,12.32 26.49,12.4 26.41,12.51 C26.351027,12.5828196 26.3099295,12.6684395 26.29,12.76 L26.29,12.77 Z" id="Shape" fill="#000000" fill-rule="nonzero"></path>
                <path d="M26.72,12.34 C26.72,12.34 26.72,12.49 26.61,12.62 C26.52,12.75 26.41,12.84 26.38,12.81 C26.38,12.81 26.38,12.66 26.5,12.53 C26.6,12.4 26.7,12.31 26.73,12.34 L26.72,12.34 Z" id="Shape" fill="#F5D028" fill-rule="nonzero"></path>
                <path d="M26.39,12.83 C26.39,12.83 26.39,12.66 26.5,12.54 C26.61,12.42 26.68,12.33 26.72,12.33 C26.67,12.33 26.58,12.41 26.49,12.53 C26.4,12.65 26.35,12.79 26.37,12.81 C26.37,12.81 26.5,12.73 26.58,12.61 C26.6433251,12.5348599 26.687883,12.4457441 26.71,12.35 C26.6962038,12.4465124 26.6544929,12.536886 26.59,12.61 C26.5,12.73 26.41,12.82 26.37,12.82 L26.39,12.83 Z" id="Shape" fill="#000000" fill-rule="nonzero"></path>
                <path d="M26.82,12.41 C26.82,12.41 26.82,12.56 26.7,12.69 C26.6,12.82 26.5,12.91 26.47,12.89 C26.47,12.89 26.47,12.74 26.59,12.61 C26.68,12.48 26.79,12.39 26.82,12.41 Z" id="Shape" fill="#F5D028" fill-rule="nonzero"></path>
                <path d="M26.49,12.91 C26.49,12.91 26.63,12.82 26.71,12.71 C26.7776378,12.6377794 26.8228062,12.5474426 26.84,12.45 C26.8293778,12.5474211 26.7872436,12.6387118 26.72,12.71 C26.64,12.83 26.54,12.92 26.5,12.92 L26.49,12.91 Z M26.49,12.91 C26.5071038,12.8174936 26.5485215,12.7312066 26.61,12.66 C26.7,12.54 26.79,12.45 26.83,12.45 C26.78,12.45 26.69,12.53 26.61,12.64 C26.5537286,12.7144971 26.5129281,12.7994981 26.49,12.89 L26.49,12.91 Z" id="Shape" fill="#000000" fill-rule="nonzero"></path>
                <path d="M26.9,12.48 C26.9,12.48 26.9,12.63 26.79,12.76 C26.69,12.89 26.59,12.98 26.56,12.96 C26.56,12.96 26.56,12.81 26.68,12.68 C26.77,12.55 26.88,12.46 26.92,12.49 L26.9,12.48 Z" id="Shape" fill="#F5D028" fill-rule="nonzero"></path>
                <path d="M26.56,13 C26.56,13 26.56,12.83 26.67,12.71 C26.78,12.59 26.85,12.51 26.89,12.51 C26.83,12.51 26.75,12.59 26.67,12.69 C26.59,12.79 26.53,12.95 26.55,12.97 C26.55,12.97 26.68,12.88 26.77,12.77 C26.8151196,12.7119523 26.8521261,12.648032 26.88,12.58 C26.8601983,12.6526151 26.8262111,12.7205895 26.78,12.78 C26.69,12.9 26.59,12.99 26.55,12.99 L26.56,13 Z" id="Shape" fill="#000000" fill-rule="nonzero"></path>
                <path d="M27.4,12.76 C27.4,12.76 27.4,12.91 27.29,13.04 C27.19,13.17 27.09,13.26 27.06,13.24 C27.06,13.24 27.06,13.09 27.17,12.96 C27.27,12.83 27.37,12.74 27.41,12.76 L27.4,12.76 Z" id="Shape" fill="#F5D028" fill-rule="nonzero"></path>
                <path d="M27.06,13.25 C27.06,13.25 27.2,13.16 27.28,13.05 C27.3414728,12.9749566 27.3827762,12.885466 27.4,12.79 C27.3896343,12.8855813 27.3513797,12.9760015 27.29,13.05 C27.2,13.17 27.11,13.26 27.06,13.26 L27.06,13.25 Z M27.06,13.25 C27.0788099,13.1580588 27.1200297,13.0721842 27.18,13 C27.27,12.88 27.36,12.79 27.41,12.79 C27.36,12.79 27.27,12.87 27.19,12.98 C27.1346037,13.055027 27.0938889,13.1398494 27.07,13.23 L27.06,13.25 Z" id="Shape" fill="#000000" fill-rule="nonzero"></path>
                <path d="M27.32,12.73 C27.32,12.73 27.32,12.88 27.2,13.01 C27.11,13.14 27,13.23 26.97,13.21 C26.97,13.21 26.97,13.06 27.09,12.93 C27.19,12.8 27.29,12.71 27.33,12.73 L27.32,12.73 Z" id="Shape" fill="#F5D028" fill-rule="nonzero"></path>
                <path d="M27,13.22 C27,13.22 27,13.05 27.11,12.93 C27.22,12.81 27.29,12.72 27.34,12.72 C27.29,12.72 27.2,12.8 27.12,12.91 C27.04,13.02 26.98,13.17 27,13.19 C27,13.19 27.13,13.11 27.22,12.99 C27.2833251,12.9148599 27.327883,12.8257441 27.35,12.73 C27.334614,12.8260356 27.2930986,12.9159856 27.23,12.99 C27.14,13.11 27.05,13.2 27,13.2 L27,13.22 Z" id="Shape" fill="#000000" fill-rule="nonzero"></path>
                <path d="M27.25,12.7 C27.25,12.7 27.25,12.85 27.14,12.98 C27.04,13.11 26.94,13.2 26.91,13.18 C26.91,13.18 26.91,13.03 27.02,12.9 C27.12,12.77 27.22,12.68 27.25,12.7 Z" id="Shape" fill="#F5D028" fill-rule="nonzero"></path>
                <path d="M26.92,13.19 C26.92,13.19 27.05,13.11 27.13,12.99 C27.1950756,12.9160251 27.2398655,12.8264454 27.26,12.73 C27.2467813,12.826682 27.2049966,12.9172155 27.14,12.99 C27.05,13.11 26.96,13.19 26.92,13.19 Z M26.92,13.19 C26.9162644,13.087413 26.9441957,12.9861622 27,12.9 C27.09,12.78 27.18,12.69 27.22,12.69 C27.17,12.69 27.08,12.77 27,12.89 C26.9413374,12.9630156 26.9002765,13.0485591 26.88,13.14 L26.92,13.19 Z" id="Shape" fill="#000000" fill-rule="nonzero"></path>
                <path d="M27.16,12.64 C27.16,12.64 27.16,12.79 27.04,12.92 C26.94,13.05 26.84,13.14 26.8,13.12 C26.8,13.12 26.8,12.97 26.92,12.84 C27.01,12.71 27.12,12.62 27.15,12.65 L27.16,12.64 Z" id="Shape" fill="#F5D028" fill-rule="nonzero"></path>
                <path d="M26.82,13.13 C26.82,13.13 26.95,13.05 27.04,12.93 C27.1026691,12.8557116 27.1441268,12.7658865 27.16,12.67 C27.1514917,12.766054 27.1130123,12.8570053 27.05,12.93 C26.96,13.05 26.87,13.13 26.82,13.13 Z M26.82,13.13 C26.8356287,13.0370193 26.8772288,12.9503523 26.94,12.88 C27.03,12.76 27.12,12.67 27.16,12.67 C27.11,12.67 27.01,12.75 26.94,12.86 C26.8822098,12.9335618 26.8412484,13.0188981 26.82,13.11 L26.82,13.13 Z" id="Shape" fill="#000000" fill-rule="nonzero"></path>
                <path d="M27.06,12.59 C27.06,12.59 27.06,12.74 26.95,12.87 C26.86,13 26.75,13.09 26.72,13.06 C26.72,13.06 26.72,12.91 26.84,12.78 C26.93,12.65 27.04,12.56 27.07,12.58 L27.06,12.59 Z" id="Shape" fill="#F5D028" fill-rule="nonzero"></path>
                <path d="M26.72,13.08 C26.72,13.08 26.86,12.99 26.94,12.88 C27.0030986,12.8059856 27.044614,12.7160356 27.06,12.62 C27.06,12.68 27.06,12.79 26.95,12.88 C26.84,12.97 26.77,13.09 26.72,13.09 L26.72,13.08 Z M26.72,13.08 C26.7371038,12.9874936 26.7785215,12.9012066 26.84,12.83 C26.93,12.71 27.02,12.62 27.06,12.62 C27.01,12.62 26.91,12.7 26.84,12.82 C26.7822098,12.8935618 26.7412484,12.9788981 26.72,13.07 L26.72,13.08 Z" id="Shape" fill="#000000" fill-rule="nonzero"></path>
                <path d="M27,12.53 C27,12.53 27,12.68 26.89,12.81 C26.8,12.94 26.69,13.03 26.66,13.01 C26.66,13.01 26.66,12.86 26.77,12.73 C26.86,12.6 26.97,12.51 27,12.53 Z" id="Shape" fill="#F5D028" fill-rule="nonzero"></path>
                <path d="M26.65,13 C26.65,13 26.65,13 26.65,13 C26.65,13 26.78,12.92 26.86,12.8 C26.9250756,12.7260251 26.9698655,12.6364454 26.99,12.54 C26.9756511,12.6363483 26.9340094,12.7265719 26.87,12.8 C26.78,12.92 26.69,13.01 26.65,13.01 L26.65,13 Z M26.65,13 C26.6688029,12.9050393 26.7099362,12.8159172 26.77,12.74 C26.86,12.62 26.95,12.54 26.99,12.54 C26.94,12.54 26.85,12.62 26.77,12.73 C26.7096867,12.8033425 26.6654027,12.888504 26.64,12.98 L26.65,13 Z" id="Shape" fill="#000000" fill-rule="nonzero"></path>
                <path d="M27,9 C27.06,9 27.1,9 27.1,9 L27.1,10.19 C27.1,10.19 27.1,10.19 27,10.19 C26.95,10.19 26.9,10.19 26.9,10.19 L26.9,9.08 C26.9,9.08 26.9,9.08 27,9.08 L27,9 Z" id="Shape" fill="#A87F36" fill-rule="nonzero"></path>
                <path d="M27,10.31 C26.94,10.31 26.9,10.31 26.9,10.31 L26.9,9.08 C26.9,9.08 27.11,9.08 27.11,9.08 L27.11,10.27 C27.11,10.27 27.11,10.27 27,10.27 L27,10.31 Z M27,9 C26.94,9 26.9,9 26.9,9 L26.9,10.19 C26.9,10.19 26.9,10.19 27,10.19 C27.06,10.19 27.1,10.19 27.1,10.19 L27.1,9.08 C27.1,9.08 27.1,9.08 27,9.08 L27,9 Z" id="Shape" fill="#000000" fill-rule="nonzero"></path>
                <polygon id="Shape" fill="#30770E" fill-rule="nonzero" points="26.83 9.52 26.25 9.91 26.63 9.44 27 9.35"></polygon>
                <path d="M26.25,9.92 L26.62,9.44 L27,9.35 L26.84,9.53 L26.26,9.92 L26.25,9.92 Z M27,9.35 L26.63,9.45 L26.28,9.89 L26.83,9.52 L27,9.35 Z" id="Shape" fill="#000000" fill-rule="nonzero"></path>
                <polygon id="Shape" fill="#30770E" fill-rule="nonzero" points="26.82 9.45 26.01 9.55 26.71 9.29 27.02 9.35"></polygon>
                <path d="M26,9.55 L26.7,9.3 L27.01,9.35 L26.81,9.46 L26,9.56 L26,9.55 Z M26.7,9.3 L26.05,9.54 L26.81,9.44 L27.01,9.34 L26.7,9.34 L26.7,9.3 Z" id="Shape" fill="#000000" fill-rule="nonzero"></path>
                <polygon id="Shape" fill="#30770E" fill-rule="nonzero" points="27.23 9.47 27.45 9.91 27.1 9.58 26.99 9.34"></polygon>
                <path d="M27.45,9.92 L27.09,9.59 L27,9.34 L27.24,9.47 L27.46,9.91 L27.45,9.92 Z M27,9.34 L27.11,9.57 L27.44,9.88 L27.23,9.47 L27,9.34 Z" id="Shape" fill="#000000" fill-rule="nonzero"></path>
                <polygon id="Shape" fill="#30770E" fill-rule="nonzero" points="27.32 9.31 28.01 9.92 27.18 9.5 26.95 9.35"></polygon>
                <path d="M28,9.92 L27.17,9.5 L26.94,9.35 L27.32,9.35 L28.01,9.96 L28,9.92 Z M27.31,9.32 L26.94,9.32 L27.17,9.46 L27.96,9.86 L27.31,9.29 L27.31,9.32 Z" id="Shape" fill="#000000" fill-rule="nonzero"></path>
                <polygon id="Shape" fill="#30770E" fill-rule="nonzero" points="26.77 9.37 25.95 9.08 26.76 9.09 27.03 9.37"></polygon>
                <path d="M27,9.38 L26.73,9.38 L25.9,9.08 L26.71,9.08 L27,9.38 Z M25.9,9.08 L26.73,9.36 L27,9.36 L26.74,9.08 L25.9,9.08 Z" id="Shape" fill="#000000" fill-rule="nonzero"></path>
                <polygon id="Shape" fill="#30770E" fill-rule="nonzero" points="26.68 9.14 26.3 8.64 26.88 9.01 27.02 9.39"></polygon>
                <path d="M27,9.4 L26.65,9.14 L26.26,8.64 L26.85,9 L27,9.4 Z M26.26,8.64 L26.66,9.13 L26.98,9.37 L26.88,9 L26.3,8.63 L26.26,8.64 Z" id="Shape" fill="#000000" fill-rule="nonzero"></path>
                <polygon id="Shape" fill="#30770E" fill-rule="nonzero" points="26.82 9.03 26.59 8.47 27.02 8.93 27 9.38"></polygon>
                <path d="M27,9.4 L26.82,9 L26.59,8.44 L27.02,8.89 L27.02,9.37 L27,9.4 Z M26.58,8.47 L26.82,9.03 L26.99,9.36 L26.99,8.93 L26.57,8.47 L26.58,8.47 Z" id="Shape" fill="#000000" fill-rule="nonzero"></path>
                <polygon id="Shape" fill="#30770E" fill-rule="nonzero" points="27.05 8.98 27.57 8.54 27.22 9.15 26.98 9.37"></polygon>
                <path d="M27,9.38 L27.08,8.98 L27.6,8.53 L27.26,9.15 L27,9.38 Z M27.59,8.54 L27.06,9 L27,9.35 L27.22,9.15 L27.57,8.54 L27.59,8.54 Z" id="Shape" fill="#000000" fill-rule="nonzero"></path>
                <polygon id="Shape" fill="#30770E" fill-rule="nonzero" points="27.21 9.04 27.88 8.92 27.29 9.29 26.98 9.37"></polygon>
                <path d="M27,9.38 L27.21,9 L27.88,8.87 L27.29,9.25 L27,9.38 Z M27.91,8.91 L27.25,9.05 L27,9.36 L27.3,9.29 L27.89,8.92 L27.91,8.91 Z" id="Shape" fill="#000000" fill-rule="nonzero"></path>
                <polygon id="Shape" fill="#30770E" fill-rule="nonzero" points="27.21 9.18 28.02 9.3 27.27 9.42 27.02 9.35"></polygon>
                <path d="M27.27,9.43 L27,9.36 L27.19,9.18 L28.01,9.29 L27.25,9.43 L27.27,9.43 Z M27.22,9.19 L27,9.35 L27.25,9.41 L28,9.29 L27.19,9.19 L27.22,9.19 Z" id="Shape" fill="#000000" fill-rule="nonzero"></path>
                <polygon id="Shape" fill="#30770E" fill-rule="nonzero" points="26.91 9.57 26.64 9.82 26.8 9.52 27 9.36"></polygon>
                <path d="M26.64,9.82 L26.81,9.53 L27.01,9.36 L26.93,9.58 L26.65,9.83 L26.64,9.82 Z M27,9.36 L26.8,9.53 L26.65,9.79 L26.91,9.57 L27,9.36 Z" id="Shape" fill="#000000" fill-rule="nonzero"></path>
                <polygon id="Shape" fill="#30770E" fill-rule="nonzero" points="26.94 9.43 26.51 9.7 26.88 9.36 27.04 9.29"></polygon>
                <path d="M26.52,9.7 L26.88,9.35 L27,9.28 L26.92,9.43 L26.49,9.7 L26.52,9.7 Z M27,9.28 L26.84,9.35 L26.51,9.67 L26.91,9.42 L27,9.28 Z" id="Shape" fill="#000000" fill-rule="nonzero"></path>
                <polygon id="Shape" fill="#30770E" fill-rule="nonzero" points="27.15 9.38 27.47 9.82 27.08 9.47 26.99 9.3"></polygon>
                <path d="M27.47,9.83 L27.08,9.48 L27,9.3 L27.16,9.37 L27.49,9.82 L27.47,9.83 Z M27,9.3 L27.1,9.46 L27.46,9.79 L27.16,9.37 L27,9.3 Z" id="Shape" fill="#000000" fill-rule="nonzero"></path>
                <polygon id="Shape" fill="#30770E" fill-rule="nonzero" points="26.89 9.29 26.46 8.9 26.88 9.18 27.02 9.33"></polygon>
                <path d="M27,9.34 L26.85,9.34 L26.42,8.96 L26.84,9.23 L26.99,9.4 L27,9.34 Z M26.43,8.91 L26.86,9.29 L26.98,9.29 L26.85,9.14 L26.43,8.87 L26.43,8.91 Z" id="Shape" fill="#000000" fill-rule="nonzero"></path>
                <polygon id="Shape" fill="#30770E" fill-rule="nonzero" points="27.09 9.23 27.49 9.3 27.1 9.3 26.98 9.33"></polygon>
                <path d="M27,9.33 L27.11,9.23 L27.51,9.3 L27.1,9.3 L26.98,9.3 L27,9.33 Z M27.11,9.24 L27,9.32 L27.11,9.32 L27.5,9.32 L27.1,9.26 L27.11,9.24 Z" id="Shape" fill="#000000" fill-rule="nonzero"></path>
                <polygon id="Shape" fill="#30770E" fill-rule="nonzero" points="26.97 9.06 27.27 8.7 27.11 8.98 26.99 9.31"></polygon>
                <path d="M27,9.32 L27,9.06 L27.3,8.7 L27.12,9 L27,9.32 Z M27.28,8.71 L27,9.06 L27,9.29 L27.12,8.99 L27.28,8.71 Z" id="Shape" fill="#000000" fill-rule="nonzero"></path>
                <polygon id="Shape" fill="#30770E" fill-rule="nonzero" points="26.82 9.16 26.5 9.14 26.84 9.05 27.01 9.3"></polygon>
                <path d="M27,9.3 L26.81,9.16 L26.49,9.16 L26.83,9.06 L27.01,9.31 L27,9.3 Z M26.82,9.05 L26.49,9.14 L26.82,9.14 L26.99,9.26 L26.83,9.04 L26.82,9.05 Z" id="Shape" fill="#000000" fill-rule="nonzero"></path>
                <polygon id="Shape" fill="#30770E" fill-rule="nonzero" points="26.88 9.47 26.31 9.7 26.78 9.41 27 9.35"></polygon>
                <path d="M26.32,9.7 L26.79,9.41 L27,9.35 L26.89,9.48 L26.32,9.71 L26.32,9.7 Z M27,9.35 L26.79,9.41 L26.36,9.68 L26.88,9.47 L27,9.35 Z" id="Shape" fill="#000000" fill-rule="nonzero"></path>
                <path d="M23.94,9.34 C23.94,9.34 23.94,9.34 23.94,9.34 L23.67,10.22 C23.67,10.22 23.67,10.22 23.61,10.22 C23.61,10.22 23.61,10.22 23.61,10.22 L23.88,9.34 C23.88,9.34 23.88,9.34 23.94,9.34 Z" id="Shape" fill="#A87F36" fill-rule="nonzero"></path>
                <path d="M23.68,10.28 C23.68,10.28 23.68,10.28 23.68,10.28 L23.95,9.4 L24.01,9.4 C24.01,9.4 24.01,9.4 24.01,9.4 L23.74,10.28 L23.68,10.28 Z M23.94,9.35 L23.89,9.35 L23.62,10.23 C23.62,10.23 23.62,10.23 23.62,10.23 L23.67,10.23 L24,9.39 C24,9.39 24,9.39 24,9.39 L23.94,9.35 Z" id="Shape" fill="#000000" fill-rule="nonzero"></path>
                <path d="M23.39,9.26 C23.39,9.26 23.44,9.26 23.44,9.26 L23.44,10.19 C23.44,10.19 23.44,10.19 23.39,10.19 C23.39,10.19 23.34,10.19 23.34,10.19 L23.34,9.29 C23.34,9.29 23.34,9.29 23.39,9.29 L23.39,9.26 Z" id="Shape" fill="#A87F36" fill-rule="nonzero"></path>
                <path d="M23.39,10.25 C23.39,10.25 23.33,10.25 23.33,10.25 L23.33,9.29 C23.33,9.29 23.44,9.29 23.44,9.29 L23.44,10.22 C23.44,10.22 23.44,10.22 23.39,10.22 L23.39,10.25 Z M23.39,9.25 C23.39,9.25 23.34,9.25 23.34,9.25 L23.34,10.18 C23.34,10.18 23.34,10.18 23.39,10.18 C23.39,10.18 23.39,10.18 23.39,10.18 L23.39,9.29 C23.39,9.29 23.39,9.29 23.39,9.29 L23.39,9.25 Z" id="Shape" fill="#000000" fill-rule="nonzero"></path>
                <path d="M23.06,8.76 C23.19,8.76 23.28,8.76 23.33,8.97 C23.33,8.97 23.33,8.97 23.33,8.97 C23.33,8.68 23.6,8.44 23.78,8.85 C23.78,8.91 23.69,8.85 23.62,8.74 C23.55,8.63 23.42,8.74 23.41,9.03 C23.41,9.09 23.41,9.23 23.41,9.23 L23.31,9.23 C23.31,9.23 23.23,8.89 23.09,8.86 C22.95,8.83 23.01,8.86 22.89,8.94 C22.77,9.02 22.78,8.94 22.89,8.94 C23,8.94 23.02,8.82 23.07,8.81 L23.06,8.76 Z" id="Shape" fill="#1D4805" fill-rule="nonzero"></path>
                <path d="M23.43,9.25 L23.33,9.25 C23.3049399,9.16202792 23.2679281,9.07791018 23.22,9 C23.2741325,9.08303025 23.3146437,9.17418035 23.34,9.27 L23.43,9.27 C23.43,9.27 23.43,9.13 23.43,9.08 C23.43,8.79 23.56,8.68 23.64,8.78 L23.74,8.88 C23.7027644,8.85464201 23.6691266,8.82436803 23.64,8.79 C23.57,8.7 23.45,8.79 23.44,9.08 C23.44,9.14 23.44,9.28 23.44,9.28 L23.43,9.25 Z M23.37,9 C23.386176,8.91511612 23.4240747,8.83587336 23.48,8.77 C23.59,8.65 23.76,8.71 23.85,8.93 C23.75,8.7 23.6,8.66 23.49,8.77 C23.4272105,8.84900738 23.3984279,8.94974647 23.41,9.05 L23.37,9 Z M22.86,9 L22.92,9 C22.9525795,9.01002564 22.9874205,9.01002564 23.02,9 C23.0428148,8.9930432 23.0671852,8.9930432 23.09,9 C23.0613727,8.98716573 23.0286273,8.98716573 23,9 C22.9724357,9.02631874 22.9375936,9.04373981 22.9,9.05 L22.86,9 Z M22.86,9 L22.91,9 C22.91,9 22.99,9 23.02,8.92 C23.0357089,8.89612565 23.0561257,8.87570894 23.08,8.86 C23.1655309,8.83042997 23.2597182,8.86896114 23.3,8.95 C23.253753,8.8759594 23.1630037,8.84295966 23.08,8.87 L23,8.82 C22.9713415,8.86066275 22.9285574,8.88918549 22.88,8.9 L22.83,8.9 L22.86,9 Z" id="Shape" fill="#000000" fill-rule="nonzero"></path>
                <path d="M23.09,8.93 C23.22,8.93 23.31,8.99 23.34,9.16 C23.34,9.16 23.34,9.16 23.34,9.16 C23.34,8.87 23.75,8.86 23.91,9.28 C23.91,9.35 23.91,9.34 23.83,9.28 C23.75,9.22 23.45,8.98 23.42,9.28 L23.42,9.47 L23.32,9.47 C23.32,9.47 23.26,9.13 23.12,9.08 C22.98,9.03 22.98,9.15 22.86,9.17 C22.74,9.19 22.75,9.17 22.86,9.17 C22.93715,9.1155784 23.0172744,9.06550068 23.1,9.02 L23.09,8.93 Z" id="Shape" fill="#1D4805" fill-rule="nonzero"></path>
                <path d="M23.43,9.45 L23.33,9.45 C23.3087338,9.34035837 23.2680985,9.23538397 23.21,9.14 C23.2710406,9.23024288 23.3119653,9.33255476 23.33,9.44 C23.33,9.44 23.39,9.44 23.42,9.44 L23.42,9.25 C23.42,9.13 23.49,9.11 23.54,9.11 C23.6553563,9.1260519 23.7596426,9.18718526 23.83,9.28 C23.83,9.33 23.9,9.34 23.9,9.34 C23.9,9.34 23.9,9.34 23.9,9.34 C23.76,8.98 23.49,8.96 23.39,9.06 C23.3553209,9.10207627 23.3375025,9.15553152 23.34,9.21 C23.3505142,9.13316492 23.381612,9.06060345 23.43,9 C23.53,8.89 23.81,8.92 23.95,9.28 C23.95,9.28 23.95,9.28 23.95,9.28 C23.95,9.28 23.95,9.28 23.87,9.22 C23.8027514,9.12861052 23.702107,9.067505 23.59,9.05 C23.52,9.05 23.48,9.05 23.47,9.18 L23.47,9.37 L23.43,9.45 Z M22.87,9.13 C22.8,9.13 22.79,9.13 22.78,9.13 C22.77,9.13 22.78,9.13 22.85,9.13 L22.92,9.13 C22.9700624,9.09169846 23.0236342,9.05821613 23.08,9.03 C23.1678146,9.00639373 23.2600444,9.04831639 23.3,9.13 C23.2578701,9.05656283 23.1722337,9.0198615 23.09,9.04 L22.93,9.14 L22.85,9.19 L22.79,9.19 L22.85,9.19 C22.9111093,9.16630535 22.963469,9.12441756 23,9.07 C23.0325795,9.05997436 23.0674205,9.05997436 23.1,9.07 C23.0610503,9.05703675 23.0189497,9.05703675 22.98,9.07 C22.9419423,9.09987017 22.8974216,9.12041818 22.85,9.13 L22.87,9.13 Z" id="Shape" fill="#000000" fill-rule="nonzero"></path>
                <path d="M23.12,9.13 C23.25,9.13 23.34,9.21 23.36,9.38 C23.36,9.38 23.36,9.38 23.36,9.38 C23.36,9.09 23.64,9.25 23.74,9.65 C23.74,9.65 23.66,9.65 23.6,9.52 C23.54,9.39 23.48,9.19 23.44,9.46 C23.44,9.52 23.44,9.65 23.44,9.65 L23.34,9.65 C23.34,9.65 23.34,9.3 23.17,9.25 C23,9.2 23.01,9.49 22.88,9.49 C22.75,9.49 22.77,9.49 22.88,9.49 C22.99,9.49 23.1,9.2 23.15,9.18 L23.12,9.13 Z" id="Shape" fill="#1D4805" fill-rule="nonzero"></path>
                <path d="M23.78,9.69 C23.78,9.69 23.68,9.61 23.64,9.55 L23.64,9.46 C23.59,9.36 23.55,9.3 23.52,9.46 L23.52,9.65 L23.42,9.65 C23.4149893,9.51165686 23.3659413,9.37852662 23.28,9.27 C23.3664738,9.37435633 23.415732,9.50453878 23.42,9.64 L23.52,9.64 C23.52,9.64 23.52,9.51 23.52,9.45 C23.52,9.39 23.6,9.32 23.65,9.45 L23.65,9.53 C23.6848433,9.58715647 23.7328435,9.63515674 23.79,9.67 C23.68,9.25 23.42,9.13 23.41,9.39 L23.41,9.35 C23.41,9.29 23.47,9.25 23.51,9.25 C23.55,9.25 23.74,9.41 23.81,9.67 L23.78,9.69 Z M22.88,9.49 C22.8,9.49 22.79,9.49 22.79,9.49 C22.79,9.49 22.79,9.49 22.86,9.49 L22.94,9.4 C22.990341,9.31925796 23.0546822,9.24814396 23.13,9.19 C23.07,9.19 22.98,9.32 22.91,9.4 L22.83,9.5 L22.77,9.5 L22.85,9.5 C22.91,9.5 22.96,9.43 23,9.37 C23.04,9.31 23.08,9.26 23.13,9.26 C23.06,9.26 23.03,9.31 23,9.37 C22.97,9.43 22.91,9.5 22.84,9.51 L22.88,9.49 Z" id="Shape" fill="#000000" fill-rule="nonzero"></path>
                <path d="M22.63,9.26 C22.63,9.26 22.69,9.26 22.69,9.26 L22.99,10.14 C22.99,10.14 22.99,10.14 22.99,10.14 C22.99,10.14 22.94,10.14 22.93,10.14 L22.63,9.26 C22.63,9.26 22.63,9.26 22.63,9.26 Z" id="Shape" fill="#A87F36" fill-rule="nonzero"></path>
                <path d="M22.92,10.2 L22.62,9.32 L22.68,9.32 L22.98,10.2 C22.98,10.2 22.98,10.2 22.98,10.2 L22.92,10.2 Z M22.63,9.26 L22.93,10.15 L22.98,10.15 C22.98,10.15 22.98,10.15 22.98,10.15 L22.68,9.27 L22.63,9.26 Z" id="Shape" fill="#000000" fill-rule="nonzero"></path>
                <path d="M22.72,8.7 C22.59,8.7 22.52,8.82 22.55,9 C22.55,9 22.55,9 22.55,9 C22.46,8.72 22.16,8.73 22.15,9.18 C22.15,9.25 22.22,9.12 22.25,9.02 C22.28,8.92 22.38,8.84 22.49,9.09 L22.58,9.26 L22.66,9.21 C22.66,9.21 22.6,8.87 22.72,8.78 C22.7859982,8.73793215 22.8618271,8.71380477 22.94,8.71 C23.05,8.71 23.05,8.71 22.94,8.66 L22.72,8.7 Z" id="Shape" fill="#1D4805" fill-rule="nonzero"></path>
                <path d="M22.56,9.3 L22.47,9.13 C22.41,8.99 22.35,8.95 22.32,8.95 C22.29,8.95 22.25,8.95 22.23,9.05 C22.21,9.15 22.16,9.23 22.13,9.23 C22.13,9.23 22.19,9.16 22.22,9.07 C22.25,8.98 22.38,8.93 22.47,9.14 L22.56,9.31 L22.64,9.31 C22.64,9.08 22.64,8.93 22.7,8.88 C22.7591618,8.83911184 22.8282528,8.81492998 22.9,8.81 L23,8.81 C23,8.81 23,8.81 22.93,8.81 L22.75,8.81 C22.6890334,8.8089983 22.6306417,8.83454469 22.59,8.88 C22.559444,8.9536221 22.559444,9.0363779 22.59,9.11 C22.5847928,9.03653341 22.6022442,8.9632373 22.64,8.9 C22.6721245,8.86009523 22.7190018,8.8348536 22.77,8.83 L22.98,8.83 C23.05,8.83 23.06,8.83 23.06,8.83 C23.06,8.83 23.06,8.83 22.98,8.83 C22.9017433,8.83333545 22.8257955,8.85750066 22.76,8.9 C22.69,8.9 22.67,9.1 22.7,9.31 C22.7,9.31 22.7,9.31 22.62,9.38 L22.56,9.3 Z M22.17,9 C22.24,8.81 22.37,8.82 22.46,8.9 C22.37,8.82 22.24,8.81 22.17,9 Z" id="Shape" fill="#000000" fill-rule="nonzero"></path>
                <path d="M22.76,8.87 C22.63,8.87 22.57,9.01 22.61,9.18 C22.61,9.18 22.61,9.18 22.61,9.18 C22.5,8.91 22.2,8.93 22.22,9.39 C22.22,9.46 22.29,9.32 22.32,9.23 C22.35,9.14 22.44,9.04 22.57,9.29 L22.67,9.46 L22.75,9.4 C22.75,9.4 22.67,9.06 22.75,8.97 C22.8238497,8.92085042 22.9113653,8.89634604 23,8.9 C23.11,8.9 23.1,8.84 23,8.85 L22.79,8.85 L22.76,8.87 Z" id="Shape" fill="#1D4805" fill-rule="nonzero"></path>
                <path d="M22.64,9.48 L22.54,9.31 C22.47,9.17 22.42,9.14 22.38,9.14 C22.34,9.14 22.31,9.14 22.3,9.25 C22.29,9.36 22.24,9.43 22.21,9.43 C22.21,9.43 22.26,9.35 22.29,9.26 C22.32,9.17 22.44,9.11 22.54,9.32 L22.64,9.49 L22.72,9.44 C22.72,9.31 22.67,9.08 22.72,9.01 C22.7780971,8.96554676 22.8472723,8.93787672 22.92,8.93 L23.02,8.93 L22.78,8.93 C22.7305983,8.93877606 22.6871017,8.9677738 22.66,9.01 C22.6305069,9.08383022 22.6305069,9.16616978 22.66,9.24 C22.6407994,9.17131666 22.6407994,9.09868334 22.66,9.03 C22.6902455,8.98633374 22.737389,8.95732231 22.79,8.95 L23,8.95 C23.07,8.95 23.08,8.95 23.08,8.95 C23.08,8.95 23.08,8.95 23,8.95 C22.9234231,8.96143439 22.8510918,8.99243352 22.79,9.04 C22.7,9.11 22.73,9.34 22.79,9.46 C22.85,9.58 22.79,9.46 22.71,9.53 L22.64,9.48 Z M22.21,9.3 C22.2088863,9.21935451 22.2373449,9.1410932 22.29,9.08 C22.3183857,9.04938206 22.3582483,9.03198039 22.4,9.03198039 C22.4417517,9.03198039 22.4816143,9.04938206 22.51,9.08 C22.4482992,9.021586 22.3517008,9.021586 22.29,9.08 C22.2416088,9.13967052 22.2135759,9.21325697 22.21,9.29 L22.21,9.3 Z" id="Shape" fill="#000000" fill-rule="nonzero"></path>
                <path d="M22.81,9.07 C22.68,9.07 22.64,9.22 22.69,9.4 C22.69,9.4 22.69,9.4 22.69,9.4 C22.56,9.13 22.27,9.19 22.32,9.64 C22.32,9.71 22.38,9.57 22.4,9.47 C22.42,9.37 22.51,9.27 22.65,9.47 L22.76,9.63 L22.84,9.57 C22.84,9.57 22.74,9.24 22.84,9.13 C22.8898208,9.10367427 22.9440544,9.08672625 23,9.08 C23.11,9.08 23.09,9.02 23,9.03 L22.79,9.03 L22.81,9.07 Z" id="Shape" fill="#1D4805" fill-rule="nonzero"></path>
                <path d="M22.73,9.69 L22.62,9.53 C22.54,9.4 22.49,9.37 22.46,9.37 C22.43,9.37 22.39,9.37 22.38,9.49 C22.37,9.61 22.38,9.68 22.31,9.68 C22.31,9.68 22.36,9.6 22.38,9.51 C22.4,9.42 22.51,9.35 22.63,9.51 L22.74,9.67 L22.81,9.61 C22.81,9.48 22.73,9.25 22.81,9.17 C22.8607728,9.12224716 22.9226318,9.08788105 22.99,9.07 L23.08,9.07 L23.02,9.07 C22.9444571,9.08750085 22.8752339,9.12557362 22.82,9.18 C22.76,9.24 22.76,9.39 22.82,9.61 C22.82,9.61 22.82,9.61 22.74,9.69 L22.73,9.69 Z M22.28,9.54 C22.2745444,9.45736686 22.299435,9.37558339 22.35,9.31 C22.3801441,9.27883786 22.421644,9.26124298 22.465,9.26124298 C22.508356,9.26124298 22.5498559,9.27883786 22.58,9.31 C22.5165513,9.25615309 22.4234487,9.25615309 22.36,9.31 C22.3117148,9.37673718 22.2870804,9.45767874 22.29,9.54 L22.28,9.54 Z M22.68,9.39 C22.6570436,9.31846324 22.6570436,9.24153676 22.68,9.17 C22.7059639,9.12481193 22.7493496,9.09227266 22.8,9.08 L23,9 L22.79,9 C22.7405983,9.00877606 22.6971017,9.0377738 22.67,9.08 C22.6353434,9.15624663 22.6353434,9.24375337 22.67,9.32 L22.68,9.39 Z" id="Shape" fill="#000000" fill-rule="nonzero"></path>
                <path d="M23.83,8.64 C23.96,8.64 24.03,8.76 24.02,8.94 C24.02,8.94 24.02,8.94 24.02,8.94 C24.09,8.65 24.44,8.54 24.48,9 C24.48,9.07 24.41,8.94 24.37,8.84 C24.33,8.74 24.18,8.79 24.09,9.04 C24.09,9.09 24.01,9.22 24.01,9.22 L23.92,9.17 C23.92,9.17 23.92,8.82 23.83,8.74 C23.74,8.66 23.74,8.74 23.62,8.74 C23.5,8.74 23.51,8.74 23.62,8.69 C23.73,8.64 23.77,8.63 23.82,8.63 L23.83,8.64 Z" id="Shape" fill="#1D4805" fill-rule="nonzero"></path>
                <path d="M24,9.24 L23.91,9.18 C23.91,9.07 23.91,8.82 23.82,8.75 L23.76,8.75 C23.7107539,8.76227917 23.6592461,8.76227917 23.61,8.75 C23.53,8.75 23.53,8.75 23.53,8.75 C23.53,8.75 23.53,8.75 23.6,8.75 C23.6422425,8.76375033 23.6877575,8.76375033 23.73,8.75 L23.8,8.75 C23.8873581,8.7526498 23.9616405,8.81455183 23.98,8.9 C23.9527694,8.82198404 23.8823184,8.7671888 23.8,8.76 L23.73,8.76 C23.6971086,8.7676762 23.6628914,8.7676762 23.63,8.76 C23.54,8.76 23.53,8.76 23.53,8.76 C23.53,8.76 23.53,8.76 23.61,8.76 C23.6460154,8.76977376 23.6839846,8.76977376 23.72,8.76 L23.78,8.76 C23.88,8.83 23.88,9.05 23.87,9.19 L23.95,9.25 C23.95,9.25 24,9.12 24.03,9.07 C24.13,8.79 24.28,8.75 24.32,8.87 L24.39,9 C24.3597396,8.95898362 24.3329788,8.91549734 24.31,8.87 C24.31,8.75 24.13,8.8 24.03,9.07 L24,9.24 Z M24.5,9 C24.5,8.8 24.41,8.69 24.3,8.69 C24.1696304,8.70702747 24.0670275,8.80963044 24.05,8.94 C24.05194,8.92004705 24.05194,8.89995295 24.05,8.88 C24.0977862,8.77580901 24.1962166,8.70387904 24.31,8.69 C24.42,8.69 24.5,8.81 24.52,9 L24.5,9 Z" id="Shape" fill="#000000" fill-rule="nonzero"></path>
                <path d="M23.81,8.81 C23.94,8.81 24,8.95 23.98,9.12 C23.98,9.12 23.98,9.12 23.98,9.12 C24.06,8.84 24.46,8.99 24.48,9.45 C24.48,9.52 24.48,9.5 24.42,9.45 C24.36,9.4 24.15,9.02 24.05,9.27 L24,9.42 L23.92,9.36 C23.92,9.36 23.97,9.02 23.86,8.92 C23.75,8.82 23.71,8.92 23.58,8.92 C23.45,8.92 23.48,8.86 23.58,8.87 C23.68,8.88 23.8,8.81 23.85,8.82 L23.81,8.81 Z" id="Shape" fill="#1D4805" fill-rule="nonzero"></path>
                <path d="M24.48,9.52 C24.48,9.52 24.48,9.52 24.43,9.43 C24.38,9.34 24.27,9.16 24.17,9.16 C24.07,9.16 24.09,9.16 24.07,9.25 L24,9.42 L23.91,9.36 C23.91,9.22 23.91,9 23.84,8.93 C23.798378,8.91277704 23.751622,8.91277704 23.71,8.93 C23.6642111,8.94280043 23.6157889,8.94280043 23.57,8.93 C23.49,8.93 23.49,8.93 23.49,8.93 L23.55,8.93 L23.65,8.93 L23.82,8.93 C23.8878068,8.92272222 23.9549253,8.94882384 24,9 C23.9775092,8.92107877 23.9111075,8.86248898 23.83,8.85 L23.65,8.85 L23.56,8.85 L23.49,8.85 C23.49,8.85 23.49,8.85 23.57,8.85 C23.6160946,8.86033347 23.6639054,8.86033347 23.71,8.85 C23.7541903,8.82849993 23.8058097,8.82849993 23.85,8.85 C23.94,8.92 23.93,9.15 23.92,9.28 C23.91,9.41 23.92,9.28 24,9.34 C24.0237056,9.28198658 24.0504083,9.22524348 24.08,9.17 C24.08,9.11 24.15,9.07 24.19,9.07 C24.23,9.07 24.43,9.25 24.46,9.35 C24.49,9.45 24.46,9.44 24.46,9.44 C24.46,9.44 24.46,9.44 24.46,9.44 C24.46,9.15 24.28,8.98 24.14,8.98 C24.0566795,8.97869403 23.9846952,9.03797525 23.97,9.12 C23.9717408,9.10337879 23.9717408,9.08662121 23.97,9.07 C24.0202982,9.01398336 24.0957476,8.98757608 24.17,9 C24.32,9 24.49,9.18 24.5,9.47 C24.5,9.47 24.5,9.47 24.5,9.47 L24.48,9.52 Z" id="Shape" fill="#000000" fill-rule="nonzero"></path>
                <path d="M23.78,9 C23.91,9 23.96,9.15 23.92,9.33 C23.92,9.33 23.92,9.33 23.92,9.33 C24.03,9.06 24.23,9.33 24.2,9.73 C24.2,9.73 24.14,9.66 24.11,9.56 C24.08,9.46 24.11,9.21 23.97,9.44 L23.87,9.6 L23.79,9.54 C23.79,9.54 23.86,9.2 23.79,9.1 C23.72,9 23.57,9.26 23.44,9.22 C23.31,9.18 23.35,9.16 23.44,9.17 C23.53,9.18 23.73,8.97 23.79,8.98 L23.78,9 Z" id="Shape" fill="#1D4805" fill-rule="nonzero"></path>
                <path d="M24.22,9.78 C24.1771299,9.72360458 24.1464788,9.65889657 24.13,9.59 L24.13,9.49 C24.13,9.38 24.13,9.31 24.01,9.49 L23.91,9.66 L23.83,9.59 C23.8402784,9.50363808 23.8402784,9.41636192 23.83,9.33 C23.8404577,9.41300524 23.8404577,9.49699476 23.83,9.58 C23.83,9.58 23.83,9.58 23.91,9.65 L24,9.47 C24.09,9.3 24.11,9.37 24.13,9.47 C24.15,9.57 24.13,9.54 24.13,9.57 C24.1447163,9.63462858 24.1718897,9.69576874 24.21,9.75 C24.2330022,9.58510785 24.1937884,9.41755816 24.1,9.28 C24.04,9.22 23.97,9.28 23.93,9.36 C23.9315465,9.34336921 23.9315465,9.32663079 23.93,9.31 C24.01,9.22 24.05,9.24 24.1,9.31 C24.1944568,9.45102429 24.2336196,9.62191652 24.21,9.79 L24.22,9.78 Z M23.46,9.26 C23.5260757,9.25714576 23.5893563,9.23253664 23.64,9.19 C23.6756584,9.15459439 23.7208127,9.13028053 23.77,9.12 C23.7186425,9.11805963 23.668509,9.13596444 23.63,9.17 C23.5856865,9.21180962 23.5300358,9.239635 23.47,9.25 L23.46,9.26 Z M23.46,9.26 C23.39,9.26 23.39,9.26 23.39,9.26 L23.46,9.26 L23.57,9.2 C23.6287284,9.12241973 23.6996489,9.05487642 23.78,9 C23.8628192,9.01907037 23.9259794,9.08617802 23.94,9.17 C23.9259794,9.08617802 23.8628192,9.01907037 23.78,9 C23.6930634,9.02908035 23.6118515,9.07307011 23.54,9.13 L23.43,9.19 C23.43,9.19 23.43,9.19 23.43,9.19 L23.46,9.26 Z" id="Shape" fill="#000000" fill-rule="nonzero"></path>
                <path d="M25.26,14.68 C23.35,13.88 22.14,12.88 22.06,10.4 L22.06,6.19 L28.4,6.19 L28.4,10.39 C28.4,12.47 27.52,13.67 25.27,14.67 L25.26,14.68 Z M22.12,6.26 L22.12,10.39 C22.2,12.84 23.33,13.79 25.26,14.6 C27.47,13.6 28.34,12.44 28.34,10.39 L28.34,6.26 L22.12,6.26 Z" id="Shape" fill="#000000" fill-rule="nonzero"></path>
            </g>
        </g>
    </g>
</svg>