<svg xmlns="http://www.w3.org/2000/svg" xmlns:xlink="http://www.w3.org/1999/xlink" viewBox="0 0 33.56 19.58"><defs><style>.cls-1{fill:none;}.cls-2{clip-path:url(#clip-path);}.cls-3{fill:#81afda;}.cls-4{fill:#fff;}</style><clipPath id="clip-path"><rect class="cls-1" width="33.56" height="19.58"/></clipPath></defs><title>FSM</title><g id="Layer_2" data-name="Layer 2"><g id="_4" data-name="4"><g id="MICRONESIA"><g class="cls-2"><rect class="cls-3" width="33.56" height="19.58"/><polygon class="cls-4" points="16.78 1.96 16.18 3.82 17.11 4.12 16.78 1.96"/><polygon class="cls-4" points="16.78 1.96 17.39 3.82 16.46 4.12 16.78 1.96"/><polygon class="cls-4" points="18.64 3.31 16.69 3.31 16.69 4.29 18.64 3.31"/><polygon class="cls-4" points="18.64 3.31 17.06 4.46 16.49 3.67 18.64 3.31"/><polygon class="cls-4" points="14.92 3.31 16.5 4.46 17.08 3.67 14.92 3.31"/><polygon class="cls-4" points="14.92 3.31 16.88 3.31 16.88 4.29 14.92 3.31"/><polygon class="cls-4" points="17.93 5.5 17.33 3.64 16.4 3.94 17.93 5.5"/><polygon class="cls-4" points="17.93 5.5 16.35 4.35 16.93 3.56 17.93 5.5"/><polygon class="cls-4" points="15.63 5.5 17.21 4.35 16.64 3.56 15.63 5.5"/><polygon class="cls-4" points="15.63 5.5 16.24 3.64 17.17 3.94 15.63 5.5"/><polygon class="cls-4" points="24.61 9.79 22.75 9.19 22.45 10.12 24.61 9.79"/><polygon class="cls-4" points="24.61 9.79 22.75 10.4 22.45 9.46 24.61 9.79"/><polygon class="cls-4" points="23.26 11.65 23.26 9.69 22.28 9.69 23.26 11.65"/><polygon class="cls-4" points="23.26 11.65 22.11 10.07 22.9 9.49 23.26 11.65"/><polygon class="cls-4" points="23.26 7.93 22.11 9.51 22.9 10.09 23.26 7.93"/><polygon class="cls-4" points="23.26 7.93 23.26 9.89 22.28 9.89 23.26 7.93"/><polygon class="cls-4" points="21.07 10.94 22.93 10.34 22.63 9.4 21.07 10.94"/><polygon class="cls-4" points="21.07 10.94 22.22 9.36 23.02 9.93 21.07 10.94"/><polygon class="cls-4" points="21.07 8.64 22.22 10.22 23.02 9.65 21.07 8.64"/><polygon class="cls-4" points="21.07 8.64 22.93 9.24 22.63 10.18 21.07 8.64"/><polygon class="cls-4" points="8.95 9.79 10.81 10.4 11.12 9.46 8.95 9.79"/><polygon class="cls-4" points="8.95 9.79 10.81 9.19 11.12 10.12 8.95 9.79"/><polygon class="cls-4" points="10.3 7.93 10.3 9.89 11.28 9.89 10.3 7.93"/><polygon class="cls-4" points="10.3 7.93 11.46 9.51 10.66 10.09 10.3 7.93"/><polygon class="cls-4" points="10.3 11.65 11.46 10.07 10.66 9.49 10.3 11.65"/><polygon class="cls-4" points="10.3 11.65 10.3 9.69 11.28 9.69 10.3 11.65"/><polygon class="cls-4" points="12.49 8.64 10.63 9.24 10.93 10.18 12.49 8.64"/><polygon class="cls-4" points="12.49 8.64 11.34 10.22 10.55 9.65 12.49 8.64"/><polygon class="cls-4" points="12.49 10.94 11.34 9.36 10.55 9.93 12.49 10.94"/><polygon class="cls-4" points="12.49 10.94 10.63 10.34 10.93 9.4 12.49 10.94"/><polygon class="cls-4" points="16.78 17.62 17.39 15.76 16.46 15.46 16.78 17.62"/><polygon class="cls-4" points="16.78 17.62 16.18 15.76 17.11 15.46 16.78 17.62"/><polygon class="cls-4" points="14.92 16.27 16.88 16.27 16.88 15.29 14.92 16.27"/><polygon class="cls-4" points="14.92 16.27 16.5 15.12 17.08 15.91 14.92 16.27"/><polygon class="cls-4" points="18.64 16.27 17.06 15.12 16.49 15.91 18.64 16.27"/><polygon class="cls-4" points="18.64 16.27 16.69 16.27 16.69 15.29 18.64 16.27"/><polygon class="cls-4" points="15.63 14.08 16.24 15.94 17.17 15.64 15.63 14.08"/><polygon class="cls-4" points="15.63 14.08 17.21 15.23 16.64 16.02 15.63 14.08"/><polygon class="cls-4" points="17.93 14.08 16.35 15.23 16.93 16.02 17.93 14.08"/><polygon class="cls-4" points="17.93 14.08 17.33 15.94 16.4 15.64 17.93 14.08"/></g></g></g></g></svg>