<?xml version="1.0" encoding="utf-8"?>
<!-- Generator: Adobe Illustrator 21.0.0, SVG Export Plug-In . SVG Version: 6.00 Build 0)  -->
<svg version="1.1" id="Layer_1" xmlns="http://www.w3.org/2000/svg" xmlns:xlink="http://www.w3.org/1999/xlink" x="0px" y="0px"
	 viewBox="0 0 200 200" style="enable-background:new 0 0 200 200;" xml:space="preserve">
<style type="text/css">
	.st0{fill:#FFFFFF;}
	.st1{fill:#3B73B9;}
</style>
<title>GE</title>
<circle class="st0" cx="100" cy="100" r="100"/>
<g id="g10">
	<g id="g12">
		<path id="path16" class="st1" d="M122.4,74c0-11.3,7.7-22.4,11.9-20.3C139.1,56.1,130.7,66.8,122.4,74 M70.1,78.1
			c0-9.1,9-26.5,14.5-24.6C91.2,55.7,79.3,73.2,70.1,78.1 M61,143.4c-4.1,0.2-6.9-2.5-6.9-6.9c0-11.9,16.5-23.2,28.9-29.3
			C80.8,123.8,75.2,142.8,61,143.4 M137.1,104.7c-9.4,0-16.6,6.9-16.6,15.2c0,6.9,4.2,12.4,9.7,12.4c2,0,3.9-1.1,3.9-3.6
			c0-3.6-4.8-4.5-4.4-9.9c0.2-3.6,3.6-5.9,6.9-5.9c6.6,0,9.7,6.4,9.7,13.1c-0.3,10.2-7.8,17.4-16.6,17.4
			c-11.6,0-19.1-11.1-19.1-22.9c0-17.7,11.6-24.6,17.7-26.3c0.1,0,15.9,2.8,15.4-4.2c-0.2-3.1-4.8-4.3-8.1-4.4c-2.5,0-5,0.4-7.4,1.2
			c-1.9-1.1-3.4-2.9-4.1-5.1c11.3-8.6,19.4-16.9,19.4-26.3c0-5-3.3-9.4-9.7-9.4c-11.3,0-19.9,14.4-19.9,27.4
			c-0.1,2.1,0.1,4.3,0.6,6.4c-7.2,5.3-12.6,8.5-22.2,14.3c0.1-2.8,0.5-5.6,1.1-8.4c3.3-3.6,7.9-9,7.9-13.1c0-1.9-1.1-3.6-3.3-3.6
			c-5.5,0-9.7,8.3-10.8,14.1c-2.5,3.1-7.5,6.9-11.6,6.9c-3.3,0-4.4-3-4.7-4.2c10.5-3.6,23.5-18,23.5-31c0-2.8-1.1-8.8-9.4-8.8
			c-12.5,0-23,18.6-23,32.9c-4.4,0-6.1-4.7-6.1-8.3s1.4-7.2,1.4-8.3c0.2-1.2-0.7-2.3-1.9-2.5c-0.1,0-0.2,0-0.3,0
			c-4.1,0-6.6,5.5-6.6,11.9c0.3,8.8,6.1,14.4,13.8,14.9c1.1,5.3,5.8,10.2,11.6,10.2c3.6,0,8-1.1,11.1-3.9c-0.3,1.9-0.5,3.6-0.8,5.3
			c-12.2,6.4-21,10.8-29,18c-6.3,5.8-9.9,13.6-9.9,19.6c0,8.3,5.3,16,16,16c12.7,0,22.4-10.2,27.1-24.3c2.2-6.6,3.1-16.3,3.7-25.2
			c8.8-4.8,17.3-10.2,25.4-16c0.7,1.3,1.6,2.4,2.8,3.3c-5.8,3-19.6,11.6-19.6,31.8c0,14.4,9.7,30.4,28.8,30.4
			c15.8,0,26.6-13,26.6-25.5C155.6,115.2,149.2,104.7,137.1,104.7 M184.6,128.5c0,0.1-0.2,0.2-0.5,0.1s-0.3-0.2-0.3-0.4
			c2.1-6.9,3.2-14.1,3.3-21.3c0-12.2-5-19.7-11.3-19.7c-3.9,0-6.6,2.8-6.6,6.9c0,7.5,9.1,8,9.1,24.3c0,6.6-1.4,13-3.6,19.9
			c-10.3,34.6-42.9,50.6-74.7,50.6c-14.7,0-25.1-3-28.2-4.4c-0.2-0.1-0.2-0.4-0.1-0.6c0.1-0.2,0.3-0.3,0.4-0.3
			c6.9,2.2,14.1,3.3,21.3,3.3c12.2,0,19.4-5,19.4-11.1c0-3.8-3-6.9-6.8-6.9c0,0-0.1,0-0.1,0c-7.5,0-8,9.4-24.1,9.4
			c-6.9,0-13-1.4-20.2-3.6C27.3,164.4,10.9,132.1,11,100c0-9.6,1.5-19.1,4.4-28.2c0.1-0.1,0.3-0.2,0.5-0.1c0.2,0,0.3,0.2,0.3,0.4
			c-2.1,6.9-3.3,14-3.3,21.2c0,12.2,5,19.4,11.3,19.4c3.6,0.1,6.6-2.8,6.7-6.4c0-0.1,0-0.1,0-0.2c0-7.5-9.1-8.3-9.1-24.3
			c0-6.9,1.4-13,3.6-20.2C35.8,27.3,68.2,11.2,100,10.9c14.8-0.1,27.7,4.3,28.2,4.7c0.1,0.1,0.2,0.3,0.1,0.5
			c-0.1,0.3-0.3,0.3-0.4,0.3c-6.8-2.4-14-3.6-21.3-3.6c-11.9,0-19.4,5-19.4,11.3c0,3.7,2.9,6.6,6.6,6.7c0.1,0,0.2,0,0.3,0
			c7.5,0,8-9.1,24.1-9.1c6.9,0,13,1.4,20.2,3.6C173,35.8,188.7,68.5,189,100C189.2,109.7,187.7,119.3,184.6,128.5 M100,4.8
			C47.5,4.8,4.9,47.4,4.9,100s42.6,95.1,95.1,95.1c52.5,0,95.1-42.6,95.1-95.1C195.2,47.5,152.6,4.9,100,4.8
			C100,4.8,100,4.8,100,4.8 M100,199.8c-55.1,0-99.9-44.7-99.9-99.8S44.8,0.2,100,0.1s99.9,44.7,99.9,99.8c0,0,0,0,0,0
			C199.9,155.1,155.2,199.8,100,199.8C100.1,199.9,100,199.9,100,199.8"/>
	</g>
</g>
</svg>
