<?xml version="1.0" encoding="UTF-8"?>
<svg width="34px" height="20px" viewBox="0 0 34 20" version="1.1" xmlns="http://www.w3.org/2000/svg" xmlns:xlink="http://www.w3.org/1999/xlink">
    <!-- Generator: Sketch 49 (51002) - http://www.bohemiancoding.com/sketch -->
    <title>GEL</title>
    <desc>Created with Sketch.</desc>
    <defs></defs>
    <g id="Page-1" stroke="none" stroke-width="1" fill="none" fill-rule="evenodd">
        <g id="GEL" fill-rule="nonzero">
            <rect id="Rectangle-path" fill="#FFFFFF" x="0" y="0" width="33.56" height="19.58"></rect>
            <g id="Group" fill="#D50037">
                <path d="M8,4.42 C7.98204986,4.77502577 7.94533189,5.12885347 7.89,5.48 C7.89,5.59 7.89,5.7 7.83,5.82 C8.2715128,5.76318094 8.7184872,5.76318094 9.16,5.82 C9.16,5.71 9.16,5.6 9.1,5.48 C9.04698114,5.12880115 9.01359593,4.77491799 9,4.42 C9.46677394,4.44368483 9.93127608,4.50049445 10.39,4.59 C10.3375922,4.1448706 10.3375922,3.6951294 10.39,3.25 C9.9310301,3.33611553 9.46653231,3.38958291 9,3.41 C9.0071253,2.93736246 9.05058677,2.46597269 9.13,2 C8.90688519,2.01397199 8.68311481,2.01397199 8.46,2 C8.23688684,2.01402442 8.01311316,2.01402442 7.79,2 C7.89041339,2.46496499 7.96056065,2.93595377 8,3.41 C7.52991409,3.38635157 7.06208434,3.32954368 6.6,3.24 C6.61480214,3.46308807 6.61480214,3.68691193 6.6,3.91 C6.61498016,4.13308213 6.61498016,4.35691787 6.6,4.58 C7.06232378,4.49381281 7.5301516,4.44034677 8,4.42" id="Shape"></path>
                <path d="M24.6,4.42 C24.5820499,4.77502577 24.5453319,5.12885347 24.49,5.48 C24.49,5.59 24.49,5.7 24.43,5.82 C24.6531148,5.80602801 24.8768852,5.80602801 25.1,5.82 C25.3231188,5.80615739 25.5468812,5.80615739 25.77,5.82 C25.77,5.71 25.77,5.6 25.72,5.48 C25.6627483,5.12910682 25.6260192,4.77517203 25.61,4.42 C26.0800859,4.44364843 26.5479157,4.50045632 27.01,4.59 C26.9498755,4.14535663 26.9498755,3.69464337 27.01,3.25 C26.5479157,3.33954368 26.0800859,3.39635157 25.61,3.42 C25.6324996,2.9436991 25.6859457,2.46936516 25.77,2 C25.5468812,2.01384261 25.3231188,2.01384261 25.1,2 C24.8768852,2.01397199 24.6531148,2.01397199 24.43,2 C24.5193801,2.46211008 24.5761865,2.92992826 24.6,3.4 C24.1299141,3.37635157 23.6620843,3.31954368 23.2,3.23 C23.2550186,3.67497242 23.2550186,4.12502758 23.2,4.57 C23.6620843,4.48045632 24.1299141,4.42364843 24.6,4.4" id="Shape"></path>
                <path d="M9,15.16 C9.01340761,14.8050696 9.04679381,14.4511759 9.1,14.1 C9.1,13.99 9.1,13.88 9.16,13.76 C8.71850137,13.8170398 8.27149863,13.8170398 7.83,13.76 C7.83,13.87 7.83,13.98 7.89,14.1 C7.94548122,14.451127 7.98220001,14.8049627 8,15.16 C7.51691498,15.1395408 7.03579351,15.0860828 6.56,15 C6.61681906,15.4415128 6.61681906,15.8884872 6.56,16.33 C7.03525384,16.2385621 7.51651867,16.1817462 8,16.16 C7.97333757,16.6298225 7.91655424,17.09745 7.83,17.56 C8.27167079,17.5057023 8.71832921,17.5057023 9.16,17.56 C9.07091527,17.0981159 9.01742474,16.6300738 9,16.16 C9.46653231,16.1804171 9.9310301,16.2338845 10.39,16.32 C10.3381921,15.8781802 10.3381921,15.4318198 10.39,14.99 C9.93097045,15.0775642 9.46660269,15.1343573 9,15.16" id="Shape"></path>
                <path d="M25.61,15.16 C25.6278,14.8049627 25.6645188,14.451127 25.72,14.1 C25.72,13.99 25.72,13.88 25.77,13.76 C25.5468828,13.7738941 25.3231172,13.7738941 25.1,13.76 C24.8768868,13.7740244 24.6531132,13.7740244 24.43,13.76 C24.43,13.87 24.43,13.98 24.49,14.1 C24.5454812,14.451127 24.5822,14.8049627 24.6,15.16 C24.1303152,15.1376024 23.6626271,15.0841523 23.2,15 C23.2542977,15.4416708 23.2542977,15.8883292 23.2,16.33 C23.6623238,16.2438128 24.1301516,16.1903468 24.6,16.17 C24.5763516,16.6400859 24.5195437,17.1079157 24.43,17.57 C24.6531148,17.556028 24.8768852,17.556028 25.1,17.57 C25.3231188,17.5561574 25.5468812,17.5561574 25.77,17.57 C25.6868005,17.1072325 25.6333575,16.6396066 25.61,16.17 C26.0798484,16.1903468 26.5476762,16.2438128 27.01,16.33 C26.9474534,15.8890902 26.9440904,15.4418005 27,15 C26.5375975,15.0875076 26.0699076,15.1442985 25.6,15.17" id="Shape"></path>
                <rect id="Rectangle-path" x="14.81" y="0" width="3.94" height="19.58"></rect>
                <rect id="Rectangle-path" x="0" y="7.81" width="33.56" height="3.95"></rect>
            </g>
        </g>
    </g>
</svg>