<?xml version="1.0" encoding="UTF-8"?>
<svg width="36px" height="24px" viewBox="0 0 36 24" version="1.1" xmlns="http://www.w3.org/2000/svg" xmlns:xlink="http://www.w3.org/1999/xlink">
    <!-- Generator: Sketch 49 (51002) - http://www.bohemiancoding.com/sketch -->
    <title>GGP</title>
    <desc>Created with Sketch.</desc>
    <defs></defs>
    <g id="Page-1" stroke="none" stroke-width="1" fill="none" fill-rule="evenodd">
        <g id="GGP" fill-rule="nonzero">
            <g id="Group-2">
                <polygon id="Shape" fill="#FFFFFF" points="3.55271368e-15 0 36 0 36 24 0 24"></polygon>
                <polygon id="Shape" fill="#E8112D" points="21 0 21 9 36 9 36 15 21 15 21 24 15 24 15 15 0 15 0 9 15 9 15 0"></polygon>
                <polygon id="Shape" fill="#F9DD16" points="9 14 10 13 17 13 17 20 16 21 20 21 19 20 19 13 26 13 27 14 27 10 26 11 19 11 19 4 20 3 16 3 17 4 17 11 10 11 9 10"></polygon>
            </g>
        </g>
    </g>
</svg>