<?xml version="1.0" encoding="utf-8"?>
<!-- Generator: Adobe Illustrator 21.0.0, SVG Export Plug-In . SVG Version: 6.00 Build 0)  -->
<svg version="1.1" id="Layer_1" xmlns="http://www.w3.org/2000/svg" xmlns:xlink="http://www.w3.org/1999/xlink" x="0px" y="0px"
	 viewBox="0 0 200 200" style="enable-background:new 0 0 200 200;" xml:space="preserve">
<style type="text/css">
	.st0{fill:#CD3647;}
</style>
<title>GILD</title>
<path class="st0" d="M175.2,0.6c0-0.3-0.2-0.5-0.5-0.6h-0.1C49.8,11.9,33.8,97.9,74.6,125.4c-7,31.1-0.5,30.3-0.5,30.3
	c1.3-9.3,3.1-18.4,5.5-27.5c15.9-60.6,55.3-113.4,95-127.2l0,0C174.9,1.1,175.2,0.8,175.2,0.6L175.2,0.6z"/>
<path class="st0" d="M168.6,20.3c0-0.3-0.3-0.5-0.6-0.5c-0.2,0-0.4,0.1-0.5,0.4c-10.3,20.2-13.3,49.2-21.1,71.3
	c-9,25.4-25,42.4-49.6,40.8v61.6c0,0-65.9-29.8-65.9-77.7V26.4l53.8-4.9l0,0c0.3,0,0.5-0.3,0.5-0.6c0-0.2-0.2-0.4-0.5-0.5l0,0l0,0
	H24.8v95.9c0,53.9,71.8,83.8,71.8,83.8s71.9-30.4,71.9-83.9V20.3z"/>
</svg>
