<svg xmlns="http://www.w3.org/2000/svg" xmlns:xlink="http://www.w3.org/1999/xlink" viewBox="0 0 33.56 19.57"><defs><style>.cls-1{fill:none;}.cls-2{clip-path:url(#clip-path);}.cls-3{fill:#549b14;}.cls-4{fill:#fff;}.cls-5{fill:#d00428;}.cls-6{fill:#cacaca;}.cls-7{fill:#612c0d;}.cls-8{fill:#3b9312;}.cls-9{fill:#2b6a0c;}.cls-10{fill:#f5d028;}.cls-11{fill:#3970ca;}</style><clipPath id="clip-path"><rect class="cls-1" width="33.56" height="19.57"/></clipPath></defs><title>GNQ</title><g id="Layer_2" data-name="Layer 2"><g id="_4" data-name="4"><g id="EQUATORIAL_GUINEA" data-name="EQUATORIAL GUINEA"><g class="cls-2"><rect class="cls-3" width="33.56" height="6.57"/><rect class="cls-4" y="6.57" width="33.56" height="6.44"/><rect class="cls-5" y="13.01" width="33.56" height="6.57"/><g class="cls-2"><path class="cls-6" d="M13.24,7.89V11a.47.47,0,0,0,.48.5h.64c.16,0,.32.25.32.25s.16-.25.32-.25h.65a.47.47,0,0,0,.49-.5V7.89Z"/><path d="M14.69,11.81v0s-.16-.25-.31-.25h-.64a.49.49,0,0,1-.5-.52V7.89l2.93,0,0,3.16a.49.49,0,0,1-.5.52H15c-.16,0-.31.24-.31.25v0Zm1.44-3.93-2.89,0,0,3.13a.46.46,0,0,0,.47.48h.64c.14,0,.28.18.32.23s.18-.23.32-.23h.65a.46.46,0,0,0,.47-.48V7.89Z"/><path class="cls-6" d="M12.57,11.28c-.17,0-.33-.13-.33-.25V10.4c.14.11.81.5.65.63a.28.28,0,0,1-.33,0v.25Z"/><path d="M12.58,11.3h0c-.18,0-.35-.13-.35-.27V10.4a.42.42,0,0,1,.16.09c.27.18.54.37.54.49a.09.09,0,0,1,0,.07.32.32,0,0,1-.33,0,1.2,1.2,0,0,1,0,.23v0Zm-.35-.88,0,.62c0,.11.14.22.29.23V11s.1,0,.18,0a.23.23,0,0,0,.15-.05s0,0,0,0-.33-.34-.53-.47l-.14-.09Z"/><path class="cls-6" d="M12.56,11c.16-.13.16.12.33,0l-.17.75c-.15,0-.16,0-.25-.12s0-.53.09-.62Z"/><path class="cls-6" d="M16.8,11.28c.17,0,.33-.13.33-.25V10.4c-.14.11-.81.5-.65.63a.27.27,0,0,0,.32,0v.25Z"/><path d="M16.8,11.3l0,0c0-.12,0-.2,0-.23a.28.28,0,0,1-.32,0,.07.07,0,0,1,0-.07c0-.12.27-.31.54-.49l.14-.1,0,.64c0,.13-.17.27-.34.27Zm0-.28a.86.86,0,0,1,0,.25c.15,0,.29-.12.29-.23V10.4s-.05.07-.11.11-.53.36-.53.47a0,0,0,0,0,0,0,.3.3,0,0,0,.3,0Z"/><path class="cls-6" d="M16.78,11c-.16-.13-.16.12-.33,0l.17.75c.16,0,.16,0,.25-.12s0-.53-.09-.62Z"/><path class="cls-6" d="M15.32,12.16c0-.13-.32-.38-.32-.5s.32.13,1,.13,1-.63.81-.75a1.08,1.08,0,0,1,.16.63c0,.25-.32.5-1,.5Z"/><path d="M16,12.18h-.65a.7.7,0,0,0-.17-.25c-.08-.1-.17-.2-.17-.27s0-.06.21,0a2.6,2.6,0,0,0,.78.12.89.89,0,0,0,.7-.33.49.49,0,0,0,.13-.34l0-.05a0,0,0,0,1,.07,0h0a.92.92,0,0,1,.16.56c0,.25-.31.52-1,.52ZM15,11.64c0,.07.06.16.13.26s.17.19.17.26l.63,0c.66,0,1-.25,1-.49a1.14,1.14,0,0,0-.12-.55.38.38,0,0,1-.11.34.94.94,0,0,1-.73.35,2.6,2.6,0,0,1-.79-.12l-.15,0Z"/><path class="cls-6" d="M14,12.16c0-.13.32-.38.32-.5s-.32.13-1,.13-1-.63-.81-.75a1.08,1.08,0,0,0-.16.63c0,.25.32.5,1,.5Z"/><path d="M14,12.18h-.66c-.68,0-1-.27-1-.52a1.13,1.13,0,0,1,.13-.57.12.12,0,0,1,0-.07.09.09,0,0,1,0,.08h0a.76.76,0,0,0,.16.34.9.9,0,0,0,.7.33,2.58,2.58,0,0,0,.78-.12c.17-.05.21,0,.21,0s-.08.16-.16.26-.16.18-.16.24v0Zm-1.53-1.09a1.57,1.57,0,0,0-.09.57c0,.24.3.49,1,.49H14a.68.68,0,0,1,.16-.25c.08-.09.16-.18.16-.24a.29.29,0,0,0-.18,0,2.59,2.59,0,0,1-.78.13.93.93,0,0,1-.73-.35.49.49,0,0,1-.14-.37Z"/><path class="cls-6" d="M14,12c0-.12.32-.25.32-.37v.63H14Z"/><path class="cls-6" d="M15.32,12c0-.12-.32-.25-.32-.37v.63h.32Z"/><path class="cls-6" d="M14,12a2.22,2.22,0,0,0,1.3,0v.5a2.29,2.29,0,0,1-1.3,0Z"/><path d="M14.67,12.65c-.16,0-.66,0-.66-.11V12a1.65,1.65,0,0,0,.66.08c.41,0,.63,0,.63-.08v0l0,.48c0,.1-.51.11-.67.11ZM14,12l0,.5s.23.08.63.08.63,0,.63-.08v-.48c0,.09-.49.1-.63.1S14,12.14,14,12Z"/><path d="M14.67,12.15a3.54,3.54,0,0,1-.45,0C14,12.1,14,12.06,14,12s.08-.13.17-.2.16-.12.16-.18-.09,0-.18,0a2.72,2.72,0,0,1-.78.13.91.91,0,0,1-.85-.55c0-.11,0-.19,0-.23a.12.12,0,0,1,.18,0,.09.09,0,0,0,.14,0l0,0a.13.13,0,0,1-.18,0s-.07-.05-.14,0,0,.1,0,.2a.86.86,0,0,0,.82.53,2.55,2.55,0,0,0,.77-.12c.11,0,.17-.05.2,0h0v0c0,.07-.08.14-.17.2S14,12,14,12s.23.08.63.08.63,0,.63-.08-.08-.11-.16-.18-.17-.12-.17-.2l0,0s.09,0,.2,0a2.6,2.6,0,0,0,.78.12.86.86,0,0,0,.81-.53c0-.09,0-.16,0-.2s-.1,0-.14,0a.13.13,0,0,1-.18,0,.14.14,0,0,0,.16,0,.12.12,0,0,1,.18,0c.05,0,.06.13,0,.23a.91.91,0,0,1-.85.55,2.73,2.73,0,0,1-.79-.12c-.08,0-.15,0-.17,0s.08.13.15.19.17.13.17.2-.51.12-.66.12Z"/><polygon points="16.67 11.95 16.51 11.67 16.54 11.66 16.7 11.94 16.67 11.95"/><path d="M16.57,11.89h0a.12.12,0,0,1,0,.08.06.06,0,0,1,0,0h-.07l-.06,0a.23.23,0,0,1-.05-.07.25.25,0,0,1,0-.08.11.11,0,0,1,0-.07l0,0h.07l.06.05,0,0,0,0h0a0,0,0,0,0,0,0,.07.07,0,0,0,0,.05l0,.06a.28.28,0,0,0,0,.06l0,0h0a0,0,0,0,0,0,0,.08.08,0,0,0,0-.06Z"/><polygon points="16.36 12.08 16.26 11.78 16.29 11.77 16.4 12.07 16.36 12.08"/><polygon points="16.16 12.11 16.13 11.84 16.05 11.84 16.05 11.81 16.24 11.8 16.24 11.83 16.16 11.84 16.19 12.11 16.16 12.11"/><path d="M15.85,12h0a.14.14,0,0,0,0,0l0,0H16l0,0v0a0,0,0,0,0,0,0l0,0,0,0,0,0,0,0a.09.09,0,0,1,0,0,.07.07,0,0,1,0,0l0,0H16l0,0a.16.16,0,0,1,0,.05h0a.1.1,0,0,0,0,0H15.9a0,0,0,0,0,0,0,0,0,0,0,0,0,0l0,0L16,12l0,0a.06.06,0,0,1,0,0,.1.1,0,0,1,0,0l0,0h-.11l0,0a.11.11,0,0,1,0-.06Z"/><path d="M15.76,11.81h0V12a.46.46,0,0,1,0,.07.08.08,0,0,1,0,0l-.06,0a.07.07,0,0,1-.05,0,.06.06,0,0,1,0,0,.24.24,0,0,1,0-.08v-.18h0V12a.54.54,0,0,0,0,.06l0,0,0,0a.06.06,0,0,0,.05,0,.13.13,0,0,0,0-.07Z"/><path d="M15.36,12h0a.09.09,0,0,0,0,.05l0,0h0v0a.29.29,0,0,0,0,0V11.8h0V12a.18.18,0,0,1,0,.06,0,0,0,0,1,0,0h0l0,0a.15.15,0,0,1,0-.07Z"/><path d="M14.8,12.54v0l.13-.23a.1.1,0,0,1,0,0h-.14v0H15v0l-.14.24,0,0H15v0Z"/><polygon points="13.02 12.11 13.1 11.77 13.13 11.77 13.05 12.12 13.02 12.11"/><polygon points="12.67 11.97 12.87 11.67 12.9 11.68 12.86 11.97 13.01 11.73 13.04 11.74 12.84 12.05 12.81 12.04 12.85 11.75 12.7 11.99 12.67 11.97"/><path d="M12.84,11.63l0,0-.17.14-.08.05-.07,0-.05,0a.07.07,0,0,1,0,0,.08.08,0,0,1,0-.05l.07-.07.17-.15,0,0-.17.14-.05.05a.07.07,0,0,0,0,0,0,0,0,0,0,0,0,.06.06,0,0,0,.06,0l.09-.05Z"/><path d="M13.19,12.14v-.35h.13l0,0a.18.18,0,0,1,0,.06.28.28,0,0,1,0,.08.25.25,0,0,1,0,.07.16.16,0,0,1,0,.05l0,0,0,0h-.13Zm0,0h.09l0,0a.13.13,0,0,0,0,0,.35.35,0,0,0,0-.07.18.18,0,0,0,0-.08l0,0h-.09Z"/><path d="M13.42,12.14l.09-.36h0l.1.36h0l0-.11h-.1l0,.11Zm.07-.15h.09l0-.1,0-.07a.41.41,0,0,1,0,.07Z"/><path d="M13.67,12.14v-.36h.13l0,0a.12.12,0,0,1,0,.06.36.36,0,0,1,0,.08.19.19,0,0,1,0,.07.23.23,0,0,1,0,.05l0,0,0,0h-.12Zm0,0h.09l0,0,0,0a.35.35,0,0,0,0-.07.22.22,0,0,0,0-.08.06.06,0,0,0,0,0h-.1Z"/><path d="M14.37,12.54v-.35h.16l0,0a.17.17,0,0,1,0,0,.12.12,0,0,1,0,.07.08.08,0,0,1-.07,0H14.4v.14Zm0-.18h.06l0,0a.09.09,0,0,0,0-.05.07.07,0,0,0,0,0l0,0H14.4Z"/><path d="M14.57,12.54l.09-.35h0l.1.35h0l0-.11h-.1l0,.11Zm.07-.14h.08l0-.09,0-.08v.07Z"/><path d="M16.75,11.92l-.17-.3,0,0,.31.21,0,0-.09-.07-.08,0,0,.09Zm0-.14.06,0-.08-.06-.06,0,0,.06Z"/><path class="cls-7" d="M14.65,9.56a3.44,3.44,0,0,1-.21,1.62c0,.06,0,.09.09.11s.08-.06.08-.07,0,.11.07.09.11-.09.11-.09,0,.12.09.12.06-.15.06-.15,0,.13.1.13.13,0,.09-.13a3.65,3.65,0,0,1-.32-1.63.39.39,0,0,1,.31-.3l-.06-.09a.35.35,0,0,0-.17.09.72.72,0,0,0-.13.14V8.93h-.13v.41l-.11-.11a.34.34,0,0,0-.25,0v.09c.08,0,.19,0,.25.06s.13.13.13.21Z"/><path d="M14.87,11.36c-.06,0-.09-.07-.1-.11a.15.15,0,0,1-.09.09c-.05,0-.07,0-.08-.07a.06.06,0,0,1-.06,0h0a.15.15,0,0,1-.12-.06.07.07,0,0,1,0-.07,3.29,3.29,0,0,0,.22-1.49c0-.05,0-.09,0-.12a.27.27,0,0,0-.11-.19.18.18,0,0,0-.16-.06h-.09V9.2a.23.23,0,0,1,.28,0l.12.11,0-.4.15,0,0,.43a.59.59,0,0,1,.1-.11A.41.41,0,0,1,15,9.15l.09.1a.44.44,0,0,0-.31.31,3.36,3.36,0,0,0,.32,1.62.08.08,0,0,1,0,.1.14.14,0,0,1-.11.06s-.08,0-.1-.09,0,.11-.07.11Zm-.11-.14s.06.11.11.11,0-.09,0-.13.08.11.12.11a.09.09,0,0,0,.08,0,.06.06,0,0,0,0-.07,3.48,3.48,0,0,1-.32-1.62.4.4,0,0,1,.33-.34L15,9.17a1,1,0,0,0-.14.09.62.62,0,0,0-.12.13h0s0,0,0,0l0-.43-.12,0,0,.39s-.07,0-.14-.1a.28.28,0,0,0-.24,0v.07h.07a.19.19,0,0,1,.18.06c.07.07.13.13.13.22s0,.07,0,.12a3.34,3.34,0,0,1-.22,1.51.09.09,0,0,0,.08.09.06.06,0,0,0,.06-.05c.05.07.07.08.08.08a.19.19,0,0,0,.1-.09Z"/><path class="cls-8" d="M13.69,9h0s0,0,0,0l0,0h.08s0,0,0,0,0,0,0,0,0,0,.07,0h.09l0-.06s0,0,0-.07,0,0,.08,0,0,0,0,0a.15.15,0,0,1,0-.07s0,0,.05,0,0,0,0-.05,0,0,0,0l0,0s0,0,0,0,0,0,0,0l.05,0,0-.05.15,0,.06-.05.08,0a.14.14,0,0,0,.08,0,.06.06,0,0,1,.06,0s0,0,.05,0,0,0,.05,0a.11.11,0,0,1,.07,0s0,0,0,0,0,0,0,0l.05,0a.06.06,0,0,0,.06,0s0,0,0,0,0,0,0,0,0,0,.06,0,0,0,0,0,0,0,0,0a0,0,0,0,1,0,0,.07.07,0,0,1,0,0s0,0,0,.05l.07,0,.08,0h.08s0,0,0,.05l.06,0s0,0,.06,0l0,.05,0,.06V9s0,0,0,.07,0,0,0,0l0,.05,0,.06s0,0,0,.07l-.06,0s0,0,0,.05,0,0,0,0h-.14a.14.14,0,0,0-.09,0l-.06,0h-.08a.09.09,0,0,0-.07,0h-.08s0,0,0,0l-.06,0h-.14l0,0s0,0-.06,0l-.07,0a.09.09,0,0,1-.05,0s0,0,0,0,0,0-.07,0h-.07l-.07,0-.08,0s0,0-.05,0l-.07,0s0,0,0,0a.31.31,0,0,0,0,.06s0,0,0,.05,0,0-.06,0h-.06l-.08,0a.1.1,0,0,1-.06,0l.06,0a.1.1,0,0,1-.06,0s0,0-.09,0-.06,0-.06,0,0,0,0,0l-.06,0s0,0,0,0l-.06,0,0,0,0,0,0,0a.12.12,0,0,1,0-.07s0,0,0-.05,0,0,.07,0,0,0,0,0,0,0,0,0Z"/><path d="M14.13,9.4H14l0,0,0,0-.08,0h0a.12.12,0,0,1-.08.06l-.06,0,0,0,0,0-.11-.09a.13.13,0,0,1,0-.07s0-.05,0-.06h.05l0-.05.1,0a.07.07,0,0,1,0-.05h0l.16,0,0,0H14s0,0,0,0,0,0,0-.05v0l0,0,.06,0a.29.29,0,0,1,0-.09,0,0,0,0,1,0,0h0l0-.05,0,0,0-.05.06,0h0a.06.06,0,0,1,0,0h0l0-.06h.16a.11.11,0,0,1,.05,0l.09,0,.06,0,.06,0h.05a.08.08,0,0,1,0,0l0,0v0a.09.09,0,0,1,.07,0c.05,0,.06,0,.06,0l.08,0s0,0,.05,0h0l.06-.06a.11.11,0,0,1,.08,0s.05,0,0,.06l0,0s0,0,0,.05v0l.06,0,.07,0h.09l0,.06h0l0,0h0l.05,0,0,.05,0,.07,0,.18,0,.05,0,0h0v.07a.14.14,0,0,1-.07.05s0,0,0,0v0h-.14l-.07,0h-.21a.09.09,0,0,0-.07,0h-.05c-.07,0-.08,0-.09,0l0,0v0H15l-.06,0,0,0s-.05,0-.06,0l-.06,0s0,0-.06-.06h-.16l-.07,0-.07,0h0l0,0-.08,0-.05,0h0a.14.14,0,0,0,0,.05.07.07,0,0,1,0,.07l0,0,0,0ZM14,9.34l.08,0,0,0,0,0,.06,0h0s0,0,0,0a.18.18,0,0,1,0-.05s0,0,0-.05l.09,0,0,0,.09,0,.08,0h.07s0,0,.06,0h0l0,0a.1.1,0,0,0,0,.07l0,0,.05,0a.14.14,0,0,1,.08,0h.18l.06.05h.08s.06,0,.08,0h.07l.06,0h.23l.06-.05s.05,0,.06,0V9.2s0,0,0-.06a.14.14,0,0,0,0-.05l0,0v-.2h0l0,0-.05,0-.1-.07-.05,0a.2.2,0,0,1-.12,0h0s0-.07,0-.09l0,0,0,0-.05,0s-.05,0-.07,0,0,0,0,0,0,0,0,0-.06,0-.07,0l-.05,0h0l-.07-.06H15s0,0-.06,0l0,0h-.24l0,0H14.5l-.05.05h0l-.08,0a.07.07,0,0,1,0,0l-.05.05s0,0,0,0h0v0l-.06,0h0v.06l0,.05h0a0,0,0,0,0,0,0,.35.35,0,0,1,0,.07h-.16s0,0-.06,0h-.08s-.06,0-.06,0h0l-.08,0s0,0,0,0l0,0h-.05l-.05,0a.08.08,0,0,0,0,.07l0,0h0l0,.05h0l0,0h0l0,0,.05,0s0,0,.08-.05a.13.13,0,0,1,.07,0l.08,0h0Z"/><path class="cls-9" d="M14.43,8.69h-.07s0,0,0,0h0l-.07,0,0,0,.06,0s.05,0,.06.05h0l.05,0h-.05v0Z"/><path class="cls-9" d="M14.15,9h-.08v0h.1l0,0a.13.13,0,0,1,.09,0l.08,0h-.14l-.05,0Z"/><path class="cls-9" d="M14.33,8.86l0,0,0,0,.06,0h.05l0,0h0l0,0-.07,0,0,0Z"/><path class="cls-9" d="M14.91,9h0l-.08,0,0,0-.08-.07a.44.44,0,0,1,0-.09l0,0h0l0,.09.05,0,.06,0,.07,0h0l0,0,0,0Z"/><path class="cls-9" d="M14.8,8.67l0-.07.05,0h0a.09.09,0,0,1,.06-.06l0,0,0,0v0a.29.29,0,0,1,0,.09.07.07,0,0,0-.05.05l0,.06a.13.13,0,0,1-.07,0Z"/><path class="cls-9" d="M15.25,8.76h0l0,0h0a.16.16,0,0,1,0-.08.19.19,0,0,1,0-.08l0,0v0a.22.22,0,0,0,0,.09.17.17,0,0,0,0,.07l0,0h0Z"/><path class="cls-9" d="M15.57,8.85h-.08l.06,0h.07l0,0,.06,0h0l0,0,0,0-.06.05Z"/><path class="cls-9" d="M15.73,9.23h0l-.07,0a.11.11,0,0,1,.07,0,.12.12,0,0,0,.08,0h0v0l-.08,0Z"/><path class="cls-9" d="M15.57,9.38h0l-.07,0s-.05-.05-.06-.09,0-.06,0-.08l0,.05a.12.12,0,0,0,0,.08l.06,0,0,0Z"/><path class="cls-9" d="M15.11,9.3v0h.09l0,0a.11.11,0,0,0,0-.07s0,0,0,.06l0,0,0,0Z"/><path class="cls-1" d="M14.71,9.11l0-.08s0,0,0-.07Z"/><path class="cls-9" d="M13.86,9.31h0v0h0l.09,0,0,0,0,0,0,0v.05a.21.21,0,0,1,0,.05l-.06,0-.08,0Z"/><path class="cls-1" d="M14.26,9.21h-.1l0,0h0Z"/><path class="cls-9" d="M14.35,9.05V9h0l.06,0,0,0h.05l0,0,0,0-.06,0Z"/><path class="cls-9" d="M13.59,9.28h0v0l.09,0,.09-.05s0,.05,0,.07l-.11,0Z"/><path class="cls-9" d="M15.5,9.05l-.06,0-.07,0h0l-.1,0,0,0,0,0,.09,0,.08,0,.07,0h.06l.06,0s0,0-.05.06Z"/><path d="M14.63,11.21a.17.17,0,0,1,0-.08.43.43,0,0,0,0-.12.1.1,0,0,1,0-.07.69.69,0,0,1,.05-.11.53.53,0,0,0,0-.09v-.08a1.91,1.91,0,0,0,0-.16v0a.17.17,0,0,0,0-.09.41.41,0,0,0,0-.12v-.13h0v.13a.4.4,0,0,1,0,.13.2.2,0,0,1,0,.11c0,.05,0,.08,0,.11a.4.4,0,0,0,0,.08v0c0,.07,0,.1,0,.13l-.06.1s0,.05,0,.06a.31.31,0,0,1,0,.1.51.51,0,0,1,0,.11Z"/><path d="M14.8,11.19s0,0,0,0l0,0a.17.17,0,0,1,0-.05.31.31,0,0,1,0-.12l0-.12a.17.17,0,0,0,0-.11s0-.08,0-.12V10.4l0-.09,0,0h0l0,0a.79.79,0,0,1,0,.1v.19a.76.76,0,0,0,0,.12.18.18,0,0,1,0,.12l0,.11a.32.32,0,0,0,0,.1.13.13,0,0,0,0,.06l0,.05a.1.1,0,0,0,0,0Z"/><path d="M14.94,11.18l0,0a.09.09,0,0,0,0,0l0,0s0,0,0,0l0,0a.21.21,0,0,1,0-.12.1.1,0,0,0,0-.08s0,0,0-.05a.32.32,0,0,1,0-.07.33.33,0,0,1,0-.11h0a.6.6,0,0,0,0,.11.51.51,0,0,1,0,.07v.06s0,.07,0,.09a.22.22,0,0,0,0,.09s0,0,0,0l0,0,0,0a.14.14,0,0,1,0,.06l0,0Z"/><polygon class="cls-10" points="15.06 7.55 14.96 7.4 14.77 7.4 14.86 7.25 14.77 7.1 14.96 7.09 15.06 6.95 15.16 7.09 15.34 7.1 15.25 7.25 15.34 7.4 15.16 7.4 15.06 7.55"/><path d="M15.06,7.57l-.11-.16h-.17l.07-.18-.09-.13.2,0L15,6.94l.13.15h.17l-.07.18.09.13-.2,0-.1.16ZM15,7.38l.1.14.08-.12.2,0-.1-.12.09-.17-.17,0L15,7,15,7.11h-.2l.1.12-.09.17.17,0Z"/><polygon class="cls-10" points="14.3 7.55 14.2 7.4 14.01 7.4 14.1 7.25 14.01 7.1 14.2 7.09 14.3 6.95 14.4 7.09 14.58 7.1 14.49 7.25 14.58 7.4 14.4 7.4 14.3 7.55"/><path d="M14.3,7.57l-.12-.16H14l.07-.18L14,7.11l.2,0,.09-.14.13.15h.17l-.07.18.09.13-.2,0-.1.16Zm-.1-.19.1.14.08-.12.2,0-.1-.12.09-.17-.17,0L14.29,7l-.07.15H14l.1.12L14,7.41l.17,0Z"/><polygon class="cls-10" points="13.64 7.68 13.53 7.55 13.34 7.56 13.4 7.4 13.3 7.27 13.48 7.23 13.56 7.08 13.68 7.21 13.86 7.2 13.79 7.36 13.9 7.5 13.72 7.52 13.64 7.68"/><path d="M13.65,7.71l-.14-.15-.17,0,0-.18-.11-.12.2-.05.06-.14.14.13.17,0-.05.18.11.12-.19.05-.08.17Zm-.12-.18.12.12.06-.13.2,0-.12-.11.06-.17-.17,0-.13-.13-.05.15-.2,0,.12.11-.06.18.17,0Z"/><polygon class="cls-10" points="15.78 7.66 15.89 7.53 16.08 7.54 16.01 7.38 16.12 7.25 15.94 7.21 15.86 7.06 15.74 7.2 15.56 7.18 15.62 7.34 15.52 7.47 15.7 7.5 15.78 7.66"/><path d="M15.77,7.68l-.09-.17-.17,0,.1-.16-.07-.14h.2l.11-.12.1.16.17,0-.1.17.07.14h-.2l-.12.14Zm-.21-.49.08.14-.11.15h.17l.08.14.11-.11h.2L16,7.39l.11-.16h-.17l-.09-.16-.09.14Z"/><polygon class="cls-10" points="16.39 7.95 16.53 7.84 16.71 7.89 16.68 7.72 16.82 7.61 16.64 7.54 16.61 7.38 16.46 7.48 16.28 7.43 16.31 7.6 16.17 7.72 16.35 7.78 16.39 7.95"/><path d="M16.38,8l0-.19-.16-.05.13-.14,0-.15.2,0,.13-.1.06.18.16,0-.13.14,0,.15-.2,0L16.38,8Zm-.1-.52,0,.15-.14.13.17,0,0,.15.13-.1.19.05-.05-.15.14-.13-.17,0-.05-.18-.12.12-.19,0Z"/><polygon class="cls-10" points="13.01 7.91 12.87 7.8 12.69 7.85 12.71 7.68 12.58 7.57 12.75 7.51 12.79 7.34 12.94 7.45 13.12 7.39 13.09 7.57 13.22 7.68 13.05 7.74 13.01 7.91"/><path d="M13,7.93l-.17-.12-.16.05V7.68l-.13-.1.18-.09,0-.16.17.09.16-.05v.19l.13.1-.18.09,0,.18Zm-.16-.15.14.09,0-.14.19-.07-.14-.09,0-.18-.16.07-.16-.11v.16l-.19.07.14.09,0,.18.16-.07Z"/><polygon class="cls-11" points="0 0 0 19.57 9.79 9.79 0 0"/></g></g></g></g></g></svg>