<?xml version="1.0" encoding="utf-8"?>
<!-- Generator: Adobe Illustrator 21.0.0, SVG Export Plug-In . SVG Version: 6.00 Build 0)  -->
<svg version="1.1" id="Layer_1" xmlns="http://www.w3.org/2000/svg" xmlns:xlink="http://www.w3.org/1999/xlink" x="0px" y="0px"
	 viewBox="0 0 200 200" style="enable-background:new 0 0 200 200;" xml:space="preserve">
<style type="text/css">
	.st0{clip-path:url(#SVGID_2_);}
	.st1{fill:#FBBC05;}
	.st2{clip-path:url(#SVGID_4_);}
	.st3{fill:#EA4335;}
	.st4{clip-path:url(#SVGID_6_);}
	.st5{fill:#34A853;}
	.st6{clip-path:url(#SVGID_8_);}
	.st7{fill:#4285F4;}
</style>
<title>GOOG</title>
<g>
	<g>
		<defs>
			<path id="SVGID_1_" d="M197.8,81.8h-95.4v38.7h54.9c-5.1,24.5-26.5,38.7-54.9,38.7c-33.4,0.5-60.8-25.7-61.2-58.4
				c-0.4-32.7,26.3-59.5,59.7-59.9c0.6,0,1,0,1.6,0c13.8,0,27.1,4.7,37.6,13.2l29.7-29.2C127.4-11.6,62.9-7.5,25.5,34
				s-33.1,104.7,9.2,141.1c18.7,16.1,42.8,24.9,67.7,24.9c51.1,0,97.6-36.4,97.6-100.1C199.9,93.8,199.2,87.8,197.8,81.8z"/>
		</defs>
		<clipPath id="SVGID_2_">
			<use xlink:href="#SVGID_1_"  style="overflow:visible;"/>
		</clipPath>
		<g class="st0">
			<path class="st1" d="M-9.1,159.2V40.8l79,59.1L-9.1,159.2z"/>
		</g>
	</g>
</g>
<g>
	<g>
		<defs>
			<path id="SVGID_3_" d="M197.8,81.8h-95.4v38.7h54.9c-5.1,24.5-26.5,38.7-54.9,38.7c-33.4,0.5-60.8-25.7-61.2-58.4
				c-0.4-32.7,26.3-59.5,59.7-59.9c0.6,0,1,0,1.6,0c13.8,0,27.1,4.7,37.6,13.2l29.7-29.2C127.4-11.6,62.9-7.5,25.5,34
				s-33.1,104.7,9.2,141.1c18.7,16.1,42.8,24.9,67.7,24.9c51.1,0,97.6-36.4,97.6-100.1C199.9,93.8,199.2,87.8,197.8,81.8z"/>
		</defs>
		<clipPath id="SVGID_4_">
			<use xlink:href="#SVGID_3_"  style="overflow:visible;"/>
		</clipPath>
		<g class="st2">
			<path class="st3" d="M-9.1,40.8l79,59.1l32.6-27.7L214,54.4V-9.1H-9.1V40.8z"/>
		</g>
	</g>
</g>
<g>
	<g>
		<defs>
			<path id="SVGID_5_" d="M197.8,81.8h-95.4v38.7h54.9c-5.1,24.5-26.5,38.7-54.9,38.7c-33.4,0.5-60.8-25.7-61.2-58.4
				c-0.4-32.7,26.3-59.5,59.7-59.9c0.6,0,1,0,1.6,0c13.8,0,27.1,4.7,37.6,13.2l29.7-29.2C127.4-11.6,62.9-7.5,25.5,34
				s-33.1,104.7,9.2,141.1c18.7,16.1,42.8,24.9,67.7,24.9c51.1,0,97.6-36.4,97.6-100.1C199.9,93.8,199.2,87.8,197.8,81.8z"/>
		</defs>
		<clipPath id="SVGID_6_">
			<use xlink:href="#SVGID_5_"  style="overflow:visible;"/>
		</clipPath>
		<g class="st4">
			<path class="st5" d="M-9.1,159.2L130.3,54.5l36.8,4.6l47-68.2v218.3H-9.1V159.2z"/>
		</g>
	</g>
</g>
<g>
	<g>
		<defs>
			<path id="SVGID_7_" d="M197.8,81.8h-95.4v38.7h54.9c-5.1,24.5-26.5,38.7-54.9,38.7c-33.4,0.5-60.8-25.7-61.2-58.4
				c-0.4-32.7,26.3-59.5,59.7-59.9c0.6,0,1,0,1.6,0c13.8,0,27.1,4.7,37.6,13.2l29.7-29.2C127.4-11.6,62.9-7.5,25.5,34
				s-33.1,104.7,9.2,141.1c18.7,16.1,42.8,24.9,67.7,24.9c51.1,0,97.6-36.4,97.6-100.1C199.9,93.8,199.2,87.8,197.8,81.8z"/>
		</defs>
		<clipPath id="SVGID_8_">
			<use xlink:href="#SVGID_7_"  style="overflow:visible;"/>
		</clipPath>
		<g class="st6">
			<path class="st7" d="M213.9,209.1L69.9,99.9L51.2,86.4l162.7-45.5V209.1z"/>
		</g>
	</g>
</g>
</svg>
