<svg xmlns="http://www.w3.org/2000/svg" xmlns:xlink="http://www.w3.org/1999/xlink" viewBox="0 0 33.56 19.58"><defs><style>.cls-1{fill:none;}.cls-2{clip-path:url(#clip-path);}.cls-3{fill:#bc0030;}.cls-4{fill:#347b5e;}.cls-5{fill:#f3d02f;}</style><clipPath id="clip-path"><rect class="cls-1" width="33.56" height="19.58"/></clipPath></defs><title>GRD</title><g id="Layer_2" data-name="Layer 2"><g id="_4" data-name="4"><g id="GRENADA"><g class="cls-2"><rect class="cls-3" width="33.56" height="19.58"/><rect class="cls-4" x="3.21" y="2.74" width="27.15" height="14.1"/><polygon class="cls-5" points="3.21 16.84 16.78 9.79 30.35 16.84 3.21 16.84"/><polygon class="cls-5" points="3.21 2.74 16.78 9.79 30.35 2.74 3.21 2.74"/><g class="cls-2"><path class="cls-3" d="M19.13,9.79a2.35,2.35,0,1,0-2.35,2.35,2.35,2.35,0,0,0,2.35-2.35"/><polygon class="cls-5" points="14.73 9.12 16.3 9.12 16.78 7.64 17.26 9.12 18.83 9.12 17.57 10.04 18.05 11.53 16.78 10.61 15.51 11.53 16 10.04 14.73 9.12"/><polygon class="cls-5" points="9.04 0.98 9.97 0.98 10.26 0.1 10.54 0.98 11.46 0.98 10.72 1.52 11 2.4 10.26 1.86 9.51 2.4 9.79 1.52 9.04 0.98"/><polygon class="cls-5" points="15.57 0.98 16.49 0.98 16.78 0.1 17.07 0.98 17.99 0.98 17.24 1.52 17.53 2.4 16.78 1.86 16.03 2.4 16.32 1.52 15.57 0.98"/><polygon class="cls-5" points="22.1 0.98 23.02 0.98 23.31 0.1 23.59 0.98 24.52 0.98 23.77 1.52 24.05 2.4 23.31 1.86 22.56 2.4 22.84 1.52 22.1 0.98"/><polygon class="cls-5" points="9.04 17.82 9.97 17.82 10.26 16.93 10.54 17.82 11.46 17.82 10.72 18.36 11 19.24 10.26 18.69 9.51 19.24 9.79 18.36 9.04 17.82"/><polygon class="cls-5" points="15.57 17.82 16.49 17.82 16.78 16.93 17.07 17.82 17.99 17.82 17.24 18.36 17.53 19.24 16.78 18.69 16.03 19.24 16.32 18.36 15.57 17.82"/><polygon class="cls-5" points="22.1 17.82 23.02 17.82 23.31 16.93 23.59 17.82 24.52 17.82 23.77 18.36 24.05 19.24 23.31 18.69 22.56 19.24 22.84 18.36 22.1 17.82"/><path class="cls-3" d="M4.89,9.82a3.26,3.26,0,0,0,1.37,1.35,4.61,4.61,0,0,0-.46-1.84Z"/><path class="cls-5" d="M4.39,7.94c.42.89-1.11,3,1.45,3.5a2.56,2.56,0,0,1-.44-1.71A2.87,2.87,0,0,1,6.72,11C7.38,8.57,5,8.71,4.39,7.94"/></g></g></g></g></g></svg>