<?xml version="1.0" encoding="utf-8"?>
<!-- Generator: Adobe Illustrator 21.0.0, SVG Export Plug-In . SVG Version: 6.00 Build 0)  -->
<svg version="1.1" id="Layer_1" xmlns="http://www.w3.org/2000/svg" xmlns:xlink="http://www.w3.org/1999/xlink" x="0px" y="0px"
	 viewBox="0 0 200 200" style="enable-background:new 0 0 200 200;" xml:space="preserve">
<style type="text/css">
	.st0{fill:#64A8F0;}
	.st1{fill:#FFFFFF;}
</style>
<title>GS</title>
<g id="g8">
	<path id="path10" class="st0" d="M0,200h200V0H0V200z"/>
</g>
<g id="g12">
	<path id="path14" class="st1" d="M161.6,46.8H156V24.4h5.3v2.5c0.8-1.7,2.6-2.9,4.5-3c3.7-0.2,6.2,2,6.2,6.7v16.2h-5.8V30
		c0-2,0-3.7-1.3-4c-0.7-0.1-1.4,0-2,0.5c-0.8,0.8-1.2,1.8-1.2,3.5C161.6,30.3,161.6,46.8,161.6,46.8z"/>
</g>
<g id="g16">
	<path id="path18" class="st1" d="M65.2,26c-1.4-1.3-3.1-2-5-2c-1.9,0.1-3.6,0.8-5,2c-2.3,2-3.8,5.7-3.8,9.7c0,4.2,1.5,7.7,3.8,9.7
		c1.4,1.2,3.2,2,5,2c1.9,0,3.6-0.7,5-2c2.5-2,3.8-5.5,3.8-9.7C69,31.6,67.7,28,65.2,26z M63,35.6c0,4.2,0,7.5-0.7,9.2
		c-0.4,0.9-1.2,1.4-2.2,1.3c-0.9,0-1.7-0.5-2-1.3c-0.8-1.6-0.8-5-0.8-9.2c0-4,0-7.5,0.8-9.2c0.3-0.8,1.1-1.4,2-1.3
		c0.9-0.1,1.8,0.5,2.2,1.3C63.2,28.1,63,31.6,63,35.6z"/>
</g>
<g id="g20">
	<path id="path22" class="st1" d="M123.4,55.3v6h-1.2c-0.7-2.5-1.6-4.7-4.4-4.8c-1.6-0.3-3.1,0.8-3.3,2.4c0,0,0,0,0,0
		c-0.2,1.5,0.3,2.8,3.3,4.5c3.8,2.2,6.8,3.2,6.8,7.7c0,4.8-4.2,7.2-7.7,7.2h-6.7v-8.4h1.2c0.8,4.4,2.2,7,5.3,7.2
		c2,0,3.5-1.2,3.5-3.3s-1.3-3.5-4.5-5.3c-3.5-2.2-5.7-3.5-5.7-6.5c0-4,2.8-6.5,7.4-6.5C119.1,55.3,123.4,55.3,123.4,55.3z"/>
</g>
<g id="g24">
	<path id="path26" class="st1" d="M130.8,46.8V30.6c0-4.7-2.5-6.8-6.2-6.7c-2,0.1-3.8,1.4-4.7,3.2c-0.8-2.3-2.7-3.3-5.3-3.2
		c-1.9,0.1-3.7,1.3-4.5,3v-2.5h-5.2v22.4h5.7V30c0-1.6,0.2-2.7,1.2-3.5c0.5-0.5,1.2-0.6,1.8-0.5c1.3,0.3,1.3,2,1.3,4v16.9h5.7v-17
		c-0.1-1.2,0.3-2.4,1.2-3.3c0.5-0.5,1.2-0.6,1.8-0.5c1.3,0.3,1.5,2,1.5,4v16.9L130.8,46.8L130.8,46.8z"/>
</g>
<g id="g28">
	<path id="path30" class="st1" d="M72.9,19.8h5.8v27h-5.8V19.8z"/>
</g>
<g id="g32">
	<path id="path34" class="st1" d="M99.4,46.8v-27h-5.8v6.3c-0.6-1.3-1.9-2.1-3.3-2c-4.2,0-7.5,4.4-7.7,11c-0.2,4.5,1.3,12,7.2,12
		c1.8,0.1,3.4-0.9,4.2-2.5v2.2L99.4,46.8L99.4,46.8z M92.5,26.3c1.2,1.6,1.2,5.7,1.2,8.8c0,3.3,0.2,7.7-1.2,9.5
		c-0.4,0.6-1.1,1-1.8,1c-1.2,0-1.8-1.3-2.2-3.5c-0.2-2-0.2-4.5-0.2-7.2c0-4.5,0.3-9.5,2.5-9.5C91.5,25.4,92.2,25.7,92.5,26.3z"/>
</g>
<g id="g36">
	<path id="path38" class="st1" d="M148.1,25.1c1.5,0.8,2.5,2.2,2.5,5.2v16.5h-5.4v-2.5c-0.7,1.8-2.5,3-5,3c-2,0-5.5-1-5.5-6.2
		c0-4.8,3.2-5.8,6.7-7.4c3.2-1.3,3.5-1.5,3.5-2.8v-3.7c0-1.5-0.8-2.2-2.5-2.2c-0.7,0.2-1.8,0.5-1.8,1.3c-0.2,1,1,1,1.2,2.5
		c0.2,2.3-1.6,3.2-3.3,3c-1.4,0.1-2.6-1-2.7-2.5c0,0,0,0,0,0c-0.2-3,3.2-5.5,7.8-5.5C145.1,23.9,146.7,24.3,148.1,25.1z M144.8,33.5
		l-1.8,1.2c-1.8,1.2-2.2,2.7-2.3,4.4c-0.2,1.5-0.2,3,0,4.5c0.2,1.8,1.3,2.2,2.3,1.8c1.2-0.5,1.8-2.7,1.8-5V33.5z"/>
</g>
<g id="g40">
	<path id="path42" class="st1" d="M65.5,56.3c1.5,1,2.4,2.2,2.4,5.2v16.7h-5.3v-2.5c-0.7,1.6-2.5,2.8-5,2.8c-2.2,0-5.5-0.8-5.5-6
		c0-4.8,3.2-5.8,6.5-7.4s3.7-1.6,3.7-2.8v-3.7c0-1.6-0.8-2.3-2.5-2.2c-0.7,0-1.8,0.3-1.8,1.2c-0.2,1.2,1,1.2,1.1,2.7
		c0.2,2.2-1.6,3-3.3,3c-1.4-0.1-2.6-1.2-2.7-2.7c-0.2-2.8,3.2-5.3,7.8-5.3C62.4,55.2,64.1,55.6,65.5,56.3z M62.2,64.7l-1.8,1.2
		c-1.8,1.2-2.2,2.7-2.3,4.4c-0.2,1.5-0.2,3,0,4.5c0,2,1.2,2.3,2.2,1.8c1.3-0.5,2-2.5,2-5V64.7z"/>
</g>
<g id="g44">
	<path id="path46" class="st1" d="M105.9,62c0-4.7-2.5-7-6.2-6.7c-1.6,0.1-3.2,0.9-4.2,2.2V51h-5.7v15.3c0,5.7-4,11-8,10.9
		c-2.8,0-3.5-2.2-3.8-4.5c-0.5-3.8-0.5-7.6-0.2-11.4c0.3-2.7,1-4.8,3-4.8c1.5,0,1.6,1,1,1.6c-0.7,0.8-1.6,1.6-1.2,3.5
		c0.5,2,3.7,2.3,5.2,0.8c1-1.4,1.1-3.3,0.2-4.8c-1-1.6-2.7-2.3-5.2-2.3c-3.2,0-9.2,2.8-9.2,11.9c0,9.7,6.2,11.4,9.7,11.4
		c4,0,7.5-3.5,8.5-6.3v6h5.7V61.3c0-1.6,0.3-2.7,1.2-3.5c0.6-0.5,1.3-0.6,2-0.5c1.3,0.3,1.3,2,1.3,4v16.9h5.8L105.9,62z"/>
</g>
<g id="g48">
	<path id="path50" class="st1" d="M47.5,19.3v9.5h-1.2c-1-4.7-3.2-8.2-6.2-8.3c-2-0.2-3.2,1-4.2,2.7c-1,2-1.5,6.1-1.5,11.2
		c-0.1,3.6,0.1,7.2,0.7,10.7c0.3,1.2,1.2,3,3.3,3c0.9,0.1,1.9-0.3,2.5-1c0.8-1,1-3,1-4.4v-4.5c0-1.6-0.5-2.7-1.3-3.2
		c-0.7-0.2-1.4-0.4-2.2-0.5v-1.2h9.4v23.9h-1.2c-0.3-1.6-0.9-3.2-1.6-4.7c-0.9-1.9-2.8-3.1-4.8-3.2c-2.7-0.2-4.7,1.5-4.7,4
		c0,3.3,2,4.2,5.7,6.2c3.5,2,8,3.7,8,9.5c0,5.7-4.8,9.2-10.4,9.2h-8.9V66.6h1.2c1.5,8.7,5.2,10.2,7.7,10.2c3.2,0,4.7-2,4.7-4.8
		c-0.2-3.7-2.7-5-6.2-6.8c-5-2.8-7.4-4.2-7.4-8.8c0.2-4,3.3-6.5,6.8-7.5c-7.4-0.8-9.5-7.5-9.3-14.7c0-7.2,4.2-14.9,12.3-14.9
		L47.5,19.3z"/>
</g>
</svg>
