<?xml version="1.0" encoding="utf-8"?>
<!-- Generator: Adobe Illustrator 21.0.0, SVG Export Plug-In . SVG Version: 6.00 Build 0)  -->
<svg version="1.1" id="Layer_1" xmlns="http://www.w3.org/2000/svg" xmlns:xlink="http://www.w3.org/1999/xlink" x="0px" y="0px"
	 viewBox="0 0 200 200" style="enable-background:new 0 0 200 200;" xml:space="preserve">
<style type="text/css">
	.st0{clip-path:url(#SVGID_2_);}
	.st1{fill:url(#SVGID_3_);}
</style>
<title>GSK</title>
<g>
	<defs>
		<path id="SVGID_1_" d="M31.8,85c0,7.9,4.6,14.2,13.1,14.2C52.2,99.1,56,94,56,87c0-7.8-4.4-13.9-12.7-13.9
			C36.1,73.1,31.7,77.9,31.8,85 M103.3,110.4c0-5.7-6-8.4-12.6-11.6c-7.2-3.4-15-7.2-15-16c0-10.7,10.4-15.4,19.7-15.4
			c5,0,9.9,1.2,14.3,3.6v7.8c-4.1-3.3-9.2-5.1-14.5-5.2c-5.2,0-10.2,2-10.2,6.7c0,5.5,6.6,8.6,13.5,12.1c7.2,3.6,14.8,7.8,14.8,15.7
			c0,11.6-11.6,15.5-21.2,15.5c-5.8,0-11.6-1.2-16.9-3.4v-7.9c5.7,3.1,12.8,5,17.3,5C97.2,117.2,103.3,116.1,103.3,110.4 M121,108.3
			V60.5c0-7.8-0.5-11.2-2-13.3l11.9-3.1v46.2l15.7-14.7c2.1-2,4.1-4.1,5.9-6.4h13.6c-0.7,0.2-3.1,0.7-11.7,8.8l-14.6,13.8
			c0,0,8.8,10.4,17.1,19.5c6.4,6.9,11.2,9,14.2,9c0.6,0,1.2-0.1,1.7-0.3c-3.1,2-6.8,3.1-10.5,2.9c-5.3,0-9.8-2.9-15.4-9.5
			c-8.8-10.5-15.9-19-15.9-19v13.8c0,9.7,0.5,11.2,1.4,13.5h-12.8c1-2.8,1.5-3.9,1.5-13.5 M4.7,61.5c-3,6.6-4.6,13.8-4.6,21
			c0,10.5,1.6,20,6,30c7.6,16.9,21.2,26.5,39.8,26.5c5.2,0,9.8-0.5,12.8-1.5c2.9-1.2,5.9-3.5,5.9-7.6c-0.1-2.3-1.6-4.4-3.8-5.2
			c-2.4-0.9-4.5-1-10.9-1.4s-8.6-0.5-13.1-0.9c-7.1-0.7-10.7-5.3-10.7-9.8c0-4,2.8-7.4,7.9-9.8c-6.9-2.6-11.5-9.1-11.6-16.5
			c0-10.7,8.4-19,21.9-19c3.2,0.1,6.3,0.6,9.3,1.5c2.5,0.8,5.1,1.2,7.7,1.2c3.4,0.1,6.9-0.2,10.2-1V76c-3.4-0.4-6.8-0.7-10.2-0.7
			c2.8,3.2,4.3,7.3,4.3,11.6c0,9.7-7.6,17.8-21,17.8c-1.3,0-2.6-0.1-3.9-0.2c-1.3,0.3-2.6,0.8-3.6,1.7c-1.3,1-2.1,2.5-2.1,4.1
			c0,2.2,1.2,4,6.7,4.3l11.9,0.7c11.6,0.7,17.8,5.3,17.6,13.6c-0.3,9.5-7.9,16.4-26.2,16.4c-5.7-0.1-11.4-0.9-16.9-2.6
			c-4.2-1.3-8.1-3.4-11.6-6c15.5,26.5,43.1,49.5,75,49.5c15.5,0,28.8-5.5,41.2-14.7C162.4,149.3,200,99.8,200,61.4
			c0-28.8-20.9-41.6-47.1-45.7c-9.5-1.6-18.1-1.7-27.5-1.7C85.6,13.9,24.3,20.8,4.7,61.5"/>
	</defs>
	<clipPath id="SVGID_2_">
		<use xlink:href="#SVGID_1_"  style="overflow:visible;"/>
	</clipPath>
	<g class="st0">
		
			<radialGradient id="SVGID_3_" cx="-225.1172" cy="1533.9731" r="0.2041" gradientTransform="matrix(648.19 0 0 -648.19 146058.75 994362.9375)" gradientUnits="userSpaceOnUse">
			<stop  offset="0" style="stop-color:#FAA71A"/>
			<stop  offset="5.000000e-02" style="stop-color:#F99F1C"/>
			<stop  offset="0.26" style="stop-color:#F58120"/>
			<stop  offset="0.47" style="stop-color:#F26922"/>
			<stop  offset="0.66" style="stop-color:#F15523"/>
			<stop  offset="0.84" style="stop-color:#EF4723"/>
			<stop  offset="1" style="stop-color:#EF4223"/>
		</radialGradient>
		<path class="st1" d="M0,13.9h200v172.2H0V13.9z"/>
	</g>
</g>
</svg>
