<?xml version="1.0" encoding="utf-8"?>
<!-- Generator: Adobe Illustrator 21.0.0, SVG Export Plug-In . SVG Version: 6.00 Build 0)  -->
<svg version="1.1" id="Layer_1" xmlns="http://www.w3.org/2000/svg" xmlns:xlink="http://www.w3.org/1999/xlink" x="0px" y="0px"
	 viewBox="0 0 200 200" style="enable-background:new 0 0 200 200;" xml:space="preserve">
<style type="text/css">
	.st0{fill:#EE7125;}
	.st1{fill:#FFFFFF;}
</style>
<title>HD</title>
<path class="st0" d="M0,0h200v200H0V0z"/>
<path class="st1" d="M59.6,142.3l-3.8,3.8l-2.5-2.5l3.8-3.8l-9.7-9.8c-1.6-1.6-1.8-1.9-3.8-0.9c-0.7,0.4-1.5,0.3-2.1-0.2
	c-1.2-1.2,0.1-2.7,0.3-2.9l12-12.1c0.2-0.2,1.7-1.5,2.9-0.3c0.6,0.6,0.7,1.4,0.2,2.1c-1,2-0.7,2.2,0.9,3.8l22.5,22.5
	c1.6,1.6,1.8,1.9,3.8,0.9c0.7-0.4,1.5-0.3,2.1,0.2c1.2,1.2-0.1,2.8-0.3,2.9l-12.2,12.1c-0.2,0.2-1.7,1.5-2.9,0.3
	c-0.5-0.6-0.6-1.4-0.2-2.1c1-2,0.7-2.2-0.9-3.8L59.6,142.3z M59.4,172.6h-4.9v-0.1c1-2,0.7-2.2-0.9-3.8l-22.5-22.5
	c-1.6-1.6-1.8-1.9-3.8-0.9h-0.1v-5L37.5,130c0.2-0.2,1.7-1.5,2.9-0.3c0.6,0.6,0.7,1.4,0.2,2.1c-1,2-0.7,2.2,0.9,3.8L64,158.1
	c1.6,1.6,1.8,1.9,3.8,0.9c0.7-0.4,1.5-0.3,2.1,0.2c1.2,1.2-0.1,2.8-0.3,2.9L59.4,172.6L59.4,172.6z M121.2,46.5l11.3-11.3l32.2,32.1
	l-11.3,11.4c-0.2,0.2-1.7,1.5-2.9,0.3c-0.5-0.6-0.6-1.4-0.2-2.1c1-2,0.7-2.2-0.9-3.8l-22.6-22.6c-1.6-1.6-1.8-1.9-3.8-0.9
	c-0.7,0.4-1.5,0.3-2.1-0.2C119.7,48.1,121.1,46.6,121.2,46.5L121.2,46.5z M140.7,27.1h6.7l5.4,5.4c0.2,0.2,1,1.1-0.3,2.4
	c-0.7,0.7-1.4,0.5-2.2,0.1c-4.6-2.4-8.9-2.3-13.3,0.9l-2.5-2.5L140.7,27.1z M172.8,51.9v7.3l-6.2,6.2l-2.5-2.5
	c3-3.9,3.3-8.9,1.1-13.5c-0.3-0.9-0.8-1.9,0-2.7c1.4-1.4,2.5,0,2.7,0.2L172.8,51.9z M148.8,47.6c1.3-2.3,0.5-4.8-0.8-6.8
	c-0.5-0.9-0.9-1.9,0-2.8c1.3-1.3,2.7,0.4,3,0.8l9.3,9.3c0.3,0.3,2.1,1.7,0.8,3c-0.9,0.9-1.8,0.5-2.8-0.1c-2-1.2-4.5-2.1-6.8-0.8
	L148.8,47.6z M108.9,167.3l-5.3,5.3h-2.8c0.1-0.2,0.2-0.3,0.3-0.5c0.3-0.6-0.4-1.2-0.7-1.6l-12.8-12.6c-0.4-0.3-1-1.1-1.6-0.7
	c-0.6,0.3-1.2,0.7-1.8,0.1c-0.6-0.6-0.1-1.3,0.4-1.8l6.2-6.2L108.9,167.3L108.9,167.3z M149.4,90.8l5.9-5.9l15.4,15.4
	c0.9,0.9,1,1.1,2.1,0.5v2.8l-5.8,5.8c-0.1,0.1-0.9,0.9-1.6,0.1c-0.3-0.3-0.4-0.8-0.1-1.2c0.6-1.1,0.4-1.2-0.5-2.1L149.4,90.8
	L149.4,90.8z M165.6,85.8c0.4,0.4,0.4,1.1-0.1,1.5l0,0c-0.7,0.7-1.5,0.2-2-0.3c-1.5-1.1-3.4-2.3-5.6-2l-1.4-1.4l3.5-3.5L165.6,85.8z
	 M144.9,95.3l3.5-3.5l1.4,1.4c-0.4,2.2,0.9,4.1,2,5.6c0.5,0.6,1,1.4,0.3,2c-0.4,0.4-1,0.5-1.4,0.2c0,0,0,0-0.1-0.1
	C150.5,100.9,144.9,95.3,144.9,95.3z M71.1,100.4c-1.3,2.8-0.2,4.2,0.9,5.3l22.3,22.2c1.1,1.1,2.5,2.2,5.3,0.9l2.5,2.5
	c-9.9,8.3-21.5,5.2-30.1-3.4s-11.6-20.1-3.4-30L71.1,100.4z M101.5,126.8c1.3-2.8,0.2-4.2-0.9-5.3L78.3,99.3
	c-1.1-1.1-2.5-2.2-5.3-0.9l-2.4-2.5c9.9-8.3,21.5-5.2,30.1,3.4s11.7,20.1,3.4,30.1L101.5,126.8z M148.9,80.5
	c-0.6-0.6-1.4-0.7-2.1-0.2c-2,1-2.2,0.7-3.8-0.9l-22.5-22.5c-1.6-1.6-1.9-1.8-0.9-3.8c0.4-0.7,0.3-1.5-0.2-2.1
	c-1.2-1.2-2.8,0.1-2.9,0.3l-11.3,11.3l9.2,17.1l-0.1,0.1l-17.8-8.6L85.7,82.1c-0.5,0.5-1.8,1.8-0.5,3.1c1,1,2.3,0,2.8-0.5
	c0.8-0.7,1.5-0.3,2.5-0.1c0.9,0.3,1.8,0.6,2.6,1.1l35.6,17.6l1.2-1.2L112.5,70l20,20c1.6,1.6,1.9,1.8,0.9,3.8
	c-0.4,0.7-0.3,1.5,0.2,2.1c1.2,1.2,2.8-0.1,2.9-0.3l12.2-12.1C148.8,83.3,150.1,81.8,148.9,80.5L148.9,80.5z M115.3,103.1l-7.4-7.4
	L98.4,91l-0.1,0.1l14.5,14.5c4.7,6.1,0.3,7.1,2.1,9c1.3,1.3,3-0.5,3.5-1l4.9-4.9c0.5-0.5,2.3-2.1,1-3.5
	C122.4,103.4,121.4,107.9,115.3,103.1L115.3,103.1z M92,148.3c4-4.2,10.3-4.7,16.9,1.2c5.9,5.4,5.2,12.9,1.2,16.9l-1.4-1.4
	c1.3-1.7,0-3.1-0.9-4l-10.3-10.3c-0.9-0.9-2.4-2.2-4-0.9L92,148.3L92,148.3z M101,139.3l6.4-6.4l18.1,18.1l-6.4,6.4
	c-0.1,0.1-0.9,0.8-1.7,0.1c-0.3-0.3-0.4-0.8-0.1-1.2c0.6-1.1,0.4-1.2-0.5-2.1l-12.7-12.7c-0.9-0.9-1-1.1-2.1-0.5
	c-0.4,0.2-0.9,0.2-1.2-0.1C100.1,140.1,100.9,139.3,101,139.3z M108.5,131.8l5.4-5.4l4.9,4.9c0.1,0.1,0.6,0.6-0.2,1.3
	c-0.4,0.4-0.8,0.3-1.3,0.1c-2.3-1.4-5.3-1.2-7.5,0.5L108.5,131.8L108.5,131.8z M125.1,148.4c1.7-2.2,1.9-5.2,0.6-7.6
	c-0.2-0.5-0.4-1.1,0-1.5s1-0.4,1.3-0.1c0.1,0.1,0.1,0.1,0.2,0.2l4.8,4.8l-5.6,5.6L125.1,148.4L125.1,148.4z M116.5,139.8
	c0.7-1.3,0.3-2.7-0.4-3.8c-0.3-0.5-0.5-1.1,0-1.6c0.7-0.7,1.5,0.2,1.7,0.4l5.2,5.2c0.2,0.2,1.2,0.9,0.4,1.7c-0.5,0.5-1,0.3-1.6,0
	c-1.1-0.7-2.5-1.2-3.8-0.4L116.5,139.8L116.5,139.8z M123.2,117c2.3-2.3,3.9-3.4,5.7-3.9c2.9-0.7,5.1,0.2,7.2,2.2
	c2,2,2.9,4.3,2.2,7.2c-0.5,1.8-1.6,3.4-3.9,5.7l-1.4-1.4c1.2-1.7,0.2-2.8-0.9-3.9l-3.6-3.6c-1.1-1.1-2.3-1.9-3.8-0.7L123.2,117
	L123.2,117z M118.9,126.8c-0.9-0.9-1-1.1-2.1-0.5c-0.4,0.2-0.9,0.2-1.2-0.1c-0.7-0.7,0.1-1.5,0.1-1.6l6.4-6.4l15.4,15.4
	c0.9,0.9,1,1.1,2.1,0.5c0.4-0.2,0.9-0.2,1.2,0.1c0.7,0.7-0.1,1.5-0.1,1.6l-6.8,6.8c-0.4,0.4-1,0.4-1.4,0c0,0,0,0-0.1-0.1
	c-0.3-0.3-0.4-0.8-0.2-1.1c0.6-1.1,0.3-1.1-0.6-2L118.9,126.8L118.9,126.8z"/>
<path class="st1" d="M137.5,103.8c-0.6,1-0.4,2.2,0.5,3l12.5,12.5c0.7,0.9,2,1.1,3,0.5l1.4,1.4c-5.6,4.7-12.1,2.9-16.9-1.9
	c-4.8-4.8-6.6-11.3-1.9-16.9L137.5,103.8L137.5,103.8z M154.6,118.6c0.6-1,0.4-2.2-0.5-3l-12.5-12.5c-0.7-0.9-2-1.1-3-0.5l-1.4-1.4
	c5.6-4.7,12.1-2.9,16.9,1.9c4.8,4.8,6.6,11.3,1.9,16.9L154.6,118.6z M43.8,82.3l5.6-5.6l14.4,14.4c0.8,0.8,0.9,1,2,0.4
	c0.4-0.2,0.8-0.2,1.1,0.1c0.6,0.6,0,1.5-0.1,1.5l-6.4,6.4c-0.1,0.1-0.9,0.8-1.5,0.1c-0.3-0.3-0.3-0.8-0.1-1.1c0.5-1,0.4-1.2-0.4-2
	L43.8,82.3z M58.9,77.6c0.4,0.4,0.3,1,0,1.4c0,0,0,0-0.1,0c-0.6,0.6-1.3,0.1-1.9-0.3c-1.4-1-3.2-2.2-5.2-1.8l-1.3-1.3l3.3-3.3
	L58.9,77.6L58.9,77.6z M39.5,86.5l3.3-3.3l1.3,1.3c-0.3,2,0.8,3.8,1.8,5.2c0.4,0.6,0.9,1.3,0.3,1.9c-0.3,0.4-0.9,0.5-1.4,0.1
	c0,0,0,0-0.1,0L39.5,86.5z M75.6,79.3c0.8,0.8,0.9,1,2,0.4c0.4-0.2,0.8-0.2,1.1,0.1c0.6,0.6-0.1,1.5-0.1,1.5l-6.4,6.4
	c-0.1,0.1-0.9,0.8-1.5,0.1c-0.3-0.3-0.3-0.8-0.1-1.1c0.5-1,0.4-1.2-0.4-2l-12-11.7c-0.8-0.8-0.9-1-2-0.4c-0.4,0.2-0.8,0.2-1.1-0.1
	c-0.6-0.6,0-1.5,0.1-1.5l6.4-6.4c0.1-0.1,0.9-0.8,1.5-0.1c0.3,0.3,0.3,0.8,0.1,1.1c-0.5,1-0.4,1.2,0.5,2L75.6,79.3z M73.2,70.8l-2,2
	l-1.3-1.3l2-2l-5.2-5.2c-0.8-0.8-0.9-1-2-0.4c-0.3,0.2-0.8,0.2-1.1-0.1c-0.6-0.6,0-1.5,0.1-1.5l6.4-6.4c0.1-0.1,0.9-0.8,1.5-0.1
	c0.3,0.3,0.3,0.8,0.1,1.1c-0.5,1-0.4,1.2,0.4,2L84,70.8c0.8,0.8,0.9,1,2,0.4c0.4-0.2,0.8-0.2,1.1,0.1c0.6,0.6,0,1.5-0.1,1.5
	l-6.4,6.4c-0.1,0.1-0.9,0.8-1.5,0.1c-0.3-0.3-0.3-0.8-0.1-1.1c0.5-1,0.4-1.2-0.4-2L73.2,70.8z M72.3,53.6l6-6l17,17l-6,6
	c-0.1,0.1-0.9,0.8-1.5,0.1c-0.3-0.3-0.3-0.8-0.1-1.1c0.5-1,0.4-1.2-0.4-2l-12-11.9c-0.8-0.8-0.9-1-2-0.4c-0.4,0.2-0.8,0.2-1.1-0.1
	C71.5,54.5,72.2,53.7,72.3,53.6z M79.4,46.6l5.1-5.1l4.6,4.6c0.1,0.1,0.5,0.6-0.2,1.2c-0.4,0.4-0.7,0.3-1.2,0c-2.2-1.3-5-1.1-7,0.5
	L79.4,46.6L79.4,46.6z M95,62.3c1.6-2.1,1.8-4.9,0.6-7.2c-0.2-0.5-0.4-1,0-1.4c0.3-0.4,0.9-0.4,1.3-0.1c0.1,0.1,0.1,0.1,0.2,0.2
	l4.5,4.5l-5.3,5.2L95,62.3L95,62.3z M86.9,54.2c0.7-1.2,0.2-2.5-0.4-3.6c-0.3-0.5-0.5-1,0-1.5c0.7-0.7,1.4,0.2,1.6,0.4l4.9,4.9
	c0.2,0.2,1.1,0.9,0.4,1.6c-0.5,0.5-1,0.2-1.5,0c-1.1-0.6-2.4-1.1-3.6-0.4L86.9,54.2z"/>
</svg>
