<?xml version="1.0" encoding="UTF-8"?>
<svg width="34px" height="20px" viewBox="0 0 34 20" version="1.1" xmlns="http://www.w3.org/2000/svg" xmlns:xlink="http://www.w3.org/1999/xlink">
    <!-- Generator: Sketch 49 (51002) - http://www.bohemiancoding.com/sketch -->
    <title>HRK</title>
    <desc>Created with Sketch.</desc>
    <defs></defs>
    <g id="Page-1" stroke="none" stroke-width="1" fill="none" fill-rule="evenodd">
        <g id="HRK">
            <rect id="Rectangle-path" fill="#FFFFFF" fill-rule="nonzero" x="0" y="6.52" width="33.56" height="6.53"></rect>
            <rect id="Rectangle-path" fill="#1E2788" fill-rule="nonzero" x="0" y="13.05" width="33.56" height="6.53"></rect>
            <rect id="Rectangle-path" fill="#CB0028" fill-rule="nonzero" x="0" y="0" width="33.56" height="6.52"></rect>
            <g id="Group" transform="translate(11.000000, 2.000000)">
                <path d="M1.89,4.43 C3.12377796,3.99562566 4.42199278,3.77249499 5.73,3.77 C7.07235505,3.76186891 8.40578521,3.98861972 9.67,4.44 L10.67,2.44 L10,1.27 L8.77,1.77 C8.77,1.77 7.9,0.83 7.9,0.83 L6.8,1.49 L5.8,0.7 L4.8,1.48 L3.67,0.82 L2.85,1.82 L1.61,1.29 L0.95,2.48 L1.89,4.43 Z" id="Shape" fill="#FFFFFF" fill-rule="nonzero"></path>
                <path d="M9.68,4.48 C8.42837574,4.03339138 7.10891375,3.80671457 5.78,3.81 C4.46540805,3.81177389 3.16049875,4.0348931 1.92,4.47 L0.92,2.47 L1.58,1.26 L2.85,1.78 L3.64,0.78 L4.81,1.43 L5.75,0.66 L6.81,1.45 L7.88,0.79 C8.24,1.16 8.75,1.71 8.77,1.73 C8.79,1.75 9.65,1.36 9.98,1.22 L10.7,2.43 L9.7,4.43 L9.68,4.48 Z M1.56,1.31 L0.94,2.48 L1.94,4.41 C3.15938268,3.95829297 4.44964259,3.72801037 5.75,3.73 C7.08811928,3.72344814 8.41742984,3.94669114 9.68,4.39 L10.68,2.44 L9.99,1.27 L8.78,1.79 C8.46423609,1.49487443 8.17014169,1.17738616 7.9,0.84 L6.84,1.51 L5.78,0.72 L4.85,1.5 L3.69,0.85 L2.9,1.85 L1.63,1.33 L1.56,1.31 Z" id="Shape" fill="#CB0028" fill-rule="nonzero"></path>
                <path d="M8.15,3.88 L8.71,1.88 L9.91,1.39 L10.54,2.45 L9.63,4.3 C9.15251072,4.10212635 8.65681961,3.95140946 8.15,3.85 L8.15,3.88 Z" id="Shape" fill="#3A7AA1" fill-rule="nonzero"></path>
                <path d="M9.64,4.34 C9.16272938,4.14151661 8.66697737,3.9907812 8.16,3.89 L8.71,1.89 L9.91,1.4 L10.55,2.47 L9.64,4.33 L9.64,4.34 Z M9.91,1.42 L8.72,1.91 L8.17,3.91 C8.67370426,4.00622851 9.16626095,4.15366044 9.64,4.35 L10.54,2.5 L9.9,1.42 L9.91,1.42 Z" id="Shape" fill="#4C73D5" fill-rule="nonzero"></path>
                <path d="M5,3.67 L4.81,1.67 L5.81,0.91 L6.81,1.67 L6.63,3.67 C6.10368808,3.64266271 5.57631192,3.64266271 5.05,3.67 L5,3.67 Z" id="Shape" fill="#3A7AA1" fill-rule="nonzero"></path>
                <path d="M6.59,3.68 C6.06371468,3.65165637 5.53628532,3.65165637 5.01,3.68 L4.81,1.63 L5.81,0.86 L6.81,1.62 L6.64,3.68 L6.59,3.68 Z M5.76,0.87 L4.82,1.63 L5.01,3.63 C5.53280367,3.59670183 6.05719633,3.59670183 6.58,3.63 L6.76,1.63 L5.76,0.88 L5.76,0.87 Z" id="Shape" fill="#4C73D5" fill-rule="nonzero"></path>
                <path d="M1.94,4.33 L1.05,2.46 L1.64,1.46 L2.87,2 L3.39,3.94 C2.89308503,4.03747225 2.40728609,4.18488711 1.94,4.38 L1.94,4.33 Z" id="Shape" fill="#3A7AA1" fill-rule="nonzero"></path>
                <path d="M1.94,4.34 L1,2.46 L1.59,1.46 L2.83,1.99 L3.36,3.93 C2.86109202,4.03694621 2.37254647,4.18752532 1.9,4.38 L1.94,4.34 Z M1.65,1.42 L1.07,2.42 L1.95,4.28 C2.41799271,4.08685929 2.90359356,3.93950455 3.4,3.84 L2.86,2 L1.64,1.47 L1.65,1.42 Z" id="Shape" fill="#4C73D5" fill-rule="nonzero"></path>
                <path d="M1.75,3.39 C1.98473877,3.42727624 2.2250289,3.40667995 2.45,3.33 C2.63752999,3.24606087 2.79465348,3.10639554 2.9,2.93 C2.99035608,3.18380254 2.86772288,3.464107 2.62,3.57 C2.32480861,3.72951215 1.95766116,3.65355061 1.75,3.39 Z" id="Shape" fill="#FFFFFF" fill-rule="nonzero"></path>
                <path d="M2.27,3.65 C2.06076188,3.65839902 1.86142244,3.56060987 1.74,3.39 L2,3.39 C2.16015509,3.39121602 2.31926607,3.36413329 2.47,3.31 C2.64604369,3.23075927 2.79538689,3.10225465 2.9,2.94 C2.80687619,3.11643392 2.65465994,3.25449052 2.47,3.33 C2.24447962,3.40402713 2.00482859,3.42456865 1.77,3.39 C1.99098663,3.63297336 2.34702709,3.69845207 2.64,3.55 C2.83322737,3.46616071 2.953192,3.27021849 2.94,3.06 C2.96452673,3.26996432 2.84586067,3.47046904 2.65,3.55 C2.54272038,3.60886016 2.42236584,3.63980847 2.3,3.64 L2.27,3.65 Z" id="Shape" fill="#FFFFFF" fill-rule="nonzero"></path>
                <polygon id="Shape" fill="#FBFC2B" fill-rule="nonzero" points="6.02 1.94 5.97 1.95 5.97 2.05 5.9 2.07 5.86 2.15 5.88 2.17 5.86 2.24 5.88 2.26 5.9 2.32 5.95 2.32 5.95 2.38 6.02 2.39 6.09 2.44 6.09 2.47 6.17 2.47 6.22 2.48 6.39 2.46 6.42 2.43 6.42 2.38 6.51 2.38 6.52 2.3 6.57 2.3 6.56 2.21 6.61 2.21 6.6 2.17 6.57 2.13 6.56 2.08 6.49 2.01 6.48 1.91 6.43 1.89 6.43 1.83 6.48 1.75 6.48 1.73 6.43 1.72 6.39 1.75 6.34 1.76 6.34 1.78 6.35 1.82 6.3 1.82 6.29 1.76 6.21 1.72 6.14 1.77 6.13 1.83 6.1 1.84 6.06 1.78 6 1.76 5.96 1.76 5.96 1.8 6.03 1.89"></polygon>
                <path d="M6.21,2.5 L6.08,2.5 L6.02,2.5 L6,2.5 L6,2.43 L6,2.31 L6,2.2 L6,2 L6,1.92 L6.07,1.92 L6.01,1.85 L6.01,1.74 L6,1.74 L6.07,1.74 L6.07,1.8 L6.07,1.77 L6.15,1.7 L6.25,1.7 L6.25,1.78 C6.25,1.78 6.25,1.78 6.31,1.73 L6.38,1.73 L6.32,1.82 L6.32,1.87 C6.32,1.87 6.32,1.87 6.32,1.87 L6.32,1.98 L6.39,2.04 L6.39,2.18 L6.33,2.18 L6.33,2.25 L6.27,2.25 L6.27,2.31 L6.16,2.31 L5.96,2.31 L6.21,2.5 Z M6.21,2.5 L6.26,2.5 L6.43,2.5 L6.43,2.38 L6.54,2.38 L6.54,2.3 L6.61,2.3 L6.61,2.23 L6.67,2.23 L6.62,2.18 L6.62,2.08 L6.48,2 L6.48,1.9 C6.48,1.9 6.48,1.9 6.48,1.9 L6.48,1.83 L6.54,1.75 L6.49,1.75 L6.42,1.75 L6.42,1.67 L6.35,1.67 L6.29,1.67 L6,1.79 L5.95,1.79 L6.01,1.87 L6.01,1.93 L6,2 L6,2.08 L5.92,2.08 L5.92,2.16 C5.92,2.16 5.92,2.16 5.92,2.22 C5.92,2.28 5.92,2.22 5.92,2.22 L5.92,2.27 L5.92,2.34 L6,2.34 L6.07,2.39 L6.21,2.5 Z" id="Shape" fill="#C2A21F" fill-rule="nonzero"></path>
                <path d="M6.53,2.3 L6.53,2.25 L6.53,2.3 Z" id="Shape"></path>
                <polygon id="Shape" fill="#C2A21F" fill-rule="nonzero" points="5.89 2.17 6 2.17 6 2.24 6 2.24 6 2.36 6 2.36 6 2.34 6.06 2.34 6.06 2.46 6.14 2.46 6.14 2.46 6.14 2.46 6.14 2.46 6.14 2.46 6.14 2.46 6.14 2.51 6.19 2.51 6.19 2.51 6.19 2.45 6.27 2.45 6.27 2.45 6.27 2.45 6.27 2.39 6.27 2.2 6.33 2.13 6.41 2.13 6.41 2.13 6.49 2 6.49 1.9 6.49 1.9 6.43 1.9 6.48 1.97 6.48 2 6.48 2 6.48 2.13 6.43 2.13 6.43 2.2 6.43 2.2 6.43 2.26 6.43 2.26 6.37 2.26 6.37 2.26 6.37 2.26 6.37 2.26 6.37 2.24 6.37 2.24 6.37 2.24 6.37 2.24 6.37 2.24 6.37 2.24 6.37 2 6.37 2 6.37 2 6.37 2 6.37 2 6 2 6 2 6 2.1 5.94 2.1 5.89 2.18"></polygon>
                <path d="M6.09,2.48 L6.09,2.34 L6.09,2.4 L6.09,2.26 L6.09,2.17 L6.02,2.17 L6.02,2.07 L6,2 C6,2 6,2 6,2 L6.06,2 L6.13,2 L6.13,2.08 C6.13,2.08 6.13,2.08 6.13,2.08 C6.13205433,2.1066271 6.13205433,2.1333729 6.13,2.16 L6.06,2.16 L6.06,2.23 L6,2.23 L6,2.31 L6,2.46 L6.07,2.46 L6.07,2.58 L6.13,2.58 L6.09,2.48 Z M6.33,2.48 L6.33,2.41 L6.33,2.47 L6.33,2.39 L6.26,2.39 C6.21,2.39 6.21,2.39 6.21,2.34 C6.21,2.34 6.21,2.34 6.21,2.28 C6.21,2.28 6.21,2.28 6.21,2.18 L6.21,2 L6.26,2 L6,2 C6.00250984,2.01992126 6.00250984,2.04007874 6,2.06 L6.07,2.11 C6.07,2.11 6.07,2.16 6.07,2.17 C6.07,2.18 6.07,2.23 6.07,2.23 C6.07,2.23 6.07,2.23 6.07,2.23 C6.07,2.23 6.07,2.18 6.07,2.18 L6.07,2.17 C6.07,2.17 6.07,2.17 6.14,2.17 L6.14,2 L6.14,1.94 L6.2,1.94 L6.27,1.94 L6.27,2.05 L6.35,2.12 L6.26,2.12 L6.26,2.19 L6.26,2.29 L6.26,2.24 L6.21,2.24 L6.26,2.31 L6.2,2.31 L6.33,2.48 Z M6.38,2.19 C6.38187914,2.20995586 6.38187914,2.23004414 6.38,2.25 C6.38,2.25 6.38,2.31 6.38,2.32 L6.46,2.27 L6.46,2.2 L6.38,2.19 Z M6.38,1.91 L6.33,1.91 L6.39,1.91 L6.39,2.09 L6.48,2.09 L6.48,2 L6.48,1.89 L6.38,1.91 Z" id="Shape" fill="#C2A21F" fill-rule="nonzero"></path>
                <polygon id="Shape" fill="#613F21" fill-rule="nonzero" points="6.19 2.3 6.19 2.3 6.19 2.3 6.25 2.3 6.25 2.3 6.25 2.3 6.25 2.3 6.34 2.3 6.34 2.3 6.25 2.3"></polygon>
                <path d="M6.17,2.34 L6.23,2.34 L6.32,2.34 C6.32,2.34 6.32,2.34 6.21,2.34 L6.14,2.34 L6.17,2.34 Z" id="Shape" fill="#C2A21F" fill-rule="nonzero"></path>
                <polygon id="Shape" fill="#C2A21F" fill-rule="nonzero" points="6.42 2 6.37 2 6.37 2.06 6.37 2.06 6.32 2 6.2 2 6.2 2.08 6.2 2.08 6.14 2.02 6.14 2 6.29 2 6.29 2 6.29 2 6.37 2 6.37 2 6.37 2 6.55 2"></polygon>
                <path d="M6.17,2.16 L6.09,2.08 L6.09,2 L6.26,2 L6.26,1.95 C6.26,1.95 6.26,1.95 6.33,1.95 L6.38,1.95 L6.25,2 L6.41,2 L6.33,2.12 L6.28,2.05 C6.28,2.05 6.28,2.11 6.28,2.12 L6.17,2.16 Z M6.23,2 L6.07,2 L6.16,2.07 L6.16,2 L6.23,2 Z" id="Shape" fill="#C2A21F" fill-rule="nonzero"></path>
                <path d="M6.07,2 L6.22,2 C6.27965865,1.9909488 6.34034135,1.9909488 6.4,2 C6.34357028,2.0073285 6.28642972,2.0073285 6.23,2 C6.18023462,1.99314982 6.12976538,1.99314982 6.08,2 L6.07,2 Z" id="Shape" fill="#C2A21F" fill-rule="nonzero"></path>
                <polygon id="Shape" fill="#C2A21F" fill-rule="nonzero" points="6.09 1.83 6.04 1.83 5.98 1.77 6.01 1.77 6.05 1.79"></polygon>
                <polygon id="Shape" fill="#C2A21F" fill-rule="nonzero" points="6.11 1.85 6.04 1.85 5.93 1.75 6.06 1.77 6.11 1.85"></polygon>
                <polygon id="Shape" fill="#C2A21F" fill-rule="nonzero" points="6.36 1.81 6.46 1.73 6.43 1.73 6.39 1.76 6.34 1.77"></polygon>
                <polygon id="Shape" points="6.36 1.81 6.46 1.73 6.43 1.73 6.39 1.76 6.34 1.77"></polygon>
                <polygon id="Shape" fill="#C2A21F" fill-rule="nonzero" points="6.3 1.82 6.14 1.83 6.14 1.81 6.2 1.81 6.2 1.78 6.23 1.78 6.23 1.81 6.29 1.81"></polygon>
                <polygon id="Shape" fill="#C2A21F" fill-rule="nonzero" points="6.12 1.84 6.12 1.81 6.2 1.79 6.17 1.81 6.21 1.81 6.21 1.79 6.3 1.8 6.31 1.82 6.3 1.84 6.12 1.84"></polygon>
                <polygon id="Shape" fill="#C2A21F" fill-rule="nonzero" points="6.29 1.76 6.23 1.76 6.23 1.73"></polygon>
                <polygon id="Shape" points="6.29 1.76 6.23 1.76 6.23 1.73"></polygon>
                <polygon id="Shape" fill="#C2A21F" fill-rule="nonzero" points="6.2 1.73 6.19 1.76 6.14 1.77"></polygon>
                <polygon id="Shape" points="6.2 1.73 6.19 1.76 6.14 1.77"></polygon>
                <polygon id="Shape" fill="#C2A21F" fill-rule="nonzero" points="5.89 2.28 5.92 2.21 5.89 2.17 5.87 2.23"></polygon>
                <polygon id="Shape" points="5.89 2.28 5.92 2.21 5.89 2.17 5.87 2.23"></polygon>
                <polygon id="Shape" fill="#C2A21F" fill-rule="nonzero" points="5.95 2.32 5.98 2.24 5.92 2.3"></polygon>
                <polygon id="Shape" fill="#C2A21F" fill-rule="nonzero" points="5.95 2.34 5.91 2.32 5.97 2.23 5.93 2.32 5.95 2.32 5.93 2.31 5.97 2.23 5.95 2.34"></polygon>
                <polygon id="Shape" fill="#FBFC2B" fill-rule="nonzero" points="5.14 1.97 5.08 1.98 5.09 2.08 5.02 2.09 4.97 2.18 5 2.2 4.98 2.27 5 2.29 5.01 2.34 5.06 2.35 5.07 2.41 5.14 2.42 5.2 2.47 5.21 2.5 5.29 2.5 5.34 2.51 5.51 2.49 5.54 2.46 5.54 2.41 5.63 2.4 5.64 2.33 5.69 2.33 5.68 2.23 5.73 2.24 5.71 2.2 5.69 2.16 5.68 2.11 5.61 2.04 5.59 1.94 5.55 1.92 5.54 1.86 5.6 1.78 5.59 1.75 5.54 1.75 5.5 1.78 5.45 1.79 5.45 1.81 5.47 1.85 5.41 1.85 5.41 1.79 5.33 1.75 5.25 1.8 5.25 1.86 5.21 1.87 5.18 1.81 5.11 1.79 5.07 1.79 5.07 1.83 5.14 1.92"></polygon>
                <path d="M5.33,2.53 L5.19,2.53 L5.13,2.53 L5.07,2.53 L5.07,2.46 L5.07,2.34 L5.07,2.25 L5.15,2.25 L5.15,2 L5.21,2 L5.15,1.92 L5.15,1.77 L5.2,1.77 L5.26,1.77 L5.26,1.83 L5.26,1.8 L5.34,1.74 L5.44,1.74 L5.44,1.82 C5.44,1.82 5.44,1.82 5.5,1.77 L5.57,1.77 L5.51,1.86 L5.51,1.91 C5.51,1.91 5.51,1.91 5.51,1.91 L5.51,2.02 L5.58,2.09 L5.58,2.23 L5.52,2.23 L5.52,2.3 L5.46,2.3 L5.46,2.37 L5.35,2.37 L5.16,2.37 L5.33,2.53 Z M5.33,2.53 L5.38,2.53 L5.55,2.53 L5.66,2.53 L5.66,2.32 L5.72,2.32 L5.72,2.25 L5.78,2.25 L5.73,2.2 L5.73,2.11 L5.6,2 L5.6,1.9 L5.6,1.86 L5.66,1.78 L5.61,1.78 L5.61,1.83 L5.54,1.83 L5.54,1.75 L5.47,1.75 L5.41,1.75 L5.35,1.69 L5.3,1.69 L5.36,1.77 L5.36,2 L5.3,2 L5.3,2.08 L5.22,2.08 L5.22,2.16 C5.22,2.16 5.22,2.16 5.22,2.23 C5.22,2.3 5.22,2.23 5.22,2.23 L5.22,2.28 L5.22,2.35 L5.28,2.35 L5.36,2.4 L5.33,2.53 Z" id="Shape" fill="#C2A21F" fill-rule="nonzero"></path>
                <polygon id="Shape" fill="#C2A21F" fill-rule="nonzero" points="5 2.2 5.08 2.2 5.08 2.27 5.08 2.27 5.08 2.4 5.08 2.4 5.08 2.37 5.14 2.37 5.14 2.47 5.14 2.47 5.14 2.47 5.21 2.47 5.21 2.47 5.21 2.47 5.21 2.47 5.21 2.47 5.21 2.47 5.21 2.47 5.26 2.47 5.26 2.47 5.26 2.39 5.33 2.39 5.33 2.39 5.33 2.39 5.33 2.34 5.33 2.23 5.38 2.15 5.46 2.15 5.46 2.15 5.6 2 5.6 1.9 5.6 1.9 5.54 1.9 5.59 1.97 5.59 1.97 5.59 1.97 5.59 2.09 5.54 2.09 5.54 2.16 5.54 2.16 5.54 2.22 5.54 2.22 5.48 2.22 5.48 2.22 5.48 2.22 5.48 2.22 5.48 2.27 5.48 2.27 5.48 2.27 5.48 2.27 5.48 2.27 5.48 2.27 5.48 2.08 5.48 2.08 5.48 2.08 5.48 2 5.48 2 5.43 2 5.38 2 5.38 2.09 5 2.1 5 2.17"></polygon>
                <path d="M5.21,2.51 L5.21,2.37 L5.21,2.43 L5.21,2.29 L5.21,2.2 L5.14,2.2 L5.14,2.1 L5.2,2.1 C5.1965447,2.07344526 5.1965447,2.04655474 5.2,2.02 L5.26,2.02 L5.32,2.02 L5.32,2.1 L5.32,2.18 L5.25,2.18 L5.25,2.25 L5.33,2.25 L5.33,2.33 L5.33,2.48 L5.41,2.48 L5.41,2.6 L5.48,2.6 L5.21,2.51 Z M5.45,2.51 L5.4,2.44 L5.4,2.5 L5.4,2.43 L5.48,2.37 L5.48,2.23 C5.48176815,2.24996092 5.48176815,2.27003908 5.48,2.29 C5.48,2.36 5.48,2.36 5.48,2.36 L5.41,2.36 L5.36,2.31 C5.36,2.31 5.36,2.31 5.36,2.25 C5.36,2.25 5.36,2.25 5.36,2.15 L5.41,2.15 L5.35,2.15 C5.35,2.15 5.35,2.2 5.35,2.21 L5.41,2.26 C5.41,2.26 5.41,2.31 5.41,2.32 C5.41,2.33 5.41,2.38 5.41,2.38 C5.41,2.38 5.41,2.33 5.41,2.33 L5.41,2.2 C5.41,2.2 5.41,2.2 5.48,2.2 L5.48,2.03 L5.48,1.97 L5.54,1.97 L5.61,1.97 L5.61,2.08 L5.68,2.15 L5.59,2.15 L5.59,2.21 L5.59,2.32 L5.59,2.26 L5.54,2.26 L5.59,2.33 L5.53,2.33 L5.45,2.51 Z M5.54,1.94 L5.49,1.94 L5.55,1.94 L5.55,2.12 L5.64,2.12 L5.55,2.05 L5.55,1.94 L5.54,1.94 Z" id="Shape" fill="#C2A21F" fill-rule="nonzero"></path>
                <polygon id="Shape" fill="#613F21" fill-rule="nonzero" points="5.3 2.32 5.3 2.32 5.3 2.32 5.36 2.32 5.36 2.32 5.36 2.32 5.36 2.32 5.45 2.32 5.45 2.32 5.36 2.32"></polygon>
                <path d="M5.28,2.36 L5.34,2.36 L5.43,2.36 C5.43,2.36 5.43,2.36 5.32,2.36 L5.25,2.36 L5.28,2.36 Z" id="Shape" fill="#C2A21F" fill-rule="nonzero"></path>
                <polygon id="Shape" fill="#C2A21F" fill-rule="nonzero" points="5.53 2.06 5.48 2.06 5.48 2.12 5.48 2.12 5.43 2.05 5.37 2.05 5.37 2.13 5.37 2.13 5.31 2.07 5.31 2.07 5.46 2.07 5.46 2 5.51 2 5.51 2 5.51 2.06 5.69 2.06"></polygon>
                <path d="M5.29,2.19 L5.21,2.11 L5.38,2.11 L5.38,2 C5.38,2 5.38,2 5.44,2 L5.49,2 L5.36,2 L5.36,2.05 L5.51,2.05 L5.43,2.18 L5.38,2.11 C5.38118434,2.1333183 5.38118434,2.1566817 5.38,2.18 L5.29,2.19 Z M5.35,2.07 L5.19,2.07 L5.28,2.14 L5.28,2.07 L5.35,2.07 Z" id="Shape" fill="#C2A21F" fill-rule="nonzero"></path>
                <path d="M5.19,2 C5.23967758,1.99196983 5.29032242,1.99196983 5.34,2 C5.39633647,1.99134869 5.45366353,1.99134869 5.51,2 C5.45359359,2.00768062 5.39640641,2.00768062 5.34,2 C5.29361911,1.99269629 5.24638089,1.99269629 5.2,2 L5.19,2 Z" id="Shape" fill="#C2A21F" fill-rule="nonzero"></path>
                <polygon id="Shape" fill="#C2A21F" fill-rule="nonzero" points="5.2 1.86 5.16 1.86 5.09 1.8 5.13 1.8 5.17 1.82"></polygon>
                <polygon id="Shape" fill="#C2A21F" fill-rule="nonzero" points="5.23 1.88 5.16 1.88 5.05 1.77 5.18 1.8 5.23 1.88"></polygon>
                <polygon id="Shape" fill="#C2A21F" fill-rule="nonzero" points="5.48 1.84 5.58 1.76 5.54 1.75 5.5 1.79 5.46 1.8"></polygon>
                <polygon id="Shape" points="5.48 1.84 5.58 1.76 5.54 1.75 5.5 1.79 5.46 1.8"></polygon>
                <polygon id="Shape" fill="#C2A21F" fill-rule="nonzero" points="5.41 1.85 5.25 1.86 5.26 1.84 5.31 1.83 5.32 1.81 5.34 1.81 5.35 1.83 5.41 1.84"></polygon>
                <polygon id="Shape" fill="#C2A21F" fill-rule="nonzero" points="5.23 1.87 5.24 1.84 5.31 1.82 5.28 1.84 5.33 1.84 5.33 1.82 5.41 1.83 5.43 1.85 5.42 1.87 5.23 1.87"></polygon>
                <polygon id="Shape" fill="#C2A21F" fill-rule="nonzero" points="5.41 1.79 5.35 1.79 5.35 1.76"></polygon>
                <polygon id="Shape" points="5.41 1.79 5.35 1.79 5.35 1.76"></polygon>
                <polygon id="Shape" fill="#C2A21F" fill-rule="nonzero" points="5.31 1.76 5.31 1.79 5.25 1.8"></polygon>
                <polygon id="Shape" points="5.31 1.76 5.31 1.79 5.25 1.8"></polygon>
                <polygon id="Shape" fill="#C2A21F" fill-rule="nonzero" points="5.01 2.31 5.04 2.24 5.01 2.2 4.98 2.26"></polygon>
                <polygon id="Shape" points="5.01 2.31 5.04 2.24 5.01 2.2 4.98 2.26"></polygon>
                <polygon id="Shape" fill="#C2A21F" fill-rule="nonzero" points="5.06 2.35 5.1 2.27 5.03 2.33"></polygon>
                <polygon id="Shape" fill="#C2A21F" fill-rule="nonzero" points="5.07 2.37 5.02 2.35 5.08 2.26 5.04 2.34 5.06 2.35 5.05 2.34 5.09 2.26 5.07 2.37"></polygon>
                <path d="M6.59,3.67 L6.77,1.62 L7.86,1 L8.7,1.91 L8.14,3.91 C7.62915461,3.80224386 7.11110153,3.73205603 6.59,3.7 L6.59,3.67 Z" id="Shape" fill="#1E2788" fill-rule="nonzero"></path>
                <path d="M8.15,3.89 C7.64266209,3.78146377 7.12787483,3.7112655 6.61,3.68 L6.78,1.62 L7.86,1 L8.71,1.91 L8.15,3.91 L8.15,3.89 Z M7.86,1 L6.78,1.63 L6.61,3.63 C7.12462316,3.65457981 7.63635043,3.72147226 8.14,3.83 L8.7,1.83 L7.86,1 Z" id="Shape" fill="#160080" fill-rule="nonzero"></path>
                <path d="M5.59,2.73 L5.54,2.73 L5.54,2.83 L5.47,2.83 L5.47,2.92 C5.46890828,2.9399851 5.46890828,2.9600149 5.47,2.98 L5.47,3.03 L5.47,3.09 L5.54,3.09 L5.61,3.09 L5.69,3.09 L5.74,3.09 L5.91,3.09 L6.01,3.09 L6.01,3 L6.01,2.88 L5.94,2.81 L5.94,2.71 L5.89,2.71 L5.89,2.62 L5.94,2.55 L6,2.55 L5.95,2.55 L5.89,2.55 L5.81,2.55 L5.74,2.6 L5.74,2.66 L5.74,2.61 L5.68,2.61 L5.74,2.7 L5.59,2.73 Z" id="Shape" fill="#FBFC2B" fill-rule="nonzero"></path>
                <path d="M5.79,3.3 L5.66,3.3 L5.6,3.3 L5.54,3.3 L5.54,3.23 L5.54,3.1 L5.54,2.94 L5.54,2.85 L5.62,2.85 L5.62,2.77 L5.68,2.77 L5.62,2.69 L5.62,2.54 L5.69,2.54 L5.69,2.6 L5.69,2.56 L5.77,2.5 L5.87,2.5 L5.87,2.58 C5.87,2.58 5.87,2.58 5.93,2.53 L6,2.53 L6,2.63 L6,2.68 L6,2.79 L6.06,2.85 L6.06,2.99 L6,2.99 L6,3.06 L5.93,3.06 L5.93,3.12 L5.82,3.12 L5.63,3.12 L5.79,3.3 Z M5.79,3.3 L5.84,3.3 L6.01,3.3 L6.01,3.17 L6.12,3.17 L6.12,3.09 L6.19,3.09 L6.19,3.02 L6.25,3.02 L6.2,2.97 L6.2,2.88 L6.13,2.82 L6.13,2.72 C6.13,2.72 6.13,2.72 6.13,2.72 L6.13,2.62 L6,2.54 L5.94,2.54 L5.94,2.59 L5.87,2.59 L5.87,2.51 L5.8,2.51 L5.74,2.51 L5.74,2.56 L5.69,2.5 L5.63,2.5 L5.7,2.58 L5.7,2.64 L5.63,2.64 L5.63,2.72 L5.55,2.72 L5.55,2.8 C5.55,2.8 5.55,2.8 5.55,2.86 C5.55,2.92 5.55,2.86 5.55,2.86 L5.55,2.91 L5.55,2.98 L5.6,2.98 L5.68,3.03 L5.79,3.3 Z" id="Shape" fill="#C2A21F" fill-rule="nonzero"></path>
                <polygon id="Shape" fill="#C2A21F" fill-rule="nonzero" points="5.46 2.96 5.54 2.96 5.55 3.03 5.58 3.05 5.58 3.18 5.61 3.19 5.61 3.14 5.68 3.13 5.69 3.23 5.67 3.25 5.68 3.26 5.75 3.26 5.77 3.23 5.81 3.23 5.83 3.26 5.84 3.22 5.88 3.21 5.9 3.26 5.95 3.25 5.93 3.22 5.91 3.15 5.98 3.12 6.01 3.16 6.04 3.16 6.01 3.11 6.01 2.99 6.06 2.92 6.14 2.91 6.14 2.88 6.06 2.81 6.04 2.71 6 2.69 5.99 2.7 5.94 2.71 5.99 2.78 5.99 2.82 6.01 2.83 6.01 2.96 5.95 2.97 5.95 3.04 5.91 3.07 5.89 3.14 5.86 3.18 5.8 3.18 5.77 3.14 5.76 3.1 5.73 3.09 5.73 3.04 5.68 3.02 5.68 2.98 5.64 2.96 5.63 2.93 5.61 2.92 5.61 2.84 5.65 2.84 5.63 2.81 5.62 2.79 5.62 2.77 5.65 2.74 5.6 2.73 5.55 2.76 5.55 2.85 5.48 2.87 5.44 2.94"></polygon>
                <path d="M5.67,3.28 L5.67,3.13 L5.67,3.19 L5.67,3.05 L5.67,2.96 L5.6,2.96 L5.6,2.86 L5.67,2.86 C5.67,2.86 5.67,2.79 5.67,2.78 L5.72,2.78 L5.78,2.78 L5.78,2.86 C5.78,2.86 5.78,2.86 5.78,2.86 C5.78429433,2.88649378 5.78429433,2.91350622 5.78,2.94 L5.71,2.94 L5.71,3.01 L5.8,3.01 L5.8,3.09 L5.8,3.24 L5.87,3.24 L5.87,3.36 L5.94,3.36 L5.67,3.28 Z M5.91,3.28 L5.91,3.22 L5.91,3.28 L5.91,3.34 L5.91,3.26 L6,3.1 L6,3 C6,3.07 6,3.07 6,3.07 C6,3.07 6,3.07 6,3.07 L5.8,3.07 L5.75,3.02 C5.75,3.02 5.75,3.02 5.75,2.96 L5.75,3 C5.75,3 5.75,3 5.75,2.9 L5.7,2.9 C5.70287187,2.9198969 5.70287187,2.9401031 5.7,2.96 C5.7,2.96 5.7,2.96 5.7,2.96 L5.7,3 C5.70274007,3.01990615 5.70274007,3.04009385 5.7,3.06 C5.7,3.06 5.7,3.12 5.7,3.12 C5.7,3.12 5.7,3.12 5.7,3.12 C5.7,3.12 5.7,3.07 5.7,3.07 L5.7,3 C5.7,3 5.7,3 5.77,3 L5.77,2.83 L5.77,2.77 L5.83,2.77 L6,2.77 L6,2.88 L6.07,2.95 L5.98,2.95 L6,3 L6,3.1 L6,3.04 L5.95,3.04 L5.95,3.11 L5.89,3.11 L5.91,3.28 Z M6,2.71 L5.95,2.71 L6.01,2.71 L6,3 L6.09,3 L6.01,2.93 L6.01,2.82 L6,2.71 Z" id="Shape" fill="#C2A21F" fill-rule="nonzero"></path>
                <path d="M5.76,3.09 L5.76,3 L5.87,3 C5.87,3 5.87,3 5.87,3 L5.96,3 L5.87,3 L5.82,3 L5.76,3.09 Z" id="Shape" fill="#613F21" fill-rule="nonzero"></path>
                <path d="M5.74,3.13 L5.74,3 L5.8,3 L5.89,3 C5.89,3 5.89,3 5.78,3 L5.71,3 L5.74,3.13 Z" id="Shape" fill="#C2A21F" fill-rule="nonzero"></path>
                <polygon id="Shape" fill="#C2A21F" fill-rule="nonzero" points="6 2.83 5.95 2.83 5.95 2.89 5.95 2.89 5.9 2.82 5.84 2.82 5.84 2.9 5.84 2.9 5.78 2.84 5.78 2.84 5.93 2.84 5.93 2.77 5.93 2.77 5.93 2.77 5.93 2.83 6 2.83"></polygon>
                <path d="M5.75,3 L5.67,2.92 L5.84,2.92 C5.84,2.92 5.84,2.92 5.9,2.92 L5.95,2.92 L5.87,2.97 L6.03,2.97 L5.95,3.1 L5.9,3.03 C5.90136227,3.05331345 5.90136227,3.07668655 5.9,3.1 L5.75,3 Z M5.81,2.88 L5.65,2.88 L5.74,2.95 L5.74,2.88 L5.81,2.88 Z" id="Shape" fill="#C2A21F" fill-rule="nonzero"></path>
                <path d="M5.65,2.76 C5.70276018,2.74894226 5.75723982,2.74894226 5.81,2.76 C5.86954381,2.74953643 5.93045619,2.74953643 5.99,2.76 C5.93365192,2.7684978 5.87634808,2.7684978 5.82,2.76 C5.77036856,2.75141445 5.71963144,2.75141445 5.67,2.76 L5.65,2.76 Z" id="Shape" fill="#C2A21F" fill-rule="nonzero"></path>
                <polygon id="Shape" fill="#C2A21F" fill-rule="nonzero" points="5.66 2.63 5.61 2.63 5.55 2.56 5.59 2.57 5.63 2.59"></polygon>
                <polygon id="Shape" fill="#C2A21F" fill-rule="nonzero" points="5.69 2.64 5.61 2.64 5.51 2.54 5.64 2.57 5.69 2.64"></polygon>
                <polygon id="Shape" fill="#C2A21F" fill-rule="nonzero" points="5.93 2.61 6.04 2.53 6 2.52 5.96 2.56 5.92 2.56"></polygon>
                <polygon id="Shape" points="5.93 2.61 6.04 2.53 6 2.52 5.96 2.56 5.92 2.56"></polygon>
                <polygon id="Shape" fill="#C2A21F" fill-rule="nonzero" points="5.87 2.62 5.71 2.62 5.71 2.61 5.77 2.6 5.78 2.58 5.8 2.58 5.81 2.6 5.87 2.61"></polygon>
                <polygon id="Shape" fill="#C2A21F" fill-rule="nonzero" points="5.7 2.64 5.7 2.61 5.77 2.59 5.74 2.61 5.79 2.61 5.78 2.59 5.87 2.59 5.88 2.62 5.87 2.63 5.7 2.64"></polygon>
                <polygon id="Shape" fill="#C2A21F" fill-rule="nonzero" points="5.86 2.56 5.81 2.56 5.8 2.53"></polygon>
                <polygon id="Shape" points="5.86 2.56 5.81 2.56 5.8 2.53"></polygon>
                <polygon id="Shape" fill="#C2A21F" fill-rule="nonzero" points="5.77 2.53 5.77 2.56 5.71 2.57"></polygon>
                <polygon id="Shape" points="5.77 2.53 5.77 2.56 5.71 2.57"></polygon>
                <polygon id="Shape" fill="#C2A21F" fill-rule="nonzero" points="5.46 3.08 5.49 3.01 5.47 2.96 5.45 3.03"></polygon>
                <polygon id="Shape" points="5.46 3.08 5.49 3.01 5.47 2.96 5.45 3.03"></polygon>
                <polygon id="Shape" fill="#C2A21F" fill-rule="nonzero" points="5.52 3.12 5.55 3.03 5.49 3.1"></polygon>
                <polygon id="Shape" fill="#C2A21F" fill-rule="nonzero" points="5.53 3.14 5.48 3.11 5.54 3.03 5.5 3.11 5.52 3.12 5.51 3.11 5.54 3.02 5.53 3.14"></polygon>
                <path d="M6.87,3.3 L6.82,3.36 L6.82,3.41 L6.93,3.41 C6.94633213,3.41472256 6.96366787,3.41472256 6.98,3.41 C6.98101721,3.39334885 6.98101721,3.37665115 6.98,3.36 L6.87,3.3 Z" id="Shape" fill="#CB0028" fill-rule="nonzero"></path>
                <path d="M6.81,3.42 L6.81,3.36 L6.87,3.29 L7,3.29 L7,3.35 C7,3.35 7,3.35 6.94,3.35 L6.81,3.42 Z" id="Shape" fill="#D30028" fill-rule="nonzero"></path>
                <path d="M7.13,3.45 L7.08,3.45 L7.08,3.5 L7.18,3.5 C7.18,3.5 7.18,3.5 7.18,3.5 L7.13,3.45 Z" id="Shape" fill="#CB0028" fill-rule="nonzero"></path>
                <path d="M7.18,3.55 L7.08,3.55 L7.08,3.49 L7.13,3.49 L7.25,3.49 C7.25,3.49 7.25,3.49 7.2,3.49 L7.18,3.55 Z" id="Shape" fill="#D30028" fill-rule="nonzero"></path>
                <path d="M7.58,3.32 L7.53,3.37 L7.64,3.37 C7.64,3.37 7.64,3.37 7.64,3.37 C7.64,3.37 7.64,3.37 7.64,3.37 L7.58,3.32 Z" id="Shape" fill="#CB0028" fill-rule="nonzero"></path>
                <path d="M7.64,3.43 L7.53,3.43 L7.59,3.37 L7.7,3.37 L7.7,3.42 C7.7,3.42 7.7,3.42 7.7,3.42 L7.64,3.43 Z" id="Shape" fill="#D30028" fill-rule="nonzero"></path>
                <path d="M7.89,3.42 L7.83,3.47 L7.83,3.52 L7.94,3.52 C7.95609834,3.52615535 7.97390166,3.52615535 7.99,3.52 C7.99,3.52 7.99,3.52 7.99,3.52 L7.89,3.42 Z" id="Shape" fill="#CB0028" fill-rule="nonzero"></path>
                <path d="M7.95,3.54 L7.83,3.54 L7.83,3.47 L7.89,3.42 L8.01,3.42 L8.01,3.48 C7.9937614,3.48534211 7.9762386,3.48534211 7.96,3.48 L7.95,3.54 Z" id="Shape" fill="#D30028" fill-rule="nonzero"></path>
                <path d="M7.13,2.07 L7.34,2.21 C7.34,2.21 7.46,2.21 7.5,2.21 C7.54,2.21 7.6,2.21 7.65,2.27 C7.74615315,2.28409113 7.84384685,2.28409113 7.94,2.27 C8.01792785,2.25276123 8.09233367,2.22232248 8.16,2.18 C8.08101282,2.19800285 7.99898718,2.19800285 7.92,2.18 C7.85,2.18 7.83,2.18 7.72,2.11 C7.79225388,2.12779436 7.86774612,2.12779436 7.94,2.11 C7.96664199,2.07736708 7.98698741,2.04006714 8,2 C7.94875626,2.0211135 7.89124374,2.0211135 7.84,2 C7.77,2 7.7,2 7.65,2 C7.6,2 7.6,2 7.55,2 C7.47375456,1.98863448 7.39624544,1.98863448 7.32,2 C7.2613979,2.01252286 7.20862704,2.04418537 7.17,2.09 L7.13,2.07 Z" id="Shape" fill="#CB0028" fill-rule="nonzero"></path>
                <path d="M7.89,2.31 L7.65,2.31 L7.57,2.31 L7.5,2.31 C7.45211606,2.28942787 7.39788394,2.28942787 7.35,2.31 L7.13,2.17 C7.14665859,2.09091458 7.20360425,2.02637616 7.28,2 C7.35960676,1.98878234 7.44039324,1.98878234 7.52,2 L7.62,2 L7.7,2 L7.8,2 C7.86238652,2.0337842 7.93761348,2.0337842 8,2 C7.97035253,2.00650411 7.93964747,2.00650411 7.91,2 C7.86742485,2.01146379 7.82257515,2.01146379 7.78,2 C7.82263423,2.01100811 7.86736577,2.01100811 7.91,2 L8,2 C7.93452932,2.01785859 7.86547068,2.01785859 7.8,2 L7.69,2 L7.61,2 L7.51,2 C7.43371406,1.98919457 7.35628594,1.98919457 7.28,2 C7.22882324,2.01109043 7.18296296,2.03931214 7.15,2.08 L7.35,2.22 C7.35,2.22 7.43,2.22 7.51,2.22 L7.59,2.22 L7.66,2.22 C7.75601654,2.23585498 7.85398346,2.23585498 7.95,2.22 C8.01759031,2.21044245 8.08236466,2.18657821 8.14,2.15 C8.06113902,2.16909153 7.97886098,2.16909153 7.9,2.15 L7.81,2.15 L7.7,2.15 L7.79,2.15 L7.88,2.15 C7.95562501,2.16787291 8.03437499,2.16787291 8.11,2.15 L8.11,2.2 C8.05175384,2.23532706 7.98724342,2.25909406 7.92,2.27 L7.89,2.31 Z" id="Shape" fill="#BA0019" fill-rule="nonzero"></path>
                <path d="M7.17,2 L7.23,2 C7.23,2 7.23,2 7.23,2 L7.17,2 Z" id="Shape" fill="#82373B" fill-rule="nonzero"></path>
                <path d="M7.17,2 L7.23,2 C7.23,2 7.23,2 7.23,2 L7.17,2 Z" id="Shape"></path>
                <path d="M7.35,2.2 C7.35555993,2.21961359 7.35555993,2.24038641 7.35,2.26 L7.35,2.2 Z" id="Shape" fill="#82373B" fill-rule="nonzero"></path>
                <path d="M7.35,2.2 C7.35555993,2.21961359 7.35555993,2.24038641 7.35,2.26 L7.35,2.2 Z" id="Shape"></path>
                <path d="M7.39,2 L7.39,2.05 L7.39,2.11 C7.38785096,2.09005773 7.38785096,2.06994227 7.39,2.05 L7.39,2 Z" id="Shape" fill="#82373B" fill-rule="nonzero"></path>
                <path d="M7.39,2 L7.39,2.05 L7.39,2.11 C7.38785096,2.09005773 7.38785096,2.06994227 7.39,2.05 L7.39,2 Z" id="Shape"></path>
                <polygon id="Shape" fill="#82373B" fill-rule="nonzero" points="7.56 1.98 7.57 2.08 7.58 1.99"></polygon>
                <polygon id="Shape" points="7.56 1.98 7.57 2.08 7.58 1.99"></polygon>
                <path d="M7.53,2.19 L7.53,2.09 C7.53323532,2.10650966 7.53323532,2.12349034 7.53,2.14 L7.53,2.19 Z" id="Shape" fill="#82373B" fill-rule="nonzero"></path>
                <path d="M7.53,2.19 L7.53,2.09 C7.53323532,2.10650966 7.53323532,2.12349034 7.53,2.14 C7.53615535,2.15609834 7.53615535,2.17390166 7.53,2.19 Z" id="Shape"></path>
                <path d="M7.7,2.15 C7.70378355,2.16982106 7.70378355,2.19017894 7.7,2.21 C7.7,2.21 7.7,2.21 7.7,2.21 C7.7,2.21 7.7,2.21 7.7,2.21 C7.70614144,2.19047147 7.70614144,2.16952853 7.7,2.15 Z" id="Shape" fill="#82373B" fill-rule="nonzero"></path>
                <path d="M7.7,2.15 C7.70378355,2.16982106 7.70378355,2.19017894 7.7,2.21 C7.7,2.21 7.7,2.21 7.7,2.21 C7.7,2.21 7.7,2.21 7.7,2.21 C7.70614144,2.19047147 7.70614144,2.16952853 7.7,2.15 Z" id="Shape"></path>
                <path d="M7.74,2.12 C7.74,2.12 7.74,2.12 7.74,2.05 C7.74,2.05 7.74,2.05 7.74,2.11 L7.74,2.12 Z" id="Shape" fill="#82373B" fill-rule="nonzero"></path>
                <path d="M7.74,2.12 C7.74,2.12 7.74,2.12 7.74,2.05 C7.74,2.05 7.73,2.09 7.74,2.12 Z" id="Shape"></path>
                <polygon id="Shape" fill="#82373B" fill-rule="nonzero" points="7.86 2.1 7.86 2.05 7.88 2.05 7.88 2.09 7.86 2.1"></polygon>
                <polygon id="Shape" points="7.86 2.1 7.86 2.05 7.88 2.05 7.88 2.09"></polygon>
                <polygon id="Shape" fill="#82373B" fill-rule="nonzero" points="7.99 2.22 8 2.28 8.02 2.27 8.01 2.22"></polygon>
                <polygon id="Shape" points="7.99 2.22 8 2.28 8.02 2.27 8.01 2.22"></polygon>
                <path d="M7.12,2.08 C7.08384356,2.09410663 7.05257263,2.11842847 7.03,2.15 L6.89,2.08 C6.8774957,2.10165808 6.8774957,2.12834192 6.89,2.15 C6.91173294,2.18726223 6.94273777,2.21826706 6.98,2.24 C6.98292962,2.27326896 6.98292962,2.30673104 6.98,2.34 L6.93,2.44 C6.93,2.44 6.93,2.49 6.93,2.5 L7,2.5 C6.99720266,2.51654929 6.99720266,2.53345071 7,2.55 C7,2.55 7,2.55 7,2.55 L7.05,2.55 L7,2.72 C7,2.72 7,2.78 7,2.78 C7,2.78 7,2.78 7,2.83 C7,2.88 7,2.83 7,2.83 C6.97722165,2.88437761 6.97722165,2.94562239 7,3 C6.99492017,3.0331398 6.99492017,3.0668602 7,3.1 C7,3.1 7,3.1 6.95,3.18 C6.9,3.26 6.9,3.23 6.88,3.31 L7,3.31 C7,3.31 7,3.31 7,3.31 C7.00686292,3.29058875 7.00686292,3.26941125 7,3.25 C7.03507881,3.20322825 7.06523848,3.15296213 7.09,3.1 L7.16,3.1 L7.21,3.1 C7.20266615,3.13966384 7.20266615,3.18033616 7.21,3.22 L7.21,3.35 C7.21,3.35 7.21,3.35 7.15,3.48 L7.26,3.48 C7.26,3.48 7.31,3.48 7.32,3.43 L7.32,3.28 C7.32,3.22 7.43,3.16 7.43,3.1 L7.49,3.1 C7.49,3.1 7.49,3.1 7.49,3.1 L7.54,3.1 C7.54,3.1 7.54,3.1 7.54,3.1 L7.62,3.1 L7.53,3.25 C7.53,3.25 7.53,3.25 7.53,3.25 C7.53,3.25 7.53,3.25 7.53,3.25 L7.64,3.25 L7.69,3.25 C7.69,3.25 7.69,3.25 7.69,3.19 L7.82,3.06 C7.85412667,3.06740687 7.88333394,3.08931232 7.9,3.12 C7.91033347,3.16609463 7.91033347,3.21390537 7.9,3.26 L7.84,3.37 L7.95,3.37 L8.02,3.32 C8.05474307,3.26885266 8.09885266,3.22474307 8.15,3.19 L8.15,3.11 C8.15,3.11 8.15,3.11 8.15,3.11 C8.14570567,3.08350622 8.14570567,3.05649378 8.15,3.03 C8.15,3.03 8.15,2.96 8.15,2.92 C8.15,2.88 8.22,2.82 8.22,2.79 L8.22,2.69 L8.22,2.48 L8.16,2.48 C8.12764791,2.49143819 8.09235209,2.49143819 8.06,2.48 L8,2.48 C7.96825455,2.49455051 7.93174545,2.49455051 7.9,2.48 L7.85,2.48 L7.8,2.48 C7.75715372,2.47081186 7.71284628,2.47081186 7.67,2.48 C7.62736577,2.46899189 7.58263423,2.46899189 7.54,2.48 C7.48309983,2.43929249 7.43819767,2.3840283 7.41,2.32 C7.49208551,2.30642175 7.56271501,2.25437895 7.6,2.18 L7.44,2.18 L7.12,2.08 Z" id="Shape" fill="#FBFC2B" fill-rule="nonzero"></path>
                <path d="M7.25,3.47 L7.13,3.47 C7.11699972,3.43448566 7.11699972,3.39551434 7.13,3.36 L7.13,3.18 C7.12487371,3.1535797 7.12487371,3.1264203 7.13,3.1 L7.06,3.1 C7.0330461,3.15176569 7.00299142,3.20185682 6.97,3.25 C6.97378355,3.26982106 6.97378355,3.29017894 6.97,3.31 L6.85,3.31 C6.83780944,3.27434658 6.83780944,3.23565342 6.85,3.2 L6.85,3.14 C6.84676468,3.12349034 6.84676468,3.10650966 6.85,3.09 L6.85,3.15 L6.85,3.21 C6.84055489,3.24266426 6.84055489,3.27733574 6.85,3.31 L6.97,3.31 C6.97467852,3.29027361 6.97467852,3.26972639 6.97,3.25 C7.00305415,3.20189711 7.03311116,3.15180208 7.06,3.1 C7.11,3.1 7.14,3.1 7.18,3.1 C7.17322578,3.12623645 7.17322578,3.15376355 7.18,3.18 L7.18,3.31 C7.15099919,3.34858324 7.13054574,3.39289904 7.12,3.44 L7.23,3.44 L7.23,3.3 C7.24096047,3.26716737 7.25791367,3.2366516 7.28,3.21 C7.30893068,3.18435557 7.32684287,3.1485312 7.33,3.11 C7.32373981,3.14759357 7.30631874,3.1824357 7.28,3.21 C7.27399905,3.23632906 7.27399905,3.26367094 7.28,3.29 L7.28,3.42 L7.22,3.47 L7.25,3.47 Z M8.01,3.47 L7.9,3.47 L8,3.28 C8.00890928,3.23375856 8.00890928,3.18624144 8,3.14 C7.98301686,3.11587253 7.95833132,3.09824001 7.93,3.09 L7.8,3.22 L7.8,3.28 L7.69,3.28 L7.78,3.28 L7.83,3.28 L7.83,3.22 L7.96,3.09 C7.9984404,3.09284982 8.03258463,3.11561264 8.05,3.15 C8.06084019,3.19941245 8.06084019,3.25058755 8.05,3.3 L7.98,3.41 L8.08,3.41 L8.14,3.36 L8.14,3.32 C8.16730352,3.2723299 8.20487953,3.23133789 8.25,3.2 C8.25338575,3.17009553 8.25338575,3.13990447 8.25,3.11 C8.23768929,3.07780332 8.23768929,3.04219668 8.25,3.01 C8.25,3.01 8.25,2.92 8.25,2.87 C8.25696325,2.83555298 8.27443123,2.80411062 8.3,2.78 C8.3,2.78 8.3,2.73 8.3,2.71 L8.3,2.57 L8.25,2.57 L8.19,2.57 C8.15448566,2.58300028 8.11551434,2.58300028 8.08,2.57 L8,2.57 C7.96486908,2.58500809 7.92513092,2.58500809 7.89,2.57 L7.84,2.57 L7.79,2.57 L7.69,2.57 L7.54,2.57 C7.48343124,2.52894131 7.43860925,2.47377579 7.41,2.41 C7.53,2.41 7.57,2.34 7.6,2.26 L7.45,2.26 L7.22,2.11 L7.16,2.11 C7.17901876,2.08143819 7.20725541,2.0602607 7.24,2.05 L7.47,2.2 L7.63,2.2 C7.63,2.29 7.55,2.32 7.44,2.36 C7.47514828,2.41364816 7.51909883,2.46097953 7.57,2.5 C7.60601535,2.49022624 7.64398465,2.49022624 7.68,2.5 L7.82,2.5 L7.87,2.5 L7.92,2.5 C7.952,2.51333333 7.988,2.51333333 8.02,2.5 L8.1,2.5 C8.13273534,2.5089293 8.16726466,2.5089293 8.2,2.5 L8.26,2.5 L8.26,2.6 L8.26,2.66 L8.26,2.74 C8.2513887,2.76938205 8.2513887,2.80061795 8.26,2.83 C8.26,2.83 8.26,2.92 8.26,2.94 C8.24971846,2.97594592 8.24971846,3.01405408 8.26,3.05 C8.26,3.05 8.26,3.05 8.26,3.15 C8.21038444,3.19041272 8.16663181,3.23753094 8.13,3.29 L8.13,3.36 L8,3.45 L8.01,3.47 Z M7.61,3.29 L7.71,3.14 C7.69047147,3.14614144 7.66952853,3.14614144 7.65,3.14 C7.65,3.14 7.58,3.14 7.56,3.14 L7.61,3.14 L7.69,3.14 L7.59,3.34 L7.61,3.29 Z M7,3.06 C6.99698293,3.04011378 6.99698293,3.01988622 7,3 C6.98541298,2.96132988 6.98541298,2.91867012 7,2.88 C7,2.88 7,2.88 7,2.88 C7,2.88 7,2.88 7,2.88 C6.98541298,2.91867012 6.98541298,2.96132988 7,3 L7,3.06 Z M7,2.76 C7,2.76 7,2.76 7,2.76 L7,2.66 L7.06,2.6 L7,2.6 L7,2.73 C7,2.73 7,2.73 7,2.73 L7,2.76 Z M7.08,2.56 L6.98,2.56 C6.96497863,2.53908426 6.96497863,2.51091574 6.98,2.49 L6.98,2.44 C6.98465217,2.40682899 6.98465217,2.37317101 6.98,2.34 C6.94582838,2.32207567 6.91792433,2.29417162 6.9,2.26 C6.88570938,2.23524791 6.88570938,2.20475209 6.9,2.18 L6.99,2.18 L6.9,2.18 C6.89099407,2.19898617 6.89099407,2.22101383 6.9,2.24 C6.91982388,2.27544692 6.94712172,2.30615699 6.98,2.33 C6.98597069,2.3664236 6.98597069,2.4035764 6.98,2.44 L6.98,2.49 C6.98,2.49 6.98,2.49 6.98,2.54 L7,2.54 L7,2.62 L7.08,2.56 Z" id="Shape" fill="#E8D629" fill-rule="nonzero"></path>
                <polygon id="Shape" fill="#624E0F" fill-rule="nonzero" points="7.06 2.28 7.06 2.28 7.06 2.28 7.06 2.28 7.01 2.28 6.94 2.28"></polygon>
                <polygon id="Shape" fill="#624E0F" fill-rule="nonzero" points="7.13 2.32 7.06 2.32 7.06 2.32 7.13 2.32 7.13 2.32 7.13 2.32 7.07 2.32 7.12 2.32 7.12 2.32 7.12 2.32 7.12 2.32 7.06 2.32"></polygon>
                <path d="M7.14,2.81 C7.1478889,2.76702571 7.1478889,2.72297429 7.14,2.68 C7.14615406,2.72311484 7.14615406,2.76688516 7.14,2.81 Z" id="Shape" fill="#C2A21F" fill-rule="nonzero"></path>
                <path d="M7.14,2.81 C7.1478889,2.76702571 7.1478889,2.72297429 7.14,2.68 C7.14615406,2.72311484 7.14615406,2.76688516 7.14,2.81 Z" id="Shape"></path>
                <path d="M7.41,2.81 C7.41,2.81 7.41,2.81 7.41,2.81 L7.41,2.73 C7.41,2.73 7.41,2.83 7.41,2.84 L7.41,2.81 Z" id="Shape" fill="#C2A21F" fill-rule="nonzero"></path>
                <path d="M7.41,2.81 C7.41,2.81 7.41,2.81 7.41,2.81 L7.41,2.73 C7.41,2.73 7.4,2.8 7.41,2.81 Z" id="Shape"></path>
                <path d="M7.55,2.8 C7.54695763,2.76005785 7.54695763,2.71994215 7.55,2.68 L7.55,2.73 C7.55,2.73 7.55,2.73 7.55,2.81 L7.55,2.8 Z" id="Shape" fill="#C2A21F" fill-rule="nonzero"></path>
                <path d="M7.55,2.8 C7.54695763,2.76005785 7.54695763,2.71994215 7.55,2.68 L7.55,2.73 C7.55,2.73 7.55,2.77 7.55,2.8 Z" id="Shape"></path>
                <path d="M7.53,3 L7.58,2.93 C7.58,2.93 7.58,2.83 7.58,2.83 L7.58,2.91 L7.53,3 Z" id="Shape" fill="#C2A21F" fill-rule="nonzero"></path>
                <path d="M7.53,3 C7.53,3 7.53,3 7.53,2.9 L7.53,2.85 L7.53,2.91 L7.53,3 L7.53,2.94 C7.53524052,2.90687264 7.53524052,2.87312736 7.53,2.84 C7.53,2.84 7.53,2.91 7.53,2.91 L7.53,3 Z" id="Shape" fill="#C2A21F" fill-rule="nonzero"></path>
                <path d="M7.67,3 C7.67,3 7.67,2.93 7.67,2.91 L7.67,2.8 C7.69133577,2.86153643 7.69133577,2.92846357 7.67,2.99 L7.67,3 Z" id="Shape" fill="#C2A21F" fill-rule="nonzero"></path>
                <path d="M7.67,3 C7.67,3 7.67,3 7.67,2.94 L7.67,2.8 C7.70050246,2.86317767 7.70050246,2.93682233 7.67,3 Z" id="Shape" fill="#C2A21F" fill-rule="nonzero"></path>
                <path d="M7.76,2.74 C7.73583855,2.70934712 7.71567657,2.67574381 7.7,2.64 L7.76,2.72 L7.76,2.74 Z" id="Shape" fill="#C2A21F" fill-rule="nonzero"></path>
                <path d="M7.76,2.74 C7.73583855,2.70934712 7.71567657,2.67574381 7.7,2.64 L7.76,2.72 L7.76,2.74 Z" id="Shape"></path>
                <path d="M7.91,2.81 C7.90886507,2.78668047 7.90886507,2.76331953 7.91,2.74 C7.9064285,2.71345292 7.9064285,2.68654708 7.91,2.66 C7.91,2.66 7.91,2.76 7.91,2.8 L7.91,2.81 Z" id="Shape" fill="#C2A21F" fill-rule="nonzero"></path>
                <path d="M7.91,2.81 C7.90886507,2.78668047 7.90886507,2.76331953 7.91,2.74 C7.9064285,2.71345292 7.9064285,2.68654708 7.91,2.66 C7.91,2.66 7.91,2.76 7.91,2.8 L7.91,2.81 Z" id="Shape"></path>
                <path d="M8,2.72 L8,2.8 C7.99718035,2.84328747 7.99718035,2.88671253 8,2.93 L8.07,2.93 C8.04027289,2.90658026 8.01341974,2.87972711 7.99,2.85 C7.98727734,2.80641252 7.99064305,2.76265828 8,2.72 Z" id="Shape" fill="#C2A21F" fill-rule="nonzero"></path>
                <path d="M8.06,2.94 C8.06,2.94 8.06,2.88 8.06,2.85 L8.06,2.78 L8.06,2.84 L8.13,2.91 L8.05,2.91 L8.06,2.94 Z" id="Shape" fill="#C2A21F" fill-rule="nonzero"></path>
                <path d="M8.52,2.57 C8.81759871,2.62930494 9.11144191,2.70610487 9.4,2.8 C9.68203792,2.89217526 9.95908032,2.99898679 10.23,3.12 L9.77,4 C9.51,3.9 9.26,3.82 9,3.74 L8.24,3.51 L8.52,2.57 Z" id="Shape" fill="#FFFFFF" fill-rule="nonzero"></path>
                <path d="M9.77,4.06 L9.12,3.84 L9,3.8 L8.48,3.64 L8.24,3.57 L8.51,2.57 C8.80776074,2.62859888 9.10164608,2.70540982 9.39,2.8 C9.67192487,2.89249261 9.94895108,2.9992979 10.22,3.12 L9.76,4.07 L9.77,4.06 Z M8.52,2.58 L8.25,3.58 L8.49,3.64 L9.01,3.8 L9.12,3.8 L9.76,4.02 L10.22,3.09 C9.98,3 9.7,2.88 9.39,2.78 C9.10132724,2.68649659 8.80750705,2.60970268 8.51,2.55 L8.52,2.58 Z" id="Shape" fill="#FFFFFF" fill-rule="nonzero"></path>
                <path d="M8.46,2.79 C8.46,2.79 8.89,2.89 9.3,3.02 C9.71,3.15 10.12,3.32 10.12,3.32 L9.86,3.85 C9.61,3.75 9.35,3.65 9.08,3.57 C8.81,3.49 8.56,3.41 8.29,3.35 L8.46,2.79 Z" id="Shape" fill="#CB0028" fill-rule="nonzero"></path>
                <path d="M9.87,3.86 C9.63,3.76 9.37,3.67 9.1,3.58 C8.83,3.49 8.59,3.42 8.31,3.36 L8.46,2.79 C8.74766425,2.84965667 9.03150408,2.92646039 9.31,3.02 C9.58830371,3.10585224 9.86199976,3.20598494 10.13,3.32 C10.13,3.32 9.72,3.16 9.31,3.03 C8.9,2.9 8.47,2.8 8.46,2.8 L8.31,3.36 C8.57423692,3.41738324 8.83472198,3.49085338 9.09,3.58 C9.36,3.67 9.62,3.76 9.86,3.85 L10.12,3.32 L9.86,3.86 L9.87,3.86 Z" id="Shape" fill="#D30028" fill-rule="nonzero"></path>
                <path d="M8.5,3.05 C8.53645676,3.04049291 8.57052028,3.02346115 8.6,3 L8.75,3 L8.85,3.05 L8.98,3.1 L9.31,3.1 L9.45,3.1 C9.48488047,3.1215474 9.51269063,3.15283384 9.53,3.19 L9.73,3.19 L9.95,3.19 C9.95,3.19 9.95,3.19 9.95,3.19 C9.90524527,3.20889168 9.85475473,3.20889168 9.81,3.19 C9.71,3.19 9.6,3.13 9.55,3.19 C9.5723416,3.24443891 9.61556109,3.2876584 9.67,3.31 L9.67,3.45 C9.68964961,3.41596588 9.68964961,3.37403412 9.67,3.34 C9.67,3.34 9.67,3.34 9.61,3.34 C9.55600515,3.3319712 9.50463682,3.31142387 9.46,3.28 C9.44514803,3.30202092 9.42433814,3.31936249 9.4,3.33 L9.34,3.33 L9.19,3.33 L9.34,3.33 L9.34,3.41 L9.44,3.41 C9.44,3.34 9.44,3.3 9.32,3.28 L9,3.28 C8.91070246,3.26409762 8.81929754,3.26409762 8.73,3.28 L8.61,3.28 C8.61,3.28 8.61,3.28 8.61,3.28 C8.66908522,3.29481711 8.73091478,3.29481711 8.79,3.28 C8.79,3.28 8.79,3.28 8.79,3.28 L8.63,3.28 L8.55,3.28 L8.6,3.28 C8.65593954,3.29283809 8.71406046,3.29283809 8.77,3.28 L8.65,3.28 C8.65,3.28 8.65,3.28 8.65,3.23 L8.5,3.05 Z" id="Shape" fill="#000000" fill-rule="nonzero"></path>
                <path d="M9.65,3.71 C9.66500809,3.67486908 9.66500809,3.63513092 9.65,3.6 C9.65,3.6 9.65,3.6 9.59,3.6 C9.53949455,3.59052 9.49169617,3.57003498 9.45,3.54 L9.59,3.54 C9.59,3.54 9.59,3.54 9.65,3.54 C9.71,3.54 9.65,3.63 9.65,3.67 L9.65,3.54 C9.59417105,3.51979471 9.55020529,3.47582895 9.53,3.42 C9.56594592,3.40971846 9.60405408,3.40971846 9.64,3.42 L9.8,3.42 C9.84138064,3.43839745 9.88861936,3.43839745 9.93,3.42 C9.85670501,3.39047099 9.77893925,3.37356539 9.7,3.37 L9.49,3.37 C9.47222222,3.33314385 9.44451768,3.30197625 9.41,3.28 L9.27,3.28 L8.94,3.28 L8.87,3.28 L8.81,3.28 L8.76,3.28 L8.76,3 L8.6,3 C8.58301686,3.02412747 8.55833132,3.04175999 8.53,3.05 C8.53,3.05 8.53,3.1 8.53,3.11 L8.65,3.11 C8.59451868,3.1263914 8.53548132,3.1263914 8.48,3.11 C8.6,3.11 8.65,3.11 8.67,3.11 C8.67,3.11 8.57,3.11 8.54,3.11 C8.51,3.11 8.54,3.11 8.54,3.05 C8.56041302,3.03755598 8.57755598,3.02041302 8.59,3 L8.75,3 L8.81,3 L8.87,3 L9.19,3 C9.2429527,3.00596502 9.29405883,3.0230004 9.34,3.05 C9.3778688,3.07093663 9.40906337,3.1021312 9.43,3.14 L9.63,3.14 L9.85,3.14 C9.82014196,3.19903032 9.75513908,3.23153176 9.69,3.22 L9.53,3.22 L9.44,3.22 C9.46123295,3.26939637 9.50060363,3.30876705 9.55,3.33 L9.55,3.48 L9.65,3.71 Z M9.33,3.52 L9.26,3.52 L9.11,3.52 C9.11,3.52 9.11,3.52 9.17,3.52 L9.27,3.52 L9.33,3.52 L9.27,3.52 L9.27,3.57 L9.11,3.57 C9.11,3.57 9.26,3.57 9.26,3.57 L9.32,3.57 L9.37,3.52 C9.35139919,3.54493829 9.32748973,3.56543212 9.3,3.58 L9.33,3.52 Z M9.33,3.38 C9.33,3.32 9.33,3.29 9.21,3.27 L9,3.27 L8.88,3.27 L8.73,3.27 L8.61,3.27 L8.56,3.27 L8.68,3.27 L8.84,3.27 L9,3.27 L9.3,3.27 C9.39,3.27 9.41,3.33 9.42,3.39 L9.33,3.38 Z M8.56,3.31 L8.68,3.31 L8.6,3.31 L8.5,3.31 C8.5,3.31 8.42,3.31 8.42,3.31 L8.49,3.31 L8.65,3.31 C8.60742485,3.32146379 8.56257515,3.32146379 8.52,3.31 L8.56,3.31 Z" id="Shape" fill="#000000" fill-rule="nonzero"></path>
                <path d="M9.13,3.39 L9.27,3.39 L9.37,3.39 C9.37,3.32 9.37,3.28 9.25,3.26 L9,3.26 L9.17,3.32 L9.13,3.39 Z" id="Shape" fill="#FFFFFF" fill-rule="nonzero"></path>
                <path d="M9.27,3.42 L9.12,3.42 L9,3.33 L9.3,3.33 C9.39,3.33 9.41,3.39 9.42,3.45 C9.42,3.39 9.42,3.36 9.3,3.34 L9,3.34 L9.13,3.39 L9.29,3.39 L9.36,3.39 L9.29,3.39 L9.27,3.42 Z" id="Shape" fill="#000000" fill-rule="nonzero"></path>
                <path d="M3.41,3.88 L2.89,1.94 L3.69,0.94 L4.8,1.58 L5,3.67 C4.46984736,3.71065366 3.94236611,3.78076193 3.42,3.88 L3.41,3.88 Z" id="Shape" fill="#1E2788" fill-rule="nonzero"></path>
                <path d="M3.4,3.89 L2.88,1.95 L3.68,0.95 L4.8,1.58 L5,3.67 C4.42,3.72 4,3.78 3.42,3.89 L3.4,3.89 Z M3.68,1 L2.89,2 L3.41,3.93 C3.9346126,3.8107336 4.46542445,3.72059574 5,3.66 L4.8,1.66 L3.68,1 Z" id="Shape" fill="#160080" fill-rule="nonzero"></path>
                <polygon id="Shape" fill="#FBFC2B" fill-rule="nonzero" points="1.54 2.27 1.73 2.41 1.7 2.67 1.94 2.57 2.14 2.72 2.16 2.48 2.37 2.4 2.2 2.24 2.24 2 1.99 2.09 1.82 1.94 1.78 2.17"></polygon>
                <path d="M2.15,2.73 L1.94,2.58 L1.7,2.68 L1.7,2.41 L1.51,2.28 L1.75,2.17 C1.74251139,2.09685785 1.74251139,2.02314215 1.75,1.95 L1.94,2.09 L2.23,2 L2.23,2.25 L2.4,2.4 L2.19,2.49 L2.19,2.74 L2.15,2.73 Z M1.94,2.56 L2.13,2.7 L2.13,2.48 L2.34,2.39 L2.17,2.25 L2.17,2 L2,2.1 L1.82,2 C1.82,2 1.82,2.22 1.82,2.22 L1.58,2.32 L1.77,2.45 L1.77,2.72 L2,2.61 L1.94,2.56 Z" id="Shape" fill="#F4C627" fill-rule="nonzero"></path>
                <polygon id="Shape" fill="#F4C427" fill-rule="nonzero" points="1.55 2.27 2.37 2.4 2.17 2.48 2 2.34 2.17 2.71 1.97 2.57 1.97 2.35 1.71 2.68 1.71 2.42"></polygon>
                <polygon id="Shape" fill="#F4C627" fill-rule="nonzero" points="1.78 2.17 1.96 2.34 1.82 1.94"></polygon>
                <polygon id="Shape" fill="#F4C627" fill-rule="nonzero" points="2 2.1 2 2.34 2.23 2"></polygon>
                <polygon id="Shape" fill="#FBFC2B" fill-rule="nonzero" points="9.33 1.94 9.38 2.17 9.18 2.34 9.43 2.42 9.48 2.66 9.66 2.49 9.87 2.56 9.85 2.33 10.03 2.17 9.79 2.09 9.75 1.87 9.57 2.01"></polygon>
                <path d="M9.48,2.67 L9.43,2.42 L9.18,2.35 L9.38,2.16 L9.33,1.93 L9.58,2 L9.75,1.85 C9.75712557,1.9265011 9.75712557,2.0034989 9.75,2.08 L9.99,2.16 L9.81,2.33 L9.81,2.55 L9.59,2.49 L9.41,2.66 L9.48,2.67 Z M9.33,1.94 L9.39,2.17 L9.19,2.35 L9.44,2.41 L9.49,2.64 L9.66,2.48 L9.87,2.55 L9.87,2.33 L10,2.17 L9.76,2.09 C9.76,2.09 9.76,1.88 9.76,1.87 C9.70621514,1.92317417 9.64945731,1.97325461 9.59,2.02 L9.34,1.95 L9.33,1.94 Z" id="Shape" fill="#F4C627" fill-rule="nonzero"></path>
                <polygon id="Shape" fill="#F4C627" fill-rule="nonzero" points="9.33 1.94 9.87 2.56 9.66 2.49 9.6 2.26 9.49 2.65 9.44 2.42 9.6 2.26 9.18 2.34 9.38 2.17"></polygon>
                <polygon id="Shape" fill="#F4C627" fill-rule="nonzero" points="9.57 2.01 9.61 2.25 9.75 1.86"></polygon>
                <polygon id="Shape" fill="#F4C627" fill-rule="nonzero" points="9.78 2.09 9.61 2.25 10 2.17 9.76 2.08"></polygon>
                <path d="M2.89,1.95 C3.18674664,1.80605294 3.50373269,1.70825938 3.83,1.66 C4.16290708,1.63616003 4.49709292,1.63616003 4.83,1.66 L4.83,2.17 C4.52565796,2.16937039 4.22162469,2.18941654 3.92,2.23 C3.60705106,2.24475319 3.29755576,2.30194254 3,2.4 L2.89,1.95 Z" id="Shape" fill="#CB0028" fill-rule="nonzero"></path>
                <path d="M3,2.41 L2.88,2 C3.17550131,1.8509302 3.49277608,1.74967229 3.82,1.7 C4.12297425,1.67912688 4.42702575,1.67912688 4.73,1.7 L4.79,1.7 C4.79,1.7 4.84,2.21 4.84,2.22 L4.76,2.22 C4.47913317,2.21515184 4.19830847,2.2318676 3.92,2.27 C3.60489241,2.30196461 3.29547958,2.37595463 3,2.49 L3,2.41 Z M4.78,1.61 L4.72,1.61 C4.41706199,1.58809881 4.11293801,1.58809881 3.81,1.61 C3.48654104,1.65655277 3.17258938,1.75445168 2.88,1.9 L3,2.34 C3.29161995,2.22468429 3.59790818,2.15063658 3.91,2.12 C4.18829296,2.08170976 4.46912984,2.06499328 4.75,2.07 L4.82,2.07 C4.82,2.07 4.82,1.57 4.82,1.57 L4.78,1.61 Z" id="Shape" fill="#D30028" fill-rule="nonzero"></path>
                <path d="M3.13,2.85 L3.28,3.39 C3.55038353,3.32252674 3.82408446,3.26912168 4.1,3.23 C4.38,3.23 4.67,3.17 4.94,3.15 L4.94,2.63 C4.64050192,2.6054581 4.33949808,2.6054581 4.04,2.63 C3.74748746,2.67341495 3.45960183,2.7437126 3.18,2.84 L3.13,2.85 Z" id="Shape" fill="#CB0028" fill-rule="nonzero"></path>
                <path d="M3.27,3.39 C3.21225956,3.21305421 3.16550387,3.03271083 3.13,2.85 C3.4122291,2.74878975 3.7035855,2.67511342 4,2.63 C4.29951413,2.60585381 4.60048587,2.60585381 4.9,2.63 L4.95,3.16 C4.69,3.16 4.39,3.16 4.11,3.25 C3.83401721,3.28872129 3.56029533,3.34213044 3.29,3.41 L3.27,3.39 Z M4.54,2.62 C4.36019462,2.6081624 4.17980538,2.6081624 4,2.62 C3.70748178,2.65837743 3.41943507,2.72536504 3.14,2.82 L3.28,3.34 C3.55023641,3.27186646 3.82397257,3.21845453 4.1,3.18 C4.38,3.18 4.68,3.12 4.94,3.1 L4.89,2.58 L4.54,2.62 Z" id="Shape" fill="#D30028" fill-rule="nonzero"></path>
                <path d="M1.83,4.5 L9.73,4.5 L9.73,9.56 C9.43412249,11.5158345 7.75308797,12.9616899 5.775,12.9616899 C3.79691203,12.9616899 2.11587751,11.5158345 1.82,9.56 L1.83,4.5 Z" id="Shape" fill="#FFFFFF" fill-rule="nonzero"></path>
                <path d="M5.76,13 C3.74874954,12.9909028 2.04730386,11.510645 1.76,9.52 L1.76,4.52 L9.68,4.52 L9.68,9.61 C9.37436171,11.4806355 7.81219158,12.8890814 5.92,13 L5.76,13 Z M9.7,4.5 L1.83,4.5 L1.83,9.5 C2.18796567,11.3882014 3.83816649,12.7549497 5.76,12.7549497 C7.68183351,12.7549497 9.33203433,11.3882014 9.69,9.5 L9.69,4.5 L9.7,4.5 Z" id="Shape" fill="#CB0028" fill-rule="nonzero"></path>
                <path d="M2,4.68 L9.56,4.68 L9.56,9.53 C9.3023879,11.3747563 7.7518373,12.7647594 5.89,12.82 C3.94596257,12.8504762 2.28110344,11.433848 2,9.51 L2,4.68 Z" id="Shape" fill="#CB0028" fill-rule="nonzero"></path>
                <path d="M5.76,12.85 C3.85872,12.8054743 2.26837092,11.3927706 2,9.51 L2,4.68 L9.6,4.68 L9.6,9.56 C9.33207149,11.4080257 7.78576148,12.8030663 5.92,12.88 L5.76,12.85 Z M9.53,4.68 L2,4.7 L2,9.51 C2.25725898,11.3923355 3.86516604,12.7954371 5.765,12.7954371 C7.66483396,12.7954371 9.27274102,11.3923355 9.53,9.51 L9.53,4.68 Z" id="Shape" fill="#CB0028" fill-rule="nonzero"></path>
                <rect id="Rectangle-path" fill="#FFFFFF" fill-rule="nonzero" x="3.52" y="4.7" width="1.5" height="1.62"></rect>
                <path d="M8,9.56 L8,11.16 L8.85,11.16 C9.18109597,10.6826639 9.39676554,10.1349316 9.48,9.56 L8,9.56 Z" id="Shape" fill="#FFFFFF" fill-rule="nonzero"></path>
                <path d="M8.9,11.17 L8,11.17 L8,9.56 L9.48,9.56 C9.40886807,10.1394845 9.19591293,10.6924809 8.86,11.17 L8.9,11.17 Z M8,9.57 L8,11.16 L8.84,11.16 C9.16940803,10.6864402 9.38188207,10.1415471 9.46,9.57 L8,9.57 Z" id="Shape" fill="#FFFFFF" fill-rule="nonzero"></path>
                <path d="M6.54,11.18 L6.54,12.72 C7.07179077,12.5850889 7.56923699,12.339773 8,12 L8,11.14 L6.54,11.18 Z" id="Shape" fill="#FFFFFF" fill-rule="nonzero"></path>
                <path d="M6.53,12.72 L6.53,11.18 L8,11.18 L8,12 C7.55730368,12.33209 7.04961348,12.5671949 6.51,12.69 L6.53,12.72 Z M8,11.18 L6.54,11.18 L6.54,12.7 C7.0692967,12.5686337 7.56614043,12.3304209 8,12 L8,11.14 L8,11.18 Z" id="Shape" fill="#FFFFFF" fill-rule="nonzero"></path>
                <path d="M3.53,11.18 L3.53,12 C3.97056764,12.3254572 4.46963845,12.56311 5,12.7 L5,11.18 L3.53,11.18 Z" id="Shape" fill="#FFFFFF" fill-rule="nonzero"></path>
                <path d="M5,12.71 C4.46898543,12.569839 3.96990882,12.3287884 3.53,12 L3.53,11.13 L5,11.13 L5,12.67 L5,12.71 Z M5,11.18 L3.53,11.18 L3.53,12 C3.97490793,12.3069242 4.47357741,12.5274243 5,12.65 L5,11.18 Z" id="Shape" fill="#FFFFFF" fill-rule="nonzero"></path>
                <path d="M2,9.56 C2.05917568,10.1315496 2.26974828,10.6769671 2.61,11.14 L3.49,11.14 L3.49,9.54 L2,9.56 Z" id="Shape" fill="#FFFFFF" fill-rule="nonzero"></path>
                <path d="M3.52,11.17 L2.64,11.17 C2.28222482,10.7026516 2.06072134,10.1454319 2,9.56 L3.49,9.56 L3.49,11.17 L3.52,11.17 Z M3.52,9.56 L2,9.56 C2.06478303,10.1288054 2.27866378,10.6704067 2.62,11.13 L3.48,11.13 L3.48,9.56 L3.52,9.56 Z" id="Shape" fill="#FFFFFF" fill-rule="nonzero"></path>
                <rect id="Rectangle-path" fill="#FFFFFF" fill-rule="nonzero" x="2.02" y="6.32" width="1.5" height="1.62"></rect>
                <rect id="Rectangle-path" fill="#FFFFFF" fill-rule="nonzero" x="5.02" y="6.32" width="1.51" height="1.62"></rect>
                <rect id="Rectangle-path" fill="#FFFFFF" fill-rule="nonzero" x="6.53" y="4.69" width="1.5" height="1.62"></rect>
                <rect id="Rectangle-path" fill="#FFFFFF" fill-rule="nonzero" x="8.04" y="6.32" width="1.5" height="1.62"></rect>
                <rect id="Rectangle-path" fill="#FFFFFF" fill-rule="nonzero" x="3.52" y="7.94" width="1.5" height="1.62"></rect>
                <rect id="Rectangle-path" fill="#FFFFFF" fill-rule="nonzero" x="6.53" y="7.94" width="1.5" height="1.62"></rect>
                <rect id="Rectangle-path" fill="#FFFFFF" fill-rule="nonzero" x="5.02" y="9.55" width="1.51" height="1.62"></rect>
                <path d="M7.27,2.79 C7.27,2.79 7.27,2.72 7.27,2.71 L7.27,2.6 C7.30826597,2.65558656 7.32594798,2.72277819 7.32,2.79 L7.27,2.79 Z" id="Shape" fill="#C2A21F" fill-rule="nonzero"></path>
                <path d="M7.27,2.8 C7.27,2.8 7.27,2.8 7.27,2.74 L7.27,2.61 C7.32145613,2.65910305 7.34729976,2.72925004 7.34,2.8 L7.27,2.8 Z" id="Shape" fill="#C2A21F" fill-rule="nonzero"></path>
            </g>
        </g>
    </g>
</svg>