<?xml version="1.0" encoding="UTF-8"?>
<svg width="34px" height="20px" viewBox="0 0 34 20" version="1.1" xmlns="http://www.w3.org/2000/svg" xmlns:xlink="http://www.w3.org/1999/xlink">
    <!-- Generator: Sketch 49 (51002) - http://www.bohemiancoding.com/sketch -->
    <title>HTG</title>
    <desc>Created with Sketch.</desc>
    <defs></defs>
    <g id="Page-1" stroke="none" stroke-width="1" fill="none" fill-rule="evenodd">
        <g id="HTG">
            <rect id="Rectangle-path" fill="#1F189B" fill-rule="nonzero" x="0" y="0" width="33.56" height="19.58"></rect>
            <rect id="Rectangle-path" fill="#C0003B" fill-rule="nonzero" x="0" y="9.79" width="33.56" height="9.79"></rect>
            <rect id="Rectangle-path" fill="#FFFFFF" fill-rule="nonzero" x="13.61" y="7.26" width="6.35" height="5.06"></rect>
            <g id="Group" transform="translate(13.000000, 7.000000)">
                <path d="M5.06,3.92 L3.76,3.92 L2.47,3.92 C2.47,3.92 1.81,4.16 1.54,4.22 C1.27,4.28 1.3,4.36 1.1,4.41 C1.00545468,4.43915084 0.908350596,4.45924135 0.81,4.47 C0.736123081,4.48637592 0.667426888,4.52072402 0.61,4.57 L0.61,5.27 L7,5.27 L7,4.6 L6.8,4.51 C6.69607176,4.46846431 6.58908588,4.43503122 6.48,4.41 C6.27,4.41 6.31,4.27 6.04,4.22 C5.72227897,4.1249808 5.41153291,4.00803336 5.11,3.87 L5.06,3.92 Z" id="Shape" fill="#2C6C1E"></path>
                <path d="M7,5.32 L0.61,5.32 L0.61,4.61 C0.669450928,4.55599186 0.741750789,4.51812051 0.82,4.5 L0.99,4.5 L1.11,4.5 C1.17517172,4.48695351 1.23664424,4.45963239 1.29,4.42 C1.3670545,4.36382719 1.45602748,4.32618478 1.55,4.31 C1.86487233,4.22578649 2.17527102,4.12565788 2.48,4.01 L3.77,4.01 L5.07,4.01 C5.37131747,4.14855006 5.68210029,4.26551134 6,4.36 C6.09407584,4.37583136 6.18312719,4.41350693 6.26,4.47 C6.31646522,4.51069786 6.38142984,4.53805138 6.45,4.55 L6.7,4.63 L6.78,4.63 L6.98,4.72 L6.98,5.4 L7,5.32 Z M5.09,3.92 L3.8,3.92 L2.47,3.92 C2.47,3.92 1.81,4.16 1.54,4.22 C1.44920987,4.23660757 1.3635823,4.2742837 1.29,4.33 C1.23353478,4.37069786 1.16857016,4.39805138 1.1,4.41 L0.99,4.41 L0.82,4.41 C0.746390561,4.42712374 0.677864659,4.4613867 0.62,4.51 L0.62,5.21 L7,5.21 L7,4.55 L6.8,4.47 L6.73,4.47 L6.48,4.39 C6.41162004,4.37740911 6.34679171,4.35011297 6.29,4.31 C6.21661135,4.25395496 6.13090168,4.2162427 6.04,4.2 C5.72228923,4.10495038 5.41154525,3.98800372 5.11,3.85 L5.09,3.92 Z" id="Shape" fill="#2C6C1E" fill-rule="nonzero"></path>
                <polygon id="Shape" fill="#2C6C1E" points="3.7 1.15 3.67 1.76 3.86 1.76 3.83 1.16 4.03 1.13 4.01 0.89 3.51 0.91 3.51 1.13"></polygon>
                <path d="M3.87,1.77 L3.67,1.77 L3.67,1.15 L3.49,1.15 L3.49,0.91 L4,0.91 L4,1.16 L3.79,1.16 L3.79,1.76 L3.87,1.77 Z M4,0.89 L3.5,0.89 L3.5,1.1 L3.68,1.1 L3.68,1.72 L3.86,1.72 L3.86,1.12 L4.07,1.12 L4.07,0.89 L4,0.89 Z" id="Shape" fill="#2C6C1E" fill-rule="nonzero"></path>
                <polygon id="Shape" fill="#E6B32D" points="3.24 2.83 3.07 2.46 3.14 2.45 3.45 3.05"></polygon>
                <path d="M3.47,3.09 L3.23,2.84 L3.06,2.47 L3.14,2.47 L3.47,3.11 L3.47,3.09 Z M3.13,2.45 L3.06,2.45 L3.23,2.81 L3.41,3 L3.12,2.43 L3.13,2.45 Z" id="Shape" fill="#000000" fill-rule="nonzero"></path>
                <polygon id="Shape" fill="#FFFFFF" points="2.85 2.04 3.03 2.55 3.13 2.55"></polygon>
                <path d="M3.14,2.56 L3,2.56 L2.84,2 L3.14,2.52 L3.14,2.56 Z M2.84,2 L3.04,2.51 L3.12,2.51 L2.84,2 Z" id="Shape" fill="#000000" fill-rule="nonzero"></path>
                <polygon id="Shape" fill="#E6B32D" points="3.41 2.36 3.51 2.35 3.68 3.07 3.64 3.3"></polygon>
                <path d="M3.64,3.33 L3.4,2.33 L3.5,2.33 L3.68,3.06 L3.68,3.32 L3.64,3.33 Z M3.5,2.33 L3.41,2.33 L3.64,3.24 L3.64,3.04 L3.47,2.32 L3.5,2.33 Z" id="Shape" fill="#000000" fill-rule="nonzero"></path>
                <polygon id="Shape" fill="#E6B32D" points="3.49 3.1 3.2 2.32 3.31 2.32 3.65 3.26"></polygon>
                <path d="M3.67,3.29 L3.49,3.1 L3.2,2.32 L3.31,2.32 L3.66,3.32 L3.67,3.29 Z M3.31,2.29 L3.21,2.29 L3.51,3.06 L3.64,3.2 L3.32,2.28 L3.31,2.29 Z" id="Shape" fill="#000000" fill-rule="nonzero"></path>
                <polygon id="Shape" fill="#FFFFFF" points="3.07 1.88 3.19 2.42 3.29 2.42"></polygon>
                <path d="M3.29,2.43 L3.19,2.43 L3.07,1.89 L3.3,2.43 L3.29,2.43 Z M3.06,1.89 L3.19,2.43 L3.27,2.43 L3.06,1.9 L3.06,1.89 Z" id="Shape" fill="#000000" fill-rule="nonzero"></path>
                <polygon id="Shape" fill="#FFFFFF" points="3.32 1.87 3.38 2.43 3.45 2.43"></polygon>
                <path d="M3.38,2.44 L3.32,1.89 L3.46,2.44 L3.38,2.44 Z M3.31,1.88 L3.39,2.43 L3.45,2.43 L3.31,1.89 L3.31,1.88 Z" id="Shape" fill="#000000" fill-rule="nonzero"></path>
                <path d="M3.26,2.88 L2.49,2 C2.34154657,2.13814876 2.26734996,2.33847959 2.29,2.54 L3.16,3.22 L3.26,2.88 Z" id="Shape" fill="#233189"></path>
                <path d="M3.17,3.28 L2.29,2.59 C2.247962,2.37182524 2.32395736,2.14763895 2.49,2 L3.27,2.84 L3.18,3.24 L3.17,3.28 Z M2.49,2 C2.34946878,2.13864739 2.27956322,2.3336471 2.3,2.53 L3.16,3.2 L3.25,2.83 L2.49,2 Z" id="Shape" fill="#000000" fill-rule="nonzero"></path>
                <path d="M3.7,3.34 L3.13,2.76 C2.89,2.76 3.13,3.13 3.13,3.17 L3.74,3.69 L3.7,3.34 Z" id="Shape" fill="#C00024"></path>
                <path d="M3.71,3.71 L3.08,3.14 C3.08,3.06 2.98,2.89 3.08,2.81 C3.11450757,2.79220486 3.15549243,2.79220486 3.19,2.81 L3.76,3.39 L3.76,3.76 L3.71,3.71 Z M3.13,2.77 C3.10113608,2.75832397 3.06886392,2.75832397 3.04,2.77 C3.04,2.85 3.04,3.01 3.09,3.09 L3.69,3.6 L3.69,3.26 L3.12,2.69 L3.13,2.77 Z" id="Shape" fill="#000000" fill-rule="nonzero"></path>
                <polygon id="Shape" fill="#E6B32D" points="3.66 3.24 2.48 1.98 2.43 2.02 3.68 3.4"></polygon>
                <path d="M3.69,3.42 L2.43,2 L3.62,3.26 L3.62,3.44 L3.69,3.42 Z M2.47,2 L3.7,3.36 L3.7,3.22 L2.47,2 Z" id="Shape" fill="#000000" fill-rule="nonzero"></path>
                <polygon id="Shape" fill="#E6B32D" points="2.41 1.9 2.38 1.87 2.39 1.81 2.14 1.66 2.25 1.9 2.34 1.92 2.36 1.95"></polygon>
                <polygon id="Shape" fill="#000000" fill-rule="nonzero" points="2.36 1.96 2.33 1.92 2.25 1.91 2.14 1.66 2.39 1.81 2.39 1.85 2.38 1.81 2.14 1.66 2.26 1.9 2.34 1.91 2.36 1.94 2.41 1.9 2.4 1.89 2.41 1.91 2.36 1.96"></polygon>
                <path d="M2.29,2 C2.33829855,1.93742865 2.39974483,1.88622341 2.47,1.85 L2.54,1.95 L2.39,2.07 L2.29,2 Z" id="Shape" fill="#E6B32D"></path>
                <path d="M2.39,2.07 L2.28,2 C2.32508556,1.93193869 2.38712218,1.87679502 2.46,1.84 L2.54,1.94 L2.39,2.07 Z M2.46,1.85 C2.39576745,1.89070859 2.33838962,1.94133608 2.29,2 L2.39,2.06 L2.53,1.94 L2.46,1.85 Z" id="Shape" fill="#000000" fill-rule="nonzero"></path>
                <path d="M2.92,3.1 L1.92,2.33 C1.75,2.5 1.92,3.02 1.92,3.02 L2.86,3.53 L2.92,3.1 Z" id="Shape" fill="#233189"></path>
                <path d="M2.88,3.54 L1.88,3.02 C1.88,3.02 1.74,2.49 1.88,2.33 L2.88,3.09 L2.88,3.54 Z M2,2.34 C1.85,2.5 2,3.01 2,3.02 L2.93,3.52 L2.93,3.1 L1.93,2.34 L2,2.34 Z" id="Shape" fill="#000000" fill-rule="nonzero"></path>
                <path d="M3.72,3.72 L2.93,3.08 C2.66,3.08 2.87,3.52 2.93,3.56 L3.77,4.02 L3.72,3.72 Z" id="Shape" fill="#C00024"></path>
                <path d="M3.73,4 L2.88,3.54 C2.88,3.44 2.74,3.24 2.8,3.12 C2.82613284,3.0784333 2.87095427,3.05228747 2.92,3.05 L3.72,3.69 L3.72,4 L3.73,4 Z M2.92,3.06 C2.87457938,3.06534413 2.83407812,3.09111765 2.81,3.13 C2.75,3.24 2.81,3.44 2.88,3.51 L3.71,3.98 L3.71,3.69 L2.92,3.06 Z" id="Shape" fill="#000000" fill-rule="nonzero"></path>
                <polygon id="Shape" fill="#E6B32D" points="3.69 3.6 1.98 2.31 1.94 2.35 3.74 3.76"></polygon>
                <path d="M3.75,3.77 L1.95,2.37 L3.67,3.66 L3.72,3.84 L3.75,3.77 Z M2,2.31 L3.79,3.69 L3.79,3.55 L2,2.31 Z" id="Shape" fill="#000000" fill-rule="nonzero"></path>
                <polygon id="Shape" fill="#E6B32D" points="1.9 2.24 1.87 2.21 1.86 2.15 1.59 2.04 1.74 2.27 1.82 2.27 1.86 2.29"></polygon>
                <polygon id="Shape" fill="#000000" fill-rule="nonzero" points="1.86 2.3 1.82 2.27 1.74 2.27 1.59 2.05 1.86 2.15 1.87 2.19 1.85 2.15 1.59 2.05 1.75 2.27 1.83 2.26 1.86 2.28 1.89 2.23 1.89 2.23 1.9 2.24 1.86 2.3"></polygon>
                <path d="M1.79,2.35 C1.82788632,2.28369893 1.87893226,2.22584687 1.94,2.18 L2.02,2.26 L1.9,2.41 L1.79,2.35 Z" id="Shape" fill="#E6B32D"></path>
                <path d="M1.9,2.41 L1.78,2.35 C1.81400262,2.2782991 1.86560614,2.21637487 1.93,2.17 L2.02,2.25 L1.9,2.41 Z M1.9,2.18 C1.84272599,2.22702701 1.79517191,2.28477126 1.76,2.35 L1.87,2.35 L2,2.25 L1.92,2.17 L1.9,2.18 Z" id="Shape" fill="#000000" fill-rule="nonzero"></path>
                <path d="M2.86,3.57 L1.62,2.87 C1.54676055,2.99685444 1.54676055,3.15314556 1.62,3.28 C1.58234115,3.40045863 1.58234115,3.52954137 1.62,3.65 C1.63957172,3.78051101 1.70306634,3.90044531 1.8,3.99 C1.91,4.42 2.35,4.45 2.52,4.1 L2.86,3.57 Z" id="Shape" fill="#233189"></path>
                <path d="M2.25,4.33 C2.05651598,4.31784583 1.89798917,4.17183429 1.87,3.98 C1.77241155,3.89095084 1.70878553,3.77076835 1.69,3.64 C1.64258601,3.54761801 1.62511065,3.44276588 1.64,3.34 C1.64,3.34 1.64,3.34 1.64,3.27 C1.56463319,3.14372386 1.56463319,2.98627614 1.64,2.86 L2.89,3.56 L2.63,4.09 C2.570881,4.23202961 2.43379122,4.32603403 2.28,4.33 L2.25,4.33 Z M1.61,2.87 C1.54243161,2.99477304 1.54243161,3.14522696 1.61,3.27 C1.61232324,3.29661607 1.61232324,3.32338393 1.61,3.35 C1.58303915,3.44478679 1.58303915,3.54521321 1.61,3.64 C1.63095954,3.76718884 1.69441168,3.88351776 1.79,3.97 C1.8135268,4.160257 1.96873035,4.30707116 2.16,4.32 C2.3109613,4.31468784 2.44444169,4.22046639 2.5,4.08 L2.76,3.56 L1.52,2.87 L1.61,2.87 Z" id="Shape" fill="#000000" fill-rule="nonzero"></path>
                <path d="M3.67,4 L2.83,3.51 C2.56,3.51 2.83,4.05 2.83,4.1 L3.64,4.39 L3.67,4 Z" id="Shape" fill="#C00024"></path>
                <path d="M3.67,4.42 L2.85,4.13 C2.85,4.03 2.68,3.76 2.74,3.64 C2.75962545,3.60149493 2.7971033,3.57526043 2.84,3.57 L3.69,4.07 L3.69,4.46 L3.67,4.42 Z M2.83,3.54 C2.79217611,3.54457844 2.7587739,3.56684657 2.74,3.6 C2.67,3.72 2.8,3.99 2.85,4.08 L3.67,4.4 L3.67,4 L2.83,3.51 L2.83,3.54 Z" id="Shape" fill="#000000" fill-rule="nonzero"></path>
                <polygon id="Shape" fill="#E6B32D" points="3.53 3.85 1.63 2.84 1.59 2.89 3.6 4"></polygon>
                <path d="M3.61,4 L1.61,2.87 L1.61,2.82 L3.52,3.82 L3.6,3.99 L3.61,4 Z M1.61,2.83 L3.61,3.93 L3.55,3.8 L1.65,2.8 L1.61,2.83 Z" id="Shape" fill="#000000" fill-rule="nonzero"></path>
                <polygon id="Shape" fill="#E6B32D" points="1.53 2.78 1.5 2.77 1.48 2.71 1.2 2.64 1.38 2.84 1.47 2.82 1.5 2.84"></polygon>
                <polygon id="Shape" fill="#000000" fill-rule="nonzero" points="1.51 2.85 1.46 2.83 1.38 2.84 1.2 2.64 1.48 2.7 1.49 2.74 1.47 2.71 1.2 2.64 1.39 2.83 1.47 2.82 1.5 2.83 1.53 2.78 1.53 2.78 1.54 2.79 1.51 2.85"></polygon>
                <path d="M1.45,2.91 C1.47623345,2.8389523 1.51711863,2.77421743 1.57,2.72 L1.66,2.79 L1.57,2.95 L1.45,2.91 Z" id="Shape" fill="#E6B32D"></path>
                <path d="M1.57,3 L1.45,3 C1.47081035,2.92355103 1.51233813,2.85433805 1.57,2.8 L1.67,2.87 L1.57,3.04 L1.57,3 Z M1.57,2.77 C1.52249556,2.82640707 1.48526367,2.89071669 1.46,2.96 L1.57,2.96 L1.66,2.8 L1.57,2.74 L1.57,2.77 Z" id="Shape" fill="#000000" fill-rule="nonzero"></path>
                <path d="M2.16,2.2 L2.16,2.27 C2.16,2.27 2.43,2.04 2.43,2.04 L2.61,2.04 L2.61,1.98 C2.57963825,1.94200028 2.53363964,1.91987492 2.485,1.91987492 C2.43636036,1.91987492 2.39036175,1.94200028 2.36,1.98 L2.16,2.2 Z" id="Shape" fill="#233189"></path>
                <path d="M2.19,2.28 L2.19,2.21 L2.44,2 C2.44,2 2.59,1.86 2.7,2 L2.7,2.06 L2.52,2.06 C2.43401488,2.14125849 2.34389513,2.21802717 2.25,2.29 L2.19,2.28 Z M2.58,1.93 C2.52779438,1.9384313 2.48105279,1.96719535 2.45,2.01 L2.16,2.22 L2.16,2.28 L2.46,2 L2.64,2 L2.64,1.95 C2.60434658,1.93780944 2.56565342,1.93780944 2.53,1.95 L2.58,1.93 Z" id="Shape" fill="#233189" fill-rule="nonzero"></path>
                <path d="M2.3,2.32 C2.3302633,2.23743261 2.37802105,2.1623847 2.44,2.1 C2.53,2.1 2.61,2.18 2.7,1.98 C2.62,2.08 2.47,1.98 2.47,1.98 L2.4,2 L2.19,2.19 L2.3,2.32 Z" id="Shape" fill="#C00024"></path>
                <path d="M2.3,2.33 L2.19,2.25 L2.27,2.17 L2.2,2.25 L2.3,2.31 C2.33107398,2.22783587 2.37872971,2.1529483 2.44,2.09 L2.55,2.09 C2.55,2.09 2.64,2.09 2.69,1.96 C2.69,2.04 2.47,1.96 2.46,1.96 C2.46,1.96 2.63,2.04 2.69,1.96 C2.64,2.12 2.55,2.13 2.46,2.1 C2.37,2.07 2.31,2.24 2.3,2.31 L2.3,2.33 Z" id="Shape" fill="#C00024" fill-rule="nonzero"></path>
                <path d="M1.69,2.56 L1.69,2.63 C1.69,2.63 1.93,2.38 1.93,2.38 L2.1,2.38 L2.1,2.32 C1.98,2.18 1.85,2.32 1.85,2.32 L1.69,2.56 Z" id="Shape" fill="#233189"></path>
                <path d="M1.7,2.64 L1.7,2.57 L1.91,2.35 C1.91,2.35 2.06,2.18 2.17,2.35 L2.17,2.41 L1.99,2.41 C1.99,2.41 1.78,2.65 1.75,2.66 L1.7,2.64 Z M2.05,2.25 C1.97,2.25 1.9,2.35 1.9,2.35 L1.69,2.57 L1.69,2.63 L1.92,2.39 L2.1,2.39 L2.1,2.34 C2.07095691,2.32928415 2.03904309,2.32928415 2.01,2.34 L2.05,2.25 Z" id="Shape" fill="#233189" fill-rule="nonzero"></path>
                <path d="M1.83,2.69 C1.84131124,2.59330989 1.87559965,2.50073118 1.93,2.42 C2.03,2.42 2.13,2.5 2.16,2.28 C2.1,2.39 1.93,2.28 1.93,2.28 L1.87,2.35 L1.7,2.58 L1.83,2.69 Z" id="Shape" fill="#C00024"></path>
                <path d="M1.84,2.7 L1.7,2.64 L1.7,2.58 L1.7,2.64 L1.81,2.64 C1.82383886,2.54704222 1.85798085,2.45827305 1.91,2.38 L2.03,2.38 C2.03,2.38 2.12,2.38 2.14,2.22 C2.14,2.31 1.92,2.22 1.91,2.22 C1.95290468,2.22861979 1.99709532,2.22861979 2.04,2.22 C2.08040714,2.22526432 2.11996717,2.20548431 2.14,2.17 C2.14,2.35 2.04,2.36 1.94,2.32 C1.84,2.28 1.82,2.51 1.83,2.57 L1.84,2.7 Z" id="Shape" fill="#C00024" fill-rule="nonzero"></path>
                <path d="M1.37,3.14 L1.37,3.22 C1.37,3.22 1.57,2.91 1.57,2.91 L1.74,2.85 L1.74,2.78 C1.61,2.66 1.51,2.87 1.51,2.87 L1.37,3.14 Z" id="Shape" fill="#233189"></path>
                <path d="M1.41,3.22 L1.41,3.14 L1.62,2.87 C1.62,2.87 1.75,2.67 1.86,2.78 L1.86,2.86 L1.69,2.92 C1.69,2.92 1.51,3.21 1.49,3.23 L1.41,3.22 Z M1.73,2.75 C1.64,2.75 1.59,2.87 1.59,2.88 L1.38,3.14 L1.38,3.2 L1.57,2.9 L1.74,2.84 L1.74,2.78 C1.71390097,2.77221877 1.68609903,2.77221877 1.66,2.78 L1.73,2.75 Z" id="Shape" fill="#233189" fill-rule="nonzero"></path>
                <path d="M1.55,3.25 C1.53138606,3.1542294 1.53138606,3.0557706 1.55,2.96 C1.65,2.96 1.74,2.96 1.77,2.78 C1.71,2.88 1.55,2.84 1.55,2.84 L1.55,2.91 L1.41,3.17 L1.55,3.25 Z" id="Shape" fill="#C00024"></path>
                <path d="M1.56,3.26 L1.42,3.26 L1.47,3.15 L1.47,3.26 L1.59,3.26 C1.58680763,3.16094143 1.60381991,3.06227021 1.64,2.97 C1.73,2.97 1.82,3.06 1.85,2.8 C1.85,2.91 1.63,2.87 1.63,2.87 L1.7,2.87 C1.75912296,2.87635292 1.81689223,2.84939392 1.85,2.8 C1.85,2.99 1.75,3.02 1.64,2.98 C1.62671428,3.07621017 1.62671428,3.17378983 1.64,3.27 L1.56,3.26 Z" id="Shape" fill="#C00024" fill-rule="nonzero"></path>
                <polygon id="Shape" fill="#E6B32D" points="3.52 4.32 3.04 4.17 2.84 3.82 2.1 3.78 2.13 4.05 2.75 4.17 2.81 4.27 3.53 4.47"></polygon>
                <path d="M3.53,4.48 L2.81,4.28 L2.75,4.17 L2.13,4.05 L2.13,3.78 L2.87,3.78 L3.08,4.14 L3.55,4.29 L3.55,4.46 L3.53,4.48 Z M2.1,3.79 L2.1,4.05 L2.72,4.16 L2.78,4.27 L3.48,4.47 L3.48,4.32 L3,4.18 L2.79,3.82 L2.06,3.82 L2.1,3.79 Z" id="Shape" fill="#000000" fill-rule="nonzero"></path>
                <polygon id="Shape" fill="#4D3509" points="3.02 4.42 2.27 3.32 2.23 3.35 2.98 4.45"></polygon>
                <path d="M3,4.46 L2.25,3.35 L3.01,4.45 L3,4.46 Z M2.29,3.32 L3,4.44 L2.25,3.35 L2.29,3.32 Z" id="Shape" fill="#000000" fill-rule="nonzero"></path>
                <path d="M2.34,3.36 L2.26,3.23 C2.26,3.23 2.26,3.23 2.19,3.23 L2.26,3.36 L2.34,3.36 Z" id="Shape" fill="#FFFFFF"></path>
                <path d="M2.25,3.42 L2.17,3.29 C2.14962848,3.26722395 2.14962848,3.23277605 2.17,3.21 C2.22,3.21 2.24,3.21 2.25,3.21 L2.33,3.34 L2.23,3.4 L2.25,3.42 Z M2.25,3.2 L2.32,3.32 L2.41,3.32 L2.29,3.17 L2.25,3.2 Z" id="Shape" fill="#000000" fill-rule="nonzero"></path>
                <polygon id="Shape" fill="#E6B32D" points="3.11 3.74 1.6 3.59 1.56 3.8 3.06 3.95"></polygon>
                <path d="M3.07,4 L1.56,3.85 L1.56,3.62 L3.08,3.77 L3.08,4 L3.07,4 Z M1.6,3.63 L1.6,3.85 L3.09,3.99 L3.09,3.78 L1.58,3.63 L1.6,3.63 Z" id="Shape" fill="#000000" fill-rule="nonzero"></path>
                <polygon id="Shape" fill="#E6B32D" points="1.57 3.53 1.53 3.83 1.6 3.83 1.64 3.55"></polygon>
                <path d="M1.6,3.84 L1.53,3.84 L1.53,3.53 L1.6,3.53 L1.6,3.82 L1.6,3.84 Z M1.6,3.54 L1.6,3.84 L1.65,3.84 L1.65,3.57 L1.59,3.57 L1.6,3.54 Z" id="Shape" fill="#000000" fill-rule="nonzero"></path>
                <polygon id="Shape" fill="#E6B32D" points="1.82 3.58 1.81 3.85 1.85 3.86 1.88 3.61"></polygon>
                <path d="M1.85,3.86 L1.85,3.58 L1.91,3.58 L1.91,3.83 L1.85,3.86 Z M1.85,3.58 L1.85,3.85 L1.85,3.61 L1.8,3.61 L1.85,3.58 Z" id="Shape" fill="#000000" fill-rule="nonzero"></path>
                <polygon id="Shape" fill="#E6B32D" points="2.85 3.7 2.81 3.95 2.88 3.95 2.91 3.7"></polygon>
                <polygon id="Shape" fill="#000000" fill-rule="nonzero" points="2.8 3.96 2.84 3.7 2.91 3.69 2.89 3.95 2.8 3.96"></polygon>
                <path d="M3.07,3.7 L3,4 L3.08,4 L3.08,3.84 C3.08500831,3.87471159 3.11493081,3.90035945 3.15,3.9 C3.18865993,3.9 3.22,3.86865993 3.22,3.83 C3.22,3.79134007 3.18865993,3.76 3.15,3.76 C3.13101383,3.75099407 3.10898617,3.75099407 3.09,3.76 L3.09,3.65 L3.07,3.7 Z" id="Shape" fill="#E6B32D"></path>
                <path d="M3.11,4 L3,4 L3,3.7 L3.08,3.7 L3.08,3.81 C3.08,3.74 3.21,3.81 3.21,3.81 C3.21,3.81 3.07,3.9 3.05,3.81 L3.05,4 L3.11,4 Z M3.11,3.69 L3.04,3.69 L3,4 L3.07,4 L3.07,3.85 C3.07,3.91 3.21,3.9 3.21,3.85 C3.19734378,3.82893877 3.17457143,3.81605551 3.15,3.81605551 C3.12542857,3.81605551 3.10265622,3.82893877 3.09,3.85 L3.09,3.73 L3.11,3.69 Z" id="Shape" fill="#000000" fill-rule="nonzero"></path>
                <polygon id="Shape" fill="#E6B32D" points="2.53 3.75 2.32 3.98 2.34 4.01 2.61 3.83"></polygon>
                <path d="M2.34,4 L2.55,3.76 L2.64,3.84 L2.37,4.03 L2.34,4 Z M2.52,3.73 L2.32,3.96 L2.59,3.78 L2.5,3.71 L2.52,3.73 Z" id="Shape" fill="#000000" fill-rule="nonzero"></path>
                <polygon id="Shape" fill="#E6B32D" points="2.04 4.33 2.25 4.1 2.23 4.07 1.96 4.26"></polygon>
                <path d="M2,4.34 L2,4.26 L2.27,4.07 L2.06,4.32 L2,4.34 Z M2.2,4.09 L1.92,4.25 L2,4.32 L2.2,4.09 Z" id="Shape" fill="#000000" fill-rule="nonzero"></path>
                <polygon id="Shape" fill="#E6B32D" points="2.59 4.28 2.33 4.08 2.31 4.1 2.51 4.35"></polygon>
                <path d="M2.51,4.36 L2.31,4.1 L2.56,4.3 L2.48,4.39 L2.51,4.36 Z M2.34,4.08 L2.52,4.34 L2.6,4.27 L2.35,4.08 L2.34,4.08 Z" id="Shape" fill="#000000" fill-rule="nonzero"></path>
                <polygon id="Shape" fill="#E6B32D" points="1.96 3.82 2.22 4.01 2.25 3.99 2.05 3.74"></polygon>
                <path d="M2.22,4 L2,3.83 L2.08,3.73 L2.29,3.99 L2.22,4 Z M2,3.74 L1.92,3.83 L2.17,4.01 L1.97,3.77 L2,3.74 Z" id="Shape" fill="#000000" fill-rule="nonzero"></path>
                <polygon id="Shape" fill="#E6B32D" points="2.24 3.67 2.27 3.98 2.3 3.97 2.38 3.68"></polygon>
                <path d="M2.26,4 L2.26,3.69 L2.41,3.69 L2.33,4 L2.26,4 Z M2.38,3.69 L2.24,3.69 L2.24,3.98 L2.32,3.69 L2.38,3.69 Z" id="Shape" fill="#000000" fill-rule="nonzero"></path>
                <polygon id="Shape" fill="#E6B32D" points="2.33 4.41 2.3 4.11 2.26 4.1 2.22 4.41"></polygon>
                <path d="M2.33,4.42 L2.21,4.42 L2.21,4.1 L2.21,4.42 L2.33,4.42 Z M2.33,4.11 L2.26,4.42 L2.36,4.42 L2.36,4.12 L2.33,4.11 Z" id="Shape" fill="#000000" fill-rule="nonzero"></path>
                <polygon id="Shape" fill="#E6B32D" points="2.67 4 2.34 4.03 2.34 4.06 2.66 4.11"></polygon>
                <path d="M2.67,4.11 L2.34,4.11 L2.66,4.11 L2.66,4.23 L2.67,4.11 Z M2.67,4 L2.35,4 L2.66,4.06 L2.66,4 L2.67,4 Z" id="Shape" fill="#000000" fill-rule="nonzero"></path>
                <polygon id="Shape" fill="#E6B32D" points="1.9 4.11 2.22 4.06 2.22 4.03 1.9 3.99"></polygon>
                <polygon id="Shape" fill="#000000" fill-rule="nonzero" points="1.89 4.11 1.89 3.99 2.22 4.03 2.16 4.04 1.9 4 1.91 4.1 2.01 4.08 1.89 4.11"></polygon>
                <path d="M2.37,4 C2.37018103,4.02306927 2.36039429,4.04509366 2.34315157,4.06042052 C2.32590885,4.07574738 2.30288895,4.08288446 2.28,4.08 C2.23581722,4.08 2.2,4.04418278 2.2,4 C2.2,3.95581722 2.23581722,3.92 2.28,3.92 C2.30288895,3.91711554 2.32590885,3.92425262 2.34315157,3.93957948 C2.36039429,3.95490634 2.37018103,3.97693073 2.37,4 Z" id="Shape" fill="#E6B32D"></path>
                <path d="M2.28,4.12 C2.23029437,4.12 2.19,4.07970563 2.19,4.03 C2.19,3.93 2.37,3.93 2.37,4.03 C2.37,4.07970563 2.32970563,4.12 2.28,4.12 Z M2.28,3.95 C2.23581722,3.95 2.2,3.98581722 2.2,4.03 C2.2,4.11 2.36,4.11 2.36,4.03 C2.36,3.98581722 2.32418278,3.95 2.28,3.95 Z" id="Shape" fill="#000000" fill-rule="nonzero"></path>
                <path d="M2.74,4 C2.74406462,4.1828632 2.63704025,4.34999359 2.46924957,4.42280674 C2.30145889,4.4956199 2.10628889,4.45962745 1.97550819,4.33175299 C1.84472749,4.20387853 1.80435884,4.00956652 1.87338351,3.84018215 C1.94240818,3.67079778 2.10709164,3.56004517 2.29,3.56 C2.5346747,3.55993958 2.73456279,3.75538571 2.74,4 Z M2.65,4 C2.65406955,4.14644783 2.56898556,4.28075462 2.43483632,4.33964017 C2.30068707,4.39852573 2.14423358,4.37024317 2.03919069,4.26811814 C1.93414781,4.16599312 1.9014702,4.01039822 1.9565543,3.87464377 C2.01163839,3.73888932 2.14349565,3.65005653 2.29,3.65 C2.48498185,3.64992476 2.64458385,3.80509338 2.65,4 Z" id="Shape" fill="#E6B32D"></path>
                <path d="M2.28,4.48 C2.03990251,4.46907506 1.8529959,4.26750827 1.86019782,4.02727028 C1.86739973,3.78703228 2.0660451,3.59702368 2.30636586,3.60050084 C2.54668663,3.603978 2.73975157,3.79965421 2.74,4.04 C2.73737711,4.15935711 2.68743207,4.27278013 2.60115881,4.35530239 C2.51488554,4.43782464 2.3993558,4.48268184 2.28,4.48 Z M2.28,3.61 C2.04543239,3.62092208 1.86300415,3.81800434 1.87020232,4.05271574 C1.8774005,4.28742714 2.07156285,4.47296005 2.30635892,4.4694876 C2.541155,4.46601515 2.72974586,4.27482162 2.73,4.04 C2.72737777,3.92329482 2.6784865,3.81241494 2.59408844,3.73176791 C2.50969039,3.65112088 2.39670381,3.60731748 2.28,3.61 Z M2.28,4.4 C2.08257242,4.39451377 1.92642857,4.23098844 1.93006092,4.03351805 C1.93369326,3.83604767 2.09574536,3.67837536 2.29324114,3.68015351 C2.49073693,3.68193165 2.64992379,3.84249623 2.65,4.04 C2.65003752,4.13723607 2.61073943,4.23035219 2.54104781,4.29816025 C2.47135619,4.36596832 2.37719856,4.40270101 2.28,4.4 Z M2.28,3.7 C2.09521986,3.71088855 1.95309999,3.86759071 1.96025459,4.05255307 C1.96740919,4.23751542 2.1212092,4.38277099 2.30627832,4.37935326 C2.49134745,4.37593553 2.63967946,4.2251004 2.64,4.04 C2.6373854,3.94716153 2.5979785,3.85916887 2.53045696,3.79539852 C2.46293541,3.73162817 2.3728363,3.69730961 2.28,3.7 Z" id="Shape" fill="#000000" fill-rule="nonzero"></path>
                <path d="M2,3.82 L1.93,3.77 L2,3.82 Z M2.51,3.77 L2.57,3.71 L2.51,3.77 Z M2.64,4.32 L2.57,4.26 L2.64,4.32 Z M2,4.39 L2.07,4.32 L2,4.39 Z" id="Shape"></path>
                <polygon id="Shape" fill="#E6B32D" points="3.53 3.6 3.6 4 3.54 4.03 3.47 3.61"></polygon>
                <path d="M3.54,4 L3.47,3.57 L3.53,3.57 L3.61,3.97 L3.54,3.97 L3.54,4 Z M3.54,3.56 L3.61,3.97 L3.67,3.97 L3.59,3.58 L3.54,3.56 Z" id="Shape" fill="#000000" fill-rule="nonzero"></path>
                <path d="M3.49,3.55 C3.49,3.55 3.41,3.55 3.33,3.46 C3.21,3.58 3.33,3.59 3.33,3.71 C3.33,3.83 3.39,3.62 3.49,3.61 L3.64,3.61 L3.49,3.55 Z" id="Shape" fill="#FFFFFF"></path>
                <path d="M3.34,3.72 C3.34503521,3.69021128 3.34503521,3.65978872 3.34,3.63 C3.34,3.63 3.28,3.54 3.34,3.47 C3.37024546,3.51366626 3.41738903,3.54267769 3.47,3.55 L3.63,3.55 L3.63,3.6 L3.47,3.6 C3.42457938,3.60534413 3.38407812,3.63111765 3.36,3.67 C3.36,3.67 3.36,3.67 3.36,3.67 L3.34,3.72 Z M3.34,3.47 C3.27,3.54 3.34,3.57 3.34,3.62 C3.34523179,3.6497719 3.34523179,3.6802281 3.34,3.71 C3.36506533,3.67210751 3.40505796,3.64665765 3.45,3.64 L3.6,3.64 L3.45,3.64 C3.39645757,3.63538052 3.34825239,3.6057158 3.32,3.56 L3.34,3.47 Z" id="Shape" fill="#000000" fill-rule="nonzero"></path>
                <path d="M3.54,3.63 L3.54,3.51 C3.54,3.51 3.47,3.51 3.47,3.51 L3.47,3.62 L3.54,3.63 Z" id="Shape" fill="#FFFFFF"></path>
                <polygon id="Shape" fill="#000000" fill-rule="nonzero" points="3.46 3.65 3.46 3.53 3.46 3.53 3.46 3.63 3.52 3.63 3.52 3.63 3.44 3.63"></polygon>
                <path d="M2.53,4.52 L2.48,4.52 L2.53,4.52 Z" id="Shape" fill="#E6B32D"></path>
                <path d="M2.53,4.52 L2.48,4.52 L2.53,4.52 Z" id="Shape"></path>
                <path d="M2,4.65 L1.95,4.65 L2,4.65 Z" id="Shape" fill="#E6B32D"></path>
                <path d="M2,4.65 L1.95,4.65 L2,4.65 Z" id="Shape"></path>
                <path d="M1.76,4.64 L1.71,4.64 L1.76,4.64 Z" id="Shape" fill="#E6B32D"></path>
                <path d="M1.76,4.64 L1.71,4.64 L1.76,4.64 Z" id="Shape"></path>
                <path d="M2.73,4.29 C2.73,4.29 2.73,4.37 2.73,4.37 L2.8,4.37 C2.8,4.37 2.85,4.43 2.8,4.45 C2.75,4.47 2.65,4.45 2.64,4.45 C2.65218624,4.50483927 2.68927699,4.5508446 2.74028338,4.57438601 C2.79128977,4.59792742 2.85036246,4.59630522 2.9,4.57 C2.96,4.51 2.98,4.37 2.78,4.33 L2.73,4.29 Z" id="Shape" fill="#FFFFFF"></path>
                <path d="M2.82,4.59 L2.76,4.59 C2.69464938,4.57009741 2.64501391,4.51664382 2.63,4.45 C2.63,4.45 2.63,4.45 2.72,4.45 L2.78,4.45 C2.78,4.45 2.78,4.39 2.78,4.38 L2.71,4.38 C2.71,4.38 2.71,4.31 2.71,4.29 C2.78177406,4.29642212 2.84373802,4.34289509 2.87,4.41 C2.89500859,4.45331615 2.89500859,4.50668385 2.87,4.55 C2.84427847,4.56004066 2.81572153,4.56004066 2.79,4.55 L2.82,4.59 Z M2.65,4.44 C2.66252437,4.50237325 2.70882637,4.55253375 2.77,4.57 C2.80959323,4.59329543 2.85949368,4.58953349 2.89514682,4.56056532 C2.93079996,4.53159714 2.94469715,4.4835235 2.93,4.44 C2.90627347,4.37680469 2.84740466,4.33363423 2.78,4.33 C2.78534211,4.3462386 2.78534211,4.3637614 2.78,4.38 C2.78,4.38 2.78,4.38 2.7,4.38 L2.65,4.44 Z M1.42,4.34 L1.35,4.07 L1.77,4.24 L1.36,4.06 L1.44,4.33 L1.42,4.34 Z M1.5,4.34 L1.4,4.13 L1.51,4.34 L1.5,4.34 Z M1.67,4.29 L1.45,4.17 L1.68,4.28 L1.67,4.29 Z" id="Shape" fill="#000000" fill-rule="nonzero"></path>
                <path d="M1.11,3.87 C1.05013814,3.86424209 0.98986186,3.86424209 0.93,3.87 C0.93,3.87 0.93,3.92 0.93,3.94 C0.93,3.96 0.63,4 0.61,3.94 C0.59,3.88 0.85,3.89 0.85,3.87 C0.85,3.85 0.85,3.79 0.85,3.76 C0.85,3.73 0.97,3.7 0.97,3.7 L1.11,3.87 Z" id="Shape" fill="#C00024"></path>
                <path d="M0.75,4 L0.65,4 C0.65,4 0.65,4 0.79,3.95 L0.89,3.95 C0.89,3.89 0.89,3.86 0.89,3.84 C0.89,3.82 1,3.78 1.01,3.77 L1.15,3.88 L1,3.88 C1.03621193,3.87183329 1.07378807,3.87183329 1.11,3.88 L1,3.78 C1,3.78 0.9,3.78 0.89,3.84 C0.883599787,3.86289445 0.883599787,3.88710555 0.89,3.91 C0.89,3.91 0.89,3.91 0.78,3.91 L0.65,3.91 C0.65,3.91 0.92,3.91 0.96,3.91 C1,3.91 0.96,3.91 0.96,3.91 C0.96,3.91 0.96,3.91 0.96,3.97 C0.96,4.03 0.79,4.03 0.74,4.03 L0.75,4 Z" id="Shape" fill="#C00024" fill-rule="nonzero"></path>
                <path d="M1.31,4 L1,3.72 C1,3.72 1,3.72 1,3.72 C1,3.72 1,3.72 1,3.72 L1.35,4.01 L1.31,4 Z" id="Shape" fill="#4D3509"></path>
                <path d="M1.3,4 L0.94,3.7 L1.31,3.99 L1.3,4 Z M1,3.72 L1.33,4.03 L1,3.72 Z" id="Shape" fill="#000000" fill-rule="nonzero"></path>
                <polygon id="Shape" fill="#E6B32D" points="1.64 4.28 1.36 4 1.36 3.93 1.3 3.93 1.3 3.98 1.38 3.98 1.62 4.2"></polygon>
                <path d="M1.56,4.3 L1.32,4.08 L1.25,4.08 C1.25,4.08 1.25,4.08 1.25,4.01 L1.31,4.01 L1.31,4.08 L1.59,4.32 L1.51,4.32 L1.56,4.3 Z M1.32,4.07 L1.56,4.29 L1.63,4.29 C1.63,4.29 1.35,4.06 1.35,4.06 L1.35,3.99 L1.35,4.04 L1.32,4.07 Z" id="Shape" fill="#000000" fill-rule="nonzero"></path>
                <path d="M3.16,4 L3.16,4.11 C3.16,4.11 3.16,4.11 3.16,4.19 L3.16,4.51 C3.16,4.51 3.11,4.51 3.09,4.51 C3.07,4.51 3.09,4.51 3.16,4.58 L3.23,4.58 C3.33,4.58 3.35,4.52 3.3,4.51 L3.22,4.51 L3.22,4.43 L3.29,4.43 C3.29,4.43 3.29,4.43 3.34,4.35 L3.34,4.18 C3.34,4.08 3.27,4.08 3.25,4.08 L3.25,4 L3.16,4 Z M3.27,4.18 C3.27,4.18 3.27,4.18 3.22,4.13 C3.21099407,4.14898617 3.21099407,4.17101383 3.22,4.19 L3.22,4.26 C3.22,4.26 3.22,4.37 3.28,4.38 C3.34,4.39 3.28,4.38 3.28,4.33 L3.27,4.18 Z" id="Shape" fill="#E6B32D"></path>
                <path d="M3.2,4.58 L3.13,4.58 C3.07,4.58 3.05,4.58 3.05,4.53 L3.05,4.21 C3.05,4.21 3.05,4.14 3.05,4.13 L3.05,4 L3.11,4 C3.11,4 3.2,4 3.2,4.1 L3.2,4.27 C3.2,4.27 3.2,4.36 3.14,4.36 L3.07,4.36 L3.07,4.43 L3.14,4.43 C3.14,4.43 3.14,4.43 3.14,4.43 C3.14,4.43 3.14,4.43 3.04,4.49 L3.2,4.58 Z M3.2,3.95 L3.15,3.95 L3.15,4.05 C3.15,4.05 3.15,4.05 3.15,4.12 L3.15,4.45 C3.15,4.45 3.15,4.45 3.22,4.45 L3.28,4.45 C3.34,4.45 3.37,4.45 3.37,4.45 L3.27,4.39 L3.27,4.31 L3.34,4.31 C3.34843337,4.28742869 3.34843337,4.26257131 3.34,4.24 L3.34,4.07 C3.34,3.97 3.26,3.97 3.26,3.97 L3.26,4 L3.2,3.95 Z M3.2,4.33 C3.2,4.33 3.13,4.23 3.13,4.21 L3.13,4.14 C3.13292316,4.11169675 3.15268786,4.08797911 3.18,4.08 C3.18,4.08 3.24,4.08 3.24,4.14 L3.24,4.28 C3.24,4.28 3.24,4.34 3.24,4.34 L3.2,4.33 Z M3.2,4.08 C3.19384465,4.09609834 3.19384465,4.11390166 3.2,4.13 L3.2,4.2 C3.2,4.2 3.2,4.3 3.25,4.31 C3.25,4.31 3.25,4.31 3.25,4.31 L3.25,4.17 C3.25,4.17 3.25,4.17 3.25,4.17 L3.2,4.08 Z" id="Shape" fill="#000000" fill-rule="nonzero"></path>
                <path d="M3.77,0.91 C3.25,0.39 2.84,0.64 2.77,0.71 C2.83,0.71 2.89,0.71 2.92,0.71 L2.86,0.79 C2.90336624,0.752272449 2.95024705,0.718786153 3,0.69 L3,0.75 C3,0.75 3.1,0.68 3.12,0.68 C3.11297852,0.712963575 3.11297852,0.747036425 3.12,0.78 L3.2,0.78 C3.2,0.78 3.2,0.78 3.2,0.78 C3.32907073,0.79001883 3.45001123,0.846932006 3.54,0.94 L3.77,0.91 Z" id="Shape" fill="#2C6C1E"></path>
                <path d="M3.48,0.94 C3.38578307,0.854681401 3.26653218,0.802070714 3.14,0.79 C3.27308442,0.795580544 3.39870425,0.853006751 3.49,0.95 L3.48,0.94 Z M3.76,0.94 C3.25,0.43 2.85,0.66 2.76,0.74 L2.87,0.74 C2.82485737,0.756866747 2.77514263,0.756866747 2.73,0.74 C2.84,0.64 3.26,0.41 3.73,0.92 L3.76,0.94 Z M3.05,0.82 C3.03856181,0.787647908 3.03856181,0.752352092 3.05,0.72 L2.98,0.72 C2.97514406,0.696919311 2.97514406,0.673080689 2.98,0.65 L2.81,0.73 C2.81,0.73 2.81,0.67 2.81,0.64 L2.75,0.72 C2.82863172,0.68586033 2.91552352,0.675433315 3,0.69 L3,0.76 L3.06,0.76 C3.05578473,0.796545518 3.05578473,0.833454482 3.06,0.87 L3.13,0.87 L3.05,0.87 L3.05,0.82 Z" id="Shape" fill="#000000" fill-rule="nonzero"></path>
                <path d="M3.64,1 C3.59,0.87 2.64,0.67 2.4,1 C2.48,1 2.55,0.93 2.55,0.93 L2.55,1 L2.68,0.9 L2.68,1 L2.79,0.92 L2.79,1 L2.92,0.86 L2.92,0.94 L3,0.92 L3,1 L3.64,1 Z" id="Shape" fill="#2C6C1E"></path>
                <path d="M2.63,1 L2.63,0.89 L2.54,1 C2.50856545,1.0513067 2.44951419,1.07886396 2.39,1.07 C2.49,0.87 2.82,0.86 3,0.87 C3.18,0.88 3.61,0.97 3.64,1.05 C3.4550865,0.911233281 3.23115167,0.834255684 3,0.83 C2.82,0.83 2.5,0.83 2.39,1.02 C2.46,1.02 2.53,0.95 2.53,0.95 L2.53,1 L2.65,0.89 L2.65,1 L2.75,0.91 L2.75,1 L2.87,0.85 L2.87,1 L3,0.92 L2.84,1 L2.84,0.89 L2.73,1 L2.73,0.95 L2.63,1.04 L2.63,1 Z" id="Shape" fill="#000000" fill-rule="nonzero"></path>
                <path d="M3.6,1 C3.39089861,0.919027355 3.15910139,0.919027355 2.95,1 C2.7,1.14 2.56,1.12 2.53,1.38 C2.56371147,1.35395646 2.59395646,1.32371147 2.62,1.29 L2.62,1.39 L2.62,1.25 L2.62,1.36 L2.68,1.18 L2.68,1.3 L2.78,1.18 L2.78,1.09 L2.78,1.15 C2.78,1.15 2.84,1.15 2.88,1.15 L3.19,1 L3.19,1.06 L3.27,1 L3.27,1.05 L3.36,1 L3.57,1 L3.6,1 Z" id="Shape" fill="#2C6C1E"></path>
                <path d="M2.68,1.35 L2.62,1.25 C2.59969008,1.2850985 2.57247528,1.31571515 2.54,1.34 C2.54,1.13 2.64,1.1 2.78,1.03 L2.95,1 C3.15910139,0.919027355 3.39089861,0.919027355 3.6,1 C3.39072157,0.919980392 3.15927843,0.919980392 2.95,1 L2.78,1.08 C2.64,1.14 2.56,1.18 2.54,1.37 L2.62,1.28 L2.68,1.38 L2.68,1.2 L2.73,1.31 L2.73,1.13 L2.73,1.26 L2.81,1.13 L2.86,1.13 L2.86,1.04 L2.86,1.1 C2.89094011,1.08213672 2.92905989,1.08213672 2.96,1.1 L3.19,1 L3.19,1.06 L3.19,0.99 L3.19,1.05 L3.37,1 L3.37,1.05 L3.37,1 L3.32,1.06 L3.32,1.01 L3.27,1.08 L3.27,1.02 L3.21,1.11 C3.21,1.11 3.11,1.11 3.11,1.11 L3.11,1.05 L3.11,1.14 L3.06,1.14 L2.97,1.26 L2.97,1.13 L2.97,1.32 L2.97,1.21 L2.97,1.35 L2.68,1.35 Z" id="Shape" fill="#000000" fill-rule="nonzero"></path>
                <path d="M3.54,1 C3.23049883,1.03377874 2.94151406,1.17122271 2.72,1.39 L2.8,1.39 L2.8,1.47 L2.8,1.39 L2.8,1.45 C2.8,1.45 2.8,1.39 2.88,1.45 L2.88,1.38 L2.88,1.45 L2.88,1.37 C2.88,1.37 2.88,1.46 2.88,1.45 C2.88,1.44 2.94,1.3 2.96,1.3 L2.96,1.39 L2.96,1.3 L2.96,1.37 L2.96,1.27 L2.96,1.35 C2.96,1.35 2.96,1.27 2.96,1.26 L3.19,1.1 L3.54,1 Z" id="Shape" fill="#2C6C1E"></path>
                <path d="M2.84,1.48 L2.84,1.4 L2.76,1.4 C2.97350174,1.17412458 3.2608645,1.03221704 3.57,1 C3.26403747,1.03594495 2.97890019,1.17323327 2.76,1.39 L2.84,1.34 L2.84,1.42 L2.84,1.34 L2.84,1.41 C2.84,1.41 2.84,1.41 2.84,1.41 C2.84,1.41 2.84,1.41 2.89,1.41 L2.89,1.38 L2.89,1.45 L2.89,1.37 C2.88835742,1.39664137 2.88835742,1.42335863 2.89,1.45 C2.89,1.45 2.94,1.3 2.97,1.3 L2.97,1.4 L2.97,1.31 L2.97,1.38 L2.97,1.28 L2.97,1.35 C2.95928415,1.32095691 2.95928415,1.28904309 2.97,1.26 L3.03,1.26 L3.25,1.1 L3.03,1.27 L2.97,1.27 C2.96570567,1.29649378 2.96570567,1.32350622 2.97,1.35 L2.97,1.28 L2.97,1.38 L2.97,1.31 L2.97,1.4 L2.97,1.31 C2.94153501,1.36093799 2.91809133,1.41452354 2.9,1.47 C2.9,1.47 2.9,1.4 2.9,1.39 L2.9,1.47 L2.9,1.4 L2.9,1.47 L2.85,1.47 C2.85,1.47 2.85,1.47 2.85,1.47 L2.85,1.41 L2.85,1.49 L2.84,1.48 Z" id="Shape" fill="#000000" fill-rule="nonzero"></path>
                <path d="M3.57,1.09 C3.34487435,1.19137958 3.18406599,1.39706469 3.14,1.64 C3.24,1.51 3.22,1.53 3.27,1.64 C3.26339233,1.59021831 3.26339233,1.53978169 3.27,1.49 L3.27,1.59 L3.27,1.5 L3.27,1.42 C3.27,1.42 3.27,1.36 3.27,1.32 C3.27,1.28 3.21,1.32 3.27,1.22 C3.27,1.22 3.27,1.22 3.27,1.15 L3.44,1.09 L3.57,1.09 Z" id="Shape" fill="#2C6C1E"></path>
                <path d="M3.28,1.68 L3.28,1.62 C3.28,1.62 3.28,1.56 3.28,1.56 C3.28,1.56 3.28,1.56 3.22,1.63 C3.22,1.57 3.28,1.55 3.29,1.56 C3.3,1.57 3.29,1.56 3.29,1.63 L3.29,1.69 C3.27635789,1.64093054 3.27635789,1.58906946 3.29,1.54 L3.29,1.64 L3.29,1.5 L3.29,1.42 L3.29,1.5 L3.29,1.63 L3.29,1.53 C3.29,1.53 3.29,1.63 3.29,1.68 L3.28,1.68 Z M3.16,1.55 C3.22195536,1.34124175 3.37158307,1.1697173 3.57,1.08 C3.3742824,1.17122142 3.22308942,1.33681372 3.15,1.54 L3.16,1.55 Z M3.42,1.34 C3.42,1.34 3.42,1.34 3.42,1.25 C3.40928203,1.23143594 3.40928203,1.20856406 3.42,1.19 L3.59,1.13 L3.43,1.2 C3.42444007,1.21961359 3.42444007,1.24038641 3.43,1.26 L3.38,1.26 C3.37159089,1.28600373 3.37159089,1.31399627 3.38,1.34 L3.42,1.34 Z" id="Shape" fill="#000000" fill-rule="nonzero"></path>
                <path d="M3.59,1.12 L3.5,1.29 L3.4,1.37 L3.49,1.37 C3.4121187,1.39985839 3.35532474,1.46801114 3.34,1.55 L3.47,1.49 C3.4153645,1.54481101 3.37129552,1.60921952 3.34,1.68 L3.42,1.61 C3.37339801,1.66950642 3.35186962,1.74485576 3.36,1.82 L3.42,1.76 C3.39479415,1.85757424 3.4170257,1.96132151 3.48,2.04 C3.46984034,1.9737204 3.46984034,1.9062796 3.48,1.84 L3.63,2 L3.55,1.78 C3.55,1.78 3.64,1.92 3.7,1.91 L3.58,1.73 L3.7,1.82 L3.57,1.62 L3.69,1.62 C3.69,1.62 3.6,1.51 3.61,1.44 L3.69,1.53 C3.6819736,1.48367846 3.6819736,1.43632154 3.69,1.39 L3.6,1.29 L3.66,1.29 L3.66,1.25 L3.66,1.17 L3.59,1.12 Z" id="Shape" fill="#2C6C1E"></path>
                <path d="M3.53,2 C3.4585814,1.92572974 3.4319343,1.81914133 3.46,1.72 L3.46,1.79 C3.44953249,1.71467386 3.47131755,1.63842615 3.52,1.58 C3.48691184,1.64504298 3.46977328,1.71702491 3.47,1.79 L3.47,1.72 C3.45197357,1.81905719 3.47747918,1.92107962 3.54,2 C3.52261538,1.93446668 3.52261538,1.86553332 3.54,1.8 L3.7,1.96 L3.61,1.75 C3.61,1.75 3.72,1.88 3.77,1.87 L3.65,1.7 L3.78,1.79 L3.64,1.6 L3.77,1.6 C3.72161755,1.5522152 3.6930479,1.48793349 3.69,1.42 L3.78,1.5 C3.7694122,1.45731341 3.7694122,1.41268659 3.78,1.37 L3.83,1.37 L3.74,1.28 L3.8,1.28 L3.8,1.25 L3.8,1.31 L3.74,1.31 L3.83,1.4 C3.82672012,1.44327127 3.82672012,1.48672873 3.83,1.53 L3.73,1.44 C3.74795939,1.50226529 3.77860101,1.56014391 3.82,1.61 L3.69,1.61 L3.83,1.8 L3.7,1.71 L3.83,1.88 C3.76,1.88 3.68,1.76 3.67,1.76 L3.76,1.98 L3.6,1.83 C3.59475916,1.89322491 3.59475916,1.95677509 3.6,2.02 L3.53,2 Z M3.53,1.81 C3.54220587,1.72041384 3.54220587,1.62958616 3.53,1.54 C3.52886272,1.39904569 3.56694839,1.26055236 3.64,1.14 C3.57221235,1.25864623 3.53766675,1.39337405 3.54,1.53 C3.54244678,1.62251008 3.52541148,1.71450071 3.49,1.8 L3.53,1.81 Z M3.39,1.66 C3.4117277,1.58394563 3.45311801,1.51496179 3.51,1.46 L3.38,1.53 C3.38813892,1.44572622 3.4419197,1.37273802 3.52,1.34 C3.52,1.34 3.39,1.4 3.38,1.53 L3.51,1.46 C3.51,1.46 3.4,1.59 3.39,1.66 L3.46,1.59 L3.39,1.66 Z M3.44,1.37 L3.54,1.28 L3.62,1.1 L3.53,1.27 L3.43,1.36 L3.51,1.36 L3.43,1.36 L3.44,1.37 Z" id="Shape" fill="#000000" fill-rule="nonzero"></path>
                <path d="M2.87,4.67 C2.87,4.67 2.82,4.67 2.82,4.67 C2.82,4.67 2.9,4.67 2.91,4.67 C2.92,4.67 2.97,4.67 3,4.67 C3.01502657,4.64905678 3.03922373,4.6366369 3.065,4.6366369 C3.09077627,4.6366369 3.11497343,4.64905678 3.13,4.67 C3.16416408,4.63944272 3.21583592,4.63944272 3.25,4.67 C3.26265622,4.64893877 3.28542857,4.63605551 3.31,4.63605551 C3.33457143,4.63605551 3.35734378,4.64893877 3.37,4.67 C3.37,4.67 3.37,4.67 3.37,4.67 C3.38327262,4.65314151 3.40354374,4.64330127 3.425,4.64330127 C3.44645626,4.64330127 3.46672738,4.65314151 3.48,4.67 C3.48,4.67 3.48,4.67 3.56,4.67 C3.64,4.67 3.61,4.67 3.61,4.67 C3.61,4.67 3.61,4.67 3.61,4.67 C3.61,4.67 3.61,4.67 3.61,4.67 C3.61,4.67 3.61,4.67 3.56,4.67 C3.56,4.67 3.56,4.67 3.51,4.67 C3.49672738,4.68685849 3.47645626,4.69669873 3.455,4.69669873 C3.43354374,4.69669873 3.41327262,4.68685849 3.4,4.67 C3.38888353,4.68675871 3.37011045,4.69683375 3.35,4.69683375 C3.32988955,4.69683375 3.31111647,4.68675871 3.3,4.67 C3.26583592,4.70055728 3.21416408,4.70055728 3.18,4.67 C3.18,4.67 3.09,4.67 3.07,4.67 C3.05,4.67 2.99,4.67 2.99,4.67 C2.99,4.67 2.99,4.67 2.99,4.67 L2.87,4.67 Z" id="Shape" fill="#E6B32D"></path>
                <path d="M3.32,4.74 C3.30101383,4.74900593 3.27898617,4.74900593 3.26,4.74 C3.31,4.74 3.34,4.74 3.37,4.74 L3.43,4.74 C3.43,4.74 3.43,4.74 3.43,4.74 C3.43,4.74 3.43,4.74 3.43,4.74 C3.43,4.74 3.37,4.74 3.35,4.74 C3.33101383,4.74900593 3.30898617,4.74900593 3.29,4.74 L3.32,4.74 Z M2.95,4.74 C2.93452995,4.74893164 2.91547005,4.74893164 2.9,4.74 C2.9,4.74 2.9,4.74 2.9,4.74 C2.91111647,4.75675871 2.92988955,4.76683375 2.95,4.76683375 C2.97011045,4.76683375 2.98888353,4.75675871 3,4.74 C3.06,4.74 3.08,4.74 3.13,4.74 C3.18,4.74 3.19,4.8 3.23,4.74 C3.16,4.81 3.12,4.74 3.11,4.74 C3.09481336,4.75722003 3.07296005,4.76708497 3.05,4.76708497 C3.02703995,4.76708497 3.00518664,4.75722003 2.99,4.74 C2.97143594,4.75071797 2.94856406,4.75071797 2.93,4.74 L2.95,4.74 Z M2.85,4.74 C2.85,4.74 2.85,4.74 2.85,4.74 C2.85,4.74 2.94,4.74 2.95,4.74 C2.96408951,4.71453473 2.99089684,4.69872983 3.02,4.69872983 C3.04910316,4.69872983 3.07591049,4.71453473 3.09,4.74 C3.09,4.74 3.18,4.74 3.21,4.74 C3.24,4.74 3.29,4.74 3.33,4.74 C3.37,4.74 3.44,4.74 3.48,4.74 C3.52,4.74 3.4,4.74 3.38,4.74 L3.33,4.74 C3.31672738,4.72314151 3.29645626,4.71330127 3.275,4.71330127 C3.25354374,4.71330127 3.23327262,4.72314151 3.22,4.74 C3.18444444,4.71333333 3.13555556,4.71333333 3.1,4.74 C3.03,4.74 3,4.74 2.97,4.74 L2.92,4.74 L2.85,4.74 Z" id="Shape" fill="#000000" fill-rule="nonzero"></path>
                <polygon id="Shape" fill="#E6B32D" points="4.31 2.83 4.48 2.46 4.41 2.45 4.1 3.05"></polygon>
                <path d="M4.08,3.09 L4.41,2.45 L4.49,2.45 L4.32,2.82 L4.08,3.08 L4.08,3.09 Z M4.41,2.46 L4.12,3.02 L4.31,2.83 L4.48,2.47 L4.41,2.46 Z" id="Shape" fill="#000000" fill-rule="nonzero"></path>
                <polygon id="Shape" fill="#FFFFFF" points="4.7 2.04 4.52 2.55 4.42 2.55"></polygon>
                <path d="M4.52,2.56 L4.42,2.56 L4.7,2 L4.52,2.52 L4.52,2.56 Z M4.7,2 L4.43,2.52 L4.52,2.52 L4.7,2 Z" id="Shape" fill="#000000" fill-rule="nonzero"></path>
                <polygon id="Shape" fill="#E6B32D" points="4.14 2.36 4.05 2.35 3.87 3.07 3.91 3.3"></polygon>
                <path d="M3.91,3.33 L3.91,3.07 L4,2.35 L4.1,2.35 L3.87,3.35 L3.91,3.33 Z M4.13,2.33 L4,2.33 L3.83,3.05 L3.83,3.25 L4.05,2.33 L4.13,2.33 Z" id="Shape" fill="#000000" fill-rule="nonzero"></path>
                <polygon id="Shape" fill="#E6B32D" points="4.06 3.1 4.35 2.32 4.24 2.32 3.9 3.26"></polygon>
                <path d="M3.89,3.29 L4.24,2.29 L4.35,2.29 L4.07,3.07 L3.89,3.26 L3.89,3.29 Z M4.34,2.29 L4.24,2.29 L3.92,3.21 L4.06,3.07 L4.35,2.3 L4.34,2.29 Z" id="Shape" fill="#000000" fill-rule="nonzero"></path>
                <polygon id="Shape" fill="#FFFFFF" points="4.48 1.88 4.36 2.42 4.27 2.42"></polygon>
                <path d="M4.37,2.43 L4.27,2.43 L4.48,1.88 L4.37,2.43 Z M4.48,1.89 L4.28,2.43 L4.36,2.43 L4.48,1.9 L4.48,1.89 Z" id="Shape" fill="#000000" fill-rule="nonzero"></path>
                <polygon id="Shape" fill="#FFFFFF" points="4.24 1.87 4.17 2.43 4.1 2.43"></polygon>
                <path d="M4.18,2.44 L4.1,2.44 L4.23,1.88 L4.18,2.44 Z M4.23,1.88 L4.11,2.43 L4.17,2.43 L4.23,1.88 Z" id="Shape" fill="#000000" fill-rule="nonzero"></path>
                <path d="M4.29,2.88 L5.06,2 C5.20617694,2.13917276 5.27682319,2.33995682 5.25,2.54 L4.38,3.22 L4.29,2.88 Z" id="Shape" fill="#233189"></path>
                <path d="M4.38,3.28 L4.28,2.89 L5.05,2 C5.20213478,2.13619365 5.28015084,2.33680639 5.26,2.54 L4.38,3.23 L4.38,3.28 Z M5.06,2 L4.3,2.84 L4.39,3.21 L5.25,2.53 C5.26940552,2.33184099 5.1954799,2.1359381 5.05,2 L5.06,2 Z" id="Shape" fill="#000000" fill-rule="nonzero"></path>
                <path d="M3.85,3.34 L4.42,2.76 C4.66,2.76 4.42,3.13 4.42,3.17 L3.81,3.69 L3.85,3.34 Z" id="Shape" fill="#C00024"></path>
                <path d="M3.84,3.71 L3.84,3.34 L4.41,2.76 C4.44486023,2.74372292 4.48513977,2.74372292 4.52,2.76 C4.57,2.85 4.52,3.01 4.47,3.09 L3.85,3.62 L3.84,3.71 Z M4.42,2.77 L3.85,3.34 L3.85,3.68 L4.45,3.17 C4.45,3.09 4.55,2.93 4.45,2.85 C4.4185932,2.83397279 4.3814068,2.83397279 4.35,2.85 L4.42,2.77 Z" id="Shape" fill="#000000" fill-rule="nonzero"></path>
                <polygon id="Shape" fill="#E6B32D" points="3.9 3.24 5.07 1.98 5.12 2.02 3.87 3.4"></polygon>
                <path d="M3.87,3.42 L3.87,3.24 L5.07,2 L5.12,2 L3.86,3.41 L3.87,3.42 Z M5.07,2 L3.9,3.25 L3.9,3.38 L5.12,2 L5.07,2 Z" id="Shape" fill="#000000" fill-rule="nonzero"></path>
                <polygon id="Shape" fill="#E6B32D" points="5.14 1.9 5.17 1.87 5.16 1.81 5.41 1.66 5.3 1.9 5.22 1.92 5.19 1.95"></polygon>
                <path d="M5.19,2 L5.13,1.95 L5.13,1.81 L5.38,1.65 L5.28,1.9 L5.16,1.9 L5.19,2 Z M5.4,1.7 L5.17,1.86 L5.17,1.92 L5.26,1.92 L5.36,1.68 L5.4,1.7 Z" id="Shape" fill="#000000" fill-rule="nonzero"></path>
                <path d="M5.27,2 C5.22103493,1.93807447 5.15974013,1.88699546 5.09,1.85 L5.02,1.95 L5.16,2.07 L5.27,2 Z" id="Shape" fill="#E6B32D"></path>
                <path d="M5.17,2.07 L5,1.95 L5.06,1.84 C5.13466371,1.8736824 5.19990916,1.92519197 5.25,1.99 L5.15,2.07 L5.17,2.07 Z M5.09,1.85 L5.03,1.95 L5.17,2.06 L5.27,1.99 C5.21770425,1.9341923 5.15696334,1.88694937 5.09,1.85 Z" id="Shape" fill="#000000" fill-rule="nonzero"></path>
                <path d="M4.63,3.1 L5.63,2.33 C5.8,2.5 5.63,3.02 5.63,3.02 L4.69,3.53 L4.63,3.1 Z" id="Shape" fill="#233189"></path>
                <path d="M4.67,3.54 L4.67,3.1 L5.67,2.33 C5.84,2.5 5.67,3 5.67,3.02 L4.67,3.54 Z M5.59,2.34 L4.59,3.11 L4.59,3.53 L5.52,3.02 C5.52,3.02 5.65,2.51 5.52,2.34 L5.59,2.34 Z" id="Shape" fill="#000000" fill-rule="nonzero"></path>
                <path d="M3.83,3.72 L4.62,3.08 C4.89,3.08 4.68,3.52 4.62,3.56 L3.78,4.02 L3.83,3.72 Z" id="Shape" fill="#C00024"></path>
                <path d="M3.82,4 L3.82,3.69 L4.62,3.05 C4.67261213,3.04891452 4.72194542,3.0754786 4.75,3.12 C4.81,3.23 4.75,3.44 4.69,3.51 C4.69,3.42 4.82,3.22 4.76,3.11 C4.73853087,3.0686367 4.6965631,3.04192993 4.65,3.04 L3.86,3.67 L3.86,4 L4.49,3.66 L3.85,4.02 L3.82,4 Z" id="Shape" fill="#000000" fill-rule="nonzero"></path>
                <polygon id="Shape" fill="#E6B32D" points="3.86 3.6 5.57 2.31 5.61 2.35 3.81 3.76"></polygon>
                <path d="M3.8,3.77 L3.85,3.59 L5.57,2.3 L3.8,3.77 Z M5.57,2.31 L3.86,3.6 L3.86,3.74 L5.65,2.34 L5.57,2.31 Z" id="Shape" fill="#000000" fill-rule="nonzero"></path>
                <polygon id="Shape" fill="#E6B32D" points="5.66 2.24 5.69 2.21 5.7 2.15 5.96 2.04 5.81 2.27 5.73 2.27 5.7 2.29"></polygon>
                <path d="M5.69,2.3 L5.69,2.24 L5.69,2.15 L6,2 L5.86,2.23 L5.73,2.23 L5.69,2.3 Z M6,2 L5.74,2.12 L5.74,2.18 L5.83,2.18 L6,2 Z" id="Shape" fill="#000000" fill-rule="nonzero"></path>
                <path d="M5.76,2.35 C5.72284718,2.28317734 5.67167661,2.22518402 5.61,2.18 L5.53,2.26 L5.65,2.41 L5.76,2.35 Z" id="Shape" fill="#E6B32D"></path>
                <path d="M5.65,2.41 L5.53,2.26 L5.61,2.17 C5.67776329,2.21542811 5.73282985,2.27737798 5.77,2.35 L5.65,2.42 L5.65,2.41 Z M5.65,2.18 L5.57,2.27 L5.69,2.4 L5.8,2.35 C5.7594235,2.28855549 5.70870165,2.23445218 5.65,2.19 L5.65,2.18 Z" id="Shape" fill="#000000" fill-rule="nonzero"></path>
                <path d="M4.7,3.57 L5.94,2.87 C6.01323945,2.99685444 6.01323945,3.15314556 5.94,3.28 C5.9789773,3.40025381 5.9789773,3.52974619 5.94,3.65 C5.92203276,3.78103335 5.85826762,3.90147861 5.76,3.99 C5.65,4.42 5.21,4.45 5.04,4.1 L4.7,3.57 Z" id="Shape" fill="#233189"></path>
                <path d="M5.3,4.33 C5.14620878,4.32603403 5.009119,4.23202961 4.95,4.09 L4.69,3.57 L5.94,2.86 C6.01536681,2.98627614 6.01536681,3.14372386 5.94,3.27 C5.94,3.27 5.94,3.27 5.94,3.34 C5.95360333,3.44274827 5.93619178,3.54721759 5.89,3.64 C5.87042828,3.77051101 5.80693366,3.89044531 5.71,3.98 C5.68201083,4.17183429 5.52348402,4.31784583 5.33,4.33 L5.3,4.33 Z M5.93,2.87 L4.69,3.57 L4.96,4.08 C5.01555831,4.22046639 5.1490387,4.31468784 5.3,4.32 C5.48801286,4.30794344 5.64212632,4.16632567 5.67,3.98 C5.76693366,3.89044531 5.83042828,3.77051101 5.85,3.64 C5.89538034,3.5505377 5.91280172,3.44949369 5.9,3.35 C5.89707185,3.32675853 5.89707185,3.30324147 5.9,3.28 C5.96756839,3.15522696 5.96756839,3.00477304 5.9,2.88 L5.93,2.87 Z" id="Shape" fill="#000000" fill-rule="nonzero"></path>
                <path d="M3.88,4 L4.72,3.51 C4.99,3.51 4.72,4.05 4.72,4.1 L3.9,4.39 L3.88,4 Z" id="Shape" fill="#C00024"></path>
                <path d="M3.88,4.42 L3.88,4 L4.72,3.5 C4.7665631,3.50192993 4.80853087,3.5286367 4.83,3.57 C4.9,3.7 4.77,3.96 4.72,4.06 L3.9,4.35 L3.88,4.42 Z M4.72,3.54 L3.88,4.03 L3.88,4.4 L4.69,4.11 C4.75,3.98 4.87,3.72 4.81,3.6 C4.7912261,3.56684657 4.75782389,3.54457844 4.72,3.54 Z" id="Shape" fill="#000000" fill-rule="nonzero"></path>
                <polygon id="Shape" fill="#E6B32D" points="4.02 3.85 5.93 2.84 5.96 2.89 3.95 4"></polygon>
                <path d="M3.94,4 L4.02,3.83 L5.92,2.83 L3.92,3.97 L3.94,4 Z M5.94,2.83 L4.04,3.83 L4,4 L6,2.89 L5.94,2.83 Z" id="Shape" fill="#000000" fill-rule="nonzero"></path>
                <polygon id="Shape" fill="#E6B32D" points="6.02 2.78 6.05 2.77 6.07 2.71 6.35 2.64 6.17 2.84 6.09 2.82 6.05 2.84"></polygon>
                <path d="M6,2.85 L6,2.79 L6,2.71 L6.29,2.64 L6.11,2.85 L6.02,2.85 L6,2.85 Z M6.3,2.64 L6.02,2.72 L6.02,2.78 L6.11,2.78 L6.29,2.58 L6.3,2.64 Z" id="Shape" fill="#000000" fill-rule="nonzero"></path>
                <path d="M6.1,2.91 C6.08098583,2.83708648 6.04692231,2.76895945 6,2.71 L5.91,2.78 L6,2.94 L6.1,2.91 Z" id="Shape" fill="#E6B32D"></path>
                <path d="M6,3 L5.9,2.83 L6,2.75 C6.05947198,2.80466578 6.10418598,2.87345655 6.13,2.95 L6,3 Z M6,2.77 L5.91,2.84 L6,2.99 L6.11,2.99 C6.09240543,2.89335973 6.05494921,2.80142171 6,2.72 L6,2.77 Z" id="Shape" fill="#000000" fill-rule="nonzero"></path>
                <path d="M5.39,2.2 L5.39,2.27 C5.39,2.27 5.08,2 5.08,2 L4.9,2 L4.9,1.94 C4.93036175,1.90200028 4.97636036,1.87987492 5.025,1.87987492 C5.07363964,1.87987492 5.11963825,1.90200028 5.15,1.94 L5.39,2.2 Z" id="Shape" fill="#233189"></path>
                <path d="M5.36,2.28 C5.36,2.28 5.11,2.07 5.09,2.05 L4.92,2.05 L4.85,2 C4.96,1.86 5.1,2 5.11,2 L5.4,2.2 L5.4,2.28 L5.36,2.28 Z M5,1.93 C4.95633589,1.93299446 4.91615744,1.95490998 4.89,1.99 L4.94,1.99 L5.11,1.99 L5.38,2.22 L5.38,2.16 L5.11,2 C5.08218201,1.96503433 5.04345652,1.94039083 5,1.93 Z" id="Shape" fill="#233189" fill-rule="nonzero"></path>
                <path d="M5.25,2.32 C5.2197367,2.23743261 5.17197895,2.1623847 5.11,2.1 C5.02,2.1 4.94,2.18 4.85,1.98 C4.93,2.08 5.08,1.98 5.08,1.98 L5.15,2.04 L5.36,2.23 L5.25,2.32 Z" id="Shape" fill="#C00024"></path>
                <path d="M5.25,2.33 C5.2230128,2.2563421 5.1822924,2.18847477 5.13,2.13 C5.18907483,2.18098993 5.23387422,2.24646598 5.26,2.32 L5.36,2.25 L5.08,2 C5.08,2 4.91,2.08 4.85,2 C4.96,2.21 5.02,2.14 5.09,2.12 C4.94,2.17 4.9,2.12 4.83,1.99 C4.92,2.05 5.07,1.99 5.07,1.99 L5.15,2.05 L5.35,2.27 L5.24,2.36 L5.25,2.33 Z" id="Shape" fill="#C00024" fill-rule="nonzero"></path>
                <path d="M5.86,2.56 L5.86,2.63 C5.86,2.63 5.62,2.38 5.62,2.38 L5.45,2.38 L5.45,2.32 C5.57,2.18 5.7,2.32 5.7,2.32 L5.86,2.56 Z" id="Shape" fill="#233189"></path>
                <path d="M5.85,2.64 C5.85,2.64 5.63,2.41 5.61,2.39 L5.44,2.39 L5.44,2.33 C5.55,2.18 5.69,2.33 5.7,2.33 L5.91,2.55 L5.91,2.64 L5.85,2.64 Z M5.49,2.25 C5.45357046,2.25073201 5.41986731,2.26945598 5.4,2.3 L5.57,2.3 L5.8,2.55 L5.8,2.56 L5.59,2.34 C5.59,2.34 5.52,2.24 5.44,2.24 L5.49,2.25 Z" id="Shape" fill="#233189" fill-rule="nonzero"></path>
                <path d="M5.72,2.69 C5.70760674,2.59357287 5.67340807,2.50123646 5.62,2.42 C5.52,2.42 5.43,2.5 5.39,2.28 C5.45,2.39 5.62,2.28 5.62,2.28 L5.68,2.35 L5.85,2.58 L5.72,2.69 Z" id="Shape" fill="#C00024"></path>
                <path d="M5.71,2.7 C5.69906282,2.61873571 5.67185408,2.54051059 5.63,2.47 C5.6772484,2.53503257 5.70812072,2.61049825 5.72,2.69 L5.84,2.69 L5.66,2.47 L5.61,2.41 C5.61,2.41 5.42,2.47 5.38,2.41 C5.44,2.64 5.51,2.57 5.59,2.55 C5.43,2.6 5.39,2.55 5.36,2.41 C5.43,2.48 5.59,2.41 5.6,2.41 L5.67,2.48 L5.84,2.7 L5.7,2.77 L5.71,2.7 Z" id="Shape" fill="#C00024" fill-rule="nonzero"></path>
                <path d="M6.18,3.14 L6.18,3.22 C6.18,3.22 5.98,2.91 5.98,2.91 L5.81,2.85 L5.81,2.78 C5.94,2.66 6.04,2.87 6.04,2.87 L6.18,3.14 Z" id="Shape" fill="#233189"></path>
                <path d="M6.14,3.22 C6.14,3.22 5.96,2.94 5.94,2.91 L5.78,2.86 L5.78,2.79 C5.9,2.65 6.02,2.87 6.03,2.88 L6.23,3.14 L6.23,3.23 L6.14,3.22 Z M5.82,2.75 C5.79411833,2.74084945 5.76588167,2.74084945 5.74,2.75 L5.74,2.81 L5.9,2.86 L6.1,3.16 L6.1,3.09 L6,2.88 C6,2.88 5.94,2.75 5.86,2.75 L5.82,2.75 Z" id="Shape" fill="#233189" fill-rule="nonzero"></path>
                <path d="M6,3.25 C6.01361846,3.16722305 6.01361846,3.08277695 6,3 C5.89,3 5.81,3 5.78,2.82 C5.84,2.92 6,2.88 6,2.88 L6,2.95 L6.14,3.21 L6,3.25 Z" id="Shape" fill="#C00024"></path>
                <path d="M6,3.26 C6.01365858,3.17387148 6.01365858,3.08612852 6,3 L5.92,3 C5.84,3 5.8,2.94 5.79,2.8 C5.85164719,2.85749884 5.93812081,2.88005717 6.02,2.86 L6.07,2.94 L6.2,3.23 L6.05,3.28 L6,3.26 Z M6,3 C6.04138054,3.09098123 6.06188126,3.19006805 6.06,3.29 L6.18,3.29 L6,2.85 C5.91926803,2.87268562 5.83277906,2.8451664 5.78,2.78 C5.78,3.04 5.92,2.97 6,2.95 L6,3 Z" id="Shape" fill="#C00024" fill-rule="nonzero"></path>
                <polygon id="Shape" fill="#E6B32D" points="4.04 4.32 4.51 4.17 4.72 3.82 5.45 3.78 5.42 4.05 4.8 4.17 4.74 4.27 4.02 4.47"></polygon>
                <path d="M4,4.48 L4,4.32 L4.48,4.17 L4.68,3.82 L5.42,3.82 L5.42,4.09 L4.79,4.22 L4.74,4.32 L4.01,4.53 L4,4.48 Z M5.42,3.78 L4.7,3.78 L4.5,4.13 L4.02,4.28 L4.02,4.42 L4.73,4.22 L4.79,4.12 L5.41,4 L5.41,3.74 L5.42,3.78 Z" id="Shape" fill="#000000" fill-rule="nonzero"></path>
                <polygon id="Shape" fill="#4D3509" points="4.53 4.42 5.28 3.32 5.32 3.35 4.57 4.45"></polygon>
                <path d="M4.58,4.46 L5.33,3.35 L4.58,4.47 L4.58,4.46 Z M5.28,3.32 L4.54,4.42 L5.28,3.32 Z" id="Shape" fill="#000000" fill-rule="nonzero"></path>
                <path d="M5.21,3.36 L5.29,3.23 C5.29,3.23 5.29,3.23 5.36,3.23 L5.29,3.36 L5.21,3.36 Z" id="Shape" fill="#FFFFFF"></path>
                <path d="M5.31,3.42 L5.21,3.37 L5.29,3.23 C5.29,3.23 5.35,3.23 5.35,3.23 C5.35615535,3.24609834 5.35615535,3.26390166 5.35,3.28 L5.27,3.41 L5.31,3.42 Z M5.31,3.21 L5.19,3.37 L5.28,3.37 L5.35,3.25 L5.3,3.25 L5.31,3.21 Z" id="Shape" fill="#000000" fill-rule="nonzero"></path>
                <polygon id="Shape" fill="#E6B32D" points="4.44 3.74 5.95 3.59 5.99 3.8 4.49 3.95"></polygon>
                <path d="M4.48,4 L4.48,3.78 L6,3.58 L6,3.81 L4.48,4 Z M5.94,3.62 L4.44,3.78 L4.44,3.99 L6,3.8 L6,3.59 L5.94,3.62 Z" id="Shape" fill="#000000" fill-rule="nonzero"></path>
                <polygon id="Shape" fill="#E6B32D" points="5.98 3.53 6.02 3.83 5.96 3.83 5.91 3.55"></polygon>
                <polygon id="Shape" fill="#000000" fill-rule="nonzero" points="6.02 3.84 5.96 3.84 5.91 3.55 5.98 3.52 6.02 3.84"></polygon>
                <polygon id="Shape" fill="#E6B32D" points="5.73 3.58 5.75 3.85 5.71 3.86 5.68 3.61"></polygon>
                <polygon id="Shape" fill="#000000" fill-rule="nonzero" points="5.7 3.86 5.67 3.61 5.73 3.57 5.75 3.86 5.7 3.86"></polygon>
                <polygon id="Shape" fill="#E6B32D" points="4.7 3.7 4.74 3.95 4.67 3.95 4.64 3.7"></polygon>
                <polygon id="Shape" fill="#000000" fill-rule="nonzero" points="4.75 3.96 4.67 3.96 4.63 3.7 4.7 3.69 4.75 3.96"></polygon>
                <path d="M4.48,3.7 L4.53,4 L4.45,4 L4.45,3.84 C4.44499169,3.87471159 4.41506919,3.90035945 4.38,3.9 C4.34134007,3.9 4.31,3.86865993 4.31,3.83 C4.31,3.79134007 4.34134007,3.76 4.38,3.76 C4.41865993,3.76 4.45,3.79134007 4.45,3.83 L4.45,3.72 L4.48,3.7 Z" id="Shape" fill="#E6B32D"></path>
                <path d="M4.44,4 L4.44,3.84 C4.44,3.92 4.3,3.9 4.3,3.84 C4.31163859,3.80864471 4.34155436,3.78783882 4.375,3.78783882 C4.40844564,3.78783882 4.43836141,3.80864471 4.45,3.84 L4.45,3.73 L4.53,3.73 L4.59,4.03 L4.5,4.03 L4.44,4 Z M4.44,3.84 L4.44,3.99 L4.52,3.99 L4.46,3.7 L4.4,3.7 L4.4,3.8 C4.35,3.75 4.26,3.8 4.26,3.8 C4.26,3.8 4.38,3.88 4.39,3.8 L4.44,3.84 Z" id="Shape" fill="#000000" fill-rule="nonzero"></path>
                <polygon id="Shape" fill="#E6B32D" points="5.03 3.75 5.23 3.98 5.21 4.01 4.94 3.83"></polygon>
                <path d="M5.21,4 L4.94,3.81 L5.02,3.72 L5.24,3.96 L5.21,4 Z M5,3.75 L4.93,3.83 L5.19,4 L5,3.75 Z" id="Shape" fill="#000000" fill-rule="nonzero"></path>
                <polygon id="Shape" fill="#E6B32D" points="5.51 4.33 5.3 4.1 5.32 4.07 5.59 4.26"></polygon>
                <path d="M5.51,4.34 L5.3,4.1 L5.58,4.28 L5.49,4.37 L5.51,4.34 Z M5.32,4.07 L5.51,4.32 L5.59,4.25 L5.32,4.08 L5.32,4.07 Z" id="Shape" fill="#000000" fill-rule="nonzero"></path>
                <polygon id="Shape" fill="#E6B32D" points="4.96 4.28 5.22 4.08 5.25 4.1 5.04 4.35"></polygon>
                <path d="M5,4.36 L5,4.28 L5.25,4.07 L5.05,4.33 L5,4.36 Z M5.2,4.09 L4.93,4.28 L5,4.34 L5.2,4.09 Z" id="Shape" fill="#000000" fill-rule="nonzero"></path>
                <polygon id="Shape" fill="#E6B32D" points="5.59 3.82 5.33 4.01 5.3 3.99 5.5 3.74"></polygon>
                <path d="M5.33,4 L5.53,3.74 L5.62,3.83 L5.36,4.03 L5.33,4 Z M5.5,3.72 L5.3,4 L5.56,3.81 L5.47,3.73 L5.5,3.72 Z" id="Shape" fill="#000000" fill-rule="nonzero"></path>
                <polygon id="Shape" fill="#E6B32D" points="5.31 3.67 5.28 3.98 5.25 3.97 5.17 3.68"></polygon>
                <path d="M5.29,4 L5.2,3.7 L5.35,3.7 L5.35,4.02 L5.29,4 Z M5.29,3.69 L5.16,3.69 L5.25,3.98 L5.25,3.67 L5.29,3.69 Z" id="Shape" fill="#000000" fill-rule="nonzero"></path>
                <polygon id="Shape" fill="#E6B32D" points="5.23 4.41 5.25 4.11 5.29 4.1 5.33 4.41"></polygon>
                <path d="M5.34,4.42 L5.22,4.42 L5.22,4.1 L5.28,4.42 L5.34,4.42 Z M5.28,4.1 L5.23,4.41 L5.33,4.41 L5.33,4.11 L5.28,4.1 Z" id="Shape" fill="#000000" fill-rule="nonzero"></path>
                <polygon id="Shape" fill="#E6B32D" points="4.89 4 5.21 4.03 5.21 4.06 4.89 4.11"></polygon>
                <path d="M4.88,4.11 L4.88,4 L5.21,4 L4.88,4 L4.88,4.11 Z M4.88,4 L4.88,4.1 L5.2,4.1 L4.88,4 Z" id="Shape" fill="#000000" fill-rule="nonzero"></path>
                <polygon id="Shape" fill="#E6B32D" points="5.65 4.11 5.34 4.06 5.33 4.03 5.66 3.99"></polygon>
                <polygon id="Shape" fill="#000000" fill-rule="nonzero" points="5.66 4.11 5.34 4.06 5.39 4.05 5.64 4.1 5.65 3.99 5.6 4 5.66 3.99 5.66 4.11"></polygon>
                <path d="M5.18,4 C5.17586023,4.03703372 5.19497132,4.07278853 5.22806348,4.08992163 C5.26115563,4.10705473 5.30138391,4.10202222 5.32923566,4.07726511 C5.3570874,4.05250801 5.36680162,4.01314718 5.35366645,3.97827454 C5.34053128,3.9434019 5.30726367,3.92023066 5.27,3.92 C5.24711105,3.91711554 5.22409115,3.92425262 5.20684843,3.93957948 C5.18960571,3.95490634 5.17981897,3.97693073 5.18,4 Z" id="Shape" fill="#E6B32D"></path>
                <path d="M5.27,4.12 C5.22029437,4.12 5.18,4.07970563 5.18,4.03 C5.18,3.93 5.36,3.93 5.36,4.03 C5.36,4.07970563 5.31970563,4.12 5.27,4.12 Z M5.27,3.95 C5.22581722,3.95 5.19,3.98581722 5.19,4.03 C5.19,4.11 5.35,4.11 5.35,4.03 C5.35,3.98581722 5.31418278,3.95 5.27,3.95 Z" id="Shape" fill="#000000" fill-rule="nonzero"></path>
                <path d="M4.82,4 C4.81593538,4.1828632 4.92295975,4.34999359 5.09075043,4.42280674 C5.25854111,4.4956199 5.45371111,4.45962745 5.58449181,4.33175299 C5.71527251,4.20387853 5.75564116,4.00956652 5.68661649,3.84018215 C5.61759182,3.67079778 5.45290836,3.56004517 5.27,3.56 C5.0253253,3.55993958 4.82543721,3.75538571 4.82,4 Z M4.91,4 C4.90593045,4.14644783 4.99101444,4.28075462 5.12516368,4.33964017 C5.25931293,4.39852573 5.41576642,4.37024317 5.52080931,4.26811814 C5.62585219,4.16599312 5.6585298,4.01039822 5.6034457,3.87464377 C5.54836161,3.73888932 5.41650435,3.65005653 5.27,3.65 C5.07501815,3.64992476 4.91541615,3.80509338 4.91,4 Z" id="Shape" fill="#E6B32D"></path>
                <path d="M5.27,4.48 C5.02990251,4.46907506 4.8429959,4.26750827 4.85019782,4.02727028 C4.85739973,3.78703228 5.0560451,3.59702368 5.29636586,3.60050084 C5.53668663,3.603978 5.72975157,3.79965421 5.73,4.04 C5.72737711,4.15935711 5.67743207,4.27278013 5.59115881,4.35530239 C5.50488554,4.43782464 5.3893558,4.48268184 5.27,4.48 Z M5.27,3.61 C5.03543239,3.62092208 4.85300415,3.81800434 4.86020232,4.05271574 C4.8674005,4.28742714 5.06156285,4.47296005 5.29635892,4.4694876 C5.531155,4.46601515 5.71974586,4.27482162 5.72,4.04 C5.71737777,3.92329482 5.6684865,3.81241494 5.58408844,3.73176791 C5.49969039,3.65112088 5.38670381,3.60731748 5.27,3.61 Z M5.27,4.4 C5.07257242,4.39451377 4.91642857,4.23098844 4.92006092,4.03351805 C4.92369326,3.83604767 5.08574536,3.67837536 5.28324114,3.68015351 C5.48073693,3.68193165 5.63992379,3.84249623 5.64,4.04 C5.64003752,4.13723607 5.60073943,4.23035219 5.53104781,4.29816025 C5.46135619,4.36596832 5.36719856,4.40270101 5.27,4.4 Z M5.27,3.7 C5.08521986,3.71088855 4.94309999,3.86759071 4.95025459,4.05255307 C4.95740919,4.23751542 5.1112092,4.38277099 5.29627832,4.37935326 C5.48134745,4.37593553 5.62967946,4.2251004 5.63,4.04 C5.6273854,3.94716153 5.5879785,3.85916887 5.52045696,3.79539852 C5.45293541,3.73162817 5.3628363,3.69730961 5.27,3.7 Z" id="Shape" fill="#000000" fill-rule="nonzero"></path>
                <path d="M5.55,3.82 L5.62,3.77 L5.55,3.82 Z M5,3.76 L5,3.7 L5,3.76 Z M4.87,4.31 L4.94,4.25 L4.87,4.31 Z M5.51,4.38 L5.45,4.31 L5.51,4.38 Z" id="Shape"></path>
                <polygon id="Shape" fill="#E6B32D" points="4.03 3.6 3.95 4 4.01 4.03 4.08 3.61"></polygon>
                <path d="M4,4 L3.93,4 L4.01,3.6 L4.07,3.6 L4,4 Z M4.06,3.57 L4,4 L4.07,3.58 L4.06,3.57 Z" id="Shape" fill="#000000" fill-rule="nonzero"></path>
                <path d="M4.07,3.55 C4.07,3.55 4.15,3.55 4.23,3.46 C4.36,3.58 4.23,3.59 4.23,3.71 C4.23,3.83 4.17,3.62 4.08,3.61 L3.93,3.61 L4.07,3.55 Z" id="Shape" fill="#FFFFFF"></path>
                <path d="M4.21,3.72 C4.21,3.72 4.21,3.72 4.21,3.72 C4.18592188,3.68111765 4.14542062,3.65534413 4.1,3.65 L3.95,3.65 L3.95,3.59 L4.11,3.59 C4.16354243,3.58538052 4.21174761,3.5557158 4.24,3.51 C4.33,3.59 4.31,3.63 4.24,3.67 C4.23407316,3.69970727 4.23407316,3.73029273 4.24,3.76 L4.21,3.72 Z M3.94,3.56 L4.09,3.56 C4.1345129,3.56778606 4.17409422,3.59297417 4.2,3.63 C4.19379807,3.60032053 4.19379807,3.56967947 4.2,3.54 C4.2,3.54 4.2,3.47 4.2,3.39 C4.17628513,3.43540834 4.1310365,3.46557409 4.08,3.47 L3.92,3.47 L3.94,3.56 Z" id="Shape" fill="#000000" fill-rule="nonzero"></path>
                <path d="M4,3.63 L4,3.51 C4,3.51 4.07,3.51 4.07,3.51 L4.07,3.62 L4,3.63 Z" id="Shape" fill="#FFFFFF"></path>
                <path d="M4.09,3.65 L4,3.65 L4,3.53 L4,3.66 L4.06,3.66 L4.06,3.56 C4.06,3.56 4.06,3.56 4.06,3.56 C4.06,3.56 4.06,3.56 4.06,3.56 L4.06,3.68 L4.09,3.65 Z" id="Shape" fill="#000000" fill-rule="nonzero"></path>
                <path d="M5.74,4.56 L5.79,4.56 L5.74,4.56 Z" id="Shape" fill="#E6B32D"></path>
                <path d="M5.74,4.56 L5.79,4.56 L5.74,4.56 Z" id="Shape"></path>
                <path d="M5.52,4.55 L5.57,4.55 L5.52,4.55 Z" id="Shape" fill="#E6B32D"></path>
                <path d="M5.52,4.55 L5.57,4.55 L5.52,4.55 Z" id="Shape"></path>
                <path d="M4.83,4.29 C4.83,4.29 4.83,4.37 4.83,4.37 L4.8,4.37 C4.8,4.37 4.75,4.43 4.8,4.45 C4.85,4.47 4.95,4.45 4.96,4.45 C4.94781376,4.50483927 4.91072301,4.5508446 4.85971662,4.57438601 C4.80871023,4.59792742 4.74963754,4.59630522 4.7,4.57 C4.64,4.51 4.62,4.37 4.82,4.33 L4.83,4.29 Z" id="Shape" fill="#FFFFFF"></path>
                <path d="M4.74,4.59 C4.71427847,4.60004066 4.68572153,4.60004066 4.66,4.59 C4.63499141,4.54668385 4.63499141,4.49331615 4.66,4.45 C4.66,4.39 4.73,4.35 4.82,4.33 C4.82,4.33 4.82,4.41 4.82,4.42 L4.8,4.42 C4.8,4.42 4.8,4.42 4.87,4.42 C4.94,4.42 4.96,4.42 4.96,4.42 C4.94498609,4.48664382 4.89535062,4.54009741 4.83,4.56 L4.74,4.59 Z M4.74,4.32 C4.67346082,4.3259887 4.61571199,4.36833785 4.59,4.43 C4.57043417,4.46760736 4.57043417,4.51239264 4.59,4.55 C4.63070637,4.57133871 4.67929363,4.57133871 4.72,4.55 C4.78117363,4.53253375 4.82747563,4.48237325 4.84,4.42 L4.76,4.42 C4.76,4.42 4.69,4.42 4.68,4.42 C4.67,4.42 4.68,4.34 4.68,4.33 L4.74,4.32 Z M5.74,4.24 L6.15,4.06 L5.74,4.25 L5.74,4.24 Z" id="Shape" fill="#000000" fill-rule="nonzero"></path>
                <path d="M6.44,3.87 C6.49986186,3.86424209 6.56013814,3.86424209 6.62,3.87 C6.62,3.87 6.62,3.92 6.62,3.94 C6.62,3.96 6.92,4 6.93,3.94 C6.94,3.88 6.69,3.89 6.69,3.87 C6.69,3.85 6.69,3.79 6.69,3.76 C6.69,3.73 6.57,3.7 6.57,3.7 L6.44,3.87 Z" id="Shape" fill="#C00024"></path>
                <path d="M6.8,4 C6.8,4 6.61,4 6.58,3.94 C6.55,3.88 6.58,3.94 6.58,3.89 C6.58,3.84 6.53,3.89 6.45,3.89 L6.59,3.89 C6.59,3.89 6.59,3.96 6.59,3.97 C6.59,3.98 6.88,4.03 6.89,3.97 L6.76,3.97 C6.67,3.97 6.65,3.97 6.65,3.97 C6.65640021,3.94710555 6.65640021,3.92289445 6.65,3.9 C6.65,3.9 6.56,3.85 6.53,3.84 C6.53,3.84 6.65,3.84 6.66,3.9 C6.66762231,3.92271084 6.66762231,3.94728916 6.66,3.97 L6.76,3.97 C6.86,3.97 6.9,3.97 6.9,3.97 C6.9,3.97 6.83,3.97 6.79,3.97 L6.8,4 Z" id="Shape" fill="#C00024" fill-rule="nonzero"></path>
                <path d="M6.24,4 L6.58,3.71 C6.58,3.71 6.58,3.71 6.58,3.71 C6.58,3.71 6.58,3.71 6.58,3.71 L6.22,4 L6.24,4 Z" id="Shape" fill="#4D3509"></path>
                <path d="M6.25,4 L6.59,3.71 L6.22,4.03 L6.25,4 Z M6.6,3.7 L6.24,3.96 L6.59,3.67 L6.6,3.7 Z" id="Shape" fill="#000000" fill-rule="nonzero"></path>
                <polygon id="Shape" fill="#E6B32D" points="5.91 4.28 6.19 4.04 6.19 3.97 6.25 3.97 6.25 4.02 6.17 4.02 5.93 4.24"></polygon>
                <path d="M6,4.3 L5.92,4.3 C5.92,4.3 6.2,4.05 6.2,4.05 L6.2,3.98 C6.2,3.98 6.25,3.98 6.27,3.98 L6.27,4.04 L6.19,4.04 L6,4.3 Z M6.2,4 L5.92,4.24 L6,4.24 L6.24,4.02 L6.31,4.02 L6.25,4.02 L6.2,4 Z" id="Shape" fill="#000000" fill-rule="nonzero"></path>
                <path d="M4.39,4 L4.39,4.11 C4.39,4.11 4.39,4.11 4.39,4.19 L4.39,4.51 C4.39,4.51 4.44,4.51 4.46,4.51 C4.48,4.51 4.46,4.51 4.39,4.58 L4.32,4.58 C4.22,4.58 4.2,4.52 4.25,4.51 L4.33,4.51 L4.33,4.43 L4.27,4.43 C4.27,4.43 4.27,4.43 4.22,4.35 L4.22,4.18 C4.22,4.08 4.29,4.08 4.31,4.08 L4.31,4 L4.39,4 Z M4.28,4.18 C4.28,4.18 4.28,4.18 4.33,4.13 C4.33900593,4.14898617 4.33900593,4.17101383 4.33,4.19 L4.33,4.26 C4.33,4.26 4.33,4.37 4.27,4.38 C4.21,4.39 4.27,4.38 4.27,4.33 L4.28,4.18 Z" id="Shape" fill="#E6B32D"></path>
                <path d="M4.36,4.58 C4.3,4.58 4.26,4.58 4.26,4.52 L4.33,4.52 L4.33,4.45 L4.27,4.45 C4.27,4.45 4.21,4.4 4.21,4.36 L4.21,4.19 C4.21,4.1 4.27,4.08 4.31,4.08 L4.31,4 L4.37,4 L4.37,4.12 C4.37,4.12 4.37,4.12 4.37,4.19 L4.37,4.52 C4.37,4.52 4.37,4.52 4.29,4.57 L4.36,4.58 Z M4.36,4.38 L4.36,4.46 C4.33695269,4.46516673 4.31304731,4.46516673 4.29,4.46 C4.29,4.46 4.29,4.51 4.35,4.53 L4.41,4.53 C4.47,4.53 4.48,4.53 4.48,4.53 L4.48,4.21 C4.48,4.21 4.48,4.15 4.48,4.14 L4.48,4 L4.43,4 C4.37870987,4.0051542 4.33974168,4.04845219 4.34,4.1 L4.34,4.27 C4.34,4.27 4.34,4.34 4.34,4.34 L4.36,4.38 Z M4.36,4.38 C4.34928203,4.36143594 4.34928203,4.33856406 4.36,4.32 L4.36,4.18 C4.36,4.18 4.36,4.12 4.42,4.12 C4.42,4.12 4.47,4.12 4.47,4.18 L4.47,4.25 C4.47,4.25 4.47,4.36 4.4,4.37 L4.36,4.38 Z M4.36,4.14 C4.36,4.14 4.36,4.14 4.36,4.14 L4.36,4.28 C4.36,4.28 4.36,4.28 4.36,4.28 C4.36,4.28 4.42,4.2 4.42,4.17 L4.42,4.1 C4.42615535,4.08390166 4.42615535,4.06609834 4.42,4.05 L4.36,4.14 Z" id="Shape" fill="#000000" fill-rule="nonzero"></path>
                <path d="M3.78,0.91 C4.3,0.39 4.71,0.64 4.78,0.71 C4.71,0.71 4.66,0.71 4.63,0.71 L4.69,0.79 C4.6326845,0.76027784 4.57233712,0.736809417 4.51,0.72 C4.52948655,0.737470985 4.54632939,0.757682393 4.56,0.78 C4.56,0.78 4.46,0.71 4.44,0.71 C4.4467347,0.742993162 4.4467347,0.777006838 4.44,0.81 L4.36,0.81 C4.36,0.81 4.36,0.81 4.36,0.81 C4.23092927,0.82001883 4.10998877,0.876932006 4.02,0.97 L3.78,0.91 Z" id="Shape" fill="#2C6C1E"></path>
                <path d="M4.08,1 C4.1612367,0.899494312 4.28100382,0.837796097 4.41,0.83 C4.284219,0.84148608 4.16691812,0.898359234 4.08,0.99 L4.08,1 Z M3.79,1 C4.3,0.49 4.71,0.72 4.79,0.8 C4.75132988,0.814587017 4.70867012,0.814587017 4.67,0.8 C4.67,0.8 4.67,0.86 4.67,0.86 L4.5,0.8 C4.5,0.8 4.55,0.85 4.55,0.85 C4.55,0.85 4.55,0.85 4.48,0.85 L4.42,0.85 C4.42,0.85 4.42,0.94 4.42,0.94 L4.33,0.94 L4.41,0.94 C4.41,0.94 4.41,0.87 4.41,0.85 C4.41,0.83 4.41,0.85 4.48,0.85 C4.48,0.85 4.61,0.85 4.65,0.9 L4.6,0.83 L4.66,0.83 C4.69594592,0.84028154 4.73405408,0.84028154 4.77,0.83 C4.43232424,0.632039054 3.99951888,0.72292818 3.77,1.04 L3.79,1 Z" id="Shape" fill="#000000" fill-rule="nonzero"></path>
                <path d="M3.91,1 C3.96,0.87 4.91,0.67 5.16,1 C5.08,1 5,1 5,1 L4.87,0.9 L4.87,1 L4.76,0.92 L4.76,1 L4.63,0.86 L4.63,0.94 L4.52,0.89 L4.52,1 L3.91,1 Z" id="Shape" fill="#2C6C1E"></path>
                <path d="M4.83,1 L4.69,0.87 L4.69,0.94 L4.57,0.94 L4.57,1 L4.57,0.93 L4.69,0.93 L4.69,0.85 L4.83,0.99 L4.83,0.95 L4.95,1.03 L4.89,0.93 L5,1 C5.03621929,1.03276104 5.08157128,1.05369273 5.13,1.06 C5.02,0.88 4.7,0.87 4.52,0.88 C4.29763921,0.871641298 4.07797167,0.930916667 3.89,1.05 C4.07993244,0.926021047 4.30328673,0.863202652 4.53,0.87 C4.72,0.87 5.04,0.87 5.15,1.06 C5.08,1 5,1 5,1 L4.86,0.9 L4.92,1 L4.82,1 L4.83,1 Z" id="Shape" fill="#000000" fill-rule="nonzero"></path>
                <path d="M4,1 C4.19397124,0.930552102 4.40602876,0.930552102 4.6,1 C4.85,1.14 4.99,1.12 5.02,1.38 C4.986557,1.35365279 4.95634721,1.323443 4.93,1.29 L4.88,1.39 L4.88,1.25 L4.88,1.36 L4.82,1.18 L4.82,1.3 L4.72,1.18 L4.72,1.09 L4.72,1.15 C4.72,1.15 4.66,1.15 4.62,1.15 L4.36,1 L4.36,1.06 L4.28,1 L4.28,1.05 L4.2,1 L4,1 Z" id="Shape" fill="#2C6C1E"></path>
                <path d="M4.88,1.35 L4.88,1.2 L4.88,1.31 L4.81,1.13 L4.81,1.25 L4.7,1.13 L4.7,1.03 L4.7,1.09 L4.62,1.09 L4.35,1 L4.35,1.1 L4.27,1 L4.27,1.05 L4.27,1 L4.34,1.07 L4.34,1 L4.42,1.08 C4.42,1.08 4.52,1.08 4.52,1.08 L4.52,1.02 L4.52,1.12 L4.62,1.25 L4.62,1.13 L4.69,1.31 L4.69,1.2 L4.69,1.34 L4.69,1.24 C4.69,1.24 4.77,1.32 4.79,1.33 C4.79,1.15 4.68,1.11 4.54,1.05 L4.6,1 C4.40588745,0.93137085 4.19411255,0.93137085 4,1 C4.19713393,0.928991684 4.41286607,0.928991684 4.61,1 L4.78,1.08 C4.92,1.14 5.01,1.18 5.03,1.38 C5.03,1.38 4.94,1.3 4.93,1.29 L4.93,1.39 L4.88,1.35 Z" id="Shape" fill="#000000" fill-rule="nonzero"></path>
                <path d="M4,1 C4.30928494,1.03453944 4.59803229,1.17187049 4.82,1.39 L4.74,1.39 L4.74,1.47 L4.74,1.39 L4.74,1.45 C4.74,1.45 4.74,1.39 4.66,1.45 L4.66,1.38 L4.66,1.45 L4.66,1.37 C4.66,1.37 4.66,1.46 4.66,1.45 C4.66,1.44 4.6,1.3 4.58,1.3 L4.58,1.39 L4.58,1.3 L4.58,1.37 L4.58,1.27 L4.58,1.35 C4.58,1.35 4.58,1.27 4.58,1.26 L4.53,1.26 L4,1.14 L4,1 Z" id="Shape" fill="#2C6C1E"></path>
                <path d="M4.73,1.48 L4.73,1.4 L4.73,1.46 L4.73,1.38 L4.73,1.45 L4.73,1.37 C4.73915055,1.39588167 4.73915055,1.42411833 4.73,1.45 C4.70668415,1.39628172 4.67642632,1.345852 4.64,1.3 L4.64,1.39 L4.64,1.3 L4.64,1.37 L4.64,1.27 L4.64,1.35 C4.64,1.35 4.64,1.28 4.59,1.27 L4,1.15 L4.23,1.3 C4.23,1.3 4.28,1.38 4.28,1.39 L4.28,1.31 L4.28,1.41 L4.28,1.34 L4.28,1.43 L4.28,1.3 C4.28,1.3 4.36,1.43 4.37,1.45 L4.37,1.37 L4.37,1.45 L4.37,1.38 L4.37,1.46 C4.37,1.46 4.37,1.46 4.37,1.46 C4.37,1.46 4.37,1.46 4.37,1.46 L4.37,1.39 L4.37,1.47 L4.37,1.39 C4.37,1.39 4.37,1.39 4.46,1.39 C4.33040904,1.24763928 4.17411726,1.13211926 4,1.05 C4.30950117,1.08377874 4.59848594,1.22122271 4.82,1.44 L4.73,1.44 L4.73,1.52 L4.73,1.48 Z" id="Shape" fill="#000000" fill-rule="nonzero"></path>
                <path d="M4,1.09 C4.22404056,1.19275794 4.38433456,1.39778515 4.43,1.64 C4.33,1.51 4.35,1.53 4.3,1.64 C4.30711125,1.59025285 4.30711125,1.53974715 4.3,1.49 L4.3,1.59 L4.3,1.5 L4.3,1.42 C4.3,1.42 4.3,1.36 4.3,1.32 C4.3,1.28 4.36,1.32 4.3,1.22 C4.3,1.22 4.3,1.22 4.3,1.15 L4.13,1.09 L4,1.09 Z" id="Shape" fill="#2C6C1E"></path>
                <path d="M4.29,1.68 C4.29350899,1.63006156 4.29350899,1.57993844 4.29,1.53 L4.29,1.63 L4.29,1.53 C4.29,1.53 4.29,1.66 4.29,1.68 L4.29,1.62 C4.29,1.62 4.29,1.56 4.29,1.55 C4.29,1.54 4.29,1.55 4.37,1.62 C4.33302923,1.39652458 4.1970399,1.20172905 4,1.09 C4.23046336,1.19214295 4.39528304,1.40191345 4.44,1.65 L4.35,1.57 C4.35,1.57 4.35,1.57 4.35,1.63 L4.35,1.69 L4.29,1.68 Z M4.14,1.46 C4.14,1.4 4.14,1.39 4.14,1.36 C4.14,1.33 4.14,1.36 4.14,1.25 C4.14,1.25 4.14,1.2 4.14,1.18 L3.98,1.12 L4.15,1.12 C4.15762231,1.14271084 4.15762231,1.16728916 4.15,1.19 C4.15,1.19 4.15,1.27 4.15,1.29 C4.16426286,1.31830476 4.16426286,1.35169524 4.15,1.38 L4.14,1.46 Z" id="Shape" fill="#000000" fill-rule="nonzero"></path>
                <path d="M4,1.12 L4.09,1.29 L4.19,1.37 L4,1.37 C4.0778813,1.39985839 4.13467526,1.46801114 4.15,1.55 L4,1.49 C4.05500005,1.54450802 4.09911895,1.6089895 4.13,1.68 L4.05,1.61 C4.09760138,1.66899249 4.11925042,1.74476414 4.11,1.82 L4.05,1.76 C4.06585327,1.84346543 4.04786498,1.9298092 4,2 C4.00971311,1.93368713 4.00971311,1.86631287 4,1.8 L3.88,2 L4,1.76 C4,1.76 3.91,1.9 3.85,1.89 L3.97,1.71 L3.85,1.8 L3.98,1.6 L3.86,1.6 C3.86,1.6 3.95,1.49 3.94,1.42 L3.86,1.51 C3.8680264,1.46367846 3.8680264,1.41632154 3.86,1.37 L3.94,1.27 L3.89,1.27 L3.89,1.25 L3.89,1.17 L4,1.12 Z" id="Shape" fill="#2C6C1E"></path>
                <path d="M4,2 C4.00711238,1.93352303 4.00711238,1.86647697 4,1.8 L3.88,2 L4,1.77 C4,1.77 3.91,1.9 3.86,1.89 L3.98,1.7 L3.87,1.8 L3.99,1.59 L3.87,1.59 C3.87,1.59 3.95,1.47 3.94,1.4 L3.87,1.5 C3.87243948,1.45336521 3.87243948,1.40663479 3.87,1.36 L3.95,1.25 L3.9,1.25 L3.9,1.32 L3.95,1.32 L3.87,1.43 C3.88104128,1.47601358 3.88104128,1.52398642 3.87,1.57 L3.94,1.47 C3.94,1.54 3.87,1.65 3.87,1.66 L3.99,1.66 L3.86,1.87 L3.97,1.77 L3.86,1.96 C3.86,1.96 3.97,1.86 4,1.82 L3.88,2 L4,1.82 C4,1.82 4,2 4,2 C4.03778336,1.91049055 4.03778336,1.80950945 4,1.72 L4.07,1.78 C4.07088282,1.70718069 4.04610084,1.63637503 4,1.58 L4.07,1.58 C4.04875725,1.54843092 4.02536874,1.51835998 4,1.49 L4.13,1.49 C4.10202647,1.43603336 4.05602853,1.39357373 4,1.37 L4.09,1.37 L4,1.3 L4,1.12 L4.09,1.29 L4.2,1.36 L4,1.36 C4.07371194,1.38755006 4.12709564,1.45237311 4.14,1.53 L4,1.53 C4.05800854,1.57790003 4.10276696,1.63987322 4.13,1.71 L4.06,1.71 C4.09993555,1.76480703 4.117785,1.83263493 4.11,1.9 L4.04,1.84 C4.04243273,1.8960806 4.02853739,1.95166193 4,2 Z M4,1.8 C3.98090847,1.72113902 3.98090847,1.63886098 4,1.56 C4.0028353,1.42331553 3.96825592,1.28845595 3.9,1.17 C3.97257026,1.2907591 4.0106179,1.42911416 4.01,1.57 C4.0094705,1.65910556 4.02645913,1.74744644 4.06,1.83 L4,1.8 Z" id="Shape" fill="#000000" fill-rule="nonzero"></path>
                <path d="M4.68,4.67 C4.68,4.67 4.68,4.67 4.68,4.67 C4.68,4.67 4.6,4.67 4.59,4.67 C4.58,4.67 4.53,4.67 4.5,4.67 C4.48497343,4.64905678 4.46077627,4.6366369 4.435,4.6366369 C4.40922373,4.6366369 4.38502657,4.64905678 4.37,4.67 C4.33583592,4.63944272 4.28416408,4.63944272 4.25,4.67 C4.23734378,4.64893877 4.21457143,4.63605551 4.19,4.63605551 C4.16542857,4.63605551 4.14265622,4.64893877 4.13,4.67 C4.13,4.67 4.13,4.67 4.13,4.67 C4.11672738,4.65314151 4.09645626,4.64330127 4.075,4.64330127 C4.05354374,4.64330127 4.03327262,4.65314151 4.02,4.67 C4.02,4.67 4.02,4.67 3.94,4.67 C3.86,4.67 3.89,4.67 3.89,4.67 C3.89,4.67 3.89,4.67 3.89,4.67 C3.89,4.67 3.89,4.67 3.89,4.67 C3.89,4.67 3.89,4.67 3.94,4.67 C3.94944272,4.68259029 3.96426213,4.69 3.98,4.69 C3.99573787,4.69 4.01055728,4.68259029 4.02,4.67 C4.02,4.67 4.02,4.67 4.07,4.67 C4.08327262,4.68685849 4.10354374,4.69669873 4.125,4.69669873 C4.14645626,4.69669873 4.16672738,4.68685849 4.18,4.67 C4.19111647,4.68675871 4.20988955,4.69683375 4.23,4.69683375 C4.25011045,4.69683375 4.26888353,4.68675871 4.28,4.67 C4.29518664,4.68722003 4.31703995,4.69708497 4.34,4.69708497 C4.36296005,4.69708497 4.38481336,4.68722003 4.4,4.67 C4.4,4.67 4.49,4.67 4.51,4.67 C4.53,4.67 4.59,4.67 4.59,4.67 C4.59,4.67 4.59,4.67 4.59,4.67 L4.68,4.67 Z" id="Shape" fill="#E6B32D"></path>
                <path d="M3.94,4.74 L4,4.74 C4.01316623,4.75343772 4.03118719,4.76101021 4.05,4.76101021 C4.06881281,4.76101021 4.08683377,4.75343772 4.1,4.74 C4.08302372,4.75772638 4.05954422,4.7677505 4.035,4.7677505 C4.01045578,4.7677505 3.98697628,4.75772638 3.97,4.74 C3.95861002,4.75291503 3.94222003,4.76031373 3.925,4.76031373 C3.90777997,4.76031373 3.89138998,4.75291503 3.88,4.74 C3.88,4.74 3.88,4.74 3.88,4.74 C3.88,4.74 3.88,4.74 3.88,4.74 L3.94,4.74 Z M4.6,4.74 C4.57790484,4.75075004 4.55209516,4.75075004 4.53,4.74 C4.53,4.74 4.47,4.74 4.41,4.74 C4.35,4.74 4.36,4.8 4.31,4.74 C4.26,4.68 4.4,4.74 4.41,4.74 C4.42,4.74 4.49,4.74 4.53,4.74 C4.57,4.74 4.62,4.74 4.64,4.74 L4.7,4.74 C4.7,4.74 4.63,4.74 4.62,4.74 C4.61,4.74 4.62,4.74 4.62,4.74 L4.6,4.74 Z M4.18,4.68 C4.18,4.68 4.1,4.68 4.08,4.68 C4.06,4.68 4.03,4.68 4.01,4.68 C4.08,4.68 4.13,4.68 4.15,4.68 C4.17,4.68 4.27,4.68 4.31,4.68 C4.35,4.68 4.4,4.68 4.43,4.68 C4.46,4.68 4.52,4.68 4.56,4.68 C4.56,4.68 4.56,4.68 4.62,4.68 L4.56,4.68 L4.51,4.68 C4.51,4.63 4.43,4.63 4.39,4.68 C4.35583592,4.64944272 4.30416408,4.64944272 4.27,4.68 C4.22,4.68 4.19,4.68 4.16,4.68 L4.18,4.68 Z" id="Shape" fill="#000000" fill-rule="nonzero"></path>
                <path d="M3.84,3.9 C3.84,3.9 3.92,3.23 3.92,2.9 C3.92,2.57 3.87,2.17 3.87,2.17 L3.64,2.17 C3.64,2.17 3.64,2.67 3.64,2.9 C3.64,3.13 3.72,3.9 3.72,3.9 L3.84,3.9 Z" id="Shape" fill="#E6B32D"></path>
                <path d="M3.85,3.9 L3.69,3.9 C3.69,3.9 3.61,3.22 3.61,2.9 C3.61,2.58 3.61,2.18 3.61,2.17 L3.85,2.17 C3.85,2.17 3.91,2.68 3.91,2.9 C3.91,3.12 3.83,3.85 3.83,3.9 L3.85,3.9 Z M3.64,2.22 C3.64,2.22 3.64,2.72 3.64,2.94 C3.64,3.16 3.72,3.94 3.72,3.94 L3.86,3.94 C3.86,3.88 3.94,3.26 3.94,2.99 C3.94,2.72 3.89,2.27 3.88,2.26 L3.64,2.22 Z" id="Shape" fill="#000000" fill-rule="nonzero"></path>
                <polygon id="Shape" fill="#E6B32D" points="3.62 2.25 3.89 2.25 3.86 2.07 3.67 2.07"></polygon>
                <path d="M3.9,2.26 L3.63,2.26 L3.63,2.07 L3.83,2.07 L3.83,2.26 L3.9,2.26 Z M3.9,2.07 L3.71,2.07 L3.71,2.24 L3.96,2.24 L3.96,2.07 L3.9,2.07 Z" id="Shape" fill="#000000" fill-rule="nonzero"></path>
                <polygon id="Shape" fill="#E6B32D" points="3.64 2.11 3.88 2.11 3.83 1.93 3.69 1.93"></polygon>
                <path d="M3.89,2.11 L3.65,2.11 L3.65,1.92 L3.8,1.92 L3.85,2.11 L3.89,2.11 Z M3.83,1.93 L3.69,1.93 L3.69,2.1 L3.91,2.1 L3.91,1.93 L3.83,1.93 Z" id="Shape" fill="#000000" fill-rule="nonzero"></path>
                <polygon id="Shape" fill="#E6B32D" points="3.66 1.96 3.86 1.96 3.82 1.78 3.7 1.78"></polygon>
                <path d="M3.86,2 L3.65,2 L3.65,1.81 L3.78,1.81 L3.78,2 L3.86,2 Z M3.86,1.82 L3.7,1.82 L3.7,1.99 L3.89,1.99 L3.89,1.82 L3.86,1.82 Z" id="Shape" fill="#000000" fill-rule="nonzero"></path>
                <polygon id="Shape" fill="#E6B32D" points="3.83 1.76 3.69 1.76 3.68 1.82 3.84 1.82"></polygon>
                <path d="M3.77,3.84 C3.6,3.84 3.46,3.91 3.46,3.98 C3.54589513,4.0356294 3.64818597,4.0603203 3.75,4.05 C3.85148296,4.05609319 3.95247116,4.03171673 4.04,3.98 C4.04,3.9 3.9,3.84 3.73,3.84 L3.77,3.84 Z" id="Shape" fill="#233189"></path>
                <path d="M3.77,4.1 C3.66375056,4.10890731 3.55770646,4.08062888 3.47,4.02 C3.47,3.94 3.61,3.87 3.78,3.87 C3.95,3.87 4.09,3.94 4.09,4.02 C4.09472256,4.03633213 4.09472256,4.05366787 4.09,4.07 C4.00247116,4.12171673 3.90148296,4.14609319 3.8,4.14 L3.77,4.1 Z M3.77,3.85 C3.61,3.85 3.47,3.91 3.47,3.98 C3.47,4.05 3.96,4.1 4.05,3.98 C4.05,3.91 3.91,3.85 3.75,3.85 L3.77,3.85 Z" id="Shape" fill="#233189" fill-rule="nonzero"></path>
                <path d="M4.08,4 L4.08,4.48 C4.08,4.53 3.94,4.58 3.77,4.58 C3.6,4.58 3.46,4.58 3.46,4.48 L3.46,4 C3.46,4.06 3.6,4.1 3.77,4.1 C3.94,4.1 4.08,4.1 4.08,4 Z" id="Shape" fill="#E6B32D"></path>
                <path d="M3.77,4.58 C3.6,4.58 3.46,4.58 3.46,4.47 L3.46,4 C3.46,4 3.59,4.1 3.77,4.1 C3.95,4.1 4.07,4.05 4.07,4 L4.07,4.46 C4.07,4.52 3.93,4.57 3.76,4.57 L3.77,4.58 Z M3.46,4 L3.46,4.47 C3.46,4.47 3.58,4.56 3.76,4.56 C3.94,4.56 4.06,4.56 4.06,4.47 L4.06,4 C4.06,4.05 3.92,4.09 3.76,4.09 C3.6,4.09 3.45,4.09 3.45,3.98 L3.46,4 Z" id="Shape" fill="#000000" fill-rule="nonzero"></path>
                <path d="M3.46,4 L3.46,4.07 L3.61,4.53 L3.73,4.18 L3.86,4.55 L3.96,4.2 L4.08,4.43 L4.08,4.3 L4,4.07 L3.93,4.33 L3.83,4.09 L3.73,4.33 L3.5,4 C3.5,4 3.5,4 3.5,3.95 L3.46,4 Z" id="Shape" fill="#C00024"></path>
                <path d="M3.86,4.56 L3.72,4.18 L3.61,4.53 L3.45,4.07 L3.45,4 L3.56,4.29 L3.65,4.05 L3.7,4.05 L3.8,4.29 L3.86,4.04 L3.98,4.27 L3.98,4.4 L4,4.2 L3.91,4.56 L3.86,4.56 Z M3.46,4.01 L3.46,4.07 L3.61,4.53 L3.72,4.18 L3.86,4.53 L4,4.2 L4.13,4.43 L4.13,4.3 L4,4.08 L3.94,4.33 L3.83,4.09 L3.74,4.33 L3.5,4 L3.46,4.01 Z" id="Shape" fill="#C00024" fill-rule="nonzero"></path>
                <path d="M4.08,4.38 L4.08,4.47 C4.08,4.52 3.94,4.57 3.77,4.57 C3.6,4.57 3.46,4.57 3.46,4.47 L3.46,4.38 C3.46,4.44 3.6,4.48 3.77,4.48 C3.94,4.48 4.08,4.48 4.08,4.38 Z" id="Shape" fill="#233189"></path>
                <path d="M3.77,4.58 C3.6,4.58 3.46,4.58 3.46,4.47 L3.46,4.38 C3.46,4.38 3.59,4.47 3.77,4.47 C3.95,4.47 4.07,4.47 4.07,4.38 L4.07,4.46 C4.07,4.52 3.93,4.57 3.76,4.57 L3.77,4.58 Z M3.46,4.4 L3.46,4.48 C3.46,4.48 3.58,4.57 3.76,4.57 C3.94,4.57 4.06,4.57 4.06,4.48 L4.06,4.4 C4.06,4.45 3.92,4.49 3.76,4.49 C3.6,4.49 3.47,4.49 3.45,4.4 L3.46,4.4 Z" id="Shape" fill="#233189" fill-rule="nonzero"></path>
                <polygon id="Shape" fill="#E6B32D" points="3.9 4.47 3.82 4.47 3.82 4.56 3.9 4.56"></polygon>
                <polygon id="Shape" points="3.9 4.47 3.82 4.47 3.82 4.56 3.9 4.56"></polygon>
                <polygon id="Shape" fill="#E6B32D" points="3.57 4.46 3.57 4.55 3.65 4.55 3.65 4.46"></polygon>
                <polygon id="Shape" points="3.57 4.46 3.57 4.55 3.65 4.55 3.65 4.46"></polygon>
                <path d="M3.46,4.38 L3.46,4.47 L3.46,4.38 C3.46,4.38 3.46,4.38 3.46,4.38 Z" id="Shape" fill="#E6B32D"></path>
                <path d="M3.46,4.38 L3.46,4.47 L3.46,4.38 C3.46,4.38 3.46,4.4 3.46,4.38 Z" id="Shape"></path>
                <path d="M4.08,4.39 C4.08,4.39 4.08,4.39 4.02,4.39 L4.02,4.48 C4.02,4.48 4.08,4.48 4.08,4.42 L4.08,4.39 Z" id="Shape" fill="#E6B32D"></path>
                <path d="M3.77,4.58 C3.6,4.58 3.46,4.58 3.46,4.47 C3.46,4.47 3.58,4.56 3.76,4.56 C3.84254829,4.57617661 3.92745171,4.57617661 4.01,4.56 L4.01,4.48 C4.01,4.48 4.06,4.48 4.07,4.43 L4.07,4 L4.07,4.47 C3.98224512,4.52115696 3.88142875,4.54549194 3.78,4.54 L3.77,4.58 Z" id="Shape" fill="#000000" fill-rule="nonzero"></path>
                <path d="M4,4 C4,4 3.89,4.06 3.76,4.06 C3.63,4.06 3.53,4.06 3.53,4 C3.53,3.94 3.64,3.94 3.76,3.94 C3.88,3.94 4,3.94 4,4 Z" id="Shape" fill="#FFFFFF"></path>
                <path d="M3.77,4 C3.65,4 3.53,4 3.53,3.93 C3.53,3.86 4.01,3.84 4.01,3.93 C4.01,4.02 3.89,4 3.77,4 Z M3.77,3.88 C3.64,3.88 3.54,3.88 3.54,3.94 C3.54,4 3.64,4 3.77,4 C3.9,4 4,4 4,4 C4,4 3.9,3.94 3.77,3.94 L3.77,3.88 Z" id="Shape" fill="#FFFFFF" fill-rule="nonzero"></path>
                <polygon id="Shape" fill="#E6B32D" points="3.69 4 3.69 4.08 3.75 4.08 3.75 4"></polygon>
                <polygon id="Shape" points="3.69 4 3.69 4.08 3.75 4.08 3.75 4"></polygon>
                <polygon id="Shape" fill="#E6B32D" points="4 4 3.94 4 3.94 4.08 4 4.08"></polygon>
                <polygon id="Shape" points="4 4 3.94 4 3.94 4.08 4 4.08"></polygon>
                <polygon id="Shape" fill="#E6B32D" points="3.61 3.86 3.61 3.86 3.61 3.92 3.61 3.92"></polygon>
                <polygon id="Shape" points="3.61 3.86 3.61 3.86 3.61 3.92 3.61 3.92"></polygon>
                <polygon id="Shape" fill="#E6B32D" points="3.77 3.84 3.77 3.84 3.77 3.92 3.77 3.92"></polygon>
                <polygon id="Shape" points="3.77 3.84 3.77 3.84 3.77 3.92 3.77 3.92"></polygon>
                <polygon id="Shape" fill="#E6B32D" points="3.95 3.87 3.95 3.94 3.95 3.94"></polygon>
                <polygon id="Shape" points="3.95 3.87 3.95 3.94 3.95 3.94"></polygon>
                <polygon id="Shape" fill="#E6B32D" points="3.51 4.05 3.52 3.97 3.46 3.93 3.46 4.03"></polygon>
                <polygon id="Shape" points="3.51 4.05 3.52 3.97 3.46 3.93 3.46 4.03"></polygon>
                <polygon id="Shape" fill="#E6B32D" points="4.07 4.03 4.08 3.95 4.02 3.96"></polygon>
                <polygon id="Shape" points="4.07 4.03 4.08 3.95 4.02 3.96"></polygon>
                <path d="M3,3.48 C2.96583005,3.44125492 2.9166601,3.41905881 2.865,3.41905881 C2.8133399,3.41905881 2.76416995,3.44125492 2.73,3.48 C2.73,3.48 2.79,3.4 2.87,3.4 C2.95,3.4 3.01,3.4 3.01,3.48 L3,3.48 Z" id="Shape" fill="#2C6C1E"></path>
                <path d="M3,3.48 C2.92693344,3.42149993 2.82306656,3.42149993 2.75,3.48 C2.75,3.48 2.96,3.43 3.01,3.48 C3.01,3.4 2.78,3.39 2.75,3.48 C2.75,3.37 3.03,3.41 3.03,3.48 L3,3.48 Z" id="Shape" fill="#FFFFFF" fill-rule="nonzero"></path>
                <path d="M3,3.58 C3.00657896,3.65610939 2.95490712,3.72500518 2.88,3.74 C2.81,3.74 2.76,3.67 2.76,3.58 L2.76,3.5 L3,3.5 L3,3.58 Z" id="Shape" fill="#2C6C1E"></path>
                <path d="M2.88,3.75 C2.84006259,3.74503592 2.80379508,3.7242317 2.77934841,3.69226298 C2.75490174,3.66029426 2.74432671,3.61984284 2.75,3.58 L2.75,3.5 L3,3.5 L3,3.59 C3.00567329,3.62984284 2.99509826,3.67029426 2.97065159,3.70226298 C2.94620492,3.7342317 2.90993741,3.75503592 2.87,3.76 L2.88,3.75 Z M2.99,3.5 L2.76,3.5 L2.76,3.58 C2.75426706,3.61453906 2.76270812,3.64993046 2.78341272,3.678164 C2.80411732,3.70639755 2.83533492,3.72508615 2.87,3.73 C2.93,3.73 2.98,3.66 2.98,3.58 L2.98,3.5 L2.99,3.5 Z" id="Shape" fill="#FFFFFF" fill-rule="nonzero"></path>
                <path d="M3,3.46 C3,3.46 2.95,3.52 2.88,3.52 C2.81,3.52 2.76,3.52 2.76,3.46 C2.76,3.4 2.81,3.4 2.88,3.4 C2.95,3.4 3,3.4 3,3.46 Z" id="Shape" fill="#FFFFFF"></path>
                <polygon id="Shape" fill="#2C6C1E" points="2.85 3.53 2.83 3.31 2.92 3.31 2.91 3.53"></polygon>
                <polygon id="Shape" fill="#E6B32D" fill-rule="nonzero" points="2.91 3.54 2.85 3.54 2.82 3.31 2.92 3.31 2.91 3.54"></polygon>
                <path d="M3,3.47 C2.96962418,3.51072526 2.92069817,3.5333065 2.87,3.53 C2.81963631,3.53158617 2.77146794,3.50935461 2.74,3.47 C2.74,3.47 2.8,3.55 2.88,3.55 C2.96,3.55 3.02,3.55 3.02,3.47 L3,3.47 Z" id="Shape" fill="#2C6C1E"></path>
                <path d="M2.88,3.58 C2.8,3.58 2.73,3.58 2.73,3.49 C2.73,3.58 2.97,3.57 3,3.49 C3.03,3.41 2.94,3.56 2.87,3.56 L2.88,3.58 Z M2.88,3.58 C2.84085145,3.59167184 2.79914855,3.59167184 2.76,3.58 C2.84,3.58 2.98,3.58 3.01,3.58 C2.96775746,3.59375033 2.92224254,3.59375033 2.88,3.58 Z" id="Shape" fill="#FFFFFF" fill-rule="nonzero"></path>
                <polygon id="Shape" fill="#E6B32D" points="2.78 3.93 3.03 3.95 3.07 3.73 2.78 3.7"></polygon>
                <polygon id="Shape" fill="#000000" fill-rule="nonzero" points="3.03 3.95 2.78 3.93 2.78 3.92 3.03 3.95 3.06 3.73 2.78 3.71 3.07 3.73 3.03 3.95"></polygon>
                <polygon id="Shape" fill="#E6B32D" points="2.85 3.7 2.81 3.95 2.88 3.95 2.91 3.7"></polygon>
                <polygon id="Shape" fill="#000000" fill-rule="nonzero" points="2.8 3.96 2.84 3.7 2.91 3.69 2.89 3.95 2.8 3.96"></polygon>
                <path d="M4.7,3.46 C4.75,3.46 4.84,3.53 4.84,3.62 C4.84,3.71 4.73,3.69 4.73,3.69 C4.73,3.69 4.66,3.75 4.61,3.75 C4.56,3.75 4.61,3.66 4.61,3.66 C4.59090797,3.60151877 4.59090797,3.53848123 4.61,3.48 L4.7,3.46 Z" id="Shape" fill="#E6B32D"></path>
                <path d="M4.61,3.76 C4.69,3.76 4.73,3.76 4.74,3.71 C4.75,3.66 4.81,3.71 4.84,3.71 C4.85431176,3.6484857 4.83533674,3.58397063 4.79,3.54 C4.76742869,3.53156663 4.74257131,3.53156663 4.72,3.54 L4.65,3.54 C4.63467261,3.59563022 4.63467261,3.65436978 4.65,3.71 C4.64511077,3.73644256 4.64511077,3.76355744 4.65,3.79 C4.64084945,3.76411833 4.64084945,3.73588167 4.65,3.71 C4.63018863,3.65163538 4.63018863,3.58836462 4.65,3.53 L4.72,3.53 C4.74550505,3.51886869 4.77449495,3.51886869 4.8,3.53 C4.84138393,3.56521898 4.86665517,3.61576147 4.87,3.67 C4.83780332,3.68231071 4.80219668,3.68231071 4.77,3.67 C4.77,3.67 4.7,3.73 4.65,3.73 L4.61,3.76 Z" id="Shape" fill="#000000" fill-rule="nonzero"></path>
                <path d="M4.73,3.52 C4.73,3.52 4.73,3.42 4.73,3.42 L4.66,3.42 C4.66,3.42 4.57,3.42 4.57,3.49 L4.63,3.49 C4.63,3.49 4.69,3.49 4.7,3.49 L4.73,3.52 Z" id="Shape" fill="#C00024"></path>
                <path d="M4.59,3.54 C4.59,3.48 4.65,3.46 4.68,3.46 L4.75,3.46 C4.75,3.46 4.75,3.46 4.75,3.46 C4.76071797,3.47856406 4.76071797,3.50143594 4.75,3.52 L4.65,3.52 L4.59,3.54 Z M4.71,3.43 L4.64,3.43 C4.61728916,3.42237769 4.59271084,3.42237769 4.57,3.43 C4.57,3.43 4.57,3.49 4.57,3.49 L4.64,3.49 L4.71,3.49 C4.71,3.49 4.71,3.49 4.71,3.49 L4.71,3.43 Z" id="Shape" fill="#E6B32D" fill-rule="nonzero"></path>
                <path d="M3.78,0.71 C3.78,0.71 3.63,0.62 3.66,0.58 L3.66,0.5 C3.73,0.35 3.66,0.41 3.66,0.36 C3.66,0.31 3.92,0.36 3.92,0.45 C3.91067446,0.506282995 3.91067446,0.563717005 3.92,0.62 L3.87,0.72 C3.83387306,0.728897181 3.79612694,0.728897181 3.76,0.72 L3.78,0.71 Z" id="Shape" fill="#233189"></path>
                <path d="M3.87,0.74 L3.78,0.74 C3.78,0.74 3.66,0.68 3.65,0.63 L3.71,0.52 C3.71,0.43 3.71,0.42 3.71,0.41 C3.71,0.35 3.98,0.41 3.98,0.52 C3.96992957,0.579577444 3.96992957,0.640422556 3.98,0.7 L3.93,0.8 L3.87,0.74 Z M3.75,0.35 C3.75,0.35 3.8,0.35 3.75,0.5 L3.75,0.58 C3.75,0.63 3.83,0.68 3.87,0.7 L3.96,0.7 L3.96,0.61 C3.95077584,0.560425426 3.95077584,0.509574574 3.96,0.46 C3.96,0.37 3.83,0.33 3.76,0.33 L3.75,0.35 Z" id="Shape" fill="#233189" fill-rule="nonzero"></path>
                <polygon id="Shape" fill="#E6B32D" points="3.81 1.11 3.74 1.05 3.76 0.58 3.82 0.59"></polygon>
                <path d="M3.81,1.12 L3.73,1.06 L3.73,0.58 L3.8,0.58 L3.8,1.11 L3.81,1.12 Z M3.75,0.58 L3.75,1.05 L3.81,1.05 L3.81,0.55 L3.75,0.58 Z" id="Shape" fill="#000000" fill-rule="nonzero"></path>
                <path d="M3.89,0.72 C3.92004274,0.67816851 3.92004274,0.62183149 3.89,0.58 C3.82,0.49 3.78,0.58 3.66,0.49 C3.54,0.4 3.59,0.56 3.6,0.6 C3.61,0.64 3.69,0.6 3.74,0.6 C3.79,0.6 3.74,0.6 3.84,0.7 L3.89,0.72 Z" id="Shape" fill="#C00024"></path>
                <path d="M3.89,0.73 L3.89,0.68 C3.89,0.68 3.89,0.63 3.83,0.63 L3.73,0.63 C3.73,0.63 3.73,0.55 3.78,0.52 L3.89,0.52 C3.94173314,0.522315325 3.98959007,0.548084439 4.02,0.59 C4.02843337,0.612571314 4.02843337,0.637428686 4.02,0.66 C4.01352623,0.689153069 3.99547763,0.714421116 3.97,0.73 L3.89,0.73 Z M3.79,0.61 C3.79,0.61 3.79,0.61 3.86,0.67 C3.86467852,0.650273607 3.86467852,0.629726393 3.86,0.61 C3.86944584,0.587622637 3.86944584,0.562377363 3.86,0.54 C3.83072189,0.503385449 3.78685851,0.48145376 3.74,0.48 L3.64,0.48 C3.64,0.48 3.58,0.55 3.59,0.58 L3.68,0.58 L3.79,0.61 Z" id="Shape" fill="#C00024" fill-rule="nonzero"></path>
                <path d="M1.38,4.46 C1.38,4.46 1.38,4.51 1.38,4.56 L0.88,4.72 C0.88,4.72 0.96,4.6 0.96,4.6 C0.96,4.6 0.96,4.66 0.96,4.66 C0.971050543,4.59035588 1.01099901,4.52861735 1.07,4.49 C0.974084425,4.49791153 0.881479378,4.52877988 0.8,4.58 L0.88,4.58 C0.821830711,4.64012959 0.771437004,4.7073212 0.73,4.78 C0.73,4.78 1,4.87 1,4.87 L0.93,4.93 C1.03462252,4.93822028 1.13841418,4.90600908 1.22,4.84 C1.14414621,4.83241947 1.07167116,4.80480993 1.01,4.76 C1.01,4.76 1.01,4.76 1.01,4.83 C1.01,4.9 0.87,4.83 0.85,4.76 L1.34,4.63 C1.34,4.63 1.34,4.71 1.42,4.7 C1.5,4.69 1.42,4.64 1.42,4.61 C1.42,4.61 1.42,4.52 1.37,4.52 L1.38,4.46 Z" id="Shape" fill="#E6B32D"></path>
                <path d="M1,4.94 L1.07,4.87 C1.07,4.87 0.82,4.87 0.8,4.79 C0.823769464,4.73424565 0.857676548,4.68338502 0.9,4.64 C0.866330101,4.6877044 0.836247463,4.73784213 0.81,4.79 C0.81,4.79 1.01,4.86 1.08,4.87 C1.15,4.88 1.08,4.93 1.01,4.94 C1.10049254,4.93584712 1.18762502,4.90447943 1.26,4.85 C1.19075935,4.84784751 1.12408694,4.82328399 1.07,4.78 C1.07900593,4.79898617 1.07900593,4.82101383 1.07,4.84 C1.013324,4.83040274 0.959011622,4.8100356 0.91,4.78 C0.91,4.78 0.91,4.78 1.06,4.78 L1.41,4.69 C1.41,4.69 1.41,4.76 1.48,4.76 C1.55,4.76 1.48,4.76 1.48,4.67 C1.48,4.58 1.57,4.67 1.57,4.67 C1.57,4.67 1.5,4.62 1.48,4.67 C1.46,4.72 1.48,4.59 1.42,4.59 C1.40152504,4.61715563 1.40152504,4.65284437 1.42,4.68 L1.15,4.77 L0.91,4.85 C0.91,4.85 0.97,4.73 0.98,4.72 C0.99,4.71 0.98,4.78 0.98,4.78 C0.980758396,4.71211719 1.01428543,4.64878836 1.07,4.61 C1.07,4.61 0.98,4.7 0.98,4.79 C0.98,4.88 0.98,4.79 0.98,4.73 C0.98,4.67 0.91,4.83 0.91,4.85 L1.13,4.77 L1.4,4.68 C1.3874957,4.65834192 1.3874957,4.63165808 1.4,4.61 C1.4,4.61 1.4,4.66 1.46,4.7 C1.52,4.74 1.56,4.7 1.56,4.7 C1.56,4.73313708 1.53313708,4.76 1.5,4.76 C1.5,4.76 1.5,4.85 1.5,4.86 C1.46092999,4.85658944 1.42856666,4.82827153 1.42,4.79 L1.08,4.89 L0.93,4.89 L1.09,4.94 C1.09287187,4.9201031 1.09287187,4.8998969 1.09,4.88 C1.15138951,4.91631273 1.21936463,4.94010402 1.29,4.95 C1.22317931,5.01638296 1.13408613,5.05558396 1.04,5.06 L1,4.94 Z M0.83,4.58 C0.902994657,4.51698771 0.993945965,4.47850831 1.09,4.47 C1.00246399,4.48670914 0.91810015,4.51708012 0.84,4.56 L0.83,4.58 Z" id="Shape" fill="#000000" fill-rule="nonzero"></path>
                <path d="M6.67,4.66 C6.67607068,4.61018427 6.67607068,4.55981573 6.67,4.51 C6.67,4.51 6.61,4.51 6.61,4.51 C6.61692484,4.41606243 6.59605842,4.32216351 6.55,4.24 C6.65986717,4.30272731 6.7552753,4.38791313 6.83,4.49 L6.73,4.49 C6.73,4.59 6.81,4.64 6.84,4.69 C6.87,4.74 6.72,4.69 6.74,4.81 L6.66,4.81 C6.66,4.81 6.66,4.72 6.66,4.72 L6.14,4.5 C6.14,4.5 6.03,4.5 6.04,4.41 C6.05,4.32 6.18,4.41 6.21,4.41 L6.67,4.66 Z" id="Shape" fill="#E6B32D"></path>
                <path d="M6.64,4.84 C6.64,4.84 6.64,4.75 6.64,4.75 L6.12,4.54 C6.12,4.54 6.01,4.54 6.02,4.44 C6.02,4.44 6.02,4.5 6.09,4.53 L6.61,4.75 C6.61,4.75 6.61,4.81 6.61,4.84 L6.68,4.84 C6.68,4.75 6.78,4.72 6.78,4.72 C6.73942814,4.67875949 6.71164585,4.62666771 6.7,4.57 C6.7363918,4.56365067 6.7736082,4.56365067 6.81,4.57 C6.729177,4.47925799 6.63471102,4.40166093 6.53,4.34 C6.5811992,4.41289376 6.60590197,4.50111791 6.6,4.59 C6.6120019,4.64265812 6.6120019,4.69734188 6.6,4.75 L6.12,4.56 L5.99,4.56 C6.02935467,4.54983867 6.07064533,4.54983867 6.11,4.56 L6.6,4.77 C6.60384968,4.72341273 6.60384968,4.67658727 6.6,4.63 C6.6,4.63 6.6,4.63 6.6,4.63 C6.59738525,4.53904217 6.5734058,4.44997563 6.53,4.37 C6.64573836,4.42366482 6.74563719,4.50633972 6.82,4.61 L6.71,4.61 C6.72138434,4.66174176 6.74543719,4.70984747 6.78,4.75 L6.78,4.8 C6.78,4.8 6.67,4.8 6.68,4.93 L6.64,4.84 Z" id="Shape" fill="#000000" fill-rule="nonzero"></path>
                <path d="M6.17,4.57 L6.23,4.46 C6.23,4.46 6.23,4.4 6.18,4.46 L6.11,4.56 C6.11,4.62 6.11,4.63 6.17,4.56 L6.17,4.57 Z" id="Shape" fill="#E6B32D"></path>
                <polygon id="Shape" fill="#000000" fill-rule="nonzero" points="6.13 4.6 6.13 4.6 6.2 4.49 6.2 4.49 6.2 4.54 6.14 4.65"></polygon>
                <polygon id="Shape" fill="#FFFFFF" points="2.53 4.83 2.53 4.71 2.38 4.71 2.37 4.85"></polygon>
                <path d="M2.36,4.86 L2.36,4.72 L2.51,4.72 L2.51,4.85 L2.34,4.85 L2.36,4.86 Z M2.52,4.71 L2.38,4.71 L2.38,4.83 L2.53,4.83 L2.53,4.71 L2.52,4.71 Z" id="Shape" fill="#000000" fill-rule="nonzero"></path>
                <path d="M1.45,5 L1.25,4.89 C1.65642894,4.93482055 2.06702827,4.85826813 2.43,4.67 C2.55,4.67 2.57,4.8 2.33,4.74 L2.39,4.89 C2.03762144,5.07698264 1.63379596,5.14370163 1.24,5.08 L1.45,5 Z" id="Shape" fill="#FFFFFF"></path>
                <path d="M1.54,5.11 C1.44367154,5.12143553 1.34632846,5.12143553 1.25,5.11 L1.45,5.03 L1.25,4.93 L1.51,4.93 C1.7674789,4.94105036 2.02315865,4.88231312 2.25,4.76 C2.30789642,4.72395263 2.37255541,4.7001309 2.44,4.69 C2.5,4.69 2.53,4.69 2.53,4.74 C2.53,4.79 2.47,4.8 2.34,4.74 L2.41,4.88 C2.14350664,5.02749317 1.84456667,5.10652328 1.54,5.11 Z M1.25,4.89 L1.45,4.99 L1.25,5.07 L1.54,5.07 C1.83952725,5.06201377 2.13343246,4.98682872 2.4,4.85 L2.34,4.71 C2.47,4.71 2.52,4.71 2.52,4.71 C2.52,4.71 2.52,4.71 2.45,4.71 C2.38225358,4.71893153 2.31734798,4.74284412 2.26,4.78 C1.95255493,4.93951047 1.60186606,4.99562069 1.26,4.94 L1.25,4.89 Z" id="Shape" fill="#000000" fill-rule="nonzero"></path>
                <polygon id="Shape" fill="#FFFFFF" points="5.01 4.83 5.01 4.71 5.19 4.71 5.2 4.84"></polygon>
                <path d="M5.2,4.85 L5,4.85 L5,4.72 L5.19,4.72 L5.19,4.87 L5.2,4.85 Z M5.2,4.71 L5,4.71 L5,4.83 L5.18,4.83 L5.18,4.7 L5.2,4.71 Z" id="Shape" fill="#000000" fill-rule="nonzero"></path>
                <path d="M6.13,5 L6.32,4.9 C5.38,4.9 5.6,4.75 5.13,4.7 C5.01,4.7 4.92,4.84 5.22,4.77 L5.16,4.92 L5.31,4.92 C5.61201762,5.09533032 5.96835446,5.15234421 6.31,5.08 L6.13,5 Z" id="Shape" fill="#FFFFFF"></path>
                <path d="M6,5.08 C5.7457458,5.08407595 5.49572589,5.01462598 5.28,4.88 L5.13,4.88 L5.19,4.72 L5.06,4.72 C5.06,4.72 4.98,4.72 4.98,4.72 C4.98,4.72 4.98,4.66 5.08,4.66 C5.20557674,4.66835872 5.32810311,4.70239382 5.44,4.76 C5.70736224,4.87583096 6.00195954,4.91395532 6.29,4.87 L6.11,4.98 L6.32,5.04 C6.2141707,5.05890181 6.1058293,5.05890181 6,5.04 L6,5.08 Z M5.28,4.87 C5.58265572,5.04353202 5.93830931,5.10043659 6.28,5.03 L6.13,5 L6.31,4.89 L6.13,4.89 C5.89995102,4.91070421 5.66856258,4.86926151 5.46,4.77 C5.35333842,4.71887597 5.23798634,4.6883416 5.12,4.68 C5.06,4.68 5.02,4.68 5.02,4.68 C5.02,4.68 5.02,4.68 5.08,4.68 L5.22,4.68 L5.17,4.84 L5.28,4.87 Z" id="Shape" fill="#000000" fill-rule="nonzero"></path>
                <path d="M2.33,4.73 L2.33,4.94 C2.79646928,5.08124118 3.28286044,5.14541779 3.77,5.13 C4.25717531,5.14614079 4.74368372,5.08194871 5.21,4.94 L5.21,4.73 C4.74575021,4.88074026 4.25707048,4.94182522 3.77,4.91 C3.28295858,4.94085843 2.79445961,4.87979606 2.33,4.73 Z" id="Shape" fill="#FFFFFF"></path>
                <path d="M3.78,5.14 C3.28961864,5.15456456 2.8000734,5.09041725 2.33,4.95 L2.33,4.73 C2.79953321,4.87169844 3.29042442,4.92925121 3.78,4.9 C4.26703411,4.93061993 4.75548877,4.8695631 5.22,4.72 L5.22,4.94 C4.75169263,5.08923879 4.26122168,5.15688996 3.77,5.14 L3.78,5.14 Z M2.34,4.94 C2.80764702,5.07570763 3.29315827,5.13976814 3.78,5.13 C4.26705077,5.14366693 4.75316235,5.07952721 5.22,4.94 L5.22,4.73 C4.75809142,4.89134162 4.26794846,4.95601326 3.78,4.92 C3.28971465,4.9495342 2.79818252,4.88851641 2.33,4.74 L2.33,4.95 L2.34,4.94 Z" id="Shape" fill="#000000" fill-rule="nonzero"></path>
                <path d="M2.41,4.94 L2.41,4.78 L2.41,4.92 L2.49,4.92 L2.41,4.94 Z M2.56,4.87 L2.56,4.81 L2.56,4.86 L2.56,4.87 Z M2.78,4.87 L2.78,4.96 L2.78,4.87 L2.78,4.96 L2.84,4.96 L2.78,4.87 Z M2.78,5.04 L2.78,4.88 L2.84,5.02 L2.84,4.9 L2.84,5.06 L2.78,4.92 L2.78,5.04 Z M2.95,5.04 L2.95,4.88 L2.95,5.04 Z M3,5 C2.99444007,4.98038641 2.99444007,4.95961359 3,4.94 L3.06,4.94 L3,5 Z M3,5 L2.93,5 L3,5 Z M3.15,5.1 L3.15,4.94 L3.23,5.07 L3.23,4.94 L3.23,5.1 L3.25,5 L3.25,5.13 L3.15,5.1 Z M3.39,5.1 L3.39,4.94 L3.5,4.94 L3.41,4.94 L3.49,4.94 L3.41,4.94 L3.41,5.01 L3.39,5.1 Z M3.51,5.1 L3.58,4.94 L3.64,5.1 L3.57,5.1 L3.51,5.1 Z M3.56,5.03 L3.62,5.03 L3.56,5.03 Z M3.69,5.1 L3.69,5 L3.69,5.16 L3.69,5.1 Z M3.79,5.1 L3.79,5 L3.8,5 L3.93,5 L3.87,5 L3.87,5.14 L3.79,5.1 Z M3.96,5.1 L3.96,4.94 L3.96,5.08 L4.04,5.08 L3.96,5.1 Z M4.07,5.1 L4.12,4.94 L4.2,5.09 L4.13,5.09 L4.07,5.1 Z M4.07,5.03 L4.13,5.03 L4.07,5.03 Z M4.27,5.08 L4.27,4.92 L4.38,4.92 L4.29,4.92 L4.37,4.92 L4.29,4.92 L4.29,4.99 L4.27,5.08 Z M4.39,4.99 C4.38313708,4.97058875 4.38313708,4.94941125 4.39,4.93 C4.40609834,4.92384465 4.42390166,4.92384465 4.44,4.93 L4.39,4.99 Z M4.39,4.99 C4.38384465,5.00609834 4.38384465,5.02390166 4.39,5.04 L4.39,4.99 Z M4.57,5.04 L4.57,4.88 L4.7,4.88 L4.7,5 L4.57,5.04 Z M4.57,4.95 L4.65,4.95 L4.57,4.95 Z M4.84,4.95 L4.78,4.95 L4.84,4.95 Z M5,5 L5,4.84 L5.12,4.84 L5.02,4.84 L5.11,4.84 L5.02,4.84 L5.02,5 L5.12,5 L5,5 Z" id="Shape" fill="#000000" fill-rule="nonzero"></path>
            </g>
        </g>
    </g>
</svg>