<?xml version="1.0" encoding="utf-8"?>
<!-- Generator: Adobe Illustrator 21.0.0, SVG Export Plug-In . SVG Version: 6.00 Build 0)  -->
<svg version="1.1" id="Layer_1" xmlns="http://www.w3.org/2000/svg" xmlns:xlink="http://www.w3.org/1999/xlink" x="0px" y="0px"
	 viewBox="0 0 200 200" style="enable-background:new 0 0 200 200;" xml:space="preserve">
<style type="text/css">
	.st0{fill:#FFFFFF;}
</style>
<title>IBM</title>
<rect width="200" height="200"/>
<path class="st0" d="M31.1,72.5v3.8h26.8v-3.8H31.1z M61.7,72.5v3.8h38.2c0,0-3.9-3.8-9.1-3.8H61.7z M107.4,72.5v3.8h23.1l-1.4-3.8
	H107.4z M147.1,72.5l-1.4,3.8h22.9v-3.8H147.1z M31.1,79.8v3.8h26.8v-3.8H31.1z M61.7,79.8v3.8h42.6c0,0-0.5-2.9-1.4-3.8H61.7z
	 M107.4,79.8v3.8h25.7l-1.3-3.8H107.4z M144.4,79.8l-1.3,3.8h25.6v-3.8L144.4,79.8z M38.8,87.1v3.8h11.6v-3.8H38.8z M69.4,87.1v3.8
	h11.6v-3.8H69.4z M92.3,87.1v3.8H104c0.4-1.2,0.7-2.5,0.8-3.8H92.3z M115.1,87.1v3.8h20.6l-1.4-3.8H115.1z M141.8,87.1l-1.4,3.8
	h20.7v-3.8H141.8z M38.8,94.4v3.8h11.6v-3.8H38.8z M69.4,94.4v3.8h29.7c0,0,2.5-1.9,3.3-3.8H69.4z M115.1,94.4v3.8h11.6v-2.1
	l0.8,2.1h21.3l0.8-2.1v2.1h11.6v-3.8h-21.8l-1.2,3.2l-1.2-3.2H115.1z M38.8,101.8v3.8h11.6v-3.8H38.8z M69.4,101.8v3.8h32.9
	c-0.8-1.8-3.3-3.8-3.3-3.8H69.4z M115.1,101.8v3.8h11.6v-3.8H115.1z M128.9,101.8l1.4,3.8h15.9l1.3-3.8H128.9z M149.5,101.8v3.8
	h11.6v-3.8H149.5z M38.8,109.1v3.8h11.6v-3.8H38.8z M69.4,109.1v3.8h11.6v-3.8H69.4z M92.3,109.1v3.8h12.4c-0.1-1.3-0.3-2.6-0.8-3.8
	H92.3z M115.1,109.1v3.8h11.6v-3.8H115.1z M131.5,109.1l1.4,3.8h10.7l1.4-3.8H131.5z M149.6,109.1v3.8h11.6v-3.8H149.6z M31.3,116.4
	v3.8h26.8v-3.8H31.3z M61.7,116.4v3.8H103c0.9-0.9,1.4-3.8,1.4-3.8H61.7z M107.6,116.4v3.8h19.1v-3.8H107.6z M134.1,116.4l1.4,3.8
	h5.4l1.3-3.8H134.1z M149.5,116.4v3.8h19.3v-3.8H149.5z M31.3,123.8v3.8h26.8v-3.8H31.3z M61.7,123.8v3.8h29.1
	c5.2,0,9.1-3.8,9.1-3.8H61.7z M107.6,123.8v3.8h19.1v-3.8H107.6z M136.8,123.8l1.3,3.8h0.2l1.4-3.8L136.8,123.8z M149.5,123.8v3.8
	h19.3v-3.8H149.5z"/>
</svg>
