<?xml version="1.0" encoding="UTF-8"?>
<svg width="100px" height="50px" viewBox="0 0 100 50" version="1.1" xmlns="http://www.w3.org/2000/svg" xmlns:xlink="http://www.w3.org/1999/xlink">
    <!-- Generator: Sketch 49 (51002) - http://www.bohemiancoding.com/sketch -->
    <title>IMP</title>
    <desc>Created with Sketch.</desc>
    <defs></defs>
    <g id="Page-1" stroke="none" stroke-width="1" fill="none" fill-rule="evenodd">
        <g id="IMP">
            <polygon id="rect2489" fill="#CF142B" fill-rule="nonzero" points="0 0 100 0 100 50 0 50"></polygon>
            <g id="g4408" transform="translate(30.355315, 5.488188)">
                <path d="M21.2856264,30.3433018 C21.3025743,30.2920382 21.3367494,29.7634364 21.3196616,29.7634364 C21.3025743,29.7634364 20.5182149,28.8426551 20.5353027,28.8426551 C20.5523906,28.8426551 21.5413834,29.0643763 21.5413834,29.0302006 C21.5413834,28.9961654 21.9335628,28.0582962 21.9335628,28.0412083 C21.9335628,28.0242604 22.4110416,29.1837108 22.4110416,29.1837108 L23.382946,29.610066 L22.7008338,30.1727037 C22.7008338,30.1727037 22.8543441,31.2640831 22.8543441,31.281171 C22.8543441,31.2981189 22.172232,30.6330946 22.172232,30.6330946 L21.4219089,30.7183934 C21.4219089,30.7183934 21.3196616,30.3773376 21.2856264,30.3433018 Z" id="path4410" stroke="#000000" stroke-width="0.840384652" fill-opacity="0.98823499" fill="#F9DD16"></path>
                <path d="M16.002268,16.0136231 C15.3543315,16.3472555 12.8676332,19.1897165 12.5265769,19.6330196 C12.2408464,20.2766144 11.6819907,21.0908067 11.106327,21.6149265 C10.4918661,22.0797995 10.1503894,22.7148504 10.234988,23.3161454 C10.2281248,24.0643679 10.6476169,24.5737807 10.9818101,25.100282 C11.1795803,25.3407719 11.4457026,25.4962434 11.7286317,25.515152 C12.3090574,25.5917669 12.3606014,25.7704887 12.6510943,25.8811394 C13.7954182,27.4392126 15.502519,28.5881585 16.7320022,29.4982947 C17.5156609,29.911344 18.0606499,30.3243932 18.2473559,30.5498964 C18.6073202,31.2371909 18.5410699,31.9073975 18.4917676,32.2366882 C18.1875484,33.3846541 17.8831892,34.5326194 17.5789699,35.6805846 C17.4254597,36.6184538 18.2404927,36.4075176 18.2843323,36.2199715 C18.652141,35.7424933 19.2010524,36.0778065 19.9854113,33.315462 C20.3449559,32.8314005 20.7046404,32.347339 21.064185,31.8632775 C21.064185,31.8632775 21.4791949,31.6973014 21.4791949,31.6558428 C22.1101834,30.8982356 21.6297639,30.464597 21.2716197,30.3281746 C21.0088596,30.2313906 20.7460996,30.1344662 20.483339,30.0376822 C20.483339,30.0376822 19.5705413,29.124884 19.5290821,29.124884 C19.0953036,27.8630463 16.9661893,25.1691937 16.4716226,24.7941016 C16.1293064,24.4373583 15.9664114,24.2853889 15.6414629,24.0869179 C15.1418544,23.8479689 14.9806403,23.7702334 14.6746004,23.6480975 C14.419824,23.5458502 14.6012065,23.2661422 14.7632607,23.1382637 C16.4496328,22.2202838 17.7864046,21.2000571 19.4045652,20.162742 C19.487483,20.1074166 19.5705413,20.0520912 19.6534591,19.9967659 C19.4598906,18.8903997 19.2661822,17.7838931 19.0726136,16.6775269 C18.1736822,16.3594409 17.2746102,16.0412156 16.3756787,15.7231302 C16.2342139,15.8199141 16.1267849,15.9168386 16.002268,16.0136231 Z" id="path4412" stroke="#000000" stroke-width="1.30000001" fill="#FFFFFF"></path>
                <path d="M18.258841,33.4894217 C18.267385,33.4553865 19.9468934,33.1483659 19.9468934,33.1483659 C19.9468934,33.1483659 19.7508039,33.7708105 19.74226,33.7708105 L18.071295,34.2737806 L18.258841,33.4894217 Z" id="path4414" fill="#F9DD16"></path>
                <path d="M13.8821173,27.1655271 C14.2060858,26.3044134 15.1054376,25.622581 15.7095339,25.4344747" id="path4416" stroke="#000000" stroke-width="0.840384652"></path>
                <path d="M18.1984733,33.5045489 C18.3068829,33.4740147 18.788283,33.3335304 18.9284874,33.3116806 C19.0780758,33.2766642 19.226964,33.2374467 19.3708099,33.191085 C19.536786,33.1571897 19.6407135,33.1259553 19.8131323,33.0945809 C19.9481538,33.0430375 20.081635,33.0077412 20.2260411,32.9739858 M17.8943939,34.542984 C17.9084006,34.5242154 18.0228327,34.4230892 18.1050503,34.3742066 C18.2018349,34.3436729 18.5328064,34.2031887 18.6580235,34.1813383 C18.7916446,34.1463224 18.9245655,34.1071043 19.0530043,34.0607432 C19.2013323,34.0268479 19.2940544,33.9956135 19.448125,33.9642391 C19.5687206,33.9126957 19.6879152,33.8773994 19.8167738,33.8436441" id="path4418" stroke="#000000" stroke-width="0.92929733"></path>
                <path d="M17.7323397,35.3189395 C17.7452259,35.3001708 17.8499935,35.1990446 17.9252081,35.150162 C18.013869,35.1196278 18.3169677,34.9791435 18.4316802,34.9572937 C18.5539561,34.9222779 18.6756716,34.8830598 18.7933254,34.8366987 C18.9291876,34.8028028 19.0140666,34.7715689 19.1551111,34.7401946 C19.2656219,34.6886506 19.3747317,34.6533543 19.4926653,34.6195989" id="path4424" stroke="#000000" stroke-width="0.840384652"></path>
                <path d="M19.9905936,31.1273808 C19.9223821,31.3254315 20.0107626,31.3751542 20.0473193,31.4605935 C20.1109088,31.5433713 20.2732429,31.669569 20.5297,31.7499659 C20.6285857,31.7765777 20.7046404,31.8026299 20.8190725,31.84647 C20.8948473,31.8534731 20.9321042,31.8723817 20.9878499,31.8946518" id="path4426" stroke="#000000" stroke-width="0.840384652"></path>
                <path d="M12.0110011,25.5822424 C12.0271083,25.5822424 13.4138832,24.8833228 13.5619308,24.7340142 C13.6668389,24.6579596 13.7462552,24.5777026 13.8738538,24.4912833 C13.9556511,24.4485636 14.014338,24.3937986 14.090953,24.3465968 C14.1546823,24.2542949 14.2378806,24.1985492 14.2838213,24.1140906 C14.3689802,24.040277 14.3324235,23.9603004 14.4014751,23.8713596 C14.4341105,23.7803177 14.4951784,23.6269479 14.515067,23.5436097" id="path4430" stroke="#000000" stroke-width="0.840384652"></path>
                <path d="M13.7898155,24.5652368 C13.7979391,24.5652368 14.0090158,24.6338687 14.3618372,24.7424182 C14.7865115,24.8950878 15.6697561,25.4517031 15.7574359,25.528318 C15.846937,25.59877 16.0070299,25.6616587 16.0683783,25.7452772 C16.1643222,25.828195 16.2346342,25.923859 16.3095684,26.0105588 C16.3976691,26.1179878 16.4727431,26.2088893 16.5265282,26.2999312 C16.794751,26.5174507 17.5162212,28.0235602 17.5393315,28.1085791 C17.5798101,28.1881353 17.6299531,28.298926 17.6599265,28.3738601 C17.7134312,28.4354883 17.749708,28.5226084 17.804613,28.6150508 C17.8550359,28.7349456 17.9114818,28.7895708 17.9735304,28.8803323 C18.053367,28.9357976 18.160936,29.0411255 18.2629028,29.0972915 C18.3715923,29.1902941 18.4735592,29.2281113 18.5522753,29.2902998 C18.6660072,29.3386221 19.936949,30.1420295 19.9959159,30.1822282 C20.1120293,30.2755106 20.4665315,30.642899 20.2176377,30.9101412 C20.1120293,31.0004824 20.0169256,31.1200974 19.9267243,31.171221 C19.8348423,31.263243 19.7069638,31.3044218 19.6013554,31.3520433 C19.0287735,31.5212411 18.7371599,31.4605935 18.624548,31.4605935 C18.5843498,31.4605935 18.5441517,31.4605935 18.503953,31.4605935" id="path4434" stroke="#000000" stroke-width="0.840384652"></path>
                <path d="M10.9827907,21.7240369 C11.1455451,21.7877657 11.0798551,21.7407044 11.2263618,21.807375 C11.3248271,21.8505144 11.389677,21.851635 11.486461,21.8869312 C11.589128,21.9198465 11.8759796,21.9715298 12.0138024,22.1099135 C12.1149286,22.2012353 12.1921038,22.2784105 12.3031748,22.3450811 C12.4345549,22.4357021 12.5293782,22.4760408 12.6922731,22.5439719 C12.8296761,22.5953754 12.9833264,22.6523815 13.1222697,22.657284 C13.2666758,22.6656874 13.3012718,22.6585433 13.4397948,22.6585433 C13.5524068,22.6585433 13.6648782,22.6585433 13.7774896,22.6585433 L13.4397948,22.6585433 C13.5524068,22.6585433 13.6648782,22.6585433 13.7774896,22.6585433" id="path4436" stroke="#000000" stroke-width="0.840384652"></path>
                <path d="M10.9439929,23.3337935 C11.3056381,23.3097026 11.9084745,23.4182522 11.9205199,23.4182522 C11.9206366,23.4182522 12.716364,23.4062067 12.716364,23.4062067 C13.1344557,23.365868 13.2267575,23.2052148 13.2951089,23.0926028 C13.4518409,22.8515527 13.5603905,22.767094 13.6809855,22.5862712 C13.8738538,22.4415852 14.1392753,22.7791395 14.1513207,22.7791395 C14.8264298,23.4182522 14.2838213,24.2019108 14.2476849,24.2260017 C13.9101307,24.5355432 13.8377175,24.5555729 13.6328037,24.3586428 C13.4277494,24.1174522 13.3675221,24.0090425 13.1987447,23.9245838 C12.8732359,23.7678519 12.1979869,23.8884475 12.1858009,23.8884475 C12.1737555,23.8884475 11.8362012,24.021088 11.8362012,24.021088 C11.6713456,24.0813158 11.5668579,24.2261417 11.2815472,24.2741841 C10.9921747,24.2943532 10.8956706,24.2662005 10.7509847,24.0331334 C10.5581164,23.7317155 10.65448,23.3699298 10.9439929,23.3337935 Z" id="path4438" stroke="#000000" stroke-width="0.840384652" fill="#FFE606"></path>
                <path d="M29.8245434,8.70771191 C29.7715524,8.71806257 29.2940345,8.94733311 29.3024094,8.9622277 C29.3107836,8.97712288 28.8925655,10.1120906 28.8841912,10.0971961 C28.8758163,10.0823009 28.5843941,9.11155843 28.5546037,9.12830756 C28.5249358,9.1449879 27.5152177,9.26277168 27.5003231,9.27114596 C27.4855498,9.27945202 28.2622078,8.29501539 28.2622078,8.29501539 L28.1575334,7.2388803 L28.9822636,7.55771896 C28.9822636,7.55771896 29.8583576,6.88903864 29.8732528,6.88066378 C29.8880256,6.87235772 29.642635,7.79285685 29.642635,7.79285685 L30.0847108,8.40509069 C30.0847108,8.40509069 29.837531,8.66136365 29.8245434,8.70771191 Z" id="path4440" stroke="#000000" stroke-width="0.840384855" fill-opacity="0.98823499" fill="#F9DD16"></path>
                <path d="M19.9230327,20.3358558 C20.531396,20.7371365 24.2277916,21.5116782 24.7813542,21.5917112 C25.4823918,21.5253589 26.4659895,21.6134748 27.2049761,21.8584025 C27.9113325,22.1661851 28.6322424,22.1526115 29.1149152,21.7841825 C29.7704849,21.4234719 30.0089401,20.8081552 30.3040942,20.258817 C30.4167988,19.9685642 30.421896,19.6603986 30.2997158,19.4045093 C30.0820407,18.8610192 30.2125672,18.7285006 30.1666515,18.4210573 C30.9639671,16.6599895 31.1288465,14.6088701 31.319637,13.0911163 C31.2956213,12.2055916 31.3885738,11.5281085 31.493637,11.2548462 C31.9163204,10.6042407 32.5329909,10.3335303 32.8441875,10.2151256 C33.9939327,9.91770359 35.1437467,9.62040403 36.2934918,9.32298262 C37.1862417,8.99715724 36.6029377,8.39009057 36.4179732,8.44378993 C35.8215096,8.35718639 35.8447802,7.71438213 33.0525124,8.38446224 C32.4543611,8.30828806 31.8561409,8.23199204 31.257989,8.15581786 C31.257989,8.15581786 30.9099214,7.87540676 30.8737827,7.89572563 C29.9041579,7.71700099 29.7616133,8.34829091 29.818219,8.72733467 C29.8626293,9.00380874 29.9069184,9.28035159 29.9513288,9.55682566 C29.9513288,9.55682566 29.6030163,10.7998375 29.6233346,10.8359762 C28.7360125,11.8324985 27.4151497,15.0324758 27.3305721,15.6474043 C27.2905372,16.2252374 27.0723082,16.1208866 27.1308226,16.6825192 C27.1330147,17.1213996 27.0819511,16.8473811 27.2284746,17.751601 C27.2642111,18.0237929 26.9315039,18.0027669 26.7406149,17.9241796 C25.1139681,16.9041016 23.5695295,16.2388704 21.8722914,15.3367347 C21.7834287,15.2915711 21.6944972,15.2462857 21.6056345,15.2011226 C20.7361092,15.9120661 19.8665297,16.6232002 18.9970044,17.3341437 C19.1602911,18.2736085 19.3235241,19.213264 19.4868108,20.1527294 C19.6405053,20.228608 19.7776414,20.2747499 19.9230298,20.3358558 L19.9230327,20.3358558 Z" id="path4442" stroke="#000000" stroke-width="1.30000001" fill="#FFFFFF"></path>
                <path d="M34.0503197,9.8042148 C34.0164646,9.81344726 32.9257387,8.49992858 32.9257387,8.49992858 C32.9257387,8.49992858 33.5644089,8.36580377 33.568596,8.37325107 L34.8259388,9.58328997 L34.0503197,9.8042148 Z" id="path4444" fill="#F9DD16"></path>
                <path d="M30.6829152,16.7185448 C29.7735317,16.8581696 28.7384366,16.4083841 28.2784101,15.9739969" id="path4446" stroke="#000000" stroke-width="0.840384855"></path>
                <path d="M34.0930906,9.84942212 C34.013345,9.76988809 33.6549611,9.41911304 33.5672027,9.30760938 C33.463369,9.19437769 33.3562157,9.08381559 33.2453067,8.98115027 C33.1344187,8.85308463 33.0562588,8.77780128 32.9444106,8.64288416 C32.8333092,8.55044999 32.7371252,8.45139581 32.6369301,8.34206384 M35.1472931,9.60555724 C35.1240685,9.60254894 34.9798373,9.55235926 34.8969341,9.5046491 C34.8228861,9.43524885 34.5382249,9.21559905 34.4578117,9.11715819 C34.3618032,9.01784515 34.2624756,8.92120169 34.1591176,8.83196588 C34.0568779,8.71928397 33.9842099,8.65376769 33.881354,8.53484413 C33.7773227,8.45498536 33.6881405,8.36838473 33.5955647,8.2726047" id="path4448" stroke="#000000" stroke-width="0.929297529"></path>
                <path d="M28.5947669,12.5072479 C28.5987488,12.5143291 28.6026607,12.5212884 28.6065733,12.5282477 C28.5695747,12.4624411 28.5868013,12.505942 28.7471817,12.5322646 C28.8498668,12.5159883 29.1898318,12.6799595 29.3040546,12.8831178 C29.3696752,12.9752529 29.464881,13.1200088 29.52007,13.2181698 C29.5357895,13.2461284 29.5364815,13.2965157 29.5522693,13.3245961" id="path4450" stroke="#000000" stroke-width="0.840384855"></path>
                <path d="M32.9368706,10.0936018 C32.9329587,10.0866425 32.9290455,10.0796832 32.9250642,10.072602 C32.940852,10.100683 32.8935569,10.0165625 32.8778374,9.98860391 C32.8165385,9.87957744 32.7744468,9.75926983 32.721531,9.66143821 C32.6624289,9.55631844 32.6331166,9.43444955 32.5740146,9.32932979 C32.5293809,9.21478984 32.4526272,9.08970743 32.4065448,8.97116166 C32.3415031,8.84576093 32.3102663,8.73332971 32.2382594,8.60525706 C32.1840937,8.49977176 32.1700071,8.43441989 32.1056883,8.32002161 L32.2382594,8.60525706 C32.1840937,8.49977176 32.1700071,8.43441989 32.1056883,8.32002161" id="path4452" stroke="#000000" stroke-width="0.840384855"></path>
                <path d="M35.9030935,9.3665313 C35.8804181,9.36449661 35.7409238,9.32273426 35.6614528,9.28112816 C35.5913855,9.21880907 35.3203847,9.0234554 35.2451195,8.93417178 C35.154671,8.84474766 35.0608347,8.75787127 34.9627623,8.67803641 C34.8666325,8.57622053 34.7978082,8.51754115 34.7013362,8.40997277 C34.602247,8.33890395 34.5180075,8.26109386 34.430786,8.17483662" id="path4454" stroke="#000000" stroke-width="0.840384855"></path>
                <path d="M30.2198145,19.1254951 C30.2119206,19.1114546 28.9230514,18.245169 28.7203472,18.1892939 C28.602638,18.1351211 28.4937596,18.1052287 28.3558954,18.0363578 C28.2785704,17.9859933 28.2020715,17.9616767 28.1233793,17.918026 C28.0116891,17.9077115 27.9223227,17.8625094 27.826187,17.8638562 C27.7201105,17.8258 27.6683129,17.8968612 27.5569445,17.8802596 C27.4615918,17.8964304 27.297974,17.9183636 27.2155832,17.9418697" id="path4460" stroke="#000000" stroke-width="0.840384855"></path>
                <path d="M28.4615451,18.0733681 C28.4575632,18.0662869 28.4139428,17.8486613 28.3356494,17.4879175 C28.260601,17.0429179 28.3129222,16.0002274 28.3367338,15.8862507 C28.3542817,15.7737075 28.3306408,15.6033373 28.3734631,15.5088819 C28.3987194,15.3846128 28.4476481,15.2764398 28.4864977,15.1686312 C28.5369643,15.0391868 28.5794082,14.9291972 28.6324074,14.8376964 C28.6905615,14.4972901 29.6498158,13.1302796 29.7125984,13.0684683 C29.7621077,12.9941947 29.8341064,12.8961894 29.8847351,12.8333374 C29.9122331,12.7564963 29.9703947,12.6821784 30.0240661,12.5890143 C30.1038637,12.4863029 30.1238152,12.4103299 30.1725212,12.3117625 C30.181742,12.2149884 30.2208359,12.0696029 30.2198215,11.9531956 C30.247622,11.812874 30.2306141,11.7054584 30.2462444,11.6063663 C30.2326272,11.4835465 30.3100659,9.98196058 30.3162073,9.9108597 C30.3406136,9.76393037 30.4871202,9.27486786 30.8420474,9.3608505 C30.972553,9.40863179 31.1234269,9.43290925 31.2121963,9.48648094 C31.3374396,9.52147344 31.4360058,9.61276084 31.5292737,9.68147782 C31.9573732,10.0976619 32.0474235,10.3815762 32.102613,10.4797373 C32.1223139,10.514777 32.1420142,10.5498167 32.1617151,10.584857" id="path4464" stroke="#000000" stroke-width="0.840384855"></path>
                <path d="M27.3541908,21.8640098 C27.3502788,21.8570505 27.3462963,21.8499693 27.3423838,21.84301 C27.3743033,21.8997818 27.3566231,21.8714799 27.3160879,21.7470831 C27.3054353,21.6401117 27.2724431,21.4954059 27.2557773,21.3937434 C27.2341525,21.2881199 27.1846595,21.167796 27.1980797,21.0942097 C27.1602579,20.986927 27.1840497,20.89835 27.1941911,20.7920619 C27.2242333,20.6591573 27.2378109,20.5629867 27.241492,20.4334944 C27.2560968,20.2745616 27.2443545,20.1619357 27.2534255,20.011738 C27.2115477,19.8880962 27.2030078,19.7845966 27.1391869,19.6610807 C27.0823994,19.5429297 27.0389621,19.4336624 26.9710736,19.3129152 C26.915884,19.2147548 26.8607633,19.1167162 26.8055744,19.0185551 L26.9710736,19.3129152 C26.915884,19.2147548 26.8607633,19.1167162 26.8055744,19.0185551" id="path4466" stroke="#000000" stroke-width="0.840384855"></path>
                <path d="M28.7828254,21.1575123 C28.5845888,20.8540819 28.3837671,20.2754064 28.3778636,20.2649065 C28.3778053,20.2647899 27.977332,19.5770931 27.977332,19.5770931 C27.7372689,19.2324227 27.5519954,19.2306993 27.4203373,19.2263082 C27.1334076,19.2078246 27.0065884,19.1545969 26.7898682,19.1380955 C26.5692267,19.040886 26.733385,18.6440938 26.7274815,18.6335945 C26.9537181,17.731899 27.9027378,17.8208165 27.9414475,17.8405092 C28.3766976,17.983045 28.4296449,18.0363497 28.3584117,18.3114805 C28.2486663,18.6084244 28.1836847,18.7140537 28.1927801,18.9025641 C28.2156881,19.2631144 28.6517381,19.7926094 28.6577103,19.8032318 C28.6636133,19.8137311 28.9446633,20.0429637 28.9446633,20.0429637 C29.0779556,20.1571475 29.2554052,20.1772494 29.437109,20.4024028 C29.5965071,20.6447565 29.6192623,20.7426739 29.487013,20.9830162 C29.3187965,21.2988553 28.9562109,21.3921628 28.7828254,21.1575123 Z" id="path4468" stroke="#000000" stroke-width="0.840384855" fill="#F9DD16"></path>
                <g id="g4470" transform="translate(12.271760, 10.722125) rotate(117.437622) translate(-12.271760, -10.722125) translate(5.618715, 0.357380)">
                    <path d="M11.1857989,14.6372611 C11.2027466,14.5859976 11.2369222,14.0573956 11.2198344,14.0573956 C11.2027466,14.0573956 10.4183877,13.1366141 10.4354755,13.1366141 C10.4525633,13.1366141 11.4415559,13.3583356 11.4415559,13.32416 C11.4415559,13.2901244 11.8337354,12.352255 11.8337354,12.3351672 C11.8337354,12.3182194 12.3112139,13.4776702 12.3112139,13.4776702 L13.2831186,13.9040254 L12.6010065,14.466663 C12.6010065,14.466663 12.7545167,15.5580427 12.7545167,15.5751305 C12.7545167,15.5920782 12.0724046,14.9270538 12.0724046,14.9270538 L11.3220812,15.0123528 C11.3220812,15.0123528 11.2198344,14.6712967 11.1857989,14.6372611 Z" id="path4472" stroke="#000000" stroke-width="0.840384658" fill-opacity="0.98823499" fill="#F9DD16"></path>
                    <path d="M5.90244108,0.307580814 C5.25450457,0.641213555 2.76780661,3.48367487 2.42675053,3.92697782 C2.14101977,4.57057246 1.58216403,5.38476521 1.0065006,5.90888516 C0.392039405,6.37375798 0.0505631387,7.00880872 0.135161853,7.610104 C0.128298712,8.35832654 0.54779068,8.86773976 0.881983614,9.3942408 C1.07975412,9.6347309 1.3458759,9.79020207 1.62880537,9.80911073 C2.20923099,9.88572581 2.26077458,10.0644476 2.55126751,10.1750983 C3.69559118,11.7331716 5.40269238,12.8821176 6.63217502,13.7922543 C7.41583364,14.2053034 7.96082304,14.6183525 8.14752848,14.8438557 C8.5074932,15.5311504 8.44124289,16.2013572 8.39194032,16.5306479 C8.08772111,17.6786135 7.78336183,18.826579 7.47914261,19.9745446 C7.32563236,20.912414 8.14066534,20.7014774 8.1845054,20.5139315 C8.55231371,20.0364529 9.10122491,20.3717664 9.88558385,17.6094218 C10.2451284,17.1253602 10.604813,16.6412986 10.9643575,16.157237 C10.9643575,16.157237 11.3793674,15.991261 11.3793674,15.949802 C12.0103562,15.1921952 11.5299363,14.7585566 11.1717924,14.6221342 C10.9090322,14.5253499 10.646272,14.4284255 10.3835117,14.3316412 C10.3835117,14.3316412 9.47071399,13.4188433 9.42925502,13.4188433 C8.99547651,12.1570056 6.85347629,9.43738055 6.35890997,9.06228883 C5.87484845,8.7442032 6.07275902,8.60511953 5.55452186,8.38087687 C5.1708863,8.16769927 5.43476706,8.25748038 4.57477351,7.94205597 C4.31999692,7.83980916 4.50137992,7.56010111 4.66343408,7.43222256 C6.3498058,6.5142423 7.68657754,5.49401523 9.30473804,4.45670033 C9.38765598,4.401375 9.47071399,4.34604967 9.55363194,4.29072435 C9.36006336,3.18435784 9.16635471,2.07785127 8.97278613,0.971484758 C8.07385476,0.653399134 7.17478333,0.335173446 6.27585196,0.017087823 C6.13438722,0.113872132 6.02695806,0.210796505 5.90244108,0.307580814 Z" id="path4474" stroke="#000000" stroke-width="1.29999997" fill="#FFFFFF"></path>
                    <path d="M8.15901373,17.7833814 C8.16755764,17.7493459 9.84706622,17.4423253 9.84706622,17.4423253 C9.84706622,17.4423253 9.65097648,18.0647703 9.64243257,18.0647703 L7.97146791,18.5677405 L8.15901373,17.7833814 Z" id="path4476" fill="#F9DD16"></path>
                    <path d="M3.78229085,11.4594863 C4.10625911,10.5983721 5.00561067,9.91653991 5.60970712,9.7284338" id="path4478" stroke="#000000" stroke-width="0.840384658"></path>
                    <path d="M8.09864611,17.7985084 C8.20705572,17.7679744 8.68845602,17.6274901 8.82866018,17.6056401 C8.97824863,17.570624 9.12713677,17.5314061 9.27098259,17.4850449 C9.43695855,17.4511493 9.54088611,17.4199151 9.71330501,17.3885407 C9.8483268,17.3369971 9.98180788,17.3017009 10.126214,17.2679455 M7.79456695,18.8369438 C7.80857336,18.8181752 7.92300573,18.7170489 8.00522335,18.6681665 C8.10200764,18.6376325 8.4329791,18.4971482 8.55819641,18.4752982 C8.69181755,18.4402822 8.82473838,18.4010642 8.95317716,18.354703 C9.10150504,18.3208075 9.19422747,18.2895732 9.34829797,18.2581988 C9.46889316,18.2066552 9.58808771,18.1713591 9.71694667,18.1376036" id="path4480" stroke="#000000" stroke-width="0.929297321"></path>
                    <path d="M7.63251279,19.612899 C7.64539869,19.5941304 7.75016664,19.4930041 7.82538105,19.4441218 C7.91404163,19.4135878 8.21714033,19.2731035 8.33185283,19.2512535 C8.45412878,19.2162374 8.57584448,19.1770195 8.69349832,19.1306582 C8.8293605,19.0967627 8.91423934,19.0655284 9.05528388,19.0341541 C9.16579446,18.9826105 9.27490439,18.9473143 9.39283836,18.9135589" id="path4486" stroke="#000000" stroke-width="0.840384658"></path>
                    <path d="M9.89076622,15.4213401 C9.822555,15.6193907 9.91093545,15.6691135 9.94749218,15.7545526 C10.0110813,15.8373305 10.1734156,15.9635283 10.4298729,16.0439251 C10.5287582,16.0705373 10.604813,16.0965892 10.7192453,16.1404293 C10.79502,16.1474325 10.8322771,16.1663411 10.8880226,16.1886113" id="path4488" stroke="#000000" stroke-width="0.840384658"></path>
                    <path d="M1.91117459,9.87620145 C1.92728196,9.87620145 3.31405658,9.17728147 3.46210433,9.02797312 C3.56701234,8.9519183 3.64642868,8.87166156 3.77402707,8.78524199 C3.8558245,8.74252243 3.91451136,8.68775736 3.99112642,8.64055575 C4.05485559,8.54825349 4.13805366,8.49250797 4.18399468,8.40804931 C4.26915365,8.33423551 4.23259692,8.2542589 4.30164852,8.16531818 C4.33428346,8.0742765 4.3953514,7.92090629 4.4152405,7.83756813" id="path4492" stroke="#000000" stroke-width="0.840384658"></path>
                    <path d="M3.68998861,8.85919585 C3.69811233,8.85919585 3.90918893,8.92782727 4.26201038,9.03637696 C4.68668472,9.18904686 5.56992891,9.74566168 5.65760904,9.82227676 C5.74711,9.89272901 5.90720326,9.9556178 5.96855133,10.0392361 C6.06449524,10.122154 6.13480741,10.2178178 6.20974171,10.3045175 C6.29784202,10.4119467 6.37291638,10.5028483 6.42670099,10.59389 C6.69492373,10.8114096 7.41639389,12.3175191 7.43950447,12.402538 C7.47998299,12.4820945 7.53012594,12.5928852 7.56009966,12.6678195 C7.61360414,12.7294477 7.64988074,12.8165676 7.70478587,12.9090099 C7.75520894,13.0289048 7.81165477,13.0835298 7.87370317,13.1742914 C7.9535397,13.2297567 8.06110893,13.335085 8.16307559,13.3912507 C8.27176533,13.4842533 8.37373199,13.5220706 8.45244801,13.584259 C8.56618006,13.6325812 9.83712167,14.435989 9.89608865,14.4761874 C10.0122018,14.5694701 10.366704,14.9368583 10.1178101,15.2041006 C10.0122018,15.294442 9.91709827,15.4140567 9.82689699,15.4651801 C9.73501494,15.5572023 9.60713642,15.5983811 9.50152809,15.6460029 C8.92894607,15.8152004 8.63733262,15.7545526 8.52472109,15.7545526 C8.48452269,15.7545526 8.4443243,15.7545526 8.4041259,15.7545526" id="path4496" stroke="#000000" stroke-width="0.840384658"></path>
                    <path d="M0.928484894,6.03620345 C0.936468547,6.03620345 0.944592265,6.03620345 0.952575918,6.03620345 C0.887446114,6.03620345 0.920781368,6.03466274 1.04908008,6.06029448 C1.14754514,6.10343423 1.28985026,6.14559353 1.38663455,6.18088969 C1.48930153,6.21380476 1.61844063,6.229632 1.67600698,6.27739387 C1.78805825,6.29700284 1.85360825,6.36115221 1.94128837,6.42208011 C2.04241465,6.51340191 2.11958997,6.57236891 2.2306608,6.63903943 C2.36204092,6.72966092 2.46596848,6.7746215 2.59244636,6.85613882 C2.72074507,6.88022985 2.81514827,6.92350967 2.95409185,6.92841191 C3.08491172,6.93681576 3.20144505,6.95250294 3.33996844,6.95250294 C3.45257997,6.95250294 3.56505144,6.95250294 3.67766297,6.95250294 L3.33996844,6.95250294 C3.45257997,6.95250294 3.56505144,6.95250294 3.67766297,6.95250294" id="path4498" stroke="#000000" stroke-width="0.840384658"></path>
                    <path d="M8.71772941,3.21475175 C8.70162204,3.21475175 8.68551467,3.21475175 8.6694073,3.21475175 C8.75862813,3.21475175 8.73355665,3.21153028 8.59713422,3.23884278 C8.45468904,3.31237645 8.26504225,3.3679819 8.1388445,3.43171108 C7.99485861,3.47933288 7.84008778,3.53213706 7.70478587,3.60062841 C7.55155575,3.69040951 7.41037114,3.76338292 7.27072723,3.8657698 C7.13192371,3.94014385 6.99550128,4.03174578 6.86075962,4.10696022 C6.72643816,4.17993362 6.61550739,4.25038588 6.49911413,4.34815064 C6.40190965,4.40207532 6.2698292,4.47841027 6.16141959,4.56510996 C6.05959299,4.6016667 5.98605934,4.67421992 5.92036928,4.7340273 C5.79277089,4.84705904 5.71461513,4.90574591 5.58267475,5.02339977 C5.51334302,5.08894978 5.42118084,5.16598505 5.31739335,5.26445013 C5.20842348,5.33714341 5.09048951,5.4769274 5.0039299,5.55382261 C4.94846452,5.62623576 4.86722734,5.7123752 4.78697062,5.770922 C4.72520235,5.84865759 4.6536296,5.9509044 4.56987127,6.01211242 C4.52014851,6.08606628 4.43316871,6.18243039 4.35277192,6.27739387 C4.28764211,6.35709035 4.19800109,6.4373471 4.13581263,6.51844422 C4.0520543,6.61116667 3.98790495,6.70458944 3.89462226,6.78372567 C3.87795463,6.83947119 3.84293861,6.8683244 3.82234919,6.90432088" id="path4500" stroke="#000000" stroke-width="0.840384658"></path>
                    <path d="M0.844166308,7.62775208 C1.2058118,7.60366105 1.80864767,7.71221074 1.82069319,7.71221074 C1.82083325,7.71221074 2.61653738,7.70016523 2.61653738,7.70016523 C3.03462871,7.65982676 3.12693095,7.49917321 3.19528223,7.38656166 C3.35201395,7.1455113 3.46056362,7.06105264 3.58115881,6.88022985 C3.77402707,6.73554361 4.03944853,7.07309815 4.05149405,7.07309815 C4.72660299,7.71221074 4.18399468,8.49586951 4.14785814,8.51996054 C3.81030367,8.82950225 3.73789054,8.84953142 3.53297676,8.65260127 C3.32792293,8.41141085 3.26769536,8.30300122 3.09891813,8.21854255 C2.77340917,8.0618108 2.09816016,8.18240601 2.08597458,8.18240601 C2.07392907,8.18240601 1.7363746,8.31504673 1.7363746,8.31504673 C1.57151916,8.3752743 1.46703134,8.52010061 1.18172078,8.5681426 C0.892348357,8.58831183 0.795844195,8.56015895 0.651157983,8.32709224 C0.458289723,8.02567425 0.554653821,7.66388862 0.844166308,7.62775208 Z" id="path4502" stroke="#000000" stroke-width="0.840384658" fill="#F9DD16"></path>
                </g>
                <path d="M16.2251068,15.3999429 C16.092415,15.2794359 18.7210066,16.352397 19.0826442,16.3645818 C19.5770902,16.1837339 21.614807,14.4595569 21.614807,14.4595569 C21.6349206,14.6283366 21.7071548,15.0664061 21.9040354,15.1589289 C21.1163965,15.7980182 20.4009336,16.4128546 19.6132365,17.0518273 C19.6695547,18.0646808 19.484684,19.1378168 19.9990687,20.2712356 C19.9990687,20.2712356 19.3842324,20.2831872 19.3842324,20.2712356 C18.8416302,19.7286334 18.6485975,17.1122266 18.6485975,17.1122266 C17.7845268,16.726336 16.9203395,16.3526302 16.0562687,15.9667397 C16.1809151,15.8862851 16.2813667,15.6372256 16.2251068,15.3999429 Z" id="path4504" stroke="#000000" stroke-width="0.840383253" fill-opacity="0.98742095" fill="#F9DD16"></path>
                <path d="M18.7260205,18.0820543 C18.7680551,18.0515632 18.2518631,18.321844 18.1192879,18.3897057 C15.7312438,19.6635702 14.502329,21.5165911 14.4257222,21.5866099 C14.3844455,21.6655487 14.30848,21.7708393 14.2389276,21.8739728 C14.1829592,21.9604323 14.1026212,22.0499235 14.0496844,22.1373741 C13.9765174,22.2387003 13.8227208,22.4387874 13.7387099,22.5276372 C13.7282158,22.5848883 13.7785291,22.5080483 13.7620884,22.5461185" id="path4506" stroke="#000000" stroke-width="0.840383253"></path>
                <path d="M20.357733,16.5681086 C20.3113842,16.5446719 20.7878736,16.8800743 20.908847,16.9668836 C23.1339413,18.5078224 25.3438776,18.7530923 25.441181,18.7891803 C25.5302641,18.7897633 25.6586416,18.8091773 25.7821219,18.823869 C25.8846724,18.8340716 26.0009235,18.8645627 26.1029492,18.8716754 C26.2264878,18.8903315 26.4747894,18.9355726 26.5922647,18.9696784 C26.6478834,18.9527713 26.5566432,18.9432683 26.5979782,18.9404116" id="path4508" stroke="#000000" stroke-width="0.840383253"></path>
            </g>
        </g>
    </g>
</svg>