<?xml version="1.0" encoding="UTF-8"?>
<svg width="34px" height="20px" viewBox="0 0 34 20" version="1.1" xmlns="http://www.w3.org/2000/svg" xmlns:xlink="http://www.w3.org/1999/xlink">
    <!-- Generator: Sketch 49 (51002) - http://www.bohemiancoding.com/sketch -->
    <title>INR</title>
    <desc>Created with Sketch.</desc>
    <defs></defs>
    <g id="Page-1" stroke="none" stroke-width="1" fill="none" fill-rule="evenodd">
        <g id="INR" fill-rule="nonzero">
            <rect id="Rectangle-path" fill="#FFFFFF" x="0" y="0" width="33.56" height="19.58"></rect>
            <rect id="Rectangle-path" fill="#F0953E" x="0" y="0" width="33.56" height="6.53"></rect>
            <rect id="Rectangle-path" fill="#3B8916" x="0" y="13.05" width="33.56" height="6.52"></rect>
            <g id="Group" transform="translate(13.000000, 6.000000)">
                <path d="M3.78,0.86 C2.58997247,0.860006884 1.51731456,1.57740171 1.06285058,2.67723261 C0.6083866,3.77706351 0.861758806,5.04239068 1.70466764,5.88243247 C2.54757647,6.72247427 3.81375957,6.97153385 4.91203566,6.51332522 C6.01031175,6.05511659 6.72404771,4.98002064 6.72,3.79 C6.71449041,2.17018944 5.39981993,0.85999063 3.78,0.86 M3.78,1.15 L3.71,2.63 L3.79,3.47 L3.86,2.63 L3.79,1.15 L4,1.15 C3.99979834,1.21806642 4.05213494,1.2747644 4.12,1.28 C4.18255755,1.28021756 4.23478722,1.23234036 4.24,1.17 L4.46,1.22 L4,2.64 L3.86,3.47 L4.15,2.67 L4.46,1.23 L4.67,1.3 C4.67,1.36627417 4.72372583,1.42 4.79,1.42 C4.83725053,1.42035884 4.88031307,1.3929554 4.9,1.35 L5.1,1.46 L4.3,2.69 L3.94,3.46 L4.43,2.77 L5.1,1.46 L5.29,1.57 C5.25682315,1.60667179 5.2495402,1.65994062 5.27165591,1.70417204 C5.29377163,1.74840347 5.34075646,1.77453841 5.39,1.77 C5.42994967,1.77277868 5.46825314,1.75362695 5.49,1.72 L5.65,1.87 L4.56,2.87 L4,3.55 L4.67,3 L5.67,1.9 L5.82,2.06 C5.80832397,2.08886392 5.80832397,2.12113608 5.82,2.15 C5.82,2.21627417 5.87372583,2.27 5.94,2.27 L6.01,2.27 L6.13,2.46 L4.82,3.13 L4.13,3.62 L4.9,3.27 L6.14,2.46 L6.25,2.67 C6.20545804,2.69313318 6.17821186,2.73984093 6.18,2.79 C6.18,2.85627417 6.23372583,2.91 6.3,2.91 C6.3,2.98 6.3,3.05 6.36,3.12 L4.92,3.42 L4.13,3.71 L4.96,3.57 L6.37,3.12 C6.37,3.18 6.37,3.26 6.37,3.33 C6.30765964,3.33521278 6.25978244,3.38744245 6.26,3.45 C6.26,3.51627417 6.31372583,3.57 6.38,3.57 C6.38403639,3.64327779 6.38403639,3.71672221 6.38,3.79 L5,3.71 L4.16,3.78 L5,3.86 L6.47,3.78 C6.47403639,3.85327779 6.47403639,3.92672221 6.47,4 C6.40580724,4.00477425 6.35477425,4.05580724 6.35,4.12 C6.34917303,4.17918959 6.3916316,4.23013988 6.45,4.24 C6.45,4.31 6.45,4.38 6.45,4.45 L5.95,4.29 L5.05,4 L4.22,3.86 L5.01,4.15 L6.45,4.46 C6.43249827,4.53181076 6.40908507,4.60205036 6.38,4.67 C6.31372583,4.67 6.26,4.72372583 6.26,4.79 L6.16,4.99 L4.92,4.19 L4.07,4 L4.47,4.28 L4.76,4.48 L6.07,5.15 L5.95,5.34 L5.88,5.34 C5.81372583,5.34 5.76,5.39372583 5.76,5.46 C5.74716573,5.48862735 5.74716573,5.52137265 5.76,5.55 L5.61,5.71 L4.61,4.62 L4,4 L4.54,4.65 L5.63,5.65 L5.47,5.79 C5.44427847,5.77995934 5.41572153,5.77995934 5.39,5.79 C5.32372583,5.79 5.27,5.84372583 5.27,5.91 C5.26720266,5.92654929 5.26720266,5.94345071 5.27,5.96 L5.07,6.09 L4.4,4.78 L3.91,4.08 L4.26,4.85 L5.06,6.09 L4.86,6.19 C4.84260296,6.14510868 4.79803441,6.11674688 4.75,6.12 C4.68372583,6.12 4.63,6.17372583 4.63,6.24 L4.42,6.3 L4.11,4.85 L3.82,4.06 L3.96,4.89 L4.41,6.3 L4.19,6.3 C4.17671781,6.24367206 4.12779968,6.20290695 4.07,6.2 C4.00372583,6.2 3.95,6.25372583 3.95,6.32 L3.73,6.32 L3.86,5 L3.78,4.16 L3.7,5 L3.77,6.47 L3.54,6.47 C3.54,6.40372583 3.48627417,6.35 3.42,6.35 C3.36220032,6.35290695 3.31328219,6.39367206 3.3,6.45 L3.09,6.45 L3.54,5.04 L3.68,4.21 L3.39,5 L3.08,6.45 L2.87,6.39 C2.87,6.32372583 2.81627417,6.27 2.75,6.27 C2.69984093,6.26821186 2.65313318,6.29545804 2.63,6.34 L2.43,6.24 L3.23,5 L3.58,4.23 L3.09,4.92 L2.42,6.24 L2.26,6 C2.26843337,5.97742869 2.26843337,5.95257131 2.26,5.93 C2.26,5.86372583 2.20627417,5.81 2.14,5.81 C2.11137265,5.79716573 2.07862735,5.79716573 2.05,5.81 L1.89,5.66 L2.99,4.66 L3.53,4.01 L2.88,4.55 L1.88,5.64 L1.73,5.48 C1.74333333,5.448 1.74333333,5.412 1.73,5.38 C1.73,5.31372583 1.67627417,5.26 1.61,5.26 L1.54,5.26 L1.42,5.07 L2.74,4.39 L3.43,3.91 L2.66,4.26 L1.42,5.06 C1.42,5 1.35,4.94 1.32,4.86 C1.36885675,4.84618942 1.40191444,4.80073509 1.4,4.75 C1.4,4.68372583 1.34627417,4.63 1.28,4.63 L1.23,4.63 L1.16,4.42 L2.61,4.11 L3.4,3.82 L2.56,3.96 L1.15,4.41 C1.15,4.34 1.15,4.27 1.15,4.19 C1.21234036,4.18478722 1.26021756,4.13255755 1.26,4.07 C1.26,4.00372583 1.20627417,3.95 1.14,3.95 C1.14,3.88 1.14,3.81 1.14,3.73 L2.61,3.81 L3.45,3.73 L2.61,3.66 L1.14,3.73 C1.14,3.66 1.14,3.58 1.14,3.51 C1.20627417,3.51 1.26,3.45627417 1.26,3.39 C1.26021756,3.32744245 1.21234036,3.27521278 1.15,3.27 C1.15,3.2 1.15,3.12 1.15,3.06 L2.56,3.51 L3.4,3.65 L2.61,3.36 L1.22,3.1 L1.29,2.89 C1.35627417,2.89 1.41,2.83627417 1.41,2.77 C1.41035884,2.72274947 1.3829554,2.67968693 1.34,2.66 L1.44,2.46 L2.68,3.27 L3.45,3.62 L2.76,3.13 L1.44,2.46 L1.56,2.27 C1.58257131,2.27843337 1.60742869,2.27843337 1.63,2.27 C1.69627417,2.27 1.75,2.21627417 1.75,2.15 C1.76143819,2.11764791 1.76143819,2.08235209 1.75,2.05 L1.9,1.89 L2.9,2.99 L3.55,3.53 L3,2.9 L1.9,1.9 L2.06,1.75 C2.08886392,1.76167603 2.12113608,1.76167603 2.15,1.75 C2.21627417,1.75 2.27,1.69627417 2.27,1.63 C2.27552064,1.60699321 2.27552064,1.58300679 2.27,1.56 L2.46,1.45 L3.13,2.76 L3.62,3.45 L3.27,2.68 L2.47,1.45 L2.66,1.34 C2.67655471,1.38687835 2.72030158,1.41869426 2.77,1.42 C2.83627417,1.42 2.89,1.36627417 2.89,1.3 C2.89246438,1.28342443 2.89246438,1.26657557 2.89,1.25 L3.1,1.18 L3.41,2.62 L3.7,3.42 L3.56,2.59 L3.1,1.23 L3.31,1.18 C3.31,1.24627417 3.36372583,1.3 3.43,1.3 C3.49627417,1.3 3.55,1.24627417 3.55,1.18 L3.77,1.18" id="Shape" fill="#16007E"></path>
                <path d="M3.79,3.35 C4.03300529,3.35 4.23,3.54699471 4.23,3.79 C4.23,4.03300529 4.03300529,4.23 3.79,4.23 C3.54699471,4.23 3.35,4.03300529 3.35,3.79 C3.35,3.67330474 3.39635701,3.56138902 3.47887302,3.47887302 C3.56138902,3.39635701 3.67330474,3.35 3.79,3.35" id="Shape" fill="#FFFFFF"></path>
                <path d="M3.79,3.45 C3.97777681,3.45 4.13,3.60222319 4.13,3.79 C4.13,3.97777681 3.97777681,4.13 3.79,4.13 C3.60222319,4.13 3.45,3.97777681 3.45,3.79 C3.45,3.60222319 3.60222319,3.45 3.79,3.45" id="Shape" fill="#16007E"></path>
            </g>
        </g>
    </g>
</svg>