<?xml version="1.0" encoding="utf-8"?>
<!-- Generator: Adobe Illustrator 21.0.0, SVG Export Plug-In . SVG Version: 6.00 Build 0)  -->
<svg version="1.1" id="Layer_1" xmlns="http://www.w3.org/2000/svg" xmlns:xlink="http://www.w3.org/1999/xlink" x="0px" y="0px"
	 viewBox="0 0 200 200" style="enable-background:new 0 0 200 200;" xml:space="preserve">
<style type="text/css">
	.st0{fill:#0071C5;}
</style>
<title>INTC</title>
<g id="g4421">
	<path id="path4423" class="st0" d="M59,90v32.2H48.8V81.7H70c9,0,12.1,6.3,12.1,12.1v28.4H71.8V93.9c0-2.4-1.2-3.9-4.3-3.9H59z
		 M128.7,89.6c-3.1-0.2-5.9,1.5-7.3,4.2c-0.6,1.4-1,2.9-1,4.4h15.8C135.9,93.8,133.9,89.6,128.7,89.6 M120.4,105.1
		c0,5.2,3.3,9.1,9.1,9.1c3.6,0.2,7-1.2,9.4-3.8l6.3,6.1c-4.1,4-8.3,6.4-15.8,6.4c-9.8,0-19.2-5.3-19.2-21c0-13.4,8.2-20.9,19-20.9
		c10.8,0,17.2,8.8,17.2,20.4v3.7L120.4,105.1 M101.6,122.1c-8.3,0-11.9-5.8-11.9-11.6V70.7h10.2v11h7.7v8.3h-7.7v20
		c0,2.3,1.1,3.7,3.6,3.7h4.2v8.6L101.6,122.1 M39.7,76.2H29.3v-9.8h10.4V76.2z M39.7,122.6c-7.7-0.7-10.3-5.4-10.3-10.8V81.7h10.3
		V122.6L39.7,122.6z M162.7,121.7c-7.7-0.7-10.3-5.4-10.3-10.8v-46h10.3V121.7z M198.8,71.6c-9.3-45.6-98-48.5-155.1-13.8v3.8
		c57.1-29.3,138-29.1,145.4,12.9c2.4,13.9-5.4,28.4-19.4,36.7v10.9C186.6,116,203.9,96.1,198.8,71.6 M95,151.4
		c-39.4,3.7-80.5-2.1-86.2-32.9C6,103.4,12.9,87.3,22,77.3V72C5.5,86.4-3.4,104.8,1.7,126.5c6.6,27.8,41.8,43.5,95.6,38.3
		c21.3-2.1,49.2-8.9,68.5-19.6v-15.1C148.3,140.5,119.2,149.2,95,151.4"/>
</g>
</svg>
