<?xml version="1.0" encoding="UTF-8"?>
<svg width="34px" height="20px" viewBox="0 0 34 20" version="1.1" xmlns="http://www.w3.org/2000/svg" xmlns:xlink="http://www.w3.org/1999/xlink">
    <!-- Generator: Sketch 49 (51002) - http://www.bohemiancoding.com/sketch -->
    <title>IQD</title>
    <desc>Created with Sketch.</desc>
    <defs></defs>
    <g id="Page-1" stroke="none" stroke-width="1" fill="none" fill-rule="evenodd">
        <g id="IQD" fill-rule="nonzero">
            <rect id="Rectangle-path" fill="#BD1032" x="0" y="0" width="33.56" height="6.53"></rect>
            <rect id="Rectangle-path" fill="#FFFFFF" x="0" y="6.53" width="33.56" height="6.52"></rect>
            <rect id="Rectangle-path" fill="#050505" x="0" y="13.05" width="33.56" height="6.53"></rect>
            <g id="Group" transform="translate(10.000000, 7.000000)" fill="#439B4C">
                <path d="M9.68,1.59 L9.58,1.52 C9.58,1.52 9.58,1.52 9.66,1.52 C9.7795804,1.55187179 9.90717742,1.52184896 10,1.44 L10.09,1.37 L10.2,1.42 L10.34,1.42 C10.4116227,1.38193387 10.4654735,1.31731293 10.49,1.24 C10.49,1.18 10.49,1.24 10.55,1.24 C10.5723472,1.29420792 10.5710139,1.35529004 10.5463226,1.40847121 C10.5216313,1.46165237 10.4758309,1.50208904 10.42,1.52 C10.3582278,1.53988702 10.2917722,1.53988702 10.23,1.52 C10.13,1.52 10.11,1.52 10.06,1.52 C9.93271958,1.60439766 9.76728042,1.60439766 9.64,1.52" id="Shape"></path>
                <path d="M10.09,1.21 C10.0364266,1.1222874 10.0054991,1.0226322 10,0.92 C10,0.92 10,0.87 10.06,0.92 C10.12,0.97 10.14,0.99 10.13,1.14 C10.12,1.29 10.13,1.3 10.06,1.25" id="Shape"></path>
                <path d="M5.26,1.07 C5.26,1.16 5.43,1.39 5.51,1.44 C5.59,1.49 5.39,1.44 5.34,1.44 C5.06,1.73 4.03,2.73 3.84,2.97 C4.4,2.97 5.01,2.97 5.54,2.97 C5.54,2.59 5.9,2.57 6.14,2.43 C6.26,2.63 6.57,2.61 6.61,2.9 L6.61,4.17 L1.84,4.17 C1.80271307,4.36275896 1.68618971,4.53099871 1.51885132,4.63368364 C1.35151293,4.73636856 1.14874319,4.76405866 0.96,4.71 C1.11,4.56 1.35,4.5 1.43,4.3 C1.46654355,3.94168367 1.36257514,3.5831719 1.14,3.3 C1.32269307,3.23634835 1.49465523,3.14530956 1.65,3.03 C1.49,3.54 2.09,3.48 2.53,3.47 C2.53,3.3 2.53,3.1 2.41,3.06 C2.5890342,2.99540219 2.7501348,2.88914436 2.88,2.75 L2.88,3.44 L6.18,3.44 C6.18,3.23 6.24,2.89 6.07,2.89 C5.9,2.89 6.07,3.33 5.94,3.33 L3.39,3.33 C3.39,3.23 3.39,3.03 3.39,2.89 L4.22,2.05 C4.29,1.98 4.81,1.51 5.22,1.05" id="Shape"></path>
                <path d="M11.63,1.06 C11.7968099,1.17682881 11.9783976,1.27098536 12.17,1.34 C12.17,1.43 12.06,1.47 12.04,1.56 L12.04,3.48 C12.28,3.53 12.33,3.4 12.45,3.32 C12.45,3.62 12.67,3.93 12.67,4.17 L11.67,4.17 L11.63,1.06 Z" id="Shape"></path>
                <path d="M10.24,2.09 C10.24,2.09 10.62,1.77 10.62,1.76 L10.62,3.44 L10.9,3.44 C10.9,2.8 10.9,2.15 10.9,1.56 C11.0408991,1.44841366 11.1684137,1.32089906 11.28,1.18 L11.28,4.18 L8.88,4.18 C8.88,3.56 8.88,2.91 9.56,3.05 L9.56,2.79 C9.56,2.79 9.5,2.79 9.49,2.79 C9.48,2.79 9.64,2.64 9.95,2.37 C9.95,2.7 9.95,3.48 9.95,3.48 L10.23,3.48 C10.23,3.48 10.23,2.18 10.23,2.14 M9.33,3.46 C9.38,3.54 9.56,3.53 9.55,3.41 C9.54,3.29 9.29,3.35 9.33,3.46" id="Shape"></path>
                <path d="M2.43,4.39 C2.50521162,4.39486727 2.56513273,4.45478838 2.57,4.53 C2.57,4.60731986 2.50731986,4.67 2.43,4.67 C2.35091043,4.67017594 2.28527246,4.60891383 2.28,4.53 C2.28527246,4.45108617 2.35091043,4.38982406 2.43,4.39" id="Shape"></path>
                <path d="M6.93,1.06 C7.09766995,1.17540256 7.27906766,1.26946063 7.47,1.34 C7.47,1.43 7.36,1.46 7.34,1.56 L7.34,3.48 C7.59,3.53 7.64,3.4 7.75,3.33 C7.75,3.63 7.98,3.94 7.97,4.18 L6.97,4.18 L6.93,1.06 Z" id="Shape"></path>
            </g>
        </g>
    </g>
</svg>