<?xml version="1.0" encoding="UTF-8"?>
<svg width="34px" height="20px" viewBox="0 0 34 20" version="1.1" xmlns="http://www.w3.org/2000/svg" xmlns:xlink="http://www.w3.org/1999/xlink">
    <!-- Generator: Sketch 49 (51002) - http://www.bohemiancoding.com/sketch -->
    <title>IRR</title>
    <desc>Created with Sketch.</desc>
    <defs></defs>
    <g id="Page-1" stroke="none" stroke-width="1" fill="none" fill-rule="evenodd">
        <g id="IRR" fill-rule="nonzero">
            <rect id="Rectangle-path" fill="#FFFFFF" x="0" y="0" width="33.56" height="19.58"></rect>
            <rect id="Rectangle-path" fill="#49A044" x="0" y="0" width="33.56" height="6.54"></rect>
            <rect id="Rectangle-path" fill="#C7001B" x="0" y="13.04" width="33.56" height="6.54"></rect>
            <polygon id="Shape" fill="#C7001B" points="16.78 7.43 16.43 7.72 16.49 12.35 16.78 12.68 17.07 12.35 17.14 7.72"></polygon>
            <g id="Group" transform="translate(0.000000, 5.000000)">
                <path d="M17.49,1.94 C17.3481572,2.16779991 17.0494675,2.23912879 16.82,2.1 C16.6008568,2.25896666 16.2949974,2.21463921 16.13,2 C16.0789472,2.18584234 16.1609288,2.38258176 16.3288419,2.47718069 C16.496755,2.57177962 16.7075031,2.53995837 16.84,2.4 C16.9724969,2.53995837 17.183245,2.57177962 17.3511581,2.47718069 C17.5190712,2.38258176 17.6010528,2.18584234 17.55,2" id="Shape" fill="#C7001B"></path>
                <path d="M17.67,2.59 C18.3510466,3.51781416 18.4166394,4.76129534 17.8369839,5.75561072 C17.2573285,6.7499261 16.1429349,7.3055113 15,7.17 C16.232917,7.66223123 17.6403926,7.17766441 18.3089927,6.0307774 C18.9775928,4.88389039 18.7057981,3.4203603 17.67,2.59" id="Shape" fill="#C7001B"></path>
                <path d="M15.89,2.59 C15.2089534,3.51781416 15.1433606,4.76129534 15.7230161,5.75561072 C16.3026715,6.7499261 17.4170651,7.3055113 18.56,7.17 C17.327083,7.66223123 15.9196074,7.17766441 15.2510073,6.0307774 C14.5824072,4.88389039 14.8542019,3.4203603 15.89,2.59" id="Shape" fill="#C7001B"></path>
                <path d="M18,2.5 C19.2684558,3.43569864 19.5531823,5.21523927 18.64,6.5 L18.49,6.68 C19.2835633,6.223344 19.7288543,5.33789955 19.622256,4.42855133 C19.5156578,3.5192031 18.8776608,2.76074696 18,2.5" id="Shape" fill="#C7001B"></path>
                <path d="M15.56,2.5 C14.2915442,3.43569864 14.0068177,5.21523927 14.92,6.5 C14.9657499,6.56341785 15.0158718,6.62356409 15.07,6.68 C14.2493113,6.23326511 13.782356,5.33271611 13.8901286,4.40455284 C13.9979011,3.47638957 14.6587826,2.70679793 15.56,2.46" id="Shape" fill="#C7001B"></path>
                <path d="M0.07,1.23 L0.23,1.23 L0.23,0.92 L0.69,0.92 L0.69,1.23 L1.45,1.23 L1.45,0.76 L1,0.76 L1,0.92 L1.3,0.92 L1.3,1.08 L0.84,1.08 L0.84,0.76 L0.07,0.76 L0.07,1.23 Z M0.38,1.23 L0.53,1.23 L0.53,1.07 L0.38,1.07 L0.38,1.23 Z M0.07,0.61 L2.07,0.61 L2.07,0.45 L0.07,0.45 L0.07,0.61 Z M2.07,1.23 L1.6,1.23 L1.6,0.76 L2.21,0.76 L2.21,0.45 L2.36,0.45 L2.36,1.08 L2.51,1.08 L2.51,0.45 L2.66,0.45 L2.66,1.08 L2.81,1.08 L2.81,0.45 L3,0.45 L3,1.23 L2.21,1.23 L2.21,0.92 L1.75,0.92 L1.75,1.08 L2.05,1.08 L2.07,1.23 Z" id="Shape" fill="#FFFFFF"></path>
                <path d="M3.13,1.23 L3.28,1.23 L3.28,0.92 L3.74,0.92 L3.74,1.23 L4.5,1.23 L4.5,0.76 L4,0.76 L4,0.92 L4.3,0.92 L4.3,1.08 L3.89,1.08 L3.89,0.76 L3.13,0.76 L3.13,1.23 Z M3.43,1.23 L3.58,1.23 L3.58,1.07 L3.43,1.07 L3.43,1.23 Z M3.13,0.61 L5.13,0.61 L5.13,0.45 L3.13,0.45 L3.13,0.61 Z M5.13,1.23 L4.65,1.23 L4.65,0.76 L5.26,0.76 L5.26,0.45 L5.41,0.45 L5.41,1.08 L5.56,1.08 L5.56,0.45 L5.71,0.45 L5.71,1.08 L5.86,1.08 L5.86,0.45 L6,0.45 L6,1.23 L5.26,1.23 L5.26,0.92 L4.8,0.92 L4.8,1.08 L5.1,1.08 L5.13,1.23 Z" id="Shape" fill="#FFFFFF"></path>
                <path d="M6.18,1.23 L6.33,1.23 L6.33,0.92 L6.79,0.92 L6.79,1.23 L7.55,1.23 L7.55,0.76 L7.09,0.76 L7.09,0.92 L7.39,0.92 L7.39,1.08 L6.94,1.08 L6.94,0.76 L6.18,0.76 L6.18,1.23 Z M6.48,1.23 L6.63,1.23 L6.63,1.07 L6.48,1.07 L6.48,1.23 Z M6.18,0.61 L8.18,0.61 L8.18,0.45 L6.18,0.45 L6.18,0.61 Z M8.18,1.23 L7.7,1.23 L7.7,0.76 L8.31,0.76 L8.31,0.45 L8.46,0.45 L8.46,1.08 L8.61,1.08 L8.61,0.45 L8.76,0.45 L8.76,1.08 L8.91,1.08 L8.91,0.45 L9.06,0.45 L9.06,1.23 L8.31,1.23 L8.31,0.92 L7.86,0.92 L7.86,1.08 L8.17,1.08 L8.18,1.23 Z" id="Shape" fill="#FFFFFF"></path>
                <path d="M9.23,1.23 L9.38,1.23 L9.38,0.92 L9.84,0.92 L9.84,1.23 L10.6,1.23 L10.6,0.76 L10.14,0.76 L10.14,0.92 L10.44,0.92 L10.44,1.08 L10,1.08 L10,0.76 L9.23,0.76 L9.23,1.23 Z M9.53,1.23 L9.68,1.23 L9.68,1.07 L9.53,1.07 L9.53,1.23 Z M9.23,0.61 L11.23,0.61 L11.23,0.45 L9.23,0.45 L9.23,0.61 Z M11.23,1.23 L10.77,1.23 L10.77,0.76 L11.38,0.76 L11.38,0.45 L11.53,0.45 L11.53,1.08 L11.68,1.08 L11.68,0.45 L11.83,0.45 L11.83,1.08 L12,1.08 L12,0.45 L12.15,0.45 L12.15,1.23 L11.39,1.23 L11.39,0.92 L10.93,0.92 L10.93,1.08 L11.23,1.08 L11.23,1.23 Z" id="Shape" fill="#FFFFFF"></path>
                <path d="M12.28,1.23 L12.43,1.23 L12.43,0.92 L12.89,0.92 L12.89,1.23 L13.65,1.23 L13.65,0.76 L13.19,0.76 L13.19,0.92 L13.5,0.92 L13.5,1.08 L13,1.08 L13,0.76 L12.24,0.76 L12.28,1.23 Z M12.59,1.23 L12.74,1.23 L12.74,1.07 L12.59,1.07 L12.59,1.23 Z M12.28,0.61 L14.28,0.61 L14.28,0.45 L12.28,0.45 L12.28,0.61 Z M14.28,1.23 L13.8,1.23 L13.8,0.76 L14.41,0.76 L14.41,0.45 L14.56,0.45 L14.56,1.08 L14.71,1.08 L14.71,0.45 L14.86,0.45 L14.86,1.08 L15,1.08 L15,0.45 L15.15,0.45 L15.15,1.23 L14.39,1.23 L14.39,0.92 L14,0.92 L14,1.08 L14.31,1.08 L14.28,1.23 Z" id="Shape" fill="#FFFFFF"></path>
                <path d="M15.33,1.23 L15.48,1.23 L15.48,0.92 L15.94,0.92 L15.94,1.23 L16.7,1.23 L16.7,0.76 L16.24,0.76 L16.24,0.92 L16.54,0.92 L16.54,1.08 L16.08,1.08 L16.08,0.76 L15.32,0.76 L15.33,1.23 Z M15.64,1.23 L15.79,1.23 L15.79,1.07 L15.64,1.07 L15.64,1.23 Z M15.33,0.61 L17.33,0.61 L17.33,0.45 L15.33,0.45 L15.33,0.61 Z M17.33,1.23 L16.87,1.23 L16.87,0.76 L17.48,0.76 L17.48,0.45 L17.63,0.45 L17.63,1.08 L17.78,1.08 L17.78,0.45 L17.93,0.45 L17.93,1.08 L18.08,1.08 L18.08,0.45 L18.23,0.45 L18.23,1.23 L17.47,1.23 L17.47,0.92 L17,0.92 L17,1.08 L17.31,1.08 L17.33,1.23 Z" id="Shape" fill="#FFFFFF"></path>
                <path d="M18.38,1.23 L18.53,1.23 L18.53,0.92 L19,0.92 L19,1.23 L19.76,1.23 L19.76,0.76 L19.3,0.76 L19.3,0.92 L19.61,0.92 L19.61,1.08 L19.15,1.08 L19.15,0.76 L18.39,0.76 L18.38,1.23 Z M18.68,1.23 L18.83,1.23 L18.83,1.07 L18.68,1.07 L18.68,1.23 Z M18.38,0.61 L20.38,0.61 L20.38,0.45 L18.38,0.45 L18.38,0.61 Z M20.38,1.23 L19.92,1.23 L19.92,0.76 L20.53,0.76 L20.53,0.45 L20.68,0.45 L20.68,1.08 L20.83,1.08 L20.83,0.45 L21,0.45 L21,1.08 L21.15,1.08 L21.15,0.45 L21.3,0.45 L21.3,1.23 L20.54,1.23 L20.54,0.92 L20.08,0.92 L20.08,1.08 L20.38,1.08 L20.38,1.23 Z" id="Shape" fill="#FFFFFF"></path>
                <path d="M21.43,1.23 L21.58,1.23 L21.58,0.92 L22,0.92 L22,1.23 L22.76,1.23 L22.76,0.76 L22.3,0.76 L22.3,0.92 L22.6,0.92 L22.6,1.08 L22.2,1.08 L22.2,0.76 L21.44,0.76 L21.43,1.23 Z M21.73,1.23 L21.88,1.23 L21.88,1.07 L21.73,1.07 L21.73,1.23 Z M21.43,0.61 L23.43,0.61 L23.43,0.45 L21.43,0.45 L21.43,0.61 Z M23.43,1.23 L23,1.23 L23,0.76 L23.61,0.76 L23.61,0.45 L23.76,0.45 L23.76,1.08 L23.91,1.08 L23.91,0.45 L24,0.45 L24,1.08 L24.15,1.08 L24.15,0.45 L24.3,0.45 L24.3,1.23 L23.54,1.23 L23.54,0.92 L23.08,0.92 L23.08,1.08 L23.39,1.08 L23.43,1.23 Z" id="Shape" fill="#FFFFFF"></path>
                <path d="M24.48,1.23 L24.63,1.23 L24.63,0.92 L25.09,0.92 L25.09,1.23 L25.85,1.23 L25.85,0.76 L25.4,0.76 L25.4,0.92 L25.7,0.92 L25.7,1.08 L25.24,1.08 L25.24,0.76 L24.48,0.76 L24.48,1.23 Z M24.78,1.23 L24.93,1.23 L24.93,1.07 L24.78,1.07 L24.78,1.23 Z M24.48,0.61 L26.48,0.61 L26.48,0.45 L24.48,0.45 L24.48,0.61 Z M26.48,1.23 L26,1.23 L26,0.76 L26.61,0.76 L26.61,0.45 L26.76,0.45 L26.76,1.08 L26.92,1.08 L26.92,0.45 L27.07,0.45 L27.07,1.08 L27.22,1.08 L27.22,0.45 L27.38,0.45 L27.38,1.23 L26.62,1.23 L26.62,0.92 L26.16,0.92 L26.16,1.08 L26.46,1.08 L26.48,1.23 Z" id="Shape" fill="#FFFFFF"></path>
                <path d="M27.54,1.23 L27.69,1.23 L27.69,0.92 L28.15,0.92 L28.15,1.23 L28.91,1.23 L28.91,0.76 L28.45,0.76 L28.45,0.92 L28.75,0.92 L28.75,1.08 L28.3,1.08 L28.3,0.76 L27.54,0.76 L27.54,1.23 Z M27.84,1.23 L28,1.23 L28,1.07 L27.85,1.07 L27.84,1.23 Z M27.54,0.61 L29.54,0.61 L29.54,0.45 L27.54,0.45 L27.54,0.61 Z M29.54,1.23 L29.08,1.23 L29.08,0.76 L29.69,0.76 L29.69,0.45 L29.84,0.45 L29.84,1.08 L30,1.08 L30,0.45 L30.15,0.45 L30.15,1.08 L30.3,1.08 L30.3,0.45 L30.45,0.45 L30.45,1.23 L29.69,1.23 L29.69,0.92 L29.23,0.92 L29.23,1.08 L29.53,1.08 L29.54,1.23 Z" id="Shape" fill="#FFFFFF"></path>
                <path d="M30.59,1.23 L30.75,1.23 L30.75,0.92 L31.21,0.92 L31.21,1.23 L32,1.23 L32,0.76 L31.5,0.76 L31.5,0.92 L31.8,0.92 L31.8,1.08 L31.34,1.08 L31.34,0.76 L30.58,0.76 L30.59,1.23 Z M30.9,1.23 L31,1.23 L31,1.07 L30.85,1.07 L30.9,1.23 Z M30.59,0.61 L32.59,0.61 L32.59,0.45 L30.59,0.45 L30.59,0.61 Z M32.59,1.23 L32.13,1.23 L32.13,0.76 L32.74,0.76 L32.74,0.45 L32.9,0.45 L32.9,1.08 L33,1.08 L33,0.45 L33.16,0.45 L33.16,1.08 L33.31,1.08 L33.31,0.45 L33.46,0.45 L33.46,1.23 L32.69,1.23 L32.69,0.92 L32.23,0.92 L32.23,1.08 L32.53,1.08 L32.59,1.23 Z" id="Shape" fill="#FFFFFF"></path>
                <path d="M0.07,1.7 L1.45,1.7 L1.45,1.39 L0.07,1.39 L0.07,1.7 Z M1.6,1.7 L3,1.7 L3,1.39 L1.6,1.39 L1.6,1.7 Z" id="Shape" fill="#FFFFFF"></path>
                <path d="M3.13,1.7 L4.5,1.7 L4.5,1.39 L3.13,1.39 L3.13,1.7 Z M4.65,1.7 L6,1.7 L6,1.39 L4.65,1.39 L4.65,1.7 Z" id="Shape" fill="#FFFFFF"></path>
                <path d="M6.18,1.7 L7.55,1.7 L7.55,1.39 L6.18,1.39 L6.18,1.7 Z M7.71,1.7 L9.08,1.7 L9.08,1.39 L7.7,1.39 L7.71,1.7 Z" id="Shape" fill="#FFFFFF"></path>
                <path d="M9.23,1.7 L10.6,1.7 L10.6,1.39 L9.23,1.39 L9.23,1.7 Z M10.75,1.7 L12.13,1.7 L12.13,1.39 L10.75,1.39 L10.75,1.7 Z" id="Shape" fill="#FFFFFF"></path>
                <path d="M12.28,1.7 L13.65,1.7 L13.65,1.39 L12.28,1.39 L12.28,1.7 Z M13.81,1.7 L15.18,1.7 L15.18,1.39 L13.8,1.39 L13.81,1.7 Z" id="Shape" fill="#FFFFFF"></path>
                <path d="M15.33,1.7 L16.7,1.7 L16.7,1.39 L15.33,1.39 L15.33,1.7 Z M16.86,1.7 L18.23,1.7 L18.23,1.39 L16.86,1.39 L16.86,1.7 Z" id="Shape" fill="#FFFFFF"></path>
                <path d="M18.38,1.7 L19.75,1.7 L19.75,1.39 L18.38,1.39 L18.38,1.7 Z M19.91,1.7 L21.28,1.7 L21.28,1.39 L19.91,1.39 L19.91,1.7 Z" id="Shape" fill="#FFFFFF"></path>
                <path d="M21.43,1.7 L22.8,1.7 L22.8,1.39 L21.43,1.39 L21.43,1.7 Z M23,1.7 L24.37,1.7 L24.37,1.39 L23,1.39 L23,1.7 Z" id="Shape" fill="#FFFFFF"></path>
                <path d="M24.48,1.7 L25.85,1.7 L25.85,1.39 L24.48,1.39 L24.48,1.7 Z M26,1.7 L27.38,1.7 L27.38,1.39 L26,1.39 L26,1.7 Z" id="Shape" fill="#FFFFFF"></path>
                <path d="M27.54,1.7 L28.91,1.7 L28.91,1.39 L27.54,1.39 L27.54,1.7 Z M29.06,1.7 L30.43,1.7 L30.43,1.39 L29.06,1.39 L29.06,1.7 Z" id="Shape" fill="#FFFFFF"></path>
                <path d="M30.59,1.7 L32,1.7 L32,1.39 L30.59,1.39 L30.59,1.7 Z M32.12,1.7 L33.5,1.7 L33.5,1.39 L32.11,1.39 L32.12,1.7 Z" id="Shape" fill="#FFFFFF"></path>
                <path d="M0.07,9.13 L0.23,9.13 L0.23,8.82 L0.69,8.82 L0.69,9.13 L1.45,9.13 L1.45,8.66 L1,8.66 L1,8.82 L1.3,8.82 L1.3,9 L0.84,9 L0.84,8.69 L0.07,8.69 L0.07,9.13 Z M0.38,9.13 L0.53,9.13 L0.53,9 L0.38,9 L0.38,9.13 Z M0.07,8.51 L2.07,8.51 L2.07,8.35 L0.07,8.35 L0.07,8.51 Z M2.07,9.13 L1.6,9.13 L1.6,8.66 L2.21,8.66 L2.21,8.35 L2.36,8.35 L2.36,9 L2.51,9 L2.51,8.38 L2.66,8.38 L2.66,9 L2.81,9 L2.81,8.38 L3,8.38 L3,9.16 L2.21,9.16 L2.21,8.85 L1.75,8.85 L1.75,9 L2.05,9 L2.07,9.13 Z" id="Shape" fill="#FFFFFF"></path>
                <path d="M3.13,9.13 L3.28,9.13 L3.28,8.82 L3.74,8.82 L3.74,9.13 L4.5,9.13 L4.5,8.66 L4,8.66 L4,8.82 L4.3,8.82 L4.3,9 L3.89,9 L3.89,8.69 L3.13,8.69 L3.13,9.13 Z M3.43,9.13 L3.58,9.13 L3.58,9 L3.43,9 L3.43,9.13 Z M3.13,8.51 L5.13,8.51 L5.13,8.35 L3.13,8.35 L3.13,8.51 Z M5.13,9.13 L4.65,9.13 L4.65,8.66 L5.26,8.66 L5.26,8.35 L5.41,8.35 L5.41,9 L5.56,9 L5.56,8.38 L5.71,8.38 L5.71,9 L5.86,9 L5.86,8.38 L6,8.38 L6,9.16 L5.26,9.16 L5.26,8.85 L4.8,8.85 L4.8,9 L5.1,9 L5.13,9.13 Z" id="Shape" fill="#FFFFFF"></path>
                <path d="M6.18,9.13 L6.33,9.13 L6.33,8.82 L6.79,8.82 L6.79,9.13 L7.55,9.13 L7.55,8.66 L7.09,8.66 L7.09,8.82 L7.39,8.82 L7.39,9 L6.94,9 L6.94,8.69 L6.18,8.69 L6.18,9.13 Z M6.48,9.13 L6.63,9.13 L6.63,9 L6.48,9 L6.48,9.13 Z M6.18,8.51 L8.18,8.51 L8.18,8.35 L6.18,8.35 L6.18,8.51 Z M8.18,9.13 L7.7,9.13 L7.7,8.66 L8.31,8.66 L8.31,8.35 L8.46,8.35 L8.46,9 L8.61,9 L8.61,8.38 L8.76,8.38 L8.76,9 L8.91,9 L8.91,8.38 L9.06,8.38 L9.06,9.16 L8.31,9.16 L8.31,8.85 L7.86,8.85 L7.86,9 L8.17,9 L8.18,9.13 Z" id="Shape" fill="#FFFFFF"></path>
                <path d="M9.23,9.13 L9.38,9.13 L9.38,8.82 L9.84,8.82 L9.84,9.13 L10.6,9.13 L10.6,8.66 L10.14,8.66 L10.14,8.82 L10.44,8.82 L10.44,9 L10,9 L10,8.69 L9.23,8.69 L9.23,9.13 Z M9.53,9.13 L9.68,9.13 L9.68,9 L9.53,9 L9.53,9.13 Z M9.23,8.51 L11.23,8.51 L11.23,8.35 L9.23,8.35 L9.23,8.51 Z M11.23,9.13 L10.77,9.13 L10.77,8.66 L11.38,8.66 L11.38,8.35 L11.53,8.35 L11.53,9 L11.68,9 L11.68,8.38 L11.83,8.38 L11.83,9 L12,9 L12,8.38 L12.15,8.38 L12.15,9.16 L11.39,9.16 L11.39,8.85 L10.93,8.85 L10.93,9 L11.23,9 L11.23,9.13 Z" id="Shape" fill="#FFFFFF"></path>
                <path d="M12.28,9.13 L12.43,9.13 L12.43,8.82 L12.89,8.82 L12.89,9.13 L13.65,9.13 L13.65,8.66 L13.19,8.66 L13.19,8.82 L13.5,8.82 L13.5,9 L13,9 L13,8.69 L12.24,8.69 L12.28,9.13 Z M12.59,9.13 L12.74,9.13 L12.74,9 L12.59,9 L12.59,9.13 Z M12.28,8.51 L14.28,8.51 L14.28,8.35 L12.28,8.35 L12.28,8.51 Z M14.28,9.13 L13.8,9.13 L13.8,8.66 L14.41,8.66 L14.41,8.35 L14.56,8.35 L14.56,9 L14.71,9 L14.71,8.38 L14.86,8.38 L14.86,9 L15,9 L15,8.38 L15.15,8.38 L15.15,9.16 L14.39,9.16 L14.39,8.85 L14,8.85 L14,9 L14.31,9 L14.28,9.13 Z" id="Shape" fill="#FFFFFF"></path>
                <path d="M15.33,9.13 L15.48,9.13 L15.48,8.82 L15.94,8.82 L15.94,9.13 L16.7,9.13 L16.7,8.66 L16.24,8.66 L16.24,8.82 L16.54,8.82 L16.54,9 L16.08,9 L16.08,8.69 L15.32,8.69 L15.33,9.13 Z M15.64,9.13 L15.79,9.13 L15.79,9 L15.64,9 L15.64,9.13 Z M15.33,8.51 L17.33,8.51 L17.33,8.35 L15.33,8.35 L15.33,8.51 Z M17.33,9.13 L16.87,9.13 L16.87,8.66 L17.48,8.66 L17.48,8.35 L17.63,8.35 L17.63,9 L17.78,9 L17.78,8.38 L17.93,8.38 L17.93,9 L18.08,9 L18.08,8.38 L18.23,8.38 L18.23,9.16 L17.47,9.16 L17.47,8.85 L17,8.85 L17,9 L17.31,9 L17.33,9.13 Z" id="Shape" fill="#FFFFFF"></path>
                <path d="M18.38,9.13 L18.53,9.13 L18.53,8.82 L19,8.82 L19,9.13 L19.76,9.13 L19.76,8.66 L19.3,8.66 L19.3,8.82 L19.61,8.82 L19.61,9 L19.15,9 L19.15,8.69 L18.39,8.69 L18.38,9.13 Z M18.68,9.13 L18.83,9.13 L18.83,9 L18.68,9 L18.68,9.13 Z M18.38,8.51 L20.38,8.51 L20.38,8.35 L18.38,8.35 L18.38,8.51 Z M20.38,9.13 L19.92,9.13 L19.92,8.66 L20.53,8.66 L20.53,8.35 L20.68,8.35 L20.68,9 L20.83,9 L20.83,8.38 L21,8.38 L21,9 L21.15,9 L21.15,8.38 L21.3,8.38 L21.3,9.16 L20.54,9.16 L20.54,8.85 L20.08,8.85 L20.08,9 L20.38,9 L20.38,9.13 Z" id="Shape" fill="#FFFFFF"></path>
                <path d="M21.43,9.13 L21.58,9.13 L21.58,8.82 L22,8.82 L22,9.13 L22.76,9.13 L22.76,8.66 L22.3,8.66 L22.3,8.82 L22.6,8.82 L22.6,9 L22.2,9 L22.2,8.69 L21.44,8.69 L21.43,9.13 Z M21.73,9.13 L21.88,9.13 L21.88,9 L21.73,9 L21.73,9.13 Z M21.43,8.51 L23.43,8.51 L23.43,8.35 L21.43,8.35 L21.43,8.51 Z M23.43,9.13 L23,9.13 L23,8.66 L23.61,8.66 L23.61,8.35 L23.76,8.35 L23.76,9 L23.91,9 L23.91,8.38 L24,8.38 L24,9 L24.15,9 L24.15,8.38 L24.3,8.38 L24.3,9.16 L23.54,9.16 L23.54,8.85 L23.08,8.85 L23.08,9 L23.39,9 L23.43,9.13 Z" id="Shape" fill="#FFFFFF"></path>
                <path d="M24.48,9.13 L24.63,9.13 L24.63,8.82 L25.09,8.82 L25.09,9.13 L25.85,9.13 L25.85,8.66 L25.4,8.66 L25.4,8.82 L25.7,8.82 L25.7,9 L25.24,9 L25.24,8.69 L24.48,8.69 L24.48,9.13 Z M24.78,9.13 L24.93,9.13 L24.93,9 L24.78,9 L24.78,9.13 Z M24.48,8.51 L26.48,8.51 L26.48,8.35 L24.48,8.35 L24.48,8.51 Z M26.48,9.13 L26,9.13 L26,8.66 L26.61,8.66 L26.61,8.35 L26.76,8.35 L26.76,9 L26.92,9 L26.92,8.38 L27.07,8.38 L27.07,9 L27.22,9 L27.22,8.38 L27.38,8.38 L27.38,9.16 L26.62,9.16 L26.62,8.85 L26.16,8.85 L26.16,9 L26.46,9 L26.48,9.13 Z" id="Shape" fill="#FFFFFF"></path>
                <path d="M27.54,9.13 L27.69,9.13 L27.69,8.82 L28.15,8.82 L28.15,9.13 L28.91,9.13 L28.91,8.66 L28.45,8.66 L28.45,8.82 L28.75,8.82 L28.75,9 L28.3,9 L28.3,8.69 L27.54,8.69 L27.54,9.13 Z M27.84,9.13 L28,9.13 L28,9 L27.85,9 L27.84,9.13 Z M27.54,8.51 L29.54,8.51 L29.54,8.35 L27.54,8.35 L27.54,8.51 Z M29.54,9.13 L29.08,9.13 L29.08,8.66 L29.69,8.66 L29.69,8.35 L29.84,8.35 L29.84,9 L30,9 L30,8.38 L30.15,8.38 L30.15,9 L30.3,9 L30.3,8.38 L30.45,8.38 L30.45,9.16 L29.69,9.16 L29.69,8.85 L29.23,8.85 L29.23,9 L29.53,9 L29.54,9.13 Z" id="Shape" fill="#FFFFFF"></path>
                <path d="M30.59,9.13 L30.75,9.13 L30.75,8.82 L31.21,8.82 L31.21,9.13 L32,9.13 L32,8.66 L31.5,8.66 L31.5,8.82 L31.8,8.82 L31.8,9 L31.34,9 L31.34,8.69 L30.58,8.69 L30.59,9.13 Z M30.9,9.13 L31,9.13 L31,9 L30.85,9 L30.9,9.13 Z M30.59,8.51 L32.59,8.51 L32.59,8.35 L30.59,8.35 L30.59,8.51 Z M32.59,9.13 L32.13,9.13 L32.13,8.66 L32.74,8.66 L32.74,8.35 L32.9,8.35 L32.9,9 L33,9 L33,8.38 L33.16,8.38 L33.16,9 L33.31,9 L33.31,8.38 L33.46,8.38 L33.46,9.16 L32.69,9.16 L32.69,8.85 L32.23,8.85 L32.23,9 L32.53,9 L32.59,9.13 Z" id="Shape" fill="#FFFFFF"></path>
                <path d="M0.07,8.2 L1.45,8.2 L1.45,7.89 L0.07,7.89 L0.07,8.2 Z M1.6,8.2 L3,8.2 L3,7.89 L1.6,7.89 L1.6,8.2 Z" id="Shape" fill="#FFFFFF"></path>
                <path d="M3.13,8.2 L4.5,8.2 L4.5,7.89 L3.13,7.89 L3.13,8.2 Z M4.65,8.2 L6,8.2 L6,7.89 L4.65,7.89 L4.65,8.2 Z" id="Shape" fill="#FFFFFF"></path>
                <path d="M6.18,8.2 L7.55,8.2 L7.55,7.89 L6.18,7.89 L6.18,8.2 Z M7.71,8.2 L9.08,8.2 L9.08,7.89 L7.7,7.89 L7.71,8.2 Z" id="Shape" fill="#FFFFFF"></path>
                <path d="M9.23,8.2 L10.6,8.2 L10.6,7.89 L9.23,7.89 L9.23,8.2 Z M10.75,8.2 L12.13,8.2 L12.13,7.89 L10.75,7.89 L10.75,8.2 Z" id="Shape" fill="#FFFFFF"></path>
                <path d="M12.28,8.2 L13.65,8.2 L13.65,7.89 L12.28,7.89 L12.28,8.2 Z M13.81,8.2 L15.18,8.2 L15.18,7.89 L13.8,7.89 L13.81,8.2 Z" id="Shape" fill="#FFFFFF"></path>
                <path d="M15.33,8.2 L16.7,8.2 L16.7,7.89 L15.33,7.89 L15.33,8.2 Z M16.86,8.2 L18.23,8.2 L18.23,7.89 L16.86,7.89 L16.86,8.2 Z" id="Shape" fill="#FFFFFF"></path>
                <path d="M18.38,8.2 L19.75,8.2 L19.75,7.89 L18.38,7.89 L18.38,8.2 Z M19.91,8.2 L21.28,8.2 L21.28,7.89 L19.91,7.89 L19.91,8.2 Z" id="Shape" fill="#FFFFFF"></path>
                <path d="M21.43,8.2 L22.8,8.2 L22.8,7.89 L21.43,7.89 L21.43,8.2 Z M22.96,8.2 L24.33,8.2 L24.33,7.89 L23,7.89 L22.96,8.2 Z" id="Shape" fill="#FFFFFF"></path>
                <path d="M24.48,8.2 L25.85,8.2 L25.85,7.89 L24.48,7.89 L24.48,8.2 Z M26.01,8.2 L27.39,8.2 L27.39,7.89 L26,7.89 L26.01,8.2 Z" id="Shape" fill="#FFFFFF"></path>
                <path d="M27.54,8.2 L28.91,8.2 L28.91,7.89 L27.54,7.89 L27.54,8.2 Z M29.06,8.2 L30.43,8.2 L30.43,7.89 L29.06,7.89 L29.06,8.2 Z" id="Shape" fill="#FFFFFF"></path>
                <path d="M30.59,8.2 L32,8.2 L32,7.89 L30.59,7.89 L30.59,8.2 Z M32.12,8.2 L33.5,8.2 L33.5,7.89 L32.11,7.89 L32.12,8.2 Z" id="Shape" fill="#FFFFFF"></path>
            </g>
        </g>
    </g>
</svg>