<?xml version="1.0" encoding="utf-8"?>
<!-- Generator: Adobe Illustrator 21.0.0, SVG Export Plug-In . SVG Version: 6.00 Build 0)  -->
<svg version="1.1" id="Layer_1" xmlns="http://www.w3.org/2000/svg" xmlns:xlink="http://www.w3.org/1999/xlink" x="0px" y="0px"
	 viewBox="0 0 200 200" style="enable-background:new 0 0 200 200;" xml:space="preserve">
<style type="text/css">
	.st0{fill:#33348E;}
	.st1{fill:#FFF22D;}
</style>
<title>ITUB</title>
<path class="st0" d="M36.6,0l127.1,0.1C183.8,0.2,200,16.5,200,36.5v127.1c-0.1,20.1-16.4,36.3-36.5,36.4l-127.2-0.1
	C16.3,199.8,0.1,183.5,0,163.5L0.1,36.4C0.2,16.3,16.5,0,36.6,0z"/>
<path class="st1" d="M171.8,91.2h-14.5l-6,11.3h10.2L171.8,91.2L171.8,91.2z M181.4,109.7h-14.1v30.5c0,9.3-6.3,12-10.9,12
	c-4.4,0-9.3-1.6-9.2-9.8v-32.7h-14.1l-0.1,34.7c0,13.4,7.7,19.4,18.3,19.4c7.4,0.1,13.1-3.1,16.4-8.8h0.1v7.4h13.6L181.4,109.7
	L181.4,109.7z M122,123.7c0-13.1-13.7-15.4-21.4-15.4c-11,0-22.4,2.3-24.1,18.4h13.7c0.4-3.1,1.7-7.3,8.7-7.3c3.7,0,9.3,0.3,9.3,6.1
	c0,3-2.8,3.9-5,4.2l-12.7,1.9c-9,1.3-15.8,6.6-15.8,16.9c0,10.9,8.4,15.4,16.4,15.4c9.7,0,14.3-4.4,17.4-7.6
	c0.2,2.1,0.6,4.2,1.3,6.2l12.2-0.1c0-5.8-0.1-10.1-0.1-10.2L122,123.7L122,123.7z M61.8,91.2H47.7v18.4h-7.3v9.9h7.3v32
	c0,6.8,2.2,11.4,14.4,11.4H64c2.2,0,4.5-0.1,6.6-0.2v-10.5c-1,0.1-2,0.2-2.9,0.2c-5.8,0-5.9-1.2-5.9-4.3l0.1-28.6h8.8v-9.9h-8.9
	V91.2z M33.9,91.1H18.6l-0.1,71.2h15.3L33.9,91.1z"/>
<path class="st0" d="M109.6,143.5v-6.8c-1.4,1.1-3.8,2-9.6,2.8c-5.3,0.9-9.6,2.2-9.6,8c0,4.8,3.9,6.4,6.6,6.4
	C103.2,153.9,109.6,149.9,109.6,143.5z"/>
</svg>
