<?xml version="1.0" encoding="utf-8"?>
<!-- Generator: Adobe Illustrator 21.0.0, SVG Export Plug-In . SVG Version: 6.00 Build 0)  -->
<svg version="1.1" id="Layer_1" xmlns="http://www.w3.org/2000/svg" xmlns:xlink="http://www.w3.org/1999/xlink" x="0px" y="0px"
	 viewBox="0 0 200 200" style="enable-background:new 0 0 200 200;" xml:space="preserve">
<style type="text/css">
	.st0{fill:#D51900;}
</style>
<title>JNJ</title>
<g id="layer1">
	<g id="_--Symbols">
		<g id="Footer-1440">
			<g id="Logo">
				<path id="Fill-1" class="st0" d="M59.3,90.1c-1.8-16-3.8-31.5-3.8-46.8c0-17,3.4-31.4,4.2-35.5c0.4-1.8,0.5-3.5,0.7-5.4
					c0-1.6-0.8-2.4-3-2.4C41.1,0,5.6,25.9,5.6,64.3c0,27.4,10,40.4,27.4,57.4c-10.5,17-19,37.1-19,55.1c0,2.1,3,22.8,12.5,22.8
					c20,0,34.9-41.5,34.9-72.3c0-9.2-0.4-18.3-1.2-27.5C71,91.1,76.9,88,76.1,86.8C75.4,85.6,69.1,85.3,59.3,90.1z M45.9,116.3
					c1.6,10.5,3,21,3,29.1c0,19.1-6.3,41.5-17.4,41.3c-4.2,0-7.8-4.2-8-11.6C23.1,151.3,34.6,130.9,45.9,116.3z M53.1,7.5
					c0,1.2-2.8,6.7-6.3,16.7c-5,13.8-7.4,28.3-7.4,42.9c0,10.5,2.6,24.5,4.9,38.7l-6.3,8.6c-10.2-12.4-16.6-26.3-16.6-50.3
					c0-34,20.6-57.4,31.1-57.4C52.9,6.9,53.1,7,53.1,7.5z"/>
				<path id="Fill-4" class="st0" d="M171,116.7c1.5,10.5,3,21,3,29.1c0,19.1-6.3,41.5-17.4,41.3c-4.2,0-7.8-4.2-8-11.6
					C148.2,151.6,159.5,131.2,171,116.7z M178.1,7.9c0,1.2-2.8,6.7-6.3,16.7c-5,13.8-7.4,28.3-7.4,42.9c0,10.5,2.7,24.5,4.9,38.7
					l-6.5,8.6c-10.1-12.4-16.6-26.3-16.6-50.3c0-34,20.6-57.4,31.1-57.4C177.8,7.1,178,7.4,178.1,7.9L178.1,7.9z M144.8,107.7
					c4,5.1,8.4,10,13.2,14.4c-10.7,17-19,37.1-19,55.1c0,12.9,3,22.8,12.5,22.8c20,0,34.9-41.5,34.9-72.3c0-9.2-0.4-18.3-1.2-27.5
					c7.4-7.8,19-29.8-1.1-9.7c-1.8-15.9-3.8-31.5-3.8-46.8c0-17,3.4-31.4,4.2-35.5c0.3-1.8,0.5-3.5,0.7-5.4c0-1.6-0.8-2.4-3-2.4
					c-16.2,0-51.6,25.7-51.6,64.3c0,15.8,3.4,27,9.3,36.7c-1.9-0.3-3.8-0.4-5.7-0.4c-6.3,0-12.4,1.6-16,2.4v-4
					c0-8.5-2-20.4-5.7-24.4c-0.4-0.4-0.9-0.5-1.6-0.5c-2,0.1-4,0.8-5.8,2c-2.4,1.2-4.9,2.4-4.9,3.2c0,0.7,0.3,1.2,0.5,1.8
					c3.6,4.4,5.9,9.7,6.6,15.4c-6.7-6.7-14.8-11.2-24.9-11.2c-12,0-16.4,3.7-16.4,9.1c0,10.4,14.8,18.5,32.2,18.5
					c3.5-0.1,7-0.5,10.4-1.5c0,3.2,0.4,6.1,0.4,8.4c0,3.4,0.5,6.1,2.8,6.1c3.4,0,5.4-6.9,5.8-16.6c6.2-1.6,12.5-3,17.9-3
					C138.8,106.7,141.7,107,144.8,107.7L144.8,107.7z M105.5,105.6c-3,0.3-5.9,0.4-8.9,0.4c-7.8,0-13.6-3-13.6-7.4
					c0-2.8,1.3-4.4,5.4-4.4C94.7,94.3,99.9,98.6,105.5,105.6z"/>
			</g>
		</g>
	</g>
</g>
</svg>
