<?xml version="1.0" encoding="utf-8"?>
<!-- Generator: Adobe Illustrator 21.0.0, SVG Export Plug-In . SVG Version: 6.00 Build 0)  -->
<svg version="1.1" id="Layer_1" xmlns="http://www.w3.org/2000/svg" xmlns:xlink="http://www.w3.org/1999/xlink" x="0px" y="0px"
	 viewBox="0 0 200 200" style="enable-background:new 0 0 200 200;" xml:space="preserve">
<style type="text/css">
	.st0{fill:#0071C1;}
</style>
<title>JPM</title>
<path class="st0" d="M197.7,56.8H192c-41.4,0-82.9-0.1-124.4,0.1c-5.5,0-7.3-1.4-7.2-6.7c0.4-13.5,0.1-26.9,0.1-40.3
	c0-7.5,2.3-9.9,10.1-9.9c20.1,0,40.1-0.1,60.2,0.1c2.6,0,5.2,0.8,7.2,2.3c19.4,17.2,38.6,34.6,57.9,52
	C196.5,55.2,197.1,56,197.7,56.8z"/>
<path class="st0" d="M141.8,194.2c-0.1-2.4-0.3-4-0.3-5.6c0-40.9,0.1-81-0.1-121.9c0-5.5,1.6-7.1,6.8-6.9
	c13.3,0.3,26.5,0.1,39.8,0.1c7.7,0,9.5,1.8,9.5,9.4c0,20,0.1,40.1-0.1,60.1c0,2.9-1.1,5.7-2.9,8c-16.5,18.2-33.2,36.2-49.9,54.2
	C143.9,192.4,143.1,193,141.8,194.2z"/>
<path class="st0" d="M4.7,144h125.9c7.4,0,7.4,0,7.4,7.2v39.2c0,7.1-2.4,9.5-9.7,9.5c-19.9,0-39.9,0.1-59.9-0.1
	c-2.4,0-4.6-0.8-6.5-2.2c-18.5-16.9-36.8-33.9-55.2-51C6,145.8,5.3,144.9,4.7,144z"/>
<path class="st0" d="M58,5.4c0.1,2.6,0.3,4.4,0.3,6.2c0,40.9-0.1,81.7,0.1,122.5c0,5.8-1.5,7.6-7.1,7.4c-13.5-0.4-26.9-0.1-40.4-0.1
	c-6.7,0-8.7-2.1-8.7-9.3c0-20.4-0.1-40.9,0.1-61.2c0-2.6,0.8-5.1,2.3-7.2c16.8-19,33.8-37.5,50.7-56.1C56.2,6.8,57.1,6.1,58,5.4z"/>
</svg>
