<svg xmlns="http://www.w3.org/2000/svg" xmlns:xlink="http://www.w3.org/1999/xlink" viewBox="0 0 33.56 19.58"><defs><style>.cls-1{fill:none;}.cls-2{clip-path:url(#clip-path);}.cls-3{fill:#4eaec4;}.cls-4{fill:#f5c832;}</style><clipPath id="clip-path"><rect class="cls-1" width="33.56" height="19.58"/></clipPath></defs><title>KAZ</title><g id="Layer_2" data-name="Layer 2"><g id="_4" data-name="4"><g id="KAZAKHSTAN"><g class="cls-2"><rect class="cls-3" width="33.56" height="19.58"/><g class="cls-2"><path class="cls-4" d="M2.2,13.81a.61.61,0,0,1,.63-.59.51.51,0,0,1,.57.51.88.88,0,0,1-.11.43l-.86,1.77a.55.55,0,0,0,0,.23.31.31,0,0,0,.62,0c0-.19-.1-.28-.2-.28s-.18.05-.18.14,0,.09.08.09.08-.15.08-.15a.1.1,0,0,1,.08.14.22.22,0,0,1,.1.06.2.2,0,0,1-.1.06c0,.09,0,.13-.09.14a.13.13,0,0,0,0-.09A.23.23,0,0,1,2.5,16a.32.32,0,0,1,.4-.33.19.19,0,0,1-.1-.16l.1,0a.34.34,0,0,1-.07-.21s.09.07.15,0a.38.38,0,0,1,.33-.52.63.63,0,0,0-.17.41c0,.45.13.53.13.84a.48.48,0,0,1-.2.38h0a.25.25,0,0,1,.18.13,1.24,1.24,0,0,1-.66,0,.48.48,0,0,1-.35-.23.68.68,0,0,1,0-.56L3.11,14a.58.58,0,0,0,.06-.26.32.32,0,0,0-.33-.31.28.28,0,0,0-.29.25.12.12,0,0,0,.12.14c.16,0,.15-.14.12-.23s.17.13.15.21a.26.26,0,0,1,.16.1.21.21,0,0,1-.16.09c0,.14-.06.19-.15.22s0-.21-.12-.21a.32.32,0,0,1-.27-.1c0,.1,0,.52,0,.52,0,.16.21.15.35.11a.32.32,0,0,1-.4.25.19.19,0,0,1,.12.19.49.49,0,0,1-.2.36Z"/><path class="cls-4" d="M2.28,13.81a.61.61,0,0,0-.63-.59.51.51,0,0,0-.57.51.87.87,0,0,0,.1.43L2,15.93a.52.52,0,0,1,0,.23.31.31,0,0,1-.62,0c0-.19.1-.28.2-.28s.18.05.18.14,0,.09-.07.09S1.69,16,1.69,16a.1.1,0,0,0-.07.14.25.25,0,0,0-.11.06.22.22,0,0,0,.11.06c0,.09,0,.13.08.14a.13.13,0,0,1,0-.09A.23.23,0,0,0,2,16a.32.32,0,0,0-.4-.33.18.18,0,0,0,.1-.16l-.1,0a.33.33,0,0,0,.07-.21s-.1.07-.16,0a.38.38,0,0,0-.33-.52.61.61,0,0,1,.17.41c0,.45-.13.53-.13.84a.47.47,0,0,0,.2.38h0a.26.26,0,0,0-.18.13,1.25,1.25,0,0,0,.66,0,.49.49,0,0,0,.35-.23.71.71,0,0,0,0-.56c-.12-.25-.69-1.46-.87-1.84a.64.64,0,0,1-.06-.26.32.32,0,0,1,.33-.31.28.28,0,0,1,.29.25.12.12,0,0,1-.12.14c-.16,0-.15-.14-.12-.23s-.16.13-.14.21a.27.27,0,0,0-.16.1.21.21,0,0,0,.16.09c0,.14.06.19.14.22s0-.21.12-.21a.32.32,0,0,0,.27-.1c0,.1,0,.52,0,.52,0,.16-.21.15-.35.11a.33.33,0,0,0,.41.25A.19.19,0,0,0,2,15a.5.5,0,0,0,.2.36Z"/><path class="cls-4" d="M2.24,18s.18.15.25.07-.31-.75-.31-1,.24-.46.54-.51a2.08,2.08,0,0,1,.53,0,.22.22,0,0,1-.2.11.43.43,0,0,1,.23.39c0,.31-.13.44-.13.79a1,1,0,0,0,.16.45.38.38,0,0,1-.34-.5.13.13,0,0,0-.12,0,.22.22,0,0,1,.05-.19s-.06,0-.12,0a.28.28,0,0,1,.13-.18.31.31,0,0,1-.41-.3A.23.23,0,0,1,2.69,17a.17.17,0,0,1,.11,0,.15.15,0,0,0,0-.12c.07,0,.12.05.09.14a.17.17,0,0,1,.13.05.13.13,0,0,1-.12.06c0,.08,0,.13-.07.16s0-.16-.06-.16-.09,0-.09.09a.16.16,0,0,0,.18.14c.12,0,.22-.09.22-.28s-.14-.27-.33-.27a.26.26,0,0,0-.3.27c0,.23.34.76.34,1a.26.26,0,0,1-.28.24.52.52,0,0,1-.33-.18Z"/><path class="cls-4" d="M2.24,18s-.19.15-.25.07.31-.75.31-1-.24-.46-.54-.51a2.11,2.11,0,0,0-.53,0,.23.23,0,0,0,.21.11.43.43,0,0,0-.23.39c0,.31.13.44.13.79a1,1,0,0,1-.16.45.38.38,0,0,0,.35-.5.14.14,0,0,1,.12,0,.23.23,0,0,0-.06-.19s.06,0,.12,0a.27.27,0,0,0-.13-.18.31.31,0,0,0,.41-.3.22.22,0,0,0-.2-.24.17.17,0,0,0-.1,0,.15.15,0,0,1,0-.12c-.07,0-.12.05-.08.14a.17.17,0,0,0-.12.05.13.13,0,0,0,.13.06c0,.08,0,.13.07.16s0-.16.06-.16a.08.08,0,0,1,.09.09.15.15,0,0,1-.18.14c-.12,0-.22-.09-.22-.28s.14-.27.33-.27a.26.26,0,0,1,.3.27c0,.23-.34.76-.34,1a.26.26,0,0,0,.28.24.51.51,0,0,0,.33-.18Z"/><path class="cls-4" d="M2.2,6.95a.61.61,0,0,1,.63-.59.51.51,0,0,1,.57.52.85.85,0,0,1-.11.43L2.44,9.07a.58.58,0,0,0,0,.23A.31.31,0,0,0,3,9.3c0-.2-.1-.28-.2-.28s-.18,0-.18.14,0,.09.08.09.08-.15.08-.15a.11.11,0,0,1,.08.14A.17.17,0,0,1,3,9.3a.23.23,0,0,1-.1.06c0,.08,0,.13-.09.14a.14.14,0,0,0,0-.09.22.22,0,0,1-.3-.22.32.32,0,0,1,.4-.32.19.19,0,0,1-.1-.16l.1,0a.32.32,0,0,1-.07-.2s.09.06.15,0c-.1-.19,0-.45.33-.52a.65.65,0,0,0-.17.41c0,.45.13.53.13.84a.48.48,0,0,1-.2.38h0a.25.25,0,0,1,.18.12,1.17,1.17,0,0,1-.66,0,.48.48,0,0,1-.35-.23.68.68,0,0,1,0-.56l.87-1.84a.57.57,0,0,0,.06-.26.32.32,0,0,0-.33-.31.28.28,0,0,0-.29.25A.12.12,0,0,0,2.66,7c.16,0,.15-.14.12-.22s.17.13.15.21a.26.26,0,0,1,.16.1.23.23,0,0,1-.16.09c0,.13-.06.19-.15.22s0-.21-.12-.21a.32.32,0,0,1-.27-.1c0,.1,0,.52,0,.52,0,.16.21.15.35.11-.05.18-.16.28-.4.25a.2.2,0,0,1,.12.19.49.49,0,0,1-.2.36Z"/><path class="cls-4" d="M2.28,6.95a.61.61,0,0,0-.63-.59.51.51,0,0,0-.57.52.85.85,0,0,0,.1.43L2,9.07a.54.54,0,0,1,0,.23.31.31,0,0,1-.62,0c0-.2.1-.28.2-.28s.18,0,.18.14,0,.09-.07.09-.08-.15-.08-.15a.11.11,0,0,0-.07.14.19.19,0,0,0-.11.06.25.25,0,0,0,.11.06.1.1,0,0,0,.08.14.14.14,0,0,1,0-.09A.22.22,0,0,0,2,9.19a.32.32,0,0,0-.4-.32.18.18,0,0,0,.1-.16.29.29,0,0,1-.1,0,.3.3,0,0,0,.07-.2s-.1.06-.16,0c.1-.19,0-.45-.33-.52a.63.63,0,0,1,.17.41c0,.45-.13.53-.13.84a.47.47,0,0,0,.2.38h0a.26.26,0,0,0-.18.12,1.17,1.17,0,0,0,.66,0,.49.49,0,0,0,.35-.23.71.71,0,0,0,0-.56c-.12-.25-.69-1.46-.87-1.84a.62.62,0,0,1-.06-.26.32.32,0,0,1,.33-.31.28.28,0,0,1,.29.25c0,.09,0,.14-.12.14s-.15-.14-.12-.22A.21.21,0,0,0,1.56,7a.27.27,0,0,0-.16.1.24.24,0,0,0,.16.09c0,.13.06.19.14.22s0-.21.12-.21a.32.32,0,0,0,.27-.1c0,.1,0,.52,0,.52,0,.16-.21.15-.35.11.05.18.16.28.41.25A.2.2,0,0,0,2,8.12a.5.5,0,0,0,.2.36Z"/><path class="cls-4" d="M2.28,5.77a.61.61,0,0,1-.63.59.5.5,0,0,1-.57-.52.85.85,0,0,1,.1-.42L2,3.66a.51.51,0,0,0,0-.23.31.31,0,0,0-.62,0c0,.2.1.29.2.29s.18-.05.18-.14,0-.09-.07-.09-.08.15-.08.15a.1.1,0,0,1-.07-.14.21.21,0,0,1-.11-.06.22.22,0,0,1,.11-.06c0-.09,0-.13.08-.14a.16.16,0,0,0,0,.09.22.22,0,0,1,.3.22.31.31,0,0,1-.4.32.19.19,0,0,1,.1.16l-.1,0a.32.32,0,0,1,.07.21s-.1-.07-.16,0a.38.38,0,0,1-.33.52.62.62,0,0,0,.17-.41c0-.45-.13-.53-.13-.85a.46.46,0,0,1,.2-.37h0a.29.29,0,0,1-.18-.12,1.17,1.17,0,0,1,.66,0,.5.5,0,0,1,.35.23.71.71,0,0,1,0,.56c-.12.25-.69,1.46-.87,1.84a.64.64,0,0,0-.06.26.33.33,0,0,0,.33.32.29.29,0,0,0,.29-.25c0-.09,0-.14-.12-.14s-.15.14-.12.23a.2.2,0,0,1-.14-.21.26.26,0,0,1-.16-.09.2.2,0,0,1,.16-.09c0-.13.06-.19.14-.22s0,.21.12.21a.3.3,0,0,1,.27.1c0-.11,0-.52,0-.52C2.12,5,1.9,5,1.76,5a.33.33,0,0,1,.41-.25A.19.19,0,0,1,2,4.61a.5.5,0,0,1,.2-.36Z"/><path class="cls-4" d="M2.2,5.77a.61.61,0,0,0,.63.59.51.51,0,0,0,.57-.52.86.86,0,0,0-.11-.42L2.44,3.66a.54.54,0,0,1,0-.23.31.31,0,0,1,.62,0c0,.2-.1.29-.2.29s-.18-.05-.18-.14,0-.09.08-.09.08.15.08.15a.1.1,0,0,0,.08-.14A.19.19,0,0,0,3,3.43a.2.2,0,0,0-.1-.06.1.1,0,0,0-.09-.14.16.16,0,0,1,0,.09.22.22,0,0,0-.3.22.32.32,0,0,0,.4.32A.2.2,0,0,0,2.8,4l.1,0a.33.33,0,0,0-.07.21s.09-.07.15,0a.38.38,0,0,0,.33.52.64.64,0,0,1-.17-.41c0-.45.13-.53.13-.85a.47.47,0,0,0-.2-.37h0a.27.27,0,0,0,.18-.12,1.17,1.17,0,0,0-.66,0,.49.49,0,0,0-.35.23.68.68,0,0,0,0,.56l.87,1.84a.58.58,0,0,1,.06.26.33.33,0,0,1-.33.32.29.29,0,0,1-.29-.25c0-.09.05-.14.12-.14s.15.14.12.23a.2.2,0,0,0,.15-.21.26.26,0,0,0,.16-.09.2.2,0,0,0-.16-.09c0-.13-.06-.19-.15-.22s0,.21-.12.21a.3.3,0,0,0-.27.1c0-.11,0-.52,0-.52,0-.16.21-.15.35-.11a.32.32,0,0,0-.4-.25.19.19,0,0,0,.12-.19.49.49,0,0,0-.2-.36Z"/><path class="cls-4" d="M2.28,12.63a.61.61,0,0,1-.63.59.51.51,0,0,1-.57-.52.86.86,0,0,1,.1-.43L2,10.52a.53.53,0,0,0,0-.23.32.32,0,0,0-.32-.3.32.32,0,0,0-.31.3c0,.2.1.29.2.29s.18-.05.18-.14,0-.09-.07-.09-.08.15-.08.15a.11.11,0,0,1-.07-.14.19.19,0,0,1-.11-.06.22.22,0,0,1,.11-.06.1.1,0,0,1,.08-.14.16.16,0,0,0,0,.09.22.22,0,0,1,.3.22.32.32,0,0,1-.4.33.18.18,0,0,1,.1.16l-.1,0a.33.33,0,0,1,.07.21s-.1-.06-.16,0a.38.38,0,0,1-.33.52.62.62,0,0,0,.17-.41c0-.45-.13-.53-.13-.85a.46.46,0,0,1,.2-.37h0a.27.27,0,0,1-.18-.13,1.25,1.25,0,0,1,.66,0,.5.5,0,0,1,.35.23.71.71,0,0,1,0,.56c-.12.25-.69,1.46-.87,1.84a.64.64,0,0,0-.06.26.32.32,0,0,0,.33.31.28.28,0,0,0,.29-.25c0-.09,0-.14-.12-.14s-.15.14-.12.23a.21.21,0,0,1-.14-.21.25.25,0,0,1-.16-.09.2.2,0,0,1,.16-.09c0-.14.06-.2.14-.23s0,.21.12.21a.3.3,0,0,1,.27.1c0-.11,0-.52,0-.52,0-.16-.21-.15-.35-.11.05-.18.16-.27.41-.25A.19.19,0,0,1,2,11.46a.51.51,0,0,1,.2-.36Z"/><path class="cls-4" d="M2.2,12.63a.61.61,0,0,0,.63.59.51.51,0,0,0,.57-.52.86.86,0,0,0-.11-.43l-.86-1.77a.56.56,0,0,1,0-.23.32.32,0,0,1,.32-.3.32.32,0,0,1,.31.3c0,.2-.1.29-.2.29s-.18-.05-.18-.14,0-.09.08-.09.08.15.08.15a.11.11,0,0,0,.08-.14.17.17,0,0,0,.1-.06.2.2,0,0,0-.1-.06c0-.08,0-.12-.09-.14a.17.17,0,0,1,0,.09.22.22,0,0,0-.3.22.32.32,0,0,0,.4.33.19.19,0,0,0-.1.16l.1,0a.34.34,0,0,0-.07.21S2.92,11,3,11a.38.38,0,0,0,.33.52.64.64,0,0,1-.17-.41c0-.45.13-.53.13-.85a.47.47,0,0,0-.2-.37h0a.25.25,0,0,0,.18-.13,1.24,1.24,0,0,0-.66,0,.49.49,0,0,0-.35.23.68.68,0,0,0,0,.56l.87,1.84a.58.58,0,0,1,.06.26.32.32,0,0,1-.33.31.28.28,0,0,1-.29-.25.12.12,0,0,1,.12-.14c.16,0,.15.14.12.23s.17-.12.15-.21a.25.25,0,0,0,.16-.09.2.2,0,0,0-.16-.09c0-.14-.06-.2-.15-.23s0,.21-.12.21a.3.3,0,0,0-.27.1c0-.11,0-.52,0-.52,0-.16.21-.15.35-.11-.05-.18-.16-.27-.4-.25a.19.19,0,0,0,.12-.19.51.51,0,0,0-.2-.36Z"/><path class="cls-4" d="M2.24,1.54s.18-.16.25-.08-.31.76-.31,1,.24.46.54.51a2.38,2.38,0,0,0,.53,0A.2.2,0,0,0,3,2.82a.44.44,0,0,0,.23-.39c0-.31-.13-.44-.13-.79a1,1,0,0,1,.16-.44.37.37,0,0,0-.34.5.13.13,0,0,1-.12,0,.21.21,0,0,0,.05.18s-.06,0-.12,0A.28.28,0,0,0,2.91,2a.31.31,0,0,0-.41.3.22.22,0,0,0,.19.24.21.21,0,0,0,.11,0,.16.16,0,0,1,0,.13c.07,0,.12-.06.09-.15A.18.18,0,0,0,3,2.45a.15.15,0,0,0-.12-.06c0-.08,0-.12-.07-.16s0,.16-.06.16-.09,0-.09-.08.05-.14.18-.14.22.08.22.28-.14.27-.33.27a.26.26,0,0,1-.3-.26c0-.24.34-.77.34-1a.26.26,0,0,0-.28-.25.52.52,0,0,0-.33.18Z"/><path class="cls-4" d="M2.24,1.54S2.06,1.39,2,1.46s.31.76.31,1-.24.46-.54.51a2.42,2.42,0,0,1-.53,0,.21.21,0,0,1,.21-.11.44.44,0,0,1-.23-.39c0-.31.13-.44.13-.79a1,1,0,0,0-.16-.44.38.38,0,0,1,.35.5.13.13,0,0,0,.12,0,.22.22,0,0,1-.06.18s.06,0,.12,0A.26.26,0,0,1,1.57,2a.31.31,0,0,1,.41.3.22.22,0,0,1-.2.24.2.2,0,0,1-.1,0,.16.16,0,0,0,0,.13c-.07,0-.12-.06-.08-.15a.18.18,0,0,1-.12-.05.15.15,0,0,1,.13-.06c0-.08,0-.12.07-.16s0,.16.06.16.09,0,.09-.08-.05-.14-.18-.14-.22.08-.22.28.14.27.33.27a.26.26,0,0,0,.3-.26c0-.24-.34-.77-.34-1A.26.26,0,0,1,2,1.23a.51.51,0,0,1,.33.18Z"/><path class="cls-3" d="M1.88,12.6s-.07,0-.12,0-.09,0-.08.07.07,0,.12,0,.09,0,.08-.07Z"/><path class="cls-3" d="M1.71,12.7h0l0,0s0-.07.1-.09l.1,0h0l0,0s0,.08-.1.09Z"/><path class="cls-4" d="M17.52,13.3A4.66,4.66,0,0,1,12.88,9.1s-.1,0-.12.05.06.91,0,.86-.54-1.37-.63-1.23.54,1.65.5,1.7S11.77,9,11.71,9.16c-.23.45.93,1.88.92,1.94s-.88-.77-1-.67.92,1.09,1,1.15-.59-.34-.61-.16.37.46.6.59.31.09.37.21-.44-.05-.42.05.53.17.61.26-.34,0-.32.1.46.16.46.21-.27,0-.25.13.44.08.54.15-.37,0,0,.19a5.08,5.08,0,0,0,1.38.51c.58.12.88,0,.9-.05s-.28,0-.69,0A4.4,4.4,0,0,1,14,13.26c-.07,0,.22-.12.16-.2s-.29,0-.38-.1.11-.07.11-.12-.32-.12-.38-.2.14-.06.15-.12-.2-.11-.21-.16.23,0,.12-.11-.46-.15-.52-.27.25,0,.17-.09-.36-.21-.43-.38.22,0,.22-.09-.15,0-.21-.39c0-.11.2,0,.2,0l0-.06a2.44,2.44,0,0,1,.59.53c.33.39.43.75.74,1,.15.13.16,0,.5.16a6.33,6.33,0,0,1,.84.67,6.86,6.86,0,0,1,1,.1c.37.08.45.27.45.27a1,1,0,0,0,.3-.27c0-.06.08,0,.09,0s0-.08,0-.08Z"/><path class="cls-4" d="M15.44,13.9a2.69,2.69,0,0,1-.45,0,5.29,5.29,0,0,1-1.38-.51c-.12-.06-.16-.09-.15-.13s.06,0,.11-.05l.05,0a1,1,0,0,0-.25,0c-.16,0-.29,0-.3-.11h0l0,0s.1-.05.15-.06l.08,0-.14,0c-.13,0-.3-.07-.32-.17s.09-.06.19-.06.14,0,.15,0-.13-.05-.22-.07-.38-.07-.39-.21.15-.07.27-.05H13c0-.06,0-.07-.1-.09a1.21,1.21,0,0,1-.23-.1c-.21-.12-.63-.44-.61-.61a.06.06,0,0,1,.07-.06,1.3,1.3,0,0,1,.41.16l.17.08-.14-.11c-.5-.43-1-.89-.87-1.08.1,0,.25.11.48.33a2,2,0,0,0,.46.36,1,1,0,0,0-.14-.23c-.31-.45-.95-1.37-.77-1.72.08,0,.17.13.39.52s.46.79.54.79a2.76,2.76,0,0,0-.14-.44,3.11,3.11,0,0,1-.35-1.26c.1,0,.26.29.52.91l.13.3a1.74,1.74,0,0,1,0-.22,4.22,4.22,0,0,1,0-.61.08.08,0,0,1,.09-.08h.05a4.63,4.63,0,0,0,4.62,4.2.08.08,0,0,1,.06.07h0l0,0,0,0h0a1.1,1.1,0,0,1-.34.3.61.61,0,0,0-.45-.28,3.86,3.86,0,0,0-.76-.09H15.8c-.05,0-.08,0-.1,0l-.2-.17a4.17,4.17,0,0,0-.63-.49.53.53,0,0,0-.29-.11h-.07a.19.19,0,0,1-.13-.05A2,2,0,0,1,14,12a3.34,3.34,0,0,0-.34-.5,2.45,2.45,0,0,0-.59-.53V11s-.09,0-.15,0h0c0,.23.09.28.14.32a.1.1,0,0,1,.06.1c0,.05-.06.05-.09.05h-.13a.64.64,0,0,0,.29.3.59.59,0,0,1,.13.11h0v0s0,0-.06,0h-.1c0,.1.18.17.31.22l.17.07s0,0,0,.05,0,0-.08,0l-.06,0a.41.41,0,0,0,.11.07c.07,0,.11.06.11.09s-.05.05-.09.06l-.07,0a.54.54,0,0,0,.23.13c.11,0,.16.06.16.09s0,0-.07.06l0,0c0,.07.13.07.22.07s.14,0,.18,0v0s-.06.08-.11.11l-.06.05a4.44,4.44,0,0,0,1.19.46,2.11,2.11,0,0,0,.43,0h.22l.06,0c0,.06-.18.14-.48.14Zm-2.75-1.65c-.06,0-.07,0-.08,0s.21.15.36.18.21,0,.24.07h0v0s-.08,0-.18,0-.14,0-.15,0,.18.11.29.14.17,0,.17.08-.05.05-.12.06a.32.32,0,0,0-.13,0c0,.07.15.09.26.1a.82.82,0,0,1,.26.06l0,0s0,0-.08,0l-.08,0s0,0,.13.09a5,5,0,0,0,1.38.5,2,2,0,0,0,.44.05.72.72,0,0,0,.44-.09l-.09,0h-.15a2.56,2.56,0,0,1-.43,0,4.39,4.39,0,0,1-1.2-.47c0-.06,0-.08.06-.11a.27.27,0,0,0,.1-.08s-.08,0-.15,0a.3.3,0,0,1-.24-.07l0-.05s0,0,.07-.06l0,0-.14-.06a.48.48,0,0,1-.24-.12V12.6s.05,0,.09-.05.06,0,.06,0l-.09-.05c-.07,0-.12-.06-.13-.1s.05-.06.1-.07l.05,0-.19-.08c-.15-.05-.32-.12-.36-.21h0v0s.07,0,.12,0h0s-.05-.07-.11-.11-.26-.17-.3-.29a.07.07,0,0,1,0-.06.11.11,0,0,1,.09,0h.08s0,0,.05,0,0,0,0-.07a.42.42,0,0,1-.16-.32.07.07,0,0,1,0-.05c0-.05.21,0,.21,0v-.05h0a1.74,1.74,0,0,1,.63.53,3.57,3.57,0,0,1,.35.5,1.88,1.88,0,0,0,.39.52.15.15,0,0,0,.11,0h.07a.6.6,0,0,1,.32.12,4.25,4.25,0,0,1,.63.49l.21.18s.05,0,.07,0h.13a3.73,3.73,0,0,1,.77.09c.38.08.46.27.46.28s.18-.15.27-.27a.06.06,0,0,1,.05,0h0V13.3l0,0a4.65,4.65,0,0,1-4.65-4.21h0s0,0-.05,0a4,4,0,0,0,0,.59c0,.23,0,.27,0,.28s-.1-.14-.18-.34a4.05,4.05,0,0,0-.45-.89A3.82,3.82,0,0,0,12.52,10c.15.39.17.45.15.46l0,0c-.1,0-.29-.32-.58-.8a2.83,2.83,0,0,0-.34-.52c-.16.32.47,1.24.78,1.68.13.2.16.23.15.25v0l0,0c-.07,0-.23-.14-.49-.37a1.79,1.79,0,0,0-.42-.34c-.12.18.62.82.86,1l.11.1s0,0,0,.06-.11,0-.21-.07a1.43,1.43,0,0,0-.39-.16,0,0,0,0,0,0,0c0,.13.34.43.59.57a1,1,0,0,0,.22.1.25.25,0,0,1,.16.11c0,.12-.11.06-.19.05Z"/><path class="cls-4" d="M19.29,14.09c-.1,0-.09.05-.09.05a.22.22,0,0,1-.14.22c-.06,0,0,.06-.05.1h-.26a2.55,2.55,0,0,1-1.52.23l-.24.2c-.12.11-.2.13-.22.21s.06.13.16.13a.51.51,0,0,0,.24-.09.13.13,0,0,0,.12.09.88.88,0,0,0,.27-.06.59.59,0,0,0,.26.05.54.54,0,0,0,.21-.09s0,.13.14.13.28-.14.28-.14a.24.24,0,0,0,.19.08.51.51,0,0,0,.23-.14.39.39,0,0,0,.25,0,.67.67,0,0,0,.24-.16.24.24,0,0,0,.2.05c.1,0,.16-.17.16-.17a.6.6,0,0,0,.43,0c.12-.05.09-.25.09-.25s.71.1.68-.36c0-.05-1.15,0-1.65-.12Z"/><path class="cls-4" d="M18.19,15.27h0a.19.19,0,0,1-.16-.14.29.29,0,0,1-.19.09,1.19,1.19,0,0,1-.27-.05.78.78,0,0,1-.25.06.15.15,0,0,1-.15-.1.32.32,0,0,1-.22.11.24.24,0,0,1-.18-.06.11.11,0,0,1,0-.09c0-.05.06-.09.12-.13l.1-.08.24-.2.42,0a2.28,2.28,0,0,0,1.1-.25H19c0-.05,0-.09,0-.1a.21.21,0,0,0,.13-.2.06.06,0,0,1,0-.05.09.09,0,0,1,.06,0,8.57,8.57,0,0,0,1.15.09c.51,0,.54,0,.54.06a.32.32,0,0,1-.08.25.66.66,0,0,1-.46.14h-.15a.2.2,0,0,1-.08.25.75.75,0,0,1-.44,0,.25.25,0,0,1-.15.17.29.29,0,0,1-.22-.06.39.39,0,0,1-.22.16.53.53,0,0,1-.26,0,.38.38,0,0,1-.22.14h0a.27.27,0,0,1-.2-.09.42.42,0,0,1-.27.15ZM18,15.1s.06.13.16.13v0a.64.64,0,0,0,.27-.14s.09.08.18.08a.55.55,0,0,0,.24-.13,1,1,0,0,0,.17,0h.08a.65.65,0,0,0,.23-.15.48.48,0,0,0,.17.06.34.34,0,0,0,.19-.17s.16,0,.29,0a.36.36,0,0,0,.15,0c.11,0,.08-.23.08-.23a.49.49,0,0,1,.18,0h0a.61.61,0,0,0,.44-.13.28.28,0,0,0,.07-.22l-.51,0a10.19,10.19,0,0,1-1.13-.08h-.05a.26.26,0,0,1-.16.27s0,0,0,0a.14.14,0,0,1,0,.05h-.27a2.56,2.56,0,0,1-1.53.23l-.22.19L16.9,15c-.06,0-.09.06-.1.11a.06.06,0,0,0,0,.05.2.2,0,0,0,.14.05h0a.47.47,0,0,0,.23-.09s0,.08.13.09h0a1,1,0,0,0,.26-.05,1,1,0,0,0,.24.05A.47.47,0,0,0,18,15.1Z"/><path class="cls-4" d="M17.77,13.59a3.51,3.51,0,0,1,.57-.15c.69-.14.93-.1,1-.14a2.64,2.64,0,0,1,1.34-.81c.32-.27.42-.64.75-1s.53-.42.53-.42l0,.09s.18-.13.17,0-.16.34-.15.45.24,0,.22,0-.25.29-.3.37.22,0,.16.08-.37.24-.49.32.08.05.06.11-.33.17-.32.21.08.06,0,.1-.33.08-.33.13.05.09,0,.16-.16,0-.2.09.15.16,0,.18a1.16,1.16,0,0,0-.41.18,3.4,3.4,0,0,1-.42.11c-.09,0-.58.08-.55.12a2.42,2.42,0,0,0,1-.08,5.64,5.64,0,0,0,.88-.22c.5-.16-.13-.17,0-.24s.54,0,.55-.13-.24-.08-.24-.14.53-.06.56-.2-.3,0-.22-.11.49-.12.51-.3-.34,0-.3-.06.16-.08.3-.17.57-.42.55-.57-.72.43-.66.2,1.14-1,1-1.19-.93.81-1,.62,1.25-1.48,1-1.92c-.06-.12-1,1.7-1.14,1.54s.8-1.79.67-2-.2.2-.34.52-.3.68-.33.72,0-.68,0-.91-.12-.05-.12-.05a4.94,4.94,0,0,1-4.06,4.2c-.45.06-.59.28-1.09.56-.16.09-.42.13-.64.26a1.31,1.31,0,0,0-.45.43.26.26,0,0,0,.06.24s0-.12.1-.15.05.05.12.05a.28.28,0,0,0,.13-.06l1.75,0a.54.54,0,0,0,.32-.11c0-.06-.16,0-.25,0-.37,0-.86,0-1.2,0a.06.06,0,0,1-.05-.06,2.52,2.52,0,0,1,.22-.26h-.17a.56.56,0,0,1-.16.06c-.05,0-.07,0-.05,0a8.38,8.38,0,0,1,1-.55Z"/><path class="cls-4" d="M16,14.8h0s-.06-.08-.07-.1a.22.22,0,0,1,0-.16,1.27,1.27,0,0,1,.46-.43,2.19,2.19,0,0,1,.37-.15,1.8,1.8,0,0,0,.28-.11c.16-.09.28-.17.38-.25a1.53,1.53,0,0,1,.71-.31,4.9,4.9,0,0,0,4-4.18.09.09,0,0,1,.15.05,4.75,4.75,0,0,1,0,.6c0,.14,0,.28,0,.3a6.19,6.19,0,0,1,.26-.61l0-.11c.17-.37.26-.55.34-.55h0l0,0a3.86,3.86,0,0,1-.47,1.47,3.63,3.63,0,0,0-.2.49A3.86,3.86,0,0,0,23,9.84c.28-.46.39-.62.44-.62.21.36-.49,1.28-.82,1.72a2.66,2.66,0,0,0-.16.22,1.61,1.61,0,0,0,.38-.28c.2-.18.41-.37.52-.37h0l0,0c.13.15-.29.56-.73,1a2.24,2.24,0,0,0-.23.23s.16,0,.27-.1.38-.2.39-.11-.17.32-.56.59l-.21.11-.09.05h.1c.08,0,.16,0,.18,0l0,0c0,.13-.18.18-.32.22a.48.48,0,0,0-.19.09s.06,0,.09,0a.19.19,0,0,1,.13,0c0,.13-.21.16-.38.19l-.18,0,.08,0c.07,0,.17,0,.16.12s-.15.08-.31.1a.8.8,0,0,0-.26,0l.08,0c.08,0,.15,0,.15.09s0,.07-.21.13a6.39,6.39,0,0,1-.88.23,6,6,0,0,1-.85.1c-.12,0-.14,0-.15,0s.1-.07.4-.12l.17,0,.14,0a1.8,1.8,0,0,0,.27-.07,1.15,1.15,0,0,1,.42-.18s0-.05,0-.07-.05-.07,0-.1a.06.06,0,0,1,.07-.05l0,0v0a.09.09,0,0,0,.08-.05A.08.08,0,0,0,21,13a.27.27,0,0,1,0-.05s.05-.05.14-.07a.39.39,0,0,0,.19-.07s0-.05-.05-.08,0-.05.16-.12a.59.59,0,0,0,.17-.1s0,0,0,0,0,0,0,0h0l0,0,.14-.08a.89.89,0,0,0,.34-.23A.08.08,0,0,0,22,12h-.05l0,0s0,0,0-.05l.08-.08a.65.65,0,0,0,.22-.28h-.07c-.1,0-.15,0-.15,0a.49.49,0,0,1,.06-.22.76.76,0,0,0,.08-.24s-.11,0-.14,0l-.07-.09a1.53,1.53,0,0,0-.5.42,3.69,3.69,0,0,0-.35.5,2,2,0,0,1-.41.53l-.22.08a2.33,2.33,0,0,0-1.12.73s-.07,0-.17,0a5.14,5.14,0,0,0-.82.11,3.24,3.24,0,0,0-.57.16,8.2,8.2,0,0,0-1,.55.44.44,0,0,0,.19-.05h.19c-.09.14-.2.26-.2.28l0,.06v0c.35,0,.83,0,1.2,0h.06c.08,0,.18,0,.21,0a.48.48,0,0,1-.34.13l-1.75,0a.23.23,0,0,1-.13.06h0a.08.08,0,0,1-.07,0s-.06,0-.07.06,0,.07-.06.07Zm6.22-5.69h0a4.91,4.91,0,0,1-4.07,4.2,1.49,1.49,0,0,0-.69.31,3.64,3.64,0,0,1-.39.25,1.32,1.32,0,0,1-.29.11,1.89,1.89,0,0,0-.36.15,1.28,1.28,0,0,0-.44.42.16.16,0,0,0,0,.13.15.15,0,0,0,0,.08h0s0,0,0-.05a.17.17,0,0,1,.06-.1c.05,0,.06,0,.08,0s0,0,0,0a.25.25,0,0,0,.12-.05s1.24,0,1.76,0a.47.47,0,0,0,.3-.1h-.24c-.37,0-.86,0-1.21,0a.07.07,0,0,1-.05,0,.07.07,0,0,1,0-.06,1.68,1.68,0,0,1,.23-.27l-.16,0h0a.46.46,0,0,1-.15.06s-.07,0-.08,0v0l0,0a8.06,8.06,0,0,1,1.06-.56,3.45,3.45,0,0,1,.57-.16,5,5,0,0,1,.82-.12l.15,0a2.35,2.35,0,0,1,1.14-.74l.21-.07a2,2,0,0,0,.4-.52,3.67,3.67,0,0,1,.35-.5c.34-.39.53-.43.54-.43l.06.09s.07-.07.12-.07l0,0a.08.08,0,0,1,0,.05.71.71,0,0,1-.08.26.45.45,0,0,0-.06.2.19.19,0,0,0,.11,0h.07l0,0a.6.6,0,0,1-.23.32l-.08.08s0,0,0,0h.08l0,0a.06.06,0,0,1,0,.05.83.83,0,0,1-.35.25l-.14.07s.08.06.07.1-.07.07-.19.13l-.14.08,0,0,0,0a.34.34,0,0,1-.23.12l-.12,0c0,.07,0,.12,0,.17a.13.13,0,0,1-.12.07h0s0,0,0,0,0,0,0,.07,0,.07,0,.09,0,0-.05,0a1.17,1.17,0,0,0-.4.18l-.28.08-.14,0-.17,0a2.76,2.76,0,0,0-.36.07,3.1,3.1,0,0,0,.94-.09,6,6,0,0,0,.88-.22c.18-.06.18-.09.18-.09s-.09,0-.12-.05-.11,0-.11-.06h0l0,0a.66.66,0,0,1,.28-.05c.11,0,.27,0,.27-.07s0-.05-.13-.07-.11,0-.11-.07.06,0,.21-.07.34-.05.36-.12-.07,0-.1,0-.12,0-.13,0h0l0,0a.46.46,0,0,1,.21-.09c.13,0,.29-.09.29-.19s-.08,0-.16,0-.12,0-.14,0,0-.08.11-.11l.2-.11c.49-.34.55-.49.54-.55s-.22.06-.33.13a1,1,0,0,1-.29.14l0,0a.09.09,0,0,1,0-.07s.07-.08.24-.25.84-.78.72-.92-.33.19-.51.35-.33.3-.4.3h0l0,0s0-.06.18-.25c.33-.43,1-1.34.85-1.66a5.56,5.56,0,0,0-.4.61c-.35.57-.59.95-.7.95s0-.08.16-.54a4.87,4.87,0,0,0,.48-1.44c-.06,0-.21.3-.31.52l0,.11c-.13.3-.26.58-.29.62s0-.05,0-.32a4.74,4.74,0,0,0,0-.59s0,0-.05,0Z"/><path class="cls-3" d="M16.56,14.34s-.06,0-.1,0-.07,0-.07.05.06,0,.1,0,.07,0,.07-.06Z"/><path class="cls-3" d="M16.42,14.43h0l0,0s0-.07.08-.08h.1l0,0s0,.07-.08.08Z"/><path class="cls-4" d="M18.13,5.44a.19.19,0,0,0,.24-.16,7.16,7.16,0,0,0,0-.89A7.34,7.34,0,0,0,18,5.2a.19.19,0,0,0,.16.25Z"/><path class="cls-4" d="M18.67,5.61a.19.19,0,0,0,.27-.11,7.59,7.59,0,0,0,.14-.88,7.43,7.43,0,0,0-.53.72.19.19,0,0,0,.11.27Z"/><path class="cls-4" d="M19.16,5.88a.19.19,0,0,0,.29-.06A7.77,7.77,0,0,0,19.76,5a7.81,7.81,0,0,0-.65.61.19.19,0,0,0,.06.29Z"/><path class="cls-4" d="M19.6,6.23a.18.18,0,0,0,.29,0,6.83,6.83,0,0,0,.47-.75,7.46,7.46,0,0,0-.76.46.19.19,0,0,0,0,.29Z"/><path class="cls-4" d="M20,6.67a.19.19,0,0,0,.29.05,7.51,7.51,0,0,0,.61-.65,7.75,7.75,0,0,0-.83.31.19.19,0,0,0-.06.29Z"/><path class="cls-4" d="M20.22,7.16a.19.19,0,0,0,.27.11,7.72,7.72,0,0,0,.72-.52,8.21,8.21,0,0,0-.88.14.19.19,0,0,0-.11.27Z"/><path class="cls-4" d="M20.39,7.71a.19.19,0,0,0,.24.16,7.83,7.83,0,0,0,.81-.37,7.88,7.88,0,0,0-.89,0,.19.19,0,0,0-.17.25Z"/><path class="cls-4" d="M20.44,8.27a.19.19,0,0,0,.21.21,7.33,7.33,0,0,0,.87-.21,7.33,7.33,0,0,0-.87-.21.19.19,0,0,0-.21.21Z"/><path class="cls-4" d="M20.39,8.83a.19.19,0,0,0,.17.24,7.15,7.15,0,0,0,.89,0,7.71,7.71,0,0,0-.81-.37.19.19,0,0,0-.24.16Z"/><path class="cls-4" d="M20.22,9.37a.19.19,0,0,0,.11.27,6.61,6.61,0,0,0,.88.14,7.72,7.72,0,0,0-.72-.52.19.19,0,0,0-.27.11Z"/><path class="cls-4" d="M20,9.87a.19.19,0,0,0,.06.29,8.67,8.67,0,0,0,.83.31,7.46,7.46,0,0,0-.61-.66.19.19,0,0,0-.29.06Z"/><path class="cls-4" d="M19.6,10.3a.19.19,0,0,0,0,.3,8.25,8.25,0,0,0,.76.46,6.82,6.82,0,0,0-.47-.76.19.19,0,0,0-.29,0Z"/><path class="cls-4" d="M19.16,10.66a.19.19,0,0,0-.06.29,7.2,7.2,0,0,0,.65.61,8.09,8.09,0,0,0-.31-.83.19.19,0,0,0-.29-.06Z"/><path class="cls-4" d="M18.67,10.93a.19.19,0,0,0-.11.27,7.43,7.43,0,0,0,.53.72,7.73,7.73,0,0,0-.14-.88.19.19,0,0,0-.27-.11Z"/><path class="cls-4" d="M16,10.66a.19.19,0,0,0-.29.06,7.42,7.42,0,0,0-.31.83,7,7,0,0,0,.65-.61.19.19,0,0,0-.05-.29Z"/><path class="cls-4" d="M15.53,10.3a.19.19,0,0,0-.29,0,6.59,6.59,0,0,0-.47.76,8.27,8.27,0,0,0,.76-.46.19.19,0,0,0,0-.3Z"/><path class="cls-4" d="M15.17,9.87a.19.19,0,0,0-.29-.06,7.53,7.53,0,0,0-.61.66,8.68,8.68,0,0,0,.84-.31.19.19,0,0,0,.06-.29Z"/><path class="cls-4" d="M14.91,9.37a.19.19,0,0,0-.27-.11,7.71,7.71,0,0,0-.72.52,6.63,6.63,0,0,0,.88-.14.19.19,0,0,0,.11-.27Z"/><path class="cls-4" d="M14.74,8.83a.19.19,0,0,0-.25-.16,8.18,8.18,0,0,0-.81.38,7.15,7.15,0,0,0,.89,0,.19.19,0,0,0,.16-.24Z"/><path class="cls-4" d="M14.69,8.27a.19.19,0,0,0-.21-.21,7.47,7.47,0,0,0-.87.21,7.47,7.47,0,0,0,.87.21.19.19,0,0,0,.21-.21Z"/><path class="cls-4" d="M14.74,7.71a.19.19,0,0,0-.16-.25,7.87,7.87,0,0,0-.89,0,8.33,8.33,0,0,0,.81.37.19.19,0,0,0,.25-.16Z"/><path class="cls-4" d="M14.91,7.16a.19.19,0,0,0-.11-.27,8.23,8.23,0,0,0-.88-.14,7.71,7.71,0,0,0,.72.52.19.19,0,0,0,.27-.11Z"/><path class="cls-4" d="M15.17,6.67a.19.19,0,0,0-.06-.29,7.76,7.76,0,0,0-.84-.31,7.58,7.58,0,0,0,.61.65.18.18,0,0,0,.29-.05Z"/><path class="cls-4" d="M15.53,6.23a.19.19,0,0,0,0-.29,7.47,7.47,0,0,0-.76-.46,6.6,6.6,0,0,0,.47.75.18.18,0,0,0,.29,0Z"/><path class="cls-4" d="M17.56,5.74A2.53,2.53,0,1,1,15,8.27a2.53,2.53,0,0,1,2.54-2.53Z"/><path class="cls-4" d="M17.56,5.39a.19.19,0,0,0,.21-.21,7.52,7.52,0,0,0-.21-.87,7.7,7.7,0,0,0-.2.87.19.19,0,0,0,.2.21Z"/><path class="cls-4" d="M18.13,11.09a.19.19,0,0,0-.16.25,7.33,7.33,0,0,0,.37.81,7.12,7.12,0,0,0,0-.89.19.19,0,0,0-.24-.17Z"/><path class="cls-4" d="M17.56,11.14a.19.19,0,0,0-.2.21,7.5,7.5,0,0,0,.2.87,7.32,7.32,0,0,0,.21-.87.19.19,0,0,0-.21-.21Z"/><path class="cls-4" d="M17,11.09a.19.19,0,0,0-.24.17,7.53,7.53,0,0,0,0,.89,8.16,8.16,0,0,0,.37-.81.19.19,0,0,0-.16-.25Z"/><path class="cls-4" d="M16.46,10.93a.19.19,0,0,0-.27.11,7.3,7.3,0,0,0-.14.88,7.43,7.43,0,0,0,.53-.72.19.19,0,0,0-.11-.27Z"/><path class="cls-4" d="M16,5.88A.19.19,0,0,0,16,5.59,7.52,7.52,0,0,0,15.37,5a7.15,7.15,0,0,0,.31.83.19.19,0,0,0,.29.06Z"/><path class="cls-4" d="M16.46,5.61a.19.19,0,0,0,.11-.27,7.43,7.43,0,0,0-.53-.72,7.18,7.18,0,0,0,.14.88.19.19,0,0,0,.27.11Z"/><path class="cls-4" d="M17,5.44a.19.19,0,0,0,.16-.25,8.17,8.17,0,0,0-.37-.81,7.57,7.57,0,0,0,0,.89.18.18,0,0,0,.24.16Z"/></g></g></g></g></g></svg>