<?xml version="1.0" encoding="UTF-8"?>
<svg width="900px" height="600px" viewBox="0 0 900 600" version="1.1" xmlns="http://www.w3.org/2000/svg" xmlns:xlink="http://www.w3.org/1999/xlink">
    <!-- Generator: Sketch 49 (51002) - http://www.bohemiancoding.com/sketch -->
    <title>KES</title>
    <desc>Created with Sketch.</desc>
    <defs></defs>
    <g id="Page-1" stroke="none" stroke-width="1" fill="none" fill-rule="evenodd">
        <g id="KES" fill-rule="nonzero">
            <rect id="Rectangle-path" fill="#FFFFFF" x="0" y="0" width="900" height="600"></rect>
            <rect id="Rectangle-path" fill="#000000" x="0" y="0" width="900" height="180"></rect>
            <rect id="Rectangle-path" fill="#BB0000" x="0" y="210" width="900" height="180"></rect>
            <rect id="Rectangle-path" fill="#006600" x="0" y="420" width="900" height="180"></rect>
            <g id="Group" transform="translate(318.750000, 82.500000)">
                <g id="spear" transform="translate(15.000000, 0.000000)">
                    <g id="spearshape-link" fill="#000000">
                        <path d="M121.160254,427.666605 L128.660254,427.666605 L128.660254,77.3205081 C136.160254,69.8205081 136.160254,58.5705081 136.160254,47.3205081 C136.160254,39.8205081 136.160254,9.82050808 124.910254,-22.666605 C113.660254,9.82050808 113.660254,39.8205081 113.660254,47.3205081 C113.660254,58.5705081 113.660254,69.8205081 121.160254,77.3205081 L121.160254,427.666605 Z" id="spearshape" transform="translate(124.910254, 202.500000) rotate(30.000000) translate(-124.910254, -202.500000) "></path>
                    </g>
                    <g id="spearshape-link" fill="#FFFFFF">
                        <path d="M121.160254,427.666605 L128.660254,427.666605 L128.660254,77.3205081 C136.160254,69.8205081 136.160254,58.5705081 136.160254,47.3205081 C136.160254,39.8205081 136.160254,9.82050808 124.910254,-22.666605 C113.660254,9.82050808 113.660254,39.8205081 113.660254,47.3205081 C113.660254,58.5705081 113.660254,69.8205081 121.160254,77.3205081 L121.160254,427.666605 Z" id="spearshape" transform="translate(124.910254, 202.500000) rotate(30.000000) translate(-124.910254, -202.500000) "></path>
                    </g>
                </g>
                <g id="spear-link" transform="translate(123.750000, 202.500000) scale(-1, 1) translate(-123.750000, -202.500000) ">
                    <g id="spear">
                        <g id="spearshape-link" fill="#000000">
                            <path d="M121.160254,427.666605 L128.660254,427.666605 L128.660254,77.3205081 C136.160254,69.8205081 136.160254,58.5705081 136.160254,47.3205081 C136.160254,39.8205081 136.160254,9.82050808 124.910254,-22.666605 C113.660254,9.82050808 113.660254,39.8205081 113.660254,47.3205081 C113.660254,58.5705081 113.660254,69.8205081 121.160254,77.3205081 L121.160254,427.666605 Z" id="spearshape" transform="translate(124.910254, 202.500000) rotate(30.000000) translate(-124.910254, -202.500000) "></path>
                        </g>
                        <g id="spearshape-link" fill="#FFFFFF">
                            <path d="M121.160254,427.666605 L128.660254,427.666605 L128.660254,77.3205081 C136.160254,69.8205081 136.160254,58.5705081 136.160254,47.3205081 C136.160254,39.8205081 136.160254,9.82050808 124.910254,-22.666605 C113.660254,9.82050808 113.660254,39.8205081 113.660254,47.3205081 C113.660254,58.5705081 113.660254,69.8205081 121.160254,77.3205081 L121.160254,427.666605 Z" id="spearshape" transform="translate(124.910254, 202.500000) rotate(30.000000) translate(-124.910254, -202.500000) "></path>
                        </g>
                    </g>
                </g>
                <path d="M60,307.5 C71.25,337.5 108.75,397.5 131.25,397.5 C153.75,397.5 191.25,337.5 202.5,307.5 L202.5,127.5 C191.25,97.5 153.75,37.5 131.25,37.5 C108.75,37.5 71.25,97.5 60,127.5 L60,307.5 Z" id="Shape" fill="#BB0000"></path>
                <path d="M202.5,307.5 C213.75,277.5 221.25,247.5 221.25,217.5 C221.25,187.5 213.75,157.5 202.5,127.5 C191.25,157.5 183.75,187.5 183.75,217.5 C183.75,247.5 191.25,277.5 202.5,307.5 Z" id="deco_r" fill="#000000"></path>
                <g id="deco_r-link" transform="translate(60.000000, 217.500000) scale(-1, 1) translate(-60.000000, -217.500000) translate(41.250000, 127.500000)" fill="#000000">
                    <path d="M18.75,180 C30,150 37.5,120 37.5,90 C37.5,60 30,30 18.75,0 C7.5,30 0,60 0,90 C0,120 7.5,150 18.75,180 Z" id="deco_r"></path>
                </g>
                <g transform="translate(112.500000, 37.500000)" fill="#FFFFFF">
                    <ellipse id="Oval" cx="18.75" cy="180" rx="15" ry="22.5"></ellipse>
                    <path d="M22.5,201.9375 C22.5,201.9375 37.5,231.9375 37.5,280.6875 C37.5,329.4375 22.5,359.4375 22.5,359.4375 L22.5,201.9375 Z" id="deco_br"></path>
                    <g id="deco_br-link" transform="translate(7.500000, 80.625000) rotate(180.000000) translate(-7.500000, -80.625000) ">
                        <path d="M0,3.1875 C0,3.1875 15,33.1875 15,81.9375 C15,130.6875 0,160.6875 0,160.6875 L0,3.1875 Z" id="deco_br"></path>
                    </g>
                    <g id="deco_br-link" transform="translate(7.500000, 279.375000) scale(-1, 1) translate(-7.500000, -279.375000) translate(0.000000, 198.750000)">
                        <path d="M0,3.1875 C0,3.1875 15,33.1875 15,81.9375 C15,130.6875 0,160.6875 0,160.6875 L0,3.1875 Z" id="deco_br"></path>
                    </g>
                    <g id="deco_br-link" transform="translate(30.000000, 80.625000) scale(-1, 1) rotate(-180.000000) translate(-30.000000, -80.625000) translate(22.500000, 0.000000)">
                        <path d="M0,3.1875 C0,3.1875 15,33.1875 15,81.9375 C15,130.6875 0,160.6875 0,160.6875 L0,3.1875 Z" id="deco_br"></path>
                    </g>
                </g>
            </g>
        </g>
    </g>
</svg>