<svg xmlns="http://www.w3.org/2000/svg" xmlns:xlink="http://www.w3.org/1999/xlink" viewBox="0 0 33.56 19.58"><defs><style>.cls-1{fill:none;}.cls-2{clip-path:url(#clip-path);}.cls-3{fill:#d50037;}.cls-4{fill:#f9f02a;}</style><clipPath id="clip-path"><rect class="cls-1" width="33.56" height="19.58"/></clipPath></defs><title>KGZ</title><g id="Layer_2" data-name="Layer 2"><g id="_4" data-name="4"><g id="KYRGYZSTAN"><g class="cls-2"><rect class="cls-3" width="33.56" height="19.58"/><g class="cls-2"><path class="cls-4" d="M22.68,9.81c-.76.19-1.58-.42-2.28-.29v0c.68-.32,1.8,0,2.21-.61-.72.31-1.62-.16-2.29.07v0c.62-.41,1.78-.24,2.08-.94-.66.41-1.62.1-2.25.43v0c.55-.51,1.71-.52,1.9-1.25-.58.51-1.57.35-2.15.77l0,0c.46-.58,1.61-.77,1.68-1.52-.49.59-1.49.59-2,1.09l0,0c.37-.64,1.47-1,1.42-1.77-.4.66-1.38.82-1.8,1.39l0,0c.27-.69,1.28-1.23,1.12-2C20,5.77,19,6.08,18.7,6.7l0,0c.16-.72,1.08-1.41.8-2.1-.17.74-1.05,1.2-1.28,1.86h0c.05-.73.84-1.55.46-2.2-.05.77-.85,1.35-1,2h0c-.06-.73.59-1.67.12-2.24.07.76-.63,1.46-.64,2.16h0c-.18-.72.32-1.73-.24-2.23.18.74-.39,1.55-.3,2.24h0c-.29-.68,0-1.77-.58-2.17.3.7-.15,1.59.06,2.25h0c-.39-.63-.23-1.75-.92-2.05.41.65.1,1.59.41,2.22l0,0c-.49-.56-.51-1.7-1.23-1.89.5.57.35,1.56.76,2.13l0,0c-.57-.47-.77-1.6-1.51-1.67.59.5.59,1.49,1.09,2l0,0c-.64-.37-1-1.47-1.76-1.43.66.4.82,1.39,1.39,1.81l0,0c-.7-.27-1.23-1.29-2-1.13.72.29,1,1.25,1.66,1.57l0,0c-.73-.14-1.42-1.08-2.13-.81.76.18,1.21,1.08,1.89,1.29v0c-.74,0-1.58-.85-2.23-.47.78.05,1.37.89,2.08,1V9c-.74.1-1.7-.59-2.29-.11.78-.07,1.5.67,2.22.64v0c-.72.22-1.78-.32-2.29.25.76-.19,1.59.42,2.3.29a.09.09,0,0,1,0,0c-.67.34-1.81,0-2.23.61.73-.31,1.65.17,2.32-.09v0c-.61.45-1.8.25-2.11,1,.67-.42,1.66-.09,2.29-.45h0c-.53.54-1.75.54-1.94,1.29.6-.53,1.63-.34,2.2-.81v0c-.43.62-1.65.81-1.72,1.58.51-.61,1.56-.59,2-1.14h0c-.33.69-1.5,1.06-1.45,1.83.41-.69,1.46-.83,1.84-1.45h0c-.21.73-1.32,1.29-1.15,2,.3-.75,1.32-1.05,1.6-1.73h0c-.09.76-1.11,1.48-.82,2.2.18-.78,1.14-1.24,1.31-2h0c0,.77-.86,1.63-.47,2.3.06-.8.93-1.41,1-2.14h0c.15.75-.59,1.75-.1,2.36-.07-.8.7-1.54.64-2.27h0c.27.71-.31,1.82.27,2.34-.2-.78.45-1.62.27-2.34h0c.38.67,0,1.84.63,2.27-.31-.75.19-1.68-.09-2.36h0c.47.61.26,1.83,1,2.14-.42-.68-.08-1.68-.46-2.3h0c.56.52.54,1.76,1.3,2-.53-.61-.34-1.64-.81-2.21h0c.63.43.81,1.65,1.59,1.73-.61-.51-.59-1.57-1.14-2.05h0c.69.33,1.06,1.5,1.83,1.46-.68-.41-.83-1.45-1.44-1.84h0c.73.22,1.27,1.31,2,1.15-.74-.3-1-1.3-1.71-1.59h0c.75.11,1.46,1.1,2.18.82-.77-.18-1.23-1.11-1.93-1.3v0c.76,0,1.61.86,2.27.47-.79-.05-1.38-.89-2.1-1v0c.75-.11,1.71.59,2.31.11-.78.07-1.5-.66-2.22-.64a.09.09,0,0,1,0,0c.72-.22,1.78.32,2.29-.25M20,10.18a3.46,3.46,0,0,1-.09.46H20l-.07,0a2.74,2.74,0,0,1-.16.44l.06,0h-.07a3,3,0,0,1-.23.41l.06,0h-.08a2.45,2.45,0,0,1-.29.37l.05,0-.07,0a3.37,3.37,0,0,1-.34.32l0,.05-.07,0a3.5,3.5,0,0,1-.39.26l0,.05-.06,0a2.76,2.76,0,0,1-.43.2l0,.05-.06,0a3.49,3.49,0,0,1-.46.13l0,.06,0-.05A3.12,3.12,0,0,1,17,13a.3.3,0,0,0,0,.07l0-.06H16.8l-.34,0a.33.33,0,0,0,0,.06l0-.07A3.64,3.64,0,0,1,16,12.9.31.31,0,0,0,16,13l0-.07a2.85,2.85,0,0,1-.45-.16l0,.06s0,0,0-.07a4.68,4.68,0,0,1-.41-.23l0,.05v-.07a3.17,3.17,0,0,1-.37-.29l0,.05,0-.07a4.14,4.14,0,0,1-.32-.35l0,0,0-.07a3.33,3.33,0,0,1-.26-.39l-.05,0,0-.06a3.43,3.43,0,0,1-.2-.43l-.06,0,0-.06a3,3,0,0,1-.13-.46l-.06,0,.06-.05a3.29,3.29,0,0,1-.06-.46h-.07l.06,0s0-.09,0-.13a2.88,2.88,0,0,1,0-.34h-.07l.07,0A2.88,2.88,0,0,1,13.71,9h-.06l.07,0a3.48,3.48,0,0,1,.16-.45l-.06,0h.08a3,3,0,0,1,.23-.41l-.06,0h.07a3.87,3.87,0,0,1,.29-.37l-.05,0,.07,0a2.69,2.69,0,0,1,.34-.32l0,0,.07,0A3.13,3.13,0,0,1,15.21,7l0-.05.06,0a2.91,2.91,0,0,1,.43-.2l0-.06.06.05a2.93,2.93,0,0,1,.45-.13l0-.06,0,.06a2.68,2.68,0,0,1,.47-.06.67.67,0,0,0,0-.07l0,.06h.13l.34,0a.41.41,0,0,0,0-.07l0,.07a3.64,3.64,0,0,1,.47.09.32.32,0,0,0,0-.06l0,.07.44.16,0-.06a.48.48,0,0,0,0,.07,3.66,3.66,0,0,1,.41.23l0-.05a.48.48,0,0,0,0,.07,4.07,4.07,0,0,1,.37.29l0-.05a.45.45,0,0,0,0,.08,3.1,3.1,0,0,1,.32.34l0-.05,0,.07a3,3,0,0,1,.27.39l.05,0,0,.06a2.54,2.54,0,0,1,.2.43l.06,0,0,.05a3.18,3.18,0,0,1,.13.46l.06,0-.06.05a3.26,3.26,0,0,1,.06.47h.07l-.06,0s0,.09,0,.13a3,3,0,0,1,0,.34h.07l-.07,0"/><path class="cls-4" d="M16.49,8a4.12,4.12,0,0,0-1.44-.32l-.12.11a4,4,0,0,1,1.37.3l.19-.1"/><path class="cls-4" d="M18.33,7.48a2.58,2.58,0,0,0-3.06,0,4.37,4.37,0,0,1,1.53.34,4.35,4.35,0,0,1,1.53-.34"/><path class="cls-4" d="M16.06,8.23a3.91,3.91,0,0,0-1.27-.3L14.71,8a3.84,3.84,0,0,1,1.2.3l.15-.11"/><path class="cls-4" d="M17.17,8.94,17,9.07a3.89,3.89,0,0,1,1.22,2.76l.23-.17a4,4,0,0,0-1.3-2.71"/><path class="cls-4" d="M17.3,8.07a4,4,0,0,1,1.37-.3l-.12-.11A4.09,4.09,0,0,0,17.11,8l.18.1"/><path class="cls-4" d="M17.6,8.65l-.18.12a4.14,4.14,0,0,1,1.39,2.55A2.16,2.16,0,0,0,19,11,4.28,4.28,0,0,0,17.6,8.65"/><path class="cls-4" d="M15.7,8.5a3.73,3.73,0,0,0-1.1-.3,2.68,2.68,0,0,0-.26,2.32,4.46,4.46,0,0,1,1.36-2"/><path class="cls-4" d="M17.7,8.34A3.85,3.85,0,0,1,18.9,8l-.08-.11a3.91,3.91,0,0,0-1.27.3l.15.11"/><path class="cls-4" d="M15.72,11.91s0,.08,0,.12a2.61,2.61,0,0,0,2.16,0s0-.08,0-.12A3.77,3.77,0,0,0,16.8,9.26a3.75,3.75,0,0,0-1.08,2.64"/><path class="cls-4" d="M16.8,8.11l-.19.1.19.1.19-.1-.19-.1"/><path class="cls-4" d="M17.9,8.5a4.46,4.46,0,0,1,1.36,2A2.68,2.68,0,0,0,19,8.19a3.73,3.73,0,0,0-1.1.3"/><path class="cls-4" d="M16.59,9.07l-.15-.12a4,4,0,0,0-1.3,2.71l.23.17a3.89,3.89,0,0,1,1.22-2.76"/><path class="cls-4" d="M16.65,8.76l.15.12L17,8.76l-.15-.12-.15.12"/><path class="cls-4" d="M16.19,8.77,16,8.65A4.29,4.29,0,0,0,14.6,11a2.34,2.34,0,0,0,.2.28,4.14,4.14,0,0,1,1.39-2.55"/><path class="cls-4" d="M17.05,8.48l.15.11.19-.11-.15-.11-.19.11"/><path class="cls-4" d="M16.21,8.48l.18.11.15-.11-.19-.11-.15.11"/></g></g></g></g></g></svg>