<?xml version="1.0" encoding="UTF-8"?>
<svg width="34px" height="20px" viewBox="0 0 34 20" version="1.1" xmlns="http://www.w3.org/2000/svg" xmlns:xlink="http://www.w3.org/1999/xlink">
    <!-- Generator: Sketch 49 (51002) - http://www.bohemiancoding.com/sketch -->
    <title>KHR</title>
    <desc>Created with Sketch.</desc>
    <defs></defs>
    <g id="Page-1" stroke="none" stroke-width="1" fill="none" fill-rule="evenodd">
        <g id="KHR" fill-rule="nonzero">
            <rect id="Rectangle-path" fill="#1A0095" x="0" y="0" width="33.56" height="19.57"></rect>
            <rect id="Rectangle-path" fill="#BA0019" x="0" y="4.89" width="33.56" height="9.79"></rect>
            <rect id="Rectangle-path" fill="#FFFFFF" x="10.56" y="9.77" width="12.45" height="2.01"></rect>
            <path d="M23,11.8 L10.56,11.8 L10.56,9.8 L23,9.74 L23,11.8 Z M23,9.8 L10.58,9.8 L10.58,11.8 L22.98,11.8 L22.98,9.8 L23,9.8 Z" id="Shape" fill="#BA0019"></path>
            <polygon id="Shape" fill="#FFFFFF" points="10.55 11.78 10.35 12.25 23.21 12.25 23.01 11.78"></polygon>
            <path d="M23.25,12.28 L10.31,12.28 L10.53,11.77 L23.02,11.77 L23.26,12.3 L23.25,12.28 Z M10.38,12.23 L23.18,12.23 L23,11.79 L10.56,11.79 L10.39,12.21 L10.38,12.23 Z" id="Shape" fill="#BA0019"></path>
            <polygon id="Shape" fill="#FFFFFF" points="20.38 11.78 20.14 12.25 23.06 12.25 22.82 11.78"></polygon>
            <path d="M23.1,12.28 L20.1,12.28 L20.36,11.76 L22.82,11.76 L23.11,12.29 L23.1,12.28 Z M20.17,12.23 L23,12.23 L22.78,11.8 L20.38,11.8 L20.18,12.22 L20.17,12.23 Z" id="Shape" fill="#BA0019"></path>
            <polygon id="Shape" fill="#FFFFFF" points="21.09 11.78 20.96 12.25 22.44 12.25 22.31 11.78"></polygon>
            <path d="M22.47,12.28 L21,12.28 L21.1,11.77 L22.35,11.77 L22.51,12.3 L22.47,12.28 Z M22.29,11.78 L21.08,11.78 L20.98,12.23 L22.4,12.23 L22.28,11.78 L22.29,11.78 Z" id="Shape" fill="#BA0019"></path>
            <polygon id="Shape" fill="#FFFFFF" points="21.3 11.78 21.23 12.25 22.18 12.25 22.1 11.78"></polygon>
            <path d="M22.21,12.28 L21.21,12.28 L21.26,11.78 L22.08,11.78 L22.19,12.31 L22.21,12.28 Z M22.08,11.78 L21.31,11.78 L21.26,12.23 L22.16,12.23 L22.08,11.78 Z" id="Shape" fill="#BA0019"></path>
            <polygon id="Shape" fill="#FFFFFF" points="15.5 11.78 15.24 12.25 18.32 12.25 18.06 11.78"></polygon>
            <path d="M18.36,12.28 L15.2,12.28 L15.47,11.76 L18.06,11.76 L18.36,12.29 L18.36,12.28 Z M15.28,12.23 L18.28,12.23 L18,11.79 L15.5,11.79 L15.28,12.21 L15.28,12.23 Z" id="Shape" fill="#BA0019"></path>
            <rect id="Rectangle-path" fill="#FFFFFF" x="10.49" y="9.74" width="12.59" height="1"></rect>
            <path d="M23.1,10.24 L10.49,10.24 L10.49,9.74 L23.1,9.74 L23.1,10.26 L23.1,10.24 Z M23,9.74 L10.44,9.74 L10.44,10.19 L22.98,10.19 L22.98,9.74 L23,9.74 Z" id="Shape" fill="#BA0019"></path>
            <rect id="Rectangle-path" fill="#FFFFFF" x="20.36" y="9.77" width="2.47" height="2"></rect>
            <path d="M22.85,11.8 L20.36,11.8 L20.36,9.8 L22.85,9.8 L22.85,11.85 L22.85,11.8 Z M22.85,9.8 L20.41,9.8 L20.41,11.8 L22.83,11.8 L22.83,9.8 L22.85,9.8 Z" id="Shape" fill="#BA0019"></path>
            <rect id="Rectangle-path" fill="#FFFFFF" x="22.13" y="10.71" width="1" height="1.07"></rect>
            <path d="M22.4,11.8 L22.13,11.8 L22.13,10.71 L22.4,10.71 L22.4,11.82 L22.4,11.8 Z M22.4,10.71 L22.18,10.71 L22.18,11.71 L22.38,11.71 L22.38,10.71 L22.4,10.71 Z" id="Shape" fill="#BA0019"></path>
            <rect id="Rectangle-path" fill="#FFFFFF" x="21.04" y="10.71" width="1" height="1.07"></rect>
            <path d="M21.31,11.8 L21,11.8 L21,10.71 L21.27,10.71 L21.27,11.82 L21.31,11.8 Z M21.26,10.71 L21.04,10.71 L21.04,11.71 L21.24,11.71 L21.24,10.71 L21.26,10.71 Z" id="Shape" fill="#BA0019"></path>
            <polygon id="Shape" fill="#FFFFFF" points="16.13 11.78 16 12.25 17.55 12.25 17.42 11.78"></polygon>
            <path d="M17.58,12.28 L16,12.28 L16.11,11.77 L17.42,11.77 L17.58,12.3 L17.58,12.28 Z M17.4,11.78 L16.14,11.78 L16.03,12.23 L17.52,12.23 L17.4,11.78 Z" id="Shape" fill="#BA0019"></path>
            <polygon id="Shape" fill="#FFFFFF" points="16.38 11.78 16.3 12.25 17.27 12.25 17.18 11.78"></polygon>
            <path d="M17.3,12.28 L16.3,12.28 L16.36,11.77 L17.19,11.77 L17.3,12.3 L17.3,12.28 Z M17.17,11.78 L16.38,11.78 L16.33,12.23 L17.24,12.23 L17.16,11.78 L17.17,11.78 Z" id="Shape" fill="#BA0019"></path>
            <rect id="Rectangle-path" fill="#FFFFFF" x="15.47" y="9.77" width="2.6" height="2.01"></rect>
            <path d="M18.09,11.8 L15.47,11.8 L15.47,9.8 L18.09,9.8 L18.09,11.86 L18.09,11.8 Z M18.09,9.8 L15.52,9.8 L15.52,11.8 L18.07,11.8 L18.07,9.8 L18.09,9.8 Z" id="Shape" fill="#BA0019"></path>
            <rect id="Rectangle-path" fill="#FFFFFF" x="17.54" y="10.71" width="1" height="1.07"></rect>
            <path d="M17.81,11.8 L17.54,11.8 L17.54,10.71 L17.81,10.71 L17.81,11.82 L17.81,11.8 Z M17.81,10.71 L17.59,10.71 L17.59,11.71 L17.79,11.71 L17.79,10.71 L17.81,10.71 Z" id="Shape" fill="#BA0019"></path>
            <rect id="Rectangle-path" fill="#FFFFFF" x="15.82" y="10.71" width="1" height="1.07"></rect>
            <path d="M16.1,11.8 L15.83,11.8 L15.83,10.71 L16.1,10.71 L16.1,11.82 L16.1,11.8 Z M16,10.71 L15.78,10.71 L15.78,11.71 L15.98,11.71 L15.98,10.71 L16,10.71 Z" id="Shape" fill="#BA0019"></path>
            <rect id="Rectangle-path" fill="#FFFFFF" x="16.15" y="9.28" width="1.26" height="2.5"></rect>
            <path d="M17.44,11.8 L16.15,11.8 L16.15,9.28 L17.43,9.28 L17.43,11.83 L17.44,11.8 Z M17.44,9.28 L16.21,9.28 L16.21,11.75 L17.42,11.75 L17.42,9.28 L17.44,9.28 Z" id="Shape" fill="#BA0019"></path>
            <rect id="Rectangle-path" fill="#FFFFFF" x="17.09" y="10.71" width="1" height="1.07"></rect>
            <path d="M17.37,11.8 L17.1,11.8 L17.1,10.71 L17.37,10.71 L17.37,11.82 L17.37,11.8 Z M17.37,10.71 L17.15,10.71 L17.15,11.71 L17.35,11.71 L17.35,10.71 L17.37,10.71 Z" id="Shape" fill="#BA0019"></path>
            <rect id="Rectangle-path" fill="#FFFFFF" x="16.27" y="10.71" width="1" height="1.07"></rect>
            <path d="M16.54,11.8 L16.27,11.8 L16.27,10.71 L16.54,10.71 L16.54,11.82 L16.54,11.8 Z M16.54,10.71 L16.32,10.71 L16.32,11.71 L16.52,11.71 L16.52,10.71 L16.54,10.71 Z" id="Shape" fill="#BA0019"></path>
            <polygon id="Shape" fill="#FFFFFF" points="16.23 9.68 16.77 10.45 17.33 9.68"></polygon>
            <path d="M16.77,10.49 L16.19,9.66 L17.38,9.66 L16.77,10.49 Z M16.28,9.7 L16.77,10.4 L17.28,9.7 L16.28,9.7 Z" id="Shape" fill="#BA0019"></path>
            <rect id="Rectangle-path" fill="#FFFFFF" x="21.34" y="9.77" width="1" height="2.48"></rect>
            <path d="M22.07,12.28 L21.35,12.28 L21.35,9.77 L22.07,9.77 L22.07,12.31 L22.07,12.28 Z M22.07,9.77 L21.39,9.77 L21.39,12.23 L22.04,12.23 L22.04,9.77 L22.07,9.77 Z" id="Shape" fill="#BA0019"></path>
            <rect id="Rectangle-path" fill="#FFFFFF" x="21.46" y="9.77" width="1" height="2.48"></rect>
            <path d="M21.95,12.28 L21.46,12.28 L21.46,9.77 L21.95,9.77 L21.95,12.31 L21.95,12.28 Z M21.95,9.77 L21.51,9.77 L21.51,12.23 L21.93,12.23 L21.93,9.77 L21.95,9.77 Z" id="Shape" fill="#BA0019"></path>
            <polygon id="Shape" fill="#FFFFFF" points="10.72 11.78 10.47 12.25 13.4 12.25 13.15 11.78"></polygon>
            <path d="M13.44,12.28 L10.44,12.28 L10.7,11.76 L13.16,11.76 L13.45,12.29 L13.44,12.28 Z M10.51,12.23 L13.36,12.23 L13.14,11.8 L10.72,11.8 L10.51,12.22 L10.51,12.23 Z" id="Shape" fill="#BA0019"></path>
            <polygon id="Shape" fill="#FFFFFF" points="11.3 11.78 11.19 12.25 12.56 12.25 12.45 11.78"></polygon>
            <path d="M12.59,12.28 L11.19,12.28 L11.28,11.77 L12.45,11.77 L12.6,12.3 L12.59,12.28 Z M12.42,11.78 L11.3,11.78 L11.21,12.23 L12.53,12.23 L12.42,11.78 Z" id="Shape" fill="#BA0019"></path>
            <polygon id="Shape" fill="#FFFFFF" points="11.51 11.78 11.43 12.25 12.31 12.25 12.24 11.78"></polygon>
            <path d="M12.34,12.28 L11.43,12.28 L11.43,11.78 L12.19,11.78 L12.29,12.31 L12.34,12.28 Z M12.21,11.78 L11.5,11.78 L11.5,12.23 L12.33,12.23 L12.26,11.78 L12.21,11.78 Z" id="Shape" fill="#BA0019"></path>
            <rect id="Rectangle-path" fill="#FFFFFF" x="10.7" y="9.77" width="2.45" height="2.01"></rect>
            <path d="M13.17,11.8 L10.7,11.8 L10.7,9.8 L13.17,9.8 L13.17,11.86 L13.17,11.8 Z M13.17,9.8 L10.75,9.8 L10.75,11.8 L13.15,11.8 L13.15,9.8 L13.17,9.8 Z" id="Shape" fill="#BA0019"></path>
            <rect id="Rectangle-path" fill="#FFFFFF" x="11.17" y="10.71" width="1" height="1.07"></rect>
            <path d="M11.45,11.8 L11.18,11.8 L11.18,10.71 L11.45,10.71 L11.45,11.82 L11.45,11.8 Z M11.45,10.71 L11.23,10.71 L11.23,11.71 L11.43,11.71 L11.43,10.71 L11.45,10.71 Z" id="Shape" fill="#BA0019"></path>
            <rect id="Rectangle-path" fill="#FFFFFF" x="12.31" y="10.71" width="1" height="1.07"></rect>
            <path d="M12.58,11.8 L12.31,11.8 L12.31,10.71 L12.58,10.71 L12.58,11.82 L12.58,11.8 Z M12.58,10.71 L12.36,10.71 L12.36,11.71 L12.56,11.71 L12.56,10.71 L12.58,10.71 Z" id="Shape" fill="#BA0019"></path>
            <rect id="Rectangle-path" fill="#FFFFFF" x="11.54" y="9.77" width="1" height="2.48"></rect>
            <path d="M12.26,12.28 L11.54,12.28 L11.54,9.77 L12.26,9.77 L12.26,12.31 L12.26,12.28 Z M12.21,9.77 L11.54,9.77 L11.54,12.23 L12.19,12.23 L12.19,9.77 L12.21,9.77 Z" id="Shape" fill="#BA0019"></path>
            <rect id="Rectangle-path" fill="#FFFFFF" x="11.65" y="9.77" width="1" height="2.48"></rect>
            <path d="M12.14,12.28 L11.65,12.28 L11.65,9.77 L12.14,9.77 L12.14,12.31 L12.14,12.28 Z M12.09,9.77 L11.65,9.77 L11.65,12.23 L12.07,12.23 L12.07,9.77 L12.09,9.77 Z" id="Shape" fill="#BA0019"></path>
            <rect id="Rectangle-path" fill="#FFFFFF" x="10.35" y="9.3" width="12.87" height="1"></rect>
            <path d="M23.24,9.79 L10.35,9.79 L10.35,9.3 L23.24,9.3 L23.24,9.82 L23.24,9.79 Z M23.19,9.3 L10.35,9.3 L10.35,9.75 L23.16,9.75 L23.16,9.3 L23.19,9.3 Z" id="Shape" fill="#BA0019"></path>
            <rect id="Rectangle-path" fill="#FFFFFF" x="9.99" y="12.14" width="13.53" height="1"></rect>
            <path d="M23.55,12.77 L10,12.77 L10,12.14 L23.55,12.14 L23.55,12.8 L23.55,12.77 Z M23.5,12.14 L10,12.14 L10,12.73 L23.48,12.73 L23.48,12.15 L23.5,12.14 Z" id="Shape" fill="#BA0019"></path>
            <rect id="Rectangle-path" fill="#FFFFFF" x="9.79" y="12.27" width="13.94" height="1"></rect>
            <path d="M23.75,12.9 L9.75,12.9 L9.75,12.26 L23.75,12.26 L23.75,12.92 L23.75,12.9 Z M23.7,12.26 L9.79,12.26 L9.79,12.84 L23.68,12.84 L23.68,12.25 L23.7,12.26 Z" id="Shape" fill="#BA0019"></path>
            <rect id="Rectangle-path" fill="#FFFFFF" x="9.42" y="12.61" width="14.71" height="1"></rect>
            <path d="M24.16,13.25 L9.42,13.25 L9.42,12.61 L24.16,12.61 L24.16,13.27 L24.16,13.25 Z M24.16,12.61 L9.47,12.61 L9.47,13.2 L24.14,13.2 L24.14,12.61 L24.16,12.61 Z" id="Shape" fill="#BA0019"></path>
            <rect id="Rectangle-path" fill="#FFFFFF" x="8.91" y="13.05" width="15.75" height="1"></rect>
            <path d="M24.68,13.68 L8.91,13.68 L8.91,13.05 L24.68,13.05 L24.68,13.71 L24.68,13.68 Z M24.68,13.05 L8.96,13.05 L8.96,13.64 L24.66,13.64 L24.66,13.06 L24.68,13.05 Z" id="Shape" fill="#BA0019"></path>
            <rect id="Rectangle-path" fill="#FFFFFF" x="8.39" y="13.66" width="16.77" height="1"></rect>
            <path d="M25.19,14.29 L8.39,14.29 L8.39,13.67 L25.19,13.67 L25.19,14.32 L25.19,14.29 Z M25.19,13.67 L8.44,13.67 L8.44,14.25 L25.17,14.25 L25.17,13.68 L25.19,13.67 Z" id="Shape" fill="#BA0019"></path>
            <rect id="Rectangle-path" fill="#FFFFFF" x="11.54" y="12.14" width="1" height="2.13"></rect>
            <path d="M12.26,14.29 L11.54,14.29 L11.54,12.13 L12.26,12.13 L12.26,14.31 L12.26,14.29 Z M12.21,12.13 L11.54,12.13 L11.54,14.24 L12.19,14.24 L12.19,12.14 L12.21,12.13 Z" id="Shape" fill="#BA0019"></path>
            <rect id="Rectangle-path" fill="#FFFFFF" x="11.65" y="12.14" width="1" height="2.13"></rect>
            <path d="M12.15,14.29 L11.66,14.29 L11.66,12.13 L12.15,12.13 L12.15,14.31 L12.15,14.29 Z M12.1,12.13 L11.66,12.13 L11.66,14.24 L12.08,14.24 L12.08,12.14 L12.1,12.13 Z" id="Shape" fill="#BA0019"></path>
            <rect id="Rectangle-path" fill="#FFFFFF" x="21.33" y="12.14" width="1" height="2.13"></rect>
            <path d="M22,14.29 L21.28,14.29 L21.28,12.13 L22.01,12.13 L22.01,14.31 L22,14.29 Z M22,12.13 L21.32,12.13 L21.32,14.24 L21.97,14.24 L21.97,12.14 L22,12.13 Z" id="Shape" fill="#BA0019"></path>
            <rect id="Rectangle-path" fill="#FFFFFF" x="21.44" y="12.14" width="1" height="2.13"></rect>
            <path d="M21.93,14.29 L21.44,14.29 L21.44,12.13 L21.93,12.13 L21.93,14.31 L21.93,14.29 Z M21.93,12.13 L21.49,12.13 L21.49,14.24 L21.9,14.24 L21.9,12.14 L21.93,12.13 Z" id="Shape" fill="#BA0019"></path>
            <rect id="Rectangle-path" fill="#FFFFFF" x="16.52" y="9.77" width="1" height="4.5"></rect>
            <path d="M17.11,14.29 L16.52,14.29 L16.52,9.77 L17.11,9.77 L17.11,14.32 L17.11,14.29 Z M17.11,9.77 L16.57,9.77 L16.57,14.25 L17.08,14.25 L17.08,9.77 L17.11,9.77 Z" id="Shape" fill="#BA0019"></path>
            <g id="Group" transform="translate(10.000000, 5.000000)">
                <path d="M10.52,4.79 L10.52,3.55 C10.52,3.55 10.65,3.79 11.62,3.85 C12.59,3.91 12.7,3.67 12.74,3.54 L12.74,4.79 L10.52,4.79 Z" id="Shape" fill="#FFFFFF"></path>
                <path d="M12.73,4.82 L10.52,4.82 L10.52,3.56 L10.52,3.46 L10.52,3.54 C10.52,3.54 10.66,3.77 11.6,3.82 C12.54,3.87 12.65,3.65 12.69,3.53 L12.69,4.81 L12.73,4.82 Z M10.55,3.62 L10.55,4.79 L12.68,4.79 L12.68,3.66 C12.58,3.77 12.32,3.87 11.59,3.89 C11.2136352,3.9100946 10.8392522,3.82343187 10.51,3.64 L10.55,3.62 Z" id="Shape" fill="#BA0019"></path>
                <path d="M11.15,3.34 L10.85,3.1 C10.95,3.04 11.14,3.1 11.14,3.1 C11.2447346,2.8932323 11.4414375,2.74848868 11.67,2.71 C11.8979279,2.74998016 12.0940302,2.89428187 12.2,3.1 C12.2,3.1 12.39,2.99 12.49,3.1 L12.19,3.34 L11.15,3.34 Z" id="Shape" fill="#FFFFFF"></path>
                <path d="M12.19,3.37 L11.19,3.37 L10.87,3.12 C10.8832947,3.08219223 10.9199872,3.05773062 10.96,3.06 C11.0366262,3.06497716 11.1114567,3.0853855 11.18,3.12 C11.18,3.12 11.28,2.84 11.7,2.73 C11.9391798,2.76785829 12.1466163,2.91602723 12.26,3.13 C12.3466323,3.07998282 12.4533677,3.07998282 12.54,3.13 L12.23,3.42 L12.19,3.37 Z M10.92,3.11 L10.86,3.11 L11.16,3.31 L12.16,3.31 L12.42,3.1 C12.3497382,3.10508158 12.2814561,3.1255662 12.22,3.16 C12.0873415,2.97025082 11.8929526,2.83241138 11.67,2.77 C11.4539628,2.81347542 11.2697317,2.95349106 11.17,3.15 C11.17,3.15 11.03,3.15 10.94,3.15 L10.92,3.11 Z" id="Shape" fill="#BA0019"></path>
                <path d="M11,4 L10.61,3.66 C10.74,3.57 10.98,3.72 10.98,3.72 C11.1123063,3.43961848 11.367177,3.23646065 11.67,3.17 C11.972823,3.23646065 12.2276937,3.43961848 12.36,3.72 C12.36,3.72 12.6,3.57 12.73,3.66 L12.34,4 L11,4 Z" id="Shape" fill="#FFFFFF"></path>
                <path d="M12.35,4 L11,4 L10.59,3.66 C10.6110537,3.61353082 10.6591869,3.58545308 10.71,3.59 C10.8087167,3.59952881 10.9042192,3.63022605 10.99,3.68 C10.99,3.68 11.12,3.29 11.66,3.13 C11.9740506,3.18785637 12.2415839,3.39222208 12.38,3.68 C12.4842031,3.59633148 12.6246964,3.57354879 12.75,3.62 L12.35,4 Z M10.71,3.63 C10.680618,3.6213887 10.649382,3.6213887 10.62,3.63 L11,4 L12.32,4 L12.7,3.68 C12.7,3.68 12.7,3.68 12.62,3.68 C12.5271081,3.68748801 12.4376421,3.718457 12.36,3.77 C12.2042554,3.50096806 11.9494199,3.30356025 11.65,3.22 C11.3754598,3.28144382 11.1395009,3.4556904 11,3.7 C11,3.7 10.82,3.63 10.71,3.63 Z" id="Shape" fill="#BA0019"></path>
                <path d="M11.67,1.46 C11.67,1.46 12.14,2.27 11.67,2.28 C11.2,2.29 11.67,1.48 11.67,1.46 Z" id="Shape" fill="#FFFFFF"></path>
                <path d="M11.66,2.31 C11.5851277,2.3161442 11.5126763,2.28182511 11.47,2.22 C11.36,2.04 11.55,1.65 11.62,1.49 C11.7446256,1.65977708 11.8206785,1.86027999 11.84,2.07 C11.8524666,2.13668198 11.8334733,2.20538624 11.7885261,2.25619617 C11.7435789,2.30700609 11.6777048,2.33423886 11.61,2.33 L11.66,2.31 Z M11.66,1.51 C11.6,1.65 11.41,2.04 11.5,2.19 C11.5331078,2.23939392 11.590877,2.26635292 11.65,2.26 C11.7215112,2.2634412 11.7882632,2.22417535 11.82,2.16 C11.9,1.99 11.72,1.62 11.66,1.5 L11.66,1.51 Z" id="Shape" fill="#BA0019"></path>
                <path d="M11.28,2.49 L11,2.36 C11.0717291,2.33830756 11.1482709,2.33830756 11.22,2.36 C11.22,2.36 11.3,2.22 11.63,2.15 C11.96,2.08 12.04,2.36 12.04,2.36 C12.1117291,2.33830756 12.1882709,2.33830756 12.26,2.36 L12.03,2.49 L11.28,2.49 Z" id="Shape" fill="#FFFFFF"></path>
                <path d="M12.08,2.52 L11.28,2.52 L11,2.36 C11.0787093,2.33967734 11.1612907,2.33967734 11.24,2.36 C11.24,2.36 11.33,2.21 11.64,2.15 C11.804557,2.16374288 11.9579843,2.23867251 12.07,2.36 C12.1378682,2.33556825 12.2121318,2.33556825 12.28,2.36 L12,2.52 L12.08,2.52 Z M11.08,2.38 L11.24,2.47 L12.02,2.47 L12.18,2.38 C12.1369171,2.37341176 12.0930829,2.37341176 12.05,2.38 C11.9369491,2.26565387 11.7893074,2.19183303 11.63,2.17 C11.32,2.23 11.25,2.36 11.25,2.37 C11.25,2.38 11.15,2.37 11.09,2.37 L11.08,2.38 Z" id="Shape" fill="#BA0019"></path>
                <path d="M11.47,2.59 L11.47,2.49 C11.5041117,2.39151222 11.5815122,2.31411173 11.68,2.28 C11.7784878,2.31411173 11.8558883,2.39151222 11.89,2.49 L11.89,2.59 L11.47,2.59 Z" id="Shape" fill="#FFFFFF"></path>
                <path d="M11.91,2.62 L11.48,2.62 L11.48,2.5 C11.5090734,2.39069833 11.5920977,2.30390017 11.7,2.27 C11.8121933,2.29777359 11.9025937,2.38064061 11.94,2.49 L11.94,2.62 L11.91,2.62 Z M11.67,2.31 C11.5848955,2.34365846 11.5190124,2.41320164 11.49,2.5 L11.49,2.59 L11.85,2.59 L11.85,2.49 C11.8175577,2.4040801 11.7475468,2.33775405 11.66,2.31 L11.67,2.31 Z" id="Shape" fill="#BA0019"></path>
                <path d="M11.27,2.9 L11.27,2.77 C11.3609907,2.61846626 11.5151263,2.51570924 11.69,2.49 C11.8654031,2.51432375 12.0200846,2.61744477 12.11,2.77 L12.11,2.9 L11.27,2.9 Z" id="Shape" fill="#FFFFFF"></path>
                <path d="M12.11,2.93 L11.27,2.93 L11.27,2.77 C11.27,2.77 11.36,2.55 11.71,2.47 C11.896156,2.49358915 12.0616133,2.60021717 12.16,2.76 L12.16,2.93 L12.11,2.93 Z M11.67,2.52 C11.5072023,2.54278785 11.3636494,2.63848977 11.28,2.78 L11.28,2.9 L12.05,2.9 L12.05,2.77 C11.95902,2.6328184 11.8131769,2.54166646 11.65,2.52 L11.67,2.52 Z" id="Shape" fill="#BA0019"></path>
                <path d="M11.27,3.11 L11.27,3 C11.3599154,2.84744477 11.5145969,2.74432375 11.69,2.72 C11.8659487,2.74287745 12.0212098,2.8463848 12.11,3 L12.11,3.14 L11.27,3.11 Z" id="Shape" fill="#FFFFFF"></path>
                <path d="M12.11,3.14 L11.27,3.14 L11.27,2.98 C11.27,2.98 11.36,2.76 11.71,2.68 C11.896156,2.70358915 12.0616133,2.81021717 12.16,2.97 L12.16,3.14 L12.11,3.14 Z M11.67,2.72 C11.5082382,2.74547601 11.3657324,2.84047989 11.28,2.98 L11.28,3.11 L12.05,3.11 L12.05,3 C11.9581041,2.86376311 11.8127291,2.77290376 11.65,2.75 L11.67,2.72 Z" id="Shape" fill="#BA0019"></path>
                <path d="M11.28,3.73 L11,3.39 C11.08,3.3 11.22,3.45 11.22,3.45 C11.2721659,3.21667231 11.4212884,3.01662996 11.63,2.9 C11.8378638,3.01759426 11.9866678,3.21720943 12.04,3.45 C12.04,3.45 12.18,3.3 12.26,3.39 L12.03,3.73 L11.28,3.73 Z" id="Shape" fill="#FFFFFF"></path>
                <path d="M12.09,3.76 L11.28,3.76 L11,3.41 C11.06,3.26 11.17,3.41 11.23,3.41 C11.2869515,3.18144882 11.4351513,2.98625883 11.64,2.87 C11.8532609,2.98107667 12.0094983,3.17728178 12.07,3.41 C12.12,3.41 12.24,3.31 12.3,3.41 L12.06,3.79 L12.09,3.76 Z M11.09,3.39 L11.32,3.7 L12.08,3.7 L12.3,3.38 C12.25,3.38 12.18,3.44 12.16,3.46 C12.111099,3.23344216 11.9696945,3.0376514 11.77,2.92 C11.5795225,3.04338713 11.4462978,3.23782309 11.4,3.46 C11.4,3.46 11.31,3.38 11.25,3.38 L11.09,3.39 Z" id="Shape" fill="#BA0019"></path>
                <path d="M11.28,4.14 L11,3.81 C11.08,3.72 11.22,3.88 11.22,3.88 C11.2721659,3.64667231 11.4212884,3.44662996 11.63,3.33 C11.8378638,3.44759426 11.9866678,3.64720943 12.04,3.88 C12.04,3.88 12.18,3.72 12.26,3.81 L12.03,4.15 L11.28,4.14 Z" id="Shape" fill="#FFFFFF"></path>
                <path d="M12.09,4.17 L11.28,4.17 L11,3.82 C11.06,3.67 11.17,3.82 11.23,3.82 C11.2904218,3.59567797 11.4380517,3.40483932 11.64,3.29 C11.8503,3.39979546 12.0059039,3.59158634 12.07,3.82 C12.12,3.82 12.24,3.72 12.3,3.82 L12.06,4.2 L12.09,4.17 Z M11.09,3.8 L11.32,4.1 L12.08,4.1 L12.3,3.78 C12.3,3.78 12.3,3.78 12.3,3.78 C12.3,3.78 12.18,3.84 12.16,3.86 C12.1099737,3.63394514 11.9688633,3.4385615 11.77,3.32 C11.5795225,3.44338713 11.4462978,3.63782309 11.4,3.86 C11.4,3.86 11.31,3.78 11.25,3.78 L11.09,3.8 Z" id="Shape" fill="#BA0019"></path>
                <path d="M11.27,4.77 L11.27,4.43 C11.316002,4.151788 11.4661668,3.90151326 11.69,3.73 C11.9153884,3.90012006 12.0659592,4.1510714 12.11,4.43 L12.11,4.77 L11.27,4.77 Z" id="Shape" fill="#FFFFFF"></path>
                <path d="M12.11,4.79 L11.27,4.79 L11.27,4.43 C11.3171061,4.14699431 11.4710203,3.89285686 11.7,3.72 C11.9443552,3.88342845 12.110709,4.14019196 12.16,4.43 L12.16,4.8 L12.11,4.79 Z M11.67,3.79 C11.4687762,3.9619381 11.3342916,4.19905559 11.29,4.46 L11.29,4.8 L12.06,4.8 L12.06,4.42 C12.0122727,4.15312194 11.8659173,3.91395585 11.65,3.75 L11.67,3.79 Z" id="Shape" fill="#BA0019"></path>
                <path d="M11.28,4.77 L11,4.52 C11.08,4.45 11.22,4.52 11.22,4.52 C11.2861024,4.32740381 11.4374038,4.17610237 11.63,4.11 C11.8217886,4.17739092 11.9726091,4.32821136 12.04,4.52 C12.04,4.52 12.18,4.41 12.26,4.52 L12.03,4.77 L11.28,4.77 Z" id="Shape" fill="#FFFFFF"></path>
                <path d="M12.08,4.79 L11.27,4.79 L11,4.53 C11,4.48 11,4.47 11.08,4.47 C11.1338692,4.47132507 11.1861096,4.48873856 11.23,4.52 C11.3022538,4.33355872 11.4518318,4.18762899 11.64,4.12 C11.8357539,4.18263659 11.9933944,4.32927898 12.07,4.52 C12.12,4.52 12.23,4.44 12.29,4.52 L12.05,4.81 L12.08,4.79 Z M11.08,4.52 L11.32,4.74 L12.08,4.74 L12.29,4.52 C12.2353261,4.52538794 12.1833073,4.54619545 12.14,4.58 C12.0743328,4.39855593 11.9314441,4.25566719 11.75,4.19 C11.5715894,4.25694562 11.4322898,4.39991104 11.37,4.58 C11.3264271,4.54666007 11.2745458,4.52590754 11.22,4.52 L11.08,4.52 Z" id="Shape" fill="#BA0019"></path>
                <path d="M1.38,3.25 L1.08,3 C1.18,2.94 1.37,3 1.37,3 C1.47596977,2.79428187 1.6720721,2.64998016 1.9,2.61 C2.1279279,2.64998016 2.32403023,2.79428187 2.43,3 C2.43,3 2.62,2.89 2.72,3 L2.42,3.24 L1.38,3.25 Z" id="Shape" fill="#FFFFFF"></path>
                <path d="M2.42,3.28 L1.42,3.28 L1.06,3 C1.0878461,2.98392305 1.1221539,2.98392305 1.15,3 C1.22801267,3.00467933 1.30362712,3.02873847 1.37,3.07 C1.37,3.07 1.47,2.79 1.88,2.68 C2.11798479,2.72075086 2.32426763,2.86809575 2.44,3.08 C2.5271511,3.031958 2.6328489,3.031958 2.72,3.08 L2.42,3.36 L2.42,3.28 Z M1.15,3 L1.08,3 L1.38,3.2 L2.38,3.2 L2.67,3 C2.59985362,3.00570157 2.53170105,3.02614734 2.47,3.06 C2.33734152,2.87025082 2.14295256,2.73241138 1.92,2.67 C1.70458125,2.71483865 1.52087958,2.85445192 1.42,3.05 C1.42,3.05 1.28,3.05 1.19,3.05 L1.15,3 Z" id="Shape" fill="#BA0019"></path>
                <path d="M1.22,3.88 L0.83,3.54 C0.96,3.45 1.2,3.61 1.2,3.61 C1.33230631,3.32961848 1.58717704,3.12646065 1.89,3.06 C2.19282296,3.12646065 2.44769369,3.32961848 2.58,3.61 C2.58,3.61 2.82,3.46 2.95,3.54 L2.56,3.88 L1.22,3.88 Z" id="Shape" fill="#FFFFFF"></path>
                <path d="M2.57,3.91 L1.22,3.91 L0.81,3.57 C0.831053677,3.52353082 0.879186933,3.49545308 0.93,3.5 C1.02905445,3.50785701 1.12491883,3.53867056 1.21,3.59 C1.21,3.59 1.33,3.2 1.88,3.03 C2.19611481,3.08996581 2.46406642,3.29837261 2.6,3.59 C2.70971166,3.49361703 2.86407687,3.46660312 3,3.52 L2.6,3.9 L2.57,3.91 Z M0.93,3.55 L0.84,3.55 L1.23,3.85 L2.55,3.85 L2.92,3.52 C2.92,3.52 2.92,3.52 2.84,3.52 C2.74719747,3.52791161 2.65783373,3.55884521 2.58,3.61 C2.42265504,3.34237146 2.16846099,3.14546058 1.87,3.06 C1.58043136,3.13247331 1.33837852,3.33051655 1.21,3.6 C1.21,3.6 1.03,3.53 0.92,3.53 L0.93,3.55 Z" id="Shape" fill="#BA0019"></path>
                <path d="M0.83,4.79 L0.83,3.55 C0.83,3.55 0.95,3.79 1.93,3.85 C2.91,3.91 3.01,3.67 3.05,3.54 L3.05,4.79 L0.83,4.79 Z" id="Shape" fill="#FFFFFF"></path>
                <path d="M3,4.82 L0.83,4.82 L0.83,3.56 L0.83,3.46 L0.83,3.54 C0.83,3.54 0.97,3.77 1.91,3.82 C2.85,3.87 3,3.66 3,3.53 L3,4.81 L3,4.82 Z M0.82,3.62 L0.82,4.79 L2.95,4.79 L2.95,3.66 C2.85,3.77 2.59,3.87 1.86,3.89 C1.48363519,3.9100946 1.1092522,3.82343187 0.78,3.64 L0.82,3.62 Z" id="Shape" fill="#BA0019"></path>
                <path d="M1.88,1.46 C1.88,1.46 2.35,2.27 1.88,2.28 C1.41,2.29 1.88,1.48 1.88,1.46 Z" id="Shape" fill="#FFFFFF"></path>
                <path d="M1.87,2.31 C1.79473506,2.31839194 1.72118584,2.28355283 1.68,2.22 C1.57,2.04 1.76,1.65 1.83,1.49 C1.95418284,1.66001742 2.03018766,1.86039377 2.05,2.07 C2.06310214,2.13854686 2.04290442,2.20924467 1.99556874,2.26052499 C1.94823306,2.31180531 1.87937436,2.33758529 1.81,2.33 L1.87,2.31 Z M1.87,1.51 C1.81,1.65 1.62,2.04 1.71,2.19 C1.74310777,2.23939392 1.80087704,2.26635292 1.86,2.26 C1.93151124,2.2634412 1.9982632,2.22417535 2.03,2.16 C2.11,1.99 1.93,1.62 1.87,1.5 L1.87,1.51 Z" id="Shape" fill="#BA0019"></path>
                <path d="M1.49,2.49 L1.26,2.37 C1.33172914,2.34830756 1.40827086,2.34830756 1.48,2.37 C1.48,2.37 1.56,2.23 1.89,2.16 C2.22,2.09 2.3,2.37 2.3,2.37 C2.37172914,2.34830756 2.44827086,2.34830756 2.52,2.37 L2.29,2.5 L1.49,2.49 Z" id="Shape" fill="#FFFFFF"></path>
                <path d="M2.29,2.52 L1.49,2.52 L1.2,2.36 C1.27548349,2.34095163 1.35451651,2.34095163 1.43,2.36 C1.43,2.36 1.52,2.21 1.83,2.15 C1.99429707,2.16468111 2.14740421,2.23945437 2.26,2.36 C2.32786818,2.33556825 2.40213182,2.33556825 2.47,2.36 L2.19,2.52 L2.29,2.52 Z M1.29,2.38 L1.46,2.47 L2.24,2.47 L2.4,2.38 C2.35691708,2.37341176 2.31308292,2.37341176 2.27,2.38 C2.15694911,2.26565387 2.00930744,2.19183303 1.85,2.17 C1.55,2.23 1.47,2.36 1.47,2.37 C1.47,2.38 1.37,2.37 1.31,2.37 L1.29,2.38 Z" id="Shape" fill="#BA0019"></path>
                <path d="M1.68,2.59 L1.68,2.49 C1.71411173,2.39151222 1.79151222,2.31411173 1.89,2.28 C1.98848778,2.31411173 2.06588827,2.39151222 2.1,2.49 L2.1,2.59 L1.68,2.59 Z" id="Shape" fill="#FFFFFF"></path>
                <path d="M2.11,2.62 L1.68,2.62 L1.68,2.5 C1.71422186,2.39020133 1.80020133,2.30422186 1.91,2.27 C2.02131477,2.29939642 2.11105323,2.38165667 2.15,2.49 L2.15,2.62 L2.11,2.62 Z M1.87,2.31 C1.78320743,2.34111768 1.71638418,2.41165332 1.69,2.5 L1.69,2.59 L2.05,2.59 L2.05,2.49 C2.01634154,2.40489545 1.94679836,2.33901243 1.86,2.31 L1.87,2.31 Z" id="Shape" fill="#BA0019"></path>
                <path d="M1.48,2.9 L1.48,2.77 C1.57099073,2.61846626 1.72512627,2.51570924 1.9,2.49 C2.07540306,2.51432375 2.23008459,2.61744477 2.32,2.77 L2.32,2.9 L1.48,2.9 Z" id="Shape" fill="#FFFFFF"></path>
                <path d="M2.32,2.93 L1.48,2.93 L1.48,2.77 C1.56937626,2.60459794 1.73337967,2.49277742 1.92,2.47 C2.10667153,2.49216486 2.27269735,2.59915929 2.37,2.76 L2.37,2.93 L2.32,2.93 Z M1.88,2.52 C1.71720232,2.54278785 1.57364943,2.63848977 1.49,2.78 L1.49,2.9 L2.26,2.9 L2.26,2.77 C2.16997852,2.63183766 2.02363848,2.54037513 1.86,2.52 L1.88,2.52 Z" id="Shape" fill="#BA0019"></path>
                <path d="M1.48,3.11 L1.48,3 C1.56991541,2.84744477 1.72459694,2.74432375 1.9,2.72 C2.07594873,2.74287745 2.23120977,2.8463848 2.32,3 L2.32,3.14 L1.48,3.11 Z" id="Shape" fill="#FFFFFF"></path>
                <path d="M2.32,3.14 L1.48,3.14 L1.48,2.98 C1.56937626,2.81459794 1.73337967,2.70277742 1.92,2.68 C2.10667153,2.70216486 2.27269735,2.80915929 2.37,2.97 L2.37,3.14 L2.32,3.14 Z M1.88,2.72 C1.71823821,2.74547601 1.57573239,2.84047989 1.49,2.98 L1.49,3.11 L2.26,3.11 L2.26,3 C2.16902003,2.8628184 2.02317693,2.77166646 1.86,2.75 L1.88,2.72 Z" id="Shape" fill="#BA0019"></path>
                <path d="M1.49,3.73 L1.26,3.39 C1.34,3.3 1.48,3.45 1.48,3.45 C1.53333216,3.21720943 1.6821362,3.01759426 1.89,2.9 C2.0978638,3.01759426 2.24666784,3.21720943 2.3,3.45 C2.3,3.45 2.44,3.3 2.52,3.39 L2.29,3.73 L1.49,3.73 Z" id="Shape" fill="#FFFFFF"></path>
                <path d="M2.3,3.76 L1.49,3.76 L1.24,3.41 C1.3,3.26 1.42,3.41 1.47,3.41 C1.52695148,3.18144882 1.67515129,2.98625883 1.88,2.87 C2.09245352,2.9820538 2.24836518,3.17784983 2.31,3.41 C2.36,3.41 2.48,3.31 2.53,3.41 L2.29,3.79 L2.3,3.76 Z M1.3,3.39 L1.53,3.7 L2.29,3.7 L2.51,3.38 C2.46,3.38 2.39,3.44 2.37,3.46 C2.31761282,3.23218359 2.17266283,3.03650111 1.97,2.92 C1.78107031,3.044968 1.6483309,3.23869579 1.6,3.46 C1.6,3.46 1.51,3.38 1.46,3.38 L1.3,3.39 Z" id="Shape" fill="#BA0019"></path>
                <path d="M1.49,4.14 L1.26,3.8 C1.34,3.71 1.48,3.87 1.48,3.87 C1.53216589,3.63667231 1.68128837,3.43662996 1.89,3.32 C2.0978638,3.43759426 2.24666784,3.63720943 2.3,3.87 C2.3,3.87 2.44,3.71 2.52,3.8 L2.29,4.14 L1.49,4.14 Z" id="Shape" fill="#FFFFFF"></path>
                <path d="M2.3,4.17 L1.49,4.17 L1.24,3.82 C1.3,3.67 1.42,3.82 1.47,3.82 C1.53042184,3.59567797 1.67805173,3.40483932 1.88,3.29 C2.09029995,3.39979546 2.24590388,3.59158634 2.31,3.82 C2.36,3.82 2.48,3.72 2.53,3.82 L2.29,4.2 L2.3,4.17 Z M1.3,3.8 L1.53,4.1 L2.29,4.1 L2.51,3.78 C2.51,3.78 2.51,3.78 2.51,3.78 C2.51,3.78 2.39,3.84 2.37,3.86 C2.31650199,3.63269717 2.17184784,3.43741406 1.97,3.32 C1.78181683,3.44572506 1.64930641,3.63911864 1.6,3.86 C1.6,3.86 1.51,3.78 1.46,3.78 L1.3,3.8 Z" id="Shape" fill="#BA0019"></path>
                <path d="M1.48,4.77 L1.48,4.43 C1.52503185,4.15143251 1.67539662,3.90082457 1.9,3.73 C2.12538838,3.90012006 2.27595918,4.1510714 2.32,4.43 L2.32,4.77 L1.48,4.77 Z" id="Shape" fill="#FFFFFF"></path>
                <path d="M2.32,4.79 L1.48,4.79 L1.48,4.43 C1.52710606,4.14699431 1.68102029,3.89285686 1.91,3.72 C2.15435516,3.88342845 2.32070898,4.14019196 2.37,4.43 L2.37,4.8 L2.32,4.79 Z M1.88,3.79 C1.67810499,3.96138342 1.54347111,4.19876422 1.5,4.46 L1.5,4.8 L2.27,4.8 L2.27,4.42 C2.22321505,4.15276491 2.07666409,3.9132792 1.86,3.75 L1.88,3.79 Z" id="Shape" fill="#BA0019"></path>
                <path d="M1.49,4.77 L1.26,4.52 C1.34,4.45 1.48,4.52 1.48,4.52 C1.54739092,4.32821136 1.69821136,4.17739092 1.89,4.11 C2.08178864,4.17739092 2.23260908,4.32821136 2.3,4.52 C2.3,4.52 2.44,4.41 2.52,4.52 L2.29,4.77 L1.49,4.77 Z" id="Shape" fill="#FFFFFF"></path>
                <path d="M2.29,4.79 L1.48,4.79 L1.23,4.53 C1.23,4.48 1.23,4.47 1.31,4.47 C1.36386916,4.47132507 1.41610963,4.48873856 1.46,4.52 C1.5322538,4.33355872 1.68183177,4.18762899 1.87,4.12 C2.06648938,4.18137476 2.22459988,4.32845429 2.3,4.52 C2.35,4.52 2.46,4.44 2.52,4.52 L2.28,4.81 L2.29,4.79 Z M1.29,4.52 L1.52,4.74 L2.29,4.74 L2.5,4.52 C2.44557577,4.52639085 2.39381813,4.54709391 2.35,4.58 C2.28433281,4.39855593 2.14144407,4.25566719 1.96,4.19 C1.78236156,4.25812291 1.64348673,4.40065235 1.58,4.58 C1.53642715,4.54666007 1.48454581,4.52590754 1.43,4.52 L1.29,4.52 Z" id="Shape" fill="#BA0019"></path>
                <path d="M5.36,4.21 L8.2,4.21 C8.33807119,4.21 8.45,4.32192881 8.45,4.46 C8.44486673,4.59588814 8.33588814,4.70486673 8.2,4.71 L5.36,4.71 C5.22411186,4.70486673 5.11513327,4.59588814 5.11,4.46 C5.11,4.32192881 5.22192881,4.21 5.36,4.21 Z" id="Shape" fill="#FFFFFF"></path>
                <path d="M8.2,4.75 L5.36,4.75 C5.20536027,4.75 5.08,4.62463973 5.08,4.47 C5.08,4.31536027 5.20536027,4.19 5.36,4.19 L8.2,4.19 C8.27426062,4.19 8.34547971,4.21949992 8.3979899,4.2720101 C8.45050008,4.32452029 8.48,4.39573938 8.48,4.47 C8.48,4.54426062 8.45050008,4.61547971 8.3979899,4.6679899 C8.34547971,4.72050008 8.27426062,4.75 8.2,4.75 Z M5.35,4.24 C5.22297451,4.24 5.12,4.34297451 5.12,4.47 C5.12,4.59702549 5.22297451,4.7 5.35,4.7 L8.2,4.7 C8.32702549,4.7 8.43,4.59702549 8.43,4.47 C8.43,4.34297451 8.32702549,4.24 8.2,4.24 L5.35,4.24 Z" id="Shape" fill="#BA0019"></path>
                <path d="M8.51,4.52 L8.51,2.84 C8.51,2.84 8.45,3.25 8.25,3.25 L5.25,3.25 C5.06,3.25 4.99,2.84 4.99,2.84 L4.99,4.52 L8.51,4.52 Z" id="Shape" fill="#FFFFFF"></path>
                <path d="M8.53,4.54 L5.05,4.54 L5.05,2.84 C5.05,2.95 5.14,3.23 5.29,3.23 L8.29,3.23 C8.43,3.23 8.51,2.94 8.52,2.84 L8.52,4.54 L8.53,4.54 Z M5.06,3 L5.06,4.48 L8.47,4.48 L8.5,3 C8.5,3.12 8.38,3.24 8.27,3.24 L5.27,3.24 C5.15,3.24 5.08,3.12 5.04,3 L5.06,3 Z" id="Shape" fill="#BA0019"></path>
                <path d="M7.85,3.75 L7.85,3.2 C7.85,3.2 8.22,3.1 8.17,2.96 C8.12,2.82 7.67,3.14 7.67,3.14 L5.89,3.14 C5.89,3.14 5.44,2.82 5.39,2.96 C5.34,3.1 5.71,3.2 5.71,3.2 L5.71,3.75 L7.85,3.75 Z" id="Shape" fill="#FFFFFF"></path>
                <path d="M7.87,3.78 L5.71,3.78 L5.71,3.21 C5.57059139,3.19545602 5.44542014,3.11814436 5.37,3 C5.35749677,2.97479893 5.35749677,2.94520107 5.37,2.92 C5.38295697,2.8877104 5.41529786,2.86749734 5.45,2.87 C5.61370297,2.91114328 5.76698685,2.98608207 5.9,3.09 L7.67,3.09 C7.79778995,2.98379534 7.94836231,2.90850916 8.11,2.87 C8.1454944,2.85277332 8.18824806,2.86399588 8.21070562,2.89643457 C8.23316318,2.92887327 8.2286182,2.97284104 8.2,3 C8.21250323,3.02520107 8.21250323,3.05479893 8.2,3.08 C8.14,3.2 7.88,3.27 7.87,3.27 L7.87,3.82 L7.87,3.78 Z M5.45,2.95 C5.45,2.95 5.45,2.95 5.45,2.95 C5.45,3.03 5.68,3.09 5.75,3.11 L5.75,3.68 L7.84,3.68 L7.84,3.2 C7.93,3.2 8.12,3.09 8.16,3.01 C8.16,3.01 8.16,3.01 8.16,3.01 C8.00734507,3.05115571 7.86451752,3.12256948 7.74,3.22 L5.94,3.22 C5.80921251,3.11846972 5.65969672,3.04371182 5.5,3 L5.45,2.95 Z" id="Shape" fill="#BA0019"></path>
                <path d="M8.06,4.23 L8.06,3.64 C8.06,3.64 8.51,3.57 8.44,3.43 C8.37,3.29 7.84,3.61 7.84,3.61 L5.71,3.61 C5.71,3.61 5.17,3.28 5.11,3.43 C5.05,3.58 5.49,3.64 5.49,3.64 L5.49,4.22 L8.06,4.23 Z" id="Shape" fill="#FFFFFF"></path>
                <path d="M8.08,4.25 L5.5,4.25 L5.5,3.64 C5.5,3.64 5.18,3.64 5.12,3.5 C5.10749677,3.47479893 5.10749677,3.44520107 5.12,3.42 C5.13768386,3.38213939 5.1791012,3.36143072 5.22,3.37 C5.41150874,3.41109844 5.59429437,3.48556666 5.76,3.59 L7.89,3.59 C8.05037356,3.48232784 8.23051928,3.40755037 8.42,3.37 C8.48,3.37 8.51,3.37 8.52,3.42 C8.53429062,3.44475209 8.53429062,3.47524791 8.52,3.5 C8.46,3.61 8.15,3.66 8.12,3.67 L8.12,4.25 L8.08,4.25 Z M5.18,3.42 C5.18,3.42 5.18,3.42 5.13,3.42 C5.08,3.42 5.41,3.59 5.49,3.6 L5.49,4.21 L8,4.2 L8,3.64 C8.11,3.64 8.34,3.55 8.38,3.47 C8.42,3.39 7.82,3.62 7.82,3.63 L5.71,3.63 C5.54834519,3.53398222 5.37299767,3.46316879 5.19,3.42 L5.18,3.42 Z" id="Shape" fill="#BA0019"></path>
                <path d="M7.09,1.26 L7.09,1 C6.83,1 6.89,0.75 6.89,0.65 C6.93988025,0.587502601 6.95535832,0.504267737 6.93127917,0.428017103 C6.90720003,0.351766469 6.84672667,0.292516264 6.77,0.27 C6.56,0.38 6.58,0.56 6.65,0.65 C6.72,0.74 6.74,1.01 6.45,1.01 L6.45,1.24 L7.09,1.26 Z" id="Shape" fill="#FFFFFF"></path>
                <path d="M7.12,1.29 L6.47,1.29 L6.47,1.04 C6.57,1.04 6.62,1.04 6.65,0.96 C6.67724407,0.892650855 6.67724407,0.817349145 6.65,0.75 C6.65,0.75 6.65,0.75 6.65,0.68 C6.6212418,0.619931275 6.6212418,0.550068725 6.65,0.49 C6.67222759,0.394867117 6.73938584,0.316515827 6.83,0.28 C6.92540475,0.303820408 7.00132156,0.375941373 7.03,0.47 C7.04938612,0.550278787 7.03096521,0.635014982 6.98,0.7 C6.93025941,0.795917472 6.93796719,0.911534087 7,1 C7.04419031,1.02150007 7.09580969,1.02150007 7.14,1 L7.14,1.25 L7.12,1.29 Z M6.77,0.29 C6.70786042,0.329438145 6.66177928,0.389698093 6.64,0.46 C6.61644917,0.510733451 6.61644917,0.569266549 6.64,0.62 C6.64169483,0.646639737 6.64169483,0.673360263 6.64,0.7 C6.67278725,0.780108322 6.67278725,0.869891678 6.64,0.95 C6.58835301,0.996586895 6.51903548,1.01847664 6.45,1.01 L6.45,1.22 L7.03,1.22 L7.03,1 C6.98421819,1.02904546 6.92578181,1.02904546 6.88,1 C6.84854688,0.916187079 6.84854688,0.823812921 6.88,0.74 L6.88,0.69 C6.93145652,0.634034439 6.95037111,0.555467944 6.93002328,0.482215757 C6.90967545,0.408963569 6.85294928,0.351408394 6.78,0.33 L6.77,0.29 Z" id="Shape" fill="#BA0019"></path>
                <path d="M7.54,2.77 L7.54,2.33 C7.54,2.33 7.8,2.24 7.77,2.13 C7.74,2.02 7.42,2.27 7.42,2.27 L6.15,2.27 C6.15,2.27 5.83,2.01 5.8,2.13 C5.77,2.25 6.03,2.33 6.03,2.33 L6.03,2.77 L7.54,2.77 Z" id="Shape" fill="#FFFFFF"></path>
                <path d="M7.56,2.79 L6,2.79 L6,2.33 C6,2.33 5.73,2.26 5.78,2.12 C5.78913167,2.08927093 5.81797034,2.06867188 5.85,2.07 C5.97043444,2.10658635 6.08022596,2.17177507 6.17,2.26 L7.42,2.26 C7.50567103,2.17373717 7.61261341,2.11164159 7.73,2.08 C7.76202966,2.07867188 7.79086833,2.09927093 7.8,2.13 C7.8,2.27 7.59,2.36 7.56,2.37 L7.56,2.81 L7.56,2.79 Z M5.84,2.11 C5.84,2.2 5.97,2.28 6.03,2.3 L6.03,2.76 L7.49,2.76 L7.49,2.33 C7.57,2.33 7.74,2.21 7.72,2.13 C7.7,2.05 7.46,2.24 7.41,2.29 L6.15,2.29 C6.05916978,2.21067 5.95392306,2.149559 5.84,2.11 Z" id="Shape" fill="#BA0019"></path>
                <path d="M7.69,3.16 L7.69,2.68 C7.69,2.68 8.01,2.62 7.96,2.51 C7.91,2.4 7.54,2.66 7.54,2.66 L6,2.66 C6,2.66 5.62,2.39 5.58,2.51 C5.54,2.63 5.85,2.68 5.85,2.68 L5.85,3.16 L7.69,3.16 Z" id="Shape" fill="#FFFFFF"></path>
                <path d="M7.71,3.18 L5.87,3.18 L5.87,2.68 C5.77069744,2.68721361 5.67397332,2.64629187 5.61,2.57 C5.5974957,2.54834192 5.5974957,2.52165808 5.61,2.5 C5.6340398,2.48326084 5.6659602,2.48326084 5.69,2.5 C5.83056531,2.53378884 5.96309149,2.59495476 6.08,2.68 L7.59,2.68 C7.69952267,2.59500094 7.82552278,2.53370359 7.96,2.5 C7.9840398,2.48326084 8.0159602,2.48326084 8.04,2.5 C8.05075004,2.52209516 8.05075004,2.54790484 8.04,2.57 C7.99,2.66 7.78,2.7 7.75,2.71 L7.75,3.18 L7.71,3.18 Z M5.65,2.5 C5.65,2.55 5.82,2.59 5.9,2.61 L5.9,3.11 L7.66,3.11 L7.66,2.68 C7.74,2.68 7.9,2.61 7.93,2.55 C7.80332781,2.58320354 7.68441042,2.64096341 7.58,2.72 L6,2.72 C5.88921239,2.63705464 5.76364222,2.57596644 5.63,2.54 L5.65,2.5 Z" id="Shape" fill="#BA0019"></path>
                <path d="M7.27,2.07 L7.27,1.78 C7.27,1.78 7.44,1.71 7.42,1.63 C7.4,1.55 7.19,1.73 7.19,1.73 L6.37,1.73 C6.37,1.73 6.16,1.55 6.14,1.63 C6.12,1.71 6.29,1.78 6.29,1.78 L6.29,2.07 L7.27,2.07 Z" id="Shape" fill="#FFFFFF"></path>
                <path d="M7.3,2.09 L6.3,2.09 L6.3,1.77 C6.3,1.77 6.13,1.71 6.15,1.61 C6.22,1.61 6.34,1.72 6.37,1.74 L7.17,1.74 C7.2236434,1.6814812 7.29312181,1.63979415 7.37,1.62 C7.37,1.72 7.23,1.8 7.21,1.8 L7.21,2.09 L7.3,2.09 Z M6.18,1.63 C6.18,1.63 6.26,1.73 6.31,1.75 L6.31,2.06 L7.24,2.06 L7.24,1.77 C7.31,1.77 7.4,1.68 7.39,1.63 C7.32202227,1.65798421 7.2581163,1.6949824 7.2,1.74 L6.36,1.74 C6.30152523,1.6877076 6.2336579,1.6469872 6.16,1.62 L6.18,1.63 Z" id="Shape" fill="#BA0019"></path>
                <path d="M7.37,2.33 L7.37,2 C7.37,2 7.57,1.93 7.55,1.85 C7.53,1.77 7.28,1.95 7.28,1.95 L6.28,1.95 C6.28,1.95 6,1.81 6,1.89 C6,1.97 6.18,2.04 6.18,2.04 L6.18,2.33 L7.37,2.33 Z" id="Shape" fill="#FFFFFF"></path>
                <path d="M7.39,2.36 L6.2,2.36 L6.2,2.04 C6.2,2.04 6,2 6,1.94 C6.01777778,1.92666667 6.04222222,1.92666667 6.06,1.94 C6.14292768,1.94559292 6.22419655,1.96591014 6.3,2 L7.3,2 C7.36909311,1.94114156 7.45145738,1.89995942 7.54,1.88 C7.54615535,1.89609834 7.54615535,1.91390166 7.54,1.93 C7.54,2 7.37,2.05 7.35,2.06 L7.35,2.35 L7.39,2.36 Z M6,1.89 C6,1.95 6.1,2 6.15,2.01 L6.15,2.32 L7.27,2.32 L7.27,2 C7.34,2 7.43,1.92 7.45,1.88 C7.47,1.84 7.28,1.88 7.22,1.97 L6.22,1.97 C6.15144767,1.93167226 6.07715938,1.90465833 6,1.89 Z" id="Shape" fill="#BA0019"></path>
                <path d="M7.13,1.55 L7.13,1.29 C7.13,1.29 7.25,1.23 7.23,1.16 C7.21,1.09 7.07,1.25 7.07,1.25 L6.49,1.25 C6.49,1.25 6.34,1.1 6.33,1.16 C6.32,1.22 6.43,1.29 6.43,1.29 L6.43,1.52 L7.13,1.55 Z" id="Shape" fill="#FFFFFF"></path>
                <path d="M7.15,1.58 L6.43,1.58 L6.43,1.33 C6.43,1.33 6.31,1.28 6.33,1.19 C6.38,1.19 6.46,1.28 6.49,1.3 L7.05,1.3 C7.05,1.3 7.14,1.2 7.19,1.2 C7.19,1.29 7.09,1.35 7.07,1.36 L7.07,1.63 L7.15,1.58 Z M6.35,1.17 C6.35,1.17 6.41,1.26 6.44,1.26 L6.44,1.51 L7.08,1.51 L7.08,1.29 C7.08,1.29 7.19,1.21 7.18,1.17 L7.06,1.26 L6.46,1.26 C6.4179881,1.22331183 6.37081872,1.19298867 6.32,1.17 L6.35,1.17 Z" id="Shape" fill="#BA0019"></path>
                <path d="M7.2,1.74 L7.2,1.51 C7.2,1.51 7.35,1.45 7.32,1.38 C7.29,1.31 7.13,1.46 7.13,1.46 L6.43,1.46 C6.43,1.46 6.26,1.31 6.24,1.38 C6.22,1.45 6.37,1.51 6.37,1.51 L6.37,1.74 L7.2,1.74 Z" id="Shape" fill="#FFFFFF"></path>
                <path d="M7.22,1.76 L6.37,1.76 L6.37,1.51 C6.37,1.51 6.22,1.46 6.25,1.37 C6.31,1.37 6.41,1.46 6.44,1.48 L7.12,1.48 C7.16590889,1.43105944 7.22491885,1.3963477 7.29,1.38 C7.29,1.47 7.18,1.52 7.15,1.54 L7.15,1.77 L7.22,1.76 Z M6.22,1.39 C6.22,1.39 6.28,1.46 6.33,1.49 L6.33,1.74 L7.11,1.74 L7.11,1.54 C7.18,1.54 7.24,1.45 7.24,1.42 C7.18068267,1.43783479 7.12604436,1.46856883 7.08,1.51 L6.37,1.51 C6.31969579,1.46687165 6.26213659,1.4330133 6.2,1.41 L6.22,1.39 Z" id="Shape" fill="#BA0019"></path>
                <path d="M6.56,1.75 L6.43,1.61 C6.43,1.61 6.55,1.61 6.55,1.61 C6.58704975,1.50193822 6.67193822,1.41704975 6.78,1.38 C6.88890579,1.41568674 6.97431326,1.50109421 7.01,1.61 C7.01,1.61 7.09,1.54 7.13,1.61 L7,1.75 L6.56,1.75 Z" id="Shape" fill="#FFFFFF"></path>
                <path d="M7,1.77 L6.55,1.77 L6.37,1.57 L6.46,1.57 C6.48617495,1.56275776 6.51382505,1.56275776 6.54,1.57 C6.58391362,1.46868697 6.66683623,1.3893697 6.77,1.35 C6.88070388,1.38466404 6.97154221,1.46460177 7.02,1.57 L7.1,1.57 L7,1.77 Z M6.45,1.61 L6.56,1.73 L7,1.73 L7.12,1.6 L7,1.65 C6.9685294,1.54770087 6.89072558,1.46619211 6.79,1.43 C6.69776832,1.47232165 6.62844545,1.55259024 6.6,1.65 C6.57367094,1.64399905 6.54632906,1.64399905 6.52,1.65 L6.45,1.61 Z" id="Shape" fill="#BA0019"></path>
                <path d="M6.47,2 L6.29,1.86 C6.35,1.86 6.46,1.86 6.46,1.86 C6.50302985,1.7221982 6.6306362,1.62836158 6.775,1.62836158 C6.9193638,1.62836158 7.04697015,1.7221982 7.09,1.86 C7.09,1.86 7.2,1.8 7.26,1.86 L7.09,2 L6.47,2 Z" id="Shape" fill="#FFFFFF"></path>
                <path d="M7.1,2 L6.47,2 L6.27,1.85 C6.27,1.8 6.27,1.8 6.33,1.8 C6.37273324,1.78980117 6.41726676,1.78980117 6.46,1.8 C6.46,1.8 6.53,1.63 6.77,1.57 C6.91392478,1.59415407 7.03904398,1.68247351 7.11,1.81 C7.16197971,1.77740589 7.22802029,1.77740589 7.28,1.81 L7.1,2 Z M6.35,1.85 L6.49,1.96 L7.08,1.96 L7.21,1.86 C7.17698069,1.85352936 7.14301931,1.85352936 7.11,1.86 C7.02552202,1.74752572 6.90583232,1.66655916 6.77,1.63 C6.64363297,1.65255338 6.5357669,1.73438282 6.48,1.85 C6.48,1.85 6.39,1.85 6.34,1.85 L6.35,1.85 Z" id="Shape" fill="#BA0019"></path>
                <path d="M6.43,2.4 L6.22,2.21 C6.29,2.16 6.42,2.21 6.42,2.21 C6.48314707,2.05275884 6.61643981,1.9342764 6.78,1.89 C6.94356019,1.9342764 7.07685293,2.05275884 7.14,2.21 C7.14,2.21 7.27,2.12 7.34,2.21 L7.13,2.4 L6.43,2.4 Z" id="Shape" fill="#FFFFFF"></path>
                <path d="M7.14,2.43 L6.42,2.43 L6.2,2.23 C6.2,2.18 6.2,2.17 6.27,2.17 C6.32277054,2.17677639 6.37371774,2.19375879 6.42,2.22 C6.42,2.22 6.49,2 6.77,1.91 C6.94001895,1.94939463 7.08326074,2.06325349 7.16,2.22 C7.21817534,2.1838518 7.29182466,2.1838518 7.35,2.22 L7.14,2.46 L7.14,2.43 Z M6.27,2.22 L6.48,2.38 L7.16,2.38 L7.33,2.22 C7.28013783,2.22580156 7.23225633,2.24290209 7.19,2.27 C7.10159511,2.12476847 6.96815768,2.0124001 6.81,1.95 C6.66123202,1.99659971 6.54052518,2.1063332 6.48,2.25 C6.48,2.25 6.37,2.25 6.31,2.25 L6.27,2.22 Z" id="Shape" fill="#BA0019"></path>
                <path d="M6.34,2.91 L6.08,2.67 C6.17,2.61 6.32,2.67 6.32,2.67 C6.39958447,2.47390712 6.56592889,2.32604542 6.77,2.27 C6.97785611,2.32328733 7.14836622,2.47155699 7.23,2.67 C7.23,2.67 7.39,2.56 7.47,2.67 L7.21,2.91 L6.34,2.91 Z" id="Shape" fill="#FFFFFF"></path>
                <path d="M7.23,2.93 L6.34,2.93 L6.07,2.68 C6.07,2.63 6.12,2.62 6.15,2.62 C6.21839165,2.6261986 6.28393409,2.65034582 6.34,2.69 C6.34,2.69 6.43,2.41 6.78,2.3 C6.99186731,2.34843671 7.16921853,2.49253457 7.26,2.69 C7.33295551,2.64252119 7.42704449,2.64252119 7.5,2.69 L7.24,2.98 L7.23,2.93 Z M6.15,2.67 L6.1,2.67 L6.36,2.87 L7.22,2.87 L7.45,2.66 C7.38886283,2.66383396 7.32999948,2.68460926 7.28,2.72 C7.17176562,2.53679998 7.00147671,2.39844024 6.8,2.33 C6.60927229,2.38580386 6.45455075,2.52579002 6.38,2.71 C6.38,2.71 6.25,2.71 6.18,2.71 L6.15,2.67 Z" id="Shape" fill="#BA0019"></path>
                <polygon id="Shape" fill="#FFFFFF" points="6.28 3.32 6.77 3.94 7.29 3.32"></polygon>
                <path d="M6.77,4 L6.23,3.33 L7.35,3.33 L6.77,4 Z M6.33,3.38 L6.77,3.92 L7.24,3.38 L6.33,3.38 Z" id="Shape" fill="#BA0019"></path>
                <path d="M6.25,3.4 L5.94,3.13 C6.04,3.06 6.23,3.18 6.23,3.18 C6.3308783,2.95664222 6.53087039,2.79368571 6.77,2.74 C7.00912961,2.79368571 7.2091217,2.95664222 7.31,3.18 C7.31,3.18 7.5,3.06 7.6,3.13 L7.29,3.4 L6.25,3.4 Z" id="Shape" fill="#FFFFFF"></path>
                <path d="M7.32,3.42 L6.25,3.42 L5.92,3.14 C5.93357475,3.09666908 5.97463999,3.06792341 6.02,3.07 C6.09881179,3.07810179 6.17439273,3.10558577 6.24,3.15 C6.24,3.15 6.34,2.83 6.77,2.71 C7.0176781,2.76093685 7.22800375,2.92329348 7.34,3.15 C7.41940935,3.07978364 7.53166192,3.06042975 7.63,3.1 L7.32,3.42 Z M6,3.13 C5.97762264,3.12055416 5.95237736,3.12055416 5.93,3.13 L6.24,3.36 L7.24,3.36 L7.52,3.11 C7.44871181,3.11708092 7.38014435,3.14107953 7.32,3.18 C7.19122894,2.96764188 6.98804527,2.81079835 6.75,2.74 C6.52417201,2.79354826 6.33585768,2.94863065 6.24,3.16 C6.24,3.16 6.09,3.11 6,3.11 L6,3.13 Z" id="Shape" fill="#BA0019"></path>
                <polygon id="Shape" fill="#FFFFFF" points="6.23 4 6.77 4.77 7.33 4"></polygon>
                <path d="M6.77,4.81 L6.19,4 L7.38,4 L6.77,4.83 L6.77,4.81 Z M6.28,4 L6.77,4.7 L7.28,4 L6.28,4 Z" id="Shape" fill="#BA0019"></path>
                <path d="M6.21,4.09 L5.87,3.75 C5.98,3.66 6.19,3.82 6.19,3.82 C6.29153338,3.5556307 6.50916447,3.35275427 6.78,3.27 C7.05083553,3.35275427 7.26846662,3.5556307 7.37,3.82 C7.37,3.82 7.58,3.67 7.69,3.75 L7.36,4.09 L6.21,4.09 Z" id="Shape" fill="#FFFFFF"></path>
                <path d="M7.36,4.11 L6.21,4.11 L5.86,3.77 C5.87357475,3.72666908 5.91463999,3.69792341 5.96,3.7 C6.03943309,3.70527799 6.11573038,3.73302245 6.18,3.78 C6.29523833,3.52368856 6.5130078,3.32769604 6.78,3.24 C7.05076128,3.32526135 7.27252756,3.52157903 7.39,3.78 C7.46,3.78 7.63,3.67 7.71,3.78 L7.37,4.16 L7.36,4.11 Z M6,3.74 C5.97762264,3.73055416 5.95237736,3.73055416 5.93,3.74 L6.27,4.04 L7.39,4.04 L7.71,3.71 C7.71,3.71 7.71,3.71 7.65,3.71 C7.57004826,3.72020782 7.49418203,3.751244 7.43,3.8 C7.32930852,3.54084981 7.11567302,3.34194779 6.85,3.26 C6.5919235,3.34711812 6.38644203,3.54526096 6.29,3.8 C6.20207327,3.74993472 6.10057438,3.72893495 6,3.74 Z" id="Shape" fill="#BA0019"></path>
                <path d="M6.21,4.77 L5.87,4.43 C5.98,4.34 6.19,4.49 6.19,4.49 C6.29279305,4.22648307 6.50992645,4.02407058 6.78,3.94 C7.05007355,4.02407058 7.26720695,4.22648307 7.37,4.49 C7.37,4.49 7.58,4.34 7.69,4.43 L7.36,4.77 L6.21,4.77 Z" id="Shape" fill="#FFFFFF"></path>
                <path d="M7.36,4.79 L6.21,4.79 L5.86,4.45 C5.87357475,4.40666908 5.91463999,4.37792341 5.96,4.38 C6.03817286,4.38380477 6.11400176,4.40793215 6.18,4.45 C6.29523833,4.19368856 6.5130078,3.99769604 6.78,3.91 C7.05076128,3.99526135 7.27252756,4.19157903 7.39,4.45 C7.45,4.45 7.63,4.34 7.71,4.45 L7.37,4.83 L7.36,4.79 Z M6,4.43 L5.93,4.43 L6.27,4.73 L7.39,4.73 L7.71,4.41 L7.6,4.41 C7.51953028,4.41818985 7.44313713,4.4494416 7.38,4.5 C7.26321268,4.24929602 7.03874966,4.06530994 6.77,4 C6.51116149,4.08586138 6.30521383,4.28445376 6.21,4.54 C6.15168994,4.48438047 6.07892428,4.44626512 6,4.43 Z" id="Shape" fill="#BA0019"></path>
                <rect id="Rectangle-path" fill="#FFFFFF" x="3.36" y="5.71" width="1" height="1.07"></rect>
                <path d="M3.63,6.8 L3.36,6.8 L3.36,5.71 L3.63,5.71 L3.63,6.82 L3.63,6.8 Z M3.63,5.71 L3.41,5.71 L3.41,6.71 L3.61,6.71 L3.61,5.71 L3.63,5.71 Z" id="Shape" fill="#BA0019"></path>
                <rect id="Rectangle-path" fill="#FFFFFF" x="4.2" y="5.71" width="1" height="1.07"></rect>
                <path d="M4.47,6.8 L4.2,6.8 L4.2,5.71 L4.47,5.71 L4.47,6.82 L4.47,6.8 Z M4.47,5.71 L4.25,5.71 L4.25,6.71 L4.45,6.71 L4.45,5.71 L4.47,5.71 Z" id="Shape" fill="#BA0019"></path>
                <rect id="Rectangle-path" fill="#FFFFFF" x="3.8" y="5.71" width="1" height="1.07"></rect>
                <path d="M4.07,6.8 L3.8,6.8 L3.8,5.71 L4.07,5.71 L4.07,6.82 L4.07,6.8 Z M4.07,5.71 L3.85,5.71 L3.85,6.71 L4.05,6.71 L4.05,5.71 L4.07,5.71 Z" id="Shape" fill="#BA0019"></path>
                <rect id="Rectangle-path" fill="#FFFFFF" x="8.29" y="5.71" width="1" height="1.07"></rect>
                <path d="M8.56,6.8 L8.29,6.8 L8.29,5.71 L8.56,5.71 L8.56,6.82 L8.56,6.8 Z M8.56,5.71 L8.34,5.71 L8.34,6.71 L8.54,6.71 L8.54,5.71 L8.56,5.71 Z" id="Shape" fill="#BA0019"></path>
                <rect id="Rectangle-path" fill="#FFFFFF" x="9.96" y="5.71" width="1" height="1.07"></rect>
                <path d="M10.23,6.8 L10,6.8 L10,5.71 L10.27,5.71 L10.27,6.82 L10.23,6.8 Z M10.23,5.71 L10.01,5.71 L10.01,6.71 L10.21,6.71 L10.21,5.71 L10.23,5.71 Z" id="Shape" fill="#BA0019"></path>
                <rect id="Rectangle-path" fill="#FFFFFF" x="9.12" y="5.71" width="1" height="1.07"></rect>
                <path d="M9.39,6.8 L9.12,6.8 L9.12,5.71 L9.39,5.71 L9.39,6.82 L9.39,6.8 Z M9.39,5.71 L9.17,5.71 L9.17,6.71 L9.37,6.71 L9.37,5.71 L9.39,5.71 Z" id="Shape" fill="#BA0019"></path>
                <rect id="Rectangle-path" fill="#FFFFFF" x="8.73" y="5.71" width="1" height="1.07"></rect>
                <path d="M9,6.8 L8.73,6.8 L8.73,5.71 L9,5.71 L9,6.82 L9,6.8 Z M9,5.71 L8.78,5.71 L8.78,6.71 L8.98,6.71 L8.98,5.71 L9,5.71 Z" id="Shape" fill="#BA0019"></path>
                <rect id="Rectangle-path" fill="#FFFFFF" x="9.52" y="5.71" width="1" height="1.07"></rect>
                <path d="M9.79,6.8 L9.52,6.8 L9.52,5.71 L9.79,5.71 L9.79,6.82 L9.79,6.8 Z M9.74,5.71 L9.52,5.71 L9.52,6.71 L9.72,6.71 L9.72,5.71 L9.74,5.71 Z" id="Shape" fill="#BA0019"></path>
                <rect id="Rectangle-path" fill="#FFFFFF" x="5.04" y="5.71" width="1" height="1.07"></rect>
                <path d="M5.31,6.8 L5,6.8 L5,5.71 L5.27,5.71 L5.27,6.82 L5.31,6.8 Z M5.31,5.71 L5.09,5.71 L5.09,6.71 L5.29,6.71 L5.29,5.71 L5.31,5.71 Z" id="Shape" fill="#BA0019"></path>
                <rect id="Rectangle-path" fill="#FFFFFF" x="4.59" y="5.71" width="1" height="1.07"></rect>
                <path d="M4.86,6.8 L4.59,6.8 L4.59,5.71 L4.86,5.71 L4.86,6.82 L4.86,6.8 Z M4.86,5.71 L4.64,5.71 L4.64,6.71 L4.84,6.71 L4.84,5.71 L4.86,5.71 Z" id="Shape" fill="#BA0019"></path>
                <rect id="Rectangle-path" fill="#FFFFFF" x="6.52" y="0.85" width="1" height="1"></rect>
                <path d="M7.06,1.06 L6.52,1.06 L6.52,0.85 L7.06,0.85 L7.06,1.09 L7.06,1.06 Z M7,0.85 L6.51,0.85 L6.51,1.02 L7,1 L7,0.85 Z" id="Shape" fill="#BA0019"></path>
                <rect id="Rectangle-path" fill="#FFFFFF" x="6.59" y="0.66" width="1" height="1"></rect>
                <path d="M7,0.87 L6.6,0.87 L6.6,0.66 L7,0.66 L7,0.9 L7,0.87 Z M7,0.66 L6.65,0.66 L6.65,0.82 L6.98,0.82 L6.98,0.66 L7,0.66 Z" id="Shape" fill="#BA0019"></path>
            </g>
        </g>
    </g>
</svg>