<svg xmlns="http://www.w3.org/2000/svg" xmlns:xlink="http://www.w3.org/1999/xlink" viewBox="0 0 33.56 19.58"><defs><style>.cls-1{fill:none;}.cls-2{clip-path:url(#clip-path);}.cls-3{fill:#bc0030;}.cls-4{fill:#f3d02f;}.cls-5{fill:#b49b21;}.cls-6{fill:#223e84;}.cls-7{fill:#fff;}</style><clipPath id="clip-path"><rect class="cls-1" width="33.56" height="19.58"/></clipPath></defs><title>KIR</title><g id="Layer_2" data-name="Layer 2"><g id="_4" data-name="4"><g id="KIRIBATI"><g class="cls-2"><rect class="cls-3" width="33.56" height="19.58"/><g class="cls-2"><path class="cls-4" d="M19.54,10.7c.49.13,1.23.1,1.57.49-.49-.13-1.09.66-1.57.49.42.29-6,0-5.52,0-.49-.13-1.23-.1-1.56-.49.49.13,1.09-.66,1.56-.49-.42-.29-1.14-.52-1.3-1,.42.29,1.26-.25,1.64.08-.29-.42-.9-.87-.88-1.38.29.42,1.27.19,1.51.63-.13-.49-.53-1.12-.36-1.6.13.49,1.12.61,1.2,1.11,0-.5-.13-1.24.21-1.63,0,.51.85,1,.75,1.46.21-.46.33-1.21.75-1.46-.21.46.48,1.19.21,1.63.36-.36.7-1,1.2-1.11-.36.36,0,1.27-.36,1.6.46-.21,1-.72,1.51-.63-.46.21-.41,1.2-.89,1.38.51,0,1.19-.33,1.64-.08-.5,0-.78,1-1.3,1Z"/><path class="cls-5" d="M18.18,11.84c-1,0-3.73-.08-4.16-.13H14l-.43-.08a1.75,1.75,0,0,1-1.1-.41l-.07-.08.1,0a1.15,1.15,0,0,0,.75-.25,1.47,1.47,0,0,1,.66-.27l-.29-.16c-.38-.2-.77-.41-.89-.76l0-.1.09.06a1.17,1.17,0,0,0,.79,0,1.61,1.61,0,0,1,.71,0L14,9.43a1.65,1.65,0,0,1-.58-1v-.1l.06.08c.13.19.44.24.73.29a1.49,1.49,0,0,1,.67.21l-.12-.3a1.78,1.78,0,0,1-.2-1.16l0-.1,0,.1c.06.23.33.38.59.52a1.55,1.55,0,0,1,.56.44c0-.1,0-.22,0-.33A1.64,1.64,0,0,1,16,6.91l.07-.08v.1c0,.23.18.46.38.69a1.45,1.45,0,0,1,.38.6c0-.1.07-.2.11-.31a1.86,1.86,0,0,1,.59-1l.09-.06,0,.1a1.08,1.08,0,0,0,.12.77,1.38,1.38,0,0,1,.15.7l.2-.25c.27-.34.54-.69.91-.75l.1,0L19,7.46a1.1,1.1,0,0,0-.16.77,1.53,1.53,0,0,1-.1.7L19,8.77a1.71,1.71,0,0,1,1.11-.39l.11,0-.1,0c-.21.1-.32.39-.42.67a1.49,1.49,0,0,1-.33.63l.32-.06a1.91,1.91,0,0,1,1.18,0l.09.05h-.1c-.24,0-.43.25-.61.48a1.49,1.49,0,0,1-.54.48l.32.05a1.75,1.75,0,0,1,1.1.41l.07.08-.1,0a1.14,1.14,0,0,0-.75.25,1.19,1.19,0,0,1-.76.26s-.12.11-1.41.11ZM14,11.65c.29,0,2.56.13,4.15.13a4.12,4.12,0,0,0,1.35-.08l0,0c.21.08.5-.08.76-.23a1.46,1.46,0,0,1,.7-.27,2,2,0,0,0-1-.32,4.82,4.82,0,0,1-.48-.09v-.06c.25,0,.45-.25.65-.49a1.36,1.36,0,0,1,.55-.49,2.09,2.09,0,0,0-1,0,4.11,4.11,0,0,1-.49.08V9.75c.22-.08.33-.37.43-.67A1.41,1.41,0,0,1,20,8.43a2.06,2.06,0,0,0-1,.39,4.19,4.19,0,0,1-.43.25l0-.06c.19-.15.18-.46.18-.78a1.4,1.4,0,0,1,.12-.74,2,2,0,0,0-.77.7,4,4,0,0,1-.32.38l-.05,0c.13-.21,0-.5-.09-.8A1.37,1.37,0,0,1,17.47,7a2.11,2.11,0,0,0-.48.93,4.58,4.58,0,0,1-.18.46l-.06,0c0-.24-.15-.47-.36-.71A1.39,1.39,0,0,1,16,7a1.82,1.82,0,0,0-.14,1,4.69,4.69,0,0,1,0,.5h-.07c0-.24-.31-.39-.58-.54a1.38,1.38,0,0,1-.58-.47,2,2,0,0,0,.22,1A4.39,4.39,0,0,1,15,9l-.06,0c-.12-.21-.42-.26-.73-.31a1.38,1.38,0,0,1-.71-.24,1.87,1.87,0,0,0,.55.88,4.13,4.13,0,0,1,.32.38l0,0c-.16-.13-.47-.1-.79,0a1.48,1.48,0,0,1-.75,0,1.92,1.92,0,0,0,.82.64,5,5,0,0,1,.43.25l0,.06c-.21-.08-.5.07-.76.23a1.35,1.35,0,0,1-.7.27,2,2,0,0,0,1,.32,4.45,4.45,0,0,1,.49.09Z"/><polygon class="cls-4" points="14.45 11.19 12.69 10.47 14.59 10.39 13.18 9.11 15 9.69 14.11 8 15.62 9.17 15.36 7.28 16.38 8.89 16.78 7.03 17.19 8.89 18.2 7.28 17.95 9.17 19.45 8 18.57 9.69 20.39 9.11 18.97 10.39 20.88 10.47 19.11 11.19 20.88 11.91 12.69 11.91 14.45 11.19"/><path class="cls-5" d="M20.88,11.94H12.69v-.06l1.69-.69-1.69-.69v-.06l1.82-.07L13.16,9.13l0-.06,1.74.56L14.08,8l0,0L15.57,9.1l-.25-1.81.06,0,1,1.55L16.75,7h.06l.39,1.79,1-1.55.06,0L18,9.1,19.43,8l.05,0-.85,1.62,1.74-.56,0,.06-1.35,1.23,1.83.07v.06l-1.7.69,1.7.69v.06Zm-8-.07h7.86L19,11.19l1.7-.69-1.84-.07,1.36-1.24-1.75.56.85-1.63L17.9,9.25l.25-1.82L17.17,9l-.39-1.8L16.39,9l-1-1.55.25,1.82L14.21,8.12l.86,1.63-1.75-.56,1.36,1.24-1.84.07,1.7.69-1.69.69Z"/><path class="cls-4" d="M19.1,11.19a2.31,2.31,0,1,1-2.31-2.31,2.32,2.32,0,0,1,2.31,2.31Z"/><path class="cls-5" d="M16.78,13.53a2.35,2.35,0,1,1,2.34-2.35,2.35,2.35,0,0,1-2.34,2.35Zm0-4.62a2.28,2.28,0,1,0,2.28,2.28,2.28,2.28,0,0,0-2.28-2.28Z"/><rect class="cls-6" y="11.95" width="33.56" height="7.62"/><path class="cls-7" d="M0,12.39c1.12,0,2.23.72,3.36.72s2.24-.72,3.35-.72,2.24.72,3.36.72,2.24-.72,3.36-.72,2.24.72,3.36.72,2.23-.72,3.35-.72,2.24.72,3.36.72,2.24-.72,3.36-.72,2.24.72,3.36.72,2.24-.72,3.36-.72v-1.2c-1.12,0-2.24.72-3.36.72s-2.24-.72-3.36-.72-2.24.72-3.36.72-2.24-.72-3.36-.72-2.24.72-3.35.72-2.24-.72-3.36-.72-2.24.72-3.36.72-2.24-.72-3.36-.72-2.24.72-3.35.72S1.12,11.19,0,11.19Z"/><path class="cls-7" d="M0,14.79c1.12,0,2.23.72,3.36.72s2.24-.72,3.35-.72,2.24.72,3.36.72,2.24-.72,3.36-.72,2.24.72,3.36.72,2.23-.72,3.35-.72,2.24.72,3.36.72,2.24-.72,3.36-.72,2.24.72,3.36.72,2.24-.72,3.36-.72v-1.2c-1.12,0-2.24.72-3.36.72s-2.24-.72-3.36-.72-2.24.72-3.36.72-2.24-.72-3.36-.72-2.24.72-3.35.72-2.24-.72-3.36-.72-2.24.72-3.36.72-2.24-.72-3.36-.72-2.24.72-3.35.72S1.12,13.59,0,13.59Z"/><path class="cls-7" d="M0,17.18c1.12,0,2.23.72,3.36.72s2.24-.72,3.35-.72,2.24.72,3.36.72,2.24-.72,3.36-.72,2.24.72,3.36.72,2.23-.72,3.35-.72,2.24.72,3.36.72,2.24-.72,3.36-.72,2.24.72,3.36.72,2.24-.72,3.36-.72V16c-1.12,0-2.24.72-3.36.72S28,16,26.85,16s-2.24.72-3.36.72S21.26,16,20.14,16s-2.24.72-3.35.72S14.55,16,13.42,16s-2.24.72-3.36.72S7.83,16,6.71,16s-2.24.72-3.35.72S1.12,16,0,16Z"/><path class="cls-4" d="M17.54,5.59h1.24c0-.05-.11-.16-.21-.17a6,6,0,0,0-.93.06Z"/><path class="cls-5" d="M18.81,5.63H17.46l.16-.16.44,0a1.71,1.71,0,0,1,.52,0c.1,0,.24.13.23.21v0Zm-1.2-.08h1.13a.3.3,0,0,0-.17-.11,1.55,1.55,0,0,0-.5,0,3.35,3.35,0,0,1-.43,0l0,0Z"/><path class="cls-4" d="M15.07,5.29a1.88,1.88,0,0,0,1.4.63c.73,0,1.53-.58,2.51-.76l-3.18-.06c-.41-.28-.72-.25-.94-.07l-.61,0c-.09,0,.07.24.2.25Z"/><path class="cls-5" d="M16.47,6h0A1.91,1.91,0,0,1,15,5.32h-.6a.32.32,0,0,1-.25-.21.08.08,0,0,1,0-.1l.63,0a.77.77,0,0,1,1,.08L19,5.12v.06a6.41,6.41,0,0,0-1.24.41A3.53,3.53,0,0,1,16.47,6Zm-1.24-1a.55.55,0,0,0-.36.13l-.63,0a.27.27,0,0,0,.2.19h.62a1.89,1.89,0,0,0,1.4.63v0a3.52,3.52,0,0,0,1.24-.35,7.6,7.6,0,0,1,1-.35l-2.91-.06a1.06,1.06,0,0,0-.56-.21Z"/><path class="cls-4" d="M16.51,5.09a1.09,1.09,0,0,0-1.05-.83,20.67,20.67,0,0,1-2.87-.42,3.61,3.61,0,0,0,1.79.66A3.61,3.61,0,0,1,16,5.08Z"/><path class="cls-5" d="M16.55,5.12H16a3.65,3.65,0,0,0-1.66-.58,3.68,3.68,0,0,1-1.8-.68l0-.05a14.44,14.44,0,0,0,2.28.36l.58.06a1.12,1.12,0,0,1,1.08.86v0ZM12.72,3.9a4,4,0,0,0,1.66.57,3.63,3.63,0,0,1,1.68.59h.41a1.06,1.06,0,0,0-1-.77l-.57-.06a15.45,15.45,0,0,1-2.16-.32Z"/><path class="cls-4" d="M16.13,5.44c.19.24.48.23.8,0s.66-.81.82-.82A8.64,8.64,0,0,0,21,3.71,18.9,18.9,0,0,1,18.43,4C17,4,16.8,4.63,16.21,5.1Z"/><path class="cls-5" d="M16.48,5.65a.46.46,0,0,1-.38-.19,0,0,0,0,1,0,0,0,0,0,0,1,0,0c.23.29.57.13.76,0A2.45,2.45,0,0,0,17.36,5c.16-.2.29-.36.39-.36a8.79,8.79,0,0,0,3-.84h-.1A16.58,16.58,0,0,1,18.43,4a2.1,2.1,0,0,0-1.82.76,3.78,3.78,0,0,1-.38.36,0,0,0,0,1,0,0,0,0,0,0,1,0,0,3.62,3.62,0,0,0,.38-.36,2.17,2.17,0,0,1,1.86-.78,16.17,16.17,0,0,0,2.25-.22l.29,0,0,.06a8.71,8.71,0,0,1-3.24.94c-.07,0-.21.17-.35.34a2.5,2.5,0,0,1-.46.48.85.85,0,0,1-.46.17Z"/><path class="cls-5" d="M16.35,5.19h0a0,0,0,0,1,0,0,5.06,5.06,0,0,0,.51-.39l.34-.28a2.64,2.64,0,0,1,1.65-.38,11.34,11.34,0,0,0,1.9-.33h.05a0,0,0,0,1,0,0,0,0,0,0,1,0,0h-.05a11.16,11.16,0,0,1-1.91.33,2.59,2.59,0,0,0-1.62.37l-.34.28a4.9,4.9,0,0,1-.52.4Z"/><path class="cls-5" d="M16,5.07c-.08-.44-.49-.59-1.07-.68l-.49-.07a10,10,0,0,1-1.37-.25,2.33,2.33,0,0,1-.3-.11l-.14-.06,0-.06.15.06a1.81,1.81,0,0,0,.29.11,10.2,10.2,0,0,0,1.36.25l.49.07c.61.09,1,.25,1.13.73Z"/><path class="cls-5" d="M16.39,5.8h-.17a0,0,0,0,1,0,0,0,0,0,0,1,0,0,2.67,2.67,0,0,0,1.48-.37,0,0,0,0,1,0,0,0,0,0,0,1,0,0,2.91,2.91,0,0,1-1.34.38Z"/><path class="cls-5" d="M15,5.17h-.72a0,0,0,0,1,0,0,0,0,0,0,1,0,0H15a0,0,0,1,1,0,.06Z"/><path class="cls-5" d="M15.29,5.06a.09.09,0,1,1-.18,0,.09.09,0,0,1,.18,0Z"/><path class="cls-5" d="M15.2,5.18a.12.12,0,1,1,.12-.12.12.12,0,0,1-.12.12Zm0-.18a.06.06,0,0,0-.06.06c0,.06.12.06.12,0A.06.06,0,0,0,15.2,5Z"/></g></g></g></g></g></svg>