<svg xmlns="http://www.w3.org/2000/svg" xmlns:xlink="http://www.w3.org/1999/xlink" viewBox="0 0 33.56 19.58"><defs><style>.cls-1{fill:none;}.cls-2{clip-path:url(#clip-path);}.cls-3{fill:#419e4b;}.cls-4{fill:#bc0030;}.cls-5{fill:#f3d02f;}.cls-6{fill:#fff;}</style><clipPath id="clip-path"><rect class="cls-1" width="33.56" height="19.58"/></clipPath></defs><title>KNA</title><g id="Layer_2" data-name="Layer 2"><g id="_4" data-name="4"><g id="SAINT_KITTS" data-name="SAINT KITTS"><g class="cls-2"><polygon class="cls-3" points="0 0 0 15.33 22.99 0 0 0"/><polygon class="cls-4" points="10.57 19.58 33.56 19.58 33.56 4.25 10.57 19.58"/><polygon class="cls-5" points="22.99 0 0 15.33 0 16.94 25.41 0 22.99 0"/><polygon class="cls-5" points="8.14 19.58 10.57 19.58 33.56 4.25 33.56 2.64 8.14 19.58"/><path d="M10.33,14.51l-.6,0-1.46-.06L10,13.28l-.56-2L11,12.58l1.71-1.15-.51,1.37-.21.56,1.62,1.28-2.06-.09-.71,1.93Zm11.54-7.7-.6,0-1.46-.06,1.71-1.14-.56-2,1.61,1.28L24.3,3.74,23.8,5.11l-.21.56L25.21,7l-2.06-.08L22.44,8.8ZM25.41,0,0,16.94v2.64H8.15L33.56,2.64V0Z"/><polygon class="cls-6" points="24.3 3.74 22.59 4.88 20.98 3.61 21.53 5.59 19.82 6.73 21.28 6.79 23.8 5.11 24.3 3.74"/><polygon class="cls-6" points="22.43 8.8 23.15 6.87 25.21 6.95 23.59 5.67 23.8 5.11 21.28 6.79 21.88 6.82 22.43 8.8"/><polygon class="cls-6" points="12.76 11.43 11.05 12.58 9.43 11.3 9.99 13.28 8.27 14.43 9.73 14.49 12.26 12.81 12.76 11.43"/><polygon class="cls-6" points="10.89 16.49 11.61 14.56 13.67 14.65 12.05 13.37 12.26 12.81 9.73 14.49 10.34 14.51 10.89 16.49"/></g></g></g></g></svg>