<svg id="Layer_1" data-name="Layer 1" xmlns="http://www.w3.org/2000/svg" viewBox="0 0 200 200"><defs><style>.cls-1{fill:#f40009;}.cls-2{fill:#fff;}</style></defs><title>KO</title><circle class="cls-1" cx="100" cy="100" r="100"/><path class="cls-2" d="M161.06,121l-.56.5c-.81.72-1.63,1.49-2.62,1.1a1,1,0,0,1-.52-.74,12.78,12.78,0,0,1,1.78-5.79l.23-.48c2.56-4.3,5.56-9.36,10-12.87a2.48,2.48,0,0,1,2.4-.64,1.27,1.27,0,0,1,.41.81,1.17,1.17,0,0,1-.14.45c-1.22,2-2.4,4.07-3.53,6.05a82.37,82.37,0,0,1-7.4,11.61Zm-23.79-10.11a4.91,4.91,0,0,1-3.7-3.64c-.5-2.36,1.14-4.22,2.73-5.15a2.7,2.7,0,0,1,2.44-.45,2.46,2.46,0,0,1,.89,2.19,13.7,13.7,0,0,1-.14,1.63s0,.1,0,.12a23.4,23.4,0,0,1-2.19,5.29Zm-11.35,11.16a2.68,2.68,0,0,1-.41-1.47c-.06-3.27,3.45-9.11,5.93-12.3h0a9.65,9.65,0,0,0,4.82,4.36c-1.76,3.93-7.81,12.34-10.33,9.4Zm42.82.58c-.58.39-1.41.08-1.1-.83a47.21,47.21,0,0,1,3.82-7.09L180,99.63h-5.83c-.27.45-.87,1.51-.87,1.51a7.57,7.57,0,0,0-1.41-1.65c-1.43-.91-3.51-.48-5,.35-6.26,3.66-10.83,10.91-14.45,16.55,0,0-3.8,6.28-5.91,6.74-1.65.12-1.47-2.09-1.41-2.6a42.83,42.83,0,0,1,3.6-10.5,80.37,80.37,0,0,0,9.61-7.85c6.82-6.51,12.54-13.89,13.39-15.54a12.26,12.26,0,0,1-2,.21c-5.25,7.32-16,17.94-19.22,19.51,1.45-3.47,10.75-20,18.66-27.9l1.24-1.2c1.92-1.88,3.93-3.8,5.48-4.13.17,0,.37,0,.56.39a7.33,7.33,0,0,1-1.1,3.78l-.87,1.8a20,20,0,0,0,2.07-.5c1-1.78,2-3.78,1.61-6.16a1.78,1.78,0,0,0-1.41-1.49c-2.36-.45-4.94,1.3-7,2.71l-.08,0c-10.64,8.35-19.63,20.36-27.51,36.78-.58.43-2.77,1-3.14.7a26.39,26.39,0,0,0,2.25-6.08,16.38,16.38,0,0,0,.17-2,4.26,4.26,0,0,0-1.63-3.72,5.7,5.7,0,0,0-4.63.17c-5.62,2.34-9.82,8.1-12.85,12.83a28.19,28.19,0,0,0-3.7,9.94c-.31,2.89.33,4.75,2,5.7s3.82,0,4.67-.48c5.68-3,9.67-9,12.81-14.51a19,19,0,0,0,3.14-.39l.06,0-.74,2.25c-2,5.83-2.91,9.8-1,12.13,2.69,3.31,7.13-.12,10.73-4.65-.79,5.44,2,6.28,4.17,5.87,2.46-.66,5.21-3.31,6.49-4.65-.41,1.59-.29,4.4,1.94,4.69,1.53.29,2.69-.56,4-1.26,4.77-2.6,10.48-11.26,12-13.76h-1.94c-2.13,3.18-4.79,7.36-8.18,9.34ZM95.26,90.31h5.46l3.08-5H98.34ZM182.47,77c-4.15,2.36-8.47,3.91-13.7,3.37-1.45,1.63-2.85,3.31-4.15,5,7.34,1.86,15.11-2.27,19.45-6.22a30.78,30.78,0,0,0,6.94-9,36.57,36.57,0,0,1-8.53,6.8Zm-45.9-1.26C135.7,85.72,128,91.57,126,92c-1.16.23-3.14-.29-1.36-4.46a27.76,27.76,0,0,1,11.82-12.85,3.08,3.08,0,0,1,.06,1.05Zm-15.09,25.09A3.39,3.39,0,0,0,118.22,99c-4.55.41-9,4.15-11.35,9.55a27.48,27.48,0,0,0-2.34,8.68,24,24,0,0,1,7.58-5.79,15.88,15.88,0,0,1,2.73-6.57c.87-1.28,2.58-3.35,4.53-2.79,1.69.56,1.1,5.25-1.16,9.77a31,31,0,0,1-6.78,8.95c-2.27,1.92-5.64,4.26-8.58,2.46-1.86-1.1-2.81-3.39-2.6-6.36.89-8.41,4.71-15.56,10.19-23.72,5.64-7.58,11.86-15.35,20.25-19.49a5.65,5.65,0,0,1,4.67-.54s-7.87,4.32-11.63,12.34c-1,2-2.27,4.77-1,7.21a2.83,2.83,0,0,0,2.93,1.3c4.61-1.07,7.56-5.35,10-9.3,1.41-3,2.65-6,2.65-9.24,0-.39,0-.93-.06-1.32C140.49,73,145,75,145,75c3.51,1.16,11,6.9,13.56,8,1.24-1.43,3.27-3.6,4.4-4.67l-1.65-1c-2.65-1.61-5.44-3.14-8.2-4.67a16.26,16.26,0,0,0-13.91-1.32c-1,.37-1.94.68-1.94.68-1.92-2.11-5.08-1.9-7.4-1.32-8.35,2.4-16.12,8.22-24.43,18.37-6.12,7.94-9.9,14.8-11.92,21.57-1.55,4.57-2,11.26,1.78,15.25,3.22,3.37,7.52,2.65,10.54,1.43,6.55-3.22,12.46-10.19,15.4-18.21.7-2.36,1.49-5.72.27-8.29ZM48.8,93.12l-1.12,2.56c-.17.12-.41.06-.7,0l-.5-.08a4.39,4.39,0,0,1-3.08-2.75c-.5-2.4,1.55-4.28,2.46-5a2.77,2.77,0,0,1,3-.31,3.18,3.18,0,0,1,.66,2.11,12.43,12.43,0,0,1-.72,3.43Zm-2.38,4.82a1,1,0,0,1-.08.21l-2.5,4.07c-1.51,2-3.39,4.55-5.74,5.77-.7.23-1.65.39-2.15-.23-1-1.24-.5-3-.06-4.38l.14-.5A42.62,42.62,0,0,1,41.2,93.7a.22.22,0,0,1,.1,0s0,0,0,0a8.28,8.28,0,0,0,5.19,3.91.07.07,0,0,1,0,0,2.69,2.69,0,0,1-.1.29Zm31.29-2.69a77.4,77.4,0,0,1,5.17-6.39c2.67-2.36,3.74-1.32,3.82-.58-2.5,4.46-5.44,9.57-8.2,14.18,0,0-.87,1.32-.87,1.32a12.83,12.83,0,0,1-4.46,4.59,1.26,1.26,0,0,1-1.07-.12,1.13,1.13,0,0,1-.48-1.1c.12-1.47,1.59-5.85,6.1-11.9ZM50,85.12C46.53,82.85,39.58,87.19,34,94.61c-5.08,6.65-7.27,14.4-4.88,18,3.55,4.22,10.15-1.92,13-5.19l.37-.39a40.72,40.72,0,0,0,4.82-6.88l1.36-2.27c.81-.14,1.78-.39,2.89-.7,0,0-4.22,7.09-3.78,10.58.12,1.07,0,5,3.84,6.14,5.06.85,9.11-3.08,12.69-6.57l1-.91c-.08.35-.21.81-.21.81-1.49,5.17.52,6.24,1.78,6.63,3.78,1.1,8.31-4.4,8.31-4.4-.12,1.74-.45,3.16,1.36,4.32,1.72.62,3.47-.33,4.79-1.2,4.77-3.37,8.62-8.62,11.72-13.18H91s-4.88,7-8,8.58c0,0-.58.29-.91.06s-.25-1.07,0-1.59L94.29,85.25H88.54s-.62,1-.68,1.07-.12-.21-.19-.29C84.12,81.11,76,88.68,70,97.48a56.84,56.84,0,0,1-8.41,9.94S57,111.62,55,108.6a5.74,5.74,0,0,1-.08-4.34c2.27-6.47,6.2-12.36,10.66-15.89,1.26-1,2.62-1.26,3.31-.85a1.47,1.47,0,0,1,.35,2,3.15,3.15,0,0,0-2.54,1c-1.34,1.41-1.8,2.75-1.36,4,2.07,2.93,6.16-2.87,6-6.39a3.74,3.74,0,0,0-1.76-3,6.11,6.11,0,0,0-5.27,0c-2,.74-5.13,3.37-7,5.39-2.31,2.54-6.26,5.37-7.5,5.06.33-1.05,3.66-7.89.14-10.46Zm28.91,37.05c-6.78-4.36-16-5.13-30.79-1-15.81,3.72-21.08,6.1-28,1.32-2.67-2.36-3.62-6.12-2.89-11.57,1.65-8.87,6.12-17.42,14-26.89,4.42-4.92,8.51-9.15,13.95-10.85,4.15-1.07,3.76,2.19,3.27,2.67a3.94,3.94,0,0,0-2.11.54,5.48,5.48,0,0,0-2.17,3.72c-.12,2.87,2.85,2.27,4.15.7,1.38-1.78,3.43-5.19,1.82-8.37a4.75,4.75,0,0,0-3.29-2.19c-5-.29-9.59,2.09-13.85,4.69a60.1,60.1,0,0,0-21,25.25c-2.42,5.91-4.63,14.4-1.32,21.33,2.54,4.79,7.85,7.34,14.18,6.8a112.86,112.86,0,0,0,13.39-2.77c3.6-.87,22-7.21,28.13,3.82a8.2,8.2,0,0,1,7-4,23.23,23.23,0,0,1,14.47,4.4c-1.45-2.19-5.56-5.39-9-7.6Z"/></svg>