<svg xmlns="http://www.w3.org/2000/svg" xmlns:xlink="http://www.w3.org/1999/xlink" viewBox="0 0 33.56 19.58"><defs><style>.cls-1{fill:none;}.cls-2{clip-path:url(#clip-path);}.cls-3{fill:#fff;}.cls-4{fill:#b50037;}.cls-5{fill:#1e3476;}</style><clipPath id="clip-path"><rect class="cls-1" width="33.56" height="19.58"/></clipPath></defs><title>KOR</title><g id="Layer_2" data-name="Layer 2"><g id="_4" data-name="4"><g id="KOREA_SOUTH" data-name="KOREA SOUTH"><g class="cls-2"><rect class="cls-3" width="33.56" height="19.58"/><rect x="22.09" y="3.27" width="0.82" height="2.24" transform="translate(1.34 13.19) rotate(-33.64)"/><rect x="23.56" y="5.47" width="0.81" height="2.24" transform="translate(0.37 14.42) rotate(-33.74)"/><rect x="23.84" y="2.36" width="0.82" height="4.9" transform="translate(1.4 14.25) rotate(-33.68)"/><rect x="24.12" y="1.91" width="0.82" height="2.25" transform="translate(2.43 14.1) rotate(-33.64)"/><polygon points="25.72 4.08 26.96 5.95 26.28 6.4 25.04 4.53 25.72 4.08"/><rect x="9.92" y="11.64" width="0.82" height="4.89" transform="translate(-6.08 8.1) rotate(-33.7)"/><rect x="8.17" y="12.54" width="0.82" height="2.24" transform="matrix(0.83, -0.55, 0.55, 0.83, -6.14, 7.05)"/><rect x="9.64" y="14.75" width="0.82" height="2.24" transform="translate(-7.11 8.23) rotate(-33.66)"/><rect x="7.89" y="13" width="0.82" height="4.89" transform="translate(-7.17 7.19) rotate(-33.68)"/><rect x="7.89" y="5.08" width="4.89" height="0.81" transform="translate(0.03 11.04) rotate(-56.32)"/><rect x="6.87" y="4.4" width="4.9" height="0.82" transform="translate(0.15 9.89) rotate(-56.32)"/><rect x="5.85" y="3.72" width="4.9" height="0.82" transform="translate(0.26 8.75) rotate(-56.35)"/><rect x="21.37" y="14.78" width="2.24" height="0.82" transform="translate(-2.63 25.46) rotate(-56.27)"/><rect x="22.84" y="12.58" width="2.25" height="0.81" transform="translate(-0.12 25.74) rotate(-56.36)"/><rect x="22.39" y="15.46" width="2.24" height="0.82" transform="translate(-2.73 26.64) rotate(-56.32)"/><polygon points="24.02 14.37 25.27 12.5 25.95 12.96 24.7 14.82 24.02 14.37"/><rect x="23.41" y="16.14" width="2.24" height="0.82" transform="translate(-2.86 27.75) rotate(-56.25)"/><rect x="24.88" y="13.94" width="2.24" height="0.81" transform="matrix(0.55, -0.83, 0.83, 0.55, -0.35, 28.04)"/><g class="cls-2"><path class="cls-4" d="M12.71,7.07l-.05.08.05-.08"/><path class="cls-4" d="M19.5,5.71a4.9,4.9,0,0,0-6.79,1.36,2.45,2.45,0,1,0,4.07,2.71,2.45,2.45,0,1,1,4.07,2.71A4.9,4.9,0,0,0,19.5,5.71"/><path class="cls-5" d="M12.71,7.07a2.45,2.45,0,1,0,4.07,2.71,2.45,2.45,0,1,1,4.07,2.71,4.89,4.89,0,1,1-8.14-5.43"/></g></g></g></g></g></svg>