<?xml version="1.0" encoding="UTF-8"?>
<svg width="34px" height="20px" viewBox="0 0 34 20" version="1.1" xmlns="http://www.w3.org/2000/svg" xmlns:xlink="http://www.w3.org/1999/xlink">
    <!-- Generator: Sketch 49 (51002) - http://www.bohemiancoding.com/sketch -->
    <title>LBP</title>
    <desc>Created with Sketch.</desc>
    <defs></defs>
    <g id="Page-1" stroke="none" stroke-width="1" fill="none" fill-rule="evenodd">
        <g id="LBP" fill-rule="nonzero">
            <rect id="Rectangle-path" fill="#FFFFFF" x="0" y="0" width="33.56" height="19.58"></rect>
            <rect id="Rectangle-path" fill="#E53633" x="0" y="14.68" width="33.56" height="4.89"></rect>
            <rect id="Rectangle-path" fill="#E53633" x="0" y="0" width="33.56" height="4.89"></rect>
            <path d="M16.65,4.89 L16.49,5.16 C16.3603743,5.35054712 16.1978342,5.51647349 16.01,5.65 C15.8434828,5.76736865 15.689354,5.90139371 15.55,6.05 L15.4,6.23 L15.56,6.23 L15.81,6.15 C15.86,6.15 15.91,6.15 15.91,6.15 C15.7809282,6.33268085 15.5996765,6.47210522 15.39,6.55 C15.1766857,6.64141383 14.9856556,6.77786392 14.83,6.95 C14.8790638,6.98605853 14.9392268,7.00375353 15,7 C15.13,7 15.19,7 15.24,7.08 C15.29,7.16 15.24,7.28 15.11,7.28 C14.8905246,7.30083008 14.6993669,7.43846365 14.61,7.64 C14.61,7.75 14.48,7.84 14.26,7.94 C13.9364916,8.07761636 13.6414568,8.27430623 13.39,8.52 C13.39,8.66 13.7,8.65 14.15,8.52 C14.25,8.52 14.3,8.52 14.37,8.69 C14.44,8.86 14.46,8.91 14.25,9.19 C14.1500693,9.34726832 13.9977654,9.46415269 13.82,9.52 C13.53,9.58 13.44,9.64 13.06,10.02 C12.9438983,10.1493621 12.809068,10.260597 12.66,10.35 C12.7519904,10.4402309 12.8718395,10.4966305 13,10.51 C13.1590824,10.4749666 13.3090028,10.4068209 13.44,10.31 C13.72,10.11 13.74,10.11 13.85,10.22 C13.9193415,10.2978278 13.9614636,10.3961128 13.97,10.5 C13.97,10.63 13.9,10.7 13.53,10.88 C13.2179818,11.0523027 12.9318292,11.2677587 12.68,11.52 C12.34,11.86 12.25,11.92 12.1,11.9 L11.94,11.9 C11.94,11.9 11.94,11.95 12.03,12.01 C12.1044673,12.0756921 12.2007073,12.1113365 12.3,12.11 C12.7700797,12.0312946 13.2212182,11.8650856 13.63,11.62 C13.803654,11.4524342 14.0640096,11.4123795 14.28,11.52 C14.57,11.69 14.08,12.04 13.16,12.31 C12.82,12.42 12.53,12.51 12.49,12.54 C12.49,12.54 12.49,12.62 12.49,12.67 C12.49,12.72 13.07,12.8 13.49,12.67 C13.8027139,12.5622707 14.1097736,12.4387793 14.41,12.3 C15.02,12.02 15.03,12.02 15.24,12.14 C15.74,12.4 15.69,12.85 15.09,13.61 C14.8693957,13.9079526 14.5443575,14.111548 14.18,14.18 C14.02,14.18 13.7,14.52 13.7,14.63 L13.81,14.63 L13.88,14.56 C14.0464129,14.3637432 14.2927708,14.2534336 14.55,14.26 C14.8945528,14.2326543 15.2192955,14.087932 15.47,13.85 C15.71,13.63 15.95,13.56 16.13,13.67 C16.2264362,13.7233929 16.3435638,13.7233929 16.44,13.67 C16.65,13.59 16.76,13.67 16.76,13.79 C16.7823381,13.8898444 16.8484504,13.9743212 16.94,14.02 C17.0789242,14.1078295 17.2094742,14.2082526 17.33,14.32 C17.42,14.41 17.48,14.45 17.51,14.45 C17.4955565,14.3694681 17.4611776,14.2938346 17.41,14.23 C17.376126,14.1836494 17.3585452,14.1273908 17.36,14.07 C17.5095224,14.0530713 17.6604776,14.0530713 17.81,14.07 C18.0739307,14.050336 18.3273728,14.177057 18.47,14.4 C18.5457668,14.4984694 18.6411012,14.5801846 18.75,14.64 L18.9,14.64 C18.9,14.64 18.96,14.64 18.96,14.58 C18.8075077,14.4023624 18.6365451,14.2414565 18.45,14.1 C17.950216,13.8116596 17.670802,13.2528314 17.74,12.68 C17.74,12.25 17.74,12.14 17.86,12.04 C17.98,11.94 18.1,11.87 18.48,12.04 C18.86,12.21 18.86,12.2 19.48,12.19 C20.1,12.18 20.2,12.19 20.56,12.39 C20.76,12.51 21,12.66 21.1,12.73 C21.2,12.8 21.54,12.91 21.59,12.73 C21.64,12.55 21.24,12.21 20.45,11.79 C19.66,11.37 19.59,11.26 19.95,11.07 C20.16,10.96 20.17,10.96 20.49,11.15 C20.6474406,11.2679092 20.8453463,11.3182852 21.04,11.29 L21.25,11.29 L20.78,10.9 C20.5826738,10.7494064 20.3986627,10.5821235 20.23,10.4 C20.0658154,10.2064885 19.8237533,10.0964603 19.57,10.1 C19.4770974,10.1088574 19.3835702,10.0915375 19.3,10.05 C19.23,9.92 19.45,9.85 20.06,9.83 C20.89,9.83 21,9.7 20.43,9.51 L19.67,9.3 C19.44,9.3 19.31,9.2 19.28,9.14 C19.2748333,9.11695269 19.2748333,9.09304731 19.28,9.07 C19.28,9.07 19.5,9.07 19.82,9.07 C20.14,9.07 20.37,9.14 20.4,9.07 C20.43,9 20.27,8.9 19.91,8.7 C19.5758437,8.51618789 19.2638147,8.29474796 18.98,8.04 C18.7929107,7.86190302 18.5846905,7.70741709 18.36,7.58 C18.16,7.49 18.09,7.42 18.12,7.35 C18.15,7.28 18.48,7.23 18.68,7.35 C18.8318006,7.41372202 18.9954262,7.44440183 19.16,7.44 L19.49,7.44 L19.27,7.35 C18.9535249,7.19234385 18.6634114,6.98656563 18.41,6.74 C18.5192409,6.72172476 18.6307591,6.72172476 18.74,6.74 L19.07,6.74 L18.59,6.38 C18.3874653,6.20884415 18.1529168,6.07967252 17.9,6 L17.43,5.89 C17.1299351,5.74458218 16.8921432,5.49614293 16.76,5.19 L16.65,4.89 Z M15.56,6.75 C15.6013806,6.73160255 15.6486194,6.73160255 15.69,6.75 C15.6542918,6.81783123 15.6028572,6.87612379 15.54,6.92 C15.48,6.92 15.45,6.98 15.43,6.98 C15.4201622,6.93722503 15.4201622,6.89277497 15.43,6.85 C15.43,6.72 15.43,6.68 15.56,6.68 L15.56,6.75 Z M17.17,6.84 C17.24971,6.82780281 17.3248002,6.88080771 17.34,6.96 C17.34,7.05 17.34,7.08 17.17,7.08 C17.1210858,7.09473629 17.0689142,7.09473629 17.02,7.08 C17.0021369,7.05745132 16.9948496,7.02830205 17,7 C17,6.93 17.07,6.88 17.17,6.88 L17.17,6.84 Z M16.7,7 C16.78,7 16.81,7 16.81,7.15 C16.81,7.3 16.81,7.31 16.54,7.37 C16.4410205,7.3902041 16.3389795,7.3902041 16.24,7.37 C16.16,7.28 16.24,7.17 16.42,7.07 C16.5094574,7.03324975 16.6037728,7.0096709 16.7,7 Z M17.78,7 C17.9,7 17.92,7.05 17.86,7.22 C17.8264033,7.29324982 17.7502523,7.33733723 17.67,7.33 C17.55,7.33 17.53,7.33 17.54,7.18 C17.55,7.03 17.61,7.03 17.73,7.01 L17.78,7.01 L17.78,7 Z M16,7.28 C16.14,7.28 16.05,7.55 15.87,7.68 C15.69,7.81 15.53,7.84 15.48,7.79 C15.48,7.64 15.84,7.32 16.01,7.31 L16,7.28 Z M17.37,7.94 C17.44,7.94 17.48,8.01 17.46,8.15 C17.4377863,8.23148718 17.3644479,8.28852821 17.28,8.29 C17.2,8.29 17.15,8.29 17.13,8.29 C17.13,8.29 17.13,8.18 17.24,8.07 C17.273366,8.02115307 17.3229721,7.98572015 17.38,7.97 L17.37,7.94 Z M16.84,7.97 C16.98,7.97 17,8.09 16.84,8.17 L16.71,8.23 L16.54,8.18 L16.39,8.13 L16.53,8 C16.6071087,7.96770336 16.6876192,7.94422113 16.77,7.93 L16.84,7.97 Z M17.94,8.08 C18.0092107,8.06513426 18.0807893,8.06513426 18.15,8.08 C18.27,8.13 18.3,8.17 18.27,8.31 C18.24,8.45 18.14,8.52 17.79,8.41 C17.62,8.36 17.6,8.33 17.65,8.21 C17.7057221,8.10078569 17.8174008,8.03146789 17.94,8.03 L17.94,8.08 Z M15.36,8.08 C15.61,8.08 15.65,8.08 15.53,8.28 C15.4755499,8.34530449 15.4153045,8.40554994 15.35,8.46 C15.26,8.53 15.24,8.52 15.19,8.41 C15.14,8.3 15.1,8.19 15.14,8.14 C15.18,8.09 15.24,8.07 15.36,8.07 L15.36,8.08 Z M14.69,8.18 C14.8,8.18 14.86,8.18 14.95,8.38 L15.07,8.59 L14.89,8.66 C14.72,8.73 14.7,8.71 14.56,8.52 C14.42,8.33 14.44,8.32 14.46,8.26 C14.5155866,8.22173403 14.5827782,8.20405202 14.65,8.21 L14.69,8.18 Z M18.65,8.83 C18.7098029,8.82080933 18.7705517,8.83918544 18.8152337,8.8799821 C18.8599158,8.92077875 18.8837274,8.97960994 18.88,9.04 C18.88,9.21 18.67,9.26 18.51,9.14 C18.35,9.02 18.41,9.04 18.51,8.93 C18.548774,8.87282866 18.6111914,8.83611254 18.68,8.83 L18.65,8.83 Z M16.41,9.16 L16.48,9.16 C16.494587,9.19867012 16.494587,9.24132988 16.48,9.28 C16.48,9.46 16.34,9.51 16.29,9.36 C16.24,9.21 16.29,9.14 16.4,9.14 L16.41,9.16 Z M15.64,9.27 C15.7233395,9.27431718 15.8019487,9.31004863 15.86,9.37 C15.9046299,9.39932138 15.9339369,9.44694526 15.94,9.5 C15.94,9.5 15.83,9.5 15.75,9.5 C15.6934312,9.45894131 15.6486092,9.40377579 15.62,9.34 C15.6066667,9.32222222 15.6066667,9.29777778 15.62,9.28 L15.64,9.27 Z M16.83,9.28 C16.83,9.28 16.83,9.28 16.92,9.34 C16.9781512,9.41475016 17.0222032,9.49946558 17.05,9.59 C17.1,9.77 17.05,9.85 16.86,9.77 C16.7829617,9.74466788 16.7229972,9.68354154 16.699148,9.6060314 C16.6752987,9.52852126 16.690528,9.44425834 16.74,9.38 C16.74,9.32 16.8,9.29 16.83,9.29 L16.83,9.28 Z M17.25,9.54 C17.25,9.54 17.36,9.6 17.37,9.71 C17.3878197,9.75496555 17.3878197,9.80503445 17.37,9.85 C17.28,9.85 17.23,9.77 17.23,9.64 C17.23,9.51 17.23,9.54 17.28,9.54 L17.25,9.54 Z M14.64,9.8 C14.7130237,9.79046973 14.7869763,9.79046973 14.86,9.8 C14.9305172,9.84631905 14.9806155,9.91788802 15,10 C15,10.05 14.92,10.11 14.78,10.18 C14.644498,10.2501218 14.4997166,10.3006269 14.35,10.33 C14.15,10.33 14.12,10.33 14.03,10.17 C14.0173602,10.113831 14.0073493,10.0571026 14,10 C14.2102339,9.93441796 14.429856,9.90400874 14.65,9.91 L14.64,9.8 Z M18.75,10.51 C18.99,10.51 19.12,10.65 18.86,10.85 C18.693709,10.9733444 18.466291,10.9733444 18.3,10.85 C18.19,10.76 18.2,10.74 18.39,10.62 C18.4964261,10.5471399 18.6211431,10.5055676 18.75,10.5 L18.75,10.51 Z M19.61,10.68 C19.6769979,10.6932783 19.7391786,10.7243686 19.79,10.77 C19.91,10.86 19.91,10.87 19.79,11.04 C19.7418556,11.1053399 19.6805338,11.1598481 19.61,11.2 L19.38,11.2 C19.26,11.2 19.18,11.14 19.18,11.08 C19.2814833,10.9156986 19.4370823,10.7919266 19.62,10.73 L19.61,10.68 Z M15.28,11 C15.44,11 15.53,11.13 15.53,11.38 C15.53,11.63 15.33,11.68 15.24,11.38 C15.15,11.08 15.15,11.04 15.24,11.04 L15.28,11 Z M16.5,11 C16.6286415,11.0009208 16.755308,11.0317316 16.87,11.09 C16.8328394,11.1720637 16.7858269,11.2492984 16.73,11.32 L16.59,11.51 L16.52,11.27 C16.4932026,11.185592 16.4764208,11.0983265 16.47,11.01 L16.5,11 Z M15.87,11.12 L16,11.12 C16.0772802,11.1359667 16.1390858,11.1939096 16.16,11.27 C16.1798582,11.3249269 16.1798582,11.3850731 16.16,11.44 C16.16,11.44 16.07,11.39 16.02,11.29 C15.97,11.19 15.94,11.13 15.95,11.1 L15.87,11.12 Z" id="Shape" fill="#419F43"></path>
        </g>
    </g>
</svg>