<?xml version="1.0" encoding="utf-8"?>
<!-- Generator: Adobe Illustrator 21.0.0, SVG Export Plug-In . SVG Version: 6.00 Build 0)  -->
<svg version="1.1" id="Layer_1" xmlns="http://www.w3.org/2000/svg" xmlns:xlink="http://www.w3.org/1999/xlink" x="0px" y="0px"
	 viewBox="0 0 200 200" style="enable-background:new 0 0 200 200;" xml:space="preserve">
<style type="text/css">
	.st0{fill:url(#SVGID_1_);}
	.st1{fill:#00A86D;}
</style>
<title>LFC</title>
<radialGradient id="SVGID_1_" cx="634.9308" cy="2174.2593" r="4.62" gradientTransform="matrix(19.7873 34.2203 30.4012 -17.4409 -78525.5625 16264.8994)" gradientUnits="userSpaceOnUse">
	<stop  offset="0" style="stop-color:#F7F7F8"/>
	<stop  offset="0.34" style="stop-color:#B9B9BA"/>
	<stop  offset="0.69" style="stop-color:#7B7B7C"/>
	<stop  offset="1" style="stop-color:#000000"/>
</radialGradient>
<path class="st0" d="M95.2,52.3C95.2,23.4,118.7,0,147.6,0s52.5,23.4,52.5,52.3s-23.5,52.3-52.5,52.3S95.2,81.1,95.2,52.3L95.2,52.3
	"/>
<path class="st1" d="M99.2,200c54,0,98.2-43,99.3-96.9h-47.1c-1.2,28.7-25.5,51.1-54.3,50S45.8,127.7,47,99
	C48.1,72,69.6,50.4,96.6,49V2.1C41.8,3.7-1.4,49.3,0.2,103.9C1.7,157.3,45.6,199.9,99.2,200"/>
</svg>
