<svg xmlns="http://www.w3.org/2000/svg" xmlns:xlink="http://www.w3.org/1999/xlink" viewBox="0 0 33.56 19.58"><defs><style>.cls-1{fill:none;}.cls-2{clip-path:url(#clip-path);}.cls-3{fill:#1c2a7d;}.cls-4{fill:#f6d849;}.cls-5{fill:#bc0030;}.cls-6{fill:#ed00fd;}</style><clipPath id="clip-path"><rect class="cls-1" width="33.56" height="19.58"/></clipPath></defs><title>LIE</title><g id="Layer_2" data-name="Layer 2"><g id="_4" data-name="4"><g id="LIECHTENSTEIN"><g class="cls-2"><rect class="cls-3" width="33.56" height="19.58"/><g class="cls-2"><path class="cls-4" d="M7.06,4,7,6H4.93a3.05,3.05,0,0,1-.47-1.48.86.86,0,0,1,.92-.85A8,8,0,0,1,7.06,4Z"/><path class="cls-4" d="M4.71,4.09v0Z"/><path d="M4.71,5.29a0,0,0,0,1,0,0V4.09s.05,0,.05,0V5.26a0,0,0,0,1,0,0Z"/><path class="cls-4" d="M4.88,4V4Z"/><path d="M4.88,5.56a0,0,0,0,1,0,0V4s.05,0,.05,0V5.53a0,0,0,0,1,0,0Z"/><path class="cls-4" d="M5,3.88v0Z"/><path d="M5,5.78a0,0,0,0,1,0,0V3.88s.05,0,.05,0V5.75a0,0,0,0,1,0,0Z"/><path class="cls-4" d="M5.21,3.84v0Z"/><path d="M5.21,5.33a0,0,0,0,1,0,0V3.84s.05,0,.05,0V5.31a0,0,0,0,1,0,0Z"/><path class="cls-4" d="M5.38,3.84v0Z"/><path d="M5.38,5.34a0,0,0,0,1,0,0V3.84s0,0,0,0V5.32a0,0,0,0,1,0,0Z"/><path class="cls-4" d="M5.54,3.79v0Z"/><path d="M5.54,5.34a0,0,0,0,1,0,0V3.79s0,0,0,0V5.32a0,0,0,0,1,0,0Z"/><path class="cls-4" d="M5.71,3.79v0Z"/><path d="M5.71,5.34a0,0,0,0,1,0,0V3.79s0,0,0,0V5.32a0,0,0,0,1,0,0Z"/><path class="cls-4" d="M5.88,3.8v0Z"/><path d="M5.88,5.35a0,0,0,0,1,0,0V3.8s.05,0,.05,0V5.33a0,0,0,0,1,0,0Z"/><path class="cls-4" d="M6,3.82v0Z"/><path d="M6,5.37s0,0,0,0V3.82s.05,0,.05,0V5.35a0,0,0,0,1,0,0Z"/><path class="cls-4" d="M6.21,3.91v0Z"/><path d="M6.21,5.47a0,0,0,0,1,0,0V3.91s.05,0,.05,0V5.44a0,0,0,0,1,0,0Z"/><path class="cls-4" d="M6.38,3.93v0Z"/><path d="M6.38,5.68a0,0,0,0,1,0,0V3.93s0,0,0,0V5.65a0,0,0,0,1,0,0Z"/><path class="cls-4" d="M6.54,3.93v0Z"/><path d="M6.54,5.48a0,0,0,0,1,0,0V3.93a0,0,0,0,1,0,0V5.46a0,0,0,0,1,0,0Z"/><path class="cls-4" d="M6.71,3.93v0Z"/><path d="M6.71,5.48a0,0,0,0,1,0,0V3.93a0,0,0,0,1,0,0V5.46a0,0,0,0,1,0,0Z"/><path d="M5.76,3.85c.35.06,1.12.42,1,.91-.12.69-.53.41-1.07.31l-.4.13c-.14.15-.36.29-.5.11H4.58v.94H7.23V4Z"/><path d="M7.23,6.27H4.58l0-1,.26,0c.19.19.39,0,.49-.1L5.72,5l.3.07a1.59,1.59,0,0,0,.38.07c.14,0,.3-.05.37-.43a.45.45,0,0,0-.09-.35,1.62,1.62,0,0,0-.92-.53,0,0,0,0,1,0,0s0,0,0,0L7.23,4l0,2.29a0,0,0,0,1,0,0ZM4.8,5.33H4.58l0,.91,2.61,0V4L6,3.89a1.52,1.52,0,0,1,.71.48.51.51,0,0,1,.1.39c-.06.33-.19.48-.42.48A1.6,1.6,0,0,1,6,5.16L5.72,5.1l-.39.13A.55.55,0,0,1,5,5.42a.23.23,0,0,1-.19-.09Z"/><path class="cls-4" d="M7.11,3.69a.16.16,0,0,1-.16.16.16.16,0,0,1-.16-.16h0a.16.16,0,0,1,.32,0Z"/><path d="M6.95,3.88a.19.19,0,1,1,0-.37.19.19,0,0,1,0,.37Zm0-.33a.14.14,0,0,0,0,.27.14.14,0,0,0,.13-.14.14.14,0,0,0-.14-.14Z"/><path class="cls-4" d="M6.74,3.6a.16.16,0,0,1-.16.16.16.16,0,0,1-.16-.16h0a.16.16,0,0,1,.16-.16.16.16,0,0,1,.16.16Z"/><path d="M6.58,3.79a.19.19,0,1,1,0-.37.19.19,0,0,1,.19.19.18.18,0,0,1-.05.13.19.19,0,0,1-.13.06Zm0-.32a.14.14,0,0,0-.14.14.14.14,0,0,0,.23.1.13.13,0,0,0,0-.1.13.13,0,0,0-.13-.14Z"/><path class="cls-4" d="M6.38,3.51a.16.16,0,0,1-.16.16A.16.16,0,0,1,6,3.51H6a.16.16,0,0,1,.33,0Z"/><path d="M6.21,3.69h0a.19.19,0,0,1,0-.37.19.19,0,0,1,0,.37Zm0-.32a.14.14,0,1,0,0,.27.14.14,0,1,0,0-.27Z"/><path class="cls-4" d="M6,3.45a.16.16,0,0,1-.16.16.16.16,0,0,1-.16-.16h0a.16.16,0,0,1,.32,0Z"/><path d="M5.85,3.63A.19.19,0,1,1,6,3.45a.19.19,0,0,1-.19.19Zm0-.32a.14.14,0,0,0-.13.14.14.14,0,1,0,.13-.14Z"/><path class="cls-4" d="M5.64,3.41a.16.16,0,0,1-.16.16.17.17,0,0,1-.16-.16h0a.17.17,0,0,1,.16-.16.16.16,0,0,1,.16.16Z"/><path d="M5.48,3.6a.19.19,0,1,1,0-.37.19.19,0,0,1,0,.37Zm0-.32a.14.14,0,1,0,.13.14.14.14,0,0,0-.13-.14Z"/><path class="cls-4" d="M5.28,3.43a.16.16,0,0,1-.16.16A.16.16,0,0,1,5,3.43H5a.15.15,0,0,1,.16-.16.16.16,0,0,1,.16.16Z"/><path d="M5.11,3.62a.18.18,0,0,1-.18-.19A.18.18,0,0,1,5,3.3a.19.19,0,0,1,.31.13.19.19,0,0,1-.19.19Zm0-.32a.14.14,0,0,0-.1,0,.13.13,0,0,0,0,.1.14.14,0,1,0,.14-.14Z"/><path class="cls-4" d="M4.93,3.55a.17.17,0,0,1-.16.16.16.16,0,0,1-.16-.16h0a.16.16,0,0,1,.16-.16.17.17,0,0,1,.17.16Z"/><path d="M4.77,3.74a.19.19,0,0,1-.19-.19.19.19,0,0,1,.32-.13A.18.18,0,0,1,5,3.55a.19.19,0,0,1-.19.19Zm0-.32a.14.14,0,1,0,0,.27.14.14,0,0,0,0-.27Z"/><path class="cls-4" d="M4.64,3.76a.16.16,0,1,1-.32,0h0a.16.16,0,0,1,.16-.16.16.16,0,0,1,.16.16Z"/><path d="M4.48,3.95a.19.19,0,1,1,.18-.19.18.18,0,0,1-.18.19Zm0-.32a.14.14,0,1,0,0,.27.14.14,0,0,0,0-.27Z"/><path class="cls-4" d="M4.43,4.06a.16.16,0,0,1-.16.16.16.16,0,0,1-.16-.16h0a.17.17,0,0,1,.16-.16.16.16,0,0,1,.16.16Z"/><path d="M4.27,4.25a.19.19,0,0,1-.19-.19.18.18,0,1,1,.37,0,.19.19,0,0,1-.18.19Zm0-.32a.13.13,0,0,0-.1,0,.13.13,0,0,0,0,.09.14.14,0,0,0,.14.14.14.14,0,1,0,0-.27Z"/><path class="cls-4" d="M4.33,4.41a.16.16,0,0,1-.32,0H4a.16.16,0,0,1,.32,0Z"/><path d="M4.18,4.6a.19.19,0,1,1,0-.37.19.19,0,0,1,0,.37Zm0-.32a.14.14,0,1,0,0,.27.14.14,0,0,0,0-.27Z"/><path class="cls-4" d="M4.34,4.78a.16.16,0,1,1-.32,0H4a.16.16,0,1,1,.32,0Z"/><path d="M4.18,5a.19.19,0,1,1,0-.37.19.19,0,0,1,0,.37Zm0-.32a.14.14,0,1,0,.13.14.13.13,0,0,0-.13-.14Z"/><path class="cls-4" d="M4.41,5.13a.16.16,0,1,1-.32,0h0a.16.16,0,0,1,.32,0Z"/><path d="M4.25,5.32a.19.19,0,0,1,0-.37.19.19,0,0,1,0,.37Zm0-.32a.14.14,0,0,0-.14.14A.14.14,0,1,0,4.25,5Z"/><path class="cls-4" d="M7,3.9v.21a9.19,9.19,0,0,0-1.5-.29c-.49,0-.87.2-.87.69A2.7,2.7,0,0,0,5.11,5.9L4.83,6a3.05,3.05,0,0,1-.47-1.48,1,1,0,0,1,1-.94A7.53,7.53,0,0,1,7,3.9Z"/><path d="M4.83,6.05h0a3.14,3.14,0,0,1-.47-1.5,1,1,0,0,1,1-1,5.34,5.34,0,0,1,1.28.21L7,3.88v.24H7A2.21,2.21,0,0,1,6.51,4a4.05,4.05,0,0,0-1-.17c-.32,0-.85.09-.85.67a2.69,2.69,0,0,0,.48,1.37l-.29.17Zm.55-2.43a.94.94,0,0,0-1,.92A3,3,0,0,0,4.84,6l.26-.12a2.43,2.43,0,0,1-.49-1.36c0-.45.33-.71.9-.71a4.13,4.13,0,0,1,1,.18c.18,0,.34.09.48.11V3.9H7a1.57,1.57,0,0,1-.34-.06,5.23,5.23,0,0,0-1.27-.21Z"/><path class="cls-4" d="M7.42,4l.06,2H9.55A3.09,3.09,0,0,0,10,4.55a.86.86,0,0,0-.91-.85A8,8,0,0,0,7.42,4Z"/><path class="cls-4" d="M9.77,4.09v0Z"/><path d="M9.77,5.29a0,0,0,0,1,0,0V4.09s0,0,0,0V5.26a0,0,0,0,1,0,0Z"/><path class="cls-4" d="M9.61,4V4Z"/><path d="M9.61,5.56a0,0,0,0,1,0,0V4s.05,0,.05,0V5.53a0,0,0,0,1,0,0Z"/><path class="cls-4" d="M9.44,3.88v0Z"/><path d="M9.44,5.78a0,0,0,0,1,0,0V3.88s.05,0,.05,0V5.75a0,0,0,0,1,0,0Z"/><path class="cls-4" d="M9.27,3.84v0Z"/><path d="M9.27,5.33a0,0,0,0,1,0,0V3.84s.05,0,.05,0V5.31a0,0,0,0,1,0,0Z"/><path class="cls-4" d="M9.11,3.84v0Z"/><path d="M9.11,5.34a0,0,0,0,1,0,0V3.84s0,0,0,0V5.32a0,0,0,0,1,0,0Z"/><path class="cls-4" d="M8.94,3.79v0Z"/><path d="M8.94,5.34a0,0,0,0,1,0,0V3.79s0,0,0,0V5.32s0,0,0,0Z"/><path class="cls-4" d="M8.78,3.79v0Z"/><path d="M8.78,5.34a0,0,0,0,1,0,0V3.79s0,0,0,0V5.32a0,0,0,0,1,0,0Z"/><path class="cls-4" d="M8.61,3.8v0Z"/><path d="M8.61,5.35a0,0,0,0,1,0,0V3.8s.05,0,.05,0V5.33a0,0,0,0,1,0,0Z"/><path class="cls-4" d="M8.44,3.82v0Z"/><path d="M8.44,5.37a0,0,0,0,1,0,0V3.82s.05,0,.05,0V5.35a0,0,0,0,1,0,0Z"/><path class="cls-4" d="M8.28,3.91v0Z"/><path d="M8.28,5.47a0,0,0,0,1,0,0V3.91s.05,0,.05,0V5.44a0,0,0,0,1,0,0Z"/><path class="cls-4" d="M8.11,3.93v0Z"/><path d="M8.11,5.68a0,0,0,0,1,0,0V3.93a0,0,0,0,1,0,0V5.65a0,0,0,0,1,0,0Z"/><path class="cls-4" d="M7.94,3.93v0Z"/><path d="M7.94,5.48a0,0,0,0,1,0,0V3.93s.05,0,.05,0V5.46a0,0,0,0,1,0,0Z"/><path class="cls-4" d="M7.78,3.93v0Z"/><path d="M7.78,5.48a0,0,0,0,1,0,0V3.93s.05,0,.05,0V5.46a0,0,0,0,1,0,0Z"/><path d="M8.73,3.85c-.35.06-1.12.42-1,.91.12.69.53.41,1.07.31l.4.13c.14.15.36.29.5.11h.24v.94H7.25V4Z"/><path d="M9.91,6.27H7.25L7.23,4l1.5-.16s0,0,0,0a0,0,0,0,1,0,0,1.62,1.62,0,0,0-.92.53.47.47,0,0,0-.09.35c.07.38.23.43.37.43a1.66,1.66,0,0,0,.38-.07L8.75,5l.42.14c.11.11.35.27.47.11h.26l0,1a0,0,0,0,1,0,0ZM8.46,3.9,7.26,4l0,2.24,2.61,0V5.31l-.21,0a.19.19,0,0,1-.17.08.6.6,0,0,1-.36-.2L8.75,5.1l-.28.07a1.6,1.6,0,0,1-.38.07c-.23,0-.36-.15-.42-.48a.5.5,0,0,1,.1-.39,1.49,1.49,0,0,1,.69-.47Z"/><path class="cls-4" d="M7.38,3.69a.16.16,0,0,0,.32,0h0a.16.16,0,0,0-.32,0Z"/><path d="M7.54,3.88a.19.19,0,1,1,.19-.19.19.19,0,0,1-.19.19Zm0-.33a.14.14,0,1,0,.13.14.14.14,0,0,0-.13-.14Z"/><path class="cls-4" d="M7.74,3.6a.16.16,0,1,0,.32,0h0a.16.16,0,1,0-.32,0Z"/><path d="M7.9,3.79a.19.19,0,1,1,.19-.19.19.19,0,0,1-.19.19Zm0-.32a.14.14,0,0,0,0,.27.14.14,0,0,0,0-.27Z"/><path class="cls-4" d="M8.11,3.51a.16.16,0,0,0,.32,0h0a.16.16,0,0,0-.32,0Z"/><path d="M8.27,3.69a.19.19,0,0,1,0-.37.19.19,0,0,1,.19.19.18.18,0,0,1-.05.13.18.18,0,0,1-.13.05Zm0-.32a.14.14,0,1,0,0,.27h0a.12.12,0,0,0,.09,0,.14.14,0,0,0,0-.1.14.14,0,0,0-.13-.14Z"/><path class="cls-4" d="M8.48,3.45a.16.16,0,0,0,.32,0h0a.16.16,0,0,0-.32,0Z"/><path d="M8.64,3.63a.19.19,0,0,1-.19-.19.19.19,0,0,1,.32-.13.18.18,0,0,1,.05.13.19.19,0,0,1-.19.19Zm0-.32a.14.14,0,0,0-.14.13.14.14,0,0,0,.14.14.14.14,0,0,0,.13-.14.14.14,0,0,0,0-.1.14.14,0,0,0-.1,0Z"/><path class="cls-4" d="M8.85,3.41A.16.16,0,0,0,9,3.57a.16.16,0,0,0,.16-.16h0A.16.16,0,0,0,9,3.25a.16.16,0,0,0-.16.16Z"/><path d="M9,3.6a.19.19,0,0,1-.19-.19A.19.19,0,0,1,9,3.22.19.19,0,0,1,9,3.6Zm0-.32a.14.14,0,0,0-.1.23.14.14,0,0,0,.23-.09A.14.14,0,0,0,9,3.27Z"/><path class="cls-4" d="M9.21,3.43a.16.16,0,0,0,.16.16.16.16,0,0,0,.16-.16h0a.16.16,0,0,0-.16-.16.16.16,0,0,0-.16.16Z"/><path d="M9.37,3.62a.19.19,0,1,1,.19-.19.19.19,0,0,1-.19.19Zm0-.32a.13.13,0,0,0-.13.14.14.14,0,0,0,.13.14.14.14,0,1,0,0-.27Z"/><path class="cls-4" d="M9.55,3.55a.16.16,0,0,0,.32,0h0a.16.16,0,0,0-.32,0Z"/><path d="M9.71,3.74a.19.19,0,0,1,0-.37.19.19,0,0,1,0,.37Zm0-.32a.14.14,0,0,0-.1,0,.13.13,0,0,0,0,.09.13.13,0,0,0,.13.14.14.14,0,1,0,0-.27Z"/><path class="cls-4" d="M9.85,3.76a.16.16,0,0,0,.16.16.16.16,0,0,0,.16-.16h0A.16.16,0,0,0,10,3.6a.16.16,0,0,0-.16.16Z"/><path d="M10,3.95a.19.19,0,0,1,0-.37.19.19,0,1,1,0,.37Zm0-.32a.14.14,0,0,0,0,.27.14.14,0,1,0,0-.27Z"/><path class="cls-4" d="M10.05,4.06a.16.16,0,0,0,.32,0h0a.16.16,0,0,0-.32,0Z"/><path d="M10.21,4.25a.19.19,0,0,1,0-.37.19.19,0,0,1,0,.37Zm0-.32a.14.14,0,0,0,0,.27.14.14,0,1,0,0-.27Z"/><path class="cls-4" d="M10.15,4.41a.16.16,0,0,0,.32,0h0a.16.16,0,0,0-.32,0Z"/><path d="M10.31,4.6a.19.19,0,1,1,.19-.18.19.19,0,0,1-.19.18Zm0-.32a.14.14,0,0,0,0,.27.14.14,0,0,0,.13-.13.14.14,0,0,0-.13-.14Z"/><path class="cls-4" d="M10.15,4.78a.16.16,0,1,0,.32,0h0a.16.16,0,1,0-.32,0Z"/><path d="M10.3,5a.19.19,0,1,1,.19-.19A.19.19,0,0,1,10.3,5Zm0-.32a.14.14,0,0,0,0,.27.14.14,0,0,0,.14-.14.14.14,0,0,0-.13-.14Z"/><path class="cls-4" d="M10.08,5.13a.16.16,0,1,0,.32,0h0a.16.16,0,1,0-.32,0Z"/><path d="M10.24,5.32a.19.19,0,1,1,.19-.19.19.19,0,0,1-.19.19Zm0-.32a.14.14,0,0,0-.13.14A.14.14,0,1,0,10.24,5Z"/><path class="cls-4" d="M7.47,3.9v.21A9.24,9.24,0,0,1,9,3.83c.49,0,.87.2.87.69A2.66,2.66,0,0,1,9.37,5.9L9.66,6a3.09,3.09,0,0,0,.46-1.48,1,1,0,0,0-1-.94,7.53,7.53,0,0,0-1.63.3Z"/><path d="M9.66,6.05h0l-.29-.13a3.06,3.06,0,0,0,.47-1.4c0-.58-.53-.67-.84-.67A4.11,4.11,0,0,0,8,4c-.17,0-.34.09-.49.11l0-.23a3.07,3.07,0,0,1,.38-.11,5.37,5.37,0,0,1,1.28-.21,1,1,0,0,1,1,1A3.07,3.07,0,0,1,9.68,6ZM9,3.8c.57,0,.89.26.89.71a2.73,2.73,0,0,1-.48,1.39L9.64,6a3,3,0,0,0,.45-1.46.94.94,0,0,0-1-.92,5.36,5.36,0,0,0-1.27.21l-.36.09,0,.18C7.62,4.07,7.79,4,8,4A4.16,4.16,0,0,1,9,3.8Z"/><rect class="cls-5" y="9.79" width="33.56" height="9.79"/><path class="cls-4" d="M7.25,1.74,7.07,2l.17.31L7.41,2Zm0,.79-.17.32.17.31.16-.31Z"/><path d="M7.25,3.18h0l-.17-.32.17-.34h0l.17.31-.17.34Zm0-.6-.15.28.14.25.14-.28-.14-.25Zm0-.19h0l-.17-.31.17-.34h0L7.43,2l-.17.34Zm0-.6-.15.28.14.25L7.39,2l-.14-.25Z"/><path class="cls-4" d="M6.64,2.45l.26.17.27-.17-.27-.17Zm.67,0,.27.17.26-.17-.26-.17Z"/><path d="M7.58,2.64h0L7.3,2.47v0a0,0,0,0,1,0,0l.26-.17.29.17v0l-.27.17Zm-.22-.19.22.14.22-.14L7.56,2.3l-.21.15Zm-.45.19h0l-.27-.17a0,0,0,0,1,0,0,0,0,0,0,1,0,0l.27-.17.29.17,0,0,0,0-.26.17Zm-.22-.19.22.14.22-.14L6.89,2.3l-.21.15Z"/><path class="cls-4" d="M7.37,2.45a.12.12,0,0,1-.12.13.13.13,0,1,1,0-.25.12.12,0,0,1,.12.13Z"/><path d="M7.25,2.6a.15.15,0,0,1-.16-.15.15.15,0,0,1,.16-.15.15.15,0,0,1,.15.15.15.15,0,0,1-.15.15Zm0-.25a.1.1,0,0,0-.11.1c0,.11.2.11.2,0a.1.1,0,0,0-.1-.1Z"/><path class="cls-4" d="M7.59,3.27a.34.34,0,1,1-.34-.34.34.34,0,0,1,.34.34Z"/><path d="M7.25,3.63a.37.37,0,1,1,.36-.37.37.37,0,0,1-.36.37Zm0-.68a.32.32,0,1,0,.31.32.32.32,0,0,0-.31-.32Z"/><path d="M7.57,3.37h0a2,2,0,0,0-.65,0,0,0,0,0,1,0,0,0,0,0,0,1,0,0,2,2,0,0,1,.67,0,0,0,0,0,1,0,0,0,0,0,0,1,0,0Zm0-.17h0l-.24,0,0-.24s.05,0,.05,0v.22a.47.47,0,0,1,.22,0,0,0,0,0,1,0,0,0,0,0,0,1,0,0Zm-.66,0a0,0,0,0,1,0,0s0,0,0,0l.24,0,0-.05V2.93s0,0,0,0v.22l-.26,0Z"/><path class="cls-4" d="M6.91,3.84a4,4,0,0,1-.31,1.54l.35-.14a10,10,0,0,0,.19-1.36Zm.67,0-.22,0a9.37,9.37,0,0,0,.19,1.36l.35.14a4,4,0,0,1-.31-1.54Z"/><path d="M6.59,5.4h0a0,0,0,0,1,0,0,3.9,3.9,0,0,0,.31-1.53l.25,0a1.43,1.43,0,0,1,0,.31A6.87,6.87,0,0,1,7,5.24L6.6,5.4ZM6.9,3.87a3.56,3.56,0,0,1-.26,1.47l.29-.12a7.52,7.52,0,0,0,.14-1c0-.11,0-.21,0-.29Zm1,1.54h0l-.35-.14a5.82,5.82,0,0,1-.17-1.08c0-.12,0-.22,0-.3l.25-.06a4.52,4.52,0,0,0,.34,1.55,0,0,0,0,1,0,0ZM7.55,3.84l-.19.06a.84.84,0,0,1,0,.27,7.13,7.13,0,0,0,.15,1.06l.28.1a4.14,4.14,0,0,1-.29-1.49Z"/><path class="cls-4" d="M7.24,5a.67.67,0,0,0-.75.71C6.39,5.57,6,5,5.54,5.08a.69.69,0,0,0-.42.76.74.74,0,0,0-1.21-.33c.38.31.55,1.24.87,1.63H9.7c.32-.4.49-1.32.87-1.63a.74.74,0,0,0-1.21.33.69.69,0,0,0-.42-.76c-.41-.08-.84.49-.94.68A.67.67,0,0,0,7.24,5Z"/><path d="M9.7,7.17H4.78a2.76,2.76,0,0,1-.39-.75,2.33,2.33,0,0,0-.5-.89.77.77,0,0,1,.55-.24.72.72,0,0,1,.65.42.68.68,0,0,1,.44-.66c.4-.08.79.41.93.62A.68.68,0,0,1,7.24,5,.69.69,0,0,1,8,5.68c.14-.22.54-.7.93-.62a.68.68,0,0,1,.45.66A.72.72,0,0,1,10,5.29a.91.91,0,0,1,.55.2,2.92,2.92,0,0,0-.5.93,3,3,0,0,1-.37.74ZM4.45,5.34a.85.85,0,0,0-.52.19,2,2,0,0,1,.51.87,2.89,2.89,0,0,0,.36.73H9.69A3.23,3.23,0,0,0,10,6.4a2.41,2.41,0,0,1,.51-.91A1.14,1.14,0,0,0,10,5.34a.69.69,0,0,0-.66.51l0,0a0,0,0,0,1,0,0,.68.68,0,0,0-.4-.74c-.37-.07-.79.44-.92.67H8a0,0,0,0,1,0,0,.65.65,0,0,0-.72-.68.64.64,0,0,0-.72.68,0,0,0,0,1,0,0h0C6.39,5.63,6,5,5.55,5.1a.67.67,0,0,0-.39.74,0,0,0,0,1,0,0s0,0,0,0a.7.7,0,0,0-.66-.51Z"/><path d="M9.69,7.15c0,.18-1.1.38-2.45.38s-2.46-.2-2.46-.38,1.1-.28,2.46-.28,2.45.1,2.45.28Z"/><path d="M7.25,7.55c-1.32,0-2.48-.19-2.48-.41s1.9-.3,2.48-.3,2.47,0,2.47.3-1.16.41-2.47.41Zm0-.66c-1.6,0-2.43.13-2.43.25a4.87,4.87,0,0,0,2.43.36,4.83,4.83,0,0,0,2.42-.36c0-.13-.83-.25-2.42-.25Z"/><path class="cls-4" d="M7.36,3.74a.11.11,0,0,1-.23,0h0a.11.11,0,0,1,.12-.12.11.11,0,0,1,.11.12Z"/><path d="M7.25,3.88a.14.14,0,0,1-.14-.14.13.13,0,0,1,0-.1.14.14,0,0,1,.24.1.14.14,0,0,1-.14.14Zm0-.23-.07,0a.1.1,0,0,0,0,.06c0,.1.18.1.18,0a.09.09,0,0,0-.09-.09Z"/><path class="cls-4" d="M7.37,4a.12.12,0,0,1-.12.12A.12.12,0,0,1,7.12,4h0a.12.12,0,0,1,.24,0Z"/><path d="M7.25,4.13a.15.15,0,1,1,0-.29A.14.14,0,0,1,7.39,4a.15.15,0,0,1-.14.15Zm0-.24a.09.09,0,0,0-.1.1c0,.11.19.11.19,0a.09.09,0,0,0-.09-.1Z"/><path class="cls-4" d="M7.38,4.25a.13.13,0,0,1-.13.13.13.13,0,0,1-.13-.13h0a.13.13,0,0,1,.13-.13.13.13,0,0,1,.13.13Z"/><path d="M7.25,4.41h0a.16.16,0,1,1,0-.31.16.16,0,0,1,0,.31Zm0-.27a.11.11,0,0,0-.11.11c0,.12.22.12.22,0a.11.11,0,0,0-.11-.11Z"/><path class="cls-4" d="M7.39,4.55a.15.15,0,0,1-.15.15.15.15,0,0,1-.16-.15h0a.15.15,0,0,1,.16-.15.15.15,0,0,1,.15.15Z"/><path d="M7.25,4.72h0a.18.18,0,0,1,0-.35.18.18,0,0,1,0,.35Zm0-.3a.13.13,0,0,0-.13.13.13.13,0,1,0,.13-.13Z"/><path class="cls-4" d="M7.41,4.88A.16.16,0,0,1,7.25,5a.17.17,0,0,1-.17-.17h0a.17.17,0,0,1,.17-.17.17.17,0,0,1,.16.17Z"/><path d="M7.25,5.07a.19.19,0,1,1,.19-.19.19.19,0,0,1-.19.19Zm0-.33a.14.14,0,1,0,0,.28.14.14,0,0,0,0-.28Z"/><path d="M7.17,5.2s0,0,0,0a1.32,1.32,0,0,0,0,.14s0,0,0,0,0-.06,0-.13,0-.05,0-.05Zm.13,0s0,0,0,.05a.77.77,0,0,0,0,.13s0,.05,0,0,0-.11,0-.14a0,0,0,0,0,0,0Zm-.25,0a0,0,0,0,0,0,0s0,.07,0,.12,0,0,0,0a.63.63,0,0,0,0-.13s0,0,0,0Zm.36,0s0,0,0,0a.63.63,0,0,0,0,.13s0,0,0,0,0-.09,0-.12a0,0,0,0,0,0,0Zm-.5.06a0,0,0,0,0,0,0,.74.74,0,0,1,0,.13s0,0,0,0,0-.08,0-.13,0,0,0,0Zm.64,0a0,0,0,0,0,0,0s0,.1,0,.13,0,0,0,0,0-.09,0-.13a0,0,0,0,0,0,0Zm-1.93,0s0,0,0,.05a1.18,1.18,0,0,1,.06.12s0,0,0,0a.79.79,0,0,0,0-.12s0,0,0,0Zm3.23,0s0,0,0,0a1,1,0,0,0,0,.12s0,.06,0,0,0-.07.06-.12,0-.05,0-.05Zm-3.1,0a0,0,0,0,0,0,0s0,.08.05.12,0,0,0,0l0-.12s0,0,0,0Zm3,0a0,0,0,0,0,0,0l0,.12s0,0,0,0,0-.08.05-.12,0,0,0,0Zm-2.79,0s0,0,0,.06A1,1,0,0,0,6,5.49s0,0,0,0a1.36,1.36,0,0,0,0-.15s0,0,0,0Zm2.64,0s0,0,0,0,0,.12,0,.15,0,0,0,0a1,1,0,0,0,0-.12s0-.06,0-.06Zm-3,0s0,0,0,.05,0,0,0,.09,0,0,0,0l0-.09s0,0,0,0ZM9,5.33s0,0,0,0l0,.09s0,.06,0,0L9,5.39a0,0,0,0,0,0-.05Zm-2.19.09a0,0,0,0,0,0,0,1.1,1.1,0,0,1,0,.12s0,0,0,0a.52.52,0,0,0,0-.13s0,0,0,0Zm.93,0s0,0,0,0a.81.81,0,0,0,0,.13s0,.05,0,0a1.08,1.08,0,0,1,0-.12,0,0,0,0,0,0,0Zm-.46,0s0,0,0,.06a.41.41,0,0,1-.06.21s-.08,0-.11,0l-.11-.07s-.07,0,0,.06a1.19,1.19,0,0,1,.31.75s0,.06,0,.06,0,0,0-.06a1.17,1.17,0,0,1,.31-.75c.05-.07,0-.09,0-.06l-.11.07s-.09,0-.12,0a.39.39,0,0,1-.06-.21s0-.06,0-.06ZM6.09,5.41h0s0,0,0,0a1.19,1.19,0,0,0,0,.13s0,0,0,0,0-.05,0-.1,0,0,0,0Zm2.3,0a0,0,0,0,0,0,0s0,.06,0,.1,0,0,0,0l0-.13s0,0,0,0Zm-3,0s0,0,0,.06l.07.11s0,0,0,0a.87.87,0,0,1-.05-.12s0,0,0,0Zm3.67,0a0,0,0,0,0,0,0A.88.88,0,0,1,9,5.57s0,.05,0,0l.07-.11s0-.06,0-.06Zm-4.71.11s0,0,0,.06l.08.09s0,0,0,0l-.06-.09s0,0,0,0Zm5.74,0s0,0,0,0L10,5.65s0,.06,0,0a.36.36,0,0,0,.08-.09s0-.07,0-.06Zm-5.58,0s0,0,0,0l.06.12s.07,0,0,0l0-.12a.06.06,0,0,0-.05,0Zm5.41,0a.06.06,0,0,0-.05,0,.92.92,0,0,1,0,.12c0,.05,0,0,0,0L10,5.61s0,0,0,0Zm-5.73,0s0,0,0,0l.1.07s.06,0,0,0a.3.3,0,0,0-.1-.08Zm6,0h0a.3.3,0,0,0-.1.08s0,.06,0,0l.1-.07s0,0,0,0Zm-3.58,0s0,0,0,0,0,.08,0,.12.05,0,0,0,0-.08,0-.13,0,0,0,0Zm1.11,0s0,0,0,0,0,.09,0,.13,0,0,0,0,0-.08,0-.12a0,0,0,0,0,0,0ZM5.71,5.54s0,0,0,.05a.87.87,0,0,1,.05.29s0,0-.06,0l-.1-.05s-.05,0,0,0A1,1,0,0,1,6,6.47s0,.05,0,0a1.23,1.23,0,0,1,0-.66c0-.05,0-.11,0,0s-.07.08-.11,0a1.88,1.88,0,0,1-.12-.25.05.05,0,0,0,0,0Zm3.07,0a.06.06,0,0,0,0,0,1.69,1.69,0,0,1-.13.25c0,.05-.08,0-.11,0s-.07,0,0,0a1.26,1.26,0,0,1,0,.66c0,.05,0,0,0,0a1.06,1.06,0,0,1,.39-.57s0-.05,0,0l-.09.05s-.05,0-.06,0a.84.84,0,0,1,.05-.29s0,0,0-.05Zm-4.06.08s0,0,0,0,0,.09.05.12,0,0,0,0,0-.06,0-.1a0,0,0,0,0,0,0Zm5.06,0a0,0,0,0,0,0,0s0,.06,0,.1,0,.05,0,0a1,1,0,0,0,0-.12s0,0,0,0ZM5.32,5.56s0,.05,0,.07l.09.1s0,0,0,0a1,1,0,0,1-.08-.12l0,0Zm3.84,0,0,0L9,5.71s0,.06,0,0l.08-.1s0-.08,0-.07Zm-4.31.13s0,0,0,0,0,.07,0,.1,0,0,0,0a1,1,0,0,0,0-.1s0,0,0,0Zm4.78,0a0,0,0,0,0,0,0,1,1,0,0,0,0,.1s0,0,0,0,0-.06,0-.1,0,0,0,0Zm-4.35,0s0,0,0,.05l.09.1s0,0,0,0a1.06,1.06,0,0,1-.08-.11Zm3.91,0h0l-.08.11s0,0,0,0l.1-.1s0,0,0-.05Zm-4.59.13s0,0,0,0a.64.64,0,0,1,.11.21s0,0,0,0-.09,0-.14-.06-.06,0,0,0A1.71,1.71,0,0,1,5,6.6c0,.06.08.08.05,0A.79.79,0,0,1,5,6.22.86.86,0,0,0,5,6C5,6,5,6,5,6a.35.35,0,0,1,0,.09s-.06,0-.1,0a1.18,1.18,0,0,0-.18-.19l0,0Zm5.28,0,0,0a1.37,1.37,0,0,0-.18.19c0,.06-.09,0-.1,0a.35.35,0,0,1,0-.09s0-.05,0,0a1.4,1.4,0,0,0,0,.2.79.79,0,0,1-.08.41c0,.06,0,0,.05,0A1.67,1.67,0,0,1,10,6.15s0-.06,0,0-.08.06-.14.06,0,0,0,0a.58.58,0,0,1,.11-.21s0,0,0,0Z"/><path class="cls-6" d="M4.9,6.94l.06.2ZM5,6.9l.05.2Zm.14,0,0,.21Zm.13,0,0,.21Zm.17,0L5.5,7Zm.18,0,0,.21Zm.18-.06,0,.21Zm.16,0L6,7Zm.16,0,0,.21Zm.16,0v0Zm.17,0v0Zm.16,0v0Zm.17,0v0Zm.2,0v0Zm2.58.22-.06.2Zm-.13,0-.05.2Zm-.14,0,0,.21Zm-.13,0,0,.21ZM9,6.84,9,7Zm-.18,0L8.8,7Zm-.17-.06,0,.21Zm-.17,0,0,.21Zm-.16,0,0,.21Zm-.16,0v0ZM8,6.75v0Zm-.15,0,0,.21Zm-.17,0v0Zm-.2,0v0Zm-.24,0v0Z"/><path d="M9.52,7.17h0a0,0,0,0,1,0,0l.06-.2a0,0,0,0,1,0,0,0,0,0,0,1,0,0l-.06.2ZM5,7.17h0l-.06-.2a0,0,0,0,1,0,0,0,0,0,0,1,0,0l.06.2a0,0,0,0,1,0,0Zm4.44,0h0a0,0,0,0,1,0,0l.05-.21a0,0,0,0,1,0,0,0,0,0,0,1,0,0l-.05.2,0,0Zm-4.31,0a0,0,0,0,1,0,0L5,6.91a0,0,0,0,1,0,0,0,0,0,0,1,0,0l.05.21s0,0,0,0Zm.12,0,0,0,0-.21a0,0,0,0,1,0,0,0,0,0,0,1,0,0l0,.21a0,0,0,0,1,0,0Zm4.07,0h0a0,0,0,0,1,0,0l0-.21a0,0,0,0,1,0,0,0,0,0,0,1,0,0l0,.21,0,0Zm-.13,0h0a0,0,0,0,1,0,0l0-.21s0,0,0,0a0,0,0,0,1,0,0l0,.21s0,0,0,0Zm-3.8,0a0,0,0,0,1,0,0l0-.21a0,0,0,0,1,0,0s0,0,0,0l0,.21a0,0,0,0,1,0,0Zm3.46,0h0a0,0,0,0,1,0,0l0-.21a0,0,0,0,1,0,0,0,0,0,0,1,0,0l0,.21s0,0,0,0Zm-3.11,0,0,0,0-.21a0,0,0,0,1,0,0s0,0,0,0l0,.21a0,0,0,0,1,0,0Zm3.3,0H9A0,0,0,0,1,9,7l0-.21a0,0,0,0,1,0,0,0,0,0,0,1,0,0L9,7a0,0,0,0,1,0,0Zm-3.48,0a0,0,0,0,1,0,0l0-.21a0,0,0,0,1,.05,0l0,.21a0,0,0,0,1,0,0Zm3,0h0a0,0,0,0,1,0,0l0-.21,0,0s0,0,0,0l0,.21a0,0,0,0,1,0,0ZM6,7A0,0,0,0,1,6,7l0-.21s0,0,0,0,0,0,0,0L6,7A0,0,0,0,1,6,7ZM8.63,7h0a0,0,0,0,1,0,0l0-.21s0,0,0,0,0,0,0,0l0,.21a0,0,0,0,1,0,0ZM5.85,7s0,0,0,0l0-.21a0,0,0,0,1,0,0s0,0,0,0l0,.21a0,0,0,0,1,0,0h0ZM8.31,7h0a0,0,0,0,1,0,0l0-.21s0,0,0,0a0,0,0,0,1,0,0l0,.21a0,0,0,0,1,0,0ZM6.17,7a0,0,0,0,1,0,0l0-.21a0,0,0,0,1,0,0,0,0,0,0,1,0,0L6.2,7a0,0,0,0,1,0,0ZM8,7H8A0,0,0,0,1,8,7V6.75s0,0,0,0,0,0,0,0V7A0,0,0,0,1,8,7Zm.17,0h0a0,0,0,0,1,0,0l0-.21s0,0,0,0a0,0,0,0,1,0,0l0,.21a0,0,0,0,1,0,0ZM6.32,7a0,0,0,0,1,0,0l0-.21a0,0,0,0,1,0,0s0,0,0,0l0,.21a0,0,0,0,1,0,0Zm.17,0a0,0,0,0,1,0,0l0-.21a0,0,0,0,1,0,0s0,0,0,0V7a0,0,0,0,1,0,0ZM7.84,7h0a0,0,0,0,1,0,0V6.74s0,0,0,0a0,0,0,0,1,0,0V7a0,0,0,0,1,0,0ZM6.64,7a0,0,0,0,1,0,0V6.74s0,0,0,0l0,0v.21a0,0,0,0,1,0,0Zm.6,0s0,0,0,0V6.71s.05,0,.05,0v.23a0,0,0,0,1,0,0Zm.43,0h0a0,0,0,0,1,0,0V6.73s0,0,0,0a0,0,0,0,1,0,0v.21a0,0,0,0,1,0,0ZM6.81,7l0,0V6.73a0,0,0,0,1,0,0s0,0,0,0v.21a0,0,0,0,1,0,0Zm.67,0h0a0,0,0,0,1,0,0V6.72s0,0,0,0a0,0,0,0,1,0,0v.21l0,0ZM7,7a0,0,0,0,1,0,0V6.73a0,0,0,0,1,0,0s0,0,0,0v.21A0,0,0,0,1,7,7Z"/></g></g></g></g></g></svg>