<?xml version="1.0" encoding="UTF-8"?>
<svg width="34px" height="20px" viewBox="0 0 34 20" version="1.1" xmlns="http://www.w3.org/2000/svg" xmlns:xlink="http://www.w3.org/1999/xlink">
    <!-- Generator: Sketch 49 (51002) - http://www.bohemiancoding.com/sketch -->
    <title>LKR</title>
    <desc>Created with Sketch.</desc>
    <defs></defs>
    <g id="Page-1" stroke="none" stroke-width="1" fill="none" fill-rule="evenodd">
        <g id="LKR" fill-rule="nonzero">
            <rect id="Rectangle-path" fill="#F5CD28" x="0" y="0" width="33.56" height="19.58"></rect>
            <rect id="Rectangle-path" fill="#ED6F22" x="7.1" y="2.05" width="5.7" height="15.47"></rect>
            <rect id="Rectangle-path" fill="#2F742E" x="1.48" y="2.05" width="5.62" height="15.48"></rect>
            <rect id="Rectangle-path" fill="#8E1841" x="14.28" y="2.05" width="17.8" height="15.48"></rect>
            <g id="Group" transform="translate(14.000000, 2.000000)">
                <path d="M7.07,7.24 L7.36,7.24 C7.17337603,7.40562195 7.07993745,7.65229982 7.11,7.9 C7.46,7.39 7.58,7.49 7.58,7.49 C7.38004923,7.62875268 7.31558814,7.89519184 7.43,8.11 C7.52672463,7.87952962 7.66579258,7.66923176 7.84,7.49 C7.80071466,7.74352398 7.831848,8.0029685 7.93,8.24 C8.00907536,8.00450552 8.11653288,7.77951633 8.25,7.57 C8.25,7.57 8.25,7.96 8.39,8.1 C8.49704901,7.97511478 8.5755432,7.82836477 8.62,7.67 C8.62,7.67 8.88,8.12 9.03,8.19 C9.10624561,8.01603956 9.15029243,7.82968761 9.16,7.64 C9.44388794,7.86118022 9.82127333,7.92156189 10.16,7.8 C9.94088169,7.7211865 9.76137943,7.55963447 9.66,7.35 C9.66,7.35 10.34,7.65 10.66,7.52 C10.3405732,7.31535877 10.0063104,7.13485688 9.66,6.98 C9.86330578,7.06436932 10.0800367,7.11177921 10.3,7.12 C10.2134967,7.02717217 10.112103,6.94943701 10,6.89 L7.07,7.24 Z" id="Shape" fill="#F5CD28"></path>
                <path d="M7.95,8.24 C7.83180651,8.01250099 7.78642254,7.75416147 7.82,7.5 C7.6692178,7.69088218 7.54165649,7.89900852 7.44,8.12 C7.29868592,7.92613282 7.33871925,7.65479581 7.53,7.51 C7.53,7.51 7.37,7.51 7.09,7.94 C7.04014962,7.68855142 7.12774918,7.42956141 7.32,7.26 L7.04,7.26 C7.04,7.26 7.04,7.26 7.04,7.26 C7.04,7.26 7.04,7.26 7.04,7.26 L7.33,7.26 C7.33,7.26 7.02,7.57 7.09,7.93 C7.28,7.59 7.42,7.51 7.49,7.5 C7.56,7.49 7.55,7.5 7.55,7.5 L7.55,7.56 C7.37195772,7.6925368 7.32050665,7.93692939 7.43,8.13 C7.50667293,7.89363544 7.63669234,7.67807694 7.81,7.5 C7.80580473,7.75509586 7.84642107,8.00894801 7.93,8.25 C7.99294499,8.01353467 8.09067899,7.78773541 8.22,7.58 C8.22,7.58 8.22,7.97 8.39,8.11 C8.47962233,7.98213305 8.54722199,7.84017377 8.59,7.69 C8.59,7.69 8.88,8.13 9.03,8.2 C9.0889067,8.02913023 9.12259412,7.85058691 9.13,7.67 C9.33770974,7.7808052 9.56553834,7.84881374 9.8,7.87 C9.90009411,7.87371888 9.9995991,7.85313164 10.09,7.81 C9.86485337,7.74899087 9.67817895,7.5915987 9.58,7.38 C9.83979631,7.46724708 10.1078712,7.52756393 10.38,7.56 C10.4427959,7.5716687 10.5072041,7.5716687 10.57,7.56 C10.29,7.38 9.62,7.05 9.57,7.05 C9.52,7.05 9.97,7.16 10.15,7.16 L10.21,7.16 C10.1463978,7.06835539 10.0762125,6.98145937 10,6.9 C10,6.9 10.24,6.99 10.31,7.09 C10.1251326,7.11081358 9.93812423,7.07964553 9.77,7 C10.0573366,7.12691416 10.3319132,7.28094495 10.59,7.46 C10.31,7.62 9.71,7.37 9.59,7.33 C9.71228532,7.51325799 9.88633834,7.65598146 10.09,7.74 C9.75938396,7.88303495 9.37738839,7.83719548 9.09,7.62 C9.10463411,7.8067499 9.06651999,7.99385556 8.98,8.16 C8.81,8.1 8.58,7.71 8.54,7.65 C8.51957821,7.81061705 8.44967993,7.96089836 8.34,8.08 C8.2130311,7.93811138 8.15136625,7.74948949 8.17,7.56 C8.06142493,7.77115505 7.96461044,7.98815304 7.88,8.21 L7.95,8.24 Z" id="Shape" fill="#8E1841"></path>
                <path d="M11.17,3.57 C12.2743084,3.66747188 13.3300213,4.06898893 14.22,4.73 C14.22,4.56 14.22,4.4 14.39,4.32 C14.4845314,4.27797488 14.5951822,4.29851463 14.6683338,4.37166619 C14.7414854,4.44481776 14.7620251,4.55546857 14.72,4.65 C14.47,5.22 13.48,4.56 13.15,4.4 L13.31,4.73 C12.927385,4.70517589 12.5840585,4.48635245 12.4,4.15 C12.32,4.48 12.32,4.56 11.9,4.56 C12.06,4.31 12.11,4.23 11.9,3.99 L11.82,4.48 L11.41,3.91 L11.41,4.48 C11.2470723,4.32353972 11.0477387,4.21012581 10.83,4.15 C10.58,4.07 10.42,4.56 10.33,4.81 C10.58,4.56 10.66,4.4 11.07,4.56 C10.85,4.77 10.91,5.02 11.15,5.22 C11.15,5.22 11.15,4.88 11.22,4.8 C11.35,4.9 11.63,5.26 11.98,5.3 C12.2335111,5.28565642 12.4832077,5.23166796 12.72,5.14 C13.54,5.05 15.36,5.22 14.95,6.46 C14.8916031,6.67553249 14.7778368,6.87203794 14.62,7.03 C15.78,7.44 14.79,8.93 14.54,9.67 C14.29,10.41 14.54,10.85 15.3,10.77 C15.1540799,11.0462441 14.8485473,11.1990104 14.54,11.15 C14.5794473,11.2803984 14.6746658,11.3866037 14.8,11.44 C14.45,11.75 14.92,12.23 14.71,12.44 C14.434151,12.5290417 14.1337641,12.5000888 13.88,12.36 L13.88,12.59 C13.6654433,12.5796822 13.4517143,12.5563055 13.24,12.52 C13.2991675,12.409505 13.3525723,12.2960196 13.4,12.18 C13.2878151,12.4348961 13.0126715,12.5766367 12.74,12.52 C12.795966,12.3916815 12.8858554,12.2810484 13,12.2 C12.75,12.45 12.72,12.56 12.46,12.55 C12.46,12.14 12.71,11.65 13.2,11.81 C13.28,11.81 13.54,12.02 13.67,11.88 C13.8,11.74 13.67,11.26 13.67,11.09 C13.72,10.36 13.58,10.4 13.17,9.99 C12.84,9.74 12.6,9.37 12.17,9.28 C11.74,9.19 11.09,9.66 10.76,9.82 C10.0082938,10.3084167 9.16976972,10.6479002 8.29,10.82 C8.29733385,10.7803362 8.29733385,10.7396638 8.29,10.7 C8.82948563,10.1580379 9.18012169,9.45676577 9.29,8.7 C9.05251127,9.45639123 8.66476611,10.1570535 8.15,10.76 C8.10118106,10.979145 8.02385614,11.190948 7.92,11.39 C8.19485227,11.2395388 8.49787814,11.1476096 8.81,11.12 C8.72,11.63 8.23,11.53 8.15,11.78 C8.07,12.03 8.48,12.36 8.15,12.52 L6.89,12.52 C6.97333666,12.4082931 7.04378358,12.287527 7.1,12.16 C6.92,12.27 6.81,12.55 6.42,12.52 C6.42,12.41 6.62,12.25 6.59,12.18 C6.37,12.39 6.26,12.56 5.98,12.52 C6.06,12.27 6.06,11.95 6.39,11.95 C6.72,11.95 6.89,12.03 7.05,11.78 C7.38,11.37 6.99,10.47 6.91,9.97 C6.92239194,9.63308248 6.88533134,9.29616796 6.8,8.97 L6.88,10.45 C6.54195354,10.2493875 6.23532456,10.0000408 5.97,9.71 C5.69500585,9.41048251 5.57213067,9.00162682 5.63644735,8.60013477 C5.70076404,8.19864272 5.94520568,7.84862904 6.3,7.65 C6.57605154,7.42229624 6.88660822,7.24001298 7.22,7.11 C7.14,6.86 7.34,6.68 7.05,6.6 C6.96,6.75 6.88,6.92 6.71,6.91 L6.8,6.5 C6.8,6.5 6.5,6.5 6.56,7.05 C6.36684385,6.94043752 6.29235565,6.69944628 6.39,6.5 L6.22,6.5 C6.22,6.5 6.22,6.99 5.95,7.09 C6.00040837,6.89661151 6.03386827,6.69919809 6.05,6.5 C6.05,6.5 5.61,7.03 5.35,6.86 C5.5,6.69 5.62,6.66 5.6,6.45 C5.57310681,6.29573111 5.52951725,6.14484417 5.47,6 C5.82830198,6.13157913 6.22169802,6.13157913 6.58,6 C6.56898135,6.09300813 6.56898135,6.18699187 6.58,6.28 C6.88201764,6.185651 7.20907647,6.21440343 7.49,6.36 C7.41,5.79 7.08,5.7 6.75,5.29 L6.75,5.62 C6.42,5.54 6.34,5.46 6.17,5.13 L5.92,5.29 C5.49,5.03 5.16,4.42 5.78,4.46 C6.15,4.46 5.84,4.8 5.84,4.8 C6.27186753,4.65970558 6.71291951,4.54944258 7.16,4.47 C7.06083269,4.30938442 6.88858142,4.20828042 6.7,4.2 C6.99,3.99 7.28,3.91 7.49,4.37 C7.7,4.37 7.89,4.13 7.77,3.81 C8.02705194,3.81802526 8.25830908,3.9683424 8.37,4.2 C8.49,4.2 8.6,4.1 8.57,3.69 C8.86,3.94 9,4.01 9.02,4.22 C9.29077977,4.26215106 9.56768211,4.20535058 9.8,4.06 C9.72,4.39 9.72,4.47 9.39,4.64 C9.57315134,4.8475583 9.65060098,5.12785224 9.6,5.4 L9.44,5.4 C9.45683396,5.62969198 9.45683396,5.86030802 9.44,6.09 L9.27,6.09 L9.52,6.83 L9.36,7 C9.92877892,6.85438954 10.5067689,6.74747811 11.09,6.68 C11.7678457,6.51850793 12.456211,6.40489424 13.15,6.34 C13.65,6.34 13.65,6.59 14.31,6.59 L14.31,6.21 C14.2952653,5.83724279 14.0186523,5.52710094 13.65,5.47 C13.3380909,5.51297356 13.0325334,5.59356015 12.74,5.71 C12.3581532,5.7850392 11.9688515,5.81524364 11.58,5.8 C11.1148935,5.79577701 10.665802,5.62957778 10.31,5.33 C10.09,5.39 9.96,5.58 9.85,5.92 C9.64216405,5.65626031 9.68206379,5.27499609 9.94,5.06 C9.69,4.16 10.35,3.74 11.18,3.58 L11.17,3.57 Z" id="Shape" fill="#F5CD28"></path>
                <path d="M11.42,11 C11.25,10.75 10.67,10.34 10.84,9.93 C11.01,9.52 12.49,8.86 12.74,9.77 C12.7318748,10.166957 12.64343,10.5581554 12.48,10.92 C12.6737397,10.7809336 12.9143291,10.7234794 13.15,10.76 C13.07,11.08 12.58,11.33 12.58,11.33 C12.5203228,11.7529756 12.4060361,12.1664244 12.24,12.56 L11.17,12.56 L11.33,12.23 L11.08,12.56 L10.67,12.56 L11,12.15 C11,12.15 10.61,12.61 10.28,12.59 C10.36,11.93 10.75,11.82 11.33,12.07 C11.4815586,11.7341408 11.5133264,11.356457 11.42,11 Z" id="Shape" fill="#F5CD28"></path>
                <path d="M10.31,12.59 C10.36,11.94 10.73,11.77 11.37,12.04 C11.3568749,11.9874742 11.3568749,11.9325258 11.37,11.88 C11.4755789,11.5927268 11.4755789,11.2772732 11.37,10.99 C11.3112279,10.9128481 11.2477752,10.8393766 11.18,10.77 C10.95,10.52 10.66,10.22 10.79,9.9 C11.1169588,9.52399401 11.5824346,9.29666865 12.08,9.27 C12.3800567,9.24736861 12.6517912,9.44692366 12.72,9.74 C12.7204081,10.0853817 12.6453227,10.4266791 12.5,10.74 L12.5,10.85 C12.519864,10.8198774 12.5475071,10.7956896 12.58,10.78 C12.7516321,10.6690318 12.9611171,10.6329137 13.16,10.68 C13.1,11.03 12.61,11.27 12.59,11.29 C12.5357906,11.7097413 12.4247742,12.1201655 12.26,12.51 L11.17,12.51 L11.32,12.15 L11.1,12.5 L10.67,12.5 L10.88,12.2 C10.7316911,12.3801148 10.5210989,12.4979036 10.29,12.53 L10.31,12.59 Z M10.91,12.25 L10.7,12.55 L11.1,12.55 L11.33,12.23 L11.19,12.58 L12.25,12.58 C12.401149,12.1897623 12.508474,11.7839396 12.57,11.37 C12.57,11.37 13.07,11.1 13.14,10.79 C13.0901625,10.7957003 13.0398375,10.7957003 12.99,10.79 C12.854288,10.7917564 12.7221079,10.8334975 12.61,10.91 L12.5,10.97 L12.5,10.83 C12.6435254,10.5160754 12.7185234,10.1751754 12.72,9.83 C12.6522064,9.55350383 12.3937622,9.36708507 12.11,9.39 C11.6284309,9.41763325 11.1781022,9.63739368 10.86,10 C10.74,10.3 11.02,10.59 11.24,10.83 C11.3080416,10.9026524 11.3714975,10.9794674 11.43,11.06 C11.5403266,11.3567439 11.5403266,11.6832561 11.43,11.98 L11.43,12.14 C11.2654833,12.0830908 11.0938259,12.0494324 10.92,12.04 C10.61,12.04 10.43,12.24 10.38,12.65 C10.7,12.65 11.07,12.22 11.07,12.22 C11.0503089,12.2696311 11.0195234,12.314099 10.98,12.35 L10.91,12.25 Z" id="Shape" fill="#8E1841"></path>
                <path d="M7,4.78 C6.89,4.85 7,5.3 7.15,5.23 C7.3,5.16 7.08,4.73 7,4.78 Z" id="Shape" fill="#F5CD28"></path>
                <path d="M7.12,5.25 C7.06,5.25 7,5.18 6.96,5.07 C6.92,4.96 6.96,4.81 6.96,4.77 C6.96,4.73 7.18,4.91 7.21,5.05 C7.23892321,5.12732202 7.20426993,5.21395523 7.13,5.25 L7.12,5.25 Z M7,4.79 C6.95,4.79 6.94,4.94 7,5.06 C7.06,5.18 7.07,5.22 7.12,5.22 C7.17140057,5.21851422 7.21709482,5.18687006 7.23656489,5.13927655 C7.25603497,5.09168304 7.24562134,5.03708566 7.21,5 C7.21,4.88 7.07,4.75 7.02,4.75 L7,4.79 Z" id="Shape" fill="#8E1841"></path>
                <path d="M7.11,4.64 C7.32,4.78 7.64,5.16 8.04,5.14 C7.74,4.89 7.8,4.71 7.8,4.71 C8.03290293,4.92368799 8.34525502,5.02901601 8.66,5 C8.46,4.85 8.42,4.83 8.37,4.69 C8.62601891,4.75434539 8.89398109,4.75434539 9.15,4.69 L7.11,4.64 Z" id="Shape" fill="#F5CD28"></path>
                <path d="M8,5.14 C7.73132469,5.10691716 7.4831897,4.97930487 7.3,4.78 L7.14,4.66 C7.14,4.66 7.14,4.66 7.14,4.66 L7.3,4.79 C7.49553245,5.00904459 7.76744486,5.1450008 8.06,5.17 C7.74,4.95 7.8,4.76 7.8,4.75 C8.04426262,4.94895183 8.35601687,5.04570315 8.67,5.02 L8.61,5.02 C8.46,4.91 8.42,4.88 8.38,4.75 L8.47,4.75 C8.69945529,4.8101623 8.94054471,4.8101623 9.17,4.75 C8.94768298,4.85156589 8.69787094,4.87619525 8.46,4.82 L8.39,4.82 C8.44906658,4.91588736 8.53168709,4.99506534 8.63,5.05 L8.69,5.05 C8.37672459,5.11020549 8.05352338,5.01733158 7.82,4.8 C7.84981237,4.95741863 7.93940613,5.09718489 8.07,5.19 L8,5.14 Z" id="Shape" fill="#8E1841"></path>
                <path d="M7.5,7.15 L7.5,6.8 C7.5,6.8 7.73,7.33 7.89,7.34 C7.82674068,7.11582809 7.806384,6.88172629 7.83,6.65 L7.5,7.15 Z" id="Shape" fill="#F5CD28"></path>
                <path d="M7.93,7.34 C7.74,7.34 7.54,6.87 7.51,6.82 L7.51,7.16 C7.51,7.16 7.51,7.16 7.51,7.16 L7.51,6.81 C7.61,6.95 7.79,7.32 7.92,7.33 C7.84426677,7.11183282 7.81696722,6.87978671 7.84,6.65 C7.84,6.65 7.84,6.96 7.93,7.34 Z" id="Shape" fill="#8E1841"></path>
                <path d="M8,6.73 C8,6.73 8.45,7.56 8.67,7.43 C8.47587345,7.25856339 8.36934405,7.00877032 8.38,6.75 C8.47083791,7.0479701 8.68591129,7.29220598 8.97,7.42 C8.95923105,7.16068901 8.89809439,6.90595289 8.79,6.67 C8.79,6.67 9.16,7.32 9.35,7.33 C9.43781649,7.2442245 9.47878789,7.1213103 9.46,7 L8,6.73 Z" id="Shape" fill="#F5CD28"></path>
                <path d="M8.64,7.45 C8.4,7.39 8.06,6.77 8.05,6.74 C8.05,6.74 8.4,7.38 8.62,7.44 C8.64237736,7.44944584 8.66762264,7.44944584 8.69,7.44 C8.49163181,7.27952878 8.3804691,7.03497081 8.39,6.78 C8.39,6.78 8.58,7.28 9.01,7.43 C8.98203514,7.17768272 8.91454314,6.93133693 8.81,6.7 C8.96,6.9 9.21,7.28 9.35,7.29 C9.42011046,7.21066267 9.45287403,7.10509114 9.44,7 C9.44,7 9.52,7.16 9.44,7.32 C9.29,7.32 9.05,6.97 8.93,6.78 C9.01818695,6.97466169 9.06256477,7.18630973 9.06,7.4 C8.77273131,7.29721175 8.54810393,7.06890196 8.45,6.78 C8.47570067,7.01212671 8.58183679,7.22793683 8.75,7.39 C8.72790484,7.40075004 8.70209516,7.40075004 8.68,7.39 L8.64,7.45 Z" id="Shape" fill="#8E1841"></path>
                <path d="M7.68,6.16 L8.01,6.58 L8.06,6 C8.06,6 8.38,6.25 8.45,6.25 C8.52,6.25 8.36,5.65 8.36,5.65 C8.50048546,5.875479 8.65408286,6.0925188 8.82,6.3 C8.83453585,6.0802401 8.83453585,5.8597599 8.82,5.64 C8.82,5.64 9.15,6.55 9.27,6.55 C9.39,6.55 9.35,6.42 9.35,6.42 L7.68,6.16 Z" id="Shape" fill="#F5CD28"></path>
                <path d="M8,6.58 L7.64,6.17 L7.97,6.59 L8,6 C8.12808278,6.08545634 8.26171145,6.16229282 8.4,6.23 C8.38425097,6.03327974 8.34737187,5.83882628 8.29,5.65 C8.48,5.87 8.74,6.26 8.78,6.28 C8.82,6.3 8.78,5.93 8.78,5.64 C8.89169654,5.95639987 9.04648762,6.25588697 9.24,6.53 C9.25609834,6.53615535 9.27390166,6.53615535 9.29,6.53 C9.30004066,6.50427847 9.30004066,6.47572153 9.29,6.45 C9.29,6.45 9.29,6.5 9.29,6.55 C9.26427847,6.56004066 9.23572153,6.56004066 9.21,6.55 C9.09,6.55 8.83,5.85 8.75,5.64 C8.75,6.28 8.75,6.3 8.75,6.3 C8.75,6.3 8.75,6.3 8.26,5.65 C8.3468764,5.8380241 8.3912617,6.04287931 8.39,6.25 C8.3,6.25 8.05,6.07 7.97,6.01 L7.97,6.56 L8,6.58 Z" id="Shape" fill="#8E1841"></path>
                <path d="M7.43,5.42 C7.43,5.42 7.94,5.88 7.99,5.85 C8.04,5.82 7.78,5.31 7.78,5.31 C7.90003845,5.4309405 8.03840617,5.53218518 8.19,5.61 C8.3,5.61 8.19,5.25 8.19,5.25 C8.19,5.25 8.54,5.55 8.59,5.53 C8.64,5.51 8.59,5.25 8.59,5.25 C8.66597399,5.33076024 8.74608137,5.40752982 8.83,5.48 C8.83,5.48 8.83,4.83 8.83,4.83 C8.99829291,5.01821217 9.17867532,5.19525416 9.37,5.36 L7.43,5.42 Z" id="Shape" fill="#F5CD28"></path>
                <path d="M8,5.88 C7.78912078,5.76257938 7.59699446,5.61427134 7.43,5.44 C7.59508559,5.60525577 7.77979474,5.74966474 7.98,5.87 C7.92645777,5.68894395 7.85265762,5.51450724 7.76,5.35 C7.89361898,5.4495592 8.0339527,5.53977374 8.18,5.62 C8.24,5.62 8.18,5.39 8.18,5.28 C8.31099854,5.38042797 8.45169627,5.46752656 8.6,5.54 C8.6,5.54 8.6,5.41 8.6,5.28 C8.73,5.37 8.85,5.48 8.86,5.49 C8.87,5.5 8.86,5.09 8.79,4.86 C9,5.04 9.31,5.35 9.35,5.37 C9.39,5.39 9.35,5.37 8.79,4.87 C8.83709723,5.08006034 8.86057622,5.29472537 8.86,5.51 C8.86,5.51 8.86,5.51 8.59,5.28 C8.59,5.35 8.64,5.55 8.59,5.57 C8.54,5.59 8.26,5.37 8.17,5.29 C8.08,5.21 8.24,5.57 8.17,5.63 L8.12,5.63 C7.96822811,5.55247401 7.82981704,5.45119762 7.71,5.33 C7.92,5.66 7.99,5.85 7.94,5.87 L8,5.88 Z" id="Shape" fill="#8E1841"></path>
                <path d="M5.38,5.59 C5.38,5.59 5.49,6.29 6.52,6.02 C6.62,5.97 6.58,6.2 6.52,6.27 C6.80973811,6.16560326 7.1304096,6.19111122 7.4,6.34 C7.39073808,6.07552823 7.23714111,5.83745294 7,5.72 C6.9195083,5.68922323 6.8304917,5.68922323 6.75,5.72 C6.75,5.72 5.51,5.72 5.34,5.54 L5.38,5.59 Z" id="Shape" fill="#F5CD28"></path>
                <path d="M7.44,6.36 C7.31111621,6.27050525 7.15682643,6.22491964 7,6.23 C6.86780823,6.23135238 6.73648535,6.2515559 6.61,6.29 L6.56,6.29 C6.56,6.23 6.56,6.11 6.56,6.09 C6.40343271,6.13272187 6.24224748,6.15622805 6.08,6.16 C5.75700881,6.19452031 5.45811884,5.98529733 5.38,5.67 C5.55,6.09 5.92,6.22 6.52,6.07 L6.58,6.07 C6.58,6.07 6.58,6.2 6.58,6.29 C6.70438748,6.2289246 6.84144029,6.19808772 6.98,6.2 C7.13096134,6.19425168 7.28034351,6.23246573 7.41,6.31 C7.39180545,6.05786843 7.23325232,5.8374409 7,5.74 C6.94436978,5.72467261 6.88563022,5.72467261 6.83,5.74 C6.5,5.74 5.55,5.74 5.4,5.56 C5.8363036,5.71180635 6.29975341,5.76973757 6.76,5.73 C6.83706987,5.70353354 6.91878668,5.69331894 7,5.7 C7.24647722,5.81530677 7.40836191,6.05813381 7.42,6.33 L7.44,6.36 Z" id="Shape" fill="#8E1841"></path>
                <path d="M4.82,9.82 C4.82,9.9 4.75,9.92 4.6,10.14 C4.67,10.24 4.98,10.39 5.07,10.3 C5.16,10.21 5.15,10.05 5.15,10.05 C5.32907134,10.3686965 5.60610332,10.6211813 5.94,10.77 C6.0497651,10.80782 6.17091732,10.7919266 6.26721324,10.7270742 C6.36350916,10.6622218 6.42378171,10.5559313 6.43,10.44 C6.43,10.19 6.06,9.8 5.89,9.63 C5.48,9.13 5.51,8.2 4.73,8.33 C4.73,8.33 4.73,8.45 4.62,8.47 C4.51,8.49 4.72,8.69 4.57,8.73 C4.69,8.84 4.7,8.93 4.57,8.98 C4.66,9.1 4.77,9.15 4.57,9.25 C4.71289712,9.40747423 4.80975889,9.60119777 4.85,9.81 L4.82,9.82 Z" id="Shape" fill="#F5CD28"></path>
                <path d="M6.06,10.82 C6.01387043,10.8300129 5.96612957,10.8300129 5.92,10.82 C5.58358889,10.6840204 5.30692018,10.4321809 5.14,10.11 C5.14,10.16 5.14,10.31 5.07,10.34 C5.04449495,10.3511313 5.01550505,10.3511313 4.99,10.34 C4.8354547,10.3260559 4.69054099,10.2589008 4.58,10.15 C4.62268349,10.0719367 4.67292422,9.99825033 4.73,9.93 C4.73,9.88 4.79,9.86 4.8,9.81 C4.7623686,9.60530001 4.66893374,9.41496975 4.53,9.26 C4.6,9.2 4.64,9.17 4.64,9.14 C4.64,9.11 4.64,9.09 4.58,9.05 L4.58,8.99 C4.64,8.99 4.68,8.92 4.68,8.89 C4.68,8.86 4.68,8.8 4.6,8.74 C4.52,8.68 4.68,8.68 4.69,8.65 C4.7,8.62 4.69,8.55 4.69,8.47 C4.74092231,8.43654452 4.77954222,8.3873919 4.8,8.33 C4.85290514,8.3204424 4.90709486,8.3204424 4.96,8.33 C5.38,8.33 5.53,8.69 5.68,9.06 C5.75488959,9.2672414 5.85929933,9.46258866 5.99,9.64 C6.15,9.8 6.53,10.21 6.53,10.46 C6.53003649,10.5598875 6.48968475,10.6555463 6.4181182,10.7252295 C6.34655165,10.7949127 6.24985106,10.8326997 6.15,10.83 L6.06,10.82 Z M5.13,10.06 C5.32076286,10.3717816 5.60386347,10.6164365 5.94,10.76 C6.04426869,10.7982339 6.16049513,10.7847135 6.25320299,10.7235658 C6.34591084,10.6624181 6.40409662,10.5609006 6.41,10.45 C6.41,10.21 6.04,9.81 5.88,9.65 C5.74703669,9.47038507 5.64248174,9.27139339 5.57,9.06 C5.4,8.65 5.25,8.27 4.74,8.36 C4.72744682,8.41903454 4.68614251,8.46784873 4.63,8.49 C4.68256627,8.5337328 4.70581334,8.60347399 4.69,8.67 C4.66606357,8.71081214 4.62620169,8.73980259 4.58,8.75 C4.66,8.75 4.69,8.85 4.68,8.9 C4.67,8.95 4.68,8.97 4.56,9 C4.44,9.03 4.56,9 4.62,9 C4.68,9 4.69,9.08 4.68,9.13 C4.67,9.18 4.68,9.2 4.55,9.24 C4.69794446,9.37785129 4.79635046,9.56060529 4.83,9.76 C4.82861007,9.82046228 4.80346176,9.87794414 4.76,9.92 L4.61,10.12 C4.67,10.18 4.99,10.32 5.05,10.26 C5.11,10.2 5.13,10.08 5.13,10.03 L5.13,10.06 Z" id="Shape" fill="#8E1841"></path>
                <path d="M4.62,2.84 C4.379951,4.5321196 4.31293827,6.24429485 4.42,7.95 C4.14983237,8.05493931 3.85016763,8.05493931 3.58,7.95 C3.64,7.66 3.85,3.08 4.58,2.8 L4.62,2.84 Z" id="Shape" fill="#F5CD28"></path>
                <path d="M4,8.07 C3.86110316,8.07059731 3.72290124,8.05037264 3.59,8.01 C3.59,7.94 3.59,7.74 3.59,7.46 C3.7,6.14 3.95,3.06 4.59,2.82 C4.37432188,4.51767336 4.31740888,6.23175911 4.42,7.94 C4.28572038,8.02489284 4.12872025,8.06675954 3.97,8.06 L4,8.07 Z M4.62,2.84 C4.03,3.09 3.77,6.27 3.62,7.47 C3.62,7.76 3.62,7.95 3.57,8.01 C3.7134037,8.01536081 3.85700053,8.01202135 4,8 C4.1498276,8.00712362 4.29869053,7.97250433 4.43,7.9 C4.3191929,6.19796965 4.38285788,4.48906754 4.62,2.8 L4.62,2.84 Z" id="Shape" fill="#8E1841"></path>
                <path d="M3.91,10.94 C3.91,10.94 2.82,11.09 3.28,10.44 C3.67,10.27 3.66,10.67 3.52,10.81 C3.60019425,10.8213126 3.68146549,10.7985755 3.74414692,10.7472907 C3.80682836,10.6960059 3.84520859,10.6208464 3.85,10.54 C3.79211158,10.4638541 3.76790952,10.3673339 3.78302159,10.2728835 C3.79813366,10.178433 3.85124303,10.0942826 3.93,10.04 C3.17,10.21 3.07,9.69 3.35,9.61 C3.63,9.53 3.6,9.74 3.74,9.85 C3.99,9.61 4.15,9.59 4.3,9.85 C4.46,9.61 4.68,9.64 4.68,9.66 C4.93,10.08 4.38,10.11 4.16,10.05 C4.28166949,10.2131468 4.28166949,10.4368532 4.16,10.6 C4.16,10.74 4.28,10.76 4.45,10.82 C4.07,9.82 5.78,11.1 4.06,10.96 C4.06,10.96 4.06,11.05 4.06,11.1 C4.06,11.15 4.3,11.16 4.34,11.31 C4.38,11.46 4.19,11.4 4.04,11.31 C3.89,11.22 4.13,11.55 3.97,11.61 C3.89019047,11.545751 3.83970719,11.4519964 3.83,11.35 C3.76,11.44 3.65,11.35 3.56,11.35 C3.64,11.15 3.86,11.24 3.85,10.96 L3.91,10.94 Z" id="Shape" fill="#F5CD28"></path>
                <path d="M3,7.78 C3.07,7.48 3.75,7.52 3.43,7.84 C3.65,8.19 4.32,8.14 4.58,7.94 C4.37,7.53 4.95,7.62 4.92,7.94 C4.85,8.49 2.92,8.42 3.01,7.79 L3,7.78 Z" id="Shape" fill="#F5CD28"></path>
                <path d="M15.62,13 C15.8438764,13.5193922 16.1010789,14.0237763 16.39,14.51 C16.629436,14.6916842 16.960564,14.6916842 17.2,14.51 C17.2,14.51 17.5,14.82 17.62,14.92 C17.6676977,14.9019363 17.7093035,14.870732 17.74,14.83 C17.62,14.7 17.45,14.62 17.37,14.37 C17.5118956,14.1545532 17.5521073,13.8876938 17.48,13.64 C17.12,13.03 15.92,13.27 15.63,13.05 L15.62,13 Z" id="Shape" fill="#F5CD28"></path>
                <path d="M17.62,14.93 C17.5,14.84 17.21,14.54 17.19,14.52 C17.1,14.7 16.57,14.73 16.38,14.52 C16.1712167,14.2063324 15.996875,13.87106 15.86,13.52 C15.76,13.31 15.67,13.11 15.6,12.98 C15.8045341,13.041571 16.0164532,13.0752089 16.23,13.08 C16.69,13.08 17.23,13.17 17.48,13.56 C17.5555366,13.8140027 17.5152938,14.0883858 17.37,14.31 C17.4265393,14.4407117 17.516147,14.5544445 17.63,14.64 L17.74,14.75 C17.721912,14.8128094 17.6728094,14.861912 17.61,14.88 L17.62,14.93 Z M17.18,14.49 C17.18,14.49 17.5,14.79 17.62,14.89 C17.6609309,14.8697012 17.6955167,14.838574 17.72,14.8 C17.6794918,14.7790607 17.6424015,14.752086 17.61,14.72 C17.4865873,14.6291312 17.3926785,14.5039194 17.34,14.36 C17.4781553,14.1431359 17.5181155,13.877946 17.45,13.63 C17.23,13.27 16.67,13.22 16.23,13.18 C16.0126587,13.1872815 15.7967061,13.1427199 15.6,13.05 C15.715483,13.210461 15.8096058,13.3852604 15.88,13.57 C16.0141899,13.9204166 16.185145,14.2556226 16.39,14.57 C16.6259117,14.7282778 16.9340883,14.7282778 17.17,14.57 L17.18,14.49 Z" id="Shape" fill="#8E1841"></path>
                <path d="M2.74,2.53 C2.52645591,2.00463331 2.27927704,1.49357428 2,1 C1.76056404,0.818315769 1.42943596,0.818315769 1.19,1 C1.19,1 0.89,0.69 0.77,0.6 C0.721730772,0.617009921 0.679844908,0.648424319 0.65,0.69 C0.77,0.82 0.94,0.9 1.02,1.15 C0.879382903,1.36593493 0.839258284,1.63221649 0.91,1.88 C1.27,2.48 2.47,2.24 2.77,2.47 L2.74,2.53 Z" id="Shape" fill="#F5CD28"></path>
                <path d="M2.73,2.54 C2.53822996,2.45478833 2.32975713,2.41377728 2.12,2.42 C1.67,2.42 1.12,2.33 0.87,1.94 C0.804728977,1.68612269 0.852107483,1.41642966 1,1.2 C0.946062249,1.06775512 0.855952362,0.953384881 0.74,0.87 L0.63,0.76 C0.650930868,0.701034524 0.699551117,0.656154294 0.76,0.64 C0.914141886,0.768417836 1.06103463,0.905295168 1.2,1.05 C1.29,0.87 1.82,0.84 2.01,1.05 C2.21818975,1.36401779 2.39249744,1.69922487 2.53,2.05 C2.63,2.26 2.72,2.46 2.79,2.59 L2.73,2.54 Z M0.73,0.66 C0.69370551,0.68296522 0.66296522,0.71370551 0.64,0.75 C0.680278126,0.771310139 0.717316553,0.798247177 0.75,0.83 C0.868503295,0.925517014 0.955596778,1.05441537 1,1.2 C0.860629255,1.41640708 0.820588429,1.68213257 0.89,1.93 C1.11,2.3 1.67,2.35 2.11,2.38 C2.30394603,2.38449649 2.49610569,2.41820872 2.68,2.48 L2.46,2 C2.34219938,1.65144162 2.1880156,1.31625948 2,1 C1.76408832,0.84172222 1.45591168,0.84172222 1.22,1 C1.22,1 0.89,0.69 0.77,0.6 L0.73,0.66 Z" id="Shape" fill="#8E1841"></path>
                <path d="M2.62,13 C2.10147153,13.2257104 1.5972009,13.482855 1.11,13.77 C0.928315769,14.009436 0.928315769,14.340564 1.11,14.58 C1.11,14.58 0.8,14.88 0.7,15.01 C0.718063695,15.0576977 0.749268032,15.0993035 0.79,15.13 C0.92,15.01 1,14.84 1.25,14.76 C1.46593493,14.9006171 1.73221649,14.9407417 1.98,14.87 C2.58,14.51 2.35,13.31 2.58,13.01 L2.62,13 Z" id="Shape" fill="#F5CD28"></path>
                <path d="M0.83,15.11 C0.784705124,15.0817077 0.749660544,15.0396542 0.73,14.99 C0.856610994,14.8342754 0.993589004,14.6872746 1.14,14.55 C1.03928762,14.4629746 0.987087875,14.3324752 1,14.2 C0.978890389,14.0337808 1.02179064,13.8657548 1.12,13.73 C1.43386372,13.5215489 1.76909942,13.3472264 2.12,13.21 L2.66,12.95 C2.59753237,13.1577511 2.56388483,13.3730953 2.56,13.59 C2.56,14.04 2.47,14.59 2.09,14.84 C2.00728664,14.8543756 1.92271336,14.8543756 1.84,14.84 C1.66190839,14.842359 1.48738347,14.7900015 1.34,14.69 C1.19908381,14.7582955 1.08098519,14.8659737 1,15 L0.89,15.11 L0.83,15.11 Z M2.6,13 C2.43926435,13.1177023 2.26460947,13.215106 2.08,13.29 C1.72837168,13.4214523 1.39287286,13.5925567 1.08,13.8 C0.988145505,13.9270779 0.948753295,14.0846468 0.97,14.24 C0.973417056,14.3686325 1.02729622,14.4907587 1.12,14.58 C1.12,14.58 0.81,14.91 0.72,15.03 C0.739551582,15.0656398 0.766898273,15.0964048 0.8,15.12 L0.89,15.02 C0.980868788,14.8965873 1.10608058,14.8026785 1.25,14.75 C1.46686405,14.8881553 1.73205405,14.9281155 1.98,14.86 C2.35,14.64 2.39,14.09 2.43,13.64 C2.43348085,13.4159751 2.49185257,13.1962228 2.6,13 Z" id="Shape" fill="#8E1841"></path>
                <path d="M15.65,2.53 C15.8740949,2.00424917 16.1312767,1.49322544 16.42,1 C16.659436,0.818315769 16.990564,0.818315769 17.23,1 C17.23,1 17.53,0.69 17.65,0.6 C17.6979731,0.617559497 17.7397104,0.648862446 17.77,0.69 C17.65,0.82 17.48,0.9 17.4,1.15 C17.5418956,1.36544683 17.5821073,1.63230615 17.51,1.88 C17.15,2.48 15.95,2.24 15.66,2.47 L15.65,2.53 Z" id="Shape" fill="#F5CD28"></path>
                <path d="M15.66,2.54 C15.73,2.41 15.82,2.21 15.92,2 C16.0572958,1.64913095 16.2316146,1.31390247 16.44,1 C16.6888315,0.82448851 17.0211685,0.82448851 17.27,1 C17.3869818,0.8482833 17.5212175,0.710691681 17.67,0.59 C17.7270279,0.605720149 17.776634,0.641153069 17.81,0.69 C17.7798129,0.738424784 17.7427604,0.782214137 17.7,0.82 C17.5804223,0.903889922 17.4896289,1.02261977 17.44,1.16 C17.5845547,1.37441952 17.624951,1.64250427 17.55,1.89 C17.32,2.28 16.75,2.33 16.3,2.37 C16.0901,2.36199899 15.8812287,2.40308842 15.69,2.49 L15.66,2.54 Z M16.8,0.92 C16.6675278,0.911658113 16.5363993,0.950642259 16.43,1.03 C16.2241401,1.34379498 16.0531285,1.67911201 15.92,2.03 L15.69,2.51 C15.8744435,2.45039588 16.0662821,2.41673999 16.26,2.41 C16.71,2.41 17.26,2.32 17.48,1.95 C17.5500742,1.70870775 17.5098031,1.44877605 17.37,1.24 C17.4120485,1.08796828 17.5035276,0.954267997 17.63,0.86 L17.74,0.76 C17.74,0.76 17.69,0.71 17.64,0.69 L17.23,1.09 C17.1063781,0.98829361 16.9500044,0.934984395 16.79,0.94 L16.8,0.92 Z" id="Shape" fill="#8E1841"></path>
                <path d="M3.28,8.45 C3.28,8.57 3.56,8.63 3.87,8.63 C4.18,8.63 4.49,8.58 4.5,8.49 C4.51,8.4 4.23,8.49 3.92,8.49 C3.61,8.49 3.35,8.37 3.27,8.49 L3.28,8.45 Z" id="Shape" fill="#F5CD28"></path>
                <path d="M3.89,8.65 C3.78,8.65 3.41,8.65 3.31,8.53 C3.29886869,8.50449495 3.29886869,8.47550505 3.31,8.45 C3.37,8.38 3.48,8.39 3.65,8.45 C3.75988987,8.45696098 3.87011013,8.45696098 3.98,8.45 C4.08321261,8.45706404 4.18678739,8.45706404 4.29,8.45 C4.42,8.45 4.51,8.45 4.55,8.45 C4.55944584,8.47237736 4.55944584,8.49762264 4.55,8.52 C4.55,8.64 4.13,8.67 3.91,8.67 L3.89,8.65 Z M3.4,8.42 C3.36825455,8.40544949 3.33174545,8.40544949 3.3,8.42 C3.46914494,8.51856234 3.66532029,8.56059991 3.86,8.54 C4.21,8.54 4.45,8.47 4.46,8.42 C4.46,8.42 4.34,8.42 4.23,8.42 L3.92,8.42 C3.80693842,8.43109935 3.69306158,8.43109935 3.58,8.42 L3.38,8.42 L3.4,8.42 Z" id="Shape" fill="#F5CD28"></path>
                <path d="M3.31,8.8 C3.31,8.92 3.61,8.94 3.87,8.95 C4.13,8.96 4.4,8.95 4.45,8.82 C4.5,8.69 4.11,8.82 3.87,8.82 C3.63,8.82 3.37,8.7 3.31,8.82 L3.31,8.8 Z" id="Shape" fill="#F5CD28"></path>
                <path d="M3.92,9 L3.87,9 C3.6,9 3.29,9 3.29,8.83 C3.31742356,8.78578895 3.3685646,8.7621854 3.42,8.77 L3.6,8.77 C3.68306256,8.77950047 3.76693744,8.77950047 3.85,8.77 L4.1,8.77 L4.31,8.77 C4.36,8.77 4.44,8.77 4.47,8.85 C4.5,8.93 4.15,9 3.93,9 L3.92,9 Z M3.41,8.8 C3.41,8.8 3.33,8.8 3.32,8.8 C3.31,8.8 3.51,8.92 3.87,8.93 L3.92,8.93 C4.09880062,8.95084389 4.27925312,8.90838448 4.43,8.81 C4.43,8.81 4.27,8.81 4.11,8.81 L3.87,8.81 C3.77720151,8.82413069 3.68279849,8.82413069 3.59,8.81 L3.41,8.81 L3.41,8.8 Z" id="Shape" fill="#F5CD28"></path>
                <path d="M3.39,9.11 C3.39,9.2 3.63,9.26 3.87,9.26 C4.11,9.26 4.45,9.17 4.45,9.07 C4.45,8.97 4.1,9.07 3.87,9.07 C3.64,9.07 3.38,8.99 3.38,9.07 L3.39,9.11 Z" id="Shape" fill="#F5CD28"></path>
                <path d="M3.88,9.28 C3.70805707,9.29317982 3.53639518,9.25114017 3.39,9.16 C3.38384465,9.14390166 3.38384465,9.12609834 3.39,9.11 C3.39,9.06 3.45,9.06 3.47,9.06 L3.62,9.06 L3.86,9.06 C3.96304842,9.07085191 4.06695158,9.07085191 4.17,9.06 L4.39,9.06 C4.39,9.06 4.47,9.06 4.48,9.06 C4.49,9.06 4.12,9.26 3.89,9.26 L3.88,9.28 Z M3.46,9.09 C3.46,9.09 3.46,9.09 3.46,9.09 C3.46,9.09 3.72,9.22 3.93,9.22 C4.17,9.22 4.49,9.13 4.49,9.05 C4.40025978,9.04032931 4.30974022,9.04032931 4.22,9.05 L3.93,9.05 L3.65,9.05 L3.5,9.05 L3.46,9.09 Z" id="Shape" fill="#F5CD28"></path>
                <path d="M3.36,9.43 C3.36,9.52 3.68,9.54 3.94,9.52 C4.2,9.5 4.47,9.42 4.49,9.32 C4.51,9.22 4.18,9.32 3.93,9.38 C3.68,9.44 3.36,9.38 3.36,9.38 L3.36,9.43 Z" id="Shape" fill="#F5CD28"></path>
                <path d="M3.79,9.55 C3.69,9.55 3.38,9.55 3.35,9.43 C3.32,9.31 3.43,9.37 3.55,9.37 L3.93,9.37 C4.03651577,9.37802385 4.14348423,9.37802385 4.25,9.37 L4.45,9.37 C4.45,9.37 4.5,9.37 4.51,9.37 C4.52,9.37 4.2,9.57 3.94,9.58 L3.79,9.55 Z M3.55,9.41 C3.46,9.41 3.4,9.41 3.39,9.41 C3.38,9.41 3.54,9.5 3.8,9.5 L3.96,9.5 C4.23,9.5 4.47,9.4 4.49,9.32 L4.27,9.32 C4.16023466,9.3301613 4.04976534,9.3301613 3.94,9.32 L3.55,9.32 L3.55,9.41 Z" id="Shape" fill="#F5CD28"></path>
            </g>
        </g>
    </g>
</svg>