<svg id="Layer_1" data-name="Layer 1" xmlns="http://www.w3.org/2000/svg" xmlns:xlink="http://www.w3.org/1999/xlink" viewBox="0 0 200 200"><defs><style>.cls-1{fill:none;}.cls-2{fill:#ed1d24;}.cls-3{clip-path:url(#clip-path);}.cls-4{fill:#fff;}</style><clipPath id="clip-path" transform="translate(0 0)"><rect class="cls-1" x="11.94" y="52" width="176.11" height="96"/></clipPath></defs><title>LLY</title><rect class="cls-2" width="200" height="200"/><g class="cls-3"><path class="cls-4" d="M133.49,108c1-.73,2.13-1.57,3.16-2.39,7.92-6.35,14-13.29,15.18-17.14a3.41,3.41,0,0,0,.14-.77c0-.39-.18-.68-.54-.68-3.64,0-15.31,11.63-18.14,21v0Zm-29.27-1.35c11-8.35,22.63-20.47,23.87-25.46a2.74,2.74,0,0,0,.08-.47.58.58,0,0,0-.6-.62c-3.51,0-19.68,14.92-23.34,26.55M36.45,114A21.76,21.76,0,0,0,25,110.23c-3.9,0-6.41,1.54-6.41,3.48,0,2.22,3,3.19,6.43,3.19A25.34,25.34,0,0,0,36.45,114M70.27,87.88c7.92-2.54,15.42-7.85,21-13.38,5.17-5.13,9.31-11.2,9.31-14.23a1.05,1.05,0,0,0-1.12-1.1c-2.39,0-6.94,3.17-13.06,9.3A164.91,164.91,0,0,0,70.27,87.88M188.06,107c-6.8,6.76-28,25.35-33.58,41l-6.94-1.78c2.27-6.49,9.1-16.55,16.72-24.33a13.7,13.7,0,0,1-4.67.83,5.78,5.78,0,0,1-4.63-1.78,5,5,0,0,1-1-3.24,6.17,6.17,0,0,1,.06-.89c-6.68,4.07-12.06,5.91-17.33,5.91-4.1,0-7.54-1.78-9.15-4.91-6.64,3.3-13,4.91-18.32,4.91-5,0-8.95-2-10.78-5.53-6.71,3.76-12.43,5.53-17,5.53a8.13,8.13,0,0,1-6-2.1,5.92,5.92,0,0,1-1.57-3.95c-4.31,2.84-10.58,6-17,6a25,25,0,0,1-14.44-4.51,36.47,36.47,0,0,1-17.85,4.51c-4.82,0-12.59-2-12.59-8.89,0-5.56,5.81-9.34,13.58-9.34a30.37,30.37,0,0,1,17,5.68c3.79-3,7.77-7.24,12.47-13.21q-1.54.09-3,.09c-9,0-16.49-2.65-20.59-7.29a12.74,12.74,0,0,1-3.27-8.62c0-12.5,15.8-22.21,29.62-23.64.91,2.07,1.72,3.66,2.57,5.56-13.65,1.57-25,9.66-25,17.55,0,5.19,5.84,10.4,18.22,10.4a47.08,47.08,0,0,0,6.35-.5C70.74,75.43,87.49,52,101.91,52c4.26,0,6.5,2.6,6.5,6.06,0,7.14-6.14,14.82-10.13,18.82C92,83.19,80.63,92.58,64.77,95.69c-6.17,8.59-11.25,14.29-16.31,18.4a19,19,0,0,0,9.4,2.68c8.54,0,16.83-7.82,23.3-14.44l.23-.23,5,3.95-.23.27c-2.86,3.28-5.5,6.74-5.5,8.69,0,1.47,1.25,1.77,2.31,1.77,3.27,0,8.31-2.12,14.24-5.76V111c.65-14.66,20.67-37.07,32.81-37.07,3.43,0,5.4,1.71,5.4,4.7,0,7.35-12.67,23.1-31.11,35.16v0c1,2.06,3.14,3,6.88,3,2.9,0,8.6-1.3,15.36-4.84.79-7.59,5.08-15.75,10.54-21.56s11.61-9.6,16.92-9.6c3.27,0,5.2,1.8,5.2,4.63,0,6.41-7.44,17.37-25.37,28.85.8,1.54,2.33,2.51,4.73,2.51,5.34,0,14.74-5.7,22.07-12.7l5.26,4.08c-2.25,2.72-4.52,5.71-4.44,7.44,0,.56.39.94,1.29.94,5.4,0,13.89-7.14,20.27-13.42l5,3.87M90.32,92.3A4.32,4.32,0,1,1,86,96.63a4.31,4.31,0,0,1,4.32-4.32" transform="translate(0 0)"/></g></svg>