<?xml version="1.0" encoding="utf-8"?>
<!-- Generator: Adobe Illustrator 21.0.0, SVG Export Plug-In . SVG Version: 6.00 Build 0)  -->
<svg version="1.1" id="Layer_1" xmlns="http://www.w3.org/2000/svg" xmlns:xlink="http://www.w3.org/1999/xlink" x="0px" y="0px"
	 viewBox="0 0 200 200" style="enable-background:new 0 0 200 200;" xml:space="preserve">
<style type="text/css">
	.st0{fill:#2D509F;}
	.st1{fill:#FFFFFF;}
</style>
<title>LMT</title>
<rect class="st0" width="200" height="200"/>
<path class="st1" d="M200,79.3h-54.3C156.4,39,166,4.7,166,4.7s-36.7,39.4-69.5,74.6L0,79.9v3.5c46.8,1.3,90.4,2.5,90.4,2.5
	c-25.5,27.1-39.4,42.4-39.9,43c-1,1,0,1.5,1,0.5c0.5-0.5,18.9-17.4,45-43.5l40.4,0.5c-2.6,11.8-4.6,22.5-7.7,35.3
	C83,146.5,9.8,185.9,0,191.1v1.3c7.2-3.8,77.6-39.3,127.7-64.6c-8.7,39.4-14.3,66.4-14.3,66.9c-0.5,0.5,0.5,1,1,0
	c0-0.5,7.7-27.6,18.9-69.5c24.4-12.4,48.9-24.3,66.7-32.9V79.3z M103.2,79.3c24.5-24,45-43.5,45-43.5s-3.5,16.9-9.7,43.5H103.2z
	 M143.6,86.5l49.1,1c0,0-24.5,13.3-57.7,31.2C137.9,107.4,140.5,97.8,143.6,86.5z"/>
</svg>
