<?xml version="1.0" encoding="utf-8"?>
<!-- Generator: Adobe Illustrator 21.0.0, SVG Export Plug-In . SVG Version: 6.00 Build 0)  -->
<svg version="1.1" id="Layer_1" xmlns="http://www.w3.org/2000/svg" xmlns:xlink="http://www.w3.org/1999/xlink" x="0px" y="0px"
	 viewBox="0 0 200 200" style="enable-background:new 0 0 200 200;" xml:space="preserve">
<style type="text/css">
	.st0{fill:#FF5F00;}
	.st1{fill:#EB001B;}
	.st2{fill:#F79E1B;}
</style>
<title>MA</title>
<path class="st0" d="M127.1,148.5H73V51.4h54.1V148.5z"/>
<path class="st1" d="M76.5,100c0-18.9,8.6-36.9,23.5-48.6C73.1,30.3,34.2,35.1,13.1,62C4.7,72.8,0,86.2,0,100
	c0.1,34.2,27.9,61.9,62.1,61.8c13.8,0,27.2-4.7,38.1-13.2C85.2,136.9,76.5,119,76.5,100"/>
<path class="st2" d="M200,100c-0.1,34.2-27.8,61.8-62,61.8c-13.8,0-27.2-4.7-38-13.1c26.9-21.1,31.6-60,10.5-86.9
	c-3-3.9-6.5-7.3-10.3-10.4c26.9-21,65.7-16.3,86.7,10.5C195.4,72.8,200,86.2,200,100"/>
</svg>
