<?xml version="1.0" encoding="UTF-8"?>
<svg width="34px" height="20px" viewBox="0 0 34 20" version="1.1" xmlns="http://www.w3.org/2000/svg" xmlns:xlink="http://www.w3.org/1999/xlink">
    <!-- Generator: Sketch 49 (51002) - http://www.bohemiancoding.com/sketch -->
    <title>MDL</title>
    <desc>Created with Sketch.</desc>
    <defs></defs>
    <g id="Page-1" stroke="none" stroke-width="1" fill="none" fill-rule="evenodd">
        <g id="MDL" fill-rule="nonzero">
            <rect id="Rectangle-path" fill="#EFD928" x="0" y="0" width="33.56" height="19.58"></rect>
            <rect id="Rectangle-path" fill="#1F00AF" x="0" y="0" width="11.19" height="19.58"></rect>
            <rect id="Rectangle-path" fill="#D00524" x="22.38" y="0" width="11.19" height="19.58"></rect>
            <g id="Group" transform="translate(12.000000, 4.000000)">
                <path d="M3.66,0.38 C3.60799254,0.363181783 3.55200746,0.363181783 3.5,0.38 C3.55593309,0.398012451 3.59282879,0.451306244 3.59,0.51 L3.59,0.67 L3.43,0.67 C3.36963353,0.668195662 3.31722831,0.62788395 3.3,0.57 C3.28301788,0.625394348 3.28301788,0.684605652 3.3,0.74 C3.28238191,0.795297267 3.28238191,0.854702733 3.3,0.91 C3.31722831,0.85211605 3.36963353,0.811804338 3.43,0.81 L3.59,0.81 L3.59,1.57 C3.59282879,1.62869376 3.55593309,1.68198755 3.5,1.7 C3.57,1.7 3.64,1.81 3.66,1.87 C3.68,1.93 3.74,1.71 3.82,1.7 C3.76605927,1.67937624 3.7303167,1.62774809 3.73,1.57 L3.73,0.86 L3.89,0.86 C3.95544018,0.874337531 4.00155222,0.933025579 4,1 C4.01500374,0.94772188 4.01500374,0.89227812 4,0.84 C4.0163914,0.784518678 4.0163914,0.725481322 4,0.67 C3.98277169,0.72788395 3.93036647,0.768195662 3.87,0.77 L3.71,0.77 L3.71,0.56 C3.70834346,0.498453805 3.75008806,0.444185823 3.81,0.43 C3.75460565,0.413017884 3.69539435,0.413017884 3.64,0.43" id="Shape" fill="#000000"></path>
                <path d="M3.66,0.42 L3.57,0.42 C3.60816278,0.452387326 3.6301133,0.49994679 3.63,0.55 L3.63,0.71 L3.44,0.71 C3.38963631,0.711586171 3.34146794,0.689354613 3.31,0.65 C3.3039994,0.683063279 3.3039994,0.716936721 3.31,0.75 C3.30420952,0.783081861 3.30420952,0.816918139 3.31,0.85 C3.34146794,0.810645387 3.38963631,0.788413829 3.44,0.79 L3.63,0.79 L3.63,1.55 C3.63,1.5972136 3.60777088,1.64167184 3.57,1.67 L3.63,1.73 L3.63,1.79 C3.62738011,1.7700858 3.62738011,1.7499142 3.63,1.73 L3.69,1.68 C3.65222912,1.65167184 3.63,1.6072136 3.63,1.56 L3.63,0.86 L3.63,0.82 L3.82,0.82 C3.86976566,0.821163746 3.91682743,0.842884562 3.95,0.88 C3.96566325,0.817635104 3.96566325,0.752364896 3.95,0.69 C3.91761267,0.72816278 3.87005321,0.750113302 3.82,0.75 L3.7,0.75 L3.7,0.56 C3.69733518,0.511514432 3.71553166,0.464203585 3.75,0.43 L3.65,0.43" id="Shape" fill="#F9F92B"></path>
                <polygon id="Shape" fill="#7F6332" points="3.78 3.2 3.52 3.14 2.96 2.85 2.61 2.83 2.59 2.15 1.92 1.61 1.23 2.35 1.14 2.57 1.17 9.27 1.61 8.74 1.71 8.76 2.16 8.27 2.55 7.29 2.66 6.88 3.19 7.5 2.99 7.87 3.17 7.85 3.19 8.01 3.35 7.94 3.39 8.15 3.76 7.78 4.26 8.03 3.3 9.74 2.96 9.99 3.58 10.22 4.21 9.48 4.12 9.97 3.93 10.44 4.7 10.88 5.54 10.39 5.12 9.53 5.26 9.46 5.8 10.25 6.39 9.96 5.63 9.06 5.12 7.98 5.65 7.8 6.01 8.15 6.07 7.93 6.26 8.02 6.23 7.83 6.43 7.87 6.19 7.5 6.79 7 7.17 8.18 7.73 8.81 7.84 8.8 8.24 9.3 8.24 2.39 7.5 1.61 6.77 2.19 6.8 2.83 6.48 2.84 5.99 3.09 5.72 3.18 5.59 3.2 5.43 3.02 5.2 2.58 5.19 2.14 5.33 1.85 5.3 1.58 5.42 1.58 5.35 1.4 5.45 1.36 5.29 1.21 5.35 1.15 4.73 0.88 4.27 0.85 4.14 0.91 4.08 1.02 4.2 1.37 4.07 1.5 4.2 1.76 4.2 2.32 4.1 2.8 3.89 3.16"></polygon>
                <polygon id="Shape" fill="#C11B2C" points="3.07 7.88 2.61 8.59 2.38 8.58 2.15 8.69 2.07 8.94 2.11 9.06 2.36 9.33 2.57 9.21 2.73 9.03 2.77 8.88 3.36 8.12 3.33 7.93 3.2 8.01 3.15 7.85"></polygon>
                <polygon id="Shape" fill="#C11B2C" points="6.03 8.09 6.65 8.93 6.71 9.09 6.98 9.34 7.07 9.31 7.36 8.97 7.3 8.73 7.02 8.56 6.81 8.58 6.34 7.88 6.26 7.84 6.23 7.98 6.09 7.94"></polygon>
                <path d="M4.41,0.82 C4.32478881,0.797537494 4.23521119,0.797537494 4.15,0.82 C4.09,0.82 4.1,0.91 4.07,0.93 C4.01151877,0.949092033 3.94848123,0.949092033 3.89,0.93 C3.62,0.93 3.61,1.22 3.61,1.22 C3.65596986,1.16085161 3.72521795,1.12440524 3.8,1.12 C4,1.12 4.15,1.23 4.15,1.27 C4.15,1.31 4.15,1.27 4.15,1.27 C4.15,1.27 3.82,1.2 3.71,1.19 C4.03010236,1.26466433 4.23630622,1.57616379 4.18,1.9 C4.2437645,2.27648184 4.18043776,2.66347853 4,3 C3.93890058,3.09358727 3.86090378,3.17497524 3.77,3.24 C3.62484941,3.17546493 3.48733559,3.09496903 3.36,3 C3.16341028,2.84415384 2.92855557,2.74399522 2.68,2.71 L2.68,2.51 C2.68,2.39 2.68,2.28 2.68,2.16 C2.68,2.04 2.21,1.7 1.88,1.51 C1.48774195,1.7301313 1.18912044,2.0856331 1.04,2.51 C1.04,2.51 1.04,7.51 1.04,9.24 C1.03324195,9.32274002 1.01297349,9.40381384 0.98,9.48 C1.21718874,9.30426881 1.40914486,9.07460703 1.54,8.81 L1.54,8.89 C1.77546319,8.75239297 1.96372748,8.5466968 2.08,8.3 C2.08,8.3 2.08,8.38 2.08,8.38 C2.3371955,7.95071732 2.52928622,7.48565556 2.65,7 L2.65,6.75 C2.57662078,7.17004272 2.42753285,7.57325779 2.21,7.94 L2.21,3.68 L2.4,3.85 L2.68,3.59 L2.68,3.39 L2.43,3.62 L2.43,3 L2.51,2.87 C2.59681523,3.02406899 2.70449994,3.16540517 2.83,3.29 C2.83,3.19 3.02,3.09 3.02,3.09 C3.02,3.09 3.08,3.25 3.17,3.29 C3.23630897,3.22189367 3.31011182,3.16150952 3.39,3.11 C3.31098317,3.12360545 3.23589653,3.15432271 3.17,3.2 C3.11,3.2 3.1,2.96 3.1,2.96 C3.1,2.96 2.86,3.08 2.82,3.16 C2.78,3.24 2.7,2.97 2.68,2.89 L2.86,2.89 C2.94784909,2.89965934 3.03286346,2.92686394 3.11,2.97 L3.41,3.12 C3.5252886,3.16313297 3.64694878,3.18678912 3.77,3.19 L3.57,3.31 C3.73821324,3.30819439 3.90453092,3.274252 4.06,3.21 C4.13409944,3.16600332 4.20434927,3.11582487 4.27,3.06 C4.24080822,3.15198172 4.19317166,3.237047 4.13,3.31 C4.31909621,3.30174519 4.49483985,3.21021204 4.61,3.06 C4.63821032,3.13411396 4.6751364,3.20460919 4.72,3.27 C4.76801797,3.20655869 4.80518837,3.13559702 4.83,3.06 C4.94828345,3.21174653 5.12771632,3.30329391 5.32,3.31 C5.25770068,3.23643818 5.2101667,3.15155609 5.18,3.06 C5.24669777,3.11446879 5.31684376,3.16457307 5.39,3.21 C5.54546908,3.274252 5.71178676,3.30819439 5.88,3.31 L5.68,3.19 C5.78906894,3.18613296 5.89693863,3.16590739 6,3.13 L6.3,2.98 C6.37691107,2.93634713 6.46203446,2.90910765 6.55,2.9 L6.73,2.9 C6.73,2.98 6.63,3.15 6.59,3.17 C6.55,3.19 6.31,2.97 6.31,2.97 C6.31,2.97 6.31,3.19 6.24,3.21 C6.16700236,3.16569272 6.08498248,3.13835276 6,3.13 C6.07988818,3.18150952 6.15369103,3.24189367 6.22,3.31 C6.31,3.31 6.37,3.11 6.37,3.11 C6.37,3.11 6.54,3.21 6.56,3.31 C6.69005683,3.18699115 6.80125406,3.04546741 6.89,2.89 L7,3 L7,3.6 L6.75,3.37 L6.75,3.57 L7.03,3.83 L7.21,3.66 L7.21,7.92 C6.9942323,7.55241897 6.84526548,7.14953143 6.77,6.73 L6.77,6.98 C6.8743709,7.4772584 7.05304154,7.9559609 7.3,8.4 L7.3,8.32 C7.41627252,8.5666968 7.60453681,8.77239297 7.84,8.91 L7.84,8.83 C7.97117657,9.09439733 8.16307467,9.32398969 8.4,9.5 C8.36702651,9.42381384 8.34675805,9.34274002 8.34,9.26 C8.34,7.52 8.34,2.53 8.34,2.53 C8.19087956,2.1056331 7.89225805,1.7501313 7.5,1.53 C7.18,1.72 6.82,2.15 6.7,2.18 C6.58,2.21 6.7,2.41 6.7,2.53 L6.7,2.76 C6.449267,2.77527902 6.20736067,2.85821833 6,3 C5.87569555,3.06627918 5.74503744,3.1198825 5.61,3.16 C5.53908751,3.11637721 5.47505424,3.06245446 5.42,3 C5.28464432,2.76990722 5.21543554,2.50691387 5.22,2.24 C5.22,2.12 5.35,2 5.35,1.9 C5.35603008,1.82679063 5.35603008,1.75320937 5.35,1.68 C5.35,1.68 5.48,1.77 5.48,1.77 C5.48,1.77 5.48,1.53 5.4,1.49 C5.32,1.45 5.4,1.49 5.54,1.49 C5.49269898,1.4212402 5.43134834,1.36329793 5.36,1.32 L5.49,1.32 L5.34,1.32 C5.21779828,1.20512017 5.10416186,1.081457 5,0.95 C4.82976585,0.863129413 4.64111261,0.818538647 4.45,0.82 L4.41,0.82 Z M4.45,0.89 L4.51,0.89 C4.74045554,0.913512392 4.96263758,0.988712467 5.16,1.11 L5.33,1.18 C5.30384994,1.20144625 5.28326639,1.22889099 5.27,1.26 C5.33275396,1.27501194 5.38681979,1.31466022 5.42,1.37 C5.42,1.37 5.32,1.37 5.3,1.44 C5.36339256,1.4575067 5.40798858,1.51426527 5.41,1.58 L5.27,1.58 C5.2798304,1.68978037 5.2798304,1.80021963 5.27,1.91 C5.27,2 5.14,2.1 5.14,2.25 C5.12499035,2.527524 5.19474368,2.80304966 5.34,3.04 C5.37190645,3.10196731 5.41229508,3.15918455 5.46,3.21 C5.22,3 5,2.86 5,2.71 L5,2.15 L5,2.71 C4.98687495,2.76252583 4.98687495,2.81747417 5,2.87 C5.04009954,3.00184056 5.09371772,3.12918375 5.16,3.25 C4.94,3.13 4.83,2.98 4.83,2.93 L4.83,2.15 L4.77,2.15 L4.77,3 C4.74586104,3.03817556 4.71543072,3.07198703 4.68,3.1 L4.61,3 L4.61,2.95 L4.61,2.15 L4.54,2.15 L4.54,2.93 C4.54,2.98 4.43,3.13 4.21,3.25 C4.27561095,3.12886045 4.32920007,3.00158629 4.37,2.87 C4.38135532,2.81727109 4.38135532,2.76272891 4.37,2.71 L4.37,2.15 L4.31,2.15 L4.31,2.71 C4.31,2.86 4.13,3.02 3.89,3.15 C3.95048777,3.10822474 4.00441321,3.05766964 4.05,3 C4.20940961,2.71744531 4.27915973,2.39310724 4.25,2.07 C4.25686645,1.9117019 4.22601915,1.75403788 4.16,1.61 C4.16,1.61 4.16,1.49 4.25,1.49 C4.33062922,1.51486411 4.40544238,1.55567129 4.47,1.61 C4.46450908,1.55130053 4.43568801,1.49726102 4.39,1.46 C4.38221598,1.44075739 4.38221598,1.41924261 4.39,1.4 C4.39853333,1.3664 4.42013333,1.3376 4.45,1.32 C4.45,1.32 4.19,1.26 4.19,1.14 C4.19,1.02 4.19,1.14 4.26,1.14 C4.33,1.14 4.46,1.23 4.57,1.23 L4.77,1.23 C4.87,1.23 5.09,1.42 5.15,1.42 C5.21,1.42 4.94,1.18 4.74,1.18 L4.54,1.18 C4.46,1.18 4.38,1.1 4.29,1.1 C4.2,1.1 4.17,1.1 4.16,1.1 C4.15,1.1 4.16,1.1 4.16,1.04 C4.16,0.98 4.27,0.99 4.36,0.98 L4.43,0.98 L4.45,0.89 Z M1.94,1.83 C2.12025194,2.00329852 2.31797422,2.15745488 2.53,2.29 L2.53,2.83 C2.40343925,2.75284707 2.29715293,2.64656075 2.22,2.52 L2.22,2.36 C2.2205084,2.31794514 2.23864912,2.27803555 2.27,2.25 L2.2,2.25 C2.16896648,2.28237467 2.15113593,2.325168 2.15,2.37 L1.99,2.54 L1.8,2.25 L1.8,2.24 C1.80624807,2.18658468 1.83101658,2.13704765 1.87,2.1 L1.8,2.1 C1.76515936,2.14270436 1.74422185,2.19504813 1.74,2.25 L1.74,2.31 L1.52,2.54 L1.41,2.3 C1.56656506,2.0946232 1.75178526,1.91277064 1.96,1.76 L1.94,1.83 Z M7.52,1.76 C7.72751826,1.91358811 7.91263039,2.09533456 8.07,2.3 L7.96,2.54 L7.74,2.31 L7.74,2.23 C7.73517226,2.17519088 7.71430345,2.12301884 7.68,2.08 L7.62,2.08 C7.65467073,2.11891392 7.67573181,2.16805642 7.68,2.22 L7.68,2.29 L7.49,2.58 L7.33,2.41 C7.32886407,2.365168 7.31103352,2.32237467 7.28,2.29 L7.22,2.29 C7.25244628,2.31721686 7.27082868,2.35765815 7.27,2.4 L7.27,2.46 C7.1934739,2.58705238 7.08705238,2.6934739 6.96,2.77 L6.96,2.19 C7.17198469,2.05739617 7.36970114,1.90324436 7.55,1.73 L7.52,1.76 Z M1.33,2.42 L1.43,2.6 L1.43,2.93 L1.24,3 L1.24,2.56 C1.24303685,2.50018487 1.26016929,2.44193458 1.29,2.39 L1.33,2.42 Z M8.1,2.39 C8.13097303,2.44143963 8.14819153,2.49998256 8.15,2.56 L8.15,3 L8,2.91 L8,2.58 L8.1,2.39 Z M1.69,2.39 L1.86,2.66 L1.86,2.87 L1.69,3.04 L1.69,2.39 Z M7.69,2.39 L7.69,3.03 L7.51,2.86 L7.51,2.7 L7.69,2.39 Z M1.62,2.39 L1.62,2.98 L1.44,2.82 L1.44,2.67 L1.62,2.39 Z M7.75,2.39 L7.93,2.57 L7.93,2.81 L7.75,2.97 L7.75,2.39 Z M2.16,2.39 C2.22668489,2.50875236 2.3189038,2.61121782 2.43,2.69 C2.35879589,2.79427686 2.26688864,2.88278014 2.16,2.95 L2.16,2.39 Z M7.21,2.39 L7.21,2.95 C7.13507481,2.9193119 7.06447792,2.87897082 7,2.83 C7.11202658,2.75226829 7.20445744,2.64956733 7.27,2.53 L7.21,2.39 Z M2.16,2.53 L2.16,3.05 L1.98,2.89 L1.98,2.73 L2.16,2.53 Z M7.33,2.53 L7.51,2.7 L7.51,2.88 L7.33,3.04 L7.33,2.53 Z M1.44,3.08 L1.44,3.6 L1.28,3.46 L1.28,3.25 L1.44,3.08 Z M8.05,3.08 L8.2,3.23 L8.2,3.46 L8,3.63 L8.05,3.08 Z M1.5,3.08 L1.6,3.17 L1.68,3.24 L1.68,3.42 L1.6,3.49 L1.5,3.58 L1.5,3.08 Z M1.91,3.08 L1.91,3.59 L1.81,3.5 L1.73,3.43 L1.73,3.27 L1.81,3.2 L1.91,3.08 Z M1.98,3.08 L2.16,3.25 L2.16,3.43 L2,3.53 L1.9,3.62 L1.98,3.08 Z M2.4,3.08 L2.4,3.6 L2.3,3.51 L2.22,3.44 L2.22,3.29 C2.29007898,3.2410051 2.3510051,3.18007898 2.4,3.11 L2.4,3.08 Z M7.1,3.11 C7.1489949,3.18007898 7.20992102,3.2410051 7.28,3.29 L7.28,3.46 L7.2,3.53 L7.1,3.62 L7.1,3.11 Z M7.52,3.11 L7.52,3.62 L7.42,3.53 L7.34,3.46 L7.34,3.27 L7.52,3.11 Z M7.59,3.11 L7.69,3.2 L7.76,3.27 L7.76,3.45 L7.69,3.52 L7.59,3.61 L7.59,3.11 Z M8,3.11 L8,3.62 L7.9,3.53 L7.82,3.46 L7.82,3.27 L7.9,3.2 L8,3.11 Z M1.78,3.68 L1.97,3.85 L2.16,3.68 L2.16,7.94 C2.16,7.94 2.16,8.15 2.16,8.29 L1.77,8.69 L1.78,3.68 Z M7.78,3.68 L7.78,8.68 L7.38,8.28 C7.38,8.14 7.38,7.93 7.38,7.93 L7.38,3.68 L7.57,3.85 L7.78,3.68 Z M1.71,3.68 L1.71,8.53 C1.64873795,8.74275434 1.51860344,8.92916323 1.34,9.06 L1.34,3.68 L1.53,3.85 L1.71,3.68 Z M7.89,3.68 L8.08,3.85 L8.27,3.68 L8.27,9.06 C8.09139656,8.92916323 7.96126205,8.74275434 7.9,8.53 L7.89,3.68 Z M3.25,7.49 C3.17777328,7.63950909 3.09419524,7.78326331 3,7.92 C3,7.92 2.72,8.32 2.64,8.46 C2.56,8.6 2.51,8.53 2.4,8.53 C2.26768842,8.56318237 2.1489087,8.63654631 2.06,8.74 C2.0238714,8.80072437 2.00326385,8.86941621 2,8.94 C2.00865907,9.0016535 2.03273563,9.06012516 2.07,9.11 L2.29,9.38 C2.34,9.40666667 2.4,9.40666667 2.45,9.38 C2.54521974,9.30946725 2.62946725,9.22521974 2.7,9.13 C2.7,9.07 2.7,9 2.79,8.94 L3.32,8.23 C3.32218051,8.25662209 3.32218051,8.28337791 3.32,8.31 C3.45151416,8.13337232 3.6062411,7.97528176 3.78,7.84 L3.67,7.77 C3.57746062,7.88342361 3.47722373,7.99034297 3.37,8.09 C3.35640875,8.02918787 3.33972034,7.96910961 3.32,7.91 C3.28213727,7.94231199 3.23781793,7.96617624 3.19,7.98 C3.19,7.98 3.19,7.89 3.19,7.83 C3.13772188,7.84500374 3.08227812,7.84500374 3.03,7.83 C3.12,7.83 3.22,7.53 3.22,7.53 L3.15,7.53 L3.25,7.49 Z M6.35,7.49 L6.28,7.49 C6.28,7.49 6.39,7.75 6.47,7.79 C6.4176501,7.80448447 6.3623499,7.80448447 6.31,7.79 C6.31,7.85 6.31,7.94 6.31,7.94 C6.25876418,7.92721698 6.21096791,7.90331884 6.17,7.87 C6.17,7.87 6.12,8.05 6.12,8.05 C6.01329437,7.94982394 5.91309072,7.84294004 5.82,7.73 L5.72,7.8 C5.89417348,7.93481675 6.04895965,8.09296784 6.18,8.27 C6.17790527,8.24337447 6.17790527,8.21662553 6.18,8.19 L6.71,8.9 C6.71,8.96 6.71,9.03 6.8,9.09 C6.8707523,9.18503024 6.95496976,9.2692477 7.05,9.34 C7.09641016,9.36679492 7.15358984,9.36679492 7.2,9.34 L7.42,9.07 C7.45726437,9.02012516 7.48134093,8.9616535 7.49,8.9 C7.48507002,8.82825283 7.46088816,8.75916181 7.42,8.7 C7.33245951,8.59495731 7.21311986,8.52124753 7.08,8.49 C6.97,8.49 6.92,8.55 6.84,8.42 C6.76,8.29 6.51,7.93 6.48,7.88 L6.58,7.88 C6.48524723,7.74361747 6.40164311,7.59981838 6.33,7.45 L6.35,7.49 Z M3.2,7.86 C3.18602896,7.91580553 3.18602896,7.97419447 3.2,8.03 L3.3,8 C3.29798181,8.0366389 3.29798181,8.0733611 3.3,8.11 L2.74,8.87 C2.70432689,8.93270137 2.67741007,8.99999342 2.66,9.07 C2.62714531,9.05596588 2.60427344,9.02547005 2.6,8.99 C2.59798181,8.9533611 2.59798181,8.9166389 2.6,8.88 C2.56579642,8.91446834 2.51848557,8.93266482 2.47,8.93 C2.47,8.87 2.59,8.8 2.6,8.71 C2.51,8.78 2.43,8.71 2.32,8.78 C2.21,8.85 2.17,8.86 2.13,8.86 C2.09,8.86 2.13,8.86 2.13,8.8 C2.19644842,8.71922133 2.287944,8.66291636 2.39,8.64 C2.39,8.64 2.6,8.64 2.64,8.64 L3.07,7.97 L3.2,7.86 Z M6.22,7.97 L6.65,8.64 C6.65,8.7 6.88,8.64 6.9,8.64 C7.00149356,8.66428557 7.09258274,8.72034045 7.16,8.8 C7.16,8.8 7.16,8.86 7.16,8.86 C7.16,8.86 7.09,8.86 6.98,8.78 C6.87,8.7 6.79,8.78 6.7,8.71 C6.7,8.8 6.82,8.87 6.82,8.93 C6.775168,8.92886407 6.73237467,8.91103352 6.7,8.88 C6.70201819,8.9166389 6.70201819,8.9533611 6.7,8.99 C6.69572656,9.02547005 6.67285469,9.05596588 6.64,9.07 C6.62162408,9.00030883 6.59475618,8.93313907 6.56,8.87 L6,8.11 L6,8 L6.13,8.09 C6.14484643,8.03430576 6.14484643,7.97569424 6.13,7.92 L6.22,7.97 Z M4.21,8 C4.21,8 3.47,9.71 2.81,10 C2.81,10 3.1,10.12 3.45,10.31 L3.61,10.39 L3.75,10.21 C3.96,9.93 4.17,9.6 4.17,9.6 C4.12209433,9.84141972 4.02322648,10.0698385 3.88,10.27 L3.76,10.47 L3.9,10.55 C4.21447674,10.7090918 4.48818721,10.9383244 4.7,11.22 C4.91308531,10.9395348 5.18649164,10.710557 5.5,10.55 L5.64,10.47 L5.52,10.27 C5.37807952,10.0691024 5.27933625,9.84097138 5.23,9.6 C5.23,9.6 5.44,9.93 5.65,10.21 L5.79,10.39 L5.95,10.31 C6.31,10.12 6.59,10 6.59,10 C5.93,9.74 5.18,8 5.18,8 L5.07,8 C5.33931773,8.70615745 5.73587951,9.35692548 6.24,9.92 L5.79,10.09 C5.58541179,9.83284012 5.3983242,9.56223129 5.23,9.28 C5.09885972,9.02147957 4.9949673,8.75001873 4.92,8.47 C4.90114897,9.10511104 5.05310141,9.73364161 5.36,10.29 C5.11582283,10.4063591 4.89007641,10.5579798 4.69,10.74 C4.49105104,10.5565464 4.2650776,10.4047732 4.02,10.29 C4.32689859,9.73364161 4.47885103,9.10511104 4.46,8.47 C4.38313239,8.75084211 4.27582987,9.02245162 4.14,9.28 C3.97768513,9.56368944 3.79381051,9.83448661 3.59,10.09 L3.14,9.92 C3.64696113,9.35718929 4.04685693,8.70651139 4.32,8 L4.21,8 Z M2.27,8.82 L2.21,8.87 L2.27,8.82 Z M7.13,8.82 L7.19,8.87 L7.13,8.82 Z M2.33,8.87 L2.18,9 C2.16094286,8.98055782 2.16094286,8.94944218 2.18,8.93 L2.33,8.8 L2.33,8.87 Z M7.05,8.8 L7.2,8.93 L7,9 L7.05,8.8 Z M2.36,9.1 L2.21,9.23 L2.36,9.1 Z M7,9 L7.15,9.13 L7,9 Z M2.54,9.1 C2.55905714,9.11944218 2.55905714,9.15055782 2.54,9.17 L2.39,9.3 L2.54,9.17 L2.54,9.1 Z M6.9,9.17 L7.05,9.3 L6.9,9.17 C6.88094286,9.15055782 6.88094286,9.11944218 6.9,9.1 L6.9,9.17 Z" id="Shape" fill="#000000"></path>
                <polygon id="Shape" fill="#000000" points="2.66 9.15 3.01 9.34 2.93 9.72 2.58 9.53"></polygon>
                <path d="M1,5.44 L0.87,5.5 L2.28,8.6 L2.43,8.6 L1,5.44 Z M2.67,9.09 L2.57,9.2 L2.63,9.34 L2.76,9.28 L2.67,9.09 Z" id="Shape" fill="#000000"></path>
                <polygon id="Shape" fill="#F9F92B" points="2.71 9.26 2.93 9.37 2.88 9.61 2.66 9.49"></polygon>
                <path d="M1.49,7.88 C1.49,7.88 1.61,8.13 1.7,8.16 C1.63378736,8.14899661 1.56621264,8.14899661 1.5,8.16 C1.64043892,8.28978912 1.81309437,8.37956995 2,8.42 C2.1003448,8.4327268 2.20152518,8.40381812 2.28,8.34 L2.28,8.14 C2.19448612,8.04674935 2.08831638,7.97482791 1.97,7.93 C1.82335732,7.88704072 1.67246384,7.86021521 1.52,7.85" id="Shape" fill="#000000"></path>
                <path d="M2.38,7.44 C2.28564763,7.52053318 2.21337365,7.62378172 2.17,7.74 C2.13638651,7.85424552 2.13638651,7.97575448 2.17,8.09 L2.31,8.35 C2.41911949,8.2900412 2.51183693,8.20419173 2.58,8.1 C2.6305599,7.98719584 2.64790472,7.86231313 2.63,7.74 C2.57042198,7.7599821 2.51337163,7.78682933 2.46,7.82 C2.46508542,7.68480815 2.42651654,7.55157023 2.35,7.44" id="Shape" fill="#000000"></path>
                <path d="M1.85,7.37 C1.73050467,7.40802052 1.6053008,7.42493996 1.48,7.42 C1.35848292,7.4038195 1.24585465,7.34750536 1.16,7.26 C1.16,7.26 1.3,7.16 1.37,7.18 C1.29,7.18 1.18,6.96 1.18,6.96 C1.27782842,6.93052743 1.38217158,6.93052743 1.48,6.96 C1.5855623,7.00729504 1.67817563,7.07932762 1.75,7.17 L1.85,7.37 Z" id="Shape" fill="#000000"></path>
                <path d="M1.92,6.46 C1.92,6.46 2.02,6.65 1.99,6.72 C2.031644,6.67735601 2.07871404,6.64037241 2.13,6.61 C2.16395073,6.77493769 2.16395073,6.94506231 2.13,7.11 C2.08350806,7.23151807 1.9896778,7.3289572 1.87,7.38 L1.66,7 C1.63155291,6.90883426 1.63155291,6.81116574 1.66,6.72 C1.71874421,6.63059884 1.79329666,6.55265764 1.88,6.49 L1.92,6.46 Z" id="Shape" fill="#000000"></path>
                <path d="M0.7,5.95 C0.828794726,5.93887091 0.958467896,5.95593317 1.08,6 C1.16638892,6.03359902 1.23751816,6.09761534 1.28,6.18 L1.36,6.38 C1.23296806,6.41928602 1.09703194,6.41928602 0.97,6.38 C0.846612814,6.31998229 0.742638365,6.22640529 0.67,6.11 C0.725898605,6.09680554 0.784101395,6.09680554 0.84,6.11 C0.77,6.11 0.7,5.95 0.7,5.95" id="Shape" fill="#000000"></path>
                <path d="M1.34,5.57 C1.39512689,5.6428705 1.42966395,5.72921316 1.44,5.82 C1.46967114,5.7596248 1.51445496,5.70795115 1.57,5.67 C1.63291456,5.81853473 1.6635903,5.9787303 1.66,6.14 C1.63781338,6.26351537 1.56999179,6.37417166 1.47,6.45 L1.26,6.06 C1.24027985,5.96770832 1.24027985,5.87229168 1.26,5.78 C1.28071826,5.69830183 1.32611175,5.62497389 1.39,5.57" id="Shape" fill="#000000"></path>
                <path d="M0.64,4.82 C0.612056336,4.92822534 0.612056336,5.04177466 0.64,5.15 C0.662915151,5.1978325 0.693294913,5.24171438 0.73,5.28 C0.647620847,5.23229168 0.555072044,5.20486981 0.46,5.2 C0.492695404,5.3301623 0.562118889,5.44818223 0.66,5.54 C0.764433458,5.60506651 0.887669132,5.63323466 1.01,5.62 C1.08952035,5.50875046 1.13471414,5.37664555 1.14,5.24 C1.12741468,5.09397237 1.07935563,4.95322801 1,4.83 C0.967900943,4.90298978 0.947646629,4.98063132 0.94,5.06 C0.88,5 0.64,4.82 0.64,4.82 Z" id="Shape" fill="#000000"></path>
                <path d="M0.7,5 C0.683836718,5.07918359 0.683836718,5.16081641 0.7,5.24 C0.742732876,5.29678368 0.802184736,5.3387497 0.87,5.36 C0.889091534,5.28113902 0.889091534,5.19886098 0.87,5.12 C0.829464875,5.06099904 0.76916856,5.01843693 0.7,5" id="Shape" fill="#285F37"></path>
                <path d="M0.59,5.3 C0.664821493,5.30505622 0.737109075,5.32915208 0.8,5.37 C0.852505526,5.41875606 0.890564545,5.48103445 0.91,5.55 C0.849414711,5.55217665 0.789759507,5.534631 0.74,5.5 C0.67887153,5.44245465 0.628127565,5.37479603 0.59,5.3" id="Shape" fill="#285F37"></path>
                <path d="M1,5 C0.985134257,5.06921075 0.985134257,5.14078925 1,5.21 C1.0085946,5.29040024 1.03234694,5.36844364 1.07,5.44 C1.1017387,5.36389562 1.11870711,5.28244726 1.12,5.2 C1.09968441,5.12334103 1.05807999,5.05400033 1,5" id="Shape" fill="#285F37"></path>
                <path d="M0.79,6 C0.83530974,6.05896132 0.893444545,6.10683705 0.96,6.14 C1.03950401,6.17205122 1.12428429,6.18900728 1.21,6.19 C1.15709825,6.11000901 1.08486902,6.04465875 1,6 C0.92076359,5.98436834 0.83923641,5.98436834 0.76,6" id="Shape" fill="#285F37"></path>
                <path d="M0.82,6.2 C0.852664544,6.25883435 0.901165653,6.30733546 0.96,6.34 C1.04945161,6.35405061 1.14054839,6.35405061 1.23,6.34 C1.18648898,6.2858107 1.13194873,6.24149674 1.07,6.21 C0.987181598,6.19689871 0.902818402,6.19689871 0.82,6.21" id="Shape" fill="#285F37"></path>
                <path d="M1.33,5.69 C1.31433675,5.7523649 1.31433675,5.8176351 1.33,5.88 C1.33700949,5.95442307 1.36095375,6.02625585 1.4,6.09 C1.41126985,6.01709965 1.41126985,5.94290035 1.4,5.87 C1.39616604,5.80886283 1.37539074,5.74999948 1.34,5.7" id="Shape" fill="#285F37"></path>
                <path d="M1.53,5.82 C1.47577144,5.89444733 1.43825045,5.9797223 1.42,6.07 C1.41524661,6.15944512 1.43241057,6.24869772 1.47,6.33 C1.53200201,6.26303437 1.5736287,6.17978099 1.59,6.09 C1.5922093,5.9952439 1.56796932,5.90174683 1.52,5.82" id="Shape" fill="#285F37"></path>
                <path d="M1.28,7 C1.27476821,7.0297719 1.27476821,7.0602281 1.28,7.09 C1.31316821,7.1269897 1.35002594,7.16049673 1.39,7.19 C1.43605613,7.1793245 1.48394387,7.1793245 1.53,7.19 C1.59767486,7.20981454 1.66179744,7.24018839 1.72,7.28 C1.65793868,7.1900006 1.5799994,7.11206132 1.49,7.05 C1.40869873,7.02397396 1.32130127,7.02397396 1.24,7.05" id="Shape" fill="#285F37"></path>
                <path d="M1.26,7.27 C1.34887013,7.24983191 1.44112987,7.24983191 1.53,7.27 C1.61460677,7.28701293 1.69364906,7.32481577 1.76,7.38 C1.66761915,7.39885716 1.57238085,7.39885716 1.48,7.38 C1.40198184,7.36710067 1.32919022,7.332438 1.27,7.28" id="Shape" fill="#285F37"></path>
                <path d="M1.88,6.6 C1.81244296,6.66978246 1.76419702,6.75593593 1.74,6.85 C1.74280592,6.93660868 1.77857511,7.01887782 1.84,7.08 C1.83232773,7.03700627 1.83232773,6.99299373 1.84,6.95 C1.85513301,6.91397805 1.87533734,6.88030416 1.9,6.85 C1.90727323,6.81369401 1.90727323,6.77630599 1.9,6.74 C1.89026077,6.69114169 1.87341518,6.64397404 1.85,6.6" id="Shape" fill="#285F37"></path>
                <path d="M2.06,6.75 C1.99171498,6.82090027 1.94042493,6.90638368 1.91,7 C1.88471479,7.08822405 1.88471479,7.18177595 1.91,7.27 C1.97831376,7.21292584 2.02723041,7.13605681 2.05,7.05 C2.0718869,6.94782563 2.0718869,6.84217437 2.05,6.74" id="Shape" fill="#285F37"></path>
                <path d="M2.37,7.55 C2.40103289,7.61719382 2.42451002,7.68762521 2.44,7.76 C2.44708878,7.80304343 2.44708878,7.84695657 2.44,7.89 L2.36,7.98 C2.35025763,8.01940679 2.35025763,8.06059321 2.36,8.1 C2.29933356,8.01503273 2.2645985,7.91430104 2.26,7.81 C2.28789827,7.71525428 2.33952943,7.62920234 2.41,7.56" id="Shape" fill="#285F37"></path>
                <path d="M2.61,7.81 C2.53263148,7.86502909 2.46502909,7.93263148 2.41,8.01 C2.3862842,8.07455752 2.3862842,8.14544248 2.41,8.21 C2.47695471,8.19874584 2.53551631,8.15848474 2.57,8.1 C2.60765123,8.00784183 2.6279911,7.90953244 2.63,7.81" id="Shape" fill="#285F37"></path>
                <path d="M1.65,8.22 C1.7630196,8.20807407 1.8769804,8.20807407 1.99,8.22 C2.05991879,8.23105329 2.1236769,8.26647446 2.17,8.32 C2.08193709,8.34640746 1.98806291,8.34640746 1.9,8.32 C1.80719041,8.28896773 1.72434117,8.23373491 1.66,8.16" id="Shape" fill="#285F37"></path>
                <path d="M1.61,8 C1.66571513,8.08379158 1.74129337,8.15249907 1.83,8.2 C1.95110105,8.2331852 2.07889895,8.2331852 2.2,8.2 C2.13121812,8.11951179 2.04596574,8.05471998 1.95,8.01 C1.84357776,7.97496425 1.7320243,7.95806221 1.62,7.96" id="Shape" fill="#285F37"></path>
                <path d="M2.29,8.37 L2.29,8.45 C2.42,8.45 2.44,8.45 2.47,8.45 C2.50869808,8.47834507 2.56130192,8.47834507 2.6,8.45 C2.63811429,8.41111565 2.63811429,8.34888435 2.6,8.31 C2.57776731,8.26606021 2.52685482,8.24484667 2.48,8.26 C2.48,8.26 2.48,8.26 2.41,8.26 C2.35376617,8.26990502 2.29623383,8.26990502 2.24,8.26" id="Shape" fill="#000000"></path>
                <path d="M2.6,8.38 C2.61502137,8.40091574 2.61502137,8.42908426 2.6,8.45 C2.57722395,8.47037152 2.54277605,8.47037152 2.52,8.45 C2.50497863,8.42908426 2.50497863,8.40091574 2.52,8.38 C2.53944218,8.36094286 2.57055782,8.36094286 2.59,8.38 L2.6,8.38 Z" id="Shape" fill="#F9F92B"></path>
                <path d="M2.28,8.31 L2.34,8.31 C2.27,8.42 2.26,8.43 2.27,8.48 C2.29373941,8.51647775 2.29373941,8.56352225 2.27,8.6 C2.23111565,8.63811429 2.16888435,8.63811429 2.13,8.6 C2.11227362,8.58302372 2.1022495,8.55954422 2.1022495,8.535 C2.1022495,8.51045578 2.11227362,8.48697628 2.13,8.47 C2.13,8.47 2.18,8.47 2.2,8.47 C2.24319353,8.43264036 2.28030493,8.38878142 2.31,8.34" id="Shape" fill="#000000"></path>
                <path d="M2.12,8.58 C2.14277605,8.60037152 2.17722395,8.60037152 2.2,8.58 C2.21259029,8.57055728 2.22,8.55573787 2.22,8.54 C2.22,8.52426213 2.21259029,8.50944272 2.2,8.5 C2.18055782,8.48094286 2.14944218,8.48094286 2.13,8.5 C2.10962848,8.52277605 2.10962848,8.55722395 2.13,8.58 L2.12,8.58 Z" id="Shape" fill="#F9F92B"></path>
                <path d="M1.85,7.41 L1.85,7.49 C1.98,7.49 1.99,7.49 2.03,7.49 C2.06647775,7.51373941 2.11352225,7.51373941 2.15,7.49 C2.17622277,7.47922783 2.19664111,7.45783184 2.20617595,7.43113427 C2.2157108,7.4044367 2.21346602,7.37494674 2.2,7.35 C2.19114743,7.32710785 2.17332947,7.30882424 2.15067327,7.29938415 C2.12801707,7.28994407 2.10248825,7.29016653 2.08,7.3 C2.08,7.3 2.08,7.3 2.01,7.3 C1.95376617,7.30990502 1.89623383,7.30990502 1.84,7.3" id="Shape" fill="#000000"></path>
                <path d="M2.16,7.42 C2.17905714,7.43944218 2.17905714,7.47055782 2.16,7.49 C2.13722395,7.51037152 2.10277605,7.51037152 2.08,7.49 C2.06497863,7.46908426 2.06497863,7.44091574 2.08,7.42 C2.09944218,7.40094286 2.13055782,7.40094286 2.15,7.42 L2.16,7.42 Z" id="Shape" fill="#F9F92B"></path>
                <path d="M1.88,7.43 L1.93,7.48 C1.85,7.58 1.82,7.58 1.84,7.63 C1.84325312,7.67803441 1.81489132,7.72260296 1.77,7.74 C1.72027522,7.76121241 1.66269461,7.73906602 1.64,7.69 C1.60944272,7.65583592 1.60944272,7.60416408 1.64,7.57 C1.66639453,7.56461224 1.69360547,7.56461224 1.72,7.57 C1.77039428,7.53840039 1.81447624,7.49770935 1.85,7.45" id="Shape" fill="#000000"></path>
                <path d="M1.68,7.68 C1.69944218,7.69905714 1.73055782,7.69905714 1.75,7.68 C1.76502137,7.65908426 1.76502137,7.63091574 1.75,7.61 C1.72722395,7.58962848 1.69277605,7.58962848 1.67,7.61 C1.65094286,7.62944218 1.65094286,7.66055782 1.67,7.68 L1.68,7.68 Z" id="Shape" fill="#F9F92B"></path>
                <path d="M1.43,6.51 L1.43,6.59 C1.56,6.59 1.57,6.59 1.61,6.59 C1.64869808,6.61834507 1.70130192,6.61834507 1.74,6.59 C1.79246705,6.57067003 1.81932996,6.51246705 1.8,6.46 C1.78067003,6.40753295 1.72246705,6.38067004 1.67,6.4 C1.67,6.4 1.67,6.4 1.6,6.4 C1.54373241,6.40951096 1.48626759,6.40951096 1.43,6.4" id="Shape" fill="#000000"></path>
                <path d="M1.74,6.52 C1.75905714,6.53944218 1.75905714,6.57055782 1.74,6.59 C1.71908426,6.60502137 1.69091574,6.60502137 1.67,6.59 C1.65497863,6.56908426 1.65497863,6.54091574 1.67,6.52 C1.68944218,6.50094286 1.72055782,6.50094286 1.74,6.52 Z" id="Shape" fill="#F9F92B"></path>
                <path d="M1.46,6.49 L1.51,6.54 C1.43,6.64 1.41,6.64 1.42,6.69 C1.42487832,6.73558763 1.40096959,6.77942031 1.36,6.8 C1.33505326,6.81346602 1.3055633,6.8157108 1.27886573,6.80617595 C1.25216816,6.79664111 1.23077217,6.77622277 1.22,6.75 C1.19333333,6.71444444 1.19333333,6.66555556 1.22,6.63 L1.3,6.63 C1.3499395,6.6019416 1.39406276,6.56460653 1.43,6.52" id="Shape" fill="#000000"></path>
                <path d="M1.26,6.74 C1.28277605,6.76037152 1.31722395,6.76037152 1.34,6.74 C1.32055782,6.72094286 1.28944218,6.72094286 1.27,6.74 C1.24962848,6.76277605 1.24962848,6.79722395 1.27,6.82 L1.26,6.74 Z" id="Shape" fill="#F9F92B"></path>
                <path d="M1,5.56 L1,5.64 C1.13,5.64 1.14,5.64 1.18,5.64 C1.21869808,5.66834507 1.27130192,5.66834507 1.31,5.64 C1.33622277,5.62922783 1.35664111,5.60783184 1.36617595,5.58113427 C1.3757108,5.5544367 1.37346602,5.52494674 1.36,5.5 C1.33776731,5.45606021 1.28685482,5.43484667 1.24,5.45 C1.24,5.45 1.24,5.45 1.17,5.45 C1.11371701,5.45932554 1.05628299,5.45932554 1,5.45" id="Shape" fill="#000000"></path>
                <path d="M1.29,5.57 C1.30905714,5.58944218 1.30905714,5.62055782 1.29,5.64 C1.26908426,5.65502137 1.24091574,5.65502137 1.22,5.64 C1.20338444,5.6149511 1.20786833,5.58147277 1.23048985,5.56167904 C1.25311137,5.54188532 1.28688863,5.54188532 1.30951015,5.56167904 C1.33213167,5.58147277 1.33661556,5.6149511 1.32,5.64 L1.29,5.57 Z" id="Shape" fill="#F9F92B"></path>
                <path d="M1,5.55 L1.05,5.6 C0.97,5.69 0.94,5.7 0.95,5.75 C0.95487832,5.79558763 0.930969586,5.83942031 0.89,5.86 C0.865053261,5.87346602 0.8355633,5.8757108 0.808865732,5.86617595 C0.782168164,5.85664111 0.760772172,5.83622277 0.75,5.81 C0.723333333,5.77444444 0.723333333,5.72555556 0.75,5.69 L0.83,5.69 C0.896751012,5.65713921 0.954949319,5.60921119 1,5.55" id="Shape" fill="#000000"></path>
                <path d="M0.81,5.79 C0.829442176,5.80905714 0.860557824,5.80905714 0.88,5.79 C0.895021371,5.76908426 0.895021371,5.74091574 0.88,5.72 C0.857223948,5.69962848 0.822776052,5.69962848 0.8,5.72 C0.780942856,5.73944218 0.780942856,5.77055782 0.8,5.79" id="Shape" fill="#F9F92B"></path>
                <path d="M1.77,7.18 C1.77,7.18 1.66,7 1.61,6.9 C1.56,6.8 1.46,6.62 1.49,6.61 C1.52,6.6 1.56,6.68 1.62,6.8 C1.68,6.92 1.82,7.17 1.78,7.19" id="Shape" fill="#F9F92B"></path>
                <path d="M1.3,6.15 C1.3,6.15 1.2,6.04 1.16,5.93 C1.12,5.82 1.06,5.74 1.09,5.73 C1.12,5.72 1.17,5.81 1.21,5.9 C1.25,5.99 1.34,6.13 1.3,6.15" id="Shape" fill="#F9F92B"></path>
                <path d="M2.38,8.5 C2.24565274,8.3196576 2.13788716,8.12096483 2.06,7.91 C1.94,7.64 1.84,7.42 1.87,7.4 C1.97803651,7.56179869 2.06538295,7.73649158 2.13,7.92 C2.23231423,8.10458748 2.31605791,8.29887281 2.38,8.5" id="Shape" fill="#F9F92B"></path>
                <polygon id="Shape" fill="#2E59A0" points="2.65 5.39 2.66 7.06 2.78 7.26 3.56 7.69 4.56 8.14 4.68 8.28 5.54 7.81 6.55 7.33 6.74 7.04 6.74 5.4"></polygon>
                <polygon id="Shape" fill="#C11B2C" points="2.61 3.38 2.66 3.53 2.66 5.45 2.73 5.53 3.32 5.6 3.96 5.51 4.59 5.61 4.59 5.61 4.71 5.61 4.83 5.61 4.83 5.61 5.46 5.51 6.1 5.6 6.69 5.53 6.76 5.45 6.76 3.53 6.81 3.38"></polygon>
                <polygon id="Shape" fill="#F9F92B" points="2.81 5.52 3.13 5.39 3.35 5.22 3.5 5.38 3.81 5.51 3.56 5.65 3.34 5.85 3.15 5.7"></polygon>
                <polygon id="Shape" fill="#F9F92B" points="6.05 5.23 5.9 5.38 5.59 5.51 5.88 5.69 6.07 5.86 6.27 5.69 6.6 5.53 6.26 5.39"></polygon>
                <polygon id="Shape" fill="#F9F92B" points="4.7 3.65 4.6 3.94 4.32 3.8 4.45 4.08 4.18 4.19 4.45 4.29 4.33 4.56 4.59 4.43 4.7 4.72 4.8 4.43 5.07 4.54 4.95 4.29 5.22 4.19 4.96 4.07 5.07 3.79 4.8 3.93"></polygon>
                <polygon id="Shape" fill="#F9F92B" points="5.44 3.6 5.53 3.91 5.66 4.3 5.68 4.68 5.53 4.95 5.25 5.07 5.1 5.11 4.91 5.02 4.71 5.14 4.49 5.01 4.3 5.13 4.19 5.06 3.99 5.03 3.76 4.78 3.71 4.35 3.99 3.58 3.64 3.86 3.34 4.26 3.34 4.79 3.55 5.15 3.94 5.4 4.04 5.43 3.86 5.77 4.18 5.86 4.34 6.03 4.43 6.36 4.41 7.06 4.31 7.22 4.1 7.37 4.09 7.5 4.32 7.65 4.52 7.81 4.82 7.82 5.09 7.64 5.31 7.51 5.25 7.32 5.02 7.14 4.97 6.58 5.04 6.02 5.37 5.81 5.55 5.75 5.36 5.4 5.64 5.31 5.95 5.03 6.1 4.49 6.01 4.17 5.8 3.9"></polygon>
                <polygon id="Shape" fill="#F9F92B" points="4.12 6.01 4.26 6.15 4.13 6.28 4 6.14"></polygon>
                <polygon id="Shape" fill="#F9F92B" points="5.28 6 5.15 6.14 5.27 6.27 5.41 6.14"></polygon>
                <polygon id="Shape" fill="#F9F92B" points="5.38 6.36 5.14 6.41 5.07 6.55 5.07 6.94 5.17 7.15 5.31 7.21 5.29 6.71"></polygon>
                <polygon id="Shape" fill="#F9F92B" points="4.02 6.36 4.11 6.79 4.11 7.2 4.23 7.12 4.31 6.93 4.33 6.6 4.27 6.4"></polygon>
                <polygon id="Shape" fill="#F9F92B" points="6.23 6.7 5.95 6.57 5.69 6.63 5.55 6.79 5.53 7.05 5.73 7.29 5.78 7.3 5.77 7.05 5.98 6.76"></polygon>
                <polygon id="Shape" fill="#F9F92B" points="3.58 6.61 3.55 6.49 3.4 6.41 3.27 6.46 3.21 6.59 3.24 6.7 3.11 6.69 3.01 6.79 2.99 6.92 3.07 7.01 3.17 7.04 3.22 7.04 3.17 7.16 3.21 7.28 3.33 7.35 3.47 7.31 3.54 7.18 3.66 7.26 3.8 7.23 3.89 7.09 3.83 6.96 3.76 6.9 3.86 6.85 3.9 6.69 3.77 6.54 3.64 6.56"></polygon>
                <path d="M4,3.49 C4,3.63 3.27,3.92 3.27,4.49 C3.27741447,4.92427363 3.56430882,5.30410558 3.98,5.43 L3.98,5.48 L3.81,5.79 C3.97062289,5.79933927 4.12589813,5.85109768 4.26,5.94 C4.45,6.1 4.43,6.44 4.43,6.68 C4.4497644,6.84927307 4.4070971,7.0199423 4.31,7.16 C4.18,7.27 4.08,7.28 4.08,7.41 C4.08,7.54 4.17,7.54 4.31,7.62 C4.45,7.7 4.48,7.84 4.74,7.84 C5,7.84 5,7.71 5.18,7.62 C5.36,7.53 5.4,7.53 5.4,7.41 C5.4,7.29 5.31,7.27 5.18,7.16 C5.0829029,7.0199423 5.0402356,6.84927307 5.06,6.68 C5.06,6.43 5.06,6.1 5.23,5.94 C5.36366847,5.85021203 5.51919244,5.7983707 5.68,5.79 L5.51,5.48 L5.51,5.43 C5.92569118,5.30410558 6.21258553,4.92427363 6.22,4.49 C6.22,3.9 5.51,3.61 5.49,3.49 C5.42,3.73 5.73,4.07 5.73,4.49 C5.73,4.91 5.35,5.03 5.35,5.03 C5.35,5.03 5.22,5.09 5.19,5.09 C5.16,5.09 5,5 4.91,5 C4.82,5 4.79,5.11 4.69,5.11 C4.59,5.11 4.56,5 4.48,5 C4.4,5 4.37,5.1 4.3,5.1 C4.23,5.1 4.23,5 4.14,5 C4.05,5 3.76,5 3.76,4.46 C3.76,3.92 4.07,3.72 4,3.46 L4,3.49 Z M5.46,5.46 C5.68245373,5.5516689 5.88591451,5.68391841 6.06,5.85 C6.25694699,5.70567874 6.46802774,5.58171068 6.69,5.48 C6.45777059,5.41383684 6.24277157,5.29780563 6.06,5.14 C5.89165365,5.29762047 5.68468054,5.40800613 5.46,5.46 Z M3.95,5.46 C3.7248065,5.40938097 3.51749038,5.29881237 3.35,5.14 C3.16668917,5.29702174 2.95187015,5.41295582 2.72,5.48 C2.94128236,5.58302982 3.15223695,5.70692379 3.35,5.85 C3.52492704,5.68498563 3.72817993,5.55287125 3.95,5.46 Z M4.7,3.46 L4.58,3.81 L4.25,3.65 L4.41,3.99 L4.06,4.11 L4.41,4.23 L4.25,4.56 L4.58,4.4 L4.7,4.75 L4.83,4.4 L5.16,4.56 L5,4.31 L5.35,4.19 L5,4.07 L5.16,3.73 L4.83,3.89 L4.7,3.46 Z M3.9,3.62 C3.9,3.68 3.66,4.07 3.66,4.39 C3.66,4.71 3.87,5.01 4.14,5.01 C4.19,5.01 4.25,5.08 4.3,5.08 C4.35,5.08 4.43,4.99 4.48,4.99 C4.53,4.99 4.59,5.09 4.69,5.09 C4.79,5.09 4.85,4.99 4.91,4.99 C4.97,4.99 5.01,5.08 5.1,5.08 C5.19,5.08 5.21,5.01 5.26,5.01 C5.54,5.01 5.74,4.78 5.74,4.39 C5.74,4 5.47,3.68 5.5,3.62 C5.53,3.56 6.02,3.99 6.02,4.43 C5.98633432,4.84451157 5.69963695,5.19491947 5.3,5.31 L5.46,5.67 C5.33432543,5.68988249 5.21471778,5.73772555 5.11,5.81 C4.92,5.96 4.92,6.35 4.92,6.62 C4.92,6.89 4.92,7.07 5.04,7.15 C5.16,7.23 5.25,7.26 5.25,7.35 C5.25,7.44 5.16,7.46 5.04,7.52 C4.92,7.58 4.89,7.69 4.69,7.69 C4.49,7.69 4.48,7.58 4.34,7.52 C4.2,7.46 4.13,7.44 4.13,7.35 C4.13,7.26 4.22,7.24 4.34,7.15 C4.46,7.06 4.46,6.93 4.46,6.62 C4.46,6.31 4.46,5.96 4.28,5.81 C4.17184912,5.73724803 4.04888737,5.68942957 3.92,5.67 L4.08,5.31 C3.68036305,5.19491947 3.39366568,4.84451157 3.36,4.43 C3.36,3.99 3.88,3.62 3.88,3.62 L3.9,3.62 Z M4.69,3.69 L4.77,3.91 L5,3.9 L4.9,4.11 L5.12,4.19 L4.9,4.27 L5,4.48 L4.79,4.38 L4.71,4.6 L4.63,4.38 L4.42,4.48 L4.52,4.27 L4.3,4.19 L4.52,4.11 L4.42,3.9 L4.63,4 L4.69,3.69 Z M3.34,5.29 C3.44154822,5.39715291 3.56897009,5.47636111 3.71,5.52 C3.57357172,5.59052775 3.44878387,5.68158916 3.34,5.79 C3.21211136,5.69305703 3.07474566,5.60929746 2.93,5.54 C3.08187955,5.48465215 3.22124549,5.39967291 3.34,5.29 Z M6.06,5.29 C6.17937619,5.39884662 6.31857032,5.48372109 6.47,5.54 C6.3253191,5.60941679 6.18796507,5.69316925 6.06,5.79 C5.95052894,5.68239627 5.82586927,5.5914284 5.69,5.52 C5.83102991,5.47636111 5.95845178,5.39715291 6.06,5.29 Z M4.13,6 L3.96,6.17 L4.13,6.34 L4.3,6.17 L4.13,6 Z M5.28,6 L5.11,6.17 L5.28,6.34 L5.45,6.17 L5.28,6 Z M4.13,6.08 L4.22,6.17 L4.13,6.26 L4,6.14 L4.13,6.08 Z M5.28,6.08 L5.37,6.17 L5.28,6.26 L5.19,6.17 L5.28,6.08 Z M3.98,6.34 C4.08925736,6.6613992 4.12011459,7.00425732 4.07,7.34 C4.21448997,7.29490952 4.32463158,7.17717194 4.36,7.03 C4.36,6.92 4.36,6.5 4.29,6.42 L3.98,6.34 Z M5.44,6.34 L5.13,6.4 C5.01,6.47 5.04,6.89 5.06,7.01 C5.09536842,7.15717194 5.20551003,7.27490952 5.35,7.32 C5.34236476,7.21013249 5.34236476,7.09986751 5.35,6.99 C5.34911738,6.7686282 5.38632675,6.54875466 5.46,6.34 L5.44,6.34 Z M3.41,6.41 C3.35604216,6.42171005 3.30932578,6.45520556 3.28091847,6.50255108 C3.25251116,6.5498966 3.24494048,6.60687953 3.26,6.66 L3.19,6.66 C3.07954305,6.66 2.99,6.74954305 2.99,6.86 C2.99,6.97045695 3.07954305,7.06 3.19,7.06 C3.14857866,7.1649341 3.20006591,7.28357863 3.30500001,7.32499998 C3.4099341,7.36642134 3.52857864,7.31493409 3.57,7.21 C3.65560414,7.28179702 3.78320298,7.27060414 3.855,7.185 C3.92679702,7.09939586 3.91560414,6.97179702 3.83,6.9 C3.875624,6.8712813 3.90772204,6.82536023 3.91901781,6.77264667 C3.93031357,6.71993311 3.91985033,6.66489177 3.89,6.62 C3.84881416,6.55644717 3.77526494,6.52160806 3.7,6.53 L3.61,6.53 C3.58593727,6.43548492 3.49721029,6.3721085 3.4,6.38 L3.41,6.41 Z M4.1,6.38 L4.27,6.38 C4.33,6.46 4.32,6.6 4.32,6.8 C4.32372234,6.90828116 4.27064277,7.0106489 4.18,7.07 C4.18870832,6.82795744 4.16516838,6.58583232 4.11,6.35 L4.1,6.38 Z M5.36,6.35 C5.3006241,6.58522879 5.27370788,6.82747477 5.28,7.07 C5.18935723,7.0106489 5.13627766,6.90828116 5.14,6.8 C5.11917482,6.65804254 5.13642978,6.51310086 5.19,6.38 L5.36,6.35 Z M3.43,6.41 C3.50610939,6.40342104 3.57500518,6.45509288 3.59,6.53 C3.59190009,6.54661251 3.59190009,6.56338749 3.59,6.58 L3.51,6.58 C3.44452872,6.58125045 3.38269451,6.61034891 3.34,6.66 C3.32784759,6.62017749 3.33279358,6.57709555 3.35365447,6.54106311 C3.37451535,6.50503067 3.40941414,6.47928982 3.45,6.47 L3.43,6.41 Z M5.96,6.53 C5.84317423,6.52354527 5.72937946,6.56856511 5.64859107,6.65320056 C5.56780267,6.73783602 5.52812143,6.85360058 5.54,6.97 C5.57044805,7.17931171 5.72464555,7.34932433 5.93,7.4 C5.89540012,7.34223776 5.87484843,7.27715743 5.87,7.21 C5.85812143,7.09360058 5.89780267,6.97783602 5.97859107,6.89320056 C6.05937946,6.80856511 6.17317423,6.76354527 6.29,6.77 L6.41,6.77 C6.31325962,6.61452438 6.14311573,6.52 5.96,6.52 L5.96,6.53 Z M3.77,6.57 C3.83712537,6.57529395 3.89375322,6.62204679 3.91165923,6.68695607 C3.92956524,6.75186536 3.90491715,6.82103915 3.85,6.86 C3.85111374,6.77069723 3.80042991,6.68882336 3.72,6.65 L3.81,6.65 L3.77,6.57 Z M6,6.65 C6.07834323,6.6528426 6.15441871,6.67704844 6.22,6.72 C5.96501753,6.76101346 5.78564015,6.99289154 5.81,7.25 C5.7303295,7.18850476 5.6767685,7.09923644 5.66,7 C5.65094149,6.90912428 5.6824149,6.81887801 5.74602127,6.75334417 C5.80962764,6.68781034 5.89889441,6.65365763 5.99,6.66 L6,6.65 Z M3.29,6.75 L3.34,6.75 C3.32545203,6.79553286 3.32545203,6.84446714 3.34,6.89 C3.3314839,6.92617219 3.3314839,6.96382781 3.34,7 C3.25555459,6.9895731 3.19404079,6.91487777 3.2,6.83 C3.19961132,6.78649685 3.21812916,6.74496798 3.25075077,6.7161842 C3.28337238,6.68740043 3.32688379,6.67419761 3.37,6.68 L3.29,6.75 Z M3.64,6.68 C3.72284271,6.68 3.79,6.74715729 3.79,6.83 C3.79,6.91284271 3.72284271,6.98 3.64,6.98 C3.55715729,6.98 3.49,6.91284271 3.49,6.83 C3.49,6.74715729 3.55715729,6.68 3.64,6.68 Z M3.86,6.85 C3.918414,6.91170085 3.918414,7.00829915 3.86,7.07 C3.79829915,7.128414 3.70170085,7.128414 3.64,7.07 C3.728953,7.04194322 3.7921538,6.96294222 3.8,6.87 L3.86,6.85 Z M3.38,6.98 C3.42293433,7.04266331 3.49403923,7.08008694 3.57,7.08 C3.57,7.08 3.57,7.08 3.57,7.08 C3.53761298,7.15815887 3.44997641,7.19759533 3.37,7.17 C3.29184113,7.13761298 3.25240467,7.04997641 3.28,6.97 L3.38,6.98 Z M4.43,7.34 C4.29,7.34 4.2,7.34 4.2,7.41 C4.2,7.48 4.29,7.48 4.43,7.48 C4.46865993,7.48 4.5,7.44865993 4.5,7.41 C4.5,7.37134007 4.46865993,7.34 4.43,7.34 Z M4.97,7.34 C4.93134007,7.34 4.9,7.37134007 4.9,7.41 C4.9,7.44865993 4.93134007,7.48 4.97,7.48 C5.11,7.48 5.2,7.48 5.2,7.41 C5.2,7.34 5.11,7.34 4.97,7.34 Z" id="Shape" fill="#000000"></path>
                <path d="M2.42,3.33 C2.42,3.33 2.61,3.47 2.61,3.61 L2.61,7 C2.6046488,7.07650203 2.62981782,7.1520091 2.68,7.21 C2.74654281,7.29403244 2.82787809,7.36520082 2.92,7.42 C3.29737901,7.63488228 3.68818534,7.82527511 4.09,7.99 C4.32641049,8.0643591 4.53756831,8.20282324 4.7,8.39 C4.86409797,8.20473967 5.07468291,8.06665118 5.31,7.99 C5.71182596,7.82530033 6.10263389,7.63490672 6.48,7.42 C6.57071845,7.36328899 6.65174858,7.29238762 6.72,7.21 C6.76838206,7.15099999 6.79330564,7.07622924 6.79,7 L6.79,3.61 C6.79,3.47 6.98,3.33 6.98,3.33 L2.42,3.33 Z M2.66,3.44 L6.74,3.44 C6.70111394,3.48811895 6.67993259,3.54813276 6.68,3.61 L6.68,7 C6.68,7.08 6.61,7.25 6.16,7.47 C5.64736652,7.66169121 5.15768058,7.9098882 4.7,8.21 C4.24308876,7.90856133 3.75324876,7.66028626 3.24,7.47 C2.8,7.25 2.72,7.08 2.72,7 L2.72,3.61 C2.71928812,3.54826835 2.69819431,3.48850256 2.66,3.44 Z" id="Shape" fill="#F9F92B"></path>
                <path d="M4.6,1.26 C4.59505931,1.29729983 4.57531275,1.33104095 4.54521225,1.35361633 C4.51511174,1.3761917 4.47719123,1.38570089 4.44,1.38 C4.35,1.38 4.28,1.33 4.28,1.26 C4.28,1.19 4.35,1.14 4.44,1.14 C4.47719123,1.13429911 4.51511174,1.1438083 4.54521225,1.16638367 C4.57531275,1.18895905 4.59505931,1.22270017 4.6,1.26 Z" id="Shape" fill="#000000"></path>
                <path d="M3.68,1.19 C3.72021794,1.1243622 3.79312528,1.08598992 3.87,1.09 L4.11,1.09 C4.11,1.15 4.24,1.26 4.24,1.37 C4.14512113,1.23386653 3.98548937,1.15785141 3.82,1.17 C3.77709532,1.16138021 3.73290468,1.16138021 3.69,1.17" id="Shape" fill="#C11B2C"></path>
                <path d="M4.08,1.21 C4.08,1.21 4.01,1.21 4.01,1.21 C4.01,1.21 4.01,1.21 4.07,1.21 C4.07614144,1.22952853 4.07614144,1.25047147 4.07,1.27" id="Shape" fill="#000000"></path>
                <path d="M4.19,1.4 C4.15824718,1.43268345 4.13131014,1.46972187 4.11,1.51 C4.042944,1.47319142 3.9821821,1.42593216 3.93,1.37 C4.0147788,1.39558242 4.1052212,1.39558242 4.19,1.37" id="Shape" fill="#C11B2C"></path>
                <path d="M9.07,4.9 L8.83,5.08 L8.83,5.14 C8.80534785,5.15012279 8.78440232,5.1675774 8.77,5.19 C8.75544949,5.22174545 8.75544949,5.25825455 8.77,5.29 C8.68041384,5.27779413 8.58958616,5.27779413 8.5,5.29 C8.5,5.29 8.5,5.47 8.5,5.61 C8.5,5.75 8.39,5.78 8.39,5.82 C8.38476821,5.8497719 8.38476821,5.8802281 8.39,5.91 C8.37351821,5.90648926 8.35648179,5.90648926 8.34,5.91 C8.34,5.91 8.34,5.99 8.34,6.03 L7.99,6.71 C7.99,6.71 7.94,6.71 7.92,6.78 C7.91275776,6.80617495 7.91275776,6.83382505 7.92,6.86 C7.89137265,6.84716573 7.85862735,6.84716573 7.83,6.86 C7.81915378,6.89586457 7.81915378,6.93413543 7.83,6.97 C7.81058875,6.96313708 7.78941125,6.96313708 7.77,6.97 C7.77,6.97 7.77,7.04 7.77,7.05 L7.38,7.8 C7.38,7.87 7.22,7.88 7.15,8.02 C7.09978251,8.09211939 7.09978251,8.18788061 7.15,8.26 C7.15,8.26 7.05,8.26 7.02,8.32 C6.99764461,8.38619494 7.02751571,8.45873905 7.09,8.49 C7.1402975,8.53825558 7.2197025,8.53825558 7.27,8.49 C7.27,8.44 7.27,8.35 7.27,8.35 C7.35832021,8.35837374 7.44237481,8.31034254 7.48,8.23 C7.55,8.09 7.48,7.98 7.48,7.92 L7.87,7.17 C7.87,7.17 7.87,7.17 7.94,7.17 C7.95673916,7.1459602 7.95673916,7.1140398 7.94,7.09 C7.97588144,7.07541313 8.0070296,7.05118678 8.03,7.02 C8.04455051,6.98825455 8.04455051,6.95174545 8.03,6.92 C8.05771448,6.91052497 8.08204865,6.89314341 8.1,6.87 C8.1,6.87 8.1,6.8 8.1,6.77 L8.45,6.09 C8.45,6.09 8.53,6.09 8.54,6.01 C8.55,5.93 8.54,5.95 8.54,5.95 C8.56967947,5.95620193 8.60032053,5.95620193 8.63,5.95 C8.63,5.95 8.63,5.87 8.74,5.74 C8.85,5.61 8.99,5.59 8.99,5.55 C8.99,5.51 8.84,5.33 8.84,5.33 C8.86588167,5.33915055 8.89411833,5.33915055 8.92,5.33 C8.93071585,5.30095691 8.93071585,5.26904309 8.92,5.24 L8.98,5.24 L9.07,4.9 Z M6.78,9.25 C6.76101383,9.24099407 6.73898617,9.24099407 6.72,9.25 C6.70924996,9.27209516 6.70924996,9.29790484 6.72,9.32 C6.72,9.32 6.64,9.32 6.62,9.32 C6.60756814,9.44302005 6.60756814,9.56697995 6.62,9.69 C6.7271009,9.62687665 6.82760347,9.55317476 6.92,9.47 C6.92,9.47 6.85,9.39 6.85,9.39 C6.8662386,9.39534211 6.8837614,9.39534211 6.9,9.39 C6.91299848,9.34314552 6.88643097,9.29443842 6.84,9.28 L6.77,9.28 L6.78,9.25 Z" id="Shape" fill="#000000"></path>
                <path d="M9,5 L8.86,5.1 L8.93,5.1 L9,5.1 L9,5 Z M8.86,5.17 C8.84075739,5.16221598 8.81924261,5.16221598 8.8,5.17 C8.7762133,5.19251956 8.76855783,5.22726462 8.7806778,5.25769559 C8.79279776,5.28812657 8.82224427,5.30809475 8.855,5.30809475 C8.88775573,5.30809475 8.91720224,5.28812657 8.9293222,5.25769559 C8.94144217,5.22726462 8.9337867,5.19251956 8.91,5.17 L8.86,5.17 Z M8.64,5.34 C8.64,5.34 8.64,5.48 8.64,5.59 C8.63856852,5.65160195 8.61755272,5.71114672 8.58,5.76 C8.58,5.76 8.5,5.83 8.5,5.83 L8.55,5.83 L8.64,5.68 C8.67555269,5.56554404 8.70229739,5.44853598 8.72,5.33 L8.86,5.33 L8.68,5.33 L8.64,5.34 Z M8.9,5.33 C8.85022624,5.32327327 8.79977376,5.32327327 8.75,5.33 C8.7306723,5.44493571 8.70395014,5.55850487 8.67,5.67 L8.58,5.83 L8.66,5.67 C8.73,5.53 8.88,5.43 8.88,5.4 C8.88570028,5.35016247 8.88570028,5.29983753 8.88,5.25 L8.9,5.33 Z M8.88,5.25 C8.88263651,5.29662943 8.88263651,5.34337057 8.88,5.39 C8.88,5.39 8.71,5.54 8.64,5.66 L8.57,5.82 L8.64,5.82 C8.63420208,5.78356253 8.63420208,5.74643747 8.64,5.71 C8.66165487,5.65327732 8.70001114,5.60446026 8.75,5.57 C8.81913624,5.52338037 8.88588701,5.47331729 8.95,5.42 C8.91073243,5.35716593 8.86730197,5.29703145 8.82,5.24 L8.88,5.25 Z M8.42,5.82 C8.40412727,5.81272475 8.38587273,5.81272475 8.37,5.82 C8.34547552,5.914482 8.30848403,6.0052793 8.26,6.09 L8.14,6.32 L8.02,6.57 L8.15,6.32 L8.27,6.09 C8.31122706,6.00170737 8.36149571,5.91792629 8.42,5.84 C8.42,5.84 8.42,5.77 8.42,5.75 L8.42,5.82 Z M7.96,6.62 C7.96,6.62 7.96,6.68 8.01,6.71 C8.06,6.74 8.1,6.71 8.11,6.71 C8.12,6.71 8.11,6.65 8.06,6.63 L8,6.63 L7.96,6.62 Z M7.94,6.76 C7.92101383,6.75099407 7.89898617,6.75099407 7.88,6.76 C7.88,6.76 7.88,6.84 7.94,6.87 C7.97416408,6.90055728 8.02583592,6.90055728 8.06,6.87 C8.06,6.87 8.06,6.79 8,6.76 L7.95,6.76 L7.94,6.76 Z M7.87,6.92 C7.87,6.92 7.87,6.98 7.92,7 C7.97,7.02 8.01,7 8.02,7 C8.03,7 8.02,6.94 8.02,6.91 L7.96,6.91 L7.87,6.92 Z M7.96,7.04 L7.6,7.75 C7.6,7.81 7.44,7.84 7.39,7.94 C7.35269628,7.98696458 7.34695462,8.05163593 7.37540085,8.10443793 C7.40384708,8.15723993 7.46101231,8.18802121 7.52075319,8.18270457 C7.58049406,8.17738794 7.6313252,8.13699553 7.65,8.08 C7.65,7.98 7.65,7.86 7.65,7.8 L8.01,7.09 L7.96,7.04 Z M7.36,8.3 C7.33790484,8.28924996 7.31209516,8.28924996 7.29,8.3 C7.26514719,8.34970563 7.28529437,8.41014719 7.335,8.435 C7.38470563,8.45985281 7.44514719,8.43970563 7.47,8.39 C7.48515333,8.34314518 7.46393979,8.29223269 7.42,8.27 L7.2,8.27 L7.36,8.3 Z M6.78,9.11 C6.78,9.11 6.78,9.11 6.78,9.18 C6.78,9.25 6.86,9.18 6.86,9.18 C6.86,9.18 6.86,9.18 6.86,9.11 L6.81,9.11 L6.78,9.11 Z M6.68,9.21 L6.68,9.47 L6.89,9.32 C6.86728595,9.28611835 6.83631101,9.25858507 6.8,9.24 C6.76070472,9.22938138 6.71929528,9.22938138 6.68,9.24 L6.68,9.21 Z" id="Shape" fill="#F9F92B"></path>
                <path d="M4.55,1.26 C4.55,1.32075132 4.50075132,1.37 4.44,1.37 C4.40070078,1.37 4.36438681,1.34903412 4.3447372,1.315 C4.32508759,1.28096588 4.32508759,1.23903412 4.3447372,1.205 C4.36438681,1.17096588 4.40070078,1.15 4.44,1.15 C4.50075132,1.15 4.55,1.19924868 4.55,1.26 Z" id="Shape" fill="#F9F92B"></path>
                <path d="M4.49,1.26 C4.47452995,1.26893164 4.45547005,1.26893164 4.44,1.26" id="Shape" fill="#000000"></path>
            </g>
        </g>
    </g>
</svg>