<?xml version="1.0" encoding="utf-8"?>
<!-- Generator: Adobe Illustrator 21.0.0, SVG Export Plug-In . SVG Version: 6.00 Build 0)  -->
<svg version="1.1" id="Layer_1" xmlns="http://www.w3.org/2000/svg" xmlns:xlink="http://www.w3.org/1999/xlink" x="0px" y="0px"
	 viewBox="0 0 200 200" style="enable-background:new 0 0 200 200;" xml:space="preserve">
<style type="text/css">
	.st0{fill:#FFFFFF;}
	.st1{fill:#016EA9;}
</style>
<title>MDT</title>
<path class="st0" d="M200,100H0"/>
<path class="st0" d="M0,100h200"/>
<path class="st1" d="M200,93.2c0,4.1-0.9,6.5-0.9,8c0,1.3,0.4,2.6,0.4,5c0,3.9-2.4,7.8-6.9,7.8c-2.4,0-4.3-1.5-7.8-1.5
	c-0.5,0-1,0.1-1.5,0.2c-3.3,18.4-12.4,35.3-26,48.2c0.7,0.8,1.6,1.2,2.6,1.3c4.1,0.9,5.2,1.1,6.5,1.1c0.7,0,1.5-0.2,3-0.2
	c2.4-0.2,6-1.1,7.8,3.7c1.5,4.3-2.6,6.7-4.3,7.4c-2.9,1.5-5.8,2.8-8.9,3.9c-4.1,1.5-6.3,1.3-7.6,1.7c-1.3,0.4-3,1.7-5.2,2.4
	c-3.9,1.5-7.2,0.4-8.7-3.7c-0.9-2.6-0.4-3.2-1.1-5.9c-13.1,7.6-27.9,11.5-43,11.4h-0.9c1.1,2.2,3,3,4.6,3.9c2,0.9,5.2,3.2,6.5,3.7
	c1.5,0.7,4.6,1.1,5,1.3c0.6,0.2,1,1,0.7,1.6c-0.2,0.4-0.5,0.7-0.9,0.8c-2.8,0-9.5,0.7-11.1,0.7c-3.7,0-5.4-1.1-8.2-1.1
	c-1.7,0-2.2,0.4-4.3,0.4c-2.6,0-3-1.5-3-2.6c0-2,1.7-4.3,1.5-8.2l-0.2-1.1c-36.8-4.5-66.7-32-74-68.4C5.6,114.2,0,109.6,0,99.4
	c0-6,2.8-14.8,13.7-15.8c2-11.7,6.3-22.9,12.8-32.9C19,43.1,22.3,35,27.1,30.3c3-3.3,7.4-5.9,11.7-5.9s7.8,2.6,9.3,3.4l0.2,0.2
	C59.2,20.1,71.8,14.9,85,12.9C85.7,7.4,88.9,4,95.9,4c9.6,0,11.3,5.9,11.3,6.9c0.1,0.5,0.2,1,0.4,1.5c40.9,4.2,73.1,36.9,76.6,77.9
	c0.6-0.7,1.1-1.5,1.5-2.4c1.1-1.3,1.8-2.9,2-4.6c0.7-2,1.5-6.5,6-6.5c4.8,0,5.9,4.8,5.9,6.7S200,89,200,93.2L200,93.2z M106.5,112.5
	l-0.9-1.7c-1.4-3.1-3.3-5.9-5.6-8.2c-0.2,0-0.7-1.1-0.7-5.2c0.2-2.2,0.2-4.6,0.4-6.5c0.2-2.4,0.2-4.3,0.2-6c0.1-2.3-0.1-4.5-0.4-6.7
	c-0.4-2.4-0.5-4.9-0.4-7.4c0-2.8-0.2-5.5-0.7-8.2V61c0-1.6,0.2-3.2,0.4-4.8c0.3-1.7,0.4-3.3,0.4-5c0-5.9-1.5-6.9-5.2-9.6l-0.2-0.2
	c0,0-1.5-0.2-2,0.4c-0.4,0.6-0.3,1.5,0.4,2c0,0,0.1,0,0.1,0.1c3.5,2.2,4.1,2.8,4.1,7.4c0,1.5-0.2,3.1-0.4,4.6
	c-0.3,1.7-0.4,3.4-0.4,5.2c0,0.4,0.2,1.1,0.2,1.7c0.4,2.6,0.5,5.2,0.4,7.8c0,5,0.2,6.5,0.7,7.8c0.4,2.1,0.5,4.2,0.5,6.3
	c0,1.5-0.2,3.7-0.2,5.9c-0.3,2.2-0.4,4.5-0.4,6.7c-0.2,4.1,0.2,6,1.3,7.2c1.6,1.5,2.9,3.3,3.9,5.2c-0.5-0.5-1.3-0.5-1.7,0
	c-1.3,0.9-0.9,2.6,0.2,6c0.7,1.7,1.5,5,1.3,6c-1.2,0-2.3-0.4-3.3-1c-0.9-0.7-2.2-3.7-3.2-6.7c-0.4-1.7-0.6-3.5-0.4-5.2
	c0-0.7-0.5-1.3-1.2-1.3c0,0-0.1,0-0.1,0c-0.6-0.1-1.2,0.3-1.3,0.8c0,0.1,0,0.2,0,0.2c-0.2,2.1-0.1,4.2,0.4,6.3
	c0.4,1.1,2.2,6,4.1,7.8c1.5,1.5,4.3,2,5.6,2c0.7-0.1,1.3-0.5,1.7-1.1c0.9-1.5,0.2-4.1-1.1-8.5l-0.4-2l2,1.1c0.5,0.4,1.2,0.4,1.7,0
	C106.6,113.7,106.7,113.1,106.5,112.5L106.5,112.5z M85.7,18.3c-11.6,1.8-22.6,6.1-32.3,12.6c3.7,2.6,3.5,4.8,3.5,5.4
	c2.6,3.3,2.6,5.9,2.6,5.9s0,3-1.5,4.6l0.9,1.3c16.5,2.2,16.1,4.1,23.9,9.8c-0.7-3.3-0.9-6.6-0.9-10c0-9.3,6.9-14.8,6.9-20.4
	C88.7,23.1,86.7,20.9,85.7,18.3z M31,34c-4.1,4.3-4.8,10,0,13.7c4.8,3.9,7.6,1.7,10.8,5.9c6.7,8.5-1.3,13.5,16.7,25l7.6,4.8
	c4.8,2.8,6.7,2.8,8.5,4.1c3.9,2.6,3.9,4.6,8.7,8v0.2c0.2-5,2.2-5.9,3.5-9.3L86.4,86c-2.3-1.4-4.5-3.2-6.3-5.2l-1.7-1.7
	c-0.8-0.6-1.7-1.2-2.6-1.7c-1.7-0.9-3.3-2-4.8-3.3l-2.2-2.2c-2.2-2.6-5.9-6.9-8.5-6.9c-1,0-2.1,0.2-3,0.7c-1.2,0.7-2.8,0.2-3.4-1
	c0,0,0-0.1,0-0.1c-0.7-1.1-0.4-2.6,0.7-3.3c0.1-0.1,0.3-0.1,0.4-0.2c1.6-1,3.5-1.4,5.4-1.3c5,0,9.3,5,12.6,8.7
	c0.7,0.7,1.3,1.5,1.7,2c1.3,0.9,2.6,1.8,3.9,2.6c1.3,0.6,2.4,1.4,3.5,2.4c0.6,0.5,1.2,1.1,1.7,1.7c1.3,1.1,2.4,2.4,4.1,3.7
	c0.2-0.9,0.3-1.9,0.2-2.8c0-2.8-2-6.9-3.7-12.8c-3-1.2-5.7-2.9-8.1-5.2c-6.5-6.3-11.3-5-18.9-6.5c-3.7-0.9-3.2-2.6-5.2-5
	c-1.4,0.7-2.8,1.3-4.3,1.7c-0.9,0.4-2,0-2.4-0.9c-0.3-1,0.2-2,1.1-2.4c0.7-0.2,5.9-2.4,7.2-3.7c1.5-1.5-0.9-3.2-2-4.3
	c-1.5-1.5,0-2.2-0.7-2.8c-1.1-0.9-2.4,0-4.6-2.2C42.1,29.8,36.8,27.7,31,34z M30.8,53.9c-5.7,8.7-9.7,18.4-11.8,28.6
	c0.8-0.4,1.7-0.7,2.6-0.7c1.6-0.1,3.2,0.6,4.4,1.7c4.1,0.9,7.2,1.3,7.8,6.7l1.5,0.4c8.9-5.9,12.4-8.7,19.5-8.7
	c-16.9-12.4-12.8-20-16.7-24.8C36.6,55.4,33.4,55.2,30.8,53.9L30.8,53.9z M5.7,99.5c0,6.5,3,10,8.5,10c7.2,0,6-3.3,12.6-3.3
	c6.9,0,8.2,7.4,21.1,7.4c14.5,0,24.3-5.6,28.9-5.6c2.2,0,6,1.3,11.9,1.3c-1.1-1.7-3.5-2.6-4.6-7.2c-9.1-5.4-8.5-7.6-13-11.1
	c-2-1.3-3.7-1.5-8.5-4.1l-6.9,0.7c-11.9,0.9-14.8,9.1-20.4,9.1c-2,0-0.4-0.7-3.7-0.7c-1.7,0-3.9-0.2-3.9-1.7c0-0.9,0.9-1.5,0.9-3.5
	c0-2.2-2.8-1.7-4.3-2c-2.2,0-1.5-1.5-2.4-1.5c-1.5,0-2,1.5-5,1.5C10.7,88.9,5.6,91,5.7,99.5L5.7,99.5z M84.3,158.7
	c0-8.9,4.8-11.5,4.8-25.1c0-1.7-0.9-3.9-0.9-10.8c0-2.6,0.2-5.6,0.4-7.8c-6,0-10-1.3-12.1-1.3c-4.6,0-14.3,5.4-28.9,5.4
	c-12.1,0-16.9-7.4-21.1-7.4c-2.6,0-4.8,1.7-7.4,2.6c6.8,33.6,34.2,59.2,68.1,63.8C86.1,171.5,84.3,162.6,84.3,158.7z M98.4,178.9
	c14.6,0,28.9-4,41.4-11.5c-2.6-7.2-9.8-12.6-12.6-20.2c-5.4-14.8-0.7-16.9-5.9-19.1c-4.6-1.7-8.9-4.1-12.8-6.9
	c-2,6.9-5.4,15-5.4,18.7c0,1.7-4.8,9.3-4.8,18.7c0,5.6-1.7,11.7-2,20.2L98.4,178.9L98.4,178.9z M159.4,167.4c-5.6-1.1-7.8-5-9.6-8.2
	c-1.7-3.2-4.1-11.9-6-18.2c-1.9-6.3-2-8-2-11.9c0-9.3-6-12.8-7.2-13.9c-10.4-11.1-4.6-9.1-25.1-21.1v0.4c-0.2,3.2,0.4,13.2,0.4,18.9
	c0,0.8,0,1.6-0.2,2.4c4.5,3.2,9.3,5.8,14.3,7.8c8,3.7,3.5,8.7,8.2,21.7c2.8,7.6,9.8,13.2,12.4,20.2c3.2,8.7,1.1,12.1,3.5,12.1
	c2,0,3.2-1.7,6.3-2.6c4.6-1.3,1.5,1.3,17.1-5.9c1.1-0.4,1.1-1.1-0.4-1.1C165.1,168.7,166.1,168.5,159.4,167.4L159.4,167.4z
	 M154.2,156.3c12.1-11.4,20.3-26.4,23.4-42.7c-6.5,1.1-15.6,2.8-19.3,2.8c-8.5,0-13.5-4.6-19.3-4.6c2.8,2.6,7.8,8.5,7.8,15.8
	c0,3.9,0,5.6,2.2,11.9C150.5,145,152.7,152.4,154.2,156.3L154.2,156.3z M178.5,94.5c0.2,0,0.4,0.2,0.7,0
	c-1.7-39.5-31.7-71.9-70.9-76.6c0.7,1.3,1.5,2.6,1.5,3.5c0.2,1.1-0.9,0.7-1.3,1.3c-0.2,0.2,0,1.1-0.2,1.5c0,0.8-0.2,1.7-0.7,2.4
	c-0.2,1.1,0.4,2.6-2.2,2.6c-2.4,0-6.7-2.4-7.4-3c-0.9-0.4-1.5-0.4-2,0.2c-0.7,0.4-0.2,1.3,0.4,1.7c1.6,1.1,3.4,2,5.2,2.6
	c-0.7,5.4-1.1,3.2-1.1,5c0,3.9,5.4,5.2,8.7,16.3c0.7,2.4,0.7,5.2,1.1,8.7c0.7,4.2,1.2,8.5,1.3,12.8c0,3.2,0,5.9-0.2,8
	c12.1,0.9,14.3,1.5,26.5,6c1.1,0.4,2.8,0,5,0.9c2.4,0.9,2.2,1.3,6.9,2.6c10,2.8,3.7,0.2,16.3,2.2C174.4,94.3,175,94.5,178.5,94.5
	L178.5,94.5z M111,89.1c7.4,3,14.8,8.7,23.4,16.9c10.2,0,17.6,5.2,23.2,5.2c5.6,0,21.7-3.9,27.4-3.9c3,0,6.7,1.3,8,1.3s0.9-3,0.9-6
	c0-3,1.3-6.5,1.3-9.6s-0.9-8.7-0.9-9.6s-0.9-0.4-1.3,0.9c-0.4,1.3-4.1,15.2-13.7,15.2c-6.3,0-12.5-0.6-18.6-1.8
	c-2.6-0.4-7.8,0.7-13.5-1.7c-3-1.3-3.9-2.2-5.6-2.6s-3.5,0-5.2-0.9c-1.7-0.9-15-6-25.4-6L111,89.1L111,89.1z"/>
</svg>
