<svg xmlns="http://www.w3.org/2000/svg" xmlns:xlink="http://www.w3.org/1999/xlink" viewBox="0 0 33.56 19.58"><defs><style>.cls-1{fill:none;}.cls-2{clip-path:url(#clip-path);}.cls-3{fill:#22368f;}.cls-4{fill:#fff;}.cls-5{fill:#ce731e;}</style><clipPath id="clip-path"><rect class="cls-1" width="33.56" height="19.58"/></clipPath></defs><title>MHL</title><g id="Layer_2" data-name="Layer 2"><g id="_4" data-name="4"><g id="MARSHALL_ISLANDS" data-name="MARSHALL ISLANDS"><g class="cls-2"><rect class="cls-3" width="33.56" height="19.58"/><polygon class="cls-4" points="7.14 13.22 6.89 9.05 6.02 11.35 6.41 8.92 4.97 10.91 5.98 8.67 4.07 10.22 5.62 8.32 3.38 9.32 5.37 7.88 2.94 8.28 5.24 7.4 1.08 7.15 5.24 6.9 2.94 6.02 5.37 6.41 3.38 4.98 5.62 5.98 4.07 4.08 5.98 5.63 4.97 3.38 6.41 5.38 6.02 2.95 6.89 5.25 7.14 1.08 7.4 5.25 8.27 2.95 7.88 5.38 9.32 3.38 8.31 5.63 10.22 4.08 8.67 5.98 10.91 4.98 8.92 6.41 11.34 6.02 9.05 6.9 13.21 7.15 9.05 7.4 11.34 8.28 8.92 7.88 10.91 9.32 8.67 8.32 10.22 10.22 8.31 8.67 9.32 10.91 7.88 8.92 8.27 11.35 7.4 9.05 7.14 13.22"/><polygon class="cls-4" points="0 18.64 0 19.27 33.56 7.99 33.56 0.32 0 18.64"/><polygon class="cls-5" points="0 18.64 0 18.95 33.56 4.15 33.56 0.32 0 18.64"/></g></g></g></g></svg>