<svg xmlns="http://www.w3.org/2000/svg" xmlns:xlink="http://www.w3.org/1999/xlink" viewBox="0 0 33.56 19.58"><defs><style>.cls-1{fill:none;}.cls-2{clip-path:url(#clip-path);}.cls-3{fill:#bd0034;}.cls-4{fill:#fff;}.cls-5{fill:#efecec;}.cls-6{fill:#d30038;}.cls-7{fill:#91857c;}.cls-8{fill:#cacaca;}.cls-9{fill:#cecece;}</style><clipPath id="clip-path"><rect class="cls-1" width="33.56" height="19.58"/></clipPath></defs><title>MLT</title><g id="Layer_2" data-name="Layer 2"><g id="_4" data-name="4"><g id="MALTA"><g class="cls-2"><rect class="cls-3" x="16.78" width="16.78" height="19.58"/><rect class="cls-4" width="16.78" height="19.58"/><g class="cls-2"><path class="cls-5" d="M3.88,3S3.85,3,3.8,3,3.72,3,3.72,3s0-.06.08-.06.08,0,.08.06Z"/><path class="cls-6" d="M1.4,2.71V4.15H2.84a.52.52,0,0,0,.48.48V6.07H4.76V4.63a.52.52,0,0,0,.48-.48H6.69V2.71H5.24a.52.52,0,0,0-.48-.48V.78H3.32V2.23a.52.52,0,0,0-.48.48Z"/><path class="cls-3" d="M1.45,2.75V4.1H2.89a.52.52,0,0,0,.48.48V6H4.71V4.58A.52.52,0,0,0,5.2,4.1H6.63V2.75H5.2a.52.52,0,0,0-.48-.48V.83H3.37V2.27a.52.52,0,0,0-.48.48Z"/><path class="cls-7" d="M1.49,2.8V4.05H2.94a.51.51,0,0,0,.48.48V6H4.67V4.53a.52.52,0,0,0,.48-.48H6.59V2.8H5.15a.52.52,0,0,0-.48-.48V.88H3.41V2.32a.51.51,0,0,0-.48.48Z"/><path class="cls-8" d="M1.54,2.85V4H3a.51.51,0,0,0,.48.48V5.93H4.62V4.48A.52.52,0,0,0,5.1,4H6.54V2.85H5.1a.52.52,0,0,0-.48-.48V.93H3.46V2.37A.52.52,0,0,0,3,2.85Z"/><path class="cls-9" d="M3.48,2.25c.08.08,0,.29-.15.46s-.38.24-.46.15,0-.29.15-.46.38-.24.46-.15Z"/><path class="cls-7" d="M3.38,2.35a.26.26,0,0,1-.05.36A.26.26,0,0,1,3,2.76.27.27,0,0,1,3,2.4a.27.27,0,0,1,.36-.05Z"/><polygon class="cls-9" points="2.95 2.61 2.98 2.57 3.12 2.64 3.05 2.5 3.09 2.47 3.22 2.74 2.95 2.61"/><polygon class="cls-9" points="3.15 2.4 3.19 2.37 3.39 2.57 3.36 2.61 3.15 2.4"/><path class="cls-9" d="M5.22,2.86c-.08.09-.29,0-.46-.15s-.23-.37-.15-.46.29,0,.46.15.24.38.15.46Z"/><path class="cls-7" d="M5.12,2.76a.26.26,0,0,1-.36-.05.26.26,0,0,1,0-.36.26.26,0,0,1,.36.05.26.26,0,0,1,.05.36Z"/><polygon class="cls-9" points="4.86 2.34 4.89 2.37 4.82 2.5 4.96 2.44 5 2.47 4.72 2.61 4.86 2.34"/><polygon class="cls-9" points="5.07 2.54 5.1 2.57 4.89 2.78 4.86 2.74 5.07 2.54"/><path class="cls-9" d="M4.6,4.6c-.08-.08,0-.29.15-.46s.38-.24.46-.15,0,.29-.15.46-.38.24-.46.15Z"/><path class="cls-7" d="M4.71,4.5a.3.3,0,0,1,.41-.41.26.26,0,0,1-.05.36.26.26,0,0,1-.36.05Z"/><polygon class="cls-9" points="5.13 4.25 5.1 4.28 4.96 4.21 5.03 4.35 5 4.38 4.86 4.11 5.13 4.25"/><polygon class="cls-9" points="4.93 4.45 4.89 4.48 4.69 4.28 4.72 4.25 4.93 4.45"/><path class="cls-9" d="M2.86,4c.08-.08.29,0,.46.15s.24.38.15.46-.29,0-.46-.15S2.78,4.08,2.86,4Z"/><path class="cls-7" d="M3,4.09a.26.26,0,0,1,.36.05.26.26,0,0,1,.05.36A.26.26,0,0,1,3,4.45.26.26,0,0,1,3,4.09Z"/><polygon class="cls-9" points="3.22 4.52 3.19 4.48 3.26 4.35 3.12 4.42 3.09 4.38 3.36 4.25 3.22 4.52"/><polygon class="cls-9" points="3.02 4.32 2.98 4.28 3.19 4.08 3.22 4.11 3.02 4.32"/><path class="cls-7" d="M4,4.45a1,1,0,1,1,0-2,1,1,0,0,1,.72,1.74,1,1,0,0,1-.72.3Zm0-2a1,1,0,1,0,.71.29A1,1,0,0,0,4,2.43Z"/><path class="cls-7" d="M4,4.2a.78.78,0,1,1,.78-.78A.78.78,0,0,1,4,4.2ZM4,2.67a.76.76,0,1,0,.76.76A.76.76,0,0,0,4,2.67Z"/><path d="M3.71,4.24a0,0,0,0,1,0,0h0a0,0,0,0,1,0,0,0,0,0,0,1,0,0h0a0,0,0,0,1,0,0Z"/><path d="M4.47,4.24a.05.05,0,0,1,0,0H4.4a.05.05,0,0,1,0,0,0,0,0,0,1,0,0h.05a.05.05,0,0,1,0,0Z"/><path d="M4,4.24v0H3.95c-.07,0-.07.05,0,.05H4v0c0,.05.05.06.06,0V4.34h.06c.06,0,.06-.05,0-.05H4.07v0a0,0,0,1,0-.06,0Z"/><path class="cls-7" d="M4.59,3.58h0s0,0,0,0h0l0,0h0a.1.1,0,0,1,0,0,.1.1,0,0,1-.05,0Z"/><path class="cls-1" d="M4.59,3.58h0s0,0,0,0h0l0,0h0a.1.1,0,0,1,0,0,.1.1,0,0,1-.05,0Z"/><path class="cls-7" d="M4.52,3.55s-.08,0-.08,0a.11.11,0,0,0,.08.05Z"/><path class="cls-1" d="M4.52,3.55s-.08,0-.08,0a.11.11,0,0,0,.08.05Z"/><polygon class="cls-7" points="3.65 4 4.47 4 4.53 3.95 4.43 3.9 4.26 3.84 4.2 3.8 4.08 3.81 3.98 3.86 3.84 3.88 3.81 3.92 3.71 3.93 3.54 3.92 3.81 3.96 3.59 3.95 3.65 4"/><path d="M4.47,4H3.65L3.59,4h.22l-.27,0h.26l0,0,.14,0,.1-.05H4.2l.07,0,.27.11L4.47,4ZM3.59,4l.06,0h.82l.06,0L4.2,3.81H4.08L4,3.87l-.14,0,0,0H3.54l.27,0Z"/><path class="cls-7" d="M4.09,3.77c-.11-.06-.13.08-.18.11s.11,0,.16-.07.1,0,.1,0,.06.1.15.06a0,0,0,0,0,0,0s0,0,0,0,0,0,0,0,0,0,0,0,.12-.11.12-.11l0,0h0s0,0,0,0,0,0,0,0h0s0,.08,0,.08l-.07,0s-.07-.1-.06-.13.06,0,.1,0a.11.11,0,0,0,.06-.1l0-.07h0l0-.05s-.05,0,0,.06.05,0,.05,0a.07.07,0,0,1-.06,0s0,0,0,0a.07.07,0,0,0,0,0s0,0,0,0-.07-.08-.12,0,0,.1,0,.1a.19.19,0,0,0-.07.08c-.1-.09-.16,0-.27,0Z"/><path d="M4.27,3.91a.14.14,0,0,1-.11-.07s-.07,0-.1,0l0,0a.18.18,0,0,1-.1,0h0a.2.2,0,0,0,.09,0l0,0c0,.08.1,0,.1,0s.08.09.15.05h.09s.06,0,.07,0,.12-.11.12-.11l0,0h0v0s0,0,0,.07l-.07.05a.25.25,0,0,0,0-.07s0,0,0-.07h0l0,0a.11.11,0,0,0,.07-.1l0-.07a.2.2,0,0,1,0,.07.12.12,0,0,1-.06.11l-.07,0s0,0,0,0a.16.16,0,0,1,0,.07l.06-.05s0-.08,0-.08l0,0,0,.07s-.06.11-.12.11,0,0,0,0l-.06,0H4.27Zm-.35,0,0,0s.08-.1.15-.07h.05a.2.2,0,0,1,.22,0,.14.14,0,0,1,.06-.08h0a.09.09,0,0,1,0-.07l0,0,.05,0,0,0s0,0,0,0l0,0,0,0,0,0-.05,0,0,0s0,.07,0,.07a.23.23,0,0,0-.06.08.23.23,0,0,0-.22,0H4.09c-.08,0-.11,0-.14.07l0,0Zm.57-.29h0s0,0,0-.05,0-.06,0-.06h0s0,0,0,.06,0,0,0,0h0Z"/><path class="cls-7" d="M3.94,3.62s0,.11,0,.12,0,0,0,0a.27.27,0,0,0,.12,0s0,0,0,0,.08,0,.08,0a.39.39,0,0,0-.09-.07.29.29,0,0,1-.12,0s0,0,0,0,0-.1,0-.13-.14,0-.08.09Z"/><path d="M4.25,3.76a.07.07,0,0,1-.07,0L4,3.74H4l0,0a.09.09,0,0,0,0-.08.06.06,0,0,1,0-.07.07.07,0,0,1,.11,0s0,.1,0,.13a.15.15,0,0,0,.13,0,.39.39,0,0,1,.1.08Zm-.07,0a.08.08,0,0,0,.07,0h0l-.09-.07a.22.22,0,0,1-.1,0l0,0s0-.1,0-.12a.06.06,0,0,0-.09,0s0,0,0,.06a.11.11,0,0,1,0,.09l0,0H4l.13,0Z"/><path class="cls-7" d="M3.66,3.5c-.05,0-.15-.07-.19,0s0,.11,0,.15,0,.05-.06.08,0,0,0,0h0v.06h0s0,0,0,0,0-.06,0-.06,0,0,0,0,0-.05,0-.05h0s0,0,0,0,.05,0,.05-.06-.09-.08-.05-.11.09.06.15,0,0,0,0,0,0-.05,0,0Z"/><path d="M3.49,3.85h0l0-.07h0l0,.06a.4.4,0,0,1,0-.05h.05a.06.06,0,0,0,0,0v0s.05,0,.05-.05,0,0,0-.05,0,0,0,0h0s0,0,0,0a.09.09,0,0,1,0,.06s-.05.06-.05.06,0,.07,0,.09,0,0,0,0,0,0,0,.05Zm-.06-.11h0s0,0,0-.05l.07-.05a.29.29,0,0,1,0-.1.09.09,0,0,1,0-.08.15.15,0,0,1,.1,0l.08,0h0v0l0,0-.08,0-.07,0a.07.07,0,0,0,0,.07.16.16,0,0,0,0,.08.05.05,0,0,1,0,.06s0,.06,0,.06Z"/><path class="cls-7" d="M3.94,2.93c-.07,0-.22,0-.3-.07a.06.06,0,0,0-.05,0S3.52,3,3.53,3s-.1.08-.08.1-.05.08-.05.1,0,.06,0,0a0,0,0,0,1,0,0c.1.12.16-.07.24-.07a.32.32,0,0,0,.15-.08h0Z"/><path d="M3.48,3.29s0,0-.07,0l0,0a0,0,0,0,1,0,0s0-.1.06-.1,0,0,0-.06,0,0,.06,0,0,0,0,0a.06.06,0,0,1,0,0s0,0,.05,0a.69.69,0,0,0,.17,0l.13,0-.08.17h0a.29.29,0,0,1-.15.09s-.06,0-.09.05a.14.14,0,0,1-.09.05ZM3.4,3.21h0l0,0c.06,0,.1,0,.15,0a.15.15,0,0,1,.1-.06.31.31,0,0,0,.15-.08h0l.08-.16-.13,0-.17,0a.05.05,0,0,0,0,0,.07.07,0,0,0,0,0h0l0,0a.06.06,0,0,0-.07,0,.07.07,0,0,0,0,.06.07.07,0,0,0-.05.08v.06Z"/><path class="cls-7" d="M4.13,2.85a.11.11,0,1,1-.21,0,.11.11,0,0,1,.21,0Z"/><path d="M4,3a.11.11,0,0,1-.11-.11c0-.12.22-.12.22,0A.11.11,0,0,1,4,3Zm0-.21a.1.1,0,0,0-.1.1c0,.11.2.11.2,0a.1.1,0,0,0-.1-.1Z"/><path class="cls-7" d="M3.84,3.68c-.07,0-.18-.08-.18-.17.06-.24.37-.11.4-.29a.53.53,0,0,1,.08-.33.13.13,0,0,1,.07,0,.06.06,0,0,1,0,0,.88.88,0,0,1,.17,0,.07.07,0,0,1,0,.06s0,0,0,0A.06.06,0,0,1,4.3,3L4.22,3s.12.12.1.16a.26.26,0,0,1,.06.06.37.37,0,0,0,.1-.08s.12,0,.16.05l.09.07s-.05,0-.08,0-.09-.07-.17,0a.19.19,0,0,1-.09.13.24.24,0,0,1,.12,0l.11.09.05.1s-.05,0-.07-.06,0,0-.1-.07,0,0-.06,0a.49.49,0,0,1-.2,0c-.05,0-.1.06-.15.09s-.07,0-.07,0H4s0,.07,0,.08,0,.09,0,.1.05.06.09.09a.06.06,0,0,1,.06,0,.3.3,0,0,1,0,.08H4s0,0,0,0-.17-.06-.18-.08,0-.08,0-.12Z"/><path d="M4.08,3.9H4a.35.35,0,0,0-.19-.09h0A.28.28,0,0,1,4,3.88l.07,0h0l0-.06a.14.14,0,0,1,0,.06Zm0-.08H4s-.08,0-.09-.09a.14.14,0,0,0,0-.07h0s0,.07,0,.08A.15.15,0,0,0,4,3.8H4l0,0Zm-.22,0a.05.05,0,0,1,0,0,.13.13,0,0,0,0-.07.23.23,0,0,1-.19-.17c0-.13.14-.16.24-.18s.15,0,.17-.12a.53.53,0,0,1,.08-.33.15.15,0,0,1,.07-.05,0,0,0,0,1,0,0v0h0a.14.14,0,0,0-.06,0,.52.52,0,0,0-.08.33c0,.09-.09.11-.17.12s-.2,0-.23.17a.23.23,0,0,0,.18.16.14.14,0,0,1,0,.08v0ZM4,3.55h.06l.07,0,.08,0a.38.38,0,0,0,.16,0h.1a.14.14,0,0,1,.06.06L4.5,3.42l-.05,0h0l-.13,0a.23.23,0,0,0-.11,0l-.07,0L4,3.55Zm.62,0a.06.06,0,0,1-.05,0,.09.09,0,0,0,.06,0l-.05-.09h0l-.11-.08-.08,0h.08l.11.09.06.1Zm-.24-.21a.25.25,0,0,0,0-.11.22.22,0,0,1,.14,0l0,0h0l0,0-.05-.08-.06,0-.09,0a.31.31,0,0,1-.1.08l-.06-.06S4.25,3,4.22,3L4.3,3a.07.07,0,0,0,.06,0s0,0,0-.07h0s0,0,0,.06,0,0-.07,0l-.1,0s.12.12.1.15.06.05.06.06a.43.43,0,0,0,.1-.08l.1,0,.06,0,.09.07s-.06,0-.08,0h0a.23.23,0,0,0-.1,0,.33.33,0,0,1-.09.11Z"/><path class="cls-7" d="M3.58,3.24h0l.07,0,.15.1.05.08-.09,0-.13-.11-.07,0s0,0,0,0Z"/><path d="M3.91,3.48l-.11,0L3.6,3.28s0,0,0,0h.05l.22.14.06.09Zm-.33-.24h0l.22.19.08,0,0-.07-.26-.16Z"/><path class="cls-7" d="M4.46,3.49c-.05,0-.18.14-.18.14l.09.1s0-.18.08-.24Z"/><path d="M4.38,3.74l-.1-.11s.12-.15.17-.15h0c-.06,0-.16.14-.16.15l.09.09a.43.43,0,0,1,.06-.21.56.56,0,0,0-.05.22Z"/><path class="cls-7" d="M3.84,3.05a.11.11,0,0,0,0,.14s0,.13.07.14a.74.74,0,0,0,.21,0,.22.22,0,0,0,.11.19,0,0,0,0,0,0,0h0s.08,0,.08,0a1.55,1.55,0,0,0-.12-.1.51.51,0,0,1-.07-.18A.2.2,0,0,0,4,3.26V3L4,3H4s0,0,0,0h0s0,0,0,0,0-.1-.06-.1S4,2.87,4,2.88s0,0,0,0l0,0a.1.1,0,0,0-.07,0S3.79,3,3.79,3a.07.07,0,0,0,0,0s0,0-.07.06-.06.14-.06.14a.1.1,0,0,0,0,0s0,0,0,0h.06v0h0s0,0,0,0,0,0,0,0a.08.08,0,0,1,0,0s.06,0,.06-.09.07,0,.09-.05Z"/><path d="M4.35,3.61s-.06,0-.07,0h.08l-.07-.06-.05,0a.66.66,0,0,1-.07-.18A.19.19,0,0,0,4,3.27V3L4,3H4l.08-.08a0,0,0,0,0,0,0,.07.07,0,0,0-.07,0H4l0,0a.08.08,0,0,0,0,0H4l0,.06H3.87S3.79,3,3.79,3s0,0,0,0,0,0-.07.06-.06.14-.06.14v0h0s0-.12.06-.15,0-.06.07-.06a.07.07,0,0,1,.05,0s0,0,.08-.06h.07l0,0s0,0,0-.05l.05,0a.08.08,0,0,1,.07.05.05.05,0,0,1,0,.05l0,0L4,3l0,0v.25a.18.18,0,0,1,.14.06.59.59,0,0,0,.07.18l0,0c.06.05.08.06.07.07Zm-.26-.25a.8.8,0,0,1-.19,0s-.07-.1-.07-.14a.11.11,0,0,1,0-.12.07.07,0,0,1-.06,0s-.07.08-.07.09a.07.07,0,0,0,0,0l0,.05,0,0,0,0,0,0,0,0c0-.05,0-.08,0-.08s.06,0,.07-.09a.1.1,0,0,0,.08,0h0v0a.12.12,0,0,0,0,.12s0,.13.07.14a.89.89,0,0,0,.19,0h0Z"/><path class="cls-7" d="M3.73,2.88s.07,0,.07,0,0,0,.09,0,.09,0,.09,0a.08.08,0,0,1,.06,0,.08.08,0,0,1,.07.07s-.1,0-.14,0-.06,0-.08.05-.09,0-.15,0Z"/><path d="M3.87,2.92l-.05,0-.08,0h0a.15.15,0,0,1,.08,0l.05,0h0s0,0,.05,0h.15s0-.06-.06-.07a.09.09,0,0,0-.05,0H3.84a0,0,0,0,0,0,0s0,0-.06,0,0,0,.05,0h0a.07.07,0,0,1,.09,0,.19.19,0,0,1,.09,0,.08.08,0,0,1,.05,0,.09.09,0,0,1,.07,0v0H3.94l-.06,0Z"/><path class="cls-7" d="M3.85,2.94s.05,0,.08,0L4,3,4,3h0l0,.21s-.08-.05-.11-.1,0-.07,0-.11S3.85,3,3.85,2.94Z"/><path d="M4.06,3.24H4l0,0a.18.18,0,0,1-.06-.06.07.07,0,0,1,0,0A.16.16,0,0,0,3.9,3S3.85,3,3.85,2.94l.05,0,0,0a.1.1,0,0,0-.07,0s0,0,0,0a.15.15,0,0,1,0,.1s0,0,0,0A.17.17,0,0,0,4,3.19l0,0v0Z"/><path class="cls-7" d="M4,3H4S4,3,4,3H4V3H4Z"/><path class="cls-1" d="M4,3H4S4,3,4,3H4V3H4Z"/><path class="cls-7" d="M4.17,2.86s0,0,0,0L4.07,3,4,3v.09l0,.08v.06s0,0,0,0a.24.24,0,0,0,0-.07.13.13,0,0,1,0-.1c0-.06.08-.11.09-.15Z"/><path d="M4,3.24V3.16l0-.08V3l0,0,.06-.11h0a.19.19,0,0,1,0,.07L4.09,3a.13.13,0,0,0,0,.09.28.28,0,0,1,0,.07s0,0,0,.05Zm.12-.38L4.07,3l0,.11,0,.08v.05s0,0,0,0a.2.2,0,0,0,0-.07.11.11,0,0,1,0-.1l.05-.09,0-.06Z"/><path class="cls-7" d="M4.33,3a.54.54,0,0,1-.26.2S4,3,4,3H4s0,.12,0,.12A.56.56,0,0,0,4.35,3Z"/><path d="M4.06,3.17H4s0-.11,0-.11H4s0,.07,0,.09l0,0h0A.5.5,0,0,0,4.31,3a.46.46,0,0,1-.25.17Zm0,0h0A.57.57,0,0,0,4.33,3s0,0,0,0a.59.59,0,0,1-.26.18Z"/><path class="cls-7" d="M4.4,3.8a0,0,0,0,1,0,0,.05.05,0,0,0,0,0s0-.05,0,0,0,0,0,0a0,0,0,0,0,0,0s-.05,0-.05,0,0,0-.09,0c.2-.09.36.14.36.14Z"/><path d="M4.36,3.8a.05.05,0,0,0,0,0s0,0,0,0h0l-.05,0h0l0,0a.05.05,0,0,0,0,0,.09.09,0,0,0-.09,0c.2-.1.36.13.36.13a.4.4,0,0,0-.27-.16l-.09,0a.08.08,0,0,1,.08,0s0,0,.06,0l.06.06s.06.05.06.05a0,0,0,0,1,0,0h0Z"/><path class="cls-7" d="M4.5,3.82s0,.05.07.05,0,0,0,0,0,0,0,0a0,0,0,0,0,0,0s0,.1-.16,0Z"/><path d="M4.56,3.9a.17.17,0,0,1-.09,0,.15.15,0,0,0,.11,0,.08.08,0,0,0,0,0l0,0s0,.05,0,.05h0s-.06,0-.07-.05h0l.06,0s0,0,0,0h0l0,0a.07.07,0,0,1-.05,0Z"/><path class="cls-7" d="M4.14,3.83l0,.07,0,0h0a.15.15,0,0,0,.06,0,0,0,0,0,0,0,0v0h0a0,0,0,0,0,0,0s0,0,0,0-.07,0-.08,0,0,0,0-.06Z"/><path d="M4.1,3.93l0-.09h0l0,.07a.11.11,0,0,0,.09,0l0,0v0l0,0h0s0,0,0,0-.06,0-.06,0Z"/><path d="M3.1,3.68l.06,0v0h0s0,0,0,0v0h.08l0,.07h0l-.11,0h0l0-.13h0v.06Zm0-.3a.07.07,0,0,1,0-.06l.06,0,.06,0a.07.07,0,0,1,0,.06.08.08,0,0,1,0,.06l-.07,0a.09.09,0,0,1-.06,0,.07.07,0,0,1,0-.06Zm0,0a0,0,0,0,0,0,0l.06,0h.07a0,0,0,0,0,0,0,.05.05,0,0,0,0,0l-.06,0H3.09a0,0,0,0,0,0,0Zm.25-.31,0,0-.09,0h0l0,0h0l0,.07h0a0,0,0,0,0,0,0h0l-.11,0h0l0-.06,0,0,0,0h0l0,0a.08.08,0,0,1,0,0l.06,0h0v0Zm-.13.08h0a.06.06,0,0,0,0,0,0,0,0,0,0,0,0h0l0,0v0Zm.37-.57,0,0h0l0,0h0a.05.05,0,0,0,0,0,.09.09,0,0,0,0,.05l0,0h.08v0l0,0h0l.05,0h0s0,0,0,0v0l0,0,0,0,0,0a.1.1,0,0,1-.08,0,.08.08,0,0,1,0,0,.08.08,0,0,1,0,0,.08.08,0,0,1,0-.05l0,0h.05Zm.28,0-.07,0v0h0v0l0-.15h0l.09.12,0,0h0l-.06,0h0v0Zm0,0,0-.06V2.6Zm.3,0h0l0,0H4s0,0,0,0V2.47h0s0,0,0,0V2.6h.08l0,0Zm.23.06h0l0,0-.13,0h0v0l0-.11s0,0,0,0h0l.07,0h0v0l0,.1s0,0,0,0h.08l0,0Zm.19.1-.05,0,0,0h0l0,0h0l.13-.08h0l0,.15a.08.08,0,0,0,0,0h0l-.05,0h0v0Zm0,0,0-.07-.06,0Zm.21,0,0,0,0,.16.08-.06h0s0,0,0,0h0l0,0h0L4.72,3h0l0-.17-.08.06h0s0,0,0,0h0l0-.05h0l.1-.07v0h0Zm.22.4,0,0H5v0l-.12,0h0a0,0,0,0,0,0,0h0l0-.07h0l.13,0v0h0Zm-.14.31v0l.08-.06H4.85v0h0V3.31h0s0,0,0,0H5s0,0,0,0H5v.13H4.95a.06.06,0,0,1,0,0l0,0,0,0v0Zm.08-.13h0a.06.06,0,0,0,0,0H5v0Zm0,.36,0,.06H5l0,0-.05-.06H4.81l0-.07h0a0,0,0,0,0,0,0h.05l.08,0H5l0,.07H5l-.06,0,0,0H5Z"/></g></g></g></g></g></svg>