<?xml version="1.0" encoding="utf-8"?>
<!-- Generator: Adobe Illustrator 21.0.0, SVG Export Plug-In . SVG Version: 6.00 Build 0)  -->
<svg version="1.1" id="Layer_1" xmlns="http://www.w3.org/2000/svg" xmlns:xlink="http://www.w3.org/1999/xlink" x="0px" y="0px"
	 viewBox="0 0 200 200" style="enable-background:new 0 0 200 200;" xml:space="preserve">
<style type="text/css">
	.st0{fill:#EE1B2D;}
</style>
<title>MMM</title>
<g id="g3348">
	<g id="g3354">
		<path id="path3356" class="st0" d="M157.5,50.3l-14.3,58.3l-14.4-58.3H87.4v21.5C82.2,53,63.9,48.1,47.3,48
			C27.1,47.7,4.9,56.4,4,83h28c0-8,7.4-12.7,14.3-12.6c8.5,0,12.4,3.6,12.7,9.3c-0.3,5-3.1,8.4-12.5,8.4h-9.5v19.3h8.6
			c4.8,0,11.5,2.6,11.8,9.6c0.3,8.1-5.4,11.9-12.4,11.9C32.3,128.4,29,118.7,29,110.5H0.1c0.1,5.6,0,41.9,45.3,41.6
			c21.7,0.1,37.5-9,42.1-21.5v19.3h27.9v-63l15.4,62.9h24.9L171.4,87v62.9h28.5V50.1h-42.3V50.3z M87.4,108.4
			C83.9,101,78.9,97.8,76,96.8c5.8-2.6,9-6.1,11.4-13.3L87.4,108.4z"/>
	</g>
</g>
</svg>
