<svg xmlns="http://www.w3.org/2000/svg" xmlns:xlink="http://www.w3.org/1999/xlink" viewBox="0 0 33.56 19.58"><defs><style>.cls-1{fill:none;}.cls-2{clip-path:url(#clip-path);}.cls-3{fill:#cbae43;}.cls-4{fill:#b41630;}.cls-5{fill:#ac6a32;}.cls-6{fill:#355d8e;}.cls-7{fill:#718c42;}</style><clipPath id="clip-path"><rect class="cls-1" width="33.56" height="19.58"/></clipPath></defs><title>MNE</title><g id="Layer_2" data-name="Layer 2"><g id="_4" data-name="4"><g id="MONTENEGRO"><g class="cls-2"><rect class="cls-3" width="33.56" height="19.58"/><rect class="cls-4" x="0.98" y="0.98" width="31.6" height="17.62"/><g class="cls-2"><path class="cls-5" d="M21,9.63a2.38,2.38,0,0,0,.79-.38.9.9,0,0,0,.36-.51c0-.1,0-.18,0-.12a4.24,4.24,0,0,1-.44.31,1.65,1.65,0,0,1-.37.14c-.08,0-.14,0-.07,0a1.49,1.49,0,0,0,.53-.31,1.18,1.18,0,0,0,.35-.67c0-.18,0-.17-.07-.12s-.27.3-.38.39a3.61,3.61,0,0,1-.4.28c-.09.06-.22.12,0,0a1.87,1.87,0,0,0,.67-.8,1.42,1.42,0,0,0,.11-.65s0-.12-.07,0a3.71,3.71,0,0,1-.45.73c-.19.2-.14.16-.18.19s-.11.09,0,0a2.59,2.59,0,0,0,.37-.63,2.09,2.09,0,0,0,.13-.66,1.2,1.2,0,0,0-.09-.42c0-.06-.06-.1-.07,0s-.16.53-.24.75a2.64,2.64,0,0,1-.27.52s-.12.15,0,0a3.14,3.14,0,0,0,.29-1.12,1.86,1.86,0,0,0-.11-.85.58.58,0,0,0-.12-.17,3.56,3.56,0,0,1-.09.78,2.57,2.57,0,0,1-.23.7s-.06.07,0,0A2,2,0,0,0,21,6.33a2.43,2.43,0,0,0-.05-.9A1.15,1.15,0,0,0,20.66,5a6.54,6.54,0,0,1-.2,1.46s-.07-.08-.08,0a2.49,2.49,0,0,1-.29.79c-.2.36-.28.41-.28.41a1.41,1.41,0,0,0-.06-.14s0-.07-.07,0a2.58,2.58,0,0,1-.38.6c-.24.28-.38.41-.37.62a.48.48,0,0,0,.26.41c.15.09.17.15.15.26s-.15.15-.27.16a1.13,1.13,0,0,0-.31,0c-.05,0-.05.1-.11.15s-.07.08-.12.09h0A1.22,1.22,0,0,1,18.7,9l-.59-.7-.09,0,0,0A.46.46,0,0,1,17.89,8,.48.48,0,0,0,18,8c.05,0,0-.07,0-.12a1,1,0,0,1,0-.3l0-.09s.09.09.14.09,0-.06.06-.11a.46.46,0,0,1,.12-.26.4.4,0,0,0,.2.07.53.53,0,0,0,.37-.14C19,7.06,19,7,19,7a1.66,1.66,0,0,0,.38.08.4.4,0,0,0,.42-.19.37.37,0,0,0,0-.36s-.07,0-.07,0a.28.28,0,0,1-.1.24.28.28,0,0,1-.27,0,.87.87,0,0,0-.38,0l-.16,0a.75.75,0,0,1,.25-.17.21.21,0,0,1,.24.06s.07.13.11,0a.42.42,0,0,0,0-.33.3.3,0,0,0-.29-.12l-.16,0a.34.34,0,0,0-.22-.21.86.86,0,0,0-.57.12.59.59,0,0,1-.26,0,.88.88,0,0,1-.22-.11l0-.14.08,0s0,0,0-.06-.08-.09-.08-.09,0-.1.12-.17L18,5.56s.08,0,.11,0,0,0,0,0a.18.18,0,0,0,.08-.05.17.17,0,0,0,0-.13s0,0,0-.07a.19.19,0,0,0,0-.1v0s0,0,0-.08,0-.09-.06-.1h0a.24.24,0,0,0,0-.1l-.06-.08a.06.06,0,0,0,0-.06A.11.11,0,0,0,18,4.63h-.06l-.15-.09-.06,0a.15.15,0,0,0,0-.06.11.11,0,0,0-.08,0h0l-.25-.05-.08,0a1.61,1.61,0,0,0-.21-.09l-.08,0a.32.32,0,0,0,.07-.16.24.24,0,0,0-.11-.21l-.07,0V3.79H17V3.61h-.11l0-.11h-.24l0,.11h-.11V3.8h.12v.07a.24.24,0,0,0-.19.23.35.35,0,0,0,.05.16h-.07a1.52,1.52,0,0,0-.21.09l-.08,0-.24.05h0a.11.11,0,0,0-.08,0,.14.14,0,0,0,0,.06l-.06,0-.15.09h-.06a.11.11,0,0,0-.07.08.06.06,0,0,0,0,.06l-.06.08a.25.25,0,0,0,0,.1h0s-.05,0-.06.1,0,.08,0,.08v0a.17.17,0,0,0,0,.1s0,0,0,.07a.16.16,0,0,0,0,.13.17.17,0,0,0,.08.05s0,0,0,0a.19.19,0,0,0,.11,0l.11.06c.13.07.12.17.12.17s-.08.06-.08.09,0,0,0,.06l.08,0,0,.14a.83.83,0,0,1-.22.11.57.57,0,0,1-.26,0,.86.86,0,0,0-.57-.12.33.33,0,0,0-.22.21l-.17,0a.3.3,0,0,0-.29.12.42.42,0,0,0,0,.33c0,.11.07,0,.11,0a.2.2,0,0,1,.24-.06.73.73,0,0,1,.25.17l-.16,0a.86.86,0,0,0-.38,0,.29.29,0,0,1-.27,0,.28.28,0,0,1-.1-.24s-.05,0-.07,0a.37.37,0,0,0,0,.36.4.4,0,0,0,.42.19A1.59,1.59,0,0,0,14.51,7s0,0,.11.14a.54.54,0,0,0,.37.14.4.4,0,0,0,.2-.07.44.44,0,0,1,.12.26c0,.06,0,.11.06.11s.14-.09.14-.09l0,.09a1,1,0,0,1,0,.3c0,.05-.06.11,0,.12a.51.51,0,0,0,.14,0,.47.47,0,0,1-.1.32l0,0-.09,0-.6.7a1.22,1.22,0,0,1,.2.8h0s-.07,0-.12-.09-.06-.12-.11-.15a1.11,1.11,0,0,0-.31,0c-.11,0-.24,0-.27-.16s0-.17.15-.26a.48.48,0,0,0,.26-.41c0-.21-.13-.34-.37-.62a2.47,2.47,0,0,1-.38-.6c0-.07,0,0-.08,0l-.06.14s-.08,0-.28-.41a2.59,2.59,0,0,1-.29-.79c0-.1-.05-.05-.08,0A6.48,6.48,0,0,1,12.88,5a1.14,1.14,0,0,0-.25.46,2.45,2.45,0,0,0-.05.9,1.81,1.81,0,0,0,.11.51c0,.11,0,0,0,0a2.65,2.65,0,0,1-.23-.7,3.53,3.53,0,0,1-.08-.78.55.55,0,0,0-.12.17,1.82,1.82,0,0,0-.11.85,3.17,3.17,0,0,0,.29,1.12c.09.17,0,.07,0,0a3,3,0,0,1-.27-.52c-.08-.22-.23-.68-.24-.75s0,0-.07,0a1.2,1.2,0,0,0-.09.42,2.09,2.09,0,0,0,.13.66,2.53,2.53,0,0,0,.37.63c.09.11,0,.05,0,0s0,0-.18-.19a3.74,3.74,0,0,1-.45-.73c0-.07-.06,0-.07,0a1.43,1.43,0,0,0,.11.65,1.86,1.86,0,0,0,.67.8c.18.13.05.06,0,0a3.7,3.7,0,0,1-.39-.28c-.11-.09-.32-.35-.38-.39s-.07-.06-.07.12a1.19,1.19,0,0,0,.35.67,1.49,1.49,0,0,0,.53.31c.08,0,0,0-.07,0a1.67,1.67,0,0,1-.37-.14,4.59,4.59,0,0,1-.44-.31c-.07-.06-.06,0,0,.12a.88.88,0,0,0,.36.51,2.37,2.37,0,0,0,.79.38c.11,0,0,0,0,0l-.28-.06a2.78,2.78,0,0,1-.68-.3c-.09-.06-.11-.08-.1,0a.82.82,0,0,0,.36.52,2,2,0,0,0,.7.2c.1,0,.08,0,0,0a1.78,1.78,0,0,1-.34,0,2.65,2.65,0,0,1-.45-.12l0-.08s0,0,0,0l-.08,0c-.05,0-.05,0-.06,0s0-.08,0-.12,0,0,0,0l-.19.08s0,.05,0,.1l.06.11-.15,0s0,0,0,.06l.08.19a0,0,0,0,0,0,0l.11-.07,0,.15a.36.36,0,0,0-.11.05c-.06,0,0,.09,0,.11s.15.05.24.21a3,3,0,0,1,.16.89,1.06,1.06,0,0,0,.38.71s0,0,0,0a.2.2,0,0,0,0,.14.22.22,0,0,0,.13.15,0,0,0,0,1,0,.06,1,1,0,0,0,0,.27.86.86,0,0,0,.2.41s0,.05,0,.07,0,0-.08,0a.49.49,0,0,0-.14.15.27.27,0,0,0,0,.19c0,.08.14.16.14.16s0,0,0,.07a.23.23,0,0,0,.1.18.46.46,0,0,0,.16.07v.09s.08.07.12.1a.23.23,0,0,0,.17,0s.06,0,.09,0a.75.75,0,0,1,0,.23c0,.06,0,.12,0,.14s.08,0,.13,0,.07,0,.12,0a.37.37,0,0,0,.14.06s0-.05,0-.1,0-.14,0-.15a1.35,1.35,0,0,0,.16,0s.07,0,.07-.05,0,0-.13-.08a1.24,1.24,0,0,1-.17-.12c-.06,0,0-.05,0-.07s0,0,0-.06a.19.19,0,0,0,0-.07l.07-.07.08-.09a1.75,1.75,0,0,0,.11-.19s.1-.08.14-.14a1.15,1.15,0,0,1,.22-.18l.24-.12a.27.27,0,0,0,0,.16c0,.05.11,0,.31-.18a1.53,1.53,0,0,1,.35-.19l.1.13c.05.07.1,0,.35-.34a4.65,4.65,0,0,1,.55-.61l.06,0,0,0a1.64,1.64,0,0,1-.11.22c0,.1-.12.12-.21.25a.65.65,0,0,0-.1.36c0,.14.07.16.07.16a.85.85,0,0,0-.16.21,1.43,1.43,0,0,0-.06.27s0,0-.07.1-.13.11-.24.23a1.21,1.21,0,0,1-.31.21c-.06,0,0,.07,0,.12s.1.09.2.13a.38.38,0,0,0,.2,0c.07,0,0,.05,0,.08a.39.39,0,0,0-.06.24c0,.11.09.08.19.07a1.21,1.21,0,0,0,.22-.07v0a.34.34,0,0,0,0,.14c0,.09,0,.13,0,.15s.08,0,.11,0a1.13,1.13,0,0,1,.19-.07.22.22,0,0,0,.12-.06.17.17,0,0,0,0,.09.8.8,0,0,0,0,.21.42.42,0,0,0,.12.18c.06.06.08,0,.12,0a1.37,1.37,0,0,1,.14-.16l.07.22a.92.92,0,0,0,.26.37.93.93,0,0,0,.26-.37l.07-.22a1.2,1.2,0,0,1,.14.16c0,.07.06.1.12,0a.44.44,0,0,0,.12-.18.84.84,0,0,0,0-.21.17.17,0,0,0,0-.09.23.23,0,0,0,.13.06,1.11,1.11,0,0,1,.19.07s.09.06.11,0,0-.06,0-.15a.32.32,0,0,0,0-.14v0a1.21,1.21,0,0,0,.22.07c.1,0,.18,0,.19-.07a.37.37,0,0,0-.06-.24s-.08-.08,0-.08a.37.37,0,0,0,.2,0c.1,0,.18-.08.2-.13s0-.09,0-.12a1.19,1.19,0,0,1-.31-.21c-.12-.12-.2-.13-.25-.23S18,14,18,14a1.41,1.41,0,0,0-.06-.27.84.84,0,0,0-.16-.21s.08,0,.07-.16a.65.65,0,0,0-.1-.36c-.08-.13-.16-.15-.21-.25a1.87,1.87,0,0,1-.1-.22v0l.07,0a4.33,4.33,0,0,1,.55.61c.25.34.29.41.35.34l.1-.13a1.55,1.55,0,0,1,.35.19c.2.14.26.23.31.18a.18.18,0,0,0,0-.11l.25.08.23.09a1.08,1.08,0,0,1,.33.22.58.58,0,0,0,.52,0c.19-.06.68-.22.88-.31a1.13,1.13,0,0,0,.36-.2.69.69,0,0,0,0-.19.19.19,0,0,0-.06-.11s0,0,0-.07a.22.22,0,0,0,0-.13s0,0,0-.14a.6.6,0,0,0-.35-.55.06.06,0,0,0,0,0l0,0s0-.12,0-.14,0,0,0,0a.21.21,0,0,0,.07,0s.06,0,.06-.05a1.52,1.52,0,0,1,0-.15s0,0,0,0l-.09,0s0,0,0,0l0-.08s0,0,0-.06l-.2-.06s0,0,0,0,0,.08,0,.11,0,0,0,0l-.07,0s0,0-.05,0l0,.18s0,.06,0,.06H21s0,0,0,0l-.06.09s0,0-.07,0h-.09a.76.76,0,0,0-.37.12.61.61,0,0,0-.23.27c0,.06-.05,0-.08.06s-.09.09-.09.14,0,.07-.05.11a.26.26,0,0,0,0,.34,1.1,1.1,0,0,1,.16.25s0,.07,0,.07-.08,0-.12-.07l-.35-.27c-.09-.07,0-.06,0-.06l.08,0c.05,0,.06-.05,0-.07a.67.67,0,0,1-.19-.11s0-.06,0-.09.17-.11.08-.13l-.29-.07c-.09,0-.1-.05-.1-.05l.06-.08s0-.07,0-.08a1.31,1.31,0,0,1-.32-.08.77.77,0,0,1-.46-.51h0c0,.09.16.26.32.27S19,12,19,12l-.12-.16s0-.05,0,0a.55.55,0,0,0,.5.22c.34,0,.33-.09.33-.11s-.07-.08-.11-.12,0-.05,0,0a.88.88,0,0,0,.46,0c.09,0,.33-.12.35-.24a.88.88,0,0,1-.26-.05c-.1,0-.17-.08-.05-.06a1,1,0,0,0,.52,0,.33.33,0,0,0,.26-.29l-.29-.07-.1,0a.83.83,0,0,0,.56,0c.27-.14.28-.32.28-.36a.18.18,0,0,0,0-.06,2.17,2.17,0,0,1-.43.06.93.93,0,0,1-.24,0,2,2,0,0,0,.77-.17.63.63,0,0,0,.27-.47,2.9,2.9,0,0,1-.47.12,1.8,1.8,0,0,1-.34,0s-.07,0,0,0a2,2,0,0,0,.7-.2.83.83,0,0,0,.36-.52c0-.13,0-.1-.1,0a2.82,2.82,0,0,1-.68.29L21,9.66s-.08,0,0,0m-9.19.58-.1.06-.05-.11s0,0,0,0h.1l0,.1h0M15,12.05a.83.83,0,0,1-.36.29,1.21,1.21,0,0,1-.32.08c-.06,0,0,.08,0,.08l.06.08s0,0-.1.05l-.29.07c-.09,0,0,.1.08.13s0,.06,0,.09a.65.65,0,0,1-.19.1c-.05,0,0,0,0,.07l.2,0-.1.07a.72.72,0,0,1-.35.12,4.65,4.65,0,0,1-.48,0h-.23l0-.17a.88.88,0,0,0-.13-.32l-.15-.2v-.06a.21.21,0,0,0,0-.13.57.57,0,0,0-.15-.16s0-.07,0-.13a2.28,2.28,0,0,0-.08-.43,4.72,4.72,0,0,0-.32-.57,1.6,1.6,0,0,1-.17-.53.67.67,0,0,1,0-.27l0-.05a.54.54,0,0,0,.14.13,2,2,0,0,0,.77.17.92.92,0,0,1-.24,0,2.16,2.16,0,0,1-.43-.06.15.15,0,0,0,0,.06s0,.23.28.36A.83.83,0,0,0,13,11l-.1,0-.28.07a.33.33,0,0,0,.25.29,1.05,1.05,0,0,0,.52,0c.11,0,0,0-.06.06a.86.86,0,0,1-.25.05c0,.12.26.22.35.24a.88.88,0,0,0,.46,0c.07,0,.05,0,0,0s-.11.05-.11.12,0,.08.33.11a.56.56,0,0,0,.51-.22c.06-.06.05,0,0,0l-.12.16c0,.07,0,.14.2.13s.27-.18.32-.27h0c0,.05-.06.14-.1.22m2.71-7.27,0-.08a.76.76,0,0,1,.2.15.29.29,0,0,1,.08.17.63.63,0,0,1,0,.19.23.23,0,0,0,0,.14l0,0-.11,0c-.05,0-.12,0-.16,0s0-.05,0-.08a.22.22,0,0,0,.13-.2.75.75,0,0,0-.09-.37M17,5.2a.5.5,0,0,0,0-.29c0-.12,0-.23-.05-.37a.59.59,0,0,1,.23.14.45.45,0,0,1,.16.31c0,.06,0,.14,0,.2a.23.23,0,0,0,0,.11l-.09.05a.2.2,0,0,1-.14,0A.35.35,0,0,1,17,5.35l-.06,0A.26.26,0,0,0,17,5.2m-.66-.52a.59.59,0,0,1,.23-.14,3.56,3.56,0,0,1,0,.37.48.48,0,0,0,0,.29.28.28,0,0,0,.11.12l-.06,0a.36.36,0,0,1-.15.05.2.2,0,0,1-.14,0L16.2,5.3a.27.27,0,0,0,0-.11c0-.06,0-.13,0-.2a.46.46,0,0,1,.16-.31m-.48.75s-.11,0-.16,0l-.11,0,0,0a.22.22,0,0,0,0-.14.57.57,0,0,1,0-.19.29.29,0,0,1,.08-.17.8.8,0,0,1,.2-.15l0,.08a.75.75,0,0,0-.09.37.22.22,0,0,0,.13.2s0,0,0,.08m1.79,1.29c-.13.07-.21.06-.2.11s.12.09.12.09a1.43,1.43,0,0,1-.21.19,1.09,1.09,0,0,1-.2.1s0,0,0,.07a.24.24,0,0,0,.09.12l0,0a3.22,3.22,0,0,1-.24.23.63.63,0,0,1-.17.1c-.06,0,0,.12,0,.17a.21.21,0,0,0,.09.11s0,0,0,.09l-.17.23h0l-.17-.23c0-.06,0-.08,0-.09a.2.2,0,0,0,.09-.11s0-.14,0-.17a.61.61,0,0,1-.17-.1,3.08,3.08,0,0,1-.24-.23l0,0a.23.23,0,0,0,.09-.12c0-.06,0-.07,0-.07a1.09,1.09,0,0,1-.21-.1A1.65,1.65,0,0,1,16,6.93s.12,0,.12-.09-.07,0-.2-.11a.41.41,0,0,1-.17-.17.43.43,0,0,0,.23-.21.28.28,0,0,0,0-.15h0a2.83,2.83,0,0,0,1.58,0h0a.29.29,0,0,0,0,.15.44.44,0,0,0,.23.21.41.41,0,0,1-.17.17"/><path class="cls-4" d="M14.93,6.93a.88.88,0,0,0-.34-.1,1,1,0,0,0-.39,0,.43.43,0,0,1-.23,0,.31.31,0,0,1-.22-.24.22.22,0,0,0,0,.26.29.29,0,0,0,.17.12c.21,0,.41-.09.58-.1a.48.48,0,0,1,.3.09.08.08,0,0,0,.09,0c.06,0,.07-.06,0-.09"/><path class="cls-4" d="M19.78,6.64a.32.32,0,0,1-.22.24.43.43,0,0,1-.23,0,1.05,1.05,0,0,0-.39,0,.9.9,0,0,0-.34.1c-.05,0,0,.06,0,.09a.08.08,0,0,0,.1,0,.48.48,0,0,1,.3-.09c.17,0,.38.14.58.1a.3.3,0,0,0,.17-.12.22.22,0,0,0,0-.26"/><path class="cls-3" d="M18.45,9.7A1.25,1.25,0,0,1,18.64,9l-.52-.59a1.61,1.61,0,0,1-1.35,0,1.61,1.61,0,0,1-1.35,0L14.9,9a1.24,1.24,0,0,1,.19.68,3.67,3.67,0,0,1-.13.92,1.59,1.59,0,0,0,0,.84,1.07,1.07,0,0,0,.68.7,3.72,3.72,0,0,1,.86.43,1.61,1.61,0,0,1,.24.24,1.68,1.68,0,0,1,.24-.24,3.69,3.69,0,0,1,.86-.43,1.08,1.08,0,0,0,.68-.7,1.57,1.57,0,0,0,0-.84,3.69,3.69,0,0,1-.13-.92"/><path class="cls-3" d="M14.46,13l-.22.09h-.07a1.44,1.44,0,0,1-.2.15.76.76,0,0,1-.29.1c-.13,0-.49,0-.65,0a.38.38,0,0,0-.33.11.19.19,0,0,0,0,.28.14.14,0,0,0,.22,0,.16.16,0,0,0,0-.15s0,0,.07,0h.19a1,1,0,0,1,.24.08c.05,0,0,0,0,0l-.14,0-.16,0s0,0,0,0l0,.07a.2.2,0,0,1,0,.08l0,0,0-.06s0-.06,0-.08,0,0,.07,0a.27.27,0,0,1,.07.15.23.23,0,0,1,0,.13l0,0a.39.39,0,0,1,0,.09s0,0,0,0a1.12,1.12,0,0,0,0-.15s0-.08.06,0a.26.26,0,0,1,.06.1.15.15,0,0,1,0,0,.81.81,0,0,0,.1-.11.78.78,0,0,1,.14-.16c.07-.06.19-.17.25-.21l.26-.15s.06,0,.06-.11a.79.79,0,0,1,.07-.21l0-.08"/><path class="cls-3" d="M14.33,13h0l-.11,0a.05.05,0,0,0-.06,0l-.17.11h.25a.2.2,0,0,0,.14-.08"/><path class="cls-3" d="M15,12.91v0l0-.07-.08.06L14.8,13c0,.05-.1.11,0,0l.11-.18c0-.06.07-.08.06-.08l-.14,0a.56.56,0,0,1-.22-.08l-.13-.07-.24.09c-.07,0-.11,0,0,.06l.15.06a.47.47,0,0,0,.19.05c.06,0,.16,0,.12,0a.69.69,0,0,0-.13.24.83.83,0,0,0,0,.28.85.85,0,0,0,0,.11,1.33,1.33,0,0,1,.27-.2l.3-.18s.05,0,0-.06,0-.16,0-.18"/><path class="cls-3" d="M15.78,12.32l0,0h0a.64.64,0,0,0-.19.17c0,.08-.1.09,0,0a.74.74,0,0,1,.13-.17l0,0-.3-.17a.42.42,0,0,1-.07.1.48.48,0,0,1-.13.08.59.59,0,0,0,.1-.13.44.44,0,0,0,0-.1,1.3,1.3,0,0,1-.2-.19.7.7,0,0,1-.17.3,1.13,1.13,0,0,1-.46.26s-.11,0,0,0a.54.54,0,0,0,.32,0l.2,0s.09,0,0,0a1.16,1.16,0,0,1-.36.06c-.08,0-.18,0-.07,0a.44.44,0,0,0,.22.08l.16,0,.13,0s.07,0,.07,0a.38.38,0,0,0-.06.2,1,1,0,0,0,0,.24l.06.13s0,.07,0,0,.06-.18.08-.25,0-.07,0-.11,0-.06,0,0,0,.15-.05.21,0,.17,0,.08.26-.32.29-.36l.09-.11s.1-.08.13-.13A1.23,1.23,0,0,1,16,12.4l-.18-.08"/><path class="cls-3" d="M11.78,10s0-.06,0-.09,0,0,0,0l-.09,0s0,0-.05,0l0-.13s0,0,0,0l-.1,0s0,0,0,.05l.07.13s0,0,0,0l-.09,0s0,0,0,0l0,.09s0,0,0,0l.08-.06s0,0,0,0,.05.17.06.2,0,0,0,0l.07,0s0,0,0,0l-.1-.18s0,0,0,0l.1,0s0,0,0,0"/><path class="cls-3" d="M12.69,13.94s0-.07,0-.1a.33.33,0,0,1-.07-.12s0-.07,0-.09,0,0-.07,0a.15.15,0,0,0-.08.13.2.2,0,0,0,.14.2c.11,0,.11,0,.1,0"/><path class="cls-3" d="M12.8,13.91s0,0,0,0,0,0,0,.08a.21.21,0,0,0,.08.08s0,0,0,0,0,0,0,0,0,0,0-.06-.05,0-.05,0"/><path class="cls-3" d="M12.93,14.28s0,0,.09-.06a.6.6,0,0,1,.17,0,.12.12,0,0,0,.09-.12.11.11,0,0,0-.09-.09s-.08,0-.09,0A.16.16,0,0,1,13,14l-.08,0s0,0,0,0-.05,0-.09,0l-.08,0h-.17s0,0,0,0a.16.16,0,0,0,0,.12s.11,0,.16.06l.13,0s.05,0,.07,0"/><path class="cls-3" d="M13.43,14.33s0-.08,0-.11-.07,0-.1,0,0,0-.06,0a.2.2,0,0,1-.08,0l-.14.05c-.06,0-.08.07-.11.08a.12.12,0,0,1-.08,0s0,0,0,0,0,0,0,.06.07,0,.12,0,.06,0,.08,0a.58.58,0,0,1,.07-.07.45.45,0,0,1,.16,0,.39.39,0,0,0,.15,0"/><path class="cls-3" d="M13.43,14.14s0,0,.06,0,0-.08,0-.12l0-.06s0,.09,0,.12,0,0,0,0"/><path class="cls-3" d="M13.26,13.86a.32.32,0,0,0,0-.12.62.62,0,0,1,0,.09l0,.07h.07s0,0,0-.05"/><path class="cls-3" d="M13,14a.23.23,0,0,0,.11-.06.1.1,0,0,0,0-.1.14.14,0,0,0-.07-.06h0a.28.28,0,0,1,0,.08s0,0,0,.08,0,.07.06.06"/><path class="cls-3" d="M13.08,13.71a.1.1,0,0,0,0-.07l0,0v.06s0,0,0,0l0,0s0,0,0,0"/><path class="cls-3" d="M12.37,12.25s.07,0,0-.24a1.57,1.57,0,0,0-.25-.63,3.12,3.12,0,0,1-.25-.54,1.55,1.55,0,0,1-.07-.41.24.24,0,0,1,0-.15s0,0,0,0,0,0-.07,0a.34.34,0,0,0-.06.11.18.18,0,0,0,0,0,.41.41,0,0,0-.13,0c-.08,0-.12,0-.12,0s0,0,.07.06a.33.33,0,0,1,.13.07,1.25,1.25,0,0,1,.13.3,3.64,3.64,0,0,1,.09.5,2,2,0,0,0,.17.59c0,.06.18.35.31.29"/><path class="cls-3" d="M12.52,12.68c-.06,0-.05.26,0,.38a.85.85,0,0,0,.17.3s0,0,.06,0h0l.08,0s0-.1,0-.17a1,1,0,0,0-.15-.35c-.09-.15-.13-.18-.19-.15"/><path class="cls-3" d="M12.58,12.49a.14.14,0,0,0-.14-.13.12.12,0,0,0-.09,0c-.08.07,0,.24.08.24a.16.16,0,0,0,.11,0,.14.14,0,0,0,0-.1"/><path class="cls-3" d="M13.66,14.64a.22.22,0,0,1-.09,0,.45.45,0,0,1-.13-.12s0,0-.05,0h-.15s0,.05,0,.1a.52.52,0,0,1,0,.21.14.14,0,0,1,0,0s0,0,0,0,0,0,.05,0a1.2,1.2,0,0,0,.09-.13l.06,0a.39.39,0,0,0,.17,0s0,0,0,0"/><path class="cls-3" d="M13.47,14.77s0,0,0,0l0,.05a0,0,0,0,0,0,0l0,0,0,0s0,0,0,0,0-.05,0-.08,0,0,0,0"/><path class="cls-3" d="M12.94,7.05a1.5,1.5,0,0,0,.22.49c.08.13.1.18.09.19s0-.06-.09-.11L13,7.33A3.8,3.8,0,0,1,12.77,7s0,0-.05,0a.59.59,0,0,0,0,.47,1.57,1.57,0,0,0,.26.37c.05.06.12.16.11.17s0,0-.09-.08l-.24-.26a1.76,1.76,0,0,1-.16-.25s0,0,0,0-.06.07,0,.22a.69.69,0,0,0,.22.42c.09.1.18.19.17.2s-.11-.07-.17-.13l-.26-.26s-.09,0-.08.15.19.35.27.44.18.15.17.17-.09,0-.14-.06l-.28-.19s-.06,0,0,.19a.74.74,0,0,0,.28.35c.08.06.22.13.21.15s-.06,0-.15,0l-.24-.09c-.07,0-.07,0-.07,0a.35.35,0,0,0,.09.25.55.55,0,0,0,.32.17c.11,0,.13,0,.12,0s0,0,0,0h-.22c-.09,0-.14,0-.14.06s0,.09.13.19a1,1,0,0,0,.36.12c.07,0,.07,0,.06,0s0,0-.15,0a.24.24,0,0,0-.18.08.17.17,0,0,0,.09.17.55.55,0,0,0,.36.06c.16,0,.21,0,.21,0s0,0-.13,0a.39.39,0,0,0-.19.05s0,.11.07.17a.75.75,0,0,0,.36.05c.08,0,.21,0,.22,0s-.06.05-.14.08-.11,0-.13.08,0,.07.1.11a.48.48,0,0,0,.32,0c.08,0,.12,0,.13,0s0,0,0,0a.38.38,0,0,1-.17.09c-.09,0-.09,0-.12.09s0,.12.2.13a1,1,0,0,0,.42-.09c.06,0,.09,0,.1,0s0,0,0,0a.87.87,0,0,1-.19.11.08.08,0,0,0-.06.09s0,.11.12.14a.54.54,0,0,0,.44-.09.38.38,0,0,0,.09-.08,1.09,1.09,0,0,1,0-.32l-.14,0a.27.27,0,0,1-.13-.15s0,0-.08,0a.25.25,0,0,1-.11,0,.33.33,0,0,1-.22-.11.29.29,0,0,1-.06-.21s-.07,0-.1,0a.44.44,0,0,1-.22-.08.23.23,0,0,1-.1-.17s0-.06-.07-.07a.39.39,0,0,1-.13-.07.28.28,0,0,1-.08-.18s0,0-.16-.1a.23.23,0,0,1-.11-.25c0-.05.06-.1.06-.12s0,0-.08,0A.23.23,0,0,1,13,9c0-.15.1-.17.1-.17l-.06,0s-.15-.1-.15-.19a.17.17,0,0,1,.07-.15l.11,0a.2.2,0,0,1-.07-.1.23.23,0,0,1,0-.22.23.23,0,0,1,.19-.06s.08,0,.1,0,0,0,0-.06a.25.25,0,0,1,0-.15.17.17,0,0,1,.13-.13.37.37,0,0,1,.28.06s0,0,0-.07a1.31,1.31,0,0,0-.17-.27A2.76,2.76,0,0,1,13.32,7a2.5,2.5,0,0,1-.18-.54c0-.07,0,0,0,0s0,0-.09.17a1,1,0,0,0-.07.43"/><path class="cls-3" d="M15,9.85a.31.31,0,0,1-.23-.14c-.07-.1-.18-.13-.36-.12a.29.29,0,0,1-.31-.21.29.29,0,0,1,.2-.36c.19-.09.27-.19.28-.35s-.19-.35-.38-.58a2.73,2.73,0,0,1-.34-.53.29.29,0,0,0-.06.15c0,.07,0,.15,0,.17s0,0-.15-.08-.21-.06-.27,0,0,.22.06.29.12.12.1.14-.11,0-.15-.06a.29.29,0,0,0-.21-.09c-.11,0-.15,0-.16.13s.1.17.17.21.1.07.08.08,0,0-.07,0a.34.34,0,0,0-.18,0c-.05,0-.15.1-.06.19a.58.58,0,0,0,.29.14s.05,0,.05,0-.07,0-.17,0A.13.13,0,0,0,13,9c0,.07.17.15.26.16s.12,0,.13,0,0,0-.06.05-.14,0-.16.1a.15.15,0,0,0,.05.18.28.28,0,0,0,.23,0s.08,0,.11,0,0,.06-.09.11-.06.12,0,.18a.3.3,0,0,0,.25,0s.1-.08.13,0-.09.06-.14.12,0,.16.07.22a.33.33,0,0,0,.29,0s.06,0,.08,0,0,.08,0,.13a.18.18,0,0,0,.09.25.31.31,0,0,0,.3-.1.06.06,0,0,1,.07,0s0,0,0,.06a.15.15,0,0,0,0,.2.26.26,0,0,0,.19,0c0-.08,0-.17.08-.29h0s0,0,0,0,0,0,0,0l0,0s0,0,0,0,0,0,0,0,0,0,0-.06,0,0,0,0l0,0c0-.08,0-.18,0-.29s0-.15,0-.22Z"/><path class="cls-3" d="M12,7.65a1.62,1.62,0,0,0,.38.5s0-.08,0-.13a.32.32,0,0,1,0-.12s-.06-.07-.16-.23A1.44,1.44,0,0,1,12,7.28a3.52,3.52,0,0,0,.17.36,2,2,0,0,0,.16.23s0-.11.05-.12,0,0,.06,0,0,0,0,0l-.06-.12-.06-.09a2.27,2.27,0,0,1-.25-.44,7.82,7.82,0,0,1-.23-.75c0-.13-.05-.06-.08,0a1.09,1.09,0,0,0,0,.43,2.18,2.18,0,0,0,.23.77"/><path class="cls-3" d="M12.19,8.51l.14.1,0-.07a.91.91,0,0,1,0-.12l-.12-.1A1.85,1.85,0,0,1,12,8.08c-.12-.15,0-.06.07,0a3.78,3.78,0,0,0,.28.26v0a.14.14,0,0,1,0-.08s0,0-.1-.11a3,3,0,0,1-.49-.57c-.11-.18-.23-.43-.23-.43a1.3,1.3,0,0,0,.16.77,1.56,1.56,0,0,0,.5.58"/><path class="cls-3" d="M13.36,10.81a.14.14,0,0,0,.09-.17l-.14,0a1.54,1.54,0,0,1-.3.08c-.07,0-.07,0-.07,0s.05,0,.15,0a1.19,1.19,0,0,0,.29-.12s0,0,0,0a.18.18,0,0,1-.1,0s-.06,0-.17,0a2.55,2.55,0,0,1-.51.06,2.1,2.1,0,0,1-.37,0s-.06,0,0,.15a.78.78,0,0,0,.59.22,1.57,1.57,0,0,0,.53-.16"/><path class="cls-3" d="M12.81,10.51a.5.5,0,0,0,.29-.06s0,0,0-.06a.21.21,0,0,1,0-.12l-.14,0a1,1,0,0,1-.31,0c-.11,0-.07,0,0,0a1,1,0,0,0,.32,0c.06,0,0,0,0,0l-.14-.08a2.39,2.39,0,0,1-.5,0,2.52,2.52,0,0,1-.44-.1s0,0,0,0,0,0,.07.15a.69.69,0,0,0,.38.25,2,2,0,0,0,.54.07"/><path class="cls-3" d="M12.76,10a.21.21,0,0,1,0-.05.08.08,0,0,1,0-.08l-.21,0a1.63,1.63,0,0,1-.26-.05c-.1,0-.16,0-.16-.06s0,0,.09,0a3.51,3.51,0,0,0,.4.06.52.52,0,0,0,.18,0l.08,0-.1,0a.35.35,0,0,1-.13-.05s0,0-.17,0A2,2,0,0,1,12,9.56a2.08,2.08,0,0,1-.45-.22s0,0,0,0a.45.45,0,0,0,.13.25.85.85,0,0,0,.47.3,1.82,1.82,0,0,0,.63.09"/><path class="cls-3" d="M11.88,9.3a1.67,1.67,0,0,0,.63.26s0-.08,0-.11,0,0,.11,0,0,0,0,0l-.12,0a2.9,2.9,0,0,1-.35-.1C12,9.2,12,9.16,12,9.15s.07,0,.2.09a2.49,2.49,0,0,0,.37.09c.08,0,0,0,0,0a.43.43,0,0,1-.1-.11l-.25-.06a2.12,2.12,0,0,1-.41-.17l-.13-.09-.21-.15c-.05,0,0,0,0,0a.86.86,0,0,0,.12.25,1.07,1.07,0,0,0,.37.34"/><path class="cls-3" d="M11.84,8.78a1.83,1.83,0,0,0,.52.29s0,0,0,0,0-.09,0-.09l-.19-.11-.29-.19c-.08-.05,0,0,0,0l.23.14.26.16a.11.11,0,0,1,0-.06s.08,0,.08,0l0-.05a.9.9,0,0,0-.2-.1,2.23,2.23,0,0,1-.39-.28c-.12-.11-.37-.37-.39-.39s0,0,0,0a.35.35,0,0,0,0,.17,1.12,1.12,0,0,0,.4.58"/><path class="cls-3" d="M12.75,6.86l.08.15.06.1a.13.13,0,0,0,0-.06.42.42,0,0,1,0-.14.39.39,0,0,0,0-.09.34.34,0,0,0,0-.08s0-.18-.06-.29a2.49,2.49,0,0,1,0-.39c0-.13,0-.07,0,0a2.27,2.27,0,0,0,0,.32,3.43,3.43,0,0,0,.09.39.5.5,0,0,1,0-.09L13,6.49c0-.06,0-.07,0-.07s-.09-.43-.11-.63S12.86,5,12.86,5a1.46,1.46,0,0,0-.25.81,2.82,2.82,0,0,0,0,.57,1.45,1.45,0,0,0,.1.43"/><path class="cls-3" d="M12.46,7.54c0-.1,0-.17.09-.19a1.47,1.47,0,0,1-.11-.24,1.84,1.84,0,0,1-.07-.31c0-.23-.06-.47,0-.08a1.62,1.62,0,0,0,.15.53l.1.16a.71.71,0,0,1,0-.2,1.11,1.11,0,0,1,0-.27,3,3,0,0,1-.2-.53,3.39,3.39,0,0,1-.12-.71c0-.15,0-.21,0-.21s-.12.09-.17.57a2.81,2.81,0,0,0,.14,1.1c.06.17.15.39.15.39"/><path class="cls-3" d="M13.81,11.15l-.08-.05c-.06,0,0-.15,0-.15l-.06,0a.76.76,0,0,1-.15.09l-.13.05s0,0,0,0l.12-.06a1.33,1.33,0,0,0,.24-.17h-.1a.58.58,0,0,1-.15,0,1.41,1.41,0,0,1-.33.17,2,2,0,0,1-.48.14.26.26,0,0,0,.15.18.81.81,0,0,0,.53,0,1.81,1.81,0,0,0,.47-.18"/><path class="cls-3" d="M14.16,11.42a.24.24,0,0,0,0-.19l-.05,0a.79.79,0,0,1-.21.16c-.11.06-.15.05,0,0a1.45,1.45,0,0,0,.26-.22l0,0s-.11,0-.41.19a1.11,1.11,0,0,1-.47.18.6.6,0,0,0,.49.15c.36,0,.49-.18.51-.29"/><path class="cls-3" d="M14.83,11.29a.43.43,0,0,1-.09.09.69.69,0,0,1-.19.06l0,.05a1,1,0,0,1-.15.16c-.06,0-.16.07-.17.06s.06,0,.12-.07a.79.79,0,0,0,.16-.16s0,0,0,0h-.14c-.07,0-.05,0-.07,0l-.1.12-.18.21s0,.06,0,.06,0,0,.18,0a.5.5,0,0,0,.32-.07.94.94,0,0,0,.21-.18.56.56,0,0,0,.18-.38"/><path class="cls-3" d="M14.92,11.72l-.06.07a1,1,0,0,1,0-.12l0-.05a.87.87,0,0,1-.06-.19,1.72,1.72,0,0,1-.14.33c-.08.13-.16.18-.11.21a.24.24,0,0,0,.24,0,.26.26,0,0,0,.14-.21l0-.09-.05.05"/><path class="cls-3" d="M20.89,8.87a.73.73,0,0,0,.28-.35c0-.16,0-.21,0-.19l-.28.19c-.05,0-.13.08-.14.06s.09-.08.17-.17.27-.27.27-.44,0-.2-.09-.15l-.26.26c-.07.06-.16.15-.17.13s.08-.1.17-.2A.69.69,0,0,0,21,7.59c0-.14,0-.19,0-.22a0,0,0,0,0,0,0,1.85,1.85,0,0,1-.16.25l-.23.26c-.06.07-.08.09-.09.08s.06-.11.11-.17a1.52,1.52,0,0,0,.25-.37.6.6,0,0,0,0-.47s0,0-.06,0a3.67,3.67,0,0,1-.19.36l-.2.29c0,.06-.07.12-.09.11s0-.06.09-.19a1.45,1.45,0,0,0,.22-.49,1,1,0,0,0-.07-.43c-.06-.16-.09-.17-.09-.17s0,0,0,0a2.78,2.78,0,0,1-.18.54,2.82,2.82,0,0,1-.23.42,1.28,1.28,0,0,0-.17.27s0,.09,0,.07a.37.37,0,0,1,.28-.06.17.17,0,0,1,.13.13.26.26,0,0,1,0,.15s0,0,0,.06.06,0,.11,0a.23.23,0,0,1,.19.06.24.24,0,0,1,0,.22.19.19,0,0,1-.07.1l.11,0a.18.18,0,0,1,.07.15c0,.09-.11.17-.15.19l-.06,0s.1,0,.1.17a.23.23,0,0,1-.15.22s-.08,0-.08,0,.06.06.06.12a.22.22,0,0,1-.1.25c-.12.06-.16.07-.16.1a.3.3,0,0,1-.08.18.37.37,0,0,1-.13.07.11.11,0,0,0-.07.07.23.23,0,0,1-.1.17.44.44,0,0,1-.22.08s-.1,0-.1,0a.29.29,0,0,1-.06.21.32.32,0,0,1-.22.11.25.25,0,0,1-.11,0,.05.05,0,0,0-.08,0,.27.27,0,0,1-.13.15l-.14,0a1.13,1.13,0,0,1,0,.32.32.32,0,0,0,.09.08.54.54,0,0,0,.45.09c.14,0,.12-.1.12-.14a.08.08,0,0,0-.06-.09,1,1,0,0,1-.19-.11s0,0,0,0,0,0,.1,0a1,1,0,0,0,.42.09c.15,0,.23-.06.2-.13s0-.07-.12-.09a.39.39,0,0,1-.17-.09s0,0,0,0,.06,0,.13,0a.48.48,0,0,0,.33,0c.1,0,.11-.07.1-.11s0-.05-.12-.08-.15-.06-.15-.08.13,0,.22,0a.7.7,0,0,0,.36-.05c.08-.06.12-.14.07-.17a.4.4,0,0,0-.19-.05c-.08,0-.14,0-.13,0s0,0,.21,0a.56.56,0,0,0,.36-.06.18.18,0,0,0,.09-.17.24.24,0,0,0-.18-.08c-.1,0-.13,0-.15,0s0,0,.05,0a1,1,0,0,0,.36-.12c.14-.09.14-.15.14-.19s0-.06-.14-.06h-.22s0,0,0,0,0,0,.12,0A.55.55,0,0,0,21,9.17a.36.36,0,0,0,.09-.25s0,0-.07,0L20.82,9c-.08,0-.14.06-.14,0s.13-.09.21-.15"/><path class="cls-3" d="M20.53,8.49a.33.33,0,0,0-.17,0s0,0-.07,0,0,0,.08-.08.18-.12.17-.21-.05-.12-.16-.13a.29.29,0,0,0-.21.09s-.13.08-.14.06,0-.07.1-.14.13-.21.06-.29-.16-.08-.27,0-.12.1-.15.08,0-.1,0-.17a.29.29,0,0,0-.06-.15,2.79,2.79,0,0,1-.34.53c-.19.22-.39.42-.38.58s.09.26.28.35.24.24.19.36a.29.29,0,0,1-.31.21c-.18,0-.29,0-.36.12a.3.3,0,0,1-.23.14h0c0,.07,0,.15,0,.22s0,.21,0,.29l0,0s0,0,0,0,0,0,0,.06.06,0,.05,0,0,0,0,0l0,0s0,0,0,0,0,0,0,0h0c0,.13.06.21.08.29a.26.26,0,0,0,.19,0,.15.15,0,0,0,0-.2s0,0,0-.06a.06.06,0,0,1,.07,0,.31.31,0,0,0,.31.1.18.18,0,0,0,.09-.25s-.05-.11,0-.13.06,0,.08,0a.32.32,0,0,0,.29,0c.1-.06.12-.16.07-.22s-.16-.08-.14-.12.09,0,.13,0a.3.3,0,0,0,.25,0c.1-.05.1-.14,0-.18s-.13-.07-.09-.11.08,0,.11,0a.28.28,0,0,0,.23,0,.14.14,0,0,0,.05-.18c0-.08-.11-.09-.16-.1s-.07,0-.06-.05,0,0,.13,0,.25-.09.26-.16a.13.13,0,0,0-.11-.17c-.09,0-.17,0-.17,0s0,0,.06,0a.59.59,0,0,0,.29-.14c.08-.09,0-.17-.06-.19"/><path class="cls-3" d="M21.17,8.15a1.62,1.62,0,0,0,.38-.5,2.19,2.19,0,0,0,.23-.77,1.14,1.14,0,0,0,0-.44c0-.09,0-.17-.07,0s-.17.57-.23.75a2.35,2.35,0,0,1-.25.44l-.06.09-.06.12s0,0,0,0,0,0,.06,0,.05.12.05.12a2.37,2.37,0,0,0,.16-.23,3.57,3.57,0,0,0,.17-.36,1.55,1.55,0,0,1-.16.39l-.16.23a.37.37,0,0,1,0,.12,1.26,1.26,0,0,1,0,.13"/><path class="cls-3" d="M22,7.17s-.12.25-.23.43a2.94,2.94,0,0,1-.49.57c-.11.08-.11.09-.1.11a.15.15,0,0,1,0,.08v0s.19-.15.28-.26.19-.19.07,0a1.66,1.66,0,0,1-.23.24l-.12.1a1,1,0,0,1,0,.12l0,.07.14-.1a1.51,1.51,0,0,0,.5-.58A1.3,1.3,0,0,0,22,7.17"/><path class="cls-3" d="M20.93,5.85A1.44,1.44,0,0,0,20.68,5s0,.54-.06.74-.11.63-.11.63,0,0,0,.07l.07.17a.38.38,0,0,1,0,.09,3.76,3.76,0,0,0,.08-.39,2.47,2.47,0,0,0,0-.32c0-.06,0-.13,0,0a2.48,2.48,0,0,1,0,.39c0,.1-.06.25-.06.29a.3.3,0,0,0,0,.08.31.31,0,0,0,0,.09.53.53,0,0,1,0,.14.12.12,0,0,0,0,.06l.05-.1.08-.15a1.39,1.39,0,0,0,.1-.43,2.88,2.88,0,0,0,0-.57"/><path class="cls-3" d="M21.24,7.15A2.82,2.82,0,0,0,21.39,6c0-.47-.17-.57-.17-.57s0,.06,0,.21a3.21,3.21,0,0,1-.12.71,3.17,3.17,0,0,1-.19.53,1.27,1.27,0,0,1,0,.27.79.79,0,0,1,0,.2l.1-.16a1.73,1.73,0,0,0,.15-.53c.07-.39,0-.15,0,.08a2.06,2.06,0,0,1-.07.31,1.53,1.53,0,0,1-.11.24c.06,0,.09.1.09.19s.09-.22.16-.39"/><path class="cls-3" d="M21.33,10.6a2.12,2.12,0,0,1-.37,0,2.56,2.56,0,0,1-.51-.06c-.11,0-.16,0-.17,0a.17.17,0,0,1-.09,0s-.05,0,0,0a1.31,1.31,0,0,0,.29.13c.1,0,.15,0,.15,0s0,0-.07,0a1.55,1.55,0,0,1-.3-.08l-.14,0a.14.14,0,0,0,.09.17,1.52,1.52,0,0,0,.53.16.77.77,0,0,0,.59-.22c.08-.14.05-.16,0-.15"/><path class="cls-3" d="M21.67,10a2.61,2.61,0,0,1-.44.1,2.31,2.31,0,0,1-.5,0l-.14.08s-.06,0,0,0a1,1,0,0,0,.32,0c.09,0,.14,0,0,0a.94.94,0,0,1-.3,0l-.14,0a.23.23,0,0,1,0,.12s0,.06,0,.06a.5.5,0,0,0,.29.06,2,2,0,0,0,.54-.07.7.7,0,0,0,.38-.25c.08-.13.07-.15.07-.15s0,0,0,0"/><path class="cls-3" d="M22,9.33a3,3,0,0,1-.92.36c-.13,0-.14,0-.17,0a.35.35,0,0,1-.13.05l-.1,0,.08,0a.52.52,0,0,0,.18,0,3.47,3.47,0,0,0,.4-.06c.06,0,.09,0,.09,0s-.06,0-.16.06a1.77,1.77,0,0,1-.26.05l-.21,0a.08.08,0,0,1,0,.08l0,.05a1.86,1.86,0,0,0,.63-.09.88.88,0,0,0,.47-.31A.47.47,0,0,0,22,9.37s0-.08,0,0"/><path class="cls-3" d="M22.12,8.69l-.21.15-.13.09a2.1,2.1,0,0,1-.41.17l-.25.06a.44.44,0,0,1-.09.11s-.11.06,0,0a2.45,2.45,0,0,0,.37-.09c.13,0,.19-.1.2-.09s0,0-.18.1a2.66,2.66,0,0,1-.35.1l-.12,0s-.06,0,0,0,.09,0,.11,0,0,.1,0,.11a1.67,1.67,0,0,0,.63-.26A1.07,1.07,0,0,0,22,9a.79.79,0,0,0,.12-.25s0-.05,0,0"/><path class="cls-3" d="M21.14,8.86a.12.12,0,0,1,0,.06l.26-.16.23-.14s.07,0,0,0-.19.13-.29.19l-.19.11s0,.07,0,.09,0,0,0,0a1.83,1.83,0,0,0,.52-.29,1.12,1.12,0,0,0,.4-.58.37.37,0,0,0,0-.17s0,0,0,0a5.49,5.49,0,0,1-.39.39,2.16,2.16,0,0,1-.39.28.92.92,0,0,0-.2.1l0,.05s.05,0,.08,0"/><path class="cls-3" d="M20.07,10.84a.62.62,0,0,1-.15,0h-.1a1.31,1.31,0,0,0,.23.17l.12.06s0,0,0,0l-.13-.05L19.91,11l-.06,0s0,.11,0,.15l-.08.05a1.83,1.83,0,0,0,.48.18.8.8,0,0,0,.53,0,.25.25,0,0,0,.16-.18A2,2,0,0,1,20.4,11a1.35,1.35,0,0,1-.32-.17"/><path class="cls-3" d="M19.51,11.19l0,0a1.46,1.46,0,0,0,.26.22c.11.06.07.06,0,0a.72.72,0,0,1-.2-.16l-.06,0a.25.25,0,0,0,0,.19c0,.11.15.28.51.29a.61.61,0,0,0,.49-.15,1.12,1.12,0,0,1-.47-.18c-.29-.18-.37-.21-.4-.19"/><path class="cls-3" d="M19.4,11.6a.76.76,0,0,1-.1-.12s0,0-.08,0h-.14s-.06,0,0,0a.73.73,0,0,0,.16.16c.06,0,.12.06.12.07s-.1,0-.17-.06a.89.89,0,0,1-.15-.16l0-.05a.71.71,0,0,1-.2-.06.42.42,0,0,1-.09-.09.58.58,0,0,0,.18.38,1,1,0,0,0,.21.18.51.51,0,0,0,.32.07c.16,0,.18,0,.18,0s0,0,0-.06l-.18-.21"/><path class="cls-3" d="M18.66,11.42a1,1,0,0,1-.06.19l0,.05a.73.73,0,0,1,.05.12l-.06-.07-.05-.05,0,.09a.27.27,0,0,0,.14.21.25.25,0,0,0,.24,0s0-.08-.11-.21a1.79,1.79,0,0,1-.14-.33"/><path class="cls-3" d="M18.64,6.4a.07.07,0,0,1,.07.07.07.07,0,0,1-.07.06.07.07,0,0,1-.07-.06.07.07,0,0,1,.07-.07"/><path class="cls-3" d="M17.76,6.44l.12.05a.59.59,0,0,0,.4,0,1.09,1.09,0,0,1,.35-.13c.07,0,.11,0,.18,0a.05.05,0,0,0,0,0s0-.1-.09-.15a.53.53,0,0,0-.39,0,.83.83,0,0,0-.27.13c-.05,0-.11.1-.13.09s0,0,.05-.07l0,0a.67.67,0,0,1-.43-.13.28.28,0,0,0,.13.29"/><path class="cls-3" d="M19.25,6.34a.38.38,0,0,0-.32,0,.93.93,0,0,0-.18.08.16.16,0,0,1-.06.15c-.07,0-.15,0-.16,0l0-.07a.92.92,0,0,1-.27.09.71.71,0,0,1-.36,0l-.17.15-.14.1a.07.07,0,0,0,0,0s0,0,0,.05a1.48,1.48,0,0,1-.25.23,1,1,0,0,1-.17.09.21.21,0,0,0,.08.08s.06,0,0,.08a3,3,0,0,1-.26.28.29.29,0,0,1-.15.08s-.09,0,0,.11a.36.36,0,0,0,.35.05.75.75,0,0,0,.29-.21s0,.25,0,.36a1.38,1.38,0,0,0,0,.31.42.42,0,0,0,0,.1.46.46,0,0,0,.16-.23.93.93,0,0,0,.08-.32c0-.05,0-.08,0-.05l.09,0h0a1.2,1.2,0,0,1,0-.22A.78.78,0,0,1,18,7.39s0,0,.05,0a.16.16,0,0,0,.11.12.58.58,0,0,1,.16-.37s0,0,.1,0a.49.49,0,0,0,.34,0c.1,0,.18-.15.16-.16a.49.49,0,0,1-.28,0c-.12,0-.18-.08-.11-.15a2.4,2.4,0,0,1,.24-.2.49.49,0,0,1,.38-.16.2.2,0,0,1,.16.11s.06.06.06,0a.32.32,0,0,0-.15-.28"/><path class="cls-3" d="M17.94,8.33s-.07-.13-.07-.13a.6.6,0,0,1,0,.09,1,1,0,0,1-.1.17l.12,0A.32.32,0,0,0,18,8.37l0,0"/><path class="cls-3" d="M17.44,8a.6.6,0,0,1-.13.19c-.09.09-.16.08-.16.08l.08,0A.66.66,0,0,0,17.37,8a.6.6,0,0,1-.33.07l0,.09a.91.91,0,0,1-.12.2s0,.05,0,.05a.87.87,0,0,0,.23.08,1,1,0,0,0,.4,0l0-.16a1.47,1.47,0,0,1,0-.38"/><path class="cls-3" d="M14.9,6.4a.07.07,0,0,1,.07.07.07.07,0,0,1-.07.06.07.07,0,0,1-.07-.06.07.07,0,0,1,.07-.07"/><path class="cls-3" d="M14.74,6.34c.07,0,.1,0,.18,0a1.08,1.08,0,0,1,.35.13.59.59,0,0,0,.4,0l.12-.05a.28.28,0,0,0,.13-.29.68.68,0,0,1-.43.13l0,0s.07.05.05.07-.08,0-.13-.09a.79.79,0,0,0-.27-.13.53.53,0,0,0-.39,0c-.1.06-.11.13-.09.15a0,0,0,0,0,0,0"/><path class="cls-3" d="M16.63,7.76a.31.31,0,0,1-.15-.08,2.79,2.79,0,0,1-.26-.28s0-.07,0-.08a.2.2,0,0,0,.08-.08.93.93,0,0,1-.17-.09,1.71,1.71,0,0,1-.25-.23s0,0,0-.05a.06.06,0,0,0,0,0l-.14-.1-.17-.15a.69.69,0,0,1-.36,0A.89.89,0,0,1,15,6.48a.37.37,0,0,1,0,.07.11.11,0,0,1-.16,0,.16.16,0,0,1-.06-.15.93.93,0,0,0-.18-.08.39.39,0,0,0-.32,0,.32.32,0,0,0-.15.28c0,.1.05.06.07,0a.19.19,0,0,1,.16-.11.48.48,0,0,1,.37.16,2.6,2.6,0,0,1,.24.2c.07.07,0,.11-.11.15a.49.49,0,0,1-.28,0s.05.12.15.16a.49.49,0,0,0,.34,0c.07,0,.09,0,.1,0a.59.59,0,0,1,.16.37.17.17,0,0,0,.11-.12s0-.07,0,0a.75.75,0,0,1,.07.33,1.19,1.19,0,0,1,0,.21h0l.09,0s0,0,0,.05a.94.94,0,0,0,.08.32.46.46,0,0,0,.17.23.42.42,0,0,0,0-.1,1.28,1.28,0,0,0,0-.31c0-.12,0-.36,0-.36a.73.73,0,0,0,.29.21.36.36,0,0,0,.35-.05c.06-.07,0-.1,0-.11"/><path class="cls-3" d="M15.67,8.2s0,.1-.07.13l0,0a.35.35,0,0,0,.11.06l.12,0a1,1,0,0,1-.1-.17l0-.09"/><path class="cls-3" d="M16.54,8.14l0-.09A.6.6,0,0,1,16.17,8a.65.65,0,0,0,.14.18l.08,0s-.07,0-.16-.08A.6.6,0,0,1,16.1,8a1.54,1.54,0,0,1,0,.38l0,.16a1,1,0,0,0,.4,0,.78.78,0,0,0,.23-.08s0,0,0,0a.91.91,0,0,1-.12-.2"/><path class="cls-3" d="M15.8,13.45a.19.19,0,0,0,.17-.07,1.42,1.42,0,0,0,.09-.17l.05-.08a.61.61,0,0,1,0,.17.64.64,0,0,0,0,.28c0,.11.09.13.13.11a.33.33,0,0,0,.12-.13s0-.06,0-.08.05-.14.06-.14,0,.07,0,.11a1.5,1.5,0,0,0-.06.28c0,.07,0,.21.08.21s.11-.06.15-.21.05-.2.07-.2,0,.1,0,.15a.78.78,0,0,0,0,.1.52.52,0,0,0,.06.2.1.1,0,0,0,.13,0,.85.85,0,0,0,.07-.3s0-.15,0-.15,0,0,.07.2.08.22.16.21.08-.14.08-.21a1.67,1.67,0,0,0-.06-.28c0-.08,0-.08.06,0l.05.1a.27.27,0,0,0,.11.11s.11,0,.13-.11a1.78,1.78,0,0,0-.07-.42l0,.05a1.6,1.6,0,0,0,.09.17.19.19,0,0,0,.17.07s.05-.1,0-.25-.16-.23-.26-.35a1.38,1.38,0,0,1-.16-.33,1.09,1.09,0,0,0-.32.22l-.24.26-.24-.26a1.13,1.13,0,0,0-.32-.23,1.83,1.83,0,0,1-.18.32c0,.06-.11.1-.15.15a.51.51,0,0,0-.1.21c0,.15,0,.23,0,.25"/><path class="cls-3" d="M15.79,14l.09-.08s0,0,0,0a1.05,1.05,0,0,0,0,.26c0,.06,0,.11.1.07a.5.5,0,0,0,.13-.11s.07-.05.06,0a.85.85,0,0,0,0,.26c0,.12.07.13.14,0a1.17,1.17,0,0,0,.14-.24s.07-.09.07,0,0,.48.26.56c.22-.08.26-.36.26-.56s0,0,.07,0a1.49,1.49,0,0,0,.14.24c.07.1.13.08.15,0a1,1,0,0,0,0-.26c0-.06,0,0,.06,0a.46.46,0,0,0,.13.11c.07,0,.08,0,.09-.07a1,1,0,0,0,0-.26c0-.07,0,0,0,0l.09.08a.26.26,0,0,0,.14.05.51.51,0,0,0,0-.33l-.12-.16-.09,0-.07,0v.11l.13.13s.07.08,0,0l-.13-.1a.32.32,0,0,1,0,.13.11.11,0,0,1-.09,0h0v0a1,1,0,0,1,.07.17s0,0,0,0a1.76,1.76,0,0,0-.11-.19s-.06-.07-.06,0a.48.48,0,0,1,0,.19l0,0,0,.17s0,.06,0,0-.09-.17-.09-.17A.25.25,0,0,1,17,14a.61.61,0,0,1-.06-.12.67.67,0,0,1-.06.16.37.37,0,0,1-.1.08s0,.21,0,.25,0,.05,0,.05,0,0,0-.05,0-.25,0-.25a.37.37,0,0,1-.1-.08.67.67,0,0,1-.07-.16.62.62,0,0,1-.06.12.25.25,0,0,1-.11,0s-.06.14-.09.17,0,0,0,0l0-.17,0,0a.48.48,0,0,1,0-.19c0-.06,0,0-.06,0a2,2,0,0,0-.11.19c0,.06,0,.07,0,0a.93.93,0,0,1,.07-.17v0h0a.11.11,0,0,1-.09,0s0-.13,0-.13l-.13.1c-.07,0,0,0,0,0l.13-.13v-.11l-.07,0-.08,0-.12.16a.49.49,0,0,0,0,.33.25.25,0,0,0,.13-.05"/><path class="cls-3" d="M15.57,14.65l.21-.15a.53.53,0,0,0,.16-.16h0s0,0,0-.06a1.43,1.43,0,0,1,0-.17.32.32,0,0,0,0-.13.65.65,0,0,1-.12.08c-.08,0-.11,0-.11,0l0-.08-.08.15a1.06,1.06,0,0,1-.26.24,1.07,1.07,0,0,1-.26.16c-.07,0,0,.06,0,.06a.51.51,0,0,0,.26.11.41.41,0,0,0,.34-.08"/><path class="cls-3" d="M16.23,14.57a.12.12,0,0,1-.12-.1,2.06,2.06,0,0,1,0-.23l0,0a.15.15,0,0,1-.08,0l0,.07a.38.38,0,0,1-.12.13l-.19.13a1.17,1.17,0,0,1-.17.13.3.3,0,0,0-.15.19c0,.1,0,.13.07.12a.77.77,0,0,0,.21,0,1.94,1.94,0,0,0,.42-.25.82.82,0,0,0,.22-.24"/><path class="cls-3" d="M16.57,14.69a.46.46,0,0,1-.07-.14l-.06-.22-.06.13a.21.21,0,0,1-.11.11.24.24,0,0,1-.06.11.78.78,0,0,1-.23.2.84.84,0,0,0-.26.21.21.21,0,0,0,0,.22s.07,0,.13,0a2.69,2.69,0,0,0,.46-.18.71.71,0,0,0,.3-.4"/><path class="cls-3" d="M16.67,15.2a.88.88,0,0,0,.07-.33l-.05,0a.82.82,0,0,1-.09-.12l-.08.15a.58.58,0,0,1-.15.18,1.43,1.43,0,0,0-.25.24.39.39,0,0,0,0,.31c0,.06.08,0,.13,0l.15-.13a1.59,1.59,0,0,0,.27-.26"/><path class="cls-3" d="M18.55,14.55a1,1,0,0,1-.26-.16,1.06,1.06,0,0,1-.26-.24L17.95,14l0,.08s0,0-.11,0A.61.61,0,0,1,17.7,14a.31.31,0,0,0,0,.13,1,1,0,0,1,0,.17s0,.06,0,.06h0a.48.48,0,0,0,.16.16l.21.15a.41.41,0,0,0,.33.08.55.55,0,0,0,.27-.11s0,0,0-.06"/><path class="cls-3" d="M18.09,14.78l-.17-.12-.19-.13a.37.37,0,0,1-.12-.13l0-.07a.15.15,0,0,1-.08,0l0,0a1.74,1.74,0,0,1,0,.23.11.11,0,0,1-.12.1.85.85,0,0,0,.22.24,2,2,0,0,0,.42.25.76.76,0,0,0,.21,0c.07,0,.09,0,.07-.12a.29.29,0,0,0-.15-.19"/><path class="cls-3" d="M17.56,14.88a.8.8,0,0,1-.23-.2.25.25,0,0,1-.06-.11.21.21,0,0,1-.11-.11l-.06-.13-.05.22a.43.43,0,0,1-.07.14.71.71,0,0,0,.3.4,2.7,2.7,0,0,0,.46.18c.06,0,.1.07.13,0a.2.2,0,0,0,0-.22.87.87,0,0,0-.26-.21"/><path class="cls-3" d="M17.17,15a.59.59,0,0,1-.15-.18l-.08-.15a.67.67,0,0,1-.09.12l-.05,0a.89.89,0,0,0,.07.33,1.59,1.59,0,0,0,.27.26l.15.13s.09.06.13,0a.4.4,0,0,0,0-.31,1.41,1.41,0,0,0-.25-.24"/><path class="cls-3" d="M16.85,15.32l-.07-.1-.07.1a1.87,1.87,0,0,1-.19.17.67.67,0,0,0,.08.26.7.7,0,0,0,.18.2.68.68,0,0,0,.18-.2.67.67,0,0,0,.08-.26,1.87,1.87,0,0,1-.19-.17"/><path class="cls-6" d="M21.46,13.22a.14.14,0,0,1-.07,0s0,0,0,0a.29.29,0,0,1-.08.07s-.09,0-.11.09,0,.09.08.08a.37.37,0,0,0,.2-.09.37.37,0,0,0,.06-.11s0,0,0,0"/><path class="cls-6" d="M21.6,12.72a.59.59,0,0,0-.3-.4l-.09.31c0,.07,0,.07,0,.09l.27.06s.1,0,.07,0"/><path class="cls-6" d="M20.77,12.59s0,0,.05-.07l.09-.33a.85.85,0,0,0-.35.07.53.53,0,0,0-.23.22l.15,0,.29.07"/><path class="cls-6" d="M20.34,13l-.09,0a.81.81,0,0,0,.11.25.32.32,0,0,0,.29.13.27.27,0,0,0,.27-.14.48.48,0,0,1,0-.11L20.59,13,20.34,13"/><path class="cls-5" d="M18.29,9.87a1.17,1.17,0,0,1,.17-.74L18,8.6a1.4,1.4,0,0,1-1.24,0,1.4,1.4,0,0,1-1.23,0l-.45.52a1.15,1.15,0,0,1,.16.74,6.66,6.66,0,0,0-.17,1.28,1.24,1.24,0,0,0,.4.71,2.31,2.31,0,0,0,.66.36,1.88,1.88,0,0,1,.48.28l.15.13.15-.13a1.84,1.84,0,0,1,.48-.28,2.33,2.33,0,0,0,.66-.36,1.26,1.26,0,0,0,.4-.71,6.76,6.76,0,0,0-.17-1.28"/><path class="cls-5" d="M17.38,7.63a.75.75,0,0,1-.23.15h0a.44.44,0,0,0,.13,0,.68.68,0,0,0,.17-.15,0,0,0,0,0,0-.06l-.07.09"/><path class="cls-5" d="M17.66,7.78s0,.34,0,.34,0,.1,0,.12,0,0,0,0l.06-.44h0s0,0,0,0"/><path class="cls-5" d="M18.15,7,18,7.12a.35.35,0,0,1-.1,0s0-.06,0-.12a.72.72,0,0,1,.14-.19c.05-.06,0,0,0,0a1.26,1.26,0,0,0-.15.19,1.24,1.24,0,0,0-.1.35l.08-.05L18,7.22a.91.91,0,0,0,.16-.14s0-.05,0,0"/><path class="cls-5" d="M16.16,7.63a.4.4,0,0,1-.07-.09,0,0,0,0,0,0,.06.69.69,0,0,0,.18.15.44.44,0,0,0,.13,0h0a.76.76,0,0,1-.22-.15"/><path class="cls-5" d="M15.9,8.12s0-.3,0-.34,0,0,0,0h0l.06.44s0,0,0,0,0-.1,0-.12"/><path class="cls-5" d="M15.5,6.84s-.08,0,0,0a.69.69,0,0,1,.14.19c0,.06,0,.13,0,.12a.35.35,0,0,1-.1,0L15.39,7s-.08,0,0,0a1,1,0,0,0,.16.14l.16.11.08.05a1.18,1.18,0,0,0-.1-.35,1.26,1.26,0,0,0-.15-.19"/><path class="cls-5" d="M16.77,13.71s0,0,0-.05,0-.12,0-.17,0,0,0,0,0,0,0,.06,0,.14,0,.17,0,0,0,0"/><path class="cls-5" d="M17.63,13.27c0,.07,0,.06,0,0a.57.57,0,0,0-.07-.16.78.78,0,0,0-.11-.13l.05.09s.07.13.1.2"/><path class="cls-5" d="M17.3,13.33a.59.59,0,0,0,.09.17,1,1,0,0,0-.05-.19.28.28,0,0,0-.07-.13s0,0,0,0a.87.87,0,0,0,0,.1"/><path class="cls-5" d="M17,13.54s0,.07,0,.07a.42.42,0,0,0,0-.09.39.39,0,0,0,0-.11s0,0,0,0a.9.9,0,0,0,0,.1v0"/><path class="cls-5" d="M15.91,13.27a1.37,1.37,0,0,1,.1-.2l.05-.09a.78.78,0,0,0-.11.13.63.63,0,0,0-.07.16c0,.06,0,.07,0,0"/><path class="cls-5" d="M16.24,13.33l0-.08s0,0,0,0,0,0-.06.1a1,1,0,0,0,0,.19.64.64,0,0,0,.09-.17"/><path class="cls-5" d="M16.5,13.54v0a.85.85,0,0,0,0-.1s0,0,0,0a.52.52,0,0,0,0,.11s0,.08,0,.09,0,0,0-.07"/><path class="cls-5" d="M15.7,14.32l0,0,0,.06s-.06,0-.08.07a.3.3,0,0,1-.11.09c-.05,0-.07,0-.06,0s0,0,0,0l.08,0a.72.72,0,0,0,.12-.09l.1-.1"/><path class="cls-5" d="M16,14.65s.05,0,0-.06,0,0-.05,0l-.12.11-.08.06-.12.07s0,0,0,0l0,0,.1,0,.07,0,.12-.11"/><path class="cls-5" d="M16.3,14.87s0,0,0,0a1.71,1.71,0,0,0-.15.13L16,15s0,0,0,0h0l.07,0h0a.25.25,0,0,0,.1-.06s.09-.06.11-.11"/><path class="cls-5" d="M16.45,15.17a.59.59,0,0,0-.18.16c0,.05,0,.09,0,.1s0,0,0,0l0-.05.13-.12a.34.34,0,0,0,.11-.12.08.08,0,0,0,0-.06.54.54,0,0,1-.12.12"/><path class="cls-5" d="M18.12,14.52a.32.32,0,0,1-.11-.09s-.05,0-.08-.07l0-.06,0,0,.1.1a.74.74,0,0,0,.12.09l.08,0s0,0,0,0,0,0-.06,0"/><path class="cls-5" d="M17.91,14.84l-.12-.07-.08-.06-.12-.11s0,0-.05,0,0,0,0,.06l.12.11.07,0,.1,0,0,0s0,0,0,0"/><path class="cls-5" d="M17.56,15,17.44,15a1.6,1.6,0,0,0-.16-.13s-.06,0,0,0a.4.4,0,0,0,.11.11s.07.06.1.06h0l.07,0h0s0,0,0,0"/><path class="cls-5" d="M17.1,15.17A.56.56,0,0,1,17,15a.08.08,0,0,0,0,.06.32.32,0,0,0,.11.12l.13.12,0,.05s0,0,0,0,0,0,0-.1a.59.59,0,0,0-.18-.16"/><path class="cls-5" d="M16.74,15.53s0,.14,0,.14,0-.1,0-.14,0-.13,0-.13h-.06s0,.09,0,.13"/><path class="cls-6" d="M18.25,9.92a1.35,1.35,0,0,1,.13-.77L18,8.7a1.52,1.52,0,0,1-1.2,0,1.52,1.52,0,0,1-1.2,0l-.4.45a1.32,1.32,0,0,1,.13.77,7.22,7.22,0,0,0-.14,1.2.58.58,0,0,0,0,.06h.37a.18.18,0,0,1,.06,0l.05,0s0-.07.05-.09l.08,0a.07.07,0,0,0,.05,0,.44.44,0,0,0,.1-.15.48.48,0,0,0,0-.15.7.7,0,0,1,0-.12s0,0,0,0,0,0,0-.06a.3.3,0,0,1,0-.15l0,0,0-.06s-.23,0-.27-.14,0-.27-.05-.29,0,0,0,0-.09,0-.14-.11-.05-.13,0-.17,0,0,0,0,.07.1.09.08,0,0,0-.09a.19.19,0,0,1,0-.13.52.52,0,0,0,0-.1,0,0,0,0,1,0,0l0,0s0,0,0,0,0-.08,0-.1,0,0,.06,0a.09.09,0,0,1,0,.07s0,0,0,0,0,0,0-.06,0-.06,0,0a.15.15,0,0,1,0,.12s0,0,0,.1a.71.71,0,0,0,0,.17.38.38,0,0,0,0,.16c0,.07.05.15.11.16H16a.48.48,0,0,1,.11-.14.44.44,0,0,1,.16,0s.07,0,.07,0,0,0-.07,0-.1,0-.1-.06,0-.08,0-.08a.22.22,0,0,1-.16-.09.12.12,0,0,1,0-.11s0-.1.07,0,0,.07.07.08.05,0,0,0a.25.25,0,0,1,0-.1.06.06,0,0,1,.05-.05l.14,0h0s0,0,.05,0l.12,0a.21.21,0,0,0,.11,0,.24.24,0,0,1,.12,0l.08,0s0,0,0,.06,0,0,0,0h.09s.08,0,0,.06,0,.07,0,.07,0,0,0,0,0,0,0,0l.05,0s.07.05,0,.09a.47.47,0,0,1-.11.08s0,0,0,0,.07.09.09.09l0,0s0,0,0,0l-.06,0-.1,0s0,0,0,0l0,.08V10h.28a.87.87,0,0,1,.24,0l.15,0,.05,0a1.35,1.35,0,0,0,.22,0c.08,0,.1-.07.09-.09s0-.07-.15-.09l-.31,0c-.11,0-.28-.08-.31-.21a.2.2,0,0,1,.14-.22l.23-.09a.55.55,0,0,1,.27,0c.11,0,.17,0,.21,0s.08,0,.07,0a.24.24,0,0,1-.17.16.77.77,0,0,1-.35,0c-.08,0-.14-.05-.19,0a.09.09,0,0,0-.05.15c.05.07.32.09.39.1s.34,0,.41.12a.22.22,0,0,1-.07.31l-.23.06h-.07a.42.42,0,0,1,0,.1s0,.08,0,.1a.19.19,0,0,0,.13,0c.06,0,.12,0,.13.08s0,.12,0,.22,0,.18,0,.18a.53.53,0,0,1,0,.08l-.08.18h.39v-.06a7.59,7.59,0,0,0-.15-1.2"/><path class="cls-7" d="M15.21,11.36a1.11,1.11,0,0,0,.47.58c.34.2.48.17.79.38s.29.24.3.24,0,0,.3-.24.46-.18.79-.38a1.11,1.11,0,0,0,.47-.58Z"/><path class="cls-3" d="M15.48,9.68a.12.12,0,0,0,.12,0c.06,0,.07,0,.08.08a.88.88,0,0,0,.05.24c0,.09.17.1.17.1a.61.61,0,0,1,0-.16s0-.05,0-.05,0,0-.07-.06a.86.86,0,0,1-.1-.24.67.67,0,0,1,0-.23s0-.07,0-.08h0s0,0,0,0,0,0,0,0,0,0,0,0,0,0,0,0a.08.08,0,0,1,0,.05l-.06,0a.05.05,0,0,0-.06,0,.16.16,0,0,0,.05.11.12.12,0,0,1,0,.12s-.06,0-.08,0a0,0,0,0,0,0,0s0,0,0,.06"/><path class="cls-3" d="M15.46,9.58l0,0,0,0a.09.09,0,0,0,0,0,.09.09,0,0,0,0,0Z"/><path class="cls-3" d="M15.54,9.31s0,0,0,0,0,0,0,0h0a.24.24,0,0,1,0,.05s0,0,0,0"/><path class="cls-3" d="M15.63,9.24s0,0,0,0a0,0,0,0,0,0,0l0,0h0a.33.33,0,0,1,0,.06"/><path class="cls-3" d="M15.78,9.26a.13.13,0,0,0,0,0,.07.07,0,0,1,0,0s0,0,0,0,0,0,0,0"/><path class="cls-3" d="M16,10.22c0,.06.1,0,.16-.12s.06,0,.05,0a.3.3,0,0,0,0,.18s0,0,.05,0a.64.64,0,0,1,0-.13s0,0,0,0a.35.35,0,0,0,.07.13s0,0,.06-.06,0-.11,0-.14,0,0,0,0l.06.06s0,0,.05-.05,0-.1,0-.11,0,0,.11,0,.05,0,0-.06a.31.31,0,0,0-.08-.14s-.05-.09,0-.1.07,0,.1,0h.08a0,0,0,0,0,0,0,.29.29,0,0,0-.05-.07.24.24,0,0,0-.1-.07h-.11s0,0,0,0l0,0s0,0,0,0,0,0,0,0a.19.19,0,0,0,0-.06s0-.09,0-.1-.06,0-.09,0,0,0,0,0,0,0,.06,0,.05,0,.06-.08,0,0,0,0,0,0,0,0l0-.08a.1.1,0,0,0,0-.11.08.08,0,0,0-.1,0,.12.12,0,0,0,0,.09s0,0,0,0,0,0,0-.06a0,0,0,0,0,0,0,.06.06,0,0,0,0,0,.33.33,0,0,0-.14,0,0,0,0,0,0,0,.05h-.07l-.11,0s0,0,0,0a.25.25,0,0,0,0,0h0s0,0,0,0,0,0,0,0,0,0,0,0a.22.22,0,0,1,.1,0,.07.07,0,0,1,0,.08s-.06,0-.09,0,0,0,0,0,0,0,0,0h.11a.17.17,0,0,1,.11.05s0,0,0,0l-.06,0-.06,0a.56.56,0,0,0-.17,0,.26.26,0,0,0-.13.17l.06,0,.15-.08s0,0,0,.06,0,0,0,0l.08-.05s0,0,0,0a.31.31,0,0,0,0,.1c0,.07.07,0,.11,0s0,0,0,.05-.08.09-.1.09,0,0-.05,0,0-.07,0-.08-.07,0-.1,0,0,0-.05,0,0,0,0,0,0,0,0,0L16,10c-.07,0-.06.05-.06.1s0,.06,0,.12"/><path class="cls-3" d="M16.64,9.14l0,0h.06s0,0,0,0,0,0-.05,0a.22.22,0,0,0-.09,0l0,0,0,0a0,0,0,0,0,0,0"/><path class="cls-3" d="M16.79,9.3h0l0,0a.08.08,0,0,0,.05,0s0,0-.06,0-.06,0-.07,0a.25.25,0,0,1,0,.07s0,0,0,0"/><path class="cls-3" d="M16.78,9.34s-.09.07-.11.08,0,0,0,0l0,.05a.4.4,0,0,1,0,.07h0a.1.1,0,0,0,.06,0l.08,0,.09,0s0-.06-.06-.09a.15.15,0,0,0-.11,0"/><path class="cls-3" d="M16.21,9.48s.05,0,.05,0,0,0-.06,0-.21,0-.23-.13a.12.12,0,0,0,0,.14.25.25,0,0,0,.21.07"/><path class="cls-3" d="M15.84,11.16l0,0H16s0,0,0,0,0-.08,0-.19a1.43,1.43,0,0,1,.08-.23s0-.06,0-.08a.69.69,0,0,1,0-.1s0,0-.06,0,0,0,0,.07,0,.13,0,.21a.55.55,0,0,1-.14.22.1.1,0,0,1-.06,0h-.07a.09.09,0,0,0,0,.07s0,0,0,0l0,0,.06,0s0,0,0,0,0,0,0,.05"/><path class="cls-3" d="M15.6,11.15l0,0h.11v0s0,0-.07,0"/><path class="cls-3" d="M15.74,11.14l0,0h.11a0,0,0,0,0,0,0s0,0-.07,0"/><path class="cls-3" d="M16.74,11.1l0,0a.06.06,0,0,0,0,0h.05s0,0,0,0,0,0,0,0"/><path class="cls-3" d="M16.83,11.15s0,0,0,0l0,0,0,0h.07v0"/><path class="cls-3" d="M17.27,10.62s0,0,0-.06,0,0,0,0a.25.25,0,0,0-.11,0,.44.44,0,0,0-.17,0s-.05.11-.05.15,0,.05,0,.05,0,0,0,0l.07.1a.07.07,0,0,1,0,.09A.33.33,0,0,1,17,11s-.06,0-.11,0a.09.09,0,0,0-.09,0s0,0,0,0a.06.06,0,0,1,.05,0s0,0,0,.06h.21a.18.18,0,0,0,.07-.09.28.28,0,0,1,.08-.09s0,0,0-.08a.18.18,0,0,0,0-.1.2.2,0,0,1,0-.11s.05-.06.08-.08"/><path class="cls-3" d="M16.92,10.09s0,0,0,0h-.11s0,0,0,0a.22.22,0,0,1,0,.11.05.05,0,0,1-.08,0s0,0,0,0a.42.42,0,0,1,0,.08s0,0-.05,0l0,0s0,0-.07-.07,0,0-.05,0,0,.06-.06.05-.06-.06-.08-.09,0-.07-.05-.07-.07.06-.1.07,0,0-.05,0,0,0,0,0a.08.08,0,0,0,0,.09s.07,0,.1,0a.11.11,0,0,1,.08,0s0,.06,0,.13.06.09.06.09,0,0,.05,0,0-.12.08-.12,0,0,.07.06.06.08.08,0a.45.45,0,0,1,.06-.11s0,0,0,0,0,.07,0,.06.24-.09.31-.1l.19,0h.17s0,0,0,0,0,0-.09,0l-.18,0c-.05,0-.08,0-.07,0s0,0,.09,0l.24,0c.06,0,0,0,0,.06a.79.79,0,0,0,0,.14.17.17,0,0,0,0,.11c0,.06.15.09.19.11s0,0,0,0,0,0,.06,0l.12,0s0,0,0,0,0,.06,0,.1,0,.05,0,.07l-.08.09-.09,0c-.07,0-.09,0-.09.07s0,0,0,0v0h0l0,0a.11.11,0,0,1,.12,0,0,0,0,0,1,0,.05h.15L18,11a.21.21,0,0,0,0-.11,1.64,1.64,0,0,0,0-.25s0,0,0-.09,0-.09-.1-.1a.22.22,0,0,1-.16-.08s0-.11-.05-.2-.09-.11-.21-.13a.93.93,0,0,0-.29,0H17c-.06,0,0,0,0,0"/><path class="cls-3" d="M17.48,11.15l0,0h.1a0,0,0,0,0,0,0s0,0-.07,0"/><path class="cls-3" d="M17.66,11.15l0,0h.1a0,0,0,0,0-.07,0"/><path class="cls-3" d="M15.16,11.21s0,.06,0,.1h3.17a.65.65,0,0,0,0-.1Z"/><path class="cls-3" d="M17.3,9.7a2.5,2.5,0,0,0,.57.1c.15,0,.14.14.09.2s-.25.07-.29.07a.27.27,0,0,1,0,.06h.09a.44.44,0,0,0,.25-.08.16.16,0,0,0,0-.24.48.48,0,0,0-.29-.09l-.33,0c-.12,0-.19-.07-.19-.15s.07-.11.12-.13a.32.32,0,0,1,.2,0,.62.62,0,0,0,.29,0A.19.19,0,0,0,18,9.29h-.09c-.07,0-.12,0-.25,0a.53.53,0,0,0-.24.06c-.06,0-.22,0-.27.14s0,.15.11.22"/><path class="cls-5" d="M16.47,9.16a.06.06,0,0,1,0,.12.06.06,0,1,1,0-.12"/><path class="cls-5" d="M17.75,9.32a.68.68,0,0,0-.18,0h.2a.2.2,0,0,0,.13,0h-.15"/><path class="cls-3" d="M20.29,12.87l.63.13S21,13,21,13l.07,0a.06.06,0,0,0,0-.06.53.53,0,0,0,0-.09s0-.06.08,0a.35.35,0,0,1,.07.21c0,.07.13.1.17.1a.08.08,0,0,0,.1-.05.58.58,0,0,0,0-.19c0-.05,0-.05-.06-.07l-.38-.09s0,0,0-.08l.12-.38a.76.76,0,0,0-.31-.09s-.08.35-.09.4,0,.05-.11,0l-.46-.11,0,.08a.64.64,0,0,0,0,.21s0,0,.08.06"/><path class="cls-3" d="M21.68,13.19c-.05,0-.09,0-.12,0a.53.53,0,0,1-.1.23.38.38,0,0,1-.27.13c-.1,0-.16,0-.13-.14s.17-.15.21-.21a.13.13,0,0,0,0-.17.15.15,0,0,0-.15,0,.32.32,0,0,0-.11.15.44.44,0,0,1-.12.21.5.5,0,0,1-.37.08.26.26,0,0,1-.23-.2,3.51,3.51,0,0,0-.13-.37.08.08,0,0,0-.11,0A.19.19,0,0,0,20,13a.2.2,0,0,0,.05.17.62.62,0,0,1,.14.21c0,.07.08.18,0,.18a.2.2,0,0,1-.2-.06c-.07-.06-.33-.24-.4-.3l-.1-.08a.67.67,0,0,1-.37-.14s.07.18.08.25a.43.43,0,0,1,0,.11l.37.19.42.24c.1.06.19.16.37.12s.55-.15.67-.18a2.61,2.61,0,0,0,.57-.2c.12-.08.13-.08.16-.16a.13.13,0,0,0-.05-.17"/><path class="cls-3" d="M21,11.93h.09c.06,0,0,.05,0,.07L21,12.1s0,.05,0,.06l.09,0c.05,0,0,0,0,0s0-.12,0-.15,0,0,0,0l.07,0s0,0,0,0l0-.08s0,0,0,0h-.1s0,0,0,0l.05-.09s0,0,0,0l-.11,0s0,0,0,0,0,.08,0,.11,0,0,0,0-.06,0-.08,0,0,0,0,0l0,.13s0,0,0,0"/><path class="cls-3" d="M18.95,12.92s.06,0,.12,0a.46.46,0,0,0,.19-.05l.15-.06c.06,0,0,0,0-.06l-.24-.09-.13.07a.51.51,0,0,1-.22.08l-.14,0s0,0,.07.08l.1.18c0,.08,0,0,0,0a1.51,1.51,0,0,0-.13-.15l-.07-.06,0,.07v0s0,.14,0,.18,0,0,0,.06l.3.18a1.31,1.31,0,0,1,.27.2.92.92,0,0,0,0-.1.81.81,0,0,0,0-.28.73.73,0,0,0-.13-.24"/><path class="cls-3" d="M18.5,12.65l.13,0,.16,0a.47.47,0,0,0,.22-.08c.11-.06,0,0-.07,0a1.16,1.16,0,0,1-.35-.05c-.08,0,0,0,0,0l.2,0a.55.55,0,0,0,.32,0c.09,0,0,0,0,0a1.13,1.13,0,0,1-.46-.26.68.68,0,0,1-.17-.3,1.49,1.49,0,0,1-.2.19.43.43,0,0,0,0,.1.58.58,0,0,0,.1.13.45.45,0,0,1-.13-.08.46.46,0,0,1-.07-.1,2.12,2.12,0,0,1-.3.17l0,0a.79.79,0,0,1,.13.17c.05.09,0,.08,0,0a.65.65,0,0,0-.19-.17h0l0,0-.19.08a1,1,0,0,1,.16.17s.1.09.13.13l.09.11s.24.27.29.36,0,0,0-.08,0-.14-.05-.21,0,0,0,0,0,0,0,.11.06.18.08.25,0,0,0,0a.81.81,0,0,0,.06-.13,1.08,1.08,0,0,0,0-.24.39.39,0,0,0-.06-.2s0,0,.07,0"/><path class="cls-3" d="M19.38,12.92l-.11,0h0a.2.2,0,0,0,.14.08h.25l-.17-.11a.06.06,0,0,0-.07,0"/><path class="cls-3" d="M21.17,12.81a.57.57,0,0,1,0,.1s0,.06,0,.07l.07,0s0,0,0-.07a.25.25,0,0,0,0-.09Z"/><path class="cls-3" d="M21.6,13.1a.06.06,0,0,0,0,0s0,0,0,0a.14.14,0,0,0,0-.09s0,0,0,0,0,.07,0,.09"/><path class="cls-3" d="M20.11,12.81l.06,0a.65.65,0,0,1,0-.12s0-.08,0-.08,0,0,0,0,0,0-.06.08,0,.06,0,.06"/><path class="cls-5" d="M14.2,10.88a.36.36,0,0,1-.11.05s0,0,0,0,0,0,.07,0a.32.32,0,0,0,.11-.06s0,0,0-.05,0,0-.07.06"/><path class="cls-5" d="M14.62,11.11l-.09.07-.05,0a.06.06,0,0,0,0,0h0l.14-.09s0,0,0,0,0,0,0,0"/><path class="cls-5" d="M12.91,8.07s0,0,0,0,0,0,0,0l0,0,0-.06s0,0,0,0l.07.09"/><path class="cls-5" d="M12.78,8.36l.06.06s0,0,0,0,0,0,0-.06l-.06-.06-.05,0,.06.06"/><path class="cls-5" d="M12.82,8.82s.08,0,.09,0,0,0,0,0l-.09-.06-.06,0,0,0s0,.06.06.07l.07.07"/><path class="cls-5" d="M12.92,9.18s0,0,0,0h-.06s-.05,0-.06,0,0,0,.06,0h.06s0,0,0,0"/><path class="cls-5" d="M13,9.59h-.11s0,0,.06,0l.12,0s0,0,0,0,0,0-.11,0"/><path class="cls-5" d="M13.41,10H13.1l.12,0a.47.47,0,0,0,.15,0s0,0,0,0"/><path class="cls-5" d="M13.59,10.33l-.09,0h-.09s0,0,0,0,0,0,0,0h.09l.1,0s.06,0,0,0,0,0-.08,0"/><path class="cls-5" d="M14,10.57l-.1.07,0,0s0,0,0,0l0,0,.1-.07s.07,0,.06-.06,0,0,0,0"/><path class="cls-5" d="M13.35,7.52l.07.09c.06.08,0,0,0,0l-.14-.19s0,0,0,0l.08.1"/><path class="cls-5" d="M13.22,7.92s0,0,0-.06l-.11-.14s0,0,0,0a.2.2,0,0,0,.05.1l.09.11s0,0,0,0"/><path class="cls-5" d="M13.4,8.67s-.07,0-.1,0l-.09,0h-.07l0,0,.13,0s.08,0,.08,0"/><path class="cls-5" d="M13.22,8.27l.1.07s0,0,.06,0,0,0-.05,0l-.06,0,0,0s-.05,0,0,0"/><path class="cls-5" d="M13.63,8l-.05,0s0,0,0,0,0,0,.06.07.06.08.08.07,0,0,0-.07"/><path class="cls-5" d="M13.36,9l-.06,0s0,0,0,0l.11,0s.06,0,.06,0,0,0,0,0l-.07,0"/><path class="cls-5" d="M13.43,9.43h.05l.1,0s0,0,0,0,0,0-.07,0a.29.29,0,0,0-.08,0l0,0"/><path class="cls-5" d="M13.92,9.66s0,0,0,0,0,0,0,0l-.08.06,0,0s0,0,0,0,0,0,.07,0l.12-.07"/><path class="cls-5" d="M14.15,10l.08,0s0-.05,0-.06,0,0-.05,0L14,10h0s0,0,0,0a.11.11,0,0,0,.07,0l.06,0"/><path class="cls-5" d="M14.5,10.25l.09-.07s0,0,0-.05,0,0-.06,0l-.09.09,0,0s0,0,0,0l0,0"/><path class="cls-5" d="M19.46,10.94a.34.34,0,0,1-.11-.05s-.07-.08-.07-.06,0,0,0,.05a.3.3,0,0,0,.11.06s.07,0,.07,0,0,0,0,0"/><path class="cls-5" d="M19.07,11.21l-.05,0-.09-.07s0,0,0,0,0,0,0,0l.14.09h0l0,0"/><path class="cls-5" d="M20.64,8.07,20.7,8s0,0,0,0l0,.06,0,0s0,0,0,0,0,0,0,0"/><path class="cls-5" d="M20.66,8.45s0,0,0,0l.06-.06.06-.06-.05,0-.06.06s-.06,0,0,.06"/><path class="cls-5" d="M20.85,8.68l0,0-.06,0-.09.06s0,0,0,0,.05,0,.09,0l.07-.07s.07-.06.06-.07"/><path class="cls-5" d="M20.71,9.16h-.06s0,0,0,0,0,0,0,0h.06s.07,0,.06,0-.06,0-.06,0"/><path class="cls-5" d="M20.58,9.59c-.06,0-.1,0-.11,0s0,0,0,0l.12,0s.06,0,.05,0h-.11"/><path class="cls-5" d="M20.41,10h-.27s0,0,0,0a.49.49,0,0,0,.15,0l.12,0h0"/><path class="cls-5" d="M20.13,10.36H20l-.09,0s-.07,0-.08,0,0,0,0,0l.1,0h.1s0,0,0,0,0,0,0,0"/><path class="cls-5" d="M19.73,10.67l0,0-.1-.07s0,0,0,0,0,0,.06.06l.1.07,0,0s0,0,0,0"/><path class="cls-5" d="M20.12,7.61l.07-.09.08-.1s0,0,0,0l-.14.19s0,.09,0,0"/><path class="cls-5" d="M20.5,7.68s0,0,0,0l-.11.14s-.05.05,0,.06,0,0,0,0l.08-.11s.06-.1.05-.1"/><path class="cls-5" d="M20.14,8.67s0,0,.08,0l.13,0,0,0h-.07l-.09,0s-.1,0-.1,0"/><path class="cls-5" d="M20.31,8.25l0,0-.06,0s-.07,0-.05,0,0,0,.06,0l.1-.07s0,0,0,0"/><path class="cls-5" d="M19.87,8.07s.06,0,.08-.07.07-.05.06-.07,0,0,0,0l-.05,0s-.07.06,0,.07"/><path class="cls-5" d="M20.11,9.06l.11,0s0,0,0,0l-.06,0-.07,0s0,0-.05,0,0,0,.05,0"/><path class="cls-5" d="M20.08,9.4a.34.34,0,0,0-.09,0s-.07,0-.07,0,0,0,0,0l.1,0h.06l0,0"/><path class="cls-5" d="M19.76,9.7l0,0-.08-.06s0,0,0,0,0,0,0,0l.12.07s.06,0,.07,0,0,0,0,0"/><path class="cls-5" d="M19.53,10h0l-.14-.1s0,0-.06,0,0,0,0,.06l.07,0,.06,0a.12.12,0,0,0,.07,0s0,0,0,0"/><path class="cls-5" d="M19.11,10.27l0,0L19,10.16s0,0-.06,0,0,0,0,.05l.09.07,0,0s0,0,0,0"/><path class="cls-3" d="M16.77,6.17a2.07,2.07,0,0,1-.65-.08l-.16,0a2.53,2.53,0,0,0,1.62,0l-.16,0a2.06,2.06,0,0,1-.65.08"/><path class="cls-3" d="M17.61,6l-.15-.1s0,0,0-.07a.62.62,0,0,1,.19-.07c.06,0,.05,0,.05,0s0,0-.28-.07-.65,0-.65,0-.41,0-.65,0-.27.07-.27.07,0,0,.05,0a.62.62,0,0,1,.19.07s0,.05,0,.07l-.15.1s0,0,0,0h.11a4,4,0,0,1,1.44,0h.11s0,0,0,0"/><polygon class="cls-3" points="15.87 5.77 15.76 5.86 15.89 5.91 16.03 5.81 15.87 5.77"/><polygon class="cls-3" points="17.68 5.77 17.52 5.81 17.65 5.91 17.78 5.86 17.68 5.77"/><path class="cls-3" d="M17.34,6.08a3.34,3.34,0,0,0-.57,0,4.07,4.07,0,0,0-.57,0,1.65,1.65,0,0,0,.57.06,1.67,1.67,0,0,0,.57-.06"/><path class="cls-6" d="M17,10.79s0,0,0,0,0,0,0-.09a1.47,1.47,0,0,1,0-.17l-.17,0-.16,0h-.22s0,0-.08.05a.34.34,0,0,0-.09.14.84.84,0,0,0-.05.24.62.62,0,0,1,0,.13h.5l0,0a.12.12,0,0,1,.06-.06s0,0,0,0a.1.1,0,0,1,.06-.05.18.18,0,0,1,.11,0S17,11,17,11l0-.07a0,0,0,0,0,0-.05l0,0"/><path class="cls-6" d="M17.8,10.81s0,0,0,0l-.07,0s0,.06,0,.06h-.12a.45.45,0,0,1-.17-.09.32.32,0,0,1-.06-.06l0,0s0,.05,0,.1,0,.09.05.13a.33.33,0,0,1-.07.16l0,.1h.24l0,0a.13.13,0,0,1,.07,0v0s0,0,.09-.07l.13,0,0-.05a.15.15,0,0,0,0-.11"/><polygon class="cls-3" points="16.72 3.85 16.85 3.84 16.83 3.73 16.97 3.75 16.97 3.64 16.83 3.65 16.86 3.54 16.7 3.54 16.73 3.65 16.59 3.64 16.59 3.75 16.73 3.73 16.72 3.85"/><path class="cls-3" d="M17,4h-.17V3.88h-.09V4h-.17a.19.19,0,0,0,0,.06.09.09,0,0,0,0,0H17v0A.2.2,0,0,0,17,4"/><path class="cls-6" d="M16.78,4.29A.22.22,0,0,0,17,4.15h-.43a.23.23,0,0,0,.21.14"/><path class="cls-6" d="M16.87,3.89V4H17a.22.22,0,0,0-.11-.1"/><path class="cls-6" d="M16.68,3.89a.22.22,0,0,0-.11.1h.11Z"/><path class="cls-5" d="M16.9,5.71l-.13-.06-.14.07s0,0-.06.05a0,0,0,0,0,0,.06l.17.09L17,5.83s0,0,0-.06,0,0-.07-.06"/><path class="cls-5" d="M17.21,5.67a.13.13,0,1,1,0,.25.13.13,0,1,1,0-.25"/><path class="cls-5" d="M16.33,5.67a.13.13,0,1,1-.13.13.13.13,0,0,1,.13-.12"/><polygon class="cls-3" points="16.63 5.75 16.77 5.83 16.92 5.75 16.77 5.68 16.63 5.75"/><path class="cls-3" d="M17.21,5.69a.08.08,0,0,1,.08.08.08.08,0,0,1-.16,0,.08.08,0,0,1,.08-.08"/><path class="cls-3" d="M16.33,5.69a.08.08,0,0,1,.08.08.08.08,0,0,1-.08.08.08.08,0,0,1-.08-.08.08.08,0,0,1,.08-.08"/><path class="cls-3" d="M16.05,5.36h.08s0-.06,0-.09L16,5.21l0,0s0,.05,0,.08a.1.1,0,0,0,0,.09"/><path class="cls-3" d="M16.12,5.4a0,0,0,0,1,0,0,0,0,0,0,1,0,0,0,0,0,0,1,0,0,0,0,0,0,1,0,0"/><path class="cls-3" d="M15.95,5.4l0,0,0,0a.12.12,0,0,0,.08,0,0,0,0,0,0,0,0s0,0-.06-.05-.05,0-.06,0"/><path class="cls-3" d="M16,5.55a.36.36,0,0,1-.19-.08.14.14,0,0,1-.12.12h0a.54.54,0,0,0,.14,0H16l.12,0s0-.11,0-.11,0,.06-.09.07"/><path class="cls-3" d="M15.72,5.47l-.11,0s-.05,0,0,0,0,.06.08.06a.14.14,0,0,0,.08,0s0,0,0,0"/><path class="cls-3" d="M15.46,5.33l-.07,0a.18.18,0,0,0,0,.1.07.07,0,0,0,.08,0s.09,0,.07,0a.19.19,0,0,0-.07-.07"/><path class="cls-3" d="M15.49,5.49s0,0,0,0,0,0,0,0,0,0,0,0,0,0,0,0"/><path class="cls-3" d="M15.57,5.19a.46.46,0,0,1,.08-.38.62.62,0,0,1,.28-.21L16,4.53a1.21,1.21,0,0,1,.17-.14L16,4.45h0a.09.09,0,0,1-.09.09l-.05,0a1,1,0,0,0-.22.12.1.1,0,0,1,0,0,.09.09,0,0,1-.09.09h0v0A.86.86,0,0,0,15.4,5a.1.1,0,0,1,0,.08.09.09,0,0,1-.08.09.35.35,0,0,0,0,.06s0,0,.07.07.13.11.13.11a.22.22,0,0,0,0-.18"/><path class="cls-3" d="M15.9,4.5a0,0,0,0,0,0-.05,0,0,0,0,0-.06,0s0,0,0,.05a0,0,0,0,0,.06,0"/><path class="cls-3" d="M15.55,4.73a0,0,0,0,0,0-.07.05.05,0,0,0-.07,0,0,0,0,0,0,0,.07.06.06,0,0,0,.07,0"/><path class="cls-3" d="M15.35,5A.05.05,0,0,1,15.4,5a.05.05,0,0,1-.05.05A.05.05,0,0,1,15.29,5,.05.05,0,0,1,15.35,5"/><path class="cls-3" d="M16.5,4.29l-.16.06h0a.09.09,0,0,1,.1.08.1.1,0,0,1-.1.09.09.09,0,0,1-.09-.09.08.08,0,0,1,0,0l-.07,0a.72.72,0,0,0-.29.33.6.6,0,0,0-.08.43c0,.1.17.12.17.12a.07.07,0,0,1,0,0s0,0,0-.07a.42.42,0,0,0,0-.08.06.06,0,0,1,0,0l.06.07.06.06a.19.19,0,0,0,0-.08s0-.1,0-.17a.57.57,0,0,1,.11-.33.9.9,0,0,1,.27-.22.09.09,0,0,0,.05-.07s0,0,0-.08,0,0-.08,0"/><path class="cls-3" d="M16.33,4.47a.06.06,0,0,0,.06-.05,0,0,0,0,0-.05,0,.05.05,0,0,0-.06,0,.05.05,0,0,0,.05.05"/><path class="cls-3" d="M16.58,5.46a.13.13,0,0,0,.11,0,0,0,0,0,0,0-.07.09.09,0,0,0-.09,0l-.08.05a.11.11,0,0,0,.05,0"/><path class="cls-3" d="M16.71,5.51a.07.07,0,0,1-.07,0,.16.16,0,0,1-.12,0,.26.26,0,0,1,0-.07h-.05a.25.25,0,0,1,0,.09.14.14,0,0,1-.13,0l-.07-.05s0,0,0,.06a.15.15,0,0,0,.12.05h.32s.07,0,.09,0,0-.07,0-.07,0,0,0,0"/><path class="cls-3" d="M16.22,5.45s.08,0,.09,0l0,0-.07,0s0,0-.06,0h0a.09.09,0,0,0,0,.09"/><path class="cls-3" d="M16.85,5.38a0,0,0,0,0,0,.07.13.13,0,0,0,.11,0,.11.11,0,0,0,.05,0l-.08-.05a.08.08,0,0,0-.09,0"/><path class="cls-3" d="M17.3,5.53a.14.14,0,0,1-.14,0,.25.25,0,0,1,0-.09h0a.33.33,0,0,1,0,.07.16.16,0,0,1-.12,0,.07.07,0,0,1-.07,0s0,0,0,0,0,0,0,.07.08,0,.08,0h.32a.15.15,0,0,0,.12,0s0-.06,0-.06l-.07.05"/><path class="cls-3" d="M17.28,5.38l-.07,0,0,0s0,0,.09,0a.1.1,0,0,0,0-.09h0s0,0-.06,0"/><path class="cls-3" d="M17.53,5.27s0-.08,0-.08l0,0-.08.07s0,.09,0,.09h.08a.09.09,0,0,0,0-.09"/><path class="cls-3" d="M17.44,5.43a0,0,0,0,0,0,0,0,0,0,0,0,0,0,0,0,0,0,0,0,0,0,0,0,0,0,0,0"/><path class="cls-3" d="M17.5,5.48a.12.12,0,0,0,.08,0l0,0,0,0s0,0-.06,0-.06,0-.06.05a0,0,0,0,0,0,0"/><path class="cls-3" d="M17.7,5.47a.36.36,0,0,1-.19.08c-.08,0-.09-.07-.09-.07s0,.08,0,.11l.12,0h.1a.54.54,0,0,0,.14,0h0a.14.14,0,0,1-.12-.12"/><path class="cls-3" d="M17.93,5.43l-.11,0s0,0,0,0a.14.14,0,0,0,.08,0s.08,0,.08-.06,0,0,0,0"/><path class="cls-3" d="M18.08,5.33A.2.2,0,0,0,18,5.4s0,0,.07,0a.07.07,0,0,0,.08,0,.2.2,0,0,0,0-.1l-.07,0"/><path class="cls-3" d="M18,5.49s0,0,0,0,0,0,0,0a0,0,0,0,1,0,0,0,0,0,0,1,0,0"/><path class="cls-3" d="M18.1,5a.1.1,0,0,1,0-.08.75.75,0,0,0-.07-.15v0h0a.09.09,0,0,1-.09-.09.12.12,0,0,1,0,0,1,1,0,0,0-.21-.12l-.05,0a.09.09,0,0,1-.09-.09h0l-.21-.06a1.19,1.19,0,0,1,.17.14l.06.07a.63.63,0,0,1,.28.21.46.46,0,0,1,.08.38.23.23,0,0,0,0,.18s.07-.09.12-.11.07,0,.07-.07a.22.22,0,0,0,0-.06A.09.09,0,0,1,18.1,5"/><path class="cls-3" d="M17.64,4.5a0,0,0,0,0,.06,0,0,0,0,0,0,0-.05.05.05,0,0,0-.06,0,0,0,0,0,0,0,.05"/><path class="cls-3" d="M18,4.73a.06.06,0,0,0,.07,0,0,0,0,0,0,0-.07,0,0,0,1,0-.06.06"/><path class="cls-3" d="M18.19,5a.05.05,0,0,1,.05.05.05.05,0,0,1-.05.05A.05.05,0,0,1,18.14,5,.05.05,0,0,1,18.19,5"/><path class="cls-3" d="M17,4.4a.09.09,0,0,0,.05.07.92.92,0,0,1,.27.22A.56.56,0,0,1,17.4,5c0,.08,0,.13,0,.17a.18.18,0,0,0,0,.08l.06-.06.06-.07a.06.06,0,0,1,0,0,.42.42,0,0,0,0,.08.38.38,0,0,1,0,.07.13.13,0,0,1,0,0s.14,0,.17-.12a.6.6,0,0,0-.08-.43.69.69,0,0,0-.29-.33l-.07,0a.08.08,0,0,1,0,0,.09.09,0,0,1-.09.09.11.11,0,0,1-.1-.09.09.09,0,0,1,.1-.08h0L17,4.29s-.09,0-.08,0,0,.06,0,.08"/><path class="cls-3" d="M16.77,5.18a.28.28,0,0,1,0,.07.1.1,0,0,0,0,.07.06.06,0,0,0,.05,0,.06.06,0,0,0,.05,0,.09.09,0,0,0,0-.07.26.26,0,0,1,0-.07"/><path class="cls-3" d="M16.77,5.39a0,0,0,0,1,0,0,0,0,0,0,1,0,0,0,0,0,0,1,0,0,0,0,0,0,1,0,0"/><path class="cls-3" d="M16.67,5.28a.52.52,0,0,0,.07-.09l0-.06,0,.06a.48.48,0,0,0,.06.09A.27.27,0,0,0,17,5.11a1,1,0,0,0,0-.41c0-.14,0-.4,0-.4a.28.28,0,0,1-.29,0s0,.25,0,.4a1,1,0,0,0,0,.41.27.27,0,0,0,.11.16"/><path class="cls-3" d="M17.15,4.41a.06.06,0,0,0,.06.05.05.05,0,0,0,.05-.05.05.05,0,0,0-.05,0,0,0,0,0,0-.05,0"/><path class="cls-5" d="M16,4.86a.11.11,0,0,1,0,.22.11.11,0,1,1,0-.22"/><path class="cls-5" d="M16.17,4.6a.11.11,0,0,0-.14,0,.09.09,0,0,0,0,.13.11.11,0,0,0,.14,0,.09.09,0,0,0,0-.13"/><path class="cls-3" d="M16,4.9A.06.06,0,0,1,16,5,.06.06,0,0,1,16,5,.06.06,0,0,1,15.91,5,.06.06,0,0,1,16,4.9"/><path class="cls-3" d="M16.12,4.61a.07.07,0,0,0-.08,0s0,.05,0,.06.1-.07,0-.09"/><path class="cls-5" d="M16.77,4.88a.11.11,0,1,1,0,.22.11.11,0,1,1,0-.22"/><path class="cls-5" d="M16.77,4.62a.11.11,0,0,1,.11.11.11.11,0,1,1-.11-.11"/><path class="cls-5" d="M16.77,4.37a.1.1,0,1,1,0,.21.1.1,0,1,1,0-.21"/><path class="cls-5" d="M17.56,4.86a.11.11,0,0,0,0,.22.11.11,0,1,0,0-.22"/><path class="cls-5" d="M17.51,4.62a.11.11,0,0,0-.14,0,.09.09,0,0,0,0,.13.11.11,0,0,0,.14,0,.09.09,0,0,0,0-.13"/><path class="cls-3" d="M17.56,4.9a.06.06,0,0,1,.06.06.06.06,0,0,1-.06.06A.06.06,0,0,1,17.5,5a.06.06,0,0,1,.06-.06"/><path class="cls-3" d="M17.42,4.61c-.06,0,0,.1,0,.09s.05,0,0-.06a.07.07,0,0,0-.08,0"/><path class="cls-3" d="M16.77,4.91a.06.06,0,1,1-.06.06.06.06,0,0,1,.06-.06"/><path class="cls-3" d="M16.77,4.65a.06.06,0,0,1,.06.06.06.06,0,0,1-.12,0,.06.06,0,0,1,.06-.06"/><path class="cls-3" d="M16.77,4.41a.05.05,0,0,1,.05.05.05.05,0,0,1-.05,0,.05.05,0,0,1-.05,0,0,0,0,0,1,.05-.05"/><path class="cls-5" d="M20.4,12.6a.1.1,0,0,1,0,.19.1.1,0,1,1,0-.19"/><path class="cls-5" d="M20.67,12.66a.1.1,0,1,1-.1.1.1.1,0,0,1,.1-.1"/><path class="cls-5" d="M21.45,12.83a.1.1,0,0,1,.1.1.1.1,0,0,1-.1.1.1.1,0,0,1,0-.2"/><path class="cls-5" d="M20.94,12.73a.1.1,0,0,1,.1.1.1.1,0,0,1-.2,0,.1.1,0,0,1,.1-.1"/><path class="cls-5" d="M21,12.49a.1.1,0,1,1-.1.1.1.1,0,0,1,.1-.1"/><path class="cls-5" d="M21.08,12.26a.1.1,0,0,1,0,.2.1.1,0,0,1,0-.2"/><path class="cls-3" d="M20.41,12.64a0,0,0,1,1,0,.09,0,0,0,0,1,0-.09,0,0,0,0,1,0,0"/><path class="cls-3" d="M20.68,12.7a0,0,0,0,1,0,.1,0,0,0,1,1,0-.1"/><path class="cls-3" d="M21.46,12.87a0,0,0,0,1,0,0,0,0,0,0,1-.1,0,0,0,0,0,1,0,0"/><path class="cls-3" d="M20.94,12.76a0,0,0,1,1,0,.1,0,0,0,0,1,0-.1,0,0,0,0,1,0,0"/><path class="cls-3" d="M21,12.53a0,0,0,0,1,0,0,0,0,0,0,1,0,0,0,0,0,0,1,0,0,0,0,0,0,1,0,0"/><path class="cls-3" d="M21.08,12.3a0,0,0,0,1,0,0,0,0,0,1,1-.1,0,0,0,0,0,1,.1,0"/></g></g></g></g></g></svg>