<?xml version="1.0" encoding="UTF-8"?>
<svg width="34px" height="20px" viewBox="0 0 34 20" version="1.1" xmlns="http://www.w3.org/2000/svg" xmlns:xlink="http://www.w3.org/1999/xlink">
    <!-- Generator: Sketch 49 (51002) - http://www.bohemiancoding.com/sketch -->
    <title>MNT</title>
    <desc>Created with Sketch.</desc>
    <defs></defs>
    <g id="Page-1" stroke="none" stroke-width="1" fill="none" fill-rule="evenodd">
        <g id="MNT" fill-rule="nonzero">
            <rect id="Rectangle-path" fill="#C9002A" x="0" y="0" width="33.56" height="19.58"></rect>
            <rect id="Rectangle-path" fill="#63ACCC" x="11.19" y="0" width="11.19" height="19.58"></rect>
            <g id="Group" transform="translate(2.000000, 3.000000)">
                <path d="M3.59,2.59 C4.43921282,2.5900179 5.12813777,3.27747743 5.12996397,4.12668829 C5.13179017,4.97589915 4.4458283,5.66631532 3.5966234,5.66998562 C2.74741851,5.67365591 2.05551437,4.98919492 2.05,4.14 C2.04733655,3.72983672 2.20840951,3.33555778 2.49750472,3.04458533 C2.78659993,2.75361288 3.17982808,2.58999135 3.59,2.59" id="Shape" fill="#F5EB2E"></path>
                <path d="M3.59,1.76 C4.27129964,1.75595657 4.88758007,2.1637859 5.15017343,2.79245933 C5.41276679,3.42113275 5.26966989,4.14614973 4.78790981,4.62790981 C4.30614973,5.10966989 3.58113275,5.25276679 2.95245933,4.99017343 C2.3237859,4.72758007 1.91595657,4.11129964 1.92,3.43 C1.92546035,2.50995571 2.66995571,1.76546035 3.59,1.76" id="Shape" fill="#C9002A"></path>
                <path d="M3.59,2.59 C4.04388574,2.58594729 4.45533746,2.85624199 4.63184739,3.2744201 C4.80835732,3.69259822 4.71501897,4.17596112 4.39550298,4.49835564 C4.07598699,4.82075015 3.59348062,4.91841975 3.17373631,4.74566732 C2.753992,4.57291489 2.48001809,4.16390383 2.48,3.71 C2.4799755,3.09532537 2.97534987,2.59548817 3.59,2.59" id="Shape" fill="#F5EB2E"></path>
                <path d="M3.57,0.09 C3.36,0.24 3.52,0.49 3.5,0.63 C3.48,0.77 3.41,0.8 3.38,0.92 C3.34315136,1.0371712 3.34315136,1.1628288 3.38,1.28 C3.40588956,1.32743811 3.42603168,1.3777934 3.44,1.43 C3.43513273,1.50521162 3.37521162,1.56513273 3.3,1.57 C3.22268014,1.57 3.16,1.50731986 3.16,1.43 C3.16,1.35 3.25,1.29 3.25,1.19 C3.24242527,1.1202222 3.21461825,1.05418053 3.17,1 C3.1460303,0.938934613 3.1460303,0.871065387 3.17,0.81 C3.11,0.86 3,0.91 3,1 C3.00608586,1.06986772 3.00608586,1.14013228 3,1.21 C3,1.31 2.83,1.37 2.83,1.63 C2.82999999,1.88008592 2.96341924,2.11117484 3.17999999,2.2362178 C3.39658075,2.36126076 3.66341925,2.36126076 3.88000001,2.2362178 C4.09658076,2.11117484 4.23000001,1.88008592 4.23,1.63 C4.23,1.38 4.06,1.31 4.05,1.21 C4.04,1.11 4.05,1.06 4.05,1 C4.05,0.94 4.09,0.86 4,0.78 C4.03400074,0.849392252 4.03400074,0.930607748 4,1 C3.93995728,1.05911033 3.90126263,1.13649963 3.89,1.22 C3.89,1.32 3.96,1.38 3.98,1.46 L4,1.46 C4,1.53731986 3.93731986,1.6 3.86,1.6 C3.80225191,1.5996833 3.75062376,1.56394073 3.73,1.51 C3.74187973,1.43668898 3.76551717,1.36577666 3.8,1.3 C3.8407913,1.20489376 3.86448765,1.103338 3.87,1 C3.87072562,0.829829102 3.82209572,0.663098009 3.73,0.52 C3.65644287,0.434029086 3.59271475,0.340113961 3.54,0.24 C3.51499354,0.189597868 3.51499354,0.130402132 3.54,0.08" id="Shape" fill="#F5EB2E"></path>
                <rect id="Rectangle-path" fill="#F5EB2E" x="0.52" y="5.95" width="1.4" height="6.71"></rect>
                <rect id="Rectangle-path" fill="#F5EB2E" x="5.27" y="5.95" width="1.4" height="6.71"></rect>
                <polyline id="Shape" fill="#F5EB2E" points="2.2 5.95 4.99 5.95 3.59 6.79"></polyline>
                <rect id="Rectangle-path" fill="#F5EB2E" x="2.2" y="7.07" width="2.8" height="1"></rect>
                <rect id="Rectangle-path" fill="#F5EB2E" x="2.2" y="10.99" width="2.8" height="1"></rect>
                <polyline id="Shape" fill="#F5EB2E" points="2.2 11.82 4.99 11.82 3.59 12.66"></polyline>
                <path d="M3.59,7.91 C4.36319865,7.91 4.99,8.53680135 4.99,9.31 C4.99,10.0831986 4.36319865,10.71 3.59,10.71 C2.81680135,10.71 2.19,10.0831986 2.19,9.31 C2.19,8.53680135 2.81680135,7.91 3.59,7.91" id="Shape" fill="#F5EB2E"></path>
            </g>
            <g id="Group" transform="translate(4.000000, 10.000000)">
                <path d="M1.59,0.77 C2.02630495,0.77 2.38,1.12369505 2.38,1.56 C2.38,1.99630495 2.02630495,2.35 1.59,2.35 C1.15369505,2.35 0.8,1.99630495 0.8,1.56 C0.799983074,1.3487348 0.88458629,1.14626475 1.03490992,0.997820169 C1.18523354,0.849375587 1.38875172,0.767325756 1.6,0.77" id="Shape" fill="#C9002A"></path>
                <path d="M1.59,0.88 C1.86995324,0.875942282 2.1246051,1.04145827 2.23456193,1.2989457 C2.34451876,1.55643314 2.28797923,1.85483956 2.09145192,2.05425697 C1.89492462,2.25367438 1.59737535,2.31456395 1.33831022,2.20837758 C1.0792451,2.10219121 0.910029405,1.84998265 0.91,1.57 C0.909960384,1.19279485 1.21283447,0.885466739 1.59,0.88" id="Shape" fill="#F5EB2E"></path>
                <path d="M1.59,1.29 C1.74463973,1.29 1.87,1.41536027 1.87,1.57 C1.87,1.72463973 1.74463973,1.85 1.59,1.85 C1.43536027,1.85 1.31,1.72463973 1.31,1.57 C1.31,1.41536027 1.43536027,1.29 1.59,1.29" id="Shape" fill="#C9002A"></path>
                <path d="M1.59,2.25 C1.91444901,2.24594407 2.20921311,2.4382652 2.33619487,2.73686065 C2.46317663,3.0354561 2.39722244,3.38117757 2.16923193,3.61205404 C1.94124143,3.8429305 1.59637689,3.913228 1.29620787,3.79001205 C0.996038845,3.6667961 0.800025351,3.37447436 0.8,3.05 C0.8,2.6081722 1.1581722,2.25 1.6,2.25" id="Shape" fill="#C9002A"></path>
                <path d="M1.59,2.36 C1.86995324,2.35594228 2.1246051,2.52145827 2.23456193,2.7789457 C2.34451876,3.03643314 2.28797923,3.33483956 2.09145192,3.53425697 C1.89492462,3.73367438 1.59737535,3.79456395 1.33831022,3.68837758 C1.0792451,3.58219121 0.910029405,3.32998265 0.91,3.05 C0.909960384,2.67279485 1.21283447,2.36546674 1.59,2.36" id="Shape" fill="#F5EB2E"></path>
                <path d="M1.59,2.77 C1.74463973,2.77 1.87,2.89536027 1.87,3.05 C1.87,3.20463973 1.74463973,3.33 1.59,3.33 C1.43536027,3.33 1.31,3.20463973 1.31,3.05 C1.31,2.89536027 1.43536027,2.77 1.59,2.77" id="Shape" fill="#C9002A"></path>
            </g>
        </g>
    </g>
</svg>