<?xml version="1.0" encoding="utf-8"?>
<!-- Generator: Adobe Illustrator 21.0.0, SVG Export Plug-In . SVG Version: 6.00 Build 0)  -->
<svg version="1.1" id="Layer_1" xmlns="http://www.w3.org/2000/svg" xmlns:xlink="http://www.w3.org/1999/xlink" x="0px" y="0px"
	 viewBox="0 0 200 200" style="enable-background:new 0 0 200 200;" xml:space="preserve">
<style type="text/css">
	.st0{fill:#004F7F;}
	.st1{fill:#0084C3;}
	.st2{fill:#76CCCD;}
	.st3{fill:#75C043;}
	.st4{fill:#00AA4F;}
	.st5{fill:#C4D92D;}
	.st6{fill:#D7A96F;}
	.st7{fill:#EEE1C5;}
	.st8{fill:#E2C197;}
	.st9{fill:#00B3C2;}
	.st10{fill:#DF9D88;}
	.st11{fill:#ED1C24;}
	.st12{fill:#68C3EE;}
	.st13{fill:#F58020;}
	.st14{fill:#C3262D;}
	.st15{fill:#FAA61A;}
	.st16{fill:#8E181B;}
</style>
<title>MO</title>
<g id="Ebene_1">
	<polygon class="st0" points="0,40 40,40 40,0 0,0 	"/>
	<polygon class="st1" points="0,80 40,80 40,40 0,40 	"/>
	<polygon class="st2" points="0,120 40,120 40,80 0,80 	"/>
	<polygon class="st3" points="0,160 40,160 40,120 0,120 	"/>
	<polygon class="st4" points="0,200 40,200 40,160 0,160 	"/>
	<polygon class="st3" points="40,200 80,200 80,160 40,160 	"/>
	<polygon class="st5" points="80,200 120,200 120,160 80,160 	"/>
	<polygon class="st6" points="120,200 160,200 160,160 120,160 	"/>
	<polygon class="st7" points="160,200 200,200 200,160 160,160 	"/>
	<polygon class="st5" points="40,160 80,160 80,120 40,120 	"/>
	<polygon class="st7" points="80,160 120,160 120,120 80,120 	"/>
	<polygon class="st8" points="120,160 160,160 160,120 120,120 	"/>
	<polygon class="st6" points="160,160 200,160 200,120 160,120 	"/>
	<polygon class="st9" points="40,120 80,120 80,80 40,80 	"/>
	<polygon class="st8" points="80,120 120,120 120,80 80,80 	"/>
	<polygon class="st10" points="120,120 160,120 160,80 120,80 	"/>
	<polygon class="st11" points="160,120 200,120 200,80 160,80 	"/>
	<polygon class="st12" points="40,80 80,80 80,40 40,40 	"/>
	<polygon class="st13" points="80,80 120,80 120,40 80,40 	"/>
	<polygon class="st11" points="120,80 160,80 160,40 120,40 	"/>
	<polygon class="st14" points="160,80 200,80 200,40 160,40 	"/>
	<polygon class="st1" points="40,40 80,40 80,0 40,0 	"/>
	<polygon class="st15" points="80,40 120,40 120,0 80,0 	"/>
	<polygon class="st14" points="120,40 160,40 160,0 120,0 	"/>
	<polygon class="st16" points="160,40 200,40 200,0 160,0 	"/>
</g>
</svg>
