<?xml version="1.0" encoding="utf-8"?>
<!-- Generator: Adobe Illustrator 21.0.0, SVG Export Plug-In . SVG Version: 6.00 Build 0)  -->
<svg version="1.1" id="Layer_1" xmlns="http://www.w3.org/2000/svg" xmlns:xlink="http://www.w3.org/1999/xlink" x="0px" y="0px"
	 viewBox="0 0 200 200" style="enable-background:new 0 0 200 200;" xml:space="preserve">
<style type="text/css">
	.st0{fill:#1B9B94;}
</style>
<title>MRK</title>
<path class="st0" d="M149.6,50c0-27.6-22.2-50-49.6-50C72.6,0,50,22.4,50,50H149.6z M149.6,149.7c0,27.6-22.3,50.3-49.6,50.3
	c-27.5-0.1-49.8-22.5-49.9-50.3H149.6z M94.6,99.7c-25.1,2.6-44.8,24.5-44.8,50.3C22.3,150,0,127.6,0,99.9s22.3-50.1,49.8-50.1
	C49.8,75.8,69.5,97.4,94.6,99.7z M105.6,99.7c25.1,2.6,44.8,24.5,44.8,50.3c27.5-0.1,49.7-22.6,49.6-50.3s-22.4-50.1-49.9-50
	c0,0,0,0,0,0C150.1,75.8,130.6,97.4,105.6,99.7L105.6,99.7z"/>
</svg>
