<?xml version="1.0" encoding="utf-8"?>
<!-- Generator: Adobe Illustrator 21.0.0, SVG Export Plug-In . SVG Version: 6.00 Build 0)  -->
<svg version="1.1" id="Layer_1" xmlns="http://www.w3.org/2000/svg" xmlns:xlink="http://www.w3.org/1999/xlink" x="0px" y="0px"
	 viewBox="0 0 200 200" style="enable-background:new 0 0 200 200;" xml:space="preserve">
<style type="text/css">
	.st0{fill:#002C51;}
	.st1{fill:#FFFFFF;}
</style>
<title>MS</title>
<rect class="st0" width="200" height="200"/>
<path id="path813" class="st1" d="M149.4,88.6v15.8c0,0.6,0.3,1.2,0.9,1.5c0.6,0.3,1.3,0.5,2,0.5c0.4,0,0.9-0.1,1.3-0.2v-1.4
	c-0.2,0-0.4,0-0.6,0c-1.3,0-1.5-0.5-1.5-1.1V88.6H149.4z M107.6,88.8c-1.4,0-2.7,0.4-3.8,1.3c-0.9,0.8-1.5,2-1.4,3.2
	c0,1.3,0.6,2.5,1.7,3.2c1.1,0.7,2.3,1.3,3.6,1.7c2.2,0.8,4.3,1.5,4.3,3.5c0,0.8-0.3,1.6-0.9,2.2c-0.8,0.6-1.8,0.9-2.8,0.9
	c-2.1,0-3.7-1.2-4.5-3.4l-1.9,0.5c0.5,1.2,1.2,2.3,2.1,3.2c1.2,1,2.7,1.5,4.2,1.5c1.7,0.1,3.4-0.4,4.6-1.6c0.9-1,1.3-2.2,1.3-3.5
	c0-1.4-0.7-2.6-1.8-3.3c-1.2-0.7-2.4-1.3-3.7-1.7c-2.1-0.7-4.2-1.4-4.2-3.2c0-0.7,0.3-1.5,0.9-2c0.7-0.5,1.5-0.7,2.3-0.7
	c1,0,1.9,0.3,2.7,0.9c0.7,0.5,1.1,1.3,1.3,2.1l1.8-0.2C112.8,90.5,110.3,88.6,107.6,88.8z M22.9,89v17.2h2V90.5l0.1,0.1l4.7,15.7
	h1.5l4.7-15.6v-0.1v15.7h2V89h-3.3l-4.2,13.8v0.1v-0.1L26.2,89H22.9z M117.2,89.4v4.1h-1.9v1.6h1.9v9.4c0,0.6,0.2,1.2,0.8,1.6
	c0.6,0.3,1.3,0.5,2,0.5c0.5,0,0.9-0.1,1.3-0.2v-1.4c-0.2,0-0.5,0-0.7,0c-1.3,0-1.5-0.5-1.5-1.1v-8.7h2.1v-1.6h-2.1v-4.1L117.2,89.4
	L117.2,89.4z M46,93.2c-1.6,0-3.1,0.7-4.1,1.9c-1.9,2.8-1.9,6.5,0,9.3c1.8,2.2,5.2,2.6,7.4,0.7c0.3-0.2,0.5-0.5,0.7-0.7
	c1.9-2.8,1.9-6.5,0-9.3C49.1,93.9,47.6,93.2,46,93.2z M160.2,93.2c-0.8,0-1.6,0.1-2.3,0.5c-0.7,0.3-1.3,0.7-1.7,1.3
	c-1,1.4-1.5,3.1-1.4,4.8c-0.1,1.9,0.5,3.7,1.8,5.1c1.1,1,2.5,1.5,3.9,1.4c2.1,0.2,4-1,4.8-2.9l-1.6-0.8c-0.5,1.3-1.8,2.2-3.2,2.2
	c-1.1,0-2.1-0.5-2.7-1.3c-0.7-1-1-2.1-1-3.3h8.7V99c0-2.1-0.6-3.6-1.6-4.6C162.9,93.6,161.6,93.2,160.2,93.2L160.2,93.2z M66.3,93.2
	c-2.2,0-5.4,1.5-5.4,6.6c0,4.9,3.2,6.6,5.3,6.6c1.3-0.1,2.4-0.7,3.2-1.7l0.1-0.1v2.4c-0.1,1.6-1.4,2.8-2.9,2.7c0,0-0.1,0-0.1,0
	c-1.4,0-2.7-0.3-4-0.8v1.7c1.2,0.4,2.4,0.7,3.7,0.6c3.5,0,5.2-1.9,5.2-4.7v-13h-1.5l-0.4,1.3C68.7,93.8,67.5,93.3,66.3,93.2
	L66.3,93.2z M79,93.2c-2-0.1-3.8,1-4.7,2.8l1.6,0.9c0.5-1.3,1.8-2.1,3.2-2c1.7,0,2.6,0.7,2.6,2.2v0.5c0,0,0,0.1,0,0.2
	c0,0.1-0.2,0.1-0.7,0.2c-2.4,0.3-3.9,0.7-5.1,1.4c-1.3,0.7-2,2-2,3.5c0,2,1.7,3.7,3.7,3.7c1.6,0.2,3.2-0.5,4.1-1.8
	c0,0.6,0.3,1.1,0.9,1.4c0.5,0.2,1.1,0.3,1.7,0.1v-1.3c-0.4,0-0.7-0.3-0.7-0.6c0-0.1,0-0.1,0-0.2v-6.9c0.1-1.2-0.5-2.3-1.4-3
	C81.2,93.6,80.1,93.3,79,93.2L79,93.2z M92.7,93.2c-1.5,0.1-2.8,0.8-3.7,1.9v-1.7h-2v12.7h2v-9.4c0.7-0.7,2.2-1.9,3.6-1.9
	c1.4,0,2,0.7,2,2.2v9.2h2V97C96.5,94.3,94.5,93.3,92.7,93.2L92.7,93.2z M128.5,93.2c-2-0.1-3.8,1-4.7,2.7l1.6,0.9
	c0.5-1.3,1.8-2.1,3.2-2c1.7,0,2.6,0.7,2.6,2.2v0.5c0,0.1,0,0.1-0.1,0.2c-0.1,0.1-0.2,0.1-0.6,0.2c-2.4,0.3-3.9,0.7-5.1,1.4
	c-1.3,0.7-2,2-2,3.5c0,2,1.7,3.7,3.7,3.7c1.6,0.2,3.2-0.5,4.1-1.8c0,0.6,0.3,1.1,0.9,1.4c0.5,0.2,1.1,0.3,1.7,0.1v-1.3
	c-0.4,0-0.7-0.3-0.7-0.6c0-0.1,0-0.1,0-0.2v-6.9c0-1.2-0.5-2.3-1.5-3C130.6,93.6,129.6,93.3,128.5,93.2L128.5,93.2z M142.1,93.2
	c-1.5,0.1-2.8,0.8-3.7,1.9v-1.7h-2v12.7h2v-9.4c0.7-0.7,2.2-1.9,3.6-1.9s2,0.7,2,2.2v9.2h2V97C145.9,94.3,144,93.3,142.1,93.2
	L142.1,93.2z M60.1,93.3c-2,0-3.2,0.8-4.2,2.6v-2.4h-2v12.7h2V99c0.5-2.6,1.9-3.8,4.2-3.8L60.1,93.3z M166.8,93.5l4.4,12.6v0.1
	c-0.2,1.2-0.8,2.3-1.7,3.2c-0.5,0.3-1.1,0.5-1.8,0.5c-0.3,0-0.6-0.1-1-0.1v1.5c0.4,0.1,0.9,0.2,1.3,0.2c0.9,0,1.7-0.2,2.4-0.7
	c1-0.9,1.7-2.1,2.1-3.4l4.4-13.7h-1.9l-2.9,9.7v0.2l-0.1-0.2l-3.4-9.7L166.8,93.5L166.8,93.5z M46,94.9c2.1,0,3.4,1.9,3.4,5
	c0,3.1-1.3,5-3.4,5c-2.2,0-3.4-1.9-3.4-5C42.5,96.7,43.8,94.9,46,94.9z M66.4,94.9c1.2,0,2.3,0.6,3,1.6v6.1c-0.5,1.3-1.7,2.2-3,2.3
	c-2,0-3.4-1.3-3.4-5.1C62.9,96.6,64.2,94.9,66.4,94.9z M160.3,94.9c2.3,0,3.3,1.2,3.3,3.8h-6.7C157.1,96,158.2,94.9,160.3,94.9z
	 M81.7,99.3v3.2c-0.1,1.1-2.2,2.4-3.9,2.4c-1.1-0.1-1.9-1-1.9-2c-0.2-2.1,1.4-2.9,4.8-3.3C81.1,99.6,81.4,99.5,81.7,99.3z
	 M131.1,99.3v3.2c-0.1,1.1-2.2,2.4-3.9,2.4c-1.1-0.1-1.9-1-1.9-2c-0.2-2.1,1.4-2.9,4.8-3.3C130.5,99.6,130.8,99.5,131.1,99.3z"/>
</svg>
