<?xml version="1.0" encoding="utf-8"?>
<!-- Generator: Adobe Illustrator 21.0.0, SVG Export Plug-In . SVG Version: 6.00 Build 0)  -->
<svg version="1.1" id="Layer_1" xmlns="http://www.w3.org/2000/svg" xmlns:xlink="http://www.w3.org/1999/xlink" x="0px" y="0px"
	 viewBox="0 0 200 200" style="enable-background:new 0 0 200 200;" xml:space="preserve">
<style type="text/css">
	.st0{fill:#E60000;}
</style>
<title>MTU</title>
<path class="st0" d="M128.7,29.1c-10,0-19.9,2-29.1,6c-9-4-18.8-6.1-28.7-6C31.8,29.1,0,60.8,0,100s31.7,70.9,70.9,70.9
	c10,0,19.9-2,29.1-6c35.8,16,77.8,0,93.8-35.7s0-77.8-35.7-93.8C148.8,31.2,138.8,29.1,128.7,29.1 M100,164.2
	c-35.4,0-64.2-28.7-64.2-64.1S64.5,35.9,100,35.9c35.4,0,64.2,28.7,64.2,64.1C164.2,135.4,135.5,164.1,100,164.2
	C100,164.2,100,164.2,100,164.2 M129.4,100c0,16.2-13.1,29.4-29.3,29.4H100c-16.3,0-29.4-13.2-29.4-29.4S83.7,70.6,100,70.6
	c16.2,0,29.3,13.1,29.4,29.3C129.4,99.9,129.4,99.9,129.4,100"/>
</svg>
