<?xml version="1.0" encoding="utf-8"?>
<!-- Generator: Adobe Illustrator 21.0.0, SVG Export Plug-In . SVG Version: 6.00 Build 0)  -->
<svg version="1.1" id="Layer_1" xmlns="http://www.w3.org/2000/svg" xmlns:xlink="http://www.w3.org/1999/xlink" x="0px" y="0px"
	 viewBox="0 0 200 200" style="enable-background:new 0 0 200 200;" xml:space="preserve">
<style type="text/css">
	.st0{fill:#E2E2E2;}
	.st1{fill:#A51C27;}
	.st2{fill:#E50914;}
</style>
<path class="st0" d="M30.5,0h139C186.3,0,200,13.7,200,30.5v139c0,16.8-13.7,30.5-30.5,30.5h-139C13.7,200,0,186.3,0,169.5v-139
	C0,13.7,13.7,0,30.5,0z"/>
<title>NTFLX</title>
<path class="st1" d="M86.6,170.3c-8.2,0.1-14.4,0-22.4,0V29.7H85l28.5,79.7V29.7h22.1l0.1,135.3v5.3c-7.8,0.1-15.4-0.1-23.9,0
	L86.6,90.4V167"/>
<polygon class="st2" points="112,171 136,171 85.2,30 64,30 "/>
</svg>
