<?xml version="1.0" encoding="UTF-8"?>
<svg width="34px" height="20px" viewBox="0 0 34 20" version="1.1" xmlns="http://www.w3.org/2000/svg" xmlns:xlink="http://www.w3.org/1999/xlink">
    <!-- Generator: Sketch 49 (51002) - http://www.bohemiancoding.com/sketch -->
    <title>NIO</title>
    <desc>Created with Sketch.</desc>
    <defs></defs>
    <g id="Page-1" stroke="none" stroke-width="1" fill="none" fill-rule="evenodd">
        <g id="NIO">
            <rect id="Rectangle-path" fill="#3564C2" fill-rule="nonzero" x="0" y="13.05" width="33.56" height="6.53"></rect>
            <rect id="Rectangle-path" fill="#3564C2" fill-rule="nonzero" x="0" y="0" width="33.56" height="6.53"></rect>
            <rect id="Rectangle-path" fill="#FFFFFF" fill-rule="nonzero" x="0" y="6.53" width="33.56" height="6.53"></rect>
            <polygon id="Shape" fill="#F5CD28" fill-rule="nonzero" points="14.81 10.93 16.78 7.52 18.75 10.93"></polygon>
            <polygon id="Shape" fill="#95D4FD" fill-rule="nonzero" points="15.01 10.81 16.78 7.74 18.55 10.81"></polygon>
            <g id="Group" transform="translate(13.000000, 6.000000)">
                <polygon id="Shape" fill="#95D4FD" fill-rule="nonzero" points="2.36 4.53 2.23 4.53 2.23 4.53 2.29 4.53 2.45 4.53 2.35 4.53"></polygon>
                <path d="M2.19,4.75 C2.19,4.75 2.19,4.75 2.25,4.69 C2.27918231,4.68009431 2.31081769,4.68009431 2.34,4.69 L2.4,4.69 C2.43825757,4.70669697 2.48174243,4.70669697 2.52,4.69 L2.57,4.69 C2.52309741,4.71488941 2.46690259,4.71488941 2.42,4.69 L2.3,4.69 C2.27728916,4.68237769 2.25271084,4.68237769 2.23,4.69 L2.23,4.75 L2.19,4.75 Z" id="Shape" fill="#95D4FD" fill-rule="nonzero"></path>
                <path d="M2.54,4.78 L2.4,4.78 L2.34,4.78 L2.4,4.78 C2.46,4.78 2.51,4.78 2.54,4.78 Z" id="Shape" fill="#95D4FD" fill-rule="nonzero"></path>
                <path d="M3,4.51 C2.93,4.51 2.91,4.51 2.89,4.42 C2.85392489,4.41068545 2.81607511,4.41068545 2.78,4.42 L2.73,4.42 L2.79,4.42 C2.8345007,4.39989245 2.8854993,4.39989245 2.93,4.42 C2.93,4.5 2.93,4.5 3.02,4.51 C3.11,4.52 3.02,4.51 3.02,4.51 L2.94,4.51 L3,4.51 Z" id="Shape" fill="#95D4FD" fill-rule="nonzero"></path>
                <polygon id="Shape" points="2.79 4.54 2.8 4.54 2.85 4.54 2.95 4.54"></polygon>
                <path d="M2.92,4.7 C2.92,4.7 2.92,4.7 2.98,4.64 C3.02950417,4.61141875 3.09049583,4.61141875 3.14,4.64 C3.2,4.64 3.22,4.7 3.27,4.71 L3.4,4.71 L3.32,4.71 C3.275168,4.70886407 3.23237467,4.69103352 3.2,4.66 C3.15816851,4.62995726 3.10183149,4.62995726 3.06,4.66 L3.01,4.72 L2.92,4.7 Z" id="Shape" fill="#95D4FD" fill-rule="nonzero"></path>
                <path d="M3.27,4.81 C3.22718753,4.81950174 3.18281247,4.81950174 3.14,4.81 L3.2,4.81 C3.23633088,4.81701771 3.27366912,4.81701771 3.31,4.81 L3.42,4.81 C3.4037614,4.81534211 3.3862386,4.81534211 3.37,4.81 L3.27,4.81 Z" id="Shape" fill="#95D4FD" fill-rule="nonzero"></path>
                <path d="M3.7,4.45 C3.65033678,4.44179292 3.59966322,4.44179292 3.55,4.45 L3.49,4.45 L3.55,4.45 C3.60615199,4.43919908 3.66384801,4.43919908 3.72,4.45 L3.88,4.45 L3.71,4.45 L3.7,4.45 Z" id="Shape" fill="#95D4FD" fill-rule="nonzero"></path>
                <path d="M3.77,4.66 C3.73085145,4.67167184 3.68914855,4.67167184 3.65,4.66 C3.60765602,4.64690466 3.56234398,4.64690466 3.52,4.66 C3.52,4.66 3.52,4.66 3.52,4.66 C3.57739081,4.65854521 3.63364943,4.67612603 3.68,4.71 C3.71257948,4.72002564 3.74742052,4.72002564 3.78,4.71 L3.86,4.71 L3.77,4.66 Z" id="Shape" fill="#95D4FD" fill-rule="nonzero"></path>
                <path d="M3.85,4.74 L3.73,4.74 C3.69352225,4.71626059 3.64647775,4.71626059 3.61,4.74 C3.65578181,4.71095454 3.71421819,4.71095454 3.76,4.74 C3.80959492,4.74900091 3.86040508,4.74900091 3.91,4.74 L3.97,4.74 L4.04,4.74 L3.97,4.74 L3.92,4.74 L3.85,4.74 Z" id="Shape" fill="#95D4FD" fill-rule="nonzero"></path>
                <path d="M4.29,4.54 C4.23395567,4.52812301 4.17604433,4.52812301 4.12,4.54 C4.17617451,4.52943804 4.23382549,4.52943804 4.29,4.54 C4.32386503,4.52646589 4.3520903,4.50176878 4.37,4.47 C4.41562959,4.45608641 4.46437041,4.45608641 4.51,4.47 C4.4702817,4.47671362 4.4297183,4.47671362 4.39,4.47 C4.39,4.53 4.32,4.56 4.26,4.57 L4.29,4.54 Z" id="Shape" fill="#95D4FD" fill-rule="nonzero"></path>
                <path d="M4.33,4.72 L4.41,4.72 C4.41,4.72 4.47,4.72 4.5,4.72 C4.54688968,4.69843677 4.58298992,4.6587265 4.6,4.61 C4.6067305,4.67520432 4.56386262,4.73521935 4.5,4.75 L4.44,4.75 C4.44,4.75 4.44,4.75 4.39,4.75 L4.3,4.75 L4.33,4.72 Z" id="Shape" fill="#95D4FD" fill-rule="nonzero"></path>
                <path d="M4.47,4.59 C4.47,4.59 4.47,4.59 4.47,4.59 C4.49588167,4.58084945 4.52411833,4.58084945 4.55,4.59 C4.55,4.59 4.62,4.59 4.64,4.59 C4.66,4.59 4.58,4.59 4.57,4.59 C4.54411833,4.58084945 4.51588167,4.58084945 4.49,4.59 L4.44,4.59 L4.47,4.59 Z" id="Shape" fill="#95D4FD" fill-rule="nonzero"></path>
                <path d="M4.72,4.73 L4.72,4.61 C4.72,4.61 4.78,4.61 4.81,4.61 C4.83614792,4.62272619 4.85727381,4.64385208 4.87,4.67 L4.92,4.67 L4.99,4.67 C4.9659602,4.68673916 4.9340398,4.68673916 4.91,4.67 L4.85,4.67 C4.85,4.67 4.85,4.62 4.85,4.61 L4.79,4.61 C4.79,4.61 4.79,4.7 4.79,4.72 L4.72,4.73 Z" id="Shape" fill="#95D4FD" fill-rule="nonzero"></path>
                <path d="M5,4.54 C5,4.47 4.94,4.43 4.9,4.42 C4.90411508,4.4431519 4.90411508,4.4668481 4.9,4.49 C4.90447574,4.46352114 4.90447574,4.43647886 4.9,4.41 C4.98,4.41 4.99,4.46 5.02,4.51 C5.05486023,4.52627708 5.09513977,4.52627708 5.13,4.51 C5.13,4.57 5.07,4.57 5.01,4.57 L5,4.54 Z" id="Shape" fill="#95D4FD" fill-rule="nonzero"></path>
                <path d="M5.39,4.7 C5.36411833,4.70915055 5.33588167,4.70915055 5.31,4.7 L5.26,4.7 C5.26,4.7 5.26,4.7 5.19,4.76 C5.19,4.76 5.19,4.67 5.27,4.67 L5.33,4.67 L5.38,4.67 C5.38,4.67 5.38,4.67 5.38,4.67 L5.38,4.73 L5.39,4.7 Z" id="Shape" fill="#95D4FD" fill-rule="nonzero"></path>
                <path d="M4.13,4.75 C4.13,4.75 4.13,4.75 4.13,4.75 C4.17203412,4.72230376 4.20642327,4.6844757 4.23,4.64 L4.4,4.64 C4.3721539,4.65607695 4.3378461,4.65607695 4.31,4.64 L4.25,4.64 C4.23627487,4.68452632 4.20813135,4.72322366 4.17,4.75 L4.1,4.75 L4.13,4.75 Z" id="Shape" fill="#95D4FD" fill-rule="nonzero"></path>
                <path d="M2.61,4.54 C2.61,4.54 2.61,4.54 2.69,4.47 C2.77,4.4 2.69,4.47 2.76,4.47 L2.67,4.47 L2.61,4.47 L2.61,4.54 Z" id="Shape" fill="#95D4FD" fill-rule="nonzero"></path>
                <path d="M2.8,4.71 C2.8,4.71 2.8,4.71 2.8,4.71 L2.87,4.71 L2.93,4.71 L2.8,4.71 Z" id="Shape" fill="#95D4FD" fill-rule="nonzero"></path>
                <polygon id="Shape" fill="#FFFFFF" fill-rule="nonzero" points="3.79 4.12 3.77 1.77 3.79 1.77 3.79 4.12"></polygon>
                <polygon id="Shape" fill="#FFFFFF" fill-rule="nonzero" points="2.94 3.22 2.94 3.21 4.63 3.21 2.94 3.22"></polygon>
                <polygon id="Shape" fill="#FFFFFF" fill-rule="nonzero" points="5.05 3.94 3.15 2.87 3.16 2.85 5.05 3.94"></polygon>
                <polygon id="Shape" fill="#FFFFFF" fill-rule="nonzero" points="2.51 3.96 4.42 2.85 4.43 2.86 2.51 3.96"></polygon>
                <polygon id="Shape" fill="#FFFFFF" fill-rule="nonzero" points="3.41 3.89 3.39 3.88 4.11 2.64 3.41 3.89"></polygon>
                <polygon id="Shape" fill="#FFFFFF" fill-rule="nonzero" points="4.23 3.98 3.42 2.61 3.44 2.6 4.23 3.98"></polygon>
                <path d="M4,3.22 C4.01607341,3.33085301 3.95934432,3.43953981 3.8592101,3.48973823 C3.75907587,3.53993665 3.63804766,3.52036158 3.55884304,3.44115696 C3.47963842,3.36195234 3.46006335,3.24092413 3.51026177,3.1407899 C3.56046019,3.04065568 3.66914699,2.98392659 3.78,3 C3.92359403,3 4.04,3.11640597 4.04,3.26 L4,3.22 Z" id="Shape" fill="#95D4FD" fill-rule="nonzero"></path>
                <path d="M5.23,4.26 L4.35,4.26 C4.35,4.26 4.35,4.39 4.41,4.39 C4.67930445,4.36259208 4.95069555,4.36259208 5.22,4.39 C5.22,4.45 4.51,4.48 4.51,4.48 C4.73937191,4.45596173 4.97062809,4.45596173 5.2,4.48 C5.2,4.48 4.84,4.54 4.87,4.55 C5.03609946,4.5305542 5.20390054,4.5305542 5.37,4.55 C5.37,4.55 5.18,4.63 5.18,4.63 L5.54,4.63 L5.22,4.08 L5.23,4.26 Z" id="Shape" fill="#487BA2" fill-rule="nonzero"></path>
                <path d="M3.65,3 C3.65,3 3.72,3 3.71,3.09 C3.68944011,3.13990071 3.66255328,3.18695266 3.63,3.23 C3.63,3.23 3.73,3.42 3.85,3.34 C3.8914875,3.31514122 3.92122569,3.27463257 3.93251277,3.22760307 C3.94379985,3.18057356 3.93568609,3.13098045 3.91,3.09 C3.82,3.03 3.76,2.94 3.65,3 Z" id="Shape" fill="#C0003B" fill-rule="nonzero"></path>
                <path d="M3.82,3.38 L3.74,3.31 C3.74,3.31 3.67,3.31 3.65,3.31 C3.63,3.31 3.65,3.31 3.65,3.31 C3.65,3.31 3.73,3.31 3.75,3.31 C3.77,3.31 3.83,3.37 3.82,3.39 L3.82,3.38 Z" id="Shape" fill="#000000" fill-rule="nonzero"></path>
                <path d="M3,3.58 C3.1,3.58 3.13,3.67 3.17,3.7 L3.32,3.7 L3.43,3.77 C3.43,3.77 3.43,3.66 3.52,3.65 C3.61,3.64 3.77,3.78 3.77,3.78 C3.77,3.78 3.77,3.65 3.85,3.67 C3.96130596,3.73634549 4.06819651,3.80983274 4.17,3.89 C4.17668092,3.85012287 4.2029944,3.81629126 4.24,3.8 C4.3,3.8 4.49,3.9 4.49,3.9 C4.49,3.9 4.49,3.8 4.55,3.8 C4.61,3.8 5.04,4.21 5.13,4.22 C5.22,4.23 4.99,4.28 4.99,4.28 C4.99,4.28 4.99,4.28 4.99,4.28 C4.81017613,4.29126101 4.62982387,4.29126101 4.45,4.28 C4.45,4.28 4.45,4.28 4.45,4.28 C4.45,4.28 2.18,4.28 2.18,4.28 C2.39512068,3.98602043 2.67590626,3.74632542 3,3.58 Z" id="Shape" fill="#5B7133" fill-rule="nonzero"></path>
                <path d="M3.92,4.43 C4,4.43 3.92,4.19 3.51,3.86 C4.19,4.33 3.76,4.4 4.46,4.42 L3.92,4.43 Z" id="Shape" fill="#263732" fill-rule="nonzero"></path>
                <path d="M3.81,3.84 L4.48,4.36 L4.62,4.36 C4.32840179,4.21877727 4.05617021,4.04065044 3.81,3.83 L3.81,3.84 Z" id="Shape" fill="#263732" fill-rule="nonzero"></path>
                <path d="M4.19,3.94 C4.19,3.94 4.73,4.37 4.65,4.37 C4.77321017,4.37779504 4.89678983,4.37779504 5.02,4.37 C4.67,4.37 4.74,4.37 4.2,3.95 L4.19,3.94 Z" id="Shape" fill="#263732" fill-rule="nonzero"></path>
                <path d="M4.52,4 L5,4.36 L5.11,4.36 C4.97,4.36 4.94,4.36 4.52,4.04 L4.52,4 Z" id="Shape" fill="#263732" fill-rule="nonzero"></path>
                <path d="M3.11,3.62 C3.11,3.62 3.11,3.69 3.18,3.71 C3.31482426,3.77491478 3.43946761,3.85913325 3.55,3.96 C3.67,4.09 3.86,4.25 3.79,4.27 C3.72,4.29 3.66,4.22 3.66,4.22 C3.66,4.22 3.75,4.37 3.66,4.38 C3.57,4.39 3.24,3.93 3.24,3.93 C3.24,3.93 3.38,4.34 3.24,4.33 C3.1,4.32 3,4 3,4 C3,4 3,4.14 2.91,4.14 C2.82,4.14 2.91,3.96 2.91,3.96 C2.91,3.96 2.7,4.32 2.62,4.28 C2.54,4.24 2.95,3.59 3.11,3.62 Z" id="Shape" fill="#93C438" fill-rule="nonzero"></path>
                <path d="M3.55,3.75 C3.55,3.75 3.55,3.75 3.64,3.75 C3.85565681,3.88901157 4.0537548,4.05353363 4.23,4.24 C4.23,4.24 3.58,3.94 3.55,3.74 L3.55,3.75 Z" id="Shape" fill="#93C438" fill-rule="nonzero"></path>
                <path d="M4,3.81 C4,3.81 4.42,4.27 4.53,4.24 C4.64,4.21 4,3.82 4,3.81 Z" id="Shape" fill="#93C438" fill-rule="nonzero"></path>
                <path d="M4.27,3.86 C4.22,3.86 4.72,4.31 4.83,4.29 C4.94,4.27 4.35,3.87 4.27,3.86 Z" id="Shape" fill="#93C438" fill-rule="nonzero"></path>
                <path d="M4.57,3.88 C4.51,3.88 4.95,4.22 5,4.22 C5.05,4.22 4.7,3.86 4.57,3.88 Z" id="Shape" fill="#93C438" fill-rule="nonzero"></path>
                <path d="M3.08,3 C3.25992683,2.80389801 3.51386159,2.69226163 3.78,2.69226163 C4.04613841,2.69226163 4.30007317,2.80389801 4.48,3 L4.37,2.81 C4.02673092,2.51892584 3.52326908,2.51892584 3.18,2.81 L3.08,3 Z" id="Shape" fill="#B0008A" fill-rule="nonzero"></path>
                <path d="M4.31,2.66 C4.15579866,2.54970561 3.96947318,2.49345641 3.78,2.5 C3.59032886,2.49190986 3.40351045,2.54830787 3.25,2.66 L3.16,2.81 C3.51146339,2.50016128 4.03853661,2.50016128 4.39,2.81 L4.31,2.66 Z" id="Shape" fill="#C0003B" fill-rule="nonzero"></path>
                <path d="M4.24,2.52 C4.10273274,2.43249475 3.94276396,2.38728618 3.78,2.39 C3.62458065,2.38465042 3.4711838,2.42648593 3.34,2.51 L3.25,2.67 C3.40281775,2.548569 3.59517955,2.48801066 3.79,2.5 C3.98482045,2.48801066 4.17718225,2.548569 4.33,2.67 L4.24,2.52 Z" id="Shape" fill="#F3CD2D" fill-rule="nonzero"></path>
                <path d="M4.16,2.4 L4.24,2.54 C4.09988443,2.45058304 3.9361494,2.40529463 3.77,2.41 C3.60369904,2.40402561 3.43959347,2.44941652 3.3,2.54 L3.38,2.4 C3.49514269,2.3334917 3.62725825,2.30220117 3.76,2.31 C3.89167656,2.30029529 4.023413,2.32802927 4.14,2.39 L4.16,2.4 Z" id="Shape" fill="#93C438" fill-rule="nonzero"></path>
                <path d="M4.1,2.3 L4.17,2.42 C4.04667591,2.36746347 3.91404795,2.34025773 3.78,2.34 C3.63974737,2.34387595 3.50251277,2.38161547 3.38,2.45 L3.45,2.33 C3.55551622,2.27807376 3.67255324,2.2539779 3.79,2.26 C3.89565686,2.23924309 4.00434314,2.23924309 4.11,2.26 L4.1,2.3 Z" id="Shape" fill="#6091BE" fill-rule="nonzero"></path>
                <path d="M4.07,2.24 L4.12,2.34 C4.01510805,2.28627583 3.89758348,2.26207959 3.78,2.27 C3.66245088,2.26257722 3.54505696,2.28674656 3.44,2.34 L3.5,2.24 C3.5960311,2.22432353 3.6939689,2.22432353 3.79,2.24 C3.88585944,2.22233286 3.98414056,2.22233286 4.08,2.24 L4.07,2.24 Z" id="Shape" fill="#2F4791" fill-rule="nonzero"></path>
                <path d="M3.35,4.48 L4.23,4.48 C4.23,4.48 4.08,4.48 4.08,4.48 C4.18649545,4.48854703 4.29350455,4.48854703 4.4,4.48 C4.4,4.48 4.21,4.48 4.21,4.48 C4.21,4.48 4.3,4.48 4.3,4.48 C4.3,4.48 4.13,4.48 4.13,4.48 C4.19980599,4.48737037 4.27019401,4.48737037 4.34,4.48 C4.24371392,4.46786909 4.14628608,4.46786909 4.05,4.48 C4.05,4.48 4.25,4.55 4.25,4.55 L3.09,4.55 C3.09,4.55 3.27,4.55 3.27,4.49 C3.27,4.43 3.14,4.49 3.14,4.49 C3.30649598,4.50066735 3.47350402,4.50066735 3.64,4.49 C3.64,4.49 3.54,4.49 3.54,4.49 C3.54,4.49 3.73,4.49 3.74,4.49 C3.75,4.49 3.49,4.43 3.49,4.43 C3.49,4.43 3.65,4.43 3.67,4.43 C3.69,4.43 3.38,4.37 3.38,4.37 L3.35,4.48 Z" id="Shape" fill="#FFFFFF" fill-rule="nonzero"></path>
                <path d="M3.18,4.5 C2.86186446,4.50466792 2.54443589,4.53139875 2.23,4.58 C2.15,4.58 2.72,4.68 2.72,4.68 C2.51171759,4.67619198 2.30368717,4.69632395 2.1,4.74 C2.1,4.79 2.45,4.74 2.45,4.74 L2.01,4.74 L2.22,4.38 L3.18,4.5 Z" id="Shape" fill="#487BA2" fill-rule="nonzero"></path>
                <path d="M1.24,4.56 C1.25502137,4.58091574 1.25502137,4.60908426 1.24,4.63 C1.21812321,4.62046206 1.20397916,4.59886558 1.20397916,4.575 C1.20397916,4.55113442 1.21812321,4.52953794 1.24,4.52 C1.25944218,4.50094286 1.29055782,4.50094286 1.31,4.52 L1.24,4.56 Z" id="Shape" fill="#F3CD2D" fill-rule="nonzero"></path>
                <circle id="Oval" transform="translate(1.746613, 4.860485) rotate(-18.460000) translate(-1.746613, -4.860485) " cx="1.30661316" cy="4.42048516" r="1"></circle>
                <path d="M1.33,5.12 C1.33,5.12 1.27,5.17 1.33,5.22 L1.24,5.02 C1.24,5.02 1.24,5.02 1.24,5.02 L1.3,4.97 L1.23,4.82 L1.14,4.82 C1.14,4.82 1.14,4.82 1.14,4.89 L1.07,4.74 C1.07,4.74 1.14,4.74 1.2,4.74 L1.54,4.74 L1.6,4.81 L1.33,5.12 Z M1.5,4.82 L1.29,4.82 L1.35,4.94 L1.5,4.82 Z" id="Shape" fill="#F3CD2D" fill-rule="nonzero"></path>
                <path d="M1.64,5.61 C1.64,5.61 1.64,5.61 1.64,5.69 L1.51,5.51 C1.51,5.51 1.51,5.51 1.59,5.51 L1.85,5.32 L1.44,5.45 L1.67,5.1 L1.47,5.25 C1.39,5.31 1.38,5.32 1.41,5.37 L1.32,5.24 C1.32,5.24 1.37,5.24 1.45,5.24 L1.64,5.1 C1.64,5.1 1.64,5.1 1.64,5.02 L1.75,5.17 L1.58,5.42 L1.87,5.33 L1.98,5.47 C1.98,5.47 1.98,5.47 1.9,5.47 L1.64,5.61 Z" id="Shape" fill="#F3CD2D" fill-rule="nonzero"></path>
                <path d="M1.71,5.78 C1.71,5.78 1.76,5.78 1.79,5.78 L1.99,5.55 C1.99,5.55 1.99,5.5 1.99,5.47 L2.27,5.72 L2.27,5.83 C2.27729976,5.75925004 2.25145613,5.68910305 2.2,5.64 C2.2,5.64 2.15,5.64 2.12,5.64 L2.04,5.73 C2.0774224,5.76200877 2.1325776,5.76200877 2.17,5.73 L2,5.9 C2.01772638,5.88302372 2.0277505,5.85954422 2.0277505,5.835 C2.0277505,5.81045578 2.01772638,5.78697628 2,5.77 L1.91,5.87 C1.91,5.87 1.91,5.87 1.91,5.95 C1.96779894,5.99985619 2.04458631,6.02179543 2.12,6.01 L2,6 L1.72,5.75 L1.71,5.78 Z" id="Shape" fill="#F3CD2D" fill-rule="nonzero"></path>
                <path d="M2.43,6.22 C2.43,6.22 2.43,6.31 2.43,6.35 L2.3,6.27 C2.29894664,6.25001387 2.29894664,6.22998613 2.3,6.21 L2.3,6.12 C2.3,6.03 2.3,6.01 2.3,6 L2.23,6.12 C2.23,6.12 2.23,6.18 2.23,6.2 L2.04,6.08 C2.04,6.08 2.1,6.08 2.12,6.08 L2.28,5.82 C2.28,5.82 2.28,5.76 2.28,5.74 L2.51,5.88 C2.59,5.88 2.61,6 2.57,6.06 C2.53,6.12 2.47,6.11 2.41,6.06 C2.41640021,6.08289445 2.41640021,6.10710555 2.41,6.13 L2.43,6.22 Z M2.34,6 C2.43,6.06 2.47,6 2.51,6 C2.55,6 2.51,5.91 2.51,5.87 C2.51,5.83 2.51,5.87 2.45,5.87 L2.38,5.99 L2.34,6 Z" id="Shape" fill="#F3CD2D" fill-rule="nonzero"></path>
                <path d="M2.69,6 C2.69,6 2.69,5.94 2.69,5.92 L2.89,6.01 C2.89,6.01 2.83,6.01 2.81,6.01 L2.69,6.29 C2.69,6.29 2.69,6.35 2.69,6.37 L2.49,6.28 C2.49,6.28 2.55,6.28 2.57,6.28 L2.69,6 Z" id="Shape" fill="#F3CD2D" fill-rule="nonzero"></path>
                <path d="M3.19,6.28 C3.18541019,6.21054353 3.14320703,6.14915713 3.08,6.12 C2.99,6.12 2.94,6.2 2.91,6.27 C2.88,6.34 2.91,6.5 2.98,6.52 C3.02729687,6.54325138 3.08270313,6.54325138 3.13,6.52 C3.07485792,6.58154143 2.98875113,6.6050251 2.91,6.58 C2.79746573,6.53783744 2.73958632,6.4131741 2.78,6.3 C2.80980194,6.17450851 2.93346181,6.09501288 3.06,6.12 L3.12,6.12 L3.19,6.28 Z" id="Shape" fill="#F3CD2D" fill-rule="nonzero"></path>
                <path d="M3.5,6.56 C3.5,6.56 3.5,6.64 3.56,6.65 L3.34,6.65 C3.34,6.65 3.39,6.65 3.39,6.65 L3.39,6.57 L3.23,6.57 C3.22676468,6.58650966 3.22676468,6.60349034 3.23,6.62 C3.23,6.62 3.23,6.62 3.23,6.68 L3.07,6.68 C3.13,6.68 3.15,6.68 3.17,6.6 L3.34,6.3 L3.43,6.3 L3.5,6.56 Z M3.35,6.24 L3.25,6.43 L3.39,6.43 L3.35,6.24 Z" id="Shape" fill="#F3CD2D" fill-rule="nonzero"></path>
                <path d="M4.14,6.32 C4.11373802,6.25289509 4.05177406,6.20642212 3.98,6.2 C3.89,6.2 3.87,6.33 3.88,6.4 C3.89,6.47 3.97,6.61 4.04,6.61 C4.09842195,6.60310025 4.14834554,6.56469748 4.17,6.51 C4.1427694,6.58801596 4.07231839,6.6428112 3.99,6.65 C3.87229783,6.65012165 3.77535004,6.55758058 3.77,6.44 C3.75204057,6.31055916 3.84094353,6.19054017 3.97,6.17 L4,6.17 L4.14,6.32 Z" id="Shape" fill="#F3CD2D" fill-rule="nonzero"></path>
                <path d="M4.23,6.62 C4.23,6.62 4.29,6.62 4.23,6.55 L4.16,6.25 C4.16,6.25 4.16,6.2 4.09,6.25 L4.45,6.16 L4.51,6.27 C4.45598256,6.22052753 4.38232968,6.19843167 4.31,6.21 C4.26,6.21 4.31,6.21 4.31,6.29 L4.31,6.41 C4.37,6.41 4.4,6.41 4.4,6.31 L4.4,6.49 C4.39154168,6.46437369 4.37203054,6.44389523 4.34684316,6.43420778 C4.32165578,6.42452033 4.29345061,6.42664635 4.27,6.44 L4.27,6.57 C4.27,6.57 4.27,6.63 4.33,6.57 C4.40398829,6.54961469 4.46580553,6.49870637 4.5,6.43 L4.5,6.55 L4.13,6.64 L4.23,6.62 Z" id="Shape" fill="#F3CD2D" fill-rule="nonzero"></path>
                <path d="M5,6.24 L4.92,6 C4.92,6 4.92,5.93 4.82,5.95 L4.97,5.89 C4.92,5.89 4.97,5.95 4.97,6 L5.11,6.32 L5.06,6.32 L4.69,6.09 L4.78,6.31 C4.78,6.37 4.78,6.38 4.89,6.37 L4.73,6.44 C4.78,6.44 4.78,6.39 4.73,6.33 L4.62,6.06 L4.54,6.06 L4.68,6 L5,6.24 Z" id="Shape" fill="#F3CD2D" fill-rule="nonzero"></path>
                <path d="M5.3,5.68 L5.4,5.77 C5.34339049,5.74147428 5.27660951,5.74147428 5.22,5.77 L5.42,6.06 C5.42,6.06 5.42,6.06 5.5,6.06 L5.32,6.19 C5.32,6.19 5.32,6.19 5.32,6.11 L5.12,5.82 C5.07545694,5.86476302 5.05342234,5.92719438 5.06,5.99 L5.06,5.87 L5.3,5.68 Z" id="Shape" fill="#F3CD2D" fill-rule="nonzero"></path>
                <path d="M5.83,5.65 C5.83,5.65 5.92,5.65 5.96,5.65 L5.85,5.76 L5.79,5.76 L5.71,5.76 C5.63,5.76 5.6,5.76 5.59,5.76 L5.69,5.86 C5.69,5.86 5.74,5.86 5.77,5.86 L5.61,6.02 C5.62259029,6.01055728 5.63,5.99573787 5.63,5.98 C5.63,5.96426213 5.62259029,5.94944272 5.61,5.94 L5.4,5.72 C5.4,5.72 5.35,5.72 5.32,5.72 L5.51,5.53 C5.58,5.47 5.65,5.46 5.7,5.53 C5.74218456,5.57881577 5.74218456,5.65118423 5.7,5.7 C5.72257131,5.69156663 5.74742869,5.69156663 5.77,5.7 L5.83,5.65 Z M5.59,5.65 C5.66,5.58 5.66,5.53 5.59,5.48 C5.52,5.43 5.5,5.48 5.46,5.48 C5.42,5.48 5.46,5.48 5.46,5.55 L5.55,5.65 L5.59,5.65 Z" id="Shape" fill="#F3CD2D" fill-rule="nonzero"></path>
                <path d="M6.15,5.24 C6.15,5.24 6.23,5.24 6.26,5.24 L6.13,5.42 C6.13,5.42 6.13,5.42 6.13,5.36 L6.06,5.36 L5.97,5.49 C5.97,5.49 6.02,5.49 6.04,5.49 L5.94,5.62 C5.96322226,5.57977786 5.96322226,5.53022214 5.94,5.49 L5.75,5.2 L5.75,5.11 L6.15,5.24 Z M5.8,5.24 L5.92,5.42 L6,5.3 L5.8,5.24 Z" id="Shape" fill="#F3CD2D" fill-rule="nonzero"></path>
                <path d="M6.26,5.2 C6.26,5.2 6.26,5.14 6.26,5.12 L6,5 C6,5 5.94,5 5.92,5 L6.02,4.8 C6.02,4.8 6.02,4.86 6.02,4.88 L6.29,5.01 C6.29,5.01 6.29,5.01 6.36,5.01 C6.39123125,4.93999186 6.39123125,4.86000814 6.36,4.79 L6.45,4.88 L6.28,5.22 L6.26,5.2 Z" id="Shape" fill="#F3CD2D" fill-rule="nonzero"></path>
                <path d="M6.31,4.56 C6.32519835,4.53883784 6.35231709,4.52990276 6.37711823,4.53788591 C6.40191936,4.54586906 6.41873397,4.56894569 6.41873397,4.595 C6.41873397,4.62105431 6.40191936,4.64413094 6.37711823,4.65211409 C6.35231709,4.66009724 6.32519835,4.65116216 6.31,4.63 C6.29497863,4.60908426 6.29497863,4.58091574 6.31,4.56 Z" id="Shape" fill="#F3CD2D" fill-rule="nonzero"></path>
                <path d="M1.24,4 C1.24,4 1.31,3.94 1.31,3.89 L1.31,4.05 L1.24,4.05 C1.16,4.05 1.16,4.13 1.17,4.15 L1.31,4.15 C1.31,4.15 1.36,4.15 1.31,4.08 L1.31,4.3 C1.31,4.3 1.31,4.24 1.24,4.25 L0.94,4.25 C0.94,4.25 0.89,4.25 0.94,4.32 L0.94,4.05 C0.94,3.96 0.94,3.89 1.03,3.88 C1.12,3.87 1.14,3.88 1.16,3.98 L1.24,4 Z M1.13,4.22 C1.13,4.12 1.08,4.09 1.01,4.1 C0.94,4.11 0.93,4.1 0.94,4.21 C0.95,4.32 0.94,4.21 1,4.21 L1.13,4.21 L1.13,4.22 Z" id="Shape" fill="#F3CD2D" fill-rule="nonzero"></path>
                <path d="M1.32,3.86 C1.32,3.86 1.32,3.8 1.26,3.8 L1,3.8 C1,3.8 0.94,3.8 0.94,3.86 L0.94,3.47 L1.06,3.47 C1.00005361,3.50766814 0.959797297,3.56988245 0.95,3.64 C0.95,3.7 0.95,3.7 1.01,3.7 L1.13,3.7 C1.13,3.64 1.13,3.61 1.06,3.59 L1.24,3.59 C1.18,3.59 1.16,3.59 1.16,3.7 L1.29,3.7 C1.29,3.7 1.35,3.7 1.35,3.7 C1.35096125,3.62332329 1.31802547,3.55013269 1.26,3.5 L1.38,3.55 L1.38,3.93 L1.32,3.86 Z" id="Shape" fill="#F3CD2D" fill-rule="nonzero"></path>
                <path d="M1.19,3.21 L1.32,3.21 C1.32,3.21 1.38,3.21 1.39,3.21 L1.39,3.43 C1.39,3.43 1.39,3.37 1.39,3.36 L1,3.27 C1,3.27 0.94,3.27 0.93,3.27 L0.93,3.05 C0.93,2.91 1.03,2.87 1.09,2.89 C1.15,2.91 1.19,3.03 1.17,3.11 L1.19,3.21 Z M1.19,3.21 C1.19,3.13 1.19,3.09 1.11,3.08 C1.08477643,3.07068974 1.05671134,3.07314434 1.03348695,3.08669191 C1.01026255,3.10023947 0.994311477,3.12346097 0.99,3.15 C0.99,3.15 0.99,3.2 0.99,3.21 L1.19,3.21 Z" id="Shape" fill="#F3CD2D" fill-rule="nonzero"></path>
                <path d="M1.35,2.83 C1.45,2.83 1.5,2.83 1.52,2.83 C1.54,2.83 1.52,2.7 1.43,2.66 L1.23,2.58 C1.23,2.58 1.17,2.58 1.15,2.58 L1.21,2.44 C1.21,2.44 1.21,2.5 1.21,2.52 L1.42,2.6 C1.46488455,2.61231922 1.50150733,2.64477659 1.51913059,2.68785567 C1.53675385,2.73093474 1.53338064,2.77975411 1.51,2.82 C1.51,2.94 1.39,2.97 1.3,2.94 L1.08,2.85 C1.08,2.85 1.02,2.85 1,2.85 L1.08,2.64 C1.08,2.64 1.08,2.7 1.08,2.72 L1.35,2.83 Z" id="Shape" fill="#F3CD2D" fill-rule="nonzero"></path>
                <path d="M1.6,2.62 C1.6,2.62 1.6,2.56 1.6,2.54 L1.35,2.38 C1.35,2.38 1.29,2.38 1.27,2.38 L1.39,2.19 C1.48,2.05 1.54,2.05 1.58,2.08 C1.62,2.11 1.58,2.19 1.58,2.24 C1.58,2.19 1.69,2.14 1.76,2.19 C1.83,2.24 1.83,2.3 1.76,2.4 L1.6,2.62 Z M1.49,2.31 C1.49,2.24 1.49,2.2 1.49,2.16 C1.49,2.12 1.4,2.16 1.37,2.16 L1.48,2.23 L1.49,2.31 Z M1.61,2.43 C1.61,2.43 1.67,2.43 1.71,2.43 C1.73513807,2.41332529 1.75025063,2.38516568 1.75025063,2.355 C1.75025063,2.32483432 1.73513807,2.29667471 1.71,2.28 C1.71,2.28 1.62,2.28 1.55,2.34 L1.61,2.43 Z" id="Shape" fill="#F3CD2D" fill-rule="nonzero"></path>
                <path d="M1.83,2.22 C1.83,2.22 1.83,2.17 1.83,2.14 L1.61,1.94 C1.61,1.94 1.56,1.94 1.53,1.94 L1.68,1.77 C1.68,1.77 1.68,1.82 1.68,1.85 L1.9,2.05 C1.9,2.05 1.9,2.05 1.97,2.05 C1.99952667,1.98311366 1.99952667,1.90688634 1.97,1.84 L2.1,2 L1.85,2.28 L1.83,2.22 Z" id="Shape" fill="#F3CD2D" fill-rule="nonzero"></path>
                <path d="M1.94,1.59 C1.94,1.59 1.89,1.59 1.86,1.59 L2,1.43 C2,1.43 2,1.43 2,1.52 L2.19,1.75 C2.19,1.75 2.19,1.75 2.27,1.75 L2.1,1.89 C2.1,1.89 2.1,1.89 2.1,1.81 L1.94,1.59 Z" id="Shape" fill="#F3CD2D" fill-rule="nonzero"></path>
                <path d="M2.47,1.28 C2.40872747,1.24207326 2.33127253,1.24207326 2.27,1.28 C2.19,1.33 2.27,1.45 2.27,1.51 C2.27,1.57 2.45,1.65 2.51,1.61 C2.5556279,1.57450958 2.57856475,1.51716748 2.57,1.46 C2.57942028,1.54333878 2.54063698,1.62478372 2.47,1.67 C2.4202942,1.70195449 2.35942572,1.71148865 2.30232984,1.69626308 C2.24523397,1.68103752 2.19719491,1.64246135 2.17,1.59 C2.082379,1.49744873 2.082379,1.35255127 2.17,1.26 L2.22,1.26 L2.47,1.28 Z" id="Shape" fill="#F3CD2D" fill-rule="nonzero"></path>
                <path d="M3,1.31 C3,1.31 3,1.37 3.1,1.31 L2.9,1.39 C2.9,1.39 2.9,1.39 2.9,1.39 L2.9,1.33 L2.75,1.39 C2.74753562,1.40657557 2.74753562,1.42342443 2.75,1.44 C2.75,1.44 2.75,1.44 2.82,1.44 L2.67,1.5 C2.67,1.5 2.67,1.43 2.67,1.38 L2.67,1.07 L2.73,1 L3,1.31 Z M2.71,1.11 L2.71,1.32 L2.84,1.27 L2.71,1.11 Z" id="Shape" fill="#F3CD2D" fill-rule="nonzero"></path>
                <path d="M3.27,1.31 C3.27,1.31 3.33,1.31 3.32,1.24 L3.32,0.94 C3.32,0.94 3.32,0.88 3.25,0.89 L3.47,0.89 L3.58,0.89 C3.67064285,0.915549675 3.7349707,0.99595949 3.74,1.09 C3.7515815,1.17889572 3.70806547,1.26592777 3.63,1.31 L3.52,1.31 L3.31,1.31 L3.27,1.31 Z M3.43,1.23 C3.43,1.23 3.43,1.29 3.49,1.28 C3.55,1.27 3.62,1.22 3.6,1.05 C3.58,0.88 3.52,0.86 3.44,0.87 C3.36,0.88 3.44,0.87 3.44,0.93 L3.43,1.23 Z" id="Shape" fill="#F3CD2D" fill-rule="nonzero"></path>
                <path d="M3.74,1.26 C3.74,1.26 3.8,1.26 3.8,1.21 L3.8,0.91 C3.8,0.91 3.8,0.85 3.74,0.85 L4.11,0.85 L4.11,0.97 C4.08656321,0.922137389 4.04786261,0.883436787 4,0.86 C3.95,0.86 3.95,0.86 3.94,0.92 L3.94,1 C4,1 4,1 4,1 L4,1.18 C4,1.12 4,1.1 3.9,1.1 L3.9,1.2 C3.9,1.2 3.9,1.26 3.9,1.26 C3.97696992,1.26240412 4.05075276,1.22920184 4.1,1.17 L4.05,1.28 L3.68,1.28 L3.74,1.26 Z" id="Shape" fill="#F3CD2D" fill-rule="nonzero"></path>
                <path d="M4.73,1.33 L4.8,1.13 C4.8,1.08 4.8,1.05 4.8,1.02 L4.8,1 L4.96,1.05 C4.9,1.05 4.89,1.05 4.87,1.12 L4.76,1.45 L4.71,1.45 L4.54,1 L4.46,1.23 C4.46,1.29 4.46,1.31 4.46,1.34 L4.29,1.28 C4.35,1.28 4.37,1.28 4.38,1.22 L4.52,1 C4.50797444,0.973360377 4.48663962,0.952025558 4.46,0.94 L4.61,0.99 L4.73,1.33 Z" id="Shape" fill="#F3CD2D" fill-rule="nonzero"></path>
                <path d="M5,1.18 C5,1.18 5,1.12 5,1.1 L5.2,1.2 C5.2,1.2 5.14,1.2 5.12,1.2 L5,1.5 C5,1.5 5,1.56 5,1.58 L4.8,1.48 C4.8,1.48 4.86,1.48 4.88,1.48 L5,1.18 Z" id="Shape" fill="#F3CD2D" fill-rule="nonzero"></path>
                <path d="M5.49,1.55 C5.51241424,1.48235295 5.49280861,1.40785157 5.44,1.36 C5.36,1.31 5.28,1.36 5.24,1.46 C5.2,1.56 5.18,1.68 5.24,1.72 C5.28950417,1.74858125 5.35049583,1.74858125 5.4,1.72 C5.33014846,1.76571622 5.23985154,1.76571622 5.17,1.72 C5.09124636,1.63550534 5.09124636,1.50449466 5.17,1.42 C5.19948767,1.36458448 5.25034383,1.32362903 5.31077196,1.30663362 C5.37120008,1.28963821 5.43594913,1.29807969 5.49,1.33 L5.54,1.33 L5.49,1.55 Z" id="Shape" fill="#F3CD2D" fill-rule="nonzero"></path>
                <path d="M5.67,2 C5.67,2 5.67,2.07 5.67,2.11 L5.5,2 C5.5,2 5.5,2 5.55,2 L5.55,1.93 L5.44,1.82 C5.44,1.82 5.44,1.82 5.44,1.89 L5.32,1.77 C5.36022214,1.79322226 5.40977786,1.79322226 5.45,1.77 L5.76,1.62 L5.85,1.62 L5.67,2 Z M5.73,1.66 L5.54,1.75 L5.64,1.85 L5.73,1.66 Z" id="Shape" fill="#F3CD2D" fill-rule="nonzero"></path>
                <path d="M6,2.43 C5.97449494,2.4695804 5.97449494,2.5204196 6,2.56 L5.91,2.43 L5.91,2.38 L5.91,2.31 C5.91,2.23 5.91,2.21 5.91,2.19 L5.79,2.27 C5.79,2.27 5.79,2.27 5.79,2.35 L5.66,2.17 C5.66,2.17 5.66,2.17 5.74,2.17 L6,2 C6,2 6,2 6,1.92 L6.15,2.14 C6.15,2.22 6.15,2.29 6.15,2.33 C6.1044479,2.37074304 6.0355521,2.37074304 5.99,2.33 C5.99404082,2.3497959 5.99404082,2.3702041 5.99,2.39 L6,2.43 Z M6,2.19 C6.06,2.28 6.1,2.28 6.16,2.24 C6.22,2.2 6.16,2.16 6.16,2.11 C6.16,2.06 6.16,2.11 6.09,2.11 L6,2.17 L6,2.19 Z" id="Shape" fill="#F3CD2D" fill-rule="nonzero"></path>
                <path d="M6.19,2.94 C6.19,2.94 6.13,2.94 6.19,3.04 L6,2.84 C6,2.84 6,2.84 6,2.84 L6.06,2.84 L6,2.69 C6,2.69 6,2.69 6,2.76 L5.94,2.61 C5.94,2.61 6.01,2.61 6.06,2.61 L6.41,2.61 L6.47,2.68 L6.19,2.94 Z M6.38,2.65 L6.17,2.65 L6.22,2.78 L6.38,2.65 Z" id="Shape" fill="#F3CD2D" fill-rule="nonzero"></path>
                <path d="M6.53,3.38 C6.59,3.31 6.62,3.26 6.61,3.21 C6.6,3.16 6.53,3.1 6.37,3.13 C6.21,3.16 6.17,3.22 6.18,3.29 C6.19,3.36 6.24,3.36 6.3,3.35 C6.36,3.34 6.35,3.35 6.3,3.28 L6.3,3.49 C6.3,3.49 6.3,3.44 6.22,3.49 L6.13,3.49 C6.13429433,3.46350622 6.13429433,3.43649378 6.13,3.41 C6.1254744,3.38017068 6.1254744,3.34982932 6.13,3.32 C6.0875387,3.25192317 6.08757826,3.16560159 6.13010194,3.09756371 C6.17262561,3.02952583 6.25020071,2.99166396 6.33,3 C6.45683684,2.96820257 6.58578613,3.04379353 6.62,3.17 C6.6238381,3.1864457 6.6238381,3.2035543 6.62,3.22 L6.53,3.38 Z" id="Shape" fill="#F3CD2D" fill-rule="nonzero"></path>
                <path d="M6.37,3.62 C6.26,3.62 6.23,3.62 6.23,3.73 C6.23,3.84 6.29,3.85 6.38,3.85 L6.6,3.85 C6.6,3.85 6.66,3.85 6.65,3.79 L6.65,3.95 C6.65,3.95 6.65,3.89 6.59,3.89 L6.37,3.89 C6.26,3.89 6.2,3.89 6.2,3.72 C6.2,3.55 6.25,3.53 6.35,3.53 L6.59,3.53 C6.59,3.53 6.64,3.53 6.64,3.47 L6.64,3.69 C6.64,3.69 6.64,3.63 6.58,3.63 L6.37,3.62 Z" id="Shape" fill="#F3CD2D" fill-rule="nonzero"></path>
                <path d="M6.25,4.33 C6.25,4.33 6.17,4.33 6.16,4.39 L6.16,4.17 C6.16,4.17 6.16,4.22 6.16,4.22 L6.27,4.22 L6.27,4.06 C6.27,4.06 6.27,4.06 6.21,4.06 L6.21,3.9 C6.21,3.96 6.21,3.98 6.29,4 L6.59,4.17 L6.59,4.26 L6.25,4.33 Z M6.56,4.18 L6.37,4.08 L6.37,4.22 L6.56,4.18 Z" id="Shape" fill="#F3CD2D" fill-rule="nonzero"></path>
            </g>
        </g>
    </g>
</svg>