<?xml version="1.0" encoding="utf-8"?>
<!-- Generator: Adobe Illustrator 21.0.0, SVG Export Plug-In . SVG Version: 6.00 Build 0)  -->
<svg version="1.1" id="Layer_1" xmlns="http://www.w3.org/2000/svg" xmlns:xlink="http://www.w3.org/1999/xlink" x="0px" y="0px"
	 viewBox="0 0 200 200" style="enable-background:new 0 0 200 200;" xml:space="preserve">
<style type="text/css">
	.st0{fill:#77B900;}
</style>
<title>NVDA</title>
<path id="path21" class="st0" d="M20.3,90.8C20.2,91.1,41,64.1,74.2,61.6v-9.6C34.5,55.1,0,88.8,0,88.8s20.4,56.4,75.2,61.6v-10.2
	C35,135.1,20.3,90.8,20.3,90.8z M75.2,119.8v9.4c-30.3-5.4-39.7-37-39.7-37S51,76.1,75.2,73.5v10.3l0,0
	c-12.7-1.5-22.6,10.3-22.6,10.3S58.1,114.1,75.2,119.8 M74.3,34.2v17.8c1.2-0.1,2.3-0.2,3.5-0.2c45.3-1.5,75.6,37.1,75.6,37.1
	S119.6,130,84.3,130c-3,0-6.1-0.3-9.1-0.8v11c2.5,0.3,5,0.5,7.6,0.5c32.8,0,56.6-16.8,79.5-36.6c3.8,3.1,19.4,10.5,22.6,13.7
	c-21.9,18.3-72.8,33.1-101.7,33.1c-2.8,0-5.5-0.2-8.1-0.4v15.4h124.7L200,34.1L74.3,34.2z M75.2,73.5l-0.9-11.9
	c1.2-0.1,2.3-0.1,3.5-0.2c32.5-1,54.8,27.9,54.8,27.9s-23,32-47.8,32c-3.3,0-6.5-0.5-9.6-1.5V83.7c12.6,1.5,15.2,7.1,22.7,19.8
	l16.9-14.3c0,0-12.3-16.2-33.2-16.2C79.5,73.1,77.3,73.2,75.2,73.5"/>
</svg>
