<?xml version="1.0" encoding="utf-8"?>
<!-- Generator: Adobe Illustrator 21.0.0, SVG Export Plug-In . SVG Version: 6.00 Build 0)  -->
<svg version="1.1" id="Layer_1" xmlns="http://www.w3.org/2000/svg" xmlns:xlink="http://www.w3.org/1999/xlink" x="0px" y="0px"
	 viewBox="0 0 200 200" style="enable-background:new 0 0 200 200;" xml:space="preserve">
<style type="text/css">
	.st0{fill:#C2743F;}
	.st1{fill:#2F6A87;}
	.st2{fill:#DFB03D;}
</style>
<title>NVS</title>
<path class="st0" d="M93.6,200c-75.8-5.8-98.8-49.4-73.4-98.4c13.7-26.4,34.6-54.8,9.7-81.1c-0.7-0.9-0.1-1.4,0.9-1
	c56.7,22.6,27.2,68.2,17.5,87.1c-19.1,37.2-6.9,82.5,45.3,92.2C94.7,199.1,94.7,200.1,93.6,200z"/>
<path class="st1" d="M103.7,158.4L116.5,0.1h-30l16.1,158.4C102.7,159.6,103.6,159.5,103.7,158.4L103.7,158.4z"/>
<path class="st2" d="M138,78.7c18.7,14.7,49.2,96.5-25.3,120.2c-1.2,0.3-1.1,1.3,0,1.1c118.5-14.8,77.8-99.8,26.3-122.3
	C137.6,77,137,77.9,138,78.7z"/>
</svg>
