<?xml version="1.0" encoding="UTF-8"?>
<svg width="34px" height="20px" viewBox="0 0 34 20" version="1.1" xmlns="http://www.w3.org/2000/svg" xmlns:xlink="http://www.w3.org/1999/xlink">
    <!-- Generator: Sketch 49 (51002) - http://www.bohemiancoding.com/sketch -->
    <title>NZD</title>
    <desc>Created with Sketch.</desc>
    <defs></defs>
    <g id="Page-1" stroke="none" stroke-width="1" fill="none" fill-rule="evenodd">
        <g id="NZD" fill-rule="nonzero">
            <polygon id="Shape" fill="#1A237B" points="16.79 0 16.79 0.62 16.79 0.84 16.79 0.94 13.06 2.8 16.79 2.8 16.79 3.36 16.79 4.2 16.79 5.04 16.79 5.59 13.06 5.59 16.79 7.46 16.79 7.77 16.79 8.39 16.79 8.45 15.64 8.45 15.21 8.45 15.02 8.45 9.79 5.83 9.79 8.45 9.23 8.45 8.39 8.45 7.55 8.45 6.99 8.45 6.99 5.83 1.77 8.45 1.14 8.45 0 8.45 0 19.58 33.56 19.58 33.56 0"></polygon>
            <polygon id="Shape" fill="#1A237B" points="0 5.59 0 7.45 3.72 5.59"></polygon>
            <polygon id="Shape" fill="#1A237B" points="9.79 0 9.79 2.56 14.9 0"></polygon>
            <polygon id="Shape" fill="#1A237B" points="6.99 0 1.88 0 6.99 2.56"></polygon>
            <polygon id="Shape" fill="#1A237B" points="0 2.8 3.72 2.8 0 0.94"></polygon>
            <polygon id="Shape" fill="#FFFFFF" points="16.78 0 11.19 2.8 9.94 2.8 15.53 0 14.9 0 9.79 2.56 9.79 0 9.23 0 9.23 2.84 9.23 3.15 9.23 3.36 10.07 3.36 11.32 3.36 11.75 3.36 11.94 3.36 16.79 3.36 16.79 2.8 13.06 2.8 16.79 0.94 16.79 0.84 16.79 0.62 16.79 0"></polygon>
            <polygon id="Shape" fill="#FFFFFF" points="6.99 0 6.99 2.56 1.88 0 0 0 5.59 2.8 4.34 2.8 0 0.63 0 0.94 3.72 2.8 0 2.8 0 3.36 4.83 3.36 5.46 3.36 6.71 3.36 7.55 3.36 7.55 3.15 7.55 2.94 7.55 2.84 7.55 0"></polygon>
            <polygon id="Shape" fill="#FFFFFF" points="11.32 5.04 10.07 5.04 9.23 5.04 9.23 5.24 9.23 5.46 9.23 5.55 9.23 8.45 9.79 8.45 9.79 5.83 15.02 8.45 15.21 8.45 15.64 8.45 16.79 8.45 16.79 8.39 11.19 5.59 12.44 5.59 16.79 7.77 16.79 7.46 13.06 5.59 16.79 5.59 16.79 5.04 11.94 5.04"></polygon>
            <polygon id="Shape" fill="#FFFFFF" points="6.71 5.04 5.46 5.04 5.03 5.04 4.83 5.04 0 5.04 0 5.59 3.72 5.59 0 7.45 0 8.39 5.59 5.59 6.84 5.59 1.14 8.45 1.77 8.45 6.99 5.83 6.99 8.45 7.55 8.45 7.55 5.55 7.55 5.24 7.55 5.04"></polygon>
            <polygon id="Shape" fill="#BD0034" points="5.59 5.59 0 8.39 0 8.45 1.14 8.45 6.84 5.59"></polygon>
            <polygon id="Shape" fill="#BD0034" points="0 0.63 4.34 2.8 5.59 2.8 0 0"></polygon>
            <polygon id="Shape" fill="#BD0034" points="16.78 0 15.53 0 9.94 2.8 11.19 2.8"></polygon>
            <polygon id="Shape" fill="#BD0034" points="11.19 5.59 16.79 8.39 16.79 7.77 12.44 5.59"></polygon>
            <polygon id="Shape" fill="#BD0034" points="7.55 0 7.55 2.84 7.55 2.94 7.55 3.15 7.55 3.36 6.71 3.36 5.46 3.36 4.83 3.36 0 3.36 0 5.04 4.83 5.04 5.03 5.04 5.46 5.04 6.71 5.04 7.55 5.04 7.55 5.24 7.55 5.55 7.55 8.45 8.39 8.45 9.23 8.45 9.23 5.55 9.23 5.46 9.23 5.24 9.23 5.04 10.07 5.04 11.32 5.04 11.94 5.04 16.79 5.04 16.79 4.2 16.79 3.36 11.94 3.36 11.75 3.36 11.32 3.36 10.07 3.36 9.23 3.36 9.23 3.15 9.23 2.84 9.23 0"></polygon>
            <polygon id="Shape" fill="#FFFFFF" points="23.3 5.71 24.21 5.71 24.49 4.85 24.77 5.71 25.68 5.71 24.95 6.25 25.23 7.12 24.49 6.58 23.75 7.12 24.04 6.25"></polygon>
            <polygon id="Shape" fill="#BD0034" points="23.7 5.85 24.3 5.85 24.49 5.27 24.68 5.85 25.28 5.85 24.79 6.2 24.98 6.78 24.49 6.42 24 6.78 24.19 6.2"></polygon>
            <polygon id="Shape" fill="#FFFFFF" points="19.65 9.39 20.56 9.39 20.84 8.52 21.12 9.39 22.04 9.39 21.3 9.92 21.58 10.79 20.84 10.25 20.11 10.79 20.39 9.92"></polygon>
            <polygon id="Shape" fill="#BD0034" points="20.05 9.52 20.66 9.52 20.84 8.94 21.03 9.52 21.63 9.52 21.14 9.87 21.33 10.45 20.84 10.09 20.35 10.45 20.54 9.87"></polygon>
            <polygon id="Shape" fill="#FFFFFF" points="26.55 8.48 27.37 8.48 27.62 7.7 27.87 8.48 28.68 8.48 28.02 8.95 28.27 9.72 27.62 9.25 26.96 9.72 27.21 8.95"></polygon>
            <polygon id="Shape" fill="#BD0034" points="26.91 8.59 27.45 8.59 27.62 8.08 27.78 8.59 28.32 8.59 27.89 8.91 28.05 9.42 27.62 9.1 27.18 9.42 27.35 8.91"></polygon>
            <polygon id="Shape" fill="#FFFFFF" points="23.16 15.14 24.18 15.14 24.49 14.18 24.8 15.14 25.82 15.14 25 15.74 25.31 16.7 24.49 16.11 23.67 16.7 23.98 15.74"></polygon>
            <polygon id="Shape" fill="#BD0034" points="23.61 15.29 24.28 15.29 24.49 14.65 24.7 15.29 25.37 15.29 24.83 15.69 25.03 16.32 24.49 15.93 23.95 16.32 24.16 15.69"></polygon>
        </g>
    </g>
</svg>