<?xml version="1.0" encoding="utf-8"?>
<!-- Generator: Adobe Illustrator 21.0.0, SVG Export Plug-In . SVG Version: 6.00 Build 0)  -->
<svg version="1.1" id="Layer_1" xmlns="http://www.w3.org/2000/svg" xmlns:xlink="http://www.w3.org/1999/xlink" x="0px" y="0px"
	 viewBox="0 0 200 200" style="enable-background:new 0 0 200 200;" xml:space="preserve">
<style type="text/css">
	.st0{fill:#F80000;}
	.st1{fill:#FFFFFF;}
</style>
<title>ORCL</title>
<rect class="st0" width="200" height="200"/>
<path class="st1" d="M124,58.5H75.7c-22.9-0.3-41.8,18-42.1,41c-0.3,22.9,18,41.8,41,42.1c0.4,0,0.7,0,1.1,0H124
	c22.9-0.3,41.3-19.1,41-42.1C164.6,76.9,146.5,58.8,124,58.5z M122.8,126.9H76.8c-14.8,0-26.8-12-26.8-26.8s12-26.8,26.8-26.8h46.1
	c14.8,0,26.8,12,26.8,26.8S137.7,126.9,122.8,126.9L122.8,126.9z"/>
</svg>
