<svg id="Layer_1" data-name="Layer 1" xmlns="http://www.w3.org/2000/svg" viewBox="0 0 200 200"><defs><style>.cls-1{fill:#008542;}.cls-2{fill:#fff;}.cls-3{fill:#fdc82f;}</style></defs><title>PBR</title><rect class="cls-1" y="74.6" width="200" height="125.4"/><rect class="cls-2" y="49.7" width="200" height="24.9"/><path id="BR" class="cls-2" d="M198,74.3V50.4H2V74.2H39.7L18.6,146.6H61.5c18.5,0,21.8-4.3,25.7-7.4,4.9-4.3,7.6-14.4,5.3-21.4a13.54,13.54,0,0,0-6.6-7.8c5.5-2.9,8.8-8.8,9.4-9.7,2.1-4.5,3.9-12.6-1.6-19.1-4.3-5.5-12.9-7-19.1-7h45.6L99.3,147h21.2l7.8-27.8h12.3c8.6,0,8,5.5,8.2,7.8l.8,20.4h19.5s-.8-22.8-.8-24.5c-.2-5.8-4.1-8.4-7.4-8.4,6.2-1.9,11.7-7.4,13.8-11.1,2.7-4.3,4.7-11.1,2.1-17.7-3.5-9.9-13.1-11.5-19.5-11.5l40.7.1ZM136.9,88.9h15.4c7.2,0,7.6,4.9,7.6,6.4,0,3.5-2.9,9.9-11.9,9.9H132.4S136.6,89.1,136.9,88.9ZM48.6,116.3H62.8c7,0,7.2,1.6,8.2,3.5,1,1.6.4,4.9,0,6.2-1,1.2-2.3,6-11.3,6H44.1Zm7.8-27.4H72.8c3.1,0,6.2,2.1,6.2,5.3,0,4.7-3.9,8-9,8H52.5Z"/><rect class="cls-3" width="200" height="49.7"/></svg>