<?xml version="1.0" encoding="utf-8"?>
<!-- Generator: Adobe Illustrator 21.0.0, SVG Export Plug-In . SVG Version: 6.00 Build 0)  -->
<svg version="1.1" id="Layer_1" xmlns="http://www.w3.org/2000/svg" xmlns:xlink="http://www.w3.org/1999/xlink" x="0px" y="0px"
	 viewBox="0 0 200 200" style="enable-background:new 0 0 200 200;" xml:space="preserve">
<style type="text/css">
	.st0{fill:#255398;}
	.st1{fill:#0097D5;}
	.st2{fill:#D9783E;}
	.st3{fill:#2F9C5C;}
	.st4{fill:#CC2131;}
</style>
<title>PEP</title>
<g>
	<path class="st0" d="M190.2,144.3c2.7-54.8-45-116.6-110-124.2l0.1-0.7c64.1,0,113.2,58.8,113.2,105.2c-0.1,9.7-0.8,15.6-2.2,20
		L190.2,144.3z"/>
	<path class="st0" d="M186.3,151.3c-4.7,5.6-10.1,10.8-15.9,15.3C158.9,100.7,110,43,75.5,26.2l-0.7,0.5
		c34.7,28.2,76.1,83.2,92.2,142.4c-8.2,6-17.1,11-26.4,15c-32.8-37-63.3-108.5-73.1-153.9l-1,0.3c0.2,44,31.7,118.8,70.2,155.2
		c-8.8,3.5-18,6-27.3,7.5c-36.8-14.5-63-60.8-63-108.3c0-31,9.5-50.2,11.4-54.1l-0.8-0.3c-2.2,3.3-16.2,22.5-16.2,56
		c0,53.7,26.7,94.7,62.2,107.6c-12.7,1.4-25.5,0.8-38-1.8l-0.3,0.8c11.6,4.5,23.9,6.8,36.3,6.7c44.4,0,74.4-27.4,86.4-48.1
		L186.3,151.3z"/>
	<path class="st1" d="M96.3,0C62.7,0,23.2,24.1,23.2,46.1c0,8.5,7.8,15.7,24.1,15.7c37.7,0,72.8-25.7,72.8-45.7
		C120.1,5.6,109.9,0,96.3,0z M109.7,15.5c0,16.8-32.6,37.5-59.9,37.5c-12,0-18.5-4.7-18.5-12.5c0-17.1,33-37.4,58.6-37.4
		C106.5,3.1,109.7,11.6,109.7,15.5L109.7,15.5z"/>
	<path class="st2" d="M9.8,56.3c-0.9,1.6-4.7,9-4.7,16.5c0,14,14.2,27,40.4,27c50.4,0,108.6-36.7,108.6-70.9
		c0-15.3-14.6-23.7-24.8-25.4l-0.2,0.6c3.2,1,14.7,6.3,14.7,20c0,27.2-51.4,64.3-102.6,64.3c-19.6,0-31.9-9.6-31.9-23.6
		c0-2.8,0.3-5.5,1.1-8.2L9.8,56.3L9.8,56.3z"/>
	<path class="st3" d="M174.9,31.4c6.3,5.1,9.8,12.8,9.7,20.9c0,44.2-69.8,87.7-131.6,87.7C16.1,140-0.7,122,0,106h0.7
		c1.4,8.3,13.4,23.2,45.6,23.2c61.8,0,130.9-45,130.9-84.4c0-6.8-1.9-11-2.9-12.9L174.9,31.4L174.9,31.4z"/>
	<path class="st4" d="M198.2,72.7c1.2,3.8,1.9,7.8,1.8,11.8c0,49.2-70.7,91.3-132.2,91.3c-31.6,0-48.2-15.3-51.7-21.4l0.6-0.4
		c8.7,7.6,26,13.4,46.1,13.4c54.3,0,135.3-41,134.6-94.4L198.2,72.7L198.2,72.7z"/>
</g>
</svg>
