<?xml version="1.0" encoding="utf-8"?>
<!-- Generator: Adobe Illustrator 21.0.0, SVG Export Plug-In . SVG Version: 6.00 Build 0)  -->
<svg version="1.1" id="Layer_1" xmlns="http://www.w3.org/2000/svg" xmlns:xlink="http://www.w3.org/1999/xlink" x="0px" y="0px"
	 viewBox="0 0 200 200" style="enable-background:new 0 0 200 200;" xml:space="preserve">
<style type="text/css">
	.st0{fill:#FFFFFF;}
	.st1{fill:#007CC2;stroke:#007CC2;stroke-width:0.31;}
</style>
<title>PFE</title>
<path class="st0" d="M100.1,162.8c-55.2,0-99.9-28.1-99.9-62.7s44.7-62.7,99.9-62.7S200,65.4,200,100.1S155.3,162.8,100.1,162.8"/>
<path class="st1" d="M198.3,100c0,34.2-44,61.8-98.3,61.8c-15.1,0.1-30.1-2.2-44.5-6.7L73,90.3h8.5l-7.7,28.9h12.5l8.8-33h-21
	L80.8,61c0.8-3.2,4.3-7.9,8.8-7.9c2.7,0,6.1,1.4,6.3,3.1c-3.5,0-6.4,3.4-6.4,7c0,3.6,2.8,6.5,6.4,6.7c4.2-0.4,7.3-4,7.1-8.2
	c-0.2-3.5-2.2-10.4-13.4-10.7c-13-0.2-22,11.3-25.2,23.1c-1.8,7-6.5,23.6-10.6,38.7l-10.3,37.9C18.3,139.5,1.7,121,1.7,100
	c0-34.1,44-61.8,98.4-61.8S198.3,65.9,198.3,100z M26.3,119.3l4.1-15.3c20.9,0.3,24.9-4.7,27.9-17.8C60.4,77,55.3,70,46.1,70h-25
	L20,74.1h5.5l-12,45.2H26.3z M38.3,74.1c6.6-0.2,9.1,1.3,6.6,12.1c-3.3,13.9-7.2,13.7-13.4,13.7L38.3,74.1z M192.8,92
	c0-3.8-2.8-6.8-6.2-6.8c-2.8,0-6.7,1.8-9.5,6.3l1.4-5.4h-17.1l-1.1,4.1h4.5l-7.7,28.9h12.5c0,0,4.7-17.4,4.6-17.5
	c1.9-5.4,5.3-11.7,6.3-10.8c-1.1,5.2,2.7,7.9,6,7.9C189.9,98.7,192.8,95.8,192.8,92z M135,104h21c0.1-0.5,0.2-0.9,0.4-1.4
	c2.4-11-3.1-18-11.8-18c-9.4,0-18.1,3.2-21.7,18c-2.4,9.8,2.8,17.6,12.1,18c8.3,0.3,16.2-2.1,20.1-13.4h-12.8l-0.7,2.9
	c-1.5,5.7-3.6,6.4-5.8,6.4c-2.3,0-3.4-2.9-2.4-6.4L135,104z M137.4,95.1c0.9-3.5,3.1-6.5,5.8-6.4c2.7,0.2,3.4,2.9,2.4,6.4l-1.2,4.4
	h-8.2L137.4,95.1z M118.4,115.1h-10.7l18.4-28.9H99.2l-1.1,4.1h10.7l-18.1,28.9h26.5L118.4,115.1z"/>
</svg>
