<svg id="Layer_1" data-name="Layer 1" xmlns="http://www.w3.org/2000/svg" viewBox="0 0 200 200"><defs><style>.cls-1{fill:#003cae;}.cls-2{fill:#fff;}</style></defs><title>PG</title><circle class="cls-1" cx="100" cy="100" r="100"/><g id="g52202"><g id="g52208"><path id="path52210" class="cls-2" d="M61.17,69.41c3.52,0,13.09.44,6.82,18.58-6.49,19-20.78,15.07-20.78,15.07L57.77,69.41ZM86.91,89.2c8-19.9-7.15-25.4-16.93-25.4H37.31c2.75,1.87,2.2,4.4,1.76,5.83L20,130.55a9.94,9.94,0,0,1-5.17,5.39H41.27a4.15,4.15,0,0,1-2.75-5.17l6.93-22c0-.11,31.78,4.29,41.46-19.57"/></g><g id="g52212"><path id="path52214" class="cls-2" d="M97.57,126.55a23.71,23.71,0,0,1-9,3.08c-3.63.33-9.57-1.1-9.57-8.25,0-6.16,6.71-10.67,10.23-12.21a55.32,55.32,0,0,0,8.36,17.37M107.9,87.84c-.88,5.72-8.36,11.66-10.12,12.43-.33-3.3-.22-8.36,2.53-12.65,1.87-2.75,4.29-4,6.16-3.3,1.43.55,1.65,2,1.43,3.52m0,48.06h17.81c-5.72-1.87-14.08-7.26-17.48-11.11,2.75-3,6-6.6,6.71-14.19h-9.24a3.76,3.76,0,0,1,1.87,3.19,11.18,11.18,0,0,1-2.42,6.71c-2.64-4-5.61-8.58-6.6-15.29,3.63-1.76,8.69-3.74,12.76-7.26,3.85-3.41,4.73-6.49,4.84-8.58v-.22a7.57,7.57,0,0,0-2.42-5.72c-2.75-2.75-6.93-3.74-11.33-3a16.08,16.08,0,0,0-8,4c-5.5,5.06-6.16,13.42-6.16,17.15,0,.88.11,1.65.11,2-.22.11-.88.33-.88.33-3.85,1.43-14.3,4.18-18,12.87A17.24,17.24,0,0,0,68.21,123a13.55,13.55,0,0,0,2,7.37c2.64,4.07,7.15,6.71,14.3,6.6,7.81-.11,15.51-5.39,16.82-6.38,1.32,1.1,4.84,4.4,6.6,5.28"/></g><g id="g52216"><path id="path52218" class="cls-2" d="M162,69.54c10.56-2.53,19.35,5.72,20.12,6.27l3-9.57c-4.18-1.32-34.53-11.55-55.86,12.87-13.2,15.07-16.5,45.86.33,54.1,17.92,8.91,37.72-1.32,39-2.09l8.14-25.84c.88-3.19,2.86-5.28,6.38-6.49H154.77c4.07,1.76,3.85,4.84,3.52,6.16L150.15,131c-1.1.22-24,5.83-11.11-34.09,2.64-8.69,10.45-24.3,23-27.38"/></g></g></svg>