<svg xmlns="http://www.w3.org/2000/svg" xmlns:xlink="http://www.w3.org/1999/xlink" viewBox="0 0 33.56 19.58"><defs><style>.cls-1{fill:none;}.cls-2{clip-path:url(#clip-path);}.cls-3{fill:#bc0030;}.cls-4{fill:#f3d02f;}.cls-5{fill:#fff;}</style><clipPath id="clip-path"><rect class="cls-1" width="33.56" height="19.58"/></clipPath></defs><title>PNG</title><g id="Layer_2" data-name="Layer 2"><g id="_4" data-name="4"><g id="PAPUA_NEW_GUINEA" data-name="PAPUA NEW GUINEA"><g class="cls-2"><rect width="33.56" height="19.58"/><polygon class="cls-3" points="0 0 33.56 19.58 33.56 0 0 0"/><g class="cls-2"><path class="cls-4" d="M21.76,5.69c-.19.25-.65-.25-1.19-.26s-.94.53-1.09.71a5.74,5.74,0,0,0-.66,1.24c0,.1.32-.29.43-.35,0,.14-.12.3-.09.34s.4-.27.52-.29-.07.18,0,.32.25-.23.39-.28c0,.1-.13.3,0,.42s.4-.39.51-.43-.05.38,0,.41.42-.43.53-.48,0,.47,0,.47a3.5,3.5,0,0,0,.48-.59c0-.07,0,.66.32,1a5,5,0,0,0,.95.83c.07-.12,0-.39,0-.37a1.9,1.9,0,0,0,.53.42c.07,0,0-.27,0-.27a3.84,3.84,0,0,0,1.73,1.15c-.07-.19-.22-.36-.23-.46a2.88,2.88,0,0,0,.35.11s-.5-.68-.47-.77.18.07.23,0-.54-.63-.54-.75.15,0,.19,0-.18-.5-.13-.56.55.31.67.31,0-.45.09-.47.48.24.57.24S26,7.18,26,7.2a2.39,2.39,0,0,1,.68,2.17,1.46,1.46,0,0,1-2,.91,1.27,1.27,0,0,0,1.17.37A1.55,1.55,0,0,0,27,8.91a2.26,2.26,0,0,0-.51-1.47c-.06-.17.09,0,.22.09s0-.24-.06-.36.38.26.48.3-.24-.93-.34-1,.1,0,.17,0-.63-1.06-.78-1.06.13-.06.21-.06a3.41,3.41,0,0,0-.95-.71c-.15,0,.32-.18.36-.19a2.07,2.07,0,0,0-2,0c-.05,0,.46-.4.48-.56s-.17-.12-.18-.17.27-.18.28-.28-.19-.06-.26-.08.24-.29.22-.39-.21-.07-.25,0,.12-.24.09-.32-.12,0-.21,0,.3-.5.23-.57a2.78,2.78,0,0,0-1.38,1.14,2.28,2.28,0,0,0-.12,1.37c0,.22-.1.43-.25.43a1.41,1.41,0,0,1-.6-.34c-.12-.11-.14-.19-.3-.24a2.44,2.44,0,0,0-.66.1c-.14,0-.67-.1-.71-.07s.52.24.65.31S21,5,21.09,5s.95.31.67.66"/><path class="cls-4" d="M25.1,7.29c.27.27,2.12,1.5,2.12,3a1.38,1.38,0,0,1-1.73,1.41,1.41,1.41,0,0,0,2.07-1.41c0-1.5-2.12-3-2.39-3.14s-.34-.14-.07.14"/><polygon class="cls-5" points="8.64 6.07 8.93 7.05 9.91 7.05 9.13 7.65 9.42 8.6 8.64 8 7.86 8.57 8.15 7.65 7.37 7.05 8.33 7.05 8.64 6.07"/><polygon class="cls-5" points="5.65 9.89 5.93 10.87 6.92 10.87 6.14 11.47 6.43 12.43 5.65 11.83 4.87 12.4 5.16 11.47 4.38 10.87 5.34 10.87 5.65 9.89"/><polygon class="cls-5" points="11.62 9.62 11.9 10.6 12.89 10.6 12.11 11.2 12.39 12.15 11.62 11.55 10.84 12.13 11.12 11.2 10.35 10.6 11.31 10.6 11.62 9.62"/><polygon class="cls-5" points="8.64 15.06 8.93 16.04 9.91 16.04 9.13 16.64 9.42 17.59 8.64 16.99 7.86 17.56 8.15 16.64 7.37 16.04 8.33 16.04 8.64 15.06"/><polygon class="cls-5" points="9.98 12.98 10.12 13.47 10.61 13.47 10.22 13.77 10.37 14.24 9.98 13.94 9.59 14.23 9.73 13.77 9.34 13.47 9.82 13.47 9.98 12.98"/></g></g></g></g></g></svg>