<?xml version="1.0" encoding="utf-8"?>
<!-- Generator: Adobe Illustrator 21.0.0, SVG Export Plug-In . SVG Version: 6.00 Build 0)  -->
<svg version="1.1" id="Layer_1" xmlns="http://www.w3.org/2000/svg" xmlns:xlink="http://www.w3.org/1999/xlink" x="0px" y="0px"
	 viewBox="0 0 200 200" style="enable-background:new 0 0 200 200;" xml:space="preserve">
<style type="text/css">
	.st0{fill:#C7000D;}
	.st1{fill:url(#SVGID_1_);}
	.st2{fill:url(#SVGID_2_);}
	.st3{fill:url(#SVGID_3_);}
	.st4{fill:url(#SVGID_4_);}
	.st5{fill:url(#SVGID_5_);}
	.st6{fill:url(#SVGID_6_);}
</style>
<title>PTR</title>
<g>
	<path class="st0" d="M100.1,105.1l-85.3,24.2c2.5,9.5-1.4,22.2,4.2,29.9c5.8,8.1,19.9,8.2,27.9,14c8,5.9,12.4,19.4,22.1,22.5
		c9.4,3.1,21-5.1,31.4-5.1c10.1,0,21.4,8.2,30.5,5.3c9.5-3.1,14-16.5,22-22.3c8-5.8,22.2-5.7,28-13.7c5.8-8,1.1-21,4.3-30.6
		L100.1,105.1z"/>
	
		<linearGradient id="SVGID_1_" gradientUnits="userSpaceOnUse" x1="-41.4538" y1="1047.8281" x2="-64.3605" y2="1048.4197" gradientTransform="matrix(3.64 0 0 3.64 234.5101 -3714.9602)">
		<stop  offset="0" style="stop-color:#FFE200"/>
		<stop  offset="1" style="stop-color:#F08300"/>
	</linearGradient>
	<path class="st1" d="M81.9,98.8c0-1.3-0.7-2.5-1.9-3.1L14.2,73.8C10.6,82.7,0,91,0,100.9S11.2,119,14.3,128l65.6-26.1
		C81.1,101.4,81.9,100.1,81.9,98.8z"/>
	
		<linearGradient id="SVGID_2_" gradientUnits="userSpaceOnUse" x1="-40.8221" y1="1045.0411" x2="-61.23" y2="1030.8239" gradientTransform="matrix(3.64 0 0 3.64 234.5101 -3714.9602)">
		<stop  offset="0" style="stop-color:#FFE200"/>
		<stop  offset="1" style="stop-color:#F08300"/>
	</linearGradient>
	<path class="st2" d="M82.5,89.4L82.5,89.4c1.9,0,3.4-1.5,3.4-3.4c0-0.6-0.1-1.1-0.4-1.6l-39-55.9c-8.2,5.1-21.4,5.4-27,13
		c-5.8,8-1.7,21.3-4.7,30.9L82.5,89.4z"/>
	
		<linearGradient id="SVGID_3_" gradientUnits="userSpaceOnUse" x1="-38.5389" y1="1042.838" x2="-46.0656" y2="1020.3801" gradientTransform="matrix(3.64 0 0 3.64 234.5101 -3714.9602)">
		<stop  offset="0" style="stop-color:#FFE200"/>
		<stop  offset="1" style="stop-color:#F08300"/>
	</linearGradient>
	<path class="st3" d="M94.7,81c1.1-0.4,1.9-1.5,2-2.7l2.6-67.5c-9.9-0.3-20.8-10.4-29.7-7.6c-9.5,3.1-13.9,18.6-21.9,24.5l43.4,52.7
		C92.1,81.3,93.5,81.6,94.7,81z"/>
	
		<linearGradient id="SVGID_4_" gradientUnits="userSpaceOnUse" x1="-31.6018" y1="1048.3217" x2="-9.2035" y2="1048.3217" gradientTransform="matrix(3.64 0 0 3.64 234.5101 -3714.9602)">
		<stop  offset="0" style="stop-color:#FFE200"/>
		<stop  offset="1" style="stop-color:#F08300"/>
	</linearGradient>
	<path class="st4" d="M118.5,98.7v0.1c0,1.3,0.8,2.5,2,3.1l65.2,26.2c3.1-9,14.3-17.1,14.3-27.1s-10.6-18.3-14.1-27.1l-65.4,22
		C119.3,96.3,118.5,97.4,118.5,98.7z"/>
	
		<linearGradient id="SVGID_5_" gradientUnits="userSpaceOnUse" x1="-32.6312" y1="1044.6947" x2="-12.2844" y2="1030.5488" gradientTransform="matrix(3.64 0 0 3.64 234.5101 -3714.9602)">
		<stop  offset="0" style="stop-color:#FFE200"/>
		<stop  offset="1" style="stop-color:#F08300"/>
	</linearGradient>
	<path class="st5" d="M117.7,89.1L117.7,89.1l67.5-16.7c-3.1-9.6,1-23-4.8-30.9c-5.6-7.7-18.8-8-27-13l-38.7,55.6
		c-0.9,1.7-0.2,3.7,1.4,4.6C116.7,88.9,117.2,89.1,117.7,89.1L117.7,89.1z"/>
	
		<linearGradient id="SVGID_6_" gradientUnits="userSpaceOnUse" x1="-35.29" y1="1042.6857" x2="-27.7734" y2="1020.2074" gradientTransform="matrix(3.64 0 0 3.64 234.5101 -3714.9602)">
		<stop  offset="0" style="stop-color:#FFE200"/>
		<stop  offset="1" style="stop-color:#F08300"/>
	</linearGradient>
	<path class="st6" d="M105.4,81c-1.1-0.5-1.9-1.5-2-2.7l-2.7-67.5c9.9-0.3,20.9-10.4,29.8-7.6c9.5,3.1,13.9,18.6,21.9,24.5L109,80.4
		C108,81.3,106.6,81.6,105.4,81z"/>
</g>
</svg>
