<?xml version="1.0" encoding="UTF-8"?>
<svg width="34px" height="20px" viewBox="0 0 34 20" version="1.1" xmlns="http://www.w3.org/2000/svg" xmlns:xlink="http://www.w3.org/1999/xlink">
    <!-- Generator: Sketch 49 (51002) - http://www.bohemiancoding.com/sketch -->
    <title>PYG</title>
    <desc>Created with Sketch.</desc>
    <defs></defs>
    <g id="Page-1" stroke="none" stroke-width="1" fill="none" fill-rule="evenodd">
        <g id="PYG" fill-rule="nonzero">
            <rect id="Rectangle-path" fill="#FFFFFF" x="0" y="6.53" width="33.56" height="6.53"></rect>
            <rect id="Rectangle-path" fill="#2534A4" x="0" y="13.05" width="33.56" height="6.53"></rect>
            <rect id="Rectangle-path" fill="#BC0030" x="0" y="0" width="33.56" height="6.53"></rect>
            <g id="Group" transform="translate(14.000000, 7.000000)">
                <path d="M5.27,2.79 C5.27,3.79711099 4.66333098,4.70505535 3.73288175,5.09046004 C2.80243252,5.47586473 1.73143912,5.2628309 1.01930411,4.55069589 C0.307169105,3.83856088 0.0941352738,2.76756748 0.479539964,1.83711825 C0.864944654,0.906669023 1.77288901,0.3 2.78,0.3 C3.44038906,0.3 4.0737303,0.562338533 4.54069589,1.02930411 C5.00766147,1.4962697 5.27,2.12961094 5.27,2.79 Z" id="Shape" fill="#FFFFFF"></path>
                <path d="M2.78,5.32 C1.38271958,5.32 0.25,4.18728042 0.25,2.79 C0.25,1.39271958 1.38271958,0.26 2.78,0.26 C4.17728042,0.26 5.31,1.39271958 5.31,2.79 C5.31,4.18728042 4.17728042,5.32 2.78,5.32 Z M2.78,0.32 C1.42690236,0.32 0.33,1.41690236 0.33,2.77 C0.33,4.12309764 1.42690236,5.22 2.78,5.22 C4.13309764,5.22 5.23,4.12309764 5.23,2.77 C5.23,1.41690236 4.13309764,0.32 2.78,0.32 Z" id="Shape" fill="#000000"></path>
                <path d="M2.78,0.66 C1.60363348,0.66 0.65,1.61363348 0.65,2.79 C0.65,3.96636652 1.60363348,4.92 2.78,4.92 C3.95636652,4.92 4.91,3.96636652 4.91,2.79 C4.91,1.61363348 3.95636652,0.66 2.78,0.66 Z M2.78,4.39 C1.8963444,4.39 1.18,3.6736556 1.18,2.79 C1.18,1.9063444 1.8963444,1.19 2.78,1.19 C3.6636556,1.19 4.38,1.9063444 4.38,2.79 C4.38,3.6736556 3.6636556,4.39 2.78,4.39 Z" id="Shape" fill="#BC0030"></path>
                <path d="M2.78,4.92 C1.60495103,4.91448328 0.656336903,3.9584208 0.660010409,2.78336462 C0.663683915,1.60830844 1.6182572,0.658195778 2.79331769,0.660026058 C3.96837819,0.661856338 4.91998705,1.61493808 4.92,2.79 C4.91449535,3.96798225 3.95799511,4.92001286 2.78,4.92 Z M2.78,0.66 C1.60363348,0.66 0.65,1.61363348 0.65,2.79 C0.65,3.96636652 1.60363348,4.92 2.78,4.92 C3.95636652,4.92 4.91,3.96636652 4.91,2.79 C4.91,1.61363348 3.95636652,0.66 2.78,0.66 Z M2.78,4.39 C1.8963444,4.39 1.18,3.6736556 1.18,2.79 C1.18,1.9063444 1.8963444,1.19 2.78,1.19 C3.6636556,1.19 4.38,1.9063444 4.38,2.79 C4.38,3.6736556 3.6636556,4.39 2.78,4.39 Z M2.78,1.19 C1.8963444,1.19 1.18,1.9063444 1.18,2.79 C1.18,3.6736556 1.8963444,4.39 2.78,4.39 C3.6636556,4.39 4.38,3.6736556 4.38,2.79 C4.38,1.9063444 3.6636556,1.19 2.78,1.19 Z" id="Shape" fill="#000000"></path>
                <path d="M3.12,1.63 C3.12,1.63 4.12,2.04 3.91,2.9 C3.85928219,3.38548416 3.48358443,3.77356756 3,3.84 C2.79,3.93 2.65,4.07 2.56,4.05 C2.49386949,4.03053589 2.43013612,4.00370078 2.37,3.97 C2.36723582,4.01413908 2.38286455,4.05745362 2.41317518,4.08965866 C2.4434858,4.1218637 2.48577454,4.14008647 2.53,4.14 C2.7,4.14 2.92,3.92 3.03,3.89 C3.53421304,3.81551448 3.91771759,3.3986617 3.95,2.89 C4.14,1.96 3.13,1.63 3.13,1.6 L3.12,1.63 Z" id="Shape" fill="#2A690B"></path>
                <path d="M2.55,4.13 C2.46003803,4.12469908 2.38984396,4.05011787 2.39,3.96 C2.45066366,3.99260945 2.51428146,4.01939589 2.58,4.04 C2.65657694,4.02856561 2.72890824,3.99756648 2.79,3.95 L3.01,3.83 L3.14,3.83 C3.56977426,3.73441796 3.886473,3.36899634 3.92,2.93 C3.98154272,2.42957493 3.71558052,1.94600729 3.26,1.73 L3.18,1.73 L3.13,1.73 L3.26,1.79 C3.73176151,1.97383073 4.02574801,2.44678714 3.98178648,2.95118781 C3.93782496,3.45558849 3.5664507,3.87055474 3.07,3.97 C3.00071216,3.99052756 2.93614881,4.02450827 2.88,4.07 C2.79378745,4.15145027 2.68633403,4.2069101 2.57,4.23 L2.55,4.13 Z M2.37,4 C2.3749397,4.08623666 2.44376334,4.1550603 2.53,4.16 C2.64615576,4.1364018 2.7534764,4.0810105 2.84,4 C2.88519075,3.95996273 2.93566146,3.92631559 2.99,3.9 C3.49000245,3.8092033 3.86952952,3.3984197 3.92055453,2.89280826 C3.97157954,2.38719681 3.68177956,1.90886644 3.21,1.72 C3.66949139,1.93285557 3.93989208,2.41715532 3.88,2.92 C3.846473,3.35899634 3.52977426,3.72441796 3.1,3.82 L2.97,3.82 L2.75,3.94 C2.69081547,3.98443162 2.62250571,4.01517102 2.55,4.03 C2.47662293,4.01322025 2.40594288,3.98629451 2.34,3.95 L2.37,4 Z" id="Shape" fill="#000000"></path>
                <path d="M3.6,1.81 C3.6,1.88 3.6,1.94 3.6,1.94 C3.6,1.94 3.6,1.88 3.54,1.82 C3.48,1.76 3.54,1.69 3.54,1.69 C3.54,1.69 3.54,1.75 3.6,1.82 L3.6,1.81 Z" id="Shape" fill="#2A690B"></path>
                <path d="M3.6,1.94 C3.6,1.94 3.6,1.87 3.54,1.81 C3.52690466,1.76765602 3.52690466,1.72234398 3.54,1.68 C3.52380547,1.72182028 3.52380547,1.76817972 3.54,1.81 C3.54,1.89 3.54,1.93 3.6,1.93 C3.61016133,1.89064533 3.61016133,1.84935467 3.6,1.81 C3.59145493,1.76708038 3.57445852,1.72628901 3.55,1.69 C3.57837415,1.72405008 3.59580186,1.76587658 3.6,1.81 C3.61528572,1.85198533 3.61528572,1.89801467 3.6,1.94 Z" id="Shape" fill="#000000"></path>
                <path d="M3.57,1.82 C3.57,1.89 3.57,1.95 3.57,1.95 C3.57,1.95 3.52,1.95 3.48,1.84 C3.44,1.73 3.48,1.72 3.48,1.71 C3.48,1.7 3.54,1.71 3.57,1.82 Z" id="Shape" fill="#2A690B"></path>
                <path d="M3.59,2 C3.59,2 3.53,1.94 3.5,1.89 C3.48624967,1.84775746 3.48624967,1.80224254 3.5,1.76 C3.5,1.76 3.5,1.83 3.5,1.89 C3.5,1.95 3.57,2 3.58,2 C3.59309534,1.95765602 3.59309534,1.91234398 3.58,1.87 C3.5619201,1.83328176 3.53831194,1.79955582 3.51,1.77 C3.54093831,1.79730612 3.56493286,1.83158406 3.58,1.87 C3.59309534,1.91234398 3.59309534,1.95765602 3.58,2 L3.59,2 Z" id="Shape" fill="#000000"></path>
                <path d="M3.47,1.88 C3.54,1.88 3.59,1.93 3.59,1.95 C3.59,1.97 3.53,1.95 3.46,1.95 C3.39,1.95 3.34,1.9 3.34,1.88 C3.34,1.86 3.4,1.88 3.47,1.88 Z" id="Shape" fill="#2A690B"></path>
                <path d="M3.56,2 L3.47,2 C3.41,2 3.35,1.95 3.35,1.93 C3.35,1.93 3.35,1.98 3.44,2 L3.53,2 C3.53,2 3.53,2 3.41,1.94 L3.34,1.94 L3.41,1.94 C3.47,1.94 3.53,1.94 3.53,2.01 L3.56,2 Z" id="Shape" fill="#000000"></path>
                <path d="M3.48,1.85 C3.54,1.85 3.59,1.94 3.58,1.95 C3.57,1.96 3.52,1.95 3.46,1.95 C3.4,1.95 3.35,1.86 3.36,1.85 C3.37,1.84 3.42,1.85 3.48,1.85 Z" id="Shape" fill="#2A690B"></path>
                <path d="M3.57,2 C3.53002694,1.99185723 3.49241862,1.97476254 3.46,1.95 C3.4,1.95 3.35,1.86 3.36,1.84 C3.36,1.84 3.36,1.9 3.45,1.94 C3.48202684,1.96541015 3.51979662,1.98257823 3.56,1.99 C3.56,1.99 3.56,1.93 3.46,1.89 L3.35,1.84 C3.38621193,1.83183329 3.42378807,1.83183329 3.46,1.84 C3.52,1.84 3.57,1.93 3.56,1.94 L3.57,2 Z" id="Shape" fill="#000000"></path>
                <path d="M3.53,1.83 C3.58,1.88 3.62,1.94 3.6,1.95 C3.58,1.96 3.54,1.95 3.48,1.87 C3.42,1.79 3.39,1.76 3.41,1.75 C3.43,1.74 3.47,1.75 3.53,1.83 Z" id="Shape" fill="#2A690B"></path>
                <path d="M3.59,2 C3.54664446,1.98401191 3.50856848,1.95632029 3.48,1.92 C3.48,1.92 3.39,1.81 3.41,1.8 C3.43,1.79 3.48,1.8 3.53,1.88 C3.58,1.96 3.62,1.99 3.6,2 L3.59,2 Z M3.41,1.8 C3.41,1.8 3.41,1.86 3.48,1.92 C3.50856848,1.95632029 3.54664446,1.98401191 3.59,2 C3.59,2 3.59,1.94 3.52,1.88 C3.49076094,1.84438337 3.45289272,1.81684285 3.41,1.8 Z" id="Shape" fill="#000000"></path>
                <path d="M3.59,1.95 C3.59,1.95 3.59,1.95 3.59,1.95 C3.59,1.95 3.59,1.95 3.59,1.95 C3.59,1.95 3.59,1.95 3.64,1.95 L3.69,1.95 L3.69,1.89 C3.69,1.89 3.69,1.89 3.75,1.82 C3.81,1.75 3.75,1.82 3.75,1.82 C3.74720266,1.83654929 3.74720266,1.85345071 3.75,1.87 C3.75,1.87 3.75,1.87 3.75,1.93 L3.59,1.95 Z" id="Shape" fill="#2A690B"></path>
                <path d="M3.46,2 C3.45313708,1.98058875 3.45313708,1.95941125 3.46,1.94 L3.46,1.84 C3.4569997,1.82346836 3.4569997,1.80653164 3.46,1.79 L3.46,1.84 L3.41,1.84 L3.36,1.84 L3.46,2 Z" id="Shape" fill="#000000"></path>
                <path d="M3.89,2 C3.89,2.11 3.89,2.19 3.89,2.19 C3.89,2.19 3.89,2.09 3.89,1.98 C3.89,1.87 3.89,1.79 3.89,1.79 C3.89,1.79 3.89,1.89 3.89,2 Z" id="Shape" fill="#2A690B"></path>
                <path d="M3.85,2.23 C3.85,2.23 3.85,2.12 3.85,2.02 C3.83518289,1.96091478 3.83518289,1.89908522 3.85,1.84 C3.83157568,1.8985856 3.83157568,1.9614144 3.85,2.02 C3.85,2.14 3.85,2.22 3.85,2.23 C3.86403557,2.17082082 3.86403557,2.10917918 3.85,2.05 C3.85953348,1.9903787 3.85953348,1.9296213 3.85,1.87 C3.86269877,1.92932809 3.86269877,1.99067191 3.85,2.05 C3.86569241,2.10897395 3.86569241,2.17102605 3.85,2.23 Z" id="Shape" fill="#000000"></path>
                <path d="M3.84,2 C3.84,2.11 3.84,2.2 3.84,2.2 C3.84,2.2 3.78,2.11 3.75,2 C3.72,1.89 3.75,1.8 3.75,1.8 C3.75,1.8 3.81,1.89 3.84,2 Z" id="Shape" fill="#2A690B"></path>
                <path d="M3.84,2.25 C3.84,2.25 3.77,2.15 3.75,2.05 C3.73110977,1.98467149 3.73110977,1.91532851 3.75,1.85 C3.72790402,1.9148358 3.72790402,1.9851642 3.75,2.05 C3.75,2.17 3.81,2.25 3.83,2.25 C3.84701452,2.18780941 3.84701452,2.12219059 3.83,2.06 C3.82019673,1.99706928 3.79991581,1.93622654 3.77,1.88 C3.80668012,1.93391601 3.83061716,1.99546838 3.84,2.06 C3.85835965,2.12540263 3.85835965,2.19459737 3.84,2.26 L3.84,2.25 Z" id="Shape" fill="#000000"></path>
                <path d="M3.69,2.09 C3.78,2.15 3.84,2.22 3.83,2.24 C3.82,2.26 3.74,2.24 3.66,2.18 C3.58,2.12 3.51,2.05 3.52,2.03 C3.53,2.01 3.61,2.03 3.69,2.09 Z" id="Shape" fill="#2A690B"></path>
                <path d="M3.81,2.26 C3.75206087,2.24906157 3.6973561,2.22512823 3.65,2.19 C3.56,2.13 3.5,2.06 3.51,2.04 C3.51,2.04 3.51,2.13 3.64,2.19 C3.68677941,2.22611222 3.74172959,2.25015293 3.8,2.26 C3.8,2.26 3.8,2.17 3.66,2.11 L3.57,2 L3.69,2.06 C3.78,2.12 3.84,2.19 3.83,2.22 L3.81,2.26 Z" id="Shape" fill="#000000"></path>
                <path d="M3.72,2 C3.79,2.09 3.84,2.17 3.82,2.19 C3.8,2.21 3.73,2.19 3.66,2.06 C3.59,1.93 3.54,1.89 3.56,1.87 C3.58,1.85 3.65,1.87 3.72,2 Z" id="Shape" fill="#2A690B"></path>
                <path d="M3.81,2.25 C3.81,2.25 3.72,2.2 3.66,2.12 C3.6,2.04 3.54,1.95 3.56,1.93 C3.58,1.91 3.66,1.93 3.72,2.06 C3.78,2.19 3.84,2.23 3.82,2.25 L3.81,2.25 Z M3.57,1.92 C3.57,1.92 3.57,2.02 3.66,2.11 C3.75,2.2 3.78,2.24 3.81,2.24 C3.81,2.24 3.81,2.15 3.71,2.05 C3.61,1.95 3.59,1.92 3.56,1.92 L3.57,1.92 Z" id="Shape" fill="#000000"></path>
                <path d="M3.78,2 C3.83,2.1 3.86,2.19 3.84,2.21 C3.82,2.23 3.76,2.15 3.7,2.04 C3.64,1.93 3.62,1.85 3.64,1.84 C3.66,1.83 3.72,1.9 3.78,2 Z" id="Shape" fill="#2A690B"></path>
                <path d="M3.84,2.25 C3.84,2.25 3.76,2.18 3.71,2.08 C3.66,1.98 3.62,1.89 3.65,1.87 C3.68,1.85 3.73,1.94 3.79,2.03 C3.85,2.12 3.88,2.23 3.85,2.24 L3.84,2.25 Z M3.65,1.88 C3.65,1.88 3.65,1.97 3.71,2.08 C3.77,2.19 3.82,2.24 3.84,2.24 C3.84,2.24 3.84,2.15 3.78,2.04 C3.72,1.93 3.67,1.88 3.65,1.88 Z" id="Shape" fill="#000000"></path>
                <path d="M3.83,2.25 L3.76,2.25 C3.76,2.25 3.76,2.25 3.7,2.25 C3.67382505,2.24275776 3.64617495,2.24275776 3.62,2.25 C3.62,2.25 3.62,2.25 3.62,2.25 C3.62,2.25 3.68,2.25 3.71,2.25 L3.79,2.25 L3.86,2.18 C3.86,2.18 3.94,2.18 3.97,2.1 C4,2.02 3.97,2.04 3.97,2.04 C3.94003154,2.05068576 3.91273742,2.06774458 3.89,2.09 C3.89,2.09 3.89,2.15 3.89,2.17 L3.83,2.23 L3.83,2.25 Z" id="Shape" fill="#2A690B"></path>
                <path d="M3.65,2.32 L3.71,2.32 L3.82,2.32 L3.88,2.32 L4,2.11 L3.92,2.16 L3.85,2.22 L3.77,2.22 C3.74032053,2.22620193 3.70967947,2.22620193 3.68,2.22 L3.65,2.32 Z M3.65,2.32 C3.67271084,2.31237769 3.69728916,2.31237769 3.72,2.32 L3.85,2.32 L3.91,2.26 C3.8898615,2.17776629 3.92656283,2.09212985 4,2.05 C3.97081769,2.04009431 3.93918231,2.04009431 3.91,2.05 L3.85,2.11 L3.78,2.11 L3.73,2.11 C3.7007072,2.10078784 3.6692928,2.10078784 3.64,2.11 L3.65,2.32 Z" id="Shape" fill="#000000"></path>
                <path d="M4,2.45 C4,2.56 3.95,2.63 3.93,2.62 C3.91,2.61 3.93,2.51 3.93,2.4 C3.93,2.29 3.98,2.21 4,2.23 C4.02,2.25 4,2.34 4,2.45 Z" id="Shape" fill="#2A690B"></path>
                <path d="M4,2.62 C4,2.62 4,2.5 4,2.4 C4,2.3 4,2.22 4.07,2.22 C4.14,2.22 4.07,2.34 4.07,2.44 C4.07,2.54 4.07,2.62 4,2.62 Z M4,2.23 C4,2.23 4,2.3 4,2.41 C4,2.52 4,2.61 4,2.62 C4,2.62 4,2.56 4.07,2.45 C4.14,2.34 4.07,2.25 4.07,2.24 L4,2.23 Z" id="Shape" fill="#000000"></path>
                <path d="M4,2.43 C4,2.54 4,2.63 4,2.63 C4,2.63 4,2.53 4,2.42 C4,2.31 4,2.22 4,2.22 C4,2.22 4,2.32 4,2.43 Z" id="Shape" fill="#2A690B"></path>
                <path d="M4,2.64 C4,2.64 4,2.53 4,2.43 C3.98306445,2.36440888 3.98306445,2.29559112 4,2.23 C3.97931161,2.29506163 3.97931161,2.36493837 4,2.43 C4,2.56 4,2.64 4,2.64 C4.01416729,2.57745895 4.01416729,2.51254105 4,2.45 C4.00902569,2.38698823 4.00902569,2.32301177 4,2.26 C4.01190154,2.3227742 4.01190154,2.3872258 4,2.45 C4.01650946,2.51564456 4.01650946,2.58435544 4,2.65 L4,2.64 Z" id="Shape" fill="#000000"></path>
                <path d="M3.84,2.45 C3.92,2.53 3.97,2.61 3.95,2.63 C3.93,2.65 3.87,2.63 3.79,2.54 C3.71,2.45 3.67,2.38 3.68,2.36 C3.69,2.34 3.76,2.36 3.84,2.45 Z" id="Shape" fill="#2A690B"></path>
                <path d="M3.94,2.64 C3.88119767,2.62226222 3.82898962,2.58745685 3.79,2.54 C3.71,2.46 3.66,2.38 3.68,2.36 C3.68,2.36 3.68,2.46 3.78,2.54 C3.81700368,2.58512586 3.86531218,2.61963193 3.92,2.64 C3.92,2.64 3.92,2.55 3.81,2.47 C3.77465451,2.43424947 3.73421725,2.40392152 3.69,2.38 C3.73558255,2.40172885 3.77637719,2.43232483 3.81,2.47 C3.89,2.55 3.94,2.63 3.92,2.65 L3.94,2.64 Z" id="Shape" fill="#000000"></path>
                <path d="M3.88,2.41 C3.93,2.51 3.96,2.6 3.95,2.62 C3.94,2.64 3.87,2.57 3.82,2.46 C3.77,2.35 3.74,2.27 3.75,2.25 C3.76,2.23 3.83,2.3 3.88,2.4 L3.88,2.41 Z" id="Shape" fill="#2A690B"></path>
                <path d="M3.94,2.63 C3.94,2.63 3.86,2.56 3.81,2.47 C3.76,2.38 3.72,2.28 3.74,2.26 C3.76,2.24 3.82,2.32 3.88,2.41 C3.94,2.5 3.97,2.6 3.95,2.62 L3.94,2.63 Z M3.75,2.26 C3.75,2.26 3.75,2.36 3.81,2.47 C3.87,2.58 3.91,2.63 3.94,2.63 C3.94,2.63 3.94,2.53 3.87,2.43 C3.8,2.33 3.77,2.27 3.75,2.27 L3.75,2.26 Z" id="Shape" fill="#000000"></path>
                <path d="M3.94,2.42 C3.94,2.53 3.94,2.63 3.94,2.63 C3.94,2.63 3.87,2.55 3.84,2.44 C3.81,2.33 3.84,2.23 3.84,2.22 C3.84,2.21 3.91,2.3 3.94,2.41 L3.94,2.42 Z" id="Shape" fill="#2A690B"></path>
                <path d="M4,2.64 C4,2.64 3.93,2.54 3.9,2.45 C3.87,2.36 3.9,2.24 3.9,2.23 C3.9,2.23 3.97,2.31 4.01,2.42 C4.05,2.53 4.01,2.63 4.01,2.64 L4,2.64 Z M3.88,2.24 C3.88,2.24 3.88,2.33 3.88,2.45 C3.88,2.57 3.96,2.64 3.98,2.64 C3.98,2.64 3.98,2.55 3.98,2.43 C3.98,2.31 3.9,2.24 3.88,2.24 Z" id="Shape" fill="#000000"></path>
                <path d="M4,2.63 L3.93,2.63 C3.93,2.63 3.93,2.63 3.87,2.63 C3.84095691,2.61928415 3.80904309,2.61928415 3.78,2.63 C3.78,2.63 3.78,2.63 3.78,2.63 C3.78,2.63 3.85,2.63 3.87,2.63 L4,2.63 L4,2.59 C4.04180544,2.57804845 4.08207672,2.56126875 4.12,2.54 C4.12,2.54 4.12,2.48 4.12,2.48 C4.090484,2.472379 4.059516,2.472379 4.03,2.48 C4.03,2.48 4.03,2.53 4.03,2.55 L3.96,2.55 L4,2.63 Z" id="Shape" fill="#2A690B"></path>
                <path d="M3.88,2.64 C3.88,2.64 3.88,2.64 3.82,2.64 L3.74,2.64 C3.77555556,2.61333333 3.82444444,2.61333333 3.86,2.64 C3.88281479,2.6469568 3.90718521,2.6469568 3.93,2.64 C3.93,2.64 3.98,2.64 3.99,2.59 C4.019516,2.582379 4.050484,2.582379 4.08,2.59 C4.048,2.57666667 4.012,2.57666667 3.98,2.59 L4.05,2.59 C4.07636446,2.59567766 4.10363554,2.59567766 4.13,2.59 L4.05,2.59 L4,2.64 L3.88,2.64 Z" id="Shape" fill="#000000"></path>
                <path d="M4.06,2.89 C4,2.98 3.94,3.04 3.92,3.02 C3.9,3 3.92,2.91 4,2.82 C4.08,2.73 4.12,2.67 4.14,2.69 C4.16,2.71 4.14,2.8 4.06,2.89 Z" id="Shape" fill="#2A690B"></path>
                <path d="M3.93,3 C3.93,3 3.93,2.88 4,2.8 C4.07,2.72 4.1,2.66 4.13,2.66 C4.13,2.66 4.04,2.71 4,2.79 C3.96,2.87 3.91,2.97 3.92,2.99 C3.92,2.99 3.99,2.99 4.04,2.86 C4.07833841,2.80589826 4.10553269,2.74471112 4.12,2.68 C4.10917431,2.74585681 4.08162908,2.80783358 4.04,2.86 C4.04,2.94 3.94,3 3.91,3 L3.93,3 Z" id="Shape" fill="#000000"></path>
                <path d="M4,2.86 C4,2.97 3.91,3.04 3.89,3.03 C3.87,3.02 3.89,2.92 3.89,2.81 C3.89,2.7 3.98,2.63 4,2.64 C4.02,2.65 4,2.75 4,2.86 Z" id="Shape" fill="#2A690B"></path>
                <path d="M3.91,3 C3.91,3 3.91,2.88 3.91,2.78 C3.91,2.68 3.99,2.61 4.02,2.61 C4.05,2.61 4.02,2.74 4.02,2.83 C4.02,2.92 3.94,3 3.91,3 Z M4.05,2.61 C4.05,2.61 3.98,2.67 3.94,2.78 C3.9,2.89 3.88,2.98 3.94,2.99 C3.94,2.99 4,3 4,2.86 C4,2.72 4.06,2.66 4,2.65 L4.05,2.61 Z" id="Shape" fill="#000000"></path>
                <path d="M3.87,2.81 C3.87,2.91 3.92,3.01 3.87,3.02 C3.82,3.03 3.8,2.97 3.76,2.87 C3.72,2.77 3.71,2.67 3.76,2.66 C3.81,2.65 3.83,2.71 3.87,2.81 Z" id="Shape" fill="#2A690B"></path>
                <path d="M3.89,3 C3.89,3 3.82,2.93 3.79,2.84 C3.76,2.75 3.74,2.64 3.79,2.63 C3.79,2.63 3.86,2.69 3.9,2.78 C3.94,2.87 3.95,2.98 3.9,2.99 L3.89,3 Z M3.76,2.63 C3.76,2.63 3.76,2.73 3.76,2.84 C3.76,2.95 3.84,2.99 3.86,2.99 C3.86,2.99 3.86,2.89 3.86,2.78 C3.86,2.67 3.78,2.62 3.76,2.62 L3.76,2.63 Z" id="Shape" fill="#000000"></path>
                <path d="M3.92,2.79 C3.92,2.91 3.92,3 3.92,3.01 C3.92,3.02 3.92,2.93 3.86,2.81 C3.8,2.69 3.86,2.6 3.86,2.59 C3.86,2.58 3.86,2.67 3.92,2.79 Z" id="Shape" fill="#2A690B"></path>
                <path d="M3.89,3 C3.89,3 3.84,2.9 3.83,2.8 C3.82,2.7 3.83,2.59 3.83,2.58 C3.83,2.58 3.88,2.68 3.89,2.78 C3.9,2.88 3.89,2.99 3.89,3 Z M3.89,2.58 C3.89,2.58 3.89,2.67 3.89,2.8 C3.89,2.93 3.89,3 3.94,3 C3.94,3 3.94,2.91 3.94,2.78 C3.94,2.65 3.94,2.59 3.88,2.59 L3.89,2.58 Z" id="Shape" fill="#000000"></path>
                <path d="M4,2.82 C4,2.94 4,3.03 3.94,3.03 C3.88,3.03 3.94,2.93 3.94,2.82 C3.94,2.71 3.94,2.61 4,2.61 C4.06,2.61 4,2.71 4,2.83 L4,2.82 Z" id="Shape" fill="#2A690B"></path>
                <path d="M3.91,3 C3.89176918,2.93118701 3.89176918,2.85881299 3.91,2.79 C3.91,2.68 3.91,2.58 3.97,2.58 C3.99516402,2.6511746 3.99516402,2.7288254 3.97,2.8 C3.97,2.91 3.97,3.01 3.91,3.01 L3.91,3 Z M3.91,2.58 C3.91,2.58 3.91,2.66 3.85,2.78 C3.83343809,2.84902037 3.83343809,2.92097963 3.85,2.99 C3.85,2.99 3.85,2.91 3.91,2.78 C3.92694939,2.71102601 3.92694939,2.63897399 3.91,2.57 L3.91,2.58 Z" id="Shape" fill="#000000"></path>
                <path d="M3.9,3 L3.83,3 C3.83,3 3.83,3 3.83,2.95 C3.80095691,2.93928415 3.76904309,2.93928415 3.74,2.95 C3.74,2.95 3.74,2.95 3.74,2.95 C3.74,2.95 3.81,2.95 3.83,2.95 L3.9,2.95 L4,3 C4,3 4.09,3 4.13,3 C4.17,3 4.19,3 4.13,3 L4.03,3 C4.03,3 4.03,3 3.96,3 L3.9,3 Z" id="Shape" fill="#2A690B"></path>
                <path d="M3.9,3 L3.83,3 L3.9,3 L4.08,3 L4.15,3 C4.15,3 4.15,3 4.15,3 L4,3 L3.91,3 L3.9,3 Z M3.9,3 L3.83,3 C3.83,3 3.83,3 3.83,2.95 L3.73,2.95 C3.73,2.95 3.73,2.95 3.73,2.95 C3.73,2.95 3.73,2.95 3.73,2.95 L3.79,2.95 L3.86,2.95 C4,3 4,3 4,3 L4.1,3 C4.0685932,2.98397279 4.0314068,2.98397279 4,3 L3.9,3 Z" id="Shape" fill="#000000"></path>
                <path d="M3.94,3.34 C3.85,3.42 3.76,3.47 3.75,3.44 C3.74,3.41 3.8,3.33 3.9,3.24 C4,3.15 4.08,3.12 4.1,3.14 C4.12,3.16 4.04,3.25 3.95,3.33 L3.94,3.34 Z" id="Shape" fill="#2A690B"></path>
                <path d="M3.76,3.45 C3.76,3.45 3.82,3.33 3.91,3.25 C3.95993575,3.19895636 4.02179721,3.16115213 4.09,3.14 C4.02212487,3.15660596 3.95995795,3.19114313 3.91,3.24 C3.81,3.33 3.75,3.41 3.76,3.43 C3.82838103,3.40924367 3.89033516,3.37138282 3.94,3.32 C3.98912422,3.27906592 4.03281192,3.23201764 4.07,3.18 C4.03550486,3.23415608 3.99145601,3.2815933 3.94,3.32 C3.89062118,3.37173865 3.8285672,3.40966052 3.76,3.43 L3.76,3.45 Z" id="Shape" fill="#000000"></path>
                <path d="M3.91,3.29 C3.83,3.39 3.75,3.46 3.73,3.44 C3.71,3.42 3.73,3.32 3.84,3.22 C3.95,3.12 4,3 4,3.06 C4,3.12 4,3.18 3.89,3.29 L3.91,3.29 Z" id="Shape" fill="#2A690B"></path>
                <path d="M3.74,3.45 C3.74,3.45 3.74,3.32 3.85,3.22 C3.96,3.12 3.99,3.07 4.02,3.07 C4.02,3.07 3.92,3.13 3.85,3.22 C3.78,3.31 3.72,3.43 3.74,3.44 C3.74,3.44 3.84,3.38 3.91,3.29 C3.94995926,3.23188232 3.98034468,3.16773534 4,3.1 C3.97670156,3.17319136 3.93933576,3.24112917 3.89,3.3 C3.82,3.39 3.75,3.45 3.72,3.45 L3.74,3.45 Z" id="Shape" fill="#000000"></path>
                <path d="M3.76,3.18 C3.76,3.31 3.76,3.41 3.76,3.43 C3.76,3.45 3.7,3.35 3.69,3.22 C3.68,3.09 3.69,2.99 3.69,2.98 C3.69,2.97 3.75,3.06 3.76,3.19 L3.76,3.18 Z" id="Shape" fill="#2A690B"></path>
                <path d="M3.72,3.43 C3.72,3.43 3.67,3.34 3.66,3.22 C3.65,3.1 3.66,2.98 3.66,2.97 C3.66,2.97 3.72,3.08 3.73,3.18 C3.74,3.28 3.73,3.42 3.73,3.43 L3.72,3.43 Z M3.72,2.98 C3.72,2.98 3.72,3.09 3.72,3.22 C3.72,3.35 3.72,3.43 3.78,3.43 C3.78,3.43 3.78,3.32 3.78,3.19 C3.78,3.06 3.78,2.98 3.72,2.98 Z" id="Shape" fill="#000000"></path>
                <path d="M3.82,3.18 C3.82,3.31 3.75,3.42 3.72,3.42 C3.69,3.42 3.72,3.31 3.72,3.18 C3.72,3.05 3.79,2.95 3.82,2.95 C3.85,2.95 3.82,3.06 3.82,3.19 L3.82,3.18 Z" id="Shape" fill="#2A690B"></path>
                <path d="M3.72,3.42 C3.69776028,3.34154564 3.69776028,3.25845436 3.72,3.18 C3.72,3.06 3.79,2.94 3.82,2.94 C3.76455248,3.00502654 3.72973803,3.08509977 3.72,3.17 C3.70095163,3.24548349 3.70095163,3.32451651 3.72,3.4 C3.72,3.4 3.79,3.31 3.81,3.17 C3.82174883,3.10049298 3.82174883,3.02950702 3.81,2.96 C3.82538766,3.03252613 3.82538766,3.10747387 3.81,3.18 C3.81,3.29 3.74,3.42 3.71,3.42 L3.72,3.42 Z" id="Shape" fill="#000000"></path>
                <path d="M3.87,3.23 C3.82,3.36 3.76,3.45 3.73,3.44 C3.7,3.43 3.73,3.32 3.78,3.2 C3.83,3.08 3.89,2.98 3.92,2.99 C3.95,3 3.92,3.11 3.92,3.23 L3.87,3.23 Z" id="Shape" fill="#2A690B"></path>
                <path d="M3.73,3.44 C3.70328947,3.35880702 3.70328947,3.27119298 3.73,3.19 C3.73,3.07 3.84,2.98 3.87,2.98 C3.9,2.98 3.87,3.12 3.87,3.23 C3.87,3.34 3.76,3.44 3.73,3.44 Z M3.91,2.98 C3.91,2.98 3.83,3.06 3.78,3.19 C3.74326679,3.26447106 3.72606166,3.3470557 3.73,3.43 C3.73,3.43 3.81,3.35 3.86,3.22 C3.91,3.09 3.93,2.99 3.91,2.98 Z" id="Shape" fill="#000000"></path>
                <path d="M3.72,3.43 L3.66,3.38 C3.66,3.38 3.66,3.38 3.66,3.31 C3.62780332,3.29768929 3.59219668,3.29768929 3.56,3.31 C3.56,3.31 3.56,3.31 3.56,3.37 C3.56,3.43 3.64,3.37 3.66,3.37 L3.73,3.43 L3.83,3.43 C3.87983753,3.43570028 3.93016247,3.43570028 3.98,3.43 C3.98,3.43 4.05,3.43 4.03,3.43 C3.99703643,3.42297852 3.96296357,3.42297852 3.93,3.43 C3.93,3.43 3.87,3.43 3.83,3.43 L3.74,3.43 L3.72,3.43 Z" id="Shape" fill="#2A690B"></path>
                <path d="M4,3.5 C3.9671086,3.5076762 3.9328914,3.5076762 3.9,3.5 L3.8,3.5 L3.73,3.44 L3.8,3.5 L3.87,3.5 L3.95,3.5 C3.98301931,3.50647064 4.01698069,3.50647064 4.05,3.5 L4,3.5 Z M4,3.5 C3.96742052,3.48997436 3.93257948,3.48997436 3.9,3.5 C3.9,3.5 3.9,3.5 3.9,3.5 L3.76,3.5 L3.7,3.45 C3.7069568,3.42718521 3.7069568,3.40281479 3.7,3.38 C3.67390097,3.37221877 3.64609903,3.37221877 3.62,3.38 C3.64588167,3.37084945 3.67411833,3.37084945 3.7,3.38 C3.70778402,3.39924261 3.70778402,3.42075739 3.7,3.44 C3.7156703,3.46672132 3.73598969,3.49042727 3.76,3.51 L3.94,3.51 C3.97576838,3.49852182 4.01423162,3.49852182 4.05,3.51 L4,3.5 Z" id="Shape" fill="#000000"></path>
                <path d="M3.63,3.73 C3.49,3.73 3.39,3.73 3.39,3.73 C3.39,3.73 3.51,3.65 3.64,3.63 C3.77,3.61 3.88,3.63 3.88,3.63 C3.88,3.63 3.76,3.71 3.63,3.73 Z" id="Shape" fill="#2A690B"></path>
                <path d="M3.49,3.75 C3.44,3.75 3.4,3.75 3.39,3.75 C3.39,3.75 3.51,3.75 3.63,3.75 C3.70697034,3.74019575 3.78151631,3.71647658 3.85,3.68 C3.78299132,3.72160033 3.70807839,3.74884139 3.63,3.76 L3.49,3.75 Z M3.42,3.68 C3.48779077,3.64190431 3.56265955,3.61808243 3.64,3.61 C3.71789943,3.5840735 3.80210057,3.5840735 3.88,3.61 C3.88,3.61 3.76,3.61 3.64,3.61 C3.5632978,3.62099607 3.48895356,3.64465106 3.42,3.68 Z" id="Shape" fill="#000000"></path>
                <path d="M3.62,3.67 C3.49,3.72 3.37,3.74 3.37,3.67 C3.37,3.6 3.47,3.57 3.6,3.52 C3.73,3.47 3.85,3.45 3.85,3.52 C3.85,3.59 3.75,3.62 3.62,3.67 Z" id="Shape" fill="#2A690B"></path>
                <path d="M3.41,3.72 C3.41,3.72 3.41,3.72 3.41,3.72 C3.41,3.72 3.51,3.62 3.64,3.57 C3.77,3.52 3.89,3.5 3.9,3.57 C3.91,3.64 3.8,3.67 3.67,3.72 C3.60295768,3.74727294 3.53213932,3.76413445 3.46,3.77 L3.41,3.72 Z M3.8,3.51 C3.73385436,3.49821269 3.66614564,3.49821269 3.6,3.51 C3.46,3.56 3.36,3.63 3.37,3.66 C3.44224245,3.65479383 3.51316276,3.63790804 3.58,3.61 C3.72,3.56 3.82,3.49 3.81,3.46 L3.8,3.51 Z" id="Shape" fill="#000000"></path>
                <path d="M3.54,3.48 C3.48,3.6 3.41,3.7 3.37,3.69 C3.33,3.68 3.37,3.58 3.37,3.45 C3.37,3.32 3.5,3.23 3.53,3.24 C3.56,3.25 3.53,3.35 3.53,3.48 L3.54,3.48 Z" id="Shape" fill="#2A690B"></path>
                <path d="M3.37,3.69 C3.37,3.69 3.48,3.6 3.53,3.48 C3.55796307,3.4229546 3.57814322,3.36241416 3.59,3.3 C3.58078029,3.36307093 3.56046679,3.42401143 3.53,3.48 C3.47,3.6 3.4,3.69 3.36,3.69 L3.37,3.69 Z M3.37,3.69 C3.37826564,3.62354194 3.39859923,3.55915223 3.43,3.5 C3.49,3.38 3.56,3.28 3.6,3.28 C3.6,3.28 3.49,3.37 3.43,3.49 C3.40020354,3.54981261 3.37995824,3.61392269 3.37,3.68 L3.37,3.69 Z" id="Shape" fill="#000000"></path>
                <path d="M3.6,3.51 C3.5,3.62 3.4,3.7 3.38,3.68 C3.36,3.66 3.38,3.56 3.51,3.45 C3.64,3.34 3.71,3.27 3.73,3.28 C3.75,3.29 3.73,3.4 3.6,3.51 Z" id="Shape" fill="#2A690B"></path>
                <path d="M3.39,3.68 C3.47375604,3.64282637 3.54620152,3.58418002 3.6,3.51 C3.64524623,3.46081072 3.68544724,3.40720938 3.72,3.35 C3.6922633,3.40895178 3.65511027,3.46299255 3.61,3.51 C3.52,3.61 3.43,3.68 3.4,3.68 L3.39,3.68 Z M3.39,3.68 C3.4214925,3.60932942 3.46553829,3.54495481 3.52,3.49 C3.57617399,3.41405216 3.65233776,3.35519834 3.74,3.32 C3.74,3.32 3.61,3.39 3.53,3.48 C3.47661894,3.53583941 3.4327085,3.60001621 3.4,3.67 L3.39,3.68 Z" id="Shape" fill="#000000"></path>
                <path d="M3.62,3.59 C3.5,3.68 3.39,3.73 3.37,3.71 C3.35,3.69 3.43,3.6 3.55,3.5 C3.67,3.4 3.78,3.36 3.8,3.38 C3.82,3.4 3.74,3.5 3.62,3.58 L3.62,3.59 Z" id="Shape" fill="#2A690B"></path>
                <path d="M3.39,3.72 C3.47474364,3.69787872 3.55337704,3.65685259 3.62,3.6 L3.76,3.47 L3.76,3.41 C3.76433608,3.42976498 3.76433608,3.45023502 3.76,3.47 L3.62,3.6 C3.55394455,3.65988399 3.47537334,3.70429381 3.39,3.73 L3.39,3.72 Z M3.39,3.72 C3.43398841,3.64918064 3.49180774,3.58796017 3.56,3.54 C3.62643634,3.48064547 3.70488382,3.43630559 3.79,3.41 C3.70421414,3.43719636 3.62322861,3.47768913 3.55,3.53 C3.47935573,3.57831719 3.41831719,3.63935573 3.37,3.71 L3.39,3.72 Z" id="Shape" fill="#000000"></path>
                <path d="M3.37,3.69 L3.37,3.6 C3.37,3.6 3.37,3.6 3.37,3.52 C3.35607046,3.48072708 3.32736895,3.44843789 3.29,3.43 C3.29,3.43 3.29,3.43 3.29,3.5 C3.29,3.57 3.35,3.58 3.36,3.6 C3.36228579,3.63329415 3.36228579,3.66670585 3.36,3.7 L3.45,3.78 C3.45,3.78 3.51,3.88 3.56,3.91 C3.61,3.94 3.64,3.91 3.63,3.91 C3.61246793,3.87028619 3.58489668,3.83582212 3.55,3.81 C3.55,3.81 3.48,3.81 3.45,3.81 L3.37,3.74 L3.37,3.69 Z" id="Shape" fill="#2A690B"></path>
                <path d="M3.61,3.92 L3.56,3.92 C3.52819095,3.89499875 3.50109949,3.86452086 3.48,3.83 L3.39,3.75 C3.39292962,3.71673104 3.39292962,3.68326896 3.39,3.65 C3.39423982,3.6798502 3.39423982,3.7101498 3.39,3.74 L3.45,3.79 L3.51,3.86 C3.53030992,3.8950985 3.55752472,3.92571515 3.59,3.95 L3.61,3.92 Z M3.61,3.92 C3.59562187,3.87580356 3.56761633,3.83729593 3.53,3.81 L3.48,3.81 C3.47739897,3.78005638 3.47739897,3.74994362 3.48,3.72 C3.48915055,3.69411833 3.48915055,3.66588167 3.48,3.64 C3.48538776,3.61360547 3.48538776,3.58639453 3.48,3.56 C3.50542007,3.58007902 3.52309057,3.60835183 3.53,3.64 C3.53778402,3.65924261 3.53778402,3.68075739 3.53,3.7 C3.52539862,3.73652231 3.52539862,3.77347769 3.53,3.81 L3.58,3.81 C3.61489668,3.83582212 3.64246793,3.87028619 3.66,3.91 L3.61,3.92 Z M3.3,3.62 C3.26983621,3.59201048 3.24597436,3.55792212 3.23,3.52 C3.22055416,3.49762264 3.22055416,3.47237736 3.23,3.45 C3.23,3.45 3.23,3.45 3.23,3.51 C3.22483327,3.53304731 3.22483327,3.55695269 3.23,3.58 L3.3,3.62 Z" id="Shape" fill="#000000"></path>
                <path d="M3.22,4 C3.08,4 2.97,4 2.97,3.93 C2.97,3.86 3.08,3.86 3.22,3.86 C3.36,3.86 3.47,3.86 3.47,3.93 C3.47,4 3.36,4 3.22,4.01 L3.22,4 Z" id="Shape" fill="#2A690B"></path>
                <path d="M3.21,4 C3.13490364,4.02194452 3.05509636,4.02194452 2.98,4 C3.04655201,4.04787554 3.12854197,4.06926423 3.21,4.06 C3.35,4.06 3.46,4.06 3.46,3.99 C3.46,3.92 3.35,3.93 3.22,3.93 C3.14718312,3.9176917 3.07281688,3.9176917 3,3.93 C3.06910408,3.91416155 3.14089592,3.91416155 3.21,3.93 C3.36,3.93 3.46,3.93 3.46,4 C3.46,4.07 3.35,4.08 3.2,4.08 L3.21,4 Z" id="Shape" fill="#000000"></path>
                <path d="M3.19,3.72 C3.1,3.83 3.01,3.91 2.98,3.88 C2.95,3.85 2.98,3.74 3.09,3.63 C3.2,3.52 3.27,3.44 3.3,3.47 C3.33,3.5 3.3,3.61 3.19,3.72 Z" id="Shape" fill="#2A690B"></path>
                <path d="M3,3.89 C3,3.89 3,3.76 3.11,3.64 C3.22,3.52 3.27,3.47 3.31,3.47 C3.31,3.47 3.18,3.54 3.1,3.63 C3.02,3.72 2.97,3.85 3,3.88 C3,3.88 3.12,3.81 3.2,3.72 C3.24800388,3.6602278 3.28522709,3.59254923 3.31,3.52 C3.28994831,3.59454172 3.25221485,3.66314801 3.2,3.72 C3.12,3.82 3.04,3.89 3,3.89 Z" id="Shape" fill="#000000"></path>
                <path d="M3.23,3.84 C3.1,3.9 2.98,3.91 2.97,3.84 C2.96,3.77 3.05,3.73 3.18,3.67 C3.31,3.61 3.43,3.6 3.44,3.67 C3.45,3.74 3.36,3.78 3.23,3.84 Z" id="Shape" fill="#2A690B"></path>
                <path d="M3,3.9 C3,3.9 2.95,3.9 2.94,3.9 C2.93,3.9 3.02,3.79 3.15,3.73 C3.28,3.67 3.4,3.66 3.41,3.73 C3.42,3.8 3.33,3.84 3.2,3.9 C3.13352915,3.92901863 3.06241585,3.94595037 2.99,3.95 L3,3.9 Z M3.36,3.66 C3.28755282,3.66383361 3.21640147,3.6807744 3.15,3.71 C3.02,3.76 2.93,3.84 2.94,3.88 C2.95,3.92 3.07,3.88 3.2,3.88 C3.33,3.88 3.42,3.75 3.41,3.71 C3.4,3.67 3.41,3.71 3.36,3.71 L3.36,3.66 Z" id="Shape" fill="#000000"></path>
                <path d="M3.3,1.65 C3.36,1.71 3.4,1.76 3.39,1.77 C3.38,1.78 3.31,1.77 3.25,1.68 C3.19,1.59 3.15,1.57 3.16,1.56 C3.17,1.55 3.24,1.56 3.31,1.65 L3.3,1.65 Z" id="Shape" fill="#2A690B"></path>
                <path d="M3.37,1.77 C3.31694405,1.75134725 3.26899613,1.72052359 3.23,1.68 C3.17,1.63 3.14,1.58 3.14,1.56 C3.14,1.56 3.14,1.62 3.22,1.67 C3.25821081,1.71146856 3.3064104,1.742454 3.36,1.76 C3.36,1.76 3.36,1.7 3.28,1.64 L3.17,1.56 L3.29,1.64 C3.34,1.64 3.38,1.74 3.38,1.76 L3.37,1.77 Z" id="Shape" fill="#000000"></path>
                <path d="M3.22,1.71 C3.31,1.71 3.38,1.71 3.38,1.76 C3.38,1.81 3.32,1.76 3.23,1.76 C3.14,1.76 3.07,1.76 3.07,1.71 C3.07,1.66 3.13,1.71 3.22,1.71 Z" id="Shape" fill="#2A690B"></path>
                <path d="M3.31,1.79 L3.23,1.79 C3.15,1.79 3.07,1.79 3.07,1.73 C3.07,1.67 3.16,1.73 3.22,1.73 C3.28,1.73 3.38,1.73 3.38,1.78 C3.38,1.83 3.38,1.78 3.31,1.78 L3.31,1.79 Z M3.13,1.71 L3.06,1.71 C3.06,1.71 3.13,1.71 3.22,1.77 C3.26871579,1.78602632 3.32128421,1.78602632 3.37,1.77 C3.37,1.77 3.3,1.77 3.21,1.72 L3.13,1.71 Z" id="Shape" fill="#000000"></path>
                <path d="M3.25,1.67 C3.33,1.67 3.39,1.76 3.38,1.77 C3.37,1.78 3.3,1.77 3.22,1.72 C3.14,1.67 3.08,1.63 3.09,1.62 C3.1,1.61 3.17,1.62 3.25,1.62 L3.25,1.67 Z" id="Shape" fill="#2A690B"></path>
                <path d="M3.37,1.78 C3.31672537,1.76942935 3.26586828,1.74908651 3.22,1.72 C3.17019623,1.70063273 3.1256587,1.66979905 3.09,1.63 C3.09,1.63 3.14,1.69 3.21,1.73 L3.36,1.78 L3.37,1.78 Z M3.37,1.78 C3.33608986,1.73593913 3.29128486,1.70147374 3.24,1.68 L3.13,1.68 L3.25,1.68 C3.30128486,1.70147374 3.34608986,1.73593913 3.38,1.78 L3.37,1.78 Z" id="Shape" fill="#000000"></path>
                <path d="M2.11,3.71 C2.24191666,3.73949565 2.37211292,3.77621767 2.5,3.82 C2.68,3.89 2.96,4.12 3.04,4.13 C3.14763446,4.14214414 3.25006391,4.08068647 3.29,3.98 C3.16,3.98 3.08,4.07 2.96,3.98 C2.85110975,3.90304942 2.73755915,3.83291522 2.62,3.77 C2.46666501,3.7101056 2.30968271,3.66000487 2.15,3.62 L2.11,3.71 Z" id="Shape" fill="#2A690B"></path>
                <path d="M3.06,4.13 C2.98888082,4.09793815 2.92175771,4.05766428 2.86,4.01 C2.75306573,3.93300799 2.639249,3.86605697 2.52,3.81 C2.39194192,3.76676789 2.26177494,3.73005413 2.13,3.7 L2.13,3.62 C2.29342661,3.65829086 2.45385023,3.70842325 2.61,3.77 C2.70191623,3.81429066 2.78904008,3.86790534 2.87,3.93 L3,4 C3.08216446,4.03950651 3.17783554,4.03950651 3.26,4 L3.33,4 C3.29486467,4.09530053 3.20137733,4.15627054 3.1,4.15 L3.06,4.13 Z M2.12,3.71 C2.25252822,3.73702591 2.38288201,3.77379236 2.51,3.82 C2.63016168,3.87025573 2.74422615,3.93399763 2.85,4.01 C2.91184202,4.05482665 2.97902562,4.09177764 3.05,4.12 C3.14882591,4.12777534 3.24151489,4.07135597 3.28,3.98 L3.21,3.98 C3.14472939,4.01186923 3.07011297,4.01897555 3,4 L2.91,3.95 C2.8301961,3.88624396 2.74287839,3.83250998 2.65,3.79 C2.4967861,3.72976459 2.33978155,3.67965675 2.18,3.64 L2.18,3.71 L2.12,3.71 Z" id="Shape" fill="#000000"></path>
                <polygon id="Shape" fill="#2A690B" points="2.34 1.8 2.58 1.67 2.31 1.74 2.28 1.79"></polygon>
                <path d="M2.34,1.8 L2.28,1.8 L2.28,1.75 L2.55,1.68 L2.31,1.81 L2.34,1.8 Z M2.58,1.67 L2.31,1.74 L2.37,1.74 L2.61,1.61 L2.58,1.67 Z" id="Shape" fill="#000000"></path>
                <path d="M2.57,1.86 L2.24,1.8 C2.3,1.73 2.39,1.61 2.45,1.54 C2.40870901,1.61436809 2.37197466,1.69117627 2.34,1.77 L2.58,1.86 L2.57,1.86 Z" id="Shape" fill="#2A690B"></path>
                <path d="M2.57,1.86 L2.5,1.86 L2.24,1.86 L2.44,1.59 L2.44,1.66 C2.40771426,1.71033375 2.38089556,1.76397116 2.36,1.82 L2.52,1.88 L2.6,1.88 L2.57,1.86 Z M2.44,1.54 C2.37936579,1.63431571 2.31255298,1.72451301 2.24,1.81 L2.5,1.81 L2.45,1.81 L2.29,1.75 C2.31072974,1.69072488 2.33753926,1.63375465 2.37,1.58 L2.37,1.51 L2.44,1.54 Z" id="Shape" fill="#000000"></path>
                <polygon id="Shape" fill="#2A690B" points="2.3 1.81 2.51 1.64 2.26 1.76 2.24 1.81"></polygon>
                <path d="M2.29,1.82 L2.23,1.82 L2.23,1.76 L2.48,1.65 L2.27,1.82 L2.29,1.82 Z M2.5,1.65 L2.25,1.77 L2.25,1.82 L2.3,1.82 L2.52,1.65 L2.5,1.65 Z" id="Shape" fill="#000000"></path>
                <path d="M2.53,1.85 L2.2,1.79 C2.27165836,1.703807 2.33842973,1.61366566 2.4,1.52 C2.35899364,1.59793886 2.32227234,1.67805805 2.29,1.76 L2.53,1.85 Z" id="Shape" fill="#2A690B"></path>
                <path d="M2.53,1.86 L2.45,1.86 L2.19,1.86 L2.39,1.59 C2.334216,1.68508253 2.2706662,1.77539014 2.2,1.86 L2.46,1.86 L2.41,1.86 L2.25,1.8 C2.2699821,1.74042198 2.29682933,1.68337163 2.33,1.63 C2.29996354,1.68501882 2.27324905,1.74178711 2.25,1.8 L2.41,1.86 L2.49,1.86 L2.53,1.86 Z" id="Shape" fill="#000000"></path>
                <polygon id="Shape" fill="#2A690B" points="2.26 1.83 2.51 1.72 2.24 1.76 2.2 1.81"></polygon>
                <path d="M2.26,1.83 L2.2,1.83 L2.47,1.83 L2.22,1.94 L2.26,1.83 Z M2.51,1.72 L2.24,1.72 L2.29,1.72 L2.54,1.61 L2.51,1.72 Z" id="Shape" fill="#000000"></path>
                <path d="M2.5,1.86 L2.17,1.86 C2.22,1.78 2.29,1.65 2.34,1.56 C2.30844772,1.64169025 2.28173479,1.72516816 2.26,1.81 C2.33,1.81 2.43,1.81 2.51,1.88 L2.5,1.86 Z" id="Shape" fill="#2A690B"></path>
                <path d="M2.5,1.86 L2.42,1.86 L2.18,1.86 L2.42,1.86 L2.25,1.86 C2.26374295,1.79809249 2.28384985,1.73777178 2.31,1.68 C2.28520079,1.73829219 2.26513594,1.79848672 2.25,1.86 L2.41,1.86 L2.49,1.86 L2.5,1.86 Z M2.22,1.74 L2.32,1.55 L2.22,1.74 Z" id="Shape" fill="#000000"></path>
                <polygon id="Shape" fill="#2A690B" points="2.23 1.83 2.41 1.62 2.19 1.78 2.18 1.84"></polygon>
                <path d="M2.17,1.84 L2.17,1.78 L2.39,1.62 L2.22,1.83 L2.17,1.84 Z M2.4,1.62 L2.19,1.79 L2.24,1.79 L2.41,1.58 L2.4,1.62 Z" id="Shape" fill="#000000"></path>
                <path d="M2.5,1.87 C2.4,1.87 2.24,1.87 2.14,1.87 C2.04,1.87 2.25,1.63 2.29,1.53 C2.29,1.62 2.24,1.73 2.23,1.81 C2.3187663,1.83519529 2.40891722,1.85522883 2.5,1.87 Z" id="Shape" fill="#2A690B"></path>
                <path d="M2.5,1.87 L2.14,1.87 L2.28,1.54 C2.28,1.65 2.18,1.78 2.14,1.86 C2.2296707,1.84911209 2.3203293,1.84911209 2.41,1.86 L2.23,1.86 C2.2228107,1.79352716 2.2228107,1.72647284 2.23,1.66 C2.2235135,1.72316725 2.2235135,1.78683275 2.23,1.85 L2.41,1.85 L2.5,1.85 L2.5,1.87 Z" id="Shape" fill="#000000"></path>
                <polygon id="Shape" fill="#2A690B" points="2.2 1.88 2.41 1.68 2.15 1.82 2.14 1.88"></polygon>
                <path d="M2.2,1.88 L2.14,1.88 L2.14,1.82 L2.39,1.68 L2.19,1.88 L2.2,1.88 Z M2.41,1.67 L2.16,1.82 L2.16,1.88 L2.22,1.88 L2.43,1.68 L2.41,1.67 Z" id="Shape" fill="#000000"></path>
                <path d="M2.45,1.88 L2.06,1.88 C2.13,1.78 2.23,1.61 2.29,1.51 C2.29,1.61 2.19,1.73 2.17,1.82 C2.15,1.91 2.37,1.82 2.45,1.88 Z" id="Shape" fill="#2A690B"></path>
                <path d="M2.06,1.89 C2.13,1.79 2.23,1.62 2.29,1.52 C2.23,1.63 2.14,1.79 2.07,1.89 L2.36,1.89 L2.17,1.89 C2.19115473,1.81477802 2.21789571,1.74124032 2.25,1.67 L2.25,1.59 L2.25,1.68 C2.2190608,1.75170847 2.19234839,1.8251676 2.17,1.9 L2.36,1.9 L2.45,1.9 L2.06,1.9 L2.06,1.89 Z" id="Shape" fill="#000000"></path>
                <polygon id="Shape" fill="#2A690B" points="2.13 1.89 2.39 1.67 2.09 1.83 2.06 1.89"></polygon>
                <path d="M2.06,1.89 L2.06,1.82 L2.36,1.66 L2.1,1.89 L2.06,1.89 Z M2.4,1.66 L2.1,1.82 L2.1,1.88 L2.16,1.88 L2.43,1.65 L2.4,1.66 Z" id="Shape" fill="#000000"></path>
                <path d="M2.41,1.88 C2.3,1.88 2.13,1.88 2.03,1.94 C2.09,1.83 2.16,1.65 2.21,1.54 C2.17671431,1.64490195 2.14999589,1.7517756 2.13,1.86 C2.2265565,1.86652681 2.3234435,1.86652681 2.42,1.86 L2.41,1.88 Z" id="Shape" fill="#2A690B"></path>
                <path d="M2,1.95 C2.06,1.84 2.13,1.67 2.17,1.56 C2.12298047,1.68923344 2.06958157,1.81605584 2.01,1.94 L2.3,1.94 L2.1,1.94 C2.11049219,1.86212012 2.12721244,1.78520697 2.15,1.71 L2.15,1.65 L2.15,1.72 C2.12800829,1.79541147 2.11130111,1.87226448 2.1,1.95 L2.3,1.95 L2,2 L2,1.95 Z" id="Shape" fill="#000000"></path>
                <polygon id="Shape" fill="#2A690B" points="2.09 1.94 2.3 1.65 2.04 1.88 2.03 1.95"></polygon>
                <path d="M2,2 L2,1.88 L2.26,1.65 L2.06,1.94 L2,2 Z M2.27,1.69 L2,1.88 L2,2 L2.06,2 L2.26,1.71 L2.27,1.69 Z" id="Shape" fill="#000000"></path>
                <path d="M2.35,1.92 C2.24,1.92 2.07,1.92 1.96,1.92 C2.02,1.81 2.11,1.64 2.16,1.53 C2.16,1.63 2.08,1.76 2.06,1.85 C2.15658187,1.85572611 2.25341813,1.85572611 2.35,1.85 L2.35,1.92 Z" id="Shape" fill="#2A690B"></path>
                <path d="M2,2 C2.06,1.89 2.15,1.72 2.2,1.61 L2.2,1.71 C2.17288374,1.7820755 2.1495191,1.85550722 2.13,1.93 L2.32,1.93 L2,2 Z M2.2,1.61 C2.14116247,1.74386832 2.07437673,1.8741005 2,2 L2.29,2 L2.1,2 C2.11423375,1.92521455 2.13429492,1.85165691 2.16,1.78 L2.16,1.68 L2.2,1.61 Z" id="Shape" fill="#000000"></path>
                <polygon id="Shape" fill="#2A690B" points="2.05 1.97 2.32 1.74 2.02 1.9 1.99 1.97"></polygon>
                <path d="M2,2 L2,1.93 L2.3,1.77 L2.06,2 L2,2 Z M2.33,1.77 L2,1.9 L2,2 L2.06,2 L2.32,1.77 L2.33,1.77 Z" id="Shape" fill="#000000"></path>
                <path d="M2.32,1.93 C2.21,2 2,2 1.93,2 C1.98,1.89 2.05,1.71 2.09,1.6 C2.09,1.7 2.03,1.83 2.03,1.92 C2.12658391,1.92565672 2.22341609,1.92565672 2.32,1.92 L2.32,1.93 Z" id="Shape" fill="#2A690B"></path>
                <path d="M1.93,2 C1.93,1.9 2.04,1.73 2.08,1.62 C2.03991111,1.74572296 1.99317873,1.86922995 1.94,1.99 L2.23,1.92 L2.32,1.92 L2,1.92 C1.99463083,1.84009009 1.99463083,1.75990991 2,1.68 C1.9949274,1.75658276 1.9949274,1.83341724 2,1.91 L2.29,1.91 L2.2,1.91 L1.9,1.98 L1.93,2 Z" id="Shape" fill="#000000"></path>
                <polygon id="Shape" fill="#2A690B" points="2.01 1.98 2.18 1.67 1.95 1.94 1.95 2.01"></polygon>
                <path d="M1.95,2 L1.95,1.94 L2.18,1.67 L2,2 L1.93,2 L1.95,2 Z M2.18,1.66 L2,1.94 L2,2 L2.17,1.69 L2.18,1.66 Z" id="Shape" fill="#000000"></path>
                <path d="M2.32,1.95 C2.2,1.95 2.02,2.02 1.91,2.06 C1.91,1.94 2,1.73 2.03,1.6 C2.01159229,1.73256915 2.00157236,1.8661682 2,2 C2.10657882,2.00612212 2.21342118,2.00612212 2.32,2 L2.32,1.95 Z" id="Shape" fill="#2A690B"></path>
                <path d="M1.9,2.06 C1.9,1.93 1.99,1.73 2.02,1.6 L2.02,1.7 C2.00356404,1.79910827 1.99686546,1.89958703 2,2 L2.32,2 L2.22,2 L1.91,2.09 L1.9,2.06 Z M2,1.6 C1.96847542,1.75213283 1.92841205,1.90237049 1.88,2.05 L2.22,2 L2.32,2 L2,2 C1.99316109,1.91346825 1.99316109,1.82653175 2,1.74 L2,1.6 Z" id="Shape" fill="#000000"></path>
                <polygon id="Shape" fill="#2A690B" points="1.98 2.05 2.19 1.74 1.92 1.99 1.91 2.07"></polygon>
                <path d="M1.9,2.07 L1.9,2 L2.17,1.75 L1.97,2.07 L1.89,2.07 L1.9,2.07 Z M2.18,1.73 L1.92,2 L1.92,2.07 L2,2 L2.21,1.69 L2.18,1.73 Z" id="Shape" fill="#000000"></path>
                <path d="M2.27,2 C2.15,2 1.97,2.08 1.86,2.13 C1.86,2 1.94,1.8 1.96,1.67 C1.96722412,1.78065473 1.98057795,1.89082381 2,2 C2.10656549,2.00657033 2.21343451,2.00657033 2.32,2 L2.27,2 Z" id="Shape" fill="#2A690B"></path>
                <path d="M1.86,2.12 C1.86,1.99 1.94,1.79 1.96,1.66 L1.96,1.77 C1.95724548,1.82329777 1.95724548,1.87670223 1.96,1.93 C1.95663708,1.87671968 1.95663708,1.82328032 1.96,1.77 L1.96,1.66 C1.9375385,1.81140969 1.9075008,1.96159817 1.87,2.11 L2.17,2.01 L2.27,2.01 L2.17,2.01 L2,2 L2.19,2 L2.3,2 L2.2,2 L1.9,2.1 L1.86,2.12 Z" id="Shape" fill="#000000"></path>
                <polygon id="Shape" fill="#2A690B" points="1.94 2.1 2.1 1.75 1.87 2.05 1.87 2.13"></polygon>
                <path d="M1.87,2.13 L1.87,2 L2.1,1.7 L1.94,2.05 L1.87,2.05 L1.87,2.13 Z M2.1,1.75 L1.88,2.05 L1.88,2.12 L1.94,2.12 L2.1,1.78 L2.1,1.75 Z" id="Shape" fill="#000000"></path>
                <path d="M2.23,2 C2.11,2 1.92,2.06 1.81,2.1 C1.81,1.98 1.91,1.78 1.95,1.65 C1.94394573,1.76992364 1.94394573,1.89007636 1.95,2.01 C2.05659071,2.01569294 2.16340929,2.01569294 2.27,2.01 L2.23,2 Z" id="Shape" fill="#2A690B"></path>
                <path d="M1.81,2.13 C1.81,2.01 1.91,1.81 1.95,1.69 C1.91512067,1.8390331 1.87171596,1.98594136 1.82,2.13 L2.12,2 L2.22,2 L1.9,2 C1.89157216,1.91353822 1.89157216,1.82646178 1.9,1.74 C1.89478657,1.82325179 1.89478657,1.90674821 1.9,1.99 L2.22,1.99 L2.12,1.99 L1.81,2.07 L1.81,2.13 Z" id="Shape" fill="#000000"></path>
                <polygon id="Shape" fill="#2A690B" points="1.9 2.13 2.16 1.86 1.85 2.06 1.83 2.13"></polygon>
                <path d="M1.82,2.14 L1.82,2.06 L2.13,1.86 L1.87,2.13 L1.82,2.14 Z M2.15,1.86 L1.84,2.06 L1.84,2.13 L1.91,2.13 L2.17,1.86 L2.15,1.86 Z" id="Shape" fill="#000000"></path>
                <path d="M2.17,2.07 C2.05,2.07 1.87,2.07 1.76,2.13 C1.82,2.01 1.88,1.81 1.93,1.69 C1.89953671,1.80850307 1.87616195,1.92871612 1.86,2.05 C1.96321974,2.05685225 2.06678026,2.05685225 2.17,2.05 L2.17,2.07 Z" id="Shape" fill="#2A690B"></path>
                <path d="M1.76,2.14 C1.76,2.03 1.87,1.84 1.92,1.72 C1.87704047,1.8591406 1.82697474,1.99598692 1.77,2.13 L2.08,2.13 L1.87,2.13 C1.86160245,2.04019589 1.86160245,1.94980411 1.87,1.86 C1.86505446,1.94659611 1.86505446,2.03340389 1.87,2.12 L2.08,2.12 L2.19,2.12 L2.09,2.12 L1.78,2.12 L1.76,2.14 Z" id="Shape" fill="#000000"></path>
                <polygon id="Shape" fill="#2A690B" points="1.85 2.1 2.02 1.77 1.78 2.05 1.78 2.13"></polygon>
                <path d="M1.78,2.13 L1.78,2 L2,1.76 L1.83,2.1 L1.76,2.1 L1.78,2.13 Z M2,1.76 L1.78,2 L1.78,2.07 L1.84,2.07 L2,1.76 Z" id="Shape" fill="#000000"></path>
                <path d="M2.19,2 C2.06,2.05 1.86,2.13 1.74,2.19 C1.74,2.04 1.82,1.8 1.85,1.65 C1.84126748,1.78986383 1.84126748,1.93013617 1.85,2.07 C1.96449608,2.05272148 2.07799027,2.02935503 2.19,2 Z" id="Shape" fill="#2A690B"></path>
                <path d="M1.74,2.23 C1.74,2.08 1.82,1.84 1.85,1.69 L1.85,1.8 C1.84427011,1.89991792 1.84427011,2.00008208 1.85,2.1 L2.08,2.1 L2.2,2.1 L2.09,2.1 L1.75,2.24 L1.74,2.23 Z M1.85,1.69 C1.85,1.84 1.79,2.07 1.75,2.23 L2.08,2.09 L2.19,2.09 L2.07,2.09 L1.84,2.09 C1.83221621,1.99015147 1.83221621,1.88984853 1.84,1.79 L1.84,1.69 L1.85,1.69 Z" id="Shape" fill="#000000"></path>
                <polygon id="Shape" fill="#2A690B" points="1.82 2.2 2 1.82 1.72 2.15 1.72 2.24"></polygon>
                <path d="M1.74,2.24 L1.74,2.14 L2,1.82 L1.79,2.21 L1.71,2.21 L1.74,2.24 Z M2,1.82 L1.72,2.15 L1.72,2.24 L1.79,2.24 L2,1.82 Z" id="Shape" fill="#000000"></path>
                <path d="M2.14,2.08 C2.02,2.14 1.82,2.22 1.7,2.29 C1.7,2.14 1.76,1.9 1.78,1.75 C1.77299123,1.88657681 1.77299123,2.02342319 1.78,2.16 C1.89836924,2.1370606 2.01524791,2.10700608 2.13,2.07 L2.14,2.08 Z" id="Shape" fill="#2A690B"></path>
                <path d="M1.7,2.3 C1.7,2.15 1.76,1.91 1.78,1.77 C1.78,1.92 1.78,2.15 1.7,2.3 C1.79692132,2.23806462 1.89706222,2.1813181 2,2.13 L2.1,2.13 L1.98,2.13 L1.75,2.18 C1.74160535,2.08017618 1.74160535,1.97982382 1.75,1.88 C1.74361051,1.97989794 1.74361051,2.08010206 1.75,2.18 L2,2.11 L2.12,2.11 L2.02,2.16 L1.68,2.32 L1.7,2.3 Z" id="Shape" fill="#000000"></path>
                <path d="M1.78,2.26 C1.78,2.26 1.94,1.84 1.94,1.84 L1.71,2.21 L1.71,2.3 L1.78,2.26 Z" id="Shape" fill="#2A690B"></path>
                <path d="M1.7,2.31 L1.7,2.22 L1.93,1.85 L1.78,2.27 L1.7,2.27 L1.7,2.31 Z M1.93,1.84 L1.7,2.21 L1.7,2.3 L1.77,2.3 L1.93,1.89 L1.93,1.84 Z" id="Shape" fill="#000000"></path>
                <path d="M2.08,2.12 C1.96,2.18 1.76,2.26 1.64,2.34 C1.64,2.19 1.7,1.95 1.72,1.8 C1.72,1.93 1.72,2.1 1.72,2.21 C1.83834299,2.1869442 1.95521475,2.15689146 2.07,2.12 L2.08,2.12 Z" id="Shape" fill="#2A690B"></path>
                <path d="M1.64,2.34 C1.64,2.19 1.7,1.95 1.72,1.8 L1.72,1.93 C1.71410517,2.0265768 1.71410517,2.1234232 1.72,2.22 L2,2.15 L2.12,2.15 L2.02,2.2 C1.90334772,2.24977041 1.7898077,2.30654042 1.68,2.37 L1.64,2.34 Z M1.72,1.8 C1.70568255,1.9777408 1.68231893,2.15463675 1.65,2.33 L2,2.16 L2.1,2.16 L1.98,2.16 L1.75,2.22 C1.74173985,2.12350979 1.74173985,2.02649021 1.75,1.93 L1.75,1.79 L1.72,1.8 Z" id="Shape" fill="#000000"></path>
                <polygon id="Shape" fill="#2A690B" points="1.74 2.31 1.98 1.95 1.68 2.24 1.67 2.34"></polygon>
                <path d="M1.66,2.34 L1.66,2.24 L1.97,1.94 L1.73,2.31 L1.65,2.31 L1.66,2.34 Z M2,1.94 L1.7,2.24 L1.7,2.33 L1.77,2.33 L2,1.94 Z" id="Shape" fill="#000000"></path>
                <path d="M2.07,2.1 C1.96,2.19 1.78,2.32 1.68,2.42 C1.68,2.27 1.68,2.03 1.68,1.89 C1.70347307,2.02142042 1.73351066,2.15158333 1.77,2.28 C1.88324622,2.22986976 1.99343751,2.17310455 2.1,2.11 L2.07,2.1 Z" id="Shape" fill="#2A690B"></path>
                <path d="M1.68,2.42 C1.68,2.28 1.68,2.07 1.68,1.92 C1.68,2.09 1.68,2.28 1.68,2.41 C1.76,2.34 1.87,2.25 1.97,2.17 L2.06,2.1 L2,2.16 L1.79,2.27 C1.7406546,2.18445093 1.70043384,2.0939542 1.67,2 C1.68655969,2.09489734 1.70995392,2.18847426 1.74,2.28 L2,2.16 L2.11,2.1 L2,2.17 C1.9,2.25 1.78,2.34 1.7,2.41 L1.68,2.42 Z" id="Shape" fill="#000000"></path>
                <polygon id="Shape" fill="#2A690B" points="1.76 2.33 1.78 1.89 1.67 2.32 1.7 2.4"></polygon>
                <path d="M1.7,2.4 L1.7,2.32 L1.82,1.89 C1.82,2.01 1.82,2.32 1.82,2.33 L1.76,2.4 L1.7,2.4 Z M1.78,1.89 L1.67,2.32 L1.67,2.39 L1.72,2.33 C1.72,2.33 1.72,2.33 1.72,1.89 L1.78,1.89 Z" id="Shape" fill="#000000"></path>
                <path d="M2,2.14 C1.89,2.23 1.71,2.36 1.61,2.46 C1.61,2.31 1.61,2.07 1.61,1.93 C1.63321767,2.06147254 1.66325826,2.1916484 1.7,2.32 C1.80341641,2.265887 1.90358669,2.20578483 2,2.14 Z" id="Shape" fill="#2A690B"></path>
                <path d="M1.65,2.46 C1.65,2.31 1.65,2.09 1.65,1.94 C1.65,2.1 1.65,2.31 1.65,2.45 L1.94,2.22 L2.04,2.14 L1.93,2.2 C1.85965616,2.24236355 1.78609714,2.27914306 1.71,2.31 C1.67668593,2.20917647 1.65324255,2.1053558 1.64,2 L1.64,1.93 L1.64,2 C1.65589813,2.09176549 1.67931024,2.18206937 1.71,2.27 L1.92,2.16 L2,2.14 L1.9,2.22 L1.61,2.46 L1.65,2.46 Z" id="Shape" fill="#000000"></path>
                <polygon id="Shape" fill="#2A690B" points="1.73 2.4 1.84 1.97 1.64 2.37 1.66 2.46"></polygon>
                <path d="M1.66,2.46 L1.66,2.37 L1.86,1.97 L1.75,2.4 L1.68,2.46 L1.66,2.46 Z M1.84,2 L1.65,2.4 L1.65,2.48 L1.71,2.43 C1.71,2.43 1.71,2.43 1.82,2 L1.84,2 Z" id="Shape" fill="#000000"></path>
                <path d="M2,2.15 C1.89,2.25 1.73,2.41 1.63,2.52 C1.63,2.36 1.57,2.12 1.54,1.97 C1.57905498,2.10260793 1.62580081,2.23282846 1.68,2.36 C1.79071176,2.29636713 1.89756483,2.22624481 2,2.15 Z" id="Shape" fill="#2A690B"></path>
                <path d="M1.66,2.53 C1.66,2.38 1.6,2.15 1.57,2 C1.60873152,2.17170836 1.63876975,2.34526258 1.66,2.52 C1.73,2.44 1.84,2.33 1.93,2.24 L2,2.15 L1.89,2.23 C1.82382025,2.28215744 1.75359908,2.32897156 1.68,2.37 C1.6385054,2.27978578 1.6050426,2.18608994 1.58,2.09 L1.58,2.01 L1.58,2.09 C1.60745578,2.18206905 1.64085935,2.27225868 1.68,2.36 C1.7534717,2.31876333 1.82367703,2.27195977 1.89,2.22 L2,2.15 L1.91,2.24 C1.81,2.33 1.7,2.44 1.63,2.52 L1.66,2.53 Z" id="Shape" fill="#000000"></path>
                <polygon id="Shape" fill="#2A690B" points="1.73 2.46 1.75 2 1.63 2.45 1.67 2.53"></polygon>
                <path d="M1.67,2.53 L1.67,2.44 L1.75,2 C1.75,2.16 1.75,2.45 1.75,2.46 L1.69,2.54 L1.67,2.53 Z M1.75,2 L1.64,2.44 L1.64,2.52 L1.69,2.45 C1.69,2.45 1.69,2.45 1.69,1.99 L1.75,2 Z" id="Shape" fill="#000000"></path>
                <path d="M2,2.22 C1.89,2.31 1.71,2.45 1.61,2.55 C1.61,2.39 1.61,2.15 1.61,2 C1.63541981,2.13847627 1.66880863,2.27537045 1.71,2.41 C1.80988132,2.35171459 1.90667758,2.28829635 2,2.22 Z" id="Shape" fill="#2A690B"></path>
                <path d="M1.6,2.56 C1.6,2.4 1.6,2.16 1.6,2.01 L1.6,2.13 C1.62024791,2.22504906 1.64697702,2.31860096 1.68,2.41 L1.9,2.29 L2,2.22 L1.91,2.3 L1.62,2.55 L1.6,2.56 Z M1.6,2 C1.6,2.15 1.6,2.39 1.65,2.55 C1.74227518,2.46170425 1.83907212,2.37825861 1.94,2.3 L2.04,2.22 L1.93,2.29 C1.86045782,2.33658943 1.78682096,2.376755 1.71,2.41 C1.67461107,2.31595388 1.64783448,2.21888873 1.63,2.12 L1.63,2 L1.6,2 Z" id="Shape" fill="#000000"></path>
                <path d="M3.58,2.69 C3.58,3.1318278 3.2218278,3.49 2.78,3.49 C2.3381722,3.49 1.98,3.1318278 1.98,2.69 C1.98,2.2481722 2.3381722,1.89 2.78,1.89 C3.2218278,1.89 3.58,2.2481722 3.58,2.69 Z" id="Shape" fill="#3E60BD"></path>
                <polygon id="Shape" fill="#2A690B" points="1.69 2.51 1.85 2.08 1.61 2.46 1.62 2.55"></polygon>
                <path d="M1.62,2.56 L1.62,2.46 L1.86,2.08 L1.71,2.51 L1.63,2.51 L1.62,2.56 Z M1.85,2.08 L1.62,2.46 L1.62,2.55 L1.69,2.55 L1.85,2.12 L1.85,2.08 Z" id="Shape" fill="#000000"></path>
                <path d="M2,2.23 C1.9,2.34 1.74,2.49 1.65,2.61 C1.65,2.45 1.59,2.21 1.56,2.06 C1.59506145,2.19588126 1.63847734,2.32946863 1.69,2.46 C1.79399782,2.39228012 1.89415222,2.31883357 1.99,2.24 L2,2.23 Z" id="Shape" fill="#2A690B"></path>
                <path d="M1.64,2.61 C1.64,2.46 1.58,2.23 1.56,2.08 C1.56,2.25 1.63,2.46 1.65,2.6 C1.73100341,2.49840174 1.81781502,2.4015734 1.91,2.31 L2,2.22 L1.9,2.3 C1.83747593,2.35232154 1.77056204,2.39916127 1.7,2.44 C1.65976573,2.34927705 1.62634006,2.25568517 1.6,2.16 L1.6,2.1 L1.6,2.16 C1.62596832,2.25580214 1.659404,2.34942204 1.7,2.44 L1.89,2.3 L1.99,2.22 L1.91,2.31 C1.82,2.4 1.71,2.52 1.65,2.6 L1.64,2.61 Z" id="Shape" fill="#000000"></path>
                <polygon id="Shape" fill="#2A690B" points="1.7 2.53 1.68 2.08 1.61 2.53 1.65 2.61"></polygon>
                <path d="M1.65,2.62 L1.65,2.54 L1.72,2.09 C1.72,2.24 1.72,2.53 1.72,2.54 L1.67,2.62 L1.65,2.62 Z M1.65,2.08 L1.58,2.53 L1.58,2.6 L1.58,2.53 C1.58,2.53 1.58,2.53 1.58,2.08 L1.65,2.08 Z" id="Shape" fill="#000000"></path>
                <path d="M1.94,2.26 C1.84,2.37 1.69,2.52 1.61,2.64 C1.61,2.48 1.54,2.24 1.51,2.09 C1.54914977,2.22584648 1.59588988,2.35938964 1.65,2.49 C1.75070071,2.42214192 1.84751919,2.34869341 1.94,2.27 L1.94,2.26 Z" id="Shape" fill="#2A690B"></path>
                <path d="M1.61,2.65 C1.61,2.49 1.54,2.25 1.51,2.1 C1.51,2.25 1.6,2.48 1.62,2.64 C1.68,2.56 1.79,2.45 1.87,2.35 L1.95,2.26 L1.86,2.34 C1.79744599,2.39228245 1.73053556,2.43911976 1.66,2.48 C1.61488369,2.39021094 1.57806403,2.29648817 1.55,2.2 L1.55,2.1 L1.55,2.2 C1.57701014,2.2954723 1.61041906,2.38901727 1.65,2.48 C1.71663301,2.4379857 1.78013275,2.39119642 1.84,2.34 L1.94,2.26 L1.86,2.35 C1.77,2.45 1.67,2.56 1.6,2.64 L1.61,2.65 Z" id="Shape" fill="#000000"></path>
                <polygon id="Shape" fill="#2A690B" points="1.68 2.58 1.72 2.12 1.59 2.55 1.62 2.64"></polygon>
                <path d="M1.62,2.65 L1.62,2.55 L1.76,2.11 C1.76,2.27 1.76,2.56 1.76,2.57 L1.7,2.64 L1.62,2.65 Z M1.73,2.12 L1.6,2.56 L1.6,2.64 L1.66,2.58 C1.66,2.58 1.66,2.58 1.66,2.12 L1.73,2.12 Z" id="Shape" fill="#000000"></path>
                <path d="M1.92,2.28 C1.83,2.4 1.69,2.57 1.62,2.69 C1.62,2.53 1.52,2.3 1.47,2.15 C1.51903289,2.27994557 1.5758011,2.40683922 1.64,2.53 C1.73787889,2.45190187 1.83135549,2.36844063 1.92,2.28 Z" id="Shape" fill="#2A690B"></path>
                <path d="M1.62,2.7 C1.62,2.55 1.52,2.32 1.48,2.17 C1.48,2.32 1.59,2.54 1.62,2.69 C1.68,2.6 1.77,2.48 1.85,2.38 L1.92,2.28 L1.83,2.37 C1.77132679,2.42863384 1.70776347,2.48216084 1.64,2.53 C1.5895514,2.44360248 1.54608001,2.35331573 1.51,2.26 L1.51,2.18 L1.51,2.25 C1.54652038,2.34312432 1.58997566,2.43337759 1.64,2.52 L1.82,2.36 L1.91,2.27 L1.84,2.37 C1.76,2.47 1.67,2.59 1.61,2.68 L1.62,2.7 Z" id="Shape" fill="#000000"></path>
                <polygon id="Shape" fill="#2A690B" points="1.67 2.62 1.64 2.16 1.59 2.62 1.63 2.7"></polygon>
                <path d="M1.63,2.7 L1.63,2.61 L1.69,2.15 C1.69,2.3 1.69,2.6 1.69,2.61 L1.69,2.69 L1.63,2.7 Z M1.63,2.16 L1.58,2.62 L1.58,2.7 L1.58,2.63 C1.58,2.63 1.58,2.63 1.58,2.17 L1.63,2.16 Z" id="Shape" fill="#000000"></path>
                <path d="M1.92,2.31 C1.84,2.43 1.7,2.61 1.63,2.74 C1.63,2.58 1.51,2.35 1.46,2.21 C1.51677467,2.33659259 1.58019636,2.46009797 1.65,2.58 C1.74492699,2.49859983 1.83507689,2.41178882 1.92,2.32 L1.92,2.31 Z" id="Shape" fill="#2A690B"></path>
                <path d="M1.63,2.74 C1.63,2.6 1.52,2.39 1.47,2.24 L1.53,2.35 C1.57158505,2.43930832 1.61833069,2.52612166 1.67,2.61 L1.84,2.44 L1.93,2.35 L1.86,2.45 C1.78,2.56 1.7,2.68 1.64,2.78 L1.63,2.74 Z M1.46,2.2 C1.51,2.34 1.58,2.55 1.62,2.69 C1.67,2.6 1.76,2.48 1.83,2.37 L1.9,2.27 L1.82,2.37 C1.76495652,2.43169492 1.70473705,2.48856886 1.64,2.54 C1.58644302,2.45722405 1.53962562,2.37027745 1.5,2.28 L1.45,2.17 L1.46,2.2 Z" id="Shape" fill="#000000"></path>
                <polygon id="Shape" fill="#2A690B" points="1.7 2.66 1.75 2.2 1.62 2.64 1.64 2.73"></polygon>
                <path d="M1.64,2.73 L1.64,2.64 L1.77,2.2 C1.77,2.36 1.77,2.65 1.77,2.66 L1.71,2.73 L1.64,2.73 Z M1.74,2.2 L1.61,2.64 L1.61,2.72 L1.66,2.66 C1.66,2.66 1.66,2.66 1.66,2.2 L1.74,2.2 Z" id="Shape" fill="#000000"></path>
                <path d="M1.9,2.35 C1.83,2.48 1.71,2.68 1.65,2.82 C1.6,2.67 1.49,2.45 1.43,2.31 C1.49736481,2.4270857 1.57079813,2.54057357 1.65,2.65 C1.73494271,2.55405636 1.81504241,2.45393173 1.89,2.35 L1.9,2.35 Z" id="Shape" fill="#2A690B"></path>
                <path d="M1.65,2.82 C1.6,2.67 1.5,2.45 1.43,2.32 C1.5,2.46 1.6,2.67 1.65,2.81 C1.65,2.71 1.77,2.58 1.83,2.47 L1.89,2.35 L1.81,2.46 C1.76168168,2.53052849 1.70820182,2.59737831 1.65,2.66 C1.58992457,2.58470589 1.53639632,2.50441352 1.49,2.42 L1.43,2.33 L1.49,2.42 C1.53802582,2.50341392 1.59147401,2.58358619 1.65,2.66 C1.70755169,2.59682031 1.76099458,2.5300167 1.81,2.46 L1.89,2.36 L1.83,2.48 C1.77,2.6 1.69,2.73 1.65,2.83 L1.65,2.82 Z" id="Shape" fill="#000000"></path>
                <polygon id="Shape" fill="#2A690B" points="1.68 2.7 1.56 2.26 1.6 2.73 1.66 2.79"></polygon>
                <path d="M1.66,2.8 L1.6,2.73 L1.6,2.27 L1.73,2.71 L1.73,2.81 L1.66,2.8 Z M1.55,2.26 L1.55,2.72 L1.61,2.78 L1.61,2.7 L1.48,2.26 L1.55,2.26 Z" id="Shape" fill="#000000"></path>
                <path d="M1.9,2.4 C1.82,2.53 1.7,2.73 1.64,2.86 C1.59,2.71 1.48,2.49 1.42,2.35 C1.48981021,2.46782338 1.56661438,2.58135998 1.65,2.69 C1.73,2.62 1.82,2.48 1.9,2.39 L1.9,2.4 Z" id="Shape" fill="#2A690B"></path>
                <path d="M1.64,2.87 C1.59,2.72 1.48,2.5 1.42,2.36 L1.49,2.46 C1.54027793,2.54433904 1.59712036,2.62458717 1.66,2.7 L1.82,2.51 L1.91,2.4 L1.85,2.52 C1.78,2.64 1.7,2.77 1.66,2.87 L1.64,2.87 Z M1.42,2.36 C1.50251768,2.52247267 1.57596372,2.68939551 1.64,2.86 C1.64,2.76 1.76,2.63 1.83,2.52 L1.9,2.4 L1.82,2.51 C1.7714282,2.57719474 1.71794872,2.64070161 1.66,2.7 C1.59677342,2.62485464 1.53991051,2.54457758 1.49,2.46 L1.43,2.36 L1.42,2.36 Z" id="Shape" fill="#000000"></path>
                <polygon id="Shape" fill="#2A690B" points="1.69 2.79 1.64 2.32 1.6 2.79 1.65 2.86"></polygon>
                <path d="M1.65,2.87 L1.65,2.79 L1.65,2.33 C1.65,2.49 1.65,2.78 1.7,2.79 L1.7,2.88 L1.65,2.87 Z M1.65,2.32 L1.65,2.78 L1.65,2.86 L1.65,2.78 C1.65,2.78 1.65,2.78 1.65,2.32 Z" id="Shape" fill="#000000"></path>
                <path d="M1.9,2.44 C1.82,2.57 1.7,2.77 1.63,2.9 C1.58,2.75 1.48,2.53 1.42,2.39 C1.48647234,2.51084111 1.55993019,2.62770587 1.64,2.74 C1.72826926,2.64770077 1.81171369,2.55090523 1.89,2.45 L1.9,2.44 Z" id="Shape" fill="#2A690B"></path>
                <path d="M1.64,2.9 C1.64,2.75 1.49,2.53 1.43,2.39 C1.50912076,2.55268744 1.5792268,2.71960658 1.64,2.89 C1.64,2.79 1.77,2.65 1.85,2.53 L1.91,2.43 L1.83,2.54 C1.77857786,2.60783724 1.72172379,2.67138003 1.66,2.73 C1.60004091,2.654621 1.54651942,2.57433878 1.5,2.49 L1.44,2.39 L1.5,2.49 C1.54771539,2.57360607 1.60117724,2.65379884 1.66,2.73 L1.82,2.54 L1.91,2.44 L1.86,2.54 C1.78369778,2.65621107 1.71359973,2.77637914 1.65,2.9 L1.64,2.9 Z" id="Shape" fill="#000000"></path>
                <polygon id="Shape" fill="#2A690B" points="1.69 2.82 1.6 2.37 1.6 2.83 1.65 2.91"></polygon>
                <path d="M1.65,2.91 L1.6,2.83 L1.6,2.37 C1.6,2.52 1.69,2.82 1.69,2.82 L1.69,2.91 L1.65,2.91 Z M1.6,2.37 L1.6,2.84 L1.65,2.91 L1.65,2.83 L1.56,2.38 L1.6,2.37 Z" id="Shape" fill="#000000"></path>
                <path d="M1.87,2.51 C1.79,2.63 1.65,2.82 1.58,2.95 C1.58,2.8 1.45,2.57 1.39,2.43 C1.45369659,2.55356771 1.52379171,2.67373078 1.6,2.79 C1.6959623,2.70260568 1.78615182,2.6090758 1.87,2.51 Z" id="Shape" fill="#2A690B"></path>
                <path d="M1.58,3 C1.58,2.86 1.46,2.64 1.4,2.5 C1.47,2.66 1.54,2.85 1.58,2.99 C1.64442178,2.87654801 1.71451036,2.76640881 1.79,2.66 L1.86,2.56 L1.78,2.66 C1.72507024,2.72486461 1.66486461,2.78507024 1.6,2.84 C1.53959468,2.75788939 1.48607918,2.6709267 1.44,2.58 L1.44,2.53 C1.48341662,2.62030169 1.5335578,2.70721307 1.59,2.79 C1.65075325,2.73399561 1.70755575,2.67385178 1.76,2.61 L1.85,2.51 L1.78,2.62 C1.70405498,2.72610197 1.63395095,2.83626544 1.57,2.95 L1.58,3 Z" id="Shape" fill="#000000"></path>
                <polygon id="Shape" fill="#2A690B" points="1.65 2.87 1.68 2.41 1.56 2.85 1.59 2.94"></polygon>
                <path d="M1.59,2.94 L1.59,2.85 L1.71,2.41 C1.71,2.57 1.71,2.86 1.71,2.87 L1.65,2.94 L1.59,2.94 Z M1.68,2.41 L1.56,2.85 L1.56,2.93 L1.62,2.87 C1.62,2.87 1.62,2.87 1.62,2.41 L1.68,2.41 Z" id="Shape" fill="#000000"></path>
                <path d="M1.87,2.52 C1.8,2.66 1.68,2.86 1.63,3 C1.57,2.85 1.46,2.64 1.39,2.5 C1.46332119,2.61470565 1.54346548,2.72490405 1.63,2.83 C1.71533639,2.73091051 1.79544525,2.62743656 1.87,2.52 Z" id="Shape" fill="#2A690B"></path>
                <path d="M1.63,3 C1.58,2.86 1.48,2.67 1.41,2.53 C1.49,2.68 1.58,2.86 1.63,2.99 C1.63,2.89 1.74,2.75 1.81,2.64 L1.87,2.52 L1.79,2.63 C1.7418025,2.70061793 1.6883156,2.76747655 1.63,2.83 C1.56645363,2.75866525 1.50955091,2.68167922 1.46,2.6 C1.51071209,2.68089404 1.56754494,2.75778554 1.63,2.83 C1.68675625,2.76614524 1.74016136,2.69938885 1.79,2.63 L1.87,2.52 L1.81,2.64 C1.75,2.76 1.67,2.89 1.63,3 Z" id="Shape" fill="#000000"></path>
                <path d="M1.63,2.91 C1.63,2.91 1.49,2.48 1.49,2.48 L1.55,2.94 L1.61,3 L1.63,2.91 Z" id="Shape" fill="#2A690B"></path>
                <path d="M1.61,3 L1.55,2.94 L1.49,2.48 L1.64,2.91 L1.64,3.01 L1.61,3 Z M1.49,2.47 L1.55,2.93 L1.61,2.99 L1.61,2.9 L1.47,2.47 L1.49,2.47 Z" id="Shape" fill="#000000"></path>
                <path d="M1.86,2.55 C1.86,2.7 1.73,2.92 1.69,3.07 C1.61,2.94 1.47,2.75 1.38,2.63 C1.47075179,2.7261508 1.56762016,2.81633859 1.67,2.9 C1.74,2.81 1.8,2.65 1.86,2.54 L1.86,2.55 Z" id="Shape" fill="#2A690B"></path>
                <path d="M1.69,3.08 C1.62,2.96 1.5,2.8 1.41,2.68 L1.49,2.76 C1.55504256,2.82860594 1.6252482,2.89212533 1.7,2.95 C1.7,2.89 1.78,2.8 1.82,2.72 L1.88,2.6 L1.88,2.72 C1.88,2.85 1.78,3.01 1.75,3.12 L1.69,3.08 Z M1.38,2.64 C1.47,2.75 1.59,2.92 1.66,3.03 C1.66,2.92 1.74,2.76 1.79,2.63 L1.79,2.51 L1.73,2.64 C1.69312226,2.72014031 1.64963885,2.79707249 1.6,2.87 C1.52380107,2.81387466 1.4534463,2.75022035 1.39,2.68 L1.31,2.6 L1.38,2.64 Z" id="Shape" fill="#000000"></path>
                <polygon id="Shape" fill="#2A690B" points="1.76 2.95 1.6 2.52 1.67 2.98 1.73 3.04"></polygon>
                <path d="M1.74,3 L1.67,3 L1.6,2.54 C1.66,2.68 1.75,2.96 1.76,2.96 L1.76,3.06 L1.74,3 Z M1.61,2.48 L1.68,2.94 L1.74,2.99 L1.74,2.9 C1.74,2.9 1.74,2.9 1.58,2.47 L1.61,2.48 Z" id="Shape" fill="#000000"></path>
                <path d="M1.85,2.6 C1.85,2.75 1.72,2.97 1.69,3.12 C1.61,2.99 1.47,2.8 1.38,2.69 C1.47061106,2.78629238 1.56748898,2.87648906 1.67,2.96 C1.73,2.87 1.8,2.71 1.86,2.6 L1.85,2.6 Z" id="Shape" fill="#2A690B"></path>
                <path d="M1.69,3.13 C1.61,3 1.47,2.81 1.38,2.7 L1.47,2.78 C1.53271775,2.84736441 1.59950992,2.91081698 1.67,2.97 C1.71451924,2.89234055 1.75458399,2.81221107 1.79,2.73 L1.85,2.61 L1.85,2.74 C1.85,2.87 1.75,3.03 1.73,3.14 L1.69,3.13 Z M1.38,2.69 C1.49044903,2.82460558 1.5939184,2.96478989 1.69,3.11 C1.69,3 1.77,2.85 1.81,2.72 L1.81,2.59 C1.79430817,2.63519473 1.77421153,2.67873744 1.75,2.72 C1.71332832,2.80343296 1.66984805,2.88370424 1.62,2.96 C1.54423976,2.90333984 1.4739347,2.8397305 1.41,2.77 L1.33,2.69 L1.38,2.69 Z" id="Shape" fill="#000000"></path>
                <polygon id="Shape" fill="#2A690B" points="1.76 3.02 1.56 2.62 1.68 3.06 1.75 3.11"></polygon>
                <path d="M1.75,3.12 L1.68,3.07 L1.56,2.63 L1.76,3.03 L1.76,3.13 L1.75,3.12 Z M1.56,2.62 L1.68,3.06 L1.75,3.06 L1.75,3 L1.55,2.6 L1.56,2.62 Z" id="Shape" fill="#000000"></path>
                <path d="M1.84,2.63 C1.84,2.78 1.75,3.02 1.74,3.17 C1.64,3.05 1.48,2.89 1.38,2.79 C1.48130918,2.87385838 1.58822435,2.95070366 1.7,3.02 C1.75335271,2.89589781 1.80008503,2.76905294 1.84,2.64 L1.84,2.63 Z" id="Shape" fill="#2A690B"></path>
                <path d="M1.74,3.18 C1.66,3.07 1.52,2.93 1.41,2.83 L1.5,2.89 C1.57258025,2.9489799 1.64946036,3.00246172 1.73,3.05 C1.76550851,2.9687538 1.79557484,2.88523621 1.82,2.8 L1.82,2.67 L1.82,2.8 C1.82,2.94 1.76,3.1 1.74,3.21 L1.74,3.18 Z M1.38,2.79 C1.48,2.89 1.62,3.03 1.7,3.14 C1.7,3.03 1.7,2.87 1.78,2.74 L1.78,2.61 L1.78,2.74 C1.75258936,2.82558204 1.71917301,2.90912291 1.68,2.99 C1.59857094,2.94386138 1.52157727,2.89030057 1.45,2.83 L1.36,2.76 L1.38,2.79 Z" id="Shape" fill="#000000"></path>
                <polygon id="Shape" fill="#2A690B" points="1.77 3.08 1.67 2.64 1.68 3.1 1.74 3.17"></polygon>
                <path d="M1.74,3.17 L1.68,3.1 L1.68,2.64 C1.68,2.79 1.79,3.08 1.79,3.09 L1.79,3.18 L1.74,3.17 Z M1.66,2.63 L1.66,3.09 L1.71,3.15 L1.71,3.07 C1.71,3.07 1.71,3.07 1.6,2.62 L1.66,2.63 Z" id="Shape" fill="#000000"></path>
                <path d="M1.84,2.68 C1.84,2.84 1.84,3.08 1.79,3.23 C1.68,3.13 1.51,2.98 1.4,2.9 C1.50532695,2.96819647 1.61563869,3.02836652 1.73,3.08 C1.77411846,2.94882877 1.81084283,2.81528559 1.84,2.68 Z" id="Shape" fill="#2A690B"></path>
                <path d="M1.79,3.24 C1.69,3.14 1.53,3.01 1.42,2.92 C1.54845431,3.01706265 1.67194374,3.12052677 1.79,3.23 C1.79,3.11 1.79,2.95 1.79,2.81 L1.79,2.68 L1.79,2.82 C1.77304772,2.90825991 1.74965176,2.99515918 1.72,3.08 C1.63277211,3.04460723 1.54906955,3.0010819 1.47,2.95 C1.54617596,3.00004873 1.6264644,3.0435383 1.71,3.08 C1.71,3.01 1.71,2.91 1.78,2.82 L1.78,2.68 L1.78,2.81 C1.78,2.95 1.78,3.12 1.78,3.24 L1.79,3.24 Z" id="Shape" fill="#000000"></path>
                <polygon id="Shape" fill="#2A690B" points="1.78 3.12 1.49 2.79 1.71 3.18 1.79 3.21"></polygon>
                <path d="M1.79,3.21 L1.71,3.21 L1.49,2.82 L1.78,3.14 L1.78,3.24 L1.79,3.21 Z M1.49,2.79 L1.71,3.18 L1.78,3.18 L1.78,3.09 L1.5,2.77 L1.49,2.79 Z" id="Shape" fill="#000000"></path>
                <path d="M1.85,2.74 C1.85,2.9 1.8,3.14 1.8,3.29 C1.69,3.18 1.52,3.04 1.41,2.95 C1.51570342,3.02051919 1.62594265,3.08399026 1.74,3.14 C1.78356079,3.0086591 1.82027683,2.87514625 1.85,2.74 Z" id="Shape" fill="#2A690B"></path>
                <path d="M1.79,3.29 C1.69,3.19 1.53,3.05 1.42,2.97 C1.5486623,3.06680105 1.67216488,3.17027619 1.79,3.28 C1.79,3.17 1.79,3.01 1.79,2.87 L1.79,2.73 C1.79243948,2.77663479 1.79243948,2.82336521 1.79,2.87 C1.77032136,2.95866451 1.74356907,3.04560947 1.71,3.13 C1.62269612,3.09477203 1.53897827,3.05123875 1.46,3 C1.53610028,3.05017519 1.61639982,3.09367078 1.7,3.13 C1.72806242,3.04467625 1.75143075,2.9578796 1.77,2.87 L1.77,2.73 L1.77,2.87 C1.77,3.01 1.77,3.17 1.77,3.28 L1.79,3.29 Z" id="Shape" fill="#000000"></path>
                <polygon id="Shape" fill="#2A690B" points="1.81 3.19 1.59 2.8 1.73 3.24 1.8 3.29"></polygon>
                <path d="M1.8,3.29 L1.73,3.29 L1.59,2.85 L1.81,3.24 L1.81,3.34 L1.8,3.29 Z M1.59,2.8 L1.73,3.23 L1.8,3.23 L1.8,3.14 L1.58,2.75 L1.59,2.8 Z" id="Shape" fill="#000000"></path>
                <path d="M1.86,2.8 C1.86,2.96 1.86,3.2 1.86,3.35 C1.75,3.25 1.57,3.12 1.46,3.04 C1.56948003,3.10116463 1.68308843,3.1546274 1.8,3.2 C1.8372719,3.06840766 1.86731679,2.9348748 1.89,2.8 L1.86,2.8 Z" id="Shape" fill="#2A690B"></path>
                <path d="M1.83,3.36 L1.45,3.06 C1.5816071,3.1500155 1.70844497,3.24681283 1.83,3.35 C1.83,3.24 1.83,3.07 1.83,2.93 L1.83,2.8 L1.83,2.94 C1.81534111,3.0311043 1.79530613,3.12126175 1.77,3.21 C1.68300884,3.18228353 1.5992059,3.14541024 1.52,3.1 C1.59991089,3.14399876 1.68357318,3.18081017 1.77,3.21 C1.77,3.14 1.77,3.04 1.83,2.95 C1.89,2.86 1.83,2.85 1.83,2.81 L1.83,2.94 C1.83,3.08 1.83,3.25 1.83,3.36 Z" id="Shape" fill="#000000"></path>
                <polygon id="Shape" fill="#2A690B" points="1.84 3.26 1.57 2.92 1.76 3.32 1.84 3.36"></polygon>
                <path d="M1.84,3.36 L1.76,3.36 L1.56,2.95 L1.83,3.29 L1.83,3.39 L1.84,3.36 Z M1.56,2.92 L1.76,3.32 L1.83,3.32 L1.83,3.23 L1.56,2.89 L1.56,2.92 Z" id="Shape" fill="#000000"></path>
                <path d="M1.86,2.88 C1.86,3.04 1.86,3.28 1.86,3.43 C1.75,3.33 1.57,3.2 1.45,3.12 C1.55907022,3.18195869 1.67273778,3.23544931 1.79,3.28 C1.79,3.17 1.85,3 1.88,2.87 L1.86,2.88 Z" id="Shape" fill="#2A690B"></path>
                <path d="M1.84,3.43 C1.73,3.33 1.55,3.2 1.43,3.12 L1.53,3.12 C1.60943097,3.16496292 1.69318657,3.20181539 1.78,3.23 C1.80459967,3.14108417 1.82462593,3.05096596 1.84,2.96 L1.84,2.82 L1.84,3 C1.84,3.14 1.84,3.31 1.84,3.43 Z M1.43,3.12 C1.56871957,3.2126093 1.70225359,3.31275981 1.83,3.42 C1.83,3.3 1.83,3.14 1.83,2.99 L1.83,2.88 C1.83,2.88 1.83,2.97 1.83,3.01 C1.81543448,3.10112215 1.79539826,3.19128513 1.77,3.28 C1.68336969,3.25133707 1.59965991,3.21450477 1.52,3.17 L1.42,3.12 L1.43,3.12 Z" id="Shape" fill="#000000"></path>
                <polygon id="Shape" fill="#2A690B" points="1.86 3.32 1.67 2.91 1.78 3.36 1.84 3.41"></polygon>
                <path d="M1.85,3.42 L1.78,3.36 L1.68,2.91 L1.87,3.32 L1.87,3.42 L1.85,3.42 Z M1.67,2.91 L1.78,3.36 L1.84,3.41 L1.84,3.32 L1.65,2.91 L1.67,2.91 Z" id="Shape" fill="#000000"></path>
                <path d="M1.87,2.92 C1.87,3.08 1.87,3.32 1.87,3.48 C1.75,3.4 1.56,3.29 1.44,3.23 C1.55683997,3.27892052 1.67717571,3.31903243 1.8,3.35 C1.8,3.23 1.8,3.06 1.8,2.93 L1.87,2.92 Z" id="Shape" fill="#2A690B"></path>
                <path d="M1.9,3.48 C1.79,3.4 1.61,3.3 1.49,3.23 C1.63114792,3.30208611 1.76803992,3.38221801 1.9,3.47 C1.9,3.36 1.9,3.2 1.9,3.05 L1.9,2.92 C1.9,2.92 1.9,3.01 1.9,3.07 C1.90608194,3.15989725 1.90608194,3.25010275 1.9,3.34 C1.81068111,3.32287117 1.72349832,3.2960457 1.64,3.26 L1.59,3.26 L1.64,3.26 C1.72070449,3.2942747 1.80439028,3.32105416 1.89,3.34 C1.89526424,3.25007698 1.89526424,3.15992302 1.89,3.07 C1.89,3.21 1.89,3.38 1.89,3.49 L1.9,3.48 Z" id="Shape" fill="#000000"></path>
                <polygon id="Shape" fill="#2A690B" points="1.89 3.3 1.55 3.07 1.84 3.39 1.92 3.39"></polygon>
                <path d="M1.93,3.4 L1.84,3.4 L1.55,3.08 L1.9,3.31 L1.9,3.4 L1.93,3.4 Z M1.55,3.07 L1.85,3.39 L1.93,3.39 L1.93,3.3 L1.59,3.06 L1.55,3.07 Z" id="Shape" fill="#000000"></path>
                <path d="M1.88,2.94 C1.88,3.1 1.88,3.34 1.93,3.49 C1.81,3.41 1.61,3.32 1.49,3.25 C1.60740407,3.2920575 1.72772445,3.32547983 1.85,3.35 C1.85,3.23 1.85,3.06 1.85,2.93 L1.88,2.94 Z" id="Shape" fill="#2A690B"></path>
                <path d="M1.94,3.5 C1.83,3.43 1.64,3.34 1.52,3.28 C1.66396647,3.3454981 1.80418257,3.41894463 1.94,3.5 C1.94,3.38 1.94,3.22 1.94,3.08 L1.94,2.94 C1.94247649,2.98663381 1.94247649,3.03336619 1.94,3.08 C1.94715073,3.17319637 1.94715073,3.26680363 1.94,3.36 C1.85117387,3.34559006 1.76405407,3.32213473 1.68,3.29 L1.94,3.36 C1.9455416,3.26674892 1.9455416,3.17325108 1.94,3.08 C1.94,3.08 1.94,2.98 1.94,2.94 L1.94,3.06 C1.94,3.2 1.94,3.37 1.94,3.49 L1.94,3.5 Z" id="Shape" fill="#000000"></path>
                <polygon id="Shape" fill="#2A690B" points="1.93 3.39 1.64 3.06 1.86 3.46 1.94 3.49"></polygon>
                <path d="M1.94,3.49 L1.86,3.49 L1.64,3.1 L1.93,3.42 L1.93,3.52 L1.94,3.49 Z M1.64,3.07 L1.86,3.46 L1.93,3.46 L1.93,3.37 L1.64,3.04 L1.64,3.07 Z" id="Shape" fill="#000000"></path>
                <path d="M1.9,3 C1.9,3.16 1.9,3.4 1.98,3.55 C1.86,3.48 1.65,3.39 1.53,3.34 C1.64805964,3.37475054 1.76833398,3.40147818 1.89,3.42 C1.89,3.3 1.89,3.13 1.89,3 L1.9,3 Z" id="Shape" fill="#2A690B"></path>
                <path d="M2,3.55 C1.88,3.48 1.69,3.4 1.57,3.35 C1.71669071,3.40544498 1.86023851,3.46887308 2,3.54 C2,3.42 2,3.25 1.94,3.11 L1.94,3 C1.94,3 1.94,3.09 1.94,3.14 C1.94535961,3.23325639 1.94535961,3.32674361 1.94,3.42 C1.85164889,3.41376618 1.76436144,3.39698013 1.68,3.37 L1.94,3.42 C1.94,3.34 1.94,3.24 1.94,3.15 C1.94,3.06 1.94,3.05 1.94,3.01 L1.94,3.13 C1.94,3.28 1.94,3.45 2,3.56 L2,3.55 Z" id="Shape" fill="#000000"></path>
                <polygon id="Shape" fill="#2A690B" points="1.99 3.45 1.65 3.21 1.94 3.53 2.02 3.54"></polygon>
                <path d="M2,3.54 L1.92,3.54 L1.63,3.21 L1.97,3.45 L1.97,3.55 L2,3.54 Z M1.63,3.21 L1.92,3.53 L2,3.53 L2,3.44 L1.66,3.2 L1.63,3.21 Z" id="Shape" fill="#000000"></path>
                <path d="M1.92,3.07 C1.92,3.23 1.99,3.47 2.03,3.61 C1.9,3.55 1.7,3.49 1.57,3.44 C1.69319449,3.44827621 1.81680551,3.44827621 1.94,3.44 C1.94,3.32 1.94,3.15 1.94,3.02 L1.92,3.07 Z" id="Shape" fill="#2A690B"></path>
                <path d="M2,3.61 C1.88,3.56 1.68,3.49 1.55,3.45 C1.69960143,3.49488813 1.84650872,3.54830896 1.99,3.61 C1.99,3.5 1.93,3.34 1.9,3.2 L1.9,3.07 C1.9,3.07 1.9,3.16 1.9,3.22 C1.90731101,3.31319016 1.90731101,3.40680984 1.9,3.5 C1.8134989,3.50757597 1.7265011,3.50757597 1.64,3.5 L1.88,3.5 C1.89491886,3.41061826 1.89491886,3.31938174 1.88,3.23 C1.88,3.18 1.88,3.13 1.88,3.08 L1.88,3.21 C1.88,3.35 1.94,3.51 1.97,3.63 L2,3.61 Z" id="Shape" fill="#000000"></path>
                <polygon id="Shape" fill="#2A690B" points="2.02 3.49 1.74 3.16 1.95 3.56 2.03 3.59"></polygon>
                <path d="M2,3.59 L1.92,3.59 L1.71,3.19 L2,3.52 L2,3.62 L2,3.59 Z M1.71,3.16 L1.93,3.56 L2,3.56 L2,3.5 L1.72,3.17 L1.71,3.16 Z" id="Shape" fill="#000000"></path>
                <path d="M1.93,3.11 C1.93,3.26 2.04,3.5 2.09,3.64 L1.62,3.53 C1.74316933,3.53899488 1.86683067,3.53899488 1.99,3.53 C1.99,3.41 1.99,3.24 1.94,3.11 L1.93,3.11 Z" id="Shape" fill="#2A690B"></path>
                <path d="M2.1,3.64 C1.94517405,3.59853636 1.78829525,3.5651579 1.63,3.54 C1.78516351,3.56427401 1.93876276,3.59766515 2.09,3.64 C2.09,3.54 2.01,3.38 1.97,3.25 L1.97,3.12 C1.97,3.12 1.97,3.21 1.97,3.26 C1.97711637,3.34985933 1.97711637,3.44014067 1.97,3.53 C1.88358912,3.5394166 1.79641088,3.5394166 1.71,3.53 C1.7965011,3.53757597 1.8834989,3.53757597 1.97,3.53 C1.9756305,3.44008806 1.9756305,3.34991194 1.97,3.26 L1.97,3.11 L1.97,3.24 C1.97,3.38 2.05,3.53 2.09,3.64 L2.1,3.64 Z" id="Shape" fill="#000000"></path>
                <polygon id="Shape" fill="#2A690B" points="2.04 3.5 1.65 3.41 2.02 3.6 2.1 3.57"></polygon>
                <path d="M2,3.6 L1.62,3.41 L2.02,3.49 L2.08,3.57 L2,3.57 L2,3.6 Z M1.62,3.41 L2,3.59 L2.08,3.59 L2,3.5 L1.61,3.42 L1.62,3.41 Z" id="Shape" fill="#000000"></path>
                <path d="M2,3.16 C2,3.31 2.1,3.55 2.16,3.69 C2.03,3.69 1.82,3.61 1.69,3.58 C1.81315111,3.58948148 1.93684889,3.58948148 2.06,3.58 C2.06,3.46 2.06,3.29 2.01,3.16 L2,3.16 Z" id="Shape" fill="#2A690B"></path>
                <path d="M2.12,3.69 L1.68,3.59 L2.12,3.69 C2.12,3.58 2.03,3.42 2,3.29 L2,3.17 C2,3.17 2,3.26 2,3.31 C2.00614123,3.40323231 2.00614123,3.49676769 2,3.59 C1.91370263,3.60131467 1.82629737,3.60131467 1.74,3.59 L2,3.59 C2.00508808,3.49673601 2.00508808,3.40326399 2,3.31 L2,3.17 L2,3.29 C2,3.43 2.08,3.59 2.12,3.7 L2.12,3.69 Z" id="Shape" fill="#000000"></path>
                <polygon id="Shape" fill="#2A690B" points="2.11 3.54 1.73 3.36 2.07 3.63 2.15 3.62"></polygon>
                <path d="M2.06,3.63 L1.72,3.35 L2.1,3.53 L2.1,3.62 L2.06,3.63 Z M1.72,3.35 L2.06,3.62 L2.14,3.62 L2.14,3.54 L1.76,3.36 L1.72,3.35 Z" id="Shape" fill="#000000"></path>
                <path d="M1.94,3.18 C2.01,3.32 2.12,3.54 2.21,3.66 C2.07,3.66 1.86,3.66 1.73,3.66 C1.84840136,3.64158968 1.96535783,3.61485677 2.08,3.58 C2.08,3.46 1.98,3.3 1.94,3.18 Z" id="Shape" fill="#2A690B"></path>
                <path d="M1.72,3.67 L1.82,3.67 C1.90508717,3.65818249 1.98881755,3.63808719 2.07,3.61 C2.07,3.54 2.01,3.44 1.98,3.35 L1.93,3.21 L2,3.32 C2.06350165,3.44691008 2.13359739,3.57041209 2.21,3.69 L1.72,3.69 L1.72,3.67 Z M1.93,3.19 L1.98,3.32 C2.01559814,3.40462647 2.04566144,3.49147599 2.07,3.58 C1.98569206,3.61134704 1.89865021,3.63478139 1.81,3.65 L2.19,3.65 C2.1198023,3.53719256 2.05635755,3.42032066 2,3.3 L1.94,3.19 L1.93,3.19 Z" id="Shape" fill="#000000"></path>
                <polygon id="Shape" fill="#2A690B" points="2.16 3.58 1.77 3.47 2.14 3.68 2.22 3.65"></polygon>
                <path d="M2.14,3.68 L1.77,3.47 L2.16,3.57 L2.22,3.65 L2.14,3.65 L2.14,3.68 Z M1.77,3.47 L2.14,3.67 L2.22,3.67 L2.17,3.6 L1.78,3.49 L1.77,3.47 Z" id="Shape" fill="#000000"></path>
                <path d="M2,3.24 C2.08,3.38 2.18,3.59 2.27,3.72 C2.13,3.72 1.92,3.72 1.79,3.72 C1.91211855,3.6992197 2.03246937,3.669132 2.15,3.63 C2.15,3.51 2.05,3.35 2.01,3.23 L2,3.24 Z" id="Shape" fill="#2A690B"></path>
                <path d="M1.77,3.73 L1.88,3.73 L2.13,3.67 C2.10476758,3.57848035 2.07472585,3.48835517 2.04,3.4 L2.04,3.27 L2.11,3.39 C2.18,3.51 2.25,3.65 2.31,3.74 L1.83,3.74 L1.77,3.73 Z M1.98,3.24 C1.98,3.24 1.98,3.32 2.04,3.37 C2.07593046,3.45791342 2.10599631,3.54811099 2.13,3.64 C2.04889422,3.67066077 1.96523471,3.69408544 1.88,3.71 L2.26,3.71 C2.18386055,3.59712862 2.11376206,3.48029781 2.05,3.36 L2,3.24 L1.98,3.24 Z" id="Shape" fill="#000000"></path>
                <polygon id="Shape" fill="#2A690B" points="2.21 3.61 1.85 3.39 2.17 3.7 2.25 3.7"></polygon>
                <path d="M2.25,3.7 L2.16,3.7 L1.84,3.39 L2.21,3.6 L2.21,3.69 L2.25,3.7 Z M1.84,3.39 L2.16,3.69 L2.24,3.69 L2.24,3.61 L1.88,3.39 L1.84,3.39 Z" id="Shape" fill="#000000"></path>
                <path d="M2,3.28 C2.09,3.41 2.22,3.61 2.31,3.73 C2.17,3.73 1.96,3.73 1.84,3.8 C1.95640009,3.76515744 2.07004701,3.72170421 2.18,3.67 C2.18,3.55 2.05,3.4 2,3.29 L2,3.28 Z" id="Shape" fill="#2A690B"></path>
                <path d="M1.85,3.79 L1.95,3.79 C2.03305235,3.76452501 2.1134306,3.73103407 2.19,3.69 C2.15539613,3.60418237 2.11531355,3.52067699 2.07,3.44 L2,3.28 L2.08,3.38 C2.16,3.5 2.25,3.63 2.32,3.72 L1.86,3.79 L1.85,3.79 Z M2.01,3.27 L2.08,3.4 C2.12556995,3.48054336 2.16566076,3.56406589 2.2,3.65 C2.12023551,3.69164248 2.03647945,3.7251449 1.95,3.75 L1.88,3.75 C2.02885912,3.72221679 2.17906175,3.70218977 2.33,3.69 C2.23904013,3.58247713 2.1555133,3.46888064 2.08,3.35 L2.01,3.25 L2.01,3.27 Z" id="Shape" fill="#000000"></path>
                <polygon id="Shape" fill="#2A690B" points="2.24 3.64 1.85 3.63 2.24 3.75 2.31 3.71"></polygon>
                <polygon id="Shape" fill="#000000" points="2.24 3.75 1.85 3.63 1.85 3.63 2.24 3.74 2.31 3.74 2.31 3.74 2.31 3.74 2.24 3.74"></polygon>
                <polygon id="Shape" fill="#2A690B" points="2.47 1.73 2.75 1.68 2.47 1.69 2.42 1.72"></polygon>
                <path d="M2.47,1.73 L2.75,1.73 L2.47,1.78 L2.47,1.73 Z M2.75,1.68 L2.47,1.68 L2.75,1.68 Z" id="Shape" fill="#000000"></path>
                <polygon id="Shape" fill="#2A690B" points="2.62 1.79 2.33 1.71 2.63 1.57 2.43 1.7 2.62 1.79"></polygon>
                <polygon id="Shape" fill="#000000" points="2.62 1.79 2.54 1.79 2.33 1.73 2.63 1.59 2.63 1.59 2.33 1.73 2.55 1.79 2.55 1.79 2.42 1.73 2.56 1.63 2.62 1.63 2.56 1.63 2.42 1.72 2.54 1.78 2.6 1.78"></polygon>
                <polygon id="Shape" fill="#2A690B" points="2.46 1.74 2.73 1.67 2.45 1.7 2.41 1.73"></polygon>
                <path d="M2.46,1.74 L2.4,1.74 L2.69,1.74 L2.42,1.82 L2.46,1.74 Z M2.74,1.66 L2.45,1.66 L2.5,1.66 L2.78,1.59 L2.74,1.66 Z" id="Shape" fill="#000000"></path>
                <path d="M2.64,1.81 L2.3,1.81 L2.53,1.58 C2.53,1.64 2.42,1.72 2.39,1.78 C2.46877609,1.80461118 2.54890995,1.82464464 2.63,1.84 L2.64,1.81 Z" id="Shape" fill="#2A690B"></path>
                <path d="M2.64,1.81 L2.56,1.81 L2.3,1.81 L2.53,1.57 L2.3,1.81 L2.55,1.81 L2.39,1.81 C2.41523356,1.76043578 2.44538511,1.71353337 2.48,1.67 L2.48,1.62 L2.48,1.68 C2.44616193,1.72408476 2.41605769,1.77091357 2.39,1.82 L2.54,1.82 L2.62,1.82 L2.64,1.81 Z" id="Shape" fill="#000000"></path>
                <polygon id="Shape" fill="#2A690B" points="2.36 1.76 2.64 1.73 2.36 1.72 2.31 1.74"></polygon>
                <polygon id="Shape" fill="#000000" points="2.36 1.76 2.36 1.76 2.36 1.76 2.64 1.76 2.35 1.76"></polygon>
                <path d="M2.57,1.82 L2.26,1.76 L2.54,1.6 C2.47703671,1.64272655 2.41691054,1.68949135 2.36,1.74 L2.57,1.81 L2.57,1.82 Z" id="Shape" fill="#2A690B"></path>
                <polygon id="Shape" fill="#000000" points="2.57 1.83 2.49 1.83 2.26 1.83 2.54 1.67 2.54 1.67 2.27 1.83 2.5 1.83 2.5 1.83 2.36 1.78 2.48 1.68 2.48 1.68 2.48 1.68 2.36 1.78 2.5 1.78 2.57 1.78"></polygon>
                <polygon id="Shape" fill="#2A690B" points="2.33 1.76 2.58 1.65 2.31 1.72 2.27 1.76"></polygon>
                <path d="M2.33,1.76 L2.27,1.76 L2.55,1.69 L2.3,1.8 L2.33,1.76 Z M2.58,1.65 L2.31,1.73 L2.36,1.73 L2.61,1.62 L2.58,1.65 Z" id="Shape" fill="#000000"></path>
                <path d="M2.56,1.86 L2.3,1.76 L2.48,1.56 C2.43918198,1.6173623 2.40242564,1.67750903 2.37,1.74 C2.42753986,1.78357264 2.48764839,1.82364499 2.55,1.86 L2.56,1.86 Z" id="Shape" fill="#2A690B"></path>
                <path d="M2.56,1.86 L2.51,1.86 L2.31,1.78 L2.49,1.58 C2.43824842,1.65069315 2.38143239,1.71753554 2.32,1.78 L2.52,1.86 L2.4,1.78 C2.41854575,1.73425442 2.44201741,1.6906642 2.47,1.65 L2.4,1.78 L2.52,1.86 L2.58,1.86 L2.56,1.86 Z" id="Shape" fill="#000000"></path>
                <polygon id="Shape" fill="#2A690B" points="2.34 1.78 2.54 1.69 2.33 1.72 2.3 1.76"></polygon>
                <path d="M2.34,1.78 L2.55,1.78 L2.36,1.87 L2.34,1.78 Z M2.54,1.69 L2.33,1.69 L2.53,1.61 L2.54,1.69 Z" id="Shape" fill="#000000"></path>
                <polygon id="Shape" fill="#2A690B" points="2.18 3.61 1.78 3.61 2.19 3.71 2.25 3.67"></polygon>
                <path d="M2.19,3.71 L1.78,3.61 L2.18,3.61 L2.26,3.67 L2.19,3.67 L2.19,3.71 Z M2.19,3.61 L1.79,3.61 L2.2,3.71 L2.27,3.71 L2.2,3.66 L2.19,3.61 Z" id="Shape" fill="#000000"></path>
                <polygon id="Shape" fill="#2A690B" points="2.25 3.63 1.84 3.54 2.24 3.73 2.31 3.71"></polygon>
                <path d="M2.24,3.73 L1.85,3.54 L2.26,3.63 L2.32,3.71 L2.24,3.71 L2.24,3.73 Z M1.84,3.54 L2.24,3.73 L2.32,3.73 L2.26,3.66 L1.85,3.56 L1.84,3.54 Z" id="Shape" fill="#000000"></path>
                <polygon id="Shape" fill="#2A690B" points="2.32 3.66 1.91 3.64 2.32 3.76 2.39 3.72"></polygon>
                <path d="M2.32,3.76 L1.91,3.64 L2.32,3.64 L2.39,3.7 L2.32,3.7 L2.32,3.76 Z M1.91,3.64 L2.32,3.76 L2.39,3.76 L2.32,3.7 L1.91,3.7 L1.91,3.64 Z" id="Shape" fill="#000000"></path>
                <path d="M2.06,3.37 C2.17,3.49 2.33,3.67 2.44,3.78 C2.3,3.78 2.1,3.86 1.97,3.89 C2.08431782,3.84607419 2.19471197,3.79254975 2.3,3.73 C2.25,3.62 2.14,3.48 2.07,3.38 L2.06,3.37 Z" id="Shape" fill="#2A690B"></path>
                <path d="M2,3.89 L2.09,3.89 C2.1707455,3.85835795 2.24785523,3.81812678 2.32,3.77 C2.27425133,3.69064325 2.22417581,3.61386079 2.17,3.54 L2.09,3.42 L2.18,3.51 C2.2712622,3.61825977 2.36805794,3.72173108 2.47,3.82 L2.01,3.93 L2,3.89 Z M2.09,3.37 L2.18,3.49 C2.23560476,3.56635744 2.28573023,3.64655819 2.33,3.73 C2.25830812,3.7815984 2.18118183,3.82519152 2.1,3.86 L2.03,3.86 L2.47,3.76 C2.36429941,3.66233982 2.26414304,3.5588449 2.17,3.45 L2.09,3.36 L2.09,3.37 Z" id="Shape" fill="#000000"></path>
                <polygon id="Shape" fill="#2A690B" points="2.38 3.68 1.97 3.55 2.35 3.78 2.43 3.76"></polygon>
                <path d="M2.35,3.78 L2,3.55 L2.41,3.68 L2.47,3.76 L2.39,3.76 L2.35,3.78 Z M2,3.55 L2.38,3.77 L2.46,3.77 L2.4,3.7 L2,3.55 Z" id="Shape" fill="#000000"></path>
                <path d="M2.1,3.4 C2.22,3.51 2.39,3.68 2.51,3.77 L2.06,3.94 C2.16481473,3.88085438 2.26509069,3.81400375 2.36,3.74 C2.3,3.63 2.17,3.51 2.1,3.41 L2.1,3.4 Z" id="Shape" fill="#2A690B"></path>
                <path d="M2.06,3.94 L2.15,3.88 C2.22842547,3.83791071 2.30217048,3.78763002 2.37,3.73 C2.37,3.67 2.26,3.59 2.2,3.52 L2.11,3.41 L2.21,3.5 C2.31,3.6 2.43,3.71 2.52,3.77 L2.08,3.94 L2.06,3.94 Z M2.06,3.4 L2.16,3.51 C2.22030054,3.58045203 2.27703814,3.65387717 2.33,3.73 C2.26241788,3.7908235 2.18868712,3.84444587 2.11,3.89 L2.05,3.89 C2.18707286,3.82927889 2.32726977,3.77587054 2.47,3.73 C2.36189531,3.64562947 2.25841216,3.55549899 2.16,3.46 L2.06,3.37 L2.06,3.4 Z" id="Shape" fill="#000000"></path>
                <polygon id="Shape" fill="#2A690B" points="2.41 3.71 2.02 3.78 2.43 3.81 2.49 3.75"></polygon>
                <path d="M2.43,3.81 L2.02,3.81 L2.4,3.73 L2.48,3.73 L2.42,3.79 L2.43,3.81 Z M2.43,3.71 L2.04,3.79 L2.45,3.79 L2.51,3.73 L2.43,3.73 L2.43,3.71 Z" id="Shape" fill="#000000"></path>
                <polygon id="Shape" fill="#2A690B" points="2.33 3.68 1.93 3.71 2.34 3.79 2.41 3.73"></polygon>
                <path d="M2.34,3.79 L1.92,3.72 L2.32,3.72 L2.4,3.77 L2.33,3.82 L2.34,3.79 Z M2.34,3.69 L1.94,3.69 L2.36,3.76 L2.42,3.76 L2.34,3.71 L2.34,3.69 Z" id="Shape" fill="#000000"></path>
                <polygon id="Shape" fill="#2A690B" points="2.41 3.7 1.99 3.64 2.4 3.8 2.47 3.77"></polygon>
                <path d="M2.4,3.8 L2,3.64 L2.42,3.7 L2.49,3.77 L2.41,3.77 L2.4,3.8 Z M2,3.64 L2.41,3.8 L2.48,3.8 L2.41,3.74 L2,3.64 Z" id="Shape" fill="#000000"></path>
                <polygon id="Shape" fill="#2A690B" points="2.48 3.72 2.07 3.72 2.49 3.81 2.56 3.81"></polygon>
                <path d="M2.48,3.83 L2.06,3.74 L2.47,3.74 L2.55,3.8 L2.48,3.8 L2.48,3.83 Z M2.48,3.73 L2.07,3.73 L2.49,3.82 L2.55,3.82 L2.48,3.77 L2.48,3.73 Z" id="Shape" fill="#000000"></path>
                <path d="M2.19,3.46 C2.31,3.57 2.48,3.74 2.6,3.84 C2.46,3.84 2.26,3.94 2.14,3.98 C2.24793628,3.92830266 2.35159561,3.86811337 2.45,3.8 C2.36967178,3.68195714 2.28287239,3.56845026 2.19,3.46 Z" id="Shape" fill="#2A690B"></path>
                <path d="M2.14,4 L2.23,4 C2.3065274,3.96231483 2.38007343,3.91885581 2.45,3.87 C2.39734444,3.79365297 2.34059475,3.7202122 2.28,3.65 L2.19,3.54 L2.29,3.63 L2.6,3.92 L2.15,4.06 L2.14,4 Z M2.19,3.48 L2.28,3.59 C2.34219328,3.65889144 2.39902573,3.73243932 2.45,3.81 C2.38206414,3.8646512 2.30828039,3.9116045 2.23,3.95 L2.16,3.95 C2.29,3.95 2.47,3.85 2.59,3.82 C2.48080467,3.73336905 2.37726011,3.63984494 2.28,3.54 L2.18,3.45 L2.19,3.48 Z" id="Shape" fill="#000000"></path>
                <polygon id="Shape" fill="#2A690B" points="2.53 3.74 2.11 3.64 2.52 3.84 2.59 3.82"></polygon>
                <path d="M2.51,3.84 L2.11,3.64 L2.53,3.74 L2.59,3.82 L2.51,3.82 L2.51,3.84 Z M2.11,3.64 L2.51,3.84 L2.59,3.84 L2.53,3.77 L2.11,3.66 L2.11,3.64 Z" id="Shape" fill="#000000"></path>
                <path d="M2.23,3.48 C2.35,3.58 2.54,3.73 2.67,3.82 C2.54,3.82 2.35,3.96 2.24,4.02 C2.3418037,3.95369657 2.43871917,3.88017449 2.53,3.8 C2.43934557,3.69120198 2.34251959,3.58769835 2.24,3.49 L2.23,3.48 Z" id="Shape" fill="#2A690B"></path>
                <path d="M2.24,4 L2.33,3.94 C2.4017708,3.89338 2.46876251,3.83978663 2.53,3.78 L2.34,3.57 L2.24,3.47 L2.35,3.55 C2.46,3.64 2.59,3.74 2.68,3.8 L2.27,3.99 L2.24,4 Z M2.24,3.46 L2.34,3.56 C2.40794317,3.6256869 2.47141809,3.69584339 2.53,3.77 C2.4689411,3.82998827 2.40192831,3.8835985 2.33,3.93 L2.27,3.93 C2.39,3.87 2.56,3.79 2.68,3.74 C2.56532092,3.66303018 2.45514078,3.57956038 2.35,3.49 L2.24,3.4 L2.24,3.46 Z" id="Shape" fill="#000000"></path>
                <polygon id="Shape" fill="#2A690B" points="2.57 3.76 2.19 3.86 2.6 3.86 2.65 3.8"></polygon>
                <path d="M2.19,3.87 L2.57,3.77 L2.66,3.77 L2.61,3.83 L2.19,3.87 Z M2.57,3.77 L2.21,3.87 L2.6,3.87 L2.65,3.81 L2.57,3.81 L2.57,3.77 Z" id="Shape" fill="#000000"></path>
                <polygon id="Shape" fill="#F5CD28" points="3.21 3.24 2.78 2.94 2.34 3.24 2.51 2.76 2.13 2.46 2.62 2.46 2.78 1.98 2.94 2.46 3.43 2.46 3.05 2.76"></polygon>
                <path d="M3.22,3.25 L2.78,2.94 L2.35,3.24 L2.51,2.76 L2.13,2.46 L2.62,2.46 L2.78,2 L2.95,2.48 L3.44,2.48 L3.06,2.79 L3.23,3.28 L3.22,3.25 Z M2.78,2 L2.62,2.48 L2.13,2.48 L2.51,2.78 L2.35,3.26 L2.78,2.96 L3.21,3.26 L3,2.76 L3.38,2.46 L2.89,2.46 L2.78,2 Z" id="Shape" fill="#000000"></path>
                <polygon id="Shape" fill="#F8E72A" points="4.41 3.17 4.55 3.22 4.78 3.22 4.78 3.22 4.66 3.22 4.59 3.22 4.59 3.27 4.67 3.36 4.67 3.36 4.52 3.17 4.38 3.12"></polygon>
                <path d="M4.8,2.63 L4.6,2.63 L4.51,2.63 L4.45,2.63 C4.44237769,2.60728916 4.44237769,2.58271084 4.45,2.56 C4.44483327,2.53695269 4.44483327,2.51304731 4.45,2.49 L4.54,2.49 L4.74,2.49 L4.54,2.49 L4.47,2.49 C4.46221598,2.50924261 4.46221598,2.53075739 4.47,2.55 L4.56,2.55 L4.8,2.63 Z" id="Shape" fill="#F8E72A"></path>
                <path d="M4.52,2.22 L4.52,2.35 L4.39,2.35 L4.34,2.3 C4.33621645,2.28017894 4.33621645,2.25982106 4.34,2.24 C4.33275776,2.21382505 4.33275776,2.18617495 4.34,2.16 C4.3489074,2.13199757 4.3664001,2.10750779 4.39,2.09 L4.48,2.09 L4.58,2.09 L4.66,2.09 C4.66567766,2.11636446 4.66567766,2.14363554 4.66,2.17 C4.66250984,2.18992126 4.66250984,2.21007874 4.66,2.23 L4.61,2.23 L4.5,2.23 L4.42,2.23 C4.41576611,2.24639778 4.41576611,2.26360222 4.42,2.28 C4.41532148,2.29972639 4.41532148,2.32027361 4.42,2.34 L4.48,2.34 L4.52,2.22 Z" id="Shape" fill="#F8E72A"></path>
                <polygon id="Shape" fill="#F8E72A" points="3.04 1.1 3.1 0.75 3.14 0.76 3.08 1.07 3.23 1.1 3.23 1.14"></polygon>
                <polygon id="Shape" fill="#F8E72A" points="2.69 1.08 2.69 0.73 2.92 0.73 2.92 0.77 2.73 0.77 2.73 0.88 2.91 0.88 2.91 0.92 2.73 0.92 2.73 1.04 2.93 1.04 2.93 1.08"></polygon>
                <path d="M1.71,1.3 C1.72231071,1.33219668 1.72231071,1.36780332 1.71,1.4 C1.71915055,1.42588167 1.71915055,1.45411833 1.71,1.48 C1.68399627,1.48840911 1.65600373,1.48840911 1.63,1.48 L1.55,1.48 L1.47,1.42 C1.46379807,1.39032053 1.46379807,1.35967947 1.47,1.33 C1.46159089,1.30399627 1.46159089,1.27600373 1.47,1.25 C1.46407256,1.22704311 1.46407256,1.20295689 1.47,1.18 C1.49588167,1.17084945 1.52411833,1.17084945 1.55,1.18 L1.63,1.18 L1.57,1.18 L1.52,1.18 C1.51527744,1.19633213 1.51527744,1.21366787 1.52,1.23 C1.51491933,1.24967734 1.51491933,1.27032266 1.52,1.29 L1.52,1.35 L1.58,1.4 L1.64,1.4 L1.69,1.4 C1.69778402,1.38075739 1.69778402,1.35924261 1.69,1.34 C1.69762231,1.31728916 1.69762231,1.29271084 1.69,1.27 L1.71,1.3 Z" id="Shape" fill="#F8E72A"></path>
                <polygon id="Shape" fill="#F8E72A" points="1.56 1.61 1.3 1.38 1.33 1.35 1.59 1.58"></polygon>
                <polygon id="Shape" fill="#F8E72A" points="1.39 1.81 1.11 1.6 1.14 1.57 1.39 1.76 1.48 1.63 1.51 1.66"></polygon>
                <path d="M0.87,2 L1.06,2.08 L1.14,2.08 C1.14472256,2.09633213 1.14472256,2.11366787 1.14,2.13 C1.14568207,2.17891352 1.12699472,2.22750063 1.09,2.26 L1.03,2.26 L0.94,2.26 L0.75,2.18 L0.94,2.26 L1.01,2.26 C1.02075004,2.23790484 1.02075004,2.21209516 1.01,2.19 C0.990534826,2.16390407 0.961986697,2.14606149 0.93,2.14 L0.87,2 Z" id="Shape" fill="#F8E72A"></path>
                <polygon id="Shape" fill="#F8E72A" points="1.07 2.88 0.72 2.88 0.72 2.65 0.76 2.65 0.76 2.84 0.87 2.84 0.87 2.66 0.91 2.66 0.91 2.84 1.03 2.84 1.03 2.64 1.07 2.64"></polygon>
                <path d="M2.39,1.13 L2.32,0.78 L2.43,0.78 L2.49,0.78 L2.49,0.83 C2.49369582,0.856538612 2.49369582,0.883461388 2.49,0.91 C2.49328283,0.933217866 2.49328283,0.956782134 2.49,0.98 C2.4930003,0.996531639 2.4930003,1.01346836 2.49,1.03 L2.39,1.13 Z M2.39,1.13 L2.46,1.13 C2.46282642,1.10675226 2.46282642,1.08324774 2.46,1.06 C2.46567766,1.03363554 2.46567766,1.00636446 2.46,0.98 L2.34,0.98 L2.39,1.13 Z" id="Shape" fill="#F8E72A"></path>
                <path d="M3.54,1.27 L3.7,1 L3.8,1.05 C3.7888292,1.07721945 3.76721945,1.0988292 3.74,1.11 C3.71137265,1.12283427 3.67862735,1.12283427 3.65,1.11 L3.58,1.11 L3.51,1.24 L3.54,1.27 Z M3.66,1.13 L3.73,1.13 L3.79,1.13 L3.72,1.13 L3.66,1.13 Z" id="Shape" fill="#F8E72A"></path>
                <path d="M3.72,1.36 L4,1.18 L3.86,1.53 L3.86,1.43 L3.76,1.34 L3.66,1.4 L3.72,1.36 Z M3.89,1.36 L3.97,1.43 L3.97,1.34 L3.97,1.27 L3.92,1.27 L3.89,1.36 Z" id="Shape" fill="#F8E72A"></path>
                <path d="M4,1.6 L4.28,1.38 L4.36,1.49 C4.36404082,1.5097959 4.36404082,1.5302041 4.36,1.55 L4.3,1.55 L4.23,1.55 L4.23,1.61 L4.23,1.71 L4.23,1.63 L4.23,1.58 L4,1.63 L4,1.6 Z M4.18,1.51 L4.23,1.58 L4.29,1.58 L4.23,1.5 L4.18,1.51 Z" id="Shape" fill="#F8E72A"></path>
                <path d="M4.16,1.84 L4.53,1.77 L4.28,2.05 L4.36,2 L4.3,1.89 L4.19,1.89 L4.16,1.84 Z M4.33,1.84 L4.38,1.93 L4.45,1.85 L4.5,1.79 L4.43,1.79 L4.33,1.84 Z" id="Shape" fill="#F8E72A"></path>
                <path d="M4.47,2.76 L4.81,2.91 L4.44,3 L4.55,3 L4.55,2.85 L4.45,2.85 L4.47,2.76 Z M4.61,2.86 L4.61,3 L4.71,3 L4.79,3 L4.73,3 L4.61,2.86 Z" id="Shape" fill="#F8E72A"></path>
                <path d="M1.13,3.2 L0.79,3.28 L0.79,3.14 C0.786216449,3.12017894 0.786216449,3.09982106 0.79,3.08 L0.86,3.08 C0.86555993,3.09961359 0.86555993,3.12038641 0.86,3.14 L0.94,3.07 L0.94,3 L1,3 L1.15,3 L1.13,3.2 Z M0.93,3.2 L0.93,3.11 C0.924657894,3.1262386 0.924657894,3.1437614 0.93,3.16 L0.93,3.26 L0.93,3.2 Z" id="Shape" fill="#F8E72A"></path>
                <path d="M1.09,2.56 L0.74,2.56 L0.74,2.37 L0.81,2.37 C0.822834267,2.39862735 0.822834267,2.43137265 0.81,2.46 L0.81,2.54 L0.95,2.54 L1.09,2.56 Z M0.91,2.5 L0.91,2.43 C0.919005929,2.41101383 0.919005929,2.38898617 0.91,2.37 L0.91,2.5 Z" id="Shape" fill="#F8E72A"></path>
                <path d="M1.23,2 L0.94,1.8 L1.01,1.7 L1.06,1.7 L1.11,1.7 L1.23,2 Z M1.08,1.85 L1.08,1.79 L1.02,1.79 L1.02,1.84 L1.08,1.85 Z M1.22,1.94 L1.22,1.88 L1.22,1.85 L1.15,1.85 L1.15,1.91 L1.22,1.94 Z" id="Shape" fill="#F8E72A"></path>
                <path d="M1.82,1.36 L1.73,1 L2.02,1.23 L1.93,1.16 L1.82,1.23 L1.82,1.34 L1.82,1.36 Z M1.82,1.19 L1.91,1.13 L1.83,1.06 L1.77,1.06 L1.77,1.12 L1.82,1.19 Z" id="Shape" fill="#F8E72A"></path>
            </g>
        </g>
    </g>
</svg>