<?xml version="1.0" encoding="utf-8"?>
<!-- Generator: Adobe Illustrator 21.0.0, SVG Export Plug-In . SVG Version: 6.00 Build 0)  -->
<svg version="1.1" id="Layer_1" xmlns="http://www.w3.org/2000/svg" xmlns:xlink="http://www.w3.org/1999/xlink" x="0px" y="0px"
	 viewBox="0 0 200 200" style="enable-background:new 0 0 200 200;" xml:space="preserve">
<style type="text/css">
	.st0{fill:#27346A;}
	.st1{fill:#2790C3;}
	.st2{fill:#1F264F;}
</style>
<title>PYPL</title>
<path class="st0" d="M159.6,15.1C150.3,4.5,133.6,0,112.2,0H50c-4.4,0-8.1,3.2-8.8,7.5L15.3,171.6c-0.5,2.9,1.5,5.7,4.4,6.1
	c0.3,0,0.6,0.1,0.8,0.1H59l9.6-61.2l-0.3,1.9c0.7-4.3,4.4-7.5,8.8-7.5h18.2c35.8,0,63.9-14.6,72.1-56.6c0.2-1.3,0.4-2.5,0.6-3.6l0,0
	C170.4,35.3,168,24.7,159.6,15.1"/>
<path class="st0" d="M83.3,45.2c1-0.5,2.2-0.8,3.4-0.8h48.7c5.4,0,10.8,0.4,16.1,1.2c1.4,0.2,2.8,0.5,4.2,0.8c1.4,0.3,2.6,0.6,3.9,1
	c0.6,0.2,1.2,0.4,1.8,0.6c2.3,0.8,4.6,1.7,6.7,2.8c2.4-15.6,0-26.2-8.4-35.7C150.3,4.5,133.6,0,112.2,0H50c-4.4,0-8.1,3.2-8.8,7.5
	L15.3,171.6c-0.5,2.9,1.5,5.6,4.4,6.1c0.3,0,0.5,0.1,0.8,0.1H59L79,51C79.4,48.5,81,46.3,83.3,45.2z"/>
<path class="st1" d="M167.4,54.4c-8.2,42.1-36.3,56.6-72.1,56.6H77.1c-4.4,0-8.1,3.2-8.8,7.5l-12,76c-0.4,2.6,1.4,4.9,3.9,5.3
	c0.2,0,0.4,0,0.6,0.1h32.4c3.8,0,7.1-2.8,7.7-6.6l0.3-1.7l6.1-38.6l0.4-2.1c0.6-3.8,3.9-6.6,7.7-6.6h4.8c31.3,0,55.9-12.7,63-49.6
	c3-15.4,1.4-28.2-6.5-37.2c-2.5-2.8-5.5-5.1-8.9-6.8C167.8,52,167.6,53.2,167.4,54.4L167.4,54.4z"/>
<path class="st2" d="M159.4,47.4c-1.3-0.4-2.5-0.7-3.9-1c-1.3-0.3-2.7-0.6-4.2-0.8c-5.3-0.8-10.6-1.2-16-1.1H86.7
	c-3.8,0-7.1,2.8-7.7,6.6l-10.3,65.6l-0.3,1.9c0.7-4.3,4.4-7.5,8.7-7.5h18.3c35.8,0,63.9-14.6,72.1-56.6c0.2-1.3,0.4-2.5,0.6-3.6
	c-2.2-1.1-4.4-2.1-6.7-2.9L159.4,47.4"/>
</svg>
