<?xml version="1.0" encoding="UTF-8"?>
<svg width="34px" height="20px" viewBox="0 0 34 20" version="1.1" xmlns="http://www.w3.org/2000/svg" xmlns:xlink="http://www.w3.org/1999/xlink">
    <!-- Generator: Sketch 49 (51002) - http://www.bohemiancoding.com/sketch -->
    <title>QAR</title>
    <desc>Created with Sketch.</desc>
    <defs></defs>
    <g id="Page-1" stroke="none" stroke-width="1" fill="none" fill-rule="evenodd">
        <g id="QAR" fill-rule="nonzero">
            <polygon id="Shape" fill="#681840" points="10 0 13.57 1.09 10 2.18 13.57 3.27 10 4.35 13.57 5.44 10 6.53 13.57 7.61 10 8.7 13.57 9.79 10 10.88 13.57 11.96 10 13.05 13.57 14.14 10 15.23 13.57 16.32 10 17.4 13.57 18.49 10 19.58 33.56 19.58 33.56 0"></polygon>
            <polygon id="Shape" fill="#FFFFFF" points="0 0 0 19.58 10 19.58 13.57 18.49 10 17.4 13.57 16.32 10 15.23 13.57 14.14 10 13.05 13.57 11.96 10 10.88 13.57 9.79 10 8.7 13.57 7.61 10 6.53 13.57 5.44 10 4.35 13.57 3.27 10 2.18 13.57 1.09 10 0"></polygon>
        </g>
    </g>
</svg>