<?xml version="1.0" encoding="utf-8"?>
<!-- Generator: Adobe Illustrator 21.0.0, SVG Export Plug-In . SVG Version: 6.00 Build 0)  -->
<svg version="1.1" id="Layer_1" xmlns="http://www.w3.org/2000/svg" xmlns:xlink="http://www.w3.org/1999/xlink" x="0px" y="0px"
	 viewBox="0 0 200 200" style="enable-background:new 0 0 200 200;" xml:space="preserve">
<style type="text/css">
	.st0{fill:#3253DC;}
</style>
<title>QCOM</title>
<path class="st0" d="M56.8,11.1c16.2-9,35-12.7,53.4-10.5c15.5,1.6,30,7.5,42.6,16.8c11.6,8.8,20.8,20.5,26.6,33.9
	c8.4,19.9,9.7,42,3.4,62.7c-5.9,19.5-18.6,36.3-35.9,47.2l-0.1,0.3c3.9,10.5,8.1,21.1,12.1,31.6c0.5,1.3,0.7,2.7,0.2,4.2
	c-0.9,1.8-2.6,2.9-4.6,2.7c-5.2,0-10.2,0-15.4,0c-2.5,0.1-4.8-1.2-5.9-3.5c-3.3-8.3-6.4-16.8-9.8-25.1c-22.4,6.1-46.2,3.3-66.5-7.8
	c-13.3-7.3-24.2-18.1-31.9-31.3C9.9,106.4,9.2,72.7,23.1,46C30.7,31.3,42.4,19.3,56.8,11.1 M61.2,37.7c-11,9.4-18,23.1-20.4,37.4
	c-2.6,15.9-0.2,32.8,7.9,46.8c6.3,11,16,19.6,27.7,24.6c12.3,4.9,25.7,5.9,38.5,2.7c-4.7-12.6-9.7-25-14.5-37.6
	c-0.8-1.6-0.5-3.5,0.5-5c1.2-1.4,3.2-1.8,5-1.8c4.7,0,9.5,0,14.3,0c2.7-0.1,5.3,1.5,6.4,4.1c3.8,9.5,7.2,19.3,11.2,28.8
	c4.7-3.9,8.8-8.7,12.2-13.9c10.6-17,12.7-38.6,7-57.7c-4.2-14-13.3-26.5-25.9-34.1C109.9,19.1,80.2,21.1,61.2,37.7L61.2,37.7z"/>
</svg>
