<?xml version="1.0" encoding="utf-8"?>
<!-- Generator: Adobe Illustrator 21.0.0, SVG Export Plug-In . SVG Version: 6.00 Build 0)  -->
<svg version="1.1" id="Layer_1" xmlns="http://www.w3.org/2000/svg" xmlns:xlink="http://www.w3.org/1999/xlink" x="0px" y="0px"
	 viewBox="0 0 200 200" style="enable-background:new 0 0 200 200;" xml:space="preserve">
<style type="text/css">
	.st0{fill:#ED1C24;}
	.st1{fill:#FFD500;}
</style>
<title>RDS-A</title>
<g id="layer1">
	<g id="g2384">
		<path id="Red_part" class="st0" d="M100,192.6c-4.1,0.1-8.1-1.7-10.7-4.6c-5.9-0.3-51.8-0.1-51.8-0.1L32.9,150
			c0,0-28.3-19.9-30.6-22.2C-11.3,66.1,37.8,7.3,100,7.3s111.3,58.9,97.7,120.5c-2.2,2.2-30.5,22.2-30.5,22.2l-4.5,37.8
			c0,0-45.9-0.1-51.8,0.1C108.1,190.9,104.1,192.6,100,192.6z"/>
		<path id="Yellow_part" class="st1" d="M100,135.2l-4.3-109C90.3,25,77,26.5,69.9,31.8l20.9,103.9L62.3,35.9
			c-6.8-0.1-20.5,11.5-21.6,14.8l41.5,88.4L35.7,58.4C31,60.1,20.9,78.6,22.6,80.8l52,63.6L21.1,90.1c0,0-7.1,10.6-2.4,28.5
			l30.1,21.8l3.8,29.8h37.1c0,0,6,5.8,10.3,5.8s10.3-5.8,10.3-5.8h37l3.8-29.8l30.1-21.8c4.5-17.9-2.4-28.5-2.4-28.5l-53.5,54.3
			l51.9-63.6c1.6-2.1-8.4-20.6-13.1-22.4l-46.3,80.9l41.5-88.4c-1.2-3.4-14.7-15-21.6-14.8l-28.4,99.6l20.9-103.9
			c-7.2-5.4-20.6-6.6-25.8-5.6L100,135.2z"/>
	</g>
</g>
</svg>
