<?xml version="1.0" encoding="utf-8"?>
<!-- Generator: Adobe Illustrator 21.0.0, SVG Export Plug-In . SVG Version: 6.00 Build 0)  -->
<svg version="1.1" id="Layer_1" xmlns="http://www.w3.org/2000/svg" xmlns:xlink="http://www.w3.org/1999/xlink" x="0px" y="0px"
	 viewBox="0 0 200 200" style="enable-background:new 0 0 200 200;" xml:space="preserve">
<style type="text/css">
	.st0{fill:#EE333E;}
	.st1{fill:#FFFFFF;}
</style>
<title>RIO</title>
<rect class="st0" width="200" height="200"/>
<path id="path15" class="st1" d="M80.1,57.7v70c0,8.3,4.6,10.1,8.2,10.1v5.4H53.9v-5.4c3.5,0,8.2-1.8,8.2-10.1v-64
	c0-8.3-4.6-10.1-8.2-10.1v-5.4h42.9c26.2,0,32.4,13.9,32.4,24.7c0,12.3-8.8,20.5-21.1,22.8c13,0.8,20.6,34.1,30.2,46.3
	c1.3,1.6,4.6,4.6,8.2,4.6h0.4v5.5h-10.2c-7.5,0-15.1-3.3-18.4-7.9C107,129,102.7,97.8,89.1,96.8c-0.2,0-1,0-1.2,0v-5.7h1.2
	c17-0.2,20-9.3,20-16.8c0-8.7-3.1-16.7-18.6-16.7C88,57.7,80.1,57.7,80.1,57.7"/>
</svg>
