<?xml version="1.0" encoding="UTF-8"?>
<svg width="34px" height="20px" viewBox="0 0 34 20" version="1.1" xmlns="http://www.w3.org/2000/svg" xmlns:xlink="http://www.w3.org/1999/xlink">
    <!-- Generator: Sketch 49 (51002) - http://www.bohemiancoding.com/sketch -->
    <title>RWF</title>
    <desc>Created with Sketch.</desc>
    <defs></defs>
    <g id="Page-1" stroke="none" stroke-width="1" fill="none" fill-rule="evenodd">
        <g id="RWF" fill-rule="nonzero">
            <rect id="Rectangle-path" fill="#3E81C5" x="0" y="0" width="33.56" height="9.79"></rect>
            <rect id="Rectangle-path" fill="#F1D62F" x="0" y="9.79" width="33.56" height="4.89"></rect>
            <rect id="Rectangle-path" fill="#347D59" x="0" y="14.68" width="33.56" height="4.9"></rect>
            <polygon id="Shape" fill="#DFAD29" points="31.57 7.13 30.05 5.96 30.79 7.73 29.62 6.21 29.87 8.11 29.14 6.34 28.89 8.24 28.64 6.34 27.9 8.11 28.15 6.21 26.99 7.73 27.71 5.96 26.2 7.13 27.36 5.61 25.59 6.34 27.11 5.17 25.22 5.42 26.98 4.69 25.09 4.45 26.98 4.19 25.22 3.46 27.11 3.71 25.59 2.54 27.36 3.27 26.2 1.75 27.71 2.92 26.99 1.15 28.15 2.67 27.9 0.77 28.64 2.54 28.89 0.64 29.14 2.54 29.87 0.77 29.62 2.67 30.79 1.15 30.05 2.92 31.57 1.75 30.41 3.27 32.17 2.54 30.66 3.71 32.55 3.46 30.79 4.19 32.68 4.45 30.79 4.69 32.55 5.42 30.66 5.17 32.17 6.34 30.41 5.61"></polygon>
            <g id="Group" transform="translate(27.000000, 2.000000)">
                <path d="M3.27,2.45 C3.26448662,3.21082683 2.64421957,3.8236529 1.88338161,3.81998395 C1.12254365,3.81631501 0.508215709,3.19753541 0.5100402,2.43669079 C0.511864691,1.67584618 1.12915319,1.06001998 1.89,1.06 C2.25773797,1.05999034 2.61027039,1.2067547 2.86935998,1.46772175 C3.12844957,1.7286888 3.27266477,2.08227168 3.27,2.45 Z" id="Shape" fill="#DFAD29"></path>
                <path d="M1.89,3.89 C1.08918711,3.89 0.44,3.24081289 0.44,2.44 C0.44,1.63918711 1.08918711,0.99 1.89,0.99 C2.69081289,0.99 3.34,1.63918711 3.34,2.44 C3.34,3.24081289 2.69081289,3.89 1.89,3.89 Z M1.89,1.13 C1.16781336,1.13002104 0.581865958,1.71450775 0.580042345,2.43669208 C0.578218732,3.15887642 1.16120687,3.74631484 1.88338419,3.7499831 C2.60556151,3.75365136 3.19448712,3.1721656 3.2,2.45 C3.20266544,2.100837 3.06582557,1.7650586 2.81986342,1.51721888 C2.57390127,1.26937916 2.23917317,1.12998983 1.89,1.13 Z" id="Shape" fill="#3E81C5"></path>
            </g>
        </g>
    </g>
</svg>