<?xml version="1.0" encoding="utf-8"?>
<!-- Generator: Adobe Illustrator 21.0.0, SVG Export Plug-In . SVG Version: 6.00 Build 0)  -->
<svg version="1.1" id="Layer_1" xmlns="http://www.w3.org/2000/svg" xmlns:xlink="http://www.w3.org/1999/xlink" x="0px" y="0px"
	 viewBox="0 0 200 200" style="enable-background:new 0 0 200 200;" xml:space="preserve">
<style type="text/css">
	.st0{fill:#005DAA;}
	.st1{fill:#FFD200;}
	.st2{fill:#FFFFFF;}
</style>
<rect class="st0" width="200" height="200"/>
<title>RY</title>
<g>
	<path class="st1" d="M68.3,107.3C49.3,95.5,43,90.2,42.5,82.5c0-2.1,0.3-4.1,0.9-6.1l-1.8-1.2c-1.5,2.4-2.3,5.2-2.3,8
		c0,3.8,1.1,7.5,3.2,10.6c2.7,4.1,5.4,6.7,12.4,11.8c6.7,4.8,12,11.3,15.4,18.9h1v-7.7c10,5.7,18.9,11.1,23.3,20.6h1
		C93.9,127.4,88.3,119.8,68.3,107.3"/>
	<g>
		<path class="st1" d="M155.4,139.4h-1.3c0-7.1-6.5-9-13.3-9h-21.2c0.8,3.8,0.9,7.6,0.5,11.4H119c-2-15.9-10.9-23.8-23.5-32.2v7.2
			h-1c-3.4-7.4-10.7-14.4-17.7-19.3l-5.7-4v7.8h-1c-3-7.8-8.3-13.5-16-20.4C46,73.4,42.7,69,40.8,63.9c-1.1-2.9-1.6-5.9-1.5-9
			c-0.1-6.1,3-11.5,6.8-13.6v2.9c-1.9,2.6-2.9,5.7-2.9,8.9s0.7,6.3,2.2,9.1C50,71.2,65.6,82,75.6,88.5c30.8,20.7,37,24.3,42.1,35.2
			c0.7,1.5,1.2,3.1,1.6,4.8l23.5-3.5c0.6-0.1,1.8-0.2,2.4-0.3c2.7-1.8,5.1-4.1,6.9-6.8l-11.8-0.9c-0.6,1.3-1.2,2.5-1.7,3.4h-1
			c0.3-1.2,0.6-2.4,0.9-3.5l-3-0.2V116l3.3-0.4c0.6-3.1,0.9-6.3,1-9.5l-14.9-0.8c-0.1,1.5-0.1,3,0,4.3h-1c-0.3-1.5-0.6-3-0.8-4.4
			l-3.3-0.2v-1l3.1-0.2c-0.4-3.6-0.5-7.2-0.3-10.8l-8.7-0.4c0.4,0.8,0.8,1.6,1.1,2.4c1.5,4.6,1.7,9.5,0.8,14.2h-1
			c-0.2-3.3-1-6.6-2.3-9.7c-2.4-5.7-7.8-10.7-16.8-16.5v7.3h-1C91.5,80.8,84,75.5,72.8,69.8c-9.2-4.7-12-10.4-11.5-19.2l3.1,1.8
			c0.8,8.2,7.1,13,13.7,12.9c3.7-0.1,7.4-0.5,11.1-1.3c5.1-1,9.8-1.9,13.7-0.5v-4.9h-3.1c-1.9,1.4-4.3,2.2-6.7,2.1
			c-3.6,0.1-10.5-2-10.5-9.7c0-6.7,5.6-7.7,10.2-7.7c2.5,0,6.6-0.1,7.9-0.2c0.8,0,1.6-0.2,2.3-0.7c0.4-0.5,0.7-1.1,0.8-1.7
			c0.1-1,0.2-2.1,0.2-3.1v-4.9H82.8v8.4l-8-3.1v-2h3.8v-3.4H64.3v-7h-4.9c-3.1-0.1-5.6,2.3-5.8,5.4c-0.2,3.4,1.3,6.3,4.8,6.3H59v4.1
			h-0.6c-5.8,0.1-10.6-4.4-10.8-10.2c0-0.2,0-0.3,0-0.5c0-6.4,5.4-11.2,12-11.2H70v7h40.3V37c0,1.7-0.1,4.1-0.3,5.6
			c-0.2,1.8-1.1,3.5-2.5,4.6c-1.2,0.9-3.1,1.3-6.1,1.3c-1,0-3.8,0-7.3-0.3c-4.6-0.3-5.9,1.5-6.1,3.1c0,0.3,0,0.7,0,1
			c2.4-2,5.7-2.7,8.7-1.8c6.1,1.9,7.8,2.1,11-0.4l0.3,0.7c-0.5,0.8-1.1,1.4-1.8,2h2.9v15.9l9.2-5.5H144l12.6,6.6
			c1.3,0.6,2.3,1.8,2.4,3.3c0.2,1.3-0.1,2.6-0.7,3.8c-0.4,0.6-3.3,5.4-4.9,8c10.3,11.2,9.6,28.7-1.6,39c-0.5,0.5-1,0.9-1.6,1.3
			c3.1,1,5.8,3,7.6,5.7L155.4,139.4z M98.1,53.7c-3.6-0.8-5.6-0.4-7.7,1.6c1.2,0.5,2.4,0.8,3.7,0.7C95.7,55.8,97.1,55,98.1,53.7
			 M96,76.7l10.2-6.1c-2.1-1.1-4.5-1.6-6.8-1.7c-3.5-0.1-9.4,1.5-12.3,2C88.3,71.8,92.9,74.7,96,76.7 M141.4,77.4l1.4-2l-2.2-2.9
			l0.4-0.7l6.1,3.3l-1.3,4.1c1.1,0.5,2.1,1.1,3.1,1.8l4-6.5l-10.3-5.4h-22.8l-18.4,11.1c3.3,2.2,6.2,4.7,8.9,7.6
			c5.1-7.3,13.3-11.6,22.2-11.8C135.5,76,138.5,76.4,141.4,77.4 M139.5,103c-0.1-3.1-0.5-6.1-1.1-9.2l-12-0.5
			c-0.8,3.5-1.3,7-1.6,10.5L139.5,103z M143.5,94.1c0.4,2.9,0.4,5.8,0.2,8.7l11.9-0.6c-0.3-2.6-1.1-5.2-2.2-7.6L143.5,94.1z
			 M137.5,90.2c-0.9-3-2-5.9-3.5-8.7c-0.5,0-1,0-1.5,0c-0.8,0-1.7,0.1-2.5,0.2c-1.2,3-2.2,6-3,9.1L137.5,90.2z M140.8,83
			c0.8,2.3,1.5,4.6,2,6.9l7.3-0.4C147.6,86.6,144.4,84.4,140.8,83 M154.2,113.7c0.9-2.1,1.4-4.3,1.6-6.6l-12.4-0.7
			c-0.5,3.1-1.3,6.1-2.5,8.9L154.2,113.7z M123.7,83.4c-3.9,1.7-7.2,4.5-9.6,8l8.5-0.4C122.8,88.4,123.1,85.9,123.7,83.4"/>
		<path class="st2" d="M108,160.8c3.4-0.6,6.8-3.3,6.8-7.3c0-3.6-1.6-7.7-12.3-7.7H84.2v0.3c0.7,0.3,1.4,0.7,2,1.2
			c1.2,1.2,1.7,3,1.7,5.4v27.2H103c8.3,0,14.3-3.2,14.3-10.4C117.2,163.6,112.6,161.1,108,160.8 M100.2,149.1c3.8,0,6.5,0.9,6.5,4.9
			c0,4.4-3.5,5.6-7.5,5.6h-3.5v-10.5H100.2z M100.6,176.7h-4.8v-13.9h4.6c6.4,0,8.8,1.9,8.8,6.7C109.2,174.6,106,176.7,100.6,176.7"
			/>
		<path class="st2" d="M70.8,179.9h9.8l-12.5-16c5-1.3,8.8-4.1,8.8-9.1c0-5.9-3.5-9-12.7-9h-19v0.3c0.7,0.3,1.4,0.7,2,1.2
			c1.3,1.3,1.7,3.3,1.7,6v26.6h8v-15.1h2.9L70.8,179.9z M56.8,149.1h5.3c4.4,0,6.7,1.3,6.7,6c0,4.2-3,6.7-7.9,6.7h-4.1V149.1z"/>
		<path class="st2" d="M149.1,150.4c1.2,0.6,2.1,1.6,2.8,2.8c0.1,0.1,0.3,0.1,0.3,0.1l1.7-5.8c0,0-3.1-2.2-10.4-2.2
			c-11.1,0-19.4,5.6-19.4,17.8c0,13.8,9.9,17.3,18.6,17.3c8.1,0,11.3-2.6,11.3-2.6v-4c0,0-2.9,2.7-9,2.7c-5.1,0-12.5-2.3-12.7-13.6
			c-0.1-10.4,4.4-13.8,10.6-13.8C145,148.9,147.2,149.4,149.1,150.4"/>
	</g>
</g>
</svg>
