<?xml version="1.0" encoding="utf-8"?>
<!-- Generator: Adobe Illustrator 21.0.0, SVG Export Plug-In . SVG Version: 6.00 Build 0)  -->
<svg version="1.1" id="Layer_1" xmlns="http://www.w3.org/2000/svg" xmlns:xlink="http://www.w3.org/1999/xlink" x="0px" y="0px"
	 viewBox="0 0 200 200" style="enable-background:new 0 0 200 200;" xml:space="preserve">
<style type="text/css">
	.st0{fill:#FE0000;}
	.st1{fill:#FFFFFF;}
</style>
<title>SAN</title>
<g id="layer4">
	<path id="path3004" class="st0" d="M0,0h200v200H0V0z"/>
	<path id="path2996" class="st1" d="M102.3,41.3c-0.5,3.6-0.2,7.2,0.8,10.6c1.4,4.2,3.4,7.3,10.5,16.5c7.5,9.8,9.9,13.3,11.7,18.4
		c1.3,3.3,1.6,6.9,0.9,10.3c6.6,1.2,17.4,4.8,24.7,9.1c6.7,4.1,11.6,9.5,13.4,14.7c1.1,3.5,1,7.3-0.1,10.8c-1,2.8-2.6,5.4-4.7,7.7
		c-8.7,9.5-25.9,16.3-46.6,18.5c-6.5,0.5-13.1,0.7-19.7,0.6c-27.6-1.6-49.9-11.2-56.2-24.2c-2.6-5.4-2.6-10.1,0.2-15.4
		c2.3-4.4,8.5-9.8,15.9-13.8c6.7-3.3,13.7-5.9,20.9-8c0.3,4.7,9.4,15.8,12.4,19.7c6.6,8.5,9.1,12.6,11,15.9c1.1,2,1.8,3.2,1.4,7
		c0,0,2.5-2.3,3.5-4.2c1.3-2.6,1.7-5.5,1.4-8.3c-0.2-3.6-1.1-7.1-2.8-10.2c-1.8-3.7-4.5-7.6-9.4-13.7c-7.1-8.6-9.7-13.4-10.7-19.5
		c-1.2-6.9,0.7-14.1,4.7-17.7c0.7-0.6,1.4-1.1,2.2-1.5c0,0-0.1,1.8-0.1,3.8c0,4.3,0.5,6.4,2.1,9.7c2,4,4.8,7.8,13.4,18
		c7.6,9,9.9,13.6,9.9,19.4v2.8c1.1-0.8,2.1-1.8,2.9-2.9c2.9-4.4,3.4-11.4,1.2-17.5c-1.5-4.2-4-8-11.4-17.3
		C98.1,71.2,95,63.6,95,57.3S96.4,45,102.3,41.3L102.3,41.3z"/>
</g>
</svg>
