<?xml version="1.0" encoding="utf-8"?>
<!-- Generator: Adobe Illustrator 21.0.0, SVG Export Plug-In . SVG Version: 6.00 Build 0)  -->
<svg version="1.1" id="Layer_1" xmlns="http://www.w3.org/2000/svg" xmlns:xlink="http://www.w3.org/1999/xlink" x="0px" y="0px"
	 viewBox="0 0 200 200" style="enable-background:new 0 0 200 200;" xml:space="preserve">
<style type="text/css">
	.st0{fill:#014185;}
	.st1{fill:#FFFFFF;}
</style>
<rect class="st0" width="200" height="200"/>
<title>SAP</title>
<g id="layer1">
	<path id="path25032" class="st1" d="M144.2,69.5h-19.6v46.8l-17.2-46.8H90.6l-14.9,39.1c-1.6-9.9-11.7-13.3-20-15.8
		c-5.1-1.7-11-4.2-10.6-7c0-2.3,2.7-4.4,8.6-4.1c3.9,0.2,7.4,0.5,14.5,3.9l7-11.9c-7-3.3-14.6-5.1-22.3-5.3l0,0
		c-8.6,0-15.6,2.7-20,7.2c-2.9,3.1-4.6,7.2-4.7,11.5c-0.2,5.4,2.4,10.6,6.7,13.8c4.2,2.7,8.8,4.8,13.7,6.1c5.5,1.7,9.8,3.2,9.8,6.3
		c0,1.1-0.4,2.2-1.2,3.1c-1.6,1.4-3.5,1.9-6.7,2c-5.5,0.1-9.4-0.8-16-4.7l-6.3,12.1c6.8,3.8,14.5,5.9,22.3,5.9h1.2
		c6.7-0.1,12.5-2.1,16.8-5.7c0.4-0.2,0.4-0.4,0.8-0.6l-2,5.3h18l2.7-9.1c3.4,1.1,7,1.7,10.6,1.7c3.5,0,6.9-0.5,10.2-1.6l3.1,9h29
		v-18.9h6.7c15.3,0,24.3-7.8,24.3-21C172,76.2,163.4,69.5,144.2,69.5z M98.8,109.6c-2.1,0-4.3-0.4-6.3-1.1l6.3-19.7l0,0l6.3,19.8
		C103,109.2,100.9,109.6,98.8,109.6z M145.4,98.3h-4.3V82.4h4.3c5.9,0,10.6,1.9,10.6,7.8C155.9,96.4,151.2,98.2,145.4,98.3"/>
</g>
</svg>
