<?xml version="1.0" encoding="UTF-8"?>
<svg width="34px" height="20px" viewBox="0 0 34 20" version="1.1" xmlns="http://www.w3.org/2000/svg" xmlns:xlink="http://www.w3.org/1999/xlink">
    <!-- Generator: Sketch 49 (51002) - http://www.bohemiancoding.com/sketch -->
    <title>SAR</title>
    <desc>Created with Sketch.</desc>
    <defs></defs>
    <g id="Page-1" stroke="none" stroke-width="1" fill="none" fill-rule="evenodd">
        <g id="SAR" fill-rule="nonzero">
            <rect id="Rectangle-path" fill="#3D9635" x="0" y="0" width="33.56" height="19.58"></rect>
            <g id="Group" transform="translate(9.000000, 4.000000)" fill="#FFFFFF">
                <path d="M0.5,1.55 C0.5,2.01 0.42,2.82 0.81,2.9 C1.2,2.98 1.02,2.1 1.19,1.95 C1.36,1.8 1.28,1.88 1.29,1.95 L1.29,2.66 C1.28650385,2.82352362 1.39993516,2.96636305 1.56,3 C1.68,3 1.77,3 1.81,3.12 C1.81,3.53333333 1.83,3.94333333 1.87,4.35 C1.87,4.35 2.16,4.44 2.17,3.66 C2.15023335,3.3503151 2.15023335,3.0396849 2.17,2.73 C2.17,2.64 2.28,2.64 2.36,2.73 C2.44,2.82 2.54,2.92 2.73,2.88 C2.92,2.84 3.19,2.66 3.2,2.43 C3.17092964,2.20350446 3.10328525,1.98366019 3,1.78 C3,1.78 3,1.64 3,1.6 C3,1.56 3.13,1.67 3.15,1.6 C3.11922096,1.44296769 3.02983923,1.30353219 2.9,1.21 C2.8,1.12 2.64,1.14 2.59,1.33 C2.58264588,1.57862657 2.66821411,1.8210699 2.83,2.01 C2.87891719,2.11628422 2.8995833,2.23339216 2.89,2.35 C2.82012503,2.40692107 2.71987497,2.40692107 2.65,2.35 C2.65,2.35 2.42,2.17 2.42,2.14 C2.48172047,1.96186133 2.48172047,1.76813867 2.42,1.59 C2.39467699,1.47945542 2.34324185,1.37658515 2.27,1.29 C2.21,1.22 2.13,1.22 2.1,1.29 C2.00801003,1.52463934 2.00801003,1.78536066 2.1,2.02 C2.15,2.18 2.23,2.27 2.2,2.27 C2.17,2.27 2.1,2.34 2.05,2.27 C1.99804783,2.03037508 1.98120506,1.78447061 2,1.54 C2,1.36 2,0.99 1.84,0.89 C1.68,0.79 1.66,0.89 1.63,0.89 C1.61707958,1.0597545 1.61707958,1.2302455 1.63,1.4 C1.69715107,1.66943847 1.74394963,1.94354434 1.77,2.22 C1.77,2.61 1.55,2.39 1.56,2.22 C1.61244203,1.97612066 1.61244203,1.72387934 1.56,1.48 C1.56,1.38 1.48,1.36 1.38,1.37 C1.28,1.38 1.12,1.57 1.06,1.91 C1.03314738,2.02201666 1.01311062,2.13555828 1,2.25 C1,2.43 0.86,2.55 0.78,2.25 C0.7,1.95 0.67,1.43 0.55,1.56" id="Shape"></path>
                <path d="M1.78,3.43 L0.55,4 C0.713988337,3.57376044 1.09737903,3.2708818 1.55,3.21 C1.8,3.21 1.74,3.31 1.81,3.41" id="Shape"></path>
                <path d="M3.34,0.84 L3.26,0.84 C3.19967435,0.85622873 3.14854517,0.896297933 3.11836712,0.950995653 C3.08818907,1.00569337 3.08155858,1.07031358 3.1,1.13 C3.22,1.85 3.29,2.4 3.41,3.13 C3.42230419,3.17438745 3.41353265,3.22196698 3.38620916,3.25904886 C3.35888568,3.29613073 3.31604006,3.31860305 3.27,3.32 C3.11,3.21 3.08,3 2.81,3.01 C2.59116081,3.0393888 2.41474393,3.20377726 2.37,3.42 C2.33266049,3.57444182 2.33266049,3.73555818 2.37,3.89 C2.47630872,4.01976749 2.65513113,4.06447309 2.81,4 C2.93,4 3.02,3.84 3.06,3.86 C3.06,3.86 3.06,4.28 2.51,4.57 C2.18,4.72 1.91,4.76 1.77,4.48 C1.63,4.2 1.77,3.66 1.56,3.81 C0.91,5.47 3.07,5.71 3.31,3.88 C3.31,3.83 3.37,3.78 3.41,3.79 C3.45,3.8 3.41,3.79 3.41,3.86 C3.41,5.51 1.74,5.62 1.47,5.11 C1.40262647,4.93103992 1.36872969,4.74121791 1.37,4.55 C1.36714576,4.48392428 1.34253664,4.42064367 1.3,4.37 C1.23,4.37 1.15,4.45 1.13,4.67 C1.11663317,4.80299832 1.11663317,4.93700168 1.13,5.07 C1.22,6.38 3.3,5.82 3.64,4.74 C3.70202284,4.4104865 3.71884432,4.07405685 3.69,3.74 C3.9,3.96 4.19,3.74 4.25,3.74 C4.28888435,3.70188571 4.35111565,3.70188571 4.39,3.74 C4.47173701,3.79990373 4.57646521,3.81893121 4.67405008,3.79160744 C4.77163496,3.76428368 4.85125488,3.69363873 4.89,3.6 C4.94523634,3.35982926 4.9820104,3.11578326 5,2.87 C4.92132034,2.88476421 4.8464682,2.91538554 4.78,2.96 L4.78,3.14 C4.76672738,3.15685849 4.74645626,3.16669873 4.725,3.16669873 C4.70354374,3.16669873 4.68327262,3.15685849 4.67,3.14 C4.67,2.92 4.42,2.88 4.29,3.23 C4.2,3.3 4.05,3.31 4.04,3.23 C4.03,3.15 3.96,2.96 3.77,3.07 C3.71,2.6 3.65,2.16 3.59,1.69 C3.67,1.69 3.74,1.75 3.82,1.69 C3.7504403,1.4099096 3.63559477,1.14306265 3.48,0.9 M2.9,3.47 C2.94803441,3.46674688 2.99260296,3.49510868 3.01,3.54 C3.03322226,3.58022214 3.03322226,3.62977786 3.01,3.67 C3.01,3.67 2.94,3.67 2.9,3.67 C2.85959286,3.67526432 2.82003283,3.65548431 2.8,3.62 C2.8,3.62 2.8,3.53 2.8,3.5 L2.87,3.5" id="Shape"></path>
                <path d="M4.79,0.8 C4.74042543,0.790775837 4.68957457,0.790775837 4.64,0.8 C4.54690466,0.905765613 4.54690466,1.06423439 4.64,1.17 C4.72,1.17 4.8,1.29 4.75,1.33 C4.52,1.58 3.92,1.99 3.89,2.07 C4.03923172,2.09147017 4.19076828,2.09147017 4.34,2.07 C4.57765874,1.85397103 4.7983123,1.61994453 5,1.37 L4.91,1.3 C4.96212856,1.25261888 4.99184828,1.185444 4.99184828,1.115 C4.99184828,1.044556 4.96212856,0.977381118 4.91,0.93 C4.85091478,0.915182892 4.78908522,0.915182892 4.73,0.93 M4.73,1.14 C4.73,1.14 4.81,1.14 4.83,1.22 C4.85,1.3 4.83,1.32 4.83,1.33 C4.78030158,1.32869426 4.73655471,1.29687835 4.72,1.25 C4.72,1.2 4.72,1.14 4.72,1.14" id="Shape"></path>
                <path d="M0.59,4.61 C0.383032069,4.9313272 0.338615306,5.33107807 0.47,5.69 C0.532392673,5.76715509 0.633259945,5.80207068 0.73,5.78 C0.866630296,5.66936871 0.931848738,5.49289528 0.9,5.32 C0.9,5.24 0.81,5.23 0.77,5.32 C0.73,5.41 0.63,5.38 0.62,5.27 C0.59893895,5.07724025 0.59893895,4.88275975 0.62,4.69 C0.62,4.53 0.62,4.58 0.57,4.69" id="Shape"></path>
                <path d="M10.42,4 C10.2,3.52 9.89,3 9.79,2.87 C9.69,2.74 9,1.63 8.85,1.51 C8.61,1.22 9.24,1.63 8.77,1.06 L8.43,0.77 C8.36,0.72 8.17,0.62 8.14,0.77 C8.11839816,0.882303981 8.11839816,0.997696019 8.14,1.11 C8.1887095,1.21549422 8.25273372,1.3132154 8.33,1.4 C9.11589039,2.43486007 9.80543218,3.53946584 10.39,4.7 C10.49,4.7 10.47,4.09 10.39,4" id="Shape"></path>
                <path d="M9.45,5.62 C9.45,5.62 9.56,5.88 9.75,5.88 C10.1512238,5.81708939 10.4895148,5.5472168 10.64,5.17 C10.748575,5.00473662 10.8170598,4.8164033 10.84,4.62 C10.8741784,3.69126272 10.8003502,2.7616989 10.62,1.85 C10.6061626,1.78742249 10.6061626,1.72257751 10.62,1.66 C10.62,1.66 10.71,1.66 10.75,1.6 C10.79,1.54 10.6,1.06 10.48,0.88 C10.36,0.7 10.42,0.74 10.35,0.88 C10.2636335,1.03926262 10.2221564,1.21899659 10.23,1.4 C10.39,2.49 10.44,3.4 10.54,4.53 C10.5558364,4.64300482 10.527152,4.75774228 10.46,4.85 C10.1840271,5.17105628 9.84322548,5.43006549 9.46,5.61" id="Shape"></path>
                <path d="M13.9,5.61 C13.66,5.75 13.66,5.91 13.9,5.91 C14.2906217,5.92872025 14.6651435,5.75269498 14.9,5.44 C14.9734278,5.24530265 15.0074199,5.03795107 15,4.83 C15.0454677,3.82645401 14.9851351,2.82090982 14.82,1.83 C14.8101481,1.73692665 14.8101481,1.64307335 14.82,1.55 C14.82,1.5 14.95,1.55 14.98,1.5 C15.01,1.45 14.7,1.01 14.59,0.83 C14.48,0.65 14.54,0.69 14.47,0.83 C14.3910522,0.991204115 14.3664912,1.1736575 14.4,1.35 C14.5765748,2.46917103 14.6867674,3.59781035 14.73,4.73 C14.7203291,4.82622721 14.6967502,4.92054263 14.66,5.01 C14.5695407,5.14947361 14.4620449,5.27712481 14.34,5.39 C14.23,5.47 14,5.55 13.93,5.6" id="Shape"></path>
                <path d="M14.08,4.55 C14.08,4.27 14.08,4.03 14.08,3.83 C14.08,3.63 13.98,2.83 13.95,2.69 C13.92,2.55 13.88,2.27 13.84,2.07 C13.8277407,1.95365538 13.8277407,1.83634462 13.84,1.72 C13.84,1.67 13.93,1.72 13.97,1.66 C13.9302927,1.35111503 13.824565,1.05439544 13.66,0.79 C13.66,0.71 13.54,0.74 13.44,0.87 C13.34,1 13.38,1.15 13.44,1.34 C13.6663665,2.54623977 13.7635817,3.77316324 13.73,5 C13.73,5.1 14.08,4.7 14.07,4.51" id="Shape"></path>
                <path d="M12.33,3 C12.18,3 11.87,2.71 11.78,2.54 C11.7461013,2.46011403 11.7461013,2.36988597 11.78,2.29 C11.84,2.29 11.92,2.21 11.98,2.29 C12.04,2.37 12.05,2.38 12.03,2.39 C12.01,2.4 12.15,2.39 12.16,2.39 C12.17,2.39 12.16,2.3 12.16,2.24 C12.1627035,2.16673187 12.212076,2.1034514 12.2824867,2.0830096 C12.3528973,2.0625678 12.4284811,2.08957062 12.47,2.15 C12.5212765,2.24176009 12.5487783,2.34489195 12.55,2.45 C12.55,2.5 12.47,2.45 12.42,2.45 C12.37,2.45 12.36,2.51 12.36,2.56 C12.36,2.61 12.36,2.89 12.36,3.04" id="Shape"></path>
                <path d="M9.58,4.86 C9.60422885,4.4036547 9.60422885,3.9463453 9.58,3.49 C9.58,2.97 9.48,1.95 9.44,1.79 C9.44,1.47 9.57,1.79 9.54,1.64 C9.45984847,1.3358725 9.30910145,1.05493486 9.1,0.82 C9.03,0.73 9.04,0.71 8.93,0.82 C8.85989006,1.02757309 8.85989006,1.25242691 8.93,1.46 C9.07251161,2.07159352 9.16614032,2.69355565 9.21,3.32 C9.2501245,3.98606293 9.2501245,4.65393707 9.21,5.32 C9.32,5.32 9.5,5.14 9.56,4.87" id="Shape"></path>
                <path d="M14.59,4.26 C14.33,3.82 13.93,3.26 13.83,3.13 C13.73,3 12.83,1.64 12.72,1.52 C12.39,1.18 12.87,1.47 12.66,1.2 C12.5431863,1.06347246 12.4124824,0.939471345 12.27,0.83 C12.19,0.83 12.15,0.69 12.12,0.83 C12.1105076,0.973176171 12.1105076,1.11682383 12.12,1.26 C12.1369932,1.36046211 12.1820622,1.45406677 12.25,1.53 C13.128103,2.60189505 13.9142233,3.7459509 14.6,4.95 C14.7,4.95 14.67,4.34 14.6,4.26" id="Shape"></path>
                <path d="M11.41,9.46 C11.3174037,9.47524516 11.2446713,9.54754795 11.2288779,9.64005232 C11.2130845,9.73255669 11.2577073,9.82489573 11.34,9.87 C8.89,9.87 5.13,9.87 4.34,9.87 C3.89,9.87 2.46,9.82 2.43,9.82 C2.74463843,10.2259436 3.25054681,10.4351539 3.76,10.37 L11.3,10.37 C11.2286357,10.5463407 11.2635212,10.7479014 11.39,10.89 C11.49,10.89 11.53,10.89 11.56,10.8 C11.9264018,10.8197082 12.2935982,10.8197082 12.66,10.8 C12.71,10.88 12.77,10.95 12.87,10.94 C12.97,10.93 13.19,10.88 13.2,10.52 C13.2,10.52 13.2,9.9 12.78,9.94 L12.41,9.94 C12.1,9.94 11.87,9.94 11.52,9.89 C11.52,9.89 11.61,9.68 11.52,9.62 C11.4941183,9.61084945 11.4658817,9.61084945 11.44,9.62 C11.436985,9.58339531 11.436985,9.54660469 11.44,9.51 M11.61,10.39 L12.66,10.39 C12.7082556,10.4402975 12.7082556,10.5197025 12.66,10.57 L12.3,10.57 C12.3,10.49 12.07,10.5 12.03,10.57 C11.8769773,10.583804 11.7230227,10.583804 11.57,10.57 C11.57,10.52 11.57,10.41 11.57,10.39" id="Shape"></path>
                <path d="M5.21,1.18 C4.97,1.86 5.35,2.61 5.61,2.54 C5.87,2.47 5.92,2.25 5.99,1.86 C6.04,1.75 6.08,1.74 6.11,1.79 C6.11,2.31 6.11,2.43 6.28,2.59 C6.44270873,2.73401863 6.68729127,2.73401863 6.85,2.59 L7.08,2.36 C7.13364035,2.31044643 7.21635965,2.31044643 7.27,2.36 C7.34,2.42 7.33,2.54 7.48,2.61 C7.64006698,2.66359157 7.81662871,2.62520859 7.94,2.51 C8.03,2.37 8.04,2.31 8.08,2.26 C8.12,2.21 8.24,2.26 8.24,2.26 C8.24,2.26 8.17,2.35 8.24,2.43 C8.31,2.51 8.33,2.43 8.37,2.43 C8.41,2.43 8.64,2.03 8.64,2.03 C8.64,2.03 8.58,1.92 8.53,1.94 L8.4,2 C8.33,2 8.18,2.06 8.11,1.95 C8.06581073,1.80531714 8.02909552,1.6584563 8,1.51 C8,1.51 7.9,1.3 8,1.29 C8.1,1.28 8.14,1.29 8.16,1.29 C8.18,1.29 8.06,0.99 7.96,0.88 C7.91823673,0.832644904 7.85814013,0.805516322 7.795,0.805516322 C7.73185987,0.805516322 7.67176327,0.832644904 7.63,0.88 C7.55,0.95 7.56,1.04 7.54,1.12 C7.5133041,1.23645984 7.5429366,1.35869392 7.62,1.45 C7.75802935,1.64469823 7.82187412,1.88234263 7.8,2.12 C7.74796732,2.20203184 7.65713446,2.25123297 7.56,2.25 C7.5,2.25 7.39,2.25 7.34,1.8 C7.29,1.35 7.34,1.05 7.22,0.85 C7.1,0.65 7.14,0.6 7.02,0.85 C6.91894064,0.981018844 6.89248796,1.15485073 6.95,1.31 C7.03694121,1.53950581 7.06110477,1.78804528 7.02,2.03 C6.97976075,2.1009425 6.93288422,2.16790897 6.88,2.23 C6.79551068,2.29861905 6.67448932,2.29861905 6.59,2.23 C6.49119677,2.18293027 6.42330136,2.08863108 6.41,1.98 C6.44031481,1.71419488 6.44031481,1.44580512 6.41,1.18 C6.394989,1.13127256 6.35467385,1.0945588 6.30475839,1.08415975 C6.25484292,1.07376069 6.20322071,1.09132083 6.17,1.13 C5.94112313,1.38231943 5.78854652,1.69440795 5.73,2.03 C5.66,2.25 5.59,2.19 5.54,2.1 C5.49,2.01 5.41,1.1 5.26,1.23" id="Shape"></path>
                <path d="M6,2.59 L5.92,2.66 C5.85,2.74 5.84,2.8 5.84,2.95 C5.84,3.1 5.97,3.33 6.08,3.58 C6.17090178,3.85353735 6.20160281,4.14349158 6.17,4.43 C5.98344801,4.80597985 5.6870101,5.11636778 5.32,5.32 C5.20549061,5.37133707 5.07450939,5.37133707 4.96,5.32 C4.89099397,5.27809746 4.85211842,5.20034635 4.86,5.12 C5.23355521,4.92172193 5.53464228,4.61013182 5.72,4.23 C5.79659421,4.02354167 5.79659421,3.79645833 5.72,3.59 C5.69591285,3.48199077 5.64423109,3.38207271 5.57,3.3 C5.57,3.3 5.74,3.37 5.76,3.3 C5.72118535,3.12926667 5.63445641,2.97315457 5.51,2.85 C5.47050132,2.80968683 5.41643844,2.78696938 5.36,2.78696938 C5.30356156,2.78696938 5.24949868,2.80968683 5.21,2.85 C5.11,2.91 5.09,3.12 5.13,3.3 C5.17,3.48 5.34,3.46 5.44,3.73 C5.46750052,3.82471077 5.46750052,3.92528923 5.44,4.02 C5.25476403,4.24800557 5.03946983,4.44984389 4.8,4.62 C4.80221613,4.59004093 4.80221613,4.55995907 4.8,4.53 C4.8,4.45 4.8,4.26 4.8,4.23 C4.62,4.35 4.55,4.72 4.52,4.83 C4.0558027,5.08397038 3.61711524,5.38200996 3.21,5.72 C3.05,5.97 4.31,5.43 4.46,5.37 C4.46,5.37 4.46,5.5 4.57,5.6 C4.73536383,5.79819921 4.99987895,5.88377763 5.25,5.82 C5.65859971,5.65410366 6.0072786,5.36818696 6.25,5 C6.25,4.95 6.35,4.9 6.4,4.95 C6.69519257,5.42898102 7.22810242,5.70885454 7.79,5.68 C7.95,5.49 7.87,5.39 7.79,5.36 C7.71,5.33 7.45,5.22 7.4,5.09 C7.35,4.96 7.4,4.88 7.6,4.8 C8.03706214,4.75850511 8.46907858,4.67478099 8.89,4.55 C8.90559926,4.39520141 8.95327901,4.24535077 9.03,4.11 C9.05477868,4.05579487 9.10244123,4.01546502 9.16,4 L9.09,4 L7.69,4 C8.03,4 8.62,3.86 8.69,3.29 C8.70419615,3.15162263 8.65890918,3.01373291 8.56543293,2.91071827 C8.47195668,2.80770362 8.33910176,2.74927371 8.2,2.75 C8.06681392,2.76731694 7.94619452,2.83748767 7.86530959,2.94470723 C7.78442465,3.0519268 7.75007594,3.18717892 7.77,3.32 C7.77,3.39 7.77,3.55 7.72,3.56 C7.21,3.61 6.64,3.93 6.62,4.16 C6.56803903,4.13418333 6.53947676,4.07705878 6.55,4.02 C6.52699444,3.59843647 6.40723427,3.18783015 6.2,2.82 C6.13,2.75 6.1,2.72 6.08,2.71 M8.08,3.22 C8.11565342,3.20780944 8.15434658,3.20780944 8.19,3.22 C8.24070545,3.23919817 8.27576729,3.28594728 8.28,3.34 C8.28,3.34 8.19,3.34 8.13,3.34 C8.08334514,3.3364845 8.04100261,3.31140064 8.01550418,3.27217228 C7.99000575,3.23294392 7.98427203,3.18406433 8,3.14 M6.7,4.32 C6.89141227,4.35716269 7.08524237,4.38055598 7.28,4.39 C7.44,4.39 7.52,4.53 7.37,4.58 C7.22,4.63 7.08,4.67 7.08,4.89 C7.08,5.11 7.08,5.05 7.08,5.08 C7.08,5.08 7,5 7,5 C6.79145273,4.87771998 6.648425,4.66867947 6.61,4.43 C6.61,4.34715729 6.67715729,4.28 6.76,4.28" id="Shape"></path>
                <path d="M2.26,1.18 C2.42,1.25 2.72,1.18 2.71,0.97 C2.71,0.97 2.71,0.87 2.71,0.85 C2.71,0.83 2.59,0.79 2.57,0.85 C2.55,0.91 2.57,0.92 2.57,0.93 C2.57,0.94 2.5,0.93 2.51,0.86 C2.51555993,0.84038641 2.51555993,0.81961359 2.51,0.8 C2.51,0.8 2.51,0.8 2.51,0.8 C2.50621645,0.819821059 2.50621645,0.840178941 2.51,0.86 C2.51,0.86 2.51,0.86 2.51,0.86 C2.51,0.86 2.51,0.86 2.51,0.86 C2.51200503,0.840050252 2.51200503,0.819949748 2.51,0.8 C2.42,0.8 2.42,0.9 2.42,0.94 C2.42,0.98 2.42,1.13 2.53,1.18" id="Shape"></path>
                <path d="M7,3.18 C7.16,3.25 7.54,3.18 7.45,2.96 C7.45205263,2.92002633 7.45205263,2.87997367 7.45,2.84 C7.45,2.76 7.33,2.78 7.31,2.84 C7.29,2.9 7.31,2.91 7.31,2.93 C7.31,2.95 7.24,2.93 7.25,2.86 C7.25614144,2.84047147 7.25614144,2.81952853 7.25,2.8 C7.25,2.8 7.25,2.8 7.25,2.8 C7.24725993,2.81990615 7.24725993,2.84009385 7.25,2.86 C7.25,2.86 7.25,2.86 7.25,2.86 C7.25,2.86 7.25,2.86 7.25,2.86 C7.25404082,2.8402041 7.25404082,2.8197959 7.25,2.8 C7.16,2.8 7.16,2.9 7.16,2.94 C7.16,2.98 7.16,3.12 7.27,3.18" id="Shape"></path>
                <path d="M9.74,2.36 C9.9,2.43 10.2,2.36 10.19,2.14 C10.19,2.14 10.19,2.04 10.19,2.02 C10.19,2 10.05,2 10,2 C9.95,2 10,2.07 10,2.08 C10,2.09 9.94,2.08 9.94,2.01 C9.94433608,1.99023502 9.94433608,1.96976498 9.94,1.95 C9.94,1.95 9.94,1.95 9.94,1.95 C9.93712813,1.9698969 9.93712813,1.9901031 9.94,2.01 C9.94292815,1.98675853 9.94292815,1.96324147 9.94,1.94 C9.85,1.94 9.85,2.04 9.85,2.08 C9.85,2.12 9.85,2.27 9.96,2.32" id="Shape"></path>
                <path d="M11.16,4.43 C10.9527068,4.72302489 10.9183586,5.104671 11.07,5.43 C11.1359791,5.59785442 11.2602357,5.73631179 11.42,5.82 C11.4655599,5.8716601 11.5311199,5.90125492 11.6,5.90125492 C11.6688801,5.90125492 11.7344401,5.8716601 11.78,5.82 C11.94,5.65 11.95,5.21 12.02,5.13 C11.9841015,5.05820298 12.013203,4.97089851 12.085,4.935 C12.156797,4.89910149 12.2441015,4.92820298 12.28,5 C12.3436571,5.0841388 12.4257614,5.15255902 12.52,5.2 C12.6696896,5.32803509 12.8903104,5.32803509 13.04,5.2 C13.1744094,5.1278931 13.2750045,5.00574191 13.32,4.86 C13.3745127,4.1944477 13.3745127,3.5255523 13.32,2.86 L13.16,2.04 C13.16,2.04 13.16,1.65 13.16,1.56 C13.16,1.47 13.16,1.51 13.16,1.56 C13.16,1.61 13.16,1.56 13.23,1.61 C13.3,1.66 13.31,1.55 13.28,1.48 L12.9,0.78 C12.9,0.78 12.83,0.71 12.78,0.78 C12.7215064,0.834019677 12.6887773,0.910387607 12.69,0.99 C12.69,1.16 12.69,1.33 12.74,1.5 L12.89,2.36 C12.89,2.97 12.95,3.54 13,4.15 C13,4.41 12.91,4.76 12.83,4.79 C12.75,4.82 12.72,4.86 12.64,4.79 C12.5343801,4.67646485 12.4405654,4.55249531 12.36,4.42 C12.3278333,4.37797026 12.2779263,4.35331989 12.225,4.35331989 C12.1720737,4.35331989 12.1221667,4.37797026 12.09,4.42 C11.8892744,4.70003969 11.7277789,5.00620825 11.61,5.33 C11.61,5.39 11.46,5.45 11.33,5.33 C11.1675813,5.06364872 11.1071863,4.74746309 11.16,4.44" id="Shape"></path>
                <path d="M9.81,0.85 C9.96476862,0.962298435 10.0454174,1.15047897 10.02,1.34 C10.02,1.52 9.92,1.71 9.86,1.68 C9.8,1.65 9.86,1.5 9.86,1.34 C9.86,1.18 9.63,1.05 9.65,0.99 C9.67,0.93 9.73,0.82 9.82,0.84" id="Shape"></path>
                <path d="M11.63,4.61 C11.6529732,4.35384739 11.6529732,4.09615261 11.63,3.84 C11.63,3.64 11.4,1.96 11.35,1.84 C11.3,1.72 11.57,1.84 11.54,1.63 C11.51,1.42 11.21,1.1 11.14,0.91 C11.07,0.72 11.14,0.76 11.01,0.91 C10.9254555,1.14346195 10.8946912,1.39299448 10.92,1.64 C11.1974228,2.79665369 11.3450014,3.9806362 11.36,5.17 C11.47,5.17 11.6,4.92 11.66,4.66" id="Shape"></path>
                <path d="M14.09,1.26 C14.22,1.33 14.3,1.69 14.29,1.8 C14.28,1.91 14.2,2.2 14.14,2.17 C14.08,2.14 14.14,1.88 14.14,1.81 C14.14,1.74 13.93,1.49 13.95,1.43 C13.9374881,1.38485846 13.9502297,1.33647634 13.983353,1.30335304 C14.0164763,1.27022974 14.0648585,1.2574881 14.11,1.27" id="Shape"></path>
                <path d="M4.32,3.94 C4.44,3.94 4.52,4.26 4.5,4.33 C4.48,4.4 4.41,4.62 4.36,4.6 C4.31,4.58 4.36,4.39 4.36,4.33 C4.36,4.27 4.18,4.11 4.18,4.05 C4.18,3.99 4.25,3.92 4.33,3.93" id="Shape"></path>
                <path d="M1,0.76 C1.19,0.81 1.2,1.09 1.18,1.17 C1.16,1.25 1.09,1.47 1.04,1.45 C0.99,1.43 1.04,1.24 1.04,1.17 C1.04,1.1 0.86,0.93 0.88,0.88 C0.9,0.83 0.95,0.74 1.03,0.76" id="Shape"></path>
                <path d="M4.62,2 C4.47238809,2.09424257 4.42410364,2.28738036 4.51,2.44 C4.56601104,2.50686492 4.65623563,2.53432458 4.74,2.51 C4.88,2.51 4.96,2.25 4.96,2.25 C4.96,2.25 4.96,2.17 4.8,2.32 C4.64,2.47 4.72,2.32 4.7,2.27 C4.67635327,2.19857292 4.67635327,2.12142708 4.7,2.05 C4.7,1.98 4.7,1.95 4.59,2" id="Shape"></path>
                <path d="M5.69,0.65 C5.56565981,0.734825648 5.48514036,0.870244726 5.47,1.02 C5.47,1.11 5.47,1.11 5.47,1.18 C5.47,1.25 5.56,1.24 5.65,1.18 C5.69518807,1.15403613 5.72772734,1.11065043 5.74,1.06 C5.74,0.95 5.63,1.11 5.61,0.99 C5.59,0.87 5.67,0.83 5.75,0.72 C5.83,0.61 5.75,0.6 5.65,0.65" id="Shape"></path>
                <path d="M6.55,0.8 C6.51642704,0.94110967 6.49633677,1.08508993 6.49,1.23 C6.49,1.34 6.6,1.38 6.66,1.23 C6.72216538,1.08438369 6.75610036,0.928282776 6.76,0.77 C6.76,0.61 6.62,0.62 6.55,0.77" id="Shape"></path>
                <path d="M12,3.57 L12.74,3 C12.82,3 12.8,3.27 12.74,3.27 C12.5086719,3.49549069 12.2417618,3.68131419 11.95,3.82 C11.95,3.82 11.88,3.61 11.95,3.55" id="Shape"></path>
                <path d="M12.65,3.56 C12.78,3.63 12.83,4.01 12.82,4.11 C12.81,4.21 12.69,4.48 12.64,4.45 C12.59,4.42 12.64,4.2 12.64,4.11 C12.64,4.02 12.5,3.79 12.52,3.72 C12.4992754,3.67454172 12.5064349,3.62122862 12.5384183,3.58284859 C12.5704017,3.54446855 12.6215497,3.52781257 12.67,3.54" id="Shape"></path>
                <path d="M8.22,5.22 C8.27937481,5.13721313 8.35006275,5.06315909 8.43,5 C8.47268165,4.97272602 8.52731835,4.97272602 8.57,5 C8.57,5.07 8.57,5.14 8.57,5.24 C8.57,5.34 8.57,5.33 8.67,5.31 C8.76995817,5.23387492 8.89491283,5.19817359 9.02,5.21 C9.11,5.21 9.11,5.37 9.02,5.37 C8.85821932,5.4113826 8.70081998,5.46831428 8.55,5.54 C8.50935601,5.57352958 8.45064399,5.57352958 8.41,5.54 C8.38499141,5.49668385 8.38499141,5.44331615 8.41,5.4 C8.41,5.32 8.41,5.28 8.32,5.28 C8.23,5.28 8.23,5.28 8.2,5.28 C8.17,5.28 8.2,5.21 8.2,5.19" id="Shape"></path>
                <path d="M13.44,5.43 C13.4781143,5.46888435 13.4781143,5.53111565 13.44,5.57 L13.3,5.7 C13.3,5.7 13.3,5.81 13.3,5.83 C13.3,5.85 13.76,5.66 13.76,5.65 C13.7850146,5.61759968 13.7850146,5.57240032 13.76,5.54 C13.76,5.54 13.66,5.54 13.62,5.54 C13.58,5.54 13.53,5.54 13.56,5.47 C13.5839816,5.43564967 13.6041031,5.39876017 13.62,5.36 C13.62,5.31 13.62,5.28 13.54,5.25 C13.4736977,5.24014249 13.4063023,5.24014249 13.34,5.25 C13.34,5.25 13.28,5.25 13.27,5.34 C13.26,5.43 13.33,5.42 13.38,5.46" id="Shape"></path>
            </g>
        </g>
    </g>
</svg>