<?xml version="1.0" encoding="UTF-8"?>
<svg width="100px" height="67px" viewBox="0 0 100 67" version="1.1" xmlns="http://www.w3.org/2000/svg" xmlns:xlink="http://www.w3.org/1999/xlink">
    <!-- Generator: Sketch 49 (51002) - http://www.bohemiancoding.com/sketch -->
    <title>SGD</title>
    <desc>Created with Sketch.</desc>
    <defs></defs>
    <g id="Page-1" stroke="none" stroke-width="1" fill="none" fill-rule="evenodd">
        <g id="SGD" fill-rule="nonzero">
            <rect id="Rectangle-path" fill="#ED2939" x="0" y="0" width="100" height="33.3333333"></rect>
            <rect id="Rectangle-path" fill="#FFFFFF" x="0" y="33.3333333" width="100" height="33.3333333"></rect>
            <path d="M34.2981019,16.6666667 C34.2981019,23.5894027 28.6861155,29.2013891 21.7633794,29.2013891 C14.8406433,29.2013891 9.22865694,23.5894027 9.22865694,16.6666667 C9.22865694,12.1884417 11.6177615,8.0503911 15.4960182,5.81127859 C19.3742748,3.57216609 24.152484,3.57216609 28.0307406,5.81127859 C31.9089972,8.0503911 34.2981019,12.1884417 34.2981019,16.6666667 Z" id="Shape" fill="#FFFFFF"></path>
            <path d="M38.2369213,16.6666667 C38.2369213,23.2088759 32.9334128,28.5123844 26.3912036,28.5123844 C19.8489943,28.5123844 14.5454859,23.2088759 14.5454859,16.6666667 C14.5454859,10.1244574 19.8489943,4.82094896 26.3912036,4.82094896 C32.9334128,4.82094896 38.2369213,10.1244574 38.2369213,16.6666667 Z" id="Shape" fill="#ED2939"></path>
            <polygon id="star" fill="#FFFFFF" points="23.3147014 16.9690831 21.6119134 15.6628299 19.9095553 16.969703 20.5649507 14.8633535 18.856747 13.5649375 20.9645926 13.5694005 21.6112245 11.4600618 22.2585495 13.5691662 24.3663935 13.5639458 22.6586157 14.8629815"></polygon>
            <g id="star-link" transform="translate(32.203438, 11.458333)" fill="#FFFFFF">
                <polygon id="star" points="4.4721088 5.51074977 2.76932083 4.20449653 1.06696273 5.51136968 1.7223581 3.40502014 0.0141543981 2.10660417 2.122 2.11106713 2.76863194 0.00172847222 3.41595694 2.11083287 5.52380093 2.1056125 3.81602315 3.40464815"></polygon>
            </g>
            <g id="star-link" transform="translate(25.529827, 6.499741)" fill="#FFFFFF">
                <polygon id="star" points="4.4721088 5.51074977 2.76932083 4.20449653 1.06696273 5.51136968 1.7223581 3.40502014 0.0141543981 2.10660417 2.122 2.11106713 2.76863194 0.00172847222 3.41595694 2.11083287 5.52380093 2.1056125 3.81602315 3.40464815"></polygon>
            </g>
            <g id="star-link" transform="translate(21.342582, 19.392334)" fill="#FFFFFF">
                <polygon id="star" points="4.4721088 5.51074977 2.76932083 4.20449653 1.06696273 5.51136968 1.7223581 3.40502014 0.0141543981 2.10660417 2.122 2.11106713 2.76863194 0.00172847222 3.41595694 2.11083287 5.52380093 2.1056125 3.81602315 3.40464815"></polygon>
            </g>
            <g id="star-link" transform="translate(29.703438, 19.392334)" fill="#FFFFFF">
                <polygon id="star" points="4.4721088 5.51074977 2.76932083 4.20449653 1.06696273 5.51136968 1.7223581 3.40502014 0.0141543981 2.10660417 2.122 2.11106713 2.76863194 0.00172847222 3.41595694 2.11083287 5.52380093 2.1056125 3.81602315 3.40464815"></polygon>
            </g>
        </g>
    </g>
</svg>