<svg xmlns="http://www.w3.org/2000/svg" xmlns:xlink="http://www.w3.org/1999/xlink" viewBox="0 0 33.56 19.58"><defs><style>.cls-1{fill:none;}.cls-2{clip-path:url(#clip-path);}.cls-3{fill:#da1841;}.cls-4{fill:#fff;}</style><clipPath id="clip-path"><rect class="cls-1" width="33.56" height="19.58"/></clipPath></defs><title>SGP</title><g id="Layer_2" data-name="Layer 2"><g id="_4" data-name="4"><g id="SINGAPORE"><g class="cls-2"><rect class="cls-3" width="33.56" height="9.79"/><rect class="cls-4" y="9.79" width="33.56" height="9.79"/><g class="cls-2"><path class="cls-4" d="M10.07,4.89A3.68,3.68,0,1,1,6.39,1.21a3.68,3.68,0,0,1,3.68,3.68"/><path class="cls-3" d="M11.23,4.89A3.48,3.48,0,1,1,7.75,1.42a3.48,3.48,0,0,1,3.48,3.48"/><polygon class="cls-4" points="6.85 4.98 6.35 4.6 5.84 4.98 6.04 4.37 5.54 3.98 6.16 3.99 6.35 3.37 6.54 3.99 7.16 3.98 6.65 4.37 6.85 4.98"/><polygon class="cls-4" points="10.77 4.98 10.27 4.6 9.77 4.98 9.96 4.37 9.46 3.98 10.08 3.99 10.27 3.37 10.46 3.99 11.08 3.98 10.58 4.37 10.77 4.98"/><polygon class="cls-4" points="8.81 3.53 8.31 3.15 7.81 3.53 8 2.91 7.5 2.53 8.12 2.53 8.31 1.91 8.5 2.53 9.12 2.53 8.62 2.91 8.81 3.53"/><polygon class="cls-4" points="7.58 7.32 7.08 6.93 6.58 7.32 6.77 6.7 6.27 6.32 6.89 6.32 7.08 5.7 7.27 6.32 7.89 6.32 7.39 6.7 7.58 7.32"/><polygon class="cls-4" points="10.04 7.32 9.53 6.93 9.04 7.32 9.23 6.7 8.73 6.32 9.35 6.32 9.53 5.7 9.73 6.32 10.34 6.32 9.84 6.7 10.04 7.32"/></g></g></g></g></g></svg>