<svg xmlns="http://www.w3.org/2000/svg" xmlns:xlink="http://www.w3.org/1999/xlink" viewBox="0 0 33.56 19.58"><defs><style>.cls-1{fill:none;}.cls-2{clip-path:url(#clip-path);}.cls-3{fill:#325d37;}.cls-4{fill:#2d4db6;}.cls-5{fill:#f3d02f;}.cls-6{fill:#fff;}</style><clipPath id="clip-path"><rect class="cls-1" width="33.56" height="19.58"/></clipPath></defs><title>SLB</title><g id="Layer_2" data-name="Layer 2"><g id="_4" data-name="4"><g id="SOLOMON_ISLANDS" data-name="SOLOMON ISLANDS"><g class="cls-2"><polygon class="cls-3" points="33.56 0 33.56 0 33.56 0 33.56 0"/><polygon class="cls-3" points="1.69 19.58 33.56 19.58 33.56 0.98 1.69 19.58"/><polygon class="cls-4" points="0 0 0 18.59 31.87 0 0 0"/><polygon class="cls-4" points="33.56 0 33.56 0 33.56 0 33.56 0"/><polygon class="cls-5" points="0 19.58 0 19.58 1.69 19.58 33.56 0.98 33.56 0 33.56 0 0 19.58"/><polygon class="cls-5" points="31.87 0 0 18.59 0 19.58 33.56 0 33.56 0 31.87 0"/><polygon class="cls-6" points="5.87 4.36 5.35 5.96 6.15 6.22 5.87 4.36"/><polygon class="cls-6" points="5.87 4.36 6.39 5.96 5.59 6.22 5.87 4.36"/><polygon class="cls-6" points="7.47 5.52 5.79 5.52 5.79 6.36 7.47 5.52"/><polygon class="cls-6" points="7.47 5.52 6.11 6.51 5.62 5.83 7.47 5.52"/><polygon class="cls-6" points="4.28 5.52 5.63 6.51 6.13 5.83 4.28 5.52"/><polygon class="cls-6" points="4.28 5.52 5.96 5.52 5.96 6.36 4.28 5.52"/><polygon class="cls-6" points="6.86 7.4 6.34 5.8 5.54 6.06 6.86 7.4"/><polygon class="cls-6" points="6.86 7.4 5.5 6.41 6 5.73 6.86 7.4"/><polygon class="cls-6" points="4.89 7.4 6.24 6.41 5.75 5.73 4.89 7.4"/><polygon class="cls-6" points="4.89 7.4 5.41 5.8 6.2 6.06 4.89 7.4"/><polygon class="cls-6" points="8.96 7.45 8.44 9.04 9.24 9.3 8.96 7.45"/><polygon class="cls-6" points="8.96 7.45 9.48 9.04 8.68 9.3 8.96 7.45"/><polygon class="cls-6" points="10.55 8.61 8.88 8.61 8.88 9.44 10.55 8.61"/><polygon class="cls-6" points="10.55 8.61 9.2 9.59 8.7 8.91 10.55 8.61"/><polygon class="cls-6" points="7.36 8.61 8.72 9.59 9.21 8.91 7.36 8.61"/><polygon class="cls-6" points="7.36 8.61 9.04 8.61 9.04 9.44 7.36 8.61"/><polygon class="cls-6" points="9.94 10.48 9.43 8.88 8.63 9.14 9.94 10.48"/><polygon class="cls-6" points="9.94 10.48 8.59 9.49 9.08 8.82 9.94 10.48"/><polygon class="cls-6" points="7.97 10.48 9.33 9.49 8.84 8.82 7.97 10.48"/><polygon class="cls-6" points="7.97 10.48 8.49 8.88 9.29 9.14 7.97 10.48"/><polygon class="cls-6" points="2.79 7.45 2.27 9.04 3.07 9.3 2.79 7.45"/><polygon class="cls-6" points="2.79 7.45 3.31 9.04 2.51 9.3 2.79 7.45"/><polygon class="cls-6" points="4.38 8.61 2.71 8.61 2.71 9.44 4.38 8.61"/><polygon class="cls-6" points="4.38 8.61 3.03 9.59 2.53 8.91 4.38 8.61"/><polygon class="cls-6" points="1.19 8.61 2.55 9.59 3.04 8.91 1.19 8.61"/><polygon class="cls-6" points="1.19 8.61 2.87 8.61 2.87 9.44 1.19 8.61"/><polygon class="cls-6" points="3.77 10.48 3.26 8.88 2.46 9.14 3.77 10.48"/><polygon class="cls-6" points="3.77 10.48 2.42 9.49 2.91 8.82 3.77 10.48"/><polygon class="cls-6" points="1.8 10.48 3.16 9.49 2.67 8.82 1.8 10.48"/><polygon class="cls-6" points="1.8 10.48 2.32 8.88 3.12 9.14 1.8 10.48"/><polygon class="cls-6" points="2.79 1.27 2.27 2.87 3.07 3.13 2.79 1.27"/><polygon class="cls-6" points="2.79 1.27 3.31 2.87 2.51 3.13 2.79 1.27"/><polygon class="cls-6" points="4.38 2.43 2.71 2.43 2.71 3.27 4.38 2.43"/><polygon class="cls-6" points="4.38 2.43 3.03 3.42 2.53 2.74 4.38 2.43"/><polygon class="cls-6" points="1.19 2.43 2.55 3.42 3.04 2.74 1.19 2.43"/><polygon class="cls-6" points="1.19 2.43 2.87 2.43 2.87 3.27 1.19 2.43"/><polygon class="cls-6" points="3.77 4.31 3.26 2.71 2.46 2.98 3.77 4.31"/><polygon class="cls-6" points="3.77 4.31 2.42 3.33 2.91 2.65 3.77 4.31"/><polygon class="cls-6" points="1.8 4.31 3.16 3.33 2.67 2.65 1.8 4.31"/><polygon class="cls-6" points="1.8 4.31 2.32 2.71 3.12 2.98 1.8 4.31"/><polygon class="cls-6" points="8.96 1.27 8.44 2.87 9.24 3.13 8.96 1.27"/><polygon class="cls-6" points="8.96 1.27 9.48 2.87 8.68 3.13 8.96 1.27"/><polygon class="cls-6" points="10.55 2.43 8.88 2.43 8.88 3.27 10.55 2.43"/><polygon class="cls-6" points="10.55 2.43 9.2 3.42 8.7 2.74 10.55 2.43"/><polygon class="cls-6" points="7.36 2.43 8.72 3.42 9.21 2.74 7.36 2.43"/><polygon class="cls-6" points="7.36 2.43 9.04 2.43 9.04 3.27 7.36 2.43"/><polygon class="cls-6" points="9.94 4.31 9.43 2.71 8.63 2.98 9.94 4.31"/><polygon class="cls-6" points="9.94 4.31 8.59 3.33 9.08 2.65 9.94 4.31"/><polygon class="cls-6" points="7.97 4.31 9.33 3.33 8.84 2.65 7.97 4.31"/><polygon class="cls-6" points="7.97 4.31 8.49 2.71 9.29 2.98 7.97 4.31"/></g></g></g></g></svg>