<svg xmlns="http://www.w3.org/2000/svg" xmlns:xlink="http://www.w3.org/1999/xlink" viewBox="0 0 33.56 19.58"><defs><style>.cls-1{fill:none;}.cls-2{clip-path:url(#clip-path);}.cls-16,.cls-3{fill:#3e7fcd;}.cls-22,.cls-4{fill:#fff;}.cls-5{fill:#376fb8;}.cls-6,.cls-9{fill:#e1c025;}.cls-7{fill:#c1b020;}.cls-8{fill:#e1e2e3;}.cls-12,.cls-14,.cls-16,.cls-17,.cls-18,.cls-20,.cls-22,.cls-24,.cls-26,.cls-27,.cls-28,.cls-9{fill-rule:evenodd;}.cls-10{clip-path:url(#clip-path-3);}.cls-11{fill:#d90031;}.cls-12{fill:#3b8f4e;}.cls-13,.cls-27{fill:#796d14;}.cls-14{fill:#6fd66c;}.cls-15{fill:#539d51;}.cls-17{fill:#348110;}.cls-18{fill:#a2871a;}.cls-19{fill:#7b6714;}.cls-20{fill:#914822;}.cls-21{fill:#613219;}.cls-23{fill:#a6a6a6;}.cls-25{fill:#a5a5a5;}.cls-26{fill:#ad761b;}.cls-28{fill:#2b6a0c;}.cls-29{fill:#1c4404;}.cls-30{fill:#43a514;}</style><clipPath id="clip-path"><rect class="cls-1" width="33.56" height="19.58"/></clipPath><clipPath id="clip-path-3"><path class="cls-1" d="M15.47,7.53a5.43,5.43,0,0,0,1.31.15,5.48,5.48,0,0,0,1.31-.15,5.94,5.94,0,0,0-2.62,0"/></clipPath></defs><title>SMR</title><g id="Layer_2" data-name="Layer 2"><g id="_4" data-name="4"><g id="SAN_MARINO" data-name="SAN MARINO"><g class="cls-2"><rect class="cls-3" y="9.79" width="33.56" height="9.79"/><rect class="cls-4" width="33.56" height="9.79"/><g class="cls-2"><path class="cls-5" d="M17,5.17h-.35a.18.18,0,0,0,.35,0Z"/><path d="M16.78,5.31a.18.18,0,0,1-.18-.15h0a.19.19,0,0,0,.32.05.15.15,0,0,1-.14.08Z"/><path class="cls-5" d="M16.78,5a.17.17,0,0,0-.17.14H17A.18.18,0,0,0,16.78,5Z"/><path d="M17,5.12h0a.18.18,0,0,0-.34,0c0-.17.32-.17.35,0Z"/><polygon class="cls-6" points="16.8 4.87 16.8 4.96 16.81 4.97 16.75 4.97 16.76 4.96 16.76 4.87 16.66 4.87 16.65 4.88 16.65 4.81 16.66 4.83 16.76 4.83 16.76 4.73 16.75 4.72 16.81 4.72 16.8 4.73 16.8 4.83 16.9 4.83 16.91 4.81 16.91 4.88 16.9 4.87 16.8 4.87"/><polygon points="16.81 4.98 16.75 4.98 16.75 4.87 16.72 4.87 16.76 4.86 16.77 4.96 16.8 4.97 16.8 4.96 16.8 4.87 16.9 4.86 16.9 4.83 16.91 4.88 16.8 4.87 16.82 4.97 16.81 4.98 16.81 4.98"/><rect class="cls-7" x="16.67" y="5.27" width="0.23" height="0.12"/><path d="M16.9,5.4h-.24V5.27h.24V5.4Zm0-.12h-.22v.11h.22V5.27Z"/><path class="cls-6" d="M16.75,5a.54.54,0,0,1,0,.06s0,0,0,.08h.07s0,0,0-.08,0,0,0-.06h-.06Z"/><path class="cls-1" d="M16.75,5a.54.54,0,0,1,0,.06s0,0,0,.08h.07s0,0,0-.08,0,0,0-.06h-.06Z"/><path class="cls-6" d="M17,5.11l-.17,0-.18,0a.08.08,0,0,0,0,0,.08.08,0,0,0,0,0H17V5.11Z"/><path d="M16.78,5.18h.15l0,0v0h-.17Zm-.17,0V5.11a1.13,1.13,0,0,1,.35,0v0h-.17l-.17,0v0Z"/><path class="cls-6" d="M18.81,6.38a.19.19,0,0,1,0,.07l-.21-.24a.19.19,0,0,0,0-.12c0-.18-.31-.36-.66-.39s-1-.37-1.14-.25c.06-.08.21-.07.39,0l.15,0,.37.13.17,0H18l.13,0,.12,0,.11,0,.1.05.08.06.06.06,0,.07v.07a.14.14,0,0,1,0,.06.16.16,0,0,1,0,.06Z"/><path d="M18.78,6.46l-.22-.25a.21.21,0,0,0,0-.12c0-.16-.29-.36-.66-.38a2.56,2.56,0,0,1-.54-.14c-.26-.09-.51-.17-.59-.11s.19-.08.38-.05l.25.08.26.09.17,0,.08,0H18l.13,0,.12,0,.11,0,.1.06.08.06.06.07,0,.07,0,.07a.13.13,0,0,1,0,.06.15.15,0,0,1,0,.05l.17.2a.19.19,0,0,1,0,.08Zm-1.9-1a2,2,0,0,1,.5.13,2.4,2.4,0,0,0,.54.15c.33,0,.64.21.67.4a.2.2,0,0,1,0,.12l.21.23a.18.18,0,0,0,0-.07l-.17-.19V6.12a.35.35,0,0,0,0-.06l0-.06,0-.07-.06-.06-.08-.06-.09-.05-.11,0-.12,0-.12,0h-.07l-.08,0-.17,0-.26-.09-.25-.09a.52.52,0,0,0-.37,0l.08,0Z"/><path class="cls-6" d="M18.81,6.38l-.17-.2a.16.16,0,0,0,0-.06.14.14,0,0,0,0-.06V6l0-.07-.06-.06-.08-.06-.1-.05-.11,0-.12,0-.13,0h-.15l-.17,0-.37-.13-.15,0c.28,0,.64.16.86.19a.84.84,0,0,1,.79.6.49.49,0,0,1,0,.18Z"/><path d="M18.82,6.38l-.18-.2V6.12a.35.35,0,0,0,0-.06l0-.06,0-.07-.06-.06-.08-.06-.09-.05-.11,0-.12,0-.12,0h-.07l-.08,0-.17,0-.26-.09-.25-.09a2.42,2.42,0,0,1,.42.08,3.91,3.91,0,0,0,.45.1c.35,0,.76.27.79.61a.48.48,0,0,1,0,.18Zm-1.65-1,.25.07.26.09.17,0,.08,0H18l.13,0,.12,0,.11,0,.1.06.08.06.06.07,0,.07,0,.07a.13.13,0,0,1,0,.06.15.15,0,0,1,0,.05l.17.19a.56.56,0,0,0,0-.17c0-.32-.43-.56-.78-.6a3.21,3.21,0,0,1-.45-.09l-.41-.09Z"/><path class="cls-6" d="M14.75,6.38a.23.23,0,0,0,0,.07L15,6.21a.22.22,0,0,1,0-.12c0-.18.31-.36.66-.39s1-.37,1.14-.25c-.06-.08-.21-.07-.39,0l-.15,0-.37.13-.17,0h-.15l-.13,0-.12,0-.11,0-.1.05L15,5.86,15,5.93l0,.07v.07a.22.22,0,0,0,0,.06.25.25,0,0,0,0,.06Z"/><path d="M14.78,6.46h0a.26.26,0,0,1,0-.08l.18-.2a.12.12,0,0,1,0-.05.2.2,0,0,1,0-.06l0-.07a.19.19,0,0,1,0-.07L15,5.86l.08-.06.1-.06.11,0,.12,0,.13,0h.07l.08,0,.17,0,.26-.09.25-.08c.19,0,.34,0,.39,0a1.33,1.33,0,0,0-.6.12,2.61,2.61,0,0,1-.54.14c-.37,0-.63.22-.66.38a.21.21,0,0,0,0,.11l-.22.25ZM16.59,5.4l-.19,0-.25.09-.26.09-.17,0-.08,0h-.07l-.13,0-.12,0-.11,0-.1.05L15,5.87,15,5.93l0,.07,0,.06h0a.18.18,0,0,0,0,.06.15.15,0,0,0,0,.05l-.18.21,0,.06L15,6.21a.18.18,0,0,1,0-.11c0-.19.33-.37.67-.4a2.53,2.53,0,0,0,.54-.14c.27-.09.51-.17.6-.11a.31.31,0,0,0-.2-.05Z"/><path class="cls-6" d="M14.75,6.38l.17-.2a.25.25,0,0,1,0-.06.22.22,0,0,1,0-.06V6l0-.07L15,5.86l.08-.06.1-.05.11,0,.12,0,.13,0h.15l.17,0,.37-.13.15,0c-.28,0-.64.16-.87.19s-.75.29-.79.6a.44.44,0,0,0,0,.18Z"/><path d="M14.74,6.38h0a.5.5,0,0,1,0-.18c0-.33.44-.57.79-.61A3.77,3.77,0,0,0,16,5.5l.41-.09-.25.1-.26.09-.17,0-.08,0h-.07l-.13,0-.12,0-.11,0-.1.05L15,5.87,15,5.93l0,.07,0,.06h0a.18.18,0,0,0,0,.06.15.15,0,0,0,0,.05l-.18.21Zm1.65-1-.41.1a3.17,3.17,0,0,1-.45.09c-.35,0-.75.27-.78.6a.54.54,0,0,0,0,.17l.17-.19a.12.12,0,0,1,0-.05.2.2,0,0,1,0-.06l0-.07a.19.19,0,0,1,0-.07L15,5.86l.08-.06.1-.06.11,0,.12,0,.13,0h.07l.08,0,.17,0,.26-.09.25-.08Z"/><path class="cls-6" d="M16.78,7.29a5.11,5.11,0,0,0-1.43.18s0-.14-.05-.24-.11-.13-.11-.13a6,6,0,0,1,1.6-.2,6.17,6.17,0,0,1,1.6.2.24.24,0,0,0-.12.14c0,.1-.07.22,0,.23a5.18,5.18,0,0,0-1.44-.18Z"/><path d="M18.22,7.48a6.06,6.06,0,0,0-2.87,0s0,0-.06-.24-.11-.13-.11-.13h0a5.69,5.69,0,0,1,1.59-.21,6.17,6.17,0,0,1,1.6.2.33.33,0,0,0-.12.15c0,.11-.06.21,0,.22Zm-3-.37s.07,0,.11.13.08.23,0,.24a4.76,4.76,0,0,1,1.43-.19,5.17,5.17,0,0,1,1.43.18.48.48,0,0,1,0-.22.24.24,0,0,1,.13-.15,7.22,7.22,0,0,0-3.19,0Z"/><path class="cls-6" d="M16.78,6.93a5.86,5.86,0,0,0-1.56.19,0,0,0,0,1-.06,0,0,0,0,0,1,0-.06,5.58,5.58,0,0,1,1.59-.2,5.62,5.62,0,0,1,1.6.2,0,0,0,0,1,0,.06.05.05,0,0,1-.06,0,5.86,5.86,0,0,0-1.56-.19Z"/><path d="M18.36,7.13h0a5.74,5.74,0,0,0-1.56-.19,5.75,5.75,0,0,0-1.56.19s-.06,0-.07,0h0v0l0,0a5.63,5.63,0,0,1,1.59-.2,5.82,5.82,0,0,1,1.6.2l0,0a0,0,0,0,1,0,0,.05.05,0,0,1,0,0Zm-1.58-.21a6,6,0,0,1,1.57.19h0a0,0,0,0,0,0,0l0-.06a5.78,5.78,0,0,0-1.59-.2,5.59,5.59,0,0,0-1.59.2l0,.06h0a0,0,0,0,0,0,0,6,6,0,0,1,1.58-.2Z"/><path class="cls-6" d="M16.78,6.46h.05a.17.17,0,0,0,0,.07.21.21,0,0,0,.41.06s0-.08,0-.08,0,.08,0,.08a.21.21,0,0,0,.42,0,.1.1,0,0,0,0,0l.07-.07,0,.08a.21.21,0,0,0,0,.09.2.2,0,0,0,.37.11l0-.05v.06c0,.07,0,.13.09.14a.29.29,0,0,0,.17-.08,1,1,0,0,0,.15-.15v.08a.65.65,0,0,1-.17.19.3.3,0,0,1-.18,0,.18.18,0,0,1-.13-.12.28.28,0,0,1-.15,0,.29.29,0,0,1-.27-.17.31.31,0,0,1-.47,0,.3.3,0,0,1-.21.09.31.31,0,0,1-.26-.14.32.32,0,0,1-.26.14.31.31,0,0,1-.21-.09.3.3,0,0,1-.24.11.31.31,0,0,1-.23-.1.29.29,0,0,1-.27.17.28.28,0,0,1-.15,0,.18.18,0,0,1-.13.12.3.3,0,0,1-.18,0,.66.66,0,0,1-.17-.19V6.7a1,1,0,0,0,.16.15.29.29,0,0,0,.17.08c.07,0,.1-.07.1-.14V6.72l0,.05a.21.21,0,0,0,.17.09.2.2,0,0,0,.2-.2.2.2,0,0,0,0-.09l0-.08.07.07a.11.11,0,0,0,0,0,.21.21,0,0,0,.42,0s0-.08,0-.08,0,.08,0,.08a.22.22,0,0,0,.2.14.21.21,0,0,0,.21-.21.17.17,0,0,0,0-.07Z"/><path d="M18.3,7h0a.19.19,0,0,1-.13-.12.3.3,0,0,1-.43-.13.32.32,0,0,1-.47,0,.32.32,0,0,1-.47-.06.32.32,0,0,1-.47.06.32.32,0,0,1-.47,0,.3.3,0,0,1-.43.13.17.17,0,0,1-.13.12A.31.31,0,0,1,15.1,7a.67.67,0,0,1-.17-.18V6.7s.06.06.16.14a.27.27,0,0,0,.17.07c.06,0,.09-.06.09-.14V6.72l.05,0a.2.2,0,0,0,.17.08.19.19,0,0,0,.2-.19.22.22,0,0,0,0-.09l0-.09.08.07a.21.21,0,0,0,.21.23.2.2,0,0,0,.21-.17c0-.07,0-.08,0-.08h0s0,0,0,.05a.21.21,0,0,0,.41,0,.19.19,0,0,0,0-.07l.06,0h.06a.38.38,0,0,0,0,.08.2.2,0,0,0,.21.2.21.21,0,0,0,.2-.14c0-.06,0-.08,0-.08s0,0,0,.06a.21.21,0,0,0,.41,0h0a.22.22,0,0,1-.21.22.21.21,0,0,1-.22-.18v0a.22.22,0,1,1-.42-.11h-.1a.12.12,0,0,1,0,.07.22.22,0,0,1-.43.06l0-.07a.46.46,0,0,1,0,.05.22.22,0,0,1-.22.2.22.22,0,0,1-.22-.21l-.06-.09,0,.09a.15.15,0,0,1,0,.09.2.2,0,0,1-.21.2.21.21,0,0,1-.17-.09l0-.06v.06a.13.13,0,0,1-.1.15.3.3,0,0,1-.18-.08,1,1,0,0,1-.15-.15v.07h0A.7.7,0,0,0,15.1,7a.39.39,0,0,0,.16,0,.18.18,0,0,0,.15-.12.31.31,0,0,0,.43-.13.33.33,0,0,0,.47,0,.33.33,0,0,0,.47-.05.33.33,0,0,0,.47,0,.33.33,0,0,0,.47,0,.32.32,0,0,0,.43.13.21.21,0,0,0,.13.12h0a.36.36,0,0,0,.16,0,.69.69,0,0,0,.17-.18V6.71a.67.67,0,0,1-.15.15.32.32,0,0,1-.17.08.13.13,0,0,1-.1-.15V6.72l0,.06a.21.21,0,0,1-.17.09.2.2,0,0,1-.21-.2.21.21,0,0,1,0-.09l0-.08,0,0,0,0,0,.09a.21.21,0,0,0,0,.09.19.19,0,0,0,.2.19.2.2,0,0,0,.16-.08l0-.05v.07c0,.08,0,.13.09.14a.26.26,0,0,0,.17-.07,1.07,1.07,0,0,0,.15-.15l0,.08a.61.61,0,0,1-.17.19A.33.33,0,0,1,18.3,7Z"/><path class="cls-8" d="M15.28,6.71a.09.09,0,0,1,.09-.09.09.09,0,1,1,0,.19.09.09,0,0,1-.09-.09Z"/><path d="M15.37,6.8a.1.1,0,0,1-.1-.1c0-.11.2-.11.2,0a.1.1,0,0,1-.1.1Zm0-.18a.09.09,0,0,0-.09.09c0,.1.17.1.17,0a.09.09,0,0,0-.09-.09Z"/><path class="cls-8" d="M18.1,6.71a.09.09,0,1,1,.09.09.09.09,0,0,1-.09-.09Z"/><path d="M18.2,6.8a.1.1,0,0,1-.1-.1c0-.11.19-.11.19,0a.09.09,0,0,1-.1.1Zm0-.18a.09.09,0,0,0-.09.09c0,.1.17.1.17,0a.09.09,0,0,0-.08-.09Z"/><path class="cls-8" d="M16.21,6.55a.09.09,0,1,1,.18,0,.09.09,0,1,1-.18,0Z"/><path d="M16.3,6.64a.1.1,0,0,1-.1-.1c0-.11.19-.11.19,0a.1.1,0,0,1-.1.1Zm0-.19a.09.09,0,0,0-.09.09c0,.1.17.1.17,0a.09.09,0,0,0-.09-.09Z"/><path class="cls-8" d="M17.18,6.55a.1.1,0,0,1,.09-.09.09.09,0,0,1,.09.09.09.09,0,0,1-.09.09.09.09,0,0,1-.09-.09Z"/><path d="M17.27,6.64a.1.1,0,0,1-.1-.1c0-.11.2-.11.2,0a.1.1,0,0,1-.1.1Zm0-.19a.09.09,0,0,0-.09.09c0,.1.17.1.17,0a.09.09,0,0,0-.09-.09Z"/><path class="cls-9" d="M15,6.84l.08,0a.58.58,0,0,0,.14,0l0,0a.17.17,0,0,0,0-.05.1.1,0,0,0-.06,0l0,0h0a.09.09,0,0,0,.05,0s.09,0,.09,0,0-.07-.07-.07h0l0,0h0a.12.12,0,0,0,.07,0s0,0,0-.06a.4.4,0,0,1,0-.06h-.06s0,0-.08,0,0,0,0,.05,0,0,0,0v0a.05.05,0,0,0,0,0,.13.13,0,0,0,0-.07.11.11,0,0,0-.07,0s0,0,0,0h0a0,0,0,0,1,0,0l0,0a.36.36,0,0,0,0-.07h-.08v0l0-.06-.07,0-.06.05a.16.16,0,0,0-.13,0,.34.34,0,0,1,.14.18l0,0,0,0,0,.08,0,.07,0,0,0,0,.05,0Z"/><path d="M15.08,6.87h0l-.08,0-.06,0,0,0,0,0,0-.07,0-.08,0,0,0,0a.35.35,0,0,0-.14-.18.12.12,0,0,1,.14,0l0,0,.1-.06a.18.18,0,0,1,0,.06v0h0a.21.21,0,0,0,0-.05l-.06,0-.06,0a.19.19,0,0,0-.13,0,.28.28,0,0,1,.14.16l0,0,0,0,0,.08,0,.08,0,.07,0,0h.09l.13,0,0,0a.14.14,0,0,0,0-.05l-.06,0,0,0h0s0,0,.06.05l0,0a.13.13,0,0,0,0,0,.28.28,0,0,1-.14,0Zm.08-.13a.11.11,0,0,1-.07,0l.06,0a.17.17,0,0,0,.09,0s0-.05-.06-.06h-.06v0h0a0,0,0,0,0,0,0,.44.44,0,0,1,0-.08h-.06l-.06,0s0,0,0,0a.07.07,0,0,1-.05,0,.09.09,0,0,1,0,0,0,0,0,0,0,0,0,.09.09,0,0,1,0-.06.07.07,0,0,1,.06,0l.09,0a.3.3,0,0,1,0,.07s0,.06,0,.06h-.07l0,0h0s.07.07.07.07a.14.14,0,0,1-.08,0ZM15,6.49s0,0,0,0a.13.13,0,0,0,0-.06s0,0-.06,0l0,0h0A.13.13,0,0,1,15,6.38a.1.1,0,0,1,0,.07.06.06,0,0,1,0,0Z"/><path class="cls-1" d="M14.94,6.74l0,0,0,0Zm0-.08a.2.2,0,0,1,.11,0Zm0-.05.13,0Zm0,0a.09.09,0,0,1,0,0l0,0Zm-.09,0a.18.18,0,0,1,0,0,.17.17,0,0,1,0-.05Z"/><path class="cls-6" d="M14.91,6.78c.05,0,.06-.09,0-.16a.16.16,0,0,0-.17-.1h0v0l0,.07a.15.15,0,0,0,0,.05l0,0,0,0,0,0Z"/><path d="M14.91,6.78h0a.07.07,0,0,0,0,0,.14.14,0,0,0,0-.11.17.17,0,0,0-.14-.1.13.13,0,0,0,0,.1l0,.05,0,0,0,0,0,0h0l-.07-.06,0,0a.15.15,0,0,1,0-.05l0-.07,0,0a.18.18,0,0,1,.14.1.14.14,0,0,1,0,.12s0,0,0,0Z"/><path class="cls-8" d="M14.8,6.66c0-.05,0-.1,0-.11s.09,0,.12.07,0,.11,0,.12-.07,0-.1-.08Z"/><path d="M14.88,6.75s-.07,0-.09-.08,0-.08,0-.1l0,0a.13.13,0,0,1,.1.08.12.12,0,0,1,0,.1l0,0Zm-.07-.2s0,.07,0,.11,0,.08.08.08h0a.1.1,0,0,0,0-.11.12.12,0,0,0-.09-.07Z"/><path class="cls-9" d="M18.57,6.84l-.08,0a.58.58,0,0,1-.14,0l0,0a.13.13,0,0,1,0-.05.1.1,0,0,1,.06,0l0,0h0a.09.09,0,0,1-.05,0s-.09,0-.09,0,0-.07.06-.07h.05l0,0h0a.13.13,0,0,1-.07,0s0,0,0-.06l0-.06h.06s0,0,.08,0,0,0,0,.05a.06.06,0,0,0,0,0v0a.06.06,0,0,1,0,0,.15.15,0,0,1,0-.07.11.11,0,0,1,.07,0s0,0,0,0h0a0,0,0,0,0,0,0l0,0a.36.36,0,0,1,0-.07h.08v0a.17.17,0,0,1,0-.06l.07,0,.06.05a.16.16,0,0,1,.13,0,.31.31,0,0,0-.14.18l0,0,0,0,0,.08,0,.07,0,0,0,0-.05,0Z"/><path d="M18.48,6.87l-.14,0,0,0a.11.11,0,0,1,0-.05l.06,0-.06,0,0,0a.13.13,0,0,1,0,0l.13,0h.08l.06,0h0l0,0,.06-.11,0-.08,0,0,0,0a.35.35,0,0,1,.14-.19h-.12l0,0c-.06,0-.07,0-.09,0l0,0,0,0h0a.36.36,0,0,1,0-.09l.08,0,.05.05h0a.2.2,0,0,1,.13,0,.39.39,0,0,0-.14.19l0,0h0l0,0,0,.08,0,.07h0l0,0,0,0-.05,0-.08,0Zm-.07-.14a.22.22,0,0,1-.09,0s0-.08.07-.08h0s0,0,0,0,0,0,0-.05l0-.08.07,0,.06,0s0,0,.05,0a.06.06,0,0,0,0,0,0,0,0,0,1,0,0s0,0,0,0h-.05l-.09,0a.2.2,0,0,1,0,.06s0,.05,0,.06h.07v0h-.05s-.05,0-.06.07l.08,0a.09.09,0,0,0,.06,0h0l0,0s0,0-.07,0Zm.13-.23s0,0,0,0a.14.14,0,0,1,0-.07.09.09,0,0,1,.08,0l0,0h0a.1.1,0,0,0-.08-.05s0,0,0,.06a.06.06,0,0,0,0,0v0Z"/><path class="cls-1" d="M18.62,6.74l0,0,0,0Zm0-.08a.21.21,0,0,0-.11,0Zm0-.05-.13,0Zm0,0a.09.09,0,0,0,0,0l0,0Zm.09,0s0,0,0,0a.13.13,0,0,0,0-.05Z"/><path class="cls-6" d="M18.65,6.78c-.05,0-.06-.09,0-.16a.16.16,0,0,1,.17-.1h0v0l0,.07a.19.19,0,0,1,0,.05l0,0,0,0,0,0Z"/><path d="M18.64,6.78a.06.06,0,0,1,0,0,.16.16,0,0,1,0-.12.18.18,0,0,1,.15-.1h0l0,.1,0,.05,0,0,0,0,0,0Zm.09-.24a.13.13,0,0,0-.11.08.14.14,0,0,0,0,.11.08.08,0,0,0,0,0h0l.06-.06,0,0,0-.05,0-.07Z"/><path class="cls-8" d="M18.76,6.66c0-.05,0-.1,0-.11s-.09,0-.12.07,0,.11,0,.12.07,0,.1-.08Z"/><path d="M18.68,6.75h0l0,0a.12.12,0,0,1,0-.1.14.14,0,0,1,.11-.08l0,0s0,0,0,.1-.05.08-.09.08Zm.07-.19a.1.1,0,0,0-.09.06.12.12,0,0,0,0,.09l0,0h0s.06,0,.08-.08a.19.19,0,0,0,0-.09Z"/><path class="cls-6" d="M16.78,7.75a5.27,5.27,0,0,1-1.42-.17.06.06,0,0,1,0-.06.05.05,0,0,1,0-.05,5,5,0,0,1,1.42-.17,5.06,5.06,0,0,1,1.42.17.05.05,0,0,1,0,.05.06.06,0,0,1,0,.06,5.28,5.28,0,0,1-1.42.17Z"/><path d="M16.78,7.75h0a5.22,5.22,0,0,1-1.42-.17.06.06,0,0,1,0-.06.06.06,0,0,1,0-.06,5.85,5.85,0,0,1,2.84,0,.06.06,0,0,1,0,.06.06.06,0,0,1,0,.06,5.22,5.22,0,0,1-1.42.17Zm0-.46a5.21,5.21,0,0,0-1.42.17.05.05,0,0,0,0,.1,5.06,5.06,0,0,0,1.42.17,5.05,5.05,0,0,0,1.42-.17.05.05,0,0,0,0-.1,5.2,5.2,0,0,0-1.42-.17Z"/></g><g class="cls-2"><path d="M16.78,7.68h0a5.63,5.63,0,0,1-1.31-.15,5.12,5.12,0,0,1,1.31-.15,5.54,5.54,0,0,1,1.32.15,5.24,5.24,0,0,1-1.32.16Zm0-.3a5.43,5.43,0,0,0-1.31.14,6.36,6.36,0,0,0,2.62,0,5.93,5.93,0,0,0-1.31-.14Z"/><path class="cls-6" d="M16.78,7.22c-.13,0-.24,0-.24-.11s.11-.11.24-.11S17,7,17,7.11s-.11.11-.24.11Z"/><path d="M16.78,7.23c-.14,0-.24,0-.24-.11s.11-.12.24-.12S17,7,17,7.11s-.11.11-.24.11Zm0-.22c-.13,0-.23,0-.23.11s.1.1.23.1.23,0,.23-.1S16.91,7,16.78,7Z"/><path class="cls-11" d="M16.78,7.19c-.1,0-.18,0-.18-.08s.08-.08.18-.08.17,0,.17.08-.08.08-.17.08Z"/><path d="M16.78,7.19c-.1,0-.18,0-.18-.08S17,7,17,7.11s-.08.08-.18.08Zm0-.15c-.09,0-.17,0-.17.07s.34.08.34,0S16.87,7,16.78,7Z"/><path class="cls-6" d="M18.29,7.18h0c-.12,0-.24,0-.26,0s.07.14.2.17l0,0,0,0,0,0v0a.18.18,0,0,0,0,0,.18.18,0,0,0,0,0Z"/><path d="M18.21,7.39c-.13,0-.22-.11-.2-.18s.14-.08.26,0l0,0,0,.08,0,0,0,0,0,0Zm-.06-.23c-.07,0-.12,0-.13.05s.07.13.19.17h0l0,0,0,0,0-.07a.18.18,0,0,0-.13-.05Z"/><path class="cls-11" d="M18.29,7.22h0c-.1,0-.18,0-.19,0s.06.09.15.12h0l0,0,0,0v-.1Z"/><path d="M18.23,7.37a.26.26,0,0,1-.16-.09.11.11,0,0,1,0,0,.21.21,0,0,0,.14.11h0Zm-.15-.14s.11,0,.18,0h0c-.12,0-.17,0-.19,0Z"/><path class="cls-6" d="M15.26,7.18h0c.13,0,.24,0,.26,0s-.07.14-.2.17l0,0,0,0,0,0v0a.29.29,0,0,1,0,0s0,0,0,0Z"/><path d="M15.34,7.39h0c.12,0,.21-.11.19-.17s-.13-.07-.25,0v0h0v0c.15,0,.26,0,.27,0s-.07.14-.2.18Z"/><path class="cls-11" d="M15.26,7.22h0c.09,0,.18,0,.19,0s-.06.09-.15.12h0l0,0,0,0v-.1Z"/><path d="M15.31,7.37h0c.1,0,.17-.08.16-.12s-.1,0-.18,0l0,0h0l0,.09h0l0,0h0l0,0,0,0V7.22c.17-.06.21,0,.22,0s-.06.1-.15.13Z"/><path class="cls-8" d="M16.35,7.12a0,0,0,0,1,0,0,0,0,0,1,1,0,.1,0,0,0,0,1,0,0Z"/><path d="M16.39,7.17a.05.05,0,0,1-.05-.05c0-.06.11-.06.11,0a.05.05,0,0,1-.06.05Z"/><path class="cls-8" d="M15.59,7.2a0,0,0,0,1,0,0,0,0,0,1,1,0,.09,0,0,0,0,1,0,0Z"/><path d="M15.64,7.26a.06.06,0,0,1-.05-.05c0-.06.11-.06.11,0a.06.06,0,0,1-.06.05Z"/><path class="cls-8" d="M17.12,7.12a.05.05,0,1,1,.05,0,.05.05,0,0,1-.05,0Z"/><path d="M17.17,7.17a.05.05,0,0,1-.06-.05c0-.06.11-.06.11,0a.05.05,0,0,1-.06.05Z"/><path class="cls-8" d="M17.87,7.2a0,0,0,0,1,.1,0,0,0,0,0,1-.1,0,0,0,0,0,1,0,0Z"/><path d="M17.92,7.26a.06.06,0,0,1-.06-.05c0-.06.11-.06.11,0a.06.06,0,0,1-.05.05Z"/><polygon class="cls-9" points="15.99 7.01 16.26 7.12 16.02 7.29 15.75 7.18 15.99 7.01"/><path d="M16,7.29l-.27-.11L16,7l.28.1L16,7.29ZM16,7l-.23.17.27.09.24-.17L16,7Z"/><polygon class="cls-12" points="16 7.06 16.18 7.13 16.02 7.24 15.84 7.17 16 7.06"/><path d="M16,7.25l-.18-.07L16,7.06l.18.06L16,7.25Zm0-.18-.15.11.17.06.15-.11L16,7.07Z"/><polygon class="cls-9" points="17.57 7.01 17.3 7.12 17.54 7.29 17.81 7.18 17.57 7.01"/><path d="M17.54,7.29l-.24-.17L17.57,7l.24.17-.28.11Zm0-.27-.27.1.24.16.27-.1L17.57,7Z"/><polygon class="cls-12" points="17.57 7.06 17.39 7.13 17.54 7.24 17.72 7.17 17.57 7.06"/><path d="M17.54,7.25l-.16-.11.18-.08.16.11-.18.08Zm0-.18-.17.07.16.1.18-.07-.16-.1Z"/><path class="cls-8" d="M16.56,5.33a.07.07,0,0,1-.07.07.07.07,0,0,1-.07-.07h0a.07.07,0,0,1,.07-.07.07.07,0,0,1,.07.07Z"/><path d="M16.49,5.4a.08.08,0,0,1,0-.15.08.08,0,0,1,.08.08.08.08,0,0,1-.08.08Zm0-.14a.06.06,0,0,0,0,.13h0a.06.06,0,1,0,0-.13Z"/><path class="cls-8" d="M16.36,5.35a.07.07,0,0,1-.07.08.08.08,0,0,1-.08-.08h0a.08.08,0,0,1,.08-.08.08.08,0,0,1,.07.08Z"/><path d="M16.29,5.44h0a.08.08,0,1,1,0-.16.08.08,0,0,1,.08.08.08.08,0,0,1-.08.08Zm0-.15a.07.07,0,0,0-.07.07c0,.08.14.08.14,0a.07.07,0,0,0-.07-.07Z"/><path class="cls-8" d="M16.14,5.41a.08.08,0,0,1-.09.09A.08.08,0,0,1,16,5.41h0a.09.09,0,0,1,.08-.08.09.09,0,0,1,.09.08Z"/><path d="M16.05,5.5h0A.09.09,0,0,1,16,5.41c0-.1.18-.1.18,0a.09.09,0,0,1,0,.06.09.09,0,0,1-.06,0Zm0-.17a.08.08,0,0,0-.08.08.08.08,0,0,0,.14.06.08.08,0,0,0,0-.06.08.08,0,0,0-.08-.08Z"/><path class="cls-8" d="M15.88,5.47a.09.09,0,0,1-.19,0h0a.09.09,0,1,1,.19,0Z"/><path d="M15.79,5.57h0a.1.1,0,0,1-.1-.1.11.11,0,0,1,.1-.1.1.1,0,0,1,.1.1.1.1,0,0,1-.1.1Zm0-.19a.09.09,0,0,0-.09.09c0,.1.18.1.18,0a.09.09,0,0,0-.09-.09Z"/><path class="cls-8" d="M15.57,5.53a.11.11,0,0,1-.1.11.11.11,0,0,1-.11-.11h0a.11.11,0,0,1,.11-.11.1.1,0,0,1,.1.1Z"/><path d="M15.47,5.64h0a.11.11,0,0,1-.11-.11.12.12,0,0,1,.11-.11.11.11,0,0,1,0,.22Zm0-.21a.1.1,0,0,0-.1.1c0,.11.2.11.2,0a.1.1,0,0,0-.1-.1Z"/><path class="cls-8" d="M15.25,5.62a.12.12,0,0,1-.11.12A.12.12,0,0,1,15,5.62h0a.12.12,0,0,1,.12-.11.11.11,0,0,1,.11.11Z"/><path d="M15.13,5.74a.12.12,0,1,1,0-.24.12.12,0,0,1,.12.12.12.12,0,0,1-.12.12Zm0-.23a.11.11,0,0,0-.11.11c0,.12.22.12.22,0a.11.11,0,0,0-.11-.11Z"/><path class="cls-8" d="M15,5.8a.12.12,0,0,1-.11.12.12.12,0,0,1-.12-.12h0a.11.11,0,0,1,.12-.11A.12.12,0,0,1,15,5.8Z"/><path d="M14.88,5.92h0a.12.12,0,0,1-.12-.12.12.12,0,0,1,.2-.08.11.11,0,0,1,0,.08.12.12,0,0,1,0,.09.11.11,0,0,1-.08,0Zm0-.23a.11.11,0,0,0-.11.11.11.11,0,0,0,.19.08.11.11,0,0,0,0-.08.11.11,0,0,0-.11-.11Z"/><path class="cls-8" d="M14.86,6.13a.12.12,0,0,1-.12.13.12.12,0,0,1-.12-.12h0A.12.12,0,0,1,14.73,6a.13.13,0,0,1,.12.12Z"/><path d="M14.73,6.26h0a.13.13,0,0,1-.13-.13.14.14,0,0,1,.22-.1.13.13,0,0,1,0,.09.13.13,0,0,1-.13.13Zm0-.25a.12.12,0,1,0,.12.12A.12.12,0,0,0,14.73,6Z"/><path class="cls-8" d="M16.61,5.3a.06.06,0,0,0,.12,0h0a.06.06,0,0,0-.12,0Z"/><path d="M16.67,5.36h0a.06.06,0,0,1-.07-.06c0-.07.13-.07.13,0a.06.06,0,0,1-.06.06Zm0-.12a.05.05,0,0,0-.06.05.06.06,0,0,0,.06.06h0a.06.06,0,0,0,.05-.06.05.05,0,0,0-.05-.05Z"/><path class="cls-8" d="M17,5.33a.07.07,0,1,0,.13,0h0a.07.07,0,0,0-.07-.07.06.06,0,0,0-.07.07Z"/><path d="M17.07,5.4h0A.08.08,0,0,1,17,5.33a.07.07,0,1,1,.07.08Zm0-.14a.06.06,0,0,0-.06.06.06.06,0,0,0,.06.06h0a.06.06,0,0,0,.06-.06.06.06,0,0,0-.06-.06Z"/><path class="cls-8" d="M17.2,5.35a.08.08,0,0,0,.15,0h0a.08.08,0,0,0-.15,0Z"/><path d="M17.28,5.44h0a.08.08,0,1,1,0-.16.08.08,0,0,1,.08.08.08.08,0,0,1-.08.08Zm0-.15a.07.07,0,0,0-.07.07.07.07,0,0,0,.07.07h0a.07.07,0,0,0,.07-.07.07.07,0,0,0-.07-.07Z"/><path class="cls-8" d="M17.42,5.41a.09.09,0,0,0,.17,0h0a.09.09,0,0,0-.09-.08.09.09,0,0,0-.09.08Z"/><path d="M17.51,5.5h0a.09.09,0,0,1-.09-.09c0-.1.18-.1.18,0a.09.09,0,0,1-.09.09Zm0-.17a.08.08,0,0,0-.08.08c0,.09.16.09.16,0a.08.08,0,0,0-.08-.08Z"/><path class="cls-8" d="M17.68,5.47a.09.09,0,0,0,.19,0h0a.09.09,0,1,0-.19,0Z"/><path d="M17.77,5.57h0a.1.1,0,0,1-.1-.1.1.1,0,0,1,.1-.1.11.11,0,0,1,.1.1.1.1,0,0,1-.1.1Zm0-.19a.09.09,0,0,0-.09.09c0,.1.18.1.18,0a.09.09,0,0,0-.09-.09Z"/><path class="cls-8" d="M18,5.53a.11.11,0,1,0,.21,0h0a.11.11,0,0,0-.21,0Z"/><path d="M18.1,5.64A.11.11,0,0,1,18,5.53a.11.11,0,0,1,.11-.11.12.12,0,0,1,.11.11.11.11,0,0,1-.11.11Zm0-.21a.1.1,0,0,0,0,.2h0a.1.1,0,0,0,.1-.1.1.1,0,0,0-.1-.1Z"/><path class="cls-8" d="M18.31,5.62a.12.12,0,0,0,.11.12.12.12,0,0,0,.12-.11h0a.12.12,0,0,0-.23,0Z"/><path d="M18.43,5.74a.12.12,0,0,1-.12-.12.12.12,0,1,1,.12.12Zm0-.23a.11.11,0,0,0-.11.11c0,.12.22.12.22,0a.11.11,0,0,0-.11-.11Z"/><path class="cls-8" d="M18.57,5.8a.11.11,0,0,0,.11.12.12.12,0,0,0,.12-.12h0a.11.11,0,0,0-.23,0Z"/><path d="M18.69,5.92h0a.11.11,0,0,1-.09,0,.13.13,0,0,1,0-.09.12.12,0,1,1,.24,0,.12.12,0,0,1,0,.09.11.11,0,0,1-.08,0Zm0-.23a.13.13,0,0,0-.08,0,.12.12,0,0,0,0,.08.12.12,0,0,0,0,.08.1.1,0,0,0,.08,0h0a.11.11,0,0,0,.11-.11.11.11,0,0,0-.11-.11Z"/><path class="cls-8" d="M18.71,6.13a.12.12,0,0,0,.12.13A.12.12,0,0,0,19,6.13h0A.12.12,0,0,0,18.83,6a.13.13,0,0,0-.13.12Z"/><path d="M18.83,6.26h0A.13.13,0,1,1,19,6.13a.13.13,0,0,1-.13.13Zm0-.25a.11.11,0,0,0-.08,0,.11.11,0,0,0,0,.08A.12.12,0,1,0,18.83,6Z"/><path class="cls-8" d="M16.95,5.3a.06.06,0,0,1-.12,0h0a.06.06,0,0,1,.06-.06.06.06,0,0,1,.06.06Z"/><path d="M16.89,5.36a.06.06,0,0,1-.07-.06c0-.07.13-.07.13,0a.06.06,0,0,1-.07.06Zm0-.12a.05.05,0,0,0-.06.05.06.06,0,0,0,.06.06h0a.06.06,0,0,0,.05-.06.05.05,0,0,0-.05-.05Z"/><path class="cls-6" d="M16.7,5.38a.14.14,0,0,0-.07.07,1,1,0,0,0,0,.16h0v0a.73.73,0,0,1-.05.29l.23.17L17,5.93A.74.74,0,0,1,17,5.65v0h0a.75.75,0,0,0,0-.16.11.11,0,0,0-.07-.07s0,0,0,.06h0v.26a.71.71,0,0,0,0,.11l0,.08L16.78,6l-.12-.11a.35.35,0,0,0,0-.08.88.88,0,0,0,0-.11V5.46h0s0,0,0-.06Z"/><path d="M16.78,6.11l-.23-.17a.83.83,0,0,0,.05-.29,1,1,0,0,1,0-.19.12.12,0,0,1,.07-.08s0,0,0,.06v.28a.71.71,0,0,1,0,.11.31.31,0,0,1,0,.08l.12.1.11-.11a.19.19,0,0,1,0-.07.6.6,0,0,1,0-.11V5.46a.44.44,0,0,0,0-.06h0a.11.11,0,0,1,0,0v.28a.53.53,0,0,0,0,.1.31.31,0,0,0,0,.08L16.79,6l-.13-.11,0-.08a.76.76,0,0,0,0-.1V5.46s0,0,0-.06a.1.1,0,0,0-.06.06.72.72,0,0,0,0,.15.83.83,0,0,1-.06.32l.22.16L17,5.93a.67.67,0,0,1-.06-.28,1.09,1.09,0,0,0,0-.19.11.11,0,0,0,0-.06.08.08,0,0,1,.06.06.82.82,0,0,1,0,.16.77.77,0,0,0,.06.32l-.23.18Z"/><path class="cls-6" d="M16.7,5.38s0,0,0,.06h0v.26a.88.88,0,0,1,0,.11.35.35,0,0,1,0,.08l.12.11.12-.11,0-.08a.71.71,0,0,1,0-.11V5.46h0s0,0,0-.06l-.08,0h0l-.09,0Z"/><path d="M16.78,6l-.12-.11,0-.08a.76.76,0,0,0,0-.1V5.46s0,0,0-.06a.14.14,0,0,1,.18,0,.39.39,0,0,1,0,.06v.28a.53.53,0,0,0,0,.1.31.31,0,0,0,0,.08L16.78,6Zm0-.65-.09,0s0,0,0,.06v.28a.71.71,0,0,1,0,.11.31.31,0,0,1,0,.08l.12.1.11-.11a.19.19,0,0,1,0-.07.6.6,0,0,1,0-.11V5.46a.44.44,0,0,0,0-.06l-.08,0Z"/><path class="cls-8" d="M16.72,5.31a.06.06,0,0,0,.06.06.06.06,0,0,0,.06-.06h0a.06.06,0,0,0-.06-.06.06.06,0,0,0-.06.06Z"/><path d="M16.78,5.38a.07.07,0,0,1-.07-.06.07.07,0,1,1,.13,0,.06.06,0,0,1-.06.06Zm0-.12a.06.06,0,0,0-.06.06c0,.06.11.06.11,0a.05.05,0,0,0-.05-.06Z"/><path class="cls-8" d="M16.85,5.42a.07.07,0,0,1-.07.07.07.07,0,0,1-.07-.07h0a.07.07,0,0,1,.07-.07.07.07,0,0,1,.07.07Z"/><path d="M16.78,5.49a.08.08,0,0,1-.08-.08c0-.08.15-.08.15,0a.08.08,0,0,1-.07.08Zm0-.14a.06.06,0,0,0-.06.06c0,.07.13.07.13,0a.06.06,0,0,0-.06-.06Z"/><path class="cls-8" d="M16.86,5.52a.08.08,0,0,1-.08.08.08.08,0,0,1-.08-.08h0a.08.08,0,0,1,.08-.08.08.08,0,0,1,.08.08Z"/><path d="M16.78,5.6h0a.08.08,0,0,1-.09-.09.09.09,0,1,1,.17,0,.09.09,0,0,1-.09.09Zm0-.16a.08.08,0,0,0-.08.08c0,.09.15.08.15,0a.08.08,0,0,0-.08-.08Z"/><path class="cls-8" d="M16.88,5.64a.1.1,0,0,1-.2,0h0a.1.1,0,0,1,.2,0Z"/><path d="M16.78,5.75h0a.1.1,0,0,1-.1-.1c0-.12.21-.12.21,0a.1.1,0,0,1-.1.1Zm0-.2a.09.09,0,0,0-.09.09c0,.1.19.1.19,0a.09.09,0,0,0-.09-.09Z"/><path class="cls-8" d="M16.89,5.79a.11.11,0,0,1-.11.11.11.11,0,0,1-.11-.11h0a.12.12,0,0,1,.11-.11.11.11,0,0,1,.11.11Z"/><path d="M16.78,5.91h0a.12.12,0,0,1-.12-.12.12.12,0,0,1,.12-.12.12.12,0,0,1,.12.12.12.12,0,0,1-.12.12Zm0-.23a.11.11,0,0,0-.11.11c0,.12.21.12.21,0a.11.11,0,0,0-.11-.11Z"/><path class="cls-9" d="M16.78,5.88l-.07,0a.18.18,0,0,0-.06.07h-.11a.11.11,0,0,0,0,.05s0,0,0,0h0l0,0,.07,0h0s0,0,0,0h0s0,0-.05,0a.34.34,0,0,0-.11,0,.12.12,0,0,0,0,.06.07.07,0,0,0,.06,0v0a.08.08,0,0,1-.05,0s0,0-.07,0,0,0-.06.05l-.05,0,.06,0s0,0,.06,0a.12.12,0,0,0,.06,0h0v0l0,0s0,.09,0,.09.08,0,.11,0a.08.08,0,0,0,0-.06h0v0a.14.14,0,0,0,0,0,.17.17,0,0,0,0,.06.09.09,0,0,1,0,0,.75.75,0,0,0,.15,0c.11-.08,0-.07.13,0a.74.74,0,0,0,.15,0,.09.09,0,0,1,0,0,.14.14,0,0,0,0-.06.13.13,0,0,0,0,0v0h0a.07.07,0,0,0,0,.06s.11,0,.11,0,0-.07,0-.09l0,0v0h0a.11.11,0,0,0,.06,0s0,0,.06,0l.06,0-.06,0s0-.05-.06-.05,0,0-.07,0a.08.08,0,0,1-.05,0v0a.08.08,0,0,0,.06,0,.15.15,0,0,0,0-.06.33.33,0,0,0-.11,0l-.05,0h0s0,0,0,0h0l.07,0,0,0h0s0,0,0,0A.13.13,0,0,0,17,6h-.11a.2.2,0,0,0-.06-.07l-.07,0Z"/><path d="M17,6.63h0a.68.68,0,0,1-.15,0l-.06,0-.07,0a.71.71,0,0,1-.15,0s0,0,0,0a.15.15,0,0,1,0-.06.12.12,0,0,1,0,0l0,.05a.08.08,0,0,0,0,0,.1.1,0,0,1,0,.07l.14,0,.06,0,.08,0a.51.51,0,0,0,.14,0,.13.13,0,0,1,0,0,.1.1,0,0,0,0-.06.08.08,0,0,0,0,0v0l0,0s0,0,0,.07a.06.06,0,0,1,0,0,.1.1,0,0,0,0,.06Zm-.52-.1h0a.2.2,0,0,0,.09,0,.08.08,0,0,0,0-.06h0a0,0,0,0,1,0,0s0,0-.05,0a.16.16,0,0,1-.09,0Zm.58,0-.07,0a.1.1,0,0,1,0-.06l0,.05a.25.25,0,0,0,.08,0s0-.06,0-.08l0,0v0s.09,0,.13,0l.07-.06h0l-.05,0s0-.05-.06-.05h0a.05.05,0,0,0,0,0l0,0h0l0,0,.06,0a.13.13,0,0,0,0,0H17l-.06,0h0l0,0h0l.06,0h0l-.05,0a.31.31,0,0,1,.1,0,.09.09,0,0,1,0,.06.08.08,0,0,1-.05,0h0a.06.06,0,0,1,0,0,.07.07,0,0,1,.06,0,.24.24,0,0,0,.07.06s0,0-.05.06,0,0-.07,0-.06,0-.07,0,0,0,0,0,0,.09,0,.09Zm-.59,0a.08.08,0,0,1,0-.08l0,0s0,0-.08,0a.06.06,0,0,1-.05,0l-.07-.06.05-.05s0-.05.06-.06,0,0,.05,0l0,0s0,0,0,0a.15.15,0,0,1,0-.06.19.19,0,0,1,.11,0l.05,0h0l0,0h0l-.09,0h0l.06,0h0s0,0,0,0h0l-.1,0a.25.25,0,0,0-.1,0,.19.19,0,0,0,0,0l0,0,0,0h-.06s0,0-.06,0,0,0,0,0a.2.2,0,0,1-.07.06l.05,0s0,0,.06,0,.06,0,.06,0h0l0,0,0,0s0,.05,0,.08Zm.07-.4,0,0,0-.05h0a.09.09,0,0,1,0-.05h.12a.12.12,0,0,1,.05-.07l.07,0,.06,0a.21.21,0,0,1,.08.08H17A.07.07,0,0,1,17,6l0,0h0l0,0a.12.12,0,0,0,0,0h-.11s0-.05-.06-.08l-.07,0-.06,0a.22.22,0,0,0-.05.07h-.12s0,0,0,0h0V6.1l0,0Z"/><path class="cls-1" d="M16.73,6.45a.14.14,0,0,1,0,0l0,0Zm-.06-.07a.19.19,0,0,0-.1,0Zm.1-.19s0-.14,0-.14Zm-.11.14h0Zm0-.06,0,0,0,0Zm.06-.07s0,0,0,0l0,0Zm.09.26a.14.14,0,0,0,0,0l0,0Zm.06-.07a.2.2,0,0,1,.1,0Zm0-.05h0Zm0-.06,0,0,0,0Zm-.06-.07s0,0,0,0l0,0Z"/><path class="cls-6" d="M16.67,6.33a.11.11,0,1,1,.22,0,.11.11,0,1,1-.22,0Z"/><path d="M16.78,6.48a.15.15,0,0,1,0-.3.15.15,0,0,1,0,.3Zm0-.29a.12.12,0,0,0-.11.14c0,.07,0,.14.11.14s.11-.06.11-.14a.12.12,0,0,0-.11-.14Z"/><path class="cls-8" d="M16.7,6.33c0-.06,0-.1.08-.1s.08,0,.08.1,0,.11-.08.11-.08,0-.08-.11Z"/><path d="M16.78,6.44s-.08,0-.08-.11a.08.08,0,1,1,.16,0c0,.06,0,.11-.08.11Zm0-.21s-.07,0-.07.1a.07.07,0,1,0,.14,0c0-.05,0-.1-.07-.1Z"/><path class="cls-8" d="M15.72,6.56a.09.09,0,0,1,.09-.09.09.09,0,1,1,0,.18.09.09,0,0,1-.09-.09Z"/><path d="M15.81,6.66a.1.1,0,0,1-.1-.1c0-.1.19-.1.19,0a.1.1,0,0,1-.1.1Zm0-.19a.08.08,0,0,0-.09.09c0,.1.17.1.17,0a.08.08,0,0,0-.08-.09Z"/><path class="cls-8" d="M17.85,6.58a.09.09,0,1,0-.18,0,.09.09,0,1,0,.18,0Z"/><path d="M17.76,6.67a.1.1,0,0,1-.1-.1c0-.11.19-.11.19,0a.1.1,0,0,1-.1.1Zm0-.18a.08.08,0,0,0-.09.08c0,.1.17.1.17,0a.08.08,0,0,0-.09-.08Z"/><path class="cls-9" d="M16.77,13.88c1.94-1.52,4-4.63,1.58-6.27a1.61,1.61,0,0,0-1.21.14c-.13-.08-.23-.07-.36.07a.29.29,0,0,0-.37-.11,1.45,1.45,0,0,0-1.17-.12c-2.13,1.34-.83,4.53,1.53,6.28Z"/><path class="cls-13" d="M16.77,13.93h0a5.91,5.91,0,0,1-2.62-4.46,2.26,2.26,0,0,1,1.09-1.89,1.43,1.43,0,0,1,1.21.12.21.21,0,0,1,.12,0,.3.3,0,0,1,.23.11.27.27,0,0,1,.36-.06,1.69,1.69,0,0,1,1.22-.13,2.31,2.31,0,0,1,1.14,1.89c.06,1.56-1.32,3.36-2.71,4.45l0,0ZM15.71,7.56a1.71,1.71,0,0,0-.46.07,2.18,2.18,0,0,0-1,1.83,5.91,5.91,0,0,0,2.57,4.37c1.37-1.08,2.71-2.84,2.65-4.37a2.23,2.23,0,0,0-1.09-1.82,2.83,2.83,0,0,0-.47,0,1.1,1.1,0,0,0-.69.18h0c-.12-.08-.2-.06-.31.06l0,0,0,0a.25.25,0,0,0-.33-.1,1.6,1.6,0,0,0-.71-.19Z"/><path class="cls-14" d="M20.37,10.42l.23-.31a.48.48,0,0,0,.24-.31c.22-.07.15-.26.17-.28a.27.27,0,0,0,.05-.28s.08-.32,0-.36c0-.31-.18-.28-.32-.08-.16,0-.19.18-.14.33-.2,0-.21.31-.15.48-.27,0-.12.31-.13.33s.07.5.08.48Z"/><path class="cls-15" d="M20.37,10.46s-.06,0-.12-.27,0-.24,0-.27a.34.34,0,0,1,0-.28.17.17,0,0,1,.12-.06.53.53,0,0,1,0-.4.18.18,0,0,1,.11-.08.3.3,0,0,1,0-.21.26.26,0,0,1,.16-.13c.08-.13.23-.2.31-.11a.29.29,0,0,1,.06.21c.08.07.05.25,0,.36a.34.34,0,0,1-.07.34.24.24,0,0,1-.16.29.56.56,0,0,1-.26.31l-.21.3,0,0Zm0-.81c-.05,0-.09,0-.1,0s0,.16,0,.21a.14.14,0,0,1,0,.06s0,.28.05.39c.19-.27.2-.27.22-.27a.42.42,0,0,0,.2-.27.06.06,0,0,1,0,0A.17.17,0,0,0,21,9.55a.4.4,0,0,1,0-.06.22.22,0,0,0,0-.24.16.16,0,0,1,0-.06c0-.22,0-.27,0-.28a0,0,0,0,1,0,0c0-.12,0-.16,0-.18s-.15,0-.21.13a.23.23,0,0,0-.14.1.25.25,0,0,0,0,.19,0,0,0,0,1,0,0h0a.12.12,0,0,0-.1.05.49.49,0,0,0,0,.38,0,0,0,0,1,0,0s0,0,0,0Z"/><path class="cls-14" d="M18.66,13.07l.13.09a.19.19,0,0,0,.2.16c0,.16.21.14.33,0,.1.15.22.15.39.1a.37.37,0,0,0,.48-.06c.13.12.23,0,.3-.09.11,0,.19,0,.23-.1.21,0,.11-.23-.07-.32.14-.12.29-.39.08-.43a.29.29,0,0,0-.29,0c0-.12-.18-.15-.35,0-.06-.13-.26-.07-.35,0-.12-.11-.27-.11-.48,0l-.6.57Z"/><path class="cls-15" d="M19.9,13.57a.37.37,0,0,1-.22-.08.23.23,0,0,1-.14,0,.28.28,0,0,1-.24-.12c-.15.1-.31.07-.36-.06a.24.24,0,0,1-.2-.19l-.12-.06,0,0a0,0,0,0,1,0,0l.6-.57c.22-.14.37-.14.5,0a.29.29,0,0,1,.37,0c.15-.1.3-.08.36,0a.32.32,0,0,1,.3,0,.13.13,0,0,1,.12.1c0,.11-.06.26-.15.35a.29.29,0,0,1,.16.26.13.13,0,0,1-.13.1.2.2,0,0,1-.24.11c-.09.15-.2.19-.32.1a.48.48,0,0,1-.29.11Zm-.21-.15a.35.35,0,0,0,.46,0,0,0,0,0,1,.05,0c.09.08.16.06.24-.08s0,0,0,0,.16,0,.19-.08a0,0,0,0,1,0,0s.07,0,.08,0-.06-.15-.16-.2a0,0,0,0,1,0,0,0,0,0,0,1,0,0c.1-.09.19-.23.17-.31s0,0-.07,0a.25.25,0,0,0-.27,0h0a0,0,0,0,1,0,0,.09.09,0,0,0-.1-.07.34.34,0,0,0-.19.07h0l0,0s0-.05-.09-.05a.32.32,0,0,0-.2.09,0,0,0,0,1-.05,0c-.11-.1-.24-.1-.43,0l-.56.53.09.06c0,.1.1.15.15.15h0l0,0c0,.11.15.11.27,0h0l0,0c.08.12.16.14.34.08Z"/><path class="cls-14" d="M18.66,12.72c0-.14-.07-.41.07-.43,0-.24,0-.52.28-.49,0-.23,0-.44.29-.48,0,0,.2-.74.41-.23.09.15.07.4-.1.35,0,.18,0,.34-.22.33a.31.31,0,0,1,0,.39l-.7.55Z"/><path class="cls-15" d="M18.66,12.77h0a0,0,0,0,1,0,0,.72.72,0,0,0,0-.16c0-.11,0-.25.07-.29a.58.58,0,0,1,.09-.42.25.25,0,0,1,.2-.08v-.06c0-.18.06-.36.28-.4,0-.11.14-.41.29-.41s.14.07.2.21a.39.39,0,0,1,0,.34.12.12,0,0,1-.11.07.33.33,0,0,1-.06.25.23.23,0,0,1-.14.08.34.34,0,0,1-.08.38l-.7.55Zm.34-.93a.2.2,0,0,0-.16.06.54.54,0,0,0-.06.39,0,0,0,0,1,0,0c-.06,0-.05.09,0,.22s0,.06,0,.08l.63-.5a.27.27,0,0,0,0-.33,0,0,0,0,1,0,0l0,0h0a.16.16,0,0,0,.14-.05.29.29,0,0,0,0-.24,0,0,0,0,1,0,0h0s.06,0,.08,0a.3.3,0,0,0,0-.26c-.06-.15-.1-.16-.12-.16s-.17.23-.22.38a0,0,0,0,1,0,0c-.18,0-.2.14-.23.34l0,.1a0,0,0,0,1,0,0Z"/><path class="cls-14" d="M19.88,11.8l.22,0c.23-.16.32-.22.43,0,.19,0,.37,0,.36.14.22,0,.22.17.2.29s-.05.48-.19.15c-.44-.28-.69-.24-1.38-.08l.36-.4Z"/><path class="cls-15" d="M21,12.47c-.05,0-.1-.06-.15-.18-.41-.25-.69-.21-1.33-.06a0,0,0,0,1,0,0,0,0,0,0,1,0,0l.36-.4.24-.06c.21-.15.34-.22.46-.05a.37.37,0,0,1,.34.05.15.15,0,0,1,0,.09.25.25,0,0,1,.17.08.29.29,0,0,1,0,.24.44.44,0,0,1,0,.31l-.06,0ZM20.28,12a1.13,1.13,0,0,1,.65.21c.06.12.09.14.1.15a.36.36,0,0,0,0-.26.24.24,0,0,0,0-.19.21.21,0,0,0-.14-.06,0,0,0,0,1,0,0,.09.09,0,0,0,0-.07.34.34,0,0,0-.29,0,0,0,0,0,1,0,0c-.05-.08-.08-.08-.11-.08a.68.68,0,0,0-.26.14l-.23.05-.25.29a2.86,2.86,0,0,1,.64-.1Z"/><path class="cls-14" d="M20,11.57s.65-.18.58-.39c.18,0,.22-.22.23-.22.37-.12.35-.35.35-.35s.3-.24.26-.46,0-.4-.28-.24c-.23,0-.32.12-.39.33-.11-.14-.29.08-.31.27l-.29.3s-.24.47-.24.47l.08.29Z"/><path class="cls-15" d="M20,11.61h0a.06.06,0,0,1,0,0l-.08-.29s.23-.46.24-.49,0,0,.3-.32c0-.14.13-.33.26-.33h.06c.06-.17.15-.33.41-.3s.23-.09.28,0,0,.15,0,.28a.47.47,0,0,1-.2.44l-.07.07h0s0,.24-.37.37a.27.27,0,0,1-.19.21.16.16,0,0,1,0,.07c-.07.14-.36.25-.56.31Zm.19-.77-.24.46.07.21c.37-.12.48-.21.51-.27a.07.07,0,0,0,0-.05,0,0,0,0,1,0,0l0,0a.25.25,0,0,0,.19-.18s0,0,0,0c.32-.11.31-.3.31-.31a.37.37,0,0,1,.08-.11c.1-.1.2-.2.17-.35s0-.23,0-.26a.32.32,0,0,0-.21.05h-.07c-.17,0-.23.11-.29.31l0,0h0c-.07-.1-.21.07-.24.25l-.29.32Z"/><path class="cls-14" d="M20,11a.43.43,0,0,1-.21-.41c-.1-.14-.17-.23-.08-.35L19.65,10a.19.19,0,0,1-.06-.32.33.33,0,0,1,0-.4c0-.25.17-.16.31,0,0,0,.23.17.06.33.17.06.23.22.13.29a.19.19,0,0,1,.09.31c.15.13.1.29.14.43L20,11Z"/><path class="cls-15" d="M20,11.09h0a.49.49,0,0,1-.23-.45c-.1-.12-.18-.23-.07-.37L19.62,10a.21.21,0,0,1-.12-.14.26.26,0,0,1,0-.21.37.37,0,0,1,0-.42.17.17,0,0,1,0-.14c.08-.09.26.05.34.14h0a.35.35,0,0,1,.13.22.18.18,0,0,1,0,.13.26.26,0,0,1,.15.19.15.15,0,0,1,0,.1.22.22,0,0,1,.11.15.23.23,0,0,1,0,.16.42.42,0,0,1,.1.29.83.83,0,0,0,0,.14l-.31.45,0,0Zm-.35-1.93s0,0,0,.11a.32.32,0,0,0,0,.38,0,0,0,0,1,0,0,.2.2,0,0,0-.05.16.14.14,0,0,0,.1.09,0,0,0,0,1,0,0l.07.28c-.08.13,0,.18.06.32s0,0,0,0A.38.38,0,0,0,20,11l.28-.38s0-.07,0-.12a.32.32,0,0,0-.1-.26,0,0,0,0,1,0,0,0,0,0,0,1,0,0,.14.14,0,0,0,0-.12.2.2,0,0,0-.11-.13,0,0,0,0,1,0,0,.05.05,0,0,1,0,0,.06.06,0,0,0,0-.06.21.21,0,0,0-.15-.15,0,0,0,0,1,0,0,0,0,0,0,1,0,0,.14.14,0,0,0,.05-.1.29.29,0,0,0-.11-.17c-.09-.09-.16-.15-.21-.15Z"/><path class="cls-14" d="M20.28,9.87s-.26-.34-.19-.36-.09-.21,0-.31a.29.29,0,0,1,0-.4.29.29,0,0,1,.07-.38c0-.19.1-.24.21-.27.08-.31.22-.23.3,0a.37.37,0,0,1,.06.4c.14.1.05.22,0,.28l-.37,1.06Z"/><path class="cls-15" d="M20.28,9.91h0S20,9.6,20,9.51h0l0-.08a.37.37,0,0,1,0-.22.32.32,0,0,1,0-.41.33.33,0,0,1,.09-.41c-.05-.2.11-.25.23-.29,0-.26.25-.27.35,0a.38.38,0,0,1,.07.4.18.18,0,0,1,.07.13.27.27,0,0,1-.1.19l-.36,1a0,0,0,0,1,0,0ZM20.44,8s-.07,0-.1.17-.24.11-.21.26-.14.27-.08.36a0,0,0,0,1,0,0,.25.25,0,0,0,0,.35,0,0,0,0,1,0,0,.29.29,0,0,0,0,.19.56.56,0,0,1,0,.11,0,0,0,0,1,0,0l.16.24.34-1a.22.22,0,0,0,.08-.14.11.11,0,0,0-.06-.09,0,0,0,0,1,0,0,.32.32,0,0,0,0-.35c-.05-.15-.11-.2-.13-.2Z"/><path class="cls-14" d="M20.25,8.21,20,8c.05-.12.1-.33-.06-.42s-.53-.5-.6,0c-.07-.16-.21-.32-.31-.13-.23-.21-.35-.14-.24.12,0,0-.11.17.17.31,0,0-.09.32.24.32-.06.1,0,.24.17.23-.1.13.06.26.17.21,0,.14,0,.2.14.22l.2.25.17.23q.07-.57.14-1.14Z"/><path class="cls-15" d="M20.1,9.39h0l-.17-.24-.2-.24a.17.17,0,0,1-.16-.06.17.17,0,0,1,0-.14.2.2,0,0,1-.17-.11.16.16,0,0,1,0-.12.21.21,0,0,1-.15-.1.2.2,0,0,1,0-.12A.26.26,0,0,1,19,8.17.31.31,0,0,1,19,7.93a.42.42,0,0,1-.19-.21.21.21,0,0,1,0-.16.21.21,0,0,1,0-.22c0-.08.19,0,.29.06.09-.11.22,0,.3.08.06-.2.18-.23.25-.23a.49.49,0,0,1,.4.3c.14.08.13.27.07.42l.19.2-.13,1.18a0,0,0,0,1,0,0Zm-.53-.78h0s0,0,0,0,0,.11,0,.13.05,0,.12,0l.34.41.13-1,0,0L20,8a0,0,0,0,1,0,0s.12-.27,0-.37a.46.46,0,0,0-.34-.27c-.13,0-.18.15-.19.27a0,0,0,0,1-.08,0c0-.11-.11-.19-.16-.19s-.06,0-.07.06l0,0h0c-.12-.11-.17-.11-.19-.11s0,.05,0,.19a.32.32,0,0,0,0,.14.29.29,0,0,0,.17.15.09.09,0,0,1,0,.08.18.18,0,0,0,.2.24l0,0a0,0,0,0,1,0,0,.1.1,0,0,0,0,.1.15.15,0,0,0,.13.07l0,0s0,0,0,0a.08.08,0,0,0,0,.09.12.12,0,0,0,.1.06Z"/><path class="cls-15" d="M20.08,13.18h0A6,6,0,0,1,18.63,13a0,0,0,0,1,0-.06,0,0,0,0,1,.06,0,6.38,6.38,0,0,0,1.39.12,0,0,0,0,1,0,0,0,0,0,0,1,0,0Zm-1.36-.25h0a0,0,0,0,1,0,0,6.22,6.22,0,0,1,.65-1.49l0-.08s.08,0,.08,0,0,0,0,.1a5.27,5.27,0,0,0-.64,1.46,0,0,0,0,1,0,0Zm.17-.07a0,0,0,1,1,0-.08c.46,0,1.52-.17,1.53-.17a0,0,0,0,1,0,0,0,0,0,0,1,0,0s-1.07.16-1.54.17ZM20,11.54h0a0,0,0,0,1,0-.06,8,8,0,0,1,1.21-1.35,0,0,0,0,1,.06,0,0,0,0,0,1,0,.06A7.89,7.89,0,0,0,20,11.52l0,0Zm.39-1.22h0a0,0,0,0,1,0,0A10.33,10.33,0,0,0,20.79,9a0,0,0,0,1,.08,0,9.55,9.55,0,0,1-.47,1.27ZM20.3,10h0a0,0,0,0,1,0,0,4.18,4.18,0,0,0,.12-1.33,0,0,0,0,1,0,0,0,0,0,0,1,0,0,4,4,0,0,1-.12,1.36,0,0,0,0,1,0,0ZM20,9.09a0,0,0,0,1,0,0c0-.13-.08-.26-.12-.39a7.68,7.68,0,0,0-.72-.83,0,0,0,0,1,0-.06,0,0,0,0,1,.06,0,8.79,8.79,0,0,1,.62.69,6.09,6.09,0,0,1-.12-.75,0,0,0,0,1,0,0,0,0,0,0,1,0,0,6.78,6.78,0,0,0,.16.92,1,1,0,0,1,.16.31,0,0,0,0,1,0,0h0V9a0,0,0,0,1,0,0Z"/><path class="cls-16" d="M16.77,13.66c-1.4-1.38-2.83-4-1.4-5.29.25.15.55,0,1-.15a.31.31,0,0,0,.44.07.32.32,0,0,0,.4-.08c.4.24.92.37,1,.13,1.4,1.4,0,4-1.44,5.33Z"/><path class="cls-13" d="M16.77,13.71l0,0a6.28,6.28,0,0,1-2-3.95,1.87,1.87,0,0,1,.6-1.4l0,0,0,0c.21.13.49,0,.88-.14l.08,0,0,0a.28.28,0,0,0,.39.07l.18,0a.27.27,0,0,0,.21-.11l0,0,0,0c.42.25.9.34,1,.15l0,0,0,0a2,2,0,0,1,.59,1.54,6.2,6.2,0,0,1-2,3.85l0,0Zm-1.4-5.3a1.8,1.8,0,0,0-.56,1.32,6.19,6.19,0,0,0,2,3.87,6.12,6.12,0,0,0,2-3.77,2,2,0,0,0-.53-1.44.35.35,0,0,1-.28.1,1.65,1.65,0,0,1-.76-.25.36.36,0,0,1-.42.07c-.07.1-.3.08-.44-.06h0c-.4.16-.69.27-.92.15Z"/><path class="cls-17" d="M15.7,10.92a1.6,1.6,0,0,0-.21.08l-.13.22a.91.91,0,0,0-.18.18,7.8,7.8,0,0,0,1.16,1.79L16.5,13a2.13,2.13,0,0,0,.29-.66,1.65,1.65,0,0,1-.17-.5,3.94,3.94,0,0,0-.19-.36l-.15-.24-.17-.14-.24-.16Z"/><path d="M16.34,13.21h0a7.8,7.8,0,0,1-1.17-1.8.9.9,0,0,1,.18-.19l.13-.22.22-.09h.15l.25.16.17.14.15.24a3.62,3.62,0,0,1,.19.36,1.61,1.61,0,0,0,.17.5,2.11,2.11,0,0,1-.29.67,2.07,2.07,0,0,1-.16.22Zm-.49-2.29H15.7L15.5,11l-.13.22a.85.85,0,0,0-.18.19,7.86,7.86,0,0,0,1.16,1.77,1.92,1.92,0,0,0,.15-.2,2.1,2.1,0,0,0,.29-.66,1.61,1.61,0,0,1-.17-.5c0-.1-.19-.35-.19-.36l-.15-.24-.17-.14-.24-.16Z"/><path d="M16,12.7l0,0,.11-.28.12-.14h0l-.11.14,0,.12-.08.16,0,0Zm.65-.21-.14-.17-.23-.08s0,0-.06-.14l-.06-.18L16,11.86l-.23-.38h0l.23.38.11.06.06.18a.56.56,0,0,0,.06.14l.23.08.14.18Zm-1-.25.09-.19h-.05l-.1-.14h0l.09.14.06,0-.09.19Zm.94-.32-.07-.12-.05,0-.08-.12-.13-.06-.08-.18-.07-.06-.15,0h0l.16,0,.08.06.08.18.13.06.08.12.05,0,.06.12Zm-1.07,0,.07,0a3.54,3.54,0,0,1,.17-.37c0-.06,0-.07.06-.07l0,0h0s0,0,.08-.11h0a2.75,2.75,0,0,1,0-.38h0a2.93,2.93,0,0,0,0,.38c-.06.1-.08.11-.09.11l0,0h0s0,0-.05.06-.17.38-.17.38l-.08,0Zm-.17-.3.11-.11,0-.28h0l0,.28-.11.1Z"/><path class="cls-18" d="M16.17,14.92c.26-.45,2.08-1.34,3.79-3.27a27.45,27.45,0,0,1-4.25,3.26Z"/><path class="cls-19" d="M16.19,15h-.6l.09-.07c.45-.34.88-.62,1.29-.9a15.91,15.91,0,0,0,3-2.36l.06.05a16.91,16.91,0,0,1-2.93,2.55,4.09,4.09,0,0,0-.86.71v0Zm-.37-.09h.32a4.14,4.14,0,0,1,.87-.72c.43-.31,1-.72,1.61-1.25A19.5,19.5,0,0,1,17,14c-.38.25-.78.51-1.2.83Z"/><path class="cls-17" d="M18,10.93a1.55,1.55,0,0,0-.21.08l-.13.22s-.21.16-.21.26a.58.58,0,0,1-.13.26.6.6,0,0,0-.13.28c0,.12-.17.24-.17.24a2.13,2.13,0,0,0,.4.73,7,7,0,0,0,1.11-1.82l-.12-.1-.24-.16Z"/><path d="M17.37,13h0a2.24,2.24,0,0,1-.4-.74s.17-.13.17-.24a.6.6,0,0,1,.14-.29s.13-.16.13-.25.2-.26.21-.27l.13-.22.21-.08h.16l.37.26A6.87,6.87,0,0,1,17.38,13Zm.74-2.08H18l-.21.08-.13.22s-.21.16-.21.26a.6.6,0,0,1-.14.26.6.6,0,0,0-.13.27c0,.12-.17.24-.18.25a2.28,2.28,0,0,0,.4.71,7,7,0,0,0,1.1-1.8l-.36-.25Z"/><path d="M17.16,12.92l.09-.15.11-.1s0-.18,0-.3.08-.12.08-.12l.11-.18,0-.14v-.1s0-.16.08-.22l.11-.1,0-.28h0l0,.28-.12.1c-.07.06-.07.21-.07.21v.1l0,.14-.12.18s-.08,0-.08.12,0,.3,0,.3l-.12.1-.1.14Zm-.08-.24.11-.19-.08-.1,0-.2.11-.2a.76.76,0,0,1,.15-.12c.07,0,0-.25,0-.26h0s.1.22,0,.27a.72.72,0,0,0-.15.12l-.12.2,0,.2.07.1-.11.19Zm.71-.16.09-.26.1-.18h-.06l-.1-.14h0l.09.14.05,0-.09.18-.1.26Zm-.25-.42,0-.1.25-.12a4.08,4.08,0,0,1,.17-.38c0-.06,0-.06.06-.06l0,0s0,0,.08-.11h0a2.77,2.77,0,0,1,0-.38h0a3,3,0,0,0,0,.38c-.06.1-.07.12-.09.11l0,0h0s0,0-.05.06-.17.38-.17.38l-.25.12,0,.1Zm.69-.35c-.06-.08-.12-.19-.16-.25h0l.16.26Zm.19-.32-.08,0-.15,0h0l.15,0,.08.06Z"/><path class="cls-20" d="M18.67,12.87a.13.13,0,1,1-.13-.14.14.14,0,0,1,.13.14Z"/><path class="cls-21" d="M18.54,13a.16.16,0,1,1,.15-.16.16.16,0,0,1-.15.16Zm0-.28a.12.12,0,0,0,0,.24.12.12,0,0,0,0-.24Z"/><path class="cls-17" d="M16.76,11a1.42,1.42,0,0,0-.21.08l-.13.22s-.21.16-.21.26a.6.6,0,0,1-.13.26.59.59,0,0,0-.13.28c0,.12-.17.24-.17.24s.1.27.24.43a7,7,0,0,0,.74.87,5.61,5.61,0,0,0,1.1-1.24,1.69,1.69,0,0,1-.17-.5,3.92,3.92,0,0,0-.19-.36l-.15-.24-.17-.14L16.91,11Z"/><path d="M16.75,13.64h0a6.9,6.9,0,0,1-.74-.87l-.09-.1c-.1-.11-.19-.22-.18-.29a.08.08,0,0,1,0-.05s.17-.12.17-.23a.6.6,0,0,1,.14-.29.58.58,0,0,0,.13-.26c0-.1.21-.26.21-.26l.13-.22a1.39,1.39,0,0,1,.22-.08h.16l.25.16.17.14.15.24a3.71,3.71,0,0,1,.19.36,1.66,1.66,0,0,0,.18.5A4.51,4.51,0,0,1,17,13.45l-.21.19ZM16.91,11h-.15l-.21.08-.13.21s-.21.16-.21.25a.62.62,0,0,1-.13.27.6.6,0,0,0-.13.27c0,.13-.17.24-.17.25a.06.06,0,0,0,0,0c0,.06.09.17.18.27l.09.1a7.16,7.16,0,0,0,.74.86l.2-.19a4.52,4.52,0,0,0,.89-1,1.53,1.53,0,0,1-.18-.49c0-.1-.19-.36-.19-.36l-.15-.24-.17-.14L16.91,11Z"/><path d="M16.29,13.17v-.06a1.28,1.28,0,0,1,.21-.18c.06,0,.06,0,0-.07a.22.22,0,0,1,0-.06s0,0,0-.06v-.16l.09-.26.1-.18h-.06l-.1-.14h0l.1.14.05,0-.09.18-.09.26v.14a.2.2,0,0,0,0,.08.15.15,0,0,0,0,.06s0,0-.05.09a1.35,1.35,0,0,0-.21.18l0,.06Zm.49,0,.15-.15.09-.24,0,0,.11-.28.11-.14h0l-.11.14,0,.12-.08.16,0,0-.09.24-.15.14ZM16,12.84l.11-.11a2.23,2.23,0,0,1,0-.3c0-.12.08-.12.08-.12l.11-.18,0-.14v-.1s0-.16.08-.22l.11-.1,0-.28h0l0,.28-.12.11c-.07.06-.07.21-.07.21V12l0,.14-.12.18s-.08,0-.08.12,0,.3,0,.3l-.12.1Zm-.11-.19,0-.1-.08-.1,0-.2.11-.2a.74.74,0,0,1,.16-.12c.07,0,0-.25,0-.25h0s.1.22,0,.27a.8.8,0,0,0-.15.12l-.12.2,0,.2.08.1-.06.1Zm1.76-.08-.14-.17-.23-.08a.51.51,0,0,1-.06-.14L17.2,12l-.11-.06-.23-.38h0l.23.38.11.06.06.19a.47.47,0,0,0,.06.14l.23.08.13.18Zm-1.35-.42,0-.1.25-.12s.09-.24.17-.38,0-.06.06-.06l0,0h0s0,0,.09-.11h0a2.57,2.57,0,0,1,0-.38h0a2.86,2.86,0,0,0,0,.38c-.06.11-.08.12-.09.12l0,0h0s0,0-.05.06-.17.38-.17.38l-.25.12,0,.1ZM17.61,12l-.07-.12-.05,0-.08-.12-.13-.06-.08-.18-.07-.06-.15,0h0l.15,0,.08.06.08.18.13.06.08.12h.05l.06.12Z"/><path class="cls-20" d="M19.95,11.52a.15.15,0,1,1-.15-.16.15.15,0,0,1,.15.16Z"/><path class="cls-21" d="M19.8,11.69a.18.18,0,0,1,0-.35.18.18,0,0,1,0,.35Zm0-.31a.14.14,0,0,0,0,.27.14.14,0,0,0,0-.27Z"/><path class="cls-20" d="M20.37,10.36a.13.13,0,1,1-.13-.14.14.14,0,0,1,.13.14Z"/><path class="cls-21" d="M20.24,10.52a.16.16,0,1,1,.15-.16.16.16,0,0,1-.15.16Zm0-.28a.12.12,0,0,0-.11.12.11.11,0,1,0,.23,0,.12.12,0,0,0-.11-.12Z"/><path class="cls-20" d="M20,8.87a.13.13,0,1,1-.27,0,.13.13,0,1,1,.27,0Z"/><path class="cls-21" d="M19.82,9A.16.16,0,1,1,20,8.87a.16.16,0,0,1-.15.16Zm0-.28a.12.12,0,1,0,.11.12.11.11,0,0,0-.11-.12Z"/><path class="cls-22" d="M15.37,11.17v-.58l-.06,0V10.4h.1l0-.66-.07,0V9.58s.07,0,.07,0,0-.13,0-.13,0,0,0,0,.06-.07.06-.07a.19.19,0,0,1,0,0s0-.11,0-.11l0-.11,0-.06,0-.09.07-.07a1.1,1.1,0,0,1,0-.11.39.39,0,0,1,.06-.11l.08-.12.16,0,.19,0,.1.07,0,.18a.46.46,0,0,1,0,.11l-.08,0a.35.35,0,0,1-.11,0,.81.81,0,0,0,0,.12v.27a.28.28,0,0,1,0,.08l0,0v.15l.15,0v.09h-.1l0,.61.15,0v.17l-.07,0,0,.61Z"/><path class="cls-23" d="M15.92,11.2h-.55l0-.61,0,0V10.4l.12,0V9.73l-.06,0,0-.12a.17.17,0,0,1,.08,0,.47.47,0,0,1,0-.12s0,0,0,0,0,0,.05-.08,0,0,0,0a.73.73,0,0,1,0-.11l0-.12L15.34,9l.07-.09h0s0-.08,0-.1a.32.32,0,0,1,.06-.12l.08-.12.17-.05.2,0,.11.07,0,.19c0,.13,0,.13,0,.13l-.08,0h-.11s0,.06,0,.1v.27c0,.08,0,.09,0,.09l0,0v.14l.14,0v.11l-.12,0,0,.59H16v.19l-.08.06v.61ZM15.35,9.6l0,.09.06,0v.68l-.12,0,0,.12.05,0v.6l.49,0,0-.59.08-.06v-.15h-.14l0-.62.12,0V9.62l-.14,0V9.43l0-.05s0,0,0-.06V9c0-.12,0-.12,0-.13h.12l.09,0s0,0,0-.09l0-.17-.09-.05-.18,0-.15,0-.08.11a.43.43,0,0,0-.05.1s0,.07,0,.1L15.37,9l0,.07,0,.06,0,.12,0,.09,0,0-.05.09h0l0,0s0,.1,0,.13v0h0l-.07,0Z"/><path class="cls-22" d="M17.68,11.18V10.6l-.06-.05v-.14h.11l0-.66-.07,0V9.59s.07,0,.07,0,0-.13,0-.13,0,0,0,0,.05-.07.05-.07a.2.2,0,0,1,0,0,1.07,1.07,0,0,1,0-.11l0-.11,0-.06,0-.09.07-.07s0-.09,0-.11a.42.42,0,0,1,.05-.11l.08-.12.16,0,.19,0,.1.07,0,.18a.48.48,0,0,1,0,.11l-.09,0h-.1a1,1,0,0,0,0,.12v.27s0,.07,0,.08l0,0v.15l.15,0v.09h-.11l0,.61.15,0v.17l-.07,0,0,.61Z"/><path class="cls-23" d="M18.23,11.21h-.55l0-.61-.05,0v-.16l.12,0V9.74l-.06,0,0-.12a.18.18,0,0,1,.08,0,.61.61,0,0,1,0-.11s0,0,0,0,0,0,.05-.08l0,0s0-.1,0-.11l0-.12L17.65,9l.07-.09h0s0-.07,0-.1a.41.41,0,0,1,.06-.12l.08-.12.17,0,.2,0,.11.07,0,.19c0,.13,0,.13,0,.13l-.08,0h-.11a.18.18,0,0,1,0,.1v.27c0,.08,0,.09,0,.09l0,0v.14l.14,0v.11l-.12,0,0,.59h.14l0,.19-.08.06v.61Zm-.57-1.6,0,.09.06,0v.68l-.12,0,0,.12,0,0v.6l.49,0,0-.59.08-.05v-.15h-.13l0-.63.12,0V9.63l-.14,0V9.44l0-.05a.61.61,0,0,0,0-.07V9.05c0-.12,0-.12,0-.13h0l0,0h.07l.09,0s0-.05,0-.09l0-.17-.1-.06-.18,0-.15,0-.08.11-.05.1s0,.07,0,.11L17.68,9l0,.07,0,.06,0,.12a.7.7,0,0,0,0,.1l0,0-.05.09h0l0,0s0,.11,0,.13v0h0l-.07,0Z"/><path class="cls-22" d="M16.51,11.21v-.59l-.06,0v-.14h.1l0-.66-.07,0V9.61s.08,0,.08,0,0-.13,0-.13,0,0,0,0,.06-.07.06-.07l0,0a.86.86,0,0,1,0-.11l0-.11,0-.06,0-.09.07-.07s0-.09,0-.11a.31.31,0,0,1,.06-.11l.08-.12.16,0,.19,0,.11.07,0,.18s0,.11,0,.11l-.09,0s-.1,0-.1,0a.84.84,0,0,0,0,.12v.27s0,.07,0,.08l0,0v.15l.15,0v.09H17l0,.61.15,0v.17l-.06,0,0,.61Z"/><path class="cls-23" d="M17.06,11.23h-.55l0-.61,0,0v-.15l.12,0V9.76l-.06,0,0-.13a.16.16,0,0,1,.08,0,.53.53,0,0,1,0-.12s-.05,0-.05,0,0,0,.05-.07l0,0a.93.93,0,0,1,0-.11l0-.12L16.48,9l.07-.09h0s0-.08,0-.1a.35.35,0,0,1,.06-.12l.08-.12.17,0,.2,0,.11.07,0,.2c0,.13,0,.13,0,.13l-.08,0H17a.17.17,0,0,1,0,.09v.28c0,.07,0,.08,0,.09l0,0v.14l.14,0v.11l-.12,0,0,.59h.14l0,.19-.08.06v.61Zm-.57-1.6,0,.09.06,0v.67l-.12,0,0,.12,0,0v.6l.49,0,0-.59.08-.05v-.15H17l0-.63.12,0V9.65l-.14,0V9.46l0-.05s0,0,0-.07V9.07c0-.12,0-.12,0-.13h0l0,0h.07l.09,0s0-.05,0-.09l0-.17L17,8.57l-.18,0-.15,0-.08.11a.46.46,0,0,0,0,.1l0,.1L16.52,9l0,.06,0,.06,0,.12,0,.1,0,0,0,.09h0l0,0s0,.11,0,.13v0h0l-.07,0Z"/><polygon class="cls-24" points="15.51 11.17 15.51 10.71 15.76 10.71 15.76 11.19 15.51 11.17"/><polygon class="cls-24" points="16.68 11.21 16.69 10.73 16.91 10.73 16.91 11.2 16.68 11.21"/><polygon class="cls-24" points="17.83 11.2 17.81 10.76 18.05 10.74 18.05 11.21 17.83 11.2"/><rect x="15.57" y="9.8" width="0.14" height="0.24"/><rect x="16.7" y="9.81" width="0.19" height="0.23"/><rect x="17.84" y="9.83" width="0.17" height="0.23"/><path class="cls-25" d="M16.89,8.93c-.05,0-.09-.08-.12-.14l0,0,0,0s.07.15.1.15Zm-1.09,0s-.06,0-.17-.17l0,0,.16.17,0,0Zm2.3,0C18,8.92,18,8.8,18,8.78h0s.06.14.1.15Z"/><path class="cls-26" d="M15.48,8.24c.44-.15-.1-.45-.2,0-.14,0-.16.14-.47.09-.75,1.29-.2,3.36,2,5.51-3.94-3.52-2.34-6.12-1.25-6,.59,0,.29.82-.09.42Z"/><path class="cls-13" d="M17.4,8.36a.53.53,0,0,1-.15-.45h.08a.47.47,0,0,0,.11.37l0,.07Zm-.65-.09V7.85h.08v.42Zm-.44,0a.55.55,0,0,1,0-.12.4.4,0,0,1-.06.12l-.06,0a.46.46,0,0,0,.08-.27h0a1.25,1.25,0,0,1,0-.22l.07,0a.94.94,0,0,0,0,.48l-.08,0Zm.79,0v0c0-.08.07-.27,0-.36l.06-.06c.12.13.06.35,0,.44l-.09,0Zm-.21-.1-.06-.05a.59.59,0,0,1,.24-.13l0,.08a.58.58,0,0,0-.21.11Zm-.27,0c0-.07-.15,0-.17,0l-.06,0,0,0a.23.23,0,0,1,.25.09l-.07,0ZM16,7.85h-.08c0-.11-.25-.2-.33-.23l0-.07s.39.12.39.3Zm1.24,0s0-.07.18-.25l.05.06a.73.73,0,0,0-.15.17Zm-1,0a.79.79,0,0,0-.29-.2l0-.07a.86.86,0,0,1,.32.24l-.07,0Zm1.35,0-.07,0c.08-.11.38-.16.42-.16v.08c-.12,0-.32.06-.36.13Z"/><path class="cls-27" d="M17.16,8.15l0,0a.3.3,0,0,1-.15.1.31.31,0,0,1-.21,0h0a.29.29,0,0,1-.21.05.32.32,0,0,1-.18-.12l0,0h0a3.82,3.82,0,0,1-.53.2.51.51,0,0,1-.39,0l0,0,0,0a1.84,1.84,0,0,0-.59,1.21A3.34,3.34,0,0,0,15,11a7.67,7.67,0,0,0,1.77,2.69l0,0,0,0A7.22,7.22,0,0,0,18.58,11a2.5,2.5,0,0,0-.35-2.73l0,0,0,0a.18.18,0,0,1-.13.1.56.56,0,0,1-.24,0,2,2,0,0,1-.61-.24Zm0,.1a2,2,0,0,0,.62.24.68.68,0,0,0,.27,0,.32.32,0,0,0,.15-.1,2.43,2.43,0,0,1,.3,2.62,7.1,7.1,0,0,1-1.74,2.59A7.57,7.57,0,0,1,15,11a3.27,3.27,0,0,1-.22-1.42,1.75,1.75,0,0,1,.55-1.14.59.59,0,0,0,.42,0,3.4,3.4,0,0,0,.53-.19.39.39,0,0,0,.21.13.35.35,0,0,0,.24-.06.4.4,0,0,0,.24,0,.38.38,0,0,0,.16-.1Z"/><path class="cls-26" d="M18.11,8.21c-.44-.15.1-.45.2,0,.14,0,.16.14.47.09.75,1.29.19,3.36-2,5.51,3.94-3.52,2.34-6.12,1.25-6-.59,0-.29.82.09.42Z"/><path class="cls-28" d="M14.9,13a2.13,2.13,0,0,0-2.32-.4c.28.13.58.17.83.31l1.49.1Z"/><path class="cls-29" d="M14.9,13.07h0L13.41,13a2.62,2.62,0,0,0-.46-.17,3.23,3.23,0,0,1-.39-.14,0,0,0,0,1,0,0,0,0,0,0,1,0,0,2.17,2.17,0,0,1,2.36.41,0,0,0,0,1,0,0,0,0,0,0,1,0,0Zm-2.21-.44.29.1a2.56,2.56,0,0,1,.46.17l1.36.09a2.06,2.06,0,0,0-2.1-.35Z"/><path class="cls-30" d="M14.65,13h0a2.81,2.81,0,0,0-1.33-.26,0,0,0,0,1,0,0,0,0,0,0,1,0,0,3,3,0,0,1,1.35.26h0a0,0,0,0,1,0,.06l0,0Z"/><path class="cls-28" d="M14.92,13.09c-.33.07-.77.4-.9.38a5.4,5.4,0,0,1-1-.31,1.31,1.31,0,0,0-.43,0c1.21-.6,1.63-.52,2.36-.07Z"/><path class="cls-29" d="M14,13.51h0a3.38,3.38,0,0,1-.77-.22L13,13.2a.75.75,0,0,0-.27,0h-.15a0,0,0,0,1,0,0,0,0,0,0,1,0,0c1.24-.62,1.67-.51,2.39-.07a0,0,0,0,1,0,0,0,0,0,0,1,0,0,2.45,2.45,0,0,0-.54.23,1.11,1.11,0,0,1-.37.15Zm-1.18-.41.16,0,.26.09a3.42,3.42,0,0,0,.75.21h0a1.25,1.25,0,0,0,.33-.14,3.07,3.07,0,0,1,.47-.21c-.64-.38-1-.45-2,0Z"/><path class="cls-28" d="M14.12,12.2s-.41.06-.59.07a1.35,1.35,0,0,1-.73-.51.73.73,0,0,0-.5-.15,1.62,1.62,0,0,1,1.81.59Z"/><path class="cls-29" d="M13.53,12.31h0a1.4,1.4,0,0,1-.76-.52.63.63,0,0,0-.43-.14h0a0,0,0,0,1,0,0s0,0,0,0a1.65,1.65,0,0,1,1.85.6,0,0,0,0,1,0,0l0,0-.59.07h0Zm-.95-.71a.46.46,0,0,1,.25.14,1.36,1.36,0,0,0,.7.5l.51-.06a1.51,1.51,0,0,0-1.46-.57Z"/><path class="cls-28" d="M13.57,11.38a1.72,1.72,0,0,1-1.4-1.17s.2.13.17.16c.91.24,1,.44,1.23,1Z"/><path class="cls-29" d="M13.57,11.42h0a1.75,1.75,0,0,1-1.43-1.2,0,0,0,0,1,0,0,0,0,0,0,1,0,0c.11.08.16.12.17.15.87.24,1,.43,1.2,1l0,.06a0,0,0,0,1,0,0l0,0Zm-1.32-1.11a1.73,1.73,0,0,0,1.26,1c-.24-.52-.32-.69-1.17-.92,0,0,0,0,0,0a0,0,0,0,1,0,0l-.07,0Z"/><path class="cls-28" d="M14.49,12.37a1.44,1.44,0,0,0-.14-1.18,2.35,2.35,0,0,1-.38-.71c0,.69-.18,1.26.52,1.89Z"/><path class="cls-29" d="M14.49,12.41h0a1.71,1.71,0,0,1-.55-1.69c0-.07,0-.15,0-.23a0,0,0,0,1,0,0,0,0,0,0,1,0,0l0,.09a2,2,0,0,0,.34.61,1.5,1.5,0,0,1,.14,1.21,0,0,0,0,1,0,0ZM14,10.65v.07a1.66,1.66,0,0,0,.47,1.58,1.33,1.33,0,0,0-.14-1.08,1.91,1.91,0,0,1-.33-.57Z"/><path class="cls-28" d="M13.62,10.92A2.55,2.55,0,0,0,14,9.07a3.58,3.58,0,0,1-.16.43c-.61.4-.34,1-.26,1.42Z"/><path class="cls-29" d="M13.62,11h0a0,0,0,0,1,0,0l0-.17a1,1,0,0,1,.32-1.28s.13-.35.14-.4a0,0,0,0,1,0,0,0,0,0,0,1,0,0,2.6,2.6,0,0,1-.42,1.87l0,0ZM14,9.28c0,.12-.1.26-.13.26-.48.33-.36.81-.26,1.2l0,.08A2.34,2.34,0,0,0,14,9.28Z"/><path class="cls-28" d="M13.26,7.89a2.78,2.78,0,0,1,.28,2,3.25,3.25,0,0,0-.16-.42c-.61-.4-.2-1.14-.12-1.54Z"/><path class="cls-29" d="M13.54,9.89a0,0,0,0,1,0,0,3.48,3.48,0,0,0-.15-.41c-.51-.33-.33-.9-.21-1.32a2.62,2.62,0,0,0,.07-.25,0,0,0,0,1,0,0s0,0,0,0a2.72,2.72,0,0,1,.29,1.92v.06a0,0,0,0,1,0,0Zm-.13-.5s.07.13.11.25A2.58,2.58,0,0,0,13.28,8l-.05.17c-.12.41-.29.92.18,1.23Z"/><path class="cls-28" d="M13.6,8.86c1-.52.61-1.19.79-1.71a2,2,0,0,0-.79,1.71Z"/><path class="cls-29" d="M13.6,8.9h0a0,0,0,0,1,0,0,2,2,0,0,1,.8-1.73h0a0,0,0,0,1,0,0,1.47,1.47,0,0,0-.06.47,1.23,1.23,0,0,1-.75,1.25Zm.72-1.63a1.86,1.86,0,0,0-.68,1.53,1.14,1.14,0,0,0,.65-1.16,2,2,0,0,1,0-.37Z"/><path class="cls-30" d="M13.44,9.54a0,0,0,0,1,0,0c0-.21-.1-.72-.14-.93l0-.1a0,0,0,0,1,0,0,0,0,0,0,1,0,0v.09c0,.21.12.72.14.94a0,0,0,0,1,0,0Zm.29-.77h0a0,0,0,0,1,0-.05,5.52,5.52,0,0,1,.43-1,0,0,0,0,1,0,0,0,0,0,0,1,0,0s-.24.61-.36,1a0,0,0,0,1,0,0Z"/><path class="cls-28" d="M13.49,10.67c-.55,0-1.15-.83-1.31-1.44,0,0,.2.13.17.16a1.93,1.93,0,0,1,1.14,1.28Z"/><path class="cls-29" d="M13.49,10.71h0c-.55,0-1.18-.82-1.34-1.47a0,0,0,0,1,0,0,0,0,0,0,1,0,0c.11.08.16.12.18.16a1.82,1.82,0,0,1,1.06,1.13l.07.16a0,0,0,0,1,0,0l0,0ZM12.25,9.33a2,2,0,0,0,1.17,1.29l0-.1a1.74,1.74,0,0,0-1-1.1,0,0,0,0,1,0,0,0,0,0,0,1,0,0l-.07,0Z"/><path class="cls-28" d="M13.32,10.13a2.52,2.52,0,0,1-.42-1.84,3.38,3.38,0,0,0,.16.42c.61.4.34,1,.26,1.42Z"/><path class="cls-29" d="M13.32,10.17l0,0a2.6,2.6,0,0,1-.42-1.87,0,0,0,0,1,0,0,0,0,0,0,1,0,0,3.36,3.36,0,0,0,.15.41c.54.35.41.89.31,1.28l0,.17a0,0,0,0,1,0,0Zm-.39-1.67A2.37,2.37,0,0,0,13.31,10l0-.08c.1-.39.22-.87-.28-1.2h0s-.07-.12-.11-.25Z"/><path class="cls-28" d="M13.69,9c1-.47.71-1,1-1.5-.69.54-1,.91-1,1.5Z"/><path class="cls-29" d="M13.69,9.07h0a.05.05,0,0,1,0,0c0-.63.36-1,1-1.53a0,0,0,0,1,0,0,0,0,0,0,1,0,.05,1.48,1.48,0,0,0-.16.47,1.26,1.26,0,0,1-.87,1Zm.91-1.41A1.8,1.8,0,0,0,13.73,9a1.16,1.16,0,0,0,.77-1,2.09,2.09,0,0,1,.09-.34Z"/><path class="cls-30" d="M13.74,9h0a0,0,0,0,1,0-.06,2.78,2.78,0,0,0,.56-.79,0,0,0,0,1,.05,0,0,0,0,0,1,0,0,2.77,2.77,0,0,1-.57.82Z"/><path class="cls-18" d="M17.39,14.93h.5c-1.66-1.63-4.84-2.33-4.4-5.33-.46,3.25,2.6,3.55,3.9,5.32Z"/><path class="cls-19" d="M18,15h-.6a7.1,7.1,0,0,0-1.71-1.45c-1.18-.81-2.41-1.64-2.26-3.61h0c0-.1,0-.2,0-.31h.08c0,.1,0,.2,0,.3-.13,1.9,1.31,2.83,2.7,3.73a10.88,10.88,0,0,1,1.72,1.27L18,15Zm-4.16-3.31a5.46,5.46,0,0,0,1.9,1.78,6.67,6.67,0,0,1,1.7,1.46h.37a12,12,0,0,0-1.63-1.19,7,7,0,0,1-2.33-2Z"/><path class="cls-20" d="M13.75,9a.16.16,0,1,1-.32,0,.16.16,0,1,1,.32,0Z"/><path class="cls-21" d="M13.59,9.15a.19.19,0,0,1,0-.37.19.19,0,0,1,0,.37Zm0-.34a.15.15,0,0,0-.14.15.14.14,0,1,0,.28,0,.15.15,0,0,0-.14-.15Z"/><path class="cls-20" d="M13.65,9.88a.15.15,0,0,1-.15.16.16.16,0,0,1,0-.31.15.15,0,0,1,.15.16Z"/><path class="cls-21" d="M13.5,10.06a.18.18,0,1,1,.17-.18.17.17,0,0,1-.17.18Zm0-.32a.14.14,0,1,0,.13.14.14.14,0,0,0-.13-.14Z"/><path class="cls-20" d="M13.79,11.19a.13.13,0,1,1-.13-.14.14.14,0,0,1,.13.14Z"/><path class="cls-21" d="M13.66,11.35a.16.16,0,0,1-.15-.16.15.15,0,1,1,.3,0,.16.16,0,0,1-.15.16Zm0-.28a.11.11,0,0,0-.11.12.12.12,0,0,0,.11.12.12.12,0,0,0,.11-.12.12.12,0,0,0-.11-.12Z"/><path class="cls-20" d="M15,12.64a.13.13,0,1,1-.27,0,.13.13,0,1,1,.27,0Z"/><path class="cls-21" d="M14.82,12.8a.16.16,0,1,1,.15-.16.16.16,0,0,1-.15.16Zm0-.28a.11.11,0,0,0-.11.12.11.11,0,1,0,.22,0,.12.12,0,0,0-.11-.12Z"/><path class="cls-20" d="M15.12,13a.14.14,0,0,1-.13.14.14.14,0,1,1,.13-.14Z"/><path class="cls-21" d="M15,13.21a.16.16,0,1,1,.15-.16.16.16,0,0,1-.15.16Zm0-.28a.12.12,0,1,0,.11.12.12.12,0,0,0-.11-.12Z"/><path class="cls-22" d="M15.71,14.26a.65.65,0,0,1-.18-.23L15,14c0,.1,0,.21,0,.31l.71,0Z"/><path d="M15,14.31V14h.28l.26,0a.75.75,0,0,0,.19.23l-.74.06ZM15,14v.27l.68,0a.35.35,0,0,1-.19-.2L15,14Z"/><path class="cls-22" d="M11.9,13.89c.3.06.76,0,.91.17s-.56.54-.45.72.46.15.72,0c.06-.14.11-.38.14-.45s-.34-.33-.28-.67a2.76,2.76,0,0,1,1.32-.09c.07.14,0,.21,0,.32s-.25.38-.25.51c.44.16.56,0,1,0s.75.14.85-.05c-.07-.17-.5,0-.66-.14A.63.63,0,0,1,15,14c-.07-.08-.27-.08-.3-.27.08-.4.63-.34.72-.4l1.42.1c.26,0,.4.48.06.62s-1.38-.21-1.82,0c0-.1-.34-.26-.37-.26a1.73,1.73,0,0,1-.4,0c-.07.13-.14.22-.21.34-.29-.13-.57.11-.9,0l-.5.06-.32,0-.49.15.35-.32-.3-.23Z"/><path d="M12.66,15a.42.42,0,0,1-.32-.16c-.06-.1.08-.22.22-.35l.11-.1h0l-.32,0-.48.15h0a0,0,0,0,1,0,0l.35-.32-.31-.2a2,2,0,0,1,.35,0c.24,0,.48,0,.59.16s0,.17,0,.25l.37,0-.07-.1a.55.55,0,0,1-.16-.49,2.72,2.72,0,0,1,.93-.15,1.1,1.1,0,0,1,.41.05.31.31,0,0,1,0,.22.3.3,0,0,0,0,.08h.1a1.06,1.06,0,0,0,.28,0h0a.29.29,0,0,1,0-.08c.06-.31.39-.36.59-.39l.14,0,1.43.1h0a.3.3,0,0,1,.27.26.34.34,0,0,1-.21.4,2,2,0,0,1-.76,0,2.35,2.35,0,0,0-1,0l.1,0a.55.55,0,0,0,.28,0h.07c.15,0,.29,0,.33.1a.23.23,0,0,1-.25.13l-.23,0-.39,0h0a1.46,1.46,0,0,0-.36,0,1,1,0,0,1-.6,0,.35.35,0,0,1,0-.19.89.89,0,0,0-.46,0,1.07,1.07,0,0,1-.38,0l0,0,0,.18a2.14,2.14,0,0,1-.09.29.91.91,0,0,1-.43.16Zm.5-.68-.42.06a1.11,1.11,0,0,1-.15.14c-.13.11-.26.22-.22.3.19.21.45.13.69,0,0-.07.05-.18.08-.27l.05-.17,0-.05Zm1.11-.33a.7.7,0,0,1-.06.12.93.93,0,0,0-.16.35,1.32,1.32,0,0,0,.57,0,1.27,1.27,0,0,1,.34,0,3.38,3.38,0,0,1,.43,0c.24,0,.38,0,.43-.07s-.15-.06-.29-.06l-.07,0v0a.54.54,0,0,1-.3,0,.29.29,0,0,1-.12-.08s0,0,0,0l0,0-.1-.08a.69.69,0,0,1-.15-.08l-.06,0a1.29,1.29,0,0,1-.39,0l0,0Zm-2.37,0,.32.2-.28.3.41-.12h0l.32,0h.06c.09-.1.11-.17.06-.22s-.33-.14-.56-.14a2.48,2.48,0,0,1-.34,0Zm1.31.35a2.18,2.18,0,0,0,.38,0,.79.79,0,0,1,.48,0v0a.53.53,0,0,1,.07-.14,1.93,1.93,0,0,0,.1-.17.36.36,0,0,1,0-.1.27.27,0,0,0,0-.19,1.3,1.3,0,0,0-.38,0,2.82,2.82,0,0,0-.91.13.54.54,0,0,0,.16.44l.09.13ZM15.5,14a5.35,5.35,0,0,1,.61,0,2,2,0,0,0,.74,0,.31.31,0,0,0,.19-.36.26.26,0,0,0-.23-.23l-1.43-.1s-.07,0-.14,0-.49.07-.55.35a.2.2,0,0,0,.07.11l.14.08L15,14l.06.07A1.5,1.5,0,0,1,15.5,14Z"/><path class="cls-22" d="M11.87,13.83a.13.13,0,1,1-.27,0,.13.13,0,1,1,.27,0Z"/><path d="M11.74,14a.16.16,0,1,1,.15-.16.16.16,0,0,1-.15.16Zm0-.28a.12.12,0,1,0,.11.12.12.12,0,0,0-.11-.12Z"/><path class="cls-22" d="M11.84,14.53a.13.13,0,1,1-.27,0,.13.13,0,1,1,.27,0Z"/><path d="M11.7,14.69a.16.16,0,0,1-.15-.16.16.16,0,0,1,.15-.16.16.16,0,0,1,.16.16.16.16,0,0,1-.16.16Zm0-.29a.12.12,0,0,0-.11.12.12.12,0,1,0,.23,0,.12.12,0,0,0-.12-.12Z"/><path class="cls-22" d="M17.86,14.26A.6.6,0,0,0,18,14l.52-.06v.31l-.7,0Z"/><path d="M18.58,14.31l-.73,0A1.3,1.3,0,0,0,18,14l.54-.08,0,.35Zm0-.33-.5.08a.49.49,0,0,1-.17.22l.34,0h.33V14Z"/><path class="cls-22" d="M21.67,13.89c-.3.06-.76,0-.91.17s.56.54.45.72-.46.15-.72,0c-.06-.13-.11-.38-.14-.45s.34-.33.28-.67a2.75,2.75,0,0,0-1.32-.09c-.07.14,0,.21,0,.32s.25.38.25.51c-.44.16-.56,0-1,0s-.75.14-.85-.06c.07-.17.5,0,.66-.14a.55.55,0,0,0,.2-.17c.07-.08.27-.08.3-.26-.08-.4-.63-.34-.72-.4l-1.42.1c-.26,0-.4.48-.06.63s1.38-.22,1.82,0c0-.1.34-.25.37-.26a1.4,1.4,0,0,0,.4,0c.07.13.14.22.2.35.3-.13.58.11.9,0l.5.06.32,0,.48.15-.35-.33.3-.23Z"/><path d="M20.91,15a.93.93,0,0,1-.42-.15,1.72,1.72,0,0,1-.1-.3,1,1,0,0,0,0-.16l0-.06a.92.92,0,0,1-.39,0,.72.72,0,0,0-.45,0,.43.43,0,0,1,0,.16.84.84,0,0,1-.62.05,1.41,1.41,0,0,0-.33,0l-.43,0-.23,0a.24.24,0,0,1-.24-.12c0-.11.17-.12.32-.12h.07a.55.55,0,0,0,.27,0,.29.29,0,0,0,.1-.06,2.57,2.57,0,0,0-1,0,2,2,0,0,1-.76,0,.35.35,0,0,1-.21-.4.3.3,0,0,1,.27-.26l1.43-.1.15,0c.2,0,.52.08.59.38a.2.2,0,0,1,0,.08,1.41,1.41,0,0,0,.39,0,.55.55,0,0,0,0-.08.31.31,0,0,1,0-.22,1,1,0,0,1,.42-.05,3,3,0,0,1,.92.13.54.54,0,0,1-.14.51l-.08.11.37,0c-.07-.07-.11-.16,0-.24s.35-.15.59-.16a2,2,0,0,0,.33,0l-.29.27.35.29s0,0,0,0h0l-.49-.15-.32,0h0l.12.1c.14.13.28.25.22.35a.43.43,0,0,1-.33.16Zm-.51-.67s0,0,0,.06a.65.65,0,0,1,.05.16,2,2,0,0,0,.09.28c.22.11.49.2.68,0,0-.07-.09-.18-.22-.29l-.16-.15-.43,0Zm-1.8.08a1.42,1.42,0,0,1,.37,0,.93.93,0,0,0,.58,0,1.64,1.64,0,0,0-.17-.32l-.09-.16a1.42,1.42,0,0,1-.39,0l-.05,0a.41.41,0,0,1-.12.07l-.12.08,0,0,0,0h0a.24.24,0,0,1-.11.08.55.55,0,0,1-.29,0H18c-.13,0-.26,0-.29.08s.19.09.43.06l.4,0Zm2.62-.09.41.13-.28-.26.31-.27a.64.64,0,0,1-.32.06c-.23,0-.46,0-.55.14s0,.13.08.23h0l.32,0Zm-1.52-.1a1.2,1.2,0,0,1,.28,0,1,1,0,0,0,.41,0,.66.66,0,0,1,.08-.12.51.51,0,0,0,.15-.46,3.15,3.15,0,0,0-.9-.12,1.2,1.2,0,0,0-.39,0,.3.3,0,0,0,0,.19.45.45,0,0,1,0,.11l.1.16.1.17a.26.26,0,0,1,.18-.05Zm-2.94-.69a.26.26,0,0,0-.23.23.3.3,0,0,0,.19.36,1.86,1.86,0,0,0,.74,0,2.32,2.32,0,0,1,1.06,0l0,0,0,0a.29.29,0,0,1,.11-.08l.15-.08a.2.2,0,0,0,.06-.12c-.06-.27-.35-.31-.55-.34a.47.47,0,0,1-.16,0l-1.41.11Z"/><path class="cls-22" d="M21.69,13.83a.13.13,0,1,0,.27,0,.13.13,0,1,0-.27,0Z"/><path d="M21.82,14a.16.16,0,0,1-.16-.16.16.16,0,1,1,.31,0,.16.16,0,0,1-.16.16Zm0-.28a.12.12,0,0,0,0,.24.12.12,0,0,0,0-.24Z"/><path class="cls-22" d="M21.72,14.53a.14.14,0,0,0,.13.14.14.14,0,0,0,.14-.14.14.14,0,0,0-.14-.14.13.13,0,0,0-.13.14Z"/><path d="M21.86,14.69a.16.16,0,1,1,.15-.16.16.16,0,0,1-.15.16Zm0-.28a.12.12,0,0,0-.11.12.12.12,0,0,0,.11.12.12.12,0,0,0,.11-.12.12.12,0,0,0-.11-.12Z"/><path class="cls-22" d="M16.77,13.5l-.25,0-.19.61a4.52,4.52,0,0,0,.57,0c-.18,0-.13-.61-.13-.61Z"/><polygon points="15.53 13.92 15.53 13.5 15.6 13.5 15.6 13.85 15.78 13.85 15.78 13.92 15.53 13.92"/><rect x="15.84" y="13.52" width="0.07" height="0.41"/><path d="M16.15,14H16v-.41h.11a.15.15,0,0,1,.1,0,.09.09,0,0,1,0,.08.09.09,0,0,1,0,.08.11.11,0,0,1,.07.11.11.11,0,0,1,0,.09.17.17,0,0,1-.11,0Zm0-.36v.1h0s.07,0,.07-.05,0,0-.06,0Zm0,.16v.14h0s.06,0,.07,0a.06.06,0,0,0,0-.05.06.06,0,0,0,0,0l-.07,0Z"/><polygon points="16.46 13.64 16.46 13.74 16.59 13.74 16.59 13.81 16.46 13.81 16.46 13.93 16.64 13.93 16.64 13.99 16.39 13.99 16.39 13.58 16.64 13.58 16.64 13.64 16.46 13.64"/><path d="M17,14l-.11-.17h0V14h-.07v-.42h.11c.1,0,.15,0,.15.13a.11.11,0,0,1,0,.07.09.09,0,0,1-.05,0L17,14Zm-.15-.35v.11h.09a.05.05,0,0,0,0,0,0,0,0,0,0,0,0h-.09Z"/><polygon points="17.25 13.64 17.25 13.99 17.18 13.99 17.18 13.64 17.06 13.64 17.06 13.57 17.39 13.57 17.39 13.64 17.25 13.64"/><path d="M17.65,13.93l0-.09h-.14l0,.09h-.08l.16-.42h0l.16.42Zm-.1-.3,0,.15h.09Z"/><path d="M17.79,13.89l0-.07a.15.15,0,0,0,.08,0s.06,0,.06,0a.07.07,0,0,0,0,0l-.06,0-.06,0,0,0a.2.2,0,0,1,0,0,.11.11,0,0,1,0-.08.12.12,0,0,1,.09,0,.17.17,0,0,1,.1,0l0,.06a.12.12,0,0,0-.08,0h0a0,0,0,0,0,0,0s0,0,.08.08l.06,0,0,0a.14.14,0,0,1,0,.05.11.11,0,0,1,0,.08.16.16,0,0,1-.1,0,.2.2,0,0,1-.1,0Z"/><path class="cls-30" d="M14.06,13.14a3.71,3.71,0,0,1-.46,0,0,0,0,0,1,0,0,0,0,0,0,1,0,0,6.3,6.3,0,0,0,1,0h.07a0,0,0,1,1,0,.08h-.07l-.59,0Zm.36-.87a0,0,0,0,1,0,0,3.65,3.65,0,0,0-.19-.67,2.94,2.94,0,0,1-.11-.34,0,0,0,0,1,0,0,0,0,0,0,1,0,0,3.36,3.36,0,0,0,.11.33,3.63,3.63,0,0,1,.19.69,0,0,0,0,1,0,0h0ZM14,12.19a2.78,2.78,0,0,1-1-.42,0,0,0,0,1,0-.05,0,0,0,0,1,.06,0,2.66,2.66,0,0,0,1,.4s.05,0,.05,0h0v0Zm-.56-.9h0l-.27-.22a2.37,2.37,0,0,0-.67-.44,0,0,0,0,1,0-.05,0,0,0,0,1,.05,0,2.58,2.58,0,0,1,.69.45l.26.21a0,0,0,0,1,0,.05l0,0Zm.19-.54h0a0,0,0,0,1,0,0c0-.66.13-.86.3-1a0,0,0,0,1,.06,0,0,0,0,0,1,0,.05c-.14.13-.24.28-.28,1a0,0,0,0,1,0,0Zm-.34-.18s-.63-.7-.82-.92a0,0,0,0,1,0-.05,0,0,0,0,1,.06,0l.82.92-.06.05Zm0-.71a0,0,0,0,1,0,0s0-.62-.22-.79A0,0,0,0,1,13,9a0,0,0,0,1,.05,0c.25.19.25.82.25.85a0,0,0,0,1,0,0Z"/></g></g></g></g></g></svg>