<?xml version="1.0" encoding="utf-8"?>
<!-- Generator: Adobe Illustrator 21.0.0, SVG Export Plug-In . SVG Version: 6.00 Build 0)  -->
<svg version="1.1" id="Layer_1" xmlns="http://www.w3.org/2000/svg" xmlns:xlink="http://www.w3.org/1999/xlink" x="0px" y="0px"
	 viewBox="0 0 200 200" style="enable-background:new 0 0 200 200;" xml:space="preserve">
<style type="text/css">
	.st0{fill:#BCA36A;}
	.st1{fill:#444492;}
	.st2{fill:#ACB317;}
</style>
<title>SNY</title>
<g id="g11">
	<path id="path51" class="st0" d="M195.3,70.2l-6.3-7.9l-2.9-3.4l-3.4-2.9c-14.7-12.6-34.5-9.4-51.4-3.9L117.9,56l-6.8,1.8
		c-18.4,3.8-37.9,1.7-45.4-18.1l-1.1-5.3l-0.5-5l1.1-5l1.8-5.3c7-17.5,33.6-21.9,50.1-17.3l8.2,1.6l7.4,2.4
		c22.5,7.4,40.4,22.9,53,42.8l3.9,6.8L195.3,70.2"/>
	<path id="path55" class="st1" d="M196.3,73.1l1.1,6.1l1.8,6.8c4.2,33.8-8.6,69.4-35.7,90.8l-7.9,6.3l-7.9,4.5
		c-29.9,16.8-68.4,16.4-97.9-1.1l-6.8-4.5l-6.8-5.3l5.3,1.8l5.5,1.1c26.9,4.2,49.7-3.5,65.6-26l6.3-10.2l5-10
		c12.5-28,21.7-58.9,57.2-61.7h7.4L196.3,73.1"/>
	<path id="path59" class="st2" d="M63.6,168.9l-5.3,2.4c-41.2,10.3-61.1-45.7-58-77.4l0.5-5.5l3.9,5l4.5,4.5
		c18.5,19.4,35.5,17.9,57.2,29.9l2.1,2.4l1.8,2.1c7.9,10,6.2,23.6-1.8,32.8l-2.9,1.8L63.6,168.9"/>
</g>
</svg>
