<svg xmlns="http://www.w3.org/2000/svg" xmlns:xlink="http://www.w3.org/1999/xlink" viewBox="0 0 33.56 19.58"><defs><style>.cls-1{fill:none;}.cls-2{clip-path:url(#clip-path);}.cls-3{fill:#fff;}.cls-4{fill:#2534a4;}.cls-5{fill:#bc0030;}</style><clipPath id="clip-path"><rect class="cls-1" width="33.56" height="19.58"/></clipPath></defs><title>SVK</title><g id="Layer_2" data-name="Layer 2"><g id="_4" data-name="4"><g id="SLOVAKIA"><g class="cls-2"><rect class="cls-3" width="33.56" height="19.58"/><rect class="cls-4" y="6.53" width="33.56" height="13.05"/><rect class="cls-5" y="13.05" width="33.56" height="6.53"/><g class="cls-2"><path class="cls-3" d="M5.07,4.6c-.39,0-.28.51-.33.78A14.9,14.9,0,0,0,5,11a6.3,6.3,0,0,0,2.84,3.47,4.56,4.56,0,0,0,1,.5,4.85,4.85,0,0,0,1-.53A6.29,6.29,0,0,0,12.63,11a15.18,15.18,0,0,0,.23-5.72c0-.26,0-.72-.37-.69Z"/><path class="cls-5" d="M8.81,4.89v9.79c-4.53-2.19-4-5.82-3.73-9.79Zm0,0v9.79c4.53-2.19,4-5.82,3.73-9.79Z"/><path class="cls-3" d="M9.34,7.58a7.44,7.44,0,0,1,1.43.18,1.77,1.77,0,0,1,0-1.19,7.36,7.36,0,0,1-1.43.18H8.28a7.38,7.38,0,0,1-1.43-.18,1.77,1.77,0,0,1,0,1.19,7.46,7.46,0,0,1,1.43-.18Z"/><path class="cls-3" d="M9.75,9.36a7.32,7.32,0,0,1,1.43.18,1.77,1.77,0,0,1,0-1.19,7.4,7.4,0,0,1-1.43.18H7.87a7.38,7.38,0,0,1-1.43-.18,1.79,1.79,0,0,1,0,1.19,7.3,7.3,0,0,1,1.43-.18Z"/><path class="cls-3" d="M8.21,5.27A7,7,0,0,1,8.4,6.69v6.06h.83V6.69A7.15,7.15,0,0,1,9.4,5.27a1.76,1.76,0,0,1-1.19,0"/><path class="cls-4" d="M6.93,11.28a1,1,0,0,0-1,1,.61.61,0,0,0,0,.12,5.79,5.79,0,0,0,.66.8,1,1,0,0,0,.3.05,1,1,0,1,0,0-1.93"/><path class="cls-4" d="M8.81,10.71A1.23,1.23,0,1,0,10,11.94a1.24,1.24,0,0,0-1.24-1.23"/><path class="cls-4" d="M10.69,11.28a1,1,0,1,0,0,1.93,1,1,0,0,0,.3-.05,5.51,5.51,0,0,0,.66-.8.75.75,0,0,0,0-.12,1,1,0,0,0-1-1"/><path class="cls-4" d="M6.12,12.58a7.15,7.15,0,0,0,2.69,2.11,7.11,7.11,0,0,0,2.69-2.11Z"/></g></g></g></g></g></svg>