<svg xmlns="http://www.w3.org/2000/svg" xmlns:xlink="http://www.w3.org/1999/xlink" viewBox="0 0 33.56 19.58"><defs><style>.cls-1{fill:none;}.cls-2{clip-path:url(#clip-path);}.cls-3{fill:#fff;}.cls-4{fill:#ea0020;}.cls-5{fill:#3555e2;}.cls-6{fill:#f8e72a;}</style><clipPath id="clip-path"><rect class="cls-1" width="33.56" height="19.58"/></clipPath></defs><title>SVN</title><g id="Layer_2" data-name="Layer 2"><g id="_4" data-name="4"><g id="SLOVENIA"><g class="cls-2"><rect class="cls-3" width="33.56" height="19.58"/><rect class="cls-4" y="13.05" width="33.56" height="6.53"/><rect class="cls-5" y="6.53" width="33.56" height="6.53"/><g class="cls-2"><path class="cls-4" d="M7.42,3.76l-.18.08.19,3a3.34,3.34,0,0,0,2.37,3h0a3.34,3.34,0,0,0,2.37-3l.19-3-.18-.08h0l-.19,3A3.16,3.16,0,0,1,9.8,9.6h0a3.2,3.2,0,0,1-1.27-.77,3.16,3.16,0,0,1-.91-2l-.19-3h0"/><path class="cls-5" d="M12.17,3.76a5.89,5.89,0,0,0-4.75,0l.2,3a3.16,3.16,0,0,0,.91,2A3.2,3.2,0,0,0,9.8,9.6h0A3.16,3.16,0,0,0,12,6.79"/><polyline class="cls-6" points="9.94 4.68 10.05 4.54 9.87 4.55 9.8 4.39 9.72 4.55 9.55 4.54 9.65 4.68 9.55 4.82 9.72 4.8 9.8 4.97 9.87 4.8 10.05 4.82"/><polyline class="cls-6" points="9.27 3.79 9.38 3.64 9.2 3.66 9.13 3.5 9.06 3.66 8.88 3.64 8.98 3.79 8.88 3.93 9.06 3.91 9.13 4.07 9.2 3.91 9.38 3.93"/><polyline class="cls-6" points="10.61 3.79 10.72 3.64 10.54 3.66 10.47 3.5 10.39 3.66 10.22 3.64 10.32 3.79 10.22 3.93 10.39 3.91 10.47 4.07 10.54 3.91 10.72 3.93"/><path class="cls-3" d="M11.71,7.23,10.76,6l-.38.51L9.8,5.32,9.22,6.47,8.84,6l-1,1.28a.65.65,0,0,0,.64.64.65.65,0,0,0,.32-.09h0L9,7.72a.63.63,0,0,1,.48.06.65.65,0,0,0,.32.09h0a.64.64,0,0,0,.32-.09.64.64,0,0,1,.49-.06l.15.06h0a.64.64,0,0,0,.77-.1.64.64,0,0,0,.19-.45"/><path class="cls-3" d="M8.11,7.93a2.2,2.2,0,0,0,.15.25h0a.63.63,0,0,0,.43,0l.16-.06h0a.64.64,0,0,1,.32-.09h0a.63.63,0,0,1,.32.09.64.64,0,0,0,.48.06l.15-.06h0a.65.65,0,0,1,.32-.09h0a.64.64,0,0,1,.32.09.63.63,0,0,0,.48.06l.1,0a2.54,2.54,0,0,0,.15-.25h0l-.09,0h0L11.24,8A.65.65,0,0,1,10.76,8a.64.64,0,0,0-.32-.09h0a.65.65,0,0,0-.32.09h0L10,8A.66.66,0,0,1,9.48,8a.63.63,0,0,0-.32-.09h0A.63.63,0,0,0,8.84,8h0L8.68,8A.66.66,0,0,1,8.2,8l-.09,0h0"/><path class="cls-3" d="M11.18,8.42a3.25,3.25,0,0,1-.24.27A3,3,0,0,1,9.8,9.4h0a3,3,0,0,1-1.14-.71,3.22,3.22,0,0,1-.24-.27h0a.62.62,0,0,0,.27,0l.16-.06h0a.63.63,0,0,1,.32-.08h0a.63.63,0,0,1,.32.08.63.63,0,0,0,.48.06l.15-.06h0a.65.65,0,0,1,.32-.08h0a.64.64,0,0,1,.32.08.63.63,0,0,0,.42.08h0"/></g></g></g></g></g></svg>