<?xml version="1.0" encoding="UTF-8"?>
<svg width="34px" height="20px" viewBox="0 0 34 20" version="1.1" xmlns="http://www.w3.org/2000/svg" xmlns:xlink="http://www.w3.org/1999/xlink">
    <!-- Generator: Sketch 49 (51002) - http://www.bohemiancoding.com/sketch -->
    <title>SZL</title>
    <desc>Created with Sketch.</desc>
    <defs></defs>
    <g id="Page-1" stroke="none" stroke-width="1" fill="none" fill-rule="evenodd">
        <g id="SZL">
            <rect id="Rectangle-path" fill="#4A5BB5" fill-rule="nonzero" x="0" y="0" width="33.56" height="19.58"></rect>
            <rect id="Rectangle-path" fill="#F6D928" fill-rule="nonzero" x="0" y="3.49" width="33.56" height="12.59"></rect>
            <rect id="Rectangle-path" fill="#A1001D" fill-rule="nonzero" x="0" y="4.89" width="33.56" height="9.79"></rect>
            <g id="Group" transform="translate(5.000000, 5.000000)">
                <path d="M0.23,4.58 L23.59,4.58 C23.7059798,4.58 23.8,4.6740202 23.8,4.79 C23.8,4.9059798 23.7059798,5 23.59,5 L0.23,5 C0.114020203,5 0.02,4.9059798 0.02,4.79 C0.02,4.6740202 0.114020203,4.58 0.23,4.58 Z" id="Shape" fill="#F6D928"></path>
                <path d="M23.59,5 L0.23,5 C0.11860546,4.97689916 0.0387339717,4.87876464 0.0387339717,4.765 C0.0387339717,4.65123536 0.11860546,4.55310084 0.23,4.53 L23.59,4.53 C23.7013945,4.55310084 23.781266,4.65123536 23.781266,4.765 C23.781266,4.87876464 23.7013945,4.97689916 23.59,5 Z M0.23,4.61 C0.130588745,4.61 0.05,4.69058875 0.05,4.79 C0.0472486498,4.83944675 0.064991169,4.88784272 0.0990505125,4.92379425 C0.133109856,4.95974578 0.180476819,4.98007649 0.23,4.98 L23.59,4.98 C23.6395232,4.98007649 23.6868901,4.95974578 23.7209495,4.92379425 C23.7550088,4.88784272 23.7727514,4.83944675 23.77,4.79 C23.77,4.69058875 23.6894113,4.61 23.59,4.61 L0.23,4.61 Z" id="Shape" fill="#000000" fill-rule="nonzero"></path>
                <polygon id="Shape" fill="#FFFFFF" points="21.22 2.55 20.03 2.97 21.22 3.39 22.41 2.97"></polygon>
                <path d="M21.22,3.42 L20,3 L21.25,2.55 L22.48,3 L21.22,3.45 L21.22,3.42 Z M20.1,3 L21.22,3.39 L22.34,3 L21.21,2.6 L20.1,3 Z" id="Shape" fill="#000000" fill-rule="nonzero"></path>
                <path d="M3.26,2.83 L20.44,2.83 C20.5190896,2.82982406 20.5847275,2.89108617 20.59,2.97 C20.5900994,3.00892968 20.5739848,3.04614285 20.545525,3.07270537 C20.5170652,3.09926788 20.4788304,3.11278083 20.44,3.11 L3.26,3.11 C3.19055672,3.11250379 3.12848512,3.06698462 3.11,3 C3.11527246,2.92108617 3.18091043,2.85982406 3.26,2.86 L3.26,2.83 Z" id="Shape" fill="#F6D928"></path>
                <path d="M20.44,3.13 L3.26,3.13 C3.16887302,3.13 3.095,3.05612698 3.095,2.965 C3.095,2.87387302 3.16887302,2.8 3.26,2.8 L20.44,2.8 C20.531127,2.8 20.605,2.87387302 20.605,2.965 C20.605,3.05612698 20.531127,3.13 20.44,3.13 Z M3.26,2.86 C3.19648725,2.86 3.145,2.91148725 3.145,2.975 C3.145,3.03851275 3.19648725,3.09 3.26,3.09 L20.44,3.09 C20.5035127,3.09 20.555,3.03851275 20.555,2.975 C20.555,2.91148725 20.5035127,2.86 20.44,2.86 L3.26,2.86 Z" id="Shape" fill="#000000" fill-rule="nonzero"></path>
                <path d="M19.89,3.13 L19.89,3.08 C19.9535127,3.08 20.005,3.02851275 20.005,2.965 C20.005,2.90148725 19.9535127,2.85 19.89,2.85 L19.89,2.8 C19.981127,2.8 20.055,2.87387302 20.055,2.965 C20.055,3.05612698 19.981127,3.13 19.89,3.13 Z M20.17,3.13 L20.17,3.08 C20.2335127,3.08 20.285,3.02851275 20.285,2.965 C20.285,2.90148725 20.2335127,2.85 20.17,2.85 L20.17,2.8 C20.261127,2.8 20.335,2.87387302 20.335,2.965 C20.335,3.05612698 20.261127,3.13 20.17,3.13 Z M20.03,3.13 L20.03,3.08 C20.0935127,3.08 20.145,3.02851275 20.145,2.965 C20.145,2.90148725 20.0935127,2.85 20.03,2.85 L20.03,2.8 C20.121127,2.8 20.195,2.87387302 20.195,2.965 C20.195,3.05612698 20.121127,3.13 20.03,3.13 Z" id="Shape" fill="#000000" fill-rule="nonzero"></path>
                <polygon id="Shape" fill="#FFFFFF" points="20.1 3.39 18.91 3.81 20.1 4.23 21.29 3.81"></polygon>
                <path d="M20.1,4.25 L18.84,3.81 L20.09,3.37 L21.35,3.81 L20.09,4.25 L20.1,4.25 Z M19,3.81 L20.12,4.2 L21.24,3.81 L20.12,3.41 L19,3.81 Z" id="Shape" fill="#000000" fill-rule="nonzero"></path>
                <path d="M2.14,3.67 L19.32,3.67 C19.3769604,3.65435445 19.4376122,3.67614349 19.4715944,3.72446003 C19.5055765,3.77277657 19.5055765,3.83722343 19.4715944,3.88553997 C19.4376122,3.93385651 19.3769604,3.95564555 19.32,3.94 L2.14,3.94 C2.08303956,3.95564555 2.0223878,3.93385651 1.98840563,3.88553997 C1.95442347,3.83722343 1.95442347,3.77277657 1.98840563,3.72446003 C2.0223878,3.67614349 2.08303956,3.65435445 2.14,3.67 Z" id="Shape" fill="#F6D928"></path>
                <path d="M19.32,4 L2.14,4 C2.04887302,4 1.975,3.92612698 1.975,3.835 C1.975,3.74387302 2.04887302,3.67 2.14,3.67 L19.32,3.67 C19.411127,3.67 19.485,3.74387302 19.485,3.835 C19.485,3.92612698 19.411127,4 19.32,4 Z M2.14,3.69 C2.10488033,3.6840601 2.06893681,3.69402864 2.04189327,3.71720881 C2.01484973,3.74038899 1.99950122,3.77438505 2,3.81 C2.00254435,3.84186898 2.01770055,3.87140516 2.0421063,3.89205619 C2.06651206,3.91270721 2.09814946,3.92276561 2.13,3.92 L19.32,3.92 C19.3518505,3.92276561 19.3834879,3.91270721 19.4078937,3.89205619 C19.4322995,3.87140516 19.4474556,3.84186898 19.45,3.81 C19.450117,3.77636316 19.436111,3.74422147 19.4113943,3.72140613 C19.3866777,3.6985908 19.35352,3.68719671 19.32,3.69 L2.14,3.69 Z" id="Shape" fill="#000000" fill-rule="nonzero"></path>
                <path d="M19.05,4 L19.05,3.92 C19.1125575,3.92021756 19.1647872,3.87234036 19.17,3.81 C19.1652258,3.74580724 19.1141928,3.69477425 19.05,3.69 C19.141127,3.69 19.215,3.76387302 19.215,3.855 C19.215,3.94612698 19.141127,4.02 19.05,4.02 L19.05,4 Z M18.91,4 L18.91,3.92 C18.9608227,3.90695314 18.9972754,3.86239981 19,3.81 C18.9952258,3.74580724 18.9441928,3.69477425 18.88,3.69 C18.971127,3.69 19.045,3.76387302 19.045,3.855 C19.045,3.94612698 18.971127,4.02 18.88,4.02 L18.91,4 Z M18.77,4 L18.77,3.92 C18.8325575,3.92021756 18.8847872,3.87234036 18.89,3.81 C18.8852258,3.74580724 18.8341928,3.69477425 18.77,3.69 C18.861127,3.69 18.935,3.76387302 18.935,3.855 C18.935,3.94612698 18.861127,4.02 18.77,4.02 L18.77,4 Z" id="Shape" fill="#000000" fill-rule="nonzero"></path>
                <path d="M22.12,4.62 C21.91,4.99 22.28,4.5 23.2,5.11 C23.3899966,5.26607242 23.5060316,5.49451643 23.52,5.74 C23.52,5.74 23.45,5.64 23.4,5.6 C23.35,5.56 23.46,5.97 23.48,6.11 C23.34,6.04 23.35,5.99 23.3,5.89 C23.2751994,6.08253799 23.2751994,6.27746201 23.3,6.47 C23.19,6.47 23.19,6.34 23.14,6.33 C23.14,6.47 23.14,6.63 23.14,6.79 L23,6.65 C23,6.73 22.88,6.93 22.87,7 C22.8293373,6.97134147 22.8008145,6.92855735 22.79,6.88 C22.658399,7.0350072 22.5474725,7.20643905 22.46,7.39 C22.27,7.22 21.78,6.81 21.72,6.6 C21.66,6.73 21.58,6.76 21.42,6.85 C21.35,6.51 21.12,6.12 21.24,5.85 C21.1565582,5.89426977 21.0763574,5.94439524 21,6 C21.1442745,5.38989946 21.5662804,4.882752 22.14,4.63 L22.12,4.62 Z" id="Shape" fill="#485BA3"></path>
                <path d="M22.46,7.42 L22.38,7.36 C22.1026105,7.15110059 21.8654343,6.893595 21.68,6.6 C21.68,6.73 21.57,6.77 21.42,6.85 C21.3937523,6.73470188 21.3603544,6.62114906 21.32,6.51 C21.2092962,6.29409836 21.1808635,6.04531196 21.24,5.81 C21.1702248,5.88527477 21.0892767,5.94935871 21,6 C21.1191516,5.3769754 21.5383263,4.85300695 22.12,4.6 C22.12,4.65 22.12,4.73 22.12,4.75 L22.27,4.75 C22.6313386,4.75216154 22.9822286,4.87146415 23.27,5.09 C23.4642672,5.24811691 23.5838526,5.48004008 23.6,5.73 C23.5590626,5.72691181 23.5219895,5.70466793 23.5,5.67 L23.44,5.61 C23.4498295,5.71592564 23.4733591,5.82012855 23.51,5.92 C23.51,5.99 23.51,6.06 23.51,6.1 C23.51,6.14 23.36,6.03 23.33,5.98 C23.3,5.93 23.33,5.98 23.33,6.05 C23.3058675,6.18560134 23.3058675,6.32439866 23.33,6.46 C23.27343,6.46737005 23.218046,6.43967803 23.19,6.39 C23.19,6.39 23.19,6.39 23.19,6.39 C23.2194931,6.46383022 23.2194931,6.54616978 23.19,6.62 C23.1808875,6.68970344 23.1808875,6.76029656 23.19,6.83 C23.1206586,6.79617676 23.0566457,6.75237849 23,6.7 C23,6.7 23,6.8 23,6.87 C22.9736587,6.924225 22.9535309,6.98125367 22.94,7.04 C22.8790424,7.02864704 22.831353,6.9809576 22.82,6.92 C22.7132745,7.08408001 22.6164358,7.25438271 22.53,7.43 L22.46,7.42 Z M21.69,6.58 C21.892983,6.86016071 22.1355046,7.10941894 22.41,7.32 C22.5028521,7.14575014 22.6134378,6.98154713 22.74,6.83 C22.74,6.83 22.79,6.92 22.84,6.95 C22.89,6.98 22.84,6.86 22.84,6.79 C22.8674562,6.73624736 22.8876335,6.67907842 22.9,6.62 L22.97,6.62 L23.1,6.73 C23.0737652,6.66245809 23.0737652,6.58754191 23.1,6.52 C23.1168358,6.4442576 23.1168358,6.3657424 23.1,6.29 C23.1227761,6.26962848 23.1572239,6.26962848 23.18,6.29 C23.2016309,6.32868232 23.2375129,6.35738796 23.28,6.37 C23.22,6.31 23.22,6.12 23.23,5.98 C23.24,5.84 23.23,5.86 23.23,5.82 L23.29,5.82 C23.3152566,5.88978618 23.3702138,5.94474339 23.44,5.97 C23.4051665,5.92247361 23.3812636,5.86783823 23.37,5.81 C23.37,5.66 23.29,5.51 23.37,5.46 C23.4058814,5.47458687 23.4370296,5.49881322 23.46,5.53 L23.52,5.6 C23.4791792,5.3696137 23.3588659,5.16083488 23.18,5.01 C22.8943836,4.78744079 22.5420826,4.66765846 22.18,4.67 L22.08,4.67 C22.08,4.67 22.01,4.67 22,4.67 C21.99,4.67 22,4.61 22.05,4.51 C21.49636,4.82638295 21.111724,5.37219972 21,6 C21.0633613,5.92209358 21.1415338,5.85751632 21.23,5.81 C21.1985388,6.04808853 21.2331324,6.29024416 21.33,6.51 C21.3706891,6.62103894 21.4040933,6.73461329 21.43,6.85 C21.56,6.74 21.64,6.71 21.69,6.59 L21.69,6.58 Z" id="Shape" fill="#000000" fill-rule="nonzero"></path>
                <path d="M21.33,6.44 C21.42,6.26 21.5,6.21 21.55,6.09 C21.6,5.97 21.67,5.73 21.75,5.75 C21.83,5.77 21.84,5.86 21.75,6.05 C21.6614255,6.21670942 21.5210296,6.35008548 21.35,6.43 L21.33,6.44 Z" id="Shape" fill="#980015"></path>
                <path d="M21.93,6.86 C21.93,6.73 21.93,6.67 21.93,6.59 C21.93,6.51 21.85,6.33 21.93,6.32 C22.01,6.31 22.05,6.32 22.05,6.52 C22.05,6.72 22.05,6.71 21.9,6.86 L21.93,6.86 Z" id="Shape" fill="#980015"></path>
                <path d="M22.38,7.12 C22.38,6.94 22.38,6.85 22.38,6.73 C22.38,6.61 22.26,6.37 22.38,6.35 C22.5,6.33 22.5,6.4 22.53,6.62 C22.5635229,6.7897972 22.5388633,6.96593687 22.46,7.12 L22.38,7.12 Z" id="Shape" fill="#980015"></path>
                <path d="M22.85,5.81 C22.74,5.73 22.67,5.72 22.6,5.67 C22.53,5.62 22.41,5.47 22.37,5.53 C22.33,5.59 22.37,5.64 22.49,5.72 C22.5910257,5.80164804 22.7213372,5.83784566 22.85,5.82 L22.85,5.81 Z" id="Shape" fill="#980015"></path>
                <path d="M22.77,6.43 C22.71,6.31 22.65,6.28 22.61,6.2 C22.57,6.12 22.54,5.95 22.47,5.98 C22.4,6.01 22.39,6.07 22.47,6.2 C22.55,6.33 22.59,6.36 22.77,6.43 Z" id="Shape" fill="#980015"></path>
                <path d="M1,5 C1,4.89 1,4.88 0.95,4.8 C1.04,4.8 1.05,4.95 1.17,4.87 C1.29,4.79 1.23,4.87 1.17,4.73 C1.29,4.73 1.69,4.87 1.75,4.87 C1.81,4.87 2.22,4.7 2.43,4.92 C2.64,5.14 2.57,5.34 2.57,5.62 C2.49,5.62 2.57,5.56 2.44,5.46 C2.47489001,5.79242035 2.47489001,6.12757965 2.44,6.46 C2.44,6.4 2.44,6.46 2.38,6.36 C2.29,6.6 2.19,6.65 2.19,6.93 C2.19,6.82 2.19,6.84 2.19,6.79 C2.11,6.97 1.54,7.13 1.76,7.31 C1.56,7.19 1.48,7.21 1.39,7.1 C1.34372427,7.13419114 1.30606011,7.17870334 1.28,7.23 C0.94,7.07 1.06,6.73 0.79,6.5 C0.756879888,6.57770227 0.730125271,6.65796612 0.71,6.74 C0.67794463,6.56404052 0.63452031,6.39034324 0.58,6.22 C0.53,6.31 0.53,6.27 0.43,6.4 C0.43,6.14 0.32,6.08 0.35,5.9 C0.25,5.97 0.35,5.9 0.21,6.03 C0.31,5.35 0.73,4.85 1.03,5.03 L1,5 Z" id="Shape" fill="#485BA3"></path>
                <path d="M1.76,7.27 C1.70000493,7.23340731 1.63631973,7.20324063 1.57,7.18 C1.49650093,7.15897783 1.43056517,7.11733419 1.38,7.06 C1.3684181,7.10674375 1.34805674,7.15086002 1.32,7.19 C1.15076215,7.12728333 1.02845956,6.97822706 1,6.8 C0.966284154,6.67025828 0.897017708,6.55250533 0.8,6.46 C0.810715854,6.48904309 0.810715854,6.52095691 0.8,6.55 C0.802945875,6.59662018 0.802945875,6.64337982 0.8,6.69 L0.8,6.77 L0.8,6.69 L0.8,6.49 C0.781942796,6.39871402 0.758569669,6.30856053 0.73,6.22 C0.69634569,6.25351824 0.666190297,6.29037484 0.64,6.33 L0.64,6.38 L0.64,6.31 C0.627862995,6.23241825 0.611167424,6.15561862 0.59,6.08 C0.579125968,6.0104223 0.579125968,5.9395777 0.59,5.87 L0.25,6 C0.34,5.36 0.75,4.83 1.07,4.95 C1.08669697,4.91174243 1.08669697,4.86825757 1.07,4.83 L1.01,4.76 L1.1,4.76 C1.13110901,4.77326639 1.15855375,4.79384994 1.18,4.82 C1.18,4.82 1.24,4.82 1.29,4.82 C1.34,4.82 1.29,4.82 1.29,4.71 C1.41870774,4.73061347 1.54571918,4.76069512 1.67,4.8 L1.88,4.85 L2,4.8 C2.18045825,4.7376972 2.38022379,4.77161965 2.53,4.89 C2.66483397,5.03893011 2.72055398,5.24323681 2.68,5.44 C2.68,5.49 2.68,5.55 2.68,5.61 C2.64892044,5.59597018 2.62402982,5.57107956 2.61,5.54 C2.623645,5.72307944 2.623645,5.90692056 2.61,6.09 C2.61,6.2 2.61,6.3 2.61,6.39 L2.61,6.49 L2.61,6.4 C2.58988025,6.45468235 2.5665051,6.50811124 2.54,6.56 C2.47419308,6.66851974 2.43959108,6.79308697 2.44,6.92 L2.44,7.1 L2.44,6.93 C2.43547474,6.89682025 2.43547474,6.86317975 2.44,6.83 C2.31230866,6.92704243 2.15976769,6.98597872 2,7 C1.89,7.07 1.78,7.14 1.77,7.21 C1.76,7.28 1.77,7.21 1.77,7.28 L1.76,7.27 Z M1.38,7 C1.43965645,7.04817661 1.50736688,7.08541735 1.58,7.11 L1.69,7.16 C1.69,7.07 1.81,7 1.94,6.91 C2.02925738,6.8636701 2.10765441,6.79890733 2.17,6.72 C2.18548789,6.63841854 2.21600632,6.56042702 2.26,6.49 C2.29363546,6.42502963 2.32368062,6.3582626 2.35,6.29 L2.35,6.24 L2.35,6.29 C2.35,6.23 2.35,6.15 2.35,6.08 C2.38065224,5.86106768 2.38065224,5.63893232 2.35,5.42 L2.35,5.31 L2.42,5.4 C2.44917487,5.42883757 2.47289033,5.46271679 2.49,5.5 C2.49,5.5 2.49,5.41 2.49,5.38 C2.53073182,5.19899243 2.48241004,5.00942239 2.36,4.87 C2.24793212,4.81548485 2.11954532,4.80478595 2,4.84 L1.83,4.84 L1.6,4.79 L1.27,4.7 C1.27,4.78 1.27,4.8 1.27,4.83 C1.27,4.86 1.15,4.83 1.11,4.83 C1.11,4.83 1.11,4.83 1.11,4.9 C0.86,4.77 0.46,5.18 0.34,5.83 L0.42,5.77 L0.42,5.83 C0.40080951,5.91222851 0.40080951,5.99777149 0.42,6.08 C0.42,6.08 0.42,6.19 0.42,6.26 L0.47,6.19 L0.52,6.12 C0.558448561,6.22410794 0.588543726,6.33111298 0.61,6.44 L0.61,6.55 C0.605177649,6.51349189 0.605177649,6.47650811 0.61,6.44 C0.737388133,6.51789442 0.827631159,6.64423466 0.86,6.79 C0.889982905,6.9480574 0.994186307,7.08203321 1.14,7.15 C1.14924299,7.09678631 1.18069652,7.05002116 1.2264973,7.02139567 C1.27229807,6.99277019 1.32811717,6.98498995 1.38,7 Z" id="Shape" fill="#000000" fill-rule="nonzero"></path>
                <path d="M0.62,6.08 C0.71,5.86 0.79,5.79 0.85,5.65 C0.91,5.51 0.97,5.21 1.05,5.24 C1.13,5.27 1.13,5.37 1.05,5.62 C0.96779032,5.81122622 0.827958102,5.97203327 0.65,6.08 L0.62,6.08 Z" id="Shape" fill="#980015"></path>
                <path d="M1,6.63 C1,6.44 1.09,6.36 1.12,6.24 C1.15,6.12 1.12,5.85 1.22,5.86 C1.32,5.87 1.32,5.95 1.22,6.17 C1.1887011,6.34863093 1.0968964,6.51105461 0.96,6.63 L1,6.63 Z" id="Shape" fill="#980015"></path>
                <path d="M1.37,7 C1.37,6.81 1.43,6.74 1.43,6.62 C1.43,6.5 1.43,6.25 1.43,6.25 C1.43,6.25 1.53,6.33 1.51,6.54 C1.49933307,6.7101381 1.43250744,6.87192646 1.32,7 L1.37,7 Z" id="Shape" fill="#980015"></path>
                <path d="M2.23,5.77 C2.06,5.61 1.96,5.57 1.86,5.47 C1.76,5.37 1.58,5.11 1.51,5.18 C1.44,5.25 1.51,5.33 1.68,5.51 C1.82803364,5.65890003 2.02165734,5.75395166 2.23,5.78 L2.23,5.77 Z" id="Shape" fill="#980015"></path>
                <path d="M2.13,6.4 C2.02,6.24 1.94,6.19 1.87,6.08 C1.8,5.97 1.71,5.74 1.64,5.78 C1.57,5.82 1.59,5.9 1.72,6.08 C1.81603261,6.23043124 1.96074861,6.34338032 2.13,6.4 Z" id="Shape" fill="#980015"></path>
                <path d="M18.77,4.79 C17.37,6.19 15.51,8.99 11.77,8.99 C8.51,8.99 6.18,6.2 4.77,4.79 C6.17,3.39 8.5,0.6 11.77,0.6 C15.5,0.6 17.36,3.39 18.77,4.79 Z" id="Shape" fill="#FFFFFF"></path>
                <path d="M11.78,9 C8.85,9 6.67,6.75 5.24,5.27 L4.77,4.8 C4.92,4.63 5.07,4.47 5.23,4.3 C6.67,2.82 8.84,0.57 11.78,0.57 C14.94,0.57 16.78,2.57 18.1,4.04 C18.34,4.31 18.57,4.56 18.78,4.77 L18.09,5.54 C16.77,7 14.94,9 11.78,9 Z M11.78,0.61 C8.86,0.61 6.7,2.85 5.27,4.33 L4.8,4.8 C4.9642541,4.94186925 5.12112667,5.09206639 5.27,5.25 C6.7,6.73 8.87,9 11.78,9 C14.92,9 16.78,7 18.07,5.54 C18.31,5.27 18.54,5.02 18.76,4.81 C18.5180876,4.5887164 18.2877801,4.35507109 18.07,4.11 C16.74,2.65 14.92,0.65 11.78,0.65 L11.78,0.61 Z" id="Shape" fill="#000000" fill-rule="nonzero"></path>
                <path d="M11.29,2.05 C11.66,2.46 11.35,2.63 11.75,2.66 C12.15,2.69 11.93,3.1 12.28,3.11 C12.63,3.12 12.28,4.11 12.49,4.42 C12.7,4.73 12.93,4.52 12.94,4.76 C12.95,5 12.29,4.99 12.28,5.76 C12.28,6.21 11.73,6.24 11.7,6.52 C11.67,6.8 12.75,6.95 12.7,7.18 C12.65,7.41 11.53,7.39 11.48,7.66 C11.43,7.93 13.07,8.11 13.2,8.82 C12.7278142,8.92794066 12.244295,8.97830724 11.76,8.97 C8.5,8.97 6.17,6.18 4.76,4.77 C6.16,3.37 8.49,0.58 11.76,0.58 C11.76,0.58 10.76,1.47 11.27,2.04 L11.29,2.05 Z" id="Shape" fill="#000000" fill-rule="nonzero"></path>
                <rect id="Rectangle-path" fill="#FFFFFF" fill-rule="nonzero" x="7.4" y="3.3" width="1" height="1.12"></rect>
                <rect id="Rectangle-path" fill="#FFFFFF" fill-rule="nonzero" x="7.4" y="5.16" width="1" height="1.12"></rect>
                <rect id="Rectangle-path" fill="#FFFFFF" fill-rule="nonzero" x="8.08" y="3.3" width="1" height="1.12"></rect>
                <rect id="Rectangle-path" fill="#FFFFFF" fill-rule="nonzero" x="8.08" y="5.16" width="1" height="1.12"></rect>
                <rect id="Rectangle-path" fill="#FFFFFF" fill-rule="nonzero" x="8.75" y="3.3" width="1" height="1.12"></rect>
                <rect id="Rectangle-path" fill="#FFFFFF" fill-rule="nonzero" x="8.75" y="5.16" width="1" height="1.12"></rect>
                <rect id="Rectangle-path" fill="#FFFFFF" fill-rule="nonzero" x="9.43" y="3.3" width="1" height="1.12"></rect>
                <rect id="Rectangle-path" fill="#FFFFFF" fill-rule="nonzero" x="9.43" y="5.16" width="1" height="1.12"></rect>
                <rect id="Rectangle-path" fill="#FFFFFF" fill-rule="nonzero" x="10.11" y="3.3" width="1" height="1.12"></rect>
                <rect id="Rectangle-path" fill="#FFFFFF" fill-rule="nonzero" x="10.11" y="5.16" width="1" height="1.12"></rect>
                <rect id="Rectangle-path" fill="#FFFFFF" fill-rule="nonzero" x="10.79" y="3.3" width="1" height="1.12"></rect>
                <rect id="Rectangle-path" fill="#FFFFFF" fill-rule="nonzero" x="10.79" y="5.16" width="1" height="1.12"></rect>
                <rect id="Rectangle-path" fill="#000000" fill-rule="nonzero" x="12.53" y="3.3" width="1" height="1.12"></rect>
                <rect id="Rectangle-path" fill="#000000" fill-rule="nonzero" x="12.53" y="5.16" width="1" height="1.12"></rect>
                <rect id="Rectangle-path" fill="#000000" fill-rule="nonzero" x="13.2" y="3.3" width="1" height="1.12"></rect>
                <rect id="Rectangle-path" fill="#000000" fill-rule="nonzero" x="13.2" y="5.16" width="1" height="1.12"></rect>
                <rect id="Rectangle-path" fill="#000000" fill-rule="nonzero" x="13.88" y="3.3" width="1" height="1.12"></rect>
                <rect id="Rectangle-path" fill="#000000" fill-rule="nonzero" x="13.88" y="5.16" width="1" height="1.12"></rect>
                <rect id="Rectangle-path" fill="#000000" fill-rule="nonzero" x="14.56" y="3.3" width="1" height="1.12"></rect>
                <rect id="Rectangle-path" fill="#000000" fill-rule="nonzero" x="14.56" y="5.16" width="1" height="1.12"></rect>
                <rect id="Rectangle-path" fill="#000000" fill-rule="nonzero" x="15.24" y="3.3" width="1" height="1.12"></rect>
                <rect id="Rectangle-path" fill="#000000" fill-rule="nonzero" x="15.24" y="5.16" width="1" height="1.12"></rect>
                <rect id="Rectangle-path" fill="#000000" fill-rule="nonzero" x="15.92" y="3.3" width="1" height="1.12"></rect>
                <rect id="Rectangle-path" fill="#000000" fill-rule="nonzero" x="15.92" y="5.16" width="1" height="1.12"></rect>
                <path d="M9.52,1.34 C9.32,1.72 9.86,1.22 10.69,1.84 C10.8956922,2.05744061 11.0285156,2.33357339 11.07,2.63 C10.8999993,2.57671279 10.7358292,2.50635416 10.58,2.42 C10.7913524,2.63639613 10.9219718,2.91881643 10.95,3.22 C10.82,3.13 10.75,3.15 10.71,3.04 C10.71,3.18 10.83,3.27 10.83,3.48 L10.58,3.32 C10.7,3.53 10.36,3.94 10.58,4.08 C10.2813565,4.03980417 10.0130866,3.87666707 9.84,3.63 C9.78565783,3.67715921 9.75924291,3.74885685 9.77,3.82 C9.77,3.82 9.31,3.47 9.35,3.33 C9.29736857,3.39958379 9.26609991,3.48296689 9.26,3.57 C9.05771579,3.42785174 8.90132057,3.22975113 8.81,3 L8.65,3.2 C8.57964359,2.98766037 8.60140275,2.75556273 8.71,2.56 L8.48,2.74 C8.58532371,2.14648071 8.95272187,1.63212328 9.48,1.34 L9.52,1.34 Z" id="Shape" fill="#485BA3"></path>
                <path d="M10.59,4.11 L10.52,4.11 C10.2168941,4.06767718 9.94512288,3.90099086 9.77,3.65 C9.7527774,3.70876409 9.7527774,3.77123591 9.77,3.83 C9.77,3.83 9.5,3.65 9.43,3.57 C9.36,3.49 9.3,3.39 9.31,3.34 C9.30519567,3.41992787 9.30519567,3.50007213 9.31,3.58 C9.07055124,3.45808491 8.8851476,3.25128854 8.79,3 C8.79889718,3.03612694 8.79889718,3.07387306 8.79,3.11 L8.68,3.24 L8.68,3.19 C8.61118187,2.98519141 8.62925103,2.76113382 8.73,2.57 C8.67094835,2.63436387 8.60745955,2.69451114 8.54,2.75 C8.62506784,2.13816869 8.9964207,1.60342057 9.54,1.31 C9.54,1.4 9.54,1.44 9.54,1.45 C9.54,1.46 9.54,1.45 9.63,1.45 L9.76,1.45 C10.1238183,1.4472735 10.47729,1.57098862 10.76,1.8 C10.9658972,2.02126037 11.0985879,2.30060923 11.14,2.6 C10.9713799,2.57149078 10.8089766,2.51397294 10.66,2.43 C10.8741627,2.62695507 11.0032736,2.89952249 11.02,3.19 L10.88,3.19 C10.8430628,3.17673375 10.8090877,3.15634866 10.78,3.13 L10.78,3.23 C10.8245778,3.31311165 10.8485819,3.40569881 10.85,3.5 C10.7533072,3.45654124 10.6597489,3.4064207 10.57,3.35 C10.66,3.44 10.57,3.59 10.57,3.74 C10.57,3.89 10.48,4.02 10.57,4.09 L10.62,4.09 L10.59,4.11 Z M9.77,3.61 C9.94443171,3.83430905 10.1922412,3.99007499 10.47,4.05 C10.47,3.96 10.47,3.84 10.47,3.7 C10.47,3.56 10.57,3.41 10.47,3.32 C10.5739227,3.34151522 10.6704342,3.38977098 10.75,3.46 C10.7218498,3.37468576 10.6884528,3.29119321 10.65,3.21 C10.645443,3.13774889 10.6592015,3.06551672 10.69,3 C10.7343229,3.0385813 10.7850998,3.06904746 10.84,3.09 L11,3.2 C10.9499795,2.91009029 10.8141218,2.64185843 10.61,2.43 C10.61,2.43 10.95,2.57 11.12,2.61 C11.0589677,2.32682413 10.9244599,2.06470646 10.73,1.85 C10.4475942,1.62155542 10.0931248,1.50103582 9.73,1.51 L9.6,1.51 C9.55,1.51 9.5,1.51 9.48,1.51 C9.46,1.51 9.48,1.44 9.48,1.36 C8.96493289,1.67031539 8.60253659,2.18129417 8.48,2.77 C8.5320623,2.69288102 8.60031426,2.62804166 8.68,2.58 L8.73,2.58 L8.73,2.65 C8.63144492,2.83458848 8.61335687,3.05164501 8.68,3.25 L8.68,3.16 L8.76,3.06 C8.85806689,3.2747176 9.00132983,3.46573486 9.18,3.62 C9.16173302,3.53814343 9.18407427,3.45250195 9.24,3.39 C9.24,3.51 9.59,3.8 9.69,3.87 C9.65710016,3.80304494 9.67840464,3.7220879 9.74,3.68 L9.77,3.61 Z" id="Shape" fill="#000000" fill-rule="nonzero"></path>
                <path d="M9,3.17 C9,2.91 9.1,2.81 9.12,2.65 C9.14,2.49 9.12,2.14 9.22,2.15 C9.32,2.16 9.35,2.27 9.3,2.56 C9.27040743,2.79097398 9.16487429,3.00555801 9,3.17 Z" id="Shape" fill="#980015"></path>
                <path d="M9.58,3.64 C9.58,3.43 9.58,3.33 9.58,3.19 C9.58,3.05 9.48,2.78 9.58,2.76 C9.68,2.74 9.72,2.82 9.72,3.07 C9.73993849,3.27042279 9.69052162,3.47162005 9.58,3.64 Z" id="Shape" fill="#980015"></path>
                <path d="M10.43,4 C10.34,3.81 10.26,3.75 10.2,3.64 C10.14,3.53 10.07,3.25 9.99,3.28 C9.91,3.31 9.91,3.4 9.99,3.61 C10.0755838,3.78135478 10.2165338,3.91878104 10.39,4 L10.43,4 Z" id="Shape" fill="#980015"></path>
                <path d="M10.72,2.34 C10.49,2.22 10.37,2.22 10.22,2.14 C10.07,2.06 9.8,1.84 9.75,1.93 C9.7,2.02 9.75,2.11 10.04,2.23 C10.2500263,2.34627072 10.4930508,2.38853585 10.73,2.35 L10.72,2.34 Z" id="Shape" fill="#980015"></path>
                <path d="M10.8,3 C10.63,2.86 10.53,2.84 10.42,2.75 C10.31,2.66 10.13,2.43 10.07,2.5 C10.01,2.57 10.07,2.64 10.25,2.79 C10.4029179,2.92252624 10.5976701,2.99688614 10.8,3 Z" id="Shape" fill="#980015"></path>
            </g>
        </g>
    </g>
</svg>