<?xml version="1.0" encoding="utf-8"?>
<!-- Generator: Adobe Illustrator 21.0.0, SVG Export Plug-In . SVG Version: 6.00 Build 0)  -->
<svg version="1.1" id="Layer_1" xmlns="http://www.w3.org/2000/svg" xmlns:xlink="http://www.w3.org/1999/xlink" x="0px" y="0px"
	 viewBox="0 0 200 200" style="enable-background:new 0 0 200 200;" xml:space="preserve">
<style type="text/css">
	.st0{fill:#00A9E1;}
</style>
<title>T</title>
<path class="st0" d="M98.4,0C80.1,0,62.1,5,46.5,14.5c-4.5,2.8-7.1,5-7.1,7.8c0,8.4,19.7,17.5,54.7,17.5c34.6,0,61.5-9.9,61.5-19.5
	c0-2.3-2-3.9-6-6.3C134.1,4.8,116.4-0.1,98.4,0z M35.5,23.6c-0.1,0-0.1,0-0.2,0.1c-5.2,4.4-9.9,9.3-14.1,14.6
	c-2,2.5-3.2,4.7-3.2,6.1c0,19.4,48.8,33.6,94.4,33.6c48.6,0,70.3-15.9,70.3-29.8c0-5-1.9-7.9-6.9-13.5c-3-3.4-6.1-6.6-9.5-9.6
	c-0.2-0.1-0.3,0-0.2,0.1c0.4,0.7,0.6,1.5,0.6,2.3c0,11.1-34,30.8-88.1,30.8c-39.8,0-47.2-14.7-47.2-24.1c0-3.3,1.3-6.8,4.1-10.3
	C35.6,23.8,35.6,23.7,35.5,23.6L35.5,23.6z M189.8,55.8c-0.1,0-0.1,0.1-0.1,0.2c0.9,26-71.6,42.7-108.1,42.7C42,98.6,9,82.9,9,63
	c0.1-2,0.4-3.9,0.9-5.8c0.1-0.2-0.1-0.2-0.2-0.1c-3.2,6.6-5.6,13.6-7.2,20.7C2,79.4,2.2,81.2,3,82.7c6.2,13,37.2,33.8,109.6,33.8
	c44.2,0,78.5-10.8,84-30.7c1-3.7,1.1-7.5-0.2-12.6c-1.6-6-3.8-11.7-6.6-17.3L189.8,55.8L189.8,55.8z M199.9,94.4
	c-0.1,0-0.1,0.1-0.1,0.2c-3.7,19.5-66,45.6-119.8,45.6c-51.2,0-75.4-23.8-79.7-40.1C0.2,99.8,0,99.8,0,100c0,5.8,0.5,11.5,1.5,17.2
	c0.9,3.3,2.6,6.3,5,8.7c12.4,12.9,43.3,31,96.8,31c72.9,0,89.6-24.3,93-32.2c2.4-5.7,3.7-16,3.7-24.7c0-2.1-0.1-3.8-0.1-5.4
	C199.9,94.5,199.9,94.4,199.9,94.4L199.9,94.4z M193.1,136.4c-0.1,0-0.1,0.1-0.2,0.1c-15,22.2-58.6,36-103.6,36
	c-31.8,0-66-10.2-79.4-29.6c-0.1-0.2-0.3-0.1-0.2,0.1C22.2,169.6,60,184,106.8,184c24.6,0,51.7-6.7,67.8-20c5-4.2,9.2-9.2,12.4-14.9
	c2.3-4,4.3-8.2,6-12.5C193.2,136.5,193.1,136.4,193.1,136.4L193.1,136.4z M166,175c-0.1,0-0.1,0-0.1,0.1
	c-7.9,5.2-30.4,16.8-65.8,16.8c-30.8,0-50.2-6.9-61.2-13c-0.2-0.1-0.3,0.1-0.1,0.2c37.9,29.4,91.2,27.8,127.3-3.8
	C166.1,175.1,166.1,175,166,175L166,175z"/>
</svg>
