<svg xmlns="http://www.w3.org/2000/svg" xmlns:xlink="http://www.w3.org/1999/xlink" viewBox="0 0 33.56 19.58"><defs><style>.cls-1{fill:none;}.cls-2{clip-path:url(#clip-path);}.cls-3{fill:#2d6b4f;}.cls-4{fill:#f5cd28;}.cls-5{fill:#c0003b;}.cls-6{fill:#fff;}</style><clipPath id="clip-path"><rect class="cls-1" width="33.56" height="19.58"/></clipPath></defs><title>TON_1</title><g id="Layer_2" data-name="Layer 2"><g id="_4" data-name="4"><g id="TOGO"><g class="cls-2"><rect class="cls-3" width="33.56" height="19.58"/><rect class="cls-4" y="3.91" width="33.56" height="3.91"/><rect class="cls-4" y="11.75" width="33.56" height="3.92"/><rect class="cls-5" width="11.74" height="11.75"/><polygon class="cls-6" points="5.87 2.15 4.72 5.69 6.49 6.26 5.87 2.15"/><polygon class="cls-6" points="5.87 2.15 7.02 5.69 5.25 6.26 5.87 2.15"/><polygon class="cls-6" points="9.41 4.72 5.69 4.72 5.69 6.58 9.41 4.72"/><polygon class="cls-6" points="9.41 4.72 6.4 6.91 5.31 5.4 9.41 4.72"/><polygon class="cls-6" points="2.33 4.72 5.34 6.91 6.44 5.4 2.33 4.72"/><polygon class="cls-6" points="2.33 4.72 6.05 4.72 6.05 6.58 2.33 4.72"/><polygon class="cls-6" points="8.06 8.88 6.91 5.34 5.14 5.92 8.06 8.88"/><polygon class="cls-6" points="8.06 8.88 5.05 6.7 6.14 5.19 8.06 8.88"/><polygon class="cls-6" points="3.68 8.88 6.7 6.7 5.6 5.19 3.68 8.88"/><polygon class="cls-6" points="3.68 8.88 4.84 5.34 6.61 5.92 3.68 8.88"/></g></g></g></g></svg>