<?xml version="1.0" encoding="UTF-8"?>
<svg width="34px" height="20px" viewBox="0 0 34 20" version="1.1" xmlns="http://www.w3.org/2000/svg" xmlns:xlink="http://www.w3.org/1999/xlink">
    <!-- Generator: Sketch 49 (51002) - http://www.bohemiancoding.com/sketch -->
    <title>TJS</title>
    <desc>Created with Sketch.</desc>
    <defs></defs>
    <g id="Page-1" stroke="none" stroke-width="1" fill="none" fill-rule="evenodd">
        <g id="TJS" fill-rule="nonzero">
            <rect id="Rectangle-path" fill="#58B44D" x="0" y="13.99" width="33.56" height="5.59"></rect>
            <rect id="Rectangle-path" fill="#FFFFFF" x="0" y="5.59" width="33.56" height="8.4"></rect>
            <rect id="Rectangle-path" fill="#EA0042" x="0" y="0" width="33.56" height="5.59"></rect>
            <g id="Group" transform="translate(12.000000, 6.000000)" fill="#CFB428">
                <path d="M4.76,5.78 C5.11613456,6.06988493 5.60891837,6.12463868 6.02,5.92 C6.15701492,6.12386772 6.37219395,6.26204447 6.61458556,6.30181184 C6.85697717,6.34157922 7.10502694,6.27940094 7.3,6.13 C6.77603772,6.09600088 6.29674151,5.82317073 6,5.39 C5.67592635,5.56331507 5.27865136,5.51961482 5,5.28 L5,3.7 L5.81,2.9 C5.616613,2.49868041 5.21048394,2.24356231 4.765,2.24356231 C4.31951606,2.24356231 3.913387,2.49868041 3.72,2.9 L4.53,3.7 L4.53,5.29 C4.25134864,5.52961482 3.85407365,5.57331507 3.53,5.4 C3.23751074,5.83432268 2.76215061,6.11069485 2.24,6.15 C2.43497306,6.29940094 2.68302283,6.36157922 2.92541444,6.32181184 C3.16780605,6.28204447 3.38298508,6.14386772 3.52,5.94 C3.93108163,6.14463868 4.42386544,6.08988493 4.78,5.8 L4.76,5.78 Z M4.76,3.42 C4.61661495,3.19578788 4.40164527,3.02663142 4.15,2.94 C4.29047559,2.73411909 4.52088154,2.60776744 4.77,2.6 C5.01956261,2.60612909 5.25066709,2.7328638 5.39,2.94 C5.1350421,3.02536407 4.91650653,3.1945529 4.77,3.42 L4.76,3.42 Z" id="Shape"></path>
                <path d="M4.76,6.6 C4.21854678,6.56322825 3.68721204,6.75974932 3.3,7.14 L3.09,6.91 C3.28,6.68 3.53,6.6 3.6,6.31 C3.63725161,6.18423533 3.60701061,6.04815085 3.52,5.95 C3.70608422,6.15335609 3.97509633,6.26022391 4.25,6.24 C4.47136236,6.21118083 4.66510571,6.07705082 4.77,5.88 M4.77,5.88 C4.87289316,6.07443739 5.06233265,6.20815938 5.28,6.24 C5.55490367,6.26022391 5.82391578,6.15335609 6.01,5.95 C5.9246983,6.04901558 5.8946627,6.18417575 5.93,6.31 C6,6.6 6.25,6.68 6.44,6.91 L6.23,7.14 C5.84278796,6.75974932 5.31145322,6.56322825 4.77,6.6" id="Shape"></path>
                <polygon id="Shape" points="8.35 4.01 8.49 4.44 8.95 4.44 8.58 4.71 8.72 5.15 8.35 4.88 7.98 5.15 8.12 4.71 7.75 4.44 8.21 4.44"></polygon>
                <polygon id="Shape" points="7.87 2.23 8.01 2.66 8.47 2.66 8.1 2.93 8.24 3.36 7.87 3.09 7.5 3.36 7.64 2.93 7.27 2.66 7.73 2.66"></polygon>
                <polygon id="Shape" points="6.57 0.92 6.71 1.35 7.16 1.35 6.8 1.63 6.94 2.05 6.57 1.79 6.2 2.05 6.34 1.63 5.96 1.35 6.42 1.35"></polygon>
                <polygon id="Shape" points="4.78 0.44 4.92 0.88 5.38 0.88 5.01 1.14 5.15 1.58 4.78 1.31 4.41 1.58 4.55 1.14 4.18 0.88 4.64 0.88"></polygon>
                <polygon id="Shape" points="3 0.92 3.14 1.35 3.6 1.35 3.22 1.63 3.37 2.05 3 1.79 2.63 2.05 2.77 1.63 2.4 1.35 2.86 1.35"></polygon>
                <polygon id="Shape" points="1.69 2.23 1.83 2.66 2.29 2.66 1.92 2.93 2.06 3.36 1.69 3.09 1.32 3.36 1.46 2.93 1.09 2.66 1.55 2.66"></polygon>
                <polygon id="Shape" points="1.21 4.01 1.35 4.44 1.81 4.44 1.44 4.71 1.58 5.15 1.21 4.88 0.84 5.15 0.98 4.71 0.61 4.44 1.07 4.44"></polygon>
            </g>
        </g>
    </g>
</svg>