<?xml version="1.0" encoding="utf-8"?>
<!-- Generator: Adobe Illustrator 21.0.0, SVG Export Plug-In . SVG Version: 6.00 Build 0)  -->
<svg version="1.1" id="Layer_1" xmlns="http://www.w3.org/2000/svg" xmlns:xlink="http://www.w3.org/1999/xlink" x="0px" y="0px"
	 viewBox="0 0 200 200" style="enable-background:new 0 0 200 200;" xml:space="preserve">
<style type="text/css">
	.st0{fill:#FF0000;}
</style>
<title>TM</title>
<path id="path4142" class="st0" d="M93.7,158.5c-10.5-6.6-18.2-29.2-18.2-56.1c0-1,0-2,0-2.9l0,0l0,0l0,0
	c-29.1-4.6-50.2-17.1-50.8-32l0,0l-0.1,0.2l0,0c-7.1,8.9-11.2,19.1-11.2,30c0,32.1,35.3,58.5,80,60.8l0,0L93.7,158.5L93.7,158.5z
	 M0.1,100c0-36,44.7-65.1,99.9-65.1S199.9,64,199.9,100s-44.7,65.1-99.9,65.1S0.1,136,0.1,100z M100,44.3
	c10.7,0,19.7,16.2,23.1,38.7l0,0l0,0l0,0c20.7-3.2,35.2-10.7,35.2-19.3c0-11.6-26.1-21-58.3-21s-58.3,9.4-58.3,21
	c0,8.6,14.5,16.1,35.2,19.3l0,0l0,0l0,0C80.3,60.5,89.3,44.3,100,44.3z M106.4,158.4c44.7-2.3,80-28.7,80-60.8
	c0-10.9-4.1-21.2-11.2-30l0,0l-0.1-0.2l0,0c-0.5,14.8-21.6,27.4-50.7,32l0,0l0,0l0,0c0,1,0,1.9,0,2.9c0,26.9-7.7,49.6-18.2,56.1l0,0
	h0.2L106.4,158.4z M100,84.7c4.8,0,9.4-0.2,13.9-0.6l0,0c-2.2-14.5-7.6-24.7-13.8-24.7S88.4,69.6,86.2,84.1l0,0
	C90.6,84.5,95.2,84.7,100,84.7L100,84.7z M100,138.2c8,0,14.6-16.7,14.9-37.6l0,0h0.1l0,0c-4.8,0.4-9.8,0.7-14.9,0.7
	s-10.1-0.2-14.9-0.7l0,0h0.1l0,0C85.4,121.5,92,138.2,100,138.2L100,138.2z"/>
</svg>
