<?xml version="1.0" encoding="UTF-8"?>
<svg width="34px" height="20px" viewBox="0 0 34 20" version="1.1" xmlns="http://www.w3.org/2000/svg" xmlns:xlink="http://www.w3.org/1999/xlink">
    <!-- Generator: Sketch 49 (51002) - http://www.bohemiancoding.com/sketch -->
    <title>TMT</title>
    <desc>Created with Sketch.</desc>
    <defs></defs>
    <g id="Page-1" stroke="none" stroke-width="1" fill="none" fill-rule="evenodd">
        <g id="TMT">
            <rect id="Rectangle-path" fill="#307359" fill-rule="nonzero" x="0" y="0" width="33.56" height="19.58"></rect>
            <rect id="Rectangle-path" fill="#BF0236" fill-rule="nonzero" x="3.52" y="0" width="5.29" height="19.58"></rect>
            <polygon id="Shape" fill="#E0852A" points="3.52 5.47 3.52 5.32 3.75 4.94 3.69 4.86 3.83 4.66 3.79 4.58 3.69 4.73 3.66 4.66 3.96 4.13 4.02 4.2 3.96 4.28 4.06 4.43 4.29 4.05 4.06 3.69 3.96 3.82 4.02 3.9 3.96 3.97 3.66 3.44 3.69 3.37 3.79 3.52 3.83 3.44 3.69 3.24 3.75 3.16 3.52 2.78 3.52 2.63 3.83 3.16 3.79 3.24 3.92 3.44 3.83 3.6 3.92 3.75 4.06 3.52 4.36 4.05 4.06 4.58 3.92 4.35 3.83 4.5 3.92 4.66 3.79 4.86 3.83 4.94"></polygon>
            <polygon id="Shape" fill="#E0852A" points="3.52 3.6 3.58 3.75 3.58 3.97 3.72 3.97 3.79 4.05 3.72 4.13 3.58 4.13 3.58 4.35 3.52 4.5"></polygon>
            <polygon id="Shape" fill="#E0852A" points="3.52 9.06 3.52 8.91 3.75 8.54 3.69 8.46 3.83 8.23 3.79 8.15 3.69 8.3 3.66 8.23 3.96 7.72 4.02 7.8 3.96 7.87 4.06 8.02 4.29 7.64 4.06 7.29 3.96 7.42 4.02 7.5 3.96 7.57 3.66 7.04 3.69 6.96 3.79 7.11 3.83 7.04 3.69 6.81 3.75 6.73 3.52 6.38 3.52 6.23 3.83 6.73 3.79 6.81 3.92 7.04 3.83 7.19 3.92 7.34 4.06 7.11 4.36 7.64 4.06 8.15 3.92 7.95 3.83 8.1 3.92 8.23 3.79 8.46 3.83 8.54"></polygon>
            <polygon id="Shape" fill="#E0852A" points="3.52 7.19 3.58 7.34 3.58 7.57 3.72 7.57 3.79 7.64 3.72 7.72 3.58 7.72 3.58 7.95 3.52 8.1"></polygon>
            <polygon id="Shape" fill="#E0852A" points="3.52 12.66 3.52 12.51 3.75 12.13 3.69 12.05 3.83 11.82 3.79 11.75 3.69 11.9 3.66 11.82 3.96 11.31 4.02 11.37 3.96 11.45 4.06 11.6 4.29 11.24 4.06 10.86 3.96 11.01 4.02 11.09 3.96 11.16 3.66 10.63 3.69 10.56 3.79 10.71 3.83 10.63 3.69 10.41 3.75 10.33 3.52 9.95 3.52 9.8 3.83 10.33 3.79 10.41 3.92 10.63 3.83 10.78 3.92 10.93 4.06 10.71 4.36 11.24 4.06 11.75 3.92 11.52 3.83 11.67 3.92 11.82 3.79 12.05 3.83 12.13"></polygon>
            <polygon id="Shape" fill="#E0852A" points="3.52 10.78 3.58 10.93 3.58 11.16 3.72 11.16 3.79 11.24 3.72 11.31 3.58 11.31 3.58 11.52 3.52 11.67"></polygon>
            <polygon id="Shape" fill="#E0852A" points="3.52 16.02 3.52 15.87 3.75 15.5 3.69 15.42 3.83 15.19 3.79 15.11 3.69 15.27 3.66 15.19 3.96 14.66 4.02 14.74 3.96 14.81 4.06 14.96 4.29 14.59 4.06 14.23 3.96 14.38 4.02 14.45 3.96 14.53 3.66 14 3.69 13.92 3.79 14.08 3.83 14 3.69 13.77 3.75 13.7 3.52 13.32 3.52 13.17 3.83 13.7 3.79 13.77 3.92 14 3.83 14.15 3.92 14.3 4.06 14.08 4.36 14.6 4.06 15.11 3.92 14.89 3.83 15.04 3.92 15.19 3.79 15.42 3.83 15.5"></polygon>
            <polygon id="Shape" fill="#E0852A" points="3.52 14.15 3.58 14.3 3.58 14.53 3.72 14.53 3.79 14.59 3.72 14.66 3.58 14.66 3.58 14.89 3.52 15.04"></polygon>
            <polygon id="Shape" fill="#E0852A" points="8.81 5.47 8.81 5.32 8.58 4.94 8.64 4.86 8.51 4.66 8.55 4.58 8.64 4.73 8.68 4.66 8.38 4.13 8.32 4.2 8.38 4.28 8.28 4.43 8.07 4.05 8.28 3.69 8.38 3.82 8.32 3.9 8.38 3.97 8.68 3.44 8.64 3.37 8.55 3.52 8.51 3.44 8.64 3.24 8.58 3.16 8.81 2.78 8.81 2.63 8.51 3.16 8.55 3.24 8.41 3.44 8.51 3.6 8.41 3.75 8.28 3.52 7.98 4.05 8.28 4.58 8.41 4.35 8.51 4.5 8.41 4.66 8.55 4.86 8.51 4.94"></polygon>
            <polygon id="Shape" fill="#E0852A" points="8.81 3.6 8.77 3.75 8.77 3.97 8.64 3.97 8.55 4.05 8.64 4.13 8.77 4.13 8.77 4.35 8.81 4.5"></polygon>
            <polygon id="Shape" fill="#E0852A" points="8.81 9.06 8.81 8.91 8.58 8.54 8.64 8.46 8.51 8.23 8.55 8.15 8.64 8.3 8.68 8.23 8.38 7.72 8.32 7.8 8.38 7.87 8.28 8.02 8.07 7.64 8.28 7.29 8.38 7.42 8.32 7.5 8.38 7.57 8.68 7.04 8.64 6.96 8.55 7.11 8.51 7.04 8.64 6.81 8.58 6.73 8.81 6.38 8.81 6.23 8.51 6.73 8.55 6.81 8.41 7.04 8.51 7.19 8.41 7.34 8.28 7.11 7.98 7.64 8.28 8.15 8.41 7.95 8.51 8.1 8.41 8.23 8.55 8.46 8.51 8.54"></polygon>
            <polygon id="Shape" fill="#E0852A" points="8.81 7.19 8.77 7.34 8.77 7.57 8.64 7.57 8.55 7.64 8.64 7.72 8.77 7.72 8.77 7.95 8.81 8.1"></polygon>
            <polygon id="Shape" fill="#E0852A" points="8.81 12.66 8.81 12.51 8.58 12.13 8.64 12.05 8.51 11.82 8.55 11.75 8.64 11.9 8.68 11.82 8.38 11.31 8.32 11.37 8.38 11.45 8.28 11.6 8.07 11.24 8.28 10.86 8.38 11.01 8.32 11.09 8.38 11.16 8.68 10.63 8.64 10.56 8.55 10.71 8.51 10.63 8.64 10.41 8.58 10.33 8.81 9.95 8.81 9.8 8.51 10.33 8.55 10.41 8.41 10.63 8.51 10.78 8.41 10.93 8.28 10.71 7.98 11.24 8.28 11.75 8.41 11.52 8.51 11.67 8.41 11.82 8.55 12.05 8.51 12.13"></polygon>
            <polygon id="Shape" fill="#E0852A" points="8.81 10.78 8.77 10.93 8.77 11.16 8.64 11.16 8.55 11.24 8.64 11.31 8.77 11.31 8.77 11.52 8.81 11.67"></polygon>
            <polygon id="Shape" fill="#E0852A" points="8.81 16.02 8.81 15.87 8.58 15.5 8.64 15.42 8.51 15.19 8.55 15.11 8.64 15.27 8.68 15.19 8.38 14.66 8.32 14.74 8.38 14.81 8.28 14.96 8.07 14.59 8.28 14.23 8.38 14.38 8.32 14.45 8.38 14.53 8.68 14 8.64 13.92 8.55 14.08 8.51 14 8.64 13.77 8.58 13.7 8.81 13.32 8.81 13.17 8.51 13.7 8.55 13.77 8.41 14 8.51 14.15 8.41 14.3 8.28 14.08 7.98 14.6 8.28 15.11 8.41 14.89 8.51 15.04 8.41 15.19 8.55 15.42 8.51 15.5"></polygon>
            <polygon id="Shape" fill="#E0852A" points="8.81 14.15 8.77 14.3 8.77 14.53 8.64 14.53 8.55 14.59 8.64 14.66 8.77 14.66 8.77 14.89 8.81 15.04"></polygon>
            <polygon id="Shape" fill="#E0852A" points="3.52 1.44 3.52 1.29 3.75 0.91 3.69 0.84 3.83 0.6 3.79 0.53 3.69 0.68 3.66 0.6 3.96 0.08 4.02 0.15 3.96 0.23 4.06 0.38 4.29 0 4.36 0 4.06 0.53 3.92 0.3 3.83 0.46 3.92 0.6 3.79 0.84 3.83 0.91"></polygon>
            <polygon id="Shape" fill="#E0852A" points="3.52 0 3.79 0 3.72 0.08 3.58 0.08 3.58 0.3 3.52 0.46"></polygon>
            <polygon id="Shape" fill="#E0852A" points="8.81 1.44 8.81 1.29 8.58 0.91 8.64 0.84 8.51 0.6 8.55 0.53 8.64 0.68 8.68 0.6 8.38 0.08 8.32 0.15 8.38 0.23 8.28 0.38 8.07 0 7.98 0 8.28 0.53 8.41 0.3 8.51 0.46 8.41 0.6 8.55 0.84 8.51 0.91"></polygon>
            <polygon id="Shape" fill="#E0852A" points="8.81 0 8.55 0 8.64 0.08 8.77 0.08 8.77 0.3 8.81 0.46"></polygon>
            <g id="Group" transform="translate(3.000000, 0.000000)">
                <path d="M2.72,19.41 C2.88808779,19.1889797 3.13551334,19.0419588 3.41,19 C3.88,18.93 3.96,19.21 4.24,19.21 C4.48333221,19.1791509 4.71986995,19.1081896 4.94,19 C4.72233258,19.1960333 4.45039494,19.321543 4.16,19.36 C3.84,19.36 3.72,19.17 3.38,19.21 C3.15055922,19.2390766 2.92554788,19.296169 2.71,19.38 L2.72,19.41 Z" id="Shape" fill="#E0852A"></path>
                <path d="M3.65,19.41 C3.49292895,19.1961047 3.26069267,19.0496172 3,19 C2.52,18.93 2.43,19.21 2.16,19.21 C1.91618615,19.1814513 1.6792659,19.1103752 1.46,19 C1.66971018,19.1961462 1.93538269,19.3219911 2.22,19.36 C2.56,19.36 2.68,19.17 3.02,19.21 C3.23979353,19.2387199 3.45492621,19.2958646 3.66,19.38 L3.65,19.41 Z" id="Shape" fill="#E0852A"></path>
                <path d="M2.1,18.94 C2.05,18.86 1.95,18.52 2,18.48 C2.05,18.44 2.3,18.8 2.28,19.11 C2.13,19.16 1.64,19.11 1.64,18.99 C1.64,18.87 1.96,18.9 2.09,18.94 L2.1,18.94 Z" id="Shape" fill="#E0852A"></path>
                <path d="M1.8,18.65 C1.8,18.56 1.72,18.2 1.8,18.18 C1.88,18.16 2.05,18.56 1.97,18.86 C1.82,18.86 1.35,18.67 1.38,18.58 C1.41,18.49 1.7,18.58 1.82,18.65 L1.8,18.65 Z" id="Shape" fill="#E0852A"></path>
                <path d="M1.55,18.31 C1.55,18.24 1.55,17.87 1.55,17.86 C1.55,17.85 1.76,18.28 1.64,18.54 C1.49,18.54 1.04,18.28 1.07,18.2 C1.1,18.12 1.39,18.2 1.51,18.31 L1.55,18.31 Z" id="Shape" fill="#E0852A"></path>
                <path d="M1.36,18 C1.36,17.9 1.36,17.55 1.45,17.55 C1.54,17.55 1.61,18 1.45,18.25 C1.3,18.25 0.9,17.89 0.94,17.82 C0.98,17.75 1.26,17.91 1.35,18.01 L1.36,18 Z" id="Shape" fill="#E0852A"></path>
                <path d="M1.23,17.61 C1.23,17.52 1.3,17.17 1.38,17.17 C1.47324977,17.401872 1.44316126,17.6651465 1.3,17.87 C1.13,17.82 0.79,17.4 0.83,17.34 C0.87,17.28 1.13,17.49 1.23,17.61 Z" id="Shape" fill="#E0852A"></path>
                <path d="M1.26,17.2 C1.26,17.56 1.17,17.56 1.04,17.3 C0.96,17.2 0.96,16.77 1.04,16.77 C1.12,16.77 1.29,17.06 1.29,17.2 L1.26,17.2 Z" id="Shape" fill="#E0852A"></path>
                <path d="M4.28,19 C4.28,18.92 4.41,18.58 4.36,18.54 C4.31,18.5 4.06,18.86 4.08,19.17 C4.23,19.23 4.72,19.17 4.72,19.06 C4.72,18.95 4.4,18.97 4.28,19.01 L4.28,19 Z" id="Shape" fill="#E0852A"></path>
                <path d="M4.56,18.69 C4.56,18.59 4.63,18.24 4.56,18.22 C4.49,18.2 4.32,18.6 4.39,18.9 C4.55,18.9 5.02,18.71 5,18.62 C4.98,18.53 4.68,18.62 4.55,18.69 L4.56,18.69 Z" id="Shape" fill="#E0852A"></path>
                <path d="M4.8,18.35 C4.8,18.28 4.8,17.91 4.8,17.9 C4.8,17.89 4.59,18.31 4.7,18.58 C4.85,18.58 5.31,18.31 5.27,18.24 C5.23,18.17 4.95,18.24 4.83,18.35 L4.8,18.35 Z" id="Shape" fill="#E0852A"></path>
                <path d="M5,18 C5,17.9 5,17.54 4.91,17.54 C4.82,17.54 4.76,18 4.91,18.24 C5.06,18.24 5.46,17.88 5.42,17.81 C5.38,17.74 5.12,17.9 5,18 Z" id="Shape" fill="#E0852A"></path>
                <path d="M5.13,17.65 C5.13,17.55 5.06,17.22 4.98,17.22 C4.9,17.22 4.88,17.67 5.07,17.92 C5.23,17.92 5.56,17.45 5.53,17.39 C5.5,17.33 5.23,17.54 5.13,17.66 L5.13,17.65 Z" id="Shape" fill="#E0852A"></path>
                <path d="M5.11,17.23 C5.11,17.59 5.19,17.59 5.32,17.32 C5.39,17.23 5.39,16.79 5.32,16.79 C5.25,16.79 5.09,17.08 5.09,17.22 L5.11,17.23 Z" id="Shape" fill="#E0852A"></path>
                <polygon id="Shape" fill="#C03F2A" points="5 13.47 4.73 13.47 4.73 13.7 4.49 13.7 4.49 13.92 3.46 13.92 3.29 14.15 3.39 14.27 3.8 14.27 3.9 14.15 3.46 14.15 3.56 14.04 4.14 14.04 3.9 14.38 3.29 14.38 3.12 14.27 2.95 14.38 2.37 14.38 2.12 14.04 2.71 14.04 2.78 14.15 2.37 14.15 2.46 14.27 2.87 14.27 2.95 14.15 2.78 13.92 1.85 13.92 1.85 13.7 1.6 13.7 1.6 13.47 1.36 13.47 1.36 12.43 1.6 12.43 1.6 12.2 1.85 12.2 1.85 11.98 2.78 11.98 2.95 11.75 2.87 11.63 2.46 11.63 2.37 11.75 2.78 11.75 2.71 11.86 2.12 11.86 2.37 11.52 2.95 11.52 3.12 11.63 3.29 11.52 3.9 11.52 4.14 11.86 3.56 11.86 3.46 11.75 3.9 11.75 3.8 11.63 3.39 11.63 3.29 11.75 3.46 11.98 4.49 11.98 4.49 12.2 4.73 12.2 4.73 12.43 5 12.43"></polygon>
                <polygon id="Shape" stroke="#292C2F" stroke-linecap="square" points="5 13.47 4.73 13.47 4.73 13.7 4.49 13.7 4.49 13.92 3.46 13.92 3.29 14.15 3.39 14.27 3.8 14.27 3.9 14.15 3.46 14.15 3.56 14.04 4.14 14.04 3.9 14.38 3.29 14.38 3.12 14.27 2.95 14.38 2.37 14.38 2.12 14.04 2.71 14.04 2.78 14.15 2.37 14.15 2.46 14.27 2.87 14.27 2.95 14.15 2.78 13.92 1.85 13.92 1.85 13.7 1.6 13.7 1.6 13.47 1.36 13.47 1.36 12.43 1.6 12.43 1.6 12.2 1.85 12.2 1.85 11.98 2.78 11.98 2.95 11.75 2.87 11.63 2.46 11.63 2.37 11.75 2.78 11.75 2.71 11.86 2.12 11.86 2.37 11.52 2.95 11.52 3.12 11.63 3.29 11.52 3.9 11.52 4.14 11.86 3.56 11.86 3.46 11.75 3.9 11.75 3.8 11.63 3.39 11.63 3.29 11.75 3.46 11.98 4.49 11.98 4.49 12.2 4.73 12.2 4.73 12.43 5 12.43"></polygon>
                <polygon id="Shape" fill="#307359" points="1.43 12.56 1.43 13.36 1.68 13.36 1.68 13.59 1.95 13.59 1.95 13.81 2.78 13.81 3.12 14.15 3.46 13.81 4.39 13.81 4.39 13.59 4.66 13.59 4.66 13.36 4.9 13.36 4.9 12.54 4.66 12.54 4.66 12.32 4.39 12.34 4.39 12.09 3.46 12.09 3.12 11.75 2.78 12.09 1.95 12.09 1.95 12.34 1.68 12.34 1.68 12.56"></polygon>
                <path d="M1.49,13.36 L1.38,13.36 L1.38,12.57 L1.49,12.57 L1.49,13.36 Z M1.43,13.42 L1.38,13.42 L1.38,13.36 L1.43,13.36 L1.43,13.42 Z M1.43,13.31 L1.68,13.31 L1.68,13.42 L1.43,13.42 L1.43,13.31 Z M1.68,13.31 L1.74,13.31 L1.74,13.36 L1.68,13.36 L1.68,13.31 Z M1.74,13.6 L1.62,13.6 L1.62,13.37 L1.74,13.37 L1.74,13.6 Z M1.68,13.65 L1.62,13.65 L1.62,13.6 L1.68,13.6 L1.68,13.65 Z M1.68,13.54 L1.95,13.54 L1.95,13.65 L1.68,13.65 L1.68,13.54 Z M1.95,13.54 L2,13.54 L2,13.6 L1.95,13.6 L1.95,13.54 Z M2.01,13.83 L1.89,13.83 L1.89,13.6 L2,13.6 L2.01,13.83 Z M1.95,13.88 L1.89,13.88 L1.89,13.83 L1.95,13.83 L1.95,13.88 Z M1.95,13.77 L2.78,13.77 L2.78,13.88 L1.95,13.88 L1.95,13.77 Z M2.78,13.77 L2.84,13.77 L2.78,13.83 L2.78,13.77 Z M2.84,13.77 L3.16,14.11 L3.08,14.2 L2.74,13.86 L2.84,13.77 Z M3.08,14.11 L3.42,13.77 L3.5,13.86 L3.16,14.2 L3.08,14.11 Z M3.42,13.77 L3.42,13.83 L3.42,13.77 Z M3.42,13.77 L4.35,13.77 L4.35,13.88 L3.46,13.88 L3.42,13.77 Z M4.42,13.88 L4.39,13.88 L4.39,13.83 L4.45,13.83 L4.42,13.88 Z M4.3,13.6 L4.42,13.6 L4.42,13.83 L4.33,13.83 L4.3,13.6 Z M4.3,13.54 L4.35,13.54 L4.35,13.6 L4.33,13.6 L4.3,13.54 Z M4.35,13.54 L4.62,13.54 L4.62,13.65 L4.39,13.65 L4.35,13.54 Z M4.67,13.65 L4.66,13.65 L4.66,13.6 L4.71,13.6 L4.67,13.65 Z M4.56,13.36 L4.67,13.36 L4.67,13.59 L4.6,13.59 L4.56,13.36 Z M4.56,13.31 L4.62,13.31 L4.62,13.36 L4.6,13.36 L4.56,13.31 Z M4.62,13.31 L4.9,13.31 L4.9,13.42 L4.66,13.42 L4.62,13.31 Z M4.92,13.42 L4.9,13.42 L4.9,13.36 L5,13.36 L4.92,13.42 Z M4.81,12.55 L5,12.55 L5,13.36 L4.85,13.36 L4.81,12.55 Z M4.87,12.49 L5,12.49 L5,12.55 L4.9,12.55 L4.87,12.49 Z M4.87,12.6 L4.66,12.6 L4.66,12.49 L4.9,12.49 L4.87,12.6 Z M4.62,12.6 L4.6,12.6 L4.6,12.55 L4.66,12.55 L4.62,12.6 Z M4.56,12.32 L4.67,12.32 L4.67,12.55 L4.6,12.55 L4.56,12.32 Z M4.62,12.26 L4.67,12.26 L4.67,12.32 L4.66,12.32 L4.62,12.26 Z M4.62,12.38 L4.35,12.38 L4.35,12.27 L4.62,12.27 L4.62,12.38 Z M4.35,12.38 L4.33,12.38 L4.33,12.33 L4.38,12.33 L4.35,12.38 Z M4.3,12.08 L4.42,12.08 L4.42,12.33 L4.33,12.33 L4.3,12.08 Z M4.39,12 L4.45,12 L4.45,12.06 L4.39,12.06 L4.39,12 Z M4.39,12.12 L3.46,12.12 L3.46,12 L4.39,12 L4.39,12.12 Z M3.46,12.12 L3.46,12.06 L3.46,12.12 Z M3.46,12.12 L3.12,11.78 L3.2,11.69 L3.54,12.03 L3.46,12.12 Z M3.2,11.77 L2.88,12.11 L2.78,12.01 L3.12,11.67 L3.2,11.77 Z M2.88,12.11 L2.78,12.11 L2.78,12.05 L2.88,12.11 Z M2.82,12.11 L1.95,12.11 L1.95,12 L2.78,12 L2.82,12.11 Z M1.89,12 L1.95,12 L1.95,12.06 L1.89,12.06 L1.89,12 Z M2.01,12.3 L1.89,12.3 L1.89,12.05 L2,12.05 L2.01,12.3 Z M2.01,12.35 L1.95,12.35 L1.95,12.3 L2,12.3 L2.01,12.35 Z M1.95,12.35 L1.68,12.35 L1.68,12.24 L1.95,12.24 L1.95,12.35 Z M1.63,12.24 L1.69,12.24 L1.69,12.29 L1.62,12.29 L1.63,12.24 Z M1.75,12.52 L1.62,12.52 L1.62,12.29 L1.74,12.29 L1.75,12.52 Z M1.75,12.58 L1.68,12.58 L1.68,12.52 L1.74,12.52 L1.75,12.58 Z M1.69,12.58 L1.43,12.58 L1.43,12.47 L1.68,12.47 L1.69,12.58 Z M1.39,12.47 L1.44,12.47 L1.44,12.52 L1.38,12.52 L1.39,12.47 Z" id="Shape" fill="#E0852A" fill-rule="nonzero"></path>
                <polygon id="Shape" fill="#C03F2A" points="2.63 12.2 2.12 12.77 2.12 12.2"></polygon>
                <polygon id="Shape" fill="#C03F2A" points="3.63 12.2 4.14 12.77 4.14 12.2"></polygon>
                <polygon id="Shape" fill="#C03F2A" points="2.63 13.7 2.12 13.13 2.12 13.7"></polygon>
                <polygon id="Shape" fill="#C03F2A" points="3.63 13.7 4.14 13.13 4.14 13.7"></polygon>
                <polygon id="Shape" fill="#C03F2A" points="3.8 12.54 3.63 12.77 3.97 12.77"></polygon>
                <polygon id="Shape" fill="#C03F2A" points="2.46 12.54 2.29 12.77 2.63 12.77"></polygon>
                <polygon id="Shape" fill="#C03F2A" points="2.46 13.36 2.29 13.13 2.63 13.13"></polygon>
                <polygon id="Shape" fill="#C03F2A" points="3.8 13.36 3.63 13.13 3.97 13.13"></polygon>
                <polygon id="Shape" fill="#E0852A" points="3.12 13.92 2.95 13.7 3.29 13.7"></polygon>
                <polygon id="Shape" fill="#E0852A" points="3.12 12.77 2.95 12.54 3.29 12.54"></polygon>
                <polygon id="Shape" fill="#E0852A" points="3.12 11.98 2.95 12.2 3.29 12.2"></polygon>
                <polygon id="Shape" fill="#E0852A" points="3.12 13.13 2.95 13.36 3.29 13.36"></polygon>
                <rect id="Rectangle-path" fill="#E0852A" fill-rule="nonzero" x="3.63" y="12.77" width="1" height="1"></rect>
                <rect id="Rectangle-path" stroke="#292C2F" stroke-linecap="square" x="3.63" y="12.77" width="1" height="1"></rect>
                <rect id="Rectangle-path" fill="#CF3B1D" fill-rule="nonzero" x="2.37" y="12.89" width="1" height="1"></rect>
                <rect id="Rectangle-path" stroke="#292C2F" stroke-linecap="square" x="2.37" y="12.89" width="1" height="1"></rect>
                <rect id="Rectangle-path" fill="#CF3B1D" fill-rule="nonzero" x="3.72" y="12.89" width="1" height="1"></rect>
                <rect id="Rectangle-path" stroke="#292C2F" stroke-linecap="square" x="3.72" y="12.89" width="1" height="1"></rect>
                <rect id="Rectangle-path" fill="#AD3B2B" fill-rule="nonzero" x="2.95" y="12.2" width="1" height="1"></rect>
                <rect id="Rectangle-path" stroke="#292C2F" stroke-linecap="square" x="2.95" y="12.2" width="1" height="1"></rect>
                <rect id="Rectangle-path" fill="#AD3B2B" fill-rule="nonzero" x="2.95" y="12.43" width="1" height="1"></rect>
                <rect id="Rectangle-path" stroke="#292C2F" stroke-linecap="square" x="2.95" y="12.43" width="1" height="1"></rect>
                <rect id="Rectangle-path" fill="#AD3B2B" fill-rule="nonzero" x="2.87" y="12.32" width="1" height="1"></rect>
                <rect id="Rectangle-path" stroke="#292C2F" stroke-linecap="square" x="2.87" y="12.32" width="1" height="1"></rect>
                <rect id="Rectangle-path" fill="#AD3B2B" fill-rule="nonzero" x="2.95" y="13.36" width="1" height="1"></rect>
                <rect id="Rectangle-path" stroke="#292C2F" stroke-linecap="square" x="2.95" y="13.36" width="1" height="1"></rect>
                <rect id="Rectangle-path" fill="#AD3B2B" fill-rule="nonzero" x="2.95" y="13.59" width="1" height="1"></rect>
                <rect id="Rectangle-path" stroke="#292C2F" stroke-linecap="square" x="2.95" y="13.59" width="1" height="1"></rect>
                <rect id="Rectangle-path" fill="#AD3B2B" fill-rule="nonzero" x="2.87" y="13.47" width="1" height="1"></rect>
                <rect id="Rectangle-path" stroke="#292C2F" stroke-linecap="square" x="2.87" y="13.47" width="1" height="1"></rect>
                <rect id="Rectangle-path" fill="#E0852A" fill-rule="nonzero" x="3.63" y="13.02" width="1" height="1"></rect>
                <rect id="Rectangle-path" stroke="#292C2F" stroke-linecap="square" x="3.63" y="13.02" width="1" height="1"></rect>
                <rect id="Rectangle-path" fill="#E0852A" fill-rule="nonzero" x="2.29" y="12.77" width="1" height="1"></rect>
                <rect id="Rectangle-path" stroke="#292C2F" stroke-linecap="square" x="2.29" y="12.77" width="1" height="1"></rect>
                <rect id="Rectangle-path" fill="#E0852A" fill-rule="nonzero" x="2.29" y="13.02" width="1" height="1"></rect>
                <rect id="Rectangle-path" stroke="#292C2F" stroke-linecap="square" x="2.29" y="13.02" width="1" height="1"></rect>
                <rect id="Rectangle-path" fill="#E0852A" fill-rule="nonzero" x="2.19" y="12.89" width="1" height="1"></rect>
                <rect id="Rectangle-path" stroke="#292C2F" stroke-linecap="square" x="2.19" y="12.89" width="1" height="1"></rect>
                <rect id="Rectangle-path" fill="#E0852A" fill-rule="nonzero" x="2.53" y="12.89" width="1" height="1"></rect>
                <rect id="Rectangle-path" stroke="#292C2F" stroke-linecap="square" x="2.53" y="12.89" width="1" height="1"></rect>
                <rect id="Rectangle-path" fill="#E0852A" fill-rule="nonzero" x="3.56" y="12.89" width="1" height="1"></rect>
                <rect id="Rectangle-path" stroke="#292C2F" stroke-linecap="square" x="3.56" y="12.89" width="1" height="1"></rect>
                <rect id="Rectangle-path" fill="#E0852A" fill-rule="nonzero" x="3.9" y="12.89" width="1" height="1"></rect>
                <rect id="Rectangle-path" stroke="#292C2F" stroke-linecap="square" x="3.9" y="12.89" width="1" height="1"></rect>
                <polygon id="Shape" fill="#FFFFFF" points="3.46 10.46 3.61 10.39 3.74 10.46"></polygon>
                <polygon id="Shape" fill="#FFFFFF" points="3.03 10.46 3.18 10.39 3.31 10.46"></polygon>
                <polygon id="Shape" fill="#FFFFFF" points="2.59 10.46 2.74 10.39 2.87 10.46"></polygon>
                <polygon id="Shape" fill="#FFFFFF" points="3.46 8.48 3.61 8.55 3.74 8.48"></polygon>
                <polygon id="Shape" fill="#FFFFFF" points="3.03 8.48 3.18 8.55 3.31 8.48"></polygon>
                <polygon id="Shape" fill="#FFFFFF" points="2.59 8.48 2.74 8.55 2.87 8.48"></polygon>
                <polygon id="Shape" fill="#307359" points="3.35 10.42 3.18 10.57 3.01 10.42 2.84 10.57 2.67 10.42 2.67 10.5 2.78 10.57 2.72 10.63 2.72 10.71 2.78 10.71 2.84 10.63 2.89 10.71 2.95 10.71 2.95 10.63 2.89 10.57 3.01 10.5 3.12 10.57 3.06 10.63 3.06 10.71 3.12 10.71 3.18 10.63 3.24 10.71 3.29 10.71 3.29 10.63 3.24 10.57 3.35 10.5 3.46 10.57 3.41 10.63 3.41 10.71 3.46 10.71 3.5 10.63 3.56 10.71 3.61 10.71 3.61 10.63 3.56 10.57 3.67 10.5 3.67 10.42 3.5 10.57"></polygon>
                <polygon id="Shape" fill="#307359" points="3.35 8.46 3.18 8.32 3.01 8.46 2.84 8.32 2.67 8.46 2.67 8.4 2.78 8.32 2.72 8.27 2.72 8.2 2.78 8.2 2.84 8.27 2.89 8.2 2.95 8.2 2.95 8.27 2.89 8.32 3.01 8.4 3.12 8.32 3.06 8.27 3.06 8.2 3.12 8.2 3.18 8.27 3.24 8.2 3.29 8.2 3.29 8.27 3.24 8.32 3.35 8.4 3.46 8.32 3.41 8.27 3.41 8.2 3.46 8.2 3.5 8.27 3.56 8.2 3.61 8.2 3.61 8.27 3.56 8.32 3.67 8.4 3.67 8.46 3.5 8.32"></polygon>
                <polygon id="Shape" fill="#307359" points="4.62 9.59 4.8 9.44 4.62 9.31 4.8 9.16 4.62 9.01 4.71 9.01 4.8 9.1 4.9 9.06 5 9.06 5 9.1 4.9 9.16 5 9.2 5 9.25 4.9 9.25 4.8 9.2 4.71 9.31 4.8 9.4 4.9 9.35 5 9.35 5 9.4 4.9 9.44 5 9.5 5 9.55 4.9 9.55 4.8 9.5 4.71 9.59 4.8 9.69 4.9 9.65 5 9.65 5 9.69 4.9 9.75 5 9.8 5 9.84 4.9 9.84 4.8 9.8 4.71 9.89 4.62 9.89 4.8 9.75"></polygon>
                <polygon id="Shape" fill="#307359" points="1.72 9.59 1.53 9.44 1.72 9.31 1.53 9.16 1.72 9.01 1.62 9.01 1.53 9.1 1.43 9.06 1.36 9.06 1.36 9.1 1.43 9.16 1.36 9.2 1.36 9.25 1.43 9.25 1.53 9.2 1.62 9.31 1.53 9.4 1.43 9.35 1.36 9.35 1.36 9.4 1.43 9.44 1.36 9.5 1.36 9.55 1.43 9.55 1.53 9.5 1.62 9.59 1.53 9.69 1.43 9.65 1.36 9.65 1.36 9.69 1.43 9.75 1.36 9.8 1.36 9.84 1.43 9.84 1.53 9.8 1.62 9.89 1.72 9.89 1.53 9.75"></polygon>
                <rect id="Rectangle-path" fill="#307359" fill-rule="nonzero" x="4.69" y="10.09" width="1" height="1"></rect>
                <rect id="Rectangle-path" stroke="#292C2F" stroke-linecap="square" x="4.69" y="10.09" width="1" height="1"></rect>
                <rect id="Rectangle-path" fill="#307359" fill-rule="nonzero" x="4.62" y="10.16" width="1" height="1"></rect>
                <rect id="Rectangle-path" stroke="#292C2F" stroke-linecap="square" x="4.62" y="10.16" width="1" height="1"></rect>
                <rect id="Rectangle-path" fill="#307359" fill-rule="nonzero" x="4.26" y="10.5" width="1" height="1"></rect>
                <rect id="Rectangle-path" stroke="#292C2F" stroke-linecap="square" x="4.26" y="10.5" width="1" height="1"></rect>
                <rect id="Rectangle-path" fill="#307359" fill-rule="nonzero" x="4.33" y="10.42" width="1" height="1"></rect>
                <rect id="Rectangle-path" stroke="#292C2F" stroke-linecap="square" x="4.33" y="10.42" width="1" height="1"></rect>
                <rect id="Rectangle-path" fill="#307359" fill-rule="nonzero" x="1.93" y="10.42" width="1" height="1"></rect>
                <rect id="Rectangle-path" stroke="#292C2F" stroke-linecap="square" x="1.93" y="10.42" width="1" height="1"></rect>
                <rect id="Rectangle-path" fill="#307359" fill-rule="nonzero" x="1.57" y="10.09" width="1" height="1"></rect>
                <rect id="Rectangle-path" stroke="#292C2F" stroke-linecap="square" x="1.57" y="10.09" width="1" height="1"></rect>
                <rect id="Rectangle-path" fill="#307359" fill-rule="nonzero" x="1.64" y="10.16" width="1" height="1"></rect>
                <rect id="Rectangle-path" stroke="#292C2F" stroke-linecap="square" x="1.64" y="10.16" width="1" height="1"></rect>
                <rect id="Rectangle-path" fill="#307359" fill-rule="nonzero" x="1.64" y="8.66" width="1" height="1"></rect>
                <rect id="Rectangle-path" stroke="#292C2F" stroke-linecap="square" x="1.64" y="8.66" width="1" height="1"></rect>
                <rect id="Rectangle-path" fill="#307359" fill-rule="nonzero" x="1.57" y="8.74" width="1" height="1"></rect>
                <rect id="Rectangle-path" stroke="#292C2F" stroke-linecap="square" x="1.57" y="8.74" width="1" height="1"></rect>
                <rect id="Rectangle-path" fill="#307359" fill-rule="nonzero" x="2" y="8.32" width="1" height="1"></rect>
                <rect id="Rectangle-path" stroke="#292C2F" stroke-linecap="square" x="2" y="8.32" width="1" height="1"></rect>
                <rect id="Rectangle-path" fill="#307359" fill-rule="nonzero" x="1.93" y="8.4" width="1" height="1"></rect>
                <rect id="Rectangle-path" stroke="#292C2F" stroke-linecap="square" x="1.93" y="8.4" width="1" height="1"></rect>
                <rect id="Rectangle-path" fill="#307359" fill-rule="nonzero" x="4.26" y="8.32" width="1" height="1"></rect>
                <rect id="Rectangle-path" stroke="#292C2F" stroke-linecap="square" x="4.26" y="8.32" width="1" height="1"></rect>
                <rect id="Rectangle-path" fill="#307359" fill-rule="nonzero" x="4.33" y="8.4" width="1" height="1"></rect>
                <rect id="Rectangle-path" stroke="#292C2F" stroke-linecap="square" x="4.33" y="8.4" width="1" height="1"></rect>
                <rect id="Rectangle-path" fill="#307359" fill-rule="nonzero" x="4.62" y="8.66" width="1" height="1"></rect>
                <rect id="Rectangle-path" stroke="#292C2F" stroke-linecap="square" x="4.62" y="8.66" width="1" height="1"></rect>
                <rect id="Rectangle-path" fill="#307359" fill-rule="nonzero" x="4.69" y="8.74" width="1" height="1"></rect>
                <rect id="Rectangle-path" stroke="#292C2F" stroke-linecap="square" x="4.69" y="8.74" width="1" height="1"></rect>
                <rect id="Rectangle-path" fill="#307359" fill-rule="nonzero" x="2" y="10.5" width="1" height="1"></rect>
                <rect id="Rectangle-path" stroke="#292C2F" stroke-linecap="square" x="2" y="10.5" width="1" height="1"></rect>
                <path d="M2.95,9.44 L2.74,9.44 L2.74,9.31 L2.87,9.31 L2.87,9.2 L3,9.2 L3,9.08 L3.13,9.08 L3.13,9.21 C3.07163117,9.21259271 3.01669096,9.23829698 2.97729583,9.28144402 C2.93790071,9.32459106 2.9172867,9.38163665 2.92,9.44 L2.95,9.44 Z" id="Shape" fill="#FFFFFF"></path>
                <path d="M3.37,9.44 L3.6,9.44 L3.6,9.31 L3.44,9.31 L3.44,9.2 L3.31,9.2 L3.31,9.08 L3.16,9.08 L3.16,9.21 C3.21836883,9.21259271 3.27330904,9.23829698 3.31270417,9.28144402 C3.35209929,9.32459106 3.3727133,9.38163665 3.37,9.44 Z" id="Shape" fill="#E0852A"></path>
                <path d="M3.37,9.44 L3.6,9.44 L3.6,9.57 L3.44,9.57 L3.44,9.7 L3.31,9.7 L3.31,9.81 L3.16,9.81 L3.16,9.69 C3.22109036,9.68492043 3.27762532,9.65566376 3.31705375,9.60872515 C3.35648218,9.56178654 3.37554135,9.50105021 3.37,9.44 Z" id="Shape" fill="#FFFFFF"></path>
                <path d="M2.95,9.44 L2.74,9.44 L2.74,9.57 L2.87,9.57 L2.87,9.7 L3,9.7 L3,9.81 L3.13,9.81 L3.13,9.69 C3.06890964,9.68492043 3.01237468,9.65566376 2.97294625,9.60872515 C2.93351782,9.56178654 2.91445865,9.50105021 2.92,9.44 L2.95,9.44 Z" id="Shape" fill="#E0852A"></path>
                <path d="M3.37,9.44 L3.16,9.44 L3.16,9.21 C3.27915584,9.22039991 3.37045299,9.32039202 3.37,9.44 Z" id="Shape" fill="#307359"></path>
                <path d="M3.37,9.44 L3.16,9.44 L3.16,9.69 C3.22109036,9.68492043 3.27762532,9.65566376 3.31705375,9.60872515 C3.35648218,9.56178654 3.37554135,9.50105021 3.37,9.44 Z" id="Shape" fill="#C03F2A"></path>
                <path d="M2.95,9.44 L3.16,9.44 L3.16,9.69 C3.09890964,9.68492043 3.04237468,9.65566376 3.00294625,9.60872515 C2.96351782,9.56178654 2.94445865,9.50105021 2.95,9.44 Z" id="Shape" fill="#307359"></path>
                <path d="M2.95,9.44 L3.16,9.44 L3.16,9.21 C3.04084416,9.22039991 2.94954701,9.32039202 2.95,9.44 Z" id="Shape" fill="#C03F2A"></path>
                <polygon id="Shape" fill="#307359" points="3.39 10.29 3.18 10.16 2.95 10.29 2.74 10.16 2.51 10.29 2.51 10.23 2.67 10.16 2.59 10.09 2.59 10.03 2.67 10.03 2.74 10.09 2.8 10.03 2.87 10.03 2.87 10.09 2.8 10.16 2.95 10.23 3.1 10.16 3.03 10.09 3.03 10.03 3.1 10.03 3.18 10.09 3.24 10.03 3.31 10.03 3.31 10.09 3.24 10.16 3.39 10.23 3.54 10.16 3.46 10.09 3.46 10.03 3.54 10.03 3.61 10.09 3.67 10.03 3.74 10.03 3.74 10.09 3.67 10.16 3.82 10.23 3.82 10.29 3.61 10.16"></polygon>
                <polygon id="Shape" fill="#307359" points="3.39 8.61 3.18 8.74 2.95 8.61 2.74 8.74 2.51 8.61 2.51 8.66 2.67 8.74 2.59 8.8 2.59 8.87 2.67 8.87 2.74 8.8 2.8 8.87 2.87 8.87 2.87 8.8 2.8 8.74 2.95 8.66 3.1 8.74 3.03 8.8 3.03 8.87 3.1 8.87 3.18 8.8 3.24 8.87 3.31 8.87 3.31 8.8 3.24 8.74 3.39 8.66 3.54 8.74 3.46 8.8 3.46 8.87 3.54 8.87 3.61 8.8 3.67 8.87 3.74 8.87 3.74 8.8 3.67 8.74 3.82 8.66 3.82 8.61 3.61 8.74"></polygon>
                <polygon id="Shape" fill="#307359" points="4.18 9.61 4.09 9.44 4.18 9.27 4.09 9.1 4.18 8.95 4.13 8.95 4.09 9.06 4.03 9.01 3.97 9.01 3.97 9.06 4.03 9.1 3.97 9.16 3.97 9.21 4.03 9.21 4.09 9.16 4.13 9.27 4.09 9.38 4.03 9.33 3.97 9.33 3.97 9.38 4.03 9.44 3.97 9.5 3.97 9.55 4.03 9.55 4.09 9.5 4.13 9.61 4.09 9.72 4.03 9.67 3.97 9.67 3.97 9.72 4.03 9.78 3.97 9.84 3.97 9.89 4.03 9.89 4.09 9.84 4.13 9.95 4.18 9.95 4.09 9.78"></polygon>
                <path d="M2.51,8.66 L2.23,8.95 L2.23,9.95 L2.51,10.23 L3.82,10.23 L4.11,10 L4.11,9 L3.83,8.71 L2.51,8.66 Z M2.43,8.45 L1.71,9.13 L1.71,9.75 L2.43,10.41 L3.9,10.41 L4.62,9.75 L4.62,9.14 L3.9,8.46 L2.43,8.45 Z" id="Shape" fill="#307359"></path>
                <path d="M2.51,8.66 L2.23,8.95 L2.23,9.95 L2.51,10.23 L3.82,10.23 L4.11,10 L4.11,9 L3.83,8.71 L2.51,8.66 Z M2.43,8.45 L1.71,9.13 L1.71,9.75 L2.43,10.41 L3.9,10.41 L4.62,9.75 L4.62,9.14 L3.9,8.46 L2.43,8.45 Z" id="Shape" stroke="#292C2F" stroke-linecap="square"></path>
                <polygon id="Shape" fill="#E0852A" points="2.82 10.29 2.93 10.42 3.04 10.29"></polygon>
                <polygon id="Shape" stroke="#292C2F" stroke-linecap="square" points="2.82 10.29 2.93 10.42 3.04 10.29"></polygon>
                <polygon id="Shape" fill="#E0852A" points="2.82 8.61 2.93 8.46 3.04 8.61"></polygon>
                <polygon id="Shape" stroke="#292C2F" stroke-linecap="square" points="2.82 8.61 2.93 8.46 3.04 8.61"></polygon>
                <polygon id="Shape" fill="#E0852A" points="3.29 8.61 3.41 8.46 3.52 8.61"></polygon>
                <polygon id="Shape" stroke="#292C2F" stroke-linecap="square" points="3.29 8.61 3.41 8.46 3.52 8.61"></polygon>
                <polygon id="Shape" fill="#E0852A" points="3.29 10.29 3.41 10.42 3.52 10.29"></polygon>
                <polygon id="Shape" stroke="#292C2F" stroke-linecap="square" points="3.29 10.29 3.41 10.42 3.52 10.29"></polygon>
                <polygon id="Shape" fill="#C03F2A" points="2.59 8.61 2.71 8.46 2.82 8.61"></polygon>
                <polygon id="Shape" stroke="#292C2F" stroke-linecap="square" points="2.59 8.61 2.71 8.46 2.82 8.61"></polygon>
                <polygon id="Shape" fill="#C03F2A" points="3.04 8.61 3.18 8.46 3.29 8.61"></polygon>
                <polygon id="Shape" stroke="#292C2F" stroke-linecap="square" points="3.04 8.61 3.18 8.46 3.29 8.61"></polygon>
                <polygon id="Shape" fill="#C03F2A" points="3.52 8.61 3.63 8.46 3.74 8.61"></polygon>
                <polygon id="Shape" stroke="#292C2F" stroke-linecap="square" points="3.52 8.61 3.63 8.46 3.74 8.61"></polygon>
                <polygon id="Shape" fill="#C03F2A" points="2.31 10.09 2.51 10.29 2.31 10.29"></polygon>
                <polygon id="Shape" stroke="#292C2F" stroke-linecap="square" points="2.31 10.09 2.51 10.29 2.31 10.29"></polygon>
                <polygon id="Shape" fill="#307359" points="2.15 9.61 2.27 9.44 2.15 9.27 2.27 9.1 2.15 8.95 2.21 8.95 2.27 9.06 2.31 9.01 2.37 9.01 2.37 9.06 2.31 9.1 2.37 9.16 2.37 9.21 2.31 9.21 2.27 9.16 2.21 9.27 2.27 9.38 2.31 9.33 2.37 9.33 2.37 9.38 2.31 9.44 2.37 9.5 2.37 9.55 2.31 9.55 2.27 9.5 2.21 9.61 2.27 9.72 2.31 9.67 2.37 9.67 2.37 9.72 2.31 9.78 2.37 9.84 2.37 9.89 2.31 9.89 2.27 9.84 2.21 9.95 2.15 9.95 2.27 9.78"></polygon>
                <polygon id="Shape" fill="#C03F2A" points="4.26 9.27 4.56 9.27 4.62 9.33 4.56 9.38 4.26 9.38"></polygon>
                <polygon id="Shape" stroke="#292C2F" stroke-linecap="square" points="4.26 9.27 4.56 9.27 4.62 9.33 4.56 9.38 4.26 9.38"></polygon>
                <polygon id="Shape" fill="#C03F2A" points="2.31 8.8 2.15 8.95 2.15 9.95 2.31 10.09 2.08 10.09 2.08 8.8"></polygon>
                <polygon id="Shape" stroke="#292C2F" stroke-linecap="square" points="2.31 8.8 2.15 8.95 2.15 9.95 2.31 10.09 2.08 10.09 2.08 8.8"></polygon>
                <polygon id="Shape" fill="#C03F2A" points="2.59 10.29 2.71 10.42 2.82 10.29"></polygon>
                <polygon id="Shape" stroke="#292C2F" stroke-linecap="square" points="2.59 10.29 2.71 10.42 2.82 10.29"></polygon>
                <polygon id="Shape" fill="#C03F2A" points="3.04 10.29 3.18 10.42 3.29 10.29"></polygon>
                <polygon id="Shape" stroke="#292C2F" stroke-linecap="square" points="3.04 10.29 3.18 10.42 3.29 10.29"></polygon>
                <polygon id="Shape" fill="#C03F2A" points="3.52 10.29 3.63 10.42 3.74 10.29"></polygon>
                <polygon id="Shape" stroke="#292C2F" stroke-linecap="square" points="3.52 10.29 3.63 10.42 3.74 10.29"></polygon>
                <polygon id="Shape" fill="#C03F2A" points="4.05 8.8 4.18 8.95 4.18 9.95 4.05 10.09 4.26 10.09 4.26 8.8"></polygon>
                <polygon id="Shape" stroke="#292C2F" stroke-linecap="square" points="4.05 8.8 4.18 8.95 4.18 9.95 4.05 10.09 4.26 10.09 4.26 8.8"></polygon>
                <polygon id="Shape" fill="#C03F2A" points="4.05 10.09 3.82 10.29 4.05 10.29"></polygon>
                <polygon id="Shape" stroke="#292C2F" stroke-linecap="square" points="4.05 10.09 3.82 10.29 4.05 10.29"></polygon>
                <polygon id="Shape" fill="#C03F2A" points="4.05 8.8 3.82 8.61 4.05 8.61"></polygon>
                <polygon id="Shape" stroke="#292C2F" stroke-linecap="square" points="4.05 8.8 3.82 8.61 4.05 8.61"></polygon>
                <polygon id="Shape" fill="#C03F2A" points="2.31 8.8 2.51 8.61 2.31 8.61"></polygon>
                <polygon id="Shape" stroke="#292C2F" stroke-linecap="square" points="2.31 8.8 2.51 8.61 2.31 8.61"></polygon>
                <path d="M2.51,8.66 L2.23,8.95 L2.23,9.95 L2.51,10.23 L3.82,10.23 L4.11,10 L4.11,9 L3.83,8.71 L2.51,8.66 Z M2.51,8.6 L2.15,8.94 L2.15,9.94 L2.51,10.28 L3.82,10.28 L4.18,10 L4.18,9 L3.82,8.66 L2.51,8.6 Z" id="Shape" fill="#307359"></path>
                <path d="M2.51,8.66 L2.23,8.95 L2.23,9.95 L2.51,10.23 L3.82,10.23 L4.11,10 L4.11,9 L3.83,8.71 L2.51,8.66 Z M2.51,8.6 L2.15,8.94 L2.15,9.94 L2.51,10.28 L3.82,10.28 L4.18,10 L4.18,9 L3.82,8.66 L2.51,8.6 Z" id="Shape" stroke="#292C2F" stroke-linecap="square"></path>
                <polygon id="Shape" fill="#E0852A" points="4.26 9.38 4.56 9.38 4.62 9.44 4.56 9.52 4.26 9.52"></polygon>
                <polygon id="Shape" stroke="#292C2F" stroke-linecap="square" points="4.26 9.38 4.56 9.38 4.62 9.44 4.56 9.52 4.26 9.52"></polygon>
                <polygon id="Shape" fill="#C03F2A" points="4.26 9.52 4.56 9.52 4.62 9.57 4.56 9.63 4.26 9.63"></polygon>
                <polygon id="Shape" stroke="#292C2F" stroke-linecap="square" points="4.26 9.52 4.56 9.52 4.62 9.57 4.56 9.63 4.26 9.63"></polygon>
                <polygon id="Shape" fill="#E0852A" points="4.26 9.63 4.56 9.63 4.62 9.69 4.56 9.76 4.26 9.76"></polygon>
                <polygon id="Shape" stroke="#292C2F" stroke-linecap="square" points="4.26 9.63 4.56 9.63 4.62 9.69 4.56 9.76 4.26 9.76"></polygon>
                <polygon id="Shape" fill="#E0852A" points="4.26 9.14 4.56 9.14 4.62 9.21 4.56 9.27 4.26 9.27"></polygon>
                <polygon id="Shape" stroke="#292C2F" stroke-linecap="square" points="4.26 9.14 4.56 9.14 4.62 9.21 4.56 9.27 4.26 9.27"></polygon>
                <polygon id="Shape" fill="#C03F2A" points="2.08 9.27 1.8 9.27 1.72 9.33 1.8 9.38 2.08 9.38"></polygon>
                <polygon id="Shape" stroke="#292C2F" stroke-linecap="square" points="2.08 9.27 1.8 9.27 1.72 9.33 1.8 9.38 2.08 9.38"></polygon>
                <polygon id="Shape" fill="#E0852A" points="2.08 9.38 1.8 9.38 1.72 9.44 1.8 9.52 2.08 9.52"></polygon>
                <polygon id="Shape" stroke="#292C2F" stroke-linecap="square" points="2.08 9.38 1.8 9.38 1.72 9.44 1.8 9.52 2.08 9.52"></polygon>
                <polygon id="Shape" fill="#C03F2A" points="2.08 9.52 1.8 9.52 1.72 9.57 1.8 9.63 2.08 9.63"></polygon>
                <polygon id="Shape" stroke="#292C2F" stroke-linecap="square" points="2.08 9.52 1.8 9.52 1.72 9.57 1.8 9.63 2.08 9.63"></polygon>
                <polygon id="Shape" fill="#E0852A" points="2.08 9.63 1.8 9.63 1.72 9.69 1.8 9.76 2.08 9.76"></polygon>
                <polygon id="Shape" stroke="#292C2F" stroke-linecap="square" points="2.08 9.63 1.8 9.63 1.72 9.69 1.8 9.76 2.08 9.76"></polygon>
                <polygon id="Shape" fill="#E0852A" points="2.08 9.14 1.8 9.14 1.72 9.21 1.8 9.27 2.08 9.27"></polygon>
                <polygon id="Shape" stroke="#292C2F" stroke-linecap="square" points="2.08 9.14 1.8 9.14 1.72 9.21 1.8 9.27 2.08 9.27"></polygon>
                <path d="M1.64,8.74 L1.64,10.16 L2,10.16 L2,10.5 L4.33,10.5 L4.33,10.16 L4.69,10.16 L4.69,8.74 L4.33,8.74 L4.33,8.4 L2,8.4 L2,8.74 L1.64,8.74 Z M1.72,8.8 L1.72,10.09 L2.08,10.09 L2.08,10.43 L4.26,10.43 L4.26,10.09 L4.62,10.09 L4.62,8.8 L4.26,8.8 L4.26,8.46 L2.08,8.46 L2.08,8.8 L1.72,8.8 Z" id="Shape" fill="#AB3B2C"></path>
                <path d="M1.64,8.74 L1.64,10.16 L2,10.16 L2,10.5 L4.33,10.5 L4.33,10.16 L4.69,10.16 L4.69,8.74 L4.33,8.74 L4.33,8.4 L2,8.4 L2,8.74 L1.64,8.74 Z M1.72,8.8 L1.72,10.09 L2.08,10.09 L2.08,10.43 L4.26,10.43 L4.26,10.09 L4.62,10.09 L4.62,8.8 L4.26,8.8 L4.26,8.46 L2.08,8.46 L2.08,8.8 L1.72,8.8 Z" id="Shape" stroke="#292C2F" stroke-linecap="square"></path>
                <polygon id="Shape" fill="#C03F2A" points="5 1.78 4.77 1.44 4.77 1.2 4.56 0.93 4.11 0.93 3.74 0.68 2.59 0.68 2.23 0.93 1.8 0.93 1.57 1.2 1.57 1.44 1.36 1.78 1.36 2.44 1.57 2.78 1.57 3.03 1.8 3.27 2.23 3.27 2.59 3.52 3.74 3.52 4.11 3.27 4.56 3.27 4.77 3.03 4.77 2.78 5 2.44"></polygon>
                <polygon id="Shape" stroke="#292C2F" stroke-linecap="square" points="5 1.78 4.77 1.44 4.77 1.2 4.56 0.93 4.11 0.93 3.74 0.68 2.59 0.68 2.23 0.93 1.8 0.93 1.57 1.2 1.57 1.44 1.36 1.78 1.36 2.44 1.57 2.78 1.57 3.03 1.8 3.27 2.23 3.27 2.59 3.52 3.74 3.52 4.11 3.27 4.56 3.27 4.77 3.03 4.77 2.78 5 2.44"></polygon>
                <polygon id="Shape" fill="#E0852A" points="1.42 2.1 1.42 2.35 1.64 2.69 1.64 2.93 1.85 3.2 2.31 3.2 2.67 3.44 3.18 3.44 3.18 2.1"></polygon>
                <polygon id="Shape" fill="#C03F2A" points="2.55 2.69 2.29 2.9 2.14 2.9 2.19 2.97 2.08 3.12 2.14 3.2 2.29 3.12 2.34 3.2 2.37 3.01 2.67 2.78"></polygon>
                <polygon id="Shape" fill="#C03F2A" points="2.27 2.52 2 2.75 1.83 2.75 1.89 2.81 1.8 2.95 1.83 3.03 2 2.95 2.06 3.03 2.08 2.84 2.37 2.61"></polygon>
                <polygon id="Shape" fill="#C03F2A" points="2.12 2.19 1.85 2.41 1.7 2.41 1.76 2.48 1.64 2.61 1.7 2.69 1.85 2.61 1.91 2.69 1.93 2.5 2.23 2.27"></polygon>
                <polygon id="Shape" fill="#E0852A" points="4.92 2.1 4.92 1.85 4.69 1.52 4.69 1.27 4.49 1.02 4.05 1.02 3.67 0.76 3.18 0.76 3.18 2.1"></polygon>
                <polygon id="Shape" fill="#C03F2A" points="3.18 3.44 3.03 3.44 2.87 3.27 2.63 3.27 2.5 3.2 2.57 3.1 2.71 3.2 2.84 3.2 2.97 2.93 3.18 3.03 3.18 3.2 2.97 3.2"></polygon>
                <polygon id="Shape" fill="#FFFFFF" points="1.42 2.1 1.42 1.85 1.64 1.52 1.64 1.27 1.85 1.02 2.31 1.02 2.67 0.76 3.18 0.76 3.18 2.1"></polygon>
                <polygon id="Shape" fill="#C03F2A" points="3.18 0.76 3.03 0.76 2.87 0.93 2.63 0.93 2.5 1.02 2.57 1.1 2.71 1.02 2.84 1.02 2.97 1.27 3.18 1.2 3.18 1.02 2.97 1.02"></polygon>
                <polygon id="Shape" fill="#C03F2A" points="3.18 0.76 3.31 0.76 3.46 0.93 3.71 0.93 3.84 1.02 3.78 1.1 3.63 1.02 3.5 1.02 3.37 1.27 3.18 1.2 3.18 1.02 3.37 1.02"></polygon>
                <polygon id="Shape" fill="#FFFFFF" points="4.92 2.1 4.92 2.35 4.69 2.69 4.69 2.93 4.49 3.2 4.05 3.2 3.67 3.44 3.18 3.44 3.18 2.1"></polygon>
                <polygon id="Shape" fill="#C03F2A" points="3.18 3.44 3.31 3.44 3.46 3.27 3.71 3.27 3.84 3.2 3.78 3.1 3.63 3.2 3.5 3.2 3.37 2.93 3.18 3.03 3.18 3.2 3.37 3.2"></polygon>
                <polygon id="Shape" fill="#C03F2A" points="2.27 1.68 2 1.48 1.83 1.48 1.89 1.4 1.8 1.25 1.83 1.2 2 1.25 2.06 1.2 2.08 1.38 2.37 1.61"></polygon>
                <polygon id="Shape" fill="#C03F2A" points="3.78 1.52 4.05 1.3 4.2 1.3 4.16 1.23 4.26 1.1 4.2 1.02 4.05 1.1 3.99 1.02 3.97 1.21 3.67 1.44"></polygon>
                <polygon id="Shape" fill="#C03F2A" points="2.55 1.52 2.29 1.3 2.14 1.3 2.19 1.23 2.08 1.1 2.14 1.02 2.29 1.1 2.34 1.02 2.37 1.21 2.67 1.44"></polygon>
                <polygon id="Shape" fill="#C03F2A" points="2.12 2.02 1.85 1.8 1.7 1.8 1.76 1.74 1.64 1.59 1.7 1.52 1.85 1.59 1.91 1.52 1.93 1.7 2.23 1.93"></polygon>
                <polygon id="Shape" fill="#FFFFFF" points="1.55 2.1 1.62 2.1 1.68 2.19 1.76 2.1 3.18 2.1 3.18 3.27 3.1 3.27 3.18 3.35 3.18 3.44 2.97 3.2 2.97 3.1 3.03 3.1 3.03 3.2 3.1 3.2 3.1 3.1 2.55 2.75 2.1 2.75 2.1 2.39 1.89 2.19 1.76 2.19 1.68 2.27 1.76 2.35 1.68 2.35"></polygon>
                <polygon id="Shape" fill="#E0852A" points="1.55 2.1 1.62 2.1 1.68 2.02 1.76 2.1 3.18 2.1 3.18 0.93 3.1 0.93 3.18 0.85 3.18 0.76 2.97 1.02 2.97 1.1 3.03 1.1 3.03 1.02 3.1 1.02 3.1 1.1 2.55 1.48 2.1 1.48 2.1 1.84 1.89 2.02 1.76 2.02 1.68 1.93 1.76 1.85 1.68 1.85"></polygon>
                <polygon id="Shape" fill="#307359" points="1.85 2.1 3.18 2.1 3.18 3.1 2.59 2.69 2.15 2.69 2.15 2.35"></polygon>
                <polygon id="Shape" fill="#C03F2A" points="4.07 1.68 4.33 1.48 4.5 1.48 4.45 1.4 4.56 1.25 4.5 1.2 4.33 1.25 4.29 1.2 4.26 1.38 3.97 1.61"></polygon>
                <polygon id="Shape" fill="#C03F2A" points="4.22 2.02 4.49 1.8 4.63 1.8 4.6 1.74 4.69 1.59 4.63 1.52 4.49 1.59 4.43 1.52 4.41 1.7 4.11 1.93"></polygon>
                <polygon id="Shape" fill="#FFFFFF" points="4.79 2.1 4.71 2.1 4.66 2.02 4.58 2.1 3.18 2.1 3.18 0.93 3.24 0.93 3.18 0.85 3.18 0.76 3.37 1.02 3.37 1.1 3.31 1.1 3.31 1.02 3.24 1.02 3.24 1.1 3.78 1.48 4.24 1.48 4.24 1.84 4.45 2.02 4.58 2.02 4.66 1.93 4.58 1.85 4.66 1.85"></polygon>
                <polygon id="Shape" fill="#307359" points="4.49 2.1 3.18 2.1 3.18 1.1 3.74 1.52 4.18 1.52 4.18 1.85"></polygon>
                <polygon id="Shape" fill="#C03F2A" points="3.78 2.69 4.05 2.9 4.2 2.9 4.16 2.97 4.26 3.12 4.2 3.2 4.05 3.12 3.99 3.2 3.97 3.01 3.67 2.78"></polygon>
                <polygon id="Shape" fill="#C03F2A" points="4.07 2.52 4.33 2.75 4.5 2.75 4.45 2.81 4.56 2.95 4.5 3.03 4.33 2.95 4.29 3.03 4.26 2.84 3.97 2.61"></polygon>
                <polygon id="Shape" fill="#C03F2A" points="4.22 2.19 4.49 2.41 4.63 2.41 4.6 2.48 4.69 2.61 4.63 2.69 4.49 2.61 4.43 2.69 4.41 2.5 4.11 2.27"></polygon>
                <polygon id="Shape" fill="#E0852A" points="4.79 2.1 4.71 2.1 4.66 2.19 4.58 2.1 3.18 2.1 3.18 3.27 3.24 3.27 3.18 3.35 3.18 3.44 3.37 3.2 3.37 3.1 3.31 3.1 3.31 3.2 3.24 3.2 3.24 3.1 3.78 2.75 4.24 2.75 4.24 2.39 4.45 2.19 4.58 2.19 4.66 2.27 4.58 2.35 4.66 2.35"></polygon>
                <polygon id="Shape" fill="#C03F2A" points="4.49 2.1 3.18 2.1 3.18 3.1 3.74 2.69 4.18 2.69 4.18 2.35"></polygon>
                <polygon id="Shape" fill="#C03F2A" points="1.85 2.1 3.18 2.1 3.18 1.1 2.59 1.52 2.15 1.52 2.15 1.85"></polygon>
                <polygon id="Shape" fill="#C03F2A" points="3.31 2.1 3.67 1.85 3.9 1.85 3.82 1.78 3.97 1.61 3.9 1.52 3.67 1.61 3.61 1.52 3.58 1.74 3.18 2"></polygon>
                <polygon id="Shape" fill="#C03F2A" points="3.03 2.1 2.67 2.35 2.44 2.35 2.51 2.44 2.37 2.61 2.44 2.69 2.67 2.61 2.74 2.69 2.76 2.46 3.18 2.19"></polygon>
                <polygon id="Shape" fill="#307359" points="3.03 2.1 2.67 1.85 2.44 1.85 2.51 1.78 2.37 1.61 2.44 1.52 2.67 1.61 2.74 1.52 2.76 1.74 3.18 2"></polygon>
                <polygon id="Shape" fill="#307359" points="3.31 2.1 3.67 2.35 3.9 2.35 3.82 2.44 3.97 2.61 3.9 2.69 3.67 2.61 3.61 2.69 3.58 2.46 3.18 2.19"></polygon>
                <polygon id="Shape" fill="#FFFFFF" points="2.74 2.1 3.18 1.68 3.61 2.1 3.18 2.52"></polygon>
                <polygon id="Shape" fill="#C03F2A" points="1.76 2.27 1.81 2.35 1.76 2.44 1.68 2.44 1.49 2.1 1.55 2.1 1.68 2.35 1.76 2.35 1.68 2.27 1.76 2.19 1.89 2.19 1.89 2.27"></polygon>
                <polygon id="Shape" fill="#C03F2A" points="1.76 1.93 1.81 1.85 1.76 1.78 1.68 1.78 1.49 2.1 1.55 2.1 1.68 1.85 1.76 1.85 1.68 1.93 1.76 2.02 1.89 2.02 1.89 1.93"></polygon>
                <polygon id="Shape" fill="#C03F2A" points="4.58 2.27 4.52 2.35 4.58 2.44 4.66 2.44 4.85 2.1 4.79 2.1 4.66 2.35 4.58 2.35 4.66 2.27 4.58 2.19 4.45 2.19 4.45 2.27"></polygon>
                <polygon id="Shape" fill="#C03F2A" points="4.58 1.93 4.52 1.85 4.58 1.78 4.66 1.78 4.85 2.1 4.79 2.1 4.66 1.85 4.58 1.85 4.66 1.93 4.58 2.02 4.45 2.02 4.45 1.93"></polygon>
                <rect id="Rectangle-path" fill="#C03F2A" fill-rule="nonzero" x="3.1" y="1.78" width="1" height="1"></rect>
                <rect id="Rectangle-path" fill="#C03F2A" fill-rule="nonzero" x="2.89" y="1.93" width="1" height="1"></rect>
                <polygon id="Shape" fill="#307359" points="2.57 15.19 1.36 15.89 1.36 17.09 2.57 17.79 3.78 17.79 5 17.09 5 15.89 3.78 15.19"></polygon>
                <polygon id="Shape" stroke="#292C2F" stroke-linecap="square" points="2.57 15.19 1.36 15.89 1.36 17.09 2.57 17.79 3.78 17.79 5 17.09 5 15.89 3.78 15.19"></polygon>
                <polygon id="Shape" fill="#CF3B1D" points="1.8 16.21 1.87 16.21 1.87 16.04 2.02 16.04 2.02 16.21 2.1 16.21 2.1 15.82 2.02 15.82 2.02 15.98 1.87 15.98 1.87 15.82 1.8 15.82"></polygon>
                <polygon id="Shape" fill="#CF3B1D" points="3.65 17.55 3.72 17.55 3.72 17.39 3.88 17.39 3.88 17.55 3.95 17.55 3.95 17.16 3.88 17.16 3.88 17.33 3.72 17.33 3.72 17.16 3.65 17.16"></polygon>
                <polygon id="Shape" fill="#CF3B1D" points="4.24 16.21 4.32 16.21 4.32 16.04 4.46 16.04 4.46 16.21 4.54 16.21 4.54 15.82 4.46 15.82 4.46 15.98 4.32 15.98 4.32 15.82 4.24 15.82"></polygon>
                <polygon id="Shape" fill="#CF3B1D" points="4.24 16.89 4.32 16.89 4.32 16.72 4.46 16.72 4.46 16.89 4.54 16.89 4.54 16.48 4.46 16.48 4.46 16.67 4.32 16.67 4.32 16.48 4.24 16.48"></polygon>
                <polygon id="Shape" fill="#E0852A" points="3.18 17.73 3.18 16.48 4.92 16.48 4.92 17.05 3.77 17.73"></polygon>
                <polygon id="Shape" fill="#E0852A" points="3.18 15.25 3.18 16.48 1.42 16.48 1.42 15.93 2.59 15.25"></polygon>
                <polygon id="Shape" fill="#FFFFFF" points="3.18 15.25 3.18 16.48 4.92 16.48 4.92 15.93 3.77 15.25"></polygon>
                <polygon id="Shape" fill="#FFFFFF" points="3.18 17.73 3.18 16.48 1.42 16.48 1.42 17.05 2.59 17.73"></polygon>
                <path d="M4.11,16 L4.81,16 L4.11,15.66 L4.11,16 Z M4.93,15.95 L4.93,16.5 L3.82,16.5 L3.82,16 L3.58,16 L3.29,15.83 L3.29,15.44 L3.46,15.27 L3.24,15.27 L3.24,15.84 L3.18,15.84 L3.18,15.22 L3.77,15.22 L4.93,15.95 Z" id="Shape" fill="#E0852A"></path>
                <path d="M4.11,16 L4.81,16 L4.11,15.66 L4.11,16 Z M4.93,15.95 L4.93,16.5 L3.82,16.5 L3.82,16 L3.58,16 L3.29,15.83 L3.29,15.44 L3.46,15.27 L3.24,15.27 L3.24,15.84 L3.18,15.84 L3.18,15.22 L3.77,15.22 L4.93,15.95 Z" id="Shape" stroke="#292C2F" stroke-linecap="square"></path>
                <polygon id="Shape" fill="#C03F2A" points="2.59 16.1 2.59 16.88 2.76 16.88 3.18 17.1 3.58 16.88 3.77 16.88 3.77 16.1 3.58 16.1 3.18 15.87 2.76 16.1"></polygon>
                <path d="M2.23,17 L1.53,17 L2.23,17.34 L2.23,17 Z M1.42,17 L1.42,16.43 L2.53,16.43 L2.53,16.89 L2.76,16.89 L3,17.1 L3,17.5 L2.83,17.67 L3.1,17.67 L3.1,17.1 L3.18,17.1 L3.18,17.73 L2.59,17.73 L1.42,17 Z" id="Shape" fill="#E0852A"></path>
                <path d="M2.23,17 L1.53,17 L2.23,17.34 L2.23,17 Z M1.42,17 L1.42,16.43 L2.53,16.43 L2.53,16.89 L2.76,16.89 L3,17.1 L3,17.5 L2.83,17.67 L3.1,17.67 L3.1,17.1 L3.18,17.1 L3.18,17.73 L2.59,17.73 L1.42,17 Z" id="Shape" stroke="#292C2F" stroke-linecap="square"></path>
                <path d="M2.23,16 L1.53,16 L2.23,15.66 L2.23,16 Z M1.41,15.95 L1.41,16.5 L2.53,16.5 L2.53,16 L2.76,16 L3,15.87 L3,15.48 L2.83,15.31 L3.1,15.31 L3.1,15.88 L3.18,15.88 L3.18,15.26 L2.59,15.26 L1.41,15.95 Z" id="Shape" fill="#FFFFFF"></path>
                <path d="M2.23,16 L1.53,16 L2.23,15.66 L2.23,16 Z M1.41,15.95 L1.41,16.5 L2.53,16.5 L2.53,16 L2.76,16 L3,15.87 L3,15.48 L2.83,15.31 L3.1,15.31 L3.1,15.88 L3.18,15.88 L3.18,15.26 L2.59,15.26 L1.41,15.95 Z" id="Shape" stroke="#292C2F" stroke-linecap="square"></path>
                <path d="M4.11,17 L4.81,17 L4.11,17.34 L4.11,17 Z M4.93,17.06 L4.93,16.49 L3.82,16.49 L3.82,16.95 L3.58,16.95 L3.29,17.12 L3.29,17.52 L3.46,17.69 L3.24,17.69 L3.24,17.1 L3.18,17.1 L3.18,17.73 L3.77,17.73 L4.93,17.06 Z" id="Shape" fill="#FFFFFF"></path>
                <path d="M4.11,17 L4.81,17 L4.11,17.34 L4.11,17 Z M4.93,17.06 L4.93,16.49 L3.82,16.49 L3.82,16.95 L3.58,16.95 L3.29,17.12 L3.29,17.52 L3.46,17.69 L3.24,17.69 L3.24,17.1 L3.18,17.1 L3.18,17.73 L3.77,17.73 L4.93,17.06 Z" id="Shape" stroke="#292C2F" stroke-linecap="square"></path>
                <polygon id="Shape" fill="#C03F2A" points="1.76 16.93 1.83 16.93 1.83 16.76 1.98 16.76 1.98 16.93 2.06 16.93 2.06 16.54 1.98 16.54 1.98 16.7 1.83 16.7 1.83 16.54 1.76 16.54"></polygon>
                <polygon id="Shape" fill="#C03F2A" points="2.46 17.5 2.53 17.5 2.53 17.33 2.68 17.33 2.68 17.5 2.76 17.5 2.76 17.1 2.68 17.1 2.68 17.27 2.53 17.27 2.53 17.1 2.46 17.1"></polygon>
                <polygon id="Shape" fill="#C03F2A" points="1.76 16.04 1.83 16.04 1.83 16.21 1.98 16.21 1.98 16.04 2.06 16.04 2.06 16.44 1.98 16.44 1.98 16.27 1.83 16.27 1.83 16.44 1.76 16.44"></polygon>
                <polygon id="Shape" fill="#C03F2A" points="2.46 15.48 2.53 15.48 2.53 15.64 2.68 15.64 2.68 15.48 2.76 15.48 2.76 15.87 2.68 15.87 2.68 15.7 2.53 15.7 2.53 15.87 2.46 15.87"></polygon>
                <polygon id="Shape" fill="#C03F2A" points="4.28 16.44 4.35 16.44 4.35 16.27 4.5 16.27 4.5 16.44 4.58 16.44 4.58 16.04 4.5 16.04 4.5 16.21 4.35 16.21 4.35 16.04 4.28 16.04"></polygon>
                <polygon id="Shape" fill="#C03F2A" points="3.58 17.5 3.65 17.5 3.65 17.33 3.8 17.33 3.8 17.5 3.88 17.5 3.88 17.1 3.8 17.1 3.8 17.27 3.65 17.27 3.65 17.1 3.58 17.1"></polygon>
                <polygon id="Shape" fill="#C03F2A" points="4.28 16.93 4.35 16.93 4.35 16.76 4.5 16.76 4.5 16.93 4.58 16.93 4.58 16.54 4.5 16.54 4.5 16.7 4.35 16.7 4.35 16.54 4.28 16.54"></polygon>
                <polygon id="Shape" fill="#C03F2A" points="3.58 15.87 3.65 15.87 3.65 15.7 3.8 15.7 3.8 15.87 3.88 15.87 3.88 15.48 3.8 15.48 3.8 15.64 3.65 15.64 3.65 15.48 3.58 15.48"></polygon>
                <polygon id="Shape" fill="#307359" points="3.24 16.48 3.46 16.29 3.58 16.29 3.58 16.38 3.46 16.38 3.46 16.44 3.63 16.44 3.63 16.23 3.46 16.23 3.46 16.08 3.24 16.08 3.24 16.23 3.29 16.23 3.29 16.12 3.41 16.12 3.41 16.23 3.18 16.44 2.93 16.23 2.93 16.12 3.04 16.12 3.04 16.23 3.1 16.23 3.1 16.08 2.87 16.08 2.87 16.23 2.71 16.23 2.71 16.44 2.87 16.44 2.87 16.38 2.76 16.38 2.76 16.29 2.87 16.29 3.1 16.48 2.87 16.69 2.76 16.69 2.76 16.59 2.87 16.59 2.87 16.54 2.71 16.54 2.71 16.74 2.87 16.74 2.87 16.89 3.1 16.89 3.1 16.74 3.04 16.74 3.04 16.86 2.93 16.86 2.93 16.74 3.18 16.54 3.41 16.74 3.41 16.86 3.29 16.86 3.29 16.74 3.24 16.74 3.24 16.89 3.46 16.89 3.46 16.74 3.63 16.74 3.63 16.54 3.46 16.54 3.46 16.59 3.58 16.59 3.58 16.69 3.46 16.69"></polygon>
                <polygon id="Shape" fill="#C03F2A" points="1.53 6.02 1.64 5.87 2.33 5.87 2.84 5.22 3.52 5.22 4.03 5.87 4.69 5.87 4.8 6.02 4.69 6.17 4.03 6.17 3.52 6.83 2.84 6.83 2.33 6.17 1.64 6.17"></polygon>
                <polygon id="Shape" fill="#C03F2A" points="1.59 5.85 1.64 5.79 2.34 5.79 2.87 5.17 3.46 5.17 3.99 5.79 4.69 5.79 4.75 5.85 4.69 5.9 3.99 5.9 3.52 6.45 2.82 6.45 2.34 5.9 1.64 5.9"></polygon>
                <polygon id="Shape" stroke="#292C2F" stroke-linecap="square" points="1.59 5.85 1.64 5.79 2.34 5.79 2.87 5.17 3.46 5.17 3.99 5.79 4.69 5.79 4.75 5.85 4.69 5.9 3.99 5.9 3.52 6.45 2.82 6.45 2.34 5.9 1.64 5.9"></polygon>
                <path d="M3.46,5.9 L3.69,6.15 L3.58,6.28 L3.52,6.23 L3.46,6.23 L3.46,6.28 L3.51,6.36 L3.62,6.36 L3.73,6.23 L3.73,6.09 L3.5,5.82 L3.73,5.55 L3.73,5.45 L3.62,5.32 L3.52,5.32 L3.47,5.38 L3.47,5.45 L3.52,5.45 L3.58,5.38 L3.69,5.51 L3.46,5.77 L3.23,5.51 L3.46,5.24 L3.46,5.18 L3.41,5.18 L3.18,5.45 L2.95,5.18 L2.89,5.18 L2.89,5.24 L3.11,5.51 L2.89,5.77 L2.66,5.51 L2.77,5.38 L2.83,5.45 L2.89,5.45 L2.89,5.38 L2.83,5.32 L2.72,5.32 L2.61,5.45 L2.61,5.56 L2.84,5.83 L2.61,6.1 L2.61,6.23 L2.72,6.36 L2.84,6.36 L2.9,6.28 L2.9,6.23 L2.84,6.23 L2.78,6.28 L2.67,6.15 L2.9,5.9 L3.12,6.15 L2.9,6.42 L2.9,6.49 L2.95,6.49 L3.18,6.23 L3.41,6.49 L3.47,6.49 L3.47,6.41 L3.24,6.14 L3.46,5.9 Z M3.17,5.56 L2.94,5.83 L3.17,6.1 L3.4,5.83 L3.17,5.56 Z" id="Shape" fill="#E0852A"></path>
                <path d="M3.46,5.9 L3.69,6.15 L3.58,6.28 L3.52,6.23 L3.46,6.23 L3.46,6.28 L3.51,6.36 L3.62,6.36 L3.73,6.23 L3.73,6.09 L3.5,5.82 L3.73,5.55 L3.73,5.45 L3.62,5.32 L3.52,5.32 L3.47,5.38 L3.47,5.45 L3.52,5.45 L3.58,5.38 L3.69,5.51 L3.46,5.77 L3.23,5.51 L3.46,5.24 L3.46,5.18 L3.41,5.18 L3.18,5.45 L2.95,5.18 L2.89,5.18 L2.89,5.24 L3.11,5.51 L2.89,5.77 L2.66,5.51 L2.77,5.38 L2.83,5.45 L2.89,5.45 L2.89,5.38 L2.83,5.32 L2.72,5.32 L2.61,5.45 L2.61,5.56 L2.84,5.83 L2.61,6.1 L2.61,6.23 L2.72,6.36 L2.84,6.36 L2.9,6.28 L2.9,6.23 L2.84,6.23 L2.78,6.28 L2.67,6.15 L2.9,5.9 L3.12,6.15 L2.9,6.42 L2.9,6.49 L2.95,6.49 L3.18,6.23 L3.41,6.49 L3.47,6.49 L3.47,6.41 L3.24,6.14 L3.46,5.9 Z M3.17,5.56 L2.94,5.83 L3.17,6.1 L3.4,5.83 L3.17,5.56 Z" id="Shape" stroke="#292C2F" stroke-linecap="square"></path>
                <polygon id="Shape" fill="#E0852A" points="2.84 6.55 2.84 7.05 2.89 7 2.95 7.05 3.01 7 3.06 7.05 3.12 7 3.18 7.05 3.24 7 3.29 7.05 3.35 7 3.41 7.05 3.46 7 3.52 7.05 3.52 6.55"></polygon>
                <polygon id="Shape" fill="#E0852A" points="3.52 5.11 3.52 4.6 3.46 4.66 3.41 4.6 3.35 4.66 3.29 4.6 3.24 4.66 3.18 4.6 3.12 4.66 3.06 4.6 3.01 4.66 2.95 4.6 2.89 4.66 2.84 4.6 2.84 5.11"></polygon>
                <polygon id="Shape" fill="#E0852A" points="4.46 5.7 4.46 5.18 4.41 5.24 4.35 5.18 4.29 5.24 4.24 5.18 4.2 5.24 4.14 5.18 4.09 5.24 4.03 5.18 4.03 5.7"></polygon>
                <polygon id="Shape" fill="#E0852A" points="2.33 5.7 2.33 5.18 2.27 5.24 2.21 5.18 2.15 5.24 2.1 5.18 2.04 5.24 1.98 5.18 1.93 5.24 1.87 5.18 1.87 5.7"></polygon>
                <polygon id="Shape" fill="#E0852A" points="4.46 5.96 4.46 6.49 4.41 6.41 4.35 6.49 4.29 6.41 4.24 6.49 4.2 6.41 4.14 6.49 4.09 6.41 4.03 6.49 4.03 5.96"></polygon>
                <polygon id="Shape" fill="#E0852A" points="2.33 5.96 2.33 6.49 2.27 6.41 2.21 6.49 2.15 6.41 2.1 6.49 2.04 6.41 1.98 6.49 1.93 6.41 1.87 6.49 1.87 5.96"></polygon>
                <polygon id="Shape" fill="#307359" points="3.52 6.55 3.52 6.87 3.58 6.81 3.63 6.87 3.69 6.81 3.74 6.87 3.8 6.81 3.86 6.87 3.92 6.81 3.97 6.87 4.03 6.81 4.03 5.96"></polygon>
                <polygon id="Shape" fill="#307359" points="2.84 6.55 2.84 6.87 2.78 6.81 2.72 6.87 2.67 6.81 2.61 6.87 2.55 6.81 2.5 6.87 2.44 6.81 2.38 6.87 2.33 6.81 2.33 5.96"></polygon>
                <polygon id="Shape" fill="#307359" points="2.84 5.11 2.84 4.79 2.78 4.86 2.72 4.79 2.67 4.86 2.61 4.79 2.55 4.86 2.5 4.79 2.44 4.86 2.38 4.79 2.33 4.86 2.33 5.7"></polygon>
                <polygon id="Shape" fill="#307359" points="3.52 5.11 3.52 4.79 3.58 4.86 3.63 4.79 3.69 4.86 3.74 4.79 3.8 4.86 3.86 4.79 3.92 4.86 3.97 4.79 4.03 4.86 4.03 5.7"></polygon>
                <polygon id="Shape" fill="#307359" points="1.87 6.36 1.81 6.28 1.76 6.36 1.7 6.28 1.64 6.36 1.59 6.28 1.53 6.36 1.47 6.28 1.42 6.36 1.42 5.32 1.47 5.38 1.53 5.32 1.59 5.38 1.64 5.32 1.7 5.38 1.76 5.32 1.81 5.38 1.87 5.32 1.87 5.7 1.64 5.7 1.53 5.83 1.64 5.96 1.87 5.96"></polygon>
                <polygon id="Shape" fill="#307359" points="4.46 6.36 4.52 6.28 4.58 6.36 4.63 6.28 4.69 6.36 4.75 6.28 4.8 6.36 4.86 6.28 4.92 6.36 4.92 5.32 4.86 5.38 4.8 5.32 4.75 5.38 4.69 5.32 4.63 5.38 4.58 5.32 4.52 5.38 4.46 5.32 4.46 5.7 4.69 5.7 4.8 5.83 4.69 5.96 4.46 5.96"></polygon>
                <path d="M2.55,6.59 C2.55,6.59 2.5,6.64 2.5,6.66 C2.51642663,6.69294356 2.54516745,6.71809178 2.58,6.73 C2.61670194,6.72563825 2.64563825,6.69670194 2.65,6.66 C2.65,6.66 2.6,6.59 2.6,6.59 L2.6,6.49 C2.6,6.49 2.72,6.66 2.72,6.59 C2.72,6.52 2.6,6.44 2.6,6.44 C2.6,6.44 2.49,6.55 2.49,6.59 C2.49,6.63 2.6,6.49 2.6,6.49 L2.55,6.59 Z" id="Shape" fill="#FFFFFF"></path>
                <path d="M3.14,6.79 C3.14,6.79 3.08,6.85 3.08,6.89 C3.08,6.93 3.14,7 3.17,7 C3.21002688,6.97520743 3.23874616,6.93571842 3.25,6.89 C3.25,6.89 3.19,6.79 3.19,6.79 L3.19,6.64 C3.19,6.64 3.29,6.87 3.29,6.77 C3.27328706,6.69323186 3.23906378,6.62136297 3.19,6.56 L3.14,6.56 C3.14,6.56 3,6.73 3,6.77 C3,6.81 3.1,6.64 3.1,6.64 L3.14,6.79 Z" id="Shape" fill="#C03F2A"></path>
                <path d="M2.67,5.83 C2.67,5.83 2.61,5.9 2.55,5.9 C2.49,5.9 2.44,5.9 2.44,5.83 C2.44,5.76 2.44,5.77 2.55,5.77 C2.66,5.77 2.67,5.77 2.67,5.83 Z" id="Shape" fill="#307359"></path>
                <path d="M3.29,5.83 C3.29,5.83 3.24,5.9 3.18,5.9 C3.12,5.9 3.07,5.9 3.07,5.83 C3.07,5.76 3.07,5.77 3.18,5.77 C3.29,5.77 3.29,5.77 3.29,5.83 Z" id="Shape" fill="#307359"></path>
                <path d="M3.92,5.83 C3.92,5.83 3.86,5.9 3.81,5.9 C3.76,5.9 3.69,5.9 3.69,5.83 C3.69,5.76 3.69,5.77 3.81,5.77 C3.93,5.77 3.92,5.77 3.92,5.83 Z" id="Shape" fill="#307359"></path>
                <path d="M2.53,5.09 C2.51434739,5.06218973 2.50416407,5.03163979 2.5,5 C2.5,5 2.5,4.93 2.55,4.93 C2.6,4.93 2.63,4.98 2.63,5 C2.63544446,5.02975298 2.63544446,5.06024702 2.63,5.09 L2.63,5.18 C2.63,5.18 2.73,5.01 2.73,5.09 C2.73,5.17 2.63,5.24 2.63,5.24 L2.53,5.24 C2.53,5.24 2.43,5.13 2.43,5.09 C2.43,5.05 2.53,5.18 2.53,5.18 L2.53,5.09 Z" id="Shape" fill="#FFFFFF"></path>
                <path d="M3.12,4.88 C3.09552616,4.84740933 3.07846222,4.80986867 3.07,4.77 C3.0925329,4.72737942 3.12737942,4.6925329 3.17,4.67 C3.17,4.67 3.25,4.73 3.25,4.77 C3.25,4.81 3.19,4.88 3.19,4.88 L3.19,5 C3.19,5 3.3,4.76 3.3,4.87 C3.3,4.98 3.19,5.06 3.19,5.06 L3.12,5.06 C3.12,5.06 3,4.94 3,4.9 C3,4.86 3.09,5.03 3.09,5.03 L3.12,4.88 Z" id="Shape" fill="#C03F2A"></path>
                <path d="M3.77,6.59 C3.77,6.59 3.71,6.64 3.71,6.66 C3.71,6.68 3.77,6.73 3.79,6.73 C3.81,6.73 3.87,6.73 3.87,6.66 C3.87,6.59 3.82,6.59 3.82,6.59 L3.82,6.49 C3.82,6.49 3.93,6.66 3.93,6.59 C3.93,6.52 3.82,6.44 3.82,6.44 C3.82,6.44 3.71,6.55 3.71,6.59 C3.71,6.63 3.82,6.49 3.82,6.49 L3.77,6.59 Z" id="Shape" fill="#FFFFFF"></path>
                <path d="M3.74,5.09 C3.73455554,5.06024702 3.73455554,5.02975298 3.74,5 C3.74,5 3.74,4.93 3.8,4.93 C3.86,4.93 3.88,4.98 3.88,5 C3.88544446,5.02975298 3.88544446,5.06024702 3.88,5.09 L3.88,5.18 C3.88,5.18 3.9,5 3.9,5.09 C3.9,5.18 3.81,5.24 3.81,5.24 L3.74,5.24 C3.74,5.24 3.65,5.13 3.65,5.09 C3.65,5.05 3.74,5.18 3.74,5.18 L3.74,5.09 Z" id="Shape" fill="#FFFFFF"></path>
                <path d="M2.06,6.23 C2.06,6.23 2,6.28 2,6.3 C2,6.32 2.08,6.37 2.1,6.37 C2.13917788,6.36176897 2.17237845,6.33594631 2.19,6.3 C2.19,6.3 2.13,6.23 2.13,6.23 L2.13,6.13 C2.13,6.13 2.25,6.28 2.25,6.2 C2.25,6.12 2.13,6.07 2.13,6.07 L2.06,6.07 C2.06,6.07 1.93,6.18 1.94,6.2 C1.95,6.22 2.06,6.13 2.06,6.13 L2.06,6.23 Z" id="Shape" fill="#C03F2A"></path>
                <path d="M2,5.49 C2,5.49 2,5.45 2,5.41 C2.01962545,5.37149493 2.0571033,5.34526043 2.1,5.34 C2.13917788,5.34823103 2.17237845,5.37405369 2.19,5.41 C2.19,5.41 2.11,5.49 2.11,5.49 L2.11,5.58 C2.11,5.58 2.22,5.43 2.22,5.51 C2.22,5.59 2.11,5.64 2.11,5.64 L2,5.64 C2,5.64 1.87,5.53 1.88,5.51 C1.89,5.49 2,5.58 2,5.58 L2,5.49 Z" id="Shape" fill="#C03F2A"></path>
                <path d="M4.24,6.21 C4.24,6.21 4.18,6.26 4.18,6.28 C4.18,6.3 4.24,6.36 4.27,6.36 C4.3,6.36 4.36,6.3 4.36,6.28 C4.36,6.26 4.29,6.21 4.29,6.21 L4.29,6.11 C4.29,6.11 4.4,6.26 4.4,6.2 C4.4,6.14 4.29,6.07 4.29,6.07 L4.24,6.07 C4.24,6.07 4.11,6.16 4.13,6.2 C4.15,6.24 4.24,6.11 4.24,6.11 L4.24,6.21 Z" id="Shape" fill="#C03F2A"></path>
                <path d="M4.22,5.47 C4.22,5.47 4.16,5.47 4.16,5.39 C4.16,5.31 4.22,5.34 4.25,5.34 C4.28,5.34 4.34,5.34 4.34,5.39 C4.34,5.44 4.26,5.47 4.26,5.47 L4.26,5.56 C4.26,5.56 4.37,5.41 4.37,5.49 C4.37,5.57 4.26,5.62 4.26,5.62 L4.22,5.62 C4.22,5.62 4.09,5.51 4.1,5.49 C4.11,5.47 4.22,5.56 4.22,5.56 L4.22,5.47 Z" id="Shape" fill="#C03F2A"></path>
                <path d="M1.59,6.23 C1.58078784,6.2007072 1.58078784,6.1692928 1.59,6.14 C1.59,6.14 1.65,6.06 1.67,6.06 C1.69,6.06 1.73,6.12 1.73,6.14 L1.73,6.23 L1.73,6.15 C1.73,6.26 1.73,6.26 1.67,6.15 L1.59,6.23 Z" id="Shape" fill="#FFFFFF"></path>
                <path d="M1.59,5.47 C1.58191462,5.49945522 1.58191462,5.53054478 1.59,5.56 C1.59,5.56 1.65,5.63 1.67,5.63 C1.69,5.63 1.73,5.58 1.73,5.54 L1.73,5.47 L1.73,5.54 C1.73,5.43 1.73,5.43 1.67,5.54 L1.59,5.47 Z" id="Shape" fill="#FFFFFF"></path>
                <path d="M4.66,6.21 C4.6513887,6.18061795 4.6513887,6.14938205 4.66,6.12 C4.66,6.12 4.72,6.06 4.74,6.06 C4.78418278,6.06 4.82,6.09581722 4.82,6.14 C4.82567533,6.16973159 4.82567533,6.20026841 4.82,6.23 L4.82,6.15 C4.82,6.24 4.82,6.24 4.76,6.15 L4.66,6.21 Z" id="Shape" fill="#FFFFFF"></path>
                <path d="M4.66,5.47 C4.65359979,5.49289445 4.65359979,5.51710555 4.66,5.54 C4.66,5.54 4.72,5.62 4.74,5.62 C4.76,5.62 4.82,5.56 4.82,5.54 L4.82,5.45 L4.82,5.53 C4.82,5.41 4.82,5.41 4.76,5.53 L4.66,5.47 Z" id="Shape" fill="#FFFFFF"></path>
                <path d="M2.82,7.07 L2.82,6.89 L2.29,6.89 L2.29,6.53 L1.81,6.53 L1.81,6.39 L1.41,6.39 L1.41,5.28 L1.81,5.28 L1.81,5.17 L2.28,5.17 L2.28,4.79 L2.81,4.79 L2.81,4.62 L3.51,4.62 L3.51,4.79 L4.04,4.79 L4.04,5.17 L4.51,5.17 L4.51,5.28 L4.91,5.28 L4.91,6.39 L4.51,6.39 L4.51,6.52 L4.05,6.52 L4.05,6.88 L3.52,6.88 L3.52,7.07 L2.82,7.07 Z M2.76,7.13 L2.76,7 L2.23,7 L2.23,6.59 L1.76,6.59 L1.76,6.45 L1.36,6.45 L1.36,5.22 L1.76,5.22 L1.76,5.11 L2.24,5.11 L2.24,4.73 L2.77,4.73 L2.77,4.54 L3.59,4.54 L3.59,4.73 L4.12,4.73 L4.12,5.11 L4.59,5.11 L4.59,5.22 L5,5.22 L5,6.45 L4.58,6.45 L4.58,6.58 L4.11,6.58 L4.11,7 L3.58,7 L3.58,7.17 L2.76,7.13 Z" id="Shape" fill="#C03F2A"></path>
                <path d="M2.82,7.07 L2.82,6.89 L2.29,6.89 L2.29,6.53 L1.81,6.53 L1.81,6.39 L1.41,6.39 L1.41,5.28 L1.81,5.28 L1.81,5.17 L2.28,5.17 L2.28,4.79 L2.81,4.79 L2.81,4.62 L3.51,4.62 L3.51,4.79 L4.04,4.79 L4.04,5.17 L4.51,5.17 L4.51,5.28 L4.91,5.28 L4.91,6.39 L4.51,6.39 L4.51,6.52 L4.05,6.52 L4.05,6.88 L3.52,6.88 L3.52,7.07 L2.82,7.07 Z M2.76,7.13 L2.76,7 L2.23,7 L2.23,6.59 L1.76,6.59 L1.76,6.45 L1.36,6.45 L1.36,5.22 L1.76,5.22 L1.76,5.11 L2.24,5.11 L2.24,4.73 L2.77,4.73 L2.77,4.54 L3.59,4.54 L3.59,4.73 L4.12,4.73 L4.12,5.11 L4.59,5.11 L4.59,5.22 L5,5.22 L5,6.45 L4.58,6.45 L4.58,6.58 L4.11,6.58 L4.11,7 L3.58,7 L3.58,7.17 L2.76,7.13 Z" id="Shape" stroke="#292C2F" stroke-linecap="square"></path>
                <path d="M13.07,4.39 C13.07,3.04518663 11.9798134,1.955 10.635,1.955 C9.29018663,1.955 8.2,3.04518663 8.2,4.39 C8.2,5.73481337 9.29018663,6.825 10.635,6.825 C11.9798134,6.825 13.07,5.73481337 13.07,4.39 Z" id="Shape" fill="#FFFFFF"></path>
                <path d="M12.4,4 C12.388954,2.6703547 11.30309,1.60089006 9.97343058,1.61007794 C8.64377114,1.61926582 7.57279007,2.70363415 7.58011977,4.03330513 C7.58744947,5.36297611 8.67032008,6.43547151 10,6.43 C10.6409171,6.42736269 11.254385,6.16953721 11.7047621,5.71353044 C12.1551391,5.25752367 12.4053243,4.6409004 12.4,4 Z" id="Shape" fill="#307359"></path>
                <polygon id="Shape" fill="#FBFCFC" points="10.95 3.03 10.6 3.03 10.51 3.37 10.4 3.03 10.05 3.03 10.32 2.82 10.21 2.5 10.49 2.69 10.78 2.5 10.68 2.82"></polygon>
                <polygon id="Shape" fill="#FBFCFC" points="9.71 2.41 9.37 2.43 9.28 2.75 9.17 2.43 8.83 2.41 9.09 2.19 8.97 1.88 9.26 2.06 9.53 1.88 9.45 2.19"></polygon>
                <polygon id="Shape" fill="#FBFCFC" points="9.71 3.65 9.37 3.65 9.28 3.97 9.17 3.65 8.83 3.65 9.09 3.44 8.97 3.1 9.26 3.31 9.53 3.1 9.45 3.44"></polygon>
                <polygon id="Shape" fill="#FBFCFC" points="9.71 4.9 9.37 4.9 9.28 5.22 9.17 4.9 8.83 4.9 9.09 4.69 8.97 4.35 9.26 4.56 9.53 4.35 9.45 4.69"></polygon>
                <polygon id="Shape" fill="#FBFCFC" points="8.48 4.26 8.14 4.26 8.05 4.6 7.93 4.26 7.59 4.26 7.86 4.05 7.75 3.73 8.03 3.92 8.31 3.73 8.22 4.05"></polygon>
                <polygon id="Shape" fill="#C03F2A" points="3.58 17.5 3.65 17.5 3.65 17.33 3.8 17.33 3.8 17.5 3.88 17.5 3.88 17.1 3.8 17.1 3.8 17.27 3.65 17.27 3.65 17.1 3.58 17.1"></polygon>
            </g>
        </g>
    </g>
</svg>