<?xml version="1.0" encoding="utf-8"?>
<!-- Generator: Adobe Illustrator 21.0.0, SVG Export Plug-In . SVG Version: 6.00 Build 0)  -->
<svg version="1.1" id="Layer_1" xmlns="http://www.w3.org/2000/svg" xmlns:xlink="http://www.w3.org/1999/xlink" x="0px" y="0px"
	 viewBox="0 0 200 200" style="enable-background:new 0 0 200 200;" xml:space="preserve">
<style type="text/css">
	.st0{fill:#F68B11;}
	.st1{fill:#254AA5;}
	.st2{fill:#ED1639;}
	.st3{fill:#5495D6;}
</style>
<title>TOT</title>
<g id="g12">
	<path id="path102" class="st0" d="M186.4,111.5c-0.1-0.4-0.3-0.8-0.5-1.3c-14.6,16.3-50.3,26.9-82.5,24.5
		c-19-1.4-54.1-11-71.8-21.6c18.7,17.6,40.6,30.9,65.4,38.2c29.5,8.6,60.9,8,78.6-1C188.6,141.7,191.5,126.4,186.4,111.5"/>
	<path id="path114" class="st1" d="M145.8,8.8c58,33.6,23.5,139.4-22.6,173.4c-43,31.6-88.6,17-98.6-12.1
		c8.6,12.6,25.8,17.2,41.1,12.2c42.4-16.7,64.2-92.1,67.1-118.2c1.9-22.5-1.1-37.7-9.1-47.2c-9.1-9.5-23.1-14-43.6-7.7
		C94.2-2.3,124.3-3.6,145.8,8.8"/>
	<path id="path118" class="st2" d="M178.3,148.8l0.7-0.4l0.1-0.1c1.2-0.8,2.4-1.6,3.4-2.6c0.5-0.5,1-1,1.6-1.5
		c22.6-22.5,27.4-85-28.3-114.6C136.1,19,90,4.3,44.1,27.1C29,34.6,13.3,50.3,4.9,71.5c6.2-10.1,17-16.9,38.2-19.9
		C64.2,49,93.4,52.2,122,62.1c18.4,6.7,33.3,14.9,45,24.2c9.6,8.1,15.8,15.8,19,23.9c0.2,0.4,0.3,0.8,0.5,1.3
		c5.2,14.8,2.2,30.2-10.7,38.8c0.6-0.3,1.2-0.6,1.9-1l0.3-0.2L178.3,148.8"/>
	<path id="path122" class="st0" d="M12.1,107.5c1.6,2.2,3.2,4.3,5.1,6.2C28.3,88,89.3,71.3,107.3,71.5c-40.4-12.8-80.1-6.7-96.1,6.9
		C5.5,84.7,3.7,94.2,12.1,107.5"/>
	<path id="path126" class="st3" d="M131.2,165.8c-32.5-1.8-79.9-14.1-113.4-51.4l-0.6-0.7c-1.8-2-3.5-4.1-5.1-6.2
		c-8.4-13.3-6.6-22.8-0.8-29.1l0,0c-1.4,1.2-2.7,2.5-3.8,3.9c-8.6,10.9-9.6,28.6-3.8,47.4c12.8,40.7,68.7,65.2,114.1,58.4
		c29-4.3,47.2-20.3,54.7-26.9C159.1,165.2,145.1,166.7,131.2,165.8"/>
</g>
</svg>
