<?xml version="1.0" encoding="utf-8"?>
<!-- Generator: Adobe Illustrator 21.0.0, SVG Export Plug-In . SVG Version: 6.00 Build 0)  -->
<svg version="1.0" id="Layer_1" xmlns="http://www.w3.org/2000/svg" xmlns:xlink="http://www.w3.org/1999/xlink" x="0px" y="0px"
	 viewBox="0 0 200 200" style="enable-background:new 0 0 200 200;" xml:space="preserve">
<style type="text/css">
	.st0{fill:none;stroke:#221815;stroke-width:0.26;}
	.st1{fill:#FFFFFF;}
	.st2{fill:#FFFFFF;stroke:#221815;stroke-width:0.61;}
	.st3{fill:#221815;stroke:#221815;stroke-width:0.61;}
	.st4{fill:none;stroke:#221815;stroke-width:0.25;}
	.st5{fill:#E60012;}
</style>
<g id="g4426">
	<g id="g11497">
		<g id="g6947">
			<path id="path6949" class="st0" d="M73.1,163.1l30.1,0.2h31c25.7-11.6,43.8-37.6,43.8-67.6c0-40.8-33.3-74.2-74-74.2
				c-40.8,0-74.2,33.3-74.2,74.2C29.8,125.5,47.6,151.4,73.1,163.1z"/>
		</g>
		<g id="g6951">
			<path id="path6953" class="st1" d="M44.9,61.1V51c-2.4,3.2-4.6,6.6-6.5,10.1L44.9,61.1z"/>
		</g>
		<g id="g6955">
			<path id="path6957" class="st0" d="M44.9,61.1V51c-2.4,3.2-4.6,6.6-6.5,10.1L44.9,61.1z"/>
		</g>
		<g id="g6959">
			<path id="path6961" class="st1" d="M155.5,42.5v7.3h6.6C160.1,47.2,157.9,44.8,155.5,42.5"/>
		</g>
		<g id="g6963">
			<path id="path6965" class="st0" d="M155.5,42.5v7.3h6.6C160.1,47.2,157.9,44.8,155.5,42.5z"/>
		</g>
		<g id="g6967">
			<path id="path6969" class="st1" d="M118.7,23v4.2h7.2v-2.3C123.5,24.1,121.1,23.5,118.7,23"/>
		</g>
		<g id="g6971">
			<path id="path6973" class="st0" d="M118.7,23v4.2h7.2v-2.3C123.5,24.1,121.1,23.5,118.7,23z"/>
		</g>
		<path id="path6975" class="st2" d="M59.6,61.1h-7.2V49.7h7.2L59.6,61.1z"/>
		<path id="path6977" class="st2" d="M59.6,72.5h-7.2V61.1h7.2L59.6,72.5z"/>
		<path id="path6979" class="st2" d="M59.6,83.8h-7.2V72.4h7.2L59.6,83.8z"/>
		<path id="path6981" class="st2" d="M59.6,95.2h-7.2V83.8h7.2L59.6,95.2z"/>
		<path id="path6983" class="st2" d="M59.6,106.4h-7.2V95.1h7.2L59.6,106.4z"/>
		<path id="path6985" class="st2" d="M59.6,117.8h-7.2v-11.4h7.2L59.6,117.8z"/>
		<path id="path6987" class="st2" d="M59.6,129.1h-7.2v-11.4h7.2L59.6,129.1z"/>
		<path id="path6989" class="st2" d="M59.6,140.4h-7.2V129h7.2L59.6,140.4z"/>
		<path id="path6991" class="st2" d="M52.2,72.5h-7.2V61.1h7.2V72.5z"/>
		<path id="path6993" class="st2" d="M52.2,83.8h-7.2V72.4h7.2V83.8z"/>
		<path id="path6995" class="st2" d="M52.2,95.2h-7.2V83.8h7.2V95.2z"/>
		<path id="path6997" class="st2" d="M52.2,106.4h-7.2V95.1h7.2V106.4z"/>
		<path id="path6999" class="st2" d="M52.2,117.8h-7.2v-11.4h7.2V117.8z"/>
		<path id="path7001" class="st2" d="M52.2,129.1h-7.2v-11.4h7.2V129.1z"/>
		<path id="path7003" class="st2" d="M52.2,140.4h-7.2V129h7.2V140.4z"/>
		<path id="path7005" class="st2" d="M44.9,83.8h-7.2V72.4h7.2L44.9,83.8z"/>
		<path id="path7007" class="st2" d="M44.9,95.2h-7.2V83.8h7.2L44.9,95.2z"/>
		<path id="path7009" class="st2" d="M44.9,106.4h-7.2V95.1h7.2L44.9,106.4z"/>
		<path id="path7011" class="st2" d="M44.9,117.8h-7.2v-11.4h7.2L44.9,117.8z"/>
		<path id="path7013" class="st2" d="M67,49.8h-7.2V38.4H67L67,49.8z"/>
		<path id="path7015" class="st2" d="M67,61.1h-7.2V49.7H67L67,61.1z"/>
		<path id="path7017" class="st2" d="M67,72.5h-7.2V61.1H67L67,72.5z"/>
		<path id="path7019" class="st2" d="M67,83.8h-7.2V72.4H67L67,83.8z"/>
		<path id="path7021" class="st2" d="M67,95.2h-7.2V83.8H67L67,95.2z"/>
		<path id="path7023" class="st2" d="M67,106.4h-7.2V95.1H67L67,106.4z"/>
		<path id="path7025" class="st2" d="M67,117.8h-7.2v-11.4H67L67,117.8z"/>
		<path id="path7027" class="st2" d="M67,129.1h-7.2v-11.4H67L67,129.1z"/>
		<path id="path7029" class="st2" d="M67,140.4h-7.2V129H67L67,140.4z"/>
		<path id="path7031" class="st2" d="M67,151.8h-7.2v-11.4H67L67,151.8z"/>
		<path id="path7033" class="st3" d="M74.4,49.8h-7.2V38.4h7.2V49.8z"/>
		<path id="path7035" class="st2" d="M74.4,61.1h-7.2V49.7h7.2V61.1z"/>
		<path id="path7037" class="st2" d="M74.4,72.5h-7.2V61.1h7.2V72.5z"/>
		<path id="path7039" class="st2" d="M74.4,83.8h-7.2V72.4h7.2V83.8z"/>
		<path id="path7041" class="st2" d="M74.4,95.2h-7.2V83.8h7.2V95.2z"/>
		<path id="path7043" class="st2" d="M74.4,106.4h-7.2V95.1h7.2V106.4z"/>
		<path id="path7045" class="st2" d="M74.4,117.8h-7.2v-11.4h7.2V117.8z"/>
		<path id="path7047" class="st2" d="M74.4,129.1h-7.2v-11.4h7.2V129.1z"/>
		<path id="path7049" class="st2" d="M74.4,140.4h-7.2V129h7.2V140.4z"/>
		<path id="path7051" class="st3" d="M74.4,151.8h-7.2v-11.4h7.2V151.8z"/>
		<path id="path7053" class="st2" d="M81.6,49.8h-7.2V38.4h7.2L81.6,49.8z"/>
		<path id="path7055" class="st3" d="M81.6,61.1h-7.2V49.7h7.2L81.6,61.1z"/>
		<path id="path7057" class="st2" d="M81.6,72.5h-7.2V61.1h7.2L81.6,72.5z"/>
		<path id="path7059" class="st2" d="M81.6,83.8h-7.2V72.4h7.2L81.6,83.8z"/>
		<path id="path7061" class="st2" d="M81.6,95.2h-7.2V83.8h7.2L81.6,95.2z"/>
		<path id="path7063" class="st2" d="M81.6,106.4h-7.2V95.1h7.2L81.6,106.4z"/>
		<path id="path7065" class="st2" d="M81.6,117.8h-7.2v-11.4h7.2L81.6,117.8z"/>
		<path id="path7067" class="st2" d="M81.6,129.1h-7.2v-11.4h7.2L81.6,129.1z"/>
		<path id="path7069" class="st3" d="M81.6,140.4h-7.2V129h7.2L81.6,140.4z"/>
		<path id="path7071" class="st2" d="M81.6,151.8h-7.2v-11.4h7.2L81.6,151.8z"/>
		<path id="path7073" class="st3" d="M81.6,163.1h-7.2v-11.4h7.2L81.6,163.1z"/>
		<path id="path7075" class="st2" d="M89,49.8h-7.2V38.4H89V49.8z"/>
		<path id="path7077" class="st2" d="M89,38.4h-7.2V27.1H89V38.4z"/>
		<path id="path7079" class="st2" d="M89,61.1h-7.2V49.7H89V61.1z"/>
		<path id="path7081" class="st2" d="M89,72.5h-7.2V61.1H89V72.5z"/>
		<path id="path7083" class="st2" d="M89,83.8h-7.2V72.4H89V83.8z"/>
		<path id="path7085" class="st2" d="M89,95.2h-7.2V83.8H89V95.2z"/>
		<path id="path7087" class="st2" d="M89,106.4h-7.2V95.1H89V106.4z"/>
		<path id="path7089" class="st2" d="M89,117.8h-7.2v-11.4H89V117.8z"/>
		<path id="path7091" class="st2" d="M89,129.1h-7.2v-11.4H89V129.1z"/>
		<path id="path7093" class="st2" d="M89,140.4h-7.2V129H89V140.4z"/>
		<path id="path7095" class="st3" d="M89,151.8h-7.2v-11.4H89V151.8z"/>
		<path id="path7097" class="st2" d="M89,163.1h-7.2v-11.4H89V163.1z"/>
		<path id="path7099" class="st2" d="M96.4,49.8h-7.2V38.4h7.2L96.4,49.8z"/>
		<path id="path7101" class="st2" d="M96.4,38.4h-7.2V27.1h7.2L96.4,38.4z"/>
		<path id="path7103" class="st2" d="M96.4,61.1h-7.2V49.7h7.2L96.4,61.1z"/>
		<path id="path7105" class="st2" d="M96.4,72.5h-7.2V61.1h7.2L96.4,72.5z"/>
		<path id="path7107" class="st2" d="M96.4,83.8h-7.2V72.4h7.2L96.4,83.8z"/>
		<path id="path7109" class="st2" d="M96.4,95.2h-7.2V83.8h7.2L96.4,95.2z"/>
		<path id="path7111" class="st2" d="M96.4,106.4h-7.2V95.1h7.2L96.4,106.4z"/>
		<path id="path7113" class="st2" d="M96.4,117.8h-7.2v-11.4h7.2L96.4,117.8z"/>
		<path id="path7115" class="st2" d="M96.4,129.1h-7.2v-11.4h7.2L96.4,129.1z"/>
		<path id="path7117" class="st2" d="M96.4,140.4h-7.2V129h7.2L96.4,140.4z"/>
		<path id="path7119" class="st2" d="M96.4,151.8h-7.2v-11.4h7.2L96.4,151.8z"/>
		<path id="path7121" class="st2" d="M96.4,163.1h-7.2v-11.4h7.2L96.4,163.1z"/>
		<path id="path7123" class="st2" d="M103.8,49.8h-7.2V38.4h7.2L103.8,49.8z"/>
		<path id="path7125" class="st3" d="M103.8,38.4h-7.2V27.1h7.2L103.8,38.4z"/>
		<path id="path7127" class="st2" d="M103.8,61.1h-7.2V49.7h7.2L103.8,61.1z"/>
		<path id="path7129" class="st2" d="M103.8,72.5h-7.2V61.1h7.2L103.8,72.5z"/>
		<path id="path7131" class="st2" d="M103.8,83.8h-7.2V72.4h7.2L103.8,83.8z"/>
		<path id="path7133" class="st2" d="M103.8,95.2h-7.2V83.8h7.2L103.8,95.2z"/>
		<path id="path7135" class="st2" d="M103.8,106.4h-7.2V95.1h7.2L103.8,106.4z"/>
		<path id="path7137" class="st2" d="M103.8,117.8h-7.2v-11.4h7.2L103.8,117.8z"/>
		<path id="path7139" class="st2" d="M103.8,129.1h-7.2v-11.4h7.2L103.8,129.1z"/>
		<path id="path7141" class="st2" d="M103.8,140.4h-7.2V129h7.2L103.8,140.4z"/>
		<path id="path7143" class="st2" d="M103.8,151.8h-7.2v-11.4h7.2L103.8,151.8z"/>
		<path id="path7145" class="st2" d="M103.8,163.1h-7.2v-11.4h7.2L103.8,163.1z"/>
		<path id="path7147" class="st2" d="M111.2,49.8H104V38.4h7.2V49.8z"/>
		<path id="path7149" class="st2" d="M111.2,38.4H104V27.1h7.2V38.4z"/>
		<path id="path7151" class="st2" d="M111.2,61.1H104V49.7h7.2V61.1z"/>
		<path id="path7153" class="st2" d="M111.2,72.5H104V61.1h7.2V72.5z"/>
		<path id="path7155" class="st2" d="M111.2,83.8H104V72.4h7.2V83.8z"/>
		<path id="path7157" class="st2" d="M111.2,95.2H104V83.8h7.2V95.2z"/>
		<path id="path7159" class="st2" d="M111.2,106.4H104V95.1h7.2V106.4z"/>
		<path id="path7161" class="st2" d="M111.2,117.8H104v-11.4h7.2V117.8z"/>
		<path id="path7163" class="st2" d="M111.2,129.1H104v-11.4h7.2V129.1z"/>
		<path id="path7165" class="st3" d="M111.2,140.4H104V129h7.2V140.4z"/>
		<path id="path7167" class="st2" d="M111.2,151.8H104v-11.4h7.2V151.8z"/>
		<path id="path7169" class="st2" d="M111.2,163.1H104v-11.4h7.2V163.1z"/>
		<path id="path7171" class="st2" d="M118.5,49.8h-7.2V38.4h7.2L118.5,49.8z"/>
		<path id="path7173" class="st2" d="M118.5,38.4h-7.2V27.1h7.2L118.5,38.4z"/>
		<path id="path7175" class="st2" d="M118.5,61.1h-7.2V49.7h7.2L118.5,61.1z"/>
		<path id="path7177" class="st2" d="M118.5,72.5h-7.2V61.1h7.2L118.5,72.5z"/>
		<path id="path7179" class="st2" d="M118.5,83.8h-7.2V72.4h7.2L118.5,83.8z"/>
		<path id="path7181" class="st2" d="M118.5,95.2h-7.2V83.8h7.2L118.5,95.2z"/>
		<path id="path7183" class="st2" d="M118.5,106.4h-7.2V95.1h7.2L118.5,106.4z"/>
		<path id="path7185" class="st2" d="M118.5,117.8h-7.2v-11.4h7.2L118.5,117.8z"/>
		<path id="path7187" class="st2" d="M118.5,129.1h-7.2v-11.4h7.2L118.5,129.1z"/>
		<path id="path7189" class="st2" d="M118.5,140.4h-7.2V129h7.2L118.5,140.4z"/>
		<path id="path7191" class="st2" d="M118.5,151.8h-7.2v-11.4h7.2L118.5,151.8z"/>
		<path id="path7193" class="st2" d="M118.5,163.1h-7.2v-11.4h7.2L118.5,163.1z"/>
		<path id="path7195" class="st2" d="M125.9,49.8h-7.2V38.4h7.2V49.8z"/>
		<path id="path7197" class="st2" d="M125.9,38.4h-7.2V27.1h7.2V38.4z"/>
		<path id="path7199" class="st2" d="M125.9,61.1h-7.2V49.7h7.2V61.1z"/>
		<path id="path7201" class="st2" d="M125.9,72.5h-7.2V61.1h7.2V72.5z"/>
		<path id="path7203" class="st2" d="M125.9,83.8h-7.2V72.4h7.2V83.8z"/>
		<path id="path7205" class="st2" d="M125.9,95.2h-7.2V83.8h7.2V95.2z"/>
		<path id="path7207" class="st2" d="M125.9,106.4h-7.2V95.1h7.2V106.4z"/>
		<path id="path7209" class="st2" d="M125.9,117.8h-7.2v-11.4h7.2V117.8z"/>
		<path id="path7211" class="st2" d="M125.9,129.1h-7.2v-11.4h7.2V129.1z"/>
		<path id="path7213" class="st2" d="M125.9,140.4h-7.2V129h7.2V140.4z"/>
		<path id="path7215" class="st2" d="M125.9,151.8h-7.2v-11.4h7.2V151.8z"/>
		<path id="path7217" class="st2" d="M125.9,163.1h-7.2v-11.4h7.2V163.1z"/>
		<path id="path7219" class="st2" d="M133.2,49.8h-7.2V38.4h7.2V49.8z"/>
		<path id="path7221" class="st2" d="M133.2,61.1h-7.2V49.7h7.2V61.1z"/>
		<path id="path7223" class="st2" d="M133.2,72.5h-7.2V61.1h7.2V72.5z"/>
		<path id="path7225" class="st2" d="M133.2,83.8h-7.2V72.4h7.2V83.8z"/>
		<path id="path7227" class="st2" d="M133.2,95.2h-7.2V83.8h7.2V95.2z"/>
		<path id="path7229" class="st2" d="M133.2,106.4h-7.2V95.1h7.2V106.4z"/>
		<path id="path7231" class="st2" d="M133.2,117.8h-7.2v-11.4h7.2V117.8z"/>
		<path id="path7233" class="st2" d="M133.2,129.1h-7.2v-11.4h7.2V129.1z"/>
		<path id="path7235" class="st2" d="M133.2,140.4h-7.2V129h7.2V140.4z"/>
		<path id="path7237" class="st2" d="M133.2,151.8h-7.2v-11.4h7.2V151.8z"/>
		<path id="path7239" class="st2" d="M133.2,163.1h-7.2v-11.4h7.2V163.1z"/>
		<path id="path7241" class="st2" d="M140.7,49.8h-7.2V38.4h7.2V49.8z"/>
		<path id="path7243" class="st3" d="M140.7,61.1h-7.2V49.7h7.2V61.1z"/>
		<path id="path7245" class="st2" d="M140.7,72.5h-7.2V61.1h7.2V72.5z"/>
		<path id="path7247" class="st2" d="M140.7,83.8h-7.2V72.4h7.2V83.8z"/>
		<path id="path7249" class="st2" d="M140.7,95.2h-7.2V83.8h7.2V95.2z"/>
		<path id="path7251" class="st2" d="M140.7,106.4h-7.2V95.1h7.2V106.4z"/>
		<path id="path7253" class="st2" d="M140.7,117.8h-7.2v-11.4h7.2V117.8z"/>
		<path id="path7255" class="st2" d="M140.7,129.1h-7.2v-11.4h7.2V129.1z"/>
		<path id="path7257" class="st2" d="M140.7,140.4h-7.2V129h7.2V140.4z"/>
		<path id="path7259" class="st3" d="M140.7,151.8h-7.2v-11.4h7.2V151.8z"/>
		<path id="path7261" class="st2" d="M147.9,49.8h-7.2V38.4h7.2V49.8z"/>
		<path id="path7263" class="st2" d="M147.9,61.1h-7.2V49.7h7.2V61.1z"/>
		<path id="path7265" class="st2" d="M147.9,72.5h-7.2V61.1h7.2V72.5z"/>
		<path id="path7267" class="st2" d="M147.9,83.8h-7.2V72.4h7.2V83.8z"/>
		<path id="path7269" class="st2" d="M147.9,95.2h-7.2V83.8h7.2V95.2z"/>
		<path id="path7271" class="st2" d="M147.9,106.4h-7.2V95.1h7.2V106.4z"/>
		<path id="path7273" class="st2" d="M147.9,117.8h-7.2v-11.4h7.2V117.8z"/>
		<path id="path7275" class="st2" d="M147.9,129.1h-7.2v-11.4h7.2V129.1z"/>
		<path id="path7277" class="st3" d="M147.9,140.4h-7.2V129h7.2V140.4z"/>
		<path id="path7279" class="st2" d="M147.9,151.8h-7.2v-11.4h7.2V151.8z"/>
		<path id="path7281" class="st2" d="M155.3,61.1h-7.2V49.7h7.2V61.1z"/>
		<path id="path7283" class="st2" d="M155.3,72.5h-7.2V61.1h7.2V72.5z"/>
		<path id="path7285" class="st2" d="M155.3,83.8h-7.2V72.4h7.2V83.8z"/>
		<path id="path7287" class="st2" d="M155.3,95.2h-7.2V83.8h7.2V95.2z"/>
		<path id="path7289" class="st2" d="M155.3,106.4h-7.2V95.1h7.2V106.4z"/>
		<path id="path7291" class="st2" d="M155.3,117.8h-7.2v-11.4h7.2V117.8z"/>
		<path id="path7293" class="st2" d="M155.3,129.1h-7.2v-11.4h7.2V129.1z"/>
		<path id="path7295" class="st2" d="M155.3,140.4h-7.2V129h7.2V140.4z"/>
		<path id="path7297" class="st2" d="M162.7,72.5h-7.2V61.1h7.2L162.7,72.5z"/>
		<path id="path7299" class="st2" d="M162.7,83.8h-7.2V72.4h7.2L162.7,83.8z"/>
		<path id="path7301" class="st2" d="M162.7,95.2h-7.2V83.8h7.2L162.7,95.2z"/>
		<path id="path7303" class="st2" d="M162.7,106.4h-7.2V95.1h7.2L162.7,106.4z"/>
		<path id="path7305" class="st2" d="M162.7,117.8h-7.2v-11.4h7.2L162.7,117.8z"/>
		<path id="path7307" class="st2" d="M162.7,129.1h-7.2v-11.4h7.2L162.7,129.1z"/>
		<path id="path7309" class="st2" d="M162.7,140.4h-7.2V129h7.2L162.7,140.4z"/>
		<path id="path7311" class="st2" d="M170.1,83.8h-7.2V72.4h7.2V83.8z"/>
		<path id="path7313" class="st2" d="M170.1,95.2h-7.2V83.8h7.2V95.2z"/>
		<path id="path7315" class="st2" d="M170.1,106.4h-7.2V95.1h7.2V106.4z"/>
		<path id="path7317" class="st2" d="M170.1,117.8h-7.2v-11.4h7.2V117.8z"/>
		<g id="g7319">
			<path id="path7321" class="st1" d="M177.2,106.4h-7.1V95.1l7.9,0L177.2,106.4z"/>
		</g>
		<g id="g7323">
			<path id="path7325" class="st0" d="M177.2,106.4h-7.1V95.1l7.9,0L177.2,106.4z"/>
		</g>
		<g id="g7327">
			<path id="path7329" class="st1" d="M45.1,50.8v10.3h7.2V49.7h-6.3C45.6,50.1,45.3,50.5,45.1,50.8"/>
		</g>
		<g id="g7331">
			<path id="path7333" class="st0" d="M45.1,50.8v10.3h7.2V49.7h-6.3C45.6,50.1,45.3,50.5,45.1,50.8z"/>
		</g>
		<g id="g7335">
			<path id="path7337" class="st1" d="M44.9,61.1h-6.5c-0.2,0.4-0.5,0.9-0.7,1.4v10h7.2L44.9,61.1z"/>
		</g>
		<g id="g7339">
			<path id="path7341" class="st0" d="M44.9,61.1h-6.5c-0.2,0.4-0.5,0.9-0.7,1.4v10h7.2L44.9,61.1z"/>
		</g>
		<g id="g7343">
			<path id="path7345" class="st1" d="M170.1,62.3c-0.2-0.4-0.4-0.8-0.6-1.2h-6.6v11.4h7.2V62.3z"/>
		</g>
		<g id="g7347">
			<path id="path7349" class="st0" d="M170.1,62.3c-0.2-0.4-0.4-0.8-0.6-1.2h-6.6v11.4h7.2V62.3z"/>
		</g>
		<g id="g7351">
			<path id="path7353" class="st1" d="M162.7,50.6c-0.2-0.3-0.4-0.6-0.7-0.9h-6.5v11.4h7.2V50.6z"/>
		</g>
		<g id="g7355">
			<path id="path7357" class="st0" d="M162.7,50.6c-0.2-0.3-0.4-0.6-0.7-0.9h-6.5v11.4h7.2V50.6z"/>
		</g>
		<g id="g7359">
			<path id="path7361" class="st1" d="M132,27.1h-5.9v11.4h7.2V27.6C132.8,27.4,132.4,27.2,132,27.1"/>
		</g>
		<g id="g7363">
			<path id="path7365" class="st0" d="M132,27.1h-5.9v11.4h7.2V27.6C132.8,27.4,132.4,27.2,132,27.1z"/>
		</g>
		<g id="g7367">
			<path id="path7369" class="st1" d="M81.6,25c-2,0.6-4,1.4-5.9,2.2h5.9V25z"/>
		</g>
		<g id="g7371">
			<path id="path7373" class="st0" d="M81.6,25c-2,0.6-4,1.4-5.9,2.2h5.9V25z"/>
		</g>
		<g id="g7375">
			<path id="path7377" class="st1" d="M81.9,24.9v2.2H89V23C86.6,23.6,84.2,24.2,81.9,24.9"/>
		</g>
		<g id="g7379">
			<path id="path7381" class="st0" d="M81.9,24.9v2.2H89V23C86.6,23.6,84.2,24.2,81.9,24.9z"/>
		</g>
		<g id="g7383">
			<path id="path7385" class="st1" d="M89.2,23v4.2h7.2v-5.2C94,22.1,91.6,22.5,89.2,23"/>
		</g>
		<g id="g7387">
			<path id="path7389" class="st0" d="M89.2,23v4.2h7.2v-5.2C94,22.1,91.6,22.5,89.2,23z"/>
		</g>
		<g id="g7391">
			<path id="path7393" class="st1" d="M103.8,21.5c-2.4,0-4.8,0.1-7.2,0.4v5.2h7.2V21.5z"/>
		</g>
		<g id="g7395">
			<path id="path7397" class="st0" d="M103.8,21.5c-2.4,0-4.8,0.1-7.2,0.4v5.2h7.2V21.5z"/>
		</g>
		<g id="g7399">
			<path id="path7401" class="st1" d="M111.2,27.2v-5.3c-2.4-0.2-4.8-0.4-7.2-0.4v5.6L111.2,27.2z"/>
		</g>
		<g id="g7403">
			<path id="path7405" class="st0" d="M111.2,27.2v-5.3c-2.4-0.2-4.8-0.4-7.2-0.4v5.6L111.2,27.2z"/>
		</g>
		<g id="g7407">
			<path id="path7409" class="st1" d="M111.3,21.9v5.3h7.2V23C116.1,22.5,113.7,22.1,111.3,21.9"/>
		</g>
		<g id="g7411">
			<path id="path7413" class="st0" d="M111.3,21.9v5.3h7.2V23C116.1,22.5,113.7,22.1,111.3,21.9z"/>
		</g>
		<g id="g7415">
			<path id="path7417" class="st1" d="M126.1,24.9v2.3h6.2C130.2,26.3,128.2,25.5,126.1,24.9"/>
		</g>
		<g id="g7419">
			<path id="path7421" class="st0" d="M126.1,24.9v2.3h6.2C130.2,26.3,128.2,25.5,126.1,24.9z"/>
		</g>
		<g id="g7423">
			<path id="path7425" class="st1" d="M140.7,31.3c-2.3-1.3-4.7-2.5-7.2-3.6v10.8h7.2V31.3z"/>
		</g>
		<g id="g7427">
			<path id="path7429" class="st0" d="M140.7,31.3c-2.3-1.3-4.7-2.5-7.2-3.6v10.8h7.2V31.3z"/>
		</g>
		<g id="g7431">
			<path id="path7433" class="st1" d="M140.7,31.4v7.1h7.2V36C145.6,34.3,143.2,32.8,140.7,31.4"/>
		</g>
		<g id="g7435">
			<path id="path7437" class="st0" d="M140.7,31.4v7.1h7.2V36C145.6,34.3,143.2,32.8,140.7,31.4z"/>
		</g>
		<g id="g7439">
			<path id="path7441" class="st1" d="M148.1,36.2v2.2h2.9C150.1,37.7,149.1,36.9,148.1,36.2"/>
		</g>
		<g id="g7443">
			<path id="path7445" class="st0" d="M148.1,36.2v2.2h2.9C150.1,37.7,149.1,36.9,148.1,36.2z"/>
		</g>
		<g id="g7447">
			<path id="path7449" class="st1" d="M151,38.4h-2.9v11.4h7.2v-7.5C153.9,41,152.5,39.7,151,38.4"/>
		</g>
		<g id="g7451">
			<path id="path7453" class="st0" d="M151,38.4h-2.9v11.4h7.2v-7.5C153.9,41,152.5,39.7,151,38.4z"/>
		</g>
		<g id="g7455">
			<path id="path7457" class="st1" d="M162.9,50.8v10.3h6.6C167.6,57.5,165.4,54.1,162.9,50.8"/>
		</g>
		<g id="g7459">
			<path id="path7461" class="st0" d="M162.9,50.8v10.3h6.6C167.6,57.5,165.4,54.1,162.9,50.8z"/>
		</g>
		<g id="g7463">
			<path id="path7465" class="st1" d="M170.2,62.5v10h4.1C173.2,69.1,171.8,65.7,170.2,62.5"/>
		</g>
		<g id="g7467">
			<path id="path7469" class="st0" d="M170.2,62.5v10h4.1C173.2,69.1,171.8,65.7,170.2,62.5z"/>
		</g>
		<g id="g7471">
			<path id="path7473" class="st1" d="M174.3,72.4h-4.1v11.4h6.9C176.5,79.9,175.5,76.1,174.3,72.4"/>
		</g>
		<g id="g7475">
			<path id="path7477" class="st0" d="M174.3,72.4h-4.1v11.4h6.9C176.5,79.9,175.5,76.1,174.3,72.4z"/>
		</g>
		<g id="g7479">
			<path id="path7481" class="st1" d="M174.7,117.7h-4.5v11.1C172,125.2,173.5,121.5,174.7,117.7"/>
		</g>
		<g id="g7483">
			<path id="path7485" class="st0" d="M174.7,117.7h-4.5v11.1C172,125.2,173.5,121.5,174.7,117.7z"/>
		</g>
		<g id="g7487">
			<path id="path7489" class="st1" d="M162.9,129v11.4h0.1c2.7-3.6,5.1-7.4,7.1-11.4H162.9z"/>
		</g>
		<g id="g7491">
			<path id="path7493" class="st0" d="M162.9,129v11.4h0.1c2.7-3.6,5.1-7.4,7.1-11.4H162.9z"/>
		</g>
		<g id="g7495">
			<path id="path7497" class="st1" d="M155.5,148.8c2.6-2.5,5-5.2,7.2-8v-0.4h-7.2V148.8z"/>
		</g>
		<g id="g7499">
			<path id="path7501" class="st0" d="M155.5,148.8c2.6-2.5,5-5.2,7.2-8v-0.4h-7.2V148.8z"/>
		</g>
		<g id="g7503">
			<path id="path7505" class="st1" d="M148.1,151.8h4.1c1.1-0.9,2-1.8,3-2.8v-8.6h-7.2V151.8z"/>
		</g>
		<g id="g7507">
			<path id="path7509" class="st0" d="M148.1,151.8h4.1c1.1-0.9,2-1.8,3-2.8v-8.6h-7.2V151.8z"/>
		</g>
		<g id="g7511">
			<path id="path7513" class="st1" d="M148.1,151.7v3.4c1.5-1.1,2.9-2.2,4.3-3.4H148.1z"/>
		</g>
		<g id="g7515">
			<path id="path7517" class="st0" d="M148.1,151.7v3.4c1.5-1.1,2.9-2.2,4.3-3.4H148.1z"/>
		</g>
		<g id="g7519">
			<path id="path7521" class="st1" d="M140.7,159.9c2.5-1.4,4.9-3,7.2-4.7v-3.6h-7.2V159.9z"/>
		</g>
		<g id="g7523">
			<path id="path7525" class="st0" d="M140.7,159.9c2.5-1.4,4.9-3,7.2-4.7v-3.6h-7.2V159.9z"/>
		</g>
		<g id="g7527">
			<path id="path7529" class="st1" d="M133.5,163.1h1.2c2-0.9,4-2,6-3.1v-8.3h-7.2V163.1z"/>
		</g>
		<g id="g7531">
			<path id="path7533" class="st0" d="M133.5,163.1h1.2c2-0.9,4-2,6-3.1v-8.3h-7.2V163.1z"/>
		</g>
		<g id="g7535">
			<path id="path7537" class="st1" d="M74.4,151.7h-7.2v8.3c1.9,1.1,3.9,2.2,6,3.1h1.2V151.7z"/>
		</g>
		<g id="g7539">
			<path id="path7541" class="st0" d="M74.4,151.7h-7.2v8.3c1.9,1.1,3.9,2.2,6,3.1h1.2V151.7z"/>
		</g>
		<g id="g7543">
			<path id="path7545" class="st1" d="M59.8,155.2c2.3,1.7,4.7,3.3,7.2,4.7v-8.2h-7.2V155.2z"/>
		</g>
		<g id="g7547">
			<path id="path7549" class="st0" d="M59.8,155.2c2.3,1.7,4.7,3.3,7.2,4.7v-8.2h-7.2V155.2z"/>
		</g>
		<g id="g7551">
			<path id="path7553" class="st1" d="M59.6,155v-3.3h-4.1C56.8,152.8,58.2,154,59.6,155"/>
		</g>
		<g id="g7555">
			<path id="path7557" class="st0" d="M59.6,155v-3.3h-4.1C56.8,152.8,58.2,154,59.6,155z"/>
		</g>
		<g id="g7559">
			<path id="path7561" class="st1" d="M52.4,148.9c1,1,2.1,2,3.2,2.9h4v-11.4h-7.2V148.9z"/>
		</g>
		<g id="g7563">
			<path id="path7565" class="st0" d="M52.4,148.9c1,1,2.1,2,3.2,2.9h4v-11.4h-7.2V148.9z"/>
		</g>
		<g id="g7567">
			<path id="path7569" class="st1" d="M45.1,140.6c2.2,2.9,4.6,5.6,7.2,8.1v-8.3h-7.2V140.6z"/>
		</g>
		<g id="g7571">
			<path id="path7573" class="st0" d="M45.1,140.6c2.2,2.9,4.6,5.6,7.2,8.1v-8.3h-7.2V140.6z"/>
		</g>
		<g id="g7575">
			<path id="path7577" class="st1" d="M44.9,129h-7.1c2,4,4.4,7.8,7.1,11.4h0L44.9,129z"/>
		</g>
		<g id="g7579">
			<path id="path7581" class="st0" d="M44.9,129h-7.1c2,4,4.4,7.8,7.1,11.4h0L44.9,129z"/>
		</g>
		<g id="g7583">
			<path id="path7585" class="st1" d="M37.5,106.4h-6.9c0.6,3.9,1.4,7.7,2.6,11.4h4.3L37.5,106.4z"/>
		</g>
		<g id="g7587">
			<path id="path7589" class="st0" d="M37.5,106.4h-6.9c0.6,3.9,1.4,7.7,2.6,11.4h4.3L37.5,106.4z"/>
		</g>
		<g id="g7591">
			<path id="path7593" class="st1" d="M37.5,128.5v-10.7h-4.3C34.4,121.4,35.8,125,37.5,128.5"/>
		</g>
		<g id="g7595">
			<path id="path7597" class="st0" d="M37.5,128.5v-10.7h-4.3C34.4,121.4,35.8,125,37.5,128.5z"/>
		</g>
		<g id="g7599">
			<path id="path7601" class="st1" d="M37.5,83.8h-6.7c-0.2,1.1-0.3,2.2-0.5,3.3L30,95.2l7.6,0L37.5,83.8z"/>
		</g>
		<g id="g7603">
			<path id="path7605" class="st0" d="M37.5,83.8h-6.7c-0.2,1.1-0.3,2.2-0.5,3.3L30,95.2l7.6,0L37.5,83.8z"/>
		</g>
		<g id="g7607">
			<path id="path7609" class="st1" d="M37.5,83.8V72.4h-3.9c-1.2,3.7-2.2,7.5-2.8,11.4H37.5z"/>
		</g>
		<g id="g7611">
			<path id="path7613" class="st0" d="M37.5,83.8V72.4h-3.9c-1.2,3.7-2.2,7.5-2.8,11.4H37.5z"/>
		</g>
		<g id="g7615">
			<path id="path7617" class="st1" d="M37.5,72.5v-9.6c-1.5,3.1-2.9,6.3-4,9.6L37.5,72.5z"/>
		</g>
		<g id="g7619">
			<path id="path7621" class="st0" d="M37.5,72.5v-9.6c-1.5,3.1-2.9,6.3-4,9.6L37.5,72.5z"/>
		</g>
		<g id="g7623">
			<path id="path7625" class="st1" d="M52.2,49.8v-7.1c-2.3,2.2-4.4,4.6-6.4,7.1H52.2z"/>
		</g>
		<g id="g7627">
			<path id="path7629" class="st0" d="M52.2,49.8v-7.1c-2.3,2.2-4.4,4.6-6.4,7.1H52.2z"/>
		</g>
		<g id="g7631">
			<path id="path7633" class="st1" d="M52.4,49.8h7.2V38.4H57c-1.6,1.3-3.1,2.7-4.6,4.1L52.4,49.8z"/>
		</g>
		<g id="g7635">
			<path id="path7637" class="st0" d="M52.4,49.8h7.2V38.4H57c-1.6,1.3-3.1,2.7-4.6,4.1L52.4,49.8z"/>
		</g>
		<g id="g7639">
			<path id="path7641" class="st1" d="M59.6,36.4c-0.9,0.7-1.8,1.4-2.6,2.1h2.6V36.4z"/>
		</g>
		<g id="g7643">
			<path id="path7645" class="st0" d="M59.6,36.4c-0.9,0.7-1.8,1.4-2.6,2.1h2.6V36.4z"/>
		</g>
		<g id="g7647">
			<path id="path7649" class="st1" d="M59.8,36.2v2.2H67v-6.9C64.5,32.9,62.1,34.5,59.8,36.2"/>
		</g>
		<g id="g7651">
			<path id="path7653" class="st0" d="M59.8,36.2v2.2H67v-6.9C64.5,32.9,62.1,34.5,59.8,36.2z"/>
		</g>
		<g id="g7655">
			<path id="path7657" class="st1" d="M74.4,27.7c-2.5,1.1-4.9,2.3-7.2,3.6v7.1h7.2V27.7z"/>
		</g>
		<g id="g7659">
			<path id="path7661" class="st0" d="M74.4,27.7c-2.5,1.1-4.9,2.3-7.2,3.6v7.1h7.2V27.7z"/>
		</g>
		<g id="g7663">
			<path id="path7665" class="st1" d="M74.5,38.4h7.2V27.1H76l-1.5,0.6L74.5,38.4z"/>
		</g>
		<g id="g7667">
			<path id="path7669" class="st0" d="M74.5,38.4h7.2V27.1H76l-1.5,0.6L74.5,38.4z"/>
		</g>
		<g id="g7671">
			<path id="path7673" class="st1" d="M177.4,85.6c-0.1-0.6-0.2-1.2-0.3-1.8h-6.9v11.4l7.9,0.1L177.4,85.6z"/>
		</g>
		<g id="g7675">
			<path id="path7677" class="st4" d="M177.4,85.6c-0.1-0.6-0.2-1.2-0.3-1.8h-6.9v11.4l7.9,0.1L177.4,85.6z"/>
		</g>
		<g id="g7679">
			<path id="path7681" class="st1" d="M170.2,106.4v11.4h4.5c1.2-3.7,2.1-7.5,2.6-11.4H170.2z"/>
		</g>
		<g id="g7683">
			<path id="path7685" class="st0" d="M170.2,106.4v11.4h4.5c1.2-3.7,2.1-7.5,2.6-11.4H170.2z"/>
		</g>
		<g id="g7687">
			<path id="path7689" class="st1" d="M170.1,117.7h-7.2v11.4h7.1c0,0,0.1-0.1,0.1-0.2L170.1,117.7z"/>
		</g>
		<g id="g7691">
			<path id="path7693" class="st0" d="M170.1,117.7h-7.2v11.4h7.1c0,0,0.1-0.1,0.1-0.2L170.1,117.7z"/>
		</g>
		<g id="g7695">
			<path id="path7697" class="st1" d="M37.9,129.1h7v-11.4h-7.2v11.1C37.8,128.9,37.8,129,37.9,129.1"/>
		</g>
		<g id="g7699">
			<path id="path7701" class="st0" d="M37.9,129.1h7v-11.4h-7.2v11.1C37.8,128.9,37.8,129,37.9,129.1z"/>
		</g>
		<g id="g7703">
			<path id="path7705" class="st1" d="M30.6,106.4h6.9V95.1l-7.6,0l0.4,8.9C30.4,104.8,30.5,105.6,30.6,106.4"/>
		</g>
		<g id="g7707">
			<path id="path7709" class="st0" d="M30.6,106.4h6.9V95.1l-7.6,0l0.4,8.9C30.4,104.8,30.5,105.6,30.6,106.4z"/>
		</g>
		<g id="g7711">
			<path id="path7713" class="st5" d="M185.1,175.3v-3l-163.7,0.1v6.2l163.7-0.1V175.3z"/>
		</g>
		<g id="g7715">
			<path id="path7717" class="st5" d="M179.8,76.8c-15.2,0-26.8,7.9-26.8,21.7c0,11.6,10.6,19.8,24.7,19.8
				c10.8,0,19.7-7.8,22.3-12.7c0-1.5-1.5-2.2-3-2.2c-2.5,3.8-9.4,6.7-12.3,6.6c-17.1-0.6-19.9-7.5-20.1-14.7
				c-0.3-7.8,8.1-14.6,15.3-14.1c4.2,0.3,5.6,7.2,9.3,9.6c1.2,0.6,3.8,0.5,5.6,0.2c1.3-0.2,4.9-1,4.9-4.1c0-2.6-3.2-5.4-6.2-7.3
				C190.4,78.2,183.5,76.8,179.8,76.8"/>
		</g>
		<g id="g7719">
			<path id="path7721" class="st5" d="M78.5,106.6c0,6.4-1.6,9.7-6.8,10l0.1,1c8.6-0.1,17.3,0,25.7-0.2l0.1-0.5
				c-3.9,0-6.9-4.1-6.9-9.2V90.6c0-4.2,5.1-6.9,8.6-6.6c5.4,0.5,8.4,4,8.4,7.1v16.8c0,5.1-1.5,8.3-5.5,8.6v0.9h23.6v-0.7
				c-3.5-0.4-5.9-3.6-5.9-8.4V90.6c0-3.8,3.3-6.3,9.1-6.4c5.1-0.1,8.2,3.7,8.2,7.3v16c0,5.4-1.6,8.8-5.7,9.2v0.7
				c8.6,0.1,15.7,0.1,24.2,0v-0.5c-4.5,0-6-3-6-9.2V90c0-5.8-3.2-12.8-12.1-12.8c-6,0-10.5,3-13,3.8c-1.7,0.7-3,1.5-3.4,1.5
				c-0.8,0-1.7-0.5-2.9-1.7c-2.2-2.3-6-3.6-10.2-3.6c-5.2,0-10.5,3-12.9,3.8c-0.3,0.1-2.1,1-2.4,1c-0.4,0-2,0-2-0.2
				c0-4.9,0.3-2.5,0.1-6h-3.4c-1,0-2.8,1.9-4.8,2.7c-2.5,1-7.4,0.9-9.4,1.5v3.5l5.3,1v6.8L78.5,106.6z"/>
		</g>
		<g id="g7723">
			<path id="path7725" class="st5" d="M55.4,117.5c9-0.4,17.8-2.4,17.8-11.1c0-6.3-7-10.4-14.3-13.5c-4.7-1.9-11.6-4.8-11.6-7.1
				c0-2.7,5.2-7.8,10.2-3.7l8.7,7.3l4-0.8l-2.2-10.9c-2.1,0.1-3.5,0.2-11-1c-9.2-1.3-20.2,3.3-20.2,11.9c0,5.8,8.3,9.8,14.9,12.4
				c3.6,1.5,10,3.8,10,7.3c0,3.4-6,4.3-9.3,4.3c-5.7,0-12.1-7.7-12.1-7.7h-3.8l2,11.5c0.7-0.6,3.3-0.5,3.8-0.3
				C44,116.8,50.7,117.9,55.4,117.5"/>
		</g>
		<g id="g7727">
			<path id="path7729" class="st5" d="M33.6,82.7v-5.3l-11.2,0.1c-1.4,0-1.3-0.3-1.3-2.2l0.1-7.3l-5.6-0.1c-1.7,3.9-3.9,6.5-5.1,7
				L0,79.5v3.3l3.9,0.1c1.7,0,2.5-0.1,2.5,2v21.6c0,6.6,3.6,11.4,12.8,11.6c7,0.2,11.2-2.9,14.1-5.8l-0.8-2.8
				c-1.2,0.8-2.2,1.6-3.9,1.6c-7.9,0-7.7-6.2-7.7-11.6V84.8c0-2.2,0.2-2.2,1.6-2.2L33.6,82.7z"/>
		</g>
	</g>
</g>
</svg>
