<svg xmlns="http://www.w3.org/2000/svg" xmlns:xlink="http://www.w3.org/1999/xlink" viewBox="0 0 33.56 19.58"><defs><style>.cls-1{fill:none;}.cls-2{clip-path:url(#clip-path);}.cls-3{fill:#80a7d8;}.cls-4{fill:#f3d02f;}.cls-4,.cls-8{fill-rule:evenodd;}.cls-5{fill:#1b257d;}.cls-6{fill:#fff;}.cls-7,.cls-8{fill:#c0003b;}</style><clipPath id="clip-path"><rect class="cls-1" width="33.56" height="19.58"/></clipPath></defs><title>TUV</title><g id="Layer_2" data-name="Layer 2"><g id="_4" data-name="4"><g id="TUVALU"><g class="cls-2"><rect class="cls-3" width="33.56" height="19.58"/><polygon class="cls-4" points="32.22 4.84 31.25 4.17 30.29 4.84 30.66 3.77 29.69 3.11 30.89 3.11 31.25 2.04 31.62 3.11 32.81 3.11 31.85 3.77 32.22 4.84"/><polygon class="cls-4" points="29.22 13.37 28.25 12.7 27.29 13.37 27.66 12.3 26.69 11.64 27.89 11.64 28.25 10.57 28.62 11.64 29.82 11.64 28.85 12.3 29.22 13.37"/><polygon class="cls-4" points="32.22 11.44 31.25 10.77 30.29 11.44 30.66 10.37 29.69 9.71 30.89 9.71 31.25 8.64 31.62 9.71 32.81 9.71 31.85 10.37 32.22 11.44"/><polygon class="cls-4" points="19.32 17.62 18.36 16.96 17.39 17.62 17.76 16.55 16.79 15.89 17.99 15.89 18.36 14.82 18.73 15.89 19.92 15.89 18.95 16.55 19.32 17.62"/><polygon class="cls-4" points="20.84 10.85 21.81 11.51 22.77 10.85 22.4 11.92 23.37 12.58 22.17 12.58 21.81 13.65 21.44 12.58 20.24 12.58 21.21 11.92 20.84 10.85"/><polygon class="cls-4" points="24.36 5.97 25.33 6.64 26.3 5.97 25.93 7.04 26.89 7.7 25.7 7.7 25.33 8.77 24.96 7.7 23.77 7.7 24.73 7.04 24.36 5.97"/><polygon class="cls-4" points="27.33 4.96 28.29 5.62 29.26 4.96 28.89 6.03 29.85 6.69 28.66 6.69 28.29 7.76 27.92 6.69 26.73 6.69 27.7 6.03 27.33 4.96"/><polygon class="cls-4" points="24.36 13.4 25.33 14.06 26.3 13.4 25.93 14.47 26.89 15.13 25.7 15.13 25.33 16.2 24.96 15.13 23.77 15.13 24.73 14.47 24.36 13.4"/><polygon class="cls-4" points="20.84 14.26 21.81 14.92 22.77 14.26 22.4 15.33 23.37 15.99 22.17 15.99 21.81 17.06 21.44 15.99 20.24 15.99 21.21 15.33 20.84 14.26"/><rect class="cls-5" width="16.78" height="8.39"/><polygon class="cls-6" points="14.9 0 0 7.45 0 8.39 1.88 8.39 16.78 0.94 16.78 0 14.9 0"/><polygon class="cls-6" points="0 0 0 0.94 14.9 8.39 16.78 8.39 16.78 7.45 1.88 0 0 0"/><polygon class="cls-6" points="6.99 0 6.99 2.8 0 2.8 0 5.59 6.99 5.59 6.99 8.39 9.79 8.39 9.79 5.59 16.78 5.59 16.78 2.8 9.79 2.8 9.79 0 6.99 0"/><polygon class="cls-7" points="7.55 0 7.55 3.36 0 3.36 0 5.03 7.55 5.03 7.55 8.39 9.23 8.39 9.23 5.03 16.78 5.03 16.78 3.36 9.23 3.36 9.23 0 7.55 0"/><polygon class="cls-8" points="9.94 2.8 11.19 2.8 16.78 0 15.53 0 9.94 2.8"/><polygon class="cls-7" points="0 0.62 4.35 2.8 5.59 2.8 0 0 0 0.62"/><polygon class="cls-8" points="16.78 8.39 16.78 7.76 12.44 5.59 11.19 5.59 16.78 8.39"/><polygon class="cls-7" points="5.59 5.59 0 8.39 1.25 8.39 6.84 5.59 5.59 5.59"/></g></g></g></g></svg>