<?xml version="1.0" encoding="utf-8"?>
<!-- Generator: Adobe Illustrator 21.0.0, SVG Export Plug-In . SVG Version: 6.00 Build 0)  -->
<svg version="1.0" id="Layer_1" xmlns="http://www.w3.org/2000/svg" xmlns:xlink="http://www.w3.org/1999/xlink" x="0px" y="0px"
	 viewBox="0 0 200 200" style="enable-background:new 0 0 200 200;" xml:space="preserve">
<style type="text/css">
	.st0{fill:#FE0000;}
</style>
<g id="layer1" transform="translate(-1324.226,767.12471)">
	<g id="g7585" transform="translate(17.716541,17.775636)">
		<path id="path10" class="st0" d="M1456.8-744.3c15.2,0,33.2,1.5,38.6,4.3c0,4.1,0,17.9,0,19.2c0,19.4,11.1,22.1,11.1,22.1
			s0,8.3,0,17.9c0,12.4-2.7,20.8-2.7,20.8c-5.6,1.4-19.4,5.5-34.5,16.5c-11.1,8.3-20.8,20.8-20.8,33.2c0,8.2,1.4,13.8,4.3,19.2
			c0,0-5.6,2.7-15.3,2.7c-12.2-1.4-26-11.1-34.4-26.2c-11.1-19.2-16.5-42.7-28.9-42.7c-12.4,0-12.4,12.4-22.1,12.4
			c-11.1,0-17.9-17.9-20.6-26.2c-7-12.4-23.5-16.5-24.9-35.9h52.4c0-28.9,0-45.5,0-74.4c19.2,0,30.3,0,49.5,0v31.7
			c1.5,1.4,5.6,2.7,11.1,4.1l-5.5,24.9h-15.2l-5.6,22.1h15.2l-5.5,27.6c0,4.1-1.4,13.8,0,17.9c2.7,11.1,9.7,15.2,19.2,15.2
			c13.8,0,26.2-6.8,26.2-6.8l5.6-17.9c-2.7,0-7,0-9.7,0c-2.7,0-5.5,0-4.1-7l6.8-28.9h15.2l5.6-22.1h-15.2L1456.8-744.3"/>
		<path id="path14" class="st0" d="M1426.5-735.9h19.2l-15.2,71.8h-19.2L1426.5-735.9"/>
		<path id="path18" class="st0" d="M1440.3-762.2c5.5,0,11.1,4.1,11.1,11.1c0,5.5-5.6,9.7-11.1,9.7c-5.6,0-11.1-4.3-11.1-9.7
			C1429.2-758.1,1434.7-762.2,1440.3-762.2"/>
	</g>
</g>
</svg>
