<?xml version="1.0" encoding="UTF-8"?>
<svg width="34px" height="20px" viewBox="0 0 34 20" version="1.1" xmlns="http://www.w3.org/2000/svg" xmlns:xlink="http://www.w3.org/1999/xlink">
    <!-- Generator: Sketch 49 (51002) - http://www.bohemiancoding.com/sketch -->
    <title>UGX</title>
    <desc>Created with Sketch.</desc>
    <defs></defs>
    <g id="Page-1" stroke="none" stroke-width="1" fill="none" fill-rule="evenodd">
        <g id="UGX" fill-rule="nonzero">
            <rect id="Rectangle-path" fill="#000000" x="0" y="0" width="33.56" height="19.58"></rect>
            <rect id="Rectangle-path" fill="#F8E82A" x="0" y="3.27" width="33.56" height="3.26"></rect>
            <rect id="Rectangle-path" fill="#CC3220" x="0" y="6.52" width="33.56" height="3.27"></rect>
            <rect id="Rectangle-path" fill="#F8E82A" x="0" y="13.05" width="33.56" height="3.26"></rect>
            <rect id="Rectangle-path" fill="#CC3220" x="0" y="16.32" width="33.56" height="3.26"></rect>
            <g id="Group" transform="translate(13.000000, 6.000000)">
                <path d="M6.83,3.79 C6.82977078,5.44029475 5.49665973,6.78052266 3.8463896,6.78953853 C2.19611946,6.79855441 0.848444377,5.47297236 0.830183689,3.82277862 C0.811923002,2.17258489 2.12993446,0.817504929 3.78,0.79 C5.4451339,0.789776237 6.80270274,2.12508984 6.83,3.79 Z" id="Shape" fill="#FFFCFF"></path>
                <path d="M3.78,6.85 C2.09000867,6.85 0.72,5.47999133 0.72,3.79 C0.72,2.10000867 2.09000867,0.73 3.78,0.73 C5.46999133,0.73 6.84,2.10000867 6.84,3.79 C6.83451146,5.47771268 5.46771268,6.84451146 3.78,6.85 Z M3.78,0.75 C2.12314575,0.75 0.78,2.09314575 0.78,3.75 C0.78,5.40685425 2.12314575,6.75 3.78,6.75 C5.43685425,6.75 6.78,5.40685425 6.78,3.75 C6.78,2.09314575 5.43685425,0.75 3.78,0.75 Z" id="Shape" fill="#000000"></path>
                <path d="M3.24,1.45 L3,1.09 C3.12915721,0.994584104 3.29407954,0.961599639 3.45,1 C3.45,1 3.45,1.4 3.45,1.4 L3.24,1.45 Z" id="Shape" fill="#CC2920"></path>
                <path d="M3.23,1.47 L3,1.1 C3.1116259,0.984176188 3.269813,0.925315871 3.43,0.94 C3.43902778,1.07985446 3.43902778,1.22014554 3.43,1.36 L3.22,1.48 L3.23,1.47 Z M3.43,0.95 C3.28951203,0.953151272 3.15476171,1.00634219 3.05,1.1 L3.24,1.43 L3.42,1.34 C3.42,1.34 3.42,0.97 3.42,0.95 L3.43,0.95 Z" id="Shape" fill="#000000"></path>
                <path d="M3.43,1.36 L3.43,0.95 C3.66410422,0.939740454 3.89205924,1.02658046 4.06,1.19 L3.84,1.51 L3.43,1.36 Z" id="Shape" fill="#F8E82A"></path>
                <path d="M3.88,1.53 L3.43,1.37 L3.43,0.94 C3.66213767,0.935155212 3.88615298,1.02548397 4.05,1.19 C4.05,1.19 4.05,1.19 3.83,1.52 L3.88,1.53 Z M3.49,1 L3.49,1.39 L3.91,1.52 L4.12,1.22 C3.94938719,1.06282072 3.7213691,0.983195354 3.49,1 Z" id="Shape" fill="#000000"></path>
                <path d="M3.88,1.51 L4.08,1.19 C4.19487509,1.29447814 4.26923418,1.43611449 4.29,1.59 L4,1.66 L3.91,1.5 L3.88,1.51 Z" id="Shape" fill="#CC2920"></path>
                <path d="M4,1.68 L3.91,1.53 L4.11,1.2 C4.2406776,1.2955041 4.32722702,1.43975313 4.35,1.6 C4.24010531,1.64174349 4.12615506,1.67190679 4.01,1.69 L4,1.68 Z M3.92,1.51 C3.95450752,1.55361018 3.98465199,1.60050157 4.01,1.65 L4.31,1.58 C4.28137659,1.43737997 4.20777293,1.30769733 4.1,1.21 L3.92,1.51 Z" id="Shape" fill="#000000"></path>
                <path d="M3.34,6.66 C3.63521888,6.37717729 4.04702719,6.25103781 4.45,6.32 C4.34,6.14 3.98,6.16 3.98,6.16 C3.98,6.16 3.87,5.32 3.98,5.28 C4.1325017,5.25741532 4.2874983,5.25741532 4.44,5.28 C4.47845654,5.26286581 4.50794216,5.23035896 4.52125563,5.19041854 C4.5345691,5.15047812 4.53048472,5.10678127 4.51,5.07 C4.44,4.98 4.25,4.66 4.33,4.6 C4.41,4.54 4.85,4.6 4.85,4.6 L3.59,3.07 C3.59,3.07 3.46,2.48 3.71,2.2 C3.89504693,2.09329353 4.00646424,1.89351078 4,1.68 C3.96073744,1.52679011 3.84392562,1.40543985 3.69232281,1.36036874 C3.54071999,1.31529763 3.37658558,1.35312335 3.26,1.46 C3.16087567,1.55337613 3.14007447,1.70314473 3.21,1.82 C3.21,1.82 2.77,1.94 2.75,2.02 C2.73,2.1 3.25,2.02 3.25,2.02 L3.2,2.37 C3.2,2.37 2.2,3.28 2.97,4.06 C3.11524985,4.23908271 3.30487676,4.37699319 3.52,4.46 C3.78,4.73 3.76,4.69 3.76,4.69 C3.78434201,4.85912863 3.78434201,5.03087137 3.76,5.2 C3.48077603,5.17051852 3.19922397,5.17051852 2.92,5.2 C2.83,5.2 2.48,5.2 2.57,5.78 L2.7,5.49 C2.7,5.49 2.7,5.69 2.77,5.77 C2.76191829,5.64483622 2.78966838,5.51996082 2.85,5.41 C2.85,5.41 2.85,5.64 2.92,5.68 C2.99,5.72 2.97,5.3 3.26,5.34 C3.4264473,5.35209319 3.5935527,5.35209319 3.76,5.34 C3.79920328,5.63505921 3.81924527,5.93234875 3.82,6.23 C3.61,6.18 3.12,6.23 3.08,6.37 C3.22249035,6.34801567 3.36750965,6.34801567 3.51,6.37 C3.51,6.37 3.27,6.58 3.35,6.69 L3.34,6.66 Z" id="Shape" fill="#000000"></path>
                <path d="M3.34,6.69 C3.27,6.57 3.44,6.4 3.49,6.35 L3.09,6.35 C3.09,6.18 3.64,6.13 3.83,6.17 C3.83,6.17 3.83,5.63 3.75,5.31 C3.59058018,5.32926962 3.42941982,5.32926962 3.27,5.31 C3.08,5.31 3.03,5.47 2.99,5.57 C2.95,5.67 2.99,5.65 2.94,5.65 C2.89,5.65 2.86,5.47 2.85,5.4 C2.83277236,5.50932547 2.83277236,5.62067453 2.85,5.73 C2.73,5.67 2.74,5.46 2.74,5.45 L2.64,5.74 C2.53,5.22 2.8,5.17 2.93,5.15 L3.24,5.15 C3.41977224,5.13719434 3.60022776,5.13719434 3.78,5.15 C3.79232595,4.99023739 3.79232595,4.82976261 3.78,4.67 C3.69532735,4.60178069 3.61821931,4.52467265 3.55,4.44 C3.33096188,4.34458566 3.1411687,4.19275112 3,4 C3.14215707,4.17801929 3.32828122,4.31588903 3.54,4.4 C3.74,4.61 3.78,4.63 3.78,4.63 C3.81211111,4.80520753 3.81211111,4.98479247 3.78,5.16 C3.49694309,5.14230042 3.21305691,5.14230042 2.93,5.16 C2.8,5.16 2.56,5.23 2.63,5.71 L2.73,5.42 C2.73,5.42 2.73,5.63 2.83,5.69 C2.80456889,5.56782746 2.8222369,5.44061779 2.88,5.33 C2.90146989,5.42395982 2.93508595,5.5147232 2.98,5.6 C2.97657894,5.57679206 2.97657894,5.55320794 2.98,5.53 C2.98,5.42 3.07,5.24 3.26,5.24 C3.43632069,5.25563612 3.61367931,5.25563612 3.79,5.24 C3.84499001,5.54354219 3.87177087,5.85152209 3.87,6.16 L3.69,6.16 C3.45,6.16 3.16,6.23 3.14,6.31 C3.18585497,6.29769079 3.23414503,6.29769079 3.28,6.31 C3.3731236,6.30115133 3.4668764,6.30115133 3.56,6.31 C3.51,6.39 3.38,6.54 3.4,6.63 C3.69942585,6.35491106 4.10892224,6.23316889 4.51,6.3 C4.38187908,6.2097767 4.22618677,6.16731516 4.07,6.18 C4.07,5.98 3.96,5.32 4.07,5.28 C4.22282299,5.26230798 4.37717701,5.26230798 4.53,5.28 C4.53,5.28 4.53,5.28 4.59,5.22 C4.61550506,5.1804196 4.61550506,5.1295804 4.59,5.09 C4.48835941,4.96189265 4.41968707,4.8108135 4.39,4.65 C4.38384465,4.63390166 4.38384465,4.61609834 4.39,4.6 C4.47,4.55 4.91,4.6 4.92,4.6 L3.58,3.07 C3.50736505,2.76764996 3.55391791,2.44894194 3.71,2.18 C3.88032552,2.07226206 3.97962063,1.88130993 3.97,1.68 C3.92391083,1.53957031 3.81180163,1.43072579 3.67007157,1.38880563 C3.52834152,1.34688547 3.3750623,1.37723483 3.26,1.47 C3.16756508,1.55857553 3.14697865,1.69856326 3.21,1.81 C2.99,1.89 2.77,1.97 2.76,2.02 L2.84,2.02 C2.97321141,2.02806376 3.10678859,2.02806376 3.24,2.02 L3.24,2.39 C2.95734272,2.65400854 2.77379576,3.00698347 2.72,3.39 C2.7290798,3.62233967 2.82974363,3.84164302 3,4 C2.79526666,3.82619386 2.6811063,3.5684124 2.69,3.3 C2.74220978,2.91647811 2.92601818,2.56300043 3.21,2.3 L3.21,1.96 C3.08764696,2.00138256 2.95915104,2.02167139 2.83,2.02 C2.76,2.02 2.73,2.02 2.72,2.02 C2.71,2.02 3.09,1.81 3.18,1.79 C3.27,1.77 3.08,1.62 3.23,1.43 C3.35376502,1.32539461 3.52195523,1.2902987 3.67722597,1.33667827 C3.83249671,1.38305785 3.95388374,1.50465085 4,1.66 C4.01801654,1.87389446 3.91844452,2.0806979 3.74,2.2 C3.5,2.47 3.62,3.05 3.62,3.06 L4.84,4.62 C4.70009239,4.62719301 4.55990761,4.62719301 4.42,4.62 C4.35,4.62 4.33,4.62 4.32,4.62 C4.33464086,4.7813689 4.39734192,4.93463815 4.5,5.06 C4.53081897,5.10888111 4.53081897,5.17111889 4.5,5.22 C4.5,5.22 4.45,5.3 4.41,5.3 C4.30673572,5.29465754 4.20326428,5.29465754 4.1,5.3 L3.96,5.3 C3.91349412,5.58813552 3.91349412,5.88186448 3.96,6.17 C4.13203697,6.13585543 4.30954909,6.19250823 4.43,6.32 C4.35696211,6.32930939 4.28303789,6.32930939 4.21,6.32 C3.87665363,6.30872109 3.55262427,6.43113218 3.31,6.66 L3.34,6.69 Z" id="Shape" fill="#000000"></path>
                <path d="M3.46,2.21 C3.46,2.21 2.74,3.01 3.05,3.61 C3.05,3.52 3.05,3.47 3.05,3.47 C3.05,3.47 3.14,3.55 3.13,3.53 C3.13575277,3.48351062 3.13575277,3.43648938 3.13,3.39 L3.23,3.39 L3.17,3.29 L3.31,3.29 C3.31,3.29 3.31,3.16 3.31,3.16 L3.43,3.16 C3.22,2.79 3.43,2.48 3.51,2.16 L3.46,2.21 Z" id="Shape" fill="#9BA49A"></path>
                <path d="M3.06,3.67 C2.75,3.06 3.47,2.26 3.47,2.25 C3.48778233,2.31887067 3.48778233,2.39112933 3.47,2.46 C3.34189441,2.70775323 3.34189441,3.00224677 3.47,3.25 C3.47,3.25 3.36,3.25 3.34,3.25 C3.32,3.25 3.34,3.31 3.39,3.36 L3.23,3.36 L3.3,3.45 L3.21,3.45 C3.2138182,3.48990888 3.2138182,3.53009112 3.21,3.57 C3.21,3.57 3.1,3.57 3.1,3.57 C3.11447626,3.61212432 3.11447626,3.65787568 3.1,3.7 L3.06,3.67 Z M3.44,2.22 C3.39,2.32 2.81,3.01 3.04,3.57 C3.04130408,3.55335884 3.04130408,3.53664116 3.04,3.52 L3.13,3.58 C3.10476283,3.54413531 3.08769549,3.50317372 3.08,3.46 L3.21,3.46 L3.13,3.38 L3.29,3.38 C3.22,3.27 3.23,3.26 3.24,3.25 L3.37,3.25 C3.23664384,3.00355008 3.23664384,2.70644992 3.37,2.46 L3.43,2.27 L3.44,2.22 Z" id="Shape" fill="#9BA49A"></path>
                <path d="M3.71,1.53 C3.71,1.53 3.71,1.81 3.6,1.88 C3.49,1.95 3.48,1.93 3.49,1.99 C3.5,2.05 3.55,2.05 3.61,1.99 C3.67,1.93 3.95,1.63 3.71,1.49 L3.71,1.53 Z" id="Shape" fill="#9BA49A"></path>
                <path d="M3.55,2.07 C3.55,2.07 3.49,2.07 3.48,2 C3.47,1.93 3.53,1.91 3.57,1.89 C3.61,1.87 3.7,1.55 3.7,1.54 C3.75447681,1.55370126 3.80068039,1.58968057 3.82731217,1.6391396 C3.85394396,1.68859863 3.85854857,1.74697738 3.84,1.8 C3.8205113,1.92073767 3.73584661,2.02079595 3.62,2.06 L3.56,2.06 L3.55,2.07 Z M3.71,1.55 C3.7527306,1.6761094 3.71290453,1.81550063 3.61,1.9 C3.54,1.9 3.5,1.96 3.51,1.99 C3.52,2.02 3.51,1.99 3.51,1.99 C3.61505119,1.95189541 3.69146373,1.86020036 3.71,1.75 C3.73301969,1.66193021 3.69667822,1.56905756 3.62,1.52 L3.71,1.55 Z" id="Shape" fill="#9BA49A"></path>
                <path d="M3.45,1.77 C3.44506994,1.7991842 3.4195948,1.82041349 3.39,1.82 C3.37511404,1.82304183 3.35965255,1.81915005 3.34798053,1.80942336 C3.33630851,1.79969668 3.32969239,1.78519046 3.33,1.77 C3.33,1.73686292 3.35686292,1.71 3.39,1.71 C3.42313708,1.71 3.45,1.73686292 3.45,1.77 Z" id="Shape" fill="#FFFFFF"></path>
                <path d="M3.21,2 C3.21,2 2.98,2.24 3.21,2.32 C3.44,2.4 3.36,2.22 3.4,2.18 C3.44,2.14 3.3,2.06 3.25,2 L3.21,2 Z" id="Shape" fill="#CC2920"></path>
                <path d="M3.17,2.33 C3.12490012,2.31421013 3.09096839,2.27650821 3.08,2.23 C3.08,2.13 3.18,2.02 3.21,1.99 L3.29,1.99 C3.29,1.99 3.39,2.06 3.39,2.13 C3.39,2.13 3.39,2.2 3.21,2.24 L3.17,2.33 Z M3.17,2.01 C3.17,2.01 3.06,2.15 3.08,2.22 C3.1,2.29 3.08,2.27 3.14,2.29 C3.2,2.31 3.29,2.23 3.3,2.2 C3.3,2.2 3.3,2.13 3.21,2.09 L3.2,2 L3.17,2.01 Z" id="Shape" fill="#000000"></path>
                <path d="M3.65,4 C3.61190199,4.11013159 3.61190199,4.22986841 3.65,4.34 C3.82,4.27 3.9,4.29 3.96,4.34 C3.83713422,4.25086584 3.72913416,4.14286578 3.64,4.02 L3.65,4 Z" id="Shape" fill="#9BA49A"></path>
                <path d="M3.65,4.32 C3.61111015,4.21000289 3.61111015,4.08999711 3.65,3.98 C3.63734449,4.07959959 3.63734449,4.18040041 3.65,4.28 C3.7390014,4.23978489 3.8409986,4.23978489 3.93,4.28 C3.80591629,4.21258219 3.69965624,4.11660537 3.62,4 C3.73080266,4.10664503 3.84766333,4.20681132 3.97,4.3 L3.84,4.3 C3.77720414,4.2883313 3.71279586,4.2883313 3.65,4.3 L3.65,4.32 Z" id="Shape" fill="#9BA49A"></path>
                <path d="M3.95,4.75 L3.95,5.14 C4.01603863,5.15294129 4.08396137,5.15294129 4.15,5.14 C4.21,5.14 4.15,4.87 3.94,4.75 L3.95,4.75 Z" id="Shape" fill="#FFFFFF"></path>
                <path d="M4.08,5.17 L4,5.17 L4,4.76 C4.14517796,4.81902201 4.24541959,4.95396266 4.26,5.11 C4.26727525,5.12587273 4.26727525,5.14412727 4.26,5.16 L4.17,5.16 L4.08,5.17 Z M4,5.17 C4.05301396,5.17825426 4.10698604,5.17825426 4.16,5.17 C4.16298407,5.02013096 4.0819248,4.8811722 3.95,4.81 L3.95,5.18 L4,5.17 Z" id="Shape" fill="#FFFFFF"></path>
                <path d="M4.93,4.8 C4.76080589,4.40356286 4.41727039,4.10804846 4,4 C3.81205439,3.9613397 3.64970394,3.84395344 3.55409293,3.67759027 C3.45848191,3.51122711 3.4387872,3.31185478 3.5,3.13 C3.5,3.07 3.5,2.98 3.73,3.07 C3.96,3.16 4.73,3.58 4.88,3.6 C5.03,3.62 4.88,4.78 4.88,4.76 L4.93,4.8 Z" id="Shape" fill="#9BA49A"></path>
                <path d="M4.93,4.82 C4.75842488,4.45488867 4.43769072,4.18153569 4.05,4.07 C3.78042333,4.02051815 3.56948185,3.80957667 3.52,3.54 C3.47485269,3.41735625 3.47485269,3.28264375 3.52,3.16 C3.52,3.09 3.6,3.02 3.77,3.1 L3.98,3.2 C4.3,3.36 4.83,3.62 4.92,3.63 C5.01,3.64 4.99,4.33 4.92,4.63 C4.85,4.93 4.92,4.83 4.92,4.83 L4.93,4.82 Z M3.64,3.09 C3.59,3.09 3.57,3.09 3.55,3.16 C3.50498284,3.2861028 3.50498284,3.4238972 3.55,3.55 C3.60764639,3.77030533 3.77969467,3.94235361 4,4 C4.38316891,4.10239244 4.70376011,4.36469432 4.88,4.72 C4.92882347,4.36165537 4.92882347,3.99834463 4.88,3.64 C4.78,3.64 4.36,3.41 3.88,3.19 L3.67,3.09 C3.63050641,3.08099858 3.58949359,3.08099858 3.55,3.09 L3.64,3.09 Z" id="Shape" fill="#000000"></path>
                <path d="M4.32,4 C4.32,4 5.17,4.51 4.91,4.95 C5.05546173,4.85051914 5.1233517,4.67081038 5.08,4.5 C5.19917272,4.79875265 5.07415946,5.139306 4.79,5.29 C4.84,5.29 4.88,5.29 4.88,5.29 L4.8,5.38 C4.8,5.38 4.8,5.44 5.09,5.28 C5,5.35 4.99,5.41 4.99,5.41 C4.99,5.41 4.99,5.48 5.23,5.29 C5.1487464,5.37799601 5.07825094,5.47534689 5.02,5.58 C5.49,5.58 6.51,4.02 4.7,3.58 L4.78,3.67 L4.32,4 Z" id="Shape" fill="#CC2920"></path>
                <path d="M5,5.64 C5.03337322,5.57583714 5.0736086,5.51548407 5.12,5.46 C5.09018972,5.48884324 5.05133249,5.50650561 5.01,5.51 C5.01,5.51 5.01,5.44 5.11,5.37 C5.03301947,5.43835979 4.9402277,5.48647404 4.84,5.51 L4.91,5.44 C4.91,5.44 4.91,5.44 4.84,5.44 C5.0659956,5.32075514 5.19371898,5.0732911 5.16,4.82 C5.14632439,4.93869882 5.08030152,5.04506899 4.98,5.11 C5.06,4.92 5.04,4.63 4.4,4.2 L4.86,3.84 L4.77,3.78 C5.77,3.99 5.85,4.52 5.83,4.78 C5.80152168,5.22378753 5.52184067,5.61223337 5.11,5.78 L5,5.64 Z M5.23,5.33 C5.17,5.44 5.1,5.54 5.06,5.6 C5.43346095,5.42344076 5.68484839,5.0615952 5.72,4.65 C5.72,4.16 5.39,3.79 4.72,3.65 C4.83,3.72 4.83,3.72 4.82,3.73 L4.37,4.07 C4.9,4.44 5.09,4.75 4.93,5.01 C5.05776116,4.89838238 5.11188968,4.72439788 5.07,4.56 C5.19777428,4.85284971 5.06921452,5.19419803 4.78,5.33 L4.85,5.33 L4.79,5.44 L5.07,5.32 C5.03454148,5.36106173 5.00737424,5.4086044 4.99,5.46 C4.99,5.46 5.07,5.46 5.2,5.33 L5.23,5.33 Z" id="Shape" fill="#000000"></path>
                <path d="M4.36,3.89 C4.48,3.98 4.52,4 4.53,4.04 C4.46369772,4.03014249 4.39630228,4.03014249 4.33,4.04 C4.24228812,3.95366571 4.14873335,3.87347591 4.05,3.8 C3.97656819,3.77029552 3.90623069,3.73345207 3.84,3.69 C3.75,3.69 3.67,3.33 4,3.42 L4.39,3.6 L4.8,3.73 L5,4 C4.84694642,3.92217862 4.69008231,3.8520904 4.53,3.79 C4.6028082,3.85184692 4.66379523,3.92638664 4.71,4.01 C4.58251614,3.96998499 4.4521269,3.93989517 4.32,3.92 L4.36,3.89 Z" id="Shape" fill="#FFFFFF"></path>
                <path d="M4.56,4.07 L4.4,4.07 C4.27413372,3.96940425 4.14036769,3.87911218 4,3.8 C3.92540265,3.76864388 3.854887,3.72834922 3.79,3.68 C3.72497228,3.63135647 3.69381936,3.54958005 3.71,3.47 C3.71,3.42 3.79,3.34 3.97,3.38 L4.36,3.56 L4.77,3.69 L5.01,3.96 C4.83,3.91 4.56,3.78 4.53,3.77 C4.61117981,3.81709525 4.67712697,3.88651331 4.72,3.97 L4.66,3.97 C4.54494371,3.93672193 4.42808849,3.91001216 4.31,3.89 C4.43199752,3.91135392 4.55230623,3.94143109 4.67,3.98 C4.62548,3.91271029 4.57160605,3.8521021 4.51,3.8 C4.68282326,3.8405193 4.8481838,3.90801339 5,4 L4.86,3.89 L4.74,3.76 L4.35,3.63 L4,3.42 C3.89,3.42 3.81,3.42 3.79,3.47 C3.77882499,3.53826924 3.80563814,3.60721732 3.86,3.65 C3.92104702,3.69869673 3.98830429,3.73905109 4.06,3.77 C4.16337569,3.8415285 4.26040068,3.92182505 4.35,4.01 L4.51,4.01 L4.38,3.91 C4.51,3.96 4.55,3.99 4.56,4.03 L4.56,4.07 Z" id="Shape" fill="#000000"></path>
                <path d="M2.72,2 C2.86763473,1.96141278 3.01811177,1.9346613 3.17,1.92 L2.72,2 Z" id="Shape" fill="#000000"></path>
                <path d="M2.73,2 C2.88075148,1.95804914 3.03455413,1.92795731 3.19,1.91 C3.0425938,1.9565641 2.89226461,1.99331123 2.74,2.02 L2.73,2 Z" id="Shape" fill="#FFFFFF"></path>
            </g>
        </g>
    </g>
</svg>