<?xml version="1.0" encoding="utf-8"?>
<!-- Generator: Adobe Illustrator 21.0.0, SVG Export Plug-In . SVG Version: 6.00 Build 0)  -->
<svg version="1.1" id="Layer_1" xmlns="http://www.w3.org/2000/svg" xmlns:xlink="http://www.w3.org/1999/xlink" x="0px" y="0px"
	 viewBox="0 0 200 200" style="enable-background:new 0 0 200 200;" xml:space="preserve">
<style type="text/css">
	.st0{fill:#2267AE;}
</style>
<path class="st0" d="M178.6,55.2c1.1,7.1,11.6,16.6,14.6,16.5c1.9,0,2.6-9.2,2.6-16.5c0-4,0.3-7.3-1.9-8
	C190.4,53.9,181.5,55.4,178.6,55.2z M179.2,51.9c7.7,0,14.8-6.1,14.8-11.6c0-2.4-1.2-4.6-4.2-5c0.5,0.7,0.7,1.2,0.7,2.3
	c0,4-6.2,8.6-13.1,8.6c-2.4,0-3.2,1.8-3.2,2.6C174.4,51.1,176.3,51.9,179.2,51.9L179.2,51.9z M177.6,43.6c-1.1,0-2.4,0-3.4-1.6
	c-0.7-1.3-0.4-3.5-1.8-4.5c1.2,0.3,2.4,0.4,3.6,0.4c3.4,0,6.5-2.3,9-2.3c1.6,0,2.2,1.1,2.2,2C187.3,41,180.7,43.6,177.6,43.6
	L177.6,43.6z M11.5,101.8c2.4,0,2-15.4,6.1-15.4c1.1,0,1.3,1.1,1.3,2.2c0,3.5-1.8,8.6-1.8,11.5c0,1.5,0.4,1.9,1.1,1.9
	c1.8,0,5-17,8-17c1.1,0,1.5,1.1,1.5,1.9c0,3.6-4.5,13.8-4.5,16.7c0,0.4,0.1,0.8,0.5,0.8c1.9,0,5.5-8,6.9-12c0.7-2,1.6-3.2,2.3-3.2
	s1.5,0.8,1.5,2.4c0,4-3.8,13.5-7,19.7c-2.4,5-6.5,11.9-6.5,15.8c0,2,0.4,4,3.2,6.7c-4.9-0.3-6.7-0.7-8.4-4.5
	c-8,15.8,14.7,14.2,7,28.3c-1.5-2.4-12.5-5.1-12.5-19.8c0-12.7,11.2-20.2,11.2-25.4c0-1.1-0.4-2-1.3-2.7c-3-2-3-3.8-4.9-3.8
	c-1.5,0-3.1,3.4-1.3,6.1c0.5,1.1,1.2,1.6,1.2,2.4c0,2-3.2,7.7-5.5,7.7s-4-5.7-4-15c0-8.1,1.9-16.5,4.2-16.5c0.7,0,0.8,0.4,0.8,1.1
	c0,1.1-0.3,3-0.3,6.1C9.8,101.4,10.8,101.8,11.5,101.8L11.5,101.8z M125.2,28.9c1.2,0,1.5,3,1.6,4.6c0.1,0.8,0.3,1.1,0.7,1.1
	c0.8,0,2.3-3.5,3.2-3.5c1.5,0,5.3,3.9,11.5,3.9c9,0,17.4-6.3,17.4-17.4c0-10.8-7.6-17.1-17.9-17.1c-5,0-8.6,2.4-10.7,2.4
	C129.9,3.1,128.1,0,127,0c-0.4,0-0.7,0.7-0.7,2c0,0.8,0,3.5-0.8,3.5c-1.8,0-8.8-5.1-8.8-3.4s4.6,7,4.6,8.2s-4.5,2.6-4.5,3.5
	c0,1.6,4.9,1.9,4.9,4s-5.1,3.8-5.1,5.3c0,1.3,5.1,0.4,5.1,1.9c0,1.6-3.8,6.9-3.8,8.2c0,0.4,0,0.4,0.4,0.4
	C119.9,33.7,124.2,28.9,125.2,28.9L125.2,28.9z M29.9,138.6c-0.1-1.6,1.1-3,2.4-3.1c1.6-0.1,3,0.8,3.1,2.4c0,0,0,0,0,0.1
	c0.1,1.6-1.1,3-2.4,3.1C31.6,141.2,30.1,140.1,29.9,138.6L29.9,138.6z M21.7,140.8c0.3,2.6,2.7,4.5,5.4,4.2c0.8,0,1.8-0.3,2.4-0.7
	c0.5,2.3,2.4,3.9,5.3,3.6c2.6-0.1,4.5-2.3,4.3-5c0-0.1,0-0.1,0-0.3c0-0.5-0.1-1.2-0.4-1.8l0.5-0.1c2.6-0.4,4.3-3.1,3.9-5.7
	c-0.4-2.3-2.4-4-4.9-4c-0.8,0.1-1.8,0.4-2.3,1.1c-0.7-2.2-2.6-4-5.4-3.8c-2.6,0.1-4.6,2.6-4.3,5.4c0,0.5,0.1,1.1,0.4,1.5h-0.5
	C23.5,135.7,21.6,138.2,21.7,140.8L21.7,140.8z M187.2,4.6c0,1.1,0.8,1.9,1.8,1.9l0,0c1.1,0,1.9-0.8,1.9-1.9s-0.9-1.9-1.9-1.9
	C188,3,187.2,3.6,187.2,4.6L187.2,4.6z M145.8,75.1c0,1.8,1.5,3.1,3.1,3.1c1.8,0,3.1-1.5,3.1-3.1c0-1.8-1.5-3.1-3.1-3.1
	C147.1,72,145.8,73.4,145.8,75.1z M145.9,84.4c0,1.9,1.6,3.5,3.5,3.5c1.9,0,3.5-1.6,3.5-3.5l0,0c0-1.9-1.6-3.5-3.5-3.5
	S145.9,82.4,145.9,84.4z M135.1,90.8c0,2.7,2.3,5.1,5.1,5.1c2.7,0,5.1-2.3,5.1-5.1c0-2.8-2.3-5.1-5.1-5.1
	C137.6,85.6,135.1,87.9,135.1,90.8L135.1,90.8z M138,80.2c0,1.6,1.3,3,3,3c1.6,0,3-1.3,3-3c0-1.6-1.3-3-3-3l0,0
	C139.4,77.4,138,78.6,138,80.2z M128.3,86.2c0,1.6,1.2,3.1,3,3.1c1.6,0,3.1-1.2,3.1-3c0-1.6-1.2-3.1-3-3.1h-0.3
	C129.5,83.5,128.4,84.7,128.3,86.2z M135.9,68.8c0,2.6,2.2,4.9,4.9,4.9c2.6,0,4.9-2.2,4.9-4.9c0-2.7-2.2-4.9-4.9-4.9l0,0
	C138.1,64.2,135.9,66.2,135.9,68.8L135.9,68.8z M141.5,59.6c0,1.6,1.2,3,2.7,3c1.6,0,3-1.2,3-2.7v-0.1c0-1.6-1.3-2.7-2.7-2.7
	C142.7,56.9,141.5,58.3,141.5,59.6L141.5,59.6z M128.1,66.8c0,1.6,1.3,2.7,2.7,3c1.6,0,2.7-1.3,3-2.7c0-1.6-1.3-2.7-2.7-3l0,0
	C129.3,64.1,128.1,65.3,128.1,66.8z M127.6,76.5c0,2.4,2,4.5,4.5,4.5s4.5-2,4.5-4.5l0,0c0-2.4-2-4.5-4.5-4.5l0,0l0,0
	C129.6,72,127.6,73.9,127.6,76.5L127.6,76.5L127.6,76.5z M118.4,81.3c0,2.3,1.9,4.2,4.2,4.2s4.2-1.9,4.2-4.2c0-2.3-1.9-4.2-4.2-4.2
	S118.4,79,118.4,81.3z M120.8,70.8c0,1.6,1.3,3,3,3c1.6,0,3-1.3,3-3c0-1.6-1.3-3-3-3C122.2,67.8,120.8,69,120.8,70.8L120.8,70.8z
	 M111,180.3c0,1.6,1.3,3,3.1,3c1.6,0,3-1.3,3-3.1c0-1.6-1.3-3-3-3C112.2,177.2,111,178.6,111,180.3L111,180.3L111,180.3z M31.2,57.2
	c0,1.6,1.3,3,3,3c1.6,0,3-1.3,3-3s-1.3-3-3-3l0,0C32.4,54.3,31.2,55.6,31.2,57.2z M27.2,50.6c0,1.6,1.3,3,3,3c1.6,0,3-1.3,3-3
	s-1.3-3-3-3C28.5,47.5,27.2,49,27.2,50.6L27.2,50.6z M30.3,123.5c3.1,0,5.7-2.3,5.7-7.4v-7.6c0-3,0.3-6.1,2.2-8.4
	c-0.1,1.1-0.3,2-0.3,3c0,6.3,3.6,10.8,3.6,17c0,2.3-0.7,3.6-2.4,3.6s-1.6-1.6-1.9-1.6c-0.3,0-0.7,1.1-0.7,2c0,1.6,1.2,4,4.2,4
	c2.6,0,4.9-2.4,4.9-5.3c0-6.7-5.3-14-5.3-21.2c0-2.3,0.5-4.6,1.5-6.9c0,14.8,12.5,25.5,12.5,31.7c0,1.3-1.1,2.4-2.4,2.4h-0.4
	c-1.3,0-2.4-1.1-2.4-2.3c0,0,0,0,0-0.1c0-0.5-0.1-0.7-0.3-0.7c-0.4,0-1.8,1.5-1.8,3.5c0.1,3.1,2.6,5.5,5.7,5.4l0,0
	c4.2,0,6.5-3.6,6.5-6.9c0-7.8-15.2-19.6-15.2-32.2c0-2.2,0.4-5.7,1.9-8.2c-9.8,6.2-12.9,14.7-12.9,22.1c0,6.3-0.3,9.6-3.5,9.6
	c-1.8,0-2.2-1.6-2.7-1.6c-0.4,0-0.7,1.3-0.7,1.8C26.3,122,28.3,123.5,30.3,123.5L30.3,123.5z M159.1,49.4c3.2,0,5.7-1.5,5.7-2.3
	c0-0.3-0.4-0.5-1.5-0.5s-3-0.1-6.5-0.7c-3.2-0.5-5.5-1.8-6.3-1.8c-0.3,0-0.4,0.1-0.4,0.4C150,46.4,153.6,49.4,159.1,49.4L159.1,49.4
	z M142.8,39.9c1.1-0.5,5.1,0.4,10.7-2.3c0.5-0.3,1.3-0.5,1.9-0.5c2.6,0,1.9,3,4.3,3c1.9,0,4.2-1.6,5.7-1.6c2.2,0,5.4,7,5.4,10.2
	c0,3.8-5.7,6.1-12.5,6.1c-9.8,0-15.8-8.6-15.8-14.2C142.4,40.3,142.5,40.1,142.8,39.9L142.8,39.9z M32,151.6
	c-2.4,0.5-6.3,4.5-6.3,10.7c0,7.3,7.8,18.5,20.6,18.5c10.9,0,13.5-7.6,13.5-12.5c0-11.2-7-19-15.8-19c-5,0-9.3,3.6-9.3,8.9
	c0,5,3.8,12.1,12.5,12.1c4.2,0,6.7-3,6.7-6.3c0-3.4-3.1-8-7.6-8c-1.2,0-2.2,0.8-2.3,2c0,0.1,0,0.1,0,0.3c0,1.8,2.4,3.6,5.5,3.6
	c0.5,0,1.2-0.1,1.6-0.3c0.1,0.3,0.3,0.5,0.3,0.8c0,1.8-1.6,2.7-4.2,2.7c-3.8,0-7.4-2.7-7.4-7.3c0-2.6,2.3-4.6,5.7-4.6
	c6.5,0,10.7,5.8,10.7,11.7c0,5.3-3,8.2-8.9,8.2C35.2,173,29.4,162.5,32,151.6L32,151.6z M24.5,70.8c-1.8,0.4-5.3,2.4-5.3,6.2
	c0,2.6,2,4.3,4.6,4.3c1.3,0,2.3-0.3,3-0.7c-1.9-1.6-3-4-2.7-6.3C24,73.2,24.1,72,24.5,70.8z M6.3,71.9c0,0.4-0.1,0.7-0.1,1.2
	c0,3.5,1.9,5.4,4.3,5.4c1.9,0,4-1.2,5.9-3.6c-0.8,0.1-1.8,0.3-2.6,0.3C11.1,75.1,8.2,74.3,6.3,71.9L6.3,71.9z M3.8,78.5
	c0,5.7,1.8,8.2,4.9,8.2c2.3,0,5.5-1.8,9.3-5c-3,0.7-5.1,1.2-7.1,1.2C8,83.1,5.9,81.9,3.8,78.5L3.8,78.5z M116.8,195.1
	c3.6,0,3.4-0.3,4.5-0.3c1.2,0,1.2,0.7,1.2,1.2c0,1.6-3.6,3.6-10.1,3.6c-3.8,0-6.1-2-6.9-4.2c-3.8,2.3-9.3,4.5-15,4.5
	c-15.2,0-19-6.7-23.9-8.8c-3.6-1.6-9.2,1.6-17-7.1c1.2,0.1,2.3,0.3,3.6,0.3c6.9,0,10.5-3.4,10.5-8.8c0-0.7,0-1.5-0.1-2
	c2,0.8,6.9,4.3,8,10.8c0.1,0.7,3.2,1.5,5.1,1.5c2.6,0,6.1-1.2,6.7-5.5c8.9-0.7,15-5.9,16-12.7c3.2,1.1,6.9,3.9,7.7,5.4
	c1.5-0.4,3-0.7,4.5-0.7c2.3,0,5.1,0.4,8.2,1.5c0.1-1.1,0.3-2.2,1.8-2.2c2.2,0,1.6,2.4,2.3,3.9c0.4,0.7,2.2,1.2,2.2,2.6
	c0,1.1-0.8,1.9-1.9,1.9l0,0c-0.3,0-0.5,0-0.8-0.1c-1.5,0.5-1.6,11.2-7.8,11.2c-4.6,0-8.9-3.8-10.8-8.6c-0.5-1.5-1.6-2.3-2.6-2.3
	c-1.2,0-1.9,0.3-3.4,1.8c-5,5.3-11.7,8.1-18.9,8.1c-2.4,0-4.5-0.3-5.1-0.3c-0.3,0-0.3,0.1-0.3,0.1c0,0.5,2.4,2.4,8,2.4
	c13.1,0,16.3-7.4,18.3-7.4c0.3,0,1.2,0,1.8,1.2C106,193.5,112.5,195.1,116.8,195.1L116.8,195.1L116.8,195.1z M74.7,45.9
	c5,0,7.1,4.2,7.1,9c0,2-0.5,5.1-1.6,5.1s-0.8-1.8-1.1-3.4c-0.1-2-0.5-2.4-1.2-2.4c-1.3,0-2,3-2,5.7c0,1.8,0.3,3.6,1.6,3.6
	c0.7,0,1.3-0.3,1.9-0.8c-0.3,3.5-2.7,6.3-6.3,6.3c-6.5,0-9-7.7-9.7-12c-3.9,4.2-7.6,7.3-14,7.3c-6.1,0-8.9-4.5-8.9-8.8
	c0-1.3,0.4-4.5,2-4.5c1.9,0,0.3,6.1,3.9,6.1c0.8,0,2.4-0.7,3.5-3.2c0.4-1.5,0.7-3,0.8-4.3c0-2-0.4-3.2-1.9-3.2
	c-1.3,0-2.7,1.1-3.4,1.5c1.8-5.4,6.1-8.1,10.9-8.1c5.8,0,9,5.3,9,11.1c0,0.8-0.1,1.8-0.3,2.4C67.3,49.1,70.7,45.9,74.7,45.9
	L74.7,45.9z M56,1.6c0-0.4-2.2-0.8-5.3-0.8c-4.9,0-4.2,4-7.8,4c-3.9,0-3-4.2-7.8-4.2c-3,0-5.7,0.5-5.7,1.2c0,0.8,3.5,0.5,3.5,3
	c0,2.6-7.6,3.4-7.6,5c0,0.5,0.5,0.7,1.3,0.7c1.6,0,4.2-0.7,6.1-0.7c1.1,0,2,0.3,2,1.2c0,1.9-4,5.3-4,6.7c0,0.4,0.4,0.5,0.7,0.5
	c1.5,0,4-3.8,6.3-3.8c3.9,0,1.3,8.4,3.5,8.4s1.3-8.2,4.5-8.2c2.6,0,4.5,5.7,6.2,5.7c0.4,0,0.8-0.4,0.8-0.8l0,0
	c0-1.6-2.2-4.9-2.2-6.9c0-1.3,0.8-1.9,2-1.9c1.8,0,4,1.1,5.3,1.1c0.4,0,0.8-0.1,0.8-0.7c0-1.8-6.7-3.8-6.7-5.9S56,2.6,56,1.6L56,1.6
	z M161.7,147.8c-1.6,0-10.1,11.5-15.6,11.5c-1.3,0-2.4-2.4-2.4-4.5c0-1.1,0.7-1.8,3.1-2.3c12.8-3,9.8-12.5,20.9-12.5
	c5.9,0,12.8,4,12.8,13.4c0,9.7-13.9,22-15.9,22c-1.8,0-3.6-2.4-3.6-4c0-0.5,0.3-1.2,1.8-1.8c7.1-2.7,11.2-9.3,11.2-12.7
	c0-0.7-0.4-1.5-1.3-1.5c-1.3,0-6.7,12.3-12.7,12.3c-4.2,0-8.4-3.8-8.4-5.5c0-3,12-8.4,12-12.7C163,147.9,162.4,147.8,161.7,147.8
	L161.7,147.8z M169.8,143.1c-1.1,0-2.2,0.8-2.2,2.7c0,2.2,1.8,3.6,2.6,4c0.7,0.4,1.5,0.5,2.2,0.5c2.2,0,3.9-0.5,3.9-2.3
	C176.3,146.1,172.9,143.1,169.8,143.1L169.8,143.1z M73.4,9.2c0,1.3,4.6,4.2,6.9,4.2c1.3,0,1.6-1.8,1.6-3.5c0-2.2-1.1-2.3-3-2.3
	C76.6,7.6,73.4,8.2,73.4,9.2z M81.2,23.9C81.2,19.4,69,11.2,69,8c0-0.1,0-0.3,0-0.4c0.8-2.4,11.1-4.2,11.1-6.1
	c0-1.1-1.8-1.1-2.6-1.1c-7.1-0.1-17.1,2.3-17.1,4.9s9,8.8,9,11.7c0,0.8-0.5,1.2-1.3,1.2c-2.4,0-8-3.1-10.7-3.1c-1.2,0-1.6,0.8-1.6,2
	c0,3.6,4.2,10.2,4.2,12.3c0,0.3-0.1,0.5-0.4,0.5c-1.3,0-7.7-7.4-9.8-7.4c-0.8,0-0.8,1.2-0.8,2.7v2.4c0,1.8-0.1,2.7-0.8,2.7
	c-1.9,0-2.7-5.4-4.6-5.4c-1.9,0-2.3,9.7-4.2,9.7c-2.2,0-0.3-10.7-2.3-10.7c-2.3,0-5,7.1-6.5,7.1c-0.5,0-0.7-0.5-0.7-1.2
	c0-2.2,1.3-5.7,1.3-7.7c0-1.1-0.3-1.6-1.2-1.6c-2.3,0-7.4,3.8-9.3,3.8c-0.3,0-0.7-0.1-0.7-0.4c0-1.8,8.1-7.4,8.1-10
	c0-2.4-11.2-0.8-11.2-3.6c0-2.3,8-4.9,8-7.3c0-2.2-9.4-3.1-13.1-3.1C7.6,0,5,0.5,5,1.8c0,1.9,10,2.4,10,4.2c0,1.6-10.2,5.9-10.2,8.6
	c0,2.2,14.6,0.1,14.6,2.4c0,2.4-12.7,13.5-12.7,17.1c0,0.8,0.5,1.2,1.5,1.2c3.6,0.4,13.8-7,16.5-7c1.1,0,1.1,1.2,1.1,2.2
	c0,1.9-0.7,5-0.7,7.1c0,1.8,0.4,3,1.9,3c2.7,0,5.3-4.6,7.1-4.6c2.3,0,1.1,13.8,4.5,13.8c3.1,0,4.3-14.8,6.2-14.8
	c1.9,0,3.5,4.3,5.3,4.3c2.2,0,1.2-7.6,3.6-7.6c2.6,0,10,8.9,13.4,8.9c1.1,0,1.5-0.8,1.5-1.9c0-3.9-5.5-12.8-5.5-15.6
	c0-0.7,0.3-1.1,1.1-1.1c3,0,11.3,4,15.4,4C80.4,25.5,81.2,24.8,81.2,23.9L81.2,23.9z M182.5,109.4c1.2-3.8,2.6-6.3,5.1-10.2
	c-2.4-1.3-8.9-3.9-8.9-8.2c0-5.1,6.3-9.2,7.7-9.2c0.5,0,0.7,0.5,0.7,1.5c0,2.6-1.3,7-1.3,9.3c0,2,1.3,4,2.4,4c1.3,0,4.9-4.5,4.9-8.9
	c0-7.8-7-10.2-9-10.2c-2,0-5.7,3.4-14.2,3.4c-15.9,0-19.6-15.8-19.6-22.8c0-0.3,0-0.4,0.1-0.4c0.4,0,1.9,1.9,7,1.9
	c2.6,0,5-0.7,8.8-0.7c8.9,0,12.8,6.1,18.3,14c3.4,2,11.3,5.4,11.3,14.8c0,8.2-8.9,12.9-11.1,21.7c3.4-0.4,5.4-6.5,8.9-6.5
	c1.8,0,2.6,1.5,2.6,3.6c0,3.4-1.9,8.1-5.4,11.2c0-0.4,0.1-0.7,0.1-1.2c0-2-0.8-5.1-3.2-5.1c-3.6,0-5,4-7,7.4
	c-2.2-7.6-5.1-14.4-10.2-18.6c-5.3-4.2-14.4-1.9-14.4-9.6c0-2,1.3-5.1,1.3-7.4c0-0.7-0.1-1.5-0.5-2.2c7.1,2.6,4.6,7.4,9,12.3
	c2.7,3.1,10.2,6.1,14.7,18.9c0.1-0.7,0.1-1.3,0.1-2c0-11.1-14.6-21.7-15.8-26.3c8.4,1.1,10,3.1,13.9,14.2
	C179.8,100.7,182.5,106.4,182.5,109.4L182.5,109.4z M22.9,48.8c0.4-1.5,0.7-3,0.7-4.3c0-3.6-1.6-9-6.7-9c-2.7,0-5,2.2-5,5l0,0
	C12,46.4,17.9,48.8,22.9,48.8L22.9,48.8z M16.7,67.6c-2.4,0-5.1-3.1-5.1-5.8c0-1.5,1.2-3.4,1.9-3.4c0.3,0,0.4,0.3,0.5,0.7
	c0.4,3.6,2.7,5.7,5.1,6.9c0.3,0.1,0.4,0.3,0.4,0.4C19.3,66.8,18.1,67.6,16.7,67.6L16.7,67.6z M25.5,60.6c0,1.1-0.5,2.3-1.8,2.3
	c-2.6,0-4.6-3.9-4.6-6.1c0-1.5,0.8-1.6,1.9-1.6c0.4,0,0.7,0.1,1.2,0.3c0.7,0.4,0.7,1.9,1.5,3C24,59.2,25.5,60,25.5,60.6L25.5,60.6z
	 M22.8,52.7c-0.5,0-1.1-0.1-1.6-0.1c-2.4,0-5.7,0.4-8.6,2.3C6.1,59.1,7,65.8,6.1,67.6c-0.1,0.3-0.3,0.5-0.3,0.8
	c0.1,0.7,0.7,1.3,1.5,1.5c0.5,0,1.1-0.1,1.3-0.1c1.8,0,3.8,1.3,6.7,1.3c1.8,0,3.8-0.5,6.2-1.8C27,66.8,29,60,29,58.8
	c0-1.5-1.2-1.2-2-2.4c-1.1-1.6-0.5-2.2-1.2-3.1C25.1,52.9,24.1,52.9,22.8,52.7L22.8,52.7z M30.6,64.7c-1.6,1.9-3.4,5.3-3.4,8.6
	c0,4,2.4,7.4,6.2,7.4c3.6,0,5.4-3.1,5.4-6.2C39,69.2,34.4,65.8,30.6,64.7L30.6,64.7z M14.8,50.4c0,0-2.2,1.6-4.9,1.6
	c-3.1,0.1-5.7-2.3-5.7-5.5c0-0.1,0-0.1,0-0.3c0-2.6,1.6-5,3.9-5.8c0,0.4-0.1,0.8-0.1,1.3C8.2,46,10.5,49.2,14.8,50.4L14.8,50.4z
	 M147,93.6c0.1-1.6,1.5-2.7,3.1-2.7c1.5,0,2.6,1.3,2.7,2.7c0,1.6-1.3,3-3,3C148.2,96.6,147,95.2,147,93.6L147,93.6z M148.9,179
	c0.4,0,0.8,0.3,0.8,1.6c0,1.6-0.7,3.8-3.4,5.5c-1.9,1.3-4.3,2.3-8.1,2.3c0.5-1.8,1.1-3.6,1.1-5.4c0-0.5,0-1.2-0.1-1.8h1.1
	C145.9,181.3,148.3,179,148.9,179L148.9,179z M149.4,171.7c0.5-0.5,0.7-1.3,0.7-2.2v-1.8c0-2.2-3.2-3.5-7.7-3.5
	c-5.4,0-8.2,2.4-8.2,3.5v3.5c0,1.5,3.4,2.7,7.3,2.7C144.6,174.2,147.5,173.3,149.4,171.7L149.4,171.7z M153.3,172.5
	c-3.9,3.2-8.9,5-13.9,4.9c-4,0-5.8-1.3-6.3-1.3c-0.7,0-1.6,0.7-2.3,1.8c-1.8,2-4,5.9-4,10.1c0,3,2.3,5.9,6.7,5.9
	c13.9,0,24.3-8.8,24.3-15.6C157.4,174.2,155.1,172.5,153.3,172.5L153.3,172.5z M155.9,110c0,1.9,0.5,4,2.4,4c1.6,0,3-2.3,3-5
	c0-3-0.5-5.3-0.5-6.5c0-0.5,0.3-0.7,0.5-0.7c1.2,0.1,2.2,3.1,3.4,3.1c1.3,0,3.4-2.4,4.2-2.4c0.3,0,0.3,0.3,0.3,0.4
	c0,1.2-1.8,3.6-1.8,4.5c0,0.8,4.3,1.1,4.3,1.8c0,1.2-4.5,1.2-6.7,2c-2,0.8-3.4,2-3.4,3.5c0,1.5,1.5,1.8,3.6,1.8c5,0,8.4-2.6,9.6-2.6
	c0.1,0,0.3,0.1,0.4,0.3l0,0c0,0.7-2.4,3.2-2.4,4.3c0,1.3,4.6,2.7,4.5,3.5c0,0.3-0.4,0.3-0.8,0.3c-0.8,0-2-0.3-3.1-0.3
	c-0.5,0-1.2,0-1.3,0.4c-0.5,0.5,0.1,4.5-0.8,4.5c-1.1,0-3.5-8.8-9.2-8.8c-0.8,0-1.5,0.7-1.5,1.8c0,3,3,6.3,5.7,8
	c1.3,0.8,3.4,1.6,3.4,2c0,0.8-4.9,0-4.9,1.6c0,1.3,0.5,3.4,0.5,4.5c0,0.4,0,0.8-0.5,0.8c-0.8,0-3.1-4-4-4c-0.8,0-2.7,2.4-3.6,2.4
	c-0.3,0-0.4-0.3-0.4-0.4c0-1.8,2.7-5.5,2.7-9.3c0-1.8-0.3-5.7-2.3-5.7c-1.8,0-3.8,2.7-4.6,5.7c-0.5,1.6-0.1,8-1.3,8
	s-0.8-4.2-2.3-4.2c-1.2,0-3.5,2-4.3,2c-0.1,0-0.3-0.1-0.3-0.3c0-0.8,2.2-3.8,2.2-4.3c0-1.2-5-1.3-5-2.2c0-0.5,1.9-0.8,3.8-1.2
	c3.8-0.7,9.3-3.5,9.3-7.3c0-4.3-4.2-6.1-7-8c-1.5-0.8-3-1.6-3-2.2s1.8-0.5,2.4-0.5c1.2,0,2.2,0,2.2-1.1c0-0.7-0.1-2-0.1-3.1
	c0-0.7,0.1-1.3,0.4-1.3c1.2,0,2.6,3.6,3.5,3.6c1.2,0,2.7-3,3.9-3c0.4,0,0.5,0.3,0.5,0.8C157.2,104.2,155.9,107.5,155.9,110
	L155.9,110z M120.6,88.2c0.8,6.2,9.3,3.1,9.3,10.8c0,1.2-0.3,2.7-0.3,4.2c0,1.6,0.1,3.1,1.5,3.1s1.6-0.8,1.6-2
	c0-1.2-0.3-2.6-0.3-3.5c0-2.6,1.9-3.2,3-3.2c2.7,0,5,3,9.2,3c-1.1,4.9-10.8,3.5-10.8,8.8c0,2.6,2.6,3.2,4.3,3.2c1.6,0,2-0.3,2-1.6
	c0-0.7-0.1-1.6-0.1-2c0-0.3,0.3-0.5,0.5-0.5l0,0c1.6,0,9.6,6.1,9.6,8c0,1.8-8.4,3.5-10.9,3.5c-0.4,0-0.8-0.3-0.8-0.7v-0.1
	c0-0.5,1.3-2,1.3-3c0-0.7-1.2-1.2-4-1.2c-1.5,0-2.4,0.1-2.4,1.3c0,2,3.2,4.5,3.2,6.2c0,1.5-0.8,2.3-3.2,2.3c-2,0-5.1-1.6-5.1-4.2
	c0-2,2.2-4.2,2.2-5.4c0-0.4-0.3-1.1-1.2-1.1c-2.7,0-3.5,7.3-13.2,8.1c1.6-1.5,3-3,3-6.1c0-1.6-0.4-2.7-0.4-4.5
	c0-2.2,1.1-3.4,2.4-3.4c2.7,0,4,3.9,5.8,3.9c1.2-0.1,2-1.1,2-2.2c0-5.7-10.9-4.9-10.9-12.8C117.7,94.7,118.5,92,120.6,88.2
	L120.6,88.2z M134.6,136.6c0,1.1,0.7,1.8,1.8,1.9c0,0,0,0,0.1,0c1.2,0,1.9-1.1,1.9-2.2c0-1.6-1.5-3.8-2.7-3.8
	c-0.5,0-0.4,0.8-0.5,1.9C134.9,135.1,134.6,136.1,134.6,136.6L134.6,136.6z M130.7,126.8c7.8,1.5,12,7.4,12,12.8
	c0,3.8-2.3,7.3-6.5,7.3c-3.8,0-6.5-2.6-6.5-6.9c0-3.1,2.4-6.3,2.4-9.6C132.2,129.1,131.8,127.7,130.7,126.8L130.7,126.8z
	 M120.8,139.3c0.5,0.5,1.1,1.5,1.1,2.2c0,1.2-0.5,2.3-0.5,3.6c0,1.8,1.5,3.4,3.2,3.4c0,0,0,0,0.1,0c1.9,0,3.5-1.5,3.5-3.4V145
	C128.1,142.1,125.2,139.3,120.8,139.3L120.8,139.3z M145.5,134.6c0.4,0.7,0.7,1.6,0.7,2.3c0,2-1.5,4-1.5,6.1c0,2.4,1.9,4.5,4.6,4.5
	c3.1,0,5.1-2.4,5.1-5.4C154.6,138.2,151,134.9,145.5,134.6L145.5,134.6z M122.7,130.7c3.5,0.4,4.2,1.6,4.2,2.6c0,1.6-1.5,2.2-3,2.2
	c-1.1,0-2.2-0.3-3.5-0.3c-1.6,0-3.2,0.4-4.6,1.9c1.1,0.1,2.3,0.8,2.3,2.3c0,4.3-11.9,0.7-11.9,11.7c0,5.8,6.1,12.1,15.2,12.1
	c4.9,0,7.8-1.6,7.8-3.4c0-1.5-2.4-0.4-2.4-1.6c0-0.5,0.8-1.5,0.8-2.3c0-0.4-0.3-1.1-0.8-1.1c-1.3,0-3.9,2.2-9,2.2c-4,0-8-2.3-8-5.4
	c0-0.7,0.3-1.1,0.7-1.1c0.4,0,1.1,0.3,1.6,0.3c0.4,0,0.5-0.3,0.5-1.2c0-0.8,0-3.1,1.5-3.1s4,5.3,14.4,5.3c3.5,0,10-0.7,12.5-3
	c0,8.1-6.5,18.9-19.8,18.9c-13.9,0-21.3-11.2-21.3-21.3c0.1-12,9.8-21.7,22-21.6c3.2,0,5.9,1.2,5.9,2.4
	C127.7,129.5,123,128.4,122.7,130.7L122.7,130.7z M68.8,54.6c0-1.3-0.3-1.6-0.5-1.6c-0.7,0-1.6,0.8-2.7,3c0.1,2.6,0.5,3.9,1.3,3.9
	C67.7,59.9,68.8,57.2,68.8,54.6L68.8,54.6z M58.7,57.6c0.8,0,1.9-0.8,3.8-3.1c0.1-1.1,0.1-2,0.1-3c0-1.5-0.5-3.2-1.5-3.2
	c-2.2,0-3.4,5.9-3.4,7.6C57.9,56.9,58.3,57.6,58.7,57.6L58.7,57.6z M70.9,64.3c1.9,0,3.9-7.1,3.9-11.6c0-1.1-0.1-2-0.5-2
	c-1.6,0-4.2,7.4-4.2,11.3C70,63.5,70.3,64.3,70.9,64.3L70.9,64.3z M52.6,60.1c2.4,0,5.4-13.6,5.4-15.9c0-0.5-0.3-1.1-0.7-1.1
	c-2.3,0-5.5,13.1-5.5,15.8C51.9,59.5,52.1,60.1,52.6,60.1z M60.7,65.8c-3.2,0-3.4,3.9-3.4,11.6C55,72.3,51,66.8,46.4,66.8
	c-3,0-4.3,2-4.3,5.7c0,0.8,0,1.8,0.3,2.4c0.4-1.3,1.6-1.8,3.1-1.8c3.2,0,7.1,2.4,9.6,5.8c-3-0.5-5.7-1.1-8.1-1.1
	c-1.5,0-2.7,0.1-3.9,0.7c-2.2,1.1-5.1,4.2-5.1,9c0,0.8,0.1,1.6,0.3,2.4c2.6-5.8,9.4-8.4,13.9-8.4c0.7,0,1.5,0,2,0.1
	c-2.3,2-2.7,5.7-3,8.1c-0.1,1.3-0.5,1.3-1.5,1.3c0,2.4,1.9,6.1,1.9,8c0,0.7-0.4,1.3-0.7,1.5c0,3.2,3.2,5.7,3.2,7.7
	c0,0.4-0.1,0.8-0.4,1.2c0.3,1.3,3.8,3.6,4.2,4.6c0.7,1.6,1.3,1.8,1.6,1.8c1.3,0,3.4-1.5,3.4-2.7c0-0.4-0.3-0.8-0.7-1.2
	c-1.5-1.1-2.2-3.4-2.7-4.9c-0.5,0-1.2-0.4-1.5-1.1c-0.3-1.1-0.4-4.5-1.1-6.1c-1.1-0.3-1.5-0.5-1.5-2.6c0-1.1,0.5-4.9,0.5-6.1
	c-0.4,0-1.1-0.3-1.1-1.2c0-2.3,2.3-4.2,3.1-7.3c4.2,3.1,5.3,6.2,5.3,9.2c0,1.5-0.1,3-0.5,4.2c3.2-1.6,7.8-3.9,7.8-8.6
	c0-2.7-1.3-5.8-9.7-7c2.7-1.1,5.7-1.5,8.6-1.5c4.9,0,7.6,1.5,8.1,4.9c1.1-1.5,1.8-3.2,1.8-4.9c0-3.6-3.1-5.9-7-5.9
	c-4.5,0-8.6,2.3-12.9,5.3c1.9-4,3.4-6.3,5.7-6.3c0.4,0,0.7,0,1.2,0.1C65.8,68.9,62.4,65.8,60.7,65.8L60.7,65.8z M13.4,19.6
	c0,1.5-5.7,6.5-7.7,6.5c-0.7,0-1.1-0.8-1.1-1.8c0-1.5,0.7-3.6,1.5-4.2c1.1-0.8,3.2-1.3,5-1.3C12.1,18.7,13.4,18.9,13.4,19.6
	L13.4,19.6z M185.8,119.4c3.8,0,6.7,4.9,6.7,10.5c0,5.9-2.7,12.5-7.8,17c-0.1-10-12.3-6.9-12.3-14c0-3.1,2.2-5.3,5-5.3
	c2.3,0,4.2,0.7,5.5,2c-1.3-1.3-2-3-2-4.9C180.7,121.9,182.5,119.4,185.8,119.4z M130.7,43.4c-0.5-1.1-2.7-1.5-3.9-1.5
	c-3.2,0-5.5,2.3-5.9,4.3c-0.3-0.8-0.4-1.6-0.5-2.4c0-3.4,2.2-7.3,7.7-7.3c4.9,0,6.7,2.4,7.3,2.4c0.7,0,1.5-0.7,2-0.7
	c0.8,0,0.8,1.3,0.8,2.2c0,3-1.3,8.1-4.6,10c-0.7-1.6-2-3-3.8-3.6c-0.4-0.1-0.7-0.5-0.7-1.2C129.1,44.9,129.9,43.8,130.7,43.4z
	 M119.5,48.8c1.9,1.9,3.6,2.6,5.7,2.6c0.8,0,1.8-0.3,2.3-0.3c0.7,0,1.2,0.3,1.2,0.8c0,0.8-0.7,2.2-1.6,3c0.8,0.4,1.9,0.5,3,0.5
	c4.2,0,9-2.6,9-9.3c0.8,1.2,1.5,3.6,1.5,4.9c0,8.1-5.9,11.2-11.5,11.2c-3.6,0-5.4-1.2-5.8-1.2c-1.5,0-1.3,2.7-2.3,2.7
	c-1.8-0.3-3.2-4-3.2-8.1C117.6,53.1,118.1,50.7,119.5,48.8L119.5,48.8z M68,27.1c0,2.6,9.3,15.2,11.1,15.2c1.5,0,2.6-2.6,2.6-4.9
	c0-0.5-0.1-1.2-0.4-1.6c-1.3-1.9-10.8-9.3-12.8-9.3C68.1,26.7,67.8,27,68,27.1L68,27.1z M175.1,21c0-5.3-12.7-6.5-12.7-7.8
	c0-1.1,7.1-2.6,10.8-2.6c-5.5-7.1-13.5-6.3-13.5-7.7c0-0.7,5.9-2.2,11.5-2.2c4.6,0,8.9,1.1,8.9,4.5c0,1.9-1.6,3.9-1.6,7
	c0,1.6,0.8,3.1,3,3.1c2.3,0,2.7-2.4,2.7-5.1c0-2.2-0.4-3.8-0.4-4.9c0-3.1,2.2-5.3,5.3-5.3c2.4,0,3.1,1.2,6.9,1.2
	c-2,1.2-2.7,3.4-2.7,4.3c0,3.1,2,5.3,2,11.6c0,11.7-11.1,15.8-24.4,15.8c-3.9,0-7.7-0.3-11.5-0.8c-0.5-0.1-0.7-0.3-0.7-0.5
	c0-1.1,5.3-1.5,5.3-6.2c0-1.9-0.5-3.6-0.5-4.3c0-0.3,0.3-0.5,0.5-0.5l0,0l0,0c1.2,0,3.4,4.3,7.6,4.3C172.4,24.9,175.1,24.5,175.1,21
	L175.1,21z M187.6,13.6c0,6.7-4.9,11.6-13.5,13.1c1.1,0.1,1.9,0.1,2.7,0.1c10.1,0,13.9-4.6,13.9-8.4
	C190.8,16.2,189.5,14.3,187.6,13.6L187.6,13.6z M180.6,73.4c0-1.6-3.9-1.8-4.3-6.1c-0.1-0.7-0.3-1.9-1.2-1.9c-1.3,0-0.3,4-1.8,4
	c-3.5,0-4.5-6.7-5.8-6.7c-0.3,0-0.7,0.3-0.7,1.2c0,0.8,0.1,1.3,0.1,2.3c0,1.1-0.3,1.6-1.2,1.6c-2,0-3.8-4.6-5.5-4.6
	c-0.4,0-0.7,0.3-0.7,0.5c0,0.8,1.5,2.4,1.5,3.4c0,1.8-4.9,0.8-4.9,2.3c0,0.7,0.7,0.8,1.6,0.8c1.6,0,4-0.7,5.3-0.7
	c0.7,0,1.9,0.1,1.9,1.2c0,1.1-2.6,2.3-2.6,3.4c0,0.4,0.4,0.7,0.8,0.7c2,0,5.5-3.5,8.1-3.5c0.4,0,1.6,0.3,1.6,0.8
	c0,1.1-2.4,2.6-2.4,4c0,0.4,0.3,0.7,0.7,0.8c1.3,0,3.2-3.5,5.7-3.5c1.1,0,2.3,0.4,3.1,0.4C180.3,73.9,180.6,73.6,180.6,73.4
	L180.6,73.4z M127.3,16.7c0-0.8-3-2.3-3-3.4c0-0.1,0.1-0.3,0.4-0.3c0.8,0,2.2,0.3,3.4,0.3c1.1,0,1.2-4.2,1.9-4.2
	c0.5,0,1.5,3.9,2.2,3.9c1.1,0,2.7-1.2,3.5-1.2c0.1,0,0.3,0.1,0.3,0.3c0,0.5-1.9,2.4-1.9,3.1s4.2,1.5,4.2,2c0,0.7-4.2,0.7-4.2,1.3
	c0,0.5,1.6,2.6,1.6,3.4c0,0.1,0,0.1-0.1,0.3l0,0c-0.5,0-3-1.1-3.6-1.1c-0.8,0-2.2,3.1-2.7,3.1c-0.3,0-0.4-0.3-0.4-0.7l-0.1-3
	c0-0.3-0.1-0.5-0.4-0.5c0,0,0,0-0.1,0c-0.8,0-2.6-0.1-3.1-0.1c-0.4,0-0.5-0.1-0.5-0.3C124.5,19.3,127.3,17.1,127.3,16.7L127.3,16.7z
	 M141.9,30.7c-5.3,0-8.6-2.6-8.6-3.9c0-0.5,0.4-1.1,1.1-1.2c0,0,0,0,0.1,0c1.6,0,5.3,2.4,6.3,2.4c0.3,0,0.5-0.1,0.5-0.5
	c0-1.3-1.3-3.6-1.3-4.6c0-0.3,0.3-0.5,0.7-0.5c2,0,5,0.8,6.5,0.8c0.5,0,0.7-0.3,0.7-0.5c0-1.6-4.9-4.9-4.9-5.8
	c0-0.8,5.9-2.2,5.9-3.6s-8.1-0.4-8.1-1.9c0-1.1,1.6-2.7,1.6-3.6c0-0.4-0.3-0.5-0.8-0.5c-0.7,0-4.2,1.5-5.7,1.5
	c-0.7,0-1.6-0.1-1.6-1.2c0-1.8,3-3.6,7.4-3.6c7.4,0,11.7,5.1,11.7,13.5C153.3,28.1,145.9,30.7,141.9,30.7L141.9,30.7z M91.6,159.3
	c0,0.7-0.3,1.6-0.8,2.2c-0.8-1.5-3.1-2.2-4.2-2.2c-7.7,0-4.9,11.1-12.9,11.1c-3.5,0-3.8-0.4-5-0.4c-0.5,0-0.8,0.3-0.8,0.7
	c0,1.9,2.7,6.7,10.5,6.7c7.7,0,15-4.6,15-10.5c0-1.1-0.3-2-0.7-3.1c0.3-0.4,1.1-0.7,1.8-0.7c1.2,0,1.9,1.3,3,1.3c1.2,0,2-0.8,2-2
	c0,0,0,0,0-0.1c0-1.1-0.5-1.6-1.5-2c0.5-0.4,1.1-1.2,1.1-2c0-1.3-1.1-2.4-2.3-2.4c0,0,0,0-0.1,0c-0.5,0-1.2,0.3-1.6,0.7
	c-0.1-1.3-0.8-2.6-2.3-2.6c-1.2,0-1.9,0.8-1.9,2C90.8,157,91.6,157.9,91.6,159.3L91.6,159.3z M71.6,162c-2.2,0-5.5-2.3-5.5-3.8
	c0-1.2,1.1-1.8,1.9-1.8c1.9,0,5.3,2.3,5.3,4.2C73.1,161.4,72.8,162,71.6,162L71.6,162z M50.8,145.5c5.9,1.5,8.9,4.6,9.4,8.4
	c0.5,3.6,1.3,6.7,2.7,8.1c1.9,2,5.5,3.9,8.8,3.9c2.6,0,4.9-0.8,4.9-3.4s-3.6-8.8-9-8.8c-0.5,0-1.2,0.1-1.9,0.1s-1.6-0.1-2.2-0.7
	c-1.2-1.1-1.6-6.7-3.8-10c-2.4-3.8-5.1-4.9-8.8-4.9c-2.6,0-5.5,1.5-5.5,3.5C45.4,143.2,46,144.2,50.8,145.5L50.8,145.5z M88.2,136.3
	c0-3.4-7-3.5-7-8.4c0-1.3,0.8-3.5,2.4-5.7c0.7,3.9,2.2,5.8,5.5,7.1c6.7,2.4,7.6,6.1,7.6,10.1c0,6.7-4.6,15-16.7,15
	c-9.7,0-16.6-8.6-16.6-15.8c0-2,0.5-4.2,1.8-4.2c1.2,0,1.5,0.8,2.3,1.8c3.4,3.4,7,4.2,12.1,4.2C84.7,140.3,88.2,138.4,88.2,136.3
	L88.2,136.3z M88.5,141.7c-2.6,1.1-3.6,1.1-3.6,3.6c0,1.1-0.3,2.2-0.3,3s0.1,1.5,1.2,1.5c2.6,0,7-4.5,7-8.4c0-1.1-0.5-1.5-1.3-1.5
	C90.9,139.7,90.2,140.8,88.5,141.7L88.5,141.7z M64.7,104.2c0-4.9,11.3-7.3,11.3-13.2c0-1.3-0.4-2.7-1.1-3.9
	c3.9,2.2,6.9,5.8,6.9,8.8c0,5.1-5.4,7.6-5.4,10.8c0,3.8,5.7,4.3,5.7,8.9c0,3.8-5.4,8.1-5.4,13.1c0,3.8,2.6,7,6.9,7.4
	c-1.3,0.3-2.4,0.4-3.8,0.5c-7.6,0-15.2-6.1-15.2-13.5c0-3.5,1.5-6.9,3.9-9.2c2,1.8,4.2,3,5.5,3c1.2,0,1.8-0.5,1.8-1.5
	C75.8,112.6,64.7,110,64.7,104.2L64.7,104.2z"/>
</svg>
