<?xml version="1.0" encoding="utf-8"?>
<!-- Generator: Adobe Illustrator 21.0.0, SVG Export Plug-In . SVG Version: 6.00 Build 0)  -->
<svg version="1.1" id="Layer_1" xmlns="http://www.w3.org/2000/svg" xmlns:xlink="http://www.w3.org/1999/xlink" x="0px" y="0px"
	 viewBox="0 0 200 200" style="enable-background:new 0 0 200 200;" xml:space="preserve">
<style type="text/css">
	.st0{fill:#263D96;}
	.st1{fill-rule:evenodd;clip-rule:evenodd;fill:#FFFFFF;}
</style>
<title>UNH</title>
<rect class="st0" width="200" height="200"/>
<path class="st1" d="M93.6,136.3c-4.1,15.2-11.6,16.6-14.9,16.6c-5.8,0-11.1-3.9-11.1-29c0-25.4,0-59.7,0-59.7L96.1,49v57.8
	C96.1,115.9,95.6,129.4,93.6,136.3L93.6,136.3z"/>
<path class="st1" d="M108,42.6l6.4,1.4v61.4c0,15.2-0.6,28.5-4.4,38.1c-3.3,8.3-9.1,14.6-16.3,16.6l-7.7-1.1
	c11.1-1.4,17.7-13.8,19.1-19.9c2.5-8.3,3-18.8,3-30.4V42.6L96.1,49l6.1,1.4v52.8c0,13.8-0.3,25.7-2.5,33.7
	c-3,11.1-8.8,15.8-12.7,17.1l-8.3-1.1l0,0c-0.6,0-1.4,0-1.9,0c1.1,3,3.6,5.5,6.6,6.1c0.8,2.8,3.6,5,6.4,5.5c1.9,3.9,5.8,5.8,9.9,5.8
	c5.5,0.3,10.2-2.2,14.6-5c13.5-9.7,18-30.7,18-59.4V29.7L108,42.6L108,42.6z M126.5,105.4c0,20.7-1.9,35.1-6.6,44.5
	c-4.4,9.1-11.6,14.9-18.8,16l-8.8-1.1c11.6,0,19.1-11.3,21.8-17.4c4.1-8.8,6.1-21.3,6.1-39.2V36l6.4,1.7V105.4L126.5,105.4z"/>
</svg>
