<?xml version="1.0" encoding="utf-8"?>
<!-- Generator: Adobe Illustrator 21.0.0, SVG Export Plug-In . SVG Version: 6.00 Build 0)  -->
<svg version="1.1" id="Layer_1" xmlns="http://www.w3.org/2000/svg" xmlns:xlink="http://www.w3.org/1999/xlink" x="0px" y="0px"
	 viewBox="0 0 200 200" style="enable-background:new 0 0 200 200;" xml:space="preserve">
<style type="text/css">
	.st0{fill:#00529B;}
	.st1{fill:#EF3E42;}
	.st2{fill:#FFFFFF;}
	.st3{fill:none;stroke:#00529B;stroke-width:0.648;stroke-miterlimit:2.6131;}
</style>
<g>
	<path class="st0" d="M100,12.4c-17.2,0-33.5-4.5-47.6-12.2l-35,37.2c7.3,7.1,11.8,17.2,11.8,28.4c0,22.1-17.6,39.5-17.6,67.8
		c0,16.6,7.4,31.4,19.2,41.5c28,23.9,57.7,5.5,69.2,25c11.4-19.5,41-1.1,69.2-25c11.7-10,19.2-24.7,19.2-41.5
		c0-28.3-17.6-45.6-17.6-67.8c0-11.1,4.5-21.1,11.8-28.4L147.6,0C133.6,7.8,117.3,12.4,100,12.4L100,12.4z"/>
	<path class="st1" d="M25.9,166.6c-7.4-9.1-11.9-20.5-11.9-33.1c0-13.6,4.3-24.7,8.5-35.4c1.1-2.7,2.2-5.4,3.3-8.1L25.9,166.6
		L25.9,166.6L25.9,166.6z"/>
	<path class="st1" d="M39.3,178.3V90.2h13.5v94C48.4,183,43.9,181.1,39.3,178.3L39.3,178.3z"/>
	<path class="st1" d="M66.4,186.5V90.2h13.5v97.3c-2.6-0.3-5.2-0.4-8-0.5C70.1,186.8,68.2,186.7,66.4,186.5L66.4,186.5z"/>
	<path class="st1" d="M174.3,166.6c7.4-9.1,11.9-20.5,11.9-33.1c0-13.6-4.3-24.7-8.5-35.4c-1.1-2.7-2.2-5.4-3.3-8.1L174.3,166.6
		L174.3,166.6L174.3,166.6z"/>
	<path class="st1" d="M160.7,178.3V90.2h-13.5v94C151.8,183,156.1,181.1,160.7,178.3L160.7,178.3z"/>
	<path class="st1" d="M133.8,186.5V90.2h-13.5v97.3c2.6-0.3,5.2-0.4,8-0.5C129.9,186.8,131.8,186.7,133.8,186.5L133.8,186.5z"/>
	<path class="st1" d="M100,196c-1.9-2.3-4.1-4.1-6.6-5.4V90.2h13.5v100.5C104.1,191.9,101.9,193.7,100,196L100,196z"/>
	<path class="st2" d="M39.3,178.3c-2.2-1.5-4.7-3-7-4.9c-2.3-2.1-4.7-4.3-6.6-6.7l0,0V90.2h13.5v88.1H39.3z"/>
	<path class="st2" d="M66.4,186.4c-4.4-0.4-8.9-1-13.5-2.3V90.2h13.5V186.4L66.4,186.4z"/>
	<path class="st2" d="M79.8,187.5V90.2h13.5v100.5c-1.4-0.7-2.9-1.2-4.4-1.6c-2.6-0.8-5.4-1.1-8.2-1.5H79.8L79.8,187.5z"/>
	<path class="st2" d="M160.7,178.3c2.2-1.5,4.7-3,7-4.9c2.3-2.1,4.7-4.3,6.6-6.7l0,0V90.2h-13.5v88.1H160.7z"/>
	<path class="st2" d="M133.8,186.4c4.4-0.4,8.9-1,13.5-2.3V90.2h-13.5L133.8,186.4L133.8,186.4z"/>
	<path class="st2" d="M120.3,187.5V90.2h-13.5v100.5c1.4-0.7,2.9-1.2,4.4-1.6c2.6-0.8,5.4-1.1,8.2-1.5H120.3L120.3,187.5z"/>
	<polygon class="st2" points="136.1,55.5 129.9,55.5 129.9,76.3 136.1,76.3 	"/>
	<polygon class="st2" points="126.1,60.1 126.1,55.5 111.9,55.5 111.9,76.3 118,76.3 118,69 126.1,69 126.1,64.1 118,64.1 118,60.1 
			"/>
	<polygon class="st2" points="107.5,55.5 101.5,55.5 101.5,76.3 107.5,76.3 	"/>
	<path class="st2" d="M54.6,55.5c4,0,7,3.2,7,7c0,4-3.2,7-7,7h-4.1v6.7h-5.8V55.5H54.6L54.6,55.5z"/>
	<polygon class="st2" points="66.8,72.8 65.5,76.3 59.6,76.3 67.2,55.5 74.1,55.5 81.6,76.3 75.8,76.3 74.6,72.8 	"/>
	<path class="st2" d="M87,66.2c-0.1-3.2,2.2-5.4,5.1-5.4c1.5,0,3.3,0.7,5.2,1.2v-5.8c-1-0.5-3.4-1.4-4.9-1.4c-5.9,0-11,4.4-11,11
		c0,6.6,5.2,11.1,11,11.1c1.5,0,4.1-0.7,4.9-1.4v-5.8c-1.9,0.4-3.8,1.2-5.2,1.2C89.2,71.4,86.8,69.2,87,66.2L87,66.2L87,66.2z"/>
	<path class="st2" d="M145,66.2c-0.1-3.2,2.2-5.4,5.1-5.4c1.5,0,3.3,0.7,5.2,1.2v-5.8c-1-0.5-3.4-1.4-4.9-1.4c-5.9,0-11,4.4-11,11
		c0,6.6,5.2,11.1,11,11.1c1.5,0,4.1-0.7,4.9-1.4v-5.8c-1.9,0.4-3.8,1.2-5.2,1.2C147.2,71.4,144.9,69.2,145,66.2L145,66.2L145,66.2z"
		/>
	<polygon class="st0" points="72.8,67.9 70.6,61.4 70.6,61.4 68.4,67.9 	"/>
	<path class="st0" d="M50.4,60.1H54c1.2,0,2.2,1,2.2,2.2c0,1.1-1,2.5-2.2,2.5h-3.6V60.1L50.4,60.1z"/>
	<polygon class="st2" points="102.9,26.5 96.6,26.5 96.6,47.2 102.9,47.2 	"/>
	<path class="st2" d="M106.3,36.8c0-6,4.9-11,11-11s11,4.8,11,11s-4.9,11-11,11S106.3,42.8,106.3,36.8L106.3,36.8z"/>
	<polygon class="st2" points="132.3,47.2 138,47.2 138,36.7 138.2,36.7 145.2,47.2 151.9,47.2 151.9,26.5 145.4,26.5 145.4,37.3 
		145.4,37.3 138.4,26.5 132.3,26.5 	"/>
	<polygon class="st2" points="71.7,47.2 77.6,47.2 77.6,36.7 77.8,36.7 84.8,47.2 91.5,47.2 91.5,26.5 85.2,26.5 85.2,37.3 85,37.3 
		77.9,26.5 71.7,26.5 	"/>
	<path class="st0" d="M112.2,36.8c0-2.9,2.3-5.2,5.2-5.2c2.9,0,5.2,2.3,5.2,5.2s-2.3,5.2-5.2,5.2S112.2,39.7,112.2,36.8L112.2,36.8z
		"/>
	<path class="st2" d="M60.3,26.5h6V38c0,2.7-0.1,5.4-2.2,7.1c-1.8,1.6-4.5,2.2-7,2.2c-2.5,0-5.2-0.5-7-2.2C48.1,43.1,48,40.5,48,38
		V26.5h6v10.2c0,2.7-0.3,5.6,3.2,5.6s3.2-2.9,3.2-5.6L60.3,26.5L60.3,26.5z"/>
	<path class="st3" d="M66.4,186.4c-4.4-0.4-8.9-1-13.5-2.3c-4.5-1.2-9.1-3-13.5-5.9c-2.2-1.5-4.7-3-7-4.9c-2.3-2.1-4.7-4.3-6.6-6.7
		 M25.9,166.6L25.9,166.6L25.9,166.6 M25.9,166.6c-7.4-9.1-11.9-20.5-11.9-33.1c0-13.6,4.3-24.7,8.5-35.4c1.1-2.7,2.2-5.4,3.3-8.1
		 M25.9,90.2h148.4 M174.3,90.2c1,2.7,2.2,5.4,3.3,8.1c4.4,10.6,8.5,21.6,8.5,35.4c0,12.5-4.5,24.2-11.9,33.1 M174.3,166.6
		L174.3,166.6L174.3,166.6 M174.3,166.6c-2.1,2.3-4.1,4.7-6.6,6.7c-2.2,1.9-4.7,3.6-7,4.9c-4.5,2.9-9.1,4.7-13.5,5.9
		c-4.7,1.2-9.1,1.9-13.5,2.3c-1.8,0.3-3.7,0.3-5.5,0.4c-2.7,0.3-5.4,0.3-8,0.5 M120.3,187.5l-1,0.1 M119.2,187.5
		c-2.9,0.3-5.6,0.8-8.2,1.5c-1.5,0.4-2.9,1-4.4,1.6c-2.5,1.2-4.7,2.9-6.6,5.4c-1.9-2.3-4.1-4.1-6.6-5.4c-1.4-0.7-2.9-1.2-4.4-1.6
		c-2.6-0.8-5.4-1.1-8.2-1.5 M80.8,187.5l-1-0.1 M79.8,187.5c-2.6-0.3-5.2-0.4-8-0.5c-1.8-0.1-3.7-0.3-5.5-0.4"/>
</g>
</svg>
