<?xml version="1.0" encoding="utf-8"?>
<!-- Generator: Adobe Illustrator 21.0.0, SVG Export Plug-In . SVG Version: 6.00 Build 0)  -->
<svg version="1.1" id="Layer_1" xmlns="http://www.w3.org/2000/svg" xmlns:xlink="http://www.w3.org/1999/xlink" x="0px" y="0px"
	 viewBox="0 0 200 200" style="enable-background:new 0 0 200 200;" xml:space="preserve">
<style type="text/css">
	.st0{fill:#301506;}
	.st1{fill:#FAB80A;}
</style>
<g transform="matrix(1.25 0 0 -1.25 -47.372 728.76)">
	<g transform="translate(.36060 .36060)">
		<path class="st0" d="M53.6,535l0.5-66.1L69,450.6l44.4-23.6l54.7,26.7l11.4,27.1l-1.2,87.7l-41.3,1.2L94,562.7l-39.3-22.6
			L53.6,535z"/>
		<path class="st1" d="M117.4,582.7c-26,0-48.5-5-67.2-14.9v-79.1c0-16.7,6.2-30.6,18.2-40.4c11-9.1,45-23.8,49.2-25.6
			c3.9,1.8,38.3,16.8,49.2,25.6c11.8,9.6,18.2,23.6,18.2,40.4v79.1C166,577.6,143.4,582.7,117.4,582.7L117.4,582.7z M155.9,567.3
			c7.7-0.1,15.3-0.5,22.6-1.2v-77.5c0-14.9-5.4-27-15.9-35.5c-9.3-7.7-37.4-20.2-45.3-23.7c-8,3.7-36,16.3-45.3,23.8
			c-10.3,8.4-15.9,20.7-15.9,35.5V534C86.1,561.2,122.3,567.7,155.9,567.3L155.9,567.3z M119.2,531.2c-6.4,0-11.5-1.4-15.7-4.2
			v-76.1h11.7v24.5c1.2-0.3,2.8-0.7,5.1-0.7c13,0,20.5,11.7,20.5,28.9C140.8,520.7,133.1,531.2,119.2,531.2L119.2,531.2z
			 M159.3,531.2c-7.7-0.3-15.7-5.7-15.6-15.2c0-6.2,1.8-10.8,11.4-16.5c5.1-3,7.2-5,7.3-8.7c0.1-4.1-2.7-6.5-7-6.5
			c-3.7,0-8.1,2.2-11.1,4.7v-10.7c3.7-2.2,8.1-3.7,12.9-3.7c11.7,0,16.7,8.1,16.9,15.6c0.3,6.8-1.8,12.1-11.4,17.7
			c-4.3,2.6-7.7,4.2-7.7,8.5c0.1,4.2,3.5,5.7,6.9,5.7c4.1,0,8.1-2.3,10.6-4.7v10.2C170,529,165.6,531.4,159.3,531.2L159.3,531.2z
			 M62.3,530.1v-36.9c0-12.5,5.8-18.6,17.5-18.6c7.2,0,13.1,1.8,17.6,4.7v50.8H85.7v-44c-1.2-0.8-3.3-1.5-5.6-1.5
			c-5.3,0-6.2,4.9-6.2,8.1v37.3H62.3L62.3,530.1z M119.2,521.8c6.8,0,9.6-5.4,9.6-18.6c0-12.7-3.3-19-10-19c-1.6,0-3,0.4-3.8,0.7v36
			C116,521.4,117.7,521.8,119.2,521.8L119.2,521.8z"/>
	</g>
</g>
</svg>
