<?xml version="1.0" encoding="utf-8"?>
<!-- Generator: Adobe Illustrator 21.0.0, SVG Export Plug-In . SVG Version: 6.00 Build 0)  -->
<svg version="1.1" id="Layer_1" xmlns="http://www.w3.org/2000/svg" xmlns:xlink="http://www.w3.org/1999/xlink" x="0px" y="0px"
	 viewBox="0 0 200 200" style="enable-background:new 0 0 200 200;" xml:space="preserve">
<style type="text/css">
	.st0{fill:#D62A43;}
	.st1{fill:#FFFFFF;}
</style>
<polyline class="st0" points="0,0 0,155.3 100,200 200,155.3 200,0 0,0 "/>
<path class="st1" d="M99.1,128.2H68.7v-10.5h-0.3c-5.9,8.3-14.3,12.6-26.9,12.6c-14.8,0-28.3-9.1-28.3-28V45.7h31.4v43.2
	c0,9.5,1.1,16.2,10.3,16.2c5.4,0,12.6-2.7,12.6-15.9V45.8H99L99.1,128.2"/>
<path class="st1" d="M157.7,70.8c-0.1-2.7-1.6-4.8-3.6-6.2c-1.9-1.6-4.5-2.4-7-2.4c-4.5,0-9.5,1-9.5,6.3c0,2.4,1.9,3.5,3.6,4.3
	c5.2,2.2,17.1,2.9,27.6,6.3s19.7,9.5,19.7,23.1c0,22.9-21.9,29.1-41.9,29.1c-19.4,0-40.6-7.8-41.1-29.1h30c0.1,2.9,1.4,5.2,3.8,7.3
	c1.6,1.4,4.6,2.4,8.4,2.4c4.1,0,10.6-1.6,10.6-6.3c0-4.8-2.7-6.2-17.3-8.7c-24-4.1-33.7-11.8-33.7-25.9c0-20.8,22.4-26.2,38.9-26.2
	c17.8,0,39.2,5,40,26.1L157.7,70.8"/>
</svg>
