<?xml version="1.0" encoding="utf-8"?>
<!-- Generator: Adobe Illustrator 21.0.0, SVG Export Plug-In . SVG Version: 6.00 Build 0)  -->
<svg version="1.1" id="Layer_1" xmlns="http://www.w3.org/2000/svg" xmlns:xlink="http://www.w3.org/1999/xlink" x="0px" y="0px"
	 viewBox="0 0 200 200" style="enable-background:new 0 0 200 200;" xml:space="preserve">
<style type="text/css">
	.st0{fill:#0033AB;}
</style>
<title>UTX</title>
<g id="g11">
	<path id="path65" class="st0" d="M138.2,93.8l60-13.1c-0.4-2.2-0.9-4.3-1.5-6.4l-60.1,13.3C137.3,89.6,137.8,91.7,138.2,93.8"/>
	<path id="path67" class="st0" d="M135.8,85.2l53.4-30.4c-1-2-2-3.9-3.1-5.8l-53.3,30.3C133.9,81.2,134.9,83.2,135.8,85.2"/>
	<path id="path69" class="st0" d="M123.8,69.4l31.2-53c-2.5-1.6-5-3.1-7.6-4.5l-31.2,53C118.8,66.1,121.4,67.6,123.8,69.4"/>
	<path id="path71" class="st0" d="M131,76.9l43.3-43.8c-1.8-2-3.6-3.9-5.6-5.8l-43.2,43.7C127.6,72.8,129.4,74.8,131,76.9"/>
	<path id="path73" class="st0" d="M115,64.3l15.8-59.4c-3-1-6-1.8-9-2.4L106,61.9C109.1,62.3,112.1,63.1,115,64.3"/>
	<path id="path75" class="st0" d="M138.7,100.1c0,21.4-17.4,38.8-38.8,38.8S61.1,121.5,61.1,100c0-21.4,17.4-38.8,38.8-38.8
		c1.5,0,2.9,0.1,4.4,0.3l-0.1-0.3V0.1c-1.5,0-2.9-0.1-4.3-0.1c-1.8,0-3.5,0-5.3,0.1v61l-15.9-59c-3.5,0.7-7,1.7-10.4,2.9l14.9,55.3
		L54.6,10.8c-3.6,1.8-7.1,3.8-10.4,6.1L71,63.2L32.8,25.8c-3.1,2.8-6,5.8-8.8,9l37,35.5L16.3,45c-2.4,3.6-4.5,7.4-6.4,11.3
		l41.8,24.4L5.1,68.1c-1.4,4.2-2.5,8.5-3.4,12.9l43.9,11.5L0.3,92.8C0.1,95.2,0,97.6,0,99.9s0.1,4.8,0.3,7.1h44.1L1.8,118.6
		c0.9,4.8,2.2,9.6,3.9,14.3l38.9-9.6l-34.9,20c2.2,4.6,4.7,9,7.6,13.1l32.5-18.1l-26.5,26.1c3.6,4.3,7.5,8.2,11.8,11.9L59.7,153
		l-17,29c4.6,3.2,9.5,6,14.5,8.5l16.3-26.1l-7.6,29.8c5.5,2,11.2,3.5,17,4.5l7.6-26.3l0.5,27.3c3,0.3,6,0.4,9,0.4
		c3.3,0,6.6-0.1,9.9-0.5v-25.8l8.1,24.6c6.4-1.2,12.6-3,18.6-5.4l-6-23.5l13.4,20.3c6.3-3.1,12.3-6.9,17.8-11.3l-11.8-19l17.3,14.4
		c5.5-4.9,10.4-10.5,14.6-16.6L166.7,143l18.9,8.8c4.2-6.9,7.5-14.3,9.9-22l-16.1-8l17.8,1.8c1.9-7.7,2.8-15.6,2.9-23.5h-61.3"/>
</g>
</svg>
