<?xml version="1.0" encoding="UTF-8"?>
<svg width="34px" height="20px" viewBox="0 0 34 20" version="1.1" xmlns="http://www.w3.org/2000/svg" xmlns:xlink="http://www.w3.org/1999/xlink">
    <!-- Generator: Sketch 49 (51002) - http://www.bohemiancoding.com/sketch -->
    <title>UYU</title>
    <desc>Created with Sketch.</desc>
    <defs></defs>
    <g id="Page-1" stroke="none" stroke-width="1" fill="none" fill-rule="evenodd">
        <g id="UYU">
            <rect id="Rectangle-path" fill="#FFFFFF" fill-rule="nonzero" x="0" y="0" width="33.56" height="19.58"></rect>
            <path d="M0,17.4 L33.56,17.4 L33.56,15.23 L0,15.23 L0,17.4 Z M0,13.05 L33.56,13.05 L33.56,10.87 L0,10.87 L0,13.05 Z M10.88,8.7 L33.56,8.7 L33.56,6.53 L10.88,6.53 L10.88,8.7 Z M10.88,4.35 L33.56,4.35 L33.56,2.17 L10.88,2.17 L10.88,4.35 Z" id="Shape" fill="#3E73B7" fill-rule="nonzero"></path>
            <g id="Group" transform="translate(1.000000, 1.000000)">
                <path d="M4.46,4.45 L4.56,6.06 C3.08,7.13 3.99,7.76 2.92,8.06 C3.65,7.34 2.7,7.34 3.52,5.69" id="Shape" fill="#EAC126"></path>
                <path d="M4.49,4.45 L4.58,6.06 L4.52,6.06 L4.39,4.45 L4.49,4.45 Z M4.58,6.06 C4.08071434,6.3453427 3.71952562,6.82211182 3.58,7.38 L3.48,7.38 C3.62710999,6.79892185 4.00195425,6.30153236 4.52,6 L4.58,6.06 Z M3.58,7.38 C3.54252292,7.73913826 3.27453029,8.03149385 2.92,8.1 L2.92,8.04 C3.2450152,7.97879722 3.48995795,7.70936019 3.52,7.38 L3.58,7.38 Z M2.92,8.1 L2.76,8.16 L2.86,8.07 L2.92,8.1 Z M2.86,8.1 C3.18,7.75 3.18,7.56 3.11,7.31 L3.21,7.31 C3.28299638,7.61447685 3.17397392,7.93375691 2.93,8.13 L2.86,8.1 Z M3.11,7.31 C3.03767226,6.75858096 3.1615662,6.19928832 3.46,5.73 L3.52,5.73 C3.22720349,6.18636025 3.11324771,6.73477247 3.2,7.27 L3.11,7.31 Z" id="Shape" fill="#292C2F" fill-rule="nonzero"></path>
                <path d="M4,5.68 C3.71204923,6.1603105 3.54079449,6.70147548 3.5,7.26 L3.41,7.26 C3.4855373,6.70322777 3.66896288,6.16653812 3.95,5.68 L4,5.68 Z M3.5,7.26 C3.44,7.67 3.37,7.98 3,8.14 L3,8.08 C3.35,7.92 3.38,7.64 3.44,7.23 L3.5,7.26 Z" id="Shape" fill="#292C2F" fill-rule="nonzero"></path>
                <path d="M4.46,4.45 L4.33,2.81 C5.81,1.74 4.9,1.11 5.97,0.81 C5.27,1.57 6.19,1.57 5.37,3.17" id="Shape" fill="#EAC126"></path>
                <path d="M4.39,4.45 L4.3,2.85 L4.36,2.85 L4.49,4.49 L4.39,4.45 Z M4.3,2.85 C4.81533936,2.56860665 5.18099365,2.07497336 5.3,1.5 L5.4,1.5 C5.26179639,2.06874931 4.90167754,2.55851094 4.4,2.86 L4.3,2.85 Z M5.3,1.5 C5.34527526,1.14239715 5.60875496,0.850972634 5.96,0.77 L6,0.8 C5.66670802,0.867391423 5.42045796,1.15057899 5.4,1.49 L5.3,1.5 Z M5.96,0.77 L6.12,0.77 L6,0.8 L5.96,0.77 Z M6,0.8 C5.68,1.15 5.68,1.3 5.75,1.56 L5.65,1.56 C5.57695061,1.24659541 5.68498602,0.918630768 5.93,0.71 L6,0.8 Z M5.75,1.56 C5.81709347,2.11754186 5.69375106,2.68139288 5.4,3.16 L5.34,3.16 C5.63103755,2.7029233 5.74485352,2.15518394 5.66,1.62 L5.75,1.56 Z" id="Shape" fill="#292C2F" fill-rule="nonzero"></path>
                <path d="M4.93,3.19 C5.20665267,2.71584275 5.38995315,2.19309695 5.47,1.65 L5.53,1.65 C5.46013839,2.2035187 5.27991407,2.73739073 5,3.22 L4.93,3.19 Z M5.47,1.65 C5.53,1.21 5.56,0.93 5.94,0.74 L6,0.8 C5.65,0.96 5.62,1.24 5.56,1.65 L5.47,1.65 Z" id="Shape" fill="#292C2F" fill-rule="nonzero"></path>
                <path d="M4.46,4.45 L2.82,4.54 C1.75,3.06 1.12,3.97 0.82,2.9 C1.58,3.63 1.54,2.71 3.18,3.5" id="Shape" fill="#EAC126"></path>
                <path d="M4.46,4.48 L2.82,4.61 L2.82,4.52 L4.43,4.42 L4.46,4.48 Z M2.82,4.61 C2.54515026,4.10160503 2.06381679,3.73695846 1.5,3.61 L1.5,3.54 C2.08981527,3.64810358 2.60000486,4.01514645 2.89,4.54 L2.82,4.61 Z M1.5,3.61 C1.14110247,3.56755932 0.848282468,3.30281795 0.77,2.95 L0.83,2.95 C0.902066486,3.27430864 1.16269185,3.52308739 1.49,3.58 L1.5,3.61 Z M0.77,2.95 L0.71,2.82 L0.83,2.91 L0.77,2.95 Z M0.83,2.95 C1.01402226,3.17277905 1.30965957,3.27002817 1.59,3.2 L1.59,3.26 C1.27649249,3.33545191 0.947285649,3.22700731 0.74,2.98 L0.83,2.95 Z M1.59,3.2 C2.14785277,3.09496175 2.7247153,3.20961765 3.2,3.52 L3.14,3.58 C2.68583837,3.30982845 2.15387156,3.20061672 1.63,3.27 L1.59,3.2 Z" id="Shape" fill="#292C2F" fill-rule="nonzero"></path>
                <path d="M3.2,4 C2.7302782,3.70622455 2.20057936,3.52168431 1.65,3.46 L1.65,3.36 C2.21212198,3.43171831 2.75155854,3.62632517 3.23,3.93 L3.2,4 Z M1.65,3.45 C1.21,3.39 0.93,3.32 0.74,2.95 L0.8,2.95 C0.96,3.3 1.24,3.36 1.65,3.39 L1.65,3.45 Z" id="Shape" fill="#292C2F" fill-rule="nonzero"></path>
                <path d="M4.46,4.45 L6.07,4.32 C7.14,5.8 7.77,4.92 8.07,5.96 C7.31,5.26 7.34,6.18 5.71,5.36" id="Shape" fill="#EAC126"></path>
                <path d="M4.42,4.42 L6.06,4.3 L6.06,4.36 L4.45,4.49 L4.42,4.42 Z M6.06,4.3 C6.34168957,4.80248174 6.82002402,5.16485632 7.38,5.3 L7.38,5.36 C6.80138726,5.2321085 6.30170703,4.87002138 6,4.36 L6.06,4.3 Z M7.38,5.29999329 C7.77935779,5.29834664 8.11369786,5.60229215 8.15,6 L8.08,6 C8.01575435,5.6766951 7.74794678,5.43323367 7.42,5.4 L7.38,5.29999329 Z M8.15,6 L8.21,6.13 L8.08,6 L8.15,6 Z M8.08,6 C7.89895408,5.77290239 7.60050905,5.67472968 7.32,5.75 L7.32,5.69 C7.62770152,5.5856516 7.96778989,5.68567759 8.17,5.94 L8.08,6 Z M7.32,5.75 C6.77182785,5.82078375 6.21620047,5.69691777 5.75,5.4 L5.75,5.34 C6.1959918,5.63183054 6.73109931,5.75586208 7.26,5.69 L7.32,5.75 Z" id="Shape" fill="#292C2F" fill-rule="nonzero"></path>
                <path d="M5.69,4.93 C6.17510436,5.21417914 6.71243853,5.397825 7.27,5.47 L7.27,5.53 C6.69711431,5.47692472 6.14347692,5.29579643 5.65,5 L5.69,4.93 Z M7.27,5.47 C7.68,5.53 7.96,5.56 8.15,5.97 L8.08,6 C7.92,5.62 7.64,5.59 7.23,5.53 L7.27,5.47 Z" id="Shape" fill="#292C2F" fill-rule="nonzero"></path>
                <path d="M4.46,4.45 L3.38,5.68 C1.55,5.36 1.74,6.47 0.76,5.96 C1.76,5.96 1.14,5.3 2.84,4.7" id="Shape" fill="#EAC126"></path>
                <path d="M4.46,4.45 L3.46,5.68 L3.4,5.68 L4.42,4.42 L4.46,4.45 Z M3.46,5.68 C2.87103086,5.52019208 2.24132676,5.63803145 1.75,6 L1.68,5.9 C2.18091083,5.56917642 2.79774058,5.46395252 3.38,5.61 L3.46,5.68 Z M1.75,6 C1.44905035,6.20779376 1.05094965,6.20779376 0.75,6 L0.75,5.94 C1.02190468,6.13527782 1.38809532,6.13527782 1.66,5.94 L1.75,6 Z M0.75,6 L0.62,5.94 L0.78,5.94 L0.78,6 L0.75,6 Z M0.75,5.94 C1.04437329,5.9685976 1.32750301,5.81916803 1.47,5.56 L1.53,5.62 C1.37394706,5.8856465 1.07614896,6.03454555 0.77,6 L0.75,5.94 Z M1.47,5.56 C1.80821995,5.11853595 2.28871095,4.80763 2.83,4.68 L2.83,4.74 C2.29390839,4.85433907 1.82173284,5.16912277 1.51,5.62 L1.47,5.56 Z" id="Shape" fill="#292C2F" fill-rule="nonzero"></path>
                <path d="M3.23,5 C2.69209112,5.13481435 2.18809066,5.38000376 1.75,5.72 L1.75,5.66 C2.17835526,5.32011368 2.67185029,5.07166446 3.2,4.93 L3.23,5 Z M1.75,5.72 C1.4,5.97 1.18,6.16 0.75,6.01 L0.75,5.93 C1.13,6.06 1.35,5.93 1.7,5.65 L1.75,5.72 Z" id="Shape" fill="#292C2F" fill-rule="nonzero"></path>
                <path d="M4.46,4.45 L5.46,3.22 C7.29,3.5 7.1,2.4 8.08,2.9 C7.08,2.9 7.7,3.59 6,4.16" id="Shape" fill="#EAC126"></path>
                <path d="M4.42,4.42 L5.42,3.19 L5.48,3.25 L4.46,4.45 L4.42,4.42 Z M5.42,3.19 C5.97815085,3.32828579 6.56840313,3.23830831 7.06,2.94 L7.2,3 C6.69105168,3.31144077 6.07706216,3.40173335 5.5,3.25 L5.42,3.19 Z M7.06,2.94 C7.34831297,2.71370337 7.74669725,2.68980031 8.06,2.88 L8.06,2.94 C7.78795334,2.78261084 7.44755622,2.80635947 7.2,3 L7.06,2.94 Z M8.06,2.88 L8.19,2.94 L8.11,3 L8.11,2.91 L8.06,2.88 Z M8.06,2.97 C7.7687644,2.93141856 7.48228559,3.06877141 7.33,3.32 L7.27,3.32 C7.4397146,3.05041969 7.74186824,2.89360578 8.06,2.91 L8.06,2.97 Z M7.33,3.32 C6.99993431,3.75635908 6.53068048,4.06684282 6,4.2 L6,4.14 C6.53066681,4.03134672 7.00151039,3.72815199 7.32,3.29 L7.33,3.32 Z" id="Shape" fill="#292C2F" fill-rule="nonzero"></path>
                <path d="M5.65,3.89 C6.19837004,3.77936036 6.70845501,3.5277644 7.13,3.16 L7.13,3.22 C6.71713792,3.58837276 6.22409325,3.85543862 5.69,4 L5.65,3.89 Z M7.13,3.16 C7.48,2.91 7.73,2.75 8.13,2.88 L8.13,2.94 C7.75,2.81 7.53,3 7.19,3.22 L7.13,3.16 Z" id="Shape" fill="#292C2F" fill-rule="nonzero"></path>
                <path d="M4.46,4.45 L3.23,3.38 C3.51,1.55 2.41,1.74 2.91,0.76 C2.91,1.76 3.6,1.14 4.17,2.84" id="Shape" fill="#EAC126"></path>
                <path d="M4.42,4.48 L3.2,3.41 L3.26,3.35 L4.46,4.42 L4.42,4.48 Z M3.2,3.41 C3.32260957,2.85123606 3.23352678,2.26685291 2.95,1.77 L3.01,1.77 C3.30902044,2.27237443 3.39879732,2.87208399 3.26,3.44 L3.2,3.41 Z M2.94,1.74 C2.68029615,1.46525645 2.65501028,1.04382517 2.88,0.74 L2.94,0.74 C2.73522787,1.0388446 2.75995932,1.4386696 3,1.71 L2.94,1.74 Z M2.88,0.74 L2.94,0.61 L2.94,0.74 L2.88,0.74 Z M2.94,0.74 C2.9140491,1.0338462 3.06276059,1.31561534 3.32,1.46 L3.32,1.52 C3.04358667,1.35666222 2.88445813,1.0500487 2.91,0.73 L2.94,0.74 Z M3.32,1.46 C3.76858186,1.80459569 4.08040064,2.29712762 4.2,2.85 L4.14,2.85 C4.00913406,2.32867237 3.71045886,1.86484735 3.29,1.53 L3.32,1.46 Z" id="Shape" fill="#292C2F" fill-rule="nonzero"></path>
                <path d="M3.89,3.22 C3.77805474,2.6720761 3.52661576,2.16230939 3.16,1.74 L3.22,1.74 C3.59548619,2.16325537 3.86308674,2.67101025 4,3.22 L3.89,3.22 Z M3.16,1.74 C2.91,1.39 2.75,1.17 2.88,0.74 L2.94,0.74 C2.81,1.12 2.94,1.34 3.22,1.69 L3.16,1.74 Z" id="Shape" fill="#292C2F" fill-rule="nonzero"></path>
                <path d="M4.46,4.45 L5.66,5.45 C5.38,7.28 6.48,7.09 5.98,8.07 C5.98,7.07 5.28,7.72 4.72,5.99" id="Shape" fill="#EAC126"></path>
                <path d="M4.46,4.42 L5.69,5.42 L5.69,5.48 L4.46,4.48 L4.46,4.42 Z M5.69,5.48 C5.57025433,6.03885314 5.65918047,6.62220863 5.94,7.12 L5.88,7.12 C5.58409948,6.60554067 5.49473555,5.99786594 5.63,5.42 L5.69,5.48 Z M5.94,7.12 C6.19970385,7.39474355 6.22498972,7.81617483 6,8.12 L5.94,8.12 C6.11788359,7.8353538 6.09371695,7.46882638 5.88,7.21 L5.94,7.12 Z M6,8.12 L5.94,8.25 L5.94,8.11 L6,8.11 L6,8.12 Z M5.94,8.12 C5.9562708,7.82818514 5.81010014,7.5512302 5.56,7.4 C5.83170647,7.53157674 6.00308974,7.80812701 6,8.11 L5.94,8.12 Z M5.56,7.4 C5.31,7.23 5,7 4.68,6 L4.74,6 C4.88233112,6.51627918 5.1788811,6.97680386 5.59,7.32 L5.56,7.4 Z" id="Shape" fill="#292C2F" fill-rule="nonzero"></path>
                <path d="M5,5.65 C5.12249644,6.19231217 5.36893618,6.69888277 5.72,7.13 L5.66,7.19 C5.30247882,6.75162685 5.0555453,6.23375238 4.94,5.68 L5,5.65 Z M5.72,7.13 C5.99266033,7.38494691 6.10062452,7.77053333 6,8.13 L5.94,8.13 C6.07,7.75 5.94,7.53 5.66,7.22 L5.72,7.13 Z" id="Shape" fill="#292C2F" fill-rule="nonzero"></path>
                <polyline id="Shape" fill="#EAC126" points="4.46 4.45 5.15 4.45 4.46 8.43 3.73 4.45 4.46 4.45 4.46 8.43"></polyline>
                <path d="M4.46,4.42 L5.15,4.42 L5.15,4.48 L4.46,4.48 L4.46,4.42 Z M5.15,4.42 L5.21,4.42 L5.15,4.42 Z M5.21,4.42 L4.49,8.42 L4.39,8.42 L5.11,4.42 L5.21,4.42 Z M4.49,8.42 L4.49,8.61 L4.43,8.42 L4.53,8.42 L4.49,8.42 Z M4.39,8.42 L3.67,4.42 L3.76,4.42 L4.49,8.42 L4.39,8.42 Z M3.67,4.42 L3.73,4.42 L3.67,4.42 Z M3.73,4.42 L4.46,4.42 L4.46,4.48 L3.73,4.48 L3.73,4.42 Z M4.46,8.42 L4.36,8.42 L4.36,4.42 L4.46,4.42 L4.46,8.42 Z" id="Shape" fill="#292C2F" fill-rule="nonzero"></path>
                <polyline id="Shape" fill="#EAC126" points="4.46 4.45 3.73 4.45 4.46 0.45 5.15 4.45 4.46 4.45 4.46 0.45"></polyline>
                <path d="M4.46,4.48 L3.73,4.48 L3.73,4.42 L4.46,4.42 L4.46,4.48 Z M3.73,4.48 L3.67,4.48 L3.73,4.48 Z M3.67,4.48 L4.39,0.48 L4.49,0.48 L3.76,4.48 L3.67,4.48 Z M4.39,0.48 L4.45,0.29 L4.45,0.48 L4.35,0.48 L4.39,0.48 Z M4.49,0.48 L5.21,4.48 L5.12,4.48 L4.4,0.48 L4.49,0.48 Z M5.21,4.48 L5.15,4.48 L5.21,4.48 Z M5.15,4.48 L4.46,4.48 L4.46,4.42 L5.15,4.42 L5.15,4.48 Z M4.46,4.48 L4.39,4.48 L4.45,4.48 L4.46,4.48 Z M4.4,0.48 L4.5,0.48 L4.5,4.48 L4.4,4.48 L4.4,0.48 Z" id="Shape" fill="#292C2F" fill-rule="nonzero"></path>
                <polyline id="Shape" fill="#EAC126" points="4.46 4.45 4.46 5.18 0.45 4.45 4.46 3.73 4.46 4.45 0.45 4.45"></polyline>
                <path d="M4.49,5.18 L4.39,5.18 L4.39,4.45 L4.49,4.45 L4.49,5.18 Z M4.49,5.18 L4.42,5.18 L4.49,5.18 Z M4.43,5.18 L0.43,4.46 L0.43,4.4 L4.43,5.13 L4.43,5.18 Z M0.43,4.46 L0.24,4.46 L0.43,4.46 L0.43,4.52 L0.43,4.46 Z M0.43,4.4 L4.43,3.68 L4.43,3.74 L0.43,4.46 L0.43,4.4 Z M4.43,3.68 L4.49,3.68 L4.49,3.74 L4.43,3.68 Z M4.49,4.44 L4.39,4.44 L4.39,3.73 L4.49,3.73 L4.49,4.44 Z M4.49,4.44 L0.49,4.44 L0.49,4.42 L4.49,4.42 L4.49,4.44 Z" id="Shape" fill="#292C2F" fill-rule="nonzero"></path>
                <polyline id="Shape" fill="#EAC126" points="4.46 4.45 4.46 3.73 8.43 4.45 4.46 5.18 4.46 4.45 8.43 4.45"></polyline>
                <path d="M4.39,3.73 L4.49,3.73 L4.49,4.46 L4.39,4.46 L4.39,3.73 Z M4.39,3.73 L4.39,3.66 L4.45,3.66 L4.39,3.73 Z M4.45,3.73 L8.45,4.45 L8.45,4.51 L4.45,3.79 L4.45,3.73 Z M8.45,4.45 L8.64,4.45 L8.45,4.45 L8.45,4.42 L8.45,4.45 Z M8.45,4.51 L4.45,5.23 L4.45,5.17 L8.45,4.44 L8.45,4.51 Z M4.45,5.23 L4.39,5.23 L4.45,5.23 Z M4.39,4.48 L4.49,4.48 L4.49,5.2 L4.39,5.2 L4.39,4.48 Z M4.39,4.48 L4.45,4.48 L4.39,4.48 Z M4.45,4.48 L8.45,4.48 L8.45,4.54 L4.45,4.54 L4.45,4.48 Z" id="Shape" fill="#292C2F" fill-rule="nonzero"></path>
                <polyline id="Shape" fill="#EAC126" points="4.46 4.45 4.96 4.96 1.62 7.26 3.92 3.92 4.46 4.45 1.62 7.26"></polyline>
                <path d="M4.46,4.42 L5,4.93 L4.93,5 L4.43,4.5 L4.46,4.42 Z M5,4.93 L5,5 L5,4.93 Z M5,5 L1.65,7.29 L1.65,7.23 L4.96,4.93 L5,5 Z M1.65,7.29 L1.49,7.42 L1.58,7.23 L1.65,7.29 Z M1.59,7.23 L3.89,3.92 L3.95,3.92 L1.65,7.29 L1.59,7.23 Z M3.95,3.92 L4.45,4.42 L4.45,4.48 L3.91,3.94 L3.95,3.92 Z M4.45,4.42 Z M4.45,4.48 L1.65,7.29 L1.65,7.23 L4.42,4.42 L4.45,4.48 Z" id="Shape" fill="#292C2F" fill-rule="nonzero"></path>
                <polyline id="Shape" fill="#EAC126" points="4.46 4.45 3.92 3.92 7.26 1.62 4.96 4.96 4.46 4.45 7.26 1.62"></polyline>
                <path d="M4.42,4.48 L3.88,3.94 L3.94,3.94 L4.44,4.44 L4.42,4.48 Z M3.88,3.94 L7.23,1.59 L7.23,1.65 L4,3.95 L3.88,3.94 Z M7.23,1.59 L7.39,1.49 L7.3,1.65 L7.23,1.59 Z M7.29,1.65 L5,5 L4.94,4.94 L7.24,1.63 L7.29,1.65 Z M4.93,5 L4.43,4.5 L4.43,4.44 L5,4.93 L4.93,5 Z M4.43,4.44 L7.24,1.64 L7.3,1.64 L4.46,4.48 L4.43,4.44 Z" id="Shape" fill="#292C2F" fill-rule="nonzero"></path>
                <polyline id="Shape" fill="#EAC126" points="4.46 4.45 3.92 4.96 1.62 1.62 4.96 3.92 4.46 4.45 1.62 1.62"></polyline>
                <path d="M4.46,4.48 L4,5 L3.94,4.94 L4.48,4.43 L4.46,4.48 Z M3.89,5 L1.59,1.65 L1.65,1.65 L4,4.93 L3.89,5 Z M1.59,1.65 L1.5,1.49 L1.66,1.59 L1.59,1.65 Z M1.65,1.59 L5,3.92 L1.62,1.65 L1.65,1.59 Z M5,3.92 L4.46,4.46 L4.46,4.4 L4.96,3.9 L5,3.92 Z M4.46,4.46 L1.62,1.65 L4.43,4.45 L4.46,4.46 Z" id="Shape" fill="#292C2F" fill-rule="nonzero"></path>
                <polyline id="Shape" fill="#EAC126" points="4.46 4.45 4.96 3.92 7.26 7.26 3.92 4.96 4.46 4.45 7.26 7.26"></polyline>
                <path d="M4.42,4.42 L4.92,3.92 L4.98,3.92 L4.44,4.46 L4.42,4.42 Z M4.92,3.92 L4.93,3.92 L4.92,3.92 Z M4.98,3.92 L7.28,7.23 L7.22,7.29 L4.93,3.95 L4.98,3.92 Z M7.28,7.23 L7.37,7.42 L7.21,7.29 L7.28,7.23 Z M7.22,7.29 L3.92,5 L3.92,4.94 L7.23,7.24 L7.22,7.29 Z M3.92,4.94 L4.46,4.43 L4.46,4.49 L4,5 L3.92,4.94 Z M4.46,4.43 L4.46,4.49 L4.46,4.43 Z M4.46,4.43 L7.29,7.23 L7.23,7.29 L4.42,4.48 L4.46,4.43 Z" id="Shape" fill="#292C2F" fill-rule="nonzero"></path>
                <path d="M5.78,4.45 C5.78,3.70993844 5.18006156,3.11 4.44,3.11 C3.69993844,3.11 3.1,3.70993844 3.1,4.45 C3.1,5.19006156 3.69993844,5.79 4.44,5.79 C5.18006156,5.79 5.78,5.19006156 5.78,4.45" id="Shape" fill="#EAC126"></path>
                <path d="M5.72,4.45 C5.73520497,4.10230023 5.59614208,3.76562165 5.34,3.53 L5.4,3.47 C5.66694123,3.73372674 5.81497602,4.09478719 5.81,4.47 L5.72,4.45 Z M5.34,3.53 C5.11595172,3.28129524 4.79465842,3.14255495 4.46,3.15 L4.46,3.07 C4.8183174,3.07616263 5.15972074,3.22350512 5.41,3.48 L5.34,3.53 Z M4.46,3.15 C4.11549401,3.13640073 3.78252801,3.27544148 3.55,3.53 L3.49,3.47 C3.75372674,3.20305877 4.11478719,3.05502398 4.49,3.06 L4.46,3.15 Z M3.55,3.53 C3.29269481,3.76480804 3.15339679,4.10205588 3.17,4.45 L3.07,4.45 C3.06502398,4.07478719 3.21305877,3.71372674 3.48,3.45 L3.55,3.53 Z M3.17,4.45 C3.16660454,4.79259188 3.30397632,5.12156117 3.55,5.36 L3.49,5.36 C3.22876617,5.11300816 3.08051982,4.76951052 3.08,4.41 L3.17,4.45 Z M3.55,5.36 C3.78976406,5.60407249 4.11786403,5.74108127 4.46,5.74 L4.46,5.8 C4.08478719,5.80497602 3.72372674,5.65694123 3.46,5.39 L3.55,5.36 Z M4.46,5.74 C4.7921747,5.73530303 5.1088165,5.59857134 5.34,5.36 L5.4,5.36 C5.14972074,5.61649488 4.8083174,5.76383737 4.45,5.77 L4.46,5.74 Z M5.34,5.36 C5.5850397,5.12089165 5.72222757,4.79236281 5.72,4.45 L5.81,4.45 C5.80948018,4.80951052 5.66123383,5.15300816 5.4,5.4 L5.34,5.36 Z" id="Shape" fill="#292C2F" fill-rule="nonzero"></path>
                <path d="M5.4,3.92 C5.34,4.02 5.27,3.86 4.99,3.86 C4.71,3.86 4.65,4 4.58,4 C4.51,4 4.83,3.75 4.93,3.75 C5.10658408,3.74346261 5.27756747,3.81258356 5.4,3.94" id="Shape" fill="#292C2F"></path>
                <path d="M5.06,4 C5.15,4.09 5.06,4.25 5,4.25 C4.94,4.25 4.74,4.11 4.83,4" id="Shape" fill="#292C2F"></path>
                <path d="M4.68,4.14 C4.68,3.98 4.81,3.95 4.99,3.95 C5.17,3.95 5.27,4.11 5.34,4.14 C5.41,4.17 5.18,4 5,4 C4.82,4 4.81,4 4.69,4.13" id="Shape" fill="#292C2F"></path>
                <path d="M4.71,4.17 C4.71,4.11 4.8,4.23 4.96,4.23 C5.06089367,4.23300484 5.15975282,4.20122869 5.24,4.14 C5.3,4.08 5.11,4.3 4.99,4.3 C4.87,4.3 4.68,4.21 4.71,4.18" id="Shape" fill="#292C2F"></path>
                <path d="M5.12,4.23 C5.28,4.17 5.18,4.04 5.12,4.01 C5.06,3.98 5.25,4.17 5.12,4.23" id="Shape" fill="#292C2F"></path>
                <path d="M4.46,5 C4.52,5 4.56,5 4.65,5 C4.74,5 4.97,5.16 5.09,5.1 C4.81,5.23 4.93,5.1 4.46,5.1 L4.39,5.1" id="Shape" fill="#292C2F"></path>
                <path d="M5.15,5.15 C5.10632006,5.07255135 5.05613964,4.9989534 5,4.93 C5.08248401,4.97691776 5.14077872,5.05707298 5.16,5.15" id="Shape" fill="#292C2F"></path>
                <path d="M4.46,5.24 C4.74,5.24 4.71,5.18 5.09,5.02 C4.88321536,5.07767034 4.67272248,5.12110537 4.46,5.15 L4.39,5.15" id="Shape" fill="#292C2F"></path>
                <path d="M4.46,4.8 C4.52,4.8 4.56,4.74 4.65,4.74 C4.75210929,4.73983419 4.8510974,4.77518709 4.93,4.84 C4.93,4.84 4.93,4.74 4.81,4.74 C4.69,4.74 4.75,4.55 4.65,4.52 C4.55,4.49 4.65,4.58 4.65,4.65 C4.65,4.72 4.56,4.71 4.52,4.65 C4.52,4.74 4.46,4.74 4.42,4.74" id="Shape" fill="#292C2F"></path>
                <path d="M3.48,3.92 C3.54,4.02 3.6,3.86 3.89,3.86 C4.18,3.86 4.24,4 4.3,4 C4.36,4 4,3.73 4,3.73 C3.82341592,3.72346261 3.65243253,3.79258356 3.53,3.92" id="Shape" fill="#292C2F"></path>
                <path d="M3.83,4 C3.74,4.09 3.83,4.25 3.89,4.25 C3.95,4.25 4.14,4.11 4,4" id="Shape" fill="#292C2F"></path>
                <path d="M4.2,4.14 C4.2,3.98 4.07,3.95 3.89,3.95 C3.71,3.95 3.6,4.11 3.54,4.14 C3.63,4.14 3.7,4.01 3.89,4.01 C4.08,4.01 4.08,4.01 4.2,4.14" id="Shape" fill="#292C2F"></path>
                <path d="M4.17,4.17 C4.17,4.11 4.07,4.23 3.92,4.23 C3.81910633,4.23300484 3.72024718,4.20122869 3.64,4.14 C3.58,4.08 3.77,4.3 3.89,4.3 C4.01,4.3 4.2,4.21 4.17,4.18" id="Shape" fill="#292C2F"></path>
                <path d="M3.76,4.23 C3.6,4.17 3.7,4 3.76,4 C3.82,4 3.63,4.16 3.76,4.22" id="Shape" fill="#292C2F"></path>
                <path d="M4.46,5 C4.37,5 4.33,5 4.24,5 C4.15,5 3.92,5.16 3.8,5.1 C4.08,5.23 3.96,5.1 4.46,5.1" id="Shape" fill="#292C2F"></path>
                <path d="M3.73,5.15 C3.79,5.05 3.79,5.09 3.89,4.93 C3.81656774,4.98637007 3.76100267,5.06277205 3.73,5.15" id="Shape" fill="#292C2F"></path>
                <path d="M4.46,5.24 C4.14,5.24 4.21,5.18 3.8,5.02 C4.01633309,5.0802266 4.23698663,5.12368866 4.46,5.15" id="Shape" fill="#292C2F"></path>
                <path d="M4.46,4.8 C4.37,4.8 4.33,4.74 4.24,4.74 C4.13789071,4.73983419 4.0389026,4.77518709 3.96,4.84 C3.96,4.84 3.96,4.74 4.08,4.74 C4.2,4.74 4.14,4.55 4.24,4.52 C4.34,4.49 4.24,4.58 4.24,4.65 C4.24,4.72 4.34,4.71 4.37,4.65 C4.37,4.74 4.43,4.74 4.5,4.74" id="Shape" fill="#292C2F"></path>
                <path d="M4.46,5.37 C4.4,5.37 4.24,5.37 4.46,5.37 C4.68,5.37 4.46,5.37 4.46,5.37" id="Shape" fill="#292C2F"></path>
            </g>
        </g>
    </g>
</svg>