<?xml version="1.0" encoding="UTF-8"?>
<svg width="34px" height="20px" viewBox="0 0 34 20" version="1.1" xmlns="http://www.w3.org/2000/svg" xmlns:xlink="http://www.w3.org/1999/xlink">
    <!-- Generator: Sketch 49 (51002) - http://www.bohemiancoding.com/sketch -->
    <title>UZS</title>
    <desc>Created with Sketch.</desc>
    <defs></defs>
    <g id="Page-1" stroke="none" stroke-width="1" fill="none" fill-rule="evenodd">
        <g id="UZS" fill-rule="nonzero">
            <rect id="Rectangle-path" fill="#4497B1" x="0" y="0" width="33.56" height="6.27"></rect>
            <rect id="Rectangle-path" fill="#BC0030" x="0" y="6.27" width="33.56" height="1"></rect>
            <rect id="Rectangle-path" fill="#FFFFFF" x="0" y="6.66" width="33.56" height="6.27"></rect>
            <rect id="Rectangle-path" fill="#BC0030" x="0" y="12.93" width="33.56" height="1"></rect>
            <rect id="Rectangle-path" fill="#50B63F" x="0" y="13.32" width="33.56" height="6.27"></rect>
            <g id="Group" transform="translate(3.000000, 0.000000)">
                <path d="M4.83,3.14 C4.83,4.43786916 3.77786916,5.49 2.48,5.49 C1.18213084,5.49 0.13,4.43786916 0.13,3.14 C0.13,1.84213084 1.18213084,0.79 2.48,0.79 C3.77786916,0.79 4.83,1.84213084 4.83,3.14" id="Shape" fill="#FFFFFF"></path>
                <path d="M5.5,3.14 C5.5,4.2445695 4.6045695,5.14 3.5,5.14 C2.3954305,5.14 1.5,4.2445695 1.5,3.14 C1.5,2.0354305 2.3954305,1.14 3.5,1.14 C4.6045695,1.14 5.5,2.0354305 5.5,3.14" id="Shape" fill="#4497B1"></path>
                <polygon id="Shape" fill="#FFFFFF" points="8.43 0.79 8.29 1.23 8.51 1.3"></polygon>
                <polygon id="Shape" fill="#FFFFFF" points="8.43 0.79 8.58 1.23 8.36 1.3"></polygon>
                <polygon id="Shape" fill="#FFFFFF" points="8.88 1.11 8.41 1.11 8.41 1.35"></polygon>
                <polygon id="Shape" fill="#FFFFFF" points="8.88 1.11 8.5 1.39 8.36 1.2"></polygon>
                <polygon id="Shape" fill="#FFFFFF" points="7.99 1.11 8.37 1.39 8.51 1.2"></polygon>
                <polygon id="Shape" fill="#FFFFFF" points="7.99 1.11 8.46 1.11 8.46 1.35"></polygon>
                <polygon id="Shape" fill="#FFFFFF" points="8.71 1.64 8.57 1.19 8.34 1.26"></polygon>
                <polygon id="Shape" fill="#FFFFFF" points="8.71 1.64 8.33 1.36 8.47 1.17"></polygon>
                <polygon id="Shape" fill="#FFFFFF" points="8.16 1.64 8.54 1.36 8.4 1.17"></polygon>
                <polygon id="Shape" fill="#FFFFFF" points="8.16 1.64 8.3 1.19 8.53 1.26"></polygon>
                <polygon id="Shape" fill="#FFFFFF" points="10.31 0.79 10.17 1.23 10.39 1.3"></polygon>
                <polygon id="Shape" fill="#FFFFFF" points="10.31 0.79 10.46 1.23 10.23 1.3"></polygon>
                <polygon id="Shape" fill="#FFFFFF" points="10.76 1.11 10.29 1.11 10.29 1.35"></polygon>
                <polygon id="Shape" fill="#FFFFFF" points="10.76 1.11 10.38 1.39 10.24 1.2"></polygon>
                <polygon id="Shape" fill="#FFFFFF" points="9.87 1.11 10.25 1.39 10.38 1.2"></polygon>
                <polygon id="Shape" fill="#FFFFFF" points="9.87 1.11 10.33 1.11 10.33 1.35"></polygon>
                <polygon id="Shape" fill="#FFFFFF" points="10.59 1.64 10.44 1.19 10.22 1.26"></polygon>
                <polygon id="Shape" fill="#FFFFFF" points="10.59 1.64 10.21 1.36 10.35 1.17"></polygon>
                <polygon id="Shape" fill="#FFFFFF" points="10.04 1.64 10.42 1.36 10.28 1.17"></polygon>
                <polygon id="Shape" fill="#FFFFFF" points="10.04 1.64 10.18 1.19 10.41 1.26"></polygon>
                <polygon id="Shape" fill="#FFFFFF" points="12.2 0.79 12.05 1.23 12.27 1.3"></polygon>
                <polygon id="Shape" fill="#FFFFFF" points="12.2 0.79 12.34 1.23 12.11 1.3"></polygon>
                <polygon id="Shape" fill="#FFFFFF" points="12.64 1.11 12.17 1.11 12.17 1.35"></polygon>
                <polygon id="Shape" fill="#FFFFFF" points="12.64 1.11 12.26 1.39 12.12 1.2"></polygon>
                <polygon id="Shape" fill="#FFFFFF" points="11.75 1.11 12.13 1.39 12.27 1.2"></polygon>
                <polygon id="Shape" fill="#FFFFFF" points="11.75 1.11 12.21 1.11 12.21 1.35"></polygon>
                <polygon id="Shape" fill="#FFFFFF" points="12.47 1.64 12.32 1.19 12.1 1.26"></polygon>
                <polygon id="Shape" fill="#FFFFFF" points="12.47 1.64 12.09 1.36 12.22 1.17"></polygon>
                <polygon id="Shape" fill="#FFFFFF" points="11.92 1.64 12.3 1.36 12.16 1.17"></polygon>
                <polygon id="Shape" fill="#FFFFFF" points="11.92 1.64 12.06 1.19 12.29 1.26"></polygon>
                <polygon id="Shape" fill="#FFFFFF" points="6.55 2.66 6.41 3.11 6.63 3.18"></polygon>
                <polygon id="Shape" fill="#FFFFFF" points="6.55 2.66 6.7 3.11 6.48 3.18"></polygon>
                <polygon id="Shape" fill="#FFFFFF" points="7 2.99 6.53 2.99 6.53 3.22"></polygon>
                <polygon id="Shape" fill="#FFFFFF" points="7 2.99 6.62 3.26 6.48 3.07"></polygon>
                <polygon id="Shape" fill="#FFFFFF" points="6.11 2.99 6.49 3.26 6.63 3.07"></polygon>
                <polygon id="Shape" fill="#FFFFFF" points="6.11 2.99 6.58 2.99 6.58 3.22"></polygon>
                <polygon id="Shape" fill="#FFFFFF" points="6.83 3.51 6.69 3.07 6.46 3.14"></polygon>
                <polygon id="Shape" fill="#FFFFFF" points="6.83 3.51 6.45 3.24 6.59 3.05"></polygon>
                <polygon id="Shape" fill="#FFFFFF" points="6.28 3.51 6.66 3.24 6.52 3.05"></polygon>
                <polygon id="Shape" fill="#FFFFFF" points="6.28 3.51 6.42 3.07 6.65 3.14"></polygon>
                <polygon id="Shape" fill="#FFFFFF" points="8.43 2.66 8.29 3.11 8.51 3.18"></polygon>
                <polygon id="Shape" fill="#FFFFFF" points="8.43 2.66 8.58 3.11 8.36 3.18"></polygon>
                <polygon id="Shape" fill="#FFFFFF" points="8.88 2.99 8.41 2.99 8.41 3.22"></polygon>
                <polygon id="Shape" fill="#FFFFFF" points="8.88 2.99 8.5 3.26 8.36 3.07"></polygon>
                <polygon id="Shape" fill="#FFFFFF" points="7.99 2.99 8.37 3.26 8.51 3.07"></polygon>
                <polygon id="Shape" fill="#FFFFFF" points="7.99 2.99 8.46 2.99 8.46 3.22"></polygon>
                <polygon id="Shape" fill="#FFFFFF" points="8.71 3.51 8.57 3.07 8.34 3.14"></polygon>
                <polygon id="Shape" fill="#FFFFFF" points="8.71 3.51 8.33 3.24 8.47 3.05"></polygon>
                <polygon id="Shape" fill="#FFFFFF" points="8.16 3.51 8.54 3.24 8.4 3.05"></polygon>
                <polygon id="Shape" fill="#FFFFFF" points="8.16 3.51 8.3 3.07 8.53 3.14"></polygon>
                <polygon id="Shape" fill="#FFFFFF" points="10.31 2.66 10.17 3.11 10.39 3.18"></polygon>
                <polygon id="Shape" fill="#FFFFFF" points="10.31 2.66 10.46 3.11 10.23 3.18"></polygon>
                <polygon id="Shape" fill="#FFFFFF" points="10.76 2.99 10.29 2.99 10.29 3.22"></polygon>
                <polygon id="Shape" fill="#FFFFFF" points="10.76 2.99 10.38 3.26 10.24 3.07"></polygon>
                <polygon id="Shape" fill="#FFFFFF" points="9.87 2.99 10.25 3.26 10.38 3.07"></polygon>
                <polygon id="Shape" fill="#FFFFFF" points="9.87 2.99 10.33 2.99 10.33 3.22"></polygon>
                <polygon id="Shape" fill="#FFFFFF" points="10.59 3.51 10.44 3.07 10.22 3.14"></polygon>
                <polygon id="Shape" fill="#FFFFFF" points="10.59 3.51 10.21 3.24 10.35 3.05"></polygon>
                <polygon id="Shape" fill="#FFFFFF" points="10.04 3.51 10.42 3.24 10.28 3.05"></polygon>
                <polygon id="Shape" fill="#FFFFFF" points="10.04 3.51 10.18 3.07 10.41 3.14"></polygon>
                <polygon id="Shape" fill="#FFFFFF" points="12.2 2.66 12.05 3.11 12.27 3.18"></polygon>
                <polygon id="Shape" fill="#FFFFFF" points="12.2 2.66 12.34 3.11 12.11 3.18"></polygon>
                <polygon id="Shape" fill="#FFFFFF" points="12.64 2.99 12.17 2.99 12.17 3.22"></polygon>
                <polygon id="Shape" fill="#FFFFFF" points="12.64 2.99 12.26 3.26 12.12 3.07"></polygon>
                <polygon id="Shape" fill="#FFFFFF" points="11.75 2.99 12.13 3.26 12.27 3.07"></polygon>
                <polygon id="Shape" fill="#FFFFFF" points="11.75 2.99 12.21 2.99 12.21 3.22"></polygon>
                <polygon id="Shape" fill="#FFFFFF" points="12.47 3.51 12.32 3.07 12.1 3.14"></polygon>
                <polygon id="Shape" fill="#FFFFFF" points="12.47 3.51 12.09 3.24 12.22 3.05"></polygon>
                <polygon id="Shape" fill="#FFFFFF" points="11.92 3.51 12.3 3.24 12.16 3.05"></polygon>
                <polygon id="Shape" fill="#FFFFFF" points="11.92 3.51 12.06 3.07 12.29 3.14"></polygon>
                <polygon id="Shape" fill="#FFFFFF" points="4.68 4.54 4.53 4.99 4.75 5.06"></polygon>
                <polygon id="Shape" fill="#FFFFFF" points="4.68 4.54 4.82 4.99 4.6 5.06"></polygon>
                <polygon id="Shape" fill="#FFFFFF" points="5.12 4.87 4.65 4.87 4.65 5.1"></polygon>
                <polygon id="Shape" fill="#FFFFFF" points="5.12 4.87 4.74 5.14 4.6 4.95"></polygon>
                <polygon id="Shape" fill="#FFFFFF" points="4.23 4.87 4.61 5.14 4.75 4.95"></polygon>
                <polygon id="Shape" fill="#FFFFFF" points="4.23 4.87 4.7 4.87 4.7 5.1"></polygon>
                <polygon id="Shape" fill="#FFFFFF" points="4.95 5.39 4.81 4.95 4.58 5.02"></polygon>
                <polygon id="Shape" fill="#FFFFFF" points="4.95 5.39 4.57 5.12 4.71 4.93"></polygon>
                <polygon id="Shape" fill="#FFFFFF" points="4.4 5.39 4.78 5.12 4.64 4.93"></polygon>
                <polygon id="Shape" fill="#FFFFFF" points="4.4 5.39 4.54 4.95 4.77 5.02"></polygon>
                <polygon id="Shape" fill="#FFFFFF" points="6.55 4.54 6.41 4.99 6.63 5.06"></polygon>
                <polygon id="Shape" fill="#FFFFFF" points="6.55 4.54 6.7 4.99 6.48 5.06"></polygon>
                <polygon id="Shape" fill="#FFFFFF" points="7 4.87 6.53 4.87 6.53 5.1"></polygon>
                <polygon id="Shape" fill="#FFFFFF" points="7 4.87 6.62 5.14 6.48 4.95"></polygon>
                <polygon id="Shape" fill="#FFFFFF" points="6.11 4.87 6.49 5.14 6.63 4.95"></polygon>
                <polygon id="Shape" fill="#FFFFFF" points="6.11 4.87 6.58 4.87 6.58 5.1"></polygon>
                <polygon id="Shape" fill="#FFFFFF" points="6.83 5.39 6.69 4.95 6.46 5.02"></polygon>
                <polygon id="Shape" fill="#FFFFFF" points="6.83 5.39 6.45 5.12 6.59 4.93"></polygon>
                <polygon id="Shape" fill="#FFFFFF" points="6.28 5.39 6.66 5.12 6.52 4.93"></polygon>
                <polygon id="Shape" fill="#FFFFFF" points="6.28 5.39 6.42 4.95 6.65 5.02"></polygon>
                <polygon id="Shape" fill="#FFFFFF" points="8.43 4.54 8.29 4.99 8.51 5.06"></polygon>
                <polygon id="Shape" fill="#FFFFFF" points="8.43 4.54 8.58 4.99 8.36 5.06"></polygon>
                <polygon id="Shape" fill="#FFFFFF" points="8.88 4.87 8.41 4.87 8.41 5.1"></polygon>
                <polygon id="Shape" fill="#FFFFFF" points="8.88 4.87 8.5 5.14 8.36 4.95"></polygon>
                <polygon id="Shape" fill="#FFFFFF" points="7.99 4.87 8.37 5.14 8.51 4.95"></polygon>
                <polygon id="Shape" fill="#FFFFFF" points="7.99 4.87 8.46 4.87 8.46 5.1"></polygon>
                <polygon id="Shape" fill="#FFFFFF" points="8.71 5.39 8.57 4.95 8.34 5.02"></polygon>
                <polygon id="Shape" fill="#FFFFFF" points="8.71 5.39 8.33 5.12 8.47 4.93"></polygon>
                <polygon id="Shape" fill="#FFFFFF" points="8.16 5.39 8.54 5.12 8.4 4.93"></polygon>
                <polygon id="Shape" fill="#FFFFFF" points="8.16 5.39 8.3 4.95 8.53 5.02"></polygon>
                <polygon id="Shape" fill="#FFFFFF" points="10.31 4.54 10.17 4.99 10.39 5.06"></polygon>
                <polygon id="Shape" fill="#FFFFFF" points="10.31 4.54 10.46 4.99 10.23 5.06"></polygon>
                <polygon id="Shape" fill="#FFFFFF" points="10.76 4.87 10.29 4.87 10.29 5.1"></polygon>
                <polygon id="Shape" fill="#FFFFFF" points="10.76 4.87 10.38 5.14 10.24 4.95"></polygon>
                <polygon id="Shape" fill="#FFFFFF" points="9.87 4.87 10.25 5.14 10.38 4.95"></polygon>
                <polygon id="Shape" fill="#FFFFFF" points="9.87 4.87 10.33 4.87 10.33 5.1"></polygon>
                <polygon id="Shape" fill="#FFFFFF" points="10.59 5.39 10.44 4.95 10.22 5.02"></polygon>
                <polygon id="Shape" fill="#FFFFFF" points="10.59 5.39 10.21 5.12 10.35 4.93"></polygon>
                <polygon id="Shape" fill="#FFFFFF" points="10.04 5.39 10.42 5.12 10.28 4.93"></polygon>
                <polygon id="Shape" fill="#FFFFFF" points="10.04 5.39 10.18 4.95 10.41 5.02"></polygon>
                <polygon id="Shape" fill="#FFFFFF" points="12.2 4.54 12.05 4.99 12.27 5.06"></polygon>
                <polygon id="Shape" fill="#FFFFFF" points="12.2 4.54 12.34 4.99 12.11 5.06"></polygon>
                <polygon id="Shape" fill="#FFFFFF" points="12.64 4.87 12.17 4.87 12.17 5.1"></polygon>
                <polygon id="Shape" fill="#FFFFFF" points="12.64 4.87 12.26 5.14 12.12 4.95"></polygon>
                <polygon id="Shape" fill="#FFFFFF" points="11.75 4.87 12.13 5.14 12.27 4.95"></polygon>
                <polygon id="Shape" fill="#FFFFFF" points="11.75 4.87 12.21 4.87 12.21 5.1"></polygon>
                <polygon id="Shape" fill="#FFFFFF" points="12.47 5.39 12.32 4.95 12.1 5.02"></polygon>
                <polygon id="Shape" fill="#FFFFFF" points="12.47 5.39 12.09 5.12 12.22 4.93"></polygon>
                <polygon id="Shape" fill="#FFFFFF" points="11.92 5.39 12.3 5.12 12.16 4.93"></polygon>
                <polygon id="Shape" fill="#FFFFFF" points="11.92 5.39 12.06 4.95 12.29 5.02"></polygon>
            </g>
        </g>
    </g>
</svg>