<?xml version="1.0" encoding="utf-8"?>
<!-- Generator: Adobe Illustrator 21.0.0, SVG Export Plug-In . SVG Version: 6.00 Build 0)  -->
<svg version="1.1" id="Layer_1" xmlns="http://www.w3.org/2000/svg" xmlns:xlink="http://www.w3.org/1999/xlink" x="0px" y="0px"
	 viewBox="0 0 200 200" style="enable-background:new 0 0 200 200;" xml:space="preserve">
<style type="text/css">
	.st0{fill:#122C93;}
	.st1{fill:#FFFFFF;}
	.st2{fill:#FAA61A;}
</style>
<title>V</title>
<rect class="st0" width="200" height="200"/>
<g id="g4158">
	<polygon id="polygon9" class="st1" points="91,121.4 79.9,121.4 86.8,78.7 97.8,78.7 	"/>
	<path id="path11" class="st1" d="M130.9,79.8c-3.2-1.2-6.5-1.8-9.9-1.8c-10.9,0-18.5,5.8-18.6,14.1c-0.1,6.1,5.5,9.5,9.7,11.5
		c4.2,2,5.7,3.5,5.7,5.3c0,2.9-3.5,4.2-6.6,4.2c-3.6,0.1-7.1-0.7-10.3-2.3l-1.4-0.7l-1.6,9.6c2.6,1.2,7.3,2.2,12.3,2.3
		c11.5,0,19.1-5.7,19.2-14.6c0-4.8-2.9-8.6-9.3-11.6c-3.9-1.9-6.2-3.2-6.2-5.3c0-1.8,2-3.7,6.4-3.7c2.8-0.1,5.6,0.5,8.2,1.6l1,0.5
		L130.9,79.8L130.9,79.8z"/>
	<path id="path13" class="st1" d="M145.6,106.2c0.9-2.4,4.4-11.9,4.4-11.9s0.9-2.5,1.4-4.1l0.8,3.7c0,0,2.1,10.2,2.5,12.3
		C152.9,106.2,147.7,106.2,145.6,106.2L145.6,106.2z M159.2,78.7h-8.6c-2.6,0-4.6,0.8-5.8,3.5l-16.4,39.1H140c0,0,1.9-5.3,2.3-6.4
		h14.2c0.3,1.5,1.3,6.4,1.3,6.4H168L159.2,78.7L159.2,78.7z"/>
	<path id="path15" class="st1" d="M70.7,78.7l-10.8,29.1l-1.2-5.9c-2-6.8-8.3-14.2-15.2-17.9l9.9,37.3h11.7l17.3-42.6H70.7z"/>
	<path id="path17" class="st2" d="M49.9,78.7H32.2L32,79.6c13.8,3.5,23,12.1,26.8,22.3l-3.9-19.6C54.3,79.6,52.3,78.9,49.9,78.7
		L49.9,78.7z"/>
</g>
</svg>
