<?xml version="1.0" encoding="UTF-8"?>
<svg width="34px" height="20px" viewBox="0 0 34 20" version="1.1" xmlns="http://www.w3.org/2000/svg" xmlns:xlink="http://www.w3.org/1999/xlink">
    <!-- Generator: Sketch 49 (51002) - http://www.bohemiancoding.com/sketch -->
    <title>VUV</title>
    <desc>Created with Sketch.</desc>
    <defs></defs>
    <g id="Page-1" stroke="none" stroke-width="1" fill="none" fill-rule="evenodd">
        <g id="VUV" fill-rule="nonzero">
            <rect id="Rectangle-path" fill="#C0003B" x="0" y="0" width="33.56" height="9.79"></rect>
            <rect id="Rectangle-path" fill="#3D9546" x="0" y="9.79" width="33.56" height="9.79"></rect>
            <polygon id="Shape" fill="#000000" points="0 0 0 19.58 18.99 9.79"></polygon>
            <rect id="Rectangle-path" fill="#000000" x="0" y="8.04" width="33.56" height="3.5"></rect>
            <polygon id="Shape" fill="#F5CD28" points="0 18.19 16.29 9.79 0 1.39"></polygon>
            <rect id="Rectangle-path" fill="#F5CD28" x="0" y="9.27" width="33.56" height="1.03"></rect>
            <polygon id="Shape" fill="#000000" points="0 17.03 14.04 9.79 0 2.55"></polygon>
            <g id="Group" transform="translate(1.000000, 6.000000)" fill="#F3CD2D">
                <path d="M3,5.66 L3,6.78 C4.64973734,6.69380047 5.91934321,5.29008131 5.84,3.64 C5.88085682,2.91126009 5.62383255,2.19720098 5.12790567,1.66167538 C4.63197879,1.12614978 3.93972738,0.815135527 3.21,0.8 C1.86447852,0.777630204 0.75277016,1.84469164 0.72,3.19 C0.711058204,3.77256124 0.943398411,4.33289152 1.36195533,4.73819099 C1.78051226,5.14349045 2.3480281,5.35768141 2.93,5.33 C3.38242461,5.32189804 3.81026325,5.12260487 4.10755952,4.78147646 C4.4048558,4.44034804 4.54380658,3.98928668 4.49,3.54 C4.40703959,4.29490863 3.75918605,4.86014998 3,4.84 C2.59410812,4.85899594 2.19733101,4.71575247 1.89717645,4.44186143 C1.59702188,4.16797039 1.41814628,3.78593075 1.4,3.38 C1.40457871,2.46614239 2.12689647,1.71739837 3.04,1.68 C4.05715799,1.69630628 4.87469065,2.52272517 4.88,3.54 C4.89631785,4.62667586 4.08083097,5.54626744 3,5.66 Z" id="Shape"></path>
                <path d="M2.12,4.21 L2.18,4.21 C2.56516154,3.46398619 3.15482962,2.84310039 3.88,2.42 C3.14424491,2.82787467 2.53787467,3.43424491 2.13,4.17 L2.12,4.21 Z" id="Shape"></path>
                <path d="M2.18,4.27 L2.11,4.27 C2.50885336,3.51616416 3.10734313,2.8865391 3.84,2.45 C3.60085232,2.5905318 3.37639654,2.75468603 3.17,2.94 C3.37814443,2.75685176 3.60238652,2.59285382 3.84,2.45 C3.11921057,2.87544878 2.53335625,3.49596905 2.15,4.24 L2.18,4.27 Z M2.56,3.61 C2.40196135,3.80255882 2.2582433,4.00643791 2.13,4.22 C2.24105129,3.99978005 2.37513375,3.79195224 2.53,3.6 L2.56,3.61 Z" id="Shape"></path>
                <path d="M2.24,4 C2.24,4 2.1,3.71 2.24,3.58 C2.38,3.45 2.3,3.92 2.3,3.92 L2.36,3.84 C2.36,3.84 2.27,3.48 2.36,3.41 C2.45,3.34 2.36,3.75 2.36,3.75 L2.42,3.68 C2.42,3.68 2.36,3.33 2.42,3.27 C2.48,3.21 2.42,3.6 2.42,3.6 L2.48,3.52 C2.48,3.52 2.48,3.19 2.55,3.11 C2.62,3.03 2.55,3.42 2.55,3.42 L2.63,3.34 C2.63,3.34 2.63,3.04 2.69,2.97 C2.75,2.9 2.69,3.26 2.69,3.26 L2.76,3.19 C2.76,3.19 2.76,2.91 2.83,2.84 C2.9,2.77 2.83,3.11 2.83,3.11 L3,3.07 C3,3.07 3,2.79 3.1,2.73 C3.2,2.67 3.1,2.99 3.1,2.99 L3.18,2.92 C3.18,2.92 3.18,2.59 3.31,2.56 C3.44,2.53 3.31,2.85 3.31,2.85 L3.38,2.79 C3.38,2.79 3.38,2.51 3.53,2.47 C3.68,2.43 3.46,2.73 3.46,2.73 L3.53,2.68 C3.53,2.68 3.61,2.4 3.71,2.37 C3.81,2.34 3.6,2.63 3.6,2.63 L3.67,2.63 C3.67,2.63 3.78,2.38 3.87,2.36 C3.96,2.34 3.77,2.57 3.77,2.57 L3.86,2.52 C3.86,2.52 4,2.21 4,2.3 C4,2.39 3.79,2.5 3.79,2.5 L3.71,2.5 C3.71,2.5 4.02,2.35 4.06,2.43 C4.1,2.51 3.63,2.55 3.63,2.55 L3.56,2.6 C3.56,2.6 3.87,2.52 3.83,2.6 C3.79,2.68 3.49,2.66 3.49,2.66 L3.42,2.71 C3.42,2.71 3.73,2.63 3.69,2.71 C3.65,2.79 3.35,2.78 3.35,2.78 L3.28,2.84 C3.28,2.84 3.58,2.76 3.54,2.84 C3.5,2.92 3.15,3 3.15,3 L3.07,3.08 C3.07,3.08 3.39,2.97 3.36,3.08 C3.33,3.19 3,3.16 3,3.16 L2.92,3.24 C2.92,3.24 3.27,3.13 3.16,3.24 C3.05679383,3.31335504 2.93606801,3.35819606 2.81,3.37 L2.71,3.49 C2.71,3.49 3,3.28 3,3.4 C3,3.52 2.62,3.59 2.62,3.59 L2.56,3.67 C2.56,3.67 2.86,3.49 2.84,3.59 C2.82,3.69 2.48,3.79 2.48,3.79 L2.42,3.86 C2.42,3.86 2.78,3.65 2.75,3.75 C2.72,3.85 2.38,3.94 2.38,3.94 L2.38,4.01 C2.38,4.01 2.71,3.82 2.72,3.91 C2.73,4 2.33,4.09 2.33,4.09 L2.24,4 Z" id="Shape"></path>
                <path d="M4.07,4.21 L4.01,4.21 C3.62340772,3.47606368 3.03765093,2.86604477 2.32,2.45 C3.05478206,2.8591646 3.6608354,3.46521794 4.07,4.2 L4.07,4.21 Z" id="Shape"></path>
                <path d="M4,4.27 C3.62088929,3.52361951 3.0384931,2.89962359 2.32,2.47 C3.04996572,2.88351649 3.65990876,3.47967551 4.09,4.2 L4,4.27 Z M3.51,3.47 C3.7066099,3.69868832 3.87452229,3.95055689 4.01,4.22 C3.84641664,3.96494088 3.66601691,3.72106717 3.47,3.49 L3.51,3.47 Z" id="Shape"></path>
                <path d="M4,4 C4,4 4.14,3.71 4,3.58 C3.86,3.45 3.9,4 3.9,4 L3.85,3.92 C3.85,3.92 3.94,3.56 3.85,3.49 C3.76,3.42 3.8,3.83 3.8,3.83 L3.74,3.76 C3.74,3.76 3.8,3.41 3.74,3.35 C3.68,3.29 3.74,3.68 3.74,3.68 L3.6,3.54 C3.6,3.54 3.65,3.21 3.54,3.13 C3.43,3.05 3.54,3.44 3.54,3.44 L3.47,3.36 C3.47,3.36 3.47,3.06 3.41,2.99 C3.35,2.92 3.41,3.28 3.41,3.28 L3.34,3.21 C3.34,3.21 3.34,2.93 3.27,2.86 C3.2,2.79 3.27,3.13 3.27,3.13 L3.2,3.06 C3.2,3.06 3.2,2.78 3.1,2.72 C3,2.66 3.1,2.98 3.1,2.98 L3,2.93 C3,2.93 3,2.6 2.88,2.57 C2.76,2.54 2.88,2.86 2.88,2.86 L2.85,2.8 C2.85,2.8 2.85,2.52 2.71,2.48 C2.57,2.44 2.78,2.74 2.78,2.74 L2.71,2.69 C2.71,2.69 2.63,2.41 2.53,2.38 C2.43,2.35 2.64,2.64 2.64,2.64 L2.57,2.64 C2.57,2.64 2.46,2.39 2.37,2.37 C2.28,2.35 2.47,2.58 2.47,2.58 L2.38,2.53 C2.38,2.53 2.23,2.26 2.18,2.35 C2.13,2.44 2.38,2.55 2.38,2.55 L2.47,2.55 C2.47,2.55 2.16,2.4 2.12,2.48 C2.08,2.56 2.55,2.6 2.55,2.6 L2.62,2.65 C2.62,2.65 2.31,2.57 2.35,2.65 C2.39,2.73 2.69,2.71 2.69,2.71 L2.76,2.76 C2.76,2.76 2.45,2.68 2.49,2.76 C2.53,2.84 2.83,2.83 2.83,2.83 L2.9,2.89 C2.9,2.89 2.6,2.81 2.64,2.89 C2.68,2.97 3,3 3,3 L3.09,3.08 C3.09,3.08 2.77,2.97 2.8,3.08 C2.83,3.19 3.19,3.21 3.19,3.21 L3.27,3.29 C3.27,3.29 2.93,3.18 3.03,3.29 C3.13297967,3.36378203 3.25382483,3.40866737 3.38,3.42 L3.48,3.54 C3.48,3.54 3.14,3.34 3.19,3.45 C3.24,3.56 3.57,3.64 3.57,3.64 L3.64,3.72 C3.64,3.72 3.33,3.54 3.36,3.64 C3.39,3.74 3.72,3.84 3.72,3.84 L3.77,3.91 C3.77,3.91 3.41,3.7 3.44,3.8 C3.47,3.9 3.81,3.99 3.81,3.99 L3.81,4.06 C3.81,4.06 3.48,3.87 3.47,3.96 C3.46,4.05 3.86,4.14 3.86,4.14 L4,4 Z" id="Shape"></path>
            </g>
        </g>
    </g>
</svg>