<?xml version="1.0" encoding="utf-8"?>
<!-- Generator: Adobe Illustrator 21.0.0, SVG Export Plug-In . SVG Version: 6.00 Build 0)  -->
<svg version="1.1" id="Layer_1" xmlns="http://www.w3.org/2000/svg" xmlns:xlink="http://www.w3.org/1999/xlink" x="0px" y="0px"
	 viewBox="0 0 200 200" style="enable-background:new 0 0 200 200;" xml:space="preserve">
<style type="text/css">
	.st0{fill:#FF0000;}
	.st1{fill:#FFFFFF;}
</style>
<rect class="st0" width="200" height="200"/>
<path class="st1" d="M189,79.8c1.4-0.1,2.8-0.1,4.3,0c-4.3,8.9-8.4,17.9-12.6,26.9h-3.5c-1.9-4.5-4.2-8.9-6.2-13.4
	c1.4,0,2.7,0,4.2,0c1.2,2.7,2.7,5.4,3.7,8.2C182.3,94.2,185.7,87,189,79.8z"/>
<path class="st1" d="M81.7,83.6c2.7,0,5.5,0,8.2,0c0,2.5,0,4.9,0,7.4c-2.7,0-5.5,0-8.3,0C81.8,88.5,81.7,86.1,81.7,83.6z M40.2,94.1
	c5.6-3.2,13.8-2.1,17.6,3.4c2.4,3.3,3,7.4,2.9,11.3c-6.4,0-12.9,0-19.3,0c0.3,2,1.1,4.1,3,5.1c2.7,1.5,6.7,1.1,8-2
	c2.7-0.1,5.3-0.1,8,0c-0.9,3-3,5.6-5.8,7c-3,1.6-6.6,2-9.9,1.4c-3.5-0.6-6.8-2.6-8.8-5.5c-2.2-3.1-2.7-7.2-2.3-10.9
	C34.1,100,36.6,96.1,40.2,94.1L40.2,94.1z M44.5,98.8c-1.8,0.9-2.7,2.8-3.1,4.7h11c-0.2-1.4-0.8-3-1.9-4C49,98,46.4,98,44.5,98.8z
	 M126.6,92.7c4.5-0.8,9.4,0.2,12.8,3.2c5.8,5.2,6.1,15.2,0.7,20.7c-4.3,4.5-11.5,5.3-16.9,2.7c-4.3-1.9-7.1-6.2-7.6-10.8
	c-0.2-2.7-0.1-5.4,1-7.9C118.2,96.5,122.2,93.5,126.6,92.7L126.6,92.7z M127.6,98.8c-2.4,0.9-3.4,3.3-3.8,5.6
	c-0.3,2.8-0.2,6.1,1.6,8.4c2,2.6,6.3,2.6,8.3,0c1.6-2.1,1.9-4.8,1.7-7.4c-0.1-2.3-0.9-4.6-2.7-6.1C131.3,98.4,129.3,98.2,127.6,98.8
	L127.6,98.8z M156.1,94.2c2.7-2.2,6.6-2.4,9.8-1.1c2.3,0.9,3.9,2.9,4.7,5.2c0.9,2.4,0.7,4.9,0.7,7.4c0,4.7,0,9.5,0,14.1
	c-2.7,0-5.5,0-8.2,0v-16.2c0-1.4-0.6-2.9-1.7-3.8c-1.8-1.2-4.3-0.9-5.8,0.6c-1.2,1.2-1.7,2.9-1.7,4.5v15c-2.7,0-5.4,0-8.1,0
	c0-8.9,0-17.8,0-26.8c2.7,0,5.3,0,8,0c0,1.2,0,2.5-0.1,3.7C154.4,96,155,95,156.1,94.2L156.1,94.2z M7.7,93.2h8.5
	c1.7,5.8,3.6,11.5,5.2,17.2c2-5.7,3.5-11.5,5.4-17.2c2.7,0,5.5,0,8.2,0c-3.1,8.9-6.2,17.8-9.4,26.8c-2.8,0-5.7,0-8.5,0
	C13.9,111.1,10.9,102.1,7.7,93.2z M62.6,93.2h7.9c0,1.5,0,3-0.1,4.5c0.7-0.8,1.1-1.7,1.9-2.4c1.8-2,4.6-2.7,7.2-2.1c0,2.4,0,4.7,0,7
	c-2-0.2-4.3-0.2-6,1.1c-1.8,1.2-2.7,3.6-2.7,5.8c0,4.3,0,8.5,0,12.8c-2.7,0-5.5,0-8.2,0C62.6,111,62.6,102.1,62.6,93.2L62.6,93.2z
	 M81.7,93.2c2.7,0,5.5,0,8.3,0c0,8.9,0,17.8,0,26.8c-2.7,0-5.5,0-8.3,0V93.2z M92.2,93.2c7.5,0,15,0,22.3,0c-0.1,2.1,0,4.1,0,6.2
	c-0.3,0.6-0.8,0.9-1,1.3c-3.8,4.3-7.6,8.6-11.5,12.8c4.4,0.1,8.8,0,13.2,0v6.4c-7.7,0-15.3,0-22.9,0v-6.2c4-4.5,8-9,12-13.4
	c0.1-0.2,0.6-0.5,0.4-0.8c-4.1,0.1-8.2,0-12.4,0.1L92.2,93.2L92.2,93.2z"/>
</svg>
