<?xml version="1.0" encoding="utf-8"?>
<!-- Generator: Adobe Illustrator 21.0.0, SVG Export Plug-In . SVG Version: 6.00 Build 0)  -->
<svg version="1.1" id="Layer_1" xmlns="http://www.w3.org/2000/svg" xmlns:xlink="http://www.w3.org/1999/xlink" x="0px" y="0px"
	 viewBox="0 0 200 200" style="enable-background:new 0 0 200 200;" xml:space="preserve">
<style type="text/css">
	.st0{fill:#CD1309;}
	.st1{fill:#FFFF00;}
</style>
<g>
	<g>
		<g>
			<g>
				<path class="st0" d="M0,0h200v200H0V0z"/>
				<path class="st1" d="M57.8,115.2c0-1.9-0.2-3.6-1-5c-1-1.2-2.7-1.4-5.2-1.4h-5.9v7h1.9c2.8,0,3.3-0.7,3.3-4.3h2.4v11.8H51
					c0-4.1-0.5-5-3.3-5h-1.9v6.1c0,2.2,0.2,2.2,2.4,2.2h2.7v2.8H36.2v-2.8h1.4c1.9,0,2.7-0.2,2.7-2.2c0-14,0,0,0-14
					c0-1.9-0.7-2.2-2.7-2.2h-1.4v-2.7c24.2,0,0,0,24.2,0v9.3L57.8,115.2L57.8,115.2z"/>
				<path class="st1" d="M112.4,122.9h-2.2c0,2.7,0,3.8-1.4,3.8c-0.7,0-1.4-0.7-1.4-2.2c0-0.5,0-1,0-1.2c-0.2-3.3-1-4.7-5-6
					c4.5-0.5,7.1-2.7,7.1-6c0-4.1-2.8-5.7-8.8-5.7H84.4v2.7h1.9c2.2,0,2.4,0.2,2.4,2.2v14c0,1.7-1,2.2-2.4,2.2h-1.7
					c-1.4,0-2.2-0.5-2.8-2.2l-7.6-18.7h-5.7l-8,18.7c-0.7,1.7-1.2,2.2-3.1,2.2h-1v2.8h12.3v-2.8h-2.7c-1.2,0-1.9,0-1.9-0.7
					c0-0.2,0.2-0.7,0.5-1.2l1.2-2.8h9l1.2,2.7c0.2,0.5,0.2,1,0.2,1.2c0,1-0.7,1-1.9,1h-2.7v2.8h26.9v-2.8h-2.2c-2.2,0-2.4,0-2.4-2.2
					v-6.1h2.4c4.1,0,5.2,0.7,5.5,4.7v2.7c0.2,3.3,2.4,4.3,5.7,4.3c2.8,0,4.7-1.7,4.7-6.1C112.4,123.7,112.4,123.2,112.4,122.9z
					 M66.9,119.1l3.8-9l3.6,9H66.9z M99.2,115.7l-5,0.2v-7.4h5c3.3,0,5,1,5,3.6v0.2C104.1,114.7,102.5,115.7,99.2,115.7z"/>
				<path class="st1" d="M133.6,113.4c-1.2-3.6-3.6-5.2-7.4-5.2c-3.8,0-6.9,3.1-6.9,9.3c0,6.1,2.4,9.3,6.9,9.4c3.1,0,6-1.7,6-4.3
					v-1.4c0-1.7-0.2-1.7-2.7-1.7h-1.2v-2.7h11.2v2.7h-1c-1.7,0-1.9,0-1.9,1.9v7.8h-2.2l-1.2-1.9c-2.2,1.7-5.2,2.7-8,2.7
					c-3.3,0-6-1.2-8-3.6c-2.4-2.4-3.8-5.5-3.8-9c0-3.8,1.2-6.6,3.6-9c2.2-2.2,5.2-3.1,8.5-3.1c2.7,0,5.7,0.7,7.4,2.7l1.2-2.7h1.9v8
					L133.6,113.4L133.6,113.4z"/>
				<path class="st1" d="M155.2,129.8c-7.8,0-14-4.7-14-12.3c0-7.4,6.1-12.1,14-12.1s13.8,4.7,13.8,12.3
					C168.9,125.1,163,129.8,155.2,129.8z M163.2,117.7c0-8.5-5.7-9.4-8-9.4c-4.5,0-8,3.3-8,9.4s3.6,9.4,8,9.4
					C157.6,127.3,163.2,126.1,163.2,117.7z"/>
				<path class="st1" d="M117.9,89.5c-0.7,1.4-2.4,1.7-5.2,1.7h-6V75.2c0-1.9,0.5-2.2,2.8-2.2h1.7v-2.8H96.9v2.8h1.2
					c2.2,0,3.3,0,3.3,2.2v14c0,1.9-1,2.2-3.1,2.2h-1.2V94h24.5v-9.5c0,0-2.4,0-2.8,0C118.9,86.7,118.6,88.1,117.9,89.5z"/>
				<path class="st1" d="M86.8,91.1h-7.6v-8h1.7c2.8,0,3.3,0.5,3.6,4.5h2.7V75.7h-2.7c-0.2,3.6-0.7,4.5-3.6,4.5h-1.7v-7.1h6.4
					c4.7,0,6.1,1,6.4,6.4h2.7v-9.2c-24.9,0-1.4,0-23.5,0H59.5v2.8h1.7c1.4,0,1.9,0.2,1.9,1c0,0.5,0,1-0.2,1.9l-4.5,11.8
					c0,0,0,0-0.2,0c-2.2-6-5-12.8-5-12.8c-0.2-0.5-0.2-0.7-0.2-1c0-0.7,0.5-1,1.7-1h1.9v-2.8H43.8V73h1.7c1.9,0,2.7,1,2.8,2.8
					l-4.7,11.8c0,0,0,0-0.2,0c-2.2-6.4-5-13.1-5-13.1c-0.2-0.2,0-0.5,0-0.7c-0.2-0.7,0.5-1,1.9-1h1v-2.8H29.3v2.8h0.5
					c1.7,0,3.1,1,3.8,3.1l7.1,17.8h4.3l5.2-13.1l5.5,13.1h4.3l6.6-18.1c1-2.2,1.4-2.8,3.6-2.8h0.2c2.2,0,3.3,0,3.3,2.2
					c0,14,0,0,0,14c0,1.9-1.2,2.2-3.3,2.2h-1.4v2.7h26.2v-9.4h-2.8C92,89.3,91.1,91.1,86.8,91.1z"/>
				<path class="st1" d="M144.3,84.5c0,2.2-0.2,3.6-1,5c-0.7,1.4-2.4,1.7-5.2,1.7h-5.7V75.2c0-1.9,0.5-2.2,2.7-2.2h1.9v-2.8h-14.5
					v2.8h1.7c1.9,0,2.8,0,2.8,2.2v14c0,1.9-0.7,2.2-2.8,2.2h-0.5V94h23.5v-9.5C147.1,84.5,144.7,84.5,144.3,84.5z"/>
				<path class="st1" d="M171.3,87.2c0,5.5-4.3,7.4-10.4,7.4c-3.8,0-7.6-2.2-8.4-2.8l-1,2.4h-2.3v-9.5h2.8c0.7,4.5,3.8,6.4,8,6.6
					c3.8,0.2,6.4-0.7,6.6-3.3c0.5-3.1-2.8-2.8-5.7-3.3l-4.1-0.7c-6-1.2-8-2.8-8-6.9c-0.2-4.3,3.8-7.1,9-7.1c2.7,0,6,0.5,8.4,2.4
					l1.2-1.9h2.2v8.2H167c-0.5-4.5-5.2-6-9-6c-2.8,0.2-4.5,1.7-4.5,3.6s1.7,2.2,3.8,2.7l5,0.7C167.5,80.4,171.3,81.4,171.3,87.2z"/>
			</g>
		</g>
	</g>
</g>
</svg>
