<?xml version="1.0" encoding="utf-8"?>
<!-- Generator: Adobe Illustrator 21.0.0, SVG Export Plug-In . SVG Version: 6.00 Build 0)  -->
<svg version="1.1" id="Layer_1" xmlns="http://www.w3.org/2000/svg" xmlns:xlink="http://www.w3.org/1999/xlink" x="0px" y="0px"
	 viewBox="0 0 200 200" style="enable-background:new 0 0 200 200;" xml:space="preserve">
<style type="text/css">
	.st0{fill:#FDBB30;}
</style>
<g>
	<title>Layer 1</title>
	<g id="layer1">
		<path id="path2974" class="st0" d="M100.5,67.4c4.7,0,8.5-2.5,9.1-5.7l4.6-52.3c0-5.1-6.1-9.4-13.7-9.4S86.8,4.3,86.8,9.4
			l4.6,52.4C92,65.1,95.8,67.4,100.5,67.4L100.5,67.4"/>
		<path id="path2976" class="st0" d="M72.2,83.8c2.3-4.1,2.1-8.6-0.3-10.6L28.9,43c-4.4-2.7-11.1,0.5-14.9,7
			c-3.8,6.6-3.2,14,1.3,16.5l47.6,22.2C65.8,90,69.9,87.8,72.2,83.8L72.2,83.8"/>
		<path id="path2978" class="st0" d="M128.8,83.8c2.3,4.1,6.4,6.2,9.4,5l47.6-22.2c4.5-2.6,5.1-9.9,1.3-16.5s-10.6-9.7-15-7.2
			L129,73.1C126.7,75.2,126.4,79.7,128.8,83.8L128.8,83.8"/>
		<path id="path2980" class="st0" d="M100.5,132.8c4.7,0,8.5,2.5,9.1,5.5l4.6,52.3c0,5.1-6.1,9.4-13.7,9.4s-13.7-4.3-13.7-9.4
			l4.6-52.3C92,135.1,95.8,132.8,100.5,132.8L100.5,132.8"/>
		<path id="path2982" class="st0" d="M128.8,116.4c2.3-4.1,6.4-6.2,9.4-5l47.6,22.2c4.5,2.6,5.1,9.9,1.3,16.5
			c-3.8,6.5-10.6,9.7-15,7.2l-43-30.2C126.7,125,126.4,120.4,128.8,116.4L128.8,116.4"/>
		<path id="path2984" class="st0" d="M72.2,116.4c2.3,4.1,2.1,8.6-0.3,10.7l-43,30.2c-4.5,2.6-11.2-0.5-15-7.2
			c-3.8-6.6-3.2-14,1.3-16.5l47.6-22.2C65.8,110.2,69.9,112.4,72.2,116.4L72.2,116.4"/>
	</g>
</g>
</svg>
