<?xml version="1.0" encoding="UTF-8"?>
<svg width="34px" height="20px" viewBox="0 0 34 20" version="1.1" xmlns="http://www.w3.org/2000/svg" xmlns:xlink="http://www.w3.org/1999/xlink">
    <!-- Generator: Sketch 49 (51002) - http://www.bohemiancoding.com/sketch -->
    <title>WST</title>
    <desc>Created with Sketch.</desc>
    <defs></defs>
    <g id="Page-1" stroke="none" stroke-width="1" fill="none" fill-rule="evenodd">
        <g id="WST" fill-rule="nonzero">
            <rect id="Rectangle-path" fill="#BC0030" x="0" y="0" width="33.56" height="19.58"></rect>
            <rect id="Rectangle-path" fill="#1C2A7D" x="0" y="0" width="17.93" height="8.97"></rect>
            <polygon id="Shape" fill="#FFFFFF" points="8.97 6.22 9.74 8.59 7.72 7.13 10.21 7.13 8.2 8.59"></polygon>
            <polygon id="Shape" fill="#FFFFFF" points="6.23 2.62 6.84 4.51 5.23 3.34 7.22 3.34 5.61 4.51"></polygon>
            <polygon id="Shape" fill="#FFFFFF" points="11.77 2.24 12.35 4.02 10.84 2.92 12.7 2.92 11.19 4.02"></polygon>
            <polygon id="Shape" fill="#FFFFFF" points="8.97 0.38 9.58 2.27 7.97 1.1 9.96 1.1 8.35 2.27"></polygon>
            <polygon id="Shape" fill="#FFFFFF" points="10.34 4.54 10.72 5.73 9.71 5 10.96 5 9.95 5.73"></polygon>
        </g>
    </g>
</svg>