<?xml version="1.0" encoding="UTF-8"?>
<svg width="34px" height="20px" viewBox="0 0 34 20" version="1.1" xmlns="http://www.w3.org/2000/svg" xmlns:xlink="http://www.w3.org/1999/xlink">
    <!-- Generator: Sketch 49 (51002) - http://www.bohemiancoding.com/sketch -->
    <title>ZAR</title>
    <desc>Created with Sketch.</desc>
    <defs></defs>
    <g id="Page-1" stroke="none" stroke-width="1" fill="none" fill-rule="evenodd">
        <g id="ZAR" fill-rule="nonzero">
            <rect id="Rectangle-path" fill="#FFFFFF" x="0" y="0" width="33.56" height="19.58"></rect>
            <g id="Group">
                <polygon id="Shape" fill="#D03033" points="5.88 0 15.67 6.52 33.56 6.52 33.56 0"></polygon>
                <polygon id="Shape" fill="#FFFFFF" points="17.63 7.83 33.56 7.83 33.56 6.52 15.67 6.52"></polygon>
                <polygon id="Shape" fill="#FFFFFF" points="15.67 13.05 33.56 13.05 33.56 11.75 17.63 11.75"></polygon>
                <polygon id="Shape" fill="#1F189B" points="15.67 13.05 5.88 19.58 33.56 19.58 33.56 13.05"></polygon>
                <polygon id="Shape" fill="#000000" points="0 6.52 3.9 6.52 0 3.92"></polygon>
                <polygon id="Shape" fill="#000000" points="0 6.52 0 13.05 3.9 13.05 8.8 9.79 3.9 6.52"></polygon>
                <polygon id="Shape" fill="#000000" points="0 13.05 0 15.66 3.9 13.05"></polygon>
                <polygon id="Shape" fill="#F2B126" points="0 3.92 8.8 9.79 0 15.66 0 17.22 11.15 9.79 0 2.35"></polygon>
                <polygon id="Shape" fill="#32784C" points="0 0 0 2.35 11.15 9.79 0 17.22 0 19.58 3.53 19.58 15.28 11.75 33.56 11.75 33.56 7.83 15.28 7.83 3.53 0"></polygon>
            </g>
        </g>
    </g>
</svg>