<?xml version="1.0" encoding="UTF-8"?>
<svg width="100px" height="67px" viewBox="0 0 100 67" version="1.1" xmlns="http://www.w3.org/2000/svg" xmlns:xlink="http://www.w3.org/1999/xlink">
    <!-- Generator: Sketch 49 (51002) - http://www.bohemiancoding.com/sketch -->
    <title>ZMK</title>
    <desc>Created with Sketch.</desc>
    <defs></defs>
    <g id="Page-1" stroke="none" stroke-width="1" fill="none" fill-rule="evenodd">
        <g id="ZMK" fill-rule="nonzero">
            <rect id="Rectangle-path" fill="#198A00" x="0" y="0" width="100" height="66.6666667"></rect>
            <rect id="Rectangle-path" fill="#EF7D00" x="88.0952381" y="23.8095238" width="11.9047619" height="42.8571429"></rect>
            <rect id="Rectangle-path" fill="#000000" x="76.1904762" y="23.8095238" width="11.9047619" height="42.8571429"></rect>
            <rect id="Rectangle-path" fill="#DE2010" x="64.2857143" y="23.8095238" width="11.9047619" height="42.8571429"></rect>
            <g id="Group" stroke-linecap="round" stroke-linejoin="round" transform="translate(66.380952, 5.666667)" fill="#EF7D00" stroke="#000000" stroke-width="2.25">
                <path d="M24.8773571,2.34925714 C24.8773571,2.34925714 28.9726905,0.744214286 29.3694905,0.413261905 C29.5499476,0.61182381 27.7277571,2.6305619 24.1917905,3.37517667 C27.4030143,2.6802 30.1452905,0.495990476 30.7045571,0.562180952 C30.8669333,0.59527619 30.8307667,2.69674286 23.4701476,4.51691286 C28.5576238,3.29242714 31.5163381,1.04204286 31.4802619,1.29024762 C31.5163381,1.33988571 30.9751524,3.06077238 26.5190857,4.40107762 C27.7639238,4.1362881 31.1375286,2.24997143 31.1014524,2.61401429 C31.2096714,2.76293333 27.8360714,6.73418143 21.738281,5.44357238 C26.6093143,6.60183762 29.7663857,3.80538762 30.2174333,3.85503048 C30.3076619,3.87157571 29.3153381,6.30397857 23.1815619,6.4529081 C26.1222857,6.17163476 25.2742524,6.43632667 25.2742524,6.43632667 C25.2742524,6.43632667 23.5422905,7.67734571 21.4496048,6.83352476 C23.0913333,7.24722762 23.2716952,7.26372762 23.3077762,7.3960719 C23.1995524,7.5615019 21.8464952,7.80977429 20.5475952,7.16438476 C21.5938952,7.5615019 22.5320619,7.62775905 22.5500571,7.77668857 C22.5320619,7.82627476 21.8645762,8.17380571 21.2692381,7.9256181 C20.6738952,7.67734571 15.1894381,4.58310143 15.1894381,4.58310143 L24.534619,2.23342857 L24.8773571,2.34925714 Z" id="Shape"></path>
                <path d="M13.8910762,10.7192976 C13.0693143,10.7192976 13.0466381,11.3900133 13.0466381,11.3900133 C13.0466381,11.3900133 12.9788143,11.4384457 13.0240571,11.7635338 C13.159719,11.5421629 13.2276381,11.4730176 13.2276381,11.4730176 C13.3181333,11.4868814 13.6950571,11.5905948 14.2906667,11.1618743 C13.7477714,11.6804486 14.0720667,11.8740962 14.0720667,11.8740962 C14.0720667,11.8740962 13.9438857,12.2821043 14.3585,12.3651086 C14.2303952,12.1990995 14.305781,12.0538838 14.305781,12.0538838 C14.305781,12.0538838 14.8862762,11.9986029 14.8485905,11.3485962 C14.8712571,11.9363071 15.2180429,12.0815224 15.2180429,12.0815224 C15.2180429,12.0815224 15.2180429,12.4065257 15.5949667,12.4342495 C15.3914857,12.2682405 15.4366381,12.0123819 15.4366381,12.0123819 C15.4366381,12.0123819 15.9267286,11.6873781 15.5120286,11.1341548 C15.7608476,11.0027138 15.9644238,10.6362933 15.9644238,10.6362933 C15.9644238,10.6362933 15.6251952,10.5048562 15.4668667,10.3942938 C15.3913905,10.2489933 15.4593143,9.45377095 15.4593143,9.45377095 L15.2557333,8.42339476 L14.6751476,10.0277886 C14.6977238,9.79956429 14.7128429,10.7192976 13.8910762,10.7192976 Z" id="Shape"></path>
                <path d="M17.9497048,8.40540762 C17.9676952,8.42199333 18.5631238,9.03429286 19.1403905,9.00112571 C19.3568238,8.8356919 18.6893381,8.47166476 18.6893381,8.38890714 C18.9238571,8.58750429 19.9160952,9.36515667 20.5475952,9.08387952 C20.8001048,8.75293857 20.0965476,8.80260571 19.3207524,7.90903238 C19.8619381,8.23997762 21.2150857,8.96804 21.8464952,8.68676619 C22.1171762,8.42199333 20.4392857,7.59458762 19.880019,6.94928286 L18.4368286,6.27089238 L16.4703476,7.74360238 L17.9497048,8.40540762 Z" id="Shape"></path>
                <path d="M15.7307095,3.3751681 C15.7307095,3.3751681 16.3982,3.01113714 19.0682381,3.19315286 C19.3569143,3.22623857 20.8903381,2.71329524 21.3774571,2.56437143 C22.1531619,2.43199524 24.6247571,1.93558095 25.2923286,1.4722619 C25.7613714,1.42262857 25.1659381,2.26652381 24.5706952,2.46508095 C23.9391857,2.72983952 21.6480524,3.45790571 20.8361762,3.35862333 C21.8104238,3.37517667 21.2692381,4.10323429 19.6455,3.75574857 C20.4212952,4.15287381 20.132619,4.2190619 20.132619,4.2190619 C20.132619,4.2190619 18.7615714,4.28525 18.4007524,4.00395238 C19.3208429,4.3183481 18.9419381,4.4341719 18.9419381,4.4341719 C18.9419381,4.4341719 18.0038619,4.51690476 17.5708,4.33488905 C18.2382905,4.51690476 17.8955476,4.63274 17.8955476,4.63274 C17.8955476,4.63274 17.3543619,4.71547333 16.9033143,4.5665519 C16.4523524,4.41763048 15.7667857,3.3751681 15.7307095,3.3751681 Z" id="Shape"></path>
                <path d="M16.8013048,8.7483981 L16.8993571,10.3665705 C16.8993571,10.3665705 16.8465524,10.4495752 16.8013048,10.4980076 C16.7560524,10.5463586 15.549719,10.3250686 15.7156,11.1687229 C15.7156,11.5145205 15.7231571,11.6043733 15.9795381,11.7980214 C15.911619,11.569801 15.9342905,11.4108067 15.9342905,11.4108067 C15.9342905,11.4108067 16.273519,11.5975248 16.6052857,11.0858033 C16.3791286,11.5905948 16.5373619,11.7703829 16.5901714,11.7842424 C16.6429762,11.8741771 16.4997619,12.2821043 16.9520714,12.2751743 C16.7787238,12.1230248 16.8616619,11.9017343 16.8616619,11.9017343 C16.8616619,11.9017343 17.3366429,11.8326748 17.1707571,11.0443014 C17.3441952,10.8852219 17.4120238,11.037371 17.4120238,11.037371 C17.4120238,11.037371 17.4647429,11.50759 17.8794476,11.4108067 C18.068,11.50759 17.8493143,11.7634486 17.8493143,11.7634486 C17.8493143,11.7634486 18.1508476,11.7703829 18.2413476,11.535229 C18.3318476,11.30016 18.4373667,10.8782919 17.939719,10.7054338 C17.8794476,10.53951 18.1358286,10.5256457 18.1358286,10.5256457 C18.1358286,10.5256457 18.4524762,10.622429 18.5428857,10.767649 C18.6333857,10.9128643 18.6032476,10.38736 18.2112095,10.3319981 C17.7286762,10.3181386 17.6985429,10.2282852 17.6985429,10.2075724 C17.6985429,10.1867829 17.6156,9.03198429 17.5779095,8.70004667 L16.8013048,8.7483981 Z" id="Shape"></path>
                <path d="M18.4794667,10.1273743 C18.4854,10.0531995 17.6563524,9.02934333 17.8666714,8.89699952 C18.0769,8.93668333 18.4217095,9.40236619 18.7010286,9.25120905 C18.6163762,9.0696919 18.3668381,9.17191857 18.0834714,8.7072281 C17.8001952,8.18189 17.7588143,7.39326905 16.7665762,6.53302476 C17.4089667,7.44334952 18.8661952,7.9769381 18.9279095,7.71150476 C18.989619,7.44607143 17.6447476,6.44234905 17.7136571,6.20043143 C17.9811,6.69721952 19.3314571,7.80416476 20.3263905,7.71249714 C20.394581,7.49937571 19.5116429,7.06925381 19.2844095,6.66760048 C18.6488571,6.27600762 16.948019,4.93131619 16.9139286,4.61945571 C16.295019,3.79152381 15.9086524,3.54106 15.7287333,3.44570238 C15.6591952,3.37057952 15.6417476,3.29876143 15.6281619,3.25310333 C15.2439524,2.42234286 15.7528429,2.15257619 16.0506952,2.11268571 C16.2958286,2.0877 16.3669857,2.12135714 16.5433952,2.04300952 C16.3345095,1.9680619 16.125719,1.89797143 15.9169238,1.82302381 C16.1892286,2.00622381 16.8847857,1.84493333 16.7340143,2.37261429 C17.0389714,2.26619524 17.6878381,1.5581381 15.9986048,1.39834286 C15.4488762,0.819904762 13.188681,0.48747619 12.6229429,3.01205238 C12.6681,3.04744714 12.6917571,3.07653143 12.8355143,3.17499952 C12.1217857,2.85769571 10.196419,2.61300952 9.50257143,2.51018095 C7.62811905,2.01414286 5.68142381,0.818757143 5.49429524,0.965766667 C5.24400952,1.06765714 6.6268381,2.24764286 6.5549619,2.2737619 C5.3559381,1.6325381 4.26058571,1.17824286 3.24137143,0.764842857 C2.52435238,0.519009524 1.80618571,-0.053347619 1.72699524,0.0555333333 C1.46310952,0.55692381 2.87654762,1.81725238 3.1394619,1.96550952 C3.40245714,2.10732857 5.47028095,2.98709952 5.43979048,2.99808333 C2.32525714,1.70147619 1.80307143,1.46641429 1.64678095,1.31691905 C1.37227143,1.26020952 0.703571429,0.432095238 0.517214286,0.485347619 C0.415190476,0.577280952 0.619814286,1.88576667 2.10601429,2.47312857 C2.34825714,2.6350619 5.29174286,3.60356238 5.26291905,3.67949571 C5.25571905,3.69847095 1.89157619,2.40598095 1.7609,2.35977143 C1.11228571,2.12649048 0.316414286,1.30879048 0.16762381,1.40074286 C0.0256142857,1.48418095 0.534514286,2.3692381 1.18992381,2.64682857 C1.5334619,2.78587762 2.8512,3.3845 4.03842381,3.76550095 C4.11419524,3.79063286 1.9044,2.99689667 0.841957143,2.58968571 C0.360233333,2.3444619 0.133380952,2.0388 0.0600047619,2.10456667 C-0.0485333333,2.17032381 0.235357143,3.47775952 3.6495381,4.21549762 C3.73949048,4.25061286 4.8513381,3.9739119 4.79638571,4.01061095 C4.7826381,4.01978857 3.69230476,4.23750238 3.58614286,4.23006238 C3.4916619,4.21682619 2.89433333,4.2949219 2.88352857,4.32331381 C2.8474381,4.41175381 3.09994762,4.87989476 4.86277143,4.78226952 C5.08813333,4.76984333 6.31111905,4.37377524 6.20837143,4.45897476 C6.15699524,4.50159905 4.543,4.9826281 4.42008095,4.99211762 C4.31331905,5.00595333 3.74632381,5.06033524 3.7253619,5.11564857 C3.6997619,5.19108762 4.14504286,5.5242681 5.09172381,5.57764952 C5.92991429,5.6184919 7.52262381,5.10790048 7.49067619,5.14100286 C7.45871905,5.17410095 5.95525714,5.64662857 5.91591429,5.67542524 C5.86151429,5.70364333 5.31097143,5.73103429 5.29164762,5.76981524 C5.24678571,5.86627048 6.08580952,6.58591619 8.56719048,5.81791905 C8.31791429,6.12675048 7.11514762,6.33797571 7.11687619,6.39358476 C7.1113,6.43393286 7.3818619,6.67370429 7.80236667,6.75951571 C8.01260476,6.80241952 8.30046667,6.79367095 8.56340952,6.75555429 C9.03569524,6.66883571 9.53342857,6.49746429 10.1658286,5.96140143 C10.2414,6.1296381 8.58608095,6.89796286 8.66380476,6.97123143 C9.0227381,7.27651857 10.2150429,6.93187571 10.2931238,6.89185952 C10.3712952,6.85175857 12.5891143,5.70471619 12.5814667,5.57195905 C12.6159238,5.74209143 9.7221619,7.18427095 9.75337619,7.24343238 C9.9391381,7.51529714 10.9276857,7.22915524 10.9749095,7.20415762 C11.0220524,7.17923667 12.236481,6.5775 12.2697619,6.55976 C12.3029619,6.54202048 10.8424952,7.34376381 10.9725762,7.46579143 C10.9096952,7.98642762 13.2534571,7.10646714 13.4371476,6.99689333 C13.5289952,6.94210619 12.3112333,7.48798667 12.3079952,7.74731238 C12.7001286,8.3554081 13.9557571,8.16250143 14.1494333,8.0287519 C14.246319,7.96183905 14.0354571,8.48049 14.1033762,8.4333781 C14.1270381,8.4236419 14.3764905,8.15309286 14.4723857,7.95729857 C14.4417952,8.12718762 14.3041619,8.39484476 14.2238286,8.70194619 C14.1434095,9.00904429 14.1203762,9.35558238 14.0100048,9.72374048 C13.984719,9.88545667 14.7837286,9.40756667 14.667681,8.26514143 C14.7360524,8.85937333 14.4153524,9.97052667 14.4992762,10.0282824 C14.6671429,10.1437943 15.1312333,9.47489286 15.1781,9.02257571 C15.315919,9.25104286 15.6051333,9.72794857 15.8539571,9.83768429 C15.826881,9.49205333 15.8587238,9.5078981 15.7467286,9.16820429 C15.8113143,8.71721143 15.8203143,8.09302857 15.8359619,7.38823476 C16.5120905,8.5762 16.781781,9.07785667 16.5928714,9.98760667 C16.7939238,10.0645033 17.1150714,9.35261381 17.0891667,8.98618857 C17.3473476,10.0043538 18.4617429,10.1569976 18.4794667,10.1273743 Z" id="Shape"></path>
                <path d="M7.21785238,2.58512381 C7.21785238,2.58512381 6.75764762,2.9040381 6.1849619,2.88528571 C6.32813333,3.41055476 7.51442381,3.00722476 7.51442381,3.00722476 C7.51442381,3.00722476 6.94173333,3.58877524 6.53267143,3.68256952 C6.77810952,3.87016619 7.81100476,3.80451286 7.98489048,3.71071429 C8.15869524,3.6169119 8.46553333,3.25109905 8.46553333,3.25109905 C8.46553333,3.25109905 7.40193333,4.37667905 7.2485381,4.36730667 C7.22808095,4.49862238 8.36325714,4.45172095 8.59849524,4.2547481 C8.83364762,4.05776714 9.42682857,3.76699571 9.42682857,3.76699571 C9.42682857,3.76699571 7.87235714,4.76125667 7.80074762,4.76125667 C8.38368095,4.90196048 9.54953333,4.59241667 10.2960905,4.17032571 C9.19158571,4.84567905 9.08939524,4.96761 8.52688571,5.19272762 C9.02804286,5.29591429 9.28361429,5.6054581 10.9813,4.93009333 C11.9528429,4.50801095 12.5050048,3.73885143 12.5050048,3.73885143 C11.9016571,4.47986571 10.9505381,5.10836238 9.89730952,5.72740524 C9.83586667,5.8399481 11.0221381,6.29952333 12.535681,4.85505905" id="Shape"></path>
                <path d="M15.4400619,5.71800095 C15.4400619,5.71800095 15.5423381,6.1588481 15.9513762,6.49655667 C16.3605095,6.83418476 16.3911857,7.16248952 16.3911857,7.16248952" id="Shape"></path>
                <path d="M15.2355857,2.84776857 C15.2355857,2.84776857 15.3787095,3.24171476 15.798,3.49497714 C16.2275524,3.74823143 16.871919,4.54551952 16.9230143,4.68621476 C16.9724905,4.85650524 17.2195143,6.08384619 17.1991,6.21511714" id="Shape"></path>
                <path d="M12.6278,3.4574519 C12.6584714,3.60752762 12.0243619,4.36730667 12.8936238,5.25838905 C12.1061333,6.14003476 12.1062238,6.25265857 12.1062238,6.25265857 C12.1062238,6.25265857 12.5459333,6.47774381 13.3334238,5.85867619 C14.6321476,7.32197762 14.1993619,7.99162429 14.1993619,7.99162429" id="Shape"></path>
                <path d="M14.0959095,6.95860667 C14.0959095,6.95860667 13.9762667,6.80142667 14.1895571,6.21445714 C14.3816143,6.42667095 14.5951762,6.4719681 14.6888238,6.55786095 C14.7823762,6.64375286 15.7630095,6.77395429 15.8253476,7.37503095" id="Shape"></path>
                <path d="M22.2794667,3.22624667 C22.3155381,3.24278762 24.4804619,3.67301524 25.2021095,3.45790571 C24.282019,4.58310143 22.4418381,3.82193667 22.4418381,3.82193667 C23.3438429,4.07014048 23.3800095,4.05359952 23.6685905,4.28525 C23.758819,4.50036 22.0088714,4.40107762 21.431519,4.10323429 C23.037181,4.5665519 23.0732571,4.5334581 23.1274048,4.71547333 C23.1996476,4.96367714 20.4934429,4.64928143 20.258919,4.3183481 C20.9805619,4.83130524 21.3774571,4.93059143 21.7743524,5.1622419 C21.2872333,5.36081095 20.385219,5.55933476 18.7254095,4.48381857 C20.9083238,6.30397857 22.8748095,6.18813905 23.1815619,6.51908 C22.4238476,7.54500143 19.4831238,5.90686524 18.1300667,5.07950048 C16.7770143,4.25215571 21.088781,7.08171238 21.4857667,7.03204095 C21.2872333,7.31331429 19.8620286,7.06512667 19.7717952,6.93278286" id="Shape"></path>
                <path d="M6.5838,2.28497619 C6.5838,2.28497619 8.2303,3.08225857 8.92567143,3.02598143 C8.74161905,3.18543714 8.46544762,3.25109905 8.46544762,3.25109905 C8.6393381,3.31676048 9.11998095,3.5512581 9.84611905,3.40117476 C9.67223333,3.56063048 9.44724762,3.73885905 9.44724762,3.73885905 C9.44724762,3.73885905 10.0711048,3.95458857 10.7767333,3.6169119 C10.5620048,3.8607819 10.4392095,4.03901048 10.4392095,4.03901048 L10.9301143,4.06714714" id="Shape"></path>
            </g>
        </g>
    </g>
</svg>