<?xml version="1.0" encoding="UTF-8"?>
<svg width="34px" height="20px" viewBox="0 0 34 20" version="1.1" xmlns="http://www.w3.org/2000/svg" xmlns:xlink="http://www.w3.org/1999/xlink">
    <!-- Generator: Sketch 49 (51002) - http://www.bohemiancoding.com/sketch -->
    <title>ZMW</title>
    <desc>Created with Sketch.</desc>
    <defs></defs>
    <g id="Page-1" stroke="none" stroke-width="1" fill="none" fill-rule="evenodd">
        <g id="ZMW" fill-rule="nonzero">
            <rect id="Rectangle-path" fill="#3E8B11" x="0" y="0" width="33.56" height="19.58"></rect>
            <rect id="Rectangle-path" fill="#DF7A21" x="29.62" y="8.04" width="3.94" height="11.54"></rect>
            <rect id="Rectangle-path" fill="#000000" x="25.69" y="8.03" width="3.93" height="11.54"></rect>
            <rect id="Rectangle-path" fill="#CB0423" x="21.67" y="8.04" width="4.02" height="11.54"></rect>
            <g id="Group" transform="translate(16.000000, 1.000000)">
                <path d="M14.92,1.87 C14.92,1.87 16.4,1.24 16.55,1.11 C16.1203539,1.7518039 15.4355706,2.17797226 14.67,2.28 C15.4760994,1.97127092 16.2554006,1.59667121 17,1.16 C17.06,1.16 17,2 14.38,2.72 C15.3964745,2.42098213 16.3709173,1.99424338 17.28,1.45 C17.28,1.45 17.09,2.15 15.49,2.68 C15.94,2.58 17.16,1.83 17.15,1.98 C16.3584032,3.00930799 15.0177152,3.44959313 13.77,3.09 C14.8364264,3.3063171 15.9449564,3.07883374 16.84,2.46 C16.84,2.46 16.51,3.46 14.29,3.46 C15.36,3.35 15.05,3.46 15.05,3.46 C14.6485499,3.74820635 14.1267442,3.80870556 13.67,3.62 C14.27,3.78 14.33,3.79 14.34,3.84 C14.0113729,3.97108715 13.6399401,3.9376582 13.34,3.75 C13.72,3.91 14.06,3.93 14.06,3.99 C13.9240587,4.08945101 13.7465661,4.11210965 13.59,4.05 C13.38,3.95 11.39,2.73 11.39,2.73 L14.77,1.8 L14.92,1.87 Z" id="Shape" fill="#DF7A21"></path>
                <path d="M13.79,4.13 C13.7307407,4.14333333 13.6692593,4.14333333 13.61,4.13 C13.4,4.03 11.49,2.86 11.41,2.81 C11.41,2.81 11.41,2.81 11.41,2.81 L14.79,1.88 L14.93,1.88 C15.42,1.66 16.42,1.22 16.53,1.12 C16.4424302,1.30477874 16.3079632,1.46338091 16.14,1.58 L16.46,1.39 C16.6221401,1.27029885 16.8053133,1.18210437 17,1.13 C17,1.13 17,1.13 17,1.13 C17,1.13 16.93,1.45 16.61,1.72 L17,1.49 C17.15,1.4 17.2,1.37 17.23,1.37 C17.1477122,1.59379087 16.9973247,1.78614703 16.8,1.92 C16.8755616,1.88151093 16.9564573,1.85454568 17.04,1.84 L17.04,2 C16.9340222,2.17815243 16.7948382,2.33431012 16.63,2.46 L16.69,2.46 C16.69,2.46 16.69,2.46 16.69,2.46 C16.69,2.46 16.34,3.21 14.94,3.46 C14.94,3.46 14.94,3.46 14.88,3.52 C14.651122,3.68264638 14.3804503,3.77634041 14.1,3.79 C14.16,3.79 14.18,3.79 14.19,3.86 C14.2,3.93 14.03,3.96 13.87,3.97 C13.87,3.97 13.87,3.97 13.87,3.97 C13.87,3.97 13.7,4.1 13.55,4.1 L13.79,4.13 Z M11.49,2.75 C11.81,2.95 13.49,3.95 13.63,4.04 C13.7726578,4.08705618 13.9284695,4.07256207 14.06,4 L13.86,4 C13.6802618,3.97836592 13.506771,3.92053566 13.35,3.83 C13.35,3.83 13.35,3.83 13.35,3.83 C13.5123609,3.89336679 13.6795702,3.94352956 13.85,3.98 C14.0082431,4.00810261 14.171211,3.9907656 14.32,3.93 L14.06,3.86 C13.9221896,3.84216503 13.7875516,3.80513958 13.66,3.75 L14.06,3.86 L14.2,3.86 C14.5021547,3.81429896 14.7821464,3.67430313 15,3.46 C14.79,3.46 14.56,3.46 14.32,3.51 C14.32,3.51 14.32,3.51 14.32,3.51 C14.64,3.51 14.87,3.46 15,3.46 C16.46,3.27 16.83,2.61 16.84,2.52 C16.7802448,2.57583489 16.7129154,2.62296546 16.64,2.66 L16.22,2.89 C16.0041438,3.00265641 15.7759535,3.08990563 15.54,3.15 C14.97099,3.30967743 14.36901,3.30967743 13.8,3.15 C13.8,3.15 13.8,3.15 13.8,3.15 C14.3618672,3.28617177 14.9481328,3.28617177 15.51,3.15 C15.7412612,3.08534024 15.9656586,2.99826068 16.18,2.89 C16.5780608,2.71149119 16.9227224,2.4323153 17.18,2.08 C17.0006501,2.14227045 16.8267297,2.2191968 16.66,2.31 C16.3966826,2.46942346 16.1187569,2.60336351 15.83,2.71 L15.55,2.81 L15.83,2.71 C16.04,2.62 16.29,2.5 16.52,2.38 L16.65,2.32 C17.19,1.98 17.32,1.68 17.33,1.62 C17.2750117,1.66988072 17.2146397,1.71348275 17.15,1.75 C16.96,1.87 16.64,2.05 16.22,2.26 C15.7883177,2.48278716 15.3362439,2.66361668 14.87,2.8 L14.47,2.91 L14.87,2.8 C15.3173792,2.56800167 15.7454196,2.30047638 16.15,2 C16.98,1.55 17.03,1.18 17.01,1.14 C16.840959,1.2128873 16.6800704,1.30338714 16.53,1.41 C16.28,1.56 15.97,1.75 15.61,1.93 C15.3144549,2.07713147 15.0021826,2.18793778 14.68,2.26 C14.9977158,2.18365289 15.3061935,2.07300328 15.6,1.93 C15.9630585,1.76307249 16.2791317,1.50883972 16.52,1.19 C16.21,1.37 15,1.89 14.95,1.91 L14.8,1.91 L11.5,2.82 L11.49,2.75 Z" id="Shape" fill="#000000"></path>
                <path d="M10.95,5.17 C10.8740473,5.16451892 10.7991383,5.19020957 10.7425363,5.2411514 C10.6859342,5.29209322 10.6525221,5.36389153 10.65,5.44 C10.65,5.44 10.65,5.44 10.65,5.58 L10.73,5.47 C10.8684395,5.49132144 11.0089129,5.44696141 11.11,5.35 C10.91,5.56 11.03,5.63 11.03,5.63 C11.03,5.63 11.03,5.79 11.13,5.83 C11.1104342,5.79239264 11.1104342,5.74760736 11.13,5.71 C11.194068,5.70023461 11.2514635,5.66497384 11.2891324,5.61223741 C11.3268013,5.55950099 11.3415413,5.49377204 11.33,5.43 C11.33,5.66 11.46,5.72 11.46,5.72 C11.46,5.79731986 11.5226801,5.86 11.6,5.86 C11.5541466,5.81607153 11.5318784,5.75297847 11.54,5.69 C11.5883386,5.64463333 11.6157593,5.58129295 11.6157593,5.515 C11.6157593,5.44870705 11.5883386,5.38536667 11.54,5.34 C11.6075707,5.28608928 11.6622368,5.2177567 11.7,5.14 C11.63551,5.09941201 11.5752136,5.05251485 11.52,5 C11.507834,4.87696669 11.507834,4.75303331 11.52,4.63 L11.45,4.22 L11.24,4.86 C11.2298094,5.00853031 11.1088026,5.1252154 10.96,5.13 L10.95,5.17 Z" id="Shape" fill="#DF7A21"></path>
                <path d="M11.56,5.88 C11.4737633,5.8750603 11.4049397,5.80623666 11.4,5.72 C11.4,5.72 11.33,5.72 11.29,5.59 C11.2574175,5.66401121 11.1897543,5.71663815 11.11,5.73 C11.1077264,5.7566182 11.1077264,5.7833818 11.11,5.81 C11.0695973,5.81103821 11.0302987,5.79674778 11,5.77 C10.9821803,5.72503445 10.9821803,5.67496555 11,5.63 C11,5.63 11,5.63 11,5.56 C10.9902262,5.52398465 10.9902262,5.48601535 11,5.45 C10.9145335,5.47039766 10.8254665,5.47039766 10.74,5.45 L10.68,5.55 C10.68,5.55 10.68,5.55 10.68,5.55 C10.68,5.55 10.68,5.39 10.68,5.38 C10.6847914,5.29915362 10.7231716,5.22399413 10.7858531,5.17270932 C10.8485345,5.12142451 10.9298057,5.09868735 11.01,5.11 C11.1443151,5.10584791 11.2551331,5.00355435 11.27,4.87 L11.48,4.25 L11.55,4.66 C11.5366176,4.78297032 11.5366176,4.90702968 11.55,5.03 L11.72,5.11 C11.72,5.11 11.72,5.11 11.72,5.11 C11.6786845,5.17973079 11.6282383,5.24362935 11.57,5.3 C11.6616718,5.40249224 11.6616718,5.55750776 11.57,5.66 C11.5720383,5.70463482 11.5897419,5.74712343 11.62,5.78 L11.56,5.88 Z M11.29,5.4 C11.29,5.4 11.29,5.4 11.29,5.4 C11.2817787,5.50449996 11.3269239,5.60607663 11.41,5.67 C11.41,5.67 11.41,5.74 11.46,5.78 C11.4542021,5.74356253 11.4542021,5.70643747 11.46,5.67 C11.5040416,5.62843664 11.5290033,5.57055722 11.5290033,5.51 C11.5290033,5.44944278 11.5040416,5.39156336 11.46,5.35 C11.46,5.35 11.46,5.35 11.46,5.35 C11.518275,5.30806005 11.5661668,5.25332655 11.6,5.19 C11.5436748,5.16566015 11.4900498,5.13549607 11.44,5.1 C11.420079,4.97076316 11.420079,4.83923684 11.44,4.71 L11.39,4.42 L11.22,4.94 C11.2053805,5.10304835 11.0734399,5.23073275 10.91,5.24 C10.840382,5.23154695 10.7704145,5.25272355 10.7171684,5.29836312 C10.6639222,5.34400268 10.6322939,5.40990819 10.63,5.48 C10.6261619,5.4964457 10.6261619,5.5135543 10.63,5.53 L10.72,5.53 C10.8288292,5.52165477 10.9313609,5.47569228 11.01,5.4 C10.92,5.5 10.9,5.56 10.9,5.59 C10.9,5.62 10.9,5.64 10.9,5.64 C10.9,5.64 10.9,5.74 10.9,5.78 C10.8948333,5.75695269 10.8948333,5.73304731 10.9,5.71 C11.0247324,5.68952343 11.1122031,5.57581157 11.1,5.45 L11.29,5.4 Z" id="Shape" fill="#000000"></path>
                <path d="M12.42,4.26 C12.42,4.26 12.64,4.51 12.85,4.49 C13.06,4.47 12.69,4.28 12.69,4.25 C12.69,4.22 13.14,4.64 13.36,4.53 C13.58,4.42 13.19,4.41 12.91,4.07 C13.11,4.2 13.59,4.49 13.82,4.38 C14.05,4.27 13.31,3.95 13.11,3.69 L12.58,3.42 L11.88,4 L12.42,4.26 Z" id="Shape" fill="#DF7A21"></path>
                <path d="M13.24,4.58 C13.1136035,4.56965437 12.9925031,4.52467422 12.89,4.45 L12.89,4.5 C12.7157279,4.4850128 12.5542265,4.40246765 12.44,4.27 L11.87,4 C11.87,4 11.87,4 11.87,4 L12.58,3.42 L13.13,3.69 C13.2492964,3.82179693 13.3835336,3.93925454 13.53,4.04 C13.73,4.2 13.86,4.29 13.87,4.37 L13.87,4.42 C13.65,4.53 13.33,4.36 13.1,4.22 C13.1644772,4.28021711 13.234829,4.33381847 13.31,4.38 C13.38,4.38 13.42,4.45 13.43,4.49 C13.4411313,4.51550505 13.4411313,4.54449495 13.43,4.57 C13.3874919,4.5819596 13.3425081,4.5819596 13.3,4.57 L13.24,4.58 Z M12.68,4.22 C12.74,4.28 13.12,4.59 13.32,4.49 C13.32,4.49 13.32,4.42 13.23,4.39 C13.0902376,4.307889 12.9679306,4.19917168 12.87,4.07 C12.97,4.13 13.54,4.48 13.76,4.37 C13.76,4.31 13.59,4.19 13.44,4.07 C13.2925119,3.97057554 13.1581227,3.85298495 13.04,3.72 L12.53,3.46 L11.93,4 L12.42,4.24 C12.5207197,4.36300351 12.6630262,4.44482973 12.82,4.47 C12.82,4.47 12.76,4.38 12.71,4.35 C12.66,4.32 12.64,4.29 12.64,4.26 L12.68,4.22 Z" id="Shape" fill="#000000"></path>
                <path d="M11.61,2.27 C12.0013362,2.14695055 12.4170849,2.12289898 12.82,2.2 C13.104617,2.15448117 13.3854085,2.08762605 13.66,2 C14.1468675,1.91930909 14.6209593,1.7747279 15.07,1.57 C15.24,1.57 15.07,1.88 14.81,1.96 C14.3821622,2.14969107 13.9261091,2.26792705 13.46,2.31 C13.81,2.31 13.62,2.6 13.03,2.47 C13.31,2.63 13.21,2.65 13.21,2.65 C13.21,2.65 12.71,2.65 12.58,2.56 C12.91,2.69 12.78,2.73 12.78,2.73 C12.61498,2.76313254 12.44502,2.76313254 12.28,2.73 C12.52,2.8 12.4,2.85 12.4,2.85 C12.2814101,2.87601645 12.1585899,2.87601645 12.04,2.85 C11.87,2.79 11.63,2.38 11.61,2.38 L11.61,2.27 Z" id="Shape" fill="#DF7A21"></path>
                <path d="M12.27,2.8 C12.190533,2.8130594 12.109467,2.8130594 12.03,2.8 C11.9,2.8 11.73,2.51 11.64,2.38 L11.64,2.32 C11.64,2.32 11.64,2.32 11.64,2.32 C11.64,2.32 11.9,2.17 12.87,2.25 C13.095679,2.18250869 13.3162418,2.0989622 13.53,2 L13.65,2 C14.1378243,1.9234327 14.6124665,1.77868366 15.06,1.57 C15.13,1.57 15.16,1.57 15.17,1.62 C15.18,1.67 15.01,1.94 14.83,2.01 C14.450479,2.16898989 14.0548316,2.28634294 13.65,2.36 C13.65,2.36 13.65,2.36 13.65,2.41 C13.65,2.46 13.45,2.58 13.16,2.54 C13.23,2.59 13.25,2.63 13.24,2.65 C13.23,2.67 13.24,2.65 13.24,2.65 C13.1101504,2.65884297 12.9798496,2.65884297 12.85,2.65 C12.8532353,2.66650966 12.8532353,2.68349034 12.85,2.7 C12.7401359,2.70773295 12.6298641,2.70773295 12.52,2.7 C12.52,2.7 12.52,2.75 12.47,2.76 L12.27,2.8 Z M11.66,2.28 C11.74,2.39 11.91,2.63 12.02,2.67 C12.0929553,2.68053019 12.1670447,2.68053019 12.24,2.67 L12.36,2.67 C12.36,2.67 12.36,2.67 12.3,2.67 L12.24,2.67 C12.24,2.67 12.24,2.67 12.24,2.67 L12.31,2.67 L12.55,2.67 L12.73,2.67 C12.73,2.67 12.73,2.67 12.65,2.61 C12.6020568,2.60206341 12.5571442,2.58133453 12.52,2.55 C12.52,2.55 12.52,2.55 12.52,2.55 L12.65,2.6 C12.8096469,2.6150331 12.9703531,2.6150331 13.13,2.6 C13.0963074,2.54239683 13.0522296,2.49153778 13,2.45 C13,2.45 13,2.45 13,2.45 C13.0962725,2.46234546 13.1937275,2.46234546 13.29,2.45 C13.49,2.45 13.57,2.4 13.58,2.36 C13.59,2.32 13.58,2.36 13.48,2.36 L13.43,2.36 C13.43,2.36 13.43,2.36 13.43,2.36 L13.49,2.36 C13.9309675,2.30392978 14.3618556,2.18610881 14.77,2.01 C14.94,1.95 15.09,1.74 15.08,1.68 C14.6206455,1.84126036 14.1441221,1.94864589 13.66,2 L13.55,2 C13.3172435,2.09279306 13.0761459,2.1631132 12.83,2.21 L12.32,2.21 C12.0943802,2.19814954 11.868298,2.22177006 11.65,2.28 L11.66,2.28 Z" id="Shape" fill="#000000"></path>
                <path d="M12,4.39 L12,5 L12,5.05 C12,5.05 11.54,4.98 11.61,5.32 C11.61,5.46 11.61,5.49 11.71,5.57 C11.7017929,5.52033678 11.7017929,5.46966322 11.71,5.42 C11.71,5.42 11.84,5.49 11.96,5.29 C11.87,5.49 11.96,5.56 11.96,5.57 C11.96,5.58 11.96,5.77 12.09,5.76 C12.0649914,5.71668385 12.0649914,5.66331615 12.09,5.62 C12.09,5.62 12.26,5.62 12.21,5.28 C12.27,5.22 12.29,5.28 12.29,5.28 C12.29,5.28 12.29,5.47 12.46,5.43 C12.63,5.39 12.46,5.57 12.46,5.57 C12.5205567,5.57101489 12.5757824,5.53551267 12.6,5.48 C12.6,5.38 12.67,5.22 12.49,5.15 C12.49,5.08 12.56,5.08 12.56,5.08 C12.6183123,5.09876514 12.6702505,5.13339064 12.71,5.18 C12.71,5.24 12.71,5.03 12.59,5 C12.47,4.97 12.4,5 12.4,5 C12.4,5 12.4,4.54 12.4,4.41 L12,4.39 Z" id="Shape" fill="#DF7A21"></path>
                <path d="M12,5.81 C11.86,5.81 11.85,5.69 11.85,5.63 L11.85,5.57 C11.8331333,5.52485737 11.8331333,5.47514263 11.85,5.43 C11.8027031,5.45325138 11.7472969,5.45325138 11.7,5.43 C11.6940293,5.4664236 11.6940293,5.5035764 11.7,5.54 C11.7,5.54 11.7,5.54 11.7,5.54 C11.6,5.45 11.59,5.42 11.59,5.27 C11.5594975,5.20682233 11.5594975,5.13317767 11.59,5.07 C11.6724115,4.99826691 11.7817117,4.96547686 11.89,4.98 L12,4.98 C12,4.98 12,4.98 12,4.98 L12,4.36 L12.3,4.31 C12.3400826,4.5147133 12.3668056,4.72181725 12.38,4.93 C12.38,4.93 12.38,4.93 12.54,4.93 C12.6346246,4.94929473 12.7019471,5.03344785 12.7,5.13 C12.7,5.13 12.65,5.13 12.64,5.13 C12.6042891,5.09257073 12.5595061,5.06501199 12.51,5.05 C12.6,5.05 12.7,5.18 12.62,5.41 C12.5912835,5.47808478 12.5238734,5.52170306 12.45,5.52 C12.4572422,5.49382505 12.4572422,5.46617495 12.45,5.44 C12.3472182,5.43497742 12.2650226,5.35278184 12.26,5.25 C12.265374,5.35344199 12.244746,5.45658202 12.2,5.55 C12.1747756,5.5831839 12.1398134,5.60765743 12.1,5.62 C12.1,5.62 12.1,5.68 12.1,5.72 L12,5.81 Z M11.88,5.28 C11.88,5.28 11.88,5.28 11.88,5.28 C11.81,5.45 11.88,5.51 11.88,5.52 C11.8884334,5.54257131 11.8884334,5.56742869 11.88,5.59 C11.88,5.64 11.88,5.68 11.88,5.7 C11.8662742,5.66117749 11.8662742,5.61882251 11.88,5.58 C11.88,5.58 11.94,5.58 11.97,5.51 C12.00558,5.42698507 12.00558,5.33301493 11.97,5.25 C12.05,5.13 12.1,5.25 12.11,5.25 C12.12,5.25 12.11,5.39 12.22,5.39 L12.27,5.39 C12.2753421,5.4062386 12.2753421,5.4237614 12.27,5.44 C12.2784334,5.46257131 12.2784334,5.48742869 12.27,5.51 C12.2961479,5.49727381 12.3172738,5.47614792 12.33,5.45 C12.38,5.29 12.33,5.2 12.24,5.16 C12.223923,5.1321539 12.223923,5.0978461 12.24,5.07 C12.2691823,5.06009431 12.3008177,5.06009431 12.33,5.07 L12.45,5.13 C12.4964926,5.10465163 12.520874,5.05182525 12.51,5 C12.46,5 12.3,5 12.3,4.92 C12.3,4.84 12.3,4.46 12.3,4.33 L12.05,4.33 L12.11,4.94 C12.1137359,4.96318379 12.1137359,4.98681621 12.11,5.01 L12,5.01 C12,5.01 11.81,5.01 11.75,5.08 C11.7249935,5.13040213 11.7249935,5.18959787 11.75,5.24 C11.75,5.33 11.75,5.37 11.75,5.4 C11.7473571,5.3767415 11.7473571,5.3532585 11.75,5.33 C11.75,5.33 11.85,5.38 11.96,5.21 L11.88,5.28 Z" id="Shape" fill="#000000"></path>
                <path d="M12.61,4.94 C12.61,4.94 12.31,4.5 12.39,4.45 C12.47,4.4 12.59,4.65 12.69,4.59 C12.79,4.53 12.57,4.59 12.47,4.38 C12.3870819,4.05879039 12.2255661,3.76325085 12,3.52 C12.23,3.88 12.76,4.09 12.79,3.98 C12.82,3.87 12.33,3.48 12.35,3.38 C12.5562347,3.71209856 12.9019398,3.93276138 13.29,3.98 C13.29,3.89 13,3.73 12.91,3.57 C12.5637708,3.35243375 12.256224,3.07868331 12,2.76 C11.8915753,2.57740745 11.7448769,2.4204742 11.57,2.3 C11.5660837,2.27683099 11.5660837,2.25316901 11.57,2.23 C11.43,1.9 11.57,1.8 11.73,1.78 C11.7894632,1.79135065 11.8505368,1.79135065 11.91,1.78 L11.68,1.69 C11.78,1.76 12.03,1.69 11.97,1.9 C12.08,1.9 12.32,1.58 11.71,1.52 C11.51,1.29 10.71,1.16 10.48,2.16 L10.56,2.23 C10.166063,2.10211926 9.76093194,2.01171811 9.35,1.96 C8.67,1.76 7.97,1.3 7.9,1.35 C7.83,1.4 8.31,1.85 8.28,1.87 C7.89162602,1.65052041 7.4909662,1.45352933 7.08,1.28 C6.82,1.18 6.56,0.96 6.53,1 C6.5,1.04 6.94,1.69 7.04,1.75 L7.87,2.16 C7.39480216,1.98074156 6.93635615,1.75988436 6.5,1.5 C6.4,1.5 6.15,1.15 6.09,1.17 C6.0981598,1.5259327 6.32479286,1.84003817 6.66,1.96 C6.75,2.02 7.82,2.41 7.8,2.43 C7.78,2.45 6.58,1.93 6.53,1.91 C6.29,1.81 6,1.49 5.95,1.53 C5.9,1.57 6.08,1.91 6.32,2.02 C6.56,2.13 6.92,2.31 7.32,2.47 L6.22,2 C6.05,1.9 5.96,1.78 5.94,1.81 C5.92,1.84 6.01,2.35 7.24,2.64 C7.24,2.64 7.68,2.54 7.66,2.56 L7.22,2.65 C7.13703836,2.63886901 7.05296164,2.63886901 6.97,2.65 C6.97,2.65 7.05,2.87 7.69,2.83 C7.77,2.83 8.21,2.66 8.17,2.7 L7.53,2.91 C7.44711151,2.89782294 7.36288849,2.89782294 7.28,2.91 C7.28,2.91 7.43,3.07 7.78,3.09 C8.06581641,3.09206261 8.3509531,3.06187167 8.63,3 C8.63,3 8.07,3.2 8.06,3.21 C8.05,3.22 7.84,3.21 7.84,3.21 C7.84,3.21 8.13,3.53 9.02,3.21 C8.93,3.33 8.5,3.42 8.5,3.44 C8.56114828,3.51834924 8.65124594,3.56880393 8.75,3.58 C8.84245898,3.59806723 8.93754102,3.59806723 9.03,3.58 C9.24979198,3.53645515 9.4516769,3.42855114 9.61,3.27 C9.61,3.33 9.04,3.64 9.07,3.67 C9.1,3.7 9.63,3.67 9.66,3.67 C9.94610662,3.5176811 10.2202287,3.34384762 10.48,3.15 C10.48,3.22 9.48,3.79 9.48,3.81 C9.48,3.83 9.9,3.81 9.92,3.81 L10.39,3.56 C10.39,3.56 9.87,3.87 9.92,3.92 C9.92,4.13 10.74,3.78 10.81,3.74 C10.88,3.7 10.4,3.93 10.4,4.03 C10.4,4.13 11,4.2 11.07,4.15 C11.14,4.1 11.07,4.33 11.07,4.31 C11.1231874,4.25777189 11.1671426,4.19691084 11.2,4.13 C11.2,4.2 11.14,4.3 11.11,4.42 C11.08,4.54 11.11,4.68 11.03,4.82 C10.95,4.96 11.31,4.69 11.27,4.24 C11.27,4.47 11.18,4.91 11.21,4.94 C11.24,4.97 11.44,4.72 11.46,4.54 C11.5140603,4.66385932 11.5962319,4.77342153 11.7,4.86 C11.7152972,4.77065001 11.7152972,4.67934999 11.7,4.59 C11.7132468,4.35685468 11.7132468,4.12314532 11.7,3.89 C11.95,4.36 12.04,4.56 11.98,4.89 C12.05,4.89 12.17,4.64 12.16,4.5 C12.2137799,4.74120162 12.4144856,4.92183671 12.66,4.95 L12.61,4.94 Z" id="Shape" fill="#DF7A21"></path>
                <path d="M12.6,5 C12.3887231,4.970565 12.2074151,4.83458402 12.12,4.64 C12.1002727,4.73770739 12.0593057,4.82988302 12,4.91 C11.9807574,4.91778402 11.9592426,4.91778402 11.94,4.91 C11.94,4.91 11.94,4.91 11.94,4.91 C11.9898842,4.58175678 11.9071328,4.24715299 11.71,3.98 C11.7219136,4.18315882 11.7219136,4.38684118 11.71,4.59 C11.7216687,4.65279586 11.7216687,4.71720414 11.71,4.78 L11.71,4.85 C11.6,4.85 11.51,4.69 11.45,4.6 C11.45,4.76 11.29,4.96 11.2,4.96 C11.11,4.96 11.2,4.89 11.2,4.72 C11.2,4.72 11.2,4.72 11.2,4.72 C11.2,4.72 11.07,4.89 11.03,4.89 C11.0360464,4.81011425 11.0360464,4.72988575 11.03,4.65 C11.03,4.59 11.03,4.53 11.03,4.48 C11.0264441,4.43340107 11.0264441,4.38659893 11.03,4.34 L11,4.29 C11,4.29 11,4.29 11,4.19 C11.0039163,4.16683099 11.0039163,4.14316901 11,4.12 C11,4.12 10.87,4.19 10.73,4.19 C10.5744708,4.20344352 10.4230856,4.13532016 10.33,4.01 C10.33,4.01 10.38,3.9 10.45,3.85 C10.21,3.94 9.92,4.01 9.86,3.94 C9.85272475,3.92412727 9.85272475,3.90587273 9.86,3.89 C9.86,3.89 9.86,3.82 9.96,3.77 L9.9,3.77 C9.9,3.77 9.49,3.88 9.43,3.77 C9.37,3.66 9.43,3.77 9.52,3.69 C9.36,3.69 9.12,3.74 9.04,3.69 C8.96,3.64 9.04,3.63 9.13,3.58 L9.02,3.58 C8.92712854,3.59313133 8.83287146,3.59313133 8.74,3.58 C8.59,3.58 8.47,3.45 8.47,3.41 C8.47,3.37 8.47,3.41 8.6,3.35 L8.88,3.26 C8.69130363,3.31464667 8.49638355,3.34489288 8.3,3.35 C8,3.35 7.85,3.26 7.82,3.21 C7.82,3.21 7.82,3.21 7.97,3.21 L8.06,3.21 L8.18,3.21 C8.05857239,3.2385851 7.93465939,3.2553301 7.81,3.26 C7.59579288,3.25288484 7.39366969,3.15904193 7.25,3 C7.25,2.94 7.25,2.93 7.48,2.9 L7.63,2.9 C7.12,2.9 6.99,2.8 6.95,2.75 C6.91,2.7 6.95,2.75 6.95,2.69 C6.95,2.63 7.06,2.69 7.14,2.69 C6.25,2.46 5.96,2.1 5.93,1.92 C5.9,1.74 5.93,1.87 5.93,1.85 C5.93,1.83 6,1.85 6.04,1.85 C6.10164692,1.90345606 6.16867221,1.95037376 6.24,1.99 C6.1097764,1.86451752 6.02529025,1.69906547 6,1.52 C5.9961619,1.5035543 5.9961619,1.4864457 6,1.47 C6.06,1.47 6.12,1.47 6.23,1.6 L6.37,1.72 C6.23851141,1.59268358 6.1479859,1.42904131 6.11,1.25 C6.11,1.25 6.11,1.14 6.11,1.12 C6.11,1.1 6.24,1.17 6.34,1.27 C6.3968521,1.33729177 6.46442818,1.39473144 6.54,1.44 C6.6796402,1.53807009 6.83076507,1.61867002 6.99,1.68 C6.82,1.53 6.45,1.13 6.54,0.95 C6.61,0.95 6.66,0.95 6.75,1.02 C6.8640404,1.09403337 6.98452901,1.15762458 7.11,1.21 C7.45,1.36 7.82,1.53 8.21,1.76 C8.01,1.54 7.92,1.42 7.93,1.37 L7.98,1.37 C8.11777033,1.41148667 8.24904695,1.47207588 8.37,1.55 C8.69150276,1.72220459 9.02583122,1.86930911 9.37,1.99 L9.47,1.99 C9.80821929,2.03428811 10.1425363,2.10449468 10.47,2.2 C10.61,1.45 11.06,1.37 11.26,1.37 C11.426954,1.36263299 11.5896195,1.4240844 11.71,1.54 C11.96,1.54 12.1,1.63 12.12,1.74 C12.1040051,1.80770706 12.0605202,1.86568688 12,1.9 C12.0020704,1.86002679 12.0020704,1.81997321 12,1.78 C11.9605064,1.78900142 11.9194936,1.78900142 11.88,1.78 L11.81,1.78 C11.7440246,1.79361231 11.6863348,1.83327408 11.65,1.89 C11.5983835,1.99042231 11.5983835,2.10957769 11.65,2.21 C11.6454192,2.23310851 11.6454192,2.25689149 11.65,2.28 C11.8237567,2.40584756 11.9700632,2.56576395 12.08,2.75 C12.3224932,3.06052612 12.6127774,3.33055797 12.94,3.55 C13.0005842,3.63792001 13.0748581,3.71556995 13.16,3.78 C13.27,3.86 13.35,3.93 13.33,3.99 L13.27,3.99 C13.055919,3.97432318 12.852564,3.89017629 12.69,3.75 C12.78,3.86 12.83,3.93 12.82,3.97 C12.81,4.01 12.82,3.97 12.75,3.97 C12.5856737,3.94188622 12.4309835,3.87313503 12.3,3.77 C12.3605965,3.88183484 12.4108068,3.99899233 12.45,4.12 C12.468767,4.18167721 12.492167,4.24184845 12.52,4.3 C12.5492622,4.36714921 12.6028508,4.42073777 12.67,4.45 C12.7010796,4.46402982 12.7259702,4.48892044 12.74,4.52 C12.74,4.52 12.74,4.52 12.67,4.52 C12.604991,4.50947237 12.5452523,4.477846 12.5,4.43 C12.4751963,4.40312974 12.4443432,4.38256097 12.41,4.37 C12.4597721,4.49039639 12.5235443,4.60451503 12.6,4.71 C12.65,4.8 12.66,4.82 12.66,4.83 L12.6,5 Z M12.1,4.5 C12.1505977,4.72413014 12.3329714,4.89460986 12.56,4.93 C12.5362695,4.91014227 12.5159947,4.88648836 12.5,4.86 C12.37,4.65 12.28,4.5 12.35,4.45 C12.3994994,4.4522828 12.4461486,4.47381317 12.48,4.51 C12.5160255,4.5539935 12.5650206,4.58549038 12.62,4.6 C12.62,4.6 12.62,4.6 12.62,4.6 C12.5464285,4.56322486 12.4867751,4.50357149 12.45,4.43 C12.4215383,4.36524048 12.398135,4.29837387 12.38,4.23 C12.3308887,4.07110989 12.2602311,3.91970085 12.17,3.78 C12.1016795,3.70521721 12.0444307,3.6210278 12,3.53 C12.0706266,3.59303853 12.1343209,3.66343751 12.19,3.74 C12.3348358,3.8766289 12.5149215,3.97013492 12.71,4.01 C12.71,4.01 12.62,3.81 12.52,3.71 C12.42,3.61 12.28,3.46 12.3,3.4 C12.5073602,3.72299114 12.8487191,3.93588163 13.23,3.98 L13.05,3.83 C12.9637247,3.76685254 12.8892526,3.68899528 12.83,3.6 C12.64,3.48 11.98,2.92 11.97,2.78 C11.861492,2.60342991 11.7186763,2.45041306 11.55,2.33 C11.5407878,2.3007072 11.5407878,2.2692928 11.55,2.24 C11.4929486,2.12678097 11.4929486,1.99321903 11.55,1.88 C11.5918841,1.81328217 11.6617581,1.76915126 11.74,1.76 L11.86,1.76 C11.813435,1.75341002 11.7689797,1.73631182 11.73,1.71 L11.86,1.71 C11.93,1.71 12,1.71 12.03,1.79 C12.0495658,1.82760736 12.0495658,1.87239264 12.03,1.91 C12.03,1.91 12.13,1.8 12.12,1.71 C12.11,1.62 11.98,1.57 11.74,1.54 C11.6193321,1.43212535 11.4617745,1.37483167 11.3,1.38 C11.12,1.38 10.68,1.46 10.53,2.16 C10.53,2.16 10.53,2.16 10.6,2.16 C10.2239736,2.06323379 9.83816011,2.0095554 9.45,2 L9.35,2 C9.00474375,1.87804223 8.67025268,1.72752125 8.35,1.55 C8.22959174,1.48026911 8.10223535,1.42329388 7.97,1.38 C7.97,1.38 8.15,1.63 8.23,1.73 C8.31,1.83 8.36,1.87 8.35,1.89 C7.89,1.66 7.49,1.48 7.12,1.32 C6.99192515,1.26250475 6.86825749,1.19565737 6.75,1.12 C6.69364964,1.06988613 6.62946526,1.02934863 6.56,1 C6.48,1.17 6.97,1.66 7.07,1.72 L7.54,1.95 L7.89,2.12 C7.89,2.12 7.89,2.12 7.89,2.12 L7.52,2 L7.3,1.89 C7.01744077,1.79550728 6.74848391,1.66439081 6.5,1.5 C6.5,1.5 6.38,1.41 6.29,1.33 C6.24271153,1.27028155 6.18514177,1.2194847 6.12,1.18 C6.11256959,1.24645963 6.11256959,1.31354037 6.12,1.38 C6.2108628,1.63008165 6.40345395,1.82994039 6.65,1.93 L6.77,1.99 L6.83,1.99 L7.23,2.15 C7.81,2.38 7.81,2.38 7.8,2.42 L7.75,2.42 C7.67,2.42 7.46,2.31 6.81,2.04 L6.75,2.04 L6.5,1.94 C6.3627063,1.87406529 6.23489584,1.78997946 6.12,1.69 C6.08832308,1.62789382 6.04791263,1.57064568 6,1.52 C6.06491006,1.70977869 6.19634589,1.86963308 6.37,1.97 L6.49,1.97 L6.93,2.17 L7.27,2.3 L7.39,2.35 L7.24,2.29 L7.18,2.29 L6.91,2.18 L6.22,2 C6.13910851,1.9538539 6.06505966,1.89663434 6,1.83 L5.94,1.83 C5.93657446,1.86658666 5.93657446,1.90341334 5.94,1.94 C6.01,2.07 6.27,2.41 7.2,2.62 L7.33,2.62 L7.47,2.62 L7.6,2.62 C7.6,2.62 7.6,2.62 7.6,2.62 L7.32,2.69 L7.2,2.69 L7.15,2.69 L6.91,2.69 C6.98,2.76 7.12,2.86 7.61,2.83 C7.70151938,2.81297859 7.79173873,2.78958839 7.88,2.76 L8.09,2.7 C8.09,2.7 8.09,2.7 8.09,2.7 C8.09,2.7 7.46,2.91 7.43,2.92 L7.19,2.92 C7.33234561,3.01373436 7.49958259,3.06251181 7.67,3.06 C7.96469519,3.07863978 8.2605621,3.05846704 8.55,3 C8.68,3 8.64,3 8.65,3 L8.31,3.13 L8.08,3.22 L7.97,3.22 L7.85,3.22 C7.98407908,3.3045506 8.14203557,3.34316218 8.3,3.33 C8.53818421,3.32697516 8.77440804,3.28647964 9,3.21 C8.87343068,3.30799078 8.7264887,3.37633589 8.57,3.41 L8.47,3.41 C8.54533912,3.45608377 8.62590886,3.49301156 8.71,3.52 C8.79629737,3.53131467 8.88370263,3.53131467 8.97,3.52 C9.1856199,3.47299042 9.38335624,3.3654496 9.54,3.21 C9.59,3.26 9.54,3.32 9.23,3.5 C9.15996623,3.53791872 9.0930853,3.58139132 9.03,3.63 C9.08302604,3.6380967 9.13697396,3.6380967 9.19,3.63 C9.32652404,3.62300537 9.46128756,3.59605266 9.59,3.55 C9.87430471,3.39831011 10.1482389,3.22793643 10.41,3.04 C10.41,3.04 10.41,3.04 10.41,3.04 C10.41,3.04 10.32,3.16 9.72,3.51 L9.38,3.72 L9.49,3.72 C9.59248558,3.715506 9.69366947,3.69526922 9.79,3.66 L10,3.71 L10.36,3.51 C10.1911679,3.60070745 10.0362505,3.71521162 9.9,3.85 C9.9,3.85 9.9,3.85 9.98,3.85 C10.2255025,3.81436384 10.4646118,3.74364138 10.69,3.64 L10.78,3.64 L10.7,3.64 C10.51,3.74 10.38,3.84 10.38,3.87 C10.4681037,3.9760607 10.6026531,4.03212292 10.74,4.02 C10.8208309,4.06122488 10.9093975,4.08506974 11,4.09 C11.05,4.09 11,4.09 11,4.2 C11,4.2 11.06,4.1 11.08,4.05 C11.08,4.05 11.08,4.05 11.08,4.05 C11.0860218,4.09312413 11.0860218,4.13687587 11.08,4.18 C11.08,4.18 11.08,4.29 11.03,4.35 C10.98,4.41 11.03,4.46 11.03,4.52 C11.0360847,4.5998843 11.0360847,4.6801157 11.03,4.76 C11.1348324,4.65466887 11.201671,4.51747383 11.22,4.37 C11.22,4.32 11.22,4.26 11.22,4.21 C11.2284729,4.27639745 11.2284729,4.34360255 11.22,4.41 C11.22,4.51 11.22,4.62 11.22,4.71 C11.2118356,4.77307021 11.2118356,4.83692979 11.22,4.9 C11.331196,4.79812761 11.4021602,4.65974742 11.42,4.51 C11.4759634,4.62988788 11.5579523,4.73579027 11.66,4.82 L11.66,4.77 C11.6733333,4.71074074 11.6733333,4.64925926 11.66,4.59 C11.66,4.42 11.66,4.2 11.66,3.94 L11.66,3.86 C11.66,3.86 11.66,3.86 11.66,3.86 C11.9,4.32 12.01,4.53 11.94,4.86 C12.0154739,4.7548906 12.0573135,4.62937185 12.06,4.5 L12.1,4.5 Z" id="Shape" fill="#000000"></path>
                <path d="M8.53,2 C8.42012828,2.07216985 8.2914538,2.11042442 8.16,2.11 C8.16,2.32 8.64,2.11 8.64,2.11 C8.5400865,2.22406058 8.41747393,2.31602 8.28,2.38 C8.45266196,2.43319768 8.63733804,2.43319768 8.81,2.38 C8.87874143,2.33344074 8.94242159,2.27981535 9,2.22 C9,2.22 8.62,2.67 8.56,2.66 C8.5,2.65 8.97,2.66 9.05,2.66 C9.14325876,2.58660151 9.24378212,2.52293672 9.35,2.47 C9.35,2.47 8.79,2.86 8.76,2.86 C9.07815719,2.88040943 9.39425012,2.79611798 9.66,2.62 C9.45292395,2.76789516 9.23187027,2.89516849 9,3 C9.18,3 9.27,3.16 9.88,2.89 C10.0991855,2.78549215 10.2883837,2.62725367 10.43,2.43 C10.163385,2.74164667 9.84547662,3.00544301 9.49,3.21 C9.49,3.21 9.9,3.44 10.49,2.87 L8.53,2 Z" id="Shape" fill="#DF7A21"></path>
                <path d="M9.69,3.29 C9.62780941,3.30701452 9.56219059,3.30701452 9.5,3.29 C9.4961619,3.2735543 9.4961619,3.2564457 9.5,3.24 L9.9,2.97 C9.4,3.19 9.25,3.14 9.1,3.09 L9,3 C9.12741218,2.94355873 9.24815393,2.87312604 9.36,2.79 C9.16049063,2.88343015 8.93850096,2.91811604 8.72,2.89 C8.72,2.89 8.72,2.89 8.72,2.89 L8.88,2.78 C8.75871317,2.81177434 8.63128683,2.81177434 8.51,2.78 C8.59601905,2.71711368 8.67335458,2.64314057 8.74,2.56 C8.58038854,2.60931148 8.40961146,2.60931148 8.25,2.56 C8.35763584,2.49426503 8.45529529,2.41344341 8.54,2.32 C8.42656879,2.35885717 8.30343121,2.35885717 8.19,2.32 C8.15354561,2.29809715 8.12810218,2.26174939 8.12,2.22 C8.2565774,2.20669633 8.38743677,2.15848498 8.5,2.08 C8.38998942,2.16072596 8.25642055,2.2029056 8.12,2.2 C8.14316901,2.19608372 8.16683099,2.19608372 8.19,2.2 C8.31,2.27 8.59,2.2 8.59,2.2 C8.49316932,2.3198169 8.36996547,2.41564212 8.23,2.48 C8.39864595,2.51034395 8.57135405,2.51034395 8.74,2.48 L9,2.21 C9,2.21 9,2.21 9,2.21 C8.96239535,2.26469096 8.9187909,2.31500379 8.87,2.36 C8.74,2.5 8.59,2.66 8.54,2.66 C8.69572527,2.66864215 8.85170163,2.64829741 9,2.6 C9.09453713,2.52842673 9.19488577,2.46487259 9.3,2.41 C9.3,2.41 9.3,2.41 9.3,2.41 C9.3,2.41 9.3,2.41 9.3,2.41 L8.76,2.78 C9.05359143,2.77866879 9.34100519,2.6955612 9.59,2.54 L9.31,2.73 C9.21453666,2.8002277 9.11429367,2.86371493 9.01,2.92 C9.15,2.92 9.3,3.01 9.8,2.8 C9.90799635,2.74218096 10.0087082,2.67168267 10.1,2.59 C10.1886271,2.51171379 10.2690427,2.4245968 10.34,2.33 C10.2643314,2.43297335 10.1770938,2.52692147 10.08,2.61 C9.86338116,2.79739584 9.63270424,2.96789617 9.39,3.12 C9.39,3.12 9.44,3.12 9.52,3.12 C9.8347573,3.12 10.1311456,2.97180584 10.32,2.72 C10.126196,2.95658868 9.84477013,3.10451769 9.54,3.13 L9.69,3.29 Z" id="Shape" fill="#000000"></path>
                <path d="M11.51,3.2 C11.5363968,3.31950084 11.599301,3.4278359 11.69,3.51 C11.7720001,3.57537527 11.8285921,3.66733724 11.85,3.77 L11.51,3.2 Z" id="Shape" fill="#DF7A21"></path>
                <path d="M11.85,3.79 C11.85,3.79 11.85,3.79 11.85,3.79 C11.8332315,3.69076356 11.7796705,3.60149524 11.7,3.54 C11.6077187,3.45341597 11.5418438,3.3424688 11.51,3.22 C11.5404734,3.33498846 11.60288,3.4389995 11.69,3.52 C11.7768475,3.58972057 11.8340248,3.68978098 11.85,3.8 L11.85,3.79 Z" id="Shape" fill="#000000"></path>
                <path d="M11.43,2.06 C11.4686688,2.16499225 11.5384393,2.25569385 11.63,2.32 C11.797488,2.44685353 11.937054,2.60684387 12.04,2.79 C12.0866828,2.9880335 12.1233956,3.18828546 12.15,3.39 L11.43,2.06 Z" id="Shape" fill="#DF7A21"></path>
                <path d="M12.15,3.41 C12.1110367,3.20411049 12.0609636,3.0004796 12,2.8 C11.8951185,2.62407371 11.7596582,2.46829433 11.6,2.34 C11.5030818,2.27460789 11.4295233,2.18003263 11.39,2.07 C11.4304912,2.1686086 11.5003096,2.25239073 11.59,2.31 C11.7538751,2.44459885 11.8926758,2.60709729 12,2.79 C12.0461907,2.99101576 12.0795911,3.19475772 12.1,3.4 L12.15,3.41 Z" id="Shape" fill="#000000"></path>
                <path d="M10.49,2.3 C10.3751893,2.53487717 10.4147801,2.81597221 10.59,3.01 C10.3,3.36 10.3,3.4 10.3,3.4 C10.3,3.4 10.46,3.49 10.74,3.25 C11.21,3.82 11.05,4.09 11.05,4.09 L10.49,2.3 Z" id="Shape" fill="#DF7A21"></path>
                <path d="M11.06,4.12 C11.06,4.12 11.2,3.85 10.75,3.3 C10.49,3.55 10.32,3.46 10.32,3.46 C10.32,3.46 10.41,3.26 10.6,3.03 C10.4230676,2.87077295 10.373991,2.61312066 10.48,2.4 L10.48,2.34 C10.48,2.34 10.48,2.34 10.48,2.34 C10.4872422,2.36617495 10.4872422,2.39382505 10.48,2.42 C10.4009483,2.61998106 10.4480843,2.8478053 10.6,3 C10.4944954,3.12794463 10.4007802,3.26517041 10.32,3.41 C10.4600573,3.4008208 10.5918038,3.34028865 10.69,3.24 C11.2,3.83 11.05,4.1 11.04,4.11 L11.06,4.12 Z" id="Shape" fill="#000000"></path>
                <path d="M11,3.69 C11,3.69 11,3.63 11,3.39 C11.07,3.48 11.14,3.49 11.18,3.53 C11.22,3.57 11.56,3.62 11.59,3.85 L11,3.69 Z" id="Shape" fill="#DF7A21"></path>
                <path d="M11.65,3.88 C11.65,3.88 11.65,3.88 11.65,3.88 C11.65,3.72 11.44,3.65 11.33,3.61 C11.22,3.57 11.26,3.61 11.25,3.61 L11.2,3.61 C11.1143791,3.56545036 11.0445496,3.49562086 11,3.41 C10.9752402,3.49829709 10.9752402,3.59170291 11,3.68 C11,3.68 11,3.68 11,3.68 C11,3.68 11,3.6 11,3.37 L11.16,3.46 L11.22,3.46 L11.28,3.46 C11.4,3.46 11.62,3.58 11.64,3.77 L11.65,3.88 Z" id="Shape" fill="#000000"></path>
                <path d="M11.44,1.52 C11.44,1.52 11.37,1.34 11.1,1.52 C11.24,1.52 11.38,1.61 11.44,1.52 Z" id="Shape" fill="#DF7A21"></path>
                <path d="M11.34,1.59 L11.22,1.59 L11.1,1.59 L11,1.59 C11.0687192,1.53428111 11.1520482,1.49956068 11.24,1.49 C11.3052043,1.4832695 11.3652193,1.52613738 11.38,1.59 C11.3589463,1.63646918 11.3108131,1.66454692 11.26,1.66 L11.34,1.59 Z M11.17,1.52 L11.23,1.52 L11.34,1.52 C11.3647521,1.53429062 11.3952479,1.53429062 11.42,1.52 C11.3439414,1.47075646 11.2460586,1.47075646 11.17,1.52 Z" id="Shape" fill="#000000"></path>
                <path d="M14,2.21 C14.3267916,2.29083041 14.6640273,2.32118163 15,2.3 C14.67,2.75 14,2.44 14,2.44 C14.33,2.54 14.34,2.53 14.45,2.63 C14.56,2.73 13.85,2.63 13.64,2.56 C14.22,2.74 14.23,2.73 14.25,2.8 C14.27,2.87 13.25,2.8 13.25,2.64 C13.4252382,2.77193443 13.6089685,2.89219425 13.8,3 C13.62,3.07 13.3,3.15 12.7,2.73 C13.1722892,3.11028555 13.7216607,3.38326516 14.31,3.53 C14.04,3.94 12.97,3.29 12.48,2.96 C12.8548434,3.25890959 13.2604659,3.51703295 13.69,3.73 C13.62,3.84 13.1,3.73 13.07,3.73 L14,2.21 Z" id="Shape" fill="#DF7A21"></path>
                <path d="M13.51,3.79 C13.3538208,3.79676568 13.1986145,3.7622754 13.06,3.69 C13.2055747,3.75020366 13.3626471,3.77752059 13.52,3.77 L13.61,3.77 C13.1690628,3.53027167 12.7477524,3.25608547 12.35,2.95 C12.35,2.95 12.35,2.95 12.48,2.95 C12.93,3.25 14.02,3.95 14.27,3.52 L14,3.44 C13.4927915,3.32520842 13.0241333,3.08054131 12.64,2.73 C13.22,3.14 13.53,3.08 13.72,3 C13.6709305,3.01364211 13.6190695,3.01364211 13.57,3 C13.4462385,2.9425681 13.3289159,2.87217454 13.22,2.79 L13.16,2.79 L13.21,2.79 C13.395779,2.86198068 13.5912707,2.9057978 13.79,2.92 C13.9117227,2.94818859 14.0382773,2.94818859 14.16,2.92 C14.16,2.92 14.16,2.92 13.86,2.79 C13.7692724,2.778975 13.6812321,2.75188567 13.6,2.71 L13.86,2.8 C14.0316705,2.83395448 14.2083295,2.83395448 14.38,2.8 C14.330309,2.75835495 14.272376,2.7276845 14.21,2.71 C14.1325044,2.63688209 14.0621838,2.55651576 14,2.47 C14,2.47 14,2.47 14,2.47 L14.12,2.47 L14.25,2.47 C14.5040693,2.57566114 14.7963129,2.52500558 15,2.34 C14.6631976,2.34941097 14.3267035,2.31239662 14,2.23 C14.3265209,2.31243273 14.6640075,2.34280652 15,2.32 C14.8526383,2.50784831 14.6164482,2.60308626 14.38,2.57 L14.44,2.62 C14.44,2.62 14.44,2.62 14.44,2.62 C14.3382796,2.64582011 14.2317204,2.64582011 14.13,2.62 C14.24,2.62 14.25,2.67 14.26,2.73 C14.27,2.79 14.26,2.73 14.26,2.73 C13.984108,2.75000675 13.7068226,2.72295452 13.44,2.65 L13.64,2.76 L13.79,2.84 C13.5606841,3.00977702 13.2555957,3.03681017 13,2.91 C13.3223565,3.14396528 13.690323,3.30750595 14.08,3.39 C14.1770746,3.40608146 14.269325,3.44366499 14.35,3.5 C14.15,3.81 13.58,3.6 13.05,3.31 C13.2524164,3.46768998 13.4742269,3.59875986 13.71,3.7 C13.71,3.7 13.62,3.76 13.5,3.76 L13.51,3.79 Z" id="Shape" fill="#000000"></path>
                <path d="M14.18,3 C14.0469009,3.0111772 13.9130991,3.0111772 13.78,3 L14.18,3 Z" id="Shape" fill="#DF7A21"></path>
                <path d="M13.92,3 L13.78,3 C13.78,3 13.78,3 13.78,3 C13.78,3 13.78,3 13.78,3 C13.9130951,3.01127186 14.0469049,3.01127186 14.18,3 C14.18,3 14.18,3 14.18,3 L13.92,3 Z" id="Shape" fill="#000000"></path>
                <path d="M8.3,1.84 C8.5635942,1.98698285 8.85153597,2.08522181 9.15,2.13 C9.10198968,2.17408305 9.04344746,2.20507599 8.98,2.22 C9.13452682,2.29783918 9.31144417,2.31906926 9.48,2.28 L9.34,2.42 C9.50039449,2.46660774 9.67265465,2.44866398 9.82,2.37 L9.7,2.53 L9.87,2.53 L8.3,1.84 Z" id="Shape" fill="#DF7A21"></path>
                <path d="M9.87,2.57 L9.7,2.57 C9.7,2.57 9.7,2.5 9.75,2.44 C9.61426364,2.48886349 9.46573636,2.48886349 9.33,2.44 C9.33,2.44 9.33,2.37 9.41,2.32 C9.26949961,2.33471911 9.12765772,2.3105022 9,2.25 C9,2.25 9,2.25 9,2.25 L9.11,2.25 C8.83484716,2.18921886 8.569128,2.09167638 8.32,1.96 C8.58069719,2.10546905 8.86508316,2.20364992 9.16,2.25 C9.1241631,2.27983287 9.08360844,2.30348976 9.04,2.32 C9.18008247,2.36317206 9.32991753,2.36317206 9.47,2.32 C9.47,2.32 9.47,2.32 9.47,2.32 C9.47,2.32 9.47,2.32 9.47,2.32 L9.33,2.45 L9.45,2.45 C9.56489867,2.45082144 9.67823294,2.42334646 9.78,2.37 C9.78,2.37 9.78,2.37 9.78,2.37 C9.73485652,2.42285527 9.69468625,2.47976316 9.66,2.54 L9.82,2.54 L9.87,2.57 Z" id="Shape" fill="#000000"></path>
                <path d="M0.46,11.73 C0.46,11.73 0.53,11.73 0.46,11.73 C0.39,11.73 0.39,11.73 0.46,11.73 Z" id="Shape" fill="#FFFFFF"></path>
            </g>
        </g>
    </g>
</svg>