<?xml version="1.0" encoding="UTF-8"?>
<svg width="34px" height="20px" viewBox="0 0 34 20" version="1.1" xmlns="http://www.w3.org/2000/svg" xmlns:xlink="http://www.w3.org/1999/xlink">
    <!-- Generator: Sketch 49 (51002) - http://www.bohemiancoding.com/sketch -->
    <title>ZWL</title>
    <desc>Created with Sketch.</desc>
    <defs></defs>
    <g id="Page-1" stroke="none" stroke-width="1" fill="none" fill-rule="evenodd">
        <g id="ZWL" fill-rule="nonzero">
            <rect id="Rectangle-path" fill="#4A9318" x="0" y="0" width="33.56" height="19.58"></rect>
            <rect id="Rectangle-path" fill="#F6D128" x="0" y="2.8" width="33.56" height="13.99"></rect>
            <rect id="Rectangle-path" fill="#CB0423" x="0" y="5.6" width="33.56" height="8.39"></rect>
            <rect id="Rectangle-path" fill="#000000" x="0" y="8.39" width="33.56" height="2.8"></rect>
            <polygon id="Shape" fill="#000000" points="0 0 0 19.58 0.71 19.58 13.76 9.79 0.71 0"></polygon>
            <polygon id="Shape" fill="#FFFFFF" points="0 0 0 19.58 13.04 9.79"></polygon>
            <polygon id="Shape" fill="#CB0423" points="5.28 4.82 3.08 9.28 6.42 10.93"></polygon>
            <polygon id="Shape" fill="#CB0423" points="5.28 4.82 7.48 9.28 4.14 10.93"></polygon>
            <polygon id="Shape" fill="#CB0423" points="5.28 4.82 3.62 9.5 7.13 10.75"></polygon>
            <polygon id="Shape" fill="#CB0423" points="5.28 4.82 6.95 9.5 3.44 10.75"></polygon>
            <polygon id="Shape" fill="#CB0423" points="10.01 8.25 5.09 7.54 4.55 11.23"></polygon>
            <polygon id="Shape" fill="#CB0423" points="0.56 8.25 5.47 7.54 6.01 11.23"></polygon>
            <polygon id="Shape" fill="#CB0423" points="10.01 8.25 5.04 8.12 4.94 11.84"></polygon>
            <polygon id="Shape" fill="#CB0423" points="0.56 8.25 5.52 8.12 5.63 11.84"></polygon>
            <polygon id="Shape" fill="#CB0423" points="7.79 13.25 6.92 9.07 4.83 9.5"></polygon>
            <polygon id="Shape" fill="#CB0423" points="7.79 13.25 4.08 11.13 5.14 9.27"></polygon>
            <polygon id="Shape" fill="#CB0423" points="2.77 13.25 6.48 11.13 5.42 9.27"></polygon>
            <polygon id="Shape" fill="#CB0423" points="2.77 13.25 3.64 9.07 5.73 9.5"></polygon>
            <g id="Group" transform="translate(3.000000, 5.000000)">
                <path d="M4,7.89 C3.99458647,7.24607546 4.1029162,6.60625303 4.32,6 C4.44120542,5.65444269 4.59175447,5.31988926 4.77,5 C4.85849971,5.00506918 4.94593253,5.02188318 5.03,5.05 C5.3,5.13 5.38,5.12 5.38,4.98 C5.38,4.84 5.1,4.66 3.73,3.51 C2.8,2.8 2,2.19 2,2.19 C1.97449495,2.20113131 1.94550505,2.20113131 1.92,2.19 C1.92,2.19 1.87,1.86 1.82,1.52 C1.79056138,1.26708929 1.74378461,1.01649946 1.68,0.77 C1.57970138,0.559413541 1.36301093,0.42939927 1.13,0.44 C0.988133927,0.4138225 0.841618911,0.442410796 0.72,0.52 C0.629247839,0.576445299 0.526468908,0.610704943 0.42,0.62 C0.263662761,0.619907026 0.135390913,0.743755708 0.13,0.9 L0.13,1 L0.37,1 C0.5,1 0.57,1 0.52,1 C0.47,1 0.42,1.28 0.62,1.34 C0.82,1.4 0.83,1.34 0.83,2.39 C0.866244509,2.76800393 0.842620719,3.1493594 0.76,3.52 C0.6716706,3.84748177 0.6716706,4.19251823 0.76,4.52 C0.787924371,4.5951936 0.811299926,4.671999 0.83,4.75 C0.760490331,4.8552891 0.68363252,4.95553842 0.6,5.05 C0.397163078,5.26026283 0.267426864,5.53025441 0.23,5.82 C0.225985542,5.88419526 0.205305588,5.94623512 0.17,6 C0.0863041764,6.12019898 0.0863041764,6.27980102 0.17,6.4 C0.379249122,6.98295025 0.526723943,7.58625634 0.61,8.2 C0.61,8.3 0.61,8.3 1.15,8.2 C1.81408119,8.11696624 2.48591881,8.11696624 3.15,8.2 L3.76,8.32 C4.07,8.41 4.05,8.42 4.06,8.02" id="Shape" fill="#000000"></path>
                <path d="M3.55,8.1 C3.03998248,7.99862292 2.51881608,7.96499928 2,8 L1.3,8.05 L1.15,8.05 L1.15,7.8 C1.142624,7.71015113 1.142624,7.61984887 1.15,7.53 L1.47,7.47 C2.28306505,7.39134297 3.1027816,7.41485943 3.91,7.54 L4.02,7.54 L4.02,7.85 C4.02,8.08 4.02,8.15 4.02,8.15 L3.7,8.08" id="Shape" fill="#FCFF2C"></path>
                <path d="M0.65,8.13 C0.65,8.06 0.46,7.13 0.38,6.86 C0.3,6.59 0.28,6.46 0.28,6.45 C0.28,6.44 0.33,6.45 0.39,6.45 C0.44080174,6.48560162 0.498859159,6.50950762 0.56,6.52 C0.73,6.52 0.82,6.78 0.97,7.64 C0.97,7.76 0.97,7.9 1.02,7.94 C1.07,7.98 1.02,8.03 0.87,8.06 C0.72,8.09 0.64,8.11 0.64,8.06" id="Shape" fill="#FCFF2C"></path>
                <path d="M3.87,7.45 C3.87,7.45 3.87,7.4 3.87,7.37 C3.87,7.34 3.92,7.37 3.92,7.37 C3.92,7.37 3.87,7.48 3.84,7.43" id="Shape" fill="#FCFF2C"></path>
                <path d="M1.22,7.31 C1.31,7.21 1.31,7.21 1.38,7.31 C1.45,7.41 1.45,7.38 1.38,7.41 L1.22,7.41 L1.12,7.41 L1.22,7.31 Z" id="Shape" fill="#FCFF2C"></path>
                <path d="M3.4,7.37 C3.41893549,7.33392998 3.44639877,7.3030338 3.48,7.28 C3.54,7.28 3.55,7.28 3.6,7.28 L3.66,7.37 L3.52,7.37 C3.43,7.37 3.39,7.37 3.4,7.37" id="Shape" fill="#FCFF2C"></path>
                <path d="M3.69,7.31 C3.69,7.26 3.63,7.2 3.63,7.2 L3.78,7.2 L3.92,7.2 L3.84,7.29 L3.76,7.38 L3.69,7.31 Z" id="Shape" fill="#FCFF2C"></path>
                <path d="M1,7.32 C1,7.25 1,7.19 1.13,7.19 C1.26,7.19 1.2,7.19 1.13,7.3 C1.06,7.41 1.05,7.38 1.03,7.3" id="Shape" fill="#FCFF2C"></path>
                <polygon id="Shape" fill="#FCFF2C" points="1.76 7.25 1.85 7.15 1.93 7.23 2.03 7.32 1.86 7.32 1.67 7.32"></polygon>
                <path d="M2.93,7.34 L2.82,7.34 L2.9,7.25 L3,7.15 L3.1,7.26 C3.2,7.39 3.19,7.39 2.95,7.34" id="Shape" fill="#FCFF2C"></path>
                <path d="M1.47,7.24 L1.39,7.15 L1.51,7.15 C1.56626759,7.15951096 1.62373241,7.15951096 1.68,7.15 C1.68,7.15 1.68,7.15 1.68,7.24 C1.6542725,7.28576977 1.62038006,7.3264407 1.58,7.36 C1.54204714,7.33556832 1.5082807,7.30517853 1.48,7.27" id="Shape" fill="#FCFF2C"></path>
                <polygon id="Shape" fill="#FCFF2C" points="2.32 7.22 2.41 7.11 2.5 7.21 2.59 7.32 2.22 7.32"></polygon>
                <path d="M3.19,7.24 L3.11,7.15 L3.26,7.15 C3.43,7.15 3.45,7.15 3.36,7.27 C3.27,7.39 3.28,7.35 3.19,7.27" id="Shape" fill="#FCFF2C"></path>
                <path d="M2,7.2 L2,7.11 L2.35,7.11 L2.27,7.2 C2.17,7.32 2.17,7.32 2.07,7.2" id="Shape" fill="#FCFF2C"></path>
                <path d="M2.63,7.2 L2.55,7.11 L2.9,7.11 L2.83,7.2 C2.73,7.32 2.73,7.32 2.63,7.2" id="Shape" fill="#FCFF2C"></path>
                <path d="M3.69,7.11 L3,7 C2.37958273,6.95617357 1.75630285,6.97627938 1.14,7.06 C1.01,7.06 0.98,7.06 0.98,7.06 C1.52757743,6.89719074 2.10230748,6.8461792 2.67,6.91 C3.17,6.91 3.67,6.91 3.8,6.91 C3.93,6.91 4,7 4,7.06 C4,7.12 4,7.17 3.71,7.11" id="Shape" fill="#FCFF2C"></path>
                <path d="M1.12,6.8 C1.16334852,6.75232894 1.21397612,6.71182686 1.27,6.68 C1.30869266,6.7034496 1.3426183,6.73398267 1.37,6.77 L1.44,6.86 L1.28,6.86 L1.05,6.86 C1.05,6.86 1.05,6.86 1.11,6.74" id="Shape" fill="#FCFF2C"></path>
                <path d="M0.89,6.82 C0.89,6.75 0.89,6.73 0.89,6.7 C0.932575149,6.68853621 0.977424851,6.68853621 1.02,6.7 C1.08,6.7 1.07,6.7 1.02,6.81 L0.92,6.92 L0.89,6.82 Z" id="Shape" fill="#FCFF2C"></path>
                <path d="M4,6.86 C4,6.86 4,6.86 4,6.81 C4,6.76 4,6.81 4,6.81 C4,6.81 3.92,6.88 3.92,6.81" id="Shape" fill="#FCFF2C"></path>
                <polygon id="Shape" fill="#FCFF2C" points="1.73 6.73 1.82 6.61 1.93 6.71 2.03 6.81 1.84 6.81 1.65 6.81"></polygon>
                <path d="M3.5,6.83 L3.36,6.83 L3.46,6.74 L3.56,6.65 L3.64,6.74 C3.73,6.83 3.74,6.88 3.64,6.87 L3.46,6.87" id="Shape" fill="#FCFF2C"></path>
                <path d="M1.46,6.73 L1.36,6.64 L1.52,6.64 L1.69,6.64 C1.69,6.64 1.69,6.7 1.63,6.76 L1.56,6.85 L1.46,6.73 Z" id="Shape" fill="#FCFF2C"></path>
                <path d="M2.9,6.79 L2.82,6.79 L2.9,6.71 C2.97,6.63 2.99,6.62 3.04,6.71 C3.07260505,6.74195684 3.0996437,6.77913498 3.12,6.82 C3.12,6.87 3.12,6.89 3.06,6.88 L2.89,6.88" id="Shape" fill="#FCFF2C"></path>
                <path d="M3.74,6.7 L3.64,6.59 L3.72,6.59 L3.93,6.59 L4.06,6.59 L3.96,6.68 L3.84,6.77 C3.79403261,6.73644917 3.75355083,6.69596739 3.72,6.65" id="Shape" fill="#FCFF2C"></path>
                <path d="M2,6.7 C1.99493428,6.6635083 1.99493428,6.6264917 2,6.59 C2,6.59 2.08,6.59 2.19,6.59 L2.38,6.59 L2.32,6.67 C2.21,6.8 2.16,6.82 2.08,6.72" id="Shape" fill="#FCFF2C"></path>
                <path d="M2.34,6.69 C2.45,6.58 2.48,6.58 2.55,6.69 C2.62,6.8 2.55,6.77 2.43,6.77 L2.25,6.77 L2.34,6.69 Z" id="Shape" fill="#FCFF2C"></path>
                <polyline id="Shape" fill="#FCFF2C" points="3.16 6.67 3.08 6.56 3.16 6.56 3.34 6.56 3.44 6.56 3.34 6.65 3.24 6.74 3.15 6.63"></polyline>
                <path d="M2.63,6.65 L2.55,6.56 L2.9,6.56 L2.83,6.65 C2.73,6.76 2.73,6.76 2.63,6.65" id="Shape" fill="#FCFF2C"></path>
                <path d="M0.87,6.54 C0.87,6.54 0.87,6.39 0.93,6.29 L0.93,6.1 L1.3,5.9 C1.47095113,5.80922976 1.63475621,5.70559797 1.79,5.59 L2,5.45 C2.47874561,5.45088408 2.95675148,5.48765377 3.43,5.56 C3.76,5.61 4.32,5.72 4.35,5.74 C4.32022689,5.86527879 4.28350342,5.98880319 4.24,6.11 L4.11,6.53 C4.11,6.53 4.11,6.53 3.95,6.53 C3.04889322,6.44030456 2.14110678,6.44030456 1.24,6.53 C0.9,6.59 0.85,6.58 0.88,6.53" id="Shape" fill="#FCFF2C"></path>
                <path d="M3.63,6.31 C3.73158003,6.20822318 3.76499272,6.05681096 3.71567964,5.921736 C3.66636656,5.78666105 3.54326023,5.69239069 3.4,5.68 C3.30612846,5.68239287 3.21742623,5.72350188 3.15492364,5.79358054 C3.09242105,5.8636592 3.06168403,5.95646692 3.07,6.05 C3.05992321,6.18689582 3.1356412,6.3157341 3.26014286,6.37353845 C3.38464453,6.43134279 3.53192767,6.40604075 3.63,6.31" id="Shape" fill="#000000"></path>
                <path d="M3.27,6.3 C3.18173492,6.24529822 3.12803481,6.14884127 3.12803481,6.045 C3.12803481,5.94115873 3.18173492,5.84470178 3.27,5.79 C3.35457664,5.74998125 3.4541333,5.75849344 3.53068872,5.81228913 C3.60724413,5.86608483 3.64898996,5.95686629 3.64,6.05 C3.64288039,6.1448677 3.59573816,6.2342809 3.51583422,6.28550138 C3.43593028,6.33672185 3.33500055,6.34222657 3.25,6.3" id="Shape" fill="#FCFF2C"></path>
                <path d="M2.3,6.29 C2.39259476,6.20446402 2.43813683,6.07944803 2.4222572,5.95439591 C2.40637756,5.8293438 2.33103467,5.71967828 2.22,5.66 C2.06799204,5.58757393 1.8859652,5.64972943 1.81,5.8 C1.70984449,5.94089921 1.73135822,6.13452271 1.86,6.25 C1.91280755,6.32129376 1.99627888,6.36334167 2.085,6.36334167 C2.17372112,6.36334167 2.25719245,6.32129376 2.31,6.25" id="Shape" fill="#000000"></path>
                <path d="M2,6.27 C1.89447427,6.20377609 1.84086029,6.07922376 1.86529331,5.95705866 C1.88972633,5.83489356 1.9871209,5.74054294 2.11,5.72 C2.23448141,5.73451881 2.33555249,5.82735881 2.36056797,5.95016208 C2.38558345,6.07296535 2.32888284,6.19794402 2.22,6.26 C2.11,6.32 2.1,6.32 2,6.26" id="Shape" fill="#FCFF2C"></path>
                <path d="M0.72,6.43 C0.72,6.29 0.72,6.12 0.72,6.12 C0.72,6.12 0.72,6.12 0.72,6.25 C0.737802747,6.30867943 0.737802747,6.37132057 0.72,6.43 C0.72,6.43 0.72,6.43 0.72,6.26 C0.72,6.09 0.72,6.05 0.72,6.05 C0.72,6.05 0.63,6.23 0.61,6.38 C0.59,6.53 0.61,6.47 0.61,6.38 C0.573623737,6.30063636 0.573623737,6.20936364 0.61,6.13 C0.647752338,6.05492969 0.671474971,5.97359494 0.68,5.89 C0.68,5.8 0.74,5.71 1.05,5.38 C1.36,5.05 1.49,4.89 1.58,4.78 C1.67,4.67 1.73,4.57 1.73,4.37 C1.73951681,4.29362867 1.73951681,4.21637133 1.73,4.14 C1.73,4.14 1.64,4.32 1.66,4.44 C1.68,4.56 1.66,4.59 1.45,4.85 C1.24,5.11 1.1,5.26 0.97,5.4 C0.84,5.54 0.63,5.79 0.63,5.92 C0.618093405,5.99968942 0.594506622,6.07718885 0.56,6.15 C0.542615382,6.21553332 0.542615382,6.28446668 0.56,6.35 C0.56,6.35 0.56,6.35 0.56,6.35 C0.56,6.35 0.56,6.27 0.56,6.15 C0.571022228,6.08714623 0.571022228,6.02285377 0.56,5.96 C0.56,5.9 0.48,5.96 0.46,6.15 C0.44,6.34 0.46,6.33 0.41,6.31 C0.36,6.29 0.41,6.1 0.41,6.01 C0.449132304,5.92767077 0.476081093,5.8400872 0.49,5.75 C0.484517951,5.48868202 0.546513885,5.23036562 0.67,5 L0.88,4.73 L0.81,4.5 C0.72776748,4.1886719 0.72776748,3.8613281 0.81,3.55 C0.921119428,3.23947808 1.10250666,2.95884122 1.34,2.73 C1.62,2.44 1.88,2.27 2.01,2.29 C2.14,2.31 5.3,5 5.3,5 C5.30030761,5.01519046 5.29369149,5.02969668 5.28201947,5.03942336 C5.27034745,5.04915005 5.25488596,5.05304183 5.24,5.05 L3.44,4.55 C2.80647495,4.41754029 2.19410472,4.19883663 1.62,3.9 C1.5311052,3.77044972 1.5311052,3.59955028 1.62,3.47 C1.65422324,3.42962243 1.67823189,3.38160514 1.69,3.33 C1.69,3.25 1.53,3.46 1.49,3.58 C1.46906497,3.73065228 1.51263509,3.8831477 1.61,4 C1.8212531,4.09396123 2.03837501,4.17412932 2.26,4.24 C2.8,4.41 2.84,4.43 2.87,4.53 C2.9,4.63 2.71,5.03 2.38,5.11 C2.2411865,5.14538432 2.11159555,5.21017979 2,5.3 C1.74004861,5.52555241 1.45480867,5.72018672 1.15,5.88 C1.05135042,5.91937066 0.957429607,5.96968538 0.87,6.03 C0.833039715,6.10537967 0.809359198,6.18657001 0.8,6.27 C0.8,6.5 0.74,6.53 0.68,6.53 C0.62,6.53 0.68,6.53 0.68,6.44" id="Shape" fill="#FCFF2C"></path>
                <path d="M4.07,5.59 C3.60194454,5.48805463 3.12752779,5.41789441 2.65,5.38 L2.12,5.38 L2.32,5.29 C2.44098534,5.24667001 2.55807266,5.19314438 2.67,5.13 C2.76090366,5.04858026 2.87798926,5.00245563 3,5 C3.29,5 3.49,5 3.57,4.84 L3.64,4.73 C3.81628145,4.76493258 3.99000838,4.81170521 4.16,4.87 L4.67,5.03 L4.57,5.22 C4.51,5.32 4.45,5.45 4.42,5.52 C4.39,5.59 4.34,5.66 4.03,5.58" id="Shape" fill="#FCFF2C"></path>
                <path d="M2.9,4.92 C2.9,4.92 2.9,4.92 2.9,4.83 C2.9,4.74 2.95,4.83 2.97,4.83 C2.99,4.83 2.97,4.98 2.9,4.95" id="Shape" fill="#FCFF2C"></path>
                <path d="M3,4.91 C3,4.91 3,4.91 3.05,4.91 C3.1,4.91 3.05,4.91 3.05,4.91" id="Shape" fill="#FCFF2C"></path>
                <path d="M3.19,4.89 C3.19,4.89 3.19,4.89 3.19,4.89 C3.19,4.89 3.19,4.98 3.19,4.98 C3.19,4.98 3.19,4.98 3.19,4.92" id="Shape" fill="#FCFF2C"></path>
                <path d="M3.35,4.89 C3.34078784,4.8607072 3.34078784,4.8292928 3.35,4.8 C3.35,4.8 3.35,4.8 3.35,4.8 C3.36426286,4.82830476 3.36426286,4.86169524 3.35,4.89 C3.35,4.89 3.35,4.89 3.35,4.89" id="Shape" fill="#FCFF2C"></path>
                <path d="M3.08,4.81 C3.07275776,4.78382505 3.07275776,4.75617495 3.08,4.73 C3.08,4.73 3.08,4.73 3.08,4.73 C3.09004066,4.75572153 3.09004066,4.78427847 3.08,4.81 C3.08,4.81 3.08,4.81 3.08,4.81" id="Shape" fill="#FCFF2C"></path>
                <path d="M3.47,4.8 C3.47,4.73 3.47,4.73 3.52,4.8 C3.57,4.87 3.52,4.85 3.52,4.85 C3.50075739,4.85778402 3.47924261,4.85778402 3.46,4.85" id="Shape" fill="#FCFF2C"></path>
                <path d="M3.21,4.73 C3.21,4.73 3.21,4.73 3.21,4.73 C3.21,4.73 3.21,4.8 3.21,4.73" id="Shape" fill="#FCFF2C"></path>
                <path d="M3.36,4.67 C3.36,4.67 3.36,4.67 3.36,4.67 C3.36,4.67 3.36,4.76 3.36,4.76 C3.36,4.76 3.36,4.76 3.36,4.7" id="Shape" fill="#FCFF2C"></path>
                <path d="M3,4.63 C3,4.57 3,4.56 3,4.63 C3.01333333,4.64777778 3.01333333,4.67222222 3,4.69 C3,4.69 3,4.69 3,4.69" id="Shape" fill="#FCFF2C"></path>
                <path d="M3.09,4.59 C3.09,4.59 3.09,4.59 3.09,4.59 C3.09,4.59 3.09,4.68 3.09,4.68 C3.09,4.68 3.09,4.68 3.09,4.62" id="Shape" fill="#FCFF2C"></path>
                <path d="M0.87,2.82 C0.87,2.66 0.87,2.3 0.87,2 C0.87,1.39 0.87,1.33 0.69,1.27 C0.51,1.21 0.48,1.17 0.48,1.1 C0.48,1.03 0.48,1.05 0.68,1.1 C0.88,1.15 0.88,1.1 0.87,1.1 C0.86,1.1 0.62,0.93 0.38,0.94 C0.14,0.95 0.16,0.94 0.18,0.94 C0.219719114,0.813663935 0.337578025,0.728317827 0.47,0.73 C0.568303154,0.718517765 0.663417152,0.687945408 0.75,0.64 C0.862213162,0.576463447 0.993458808,0.555180369 1.12,0.58 C1.55,0.58 1.64,0.73 1.75,1.58 C1.75,1.9 1.83,2.19 1.83,2.24 C1.83,2.29 1.77,2.36 1.62,2.47 C1.390536,2.61811085 1.18200507,2.79637116 1,3 L0.92,3.12 L0.87,2.82 Z" id="Shape" fill="#FCFF2C"></path>
                <path d="M1.19,0.9 C1.22670732,0.852982733 1.22670732,0.787017267 1.19,0.74 C1.19,0.62 1.09,0.65 1.11,0.74 C1.13,0.83 1.11,0.83 1.06,0.83 C1.01,0.83 1,0.84 1,0.75 C1,0.66 1,0.64 1,0.68 C0.965967863,0.708500228 0.946306801,0.750610256 0.946306801,0.795 C0.946306801,0.839389744 0.965967863,0.881499772 1,0.91 C1.07,1 1.15,1 1.23,0.91" id="Shape" fill="#000000"></path>
            </g>
        </g>
    </g>
</svg>