<svg xmlns="http://www.w3.org/2000/svg" width="1200" height="800" viewBox="0 0 1200 800" fill="none">
    <defs>
      <linearGradient id="bg" x1="0" y1="0" x2="1200" y2="800" gradientUnits="userSpaceOnUse">
        <stop offset="0%" stop-color="#0B0B0B"/>
        <stop offset="58%" stop-color="#111111"/>
        <stop offset="100%" stop-color="#161616"/>
      </linearGradient>
      <radialGradient id="goldGlow" cx="0" cy="0" r="1" gradientUnits="userSpaceOnUse" gradientTransform="translate(730 120) rotate(90) scale(150 150)">
        <stop stop-color="#D4AF37" stop-opacity="0.9"/>
        <stop offset="1" stop-color="#D4AF37" stop-opacity="0"/>
      </radialGradient>
      <radialGradient id="greenGlow" cx="0" cy="0" r="1" gradientUnits="userSpaceOnUse" gradientTransform="translate(680 130) rotate(90) scale(160 160)">
        <stop stop-color="#3DDC84" stop-opacity="0.8"/>
        <stop offset="1" stop-color="#3DDC84" stop-opacity="0"/>
      </radialGradient>
      <linearGradient id="lineGrad" x1="120" y1="680" x2="680" y2="140" gradientUnits="userSpaceOnUse">
        <stop offset="0%" stop-color="#3DDC84" stop-opacity="0.25"/>
        <stop offset="100%" stop-color="#D4AF37" stop-opacity="0.65"/>
      </linearGradient>
      <filter id="softBlur" x="-20%" y="-20%" width="140%" height="140%">
        <feGaussianBlur stdDeviation="18"/>
      </filter>
    </defs>

    <rect width="1200" height="800" rx="42" fill="url(#bg)"/>
    <circle cx="1010" cy="84" r="120" fill="#D4AF37" opacity="0.08" filter="url(#softBlur)"/>
    <circle cx="150" cy="670" r="180" fill="#3DDC84" opacity="0.08" filter="url(#softBlur)"/>
    <path d="M90 650 C220 540, 310 490, 440 410 C540 348, 620 290, 760 180" stroke="url(#lineGrad)" stroke-width="2.4" opacity="0.65"/>
    <path d="M120 720 C280 590, 410 510, 580 420" stroke="#D4AF37" stroke-opacity="0.18" stroke-width="1.6"/>
    <rect x="78" y="74" width="320" height="14" rx="7" fill="#D4AF37" opacity="0.9"/>
    <rect x="78" y="108" width="180" height="10" rx="5" fill="#FFFFFF" opacity="0.10"/>
    
        <circle cx="670" cy="125" r="100" fill="url(#goldGlow)" opacity="0.42"/>
        <path d="M230 390 C250 300, 320 250, 405 250 C490 250, 560 300, 580 390" fill="none" stroke="#F6E08B" stroke-width="16" stroke-linecap="round"/>
        <ellipse cx="405" cy="392" rx="190" ry="38" fill="none" stroke="#3DDC84" stroke-width="12"/>
        <path d="M320 190 L350 250 M490 190 L460 250" stroke="#D4AF37" stroke-width="14" stroke-linecap="round"/>
        <circle cx="405" cy="320" r="24" fill="#D4AF37" opacity="0.9"/>
        
    </svg>