<svg xmlns="http://www.w3.org/2000/svg" viewBox="0 0 1200 630" role="img" aria-labelledby="title desc">
  <title id="title">Protein timing article cover</title>
  <desc id="desc">Illustrated protein shaker and clock for a sports nutrition article.</desc>
  <defs>
    <linearGradient id="bg" x1="0" y1="0" x2="1" y2="1">
      <stop offset="0%" stop-color="#10181d"/>
      <stop offset="55%" stop-color="#163942"/>
      <stop offset="100%" stop-color="#0f7b6c"/>
    </linearGradient>
    <linearGradient id="accent" x1="0" y1="0" x2="1" y2="1">
      <stop offset="0%" stop-color="#f1d27a"/>
      <stop offset="100%" stop-color="#d4af37"/>
    </linearGradient>
  </defs>
  <rect width="1200" height="630" fill="url(#bg)"/>
  <circle cx="890" cy="178" r="116" fill="rgba(255,255,255,0.08)"/>
  <circle cx="890" cy="178" r="88" fill="none" stroke="#f4e3a3" stroke-width="14"/>
  <line x1="890" y1="178" x2="890" y2="120" stroke="#f4e3a3" stroke-width="14" stroke-linecap="round"/>
  <line x1="890" y1="178" x2="944" y2="208" stroke="#f4e3a3" stroke-width="14" stroke-linecap="round"/>
  <rect x="260" y="150" width="250" height="330" rx="42" fill="#f3f5f7"/>
  <path d="M305 112h160c12 0 22 10 22 22v28H283v-28c0-12 10-22 22-22Z" fill="#d4af37"/>
  <rect x="320" y="78" width="130" height="44" rx="18" fill="#1d252b"/>
  <path d="M300 244c43-34 97-52 154-52 26 0 52 4 77 12v160c-34 18-71 28-109 28-43 0-85-12-122-33Z" fill="url(#accent)" opacity="0.88"/>
  <path d="M602 204c78-38 151-57 220-57 73 0 141 18 203 55" fill="none" stroke="rgba(255,255,255,0.14)" stroke-width="24" stroke-linecap="round"/>
  <path d="M570 470c118-74 226-111 324-111 72 0 138 20 198 60" fill="none" stroke="rgba(255,255,255,0.12)" stroke-width="20" stroke-linecap="round"/>
  <circle cx="628" cy="466" r="20" fill="#d4af37"/>
  <circle cx="1038" cy="436" r="14" fill="#f3d98c"/>
</svg>
